<?xml version="1.0" encoding="UTF-8" standalone="no"?>
<svg xmlns:xlink="http://www.w3.org/1999/xlink" height="34.15px" width="30.5px" xmlns="http://www.w3.org/2000/svg">
  <g transform="matrix(1.0, 0.0, 0.0, 1.0, 15.25, 18.75)">
    <path d="M7.65 13.1 L7.65 13.05 7.35 12.8 6.05 13.2 3.65 13.35 1.75 13.55 -1.75 13.1 -3.9 12.55 -6.0 11.65 Q-7.9 10.25 -7.9 9.25 -6.85 8.4 -6.85 7.75 -6.85 7.45 -8.0 7.2 -9.25 6.9 -9.75 5.8 -10.15 4.9 -10.15 3.7 L-9.75 1.9 -9.6 1.05 Q-8.5 0.45 -8.5 0.2 -8.5 -0.3 -9.35 -0.45 -9.8 -0.95 -10.15 -0.95 L-11.0 -0.4 -11.0 -1.4 Q-10.9 -5.35 -8.45 -8.35 L-4.6 -11.6 Q-4.15 -11.95 -1.15 -13.0 L0.95 -13.6 2.3 -13.85 3.85 -13.95 4.05 -14.2 Q7.75 -13.15 10.6 -10.35 L10.75 -10.2 Q15.0 -5.85 15.0 0.2 15.0 4.1 13.2 7.3 L13.05 7.55 12.9 7.85 10.6 10.75 Q9.2 12.15 7.65 13.1 M0.9 -4.1 Q1.1 -3.45 0.45 -3.45 L-0.8 -3.9 -3.25 -4.45 Q-6.5 -4.45 -7.15 -3.1 L-7.0 -3.05 -3.85 -4.05 -2.9 -4.0 -2.9 -3.85 0.6 -3.05 Q1.3 -3.05 1.3 -3.75 L1.05 -4.15 0.9 -4.1 M2.2 -4.15 L2.15 -3.6 Q2.15 -2.9 2.55 -2.9 3.15 -2.9 3.9 -3.2 L6.45 -3.5 Q9.75 -3.5 9.4 -2.7 L9.5 -2.75 9.55 -2.9 Q9.55 -3.9 6.5 -3.9 3.3 -3.9 2.65 -3.25 2.4 -3.45 2.4 -4.15 L2.2 -4.15 M4.45 -0.1 L3.8 -0.2 2.25 0.0 -0.2 0.0 -0.8 -0.1 Q-4.0 -0.1 -4.75 2.35 L-5.0 1.2 -4.95 1.0 -5.0 0.9 -5.0 0.85 -4.95 0.85 Q-4.4 0.85 -4.4 0.45 -4.4 0.25 -4.55 0.15 L-5.5 -0.1 -5.9 -0.05 -6.3 0.2 Q-6.3 0.65 -5.55 0.8 L-5.1 2.55 -4.95 4.6 Q-4.95 5.5 -5.25 6.65 -5.75 7.15 -5.75 7.95 L-5.7 8.1 Q-5.25 7.9 -5.1 7.35 L-5.05 7.35 -4.45 5.6 -4.2 6.2 -3.55 7.25 Q-2.6 8.05 -0.1 8.05 7.0 8.05 7.0 3.75 7.0 2.1 6.55 1.65 L5.9 0.8 5.9 0.5 5.65 -0.2 Q6.05 -0.4 6.05 -0.7 L5.7 -1.0 Q5.35 -0.75 4.7 -0.75 L4.4 -0.85 Q4.15 -0.85 4.1 -0.65 L4.05 -0.5 4.45 -0.1 M4.6 -0.1 L5.45 -0.15 5.4 0.05 5.6 0.5 Q5.1 0.05 4.6 -0.1 M6.2 6.75 L6.4 6.7 6.3 6.4 6.2 6.4 6.15 6.65 6.2 6.75" fill="#fde0b5" fill-rule="evenodd" stroke="none"/>
    <path d="M-1.25 -14.65 L-1.4 -14.6 -1.45 -14.6 -1.85 -15.2 Q-2.0 -15.5 -2.7 -15.45 -3.45 -15.4 -3.75 -15.75 -4.65 -16.45 -4.65 -16.9 -4.65 -18.75 -2.65 -18.75 -1.4 -18.75 -1.4 -18.3 L-1.45 -17.85 -1.6 -17.85 Q-1.9 -18.5 -2.65 -18.5 -3.55 -18.5 -4.0 -17.7 L-4.3 -16.8 Q-4.3 -16.4 -3.25 -15.8 -2.85 -15.45 -2.15 -15.65 -1.6 -15.75 -1.35 -15.4 L-1.2 -14.85 -1.25 -14.65" fill="#000000" fill-rule="evenodd" stroke="none"/>
    <path d="M4.05 -14.2 L3.85 -13.95 2.3 -13.85 0.95 -13.6 -1.15 -13.0 Q-4.15 -11.95 -4.6 -11.6 L-8.45 -8.35 Q-10.9 -5.35 -11.0 -1.4 L-11.0 -0.4 -10.15 -0.95 Q-9.8 -0.95 -9.35 -0.45 -8.5 -0.3 -8.5 0.2 -8.5 0.45 -9.6 1.05 L-9.75 1.9 -10.15 3.7 Q-10.15 4.9 -9.75 5.8 -9.25 6.9 -8.0 7.2 -6.85 7.45 -6.85 7.75 -6.85 8.4 -7.9 9.25 -7.9 10.25 -6.0 11.65 L-3.9 12.55 -1.75 13.1 1.75 13.55 3.65 13.35 6.05 13.2 7.35 12.8 7.65 13.05 7.65 13.1 6.45 13.7 Q3.5 15.15 0.0 15.15 -6.2 15.15 -10.65 10.75 -15.0 6.4 -15.0 0.2 -15.0 -4.45 -12.45 -8.1 L-10.65 -10.35 Q-6.75 -14.2 -1.45 -14.6 L-1.4 -14.6 -1.25 -14.65 0.0 -14.7 0.6 -14.7 3.2 -14.4 4.05 -14.2 M4.45 -0.1 L4.05 -0.5 4.1 -0.65 Q4.15 -0.85 4.4 -0.85 L4.7 -0.75 Q5.35 -0.75 5.7 -1.0 L6.05 -0.7 Q6.05 -0.4 5.65 -0.2 L5.65 -0.4 5.45 -0.4 5.45 -0.15 4.6 -0.1 4.45 -0.1 M-5.55 0.8 Q-6.3 0.65 -6.3 0.2 L-5.9 -0.05 -5.5 -0.1 -4.55 0.15 Q-4.4 0.25 -4.4 0.45 -4.4 0.85 -4.95 0.85 L-5.0 0.85 Q-5.25 0.3 -5.5 0.3 L-5.8 0.35 -5.5 0.85 -5.55 0.8" fill="#fccf8b" fill-rule="evenodd" stroke="none"/>
    <path d="M5.65 -0.2 L5.9 0.5 5.9 0.8 5.7 0.85 5.6 0.5 5.4 0.05 5.45 -0.15 5.45 -0.4 5.65 -0.4 5.65 -0.2 M-4.45 5.6 L-5.05 7.35 -5.1 7.35 Q-5.25 7.9 -5.7 8.1 L-5.75 7.95 Q-5.75 7.15 -5.25 6.65 -4.95 5.5 -4.95 4.6 L-5.1 2.55 -5.55 0.8 -5.5 0.85 -5.8 0.35 -5.5 0.3 Q-5.25 0.3 -5.0 0.85 L-5.0 0.9 -4.95 1.0 -5.0 1.2 -4.75 2.35 -4.7 2.6 -4.4 4.65 -4.45 5.6 M6.2 6.75 L6.15 6.65 6.2 6.4 6.3 6.4 6.4 6.7 6.2 6.75" fill="#865204" fill-rule="evenodd" stroke="none"/>
    <path d="M-4.75 2.35 Q-4.0 -0.1 -0.8 -0.1 L-0.2 0.0 2.25 0.0 3.8 -0.2 4.45 -0.1 4.6 -0.1 Q5.1 0.05 5.6 0.5 L5.7 0.85 5.9 0.8 6.55 1.65 Q7.0 2.1 7.0 3.75 7.0 8.05 -0.1 8.05 -2.6 8.05 -3.55 7.25 L-4.2 6.2 -4.45 5.6 -4.4 4.65 -4.7 2.6 -4.75 2.35 M-1.65 0.5 Q-2.65 0.95 -3.2 1.75 L-2.4 0.75 Q-4.4 1.55 -4.4 3.85 L-3.75 6.0 Q-3.2 7.25 -2.4 7.5 L-0.1 7.6 Q6.6 7.6 6.6 3.7 6.6 2.85 6.1 1.85 4.75 0.2 3.6 0.2 L2.85 0.4 2.75 0.35 0.9 0.4 -0.4 0.35 -0.45 0.3 -1.65 0.5 M4.05 2.35 Q4.45 2.75 4.4 3.85 4.4 6.35 2.65 6.35 2.0 6.35 1.7 5.85 L1.45 5.3 1.05 5.3 0.65 5.5 -0.3 5.2 -0.6 4.8 -0.7 4.3 Q-0.7 2.85 0.5 2.55 L1.2 2.45 1.3 2.45 1.35 2.55 1.9 2.6 Q2.2 2.05 3.3 2.05 L3.8 2.15 4.05 2.35 M-3.7 3.15 L-3.75 3.95 -3.05 6.0 -3.05 6.05 -3.2 6.05 -3.85 4.0 -3.6 2.65 -3.6 2.85 -3.65 2.9 -3.65 3.0 -3.7 3.15 M0.15 3.0 Q-0.35 3.1 -0.35 3.9 L-0.35 3.95 -0.4 4.25 Q-0.4 5.15 0.5 5.15 L1.45 5.0 2.65 6.0 Q3.9 6.0 4.1 3.85 4.1 2.4 3.15 2.4 L2.25 2.9 2.25 2.95 2.15 3.0 2.1 3.0 2.0 3.0 1.4 4.05 1.35 4.05 1.35 3.55 1.8 3.0 0.5 2.85 Q0.3 2.85 0.15 3.0" fill="#802202" fill-rule="evenodd" stroke="none"/>
    <path d="M-1.65 0.5 L-0.45 0.3 -0.4 0.35 0.9 0.4 2.75 0.35 2.85 0.4 3.6 0.2 Q4.75 0.2 6.1 1.85 6.6 2.85 6.6 3.7 6.6 7.6 -0.1 7.6 L-2.4 7.5 Q-3.2 7.25 -3.75 6.0 L-4.4 3.85 Q-4.4 1.55 -2.4 0.75 L-3.2 1.75 Q-2.65 0.95 -1.65 0.5 M-1.25 0.75 L-1.2 0.6 -1.4 0.55 -2.15 0.95 -2.7 1.5 -2.75 1.6 -2.8 1.6 -2.8 1.65 -3.25 2.15 -3.6 2.85 -3.6 2.65 -3.85 4.0 -3.2 6.05 -3.05 6.05 -3.05 6.0 -3.75 3.95 -3.7 3.15 -3.7 3.25 -3.3 4.8 -3.0 5.6 Q-3.0 6.3 -2.45 6.65 L-2.2 6.8 -1.2 6.95 -1.0 7.1 Q1.05 7.1 1.05 6.3 L1.05 6.2 1.05 6.1 1.0 6.0 Q0.85 5.5 0.05 5.5 L-0.05 5.5 -0.2 5.35 -0.3 5.2 0.65 5.5 1.05 5.3 1.45 5.3 1.7 5.85 Q2.0 6.35 2.65 6.35 4.4 6.35 4.4 3.85 4.45 2.75 4.05 2.35 L4.2 2.45 4.65 2.8 4.45 3.45 Q4.45 4.3 4.6 4.75 L4.05 5.8 Q4.05 6.15 4.35 6.15 L5.3 5.5 Q5.65 5.5 5.9 4.75 L6.0 4.6 6.0 4.45 6.15 3.45 Q6.15 2.7 5.55 1.8 4.6 0.55 2.75 0.55 2.25 0.9 0.9 0.9 0.7 0.6 -0.35 0.6 L-1.25 0.75 M-3.4 4.2 L-3.45 3.6 -3.4 3.3 -3.4 3.6 -3.35 3.75 -3.4 4.2 M-3.35 4.4 L-3.1 4.9 -3.1 4.95 -2.95 5.2 -2.95 5.3 -3.35 4.4 M-0.6 4.8 L-0.8 4.6 -0.8 4.3 -0.85 3.9 -0.15 2.55 0.25 2.55 0.5 2.55 Q-0.7 2.85 -0.7 4.3 L-0.6 4.8 M1.2 2.45 L1.75 2.2 Q2.15 1.8 2.8 1.8 L3.8 2.15 3.3 2.05 Q2.2 2.05 1.9 2.6 L1.35 2.55 1.3 2.45 1.2 2.45 M-0.35 3.95 Q-0.3 4.35 0.15 4.35 0.95 4.35 0.95 3.5 1.0 2.95 0.35 2.95 L0.15 3.0 Q0.3 2.85 0.5 2.85 L1.8 3.0 1.35 3.55 1.35 4.05 1.4 4.05 2.0 3.0 2.1 3.0 2.15 3.0 2.25 2.95 2.25 2.9 3.15 2.4 Q4.1 2.4 4.1 3.85 3.9 6.0 2.65 6.0 L1.45 5.0 0.5 5.15 Q-0.4 5.15 -0.4 4.25 L-0.35 3.95 M2.1 4.3 L2.15 4.8 Q2.3 5.3 2.9 5.3 3.8 5.3 3.8 3.8 4.0 2.9 3.2 2.9 2.1 2.9 2.1 4.3" fill="#ef3f03" fill-rule="evenodd" stroke="none"/>
    <path d="M-1.25 0.75 L-0.35 0.6 Q0.7 0.6 0.9 0.9 2.25 0.9 2.75 0.55 4.6 0.55 5.55 1.8 6.15 2.7 6.15 3.45 L6.0 4.45 6.0 4.6 5.9 4.75 Q5.65 5.5 5.3 5.5 L4.35 6.15 Q4.05 6.15 4.05 5.8 L4.6 4.75 Q4.45 4.3 4.45 3.45 L4.65 2.8 4.2 2.45 4.05 2.35 3.8 2.15 2.8 1.8 Q2.15 1.8 1.75 2.2 L1.2 2.45 0.5 2.55 0.25 2.55 -0.15 2.55 -0.85 3.9 -0.8 4.3 -0.8 4.6 -0.6 4.8 -0.3 5.2 -0.2 5.35 -0.05 5.5 0.05 5.5 Q0.85 5.5 1.0 6.0 L1.05 6.1 1.05 6.2 1.05 6.3 Q1.05 7.1 -1.0 7.1 L-1.2 6.95 -2.2 6.8 -2.45 6.65 Q-3.0 6.3 -3.0 5.6 L-2.6 6.15 -2.55 5.95 -2.95 5.3 -2.95 5.2 -3.1 4.95 -3.1 4.9 -3.35 4.4 -3.4 4.2 -3.35 3.75 -3.4 3.6 -3.4 3.3 -2.75 1.95 -1.25 0.75 M-0.35 3.95 L-0.35 3.9 Q-0.35 3.1 0.15 3.0 L0.35 2.95 Q1.0 2.95 0.95 3.5 0.95 4.35 0.15 4.35 -0.3 4.35 -0.35 3.95 M2.1 4.3 Q2.1 2.9 3.2 2.9 4.0 2.9 3.8 3.8 3.8 5.3 2.9 5.3 2.3 5.3 2.15 4.8 L2.1 4.3 M3.0 3.15 Q2.6 3.15 2.6 3.85 2.6 4.35 3.0 4.35 3.45 4.35 3.45 3.75 L3.0 3.15" fill="#fd7040" fill-rule="evenodd" stroke="none"/>
    <path d="M-3.6 2.85 L-3.25 2.15 -2.8 1.65 -2.8 1.6 -2.75 1.6 -2.7 1.5 -2.15 0.95 -1.4 0.55 -1.2 0.6 -1.25 0.75 -2.75 1.95 -3.4 3.3 -3.45 3.6 -3.4 4.2 -3.35 4.4 -2.95 5.3 -2.55 5.95 -2.6 6.15 -3.0 5.6 -3.3 4.8 -3.7 3.25 -3.7 3.15 -3.65 3.0 -3.65 2.9 -3.6 2.85 M3.0 3.15 L3.45 3.75 Q3.45 4.35 3.0 4.35 2.6 4.35 2.6 3.85 2.6 3.15 3.0 3.15" fill="#fea283" fill-rule="evenodd" stroke="none"/>
    <path d="M7.65 13.1 Q9.2 12.15 10.6 10.75 L12.9 7.85 13.05 7.55 13.2 7.3 Q15.0 4.1 15.0 0.2 15.0 -5.85 10.75 -10.2 L10.6 -10.35 Q7.75 -13.15 4.05 -14.2 L3.2 -14.4 0.6 -14.7 0.0 -14.7 -1.25 -14.65 M-1.45 -14.6 Q-6.75 -14.2 -10.65 -10.35 L-12.45 -8.1 Q-15.0 -4.45 -15.0 0.2 -15.0 6.4 -10.65 10.75 -6.2 15.15 0.0 15.15 3.5 15.15 6.45 13.7 L7.65 13.1 Z" fill="none" stroke="#865204" stroke-linecap="round" stroke-linejoin="round" stroke-width="0.5"/>
    <path d="M2.4 -4.15 Q2.4 -3.45 2.65 -3.25 3.3 -3.9 6.5 -3.9 9.55 -3.9 9.55 -2.9 L9.5 -2.75 9.4 -2.7 Q9.75 -3.5 6.45 -3.5 L3.9 -3.2 Q3.15 -2.9 2.55 -2.9 2.15 -2.9 2.15 -3.6 L2.2 -4.15 2.4 -4.15" fill="#000000" fill-rule="evenodd" stroke="none"/>
    <path d="M0.6 -3.05 L-2.9 -3.85 -2.9 -4.0 -3.85 -4.05 -7.0 -3.05 -7.15 -3.1 Q-6.5 -4.45 -3.25 -4.45 L-0.8 -3.9 0.45 -3.45 Q1.1 -3.45 0.9 -4.1 L1.05 -4.15 1.3 -3.75 Q1.3 -3.05 0.6 -3.05" fill="#000000" fill-rule="evenodd" stroke="none"/>
  </g>
</svg>
