<?xml version="1.0" encoding="UTF-8" standalone="no"?>
<svg xmlns:xlink="http://www.w3.org/1999/xlink" height="30.7px" width="30.5px" xmlns="http://www.w3.org/2000/svg">
  <g transform="matrix(1.0, 0.0, 0.0, 1.0, 15.25, 15.3)">
    <path d="M7.65 13.1 L7.65 13.05 7.35 12.8 6.05 13.2 3.65 13.35 1.75 13.55 -1.75 13.1 -3.9 12.5 -6.0 11.6 Q-7.9 10.2 -7.9 9.2 -6.85 8.35 -6.85 7.6 -6.85 7.35 -8.0 7.1 -9.25 6.8 -9.75 5.7 -10.15 4.8 -10.15 3.6 L-9.75 1.75 -9.6 0.9 Q-8.5 0.3 -8.5 0.05 -8.5 -0.45 -9.35 -0.6 -9.8 -1.1 -10.15 -1.1 L-11.0 -0.55 -11.0 -1.55 Q-10.9 -5.55 -8.45 -8.65 L-4.6 -11.9 -1.15 -13.35 0.95 -13.9 2.3 -14.15 3.85 -14.25 4.05 -14.5 Q7.75 -13.5 10.6 -10.6 L10.75 -10.45 Q15.0 -6.05 15.0 0.05 15.0 4.0 13.2 7.2 L13.05 7.45 12.9 7.75 10.6 10.7 7.65 13.1 M-0.05 -2.75 L0.1 -2.75 0.85 -2.7 2.55 -2.9 4.0 -2.85 6.05 -2.7 6.45 -2.7 6.45 -2.75 7.4 -2.95 7.75 -2.9 8.0 -4.8 7.75 -7.0 6.85 -8.05 5.7 -8.8 3.85 -9.15 Q2.0 -9.15 0.85 -8.15 L0.25 -7.5 Q-0.7 -8.9 -3.0 -8.9 -5.75 -8.9 -7.05 -7.0 -7.95 -5.75 -7.95 -4.55 L-7.75 -2.55 -7.4 -2.6 -6.95 -2.55 -6.8 -2.6 -4.75 -2.45 -2.85 -2.7 -0.1 -2.8 -0.1 -2.75 -0.95 -2.3 -1.6 -1.75 -1.55 -1.55 -1.2 -1.55 -0.95 -1.7 Q-2.05 -0.8 -3.75 -0.8 L-5.3 -1.05 -5.4 -1.0 -5.4 -0.9 -2.95 -0.45 Q-2.05 -0.45 -0.9 -1.15 0.1 -1.85 0.1 -2.25 L0.95 -1.9 Q1.35 -1.45 2.05 -1.3 2.3 -1.15 2.65 -0.95 L2.8 -1.0 2.85 -1.15 2.85 -1.2 2.8 -1.35 1.1 -2.1 1.1 -2.3 Q1.0 -2.65 0.4 -2.65 L0.05 -2.55 -0.05 -2.75 M4.45 -0.25 L3.8 -0.35 2.25 -0.15 -0.2 -0.15 -0.8 -0.25 Q-4.0 -0.25 -4.75 2.2 L-5.0 1.05 -4.95 0.85 -5.0 0.65 -4.95 0.65 Q-4.4 0.65 -4.4 0.3 -4.4 0.1 -4.55 0.0 L-5.5 -0.25 -5.9 -0.2 -6.3 0.05 Q-6.3 0.5 -5.55 0.6 L-5.1 2.4 -4.95 4.5 Q-4.95 5.35 -5.25 6.55 -5.75 7.05 -5.75 7.9 L-5.7 8.05 Q-5.25 7.85 -5.1 7.25 L-5.05 7.25 -4.45 5.5 -4.2 6.1 -3.55 7.15 Q-2.6 8.0 -0.1 8.0 7.0 8.0 7.0 3.65 7.0 1.95 6.55 1.5 L5.9 0.6 5.9 0.35 5.65 -0.35 Q6.05 -0.55 6.05 -0.85 L5.7 -1.15 Q5.35 -0.9 4.7 -0.9 L4.4 -1.0 Q4.15 -1.0 4.1 -0.8 L4.05 -0.65 4.45 -0.25 M5.6 0.35 Q5.1 -0.1 4.6 -0.25 L5.45 -0.3 5.4 -0.1 5.6 0.35 M-7.6 -2.0 L-7.55 -2.05 -7.6 -2.05 -7.6 -2.0 M-0.2 -2.6 L-0.2 -2.65 -0.15 -2.7 -0.2 -2.6 M-0.45 -2.35 L-0.35 -2.4 -0.4 -2.3 -0.45 -2.3 -0.45 -2.35 M6.3 6.3 L6.2 6.3 6.15 6.55 6.2 6.65 6.4 6.6 6.3 6.3" fill="#fde0b5" fill-rule="evenodd" stroke="none"/>
    <path d="M-1.25 -14.95 L-1.4 -14.9 -1.45 -14.9 -1.7 -15.2 -1.25 -15.3 -1.2 -15.15 -1.25 -14.95 M5.15 -8.7 L3.85 -8.85 Q2.8 -8.85 1.9 -8.3 L1.1 -7.75 0.6 -6.8 0.9 -4.9 Q0.9 -3.85 0.55 -2.95 L2.55 -3.3 7.2 -3.15 Q7.6 -3.85 7.6 -4.75 7.6 -7.55 5.15 -8.65 L5.15 -8.7 M-0.1 -2.8 L-2.85 -2.7 -4.75 -2.45 -6.8 -2.6 -6.95 -2.55 -7.4 -2.6 -7.75 -2.55 -7.95 -4.55 Q-7.95 -5.75 -7.05 -7.0 -5.75 -8.9 -3.0 -8.9 -0.7 -8.9 0.25 -7.5 L0.85 -8.15 Q2.0 -9.15 3.85 -9.15 L5.7 -8.8 6.85 -8.05 7.75 -7.0 8.0 -4.8 7.75 -2.9 7.4 -2.95 6.45 -2.75 6.45 -2.7 6.05 -2.7 4.0 -2.85 2.55 -2.9 0.85 -2.7 0.1 -2.75 -0.05 -2.75 -0.1 -2.8 M4.75 -3.85 Q4.75 -3.4 4.3 -3.4 L3.95 -3.7 Q3.95 -4.3 4.55 -4.3 L4.75 -3.85 M0.1 -3.1 L0.4 -4.95 Q0.4 -8.45 -4.25 -8.45 L-4.7 -8.4 Q-6.05 -8.4 -6.85 -6.65 -7.55 -5.55 -7.55 -4.6 L-7.4 -2.75 -7.15 -2.9 -5.3 -2.9 -5.3 -2.8 -1.1 -3.15 0.0 -3.05 0.0 -3.15 0.1 -3.1 M-7.6 -2.0 L-7.6 -2.05 -7.55 -2.05 -7.6 -2.0 M-1.05 -3.8 Q-1.05 -3.2 -1.55 -3.2 L-2.05 -3.9 -1.55 -4.25 Q-1.05 -4.25 -1.05 -3.8" fill="#000000" fill-rule="evenodd" stroke="none"/>
    <path d="M4.05 -14.5 L3.85 -14.25 2.3 -14.15 0.95 -13.9 -1.15 -13.35 -4.6 -11.9 -8.45 -8.65 Q-10.9 -5.55 -11.0 -1.55 L-11.0 -0.55 -10.15 -1.1 Q-9.8 -1.1 -9.35 -0.6 -8.5 -0.45 -8.5 0.05 -8.5 0.3 -9.6 0.9 L-9.75 1.75 -10.15 3.6 Q-10.15 4.8 -9.75 5.7 -9.25 6.8 -8.0 7.1 -6.85 7.35 -6.85 7.6 -6.85 8.35 -7.9 9.2 -7.9 10.2 -6.0 11.6 L-3.9 12.5 -1.75 13.1 1.75 13.55 3.65 13.35 6.05 13.2 7.35 12.8 7.65 13.05 7.65 13.1 6.45 13.7 Q3.5 15.15 0.0 15.15 -6.2 15.15 -10.65 10.7 -15.0 6.3 -15.0 0.05 -15.0 -4.65 -12.45 -8.35 L-10.65 -10.6 Q-6.75 -14.5 -1.45 -14.9 L-1.4 -14.9 -1.25 -14.95 0.0 -15.0 0.6 -15.0 3.2 -14.7 4.05 -14.5 M-0.05 -2.75 L0.05 -2.55 0.4 -2.65 Q1.0 -2.65 1.1 -2.3 L1.1 -2.1 2.8 -1.35 2.85 -1.2 2.85 -1.15 2.8 -1.0 2.65 -0.95 Q2.3 -1.15 2.05 -1.3 1.35 -1.45 0.95 -1.9 L0.1 -2.25 Q0.1 -1.85 -0.9 -1.15 -2.05 -0.45 -2.95 -0.45 L-5.4 -0.9 -5.4 -1.0 -5.3 -1.05 -3.75 -0.8 Q-2.05 -0.8 -0.95 -1.7 L-1.2 -1.55 -1.55 -1.55 -1.6 -1.75 -0.95 -2.3 -0.1 -2.75 -0.1 -2.8 -0.05 -2.75 M4.6 -0.25 L4.45 -0.25 4.05 -0.65 4.1 -0.8 Q4.15 -1.0 4.4 -1.0 L4.7 -0.9 Q5.35 -0.9 5.7 -1.15 L6.05 -0.85 Q6.05 -0.55 5.65 -0.35 L5.65 -0.55 5.45 -0.55 5.45 -0.3 4.6 -0.25 M-5.55 0.6 Q-6.3 0.5 -6.3 0.05 L-5.9 -0.2 -5.5 -0.25 -4.55 0.0 Q-4.4 0.1 -4.4 0.3 -4.4 0.65 -4.95 0.65 L-5.0 0.65 Q-5.25 0.15 -5.5 0.15 L-5.8 0.2 -5.5 0.65 -5.55 0.6 M-0.45 -2.35 L-0.45 -2.3 -0.4 -2.3 -0.35 -2.4 -0.45 -2.35 M-0.2 -2.6 L-0.15 -2.7 -0.2 -2.65 -0.2 -2.6" fill="#fccf8b" fill-rule="evenodd" stroke="none"/>
    <path d="M-4.75 2.2 L-4.7 2.45 -4.4 4.55 -4.45 5.5 -5.05 7.25 -5.1 7.25 Q-5.25 7.85 -5.7 8.05 L-5.75 7.9 Q-5.75 7.05 -5.25 6.55 -4.95 5.35 -4.95 4.5 L-5.1 2.4 -5.55 0.6 -5.5 0.65 -5.8 0.2 -5.5 0.15 Q-5.25 0.15 -5.0 0.65 L-4.95 0.85 -5.0 1.05 -4.75 2.2 M5.9 0.6 L5.7 0.65 5.6 0.35 5.4 -0.1 5.45 -0.3 5.45 -0.55 5.65 -0.55 5.65 -0.35 5.9 0.35 5.9 0.6 M6.3 6.3 L6.4 6.6 6.2 6.65 6.15 6.55 6.2 6.3 6.3 6.3" fill="#865204" fill-rule="evenodd" stroke="none"/>
    <path d="M4.45 -0.25 L4.6 -0.25 Q5.1 -0.1 5.6 0.35 L5.7 0.65 5.9 0.6 6.55 1.5 Q7.0 1.95 7.0 3.65 7.0 8.0 -0.1 8.0 -2.6 8.0 -3.55 7.15 L-4.2 6.1 -4.45 5.5 -4.4 4.55 -4.7 2.45 -4.75 2.2 Q-4.0 -0.25 -0.8 -0.25 L-0.2 -0.15 2.25 -0.15 3.8 -0.35 4.45 -0.25 M-1.65 0.35 Q-2.65 0.8 -3.2 1.6 L-2.4 0.55 Q-4.4 1.4 -4.4 3.75 L-3.75 5.9 Q-3.2 7.15 -2.4 7.4 L-0.1 7.5 Q6.6 7.5 6.6 3.6 6.6 2.7 6.1 1.7 4.75 0.05 3.6 0.05 L2.85 0.25 2.75 0.2 0.9 0.25 -0.4 0.2 -0.45 0.15 -1.65 0.35 M4.05 2.2 Q4.45 2.6 4.4 3.75 4.4 6.25 2.65 6.25 2.0 6.25 1.7 5.75 L1.45 5.2 1.05 5.2 0.65 5.35 -0.3 5.1 -0.6 4.7 -0.7 4.2 Q-0.7 2.7 0.5 2.4 L1.2 2.3 1.3 2.3 1.35 2.4 1.9 2.45 Q2.2 1.9 3.3 1.9 L3.8 2.0 4.05 2.2 M-3.7 3.0 L-3.75 3.85 -3.05 5.9 -3.05 5.95 -3.2 5.95 -3.85 3.9 -3.65 2.75 -3.65 2.9 -3.7 3.0 M0.15 2.85 Q-0.35 2.95 -0.35 3.8 L-0.35 3.85 -0.4 4.15 Q-0.4 5.05 0.5 5.05 L1.45 4.9 2.65 5.9 Q3.9 5.9 4.1 3.75 4.1 2.25 3.15 2.25 L2.25 2.75 2.25 2.8 2.15 2.85 2.1 2.85 2.0 2.85 1.4 3.95 1.35 3.95 1.35 3.45 1.8 2.85 0.5 2.7 Q0.3 2.7 0.15 2.85" fill="#802202" fill-rule="evenodd" stroke="none"/>
    <path d="M-1.65 0.35 L-0.45 0.15 -0.4 0.2 0.9 0.25 2.75 0.2 2.85 0.25 3.6 0.05 Q4.75 0.05 6.1 1.7 6.6 2.7 6.6 3.6 6.6 7.5 -0.1 7.5 L-2.4 7.4 Q-3.2 7.15 -3.75 5.9 L-4.4 3.75 Q-4.4 1.4 -2.4 0.55 L-3.2 1.6 Q-2.65 0.8 -1.65 0.35 M-1.25 0.55 L-1.2 0.45 -1.4 0.4 -2.15 0.8 -2.7 1.35 -2.75 1.45 -2.8 1.45 -2.8 1.5 -3.25 2.0 -3.65 2.75 -3.85 3.9 -3.2 5.95 -3.05 5.95 -3.05 5.9 -3.75 3.85 -3.7 3.0 -3.7 3.15 -3.3 4.7 -3.0 5.5 Q-3.0 6.2 -2.45 6.55 L-2.2 6.7 -1.2 6.85 -1.0 7.0 Q1.05 7.0 1.05 6.2 L1.05 6.1 1.05 6.0 1.0 5.9 Q0.85 5.35 0.05 5.35 L-0.05 5.35 -0.2 5.25 -0.3 5.1 0.65 5.35 1.05 5.2 1.45 5.2 1.7 5.75 Q2.0 6.25 2.65 6.25 4.4 6.25 4.4 3.75 4.45 2.6 4.05 2.2 L4.2 2.3 4.65 2.65 4.45 3.35 Q4.45 4.2 4.6 4.65 L4.05 5.7 Q4.05 6.05 4.35 6.05 L5.3 5.35 5.9 4.65 6.0 4.5 6.0 4.35 6.15 3.35 Q6.15 2.55 5.55 1.65 4.6 0.4 2.75 0.4 2.25 0.75 0.9 0.75 0.7 0.45 -0.35 0.45 L-1.25 0.55 M-3.4 4.1 L-3.45 3.5 -3.4 3.2 -3.4 3.5 -3.35 3.65 -3.4 4.1 M-3.35 4.3 L-3.1 4.8 -3.1 4.85 -2.95 5.1 -2.95 5.2 -3.35 4.3 M-0.6 4.7 L-0.8 4.5 -0.8 4.2 -0.85 3.8 -0.15 2.4 0.25 2.4 0.5 2.4 Q-0.7 2.7 -0.7 4.2 L-0.6 4.7 M1.2 2.3 L1.75 2.05 Q2.15 1.65 2.8 1.65 L3.8 2.0 3.3 1.9 Q2.2 1.9 1.9 2.45 L1.35 2.4 1.3 2.3 1.2 2.3 M-0.35 3.85 Q-0.3 4.25 0.15 4.25 0.95 4.25 0.95 3.4 1.0 2.8 0.35 2.8 L0.15 2.85 Q0.3 2.7 0.5 2.7 L1.8 2.85 1.35 3.45 1.35 3.95 1.4 3.95 2.0 2.85 2.1 2.85 2.15 2.85 2.25 2.8 2.25 2.75 3.15 2.25 Q4.1 2.25 4.1 3.75 3.9 5.9 2.65 5.9 L1.45 4.9 0.5 5.05 Q-0.4 5.05 -0.4 4.15 L-0.35 3.85 M2.1 4.2 L2.15 4.7 Q2.3 5.2 2.9 5.2 3.8 5.2 3.8 3.7 4.0 2.75 3.2 2.75 2.1 2.75 2.1 4.2" fill="#ef3f03" fill-rule="evenodd" stroke="none"/>
    <path d="M-1.25 0.55 L-0.35 0.45 Q0.7 0.45 0.9 0.75 2.25 0.75 2.75 0.4 4.6 0.4 5.55 1.65 6.15 2.55 6.15 3.35 L6.0 4.35 6.0 4.5 5.9 4.65 5.3 5.35 4.35 6.05 Q4.05 6.05 4.05 5.7 L4.6 4.65 Q4.45 4.2 4.45 3.35 L4.65 2.65 4.2 2.3 4.05 2.2 3.8 2.0 2.8 1.65 Q2.15 1.65 1.75 2.05 L1.2 2.3 0.5 2.4 0.25 2.4 -0.15 2.4 -0.85 3.8 -0.8 4.2 -0.8 4.5 -0.6 4.7 -0.3 5.1 -0.2 5.25 -0.05 5.35 0.05 5.35 Q0.85 5.35 1.0 5.9 L1.05 6.0 1.05 6.1 1.05 6.2 Q1.05 7.0 -1.0 7.0 L-1.2 6.85 -2.2 6.7 -2.45 6.55 Q-3.0 6.2 -3.0 5.5 L-2.6 6.05 -2.55 5.85 -2.95 5.2 -2.95 5.1 -3.1 4.85 -3.1 4.8 -3.35 4.3 -3.4 4.1 -3.35 3.65 -3.4 3.5 -3.4 3.2 -2.75 1.8 -1.25 0.55 M-0.35 3.85 L-0.35 3.8 Q-0.35 2.95 0.15 2.85 L0.35 2.8 Q1.0 2.8 0.95 3.4 0.95 4.25 0.15 4.25 -0.3 4.25 -0.35 3.85 M2.1 4.2 Q2.1 2.75 3.2 2.75 4.0 2.75 3.8 3.7 3.8 5.2 2.9 5.2 2.3 5.2 2.15 4.7 L2.1 4.2 M3.0 4.25 Q3.45 4.25 3.45 3.65 L3.0 3.0 Q2.6 3.0 2.6 3.75 2.6 4.25 3.0 4.25" fill="#fd7040" fill-rule="evenodd" stroke="none"/>
    <path d="M5.15 -8.7 L5.15 -8.65 Q7.6 -7.55 7.6 -4.75 7.6 -3.85 7.2 -3.15 L2.55 -3.3 0.55 -2.95 Q0.9 -3.85 0.9 -4.9 L0.6 -6.8 1.1 -7.75 1.9 -8.3 Q2.8 -8.85 3.85 -8.85 L5.15 -8.7 M0.1 -3.1 L0.0 -3.15 0.0 -3.05 -1.1 -3.15 -5.3 -2.8 -5.3 -2.9 -7.15 -2.9 -7.4 -2.75 -7.55 -4.6 Q-7.55 -5.55 -6.85 -6.65 -6.05 -8.4 -4.7 -8.4 L-4.25 -8.45 Q0.4 -8.45 0.4 -4.95 L0.1 -3.1 M4.75 -3.85 L4.55 -4.3 Q3.95 -4.3 3.95 -3.7 L4.3 -3.4 Q4.75 -3.4 4.75 -3.85 M-1.05 -3.8 Q-1.05 -4.25 -1.55 -4.25 L-2.05 -3.9 -1.55 -3.2 Q-1.05 -3.2 -1.05 -3.8" fill="#ffffff" fill-rule="evenodd" stroke="none"/>
    <path d="M-3.65 2.75 L-3.25 2.0 -2.8 1.5 -2.8 1.45 -2.75 1.45 -2.7 1.35 -2.15 0.8 -1.4 0.4 -1.2 0.45 -1.25 0.55 -2.75 1.8 -3.4 3.2 -3.45 3.5 -3.4 4.1 -3.35 4.3 -2.95 5.2 -2.55 5.85 -2.6 6.05 -3.0 5.5 -3.3 4.7 -3.7 3.15 -3.7 3.0 -3.65 2.9 -3.65 2.75 M3.0 4.25 Q2.6 4.25 2.6 3.75 2.6 3.0 3.0 3.0 L3.45 3.65 Q3.45 4.25 3.0 4.25" fill="#fea283" fill-rule="evenodd" stroke="none"/>
    <path d="M7.65 13.1 L10.6 10.7 12.9 7.75 13.05 7.45 13.2 7.2 Q15.0 4.0 15.0 0.05 15.0 -6.05 10.75 -10.45 L10.6 -10.6 Q7.75 -13.5 4.05 -14.5 L3.2 -14.7 0.6 -15.0 0.0 -15.0 -1.25 -14.95 M-1.45 -14.9 Q-6.75 -14.5 -10.65 -10.6 L-12.45 -8.35 Q-15.0 -4.65 -15.0 0.05 -15.0 6.3 -10.65 10.7 -6.2 15.15 0.0 15.15 3.5 15.15 6.45 13.7 L7.65 13.1 Z" fill="none" stroke="#865204" stroke-linecap="round" stroke-linejoin="round" stroke-width="0.5"/>
  </g>
</svg>
