<?xml version="1.0" encoding="UTF-8" standalone="no"?>
<svg xmlns:xlink="http://www.w3.org/1999/xlink" height="32.15px" width="30.5px" xmlns="http://www.w3.org/2000/svg">
  <g transform="matrix(1.0, 0.0, 0.0, 1.0, 15.25, 16.75)">
    <path d="M4.05 -12.5 Q7.75 -11.6 10.6 -8.85 L10.75 -8.75 Q15.0 -4.7 15.0 1.1 15.0 4.75 13.2 7.75 L13.05 8.0 12.9 8.2 Q11.95 9.7 10.6 11.0 L7.65 13.2 7.35 12.95 6.05 13.3 3.65 13.45 1.75 13.65 -1.75 13.25 -3.9 12.65 -6.0 11.8 Q-7.9 10.55 -7.9 9.6 -6.85 8.8 -6.85 8.15 -6.85 7.9 -8.0 7.6 -9.25 7.3 -9.75 6.35 -10.15 5.55 -10.15 4.35 L-9.75 2.65 -9.6 1.85 -8.5 1.1 Q-8.5 0.55 -9.35 0.45 -9.8 -0.05 -10.15 -0.05 L-11.0 0.5 -11.0 -0.45 Q-10.9 -4.2 -8.45 -7.0 L-4.6 -10.05 -1.15 -11.4 0.95 -11.95 2.3 -12.15 3.85 -12.25 4.05 -12.5 M3.7 -1.65 L3.35 -1.9 3.25 -1.9 3.25 -1.7 3.6 -1.45 3.7 -1.5 3.7 -1.65 M1.55 -3.9 L1.3 -4.2 0.55 -3.25 Q0.05 -2.65 -2.55 -2.65 L-4.45 -2.75 Q-7.9 -2.8 -7.9 -1.85 L-7.85 -1.7 -6.9 -2.0 -4.45 -2.4 -2.55 -2.25 Q1.55 -2.25 1.55 -3.9 M1.15 -5.15 L1.15 -5.5 0.9 -5.85 0.85 -5.85 0.8 -5.8 1.05 -5.1 1.15 -5.15 M2.5 -5.65 Q2.05 -5.65 2.05 -5.0 L2.15 -4.6 2.55 -5.6 2.5 -5.65 M3.3 -3.1 Q2.65 -3.25 2.6 -3.55 L2.45 -4.1 2.3 -3.75 Q2.3 -3.05 5.05 -2.15 L9.15 -1.05 9.35 -0.8 9.45 -1.05 Q9.45 -1.4 7.45 -1.9 L5.3 -2.45 Q4.75 -2.85 3.3 -3.1 M-5.45 -0.05 L-5.15 -0.5 -5.5 0.0 -5.45 -0.05 M-5.1 -0.8 L-5.75 -0.05 -5.7 0.2 -5.2 0.2 -4.95 -0.35 -5.1 -0.8 M-6.8 -0.2 L-6.8 -0.45 Q-7.8 -0.4 -7.8 0.35 -7.65 0.45 -7.55 0.5 L-7.3 0.65 Q-7.0 0.65 -6.8 -0.2 M-5.5 -1.05 L-5.5 -1.2 -5.6 -1.2 -5.55 -1.05 -5.5 -1.05 M7.3 -0.25 L6.7 -0.75 6.6 -0.75 6.6 -0.4 6.75 0.15 Q6.85 0.55 7.4 0.55 7.75 0.5 7.75 0.25 L7.3 -0.25 M-1.3 -2.0 Q-2.0 -2.05 -2.2 -1.65 L-1.9 -1.55 Q-1.25 -1.55 -1.25 -1.9 L-1.3 -2.0 M4.45 0.8 L3.8 0.65 2.25 0.9 -0.2 0.9 -0.8 0.8 Q-4.0 0.8 -4.75 3.15 L-5.0 2.0 -4.95 1.8 -5.0 1.65 -4.95 1.65 Q-4.4 1.65 -4.4 1.35 -4.4 1.15 -4.55 1.05 L-5.5 0.8 -5.9 0.85 -6.3 1.1 Q-6.3 1.5 -5.55 1.6 L-5.1 3.25 -4.95 5.2 Q-4.95 6.05 -5.25 7.15 -5.75 7.55 -5.75 8.35 L-5.7 8.5 Q-5.25 8.3 -5.1 7.8 L-5.05 7.8 -4.45 6.1 -4.2 6.7 -3.55 7.65 Q-2.6 8.45 -0.1 8.45 7.0 8.45 7.0 4.4 7.0 2.85 6.55 2.4 L5.9 1.6 5.9 1.4 5.65 0.65 6.05 0.2 5.7 -0.1 4.7 0.15 4.4 0.05 Q4.15 0.05 4.1 0.25 L4.05 0.4 4.45 0.8 M-7.75 2.7 L-7.75 3.0 -7.8 3.2 -7.95 3.2 -7.8 3.35 -7.55 2.85 Q-7.55 2.4 -8.05 2.4 L-8.15 2.4 -8.25 2.85 -8.0 3.2 -8.1 2.65 -7.75 2.7 M-7.55 0.5 L-7.65 0.35 -7.1 -0.1 Q-7.1 0.4 -7.55 0.5 M7.55 0.3 L7.4 0.35 Q7.05 0.3 7.05 -0.15 L7.55 0.3 M8.65 0.9 Q8.3 0.9 8.3 1.35 L8.7 1.85 9.2 1.4 Q9.2 0.9 8.65 0.9 M8.5 1.45 L8.5 1.15 8.75 1.1 9.0 1.4 8.75 1.65 8.5 1.45 M5.45 0.75 L5.4 0.95 5.6 1.35 4.6 0.8 5.45 0.75 M6.2 7.2 L6.4 7.2 6.3 6.9 6.2 6.9 6.15 7.15 6.2 7.2" fill="#fde0b5" fill-rule="evenodd" stroke="none"/>
    <path d="M3.3 -3.1 Q4.75 -2.85 5.3 -2.45 L7.45 -1.9 Q9.45 -1.4 9.45 -1.05 L9.35 -0.8 9.15 -1.05 5.05 -2.15 Q2.3 -3.05 2.3 -3.75 L2.45 -4.1 2.6 -3.55 Q2.65 -3.25 3.3 -3.1 M2.5 -5.65 L2.55 -5.6 2.15 -4.6 2.05 -5.0 Q2.05 -5.65 2.5 -5.65 M1.15 -5.15 L1.05 -5.1 0.8 -5.8 0.85 -5.85 0.9 -5.85 1.15 -5.5 1.15 -5.15 M1.55 -3.9 Q1.55 -2.25 -2.55 -2.25 L-4.45 -2.4 -6.9 -2.0 -7.85 -1.7 -7.9 -1.85 Q-7.9 -2.8 -4.45 -2.75 L-2.55 -2.65 Q0.05 -2.65 0.55 -3.25 L1.3 -4.2 1.55 -3.9 M3.7 -1.65 L3.7 -1.5 3.6 -1.45 3.25 -1.7 3.25 -1.9 3.35 -1.9 3.7 -1.65 M-1.3 -2.0 L-1.25 -1.9 Q-1.25 -1.55 -1.9 -1.55 L-2.2 -1.65 Q-2.0 -2.05 -1.3 -2.0 M5.65 0.65 L5.9 1.4 5.9 1.6 5.7 1.65 5.6 1.35 5.4 0.95 5.45 0.75 5.45 0.5 5.65 0.5 5.65 0.65 M-4.45 6.1 L-5.05 7.8 -5.1 7.8 Q-5.25 8.3 -5.7 8.5 L-5.75 8.35 Q-5.75 7.55 -5.25 7.15 -4.95 6.05 -4.95 5.2 L-5.1 3.25 -5.55 1.6 -5.5 1.65 -5.8 1.25 -5.5 1.2 -5.0 1.65 -4.95 1.8 -5.0 2.0 -4.75 3.15 -4.7 3.3 -4.4 5.25 -4.45 6.1 M6.2 7.2 L6.15 7.15 6.2 6.9 6.3 6.9 6.4 7.2 6.2 7.2" fill="#865204" fill-rule="evenodd" stroke="none"/>
    <path d="M7.3 -0.25 L7.75 0.25 Q7.75 0.5 7.4 0.55 6.85 0.55 6.75 0.15 L6.6 -0.4 6.6 -0.75 6.7 -0.75 7.3 -0.25 M-5.5 -1.05 L-5.55 -1.05 -5.6 -1.2 -5.5 -1.2 -5.5 -1.05 M-6.8 -0.2 Q-7.0 0.65 -7.3 0.65 L-7.55 0.5 Q-7.65 0.45 -7.8 0.35 -7.8 -0.4 -6.8 -0.45 L-6.8 -0.2 M-5.1 -0.8 L-4.95 -0.35 -5.2 0.2 -5.7 0.2 -5.75 -0.05 -5.1 -0.8 M-5.45 -0.05 L-5.5 0.0 -5.15 -0.5 -5.45 -0.05 M-7.75 2.7 L-8.1 2.65 -8.0 3.2 -8.25 2.85 -8.15 2.4 -8.05 2.4 Q-7.55 2.4 -7.55 2.85 L-7.8 3.35 -7.95 3.2 -7.8 3.2 -7.75 3.0 -7.75 2.7 M-7.55 0.5 Q-7.1 0.4 -7.1 -0.1 L-7.65 0.35 -7.55 0.5 M8.5 1.45 L8.75 1.65 9.0 1.4 8.75 1.1 8.5 1.15 8.5 1.45 M8.65 0.9 Q9.2 0.9 9.2 1.4 L8.7 1.85 8.3 1.35 Q8.3 0.9 8.65 0.9 M7.55 0.3 L7.05 -0.15 Q7.05 0.3 7.4 0.35 L7.55 0.3" fill="#a69e86" fill-rule="evenodd" stroke="none"/>
    <path d="M-1.25 -12.85 L0.0 -12.9 0.6 -12.9 3.2 -12.7 4.05 -12.5 3.85 -12.25 2.3 -12.15 0.95 -11.95 -1.15 -11.4 -4.6 -10.05 -8.45 -7.0 Q-10.9 -4.2 -11.0 -0.45 L-11.0 0.5 -10.15 -0.05 Q-9.8 -0.05 -9.35 0.45 -8.5 0.55 -8.5 1.1 L-9.6 1.85 -9.75 2.65 -10.15 4.35 Q-10.15 5.55 -9.75 6.35 -9.25 7.3 -8.0 7.6 -6.85 7.9 -6.85 8.15 -6.85 8.8 -7.9 9.6 -7.9 10.55 -6.0 11.8 L-3.9 12.65 -1.75 13.25 1.75 13.65 3.65 13.45 6.05 13.3 7.35 12.95 7.65 13.2 6.45 13.8 Q3.5 15.15 0.0 15.15 -6.2 15.15 -10.65 11.0 -15.0 6.9 -15.0 1.1 -15.0 -3.35 -12.45 -6.8 L-10.65 -8.85 Q-6.75 -12.5 -1.45 -12.85 L-1.4 -12.8 -1.25 -12.85 M4.45 0.8 L4.05 0.4 4.1 0.25 Q4.15 0.05 4.4 0.05 L4.7 0.15 5.7 -0.1 6.05 0.2 5.65 0.65 5.65 0.5 5.45 0.5 5.45 0.75 4.6 0.8 4.45 0.8 M-5.55 1.6 Q-6.3 1.5 -6.3 1.1 L-5.9 0.85 -5.5 0.8 -4.55 1.05 Q-4.4 1.15 -4.4 1.35 -4.4 1.65 -4.95 1.65 L-5.0 1.65 -5.5 1.2 -5.8 1.25 -5.5 1.65 -5.55 1.6" fill="#fccf8b" fill-rule="evenodd" stroke="none"/>
    <path d="M-1.65 1.35 Q-2.65 1.75 -3.2 2.5 L-2.4 1.55 Q-4.4 2.3 -4.4 4.5 L-3.75 6.55 Q-3.2 7.65 -2.4 7.95 L-0.1 8.05 Q6.6 8.05 6.6 4.35 6.6 3.55 6.1 2.6 4.75 1.1 3.6 1.1 L2.85 1.3 2.75 1.2 0.9 1.3 -0.4 1.25 -0.45 1.2 -1.65 1.35 M4.1 3.15 Q4.45 3.45 4.4 4.5 4.4 6.85 2.65 6.85 2.0 6.85 1.7 6.4 L1.45 5.9 1.05 5.9 0.65 6.05 -0.3 5.8 -0.6 5.45 -0.7 4.9 Q-0.7 3.55 0.5 3.25 L1.2 3.2 1.3 3.2 1.35 3.25 1.9 3.3 Q2.2 2.8 3.3 2.8 L3.8 2.9 4.05 3.1 4.1 3.15 M-3.7 3.85 L-3.75 4.6 -3.05 6.55 -3.2 6.55 -3.85 4.65 -3.65 3.55 -3.65 3.7 -3.7 3.85 M-4.75 3.15 Q-4.0 0.8 -0.8 0.8 L-0.2 0.9 2.25 0.9 3.8 0.65 4.45 0.8 4.6 0.8 5.6 1.35 5.7 1.65 5.9 1.6 6.55 2.4 Q7.0 2.85 7.0 4.4 7.0 8.45 -0.1 8.45 -2.6 8.45 -3.55 7.65 L-4.2 6.7 -4.45 6.1 -4.4 5.25 -4.7 3.3 -4.75 3.15 M0.15 3.65 Q-0.35 3.75 -0.35 4.55 L-0.35 4.6 -0.4 4.85 Q-0.4 5.75 0.5 5.75 L1.45 5.65 2.65 6.55 Q3.9 6.5 4.1 4.5 4.1 3.15 3.15 3.2 L2.25 3.6 2.25 3.65 2.15 3.7 2.1 3.65 2.0 3.7 1.4 4.7 1.35 4.7 1.35 4.2 1.8 3.7 0.5 3.55 0.15 3.65" fill="#802202" fill-rule="evenodd" stroke="none"/>
    <path d="M-1.65 1.35 L-0.45 1.2 -0.4 1.25 0.9 1.3 2.75 1.2 2.85 1.3 3.6 1.1 Q4.75 1.1 6.1 2.6 6.6 3.55 6.6 4.35 6.6 8.05 -0.1 8.05 L-2.4 7.95 Q-3.2 7.65 -3.75 6.55 L-4.4 4.5 Q-4.4 2.3 -2.4 1.55 L-3.2 2.5 Q-2.65 1.75 -1.65 1.35 M-1.25 1.55 L-1.2 1.5 -1.4 1.45 Q-1.7 1.4 -2.15 1.75 L-2.7 2.25 -2.75 2.35 -2.8 2.35 -2.8 2.4 -3.25 2.9 -3.6 3.45 -3.65 3.55 -3.85 4.65 -3.2 6.55 -3.05 6.55 -3.75 4.6 -3.7 3.85 -3.7 3.95 -3.3 5.45 -3.0 6.15 Q-3.0 6.8 -2.45 7.15 L-2.2 7.2 -1.2 7.35 -1.0 7.5 Q1.05 7.5 1.05 6.8 L1.05 6.7 1.05 6.6 1.0 6.55 Q0.85 6.05 0.05 6.05 L-0.05 6.05 -0.2 5.95 -0.3 5.8 0.65 6.05 1.05 5.9 1.45 5.9 1.7 6.4 Q2.0 6.85 2.65 6.85 4.4 6.85 4.4 4.5 4.45 3.45 4.1 3.15 L4.2 3.2 4.65 3.5 4.45 4.1 Q4.45 4.9 4.6 5.3 L4.05 6.35 Q4.05 6.65 4.35 6.65 4.65 6.65 5.3 6.05 5.65 6.05 5.9 5.3 L6.0 5.2 6.0 5.05 6.15 4.1 Q6.15 3.4 5.55 2.55 4.6 1.4 2.75 1.45 L0.9 1.7 -0.35 1.5 -1.25 1.55 M-3.4 4.8 L-3.45 4.25 -3.4 4.0 -3.4 4.25 -3.35 4.4 -3.4 4.8 M-2.95 5.9 L-3.35 5.0 -3.1 5.5 -3.1 5.6 -2.95 5.8 -2.95 5.9 M-0.6 5.45 L-0.8 5.2 -0.8 4.9 -0.85 4.5 -0.15 3.25 0.25 3.25 0.5 3.25 Q-0.7 3.55 -0.7 4.9 L-0.6 5.45 M1.2 3.2 L1.75 2.95 Q2.15 2.55 2.8 2.55 L3.8 2.9 3.3 2.8 Q2.2 2.8 1.9 3.3 L1.35 3.25 1.3 3.2 1.2 3.2 M0.15 3.65 L0.5 3.55 1.8 3.7 1.35 4.2 1.35 4.7 1.4 4.7 2.0 3.7 2.1 3.65 2.15 3.7 2.25 3.65 2.25 3.6 3.15 3.2 Q4.1 3.15 4.1 4.5 3.9 6.5 2.65 6.55 L1.45 5.65 0.5 5.75 Q-0.4 5.75 -0.4 4.85 L-0.35 4.6 Q-0.3 4.95 0.15 4.95 0.95 4.95 0.95 4.15 1.0 3.65 0.35 3.65 L0.15 3.65 M2.1 4.9 L2.15 5.45 Q2.3 5.9 2.9 5.9 3.8 5.9 3.8 4.45 4.0 3.6 3.2 3.6 2.1 3.6 2.1 4.9" fill="#ef3f03" fill-rule="evenodd" stroke="none"/>
    <path d="M-1.25 1.55 L-0.35 1.5 0.9 1.7 2.75 1.45 Q4.6 1.4 5.55 2.55 6.15 3.4 6.15 4.1 L6.0 5.05 6.0 5.2 5.9 5.3 Q5.65 6.05 5.3 6.05 4.65 6.65 4.35 6.65 4.05 6.65 4.05 6.35 L4.6 5.3 Q4.45 4.9 4.45 4.1 L4.65 3.5 4.2 3.2 4.1 3.15 4.05 3.1 3.8 2.9 2.8 2.55 Q2.15 2.55 1.75 2.95 L1.2 3.2 0.5 3.25 0.25 3.25 -0.15 3.25 -0.85 4.5 -0.8 4.9 -0.8 5.2 -0.6 5.45 -0.3 5.8 -0.2 5.95 -0.05 6.05 0.05 6.05 Q0.85 6.05 1.0 6.55 L1.05 6.6 1.05 6.7 1.05 6.8 Q1.05 7.5 -1.0 7.5 L-1.2 7.35 -2.2 7.2 -2.45 7.15 Q-3.0 6.8 -3.0 6.15 L-2.6 6.65 -2.55 6.5 -2.95 5.9 -2.95 5.8 -3.1 5.6 -3.1 5.5 -3.35 5.0 -3.4 4.8 -3.35 4.4 -3.4 4.25 -3.4 4.0 -2.75 2.7 -1.25 1.55 M-0.35 4.6 L-0.35 4.55 Q-0.35 3.75 0.15 3.65 L0.35 3.65 Q1.0 3.65 0.95 4.15 0.95 4.95 0.15 4.95 -0.3 4.95 -0.35 4.6 M2.1 4.9 Q2.1 3.6 3.2 3.6 4.0 3.6 3.8 4.45 3.8 5.9 2.9 5.9 2.3 5.9 2.15 5.45 L2.1 4.9 M3.0 3.85 Q2.6 3.8 2.6 4.5 2.6 4.95 3.0 4.95 3.45 4.95 3.45 4.4 L3.0 3.85" fill="#fd7040" fill-rule="evenodd" stroke="none"/>
    <path d="M-1.45 -12.85 L-1.85 -13.45 Q-2.0 -13.75 -2.7 -13.65 L-3.75 -13.9 Q-4.65 -14.65 -4.65 -15.05 -4.65 -16.75 -2.65 -16.75 -1.4 -16.75 -1.4 -16.35 L-1.45 -16.0 -1.6 -16.0 Q-1.9 -16.55 -2.65 -16.55 -3.55 -16.55 -4.0 -15.85 L-4.3 -14.95 Q-4.3 -14.6 -3.25 -13.95 L-2.15 -13.8 Q-1.6 -13.9 -1.35 -13.6 L-1.2 -13.05 -1.25 -12.85 -1.4 -12.8 -1.45 -12.85" fill="#000000" fill-rule="evenodd" stroke="none"/>
    <path d="M-3.65 3.55 L-3.6 3.45 -3.25 2.9 -2.8 2.4 -2.8 2.35 -2.75 2.35 -2.7 2.25 -2.15 1.75 Q-1.7 1.4 -1.4 1.45 L-1.2 1.5 -1.25 1.55 -2.75 2.7 -3.4 4.0 -3.45 4.25 -3.4 4.8 -3.35 5.0 -2.95 5.9 -2.55 6.5 -2.6 6.65 -3.0 6.15 -3.3 5.45 -3.7 3.95 -3.7 3.85 -3.65 3.7 -3.65 3.55 M3.0 3.85 L3.45 4.4 Q3.45 4.95 3.0 4.95 2.6 4.95 2.6 4.5 2.6 3.8 3.0 3.85" fill="#fea283" fill-rule="evenodd" stroke="none"/>
    <path d="M-1.25 -12.85 L0.0 -12.9 0.6 -12.9 3.2 -12.7 4.05 -12.5 Q7.75 -11.6 10.6 -8.85 L10.75 -8.75 Q15.0 -4.7 15.0 1.1 15.0 4.75 13.2 7.75 L13.05 8.0 12.9 8.2 Q11.95 9.7 10.6 11.0 L7.65 13.2 6.45 13.8 Q3.5 15.15 0.0 15.15 -6.2 15.15 -10.65 11.0 -15.0 6.9 -15.0 1.1 -15.0 -3.35 -12.45 -6.8 L-10.65 -8.85 Q-6.75 -12.5 -1.45 -12.85" fill="none" stroke="#865204" stroke-linecap="round" stroke-linejoin="round" stroke-width="0.5"/>
  </g>
</svg>
