<?xml version="1.0" encoding="UTF-8" standalone="no"?>
<svg xmlns:xlink="http://www.w3.org/1999/xlink" height="33.95px" width="30.5px" xmlns="http://www.w3.org/2000/svg">
  <g transform="matrix(1.0, 0.0, 0.0, 1.0, 15.25, 18.6)">
    <path d="M7.65 13.05 L7.35 12.8 6.05 13.15 3.65 13.3 1.75 13.55 -1.75 13.1 -3.9 12.5 -6.0 11.65 Q-7.9 10.2 -7.9 9.25 -6.85 8.4 -6.85 7.75 -6.85 7.4 -8.0 7.2 -9.25 6.9 -9.75 5.75 -10.15 4.9 -10.15 3.7 L-9.75 1.9 -9.6 1.05 -8.5 0.25 Q-8.5 -0.3 -9.35 -0.4 -9.8 -0.95 -10.15 -0.9 L-11.0 -0.35 -11.0 -1.35 Q-10.9 -5.3 -8.45 -8.25 L-4.6 -11.55 -1.15 -12.9 0.95 -13.5 2.3 -13.75 3.85 -13.85 4.05 -14.1 Q7.75 -13.1 10.6 -10.3 L10.75 -10.1 Q15.0 -5.8 15.0 0.25 15.0 4.15 13.2 7.3 L13.05 7.5 12.9 7.85 10.6 10.75 Q9.2 12.05 7.65 13.05 M3.35 -2.9 L3.25 -2.9 3.25 -2.65 3.6 -2.45 3.7 -2.5 3.7 -2.6 3.35 -2.9 M1.3 -5.25 L0.55 -4.35 Q0.05 -3.7 -2.55 -3.7 L-4.45 -3.8 Q-7.9 -3.85 -7.9 -2.85 L-7.85 -2.65 -6.9 -3.0 -4.45 -3.4 -2.55 -3.25 Q1.55 -3.25 1.55 -5.05 L1.3 -5.25 M3.3 -4.2 Q2.65 -4.35 2.6 -4.7 L2.45 -5.15 Q2.3 -5.1 2.3 -4.9 2.3 -4.15 5.05 -3.15 L9.15 -2.1 Q8.95 -2.1 9.35 -1.8 L9.45 -2.1 Q9.45 -2.4 7.45 -2.9 L5.3 -3.45 Q4.75 -3.9 3.3 -4.2 M2.55 -6.9 L2.5 -6.9 Q2.05 -6.95 2.05 -6.15 L2.15 -5.75 2.55 -6.9 M0.85 -7.1 L0.8 -7.05 1.05 -6.3 1.15 -6.35 1.15 -6.8 0.9 -7.1 0.85 -7.1 M4.45 -0.1 L3.8 -0.2 2.25 0.0 -0.2 0.0 -0.8 -0.1 Q-4.0 -0.1 -4.75 2.35 L-5.0 1.25 -4.95 1.0 -5.0 0.85 -4.95 0.85 Q-4.4 0.85 -4.4 0.5 -4.4 0.3 -4.55 0.2 L-5.5 -0.1 -5.9 -0.05 -6.3 0.25 Q-6.3 0.65 -5.55 0.8 L-5.1 2.55 -4.95 4.6 Q-4.95 5.5 -5.25 6.6 -5.75 7.15 -5.75 7.95 L-5.7 8.1 Q-5.25 7.9 -5.1 7.3 L-5.05 7.3 -4.45 5.55 -4.2 6.2 -3.55 7.25 Q-2.6 8.05 -0.1 8.05 7.0 8.05 7.0 3.75 7.0 2.1 6.55 1.65 L5.9 0.8 5.9 0.55 5.65 -0.2 6.05 -0.6 5.7 -0.95 4.7 -0.65 4.4 -0.75 Q4.15 -0.85 4.1 -0.6 L4.05 -0.45 4.45 -0.1 M4.6 -0.1 L5.45 -0.15 5.4 0.05 5.6 0.5 Q5.1 0.05 4.6 -0.1 M7.4 -0.5 Q7.05 -0.55 7.05 -1.0 L7.55 -0.55 7.4 -0.5 M6.7 -1.7 L6.6 -1.7 6.6 -1.3 6.75 -0.65 Q6.85 -0.3 7.4 -0.3 7.75 -0.35 7.75 -0.6 L7.3 -1.15 6.7 -1.7 M-7.55 -0.35 L-7.3 -0.2 Q-7.0 -0.2 -6.8 -1.05 L-6.8 -1.35 Q-7.8 -1.25 -7.8 -0.5 L-7.55 -0.35 -7.65 -0.5 -7.1 -0.95 Q-7.1 -0.45 -7.55 -0.35 M-5.5 -2.1 L-5.5 -2.25 -5.6 -2.25 -5.55 -2.1 -5.5 -2.1 M-5.7 -0.6 L-5.2 -0.6 -4.95 -1.25 -5.1 -1.8 -5.75 -0.9 -5.7 -0.6 M-1.25 -2.9 L-1.3 -3.0 Q-2.0 -3.05 -2.2 -2.6 L-1.9 -2.55 Q-1.25 -2.55 -1.25 -2.9 M8.65 0.0 Q8.3 0.0 8.3 0.5 L8.7 1.05 Q9.2 1.05 9.2 0.55 9.2 0.0 8.65 0.0 M8.75 0.85 L8.5 0.6 8.5 0.3 8.75 0.25 9.0 0.55 8.75 0.85 M-8.05 1.65 L-8.15 1.65 -8.25 2.1 -8.0 2.4 -8.1 1.9 -7.75 1.95 -7.75 2.25 -7.8 2.45 -7.95 2.45 -7.8 2.65 -7.55 2.1 Q-7.55 1.65 -8.05 1.65 M6.2 6.7 L6.4 6.65 6.3 6.4 6.2 6.4 6.15 6.6 6.2 6.7" fill="#fde0b5" fill-rule="evenodd" stroke="none"/>
    <path d="M6.7 -1.7 L7.3 -1.15 7.75 -0.6 Q7.75 -0.35 7.4 -0.3 6.85 -0.3 6.75 -0.65 L6.6 -1.3 6.6 -1.7 6.7 -1.7 M7.4 -0.5 L7.55 -0.55 7.05 -1.0 Q7.05 -0.55 7.4 -0.5 M-5.5 -2.1 L-5.55 -2.1 -5.6 -2.25 -5.5 -2.25 -5.5 -2.1 M-7.55 -0.35 L-7.8 -0.5 Q-7.8 -1.25 -6.8 -1.35 L-6.8 -1.05 Q-7.0 -0.2 -7.3 -0.2 L-7.55 -0.35 Q-7.1 -0.45 -7.1 -0.95 L-7.65 -0.5 -7.55 -0.35 M-5.7 -0.6 L-5.75 -0.9 -5.1 -1.8 -4.95 -1.25 -5.2 -0.6 -5.7 -0.6 M-8.05 1.65 Q-7.55 1.65 -7.55 2.1 L-7.8 2.65 -7.95 2.45 -7.8 2.45 -7.75 2.25 -7.75 1.95 -8.1 1.9 -8.0 2.4 -8.25 2.1 -8.15 1.65 -8.05 1.65 M8.75 0.85 L9.0 0.55 8.75 0.25 8.5 0.3 8.5 0.6 8.75 0.85 M8.65 0.0 Q9.2 0.0 9.2 0.55 9.2 1.05 8.7 1.05 L8.3 0.5 Q8.3 0.0 8.65 0.0" fill="#a69e86" fill-rule="evenodd" stroke="none"/>
    <path d="M4.05 -14.1 L3.85 -13.85 2.3 -13.75 0.95 -13.5 -1.15 -12.9 -4.6 -11.55 -8.45 -8.25 Q-10.9 -5.3 -11.0 -1.35 L-11.0 -0.35 -10.15 -0.9 Q-9.8 -0.95 -9.35 -0.4 -8.5 -0.3 -8.5 0.25 L-9.6 1.05 -9.75 1.9 -10.15 3.7 Q-10.15 4.9 -9.75 5.75 -9.25 6.9 -8.0 7.2 -6.85 7.4 -6.85 7.75 -6.85 8.4 -7.9 9.25 -7.9 10.2 -6.0 11.65 L-3.9 12.5 -1.75 13.1 1.75 13.55 3.65 13.3 6.05 13.15 7.35 12.8 7.65 13.05 6.45 13.7 Q3.5 15.1 0.0 15.1 -6.2 15.1 -10.65 10.75 -15.0 6.35 -15.0 0.25 -15.0 -4.45 -12.45 -8.05 L-10.65 -10.3 Q-6.75 -14.1 -1.45 -14.5 L-1.4 -14.5 -1.25 -14.55 0.0 -14.6 0.6 -14.6 3.2 -14.3 4.05 -14.1 M4.45 -0.1 L4.05 -0.45 4.1 -0.6 Q4.15 -0.85 4.4 -0.75 L4.7 -0.65 5.7 -0.95 6.05 -0.6 5.65 -0.2 5.65 -0.35 5.45 -0.35 5.45 -0.15 4.6 -0.1 4.45 -0.1 M-5.55 0.8 Q-6.3 0.65 -6.3 0.25 L-5.9 -0.05 -5.5 -0.1 -4.55 0.2 Q-4.4 0.3 -4.4 0.5 -4.4 0.85 -4.95 0.85 L-5.0 0.85 Q-5.25 0.35 -5.5 0.35 L-5.8 0.4 -5.5 0.85 -5.55 0.8" fill="#fccf8b" fill-rule="evenodd" stroke="none"/>
    <path d="M0.85 -7.1 L0.9 -7.1 1.15 -6.8 1.15 -6.35 1.05 -6.3 0.8 -7.05 0.85 -7.1 M2.55 -6.9 L2.15 -5.75 2.05 -6.15 Q2.05 -6.95 2.5 -6.9 L2.55 -6.9 M3.3 -4.2 Q4.75 -3.9 5.3 -3.45 L7.45 -2.9 Q9.45 -2.4 9.45 -2.1 L9.35 -1.8 Q8.95 -2.1 9.15 -2.1 L5.05 -3.15 Q2.3 -4.15 2.3 -4.9 2.3 -5.1 2.45 -5.15 L2.6 -4.7 Q2.65 -4.35 3.3 -4.2 M1.3 -5.25 L1.55 -5.05 Q1.55 -3.25 -2.55 -3.25 L-4.45 -3.4 -6.9 -3.0 -7.85 -2.65 -7.9 -2.85 Q-7.9 -3.85 -4.45 -3.8 L-2.55 -3.7 Q0.05 -3.7 0.55 -4.35 L1.3 -5.25 M3.35 -2.9 L3.7 -2.6 3.7 -2.5 3.6 -2.45 3.25 -2.65 3.25 -2.9 3.35 -2.9 M5.65 -0.2 L5.9 0.55 5.9 0.8 5.7 0.85 5.6 0.5 5.4 0.05 5.45 -0.15 5.45 -0.35 5.65 -0.35 5.65 -0.2 M-4.45 5.55 L-5.05 7.3 -5.1 7.3 Q-5.25 7.9 -5.7 8.1 L-5.75 7.95 Q-5.75 7.15 -5.25 6.6 -4.95 5.5 -4.95 4.6 L-5.1 2.55 -5.55 0.8 -5.5 0.85 -5.8 0.4 -5.5 0.35 Q-5.25 0.35 -5.0 0.85 L-4.95 1.0 -5.0 1.25 -4.75 2.35 -4.7 2.6 -4.4 4.65 -4.45 5.55 M-1.25 -2.9 Q-1.25 -2.55 -1.9 -2.55 L-2.2 -2.6 Q-2.0 -3.05 -1.3 -3.0 L-1.25 -2.9 M6.2 6.7 L6.15 6.6 6.2 6.4 6.3 6.4 6.4 6.65 6.2 6.7" fill="#865204" fill-rule="evenodd" stroke="none"/>
    <path d="M-4.75 2.35 Q-4.0 -0.1 -0.8 -0.1 L-0.2 0.0 2.25 0.0 3.8 -0.2 4.45 -0.1 4.6 -0.1 Q5.1 0.05 5.6 0.5 L5.7 0.85 5.9 0.8 6.55 1.65 Q7.0 2.1 7.0 3.75 7.0 8.05 -0.1 8.05 -2.6 8.05 -3.55 7.25 L-4.2 6.2 -4.45 5.55 -4.4 4.65 -4.7 2.6 -4.75 2.35 M-1.65 0.5 Q-2.65 0.95 -3.2 1.75 L-2.4 0.75 Q-4.4 1.55 -4.4 3.85 L-3.75 6.0 Q-3.2 7.2 -2.4 7.45 L-0.1 7.55 Q6.6 7.55 6.6 3.7 6.6 2.8 6.1 1.85 4.75 0.25 3.6 0.25 L2.85 0.45 2.75 0.35 0.9 0.45 -0.4 0.4 -0.45 0.35 -1.65 0.5 M4.05 2.35 Q4.45 2.7 4.4 3.85 4.4 6.3 2.65 6.35 2.0 6.3 1.7 5.85 L1.45 5.3 1.05 5.3 0.65 5.5 -0.3 5.2 -0.6 4.8 -0.7 4.3 Q-0.7 2.8 0.5 2.55 L1.2 2.45 1.3 2.45 1.35 2.55 1.9 2.6 Q2.2 2.0 3.3 2.0 L3.75 2.15 3.8 2.15 4.05 2.35 M-3.7 3.2 L-3.75 4.0 -3.05 6.0 -3.05 6.05 -3.2 6.05 -3.85 4.05 -3.55 2.5 -3.65 2.95 -3.65 3.1 -3.7 3.2 M0.15 3.0 Q-0.35 3.1 -0.35 3.95 L-0.35 4.0 -0.4 4.25 Q-0.4 5.15 0.5 5.15 L1.45 5.05 Q1.7 5.0 2.65 6.0 3.9 6.0 4.1 3.85 4.1 2.4 3.15 2.4 L2.25 2.85 2.25 2.9 2.15 3.0 2.1 3.0 2.0 3.0 1.4 4.1 1.35 4.1 1.35 3.6 1.8 3.0 0.5 2.85 Q0.3 2.8 0.15 3.0" fill="#802202" fill-rule="evenodd" stroke="none"/>
    <path d="M-1.65 0.5 L-0.45 0.35 -0.4 0.4 0.9 0.45 2.75 0.35 2.85 0.45 3.6 0.25 Q4.75 0.25 6.1 1.85 6.6 2.8 6.6 3.7 6.6 7.55 -0.1 7.55 L-2.4 7.45 Q-3.2 7.2 -3.75 6.0 L-4.4 3.85 Q-4.4 1.55 -2.4 0.75 L-3.2 1.75 Q-2.65 0.95 -1.65 0.5 M-1.25 0.75 L-1.2 0.65 -1.4 0.6 Q-1.7 0.55 -2.15 0.95 L-2.7 1.5 -2.75 1.55 -3.25 2.15 -3.65 2.95 -3.55 2.5 -3.85 4.05 -3.2 6.05 -3.05 6.05 -3.05 6.0 -3.75 4.0 -3.7 3.2 -3.7 3.3 -3.3 4.8 -3.0 5.6 Q-3.0 6.3 -2.45 6.6 L-2.2 6.8 -1.2 6.95 -1.0 7.1 Q1.05 7.05 1.05 6.3 L1.05 6.15 1.05 6.1 1.0 6.0 Q0.85 5.5 0.05 5.5 L-0.05 5.5 -0.2 5.35 -0.3 5.2 0.65 5.5 1.05 5.3 1.45 5.3 1.7 5.85 Q2.0 6.3 2.65 6.35 4.4 6.3 4.4 3.85 4.45 2.7 4.05 2.35 L4.2 2.45 4.65 2.8 4.45 3.5 Q4.45 4.3 4.6 4.7 L4.05 5.75 Q4.05 6.15 4.35 6.15 L5.3 5.5 Q5.65 5.5 5.9 4.7 L6.0 4.6 6.0 4.45 6.15 3.5 Q6.15 2.65 5.55 1.8 4.6 0.55 2.75 0.6 L0.9 0.9 Q0.7 0.6 -0.35 0.65 L-1.25 0.75 M-3.4 3.35 L-3.4 3.6 -3.35 3.75 -3.4 4.2 -3.45 3.6 -3.4 3.35 M-3.35 4.4 L-3.1 4.9 -3.1 5.0 -2.95 5.2 -2.95 5.3 -3.35 4.4 M-0.6 4.8 L-0.8 4.6 -0.8 4.3 -0.85 3.85 -0.15 2.5 0.25 2.55 0.5 2.55 Q-0.7 2.8 -0.7 4.3 L-0.6 4.8 M1.2 2.45 L1.75 2.2 Q2.15 1.8 2.8 1.8 3.25 1.75 3.75 2.15 L3.3 2.0 Q2.2 2.0 1.9 2.6 L1.35 2.55 1.3 2.45 1.2 2.45 M-0.35 4.0 Q-0.3 4.35 0.15 4.35 0.95 4.35 0.95 3.55 1.0 2.9 0.35 2.9 L0.15 3.0 Q0.3 2.8 0.5 2.85 L1.8 3.0 1.35 3.6 1.35 4.1 1.4 4.1 2.0 3.0 2.1 3.0 2.15 3.0 2.25 2.9 2.25 2.85 3.15 2.4 Q4.1 2.4 4.1 3.85 3.9 6.0 2.65 6.0 1.7 5.0 1.45 5.05 L0.5 5.15 Q-0.4 5.15 -0.4 4.25 L-0.35 4.0 M2.1 4.3 L2.15 4.8 Q2.3 5.3 2.9 5.3 3.8 5.3 3.8 3.8 4.0 2.85 3.2 2.85 2.1 2.85 2.1 4.3" fill="#ef3f03" fill-rule="evenodd" stroke="none"/>
    <path d="M-1.25 0.75 L-0.35 0.65 Q0.7 0.6 0.9 0.9 L2.75 0.6 Q4.6 0.55 5.55 1.8 6.15 2.65 6.15 3.5 L6.0 4.45 6.0 4.6 5.9 4.7 Q5.65 5.5 5.3 5.5 L4.35 6.15 Q4.05 6.15 4.05 5.75 L4.6 4.7 Q4.45 4.3 4.45 3.5 L4.65 2.8 4.2 2.45 4.05 2.35 3.8 2.15 3.75 2.15 Q3.25 1.75 2.8 1.8 2.15 1.8 1.75 2.2 L1.2 2.45 0.5 2.55 0.25 2.55 -0.15 2.5 -0.85 3.85 -0.8 4.3 -0.8 4.6 -0.6 4.8 -0.3 5.2 -0.2 5.35 -0.05 5.5 0.05 5.5 Q0.85 5.5 1.0 6.0 L1.05 6.1 1.05 6.15 1.05 6.3 Q1.05 7.05 -1.0 7.1 L-1.2 6.95 -2.2 6.8 -2.45 6.6 Q-3.0 6.3 -3.0 5.6 L-2.6 6.15 -2.55 5.95 -2.95 5.3 -2.95 5.2 -3.1 5.0 -3.1 4.9 -3.35 4.4 -3.4 4.2 -3.35 3.75 -3.4 3.6 -3.4 3.35 -2.75 1.95 -1.25 0.75 M-3.25 2.15 L-2.75 1.55 -2.8 1.6 -3.25 2.15 M-0.35 4.0 L-0.35 3.95 Q-0.35 3.1 0.15 3.0 L0.35 2.9 Q1.0 2.9 0.95 3.55 0.95 4.35 0.15 4.35 -0.3 4.35 -0.35 4.0 M2.1 4.3 Q2.1 2.85 3.2 2.85 4.0 2.85 3.8 3.8 3.8 5.3 2.9 5.3 2.3 5.3 2.15 4.8 L2.1 4.3 M3.45 3.75 L3.0 3.2 Q2.6 3.2 2.6 3.85 2.6 4.35 3.0 4.35 3.45 4.35 3.45 3.75" fill="#fd7040" fill-rule="evenodd" stroke="none"/>
    <path d="M-1.25 -14.55 L-1.4 -14.5 -1.45 -14.5 -1.85 -15.1 Q-2.0 -15.4 -2.7 -15.35 -3.45 -15.3 -3.75 -15.55 -4.65 -16.4 -4.65 -16.8 -4.65 -18.65 -2.65 -18.6 -1.4 -18.6 -1.4 -18.2 L-1.45 -17.7 -1.6 -17.7 Q-1.9 -18.4 -2.65 -18.4 -3.55 -18.4 -4.0 -17.55 L-4.3 -16.7 -3.25 -15.65 -2.15 -15.45 -1.35 -15.3 -1.2 -14.75 -1.25 -14.55" fill="#000000" fill-rule="evenodd" stroke="none"/>
    <path d="M-2.75 1.55 L-2.7 1.5 -2.15 0.95 Q-1.7 0.55 -1.4 0.6 L-1.2 0.65 -1.25 0.75 -2.75 1.95 -3.4 3.35 -3.45 3.6 -3.4 4.2 -3.35 4.4 -2.95 5.3 -2.55 5.95 -2.6 6.15 -3.0 5.6 -3.3 4.8 -3.7 3.3 -3.7 3.2 -3.65 3.1 -3.65 2.95 -3.25 2.15 -2.8 1.6 -2.75 1.55 M3.45 3.75 Q3.45 4.35 3.0 4.35 2.6 4.35 2.6 3.85 2.6 3.2 3.0 3.2 L3.45 3.75" fill="#fea283" fill-rule="evenodd" stroke="none"/>
    <path d="M7.65 13.05 Q9.2 12.05 10.6 10.75 L12.9 7.85 13.05 7.5 13.2 7.3 Q15.0 4.15 15.0 0.25 15.0 -5.8 10.75 -10.1 L10.6 -10.3 Q7.75 -13.1 4.05 -14.1 L3.2 -14.3 0.6 -14.6 0.0 -14.6 -1.25 -14.55 M-1.45 -14.5 Q-6.75 -14.1 -10.65 -10.3 L-12.45 -8.05 Q-15.0 -4.45 -15.0 0.25 -15.0 6.35 -10.65 10.75 -6.2 15.1 0.0 15.1 3.5 15.1 6.45 13.7 L7.65 13.05 Z" fill="none" stroke="#865204" stroke-linecap="round" stroke-linejoin="round" stroke-width="0.5"/>
  </g>
</svg>
