<?xml version="1.0" encoding="UTF-8" standalone="no"?>
<svg xmlns:xlink="http://www.w3.org/1999/xlink" height="34.8px" width="30.5px" xmlns="http://www.w3.org/2000/svg">
  <g transform="matrix(1.0, 0.0, 0.0, 1.0, 15.25, 19.45)">
    <path d="M7.65 13.0 L7.35 12.75 6.05 13.15 3.65 13.3 1.75 13.5 -1.75 13.05 -3.9 12.45 -6.0 11.55 Q-7.9 10.1 -7.9 9.1 -6.85 8.25 -6.85 7.55 -6.85 7.25 -8.0 7.0 -9.25 6.65 -9.75 5.6 -10.15 4.65 -10.15 3.5 L-9.75 1.6 -9.6 0.8 Q-8.5 0.1 -8.5 -0.15 -8.5 -0.65 -9.35 -0.75 -9.8 -1.25 -10.15 -1.25 L-11.0 -0.7 -11.0 -1.8 Q-10.9 -5.75 -8.45 -8.9 L-4.6 -12.15 Q-4.15 -12.55 -1.15 -13.65 L0.95 -14.15 2.3 -14.4 3.85 -14.55 4.05 -14.8 Q7.75 -13.8 10.6 -10.85 L10.75 -10.75 Q15.0 -6.35 15.0 -0.15 15.0 3.85 13.2 7.15 L13.05 7.4 12.9 7.6 10.6 10.6 7.65 13.0 M1.55 -5.5 L1.3 -5.75 0.55 -4.8 Q0.05 -4.2 -2.55 -4.15 L-4.45 -4.3 Q-7.9 -4.3 -7.9 -3.2 L-7.85 -3.1 -6.9 -3.4 -4.45 -3.85 -2.55 -3.65 Q1.55 -3.75 1.55 -5.5 M3.3 -4.65 Q2.65 -4.8 2.6 -5.15 L2.45 -5.6 Q2.3 -5.55 2.3 -5.35 2.3 -4.6 5.05 -3.55 L9.15 -2.5 Q8.95 -2.5 9.35 -2.2 L9.45 -2.5 Q9.45 -2.85 7.45 -3.3 L5.3 -3.9 Q4.75 -4.35 3.3 -4.65 M3.35 -3.25 L3.25 -3.25 3.25 -3.1 3.6 -2.9 3.7 -2.95 3.7 -3.05 3.35 -3.25 M2.05 -6.7 L2.15 -6.2 2.55 -7.4 2.5 -7.4 Q2.05 -7.4 2.05 -6.7 M1.15 -6.9 L1.15 -7.3 0.9 -7.6 0.85 -7.6 0.8 -7.55 1.05 -6.85 1.15 -6.9 M4.6 -0.4 L5.45 -0.5 5.4 -0.25 5.6 0.15 4.6 -0.4 M5.65 -0.55 Q6.05 -0.7 6.05 -1.0 L5.7 -1.3 Q5.35 -1.05 4.7 -1.05 L4.4 -1.15 4.1 -1.0 4.05 -0.8 4.45 -0.45 3.8 -0.55 Q3.25 -0.25 2.25 -0.3 L-0.2 -0.3 -0.8 -0.4 Q-4.0 -0.4 -4.75 2.05 L-5.0 0.9 -4.95 0.75 -5.0 0.45 -4.95 0.45 Q-4.4 0.45 -4.4 0.15 L-4.55 -0.15 -5.5 -0.4 -5.9 -0.4 -6.3 -0.15 Q-6.3 0.3 -5.55 0.4 L-5.1 2.25 -4.95 4.35 Q-4.95 5.25 -5.25 6.45 -5.75 6.95 -5.75 7.8 L-5.7 7.95 Q-5.25 7.75 -5.1 7.15 L-5.05 7.15 -4.45 5.3 -4.2 6.0 -3.55 7.1 Q-2.6 7.9 -0.1 7.9 7.0 7.9 7.0 3.55 7.0 1.8 6.55 1.35 L5.9 0.4 5.9 0.2 5.65 -0.55 M6.7 -2.15 L6.6 -2.15 6.6 -1.75 6.75 -1.05 Q6.85 -0.65 7.4 -0.65 L7.75 -1.0 7.3 -1.5 6.7 -2.15 M8.5 -0.1 L8.75 -0.15 9.0 0.2 8.75 0.45 8.5 0.25 8.5 -0.1 M7.55 -0.95 L7.4 -0.85 Q7.05 -0.9 7.05 -1.35 L7.55 -0.95 M-5.75 -1.25 L-5.7 -1.0 -5.2 -1.0 -4.95 -1.7 -5.1 -2.2 -5.75 -1.25 M-7.1 -1.3 Q-7.1 -0.8 -7.55 -0.7 L-7.65 -0.85 -7.1 -1.3 M-7.3 -0.55 Q-7.0 -0.55 -6.8 -1.4 L-6.8 -1.8 Q-7.8 -1.7 -7.8 -0.85 L-7.55 -0.7 -7.3 -0.55 M-5.5 -2.5 L-5.5 -2.65 -5.6 -2.65 -5.55 -2.5 -5.5 -2.5 M-1.3 -3.4 Q-2.0 -3.45 -2.2 -3.05 L-1.9 -3.0 Q-1.25 -3.0 -1.25 -3.25 L-1.3 -3.4 M8.3 0.15 L8.7 0.8 Q9.2 0.75 9.2 0.2 9.2 -0.3 8.65 -0.3 8.3 -0.3 8.3 0.15 M-8.05 1.35 L-8.15 1.35 -8.25 1.8 -8.0 2.1 -8.1 1.6 -7.75 1.65 -7.75 1.95 -7.8 2.15 -7.95 2.15 -7.8 2.35 -7.55 1.8 Q-7.55 1.35 -8.05 1.35 M6.4 6.5 L6.3 6.2 6.2 6.2 6.15 6.45 6.2 6.55 6.4 6.5" fill="#fde0b5" fill-rule="evenodd" stroke="none"/>
    <path d="M6.7 -2.15 L7.3 -1.5 7.75 -1.0 7.4 -0.65 Q6.85 -0.65 6.75 -1.05 L6.6 -1.75 6.6 -2.15 6.7 -2.15 M7.55 -0.95 L7.05 -1.35 Q7.05 -0.9 7.4 -0.85 L7.55 -0.95 M8.5 -0.1 L8.5 0.25 8.75 0.45 9.0 0.2 8.75 -0.15 8.5 -0.1 M-5.5 -2.5 L-5.55 -2.5 -5.6 -2.65 -5.5 -2.65 -5.5 -2.5 M-7.3 -0.55 L-7.55 -0.7 -7.8 -0.85 Q-7.8 -1.7 -6.8 -1.8 L-6.8 -1.4 Q-7.0 -0.55 -7.3 -0.55 M-7.1 -1.3 L-7.65 -0.85 -7.55 -0.7 Q-7.1 -0.8 -7.1 -1.3 M-5.75 -1.25 L-5.1 -2.2 -4.95 -1.7 -5.2 -1.0 -5.7 -1.0 -5.75 -1.25 M-8.05 1.35 Q-7.55 1.35 -7.55 1.8 L-7.8 2.35 -7.95 2.15 -7.8 2.15 -7.75 1.95 -7.75 1.65 -8.1 1.6 -8.0 2.1 -8.25 1.8 -8.15 1.35 -8.05 1.35 M8.3 0.15 Q8.3 -0.3 8.65 -0.3 9.2 -0.3 9.2 0.2 9.2 0.75 8.7 0.8 L8.3 0.15" fill="#a69e86" fill-rule="evenodd" stroke="none"/>
    <path d="M4.05 -14.8 L3.85 -14.55 2.3 -14.4 0.95 -14.15 -1.15 -13.65 Q-4.15 -12.55 -4.6 -12.15 L-8.45 -8.9 Q-10.9 -5.75 -11.0 -1.8 L-11.0 -0.7 -10.15 -1.25 Q-9.8 -1.25 -9.35 -0.75 -8.5 -0.65 -8.5 -0.15 -8.5 0.1 -9.6 0.8 L-9.75 1.6 -10.15 3.5 Q-10.15 4.65 -9.75 5.6 -9.25 6.65 -8.0 7.0 -6.85 7.25 -6.85 7.55 -6.85 8.25 -7.9 9.1 -7.9 10.1 -6.0 11.55 L-3.9 12.45 -1.75 13.05 1.75 13.5 3.65 13.3 6.05 13.15 7.35 12.75 7.65 13.0 6.45 13.7 Q3.5 15.1 0.0 15.1 -6.2 15.1 -10.65 10.6 -15.0 6.15 -15.0 -0.15 -15.0 -4.9 -12.45 -8.65 L-10.65 -10.85 Q-6.75 -14.8 -1.45 -15.2 L-1.4 -15.2 -1.25 -15.25 0.0 -15.3 0.6 -15.3 3.2 -15.0 4.05 -14.8 M4.6 -0.4 L4.45 -0.4 4.45 -0.45 4.05 -0.8 4.1 -1.0 4.4 -1.15 4.7 -1.05 Q5.35 -1.05 5.7 -1.3 L6.05 -1.0 Q6.05 -0.7 5.65 -0.55 L5.65 -0.7 5.45 -0.7 5.45 -0.5 4.6 -0.4 M-5.55 0.4 Q-6.3 0.3 -6.3 -0.15 L-5.9 -0.4 -5.5 -0.4 -4.55 -0.15 -4.4 0.15 Q-4.4 0.45 -4.95 0.45 L-5.0 0.45 Q-5.25 -0.05 -5.5 -0.05 L-5.8 0.05 -5.5 0.45 -5.55 0.4" fill="#fccf8b" fill-rule="evenodd" stroke="none"/>
    <path d="M1.15 -6.9 L1.05 -6.85 0.8 -7.55 0.85 -7.6 0.9 -7.6 1.15 -7.3 1.15 -6.9 M2.05 -6.7 Q2.05 -7.4 2.5 -7.4 L2.55 -7.4 2.15 -6.2 2.05 -6.7 M3.35 -3.25 L3.7 -3.05 3.7 -2.95 3.6 -2.9 3.25 -3.1 3.25 -3.25 3.35 -3.25 M3.3 -4.65 Q4.75 -4.35 5.3 -3.9 L7.45 -3.3 Q9.45 -2.85 9.45 -2.5 L9.35 -2.2 Q8.95 -2.5 9.15 -2.5 L5.05 -3.55 Q2.3 -4.6 2.3 -5.35 2.3 -5.55 2.45 -5.6 L2.6 -5.15 Q2.65 -4.8 3.3 -4.65 M1.55 -5.5 Q1.55 -3.75 -2.55 -3.65 L-4.45 -3.85 -6.9 -3.4 -7.85 -3.1 -7.9 -3.2 Q-7.9 -4.3 -4.45 -4.3 L-2.55 -4.15 Q0.05 -4.2 0.55 -4.8 L1.3 -5.75 1.55 -5.5 M5.45 -0.5 L5.45 -0.7 5.65 -0.7 5.65 -0.55 5.9 0.2 5.9 0.4 5.7 0.45 5.6 0.15 5.4 -0.25 5.45 -0.5 M-4.75 2.05 L-4.7 2.3 -4.4 4.4 -4.45 5.3 -5.05 7.15 -5.1 7.15 Q-5.25 7.75 -5.7 7.95 L-5.75 7.8 Q-5.75 6.95 -5.25 6.45 -4.95 5.25 -4.95 4.35 L-5.1 2.25 -5.55 0.4 -5.5 0.45 -5.8 0.05 -5.5 -0.05 Q-5.25 -0.05 -5.0 0.45 L-4.95 0.75 -5.0 0.9 -4.75 2.05 M-1.3 -3.4 L-1.25 -3.25 Q-1.25 -3.0 -1.9 -3.0 L-2.2 -3.05 Q-2.0 -3.45 -1.3 -3.4 M6.4 6.5 L6.2 6.55 6.15 6.45 6.2 6.2 6.3 6.2 6.4 6.5" fill="#865204" fill-rule="evenodd" stroke="none"/>
    <path d="M4.45 -0.45 L4.45 -0.4 4.6 -0.4 5.6 0.15 5.7 0.45 5.9 0.4 6.55 1.35 Q7.0 1.8 7.0 3.55 7.0 7.9 -0.1 7.9 -2.6 7.9 -3.55 7.1 L-4.2 6.0 -4.45 5.3 -4.4 4.4 -4.7 2.3 -4.75 2.05 Q-4.0 -0.4 -0.8 -0.4 L-0.2 -0.3 2.25 -0.3 Q3.25 -0.25 3.8 -0.55 L4.45 -0.45 M4.05 2.05 Q4.45 2.45 4.4 3.6 4.4 6.1 2.65 6.15 2.0 6.1 1.7 5.65 L1.45 5.1 1.05 5.1 0.65 5.25 -0.3 5.0 -0.6 4.55 -0.7 4.05 Q-0.7 2.55 0.5 2.25 L1.2 2.15 1.3 2.15 1.35 2.25 1.9 2.3 Q2.2 1.75 3.3 1.75 L3.8 1.85 4.05 2.05 M-3.7 2.9 L-3.75 3.7 -3.05 5.8 -3.2 5.8 -3.85 3.75 -3.55 2.25 -3.6 2.6 -3.65 2.65 -3.65 2.7 -3.7 2.9 M-3.75 5.8 Q-3.2 7.0 -2.4 7.35 L-0.1 7.45 Q6.6 7.4 6.6 3.5 6.6 2.55 6.1 1.55 4.75 -0.15 3.6 -0.15 L2.85 0.1 2.75 0.0 0.9 0.1 -0.4 0.05 -0.45 -0.05 -1.65 0.15 Q-2.65 0.55 -3.2 1.45 L-2.4 0.35 Q-4.4 1.2 -4.4 3.6 L-3.75 5.8 M0.15 2.65 Q-0.35 2.8 -0.35 3.65 L-0.35 3.7 -0.4 4.0 Q-0.4 4.95 0.5 4.95 L1.45 4.75 2.65 5.8 Q3.9 5.75 4.1 3.6 4.1 2.1 3.15 2.1 L2.25 2.6 2.25 2.65 2.15 2.7 2.1 2.65 2.0 2.7 1.4 3.8 1.35 3.8 1.35 3.35 1.8 2.7 0.5 2.55 0.15 2.65" fill="#802202" fill-rule="evenodd" stroke="none"/>
    <path d="M-1.25 0.35 L-1.2 0.3 -1.4 0.25 -2.15 0.65 -2.7 1.2 -2.75 1.25 -3.25 1.85 -3.6 2.6 -3.55 2.25 -3.85 3.75 -3.2 5.8 -3.05 5.8 -3.75 3.7 -3.7 2.9 -3.7 3.0 -3.3 4.55 -3.0 5.35 Q-3.0 6.1 -2.45 6.45 L-2.2 6.55 -1.2 6.7 -1.0 6.9 Q1.05 6.85 1.05 6.1 L1.05 5.95 1.05 5.9 1.0 5.8 Q0.85 5.25 0.05 5.25 L-0.05 5.25 -0.2 5.15 -0.3 5.0 0.65 5.25 1.05 5.1 1.45 5.1 1.7 5.65 Q2.0 6.1 2.65 6.15 4.4 6.1 4.4 3.6 4.45 2.45 4.05 2.05 L4.2 2.15 4.65 2.5 4.45 3.25 Q4.45 4.05 4.6 4.5 L4.05 5.6 Q4.05 5.9 4.35 5.95 L5.3 5.25 Q5.65 5.25 5.9 4.5 L6.0 4.35 6.0 4.2 6.15 3.25 Q6.15 2.35 5.55 1.5 4.6 0.2 2.75 0.25 L0.9 0.55 -0.35 0.3 -1.25 0.35 M-3.4 3.95 L-3.45 3.35 -3.4 3.1 -3.4 3.35 -3.35 3.5 -3.4 3.95 M-3.35 4.15 L-3.1 4.65 -3.1 4.7 -2.95 5.0 -2.95 5.1 -3.35 4.15 M-3.75 5.8 L-4.4 3.6 Q-4.4 1.2 -2.4 0.35 L-3.2 1.45 Q-2.65 0.55 -1.65 0.15 L-0.45 -0.05 -0.4 0.05 0.9 0.1 2.75 0.0 2.85 0.1 3.6 -0.15 Q4.75 -0.15 6.1 1.55 6.6 2.55 6.6 3.5 6.6 7.4 -0.1 7.45 L-2.4 7.35 Q-3.2 7.0 -3.75 5.8 M0.5 2.25 Q-0.7 2.55 -0.7 4.05 L-0.6 4.55 -0.8 4.35 -0.8 4.05 -0.85 3.65 -0.15 2.2 0.25 2.25 0.5 2.25 M-0.35 3.7 Q-0.3 4.1 0.15 4.1 0.95 4.1 0.95 3.3 1.0 2.65 0.35 2.65 L0.15 2.65 0.5 2.55 1.8 2.7 1.35 3.35 1.35 3.8 1.4 3.8 2.0 2.7 2.1 2.65 2.15 2.7 2.25 2.65 2.25 2.6 3.15 2.1 Q4.1 2.1 4.1 3.6 3.9 5.75 2.65 5.8 L1.45 4.75 0.5 4.95 Q-0.4 4.95 -0.4 4.0 L-0.35 3.7 M1.2 2.15 L1.75 1.9 Q2.15 1.5 2.8 1.5 L3.8 1.85 3.3 1.75 Q2.2 1.75 1.9 2.3 L1.35 2.25 1.3 2.15 1.2 2.15 M2.1 4.05 L2.15 4.55 Q2.3 5.1 2.9 5.1 3.8 5.1 3.8 3.55 4.0 2.55 3.2 2.6 2.1 2.55 2.1 4.05" fill="#ef3f03" fill-rule="evenodd" stroke="none"/>
    <path d="M-1.25 0.35 L-0.35 0.3 0.9 0.55 2.75 0.25 Q4.6 0.2 5.55 1.5 6.15 2.35 6.15 3.25 L6.0 4.2 6.0 4.35 5.9 4.5 Q5.65 5.25 5.3 5.25 L4.35 5.95 Q4.05 5.9 4.05 5.6 L4.6 4.5 Q4.45 4.05 4.45 3.25 L4.65 2.5 4.2 2.15 4.05 2.05 3.8 1.85 2.8 1.5 Q2.15 1.5 1.75 1.9 L1.2 2.15 0.5 2.25 0.25 2.25 -0.15 2.2 -0.85 3.65 -0.8 4.05 -0.8 4.35 -0.6 4.55 -0.3 5.0 -0.2 5.15 -0.05 5.25 0.05 5.25 Q0.85 5.25 1.0 5.8 L1.05 5.9 1.05 5.95 1.05 6.1 Q1.05 6.85 -1.0 6.9 L-1.2 6.7 -2.2 6.55 -2.45 6.45 Q-3.0 6.1 -3.0 5.35 L-2.6 5.95 -2.55 5.75 -2.95 5.1 -2.95 5.0 -3.1 4.7 -3.1 4.65 -3.35 4.15 -3.4 3.95 -3.35 3.5 -3.4 3.35 -3.4 3.1 -2.75 1.65 Q-1.65 0.95 -1.25 0.35 M-3.25 1.85 L-2.75 1.25 -2.8 1.3 -3.25 1.85 M-0.35 3.7 L-0.35 3.65 Q-0.35 2.8 0.15 2.65 L0.35 2.65 Q1.0 2.65 0.95 3.3 0.95 4.1 0.15 4.1 -0.3 4.1 -0.35 3.7 M2.1 4.05 Q2.1 2.55 3.2 2.6 4.0 2.55 3.8 3.55 3.8 5.1 2.9 5.1 2.3 5.1 2.15 4.55 L2.1 4.05 M3.0 4.1 Q3.45 4.1 3.45 3.55 L3.0 2.9 Q2.6 2.85 2.6 3.6 2.6 4.1 3.0 4.1" fill="#fd7040" fill-rule="evenodd" stroke="none"/>
    <path d="M-1.25 -15.25 L-1.4 -15.2 -1.45 -15.2 -1.85 -15.85 Q-2.0 -16.15 -2.7 -16.1 -3.45 -16.05 -3.75 -16.3 -4.65 -17.1 -4.65 -17.55 -4.65 -19.45 -2.65 -19.45 -1.4 -19.45 -1.4 -19.0 L-1.45 -18.55 -1.6 -18.55 Q-1.9 -19.2 -2.65 -19.2 -3.55 -19.2 -4.0 -18.4 L-4.3 -17.45 Q-4.3 -17.05 -3.25 -16.35 L-2.15 -16.2 -1.35 -16.05 -1.2 -15.45 -1.25 -15.25" fill="#000000" fill-rule="evenodd" stroke="none"/>
    <path d="M-2.75 1.25 L-2.7 1.2 -2.15 0.65 -1.4 0.25 -1.2 0.3 -1.25 0.35 Q-1.65 0.95 -2.75 1.65 L-3.4 3.1 -3.45 3.35 -3.4 3.95 -3.35 4.15 -2.95 5.1 -2.55 5.75 -2.6 5.95 -3.0 5.35 -3.3 4.55 -3.7 3.0 -3.7 2.9 -3.65 2.7 -3.65 2.65 -3.6 2.6 -3.25 1.85 -2.8 1.3 -2.75 1.25 M3.0 4.1 Q2.6 4.1 2.6 3.6 2.6 2.85 3.0 2.9 L3.45 3.55 Q3.45 4.1 3.0 4.1" fill="#fea283" fill-rule="evenodd" stroke="none"/>
    <path d="M7.65 13.0 L10.6 10.6 12.9 7.6 13.05 7.4 13.2 7.15 Q15.0 3.85 15.0 -0.15 15.0 -6.35 10.75 -10.75 L10.6 -10.85 Q7.75 -13.8 4.05 -14.8 L3.2 -15.0 0.6 -15.3 0.0 -15.3 -1.25 -15.25 M-1.45 -15.2 Q-6.75 -14.8 -10.65 -10.85 L-12.45 -8.65 Q-15.0 -4.9 -15.0 -0.15 -15.0 6.15 -10.65 10.6 -6.2 15.1 0.0 15.1 3.5 15.1 6.45 13.7 L7.65 13.0 Z" fill="none" stroke="#865204" stroke-linecap="round" stroke-linejoin="round" stroke-width="0.5"/>
  </g>
</svg>
