<?xml version="1.0" encoding="UTF-8" standalone="no"?>
<svg xmlns:xlink="http://www.w3.org/1999/xlink" height="35.1px" width="30.5px" xmlns="http://www.w3.org/2000/svg">
  <g transform="matrix(1.0, 0.0, 0.0, 1.0, 15.25, 19.75)">
    <path d="M-1.25 -15.5 L-1.4 -15.45 -1.45 -15.45 -1.85 -16.1 Q-2.0 -16.4 -2.7 -16.35 -3.45 -16.3 -3.75 -16.65 -4.65 -17.4 -4.65 -17.85 -4.65 -19.75 -2.65 -19.75 -1.4 -19.75 -1.4 -19.25 L-1.45 -18.85 -1.6 -18.85 Q-1.9 -19.5 -2.65 -19.45 -3.55 -19.5 -4.0 -18.7 L-4.3 -17.75 Q-4.3 -17.35 -3.25 -16.7 -2.85 -16.35 -2.15 -16.55 -1.6 -16.65 -1.35 -16.3 L-1.2 -15.75 -1.25 -15.5" fill="#000000" fill-rule="evenodd" stroke="none"/>
    <path d="M7.65 13.05 L7.65 13.0 Q7.65 12.7 7.35 12.75 L6.05 13.15 3.65 13.3 1.75 13.5 -1.75 13.05 -3.9 12.35 -6.0 11.5 Q-7.9 10.0 -7.9 9.05 -6.85 8.2 -6.85 7.45 -6.85 7.2 -8.0 6.95 -9.25 6.6 -9.75 5.5 -10.15 4.6 -10.15 3.4 L-9.75 1.5 -9.6 0.55 Q-8.5 -0.05 -8.5 -0.3 -8.5 -0.8 -9.35 -0.9 -9.8 -1.45 -10.15 -1.4 L-11.0 -0.85 -11.0 -1.9 Q-10.9 -5.95 -8.45 -9.1 L-4.6 -12.4 Q-4.15 -12.8 -1.15 -13.9 L0.95 -14.45 2.3 -14.65 3.85 -14.8 4.05 -15.0 Q7.75 -14.05 10.6 -11.15 L10.75 -11.05 Q15.0 -6.55 15.0 -0.3 15.0 3.75 13.2 7.05 L13.05 7.3 12.9 7.55 10.6 10.55 7.65 13.05 M1.55 -5.7 L1.3 -5.95 0.55 -5.0 Q0.05 -4.3 -2.55 -4.3 L-4.45 -4.4 Q-7.9 -4.45 -7.9 -3.4 L-7.85 -3.25 -6.9 -3.6 -4.45 -4.05 -2.55 -3.85 Q1.55 -3.85 1.55 -5.7 M3.25 -3.45 L3.25 -3.25 3.6 -3.05 3.7 -3.1 3.7 -3.2 3.35 -3.45 3.25 -3.45 M3.3 -4.8 Q2.65 -5.0 2.6 -5.35 L2.45 -5.85 2.3 -5.55 Q2.3 -4.75 5.05 -3.75 L9.15 -2.65 Q8.95 -2.65 9.35 -2.35 L9.45 -2.65 Q9.45 -3.0 7.45 -3.45 L5.3 -4.1 Q4.75 -4.5 3.3 -4.8 M0.8 -7.75 L1.05 -7.05 1.15 -7.1 1.15 -7.5 0.9 -7.8 0.85 -7.8 0.8 -7.75 M2.5 -7.6 Q2.05 -7.65 2.05 -6.9 L2.15 -6.45 2.55 -7.6 2.5 -7.6 M4.6 -0.55 L5.45 -0.65 5.4 -0.4 5.6 0.05 Q5.1 -0.4 4.6 -0.55 M5.65 -0.7 Q6.05 -0.85 6.05 -1.15 L5.7 -1.45 Q5.35 -1.2 4.7 -1.2 L4.4 -1.3 4.1 -1.15 4.05 -0.95 4.45 -0.6 3.8 -0.7 Q3.25 -0.4 2.25 -0.45 L-0.2 -0.45 -0.8 -0.55 Q-4.0 -0.55 -4.75 1.95 L-5.0 0.75 -4.95 0.5 -5.0 0.35 -4.95 0.35 Q-4.4 0.35 -4.4 0.0 L-4.55 -0.3 -5.5 -0.55 -5.9 -0.55 -6.3 -0.3 Q-6.3 0.15 -5.55 0.3 L-5.1 2.15 -4.95 4.3 Q-4.95 5.1 -5.25 6.35 -5.75 6.9 -5.75 7.75 L-5.7 7.9 Q-5.25 7.65 -5.1 7.1 L-5.05 7.1 -4.45 5.2 -4.2 5.9 -3.55 7.0 Q-2.6 7.85 -0.1 7.85 7.0 7.85 7.0 3.45 7.0 1.7 6.55 1.25 L5.9 0.3 5.9 0.05 5.65 -0.7 M6.6 -2.3 L6.6 -1.85 6.75 -1.2 Q6.85 -0.8 7.4 -0.8 L7.75 -1.15 7.3 -1.7 6.7 -2.3 6.6 -2.3 M8.5 -0.25 L8.75 -0.3 9.0 0.05 8.75 0.35 8.5 0.1 8.5 -0.25 M7.55 -1.1 L7.4 -1.0 Q7.05 -1.05 7.05 -1.5 L7.55 -1.1 M-5.5 -1.35 L-5.45 -1.4 -5.15 -1.95 -5.5 -1.35 M-5.75 -1.4 L-5.7 -1.15 -5.2 -1.15 -4.95 -1.8 -5.1 -2.35 -5.75 -1.4 M-7.1 -1.45 Q-7.1 -0.95 -7.55 -0.85 L-7.65 -1.0 -7.1 -1.45 M-6.8 -1.65 L-6.8 -1.9 Q-7.8 -1.85 -7.8 -1.0 L-7.55 -0.85 -7.3 -0.7 Q-7.0 -0.7 -6.8 -1.65 M-5.5 -2.65 L-5.5 -2.8 -5.6 -2.8 -5.55 -2.65 -5.5 -2.65 M-2.2 -3.2 L-1.9 -3.15 Q-1.25 -3.15 -1.25 -3.45 L-1.3 -3.6 Q-2.0 -3.6 -2.2 -3.2 M8.3 0.0 L8.7 0.55 Q9.2 0.55 9.2 0.05 9.2 -0.45 8.65 -0.45 8.3 -0.45 8.3 0.0 M-8.05 1.25 L-8.15 1.25 -8.25 1.7 -8.0 2.0 -8.1 1.5 -7.75 1.55 -7.75 1.85 -7.8 2.05 -7.95 2.05 -7.8 2.25 -7.55 1.7 Q-7.55 1.2 -8.05 1.25 M6.3 6.1 L6.2 6.1 6.15 6.35 6.2 6.45 6.4 6.4 6.3 6.1" fill="#fde0b5" fill-rule="evenodd" stroke="none"/>
    <path d="M6.6 -2.3 L6.7 -2.3 7.3 -1.7 7.75 -1.15 7.4 -0.8 Q6.85 -0.8 6.75 -1.2 L6.6 -1.85 6.6 -2.3 M7.55 -1.1 L7.05 -1.5 Q7.05 -1.05 7.4 -1.0 L7.55 -1.1 M8.5 -0.25 L8.5 0.1 8.75 0.35 9.0 0.05 8.75 -0.3 8.5 -0.25 M-5.5 -2.65 L-5.55 -2.65 -5.6 -2.8 -5.5 -2.8 -5.5 -2.65 M-6.8 -1.65 Q-7.0 -0.7 -7.3 -0.7 L-7.55 -0.85 -7.8 -1.0 Q-7.8 -1.85 -6.8 -1.9 L-6.8 -1.65 M-7.1 -1.45 L-7.65 -1.0 -7.55 -0.85 Q-7.1 -0.95 -7.1 -1.45 M-5.75 -1.4 L-5.1 -2.35 -4.95 -1.8 -5.2 -1.15 -5.7 -1.15 -5.75 -1.4 M-5.5 -1.35 L-5.15 -1.95 -5.45 -1.4 -5.5 -1.35 M-8.05 1.25 Q-7.55 1.2 -7.55 1.7 L-7.8 2.25 -7.95 2.05 -7.8 2.05 -7.75 1.85 -7.75 1.55 -8.1 1.5 -8.0 2.0 -8.25 1.7 -8.15 1.25 -8.05 1.25 M8.3 0.0 Q8.3 -0.45 8.65 -0.45 9.2 -0.45 9.2 0.05 9.2 0.55 8.7 0.55 L8.3 0.0" fill="#a69e86" fill-rule="evenodd" stroke="none"/>
    <path d="M4.05 -15.0 L3.85 -14.8 2.3 -14.65 0.95 -14.45 -1.15 -13.9 Q-4.15 -12.8 -4.6 -12.4 L-8.45 -9.1 Q-10.9 -5.95 -11.0 -1.9 L-11.0 -0.85 -10.15 -1.4 Q-9.8 -1.45 -9.35 -0.9 -8.5 -0.8 -8.5 -0.3 -8.5 -0.05 -9.6 0.55 L-9.75 1.5 -10.15 3.4 Q-10.15 4.6 -9.75 5.5 -9.25 6.6 -8.0 6.95 -6.85 7.2 -6.85 7.45 -6.85 8.2 -7.9 9.05 -7.9 10.0 -6.0 11.5 L-3.9 12.35 -1.75 13.05 1.75 13.5 3.65 13.3 6.05 13.15 7.35 12.75 Q7.65 12.7 7.65 13.0 L7.65 13.05 6.45 13.65 Q3.5 15.1 0.0 15.1 -6.2 15.1 -10.65 10.55 -15.0 6.05 -15.0 -0.3 -15.0 -5.1 -12.45 -8.85 L-10.65 -11.15 Q-6.75 -15.05 -1.45 -15.45 L-1.4 -15.45 -1.25 -15.5 0.0 -15.55 0.6 -15.55 3.2 -15.25 4.05 -15.0 M4.6 -0.55 L4.45 -0.55 4.45 -0.6 4.05 -0.95 4.1 -1.15 4.4 -1.3 4.7 -1.2 Q5.35 -1.2 5.7 -1.45 L6.05 -1.15 Q6.05 -0.85 5.65 -0.7 L5.65 -0.85 5.45 -0.85 5.45 -0.65 4.6 -0.55 M-5.0 0.35 L-5.5 -0.2 -5.8 -0.1 -5.5 0.3 -5.55 0.3 Q-6.3 0.15 -6.3 -0.3 L-5.9 -0.55 -5.5 -0.55 -4.55 -0.3 -4.4 0.0 Q-4.4 0.35 -4.95 0.35 L-5.0 0.35" fill="#fccf8b" fill-rule="evenodd" stroke="none"/>
    <path d="M2.5 -7.6 L2.55 -7.6 2.15 -6.45 2.05 -6.9 Q2.05 -7.65 2.5 -7.6 M0.8 -7.75 L0.85 -7.8 0.9 -7.8 1.15 -7.5 1.15 -7.1 1.05 -7.05 0.8 -7.75 M3.3 -4.8 Q4.75 -4.5 5.3 -4.1 L7.45 -3.45 Q9.45 -3.0 9.45 -2.65 L9.35 -2.35 Q8.95 -2.65 9.15 -2.65 L5.05 -3.75 Q2.3 -4.75 2.3 -5.55 L2.45 -5.85 2.6 -5.35 Q2.65 -5.0 3.3 -4.8 M3.25 -3.45 L3.35 -3.45 3.7 -3.2 3.7 -3.1 3.6 -3.05 3.25 -3.25 3.25 -3.45 M1.55 -5.7 Q1.55 -3.85 -2.55 -3.85 L-4.45 -4.05 -6.9 -3.6 -7.85 -3.25 -7.9 -3.4 Q-7.9 -4.45 -4.45 -4.4 L-2.55 -4.3 Q0.05 -4.3 0.55 -5.0 L1.3 -5.95 1.55 -5.7 M5.45 -0.65 L5.45 -0.85 5.65 -0.85 5.65 -0.7 5.9 0.05 5.9 0.3 5.7 0.35 5.6 0.05 5.4 -0.4 5.45 -0.65 M-4.75 1.95 L-4.7 2.2 -4.4 4.35 -4.45 5.2 -5.05 7.1 -5.1 7.1 Q-5.25 7.65 -5.7 7.9 L-5.75 7.75 Q-5.75 6.9 -5.25 6.35 -4.95 5.1 -4.95 4.3 L-5.1 2.15 -5.55 0.3 -5.5 0.3 -5.8 -0.1 -5.5 -0.2 -5.0 0.35 -4.95 0.5 -5.0 0.75 -4.75 1.95 M-2.2 -3.2 Q-2.0 -3.6 -1.3 -3.6 L-1.25 -3.45 Q-1.25 -3.15 -1.9 -3.15 L-2.2 -3.2 M6.3 6.1 L6.4 6.4 6.2 6.45 6.15 6.35 6.2 6.1 6.3 6.1" fill="#865204" fill-rule="evenodd" stroke="none"/>
    <path d="M2.85 -0.05 L2.75 -0.15 0.9 -0.05 -0.4 -0.1 -0.45 -0.2 -1.65 0.05 Q-2.65 0.45 -3.2 1.35 L-2.4 0.25 Q-4.4 1.1 -4.4 3.5 L-3.75 5.7 Q-3.2 7.0 -2.4 7.25 L-0.1 7.35 Q6.6 7.35 6.6 3.4 6.6 2.45 6.1 1.45 4.75 -0.3 3.6 -0.3 L2.85 -0.05 M4.45 -0.6 L4.45 -0.55 4.6 -0.55 Q5.1 -0.4 5.6 0.05 L5.7 0.35 5.9 0.3 6.55 1.25 Q7.0 1.7 7.0 3.45 7.0 7.85 -0.1 7.85 -2.6 7.85 -3.55 7.0 L-4.2 5.9 -4.45 5.2 -4.4 4.35 -4.7 2.2 -4.75 1.95 Q-4.0 -0.55 -0.8 -0.55 L-0.2 -0.45 2.25 -0.45 Q3.25 -0.4 3.8 -0.7 L4.45 -0.6 M4.05 1.95 Q4.45 2.35 4.4 3.5 4.4 6.0 2.65 6.05 2.0 6.05 1.7 5.55 L1.45 5.0 1.05 5.0 0.65 5.15 -0.3 4.9 -0.6 4.5 -0.7 3.95 Q-0.7 2.45 0.5 2.15 L1.2 2.05 1.3 2.05 1.35 2.15 1.9 2.2 Q2.2 1.65 3.3 1.65 L3.75 1.75 3.8 1.75 4.05 1.95 M-3.7 2.75 L-3.75 3.6 -3.05 5.7 -3.2 5.7 -3.85 3.65 -3.55 2.1 -3.65 2.55 -3.65 2.65 -3.7 2.75 M0.15 2.6 Q-0.35 2.7 -0.35 3.55 L-0.35 3.6 -0.4 3.9 Q-0.4 4.8 0.5 4.85 L1.45 4.7 Q1.7 4.65 2.65 5.7 3.9 5.65 4.1 3.5 4.1 2.0 3.15 2.0 L2.25 2.5 2.25 2.55 2.15 2.6 2.1 2.6 2.0 2.6 1.4 3.7 1.35 3.7 1.35 3.25 1.8 2.6 0.5 2.5 0.15 2.6" fill="#802202" fill-rule="evenodd" stroke="none"/>
    <path d="M2.85 -0.05 L3.6 -0.3 Q4.75 -0.3 6.1 1.45 6.6 2.45 6.6 3.4 6.6 7.35 -0.1 7.35 L-2.4 7.25 Q-3.2 7.0 -3.75 5.7 L-4.4 3.5 Q-4.4 1.1 -2.4 0.25 L-3.2 1.35 Q-2.65 0.45 -1.65 0.05 L-0.45 -0.2 -0.4 -0.1 0.9 -0.05 2.75 -0.15 2.85 -0.05 M-1.25 0.25 L-1.2 0.15 -1.4 0.1 Q-1.7 0.1 -2.15 0.45 -2.5 0.55 -2.7 1.1 L-2.75 1.15 -3.25 1.75 -3.65 2.55 -3.55 2.1 -3.85 3.65 -3.2 5.7 -3.05 5.7 -3.75 3.6 -3.7 2.75 -3.7 2.9 -3.3 4.5 -3.0 5.2 Q-3.0 5.95 -2.45 6.35 L-2.2 6.5 -1.2 6.65 -1.0 6.85 Q1.05 6.85 1.05 6.0 L1.05 5.85 1.05 5.8 1.0 5.7 Q0.85 5.1 0.05 5.15 L-0.05 5.15 Q-0.1 5.05 -0.2 5.05 L-0.3 4.9 0.65 5.15 1.05 5.0 1.45 5.0 1.7 5.55 Q2.0 6.05 2.65 6.05 4.4 6.0 4.4 3.5 4.45 2.35 4.05 1.95 L4.2 2.05 4.65 2.45 4.45 3.1 Q4.45 3.95 4.6 4.4 L4.05 5.5 Q4.05 5.85 4.35 5.85 L5.3 5.1 5.3 5.15 Q5.65 5.15 5.9 4.4 L6.0 4.3 6.0 4.1 6.15 3.1 Q6.15 2.3 5.55 1.4 4.6 0.1 2.75 0.1 L0.9 0.4 -0.35 0.15 -1.25 0.25 M-3.4 2.95 L-3.4 3.25 -3.35 3.4 -3.4 3.85 -3.45 3.25 -3.4 2.95 M-3.35 4.05 L-3.1 4.55 -3.1 4.65 -2.95 4.9 -2.95 5.0 -3.35 4.05 M0.5 2.15 Q-0.7 2.45 -0.7 3.95 L-0.6 4.5 -0.8 4.3 -0.8 3.95 -0.85 3.55 -0.15 2.15 0.25 2.15 0.5 2.15 M-0.35 3.6 Q-0.3 4.0 0.15 4.0 0.95 4.0 0.95 3.15 1.0 2.55 0.35 2.55 L0.15 2.6 0.5 2.5 1.8 2.6 1.35 3.25 1.35 3.7 1.4 3.7 2.0 2.6 2.1 2.6 2.15 2.6 2.25 2.55 2.25 2.5 3.15 2.0 Q4.1 2.0 4.1 3.5 3.9 5.65 2.65 5.7 1.7 4.65 1.45 4.7 L0.5 4.85 Q-0.4 4.8 -0.4 3.9 L-0.35 3.6 M1.2 2.05 L1.75 1.8 Q2.15 1.35 2.8 1.4 3.25 1.35 3.75 1.75 L3.3 1.65 Q2.2 1.65 1.9 2.2 L1.35 2.15 1.3 2.05 1.2 2.05 M2.1 3.95 L2.15 4.5 Q2.3 5.0 2.9 5.0 3.8 4.95 3.8 3.45 4.0 2.5 3.2 2.5 2.1 2.5 2.1 3.95" fill="#ef3f03" fill-rule="evenodd" stroke="none"/>
    <path d="M-1.25 0.25 L-0.35 0.15 0.9 0.4 2.75 0.1 Q4.6 0.1 5.55 1.4 6.15 2.3 6.15 3.1 L6.0 4.1 6.0 4.3 5.9 4.4 Q5.65 5.15 5.3 5.15 L5.3 5.1 4.35 5.85 Q4.05 5.85 4.05 5.5 L4.6 4.4 Q4.45 3.95 4.45 3.1 L4.65 2.45 4.2 2.05 4.05 1.95 3.8 1.75 3.75 1.75 Q3.25 1.35 2.8 1.4 2.15 1.35 1.75 1.8 L1.2 2.05 0.5 2.15 0.25 2.15 -0.15 2.15 -0.85 3.55 -0.8 3.95 -0.8 4.3 -0.6 4.5 -0.3 4.9 -0.2 5.05 Q-0.1 5.05 -0.05 5.15 L0.05 5.15 Q0.85 5.1 1.0 5.7 L1.05 5.8 1.05 5.85 1.05 6.0 Q1.05 6.85 -1.0 6.85 L-1.2 6.65 -2.2 6.5 -2.45 6.35 Q-3.0 5.95 -3.0 5.2 L-2.6 5.85 -2.55 5.65 -2.95 5.0 -2.95 4.9 -3.1 4.65 -3.1 4.55 -3.35 4.05 -3.4 3.85 -3.35 3.4 -3.4 3.25 -3.4 2.95 -2.75 1.55 Q-1.65 0.8 -1.25 0.25 M-3.25 1.75 L-2.75 1.15 -2.8 1.2 -3.25 1.75 M-0.35 3.6 L-0.35 3.55 Q-0.35 2.7 0.15 2.6 L0.35 2.55 Q1.0 2.55 0.95 3.15 0.95 4.0 0.15 4.0 -0.3 4.0 -0.35 3.6 M2.1 3.95 Q2.1 2.5 3.2 2.5 4.0 2.5 3.8 3.45 3.8 4.95 2.9 5.0 2.3 5.0 2.15 4.5 L2.1 3.95 M3.0 4.0 Q3.45 4.0 3.45 3.45 L3.0 2.75 Q2.6 2.75 2.6 3.5 2.6 4.0 3.0 4.0" fill="#fd7040" fill-rule="evenodd" stroke="none"/>
    <path d="M-2.75 1.15 L-2.7 1.1 Q-2.5 0.55 -2.15 0.45 -1.7 0.1 -1.4 0.1 L-1.2 0.15 -1.25 0.25 Q-1.65 0.8 -2.75 1.55 L-3.4 2.95 -3.45 3.25 -3.4 3.85 -3.35 4.05 -2.95 5.0 -2.55 5.65 -2.6 5.85 -3.0 5.2 -3.3 4.5 -3.7 2.9 -3.7 2.75 -3.65 2.65 -3.65 2.55 -3.25 1.75 -2.8 1.2 -2.75 1.15 M3.0 4.0 Q2.6 4.0 2.6 3.5 2.6 2.75 3.0 2.75 L3.45 3.45 Q3.45 4.0 3.0 4.0" fill="#fea283" fill-rule="evenodd" stroke="none"/>
    <path d="M7.65 13.05 L10.6 10.55 12.9 7.55 13.05 7.3 13.2 7.05 Q15.0 3.75 15.0 -0.3 15.0 -6.55 10.75 -11.05 L10.6 -11.15 Q7.75 -14.05 4.05 -15.0 L3.2 -15.25 0.6 -15.55 0.0 -15.55 -1.25 -15.5 M-1.45 -15.45 Q-6.75 -15.05 -10.65 -11.15 L-12.45 -8.85 Q-15.0 -5.1 -15.0 -0.3 -15.0 6.05 -10.65 10.55 -6.2 15.1 0.0 15.1 3.5 15.1 6.45 13.65 L7.65 13.05 Z" fill="none" stroke="#865204" stroke-linecap="round" stroke-linejoin="round" stroke-width="0.5"/>
  </g>
</svg>
