<?xml version="1.0" encoding="UTF-8" standalone="no"?>
<svg xmlns:xlink="http://www.w3.org/1999/xlink" height="34.3px" width="30.5px" xmlns="http://www.w3.org/2000/svg">
  <g transform="matrix(1.0, 0.0, 0.0, 1.0, 15.25, 18.95)">
    <path d="M7.65 13.05 L7.65 13.0 7.35 12.75 6.05 13.2 3.65 13.35 1.75 13.55 -1.75 13.1 -3.9 12.5 -6.0 11.6 Q-7.9 10.2 -7.9 9.2 -6.85 8.35 -6.85 7.65 -6.85 7.35 -8.0 7.15 -9.25 6.8 -9.75 5.75 -10.15 4.85 -10.15 3.7 L-9.75 1.85 -9.6 1.0 -8.5 0.1 Q-8.5 -0.4 -9.35 -0.5 -9.8 -1.05 -10.15 -1.0 L-11.0 -0.45 -11.0 -1.45 Q-10.9 -5.45 -8.45 -8.5 L-4.6 -11.75 Q-4.15 -12.15 -1.15 -13.15 L0.95 -13.75 2.3 -13.95 3.85 -14.1 4.05 -14.3 Q7.75 -13.35 10.6 -10.5 L10.75 -10.35 Q15.0 -6.0 15.0 0.1 15.0 4.05 13.2 7.25 L13.05 7.5 12.9 7.8 10.6 10.65 7.65 13.05 M3.7 -2.75 L3.35 -3.0 3.25 -3.0 3.25 -2.8 3.6 -2.6 3.7 -2.65 3.7 -2.75 M1.3 -5.45 L0.55 -4.5 Q0.05 -3.85 -2.55 -3.8 L-4.45 -4.0 Q-7.9 -4.0 -7.9 -2.95 L-7.85 -2.8 -6.9 -3.15 -4.45 -3.55 -2.55 -3.4 Q1.55 -3.4 1.55 -5.2 L1.3 -5.45 M3.3 -4.4 Q2.65 -4.5 2.6 -4.8 L2.45 -5.3 Q2.3 -5.25 2.3 -5.05 2.3 -4.35 5.05 -3.3 L9.15 -2.25 Q8.95 -2.25 9.35 -1.95 L9.45 -2.25 Q9.45 -2.55 7.45 -3.05 L5.3 -3.6 Q4.75 -4.1 3.3 -4.4 M2.5 -7.05 Q2.05 -7.1 2.05 -6.4 L2.15 -5.9 2.55 -7.05 2.5 -7.05 M0.85 -7.25 L0.8 -7.2 1.05 -6.55 1.15 -6.6 1.15 -6.95 0.9 -7.25 0.85 -7.25 M5.65 -0.3 Q6.05 -0.45 6.05 -0.75 L5.7 -1.05 Q5.35 -0.8 4.7 -0.8 L4.4 -0.9 4.1 -0.75 4.05 -0.55 4.45 -0.2 3.8 -0.3 2.25 -0.1 -0.2 -0.1 -0.8 -0.2 Q-4.0 -0.2 -4.75 2.25 L-5.0 1.1 -4.95 0.95 -5.0 0.75 -4.95 0.75 Q-4.4 0.75 -4.4 0.4 L-4.55 0.05 -5.5 -0.2 -5.9 -0.15 -6.3 0.1 Q-6.3 0.55 -5.55 0.65 L-5.55 0.7 -5.1 2.45 -4.95 4.55 Q-4.95 5.45 -5.25 6.55 -5.75 7.05 -5.75 7.9 L-5.7 8.1 Q-5.25 7.85 -5.1 7.25 L-5.05 7.25 -4.45 5.5 -4.2 6.15 -3.55 7.2 Q-2.6 8.05 -0.1 8.05 7.0 8.05 7.0 3.75 7.0 2.0 6.55 1.55 L5.9 0.65 5.9 0.45 5.65 -0.3 M4.6 -0.2 L5.45 -0.25 5.4 -0.05 5.6 0.4 Q5.1 -0.05 4.6 -0.2 M6.7 -1.9 L6.6 -1.9 6.6 -1.4 6.75 -0.8 Q6.85 -0.4 7.4 -0.4 L7.75 -0.75 7.3 -1.25 6.7 -1.9 M7.55 -0.7 L7.4 -0.6 Q7.05 -0.65 7.05 -1.1 L7.55 -0.7 M-7.55 -0.45 L-7.3 -0.3 Q-7.0 -0.3 -6.8 -1.2 L-6.8 -1.45 Q-7.8 -1.4 -7.8 -0.6 L-7.55 -0.45 -7.65 -0.6 -7.1 -1.05 Q-7.1 -0.55 -7.55 -0.45 M-5.55 -2.25 L-5.5 -2.25 -5.5 -2.35 -5.6 -2.35 -5.55 -2.25 M-5.75 -1.0 L-5.7 -0.75 -5.2 -0.75 Q-4.95 -1.1 -4.95 -1.35 L-5.1 -1.95 -5.75 -1.0 M-5.5 -0.95 L-5.45 -1.0 -5.15 -1.5 -5.5 -0.95 M-1.25 -3.0 L-1.3 -3.15 Q-2.0 -3.15 -2.2 -2.75 L-1.9 -2.7 Q-1.25 -2.7 -1.25 -3.0 M9.0 0.45 L8.75 0.75 8.5 0.5 8.5 0.15 8.75 0.1 Q9.0 0.1 9.0 0.45 M8.7 1.0 Q9.2 1.0 9.2 0.45 9.2 -0.1 8.65 -0.1 8.3 -0.1 8.3 0.4 L8.7 1.0 M-7.8 2.3 L-7.95 2.3 -7.8 2.55 -7.55 1.95 Q-7.55 1.55 -8.05 1.55 L-8.15 1.55 -8.25 1.95 -8.0 2.3 -8.1 1.85 -7.75 1.9 -7.75 2.1 -7.8 2.3 M6.4 6.6 L6.3 6.3 6.2 6.3 6.15 6.55 6.2 6.7 6.4 6.6" fill="#fde0b5" fill-rule="evenodd" stroke="none"/>
    <path d="M6.7 -1.9 L7.3 -1.25 7.75 -0.75 7.4 -0.4 Q6.85 -0.4 6.75 -0.8 L6.6 -1.4 6.6 -1.9 6.7 -1.9 M7.55 -0.7 L7.05 -1.1 Q7.05 -0.65 7.4 -0.6 L7.55 -0.7 M-5.55 -2.25 L-5.6 -2.35 -5.5 -2.35 -5.5 -2.25 -5.55 -2.25 M-7.55 -0.45 L-7.8 -0.6 Q-7.8 -1.4 -6.8 -1.45 L-6.8 -1.2 Q-7.0 -0.3 -7.3 -0.3 L-7.55 -0.45 Q-7.1 -0.55 -7.1 -1.05 L-7.65 -0.6 -7.55 -0.45 M-5.5 -0.95 L-5.15 -1.5 -5.45 -1.0 -5.5 -0.95 M-5.75 -1.0 L-5.1 -1.95 -4.95 -1.35 Q-4.95 -1.1 -5.2 -0.75 L-5.7 -0.75 -5.75 -1.0 M-7.8 2.3 L-7.75 2.1 -7.75 1.9 -8.1 1.85 -8.0 2.3 -8.25 1.95 -8.15 1.55 -8.05 1.55 Q-7.55 1.55 -7.55 1.95 L-7.8 2.55 -7.95 2.3 -7.8 2.3 M8.7 1.0 L8.3 0.4 Q8.3 -0.1 8.65 -0.1 9.2 -0.1 9.2 0.45 9.2 1.0 8.7 1.0 M9.0 0.45 Q9.0 0.1 8.75 0.1 L8.5 0.15 8.5 0.5 8.75 0.75 9.0 0.45" fill="#a69e86" fill-rule="evenodd" stroke="none"/>
    <path d="M4.05 -14.3 L3.85 -14.1 2.3 -13.95 0.95 -13.75 -1.15 -13.15 Q-4.15 -12.15 -4.6 -11.75 L-8.45 -8.5 Q-10.9 -5.45 -11.0 -1.45 L-11.0 -0.45 -10.15 -1.0 Q-9.8 -1.05 -9.35 -0.5 -8.5 -0.4 -8.5 0.1 L-9.6 1.0 -9.75 1.85 -10.15 3.7 Q-10.15 4.85 -9.75 5.75 -9.25 6.8 -8.0 7.15 -6.85 7.35 -6.85 7.65 -6.85 8.35 -7.9 9.2 -7.9 10.2 -6.0 11.6 L-3.9 12.5 -1.75 13.1 1.75 13.55 3.65 13.35 6.05 13.2 7.35 12.75 7.65 13.0 7.65 13.05 6.45 13.7 Q3.5 15.1 0.0 15.1 -6.2 15.1 -10.65 10.65 -15.0 6.3 -15.0 0.1 -15.0 -4.55 -12.45 -8.25 L-10.65 -10.5 Q-6.75 -14.35 -1.45 -14.8 L-1.4 -14.75 -1.25 -14.8 0.0 -14.85 0.6 -14.85 3.2 -14.55 4.05 -14.3 M4.45 -0.2 L4.05 -0.55 4.1 -0.75 4.4 -0.9 4.7 -0.8 Q5.35 -0.8 5.7 -1.05 L6.05 -0.75 Q6.05 -0.45 5.65 -0.3 L5.65 -0.45 5.45 -0.45 5.45 -0.25 4.6 -0.2 4.45 -0.2 M-5.55 0.65 Q-6.3 0.55 -6.3 0.1 L-5.9 -0.15 -5.5 -0.2 -4.55 0.05 -4.4 0.4 Q-4.4 0.75 -4.95 0.75 L-5.0 0.75 Q-5.25 0.2 -5.5 0.2 L-5.8 0.3 -5.55 0.65" fill="#fccf8b" fill-rule="evenodd" stroke="none"/>
    <path d="M0.85 -7.25 L0.9 -7.25 1.15 -6.95 1.15 -6.6 1.05 -6.55 0.8 -7.2 0.85 -7.25 M2.5 -7.05 L2.55 -7.05 2.15 -5.9 2.05 -6.4 Q2.05 -7.1 2.5 -7.05 M3.3 -4.4 Q4.75 -4.1 5.3 -3.6 L7.45 -3.05 Q9.45 -2.55 9.45 -2.25 L9.35 -1.95 Q8.95 -2.25 9.15 -2.25 L5.05 -3.3 Q2.3 -4.35 2.3 -5.05 2.3 -5.25 2.45 -5.3 L2.6 -4.8 Q2.65 -4.5 3.3 -4.4 M1.3 -5.45 L1.55 -5.2 Q1.55 -3.4 -2.55 -3.4 L-4.45 -3.55 -6.9 -3.15 -7.85 -2.8 -7.9 -2.95 Q-7.9 -4.0 -4.45 -4.0 L-2.55 -3.8 Q0.05 -3.85 0.55 -4.5 L1.3 -5.45 M3.7 -2.75 L3.7 -2.65 3.6 -2.6 3.25 -2.8 3.25 -3.0 3.35 -3.0 3.7 -2.75 M5.65 -0.3 L5.9 0.45 5.9 0.65 5.7 0.75 5.6 0.4 5.4 -0.05 5.45 -0.25 5.45 -0.45 5.65 -0.45 5.65 -0.3 M-4.45 5.5 L-5.05 7.25 -5.1 7.25 Q-5.25 7.85 -5.7 8.1 L-5.75 7.9 Q-5.75 7.05 -5.25 6.55 -4.95 5.45 -4.95 4.55 L-5.1 2.45 -5.55 0.7 -5.55 0.65 -5.8 0.3 -5.5 0.2 Q-5.25 0.2 -5.0 0.75 L-4.95 0.95 -5.0 1.1 -4.75 2.25 -4.7 2.5 -4.4 4.6 -4.45 5.5 M-1.25 -3.0 Q-1.25 -2.7 -1.9 -2.7 L-2.2 -2.75 Q-2.0 -3.15 -1.3 -3.15 L-1.25 -3.0 M6.4 6.6 L6.2 6.7 6.15 6.55 6.2 6.3 6.3 6.3 6.4 6.6" fill="#865204" fill-rule="evenodd" stroke="none"/>
    <path d="M5.9 0.65 L6.55 1.55 Q7.0 2.0 7.0 3.75 7.0 8.05 -0.1 8.05 -2.6 8.05 -3.55 7.2 L-4.2 6.15 -4.45 5.5 -4.4 4.6 -4.7 2.5 -4.75 2.25 Q-4.0 -0.2 -0.8 -0.2 L-0.2 -0.1 2.25 -0.1 3.8 -0.3 4.45 -0.2 4.6 -0.2 Q5.1 -0.05 5.6 0.4 L5.7 0.75 5.9 0.65 M-1.65 0.4 Q-2.65 0.85 -3.2 1.65 L-2.4 0.6 Q-4.4 1.45 -4.4 3.8 L-3.75 5.95 Q-3.2 7.15 -2.4 7.45 L-0.1 7.55 Q6.6 7.55 6.6 3.7 6.6 2.75 6.1 1.8 4.75 0.1 3.6 0.1 L2.85 0.35 2.75 0.2 0.9 0.35 -0.4 0.3 -0.45 0.2 -1.65 0.4 M4.05 2.2 Q4.45 2.65 4.4 3.8 4.4 6.25 2.65 6.25 2.0 6.25 1.7 5.8 L1.45 5.25 1.05 5.25 0.65 5.45 -0.3 5.15 -0.6 4.75 -0.7 4.2 Q-0.7 2.75 0.5 2.45 L1.2 2.3 1.3 2.3 1.35 2.45 1.9 2.5 Q2.2 1.9 3.3 1.9 L3.8 2.0 4.05 2.2 M-3.7 3.1 L-3.75 3.9 -3.05 5.95 -3.05 6.0 -3.2 6.0 -3.85 3.95 -3.55 2.4 -3.65 2.85 -3.65 2.95 -3.7 3.1 M0.15 2.9 Q-0.35 3.0 -0.35 3.85 L-0.35 3.9 -0.4 4.15 Q-0.4 5.05 0.5 5.1 L1.45 4.95 2.65 5.95 Q3.9 5.95 4.1 3.8 4.1 2.25 3.15 2.3 L2.25 2.8 2.25 2.85 2.15 2.9 2.1 2.9 2.0 2.9 1.4 4.0 1.35 4.0 1.35 3.55 1.8 2.9 0.5 2.8 0.15 2.9" fill="#802202" fill-rule="evenodd" stroke="none"/>
    <path d="M-1.65 0.4 L-0.45 0.2 -0.4 0.3 0.9 0.35 2.75 0.2 2.85 0.35 3.6 0.1 Q4.75 0.1 6.1 1.8 6.6 2.75 6.6 3.7 6.6 7.55 -0.1 7.55 L-2.4 7.45 Q-3.2 7.15 -3.75 5.95 L-4.4 3.8 Q-4.4 1.45 -2.4 0.6 L-3.2 1.65 Q-2.65 0.85 -1.65 0.4 M-1.25 0.6 L-1.2 0.55 -1.4 0.5 Q-1.7 0.45 -2.15 0.9 L-2.7 1.4 -2.75 1.5 -2.8 1.5 -2.8 1.55 -3.25 2.0 -3.65 2.85 -3.55 2.4 -3.85 3.95 -3.2 6.0 -3.05 6.0 -3.05 5.95 -3.75 3.9 -3.7 3.1 -3.7 3.25 -3.3 4.75 -3.0 5.5 Q-3.0 6.2 -2.45 6.55 L-2.2 6.7 -1.2 6.85 -1.0 7.05 Q1.05 7.0 1.05 6.2 L1.05 6.15 1.05 6.05 1.0 5.95 Q0.85 5.45 0.05 5.45 L-0.05 5.45 -0.2 5.3 -0.3 5.15 0.65 5.45 1.05 5.25 1.45 5.25 1.7 5.8 Q2.0 6.25 2.65 6.25 4.4 6.25 4.4 3.8 4.45 2.65 4.05 2.2 L4.2 2.3 4.65 2.75 4.45 3.4 Q4.45 4.2 4.6 4.65 L4.05 5.75 Q4.05 6.1 4.35 6.1 L5.3 5.35 5.3 5.45 Q5.65 5.45 5.9 4.65 L6.0 4.55 6.0 4.35 6.15 3.4 Q6.15 2.6 5.55 1.7 4.6 0.45 2.75 0.5 L0.9 0.85 Q0.7 0.5 -0.35 0.55 L-1.25 0.6 M-3.4 3.3 L-3.4 3.55 -3.35 3.7 -3.4 4.1 -3.45 3.55 -3.4 3.3 M-3.35 4.3 L-3.1 4.8 -3.1 4.9 -2.95 5.15 -2.95 5.25 -3.35 4.3 M-0.6 4.75 L-0.8 4.55 -0.8 4.2 -0.85 3.85 -0.15 2.4 0.25 2.45 0.5 2.45 Q-0.7 2.75 -0.7 4.2 L-0.6 4.75 M1.2 2.3 L1.75 2.05 Q2.15 1.7 2.8 1.7 L3.8 2.0 3.3 1.9 Q2.2 1.9 1.9 2.5 L1.35 2.45 1.3 2.3 1.2 2.3 M-0.35 3.9 Q-0.3 4.25 0.15 4.25 0.95 4.25 0.95 3.45 1.0 2.85 0.35 2.85 L0.15 2.9 0.5 2.8 1.8 2.9 1.35 3.55 1.35 4.0 1.4 4.0 2.0 2.9 2.1 2.9 2.15 2.9 2.25 2.85 2.25 2.8 3.15 2.3 Q4.1 2.25 4.1 3.8 3.9 5.95 2.65 5.95 L1.45 4.95 0.5 5.1 Q-0.4 5.05 -0.4 4.15 L-0.35 3.9 M2.1 4.2 L2.15 4.75 Q2.3 5.25 2.9 5.25 3.8 5.25 3.8 3.75 4.0 2.8 3.2 2.8 2.1 2.8 2.1 4.2" fill="#ef3f03" fill-rule="evenodd" stroke="none"/>
    <path d="M-1.25 0.6 L-0.35 0.55 Q0.7 0.5 0.9 0.85 L2.75 0.5 Q4.6 0.45 5.55 1.7 6.15 2.6 6.15 3.4 L6.0 4.35 6.0 4.55 5.9 4.65 Q5.65 5.45 5.3 5.45 L5.3 5.35 4.35 6.1 Q4.05 6.1 4.05 5.75 L4.6 4.65 Q4.45 4.2 4.45 3.4 L4.65 2.75 4.2 2.3 4.05 2.2 3.8 2.0 2.8 1.7 Q2.15 1.7 1.75 2.05 L1.2 2.3 0.5 2.45 0.25 2.45 -0.15 2.4 -0.85 3.85 -0.8 4.2 -0.8 4.55 -0.6 4.75 -0.3 5.15 -0.2 5.3 -0.05 5.45 0.05 5.45 Q0.85 5.45 1.0 5.95 L1.05 6.05 1.05 6.15 1.05 6.2 Q1.05 7.0 -1.0 7.05 L-1.2 6.85 -2.2 6.7 -2.45 6.55 Q-3.0 6.2 -3.0 5.5 L-2.6 6.1 -2.55 5.9 -2.95 5.25 -2.95 5.15 -3.1 4.9 -3.1 4.8 -3.35 4.3 -3.4 4.1 -3.35 3.7 -3.4 3.55 -3.4 3.3 Q-3.3 2.65 -2.75 1.9 -1.65 1.15 -1.25 0.6 M-0.35 3.9 L-0.35 3.85 Q-0.35 3.0 0.15 2.9 L0.35 2.85 Q1.0 2.85 0.95 3.45 0.95 4.25 0.15 4.25 -0.3 4.25 -0.35 3.9 M2.1 4.2 Q2.1 2.8 3.2 2.8 4.0 2.8 3.8 3.75 3.8 5.25 2.9 5.25 2.3 5.25 2.15 4.75 L2.1 4.2 M3.0 4.25 Q3.45 4.25 3.45 3.75 L3.0 3.1 Q2.6 3.1 2.6 3.8 2.6 4.25 3.0 4.25" fill="#fd7040" fill-rule="evenodd" stroke="none"/>
    <path d="M-1.25 -14.8 L-1.4 -14.75 -1.45 -14.8 -1.85 -15.3 Q-2.0 -15.7 -2.7 -15.55 -3.45 -15.5 -3.75 -15.85 -4.65 -16.65 -4.65 -17.1 -4.65 -18.95 -2.65 -18.95 -1.4 -18.95 -1.4 -18.45 L-1.45 -18.05 -1.6 -18.05 Q-1.9 -18.7 -2.65 -18.65 -3.55 -18.7 -4.0 -17.85 L-4.3 -17.0 Q-4.3 -16.6 -3.25 -15.9 -2.85 -15.55 -2.15 -15.75 -1.6 -15.9 -1.35 -15.5 L-1.2 -15.05 -1.25 -14.8" fill="#000000" fill-rule="evenodd" stroke="none"/>
    <path d="M-3.65 2.85 L-3.25 2.0 -2.8 1.55 -2.8 1.5 -2.75 1.5 -2.7 1.4 -2.15 0.9 Q-1.7 0.45 -1.4 0.5 L-1.2 0.55 -1.25 0.6 Q-1.65 1.15 -2.75 1.9 -3.3 2.65 -3.4 3.3 L-3.45 3.55 -3.4 4.1 -3.35 4.3 -2.95 5.25 -2.55 5.9 -2.6 6.1 -3.0 5.5 -3.3 4.75 -3.7 3.25 -3.7 3.1 -3.65 2.95 -3.65 2.85 M3.0 4.25 Q2.6 4.25 2.6 3.8 2.6 3.1 3.0 3.1 L3.45 3.75 Q3.45 4.25 3.0 4.25" fill="#fea283" fill-rule="evenodd" stroke="none"/>
    <path d="M7.65 13.05 L10.6 10.65 12.9 7.8 13.05 7.5 13.2 7.25 Q15.0 4.05 15.0 0.1 15.0 -6.0 10.75 -10.35 L10.6 -10.5 Q7.75 -13.35 4.05 -14.3 L3.2 -14.55 0.6 -14.85 0.0 -14.85 -1.25 -14.8 M-1.45 -14.8 Q-6.75 -14.35 -10.65 -10.5 L-12.45 -8.25 Q-15.0 -4.55 -15.0 0.1 -15.0 6.3 -10.65 10.65 -6.2 15.1 0.0 15.1 3.5 15.1 6.45 13.7 L7.65 13.05 Z" fill="none" stroke="#865204" stroke-linecap="round" stroke-linejoin="round" stroke-width="0.5"/>
  </g>
</svg>
