<?xml version="1.0" encoding="UTF-8" standalone="no"?>
<svg xmlns:xlink="http://www.w3.org/1999/xlink" height="30.3px" width="44.55px" xmlns="http://www.w3.org/2000/svg">
  <g transform="matrix(1.0, 0.0, 0.0, 1.0, 26.9, 16.25)">
    <path d="M-10.8 -9.2 L-9.3 -10.65 Q-10.3 -11.15 -10.5 -12.45 -10.5 -16.25 -7.85 -16.25 -4.05 -16.25 -4.05 -13.95 L-4.05 -13.65 Q-1.25 -14.6 2.0 -14.6 6.3 -14.6 9.3 -13.15 8.3 -12.7 8.3 -10.95 8.3 -9.7 9.35 -9.35 L8.4 -9.4 8.1 -9.35 5.45 -9.65 5.3 -9.6 3.8 -9.9 3.6 -9.95 2.05 -10.05 1.85 -10.05 1.95 -10.85 Q1.95 -12.65 0.45 -12.65 -1.45 -12.65 -1.45 -10.75 L-1.25 -9.9 -1.2 -9.8 -1.6 -9.85 -2.05 -9.5 -2.35 -9.45 -2.15 -10.7 Q-2.35 -12.65 -4.45 -12.65 -6.65 -12.65 -6.65 -10.05 -6.65 -8.8 -6.15 -8.15 L-9.8 -6.4 -9.6 -7.7 Q-9.75 -9.0 -10.8 -9.2 M12.55 -10.9 Q13.25 -11.7 14.8 -11.7 17.65 -11.7 17.65 -8.7 17.65 -5.7 15.25 -5.5 L15.45 -3.6 Q16.2 -1.85 16.2 -0.2 L16.1 0.2 14.5 -4.65 Q13.75 -8.45 10.3 -9.2 L10.45 -9.2 Q12.3 -9.2 12.55 -10.9 M15.9 1.6 L15.9 1.9 15.95 2.55 15.7 3.45 Q14.9 4.1 14.35 5.4 13.45 7.3 12.6 8.1 L9.25 10.65 8.3 11.45 8.15 11.35 Q10.35 9.85 12.35 6.95 13.65 5.0 13.9 3.4 L14.4 1.6 Q14.4 0.55 13.85 -1.3 L15.1 1.95 Q15.65 1.95 15.9 1.6 M10.5 0.7 Q10.0 2.1 8.1 2.1 6.1 2.1 5.25 0.6 L4.8 -0.95 Q4.8 -3.55 6.85 -3.55 L8.1 -3.45 7.9 -2.05 Q7.9 -1.1 8.15 -0.6 8.75 0.55 10.5 0.7 M11.35 -4.75 Q10.2 -6.7 8.7 -7.9 10.6 -7.1 11.45 -4.7 L11.35 -4.75 M-4.5 -2.2 L-4.55 -2.25 -4.15 -2.55 -3.95 -2.05 -4.5 -2.2 M-4.75 -6.6 L-4.65 -6.9 -4.45 -7.05 -4.5 -7.25 -4.4 -7.55 Q-3.15 -7.6 -2.6 -8.85 L-1.75 -8.75 -1.25 -8.35 -1.75 -8.45 Q-2.75 -8.45 -2.75 -7.55 L-2.2 -6.4 Q-1.7 -5.6 -1.7 -4.65 -1.65 -2.85 -2.7 -2.85 L-3.7 -3.3 Q-3.45 -3.9 -3.45 -4.8 -3.55 -6.3 -4.75 -6.6 M-5.65 13.3 L-4.45 13.85 -4.45 13.95 -4.7 14.05 -6.8 13.55 -6.65 13.1 -7.2 12.35 Q-6.2 13.25 -5.65 13.3 M-9.65 11.75 L-10.55 10.95 Q-13.35 8.4 -13.85 7.05 -15.05 3.5 -15.35 1.05 -17.25 0.75 -17.4 -1.6 -17.4 -2.55 -16.85 -3.75 L-15.9 -5.05 -15.9 -4.65 Q-15.9 -2.55 -13.65 -2.55 -12.6 -2.55 -11.9 -3.65 -11.4 -4.5 -11.4 -5.0 L-11.6 -5.5 -11.4 -5.5 -10.65 -5.6 -11.2 -4.1 -11.2 -4.0 -11.2 -3.95 -11.2 -3.85 -11.45 -2.7 -11.5 -2.7 Q-13.2 -2.7 -13.15 2.9 -13.15 5.9 -11.8 8.3 L-9.65 11.75 M-12.95 -7.85 L-13.05 -7.85 Q-15.15 -7.85 -15.05 -9.65 -15.05 -12.05 -12.8 -12.05 -10.8 -12.05 -10.6 -10.3 -10.6 -9.85 -11.0 -9.25 L-11.4 -9.3 Q-12.8 -9.3 -12.95 -7.85 M-0.5 -7.85 Q0.75 -7.0 0.75 -5.9 L0.3 -3.95 0.3 -4.65 Q0.2 -6.95 -0.5 -7.85 M-25.85 -12.55 Q-25.85 -12.05 -26.3 -12.05 -26.95 -12.05 -26.9 -12.6 -26.9 -13.05 -26.4 -13.05 L-25.85 -12.55 M-10.65 -13.75 Q-10.65 -12.4 -12.05 -12.4 -13.15 -12.4 -13.05 -13.55 -13.05 -15.0 -12.0 -15.0 -10.75 -15.0 -10.65 -13.75" fill="#b0a895" fill-rule="evenodd" stroke="none"/>
    <path d="M9.3 -13.15 L10.2 -13.35 Q12.55 -13.35 12.55 -11.35 L12.55 -10.9 Q12.3 -9.2 10.45 -9.2 L10.3 -9.2 9.35 -9.35 Q8.3 -9.7 8.3 -10.95 8.3 -12.7 9.3 -13.15 M-4.55 -2.25 L-5.8 -2.0 Q-7.55 -2.0 -7.6 -4.05 L-7.05 -5.5 Q-6.35 -6.7 -5.5 -6.7 L-4.75 -6.6 Q-3.55 -6.3 -3.45 -4.8 -3.45 -3.9 -3.7 -3.3 L-3.8 -3.3 Q-4.2 -3.3 -4.2 -2.7 L-4.15 -2.55 -4.55 -2.25 M-15.9 -5.05 Q-15.75 -6.9 -13.7 -6.9 L-12.95 -6.8 Q-12.7 -5.6 -11.6 -5.5 L-11.4 -5.0 Q-11.4 -4.5 -11.9 -3.65 -12.6 -2.55 -13.65 -2.55 -15.9 -2.55 -15.9 -4.65 L-15.9 -5.05 M-6.15 -8.15 Q-6.65 -8.8 -6.65 -10.05 -6.65 -12.65 -4.45 -12.65 -2.35 -12.65 -2.15 -10.7 L-2.35 -9.45 -2.6 -8.85 Q-3.15 -7.6 -4.4 -7.55 L-4.5 -7.55 -4.65 -7.55 Q-5.1 -8.25 -6.0 -8.25 L-6.15 -8.15 M-1.2 -9.8 L-1.25 -9.9 -1.45 -10.75 Q-1.45 -12.65 0.45 -12.65 1.95 -12.65 1.95 -10.85 L1.85 -10.05 Q1.6 -9.35 0.95 -9.15 L0.85 -9.15 -1.2 -9.8 M3.6 -9.95 L3.8 -9.9 Q4.4 -9.8 4.85 -8.75 L4.8 -8.65 Q4.7 -7.65 4.3 -7.65 2.95 -7.65 2.95 -8.35 L3.05 -8.45 3.35 -8.5 Q4.15 -8.55 4.15 -9.15 4.15 -9.7 3.4 -9.8 L3.3 -9.9 3.25 -9.9 3.6 -9.95" fill="#c1bbac" fill-rule="evenodd" stroke="none"/>
    <path d="M13.9 3.4 Q13.0 6.25 12.55 6.25 L12.35 6.2 12.3 5.9 13.25 1.55 12.75 -0.15 Q13.3 -0.95 13.4 -2.35 12.7 -4.15 11.45 -4.7 10.6 -7.1 8.7 -7.9 L6.25 -8.35 Q5.6 -6.5 4.4 -6.5 1.9 -6.5 1.9 -8.25 L1.9 -8.3 1.0 -8.05 Q1.85 -6.75 1.85 -5.85 0.9 -0.85 -1.4 -0.85 -3.7 -0.85 -4.55 -2.1 L-4.55 -2.2 -4.5 -2.2 -3.95 -2.05 -3.8 -1.85 Q-3.25 -1.1 -2.35 -1.1 0.05 -1.1 0.3 -3.95 L0.75 -5.9 Q0.75 -7.0 -0.5 -7.85 -0.85 -8.25 -1.25 -8.35 L-1.75 -8.75 -2.1 -9.3 -2.05 -9.5 -1.6 -9.85 -1.2 -9.8 0.85 -9.15 0.95 -9.15 2.15 -9.35 Q2.45 -9.9 3.25 -9.9 L3.3 -9.9 3.4 -9.8 Q4.15 -9.7 4.15 -9.15 4.15 -8.55 3.35 -8.5 L3.05 -8.45 2.95 -8.35 Q2.95 -7.65 4.3 -7.65 4.7 -7.65 4.8 -8.65 L4.85 -8.75 Q4.95 -9.5 5.3 -9.6 L5.45 -9.65 8.1 -9.35 Q7.5 -9.3 7.5 -8.9 7.5 -8.4 9.15 -7.9 11.15 -7.3 11.8 -6.5 L13.0 -3.65 13.85 -1.3 Q14.4 0.55 14.4 1.6 L13.9 3.4 M-4.65 -6.9 L-4.7 -6.9 -5.6 -7.35 -9.5 -5.6 Q-10.05 -5.2 -10.4 -3.4 L-11.5 1.0 Q-11.5 4.7 -10.35 7.05 -8.95 9.9 -4.95 13.4 L-4.95 13.45 -5.6 13.3 -5.65 13.3 Q-6.2 13.25 -7.2 12.35 L-9.15 9.55 Q-11.65 5.85 -11.65 2.0 L-11.6 0.0 -10.9 -2.2 Q-10.9 -2.7 -11.45 -2.7 L-11.2 -3.85 -11.2 -3.95 -11.2 -4.0 -11.2 -4.1 -10.65 -5.6 Q-10.1 -5.85 -9.8 -6.4 L-6.15 -8.15 -6.0 -8.25 Q-5.1 -8.25 -4.65 -7.55 L-4.5 -7.25 -4.45 -7.05 -4.65 -6.9" fill="#9e947c" fill-rule="evenodd" stroke="none"/>
    <path d="M16.1 0.2 L16.15 0.55 15.9 1.6 Q15.65 1.95 15.1 1.95 L13.85 -1.3 13.0 -3.65 11.8 -6.5 Q11.15 -7.3 9.15 -7.9 7.5 -8.4 7.5 -8.9 7.5 -9.3 8.1 -9.35 L8.4 -9.4 9.35 -9.35 10.3 -9.2 Q13.75 -8.45 14.5 -4.65 L16.1 0.2 M-6.8 13.55 L-7.25 13.65 Q-8.2 13.65 -9.65 11.75 L-11.8 8.3 Q-13.15 5.9 -13.15 2.9 -13.2 -2.7 -11.5 -2.7 L-11.45 -2.7 Q-10.9 -2.7 -10.9 -2.2 L-11.6 0.0 -11.65 2.0 Q-11.65 5.85 -9.15 9.55 L-7.2 12.35 -6.65 13.1 -6.8 13.55 M-0.5 -7.85 Q0.2 -6.95 0.3 -4.65 L0.3 -3.95 Q0.05 -1.1 -2.35 -1.1 -3.25 -1.1 -3.8 -1.85 L-3.95 -2.05 -4.15 -2.55 -4.2 -2.7 Q-4.2 -3.3 -3.8 -3.3 L-3.7 -3.3 -2.7 -2.85 Q-1.65 -2.85 -1.7 -4.65 -1.7 -5.6 -2.2 -6.4 L-2.75 -7.55 Q-2.75 -8.45 -1.75 -8.45 L-1.25 -8.35 Q-0.85 -8.25 -0.5 -7.85" fill="#a79d87" fill-rule="evenodd" stroke="none"/>
    <path d="M12.75 -0.15 Q12.1 0.7 10.9 0.7 L10.5 0.7 Q8.75 0.55 8.15 -0.6 7.9 -1.1 7.9 -2.05 L8.1 -3.45 Q8.5 -5.0 10.1 -5.0 L11.35 -4.75 11.45 -4.7 Q12.7 -4.15 13.4 -2.35 13.3 -0.95 12.75 -0.15 M-12.95 -6.8 L-13.0 -7.45 -12.95 -7.85 Q-12.8 -9.3 -11.4 -9.3 L-11.0 -9.25 -10.8 -9.2 Q-9.75 -9.0 -9.6 -7.7 L-9.8 -6.4 Q-10.1 -5.85 -10.65 -5.6 L-11.4 -5.5 -11.6 -5.5 Q-12.7 -5.6 -12.95 -6.8" fill="#b6ae9c" fill-rule="evenodd" stroke="none"/>
  </g>
</svg>
