<?xml version="1.0" encoding="UTF-8" standalone="no"?>
<svg xmlns:xlink="http://www.w3.org/1999/xlink" height="26.55px" width="35.1px" xmlns="http://www.w3.org/2000/svg">
  <g transform="matrix(1.0, 0.0, 0.0, 1.0, 17.05, 16.15)">
    <path d="M12.4 -11.1 L13.5 -9.65 Q13.65 -11.15 15.2 -11.15 15.5 -11.5 16.15 -11.5 18.05 -11.5 18.05 -9.95 18.05 -9.0 17.7 -8.5 17.5 -6.8 15.5 -6.8 L14.9 -6.85 Q16.15 -3.6 16.15 0.55 16.3 3.05 15.8 3.5 L15.8 3.1 15.8 2.95 15.8 2.55 15.5 1.0 Q14.9 -2.35 14.15 -3.9 L12.35 -6.9 11.35 -8.65 Q10.7 -9.65 9.3 -10.35 L6.45 -11.7 Q8.3 -11.5 9.75 -10.75 L9.75 -10.7 Q10.0 -10.05 10.85 -10.05 L10.9 -10.05 Q12.05 -9.1 12.85 -7.65 13.95 -5.55 14.7 -2.95 L14.95 -3.6 14.25 -6.45 13.1 -9.2 11.9 -10.3 12.4 -11.1 M-11.35 -6.25 L-12.0 -5.35 -12.2 -5.05 -11.4 -6.25 -11.35 -6.25 M-13.2 6.85 L-10.65 10.4 Q-12.1 9.55 -13.1 8.35 L-12.85 8.45 -12.7 8.4 -13.2 6.85 M-13.6 7.75 Q-15.6 5.05 -15.6 0.95 L-15.55 -0.15 Q-16.95 -0.45 -17.05 -2.05 -16.8 -4.3 -15.2 -4.45 L-15.2 -4.1 Q-14.85 -2.8 -13.7 -2.8 L-13.2 -2.85 -13.65 -1.45 -14.15 -0.2 -14.5 -0.1 -14.6 0.95 -14.6 1.35 -14.85 3.1 Q-14.3 6.5 -13.6 7.75 M-13.85 -5.75 L-12.65 -8.0 Q-11.5 -9.95 -8.3 -12.1 L-8.4 -12.1 Q-10.1 -12.1 -10.1 -13.35 -10.3 -16.15 -7.95 -16.15 -6.3 -16.15 -6.3 -14.55 L-6.5 -13.15 Q-2.5 -15.4 1.8 -15.4 7.25 -15.4 10.7 -12.7 9.85 -12.6 9.7 -11.8 L9.4 -11.9 7.55 -12.45 7.6 -12.8 Q7.6 -13.85 1.15 -13.85 -3.7 -13.85 -8.8 -10.55 L-11.7 -8.4 -12.1 -8.0 Q-13.35 -6.75 -13.45 -5.65 L-13.85 -5.75 M-10.75 -7.95 Q-7.8 -10.55 -5.0 -11.65 L-7.85 -10.1 -10.65 -7.85 -10.75 -7.95 M7.45 -1.85 Q9.25 -1.85 9.25 -0.35 9.25 1.2 7.8 1.2 6.95 1.2 6.65 0.6 6.5 0.3 6.5 -0.1 6.5 -1.85 7.45 -1.85 M-11.4 -14.0 Q-11.4 -13.2 -11.8 -13.2 -12.35 -13.2 -12.6 -14.15 -12.6 -14.55 -12.05 -14.55 -11.4 -14.55 -11.4 -14.0 M-13.0 -11.95 Q-11.85 -11.95 -11.85 -10.95 -11.85 -9.05 -13.75 -9.05 -14.65 -9.05 -14.65 -10.0 -14.65 -11.95 -13.0 -11.95 M-11.95 -6.8 L-11.75 -6.5 -11.95 -6.1 -12.5 -4.75 Q-12.7 -5.35 -13.2 -5.55 L-11.95 -6.8 M-3.45 -2.6 L-3.25 -3.7 Q-3.1 -5.15 -4.45 -5.15 -4.4 -7.95 -2.3 -7.95 0.6 -7.95 0.5 -4.75 0.5 -2.25 -1.85 -2.25 -2.85 -2.25 -3.45 -2.6 M-2.0 -6.05 L-2.45 -5.3 -2.15 -4.8 Q-1.6 -5.05 -1.6 -5.6 -1.6 -6.05 -2.0 -6.05" fill="#b0a895" fill-rule="evenodd" stroke="none"/>
    <path d="M10.7 -12.7 L11.05 -12.75 Q12.45 -12.75 12.45 -11.75 L12.4 -11.1 11.9 -10.3 Q10.65 -11.4 9.7 -11.8 9.85 -12.6 10.7 -12.7 M1.05 -12.45 Q1.55 -12.1 1.7 -11.3 1.7 -9.95 0.35 -9.95 -0.45 -9.95 -0.85 -10.65 L-1.1 -11.35 -0.9 -12.25 0.4 -12.45 1.05 -12.45 M-4.0 -11.3 Q-2.9 -11.2 -2.9 -10.1 -2.9 -8.05 -4.9 -8.05 -5.8 -8.05 -6.15 -8.75 L-6.35 -9.5 -6.2 -10.25 -5.55 -10.6 -4.0 -11.3 M-12.45 -4.5 L-12.4 -3.95 -12.6 -3.15 -12.6 -3.65 -12.45 -4.5 M-15.2 -4.45 Q-15.15 -5.75 -14.1 -5.75 L-13.85 -5.75 -13.45 -5.65 -13.5 -5.45 -13.4 -5.35 -13.2 -5.55 Q-12.7 -5.35 -12.5 -4.75 L-13.2 -2.85 -13.7 -2.8 Q-14.85 -2.8 -15.2 -4.1 L-15.2 -4.45 M9.75 -10.75 L10.9 -10.05 10.85 -10.05 Q10.0 -10.05 9.75 -10.7 L9.75 -10.75 M4.85 -9.05 Q4.7 -7.95 4.0 -7.95 3.55 -7.95 3.35 -8.35 L3.25 -8.8 4.2 -9.85 Q4.8 -9.85 4.85 -9.05 M-3.45 -2.6 Q-3.8 -1.85 -4.75 -1.85 -5.7 -1.85 -6.0 -2.45 L-6.15 -3.1 -5.75 -4.2 Q-5.25 -5.15 -4.5 -5.15 L-4.45 -5.15 Q-3.1 -5.15 -3.25 -3.7 L-3.45 -2.6" fill="#c1bbac" fill-rule="evenodd" stroke="none"/>
    <path d="M6.45 -11.7 L5.2 -11.75 2.25 -12.4 6.5 -12.1 Q7.3 -12.1 7.55 -12.45 L9.4 -11.9 9.7 -11.8 Q10.65 -11.4 11.9 -10.3 L13.1 -9.2 14.25 -6.45 14.95 -3.6 14.7 -2.95 Q13.95 -5.55 12.85 -7.65 12.05 -9.1 10.9 -10.05 L9.75 -10.75 Q8.3 -11.5 6.45 -11.7 M-0.9 -12.25 L-4.0 -11.3 -5.55 -10.6 -6.2 -10.25 Q-9.0 -8.85 -10.3 -7.5 L-10.65 -7.85 -7.85 -10.1 -5.0 -11.65 Q-2.95 -12.5 -1.0 -12.5 L0.4 -12.45 -0.9 -12.25 M-12.2 -5.05 L-12.25 -4.95 -12.45 -4.5 -12.6 -3.65 -12.6 -3.15 -13.15 -1.35 -13.35 -0.85 -13.65 -0.15 -14.15 2.75 Q-14.15 3.65 -13.2 6.85 L-12.7 8.4 -12.85 8.45 -13.1 8.35 -13.6 7.75 Q-14.3 6.5 -14.85 3.1 L-14.6 1.35 -14.15 -0.2 -13.65 -1.45 -13.2 -2.85 -12.5 -4.75 -11.95 -6.1 -11.75 -6.5 -11.4 -6.25 -12.2 -5.05" fill="#9e947c" fill-rule="evenodd" stroke="none"/>
    <path d="M2.25 -12.4 L1.05 -12.45 0.4 -12.45 -1.0 -12.5 Q-2.95 -12.5 -5.0 -11.65 -7.8 -10.55 -10.75 -7.95 -11.25 -8.4 -11.6 -8.4 L-11.7 -8.4 -8.8 -10.55 Q-3.7 -13.85 1.15 -13.85 7.6 -13.85 7.6 -12.8 L7.55 -12.45 Q7.3 -12.1 6.5 -12.1 L2.25 -12.4 M-12.1 -8.0 L-12.15 -7.65 -11.95 -6.8 -13.2 -5.55 -13.4 -5.35 -13.5 -5.45 -13.45 -5.65 Q-13.35 -6.75 -12.1 -8.0" fill="#a79d87" fill-rule="evenodd" stroke="none"/>
    <path d="M-10.3 -7.5 L-10.15 -7.15 Q-10.15 -6.2 -11.05 -6.2 L-11.35 -6.25 -11.4 -6.25 -11.75 -6.5 -11.95 -6.8 -12.15 -7.65 -12.1 -8.0 -11.7 -8.4 -11.6 -8.4 Q-11.25 -8.4 -10.75 -7.95 L-10.65 -7.85 -10.3 -7.5 M9.1 -1.7 Q9.1 -3.45 10.65 -3.45 12.55 -3.45 12.5 -1.75 12.5 -0.05 11.0 -0.05 9.8 -0.05 9.35 -0.85 L9.1 -1.7" fill="#b6ae9c" fill-rule="evenodd" stroke="none"/>
  </g>
</svg>
