<?xml version="1.0" encoding="UTF-8" standalone="no"?>
<svg xmlns:xlink="http://www.w3.org/1999/xlink" height="32.0px" width="88.0px" xmlns="http://www.w3.org/2000/svg">
  <g transform="matrix(1.0, 0.0, 0.0, 1.0, 0.0, 0.0)">
    <path d="M88.0 0.0 L88.0 32.0 0.0 32.0 0.0 0.0 88.0 0.0" fill="#ffffff" fill-rule="evenodd" stroke="none"/>
    <path d="M87.05 1.05 L87.05 31.05 1.05 31.05 1.05 1.05 87.05 1.05" fill="#990000" fill-rule="evenodd" stroke="none"/>
    <path d="M60.8 18.1 L60.6 18.1 60.65 18.2 60.65 18.3 60.7 18.3 60.7 18.25 60.75 18.15 60.8 18.15 60.8 18.1 M61.15 18.2 L61.25 18.1 61.05 18.1 61.1 18.25 61.15 18.2 M60.95 18.35 L60.95 18.65 60.95 18.9 61.0 19.15 61.05 19.5 61.05 18.6 61.0 18.55 60.95 18.35 M61.6 18.05 L61.45 18.05 61.5 18.1 61.5 18.2 61.6 18.15 61.6 18.05 M62.0 17.75 L62.1 17.85 62.05 18.0 61.95 20.2 62.3 20.2 62.6 20.15 63.2 20.05 63.75 19.95 64.2 19.95 64.45 20.05 64.55 20.1 64.6 20.5 64.6 21.05 64.6 21.65 64.6 21.75 64.5 21.75 64.45 21.7 64.4 21.8 64.05 21.9 63.5 21.85 62.95 21.85 62.6 21.8 62.35 21.8 62.1 21.8 61.9 21.85 61.9 22.35 61.9 22.9 61.9 23.5 61.95 24.3 62.0 25.1 62.1 25.7 62.6 26.0 63.35 26.0 64.05 25.85 64.55 25.55 64.75 25.55 64.9 25.7 64.85 26.05 64.85 26.35 64.95 26.4 64.95 26.55 64.9 26.6 65.0 27.15 65.15 27.3 65.1 27.45 64.8 27.45 64.8 27.4 63.45 27.85 62.2 27.8 Q61.65 27.65 61.2 27.2 60.8 26.7 60.65 25.9 L60.45 25.2 60.35 24.45 60.35 23.9 60.3 23.25 60.35 22.6 60.35 22.05 60.25 22.05 60.0 22.05 59.8 22.0 59.5 22.05 59.15 22.05 59.15 22.15 59.05 22.15 59.0 22.15 58.9 22.05 58.8 22.05 58.75 21.95 58.75 21.9 58.7 21.4 58.7 20.9 58.65 20.55 58.7 20.25 Q58.75 20.15 58.85 20.15 L59.25 20.15 59.65 20.2 60.25 20.2 60.25 19.1 60.2 18.0 Q60.2 17.85 60.3 17.85 L60.45 17.85 61.2 17.9 62.0 17.75 M63.9 20.1 L63.85 20.15 63.95 20.1 63.9 20.1 M64.35 20.55 L64.35 20.45 64.2 20.5 64.25 20.5 64.35 20.55 M64.25 20.75 L63.45 20.8 62.7 20.85 62.85 20.85 63.0 20.85 63.45 20.85 63.75 20.8 64.0 20.8 64.25 20.75 M64.35 20.75 L64.35 20.65 64.3 20.75 64.35 20.75 M63.8 21.65 L63.95 21.65 64.15 21.6 63.8 21.55 63.7 21.55 63.55 21.55 63.15 21.6 63.5 21.65 63.8 21.65 M64.35 20.9 L64.3 20.95 64.25 21.0 64.35 21.1 64.3 21.25 63.5 21.25 62.7 21.25 62.65 21.35 63.45 21.35 64.2 21.3 64.3 21.4 64.3 21.5 64.4 21.5 64.4 21.35 64.4 21.2 64.4 21.1 64.35 20.9 M60.8 19.95 L60.8 20.2 60.95 20.2 60.8 19.65 60.8 19.95 M61.7 19.35 L61.65 19.05 61.65 19.35 61.65 19.55 61.7 19.75 61.7 20.05 61.75 19.4 61.7 19.4 61.7 19.35 M61.3 20.7 L61.5 20.65 61.3 20.65 61.3 20.7 M61.05 20.95 L60.8 20.95 60.55 20.95 60.55 21.0 60.8 21.0 61.1 20.95 61.05 20.95 M61.55 20.9 L61.25 20.95 61.55 20.95 61.55 20.9 M61.5 20.2 L61.45 19.7 61.35 20.2 61.5 20.2 M61.0 22.0 L60.95 22.45 61.0 22.75 61.05 22.6 61.1 22.3 61.2 22.0 61.0 22.0 M61.2 21.8 L61.1 21.8 61.1 21.85 61.2 21.8 M61.7 21.85 L61.6 22.7 61.65 23.7 61.75 24.7 61.9 25.5 61.85 24.75 61.75 23.7 61.7 22.7 61.7 21.85 M61.3 23.3 L61.25 22.7 61.25 23.35 61.25 24.0 61.3 24.6 61.4 25.05 61.45 25.2 61.4 24.65 61.35 23.95 61.3 23.3 M68.8 20.35 L68.95 20.65 68.95 21.05 68.95 21.45 68.95 21.75 68.95 22.9 68.95 24.1 69.0 25.35 69.05 26.45 69.35 26.4 69.65 26.45 69.8 26.35 70.0 26.45 70.1 27.05 70.2 27.65 70.15 27.75 69.1 27.9 68.0 27.95 67.3 28.0 66.85 27.9 66.8 27.9 66.6 27.7 66.55 27.45 66.55 27.35 66.55 27.25 66.45 26.85 66.45 26.5 66.6 26.4 66.7 26.45 67.15 26.35 67.3 26.3 67.45 26.3 67.45 25.9 67.4 25.75 67.4 25.55 67.4 25.05 67.35 24.85 67.35 24.5 67.35 23.9 67.35 23.2 67.35 22.5 67.25 22.05 67.25 21.55 67.1 21.65 67.05 21.65 66.9 21.6 66.8 21.55 66.7 21.55 66.7 21.45 66.65 21.35 66.65 21.2 66.65 20.95 66.6 20.65 66.65 20.6 66.6 20.4 66.45 20.25 Q66.45 20.15 66.6 20.15 L67.7 20.15 68.8 20.1 68.9 20.2 68.8 20.35 M68.4 20.35 L68.55 20.7 68.65 20.8 68.7 21.4 68.7 21.45 68.7 21.1 68.7 21.05 68.7 20.85 68.7 20.7 68.65 20.6 68.5 20.45 68.5 20.35 68.4 20.35 M68.35 21.5 L68.4 21.45 68.35 21.1 68.3 20.85 68.3 21.1 68.3 21.35 68.3 21.4 68.35 21.45 68.35 21.5 M66.75 19.4 L67.05 19.65 66.8 19.55 66.7 19.4 66.75 19.4 M67.05 20.8 L66.85 20.8 66.85 20.85 67.05 20.8 M66.85 21.15 L66.95 21.2 67.1 21.2 67.3 21.2 66.85 21.1 66.85 21.15 M67.85 22.15 L67.9 22.3 67.9 22.4 68.0 23.4 68.0 23.25 68.0 23.1 68.0 22.9 68.0 22.8 68.0 22.4 68.0 22.05 67.85 22.05 67.85 22.15 M68.75 22.55 L68.75 21.8 68.7 21.5 68.7 22.05 68.75 22.55 M68.65 24.0 L68.7 24.5 68.7 24.95 68.75 25.25 68.8 25.55 68.8 24.65 68.75 23.65 68.75 23.95 68.75 24.0 68.65 24.0 M68.35 23.5 L68.35 24.2 68.45 25.15 68.5 25.3 68.45 24.95 68.4 24.2 68.35 23.5 M41.1 18.35 L41.3 18.35 41.4 18.15 41.55 18.25 41.55 18.35 41.75 18.3 42.0 18.25 42.35 18.15 42.6 18.1 42.75 18.35 42.6 18.45 42.45 18.6 42.5 19.0 42.55 19.35 42.55 19.7 42.5 20.0 42.5 20.45 42.5 20.9 42.45 21.3 42.65 21.1 42.8 20.95 43.25 20.65 43.8 20.35 44.35 20.2 44.85 20.15 45.2 20.2 45.5 20.2 45.45 20.25 46.05 20.35 46.65 20.6 47.35 21.15 47.8 21.95 48.2 22.7 48.25 23.45 48.25 23.9 48.2 24.45 48.15 25.0 48.1 25.4 48.05 25.55 47.8 26.25 47.4 26.95 46.8 27.35 46.05 27.6 45.25 27.8 44.35 27.9 43.55 27.8 42.8 27.5 42.85 27.65 42.85 27.85 42.75 27.95 42.6 27.9 42.45 27.85 42.25 27.8 41.95 27.9 41.75 27.95 41.35 28.1 41.2 27.95 41.1 27.95 41.1 27.9 41.1 26.8 41.1 25.65 41.1 24.5 41.1 23.45 41.1 21.6 41.05 21.15 41.05 20.7 41.05 20.5 41.1 20.35 41.1 19.85 41.05 19.45 41.05 19.1 41.0 18.55 41.0 18.45 41.1 18.35 M42.15 18.55 L42.1 18.75 42.05 18.85 42.05 19.0 42.05 19.2 42.1 19.35 42.1 19.25 42.1 19.15 42.15 19.0 42.15 18.7 42.25 18.55 42.25 18.5 42.35 18.35 42.1 18.4 42.15 18.55 M41.7 18.55 L41.75 18.65 41.8 18.6 41.8 18.55 41.7 18.55 M43.85 21.1 L44.45 20.95 45.05 20.95 45.25 20.9 45.4 20.85 45.3 20.75 44.95 20.8 44.55 20.85 44.15 20.95 43.85 21.1 M43.15 21.55 L43.05 21.6 43.0 21.65 42.95 21.7 42.8 22.05 43.0 21.8 43.25 21.6 43.25 21.55 43.25 21.5 43.15 21.55 M41.7 19.75 L41.65 20.35 41.6 20.95 41.7 21.65 41.75 19.05 41.7 19.75 M41.35 21.35 L41.35 21.55 41.4 21.65 41.35 21.35 M42.55 22.35 L42.45 22.55 42.45 22.7 42.6 22.45 42.75 22.15 42.8 22.05 42.55 22.35 M41.9 21.85 L41.85 20.5 41.85 21.9 41.9 21.85 M42.0 22.8 L42.0 23.55 42.05 24.3 42.1 24.3 42.05 22.8 42.0 22.8 M42.95 22.95 L43.05 22.85 43.2 22.65 43.45 22.45 43.05 22.65 42.95 22.65 42.85 22.7 42.8 22.9 42.95 22.95 M41.45 22.3 L41.5 22.15 41.4 21.75 41.45 23.0 41.45 22.8 41.45 22.3 M42.45 23.45 L42.6 23.0 42.45 23.25 42.45 23.45 M42.8 24.25 L42.8 24.6 42.8 24.95 42.8 25.2 43.15 25.8 43.8 26.1 44.75 26.2 45.65 26.1 46.25 25.85 46.3 25.85 46.7 25.4 46.75 24.6 46.6 23.7 46.35 22.85 46.0 22.15 45.8 22.0 45.2 21.85 44.6 21.9 44.2 22.0 44.05 22.15 43.8 22.3 43.4 22.8 43.15 23.15 Q43.0 23.35 43.0 23.6 L42.85 24.0 42.8 24.25 M42.55 24.35 L42.55 24.05 42.5 24.05 42.55 24.35 M50.25 21.2 L50.9 20.65 51.45 20.3 Q51.8 20.1 52.1 20.05 L52.5 20.05 52.9 20.0 53.35 20.0 53.75 20.05 54.8 20.35 55.85 20.85 56.5 21.65 57.0 22.9 57.3 24.25 57.4 25.4 57.4 25.6 57.4 25.8 57.4 26.15 57.4 26.6 57.4 27.05 57.4 27.5 57.45 27.55 57.6 27.55 57.75 27.7 57.8 27.85 57.75 27.9 57.7 28.0 57.25 27.95 56.7 27.9 56.15 27.85 55.75 27.85 55.85 27.2 55.9 26.6 55.45 26.9 55.1 27.1 54.05 27.6 52.9 27.8 Q52.2 27.8 51.45 27.4 L50.5 26.75 50.0 25.7 Q49.9 25.15 50.05 24.55 50.2 24.0 50.7 23.55 51.1 23.2 51.6 23.0 L52.7 22.75 53.9 22.75 54.95 22.9 55.05 22.9 55.2 23.0 55.3 23.0 55.05 22.5 54.75 22.0 54.35 21.65 Q54.15 21.5 53.8 21.5 L53.1 21.55 52.45 21.8 51.75 22.15 51.15 22.55 51.05 22.7 50.95 22.9 50.85 23.0 50.65 23.05 50.4 22.95 50.25 22.75 50.05 22.5 49.85 22.2 49.65 21.9 49.55 21.8 49.65 21.65 50.25 21.2 M50.05 21.65 L50.8 21.25 50.7 21.2 50.75 21.1 50.45 21.4 50.25 21.5 50.05 21.65 M46.35 20.8 L46.6 21.0 46.9 21.2 46.7 20.95 46.6 20.9 46.5 20.85 46.35 20.8 M45.85 20.55 L45.8 20.55 45.9 20.6 46.0 20.65 46.0 20.6 45.9 20.6 45.85 20.55 M45.95 21.4 L45.55 21.35 45.8 21.45 46.05 21.55 46.0 21.45 45.95 21.4 M46.7 21.65 L47.05 22.05 46.9 21.8 46.7 21.55 46.7 21.65 M46.1 21.8 L46.05 21.75 45.8 21.65 46.0 21.8 46.1 21.8 M50.25 22.15 L50.3 22.25 50.55 22.05 50.75 21.95 50.9 21.8 50.65 22.0 50.35 22.15 50.25 22.15 M50.5 22.6 L50.9 22.35 51.2 22.05 50.8 22.3 50.45 22.45 50.5 22.6 M54.25 20.5 L54.35 20.55 54.45 20.65 54.7 20.7 55.0 20.75 54.6 20.55 54.15 20.45 54.25 20.5 M53.75 20.55 L53.9 20.55 53.7 20.45 53.6 20.45 53.3 20.5 53.05 20.5 53.15 20.65 53.15 20.7 53.25 20.6 53.6 20.6 53.65 20.55 53.75 20.55 M53.2 21.3 L52.9 21.4 52.6 21.45 52.45 21.4 51.95 21.7 51.55 22.05 51.8 21.95 52.45 21.6 53.2 21.35 53.2 21.3 M54.35 21.45 L54.5 21.55 54.75 21.7 54.75 21.6 54.65 21.55 54.55 21.45 54.5 21.35 54.3 21.35 54.1 21.35 54.25 21.4 54.35 21.45 M50.85 21.05 L50.95 20.95 51.0 20.9 50.85 21.05 M51.1 20.8 L51.05 20.85 51.15 20.8 51.25 20.75 51.15 20.8 51.1 20.8 M52.85 20.8 L52.9 20.8 52.9 20.75 52.8 20.75 52.8 20.85 52.85 20.8 M51.95 20.3 L52.0 20.35 52.1 20.3 51.95 20.3 M51.65 23.65 L51.5 23.7 51.35 23.75 50.95 24.1 50.65 24.4 50.4 24.8 50.3 25.25 50.35 25.25 50.45 24.95 50.6 24.6 50.85 24.25 50.95 24.2 51.05 24.1 51.35 23.85 51.65 23.65 M52.4 23.95 L52.35 24.0 53.05 23.75 53.9 23.55 54.65 23.55 Q55.0 23.6 55.2 23.8 L55.35 23.85 55.55 23.9 55.65 23.95 55.7 23.95 55.55 23.6 55.4 23.6 55.25 23.55 55.2 23.6 55.05 23.55 54.45 23.5 53.8 23.45 52.45 23.85 52.4 23.9 52.4 23.95 M52.05 24.45 L51.9 24.55 51.75 24.75 51.65 25.0 51.65 25.15 51.8 24.95 52.4 24.5 53.05 24.3 53.75 24.15 54.5 24.1 54.65 24.1 55.0 24.05 54.85 24.05 54.7 24.0 53.5 24.1 52.65 24.3 52.55 24.35 52.3 24.4 52.05 24.45 M52.1 24.0 L52.2 24.1 52.25 24.05 52.15 24.0 52.1 24.0 M52.45 24.65 L51.9 25.05 51.8 25.45 51.95 25.8 52.2 26.0 52.45 26.1 52.6 26.15 52.65 26.15 53.2 26.1 53.75 25.9 54.3 25.6 54.85 25.25 55.3 24.6 Q55.25 24.35 54.5 24.35 L53.85 24.35 53.1 24.45 52.45 24.65 M54.9 21.75 L54.8 21.75 54.95 21.95 54.95 21.9 55.0 21.85 54.9 21.75 M55.55 23.15 L55.4 22.75 55.2 22.4 55.5 23.1 55.55 23.15 M59.45 20.85 L59.9 20.85 59.55 20.8 59.1 20.8 59.45 20.85 M58.95 20.55 L59.3 20.55 59.55 20.55 59.8 20.55 60.1 20.5 59.95 20.5 59.9 20.5 59.85 20.45 59.7 20.45 58.95 20.45 58.95 20.55 M59.35 21.6 L59.35 21.65 59.2 21.65 59.2 21.75 59.25 21.75 59.35 21.65 59.55 21.6 59.35 21.6 M59.15 21.4 L59.4 21.35 59.25 21.35 59.1 21.35 59.15 21.4 M60.15 21.0 L60.3 21.0 60.3 20.95 60.15 21.0 M56.35 23.65 L56.45 24.1 56.5 24.0 56.4 23.7 56.35 23.45 56.3 23.45 56.3 23.5 56.3 23.6 56.35 23.65 M59.0 21.8 L58.95 21.75 58.95 21.8 59.0 21.8 M60.6 24.4 L60.65 24.6 60.7 24.75 60.75 24.75 60.7 24.3 60.65 23.75 60.65 23.25 60.65 23.15 60.6 23.6 60.6 24.05 60.6 24.4 M56.55 25.55 L56.65 26.4 56.6 25.55 56.55 24.75 56.55 25.55 M55.8 24.75 L55.4 25.1 54.95 25.4 54.5 25.7 53.95 26.0 54.8 25.65 55.4 25.2 55.45 25.15 55.5 25.15 55.8 24.85 55.8 24.75 M56.95 26.95 L56.95 26.8 56.9 26.7 56.9 26.85 56.85 27.0 56.9 27.1 56.9 27.15 56.95 27.05 56.9 27.05 56.9 27.0 56.95 26.95 M56.05 27.65 L56.15 27.65 56.15 27.5 56.05 27.5 56.05 27.65 M56.95 27.7 L57.05 27.75 57.2 27.75 57.2 27.7 57.15 27.65 57.1 27.55 57.1 27.5 56.9 27.55 56.95 27.7 M56.6 27.65 L56.5 27.6 56.45 27.45 56.45 27.65 56.6 27.65 M54.55 26.1 L54.35 26.15 54.35 26.25 55.1 25.85 54.9 25.95 54.7 26.0 54.55 26.1 M53.65 26.15 L53.65 26.1 53.45 26.15 53.65 26.15 M53.3 26.55 L53.05 26.55 52.85 26.55 52.65 26.55 52.55 26.45 52.5 26.45 52.4 26.45 52.35 26.5 53.55 26.6 53.55 26.55 53.3 26.55 M53.7 26.95 L53.2 27.1 52.75 27.15 53.2 27.15 53.75 27.1 53.7 27.05 53.7 26.95 M50.95 24.95 L50.95 25.45 51.1 25.95 51.15 25.9 51.1 25.6 51.1 25.35 51.1 25.3 51.05 24.85 51.0 24.95 50.95 24.95 M51.7 26.25 L51.85 26.35 51.8 26.25 51.7 26.2 51.7 26.25 M51.55 26.1 L51.6 26.1 51.6 26.0 51.55 25.9 51.55 26.1 M51.5 26.65 L51.6 26.8 52.65 26.9 Q52.0 26.8 51.55 26.5 L51.5 26.65 M51.3 26.85 L51.25 26.7 51.25 26.6 51.05 26.4 51.0 26.55 50.9 26.55 51.25 26.9 51.45 27.05 51.3 26.85 M51.65 27.1 L51.45 27.05 51.65 27.15 51.65 27.1 M50.65 26.15 L50.6 26.05 50.6 26.0 50.55 26.0 50.55 26.05 50.5 26.15 50.6 26.25 50.7 26.35 50.65 26.15 M47.6 25.25 L47.55 25.35 47.65 25.25 47.7 25.25 47.65 25.2 47.6 25.25 M47.2 26.1 L47.3 26.0 47.4 25.95 47.45 25.85 47.5 25.8 47.6 25.7 47.65 25.6 47.15 26.0 46.75 26.5 46.9 26.4 47.0 26.3 47.1 26.2 47.2 26.1 M47.05 25.55 L46.95 25.7 47.05 25.6 47.05 25.55 M47.5 26.25 L47.45 26.3 47.4 26.35 47.45 26.4 47.55 26.25 47.5 26.25 M46.55 26.15 L46.9 25.8 46.65 26.0 46.55 26.15 M45.75 26.65 L45.6 26.75 45.7 26.8 45.85 26.65 45.9 26.55 45.75 26.65 M45.6 27.45 L45.65 27.55 45.8 27.55 45.95 27.5 45.9 27.4 45.6 27.45 M46.65 27.2 L46.95 27.05 47.15 26.8 47.35 26.6 47.0 26.85 46.65 27.0 46.65 27.2 M44.05 27.25 L44.35 27.25 44.6 27.25 44.2 27.2 43.75 27.2 43.3 27.15 42.95 27.1 43.15 27.2 43.4 27.25 43.75 27.25 44.0 27.3 44.05 27.25 M43.25 26.75 L42.9 26.45 42.65 26.1 42.7 26.25 42.8 26.4 42.95 26.55 43.1 26.65 43.25 26.75 M44.85 26.5 L45.2 26.45 44.5 26.35 43.9 26.25 44.2 26.4 44.55 26.55 44.85 26.5 M44.8 27.0 L44.95 27.0 44.75 26.95 44.65 26.95 44.8 27.0 M42.6 25.2 L42.65 25.2 42.6 25.05 42.6 25.15 42.6 25.2 M42.0 25.05 L42.0 25.45 42.05 25.8 42.1 25.95 42.15 26.4 42.1 25.1 42.0 25.05 M42.4 26.2 L42.4 26.5 42.45 26.0 42.45 25.55 42.4 25.45 42.4 25.75 42.4 26.2 M41.65 27.8 L41.65 27.85 41.85 27.75 41.75 27.1 41.75 27.5 41.65 27.8 M42.5 26.95 L42.5 26.9 42.5 26.8 42.5 26.65 42.4 26.5 42.4 26.85 42.5 26.95 M41.9 27.05 L41.95 27.55 42.0 27.55 41.95 27.1 41.85 26.6 41.8 26.55 41.9 27.05 M42.5 27.6 L42.5 27.4 42.45 27.55 42.5 27.6 M42.45 27.15 L42.45 27.3 42.5 27.4 42.5 27.2 42.45 27.15 M41.45 27.85 L41.45 27.9 41.5 27.9 41.5 27.85 41.45 27.85 M68.6 26.3 L68.5 26.6 68.65 26.55 68.6 26.3 M68.5 27.0 L68.5 26.9 68.45 26.9 68.45 26.85 68.25 26.85 68.25 26.95 68.35 27.0 68.5 27.0 M68.75 27.4 L69.0 27.35 69.25 27.35 69.1 27.25 69.15 27.15 68.75 27.15 68.75 27.4 M69.3 27.75 L69.35 27.75 69.6 27.7 69.7 27.65 69.85 27.6 70.0 27.6 69.95 27.5 69.9 27.55 69.5 27.65 69.4 27.7 69.3 27.75 M66.85 27.05 L66.9 27.05 67.05 27.0 67.05 26.95 66.85 26.95 66.85 27.05 66.85 27.35 66.9 27.65 67.1 27.65 67.0 27.6 67.0 27.5 67.1 27.3 67.0 27.3 66.9 27.3 66.85 27.05 M67.95 26.5 L67.9 26.5 67.9 26.55 67.95 26.55 67.95 26.5 M68.25 26.6 L68.4 26.6 68.25 26.55 68.25 26.6 M67.8 27.75 L67.45 27.85 67.85 27.85 68.25 27.85 68.0 27.8 67.8 27.75 M63.95 26.7 L63.7 26.8 64.15 26.65 63.95 26.7 M63.3 26.55 L63.5 26.5 63.7 26.4 63.5 26.4 63.3 26.4 63.3 26.55 M63.4 27.4 L63.9 27.3 64.4 27.2 64.4 27.15 64.3 27.2 64.2 27.15 63.75 27.3 63.4 27.4 M64.6 26.5 L64.7 26.45 64.65 26.35 64.6 26.35 64.6 26.5 M64.65 26.85 L64.7 27.0 64.7 27.05 64.8 27.05 64.75 26.7 64.65 26.75 64.65 26.85 M61.15 25.3 L61.05 25.05 61.1 25.25 61.15 25.45 61.2 25.55 61.3 25.65 61.25 25.5 61.15 25.3 M60.85 25.7 L60.8 25.6 60.8 25.65 60.85 25.7 60.95 26.1 61.15 26.4 61.2 26.3 61.0 26.05 60.85 25.7 M61.55 27.15 L61.6 27.15 61.7 27.2 61.2 26.7 61.4 27.1 61.55 27.15 M61.45 26.55 L61.7 26.85 62.05 27.05 61.95 26.85 61.45 26.55 M63.15 26.6 L62.7 26.45 62.3 26.3 62.4 26.45 62.5 26.55 62.7 26.6 62.95 26.7 63.05 26.6 63.15 26.6 M62.1 26.6 L62.15 26.7 62.3 26.75 62.4 26.8 62.4 26.7 62.25 26.65 62.1 26.6 M62.1 26.35 L62.2 26.35 62.05 26.1 62.0 26.1 62.05 26.3 62.1 26.35 M62.25 27.0 L62.2 27.1 62.25 27.15 Q62.3 27.05 62.4 27.1 L62.45 27.2 62.7 27.25 62.6 27.1 62.45 27.05 62.25 27.0 M62.8 27.2 L62.7 27.25 62.8 27.25 62.95 27.3 62.95 27.2 62.8 27.2 M25.8 18.35 L25.75 18.35 25.75 18.5 25.75 18.8 25.75 18.95 25.8 19.05 25.95 19.05 25.9 18.95 25.9 18.65 26.1 18.6 25.95 18.5 25.8 18.4 25.8 18.35 M25.5 18.05 L25.6 17.95 26.1 17.85 26.6 17.9 26.75 17.9 26.8 17.9 26.9 17.95 27.3 17.95 27.7 17.9 27.9 17.9 27.9 17.95 28.0 17.95 28.05 18.0 28.05 18.05 28.1 18.1 28.1 18.15 28.1 18.65 28.1 19.3 28.05 20.55 28.1 21.35 28.15 21.95 28.2 22.45 28.25 23.05 28.25 24.05 28.25 24.55 28.25 24.95 28.25 25.35 28.25 25.85 28.25 26.05 28.2 26.2 28.6 26.15 28.95 26.15 29.1 26.3 29.1 26.4 29.05 27.15 29.1 27.8 28.95 28.0 28.75 27.95 28.5 27.95 27.6 28.0 26.7 28.0 26.6 27.9 26.6 27.7 26.6 25.5 26.5 23.35 26.45 21.25 26.35 19.35 26.25 19.35 26.05 19.35 25.8 19.4 25.7 19.4 25.65 19.25 25.45 18.95 25.45 18.5 25.5 18.25 25.5 18.05 M26.4 18.4 L26.6 18.45 26.6 18.4 26.5 18.4 26.4 18.4 26.4 18.35 26.35 18.35 26.2 18.35 26.4 18.4 M27.8 18.2 L27.65 18.2 27.7 18.35 27.75 18.4 27.8 18.45 27.8 18.2 M23.55 21.65 L24.05 22.9 24.35 24.25 24.45 25.4 24.45 25.6 24.45 25.8 24.45 26.15 24.45 26.6 24.45 27.05 24.45 27.5 24.5 27.55 24.65 27.55 24.8 27.7 24.85 27.85 24.8 27.9 24.75 28.0 24.3 27.95 23.75 27.9 23.2 27.85 22.8 27.85 22.9 27.2 22.95 26.6 22.5 26.9 22.15 27.1 21.1 27.6 19.95 27.8 Q19.25 27.8 18.5 27.4 L17.55 26.75 17.05 25.7 Q16.95 25.15 17.1 24.55 17.25 24.0 17.75 23.55 18.15 23.2 18.65 23.0 L19.75 22.75 20.95 22.75 22.0 22.9 22.1 22.9 22.25 23.0 22.35 23.0 22.1 22.5 21.8 22.0 21.4 21.65 20.85 21.5 20.15 21.55 19.5 21.8 18.8 22.15 18.2 22.55 18.1 22.7 18.0 22.9 17.9 23.0 17.7 23.05 17.45 22.95 17.3 22.75 17.1 22.5 16.9 22.2 16.7 21.9 16.6 21.8 16.7 21.65 17.3 21.2 17.95 20.65 18.5 20.3 Q18.85 20.1 19.15 20.05 L19.55 20.05 19.95 20.0 20.4 20.0 20.8 20.05 21.85 20.35 22.9 20.85 23.55 21.65 M21.3 20.5 L21.4 20.55 21.5 20.65 21.75 20.7 22.05 20.75 21.65 20.55 21.2 20.45 21.3 20.5 M20.8 20.55 L20.95 20.55 20.75 20.45 20.65 20.45 20.35 20.5 20.1 20.5 20.2 20.65 20.2 20.7 20.3 20.6 20.65 20.6 20.7 20.55 20.8 20.55 M20.25 21.3 L19.95 21.4 19.65 21.45 19.5 21.4 Q19.2 21.5 19.0 21.7 L18.6 22.05 18.85 21.95 19.5 21.6 20.25 21.35 20.25 21.3 M21.4 21.45 L21.55 21.55 21.8 21.7 21.8 21.6 21.7 21.55 21.6 21.45 21.55 21.35 21.35 21.35 21.15 21.35 21.3 21.4 21.4 21.45 M21.95 21.75 L21.85 21.75 22.0 21.95 22.0 21.9 22.05 21.85 21.95 21.75 M22.6 23.15 L22.45 22.75 22.25 22.4 22.55 23.1 22.6 23.15 M20.85 23.45 L19.5 23.85 19.45 23.9 19.45 23.95 19.4 24.0 20.1 23.75 20.95 23.55 21.7 23.55 Q22.05 23.6 22.25 23.8 L22.4 23.85 22.6 23.9 22.7 23.95 22.75 23.95 22.6 23.6 22.45 23.6 22.3 23.55 22.25 23.6 22.1 23.55 21.5 23.5 20.85 23.45 M21.7 24.1 L22.05 24.05 21.9 24.05 21.75 24.0 20.55 24.1 19.7 24.3 19.6 24.35 19.35 24.4 19.1 24.45 18.95 24.55 18.8 24.75 18.7 25.0 18.7 25.15 18.85 24.95 Q19.1 24.7 19.45 24.5 L20.1 24.3 20.8 24.15 21.55 24.1 21.7 24.1 M21.55 24.35 L20.9 24.35 20.15 24.45 19.5 24.65 18.95 25.05 18.85 25.45 19.0 25.8 19.25 26.0 19.5 26.1 19.65 26.15 19.7 26.15 20.25 26.1 20.8 25.9 21.35 25.6 21.9 25.25 22.35 24.6 Q22.3 24.35 21.55 24.35 M23.45 23.7 L23.4 23.45 23.35 23.45 23.35 23.5 23.35 23.6 23.4 23.65 23.5 24.1 23.55 24.0 23.45 23.7 M27.55 18.9 L27.65 18.9 27.6 18.65 27.35 18.55 27.35 18.7 27.45 18.65 27.5 18.75 27.55 18.9 M27.3 20.55 L27.3 20.25 27.25 20.1 27.25 20.2 27.3 20.55 M27.3 20.65 L27.2 22.25 27.3 22.3 27.35 21.85 27.35 21.6 27.35 21.35 27.35 20.95 27.35 20.85 27.3 20.65 M26.9 20.85 L26.85 21.6 26.85 21.85 26.85 22.05 26.9 22.1 26.95 21.1 26.95 20.15 26.9 20.85 M27.7 21.1 L27.7 22.05 27.55 22.9 27.55 23.35 27.45 23.75 27.4 24.65 27.4 24.75 27.45 24.5 27.5 24.2 27.5 23.9 27.55 23.6 27.6 22.95 27.7 22.25 27.75 21.3 27.7 21.1 M26.9 22.85 L26.9 23.4 26.95 22.95 26.9 22.85 M27.15 24.2 L27.1 25.4 27.15 26.6 27.2 26.6 27.2 26.3 27.2 25.25 27.2 24.2 27.15 24.2 M32.4 18.3 Q32.7 18.4 32.8 18.75 32.9 19.1 32.65 19.3 L32.05 19.6 31.35 19.7 30.8 19.55 30.7 19.15 30.6 18.95 30.7 18.65 Q30.85 18.45 31.15 18.3 L31.8 18.15 32.4 18.3 M32.4 18.55 L32.5 18.55 32.45 18.5 32.4 18.55 M32.95 21.45 L32.95 21.75 32.95 22.9 32.95 24.1 33.0 25.35 33.05 26.45 33.35 26.4 33.65 26.45 33.8 26.35 34.0 26.45 34.1 27.05 34.2 27.65 34.15 27.75 33.1 27.9 32.0 27.95 31.3 28.0 30.85 27.9 30.8 27.9 30.6 27.7 30.55 27.45 30.55 27.35 30.55 27.25 30.45 26.85 30.45 26.5 30.6 26.4 30.7 26.45 31.15 26.35 31.3 26.3 31.45 26.3 31.45 25.9 31.4 25.75 31.4 25.55 31.4 25.05 31.35 24.85 31.35 24.5 31.35 23.9 31.35 23.2 31.35 22.5 31.25 22.05 31.25 21.55 31.1 21.65 31.05 21.65 30.9 21.6 30.8 21.55 30.7 21.55 30.7 21.45 30.65 21.35 30.65 21.2 30.65 20.95 30.6 20.65 30.65 20.6 30.6 20.4 30.45 20.25 Q30.45 20.15 30.6 20.15 L31.7 20.15 32.8 20.1 32.9 20.2 32.8 20.35 32.95 20.65 32.95 21.05 32.95 21.45 M32.65 18.8 L32.5 18.95 32.55 19.0 32.55 19.05 32.5 19.15 32.25 19.35 31.85 19.35 31.6 19.35 31.35 19.4 31.15 19.35 30.9 19.35 30.9 19.4 31.4 19.5 32.0 19.45 32.5 19.25 32.65 18.8 M31.6 18.95 L31.6 18.9 31.5 18.95 31.6 18.95 M30.85 20.85 L31.05 20.8 30.85 20.8 30.85 20.85 M30.95 21.2 L31.1 21.2 31.3 21.2 30.85 21.1 30.85 21.15 30.95 21.2 M32.4 20.35 L32.55 20.7 32.65 20.8 32.7 21.4 32.7 21.45 32.7 21.1 32.7 21.05 32.7 20.85 32.7 20.7 32.65 20.6 32.5 20.45 32.5 20.35 32.4 20.35 M32.3 21.4 L32.35 21.45 32.35 21.5 32.4 21.45 32.35 21.1 32.3 20.85 32.3 21.1 32.3 21.35 32.3 21.4 M32.0 22.05 L31.85 22.05 31.85 22.15 31.9 22.3 31.9 22.4 32.0 23.4 32.0 23.25 32.0 23.1 32.0 22.9 32.0 22.8 32.0 22.4 32.0 22.05 M32.75 21.8 L32.7 21.5 32.7 22.05 32.75 22.55 32.75 21.8 M32.35 23.5 L32.35 24.2 32.45 25.15 32.5 25.3 32.45 24.95 32.4 24.2 32.35 23.5 M32.75 23.95 L32.75 24.0 32.65 24.0 32.7 24.5 32.7 24.95 32.75 25.25 32.8 25.55 32.8 24.65 32.75 23.65 32.75 23.95 M18.15 20.8 L18.1 20.85 18.2 20.8 18.3 20.75 18.2 20.8 18.15 20.8 M17.75 21.2 L17.8 21.1 17.5 21.4 17.3 21.5 17.1 21.65 17.85 21.25 17.75 21.2 M17.9 21.05 L18.0 20.95 18.05 20.9 17.9 21.05 M19.9 20.8 L19.95 20.8 19.95 20.75 19.85 20.75 19.85 20.85 19.9 20.8 M19.0 20.3 L19.05 20.35 19.15 20.3 19.0 20.3 M17.4 22.15 L17.3 22.15 17.35 22.25 17.6 22.05 17.8 21.95 17.95 21.8 17.7 22.0 17.4 22.15 M17.55 22.6 L17.95 22.35 18.25 22.05 17.85 22.3 17.5 22.45 17.55 22.6 M18.0 24.1 L17.7 24.4 17.45 24.8 17.35 25.25 17.4 25.25 17.5 24.95 17.65 24.6 17.9 24.25 18.0 24.2 18.1 24.1 18.4 23.85 18.7 23.65 18.55 23.7 18.4 23.75 18.0 24.1 M19.2 24.0 L19.15 24.0 19.25 24.1 19.3 24.05 19.2 24.0 M18.0 24.95 L18.0 25.45 18.15 25.95 18.2 25.9 18.15 25.6 18.15 25.35 18.15 25.3 18.1 24.85 18.05 24.95 18.0 24.95 M18.75 26.25 L18.9 26.35 18.85 26.25 18.75 26.2 18.75 26.25 M18.6 26.1 L18.65 26.1 18.65 26.0 18.6 25.9 18.6 26.1 M18.65 26.8 L19.7 26.9 Q19.05 26.8 18.6 26.5 L18.55 26.65 18.65 26.8 M18.3 26.9 L18.5 27.05 18.35 26.85 18.3 26.7 18.3 26.6 18.1 26.4 18.05 26.55 17.95 26.55 18.3 26.9 M18.7 27.1 L18.5 27.05 18.7 27.15 18.7 27.1 M19.45 26.45 L19.4 26.5 20.6 26.6 20.6 26.55 20.35 26.55 20.1 26.55 19.9 26.55 19.7 26.55 19.6 26.45 19.55 26.45 19.45 26.45 M17.6 26.0 L17.6 26.05 17.55 26.15 17.65 26.25 17.75 26.35 17.7 26.15 17.65 26.05 17.65 26.0 17.6 26.0 M33.4 27.7 L33.3 27.75 33.35 27.75 33.6 27.7 33.7 27.65 33.85 27.6 34.0 27.6 33.95 27.5 33.9 27.55 33.5 27.65 33.4 27.7 M33.15 27.15 L32.75 27.15 32.75 27.4 33.0 27.35 33.25 27.35 33.1 27.25 33.15 27.15 M31.05 26.95 L30.85 26.95 30.85 27.05 30.9 27.05 31.05 27.0 31.05 26.95 M30.9 27.65 L31.1 27.65 31.0 27.6 31.0 27.5 31.1 27.3 31.0 27.3 30.9 27.3 30.85 27.05 30.85 27.35 30.9 27.65 M32.5 27.0 L32.5 26.9 32.45 26.9 32.45 26.85 32.25 26.85 32.25 26.95 32.35 27.0 32.5 27.0 M32.6 26.3 L32.5 26.6 32.65 26.55 32.6 26.3 M32.25 26.6 L32.4 26.6 32.25 26.55 32.25 26.6 M31.9 26.55 L31.95 26.55 31.95 26.5 31.9 26.5 31.9 26.55 M31.8 27.75 L31.45 27.85 31.85 27.85 32.25 27.85 32.0 27.8 31.8 27.75 M28.8 26.45 L28.75 26.6 28.7 26.7 28.65 26.7 28.65 26.85 28.6 26.85 28.55 26.9 28.5 26.9 28.75 27.05 28.8 26.65 28.8 26.45 28.8 26.4 28.7 26.4 28.75 26.45 28.8 26.45 M28.05 27.45 L28.0 27.4 27.9 27.4 27.9 27.45 28.05 27.45 M28.75 27.4 L28.75 27.3 28.55 27.35 28.75 27.4 M28.75 27.65 L28.65 27.65 28.6 27.7 28.7 27.7 28.8 27.7 28.75 27.6 28.75 27.65 M27.6 25.8 L27.6 26.15 27.65 26.15 27.7 26.25 27.65 25.5 27.6 25.8 M26.9 27.7 L27.0 27.7 26.95 27.5 26.95 27.55 26.9 27.65 26.9 27.7 M27.65 27.35 L27.55 27.55 27.65 27.5 27.65 27.35 M22.85 24.75 L22.45 25.1 22.0 25.4 21.55 25.7 21.0 26.0 21.85 25.65 22.45 25.2 22.5 25.15 22.55 25.15 22.85 24.85 22.85 24.75 M23.6 24.75 L23.6 25.55 23.7 26.4 23.65 25.55 23.6 24.75 M23.95 26.7 L23.95 26.85 23.9 27.0 23.95 27.1 23.95 27.15 24.0 27.05 23.95 27.05 23.95 27.0 24.0 26.95 24.0 26.8 23.95 26.7 M23.1 27.65 L23.2 27.65 23.2 27.5 23.1 27.5 23.1 27.65 M24.0 27.7 L24.1 27.75 24.25 27.75 24.25 27.7 24.2 27.65 24.15 27.55 24.15 27.5 23.95 27.55 24.0 27.7 M23.65 27.65 L23.55 27.6 23.5 27.45 23.5 27.65 23.65 27.65 M21.6 26.1 L21.4 26.15 21.4 26.25 22.15 25.85 21.95 25.95 21.75 26.0 21.6 26.1 M20.7 26.15 L20.7 26.1 20.5 26.15 20.7 26.15 M20.75 26.95 L20.25 27.1 19.8 27.15 20.25 27.15 20.8 27.1 20.75 27.05 20.75 26.95" fill="#ffffff" fill-rule="evenodd" stroke="none"/>
    <path d="M85.5 11.65 L85.55 11.8 85.55 12.0 85.35 12.15 85.15 12.2 Q83.5 11.95 82.25 12.2 L81.4 12.45 Q81.05 14.75 80.2 16.3 82.4 19.0 78.6 22.2 L78.5 22.2 78.35 22.3 78.3 22.3 77.5 22.6 Q78.2 25.75 80.1 28.4 L80.2 28.5 80.25 28.75 80.05 28.95 Q79.75 29.6 79.1 29.75 78.4 29.9 77.25 29.45 L77.1 29.35 77.05 29.25 Q76.15 25.45 74.7 22.6 L74.4 22.55 Q74.5 25.15 72.65 25.9 71.75 26.35 70.75 25.9 71.1 27.3 70.9 29.3 L70.85 29.45 70.7 29.55 67.95 29.6 68.0 29.6 67.85 29.5 67.75 29.4 67.75 29.25 Q67.85 27.2 67.0 26.05 L65.1 27.3 Q64.05 27.7 63.3 26.75 L61.6 24.75 60.25 24.55 Q60.65 26.65 61.4 28.4 L61.4 28.6 61.25 28.8 Q59.6 29.65 58.0 27.95 L57.9 27.7 57.75 24.55 56.7 24.7 56.5 24.65 Q54.7 23.65 54.65 22.5 54.5 21.45 55.75 20.35 52.75 18.45 53.4 15.1 L53.4 15.0 Q54.05 12.75 57.05 12.9 55.5 10.7 55.65 9.3 55.75 7.5 58.2 6.7 L58.3 6.7 61.95 7.05 Q63.1 4.05 65.55 4.55 67.85 4.95 68.85 7.1 70.9 5.4 72.6 5.65 74.4 5.95 75.8 8.4 78.3 8.1 80.45 9.75 83.3 9.0 85.5 11.65" fill="#000000" fill-opacity="0.4" fill-rule="evenodd" stroke="none"/>
  </g>
</svg>
