<?xml version="1.0" encoding="UTF-8" standalone="no"?>
<svg xmlns:xlink="http://www.w3.org/1999/xlink" height="86.25px" width="89.0px" xmlns="http://www.w3.org/2000/svg">
  <g transform="matrix(1.0, 0.0, 0.0, 1.0, 44.5, 43.1)">
    <path d="M13.75 -29.65 L2.75 -29.65 2.75 -43.1 44.5 -43.1 44.5 -28.9 38.0 -28.9 10.0 -4.9 38.75 29.85 44.5 29.85 44.5 43.15 5.0 43.15 5.0 30.1 12.25 30.1 12.25 27.35 -3.5 5.35 -17.5 15.85 -17.5 29.6 -9.75 29.6 -9.75 43.15 -44.5 43.15 -44.5 30.6 -37.75 30.6 -37.75 -29.4 -44.5 -29.4 -44.5 -43.1 -6.75 -43.1 -6.75 -29.4 -17.0 -29.4 -17.0 0.35 13.75 -29.65" fill="#ffffff" fill-rule="evenodd" stroke="none"/>
  </g>
</svg>
