<?xml version="1.0" encoding="UTF-8" standalone="no"?>
<svg xmlns:xlink="http://www.w3.org/1999/xlink" height="15.45px" width="157.45px" xmlns="http://www.w3.org/2000/svg">
  <g transform="matrix(1.0, 0.0, 0.0, 1.0, 78.7, 7.7)">
    <path d="M66.1 -7.5 L78.75 -7.5 78.75 -2.7 76.0 -2.7 76.0 -4.95 71.6 -4.95 71.6 -1.45 75.15 -1.45 75.15 1.05 71.6 1.05 71.6 5.0 76.0 5.0 76.0 2.8 78.75 2.8 78.75 7.55 66.1 7.55 66.1 5.0 67.85 5.0 67.85 -4.95 66.1 -4.95 66.1 -7.5 M64.75 -1.45 L62.3 -1.45 62.3 -4.95 60.1 -4.95 60.1 5.0 62.25 5.0 62.25 7.55 54.2 7.55 54.2 5.0 56.35 5.0 56.35 -4.95 54.2 -4.95 54.2 -1.45 51.7 -1.45 51.7 -7.5 64.75 -7.5 64.75 -1.45 M-19.1 -5.05 Q-20.85 -5.05 -22.0 -3.75 -23.25 -2.5 -23.2 -0.25 -23.25 2.3 -22.0 3.65 -20.8 5.0 -19.0 5.0 -17.75 5.0 -16.85 4.35 -16.0 3.7 -15.65 2.5 L-18.2 2.5 -18.2 0.0 -11.45 0.0 Q-11.45 2.7 -12.4 4.3 -13.35 5.9 -15.15 6.85 -16.95 7.75 -19.2 7.75 -23.1 7.75 -25.2 5.55 -27.25 3.35 -27.25 0.0 -27.25 -2.35 -26.2 -4.1 -25.2 -5.9 -23.45 -6.8 -21.7 -7.7 -19.65 -7.7 -16.75 -7.75 -15.15 -6.25 L-15.15 -7.5 -12.7 -7.5 -12.7 -2.15 -15.15 -2.15 Q-15.55 -3.5 -16.65 -4.25 -17.8 -5.05 -19.1 -5.05 M-10.0 -7.5 L-1.35 -7.5 Q1.1 -7.5 2.2 -6.15 3.25 -4.9 3.25 -3.25 3.25 -0.7 0.75 0.5 L3.1 5.0 4.95 5.0 4.95 7.55 0.6 7.55 -2.65 1.0 -4.3 1.0 -4.3 5.0 -2.5 5.0 -2.5 7.55 -10.0 7.55 -10.0 5.0 -8.05 5.0 -8.05 -4.95 -10.0 -4.95 -10.0 -7.5 M-3.0 -1.4 Q-0.65 -1.45 -0.65 -3.2 -0.65 -4.1 -1.2 -4.5 -1.75 -4.95 -2.65 -4.95 L-4.3 -4.95 -4.3 -1.4 -3.0 -1.4 M5.65 -4.95 L5.65 -7.5 18.3 -7.5 18.3 -2.7 15.55 -2.7 15.55 -4.95 11.1 -4.95 11.1 -1.45 14.7 -1.45 14.7 1.05 11.1 1.05 11.1 5.0 15.55 5.0 15.55 2.8 18.3 2.8 18.3 7.55 5.65 7.55 5.65 5.0 7.35 5.0 7.35 -4.95 5.65 -4.95 M23.95 -6.8 Q25.7 -7.7 27.75 -7.7 30.65 -7.75 32.25 -6.25 L32.25 -7.5 34.7 -7.5 34.7 -2.15 32.25 -2.15 Q31.85 -3.5 30.75 -4.25 29.6 -5.05 28.3 -5.05 26.55 -5.05 25.4 -3.75 24.15 -2.5 24.2 -0.25 24.15 2.3 25.4 3.65 26.6 5.0 28.4 5.0 29.65 5.0 30.55 4.35 31.4 3.7 31.75 2.5 L29.2 2.5 29.2 0.0 35.95 0.0 Q35.95 2.7 35.0 4.3 34.05 5.9 32.25 6.85 30.45 7.75 28.2 7.75 24.3 7.75 22.2 5.55 20.15 3.35 20.15 0.0 20.15 -2.35 21.2 -4.1 22.2 -5.9 23.95 -6.8 M39.55 -7.5 L48.95 -7.5 48.95 -4.95 47.0 -4.95 50.0 5.0 51.7 5.0 51.7 7.55 44.65 7.55 44.65 5.0 46.5 5.0 45.8 2.45 42.05 2.45 41.3 5.0 43.25 5.0 43.25 7.55 36.85 7.55 36.85 5.0 38.65 5.0 41.45 -4.95 39.55 -4.95 39.55 -7.5 M-78.7 -4.95 L-78.7 -7.5 -71.2 -7.5 -71.2 -4.95 -73.0 -4.95 -73.0 5.0 -71.3 5.0 -71.3 7.55 -78.7 7.55 -78.7 5.0 -76.75 5.0 -76.75 -4.95 -78.7 -4.95 M-69.9 -7.5 L-62.9 -7.5 -62.9 -4.95 -64.65 -4.95 -68.7 -0.8 -64.0 5.0 -62.5 5.0 -62.5 7.55 -70.2 7.55 -70.2 5.0 -68.55 5.0 -72.9 -0.35 -68.2 -4.95 -69.9 -4.95 -69.9 -7.5 M-48.3 -5.45 Q-46.2 -3.2 -46.2 0.0 -46.2 3.25 -48.35 5.5 -50.5 7.75 -54.2 7.75 -58.05 7.75 -60.1 5.45 -62.2 3.15 -62.2 0.0 -62.2 -3.2 -60.05 -5.45 -57.95 -7.7 -54.2 -7.7 -50.5 -7.7 -48.3 -5.45 M-54.2 -4.95 Q-55.85 -5.0 -57.0 -3.7 -58.15 -2.4 -58.15 0.1 -58.15 2.35 -57.0 3.65 -55.9 5.0 -54.2 5.0 -52.55 5.0 -51.35 3.7 -50.25 2.4 -50.2 -0.05 -50.25 -2.25 -51.35 -3.6 -52.45 -4.95 -54.2 -4.95 M-44.55 -7.5 L-38.5 -7.5 -33.25 1.9 -33.25 -4.95 -35.1 -4.95 -35.1 -7.5 -28.65 -7.5 -28.65 -4.95 -30.65 -4.95 -30.65 7.65 -33.85 7.65 -40.05 -3.5 -40.05 5.0 -38.25 5.0 -38.25 7.55 -44.55 7.55 -44.55 5.0 -42.65 5.0 -42.65 -4.95 -44.55 -4.95 -44.55 -7.5 M45.25 0.25 L44.05 -4.3 42.75 0.25 45.25 0.25" fill="#ffffff" fill-rule="evenodd" stroke="none"/>
  </g>
</svg>
