<?xml version="1.0" encoding="UTF-8" standalone="no"?>
<svg xmlns:xlink="http://www.w3.org/1999/xlink" height="6.95px" width="18.75px" xmlns="http://www.w3.org/2000/svg">
  <g transform="matrix(1.0, 0.0, 0.0, 1.0, 9.95, -3.85)">
    <path d="M-1.05 7.25 L0.45 7.2 1.45 7.15 2.5 5.8 2.55 5.8 2.6 5.9 Q2.6 6.45 1.65 7.15 L2.0 7.15 6.25 6.55 Q7.6 6.3 8.1 5.9 L8.25 5.9 Q8.0 5.0 7.05 4.65 L7.1 4.65 Q8.3 4.65 8.5 6.05 L8.55 6.7 8.45 7.85 Q8.45 8.75 8.8 9.05 L8.6 9.1 8.25 7.9 8.35 6.7 8.35 6.3 7.4 6.7 5.55 7.05 1.0 7.55 1.3 7.6 1.1 7.65 1.0 7.6 0.95 7.6 0.9 7.55 -0.5 7.65 -0.4 8.25 -0.45 8.3 Q-0.35 7.9 -0.75 7.65 L-1.2 7.65 -1.25 7.65 -1.2 7.7 -0.95 8.15 -1.0 8.25 -0.95 8.5 -1.0 8.5 -1.5 7.65 -1.75 7.65 -1.95 7.8 -2.05 7.6 -5.6 6.7 Q-8.1 5.8 -8.1 5.55 L-8.15 6.35 Q-8.1 7.3 -9.95 8.65 -8.35 6.8 -8.35 6.2 -8.45 4.35 -7.0 3.85 -7.85 4.6 -8.05 5.45 -6.1 6.5 -4.1 6.95 L-4.1 6.7 -4.05 6.7 -4.05 6.8 -4.0 6.95 -3.7 7.0 -3.3 7.35 -3.2 7.25 -3.35 7.1 -1.2 7.25 -1.05 7.25 M2.0 7.1 L2.6 6.5 2.1 7.1 2.0 7.1" fill="#865204" fill-rule="evenodd" stroke="none"/>
    <path d="M-0.95 8.15 L-0.8 8.05 Q-0.45 8.05 -0.3 9.4 -0.3 10.25 -0.95 10.8 L-1.15 10.55 Q-0.7 9.85 -0.7 9.4 L-0.95 8.5 -1.0 8.25 -0.95 8.15 M-1.05 7.25 Q-0.35 6.35 -0.55 5.9 L-0.25 5.8 Q-0.1 5.8 -0.1 6.15 -0.1 7.1 -1.05 7.25 M1.4 5.6 Q1.4 6.1 0.75 6.65 L1.6 6.1 2.3 5.0 Q2.5 5.0 2.5 5.35 L2.0 6.35 Q1.3 7.15 0.45 7.15 L0.1 7.1 0.05 7.15 -0.35 7.15 1.05 5.45 0.95 5.25 Q1.05 5.15 1.1 5.15 L1.35 5.2 1.4 5.6 M0.65 9.0 L0.45 9.5 Q-0.15 8.9 -0.15 8.05 -0.15 7.85 0.15 7.85 L0.65 9.0 M-5.9 6.75 Q-5.7 6.75 -4.7 7.3 -3.75 7.8 -2.6 7.8 -2.0 7.8 -1.35 9.5 L-1.9 10.55 Q-2.45 9.1 -2.85 8.6 L-3.7 8.4 -4.2 8.3 -4.9 7.9 -6.2 7.0 Q-6.2 6.75 -5.9 6.75" fill="#fcd79e" fill-rule="evenodd" stroke="none"/>
  </g>
</svg>
