<?xml version="1.0" encoding="UTF-8" standalone="no"?>
<svg xmlns:xlink="http://www.w3.org/1999/xlink" height="7.2px" width="12.7px" xmlns="http://www.w3.org/2000/svg">
  <g transform="matrix(1.0, 0.0, 0.0, 1.0, 5.8, -2.9)">
    <path d="M0.8 5.35 L0.85 5.35 1.15 6.25 1.35 6.25 1.45 6.1 1.55 6.3 2.4 6.5 3.95 7.0 3.95 7.05 3.55 6.95 3.95 7.15 Q5.65 8.0 5.65 8.25 L5.7 7.4 Q5.65 6.4 6.9 4.95 5.8 6.95 5.8 7.6 5.9 9.55 4.9 10.1 5.45 9.35 5.6 8.5 L5.5 8.6 Q5.65 8.9 4.7 9.15 L-1.3 9.4 -4.6 8.85 Q-5.25 8.7 -5.35 8.4 L-5.45 8.4 Q-5.25 9.35 -4.65 9.65 -5.5 9.7 -5.6 8.25 L-5.65 7.55 -5.6 6.35 -5.8 5.05 -5.7 5.0 -5.45 6.3 -5.5 7.55 -5.5 8.0 -4.85 7.55 -3.6 7.1 -0.55 6.45 -0.75 6.4 -0.6 6.35 -0.55 6.4 -0.5 6.4 -0.45 6.45 0.5 6.3 0.4 5.65 0.45 5.6 Q0.4 6.05 0.65 6.3 L0.95 6.25 1.0 6.25 0.95 6.2 0.8 5.7 0.85 5.6 0.8 5.35 M-0.85 7.1 L-3.75 7.55 -4.1 7.65 Q-4.75 7.9 -5.1 8.2 -3.45 8.9 -1.6 9.1 L-1.5 9.15 -1.0 9.2 -0.9 9.15 -0.65 9.2 1.95 9.15 2.35 8.95 2.5 8.9 4.75 8.55 Q4.95 8.25 5.45 8.25 4.2 7.25 2.95 6.9 L2.95 7.15 2.9 7.2 2.9 7.1 2.85 6.95 2.65 6.9 2.6 6.85 2.45 6.8 2.45 6.75 2.45 6.8 2.45 6.85 2.4 6.85 2.4 6.8 -0.45 7.0 -0.85 7.1 M5.15 8.65 L5.1 8.65 5.15 8.65 M-1.6 8.25 L-1.6 8.2 -1.55 8.2 -1.5 8.3 -1.6 8.3 -1.6 8.25" fill="#865204" fill-rule="evenodd" stroke="none"/>
    <path d="M0.8 5.7 L0.7 5.85 Q0.45 5.85 0.35 4.45 0.35 3.55 0.8 2.9 L0.95 3.15 Q0.6 3.95 0.6 4.45 L0.8 5.35 0.85 5.6 0.8 5.7 M0.05 6.1 L-0.3 4.85 -0.15 4.35 Q0.25 4.95 0.25 5.85 L0.05 6.1 M2.1 5.2 L2.65 5.4 3.0 5.45 3.45 5.9 4.35 6.8 4.15 7.05 3.35 6.5 Q2.7 6.05 1.9 6.05 1.5 6.1 1.05 4.3 L1.45 3.15 Q1.8 4.7 2.1 5.2" fill="#fcd79e" fill-rule="evenodd" stroke="none"/>
    <path d="M2.4 6.85 L2.3 6.95 2.3 7.2 2.05 8.05 2.0 8.15 1.9 8.4 -1.0 8.5 -1.05 8.4 -1.1 8.15 -1.1 8.05 -1.15 8.0 -1.15 7.95 Q-1.2 7.45 -0.85 7.1 L-0.45 7.0 2.4 6.8 2.4 6.85" fill="#aa0400" fill-rule="evenodd" stroke="none"/>
    <path d="M2.4 6.85 L2.45 6.85 2.45 6.8 2.45 6.75 2.45 6.8 2.6 6.85 2.65 6.9 2.85 6.95 2.9 7.1 2.9 7.2 2.95 7.15 2.95 6.9 Q4.2 7.25 5.45 8.25 4.95 8.25 4.75 8.55 L2.5 8.9 2.35 8.95 1.95 9.15 -0.65 9.2 -0.9 9.15 -1.0 9.2 -1.5 9.15 -1.6 9.1 Q-3.45 8.9 -5.1 8.2 -4.75 7.9 -4.1 7.65 L-3.75 7.55 -0.85 7.1 Q-1.2 7.45 -1.15 7.95 L-1.15 8.0 -1.1 8.05 -1.1 8.15 -1.05 8.4 -1.0 8.5 1.9 8.4 2.0 8.15 2.05 8.05 2.3 7.2 2.3 6.95 2.4 6.85 M-1.6 8.25 L-1.6 8.3 -1.5 8.3 -1.55 8.2 -1.6 8.2 -1.6 8.25" fill="#6a0300" fill-rule="evenodd" stroke="none"/>
  </g>
</svg>
