<?xml version="1.0" encoding="UTF-8" standalone="no"?>
<svg xmlns:xlink="http://www.w3.org/1999/xlink" height="8.35px" width="9.95px" xmlns="http://www.w3.org/2000/svg">
  <g transform="matrix(1.0, 0.0, 0.0, 1.0, 4.35, -2.25)">
    <path d="M2.1 6.8 L2.1 6.85 2.0 6.95 2.0 7.25 1.8 8.25 1.75 8.35 1.7 8.65 -0.6 8.75 -0.6 8.65 -0.65 8.35 -0.65 8.25 -0.7 8.2 -0.7 8.1 Q-0.75 7.55 -0.45 7.15 L-0.15 7.0 2.1 6.8" fill="#aa0400" fill-rule="evenodd" stroke="none"/>
    <path d="M2.1 6.8 L2.25 6.85 2.3 6.9 2.45 6.95 2.45 7.15 2.45 7.25 2.5 7.2 2.5 6.9 Q3.5 7.3 4.45 8.45 4.1 8.45 3.9 8.8 L2.15 9.2 2.05 9.3 1.75 9.5 -0.3 9.55 -0.5 9.5 -0.6 9.55 -1.0 9.5 -1.05 9.45 Q-2.5 9.2 -3.8 8.4 L-3.0 7.75 -2.75 7.65 -0.45 7.15 Q-0.75 7.55 -0.7 8.1 L-0.7 8.2 -0.65 8.25 -0.65 8.35 -0.6 8.65 -0.6 8.75 1.7 8.65 1.75 8.35 1.8 8.25 2.0 7.25 2.0 6.95 2.1 6.85 2.1 6.8 M-1.0 8.4 L-1.05 8.4 -1.05 8.55 -1.0 8.55 -1.0 8.4" fill="#6a0300" fill-rule="evenodd" stroke="none"/>
    <path d="M0.85 5.5 L0.75 5.7 Q0.55 5.7 0.45 4.05 0.45 3.0 0.85 2.25 L0.95 2.55 Q0.65 3.5 0.65 4.05 L0.85 5.1 0.85 5.4 0.85 5.5 M3.25 7.0 L2.85 6.45 Q2.3 5.9 1.7 5.9 1.4 5.95 1.0 3.9 L1.35 2.55 1.85 4.95 Q2.05 5.0 2.3 5.15 L2.55 5.2 2.9 5.75 3.6 6.8 3.45 7.1 3.3 7.05 3.3 7.0 3.25 7.0 M0.25 5.95 L-0.05 4.5 0.1 3.95 0.4 5.7 0.25 5.95" fill="#fcd79e" fill-rule="evenodd" stroke="none"/>
    <path d="M0.85 5.1 L1.1 6.15 1.25 6.15 1.35 5.95 1.4 6.2 2.1 6.45 3.25 7.0 3.3 7.0 3.3 7.05 3.3 7.1 3.0 6.95 3.3 7.2 4.65 8.45 4.65 7.5 Q4.65 6.3 5.6 4.65 4.75 6.95 4.75 7.7 4.8 10.0 4.05 10.6 L4.6 8.75 4.5 8.85 Q4.65 9.2 3.9 9.5 L-0.8 9.8 -3.4 9.15 -4.0 8.65 -4.05 8.65 Q-3.9 9.75 -3.45 10.1 -4.1 10.15 -4.2 8.45 L-4.25 7.65 -4.2 6.25 Q-4.2 5.15 -4.35 4.75 L-4.25 4.7 -4.05 6.2 -4.1 7.65 -4.1 8.2 -3.6 7.65 Q-3.0 7.15 -2.6 7.15 L-0.25 6.4 -0.4 6.3 -0.25 6.25 -0.25 6.3 -0.2 6.3 -0.15 6.4 0.6 6.2 0.5 5.45 0.55 5.4 Q0.5 5.9 0.7 6.2 L0.95 6.15 1.0 6.15 0.95 6.1 0.85 5.5 0.85 5.4 0.85 5.1 M-0.45 7.15 L-2.75 7.65 -3.0 7.75 -3.8 8.4 Q-2.5 9.2 -1.05 9.45 L-1.0 9.5 -0.6 9.55 -0.5 9.5 -0.3 9.55 1.75 9.5 2.05 9.3 2.15 9.2 3.9 8.8 Q4.1 8.45 4.45 8.45 3.5 7.3 2.5 6.9 L2.5 7.2 2.45 7.25 2.45 7.15 2.45 6.95 2.3 6.9 2.25 6.85 2.1 6.8 -0.15 7.0 -0.45 7.15 M-1.0 8.4 L-1.0 8.55 -1.05 8.55 -1.05 8.4 -1.0 8.4" fill="#865204" fill-rule="evenodd" stroke="none"/>
  </g>
</svg>
