<?xml version="1.0" encoding="UTF-8" standalone="no"?>
<svg xmlns:xlink="http://www.w3.org/1999/xlink" height="9.2px" width="5.6px" xmlns="http://www.w3.org/2000/svg">
  <g transform="matrix(1.0, 0.0, 0.0, 1.0, 2.3, -1.2)">
    <path d="M0.65 4.8 L0.55 5.0 0.4 3.15 Q0.4 2.0 0.65 1.2 L0.7 1.5 0.5 3.15 0.65 4.3 0.65 4.65 0.65 4.75 0.65 4.8 M2.0 6.4 L1.75 5.8 Q1.45 5.2 1.1 5.2 0.95 5.25 0.7 3.0 L0.9 1.5 1.2 4.15 1.45 4.35 1.6 4.45 1.8 5.05 2.2 6.2 2.1 6.5 2.0 6.45 2.0 6.4 M0.3 5.25 L0.1 3.65 0.2 3.05 0.4 5.0 0.3 5.25" fill="#fcd79e" fill-rule="evenodd" stroke="none"/>
    <path d="M0.65 4.3 L0.75 5.5 0.85 5.5 0.9 5.25 0.95 5.55 Q1.15 5.6 1.35 5.8 L2.0 6.4 2.0 6.45 2.0 6.5 1.85 6.35 2.0 6.65 2.75 8.0 2.75 6.95 Q2.75 5.65 3.3 3.8 2.8 6.35 2.8 7.2 2.85 9.7 2.45 10.4 L2.75 8.35 2.7 8.45 2.35 9.15 Q1.0 10.05 -0.3 9.5 L-1.75 8.8 -2.1 8.25 -2.15 8.25 -1.8 9.85 Q-2.15 9.9 -2.2 8.0 L-2.25 7.15 -2.2 5.6 -2.15 7.15 -2.15 7.75 -1.9 7.15 -1.3 6.6 0.0 5.75 -0.1 5.65 0.0 5.6 0.0 5.65 0.05 5.65 0.05 5.75 0.5 5.55 0.45 4.85 0.55 5.55 0.7 5.5 0.7 5.4 0.65 4.8 0.65 4.75 0.65 4.65 0.65 4.3 M-0.1 6.6 L-1.4 7.15 -1.55 7.25 -2.0 7.95 -0.45 9.1 -0.4 9.15 -0.2 9.2 -0.15 9.15 0.0 9.2 1.15 9.15 1.3 8.95 1.35 8.85 2.35 8.4 Q2.45 8.0 2.65 8.0 2.1 6.75 1.55 6.3 L1.55 6.35 1.45 6.3 1.4 6.25 1.35 6.2 0.05 6.4 -0.1 6.6 M-2.2 4.45 L-2.3 3.95 -2.25 3.9 -2.2 4.45 M-0.4 7.95 L-0.4 8.1 -0.45 8.1 -0.45 7.95 -0.4 7.95" fill="#865204" fill-rule="evenodd" stroke="none"/>
    <path d="M1.35 6.2 L1.4 6.25 1.45 6.3 1.55 6.35 1.55 6.3 Q2.1 6.75 2.65 8.0 2.45 8.0 2.35 8.4 L1.35 8.85 1.3 8.95 1.15 9.15 0.0 9.2 -0.15 9.15 -0.2 9.2 -0.4 9.15 -0.45 9.1 -2.0 7.95 -1.55 7.25 -1.4 7.15 -0.1 6.6 -0.25 7.6 -0.25 7.75 -0.2 7.8 -0.2 7.9 -0.2 8.25 -0.2 8.35 1.1 8.25 1.15 7.9 1.15 7.8 1.3 6.7 1.3 6.35 1.35 6.25 1.35 6.2 M-0.4 7.95 L-0.45 7.95 -0.45 8.1 -0.4 8.1 -0.4 7.95" fill="#6a0300" fill-rule="evenodd" stroke="none"/>
    <path d="M1.35 6.2 L1.35 6.25 1.3 6.35 1.3 6.7 1.15 7.8 1.15 7.9 1.1 8.25 -0.2 8.35 -0.2 8.25 -0.2 7.9 -0.2 7.8 -0.25 7.75 -0.25 7.6 -0.1 6.6 0.05 6.4 1.35 6.2" fill="#aa0400" fill-rule="evenodd" stroke="none"/>
  </g>
</svg>
