<?xml version="1.0" encoding="UTF-8" standalone="no"?>
<svg xmlns:xlink="http://www.w3.org/1999/xlink" height="4.45px" width="3.75px" xmlns="http://www.w3.org/2000/svg">
  <g transform="matrix(1.0, 0.0, 0.0, 1.0, 1.5, -5.1)">
    <path d="M0.95 6.45 L1.25 6.65 Q1.85 7.05 1.9 7.75 L1.9 7.25 Q1.9 6.35 2.25 5.1 L1.95 7.4 1.7 9.55 1.9 8.15 1.85 8.25 1.65 8.7 Q0.7 9.3 -0.15 8.95 L-1.15 8.5 -1.35 8.1 -1.4 8.1 -1.15 9.2 Q-1.4 9.2 -1.45 7.95 L-1.45 7.35 -1.45 6.3 -1.4 7.35 -1.4 7.75 -1.25 7.35 -0.85 7.0 0.05 6.4 0.0 6.35 0.05 6.3 0.05 6.35 0.1 6.35 0.1 6.4 0.4 6.3 0.5 6.25 0.5 6.2 0.5 5.8 0.55 6.25 0.6 6.25 0.65 6.1 0.7 6.3 Q0.8 6.3 0.95 6.45 M0.0 7.0 L-0.9 7.35 -1.0 7.45 -1.3 7.9 Q-0.8 8.5 -0.25 8.7 L-0.2 8.7 -0.1 8.75 -0.05 8.7 0.05 8.75 0.8 8.7 0.95 8.6 0.95 8.5 1.65 8.2 1.75 7.95 1.65 7.75 1.6 7.55 1.15 7.0 1.05 6.85 1.05 6.8 1.0 6.75 0.95 6.75 0.1 6.85 0.0 7.0 M-1.5 5.2 L-1.45 5.2 -1.45 5.5 -1.5 5.2 M-0.2 7.9 L-0.2 8.0 -0.25 8.0 -0.25 7.9 -0.2 7.9" fill="#865204" fill-rule="evenodd" stroke="none"/>
    <path d="M0.95 6.75 L1.0 6.75 1.05 6.8 1.05 6.85 1.15 7.0 1.6 7.55 1.65 7.75 1.75 7.95 1.65 8.2 0.95 8.5 0.95 8.6 0.8 8.7 0.05 8.75 -0.05 8.7 -0.1 8.75 -0.2 8.7 -0.25 8.7 Q-0.8 8.5 -1.3 7.9 L-1.0 7.45 -0.9 7.35 0.0 7.0 -0.1 7.65 -0.1 7.85 -0.1 8.1 -0.1 8.15 0.8 8.1 0.8 7.85 0.8 7.8 0.95 7.05 0.95 6.85 0.95 6.75 M-0.2 7.9 L-0.25 7.9 -0.25 8.0 -0.2 8.0 -0.2 7.9" fill="#6a0300" fill-rule="evenodd" stroke="none"/>
    <path d="M0.95 6.75 L0.95 6.85 0.95 7.05 0.8 7.8 0.8 7.85 0.8 8.1 -0.1 8.15 -0.1 8.1 -0.1 7.85 -0.1 7.65 0.0 7.0 0.1 6.85 0.95 6.75" fill="#aa0400" fill-rule="evenodd" stroke="none"/>
  </g>
</svg>
