<?xml version="1.0" encoding="UTF-8" standalone="no"?>
<svg xmlns:xlink="http://www.w3.org/1999/xlink" height="8.3px" width="8.3px" xmlns="http://www.w3.org/2000/svg">
  <g transform="matrix(1.0, 0.0, 0.0, 1.0, 4.15, 4.15)">
    <path d="M-0.35 -3.9 L0.0 -3.9 Q1.65 -3.9 2.8 -2.75 3.9 -1.65 3.9 0.0 L3.9 0.35 1.3 1.0 Q1.8 -1.45 -0.35 -3.9 1.8 -1.45 1.3 1.0 L3.9 0.35 Q3.85 1.7 2.8 2.75 1.65 3.9 0.0 3.9 L-0.35 3.9 Q-1.7 3.75 -2.75 2.75 -3.8 1.7 -3.9 0.3 L-3.9 0.0 Q-3.9 -1.65 -2.75 -2.75 -1.7 -3.8 -0.35 -3.9 M1.3 1.0 Q-1.3 1.25 -3.9 0.3 -1.3 1.25 1.3 1.0 0.9 2.45 -0.35 3.9 0.9 2.45 1.3 1.0" fill="#9b442f" fill-opacity="0.49803922" fill-rule="evenodd" stroke="none"/>
    <path d="M3.9 0.35 L3.9 0.0 Q3.9 -1.65 2.8 -2.75 1.65 -3.9 0.0 -3.9 L-0.35 -3.9 Q1.8 -1.45 1.3 1.0 L3.9 0.35 Q3.85 1.7 2.8 2.75 1.65 3.9 0.0 3.9 L-0.35 3.9 Q-1.7 3.75 -2.75 2.75 -3.8 1.7 -3.9 0.3 L-3.9 0.0 Q-3.9 -1.65 -2.75 -2.75 -1.7 -3.8 -0.35 -3.9 M1.3 1.0 Q0.9 2.45 -0.35 3.9 M-3.9 0.3 Q-1.3 1.25 1.3 1.0" fill="none" stroke="#6c2f20" stroke-linecap="round" stroke-linejoin="round" stroke-opacity="0.09803922" stroke-width="0.5"/>
  </g>
</svg>
