<?xml version="1.0" encoding="UTF-8" standalone="no"?>
<svg xmlns:xlink="http://www.w3.org/1999/xlink" height="3.05px" width="5.05px" xmlns="http://www.w3.org/2000/svg">
  <g transform="matrix(1.0, 0.0, 0.0, 1.0, 2.45, -3.75)">
    <path d="M1.85 4.0 Q3.05 4.55 2.35 6.05 L2.3 6.2 Q0.7 7.1 -1.3 6.6 L-1.9 6.35 -2.1 6.15 -2.3 5.65 -2.45 5.05 Q-2.15 4.15 -1.15 3.85 L-0.55 3.8 -0.3 3.8 0.2 3.85 Q0.9 3.7 1.4 3.85 L1.5 3.85 1.55 3.9 1.8 4.0 1.85 4.0 M-1.05 4.8 L-1.2 4.75 -1.5 4.9 -1.8 5.3 -1.9 5.8 Q-0.05 7.0 1.9 6.0 L2.3 4.95 2.25 4.9 1.55 4.65 1.35 4.6 1.1 4.55 -0.55 4.7 -0.65 4.75 -1.05 4.8" fill="#000000" fill-rule="evenodd" stroke="none"/>
    <path d="M-1.05 4.8 Q-0.95 5.45 -0.25 5.6 1.05 5.85 1.35 4.8 L1.35 4.75 1.35 4.6 1.55 4.65 2.25 4.9 2.3 4.95 1.9 6.0 Q-0.05 7.0 -1.9 5.8 L-1.8 5.3 -1.5 4.9 -1.2 4.75 -1.05 4.8" fill="#bf3a02" fill-rule="evenodd" stroke="none"/>
    <path d="M1.35 4.6 L1.35 4.75 1.35 4.8 Q1.05 5.85 -0.25 5.6 -0.95 5.45 -1.05 4.8 L-0.65 4.75 -0.55 4.7 1.1 4.55 1.35 4.6" fill="#6d2201" fill-rule="evenodd" stroke="none"/>
  </g>
</svg>
