<?xml version="1.0" encoding="UTF-8" standalone="no"?>
<svg xmlns:xlink="http://www.w3.org/1999/xlink" height="2.0px" width="3.4px" xmlns="http://www.w3.org/2000/svg">
  <g transform="matrix(1.0, 0.0, 0.0, 1.0, 1.7, -4.05)">
    <path d="M0.85 4.6 L0.7 4.55 -0.4 4.65 -0.5 4.7 -0.75 4.7 -0.85 4.7 -1.05 4.8 -1.25 5.05 -1.3 5.4 1.2 5.5 1.5 4.8 1.45 4.8 1.0 4.6 0.85 4.6 M1.15 4.2 L1.2 4.2 Q2.0 4.55 1.5 5.55 L1.5 5.65 Q0.4 6.25 -0.9 5.9 L-1.3 5.75 -1.45 5.6 -1.6 5.3 -1.7 4.9 Q-1.5 4.3 -0.8 4.1 L-0.4 4.05 -0.25 4.05 0.1 4.1 0.9 4.1 1.0 4.1 1.15 4.2" fill="#000000" fill-rule="evenodd" stroke="none"/>
    <path d="M-0.75 4.7 L-0.2 5.25 Q0.65 5.4 0.85 4.7 L0.85 4.6 1.0 4.6 1.45 4.8 1.5 4.8 1.2 5.5 -1.3 5.4 -1.25 5.05 -1.05 4.8 -0.85 4.7 -0.75 4.7" fill="#bf3a02" fill-rule="evenodd" stroke="none"/>
    <path d="M-0.75 4.7 L-0.5 4.7 -0.4 4.65 0.7 4.55 0.85 4.6 0.85 4.7 Q0.65 5.4 -0.2 5.25 L-0.75 4.7" fill="#6d2201" fill-rule="evenodd" stroke="none"/>
  </g>
</svg>
