<?xml version="1.0" encoding="UTF-8" standalone="no"?>
<svg xmlns:xlink="http://www.w3.org/1999/xlink" height="1.65px" width="2.8px" xmlns="http://www.w3.org/2000/svg">
  <g transform="matrix(1.0, 0.0, 0.0, 1.0, 1.35, -4.0)">
    <path d="M-0.55 4.55 L-0.35 4.55 -0.3 4.5 0.65 4.45 0.75 4.45 0.75 4.55 Q0.6 5.15 -0.1 5.0 L-0.55 4.55" fill="#6d2201" fill-rule="evenodd" stroke="none"/>
    <path d="M1.0 4.15 L1.05 4.15 Q1.7 4.45 1.3 5.25 L1.3 5.35 -0.7 5.55 -1.0 5.4 -1.15 5.3 -1.25 5.05 -1.35 4.7 Q-1.2 4.2 -0.6 4.05 L-0.3 4.0 -0.15 4.0 0.15 4.05 0.8 4.05 0.85 4.05 1.0 4.15 M0.75 4.45 L0.65 4.45 -0.3 4.5 -0.35 4.55 -0.55 4.55 -0.65 4.55 -0.8 4.65 -1.0 4.85 -1.0 5.15 1.05 5.2 1.3 4.65 1.25 4.65 0.85 4.45 0.75 4.45" fill="#000000" fill-rule="evenodd" stroke="none"/>
    <path d="M-0.55 4.55 L-0.1 5.0 Q0.6 5.15 0.75 4.55 L0.75 4.45 0.85 4.45 1.25 4.65 1.3 4.65 1.05 5.2 -1.0 5.15 -1.0 4.85 -0.8 4.65 -0.65 4.55 -0.55 4.55" fill="#bf3a02" fill-rule="evenodd" stroke="none"/>
  </g>
</svg>
