<?xml version="1.0" encoding="UTF-8" standalone="no"?>
<svg xmlns:xlink="http://www.w3.org/1999/xlink" height="89.0px" width="325.95px" xmlns="http://www.w3.org/2000/svg">
  <g transform="matrix(1.0, 0.0, 0.0, 1.0, 162.95, 44.5)">
    <path d="M-88.45 -41.0 L-52.7 -44.0 -38.05 -36.2 -13.95 -30.0 13.05 -30.0 40.35 -37.6 59.05 -37.6 91.05 -30.0 120.05 3.0 162.5 44.0 -162.45 44.0 -162.45 -6.0 -88.45 -41.0" fill="#000000" fill-rule="evenodd" stroke="none"/>
    <path d="M-88.45 -41.0 L-52.7 -44.0 -38.05 -36.2 -13.95 -30.0 13.05 -30.0 40.35 -37.6 59.05 -37.6 91.05 -30.0 120.05 3.0 162.5 44.0 -162.45 44.0 -162.45 -6.0" fill="none" stroke="#000000" stroke-linecap="round" stroke-linejoin="round" stroke-width="1.0"/>
    <path d="M-162.45 -6.0 L-88.45 -41.0 Z" fill="none" stroke="#000000" stroke-linecap="round" stroke-linejoin="round" stroke-width="1.0"/>
  </g>
</svg>
