<?xml version="1.0" encoding="UTF-8" standalone="no"?>
<svg xmlns:xlink="http://www.w3.org/1999/xlink" height="56.25px" width="61.8px" xmlns="http://www.w3.org/2000/svg">
  <g transform="matrix(1.0, 0.0, 0.0, 1.0, 30.9, 28.15)">
    <path d="M0.0 -27.65 Q12.6 -27.65 21.45 -19.55 30.4 -11.4 30.4 0.0 30.4 11.4 21.45 19.5 12.6 27.6 0.0 27.6 -12.55 27.6 -21.5 19.5 -30.4 11.4 -30.4 0.0 -30.4 -11.4 -21.5 -19.55 -12.55 -27.65 0.0 -27.65" fill="#000000" fill-rule="evenodd" stroke="none"/>
    <path d="M0.0 -27.65 Q12.6 -27.65 21.45 -19.55 30.4 -11.4 30.4 0.0 30.4 11.4 21.45 19.5 12.6 27.6 0.0 27.6 -12.55 27.6 -21.5 19.5 -30.4 11.4 -30.4 0.0 -30.4 -11.4 -21.5 -19.55 -12.55 -27.65 0.0 -27.65 Z" fill="none" stroke="#000000" stroke-linecap="round" stroke-linejoin="round" stroke-width="1.0"/>
  </g>
</svg>
