<?xml version="1.0" encoding="UTF-8" standalone="no"?>
<svg xmlns:xlink="http://www.w3.org/1999/xlink" height="39.5px" width="20.25px" xmlns="http://www.w3.org/2000/svg">
  <g transform="matrix(1.0, 0.0, 0.0, 1.0, 10.1, 19.75)">
    <path d="M9.65 -5.75 L9.65 19.25 1.4 19.0 1.4 12.5 -1.35 8.0 Q0.8 6.2 1.15 3.5 -0.65 0.2 -3.35 -1.0 -1.2 -4.4 -0.6 -7.25 -2.4 -13.4 -9.6 -19.0 4.3 -21.0 9.65 -5.75" fill="#000000" fill-rule="evenodd" stroke="none"/>
    <path d="M9.65 -5.75 Q4.3 -21.0 -9.6 -19.0 -2.4 -13.4 -0.6 -7.25 -1.2 -4.4 -3.35 -1.0 -0.65 0.2 1.15 3.5 0.8 6.2 -1.35 8.0 L1.4 12.5 1.4 19.0 9.65 19.25 9.65 -5.75 Z" fill="none" stroke="#000000" stroke-linecap="round" stroke-linejoin="round" stroke-width="1.0"/>
  </g>
</svg>
