<?xml version="1.0" encoding="UTF-8" standalone="no"?>
<svg xmlns:xlink="http://www.w3.org/1999/xlink" height="6.4px" width="6.4px" xmlns="http://www.w3.org/2000/svg">
  <g transform="matrix(1.0, 0.0, 0.0, 1.0, -35.2, -67.15)">
    <path d="M40.35 67.8 L40.7 68.1 Q41.25 68.65 41.45 69.35 L41.6 70.35 Q41.6 71.7 40.7 72.6 39.75 73.55 38.4 73.55 37.1 73.55 36.15 72.6 L35.95 72.4 35.45 71.65 35.2 70.4 35.2 70.35 Q35.2 69.05 36.15 68.1 37.1 67.15 38.4 67.15 39.5 67.15 40.35 67.8 M40.25 68.55 L40.0 68.25 Q39.3 67.8 38.4 67.8 37.35 67.8 36.65 68.55 35.85 69.3 35.85 70.35 L35.85 70.4 36.05 71.35 36.45 72.0 36.65 72.15 Q37.35 72.9 38.4 72.9 39.5 72.9 40.25 72.15 41.0 71.4 41.0 70.35 L40.9 69.5 40.25 68.55" fill="#000000" fill-opacity="0.2" fill-rule="evenodd" stroke="none"/>
  </g>
</svg>
