<?xml version="1.0" encoding="UTF-8" standalone="no"?>
<svg xmlns:xlink="http://www.w3.org/1999/xlink" height="54.4px" width="62.1px" xmlns="http://www.w3.org/2000/svg">
  <g transform="matrix(1.0, 0.0, 0.0, 1.0, 31.5, 27.6)">
    <path d="M13.65 -24.45 Q10.95 -23.35 10.95 -19.85 10.95 -18.4 11.45 -17.3 12.45 -15.15 15.35 -15.15 21.05 -15.15 21.05 -20.4 L21.05 -20.75 22.85 -20.95 Q27.0 -20.95 29.15 -17.75 30.6 -15.7 30.6 -14.0 30.6 -7.3 26.1 -6.65 27.15 -3.25 27.15 -0.25 27.15 10.75 23.4 11.45 L23.3 11.75 22.65 13.2 22.75 11.85 Q22.55 3.6 20.95 1.55 L21.3 0.8 21.3 0.55 Q23.75 -0.9 23.75 -4.4 23.75 -10.3 17.35 -10.3 14.15 -10.3 12.45 -7.55 11.3 -5.75 11.3 -3.95 11.3 -2.6 12.2 -1.05 12.65 -0.15 13.35 0.35 L12.2 0.65 Q9.4 0.65 8.65 -3.05 7.95 -6.75 6.85 -6.75 L6.15 -6.65 Q5.35 -7.3 3.25 -7.3 1.65 -7.3 1.0 -6.75 L0.9 -6.75 Q0.45 -6.75 -0.9 -5.15 L-1.55 -5.85 -1.45 -6.85 Q-1.35 -8.95 -3.25 -8.95 -4.8 -8.95 -5.6 -6.4 -6.4 -3.95 -7.85 -3.95 L-8.95 -4.3 -9.2 -4.15 Q-8.05 -5.4 -8.05 -7.95 -7.85 -12.1 -12.2 -12.1 -16.7 -12.1 -16.7 -7.95 -16.6 -5.25 -15.05 -4.05 -15.6 -3.4 -15.5 -2.05 L-15.6 -2.0 Q-18.6 -1.6 -20.1 0.75 L-21.55 0.9 Q-22.9 0.3 -23.9 0.3 -25.0 0.3 -25.0 1.25 -24.55 3.9 -21.5 4.0 L-21.95 7.25 Q-21.1 24.2 -12.9 24.2 L-12.1 24.1 Q-10.75 24.9 -9.0 24.9 L-8.3 24.85 -6.15 26.2 -6.2 26.2 -6.85 26.1 -7.15 26.1 -7.75 26.1 -6.5 26.25 -7.2 26.45 -8.65 26.8 -9.3 26.25 Q-13.55 26.2 -18.05 22.05 -21.3 19.05 -22.65 16.55 L-23.9 14.8 Q-26.0 10.85 -26.1 7.95 L-26.8 5.45 Q-31.6 4.5 -31.5 -2.25 -31.5 -4.5 -30.5 -6.4 -29.5 -3.25 -26.0 -3.25 -23.0 -3.25 -21.5 -6.6 -20.65 -8.4 -20.5 -9.85 -17.4 -10.0 -17.4 -13.9 -17.7 -17.95 -21.75 -17.95 -25.0 -17.95 -25.25 -14.5 L-26.25 -14.6 Q-27.6 -14.6 -28.6 -14.05 -28.9 -14.95 -28.8 -16.05 -28.8 -17.5 -27.7 -19.1 -26.45 -20.95 -24.55 -21.4 L-24.8 -22.9 Q-24.8 -26.55 -21.85 -26.55 -18.95 -26.55 -18.5 -24.25 -16.95 -27.6 -12.25 -27.6 -9.0 -27.6 -7.05 -26.15 L-0.65 -26.9 3.5 -27.25 Q9.1 -27.25 13.65 -24.45 M10.0 -16.4 Q8.75 -20.55 5.85 -20.55 4.25 -20.55 3.15 -20.05 L3.35 -21.2 Q3.15 -24.8 -0.65 -24.8 -2.9 -24.8 -4.15 -23.75 -5.5 -24.55 -7.85 -24.55 -11.55 -24.55 -13.45 -21.75 -14.7 -19.95 -14.7 -18.3 -14.9 -13.7 -9.3 -13.7 -5.25 -13.7 -3.5 -16.05 L-2.0 -15.9 Q-0.25 -15.9 1.0 -16.85 L0.9 -15.6 1.45 -13.25 Q2.55 -11.1 5.4 -11.1 10.0 -11.1 10.0 -16.4 M13.65 19.5 Q13.8 19.7 14.0 19.7 16.0 19.7 18.35 14.9 19.5 11.9 19.5 9.65 L19.5 9.3 19.4 13.3 Q19.4 15.55 20.4 16.0 L16.7 20.25 16.05 20.25 15.15 21.3 11.65 24.0 8.2 25.8 8.05 25.65 Q10.1 24.1 12.45 21.05 L13.65 19.5 M-19.4 -20.4 L-19.4 -20.85 -19.65 -20.55 -19.4 -20.4 M-5.75 -0.8 L-3.95 -2.35 -3.35 -2.9 -3.15 -2.8 -2.9 -2.8 Q-4.35 -1.25 -5.75 -0.8" fill="#b0a895" fill-rule="evenodd" stroke="none"/>
    <path d="M21.05 -20.75 L21.05 -20.4 Q21.05 -15.15 15.35 -15.15 12.45 -15.15 11.45 -17.3 10.95 -18.4 10.95 -19.85 10.95 -23.35 13.65 -24.45 L16.35 -24.9 Q20.85 -24.9 21.05 -20.75 M-28.6 -14.05 Q-27.6 -14.6 -26.25 -14.6 L-25.25 -14.5 -25.35 -13.8 Q-25.35 -9.85 -20.85 -9.85 L-20.5 -9.85 Q-20.65 -8.4 -21.5 -6.6 -23.0 -3.25 -26.0 -3.25 -29.5 -3.25 -30.5 -6.4 -30.85 -7.5 -30.85 -9.0 -30.85 -13.0 -28.6 -14.05 M-15.05 -4.05 Q-16.6 -5.25 -16.7 -7.95 -16.7 -12.1 -12.2 -12.1 -7.85 -12.1 -8.05 -7.95 -8.05 -5.4 -9.2 -4.15 L-11.55 -3.4 Q-11.9 -4.75 -13.25 -4.75 -14.55 -4.75 -15.05 -4.05 M10.0 -16.4 Q10.0 -11.1 5.4 -11.1 2.55 -11.1 1.45 -13.25 L0.9 -15.6 1.0 -16.85 Q-0.25 -15.9 -2.0 -15.9 L-3.5 -16.05 Q-5.25 -13.7 -9.3 -13.7 -14.9 -13.7 -14.7 -18.3 -14.7 -19.95 -13.45 -21.75 -11.55 -24.55 -7.85 -24.55 -5.5 -24.55 -4.15 -23.75 -2.9 -24.8 -0.65 -24.8 3.15 -24.8 3.35 -21.2 L3.15 -20.05 Q4.25 -20.55 5.85 -20.55 8.75 -20.55 10.0 -16.4" fill="#c1bbac" fill-rule="evenodd" stroke="none"/>
    <path d="M-12.1 24.1 L-12.9 24.2 Q-21.1 24.2 -21.95 7.25 L-21.5 4.0 Q-24.55 3.9 -25.0 1.25 -25.0 0.3 -23.9 0.3 -22.9 0.3 -21.55 0.9 L-20.1 0.75 Q-18.6 -1.6 -15.6 -2.0 L-15.5 -2.05 Q-15.6 -3.4 -15.05 -4.05 -14.55 -4.75 -13.25 -4.75 -11.9 -4.75 -11.55 -3.4 L-9.2 -4.15 -8.95 -4.3 -7.85 -3.95 Q-6.4 -3.95 -5.6 -6.4 -4.8 -8.95 -3.25 -8.95 -1.35 -8.95 -1.45 -6.85 L-1.55 -5.85 -0.9 -5.15 -0.9 -4.75 Q-0.9 -2.9 -2.9 -2.8 L-3.15 -2.8 -3.35 -2.9 -3.95 -2.35 -5.75 -0.8 Q-6.75 -0.25 -7.5 -0.25 L-9.85 -1.25 Q-10.45 -1.25 -12.2 -0.25 L-12.1 0.2 Q-12.1 1.25 -14.8 3.0 -17.6 4.7 -17.6 8.05 -17.6 14.1 -14.45 18.8 L-11.35 22.85 Q-11.35 23.85 -12.1 24.1 M6.15 -6.65 L6.85 -6.75 Q7.95 -6.75 8.65 -3.05 9.4 0.65 12.2 0.65 L13.35 0.35 Q14.65 1.55 16.7 1.55 19.6 1.55 21.3 0.55 L21.3 0.8 20.95 1.55 Q22.55 3.6 22.75 11.85 L22.65 13.2 Q22.4 16.1 20.85 16.1 L20.4 16.0 Q19.4 15.55 19.4 13.3 L19.5 9.3 19.5 9.15 18.5 3.6 Q15.6 5.35 13.1 5.35 3.9 5.35 4.8 -4.3 4.8 -6.2 6.15 -6.65" fill="#a79d87" fill-rule="evenodd" stroke="none"/>
    <path d="M-8.3 24.85 L-9.0 24.9 Q-10.75 24.9 -12.1 24.1 -11.35 23.85 -11.35 22.85 L-14.45 18.8 Q-17.6 14.1 -17.6 8.05 -17.6 4.7 -14.8 3.0 -12.1 1.25 -12.1 0.2 L-12.2 -0.25 Q-10.45 -1.25 -9.85 -1.25 L-7.5 -0.25 Q-6.75 -0.25 -5.75 -0.8 -4.35 -1.25 -2.9 -2.8 -0.9 -2.9 -0.9 -4.75 L-0.9 -5.15 Q0.45 -6.75 0.9 -6.75 L1.0 -6.75 Q1.65 -7.3 3.25 -7.3 5.35 -7.3 6.15 -6.65 4.8 -6.2 4.8 -4.3 3.9 5.35 13.1 5.35 15.6 5.35 18.5 3.6 L19.5 9.15 19.5 9.3 19.5 9.65 Q19.5 11.9 18.35 14.9 16.0 19.7 14.0 19.7 13.8 19.7 13.65 19.5 L13.45 19.3 15.1 17.0 15.9 15.35 15.9 15.25 Q16.5 12.45 16.5 11.1 L16.7 6.8 Q15.1 7.7 13.25 7.7 4.8 7.7 3.35 -2.5 L3.45 -3.85 1.7 -4.15 Q-1.1 2.0 -6.75 2.0 L-10.65 1.35 -11.1 1.7 Q-13.35 3.45 -13.8 4.95 -15.25 8.95 -15.25 10.95 -15.25 17.45 -11.55 20.75 L-7.95 24.1 Q-7.95 24.55 -8.3 24.85" fill="#9e947c" fill-rule="evenodd" stroke="none"/>
    <path d="M-25.25 -14.5 Q-25.0 -17.95 -21.75 -17.95 -17.7 -17.95 -17.4 -13.9 -17.4 -10.0 -20.5 -9.85 L-20.85 -9.85 Q-25.35 -9.85 -25.35 -13.8 L-25.25 -14.5 M13.35 0.35 Q12.65 -0.15 12.2 -1.05 11.3 -2.6 11.3 -3.95 11.3 -5.75 12.45 -7.55 14.15 -10.3 17.35 -10.3 23.75 -10.3 23.75 -4.4 23.75 -0.9 21.3 0.55 19.6 1.55 16.7 1.55 14.65 1.55 13.35 0.35" fill="#b6ae9c" fill-rule="evenodd" stroke="none"/>
  </g>
</svg>
