<?xml version="1.0" encoding="UTF-8" standalone="no"?>
<svg xmlns:xlink="http://www.w3.org/1999/xlink" height="47.9px" width="63.4px" xmlns="http://www.w3.org/2000/svg">
  <g transform="matrix(1.0, 0.0, 0.0, 1.0, 32.15, 29.05)">
    <path d="M21.05 -19.95 L23.0 -17.3 Q23.3 -20.05 26.1 -20.05 26.65 -20.65 27.8 -20.65 31.25 -20.65 31.25 -17.85 31.25 -16.15 30.6 -15.25 30.25 -12.2 26.65 -12.2 L25.55 -12.25 Q27.8 -6.4 27.8 1.1 28.05 5.6 27.15 6.4 L27.15 5.7 27.15 5.45 27.15 4.7 26.65 1.9 Q25.55 -4.15 24.2 -6.95 23.0 -9.65 20.95 -12.35 L19.15 -15.5 Q17.95 -17.3 15.45 -18.6 12.75 -20.05 10.3 -21.0 13.65 -20.65 16.25 -19.3 L16.25 -19.2 Q16.7 -18.05 18.25 -18.05 L18.35 -18.05 Q20.4 -16.35 21.85 -13.7 23.85 -9.9 25.2 -5.25 25.65 -5.5 25.65 -6.4 25.65 -7.5 24.35 -11.55 23.0 -15.8 22.3 -16.5 L20.15 -18.5 Q20.75 -19.05 21.05 -19.95 M-21.85 -11.2 L-23.0 -9.55 -23.3 -9.1 -21.95 -11.2 -21.85 -11.2 M-25.2 12.45 Q-23.45 15.35 -20.55 18.85 -23.2 17.35 -25.0 15.15 L-24.55 15.35 Q-24.1 15.35 -24.3 15.25 L-25.2 12.45 M-25.9 14.1 Q-29.5 9.2 -29.5 1.8 L-29.4 -0.15 Q-31.95 -0.7 -32.15 -3.6 -31.7 -7.65 -28.8 -7.95 L-28.8 -7.3 Q-28.15 -4.95 -26.1 -4.95 L-25.2 -5.05 -26.0 -2.5 -26.9 -0.25 -27.5 -0.1 -27.7 1.8 -27.7 2.55 -28.15 5.7 Q-27.15 11.85 -25.9 14.1 M-26.35 -10.3 L-24.2 -14.35 Q-22.1 -17.85 -16.35 -21.75 L-16.5 -21.75 Q-19.6 -21.75 -19.6 -24.0 -19.95 -29.05 -15.7 -29.05 -12.7 -29.05 -12.7 -26.15 -12.7 -24.7 -13.1 -23.65 -5.85 -27.7 1.9 -27.7 11.75 -27.7 17.95 -22.85 16.45 -22.65 16.15 -21.2 L15.6 -21.4 12.3 -22.35 12.35 -23.0 Q12.35 -24.9 0.75 -24.9 -8.05 -24.9 -17.25 -18.95 L-22.45 -15.05 -23.2 -14.35 Q-25.45 -12.1 -25.65 -10.1 L-26.35 -10.3 M15.35 -0.55 Q15.35 2.25 12.75 2.25 11.2 2.25 10.65 1.2 10.4 0.65 10.4 -0.1 10.4 -3.25 12.1 -3.25 15.35 -3.25 15.35 -0.55 M-23.1 -26.15 Q-21.95 -26.15 -21.95 -25.15 -21.95 -23.75 -22.65 -23.75 -23.65 -23.75 -24.1 -25.45 -24.1 -26.15 -23.1 -26.15 M-22.75 -19.65 Q-22.75 -16.25 -26.15 -16.25 -27.8 -16.25 -27.8 -17.95 -27.8 -21.45 -24.8 -21.45 -22.75 -21.45 -22.75 -19.65 M-20.75 -14.25 Q-15.45 -18.95 -10.4 -20.95 -13.0 -19.75 -15.5 -18.15 L-20.55 -14.05 -20.75 -14.25 M-22.9 -12.2 L-22.55 -11.65 -22.9 -10.9 -23.9 -8.45 Q-24.3 -9.55 -25.2 -9.9 L-22.9 -12.2 M-7.6 -4.6 Q-7.2 -5.4 -7.2 -6.6 -6.95 -9.2 -9.4 -9.2 -9.3 -14.25 -5.5 -14.25 -0.25 -14.25 -0.45 -8.45 -0.45 -3.95 -4.7 -3.95 -6.5 -3.95 -7.6 -4.6 M-4.95 -10.8 L-5.75 -9.45 -5.25 -8.55 Q-4.25 -9.0 -4.25 -10.0 -4.25 -10.8 -4.95 -10.8" fill="#b0a895" fill-rule="evenodd" stroke="none"/>
    <path d="M17.95 -22.85 L18.6 -22.9 Q21.1 -22.9 21.1 -21.1 L21.05 -19.95 Q20.75 -19.05 20.15 -18.5 17.85 -20.5 16.15 -21.2 16.45 -22.65 17.95 -22.85 M0.55 -22.35 Q1.45 -21.75 1.7 -20.3 1.7 -17.85 -0.7 -17.85 -2.15 -17.85 -2.9 -19.1 L-3.35 -20.4 Q-3.35 -21.4 -2.95 -22.0 L-0.65 -22.35 0.55 -22.35 M-8.55 -20.3 Q-6.6 -20.1 -6.6 -18.15 -6.6 -14.45 -10.2 -14.45 -11.8 -14.45 -12.45 -15.7 L-12.8 -17.05 -12.55 -18.4 -11.35 -19.05 -8.55 -20.3 M-23.8 -8.0 L-23.75 -7.05 Q-23.75 -6.15 -24.1 -5.6 L-24.1 -6.5 -23.8 -8.0 M-28.8 -7.95 Q-28.7 -10.3 -26.8 -10.3 L-26.35 -10.3 -25.65 -10.1 -25.7 -9.75 Q-25.7 -9.3 -25.55 -9.55 L-25.2 -9.9 Q-24.3 -9.55 -23.9 -8.45 L-25.2 -5.05 -26.1 -4.95 Q-28.15 -4.95 -28.8 -7.3 L-28.8 -7.95 M18.35 -18.05 L18.25 -18.05 Q16.7 -18.05 16.25 -19.2 L16.25 -19.3 18.35 -18.05 M5.85 -14.25 Q5.05 -14.25 4.7 -14.95 L4.5 -15.8 6.25 -17.7 Q7.3 -17.7 7.4 -16.25 7.15 -14.25 5.85 -14.25 M-7.6 -4.6 Q-8.2 -3.25 -9.9 -3.25 -11.65 -3.25 -12.2 -4.3 L-12.45 -5.5 Q-12.45 -6.2 -11.75 -7.5 -10.85 -9.2 -9.45 -9.2 L-9.4 -9.2 Q-6.95 -9.2 -7.2 -6.6 -7.2 -5.4 -7.6 -4.6" fill="#c1bbac" fill-rule="evenodd" stroke="none"/>
    <path d="M10.3 -21.0 L8.05 -21.1 2.7 -22.3 10.4 -21.75 Q11.85 -21.75 12.3 -22.35 L15.6 -21.4 16.15 -21.2 Q17.85 -20.5 20.15 -18.5 L22.3 -16.5 Q23.0 -15.8 24.35 -11.55 25.65 -7.5 25.65 -6.4 25.65 -5.5 25.2 -5.25 23.85 -9.9 21.85 -13.7 20.4 -16.35 18.35 -18.05 L16.25 -19.3 Q13.65 -20.65 10.3 -21.0 M-2.95 -22.0 Q-5.7 -21.45 -8.55 -20.3 L-11.35 -19.05 -12.55 -18.4 Q-17.6 -15.9 -19.95 -13.45 L-20.55 -14.05 -15.5 -18.15 Q-13.0 -19.75 -10.4 -20.95 -6.7 -22.45 -3.15 -22.45 L-0.65 -22.35 -2.95 -22.0 M-23.3 -9.1 L-23.35 -9.0 -23.45 -8.85 -23.8 -8.0 -24.1 -6.5 -24.1 -5.6 Q-24.35 -4.3 -25.1 -2.35 L-25.45 -1.45 -26.0 -0.15 -26.9 5.05 Q-26.9 6.7 -25.2 12.45 L-24.3 15.25 Q-24.1 15.35 -24.55 15.35 L-25.0 15.15 -25.9 14.1 Q-27.15 11.85 -28.15 5.7 L-27.7 2.55 -26.9 -0.25 -26.0 -2.5 -25.2 -5.05 -23.9 -8.45 -22.9 -10.9 -22.55 -11.65 -21.95 -11.2 -23.3 -9.1" fill="#9e947c" fill-rule="evenodd" stroke="none"/>
    <path d="M2.7 -22.3 L0.55 -22.35 -0.65 -22.35 -3.15 -22.45 Q-6.7 -22.45 -10.4 -20.95 -15.45 -18.95 -20.75 -14.25 -21.65 -15.05 -22.3 -15.05 L-22.45 -15.05 -17.25 -18.95 Q-8.05 -24.9 0.75 -24.9 12.35 -24.9 12.35 -23.0 L12.3 -22.35 Q11.85 -21.75 10.4 -21.75 L2.7 -22.3 M-23.2 -14.35 L-23.3 -13.7 Q-23.2 -12.8 -22.9 -12.2 L-25.2 -9.9 -25.55 -9.55 Q-25.7 -9.3 -25.7 -9.75 L-25.65 -10.1 Q-25.45 -12.1 -23.2 -14.35" fill="#a79d87" fill-rule="evenodd" stroke="none"/>
    <path d="M-19.95 -13.45 L-19.65 -12.8 Q-19.65 -11.1 -21.3 -11.1 L-21.85 -11.2 -21.95 -11.2 -22.55 -11.65 -22.9 -12.2 Q-23.2 -12.8 -23.3 -13.7 L-23.2 -14.35 -22.45 -15.05 -22.3 -15.05 Q-21.65 -15.05 -20.75 -14.25 L-20.55 -14.05 -19.95 -13.45 M17.85 -6.15 Q21.3 -6.15 21.2 -3.05 21.2 0.0 18.5 0.0 16.35 0.0 15.55 -1.45 L15.1 -2.95 Q15.1 -6.15 17.85 -6.15" fill="#b6ae9c" fill-rule="evenodd" stroke="none"/>
  </g>
</svg>
