<?xml version="1.0" encoding="UTF-8" standalone="no"?>
<svg xmlns:xlink="http://www.w3.org/1999/xlink" height="15.3px" width="75.75px" xmlns="http://www.w3.org/2000/svg">
  <g transform="matrix(1.0, 0.0, 0.0, 1.0, 0.85, 1.0)">
    <path d="M74.05 10.6 L69.1 10.6 67.6 13.2 66.1 10.6 61.8 10.6 64.0 6.85 61.5 2.6 66.45 2.6 67.95 0.0 69.4 2.6 73.75 2.6 71.6 6.35 74.05 10.6 M52.95 0.0 L54.4 2.6 58.75 2.6 56.6 6.35 59.05 10.6 54.1 10.6 52.6 13.2 51.1 10.6 46.8 10.6 49.0 6.85 46.5 2.6 51.45 2.6 52.95 0.0 M43.8 10.6 L38.85 10.6 37.35 13.2 35.85 10.6 31.55 10.6 33.75 6.85 31.25 2.6 36.2 2.6 37.7 0.0 39.15 2.6 43.5 2.6 41.35 6.35 43.8 10.6 M28.3 10.6 L23.35 10.6 21.85 13.2 20.35 10.6 16.05 10.6 18.25 6.85 15.75 2.6 20.7 2.6 22.2 0.0 23.65 2.6 28.0 2.6 25.85 6.35 28.3 10.6 M6.35 0.2 L6.45 0.0 7.9 2.6 12.25 2.6 10.1 6.35 12.55 10.6 7.6 10.6 6.1 13.2 6.05 13.1 6.35 0.2" fill="#fef0ba" fill-rule="evenodd" stroke="none"/>
    <path d="M6.05 13.1 L4.6 10.6 0.3 10.6 2.5 6.85 0.0 2.6 4.95 2.6 6.35 0.2 6.05 13.1" fill="#ffcc00" fill-rule="evenodd" stroke="none"/>
    <path d="M74.05 10.6 L69.1 10.6 67.6 13.2 66.1 10.6 61.8 10.6 64.0 6.85 61.5 2.6 66.45 2.6 67.95 0.0 69.4 2.6 73.75 2.6 71.6 6.35 74.05 10.6 M52.95 0.0 L54.4 2.6 58.75 2.6 56.6 6.35 59.05 10.6 54.1 10.6 52.6 13.2 51.1 10.6 46.8 10.6 49.0 6.85 46.5 2.6 51.45 2.6 52.95 0.0 M43.8 10.6 L38.85 10.6 37.35 13.2 35.85 10.6 31.55 10.6 33.75 6.85 31.25 2.6 36.2 2.6 37.7 0.0 39.15 2.6 43.5 2.6 41.35 6.35 43.8 10.6 M28.3 10.6 L23.35 10.6 21.85 13.2 20.35 10.6 16.05 10.6 18.25 6.85 15.75 2.6 20.7 2.6 22.2 0.0 23.65 2.6 28.0 2.6 25.85 6.35 28.3 10.6 M6.05 13.1 L4.6 10.6 0.3 10.6 2.5 6.85 0.0 2.6 4.95 2.6 6.35 0.2 6.45 0.0 7.9 2.6 12.25 2.6 10.1 6.35 12.55 10.6 7.6 10.6 6.1 13.2 6.05 13.1" fill="none" stroke="#9e7003" stroke-linecap="butt" stroke-linejoin="miter-clip" stroke-miterlimit="3.0" stroke-width="1.0"/>
  </g>
</svg>
