<?xml version="1.0" encoding="UTF-8" standalone="no"?>
<svg xmlns:xlink="http://www.w3.org/1999/xlink" height="15.75px" width="75.8px" xmlns="http://www.w3.org/2000/svg">
  <g transform="matrix(1.0, 0.0, 0.0, 1.0, 0.85, 1.1)">
    <path d="M67.9 0.2 L68.0 0.0 69.45 2.6 73.8 2.6 71.65 6.35 74.1 10.6 69.15 10.6 67.65 13.2 67.6 13.1 67.9 0.2" fill="#fef0ba" fill-rule="evenodd" stroke="none"/>
    <path d="M67.6 13.1 L66.15 10.6 61.85 10.6 64.05 6.85 61.55 2.6 66.5 2.6 67.9 0.2 67.6 13.1 M54.4 2.6 L58.75 2.6 56.6 6.35 59.05 10.6 54.1 10.6 52.6 13.2 51.1 10.6 46.8 10.6 49.0 6.85 46.5 2.6 51.45 2.6 52.95 0.0 54.4 2.6 M41.35 6.35 L43.8 10.6 38.85 10.6 37.35 13.2 35.85 10.6 31.55 10.6 33.75 6.85 31.25 2.6 36.2 2.6 37.7 0.0 39.15 2.6 43.5 2.6 41.35 6.35 M23.65 2.6 L28.0 2.6 25.85 6.35 28.3 10.6 23.35 10.6 21.85 13.2 20.35 10.6 16.05 10.6 18.25 6.85 15.75 2.6 20.7 2.6 22.2 0.0 23.65 2.6 M7.9 2.6 L12.25 2.6 10.1 6.35 12.55 10.6 7.6 10.6 6.1 13.2 4.6 10.6 0.3 10.6 2.5 6.85 0.0 2.6 4.95 2.6 6.45 0.0 7.9 2.6" fill="#ffcc00" fill-rule="evenodd" stroke="none"/>
    <path d="M67.9 0.2 L68.0 0.0 69.45 2.6 73.8 2.6 71.65 6.35 74.1 10.6 69.15 10.6 67.65 13.2 67.6 13.1 66.15 10.6 61.85 10.6 64.05 6.85 61.55 2.6 66.5 2.6 67.9 0.2 M54.4 2.6 L58.75 2.6 56.6 6.35 59.05 10.6 54.1 10.6 52.6 13.2 51.1 10.6 46.8 10.6 49.0 6.85 46.5 2.6 51.45 2.6 52.95 0.0 54.4 2.6 M41.35 6.35 L43.8 10.6 38.85 10.6 37.35 13.2 35.85 10.6 31.55 10.6 33.75 6.85 31.25 2.6 36.2 2.6 37.7 0.0 39.15 2.6 43.5 2.6 41.35 6.35 M23.65 2.6 L28.0 2.6 25.85 6.35 28.3 10.6 23.35 10.6 21.85 13.2 20.35 10.6 16.05 10.6 18.25 6.85 15.75 2.6 20.7 2.6 22.2 0.0 23.65 2.6 M7.9 2.6 L12.25 2.6 10.1 6.35 12.55 10.6 7.6 10.6 6.1 13.2 4.6 10.6 0.3 10.6 2.5 6.85 0.0 2.6 4.95 2.6 6.45 0.0 7.9 2.6" fill="none" stroke="#9e7003" stroke-linecap="butt" stroke-linejoin="miter-clip" stroke-miterlimit="3.0" stroke-width="1.0"/>
  </g>
</svg>
