<?xml version="1.0" encoding="UTF-8" standalone="no"?>
<svg xmlns:xlink="http://www.w3.org/1999/xlink" height="41.5px" width="41.5px" xmlns="http://www.w3.org/2000/svg">
  <g transform="matrix(1.0, 0.0, 0.0, 1.0, 20.75, 18.95)">
    <path d="M20.0 -7.0 Q17.05 -9.55 11.05 -10.25 0.15 -11.15 -8.0 -10.3 -16.2 -9.5 -20.0 -7.0 L-20.0 -12.9 Q-20.0 -18.2 -14.7 -18.2 L14.7 -18.2 Q20.0 -18.2 20.0 -12.9 L20.0 -7.0" fill="#cccccc" fill-rule="evenodd" stroke="none"/>
    <path d="M-20.0 -7.0 Q-16.2 -9.5 -8.0 -10.3 0.15 -11.15 11.05 -10.25 17.05 -9.55 20.0 -7.0 L20.0 16.5 Q20.0 21.8 14.7 21.8 L-14.7 21.8 Q-20.0 21.8 -20.0 16.5 L-20.0 -7.0" fill="#b4b4b4" fill-rule="evenodd" stroke="none"/>
    <path d="M20.0 -7.0 L20.0 -12.9 Q20.0 -18.2 14.7 -18.2 L-14.7 -18.2 Q-20.0 -18.2 -20.0 -12.9 L-20.0 -7.0 -20.0 16.5 Q-20.0 21.8 -14.7 21.8 L14.7 21.8 Q20.0 21.8 20.0 16.5 L20.0 -7.0 Z" fill="none" stroke="#666666" stroke-linecap="round" stroke-linejoin="round" stroke-width="1.5"/>
  </g>
</svg>
