<?xml version="1.0" encoding="UTF-8" standalone="no"?>
<svg xmlns:xlink="http://www.w3.org/1999/xlink" height="21.5px" width="61.5px" xmlns="http://www.w3.org/2000/svg">
  <g transform="matrix(1.0, 0.0, 0.0, 1.0, 30.75, 10.75)">
    <path d="M-30.0 -2.7 L-30.0 -7.25 Q-30.0 -10.0 -27.35 -10.0 L27.35 -10.0 Q30.0 -10.0 30.0 -7.25 L30.0 -2.7 Q29.9 -5.35 27.35 -5.35 L-27.35 -5.35 Q-29.9 -5.35 -30.0 -2.7" fill="#ffcc00" fill-rule="evenodd" stroke="none"/>
    <path d="M-30.0 -2.7 Q-29.9 -5.35 -27.35 -5.35 L27.35 -5.35 Q29.9 -5.35 30.0 -2.7 L30.0 7.2 Q30.0 10.0 27.35 10.0 L-27.35 10.0 Q-30.0 10.0 -30.0 7.2 L-30.0 -2.7" fill="#f9bb00" fill-rule="evenodd" stroke="none"/>
    <path d="M30.0 -2.7 L30.0 -7.25 Q30.0 -10.0 27.35 -10.0 L-27.35 -10.0 Q-30.0 -10.0 -30.0 -7.25 L-30.0 -2.7 -30.0 7.2 Q-30.0 10.0 -27.35 10.0 L27.35 10.0 Q30.0 10.0 30.0 7.2 L30.0 -2.7 Z" fill="none" stroke="#ffffcc" stroke-linecap="round" stroke-linejoin="round" stroke-width="1.5"/>
  </g>
</svg>
