<?xml version="1.0" encoding="UTF-8" standalone="no"?>
<svg xmlns:xlink="http://www.w3.org/1999/xlink" height="43.0px" width="43.0px" xmlns="http://www.w3.org/2000/svg">
  <g transform="matrix(1.0, 0.0, 0.0, 1.0, 21.5, 21.5)">
    <path d="M19.25 -10.05 L19.25 -15.8 Q19.25 -19.2 16.3 -19.25 L-16.3 -19.25 Q-19.25 -19.2 -19.25 -15.8 L-19.25 -10.0 -19.25 15.85 Q-19.25 19.2 -16.3 19.25 L16.3 19.25 Q19.25 19.2 19.25 15.85 L19.25 -10.05 M16.3 -20.75 Q20.75 -20.8 20.75 -15.8 L20.75 15.85 Q20.75 20.8 16.3 20.75 L-16.3 20.75 Q-20.75 20.8 -20.75 15.85 L-20.75 -15.8 Q-20.75 -20.8 -16.3 -20.75 L16.3 -20.75" fill="#000000" fill-rule="evenodd" stroke="none"/>
    <path d="M-19.25 -10.0 Q-15.0 -12.5 -7.05 -12.55 0.85 -12.65 8.6 -12.35 16.3 -12.15 19.25 -10.05 L19.25 15.85 Q19.25 19.2 16.3 19.25 L-16.3 19.25 Q-19.25 19.2 -19.25 15.85 L-19.25 -10.0" fill="#cccccc" fill-rule="evenodd" stroke="none"/>
    <path d="M19.25 -10.05 Q16.3 -12.15 8.6 -12.35 0.85 -12.65 -7.05 -12.55 -15.0 -12.5 -19.25 -10.0 L-19.25 -15.8 Q-19.25 -19.2 -16.3 -19.25 L16.3 -19.25 Q19.25 -19.2 19.25 -15.8 L19.25 -10.05" fill="#dddddd" fill-rule="evenodd" stroke="none"/>
    <path d="M16.3 -20.75 L-16.3 -20.75 Q-20.75 -20.8 -20.75 -15.8 L-20.75 15.85 Q-20.75 20.8 -16.3 20.75 L16.3 20.75 Q20.75 20.8 20.75 15.85 L20.75 -15.8 Q20.75 -20.8 16.3 -20.75 Z" fill="none" stroke="#cccccc" stroke-linecap="round" stroke-linejoin="round" stroke-width="1.5"/>
  </g>
</svg>
