<?xml version="1.0" encoding="UTF-8" standalone="no"?>
<svg xmlns:xlink="http://www.w3.org/1999/xlink" height="50.0px" width="50.0px" xmlns="http://www.w3.org/2000/svg">
  <g transform="matrix(1.0, 0.0, 0.0, 1.0, 25.0, 25.05)">
    <path d="M23.2 -11.3 Q19.65 -13.85 13.3 -14.55 0.2 -15.65 -9.65 -14.6 -18.6 -13.7 -23.2 -11.2 L-23.2 -17.75 Q-23.2 -23.2 -17.7 -23.2 L17.7 -23.2 Q23.2 -23.2 23.2 -17.75 L23.2 -11.3" fill="#cccccc" fill-rule="evenodd" stroke="none"/>
    <path d="M-23.2 -11.2 Q-18.6 -13.7 -9.65 -14.6 0.2 -15.65 13.3 -14.55 19.65 -13.85 23.2 -11.3 L23.2 17.7 Q23.2 23.15 17.7 23.15 L-17.7 23.15 Q-23.2 23.15 -23.2 17.7 L-23.2 -11.2" fill="#b4b4b4" fill-rule="evenodd" stroke="none"/>
    <path d="M17.7 -25.05 Q25.0 -25.05 25.0 -17.75 L25.0 17.7 Q25.0 24.95 17.7 24.95 L-17.7 24.95 Q-25.0 24.95 -25.0 17.7 L-25.0 -17.75 Q-25.0 -25.05 -17.7 -25.05 L17.7 -25.05 M23.2 -11.3 L23.2 -17.75 Q23.2 -23.2 17.7 -23.2 L-17.7 -23.2 Q-23.2 -23.2 -23.2 -17.75 L-23.2 -11.2 -23.2 17.7 Q-23.2 23.15 -17.7 23.15 L17.7 23.15 Q23.2 23.15 23.2 17.7 L23.2 -11.3" fill="#666666" fill-rule="evenodd" stroke="none"/>
  </g>
</svg>
