<?xml version="1.0" encoding="UTF-8" standalone="no"?>
<svg xmlns:xlink="http://www.w3.org/1999/xlink" height="43.0px" width="43.0px" xmlns="http://www.w3.org/2000/svg">
  <g transform="matrix(1.0, 0.0, 0.0, 1.0, 21.5, 21.5)">
    <path d="M19.25 -9.35 L19.25 -14.7 Q19.25 -19.25 14.7 -19.25 L-14.7 -19.25 Q-19.25 -19.25 -19.25 -14.7 L-19.25 -9.25 -19.25 14.7 Q-19.25 19.25 -14.7 19.25 L14.7 19.25 Q19.25 19.25 19.25 14.7 L19.25 -9.35 M14.7 -20.75 Q20.75 -20.75 20.75 -14.7 L20.75 14.7 Q20.75 20.75 14.7 20.75 L-14.7 20.75 Q-20.75 20.75 -20.75 14.7 L-20.75 -14.7 Q-20.75 -20.75 -14.7 -20.75 L14.7 -20.75" fill="#000000" fill-rule="evenodd" stroke="none"/>
    <path d="M-19.25 -9.25 L-19.25 -14.7 Q-19.25 -19.25 -14.7 -19.25 L14.7 -19.25 Q19.25 -19.25 19.25 -14.7 L19.25 -9.35 Q16.3 -11.45 11.05 -12.05 0.15 -12.95 -8.0 -12.1 -15.45 -11.35 -19.25 -9.25" fill="#cccccc" fill-rule="evenodd" stroke="none"/>
    <path d="M-19.25 -9.25 Q-15.45 -11.35 -8.0 -12.1 0.15 -12.95 11.05 -12.05 16.3 -11.45 19.25 -9.35 L19.25 14.7 Q19.25 19.25 14.7 19.25 L-14.7 19.25 Q-19.25 19.25 -19.25 14.7 L-19.25 -9.25" fill="#b4b4b4" fill-rule="evenodd" stroke="none"/>
    <path d="M14.7 -20.75 L-14.7 -20.75 Q-20.75 -20.75 -20.75 -14.7 L-20.75 14.7 Q-20.75 20.75 -14.7 20.75 L14.7 20.75 Q20.75 20.75 20.75 14.7 L20.75 -14.7 Q20.75 -20.75 14.7 -20.75 Z" fill="none" stroke="#ffffcc" stroke-linecap="round" stroke-linejoin="round" stroke-width="1.5"/>
  </g>
</svg>
