<?xml version="1.0" encoding="UTF-8" standalone="no"?>
<svg xmlns:xlink="http://www.w3.org/1999/xlink" height="21.5px" width="21.5px" xmlns="http://www.w3.org/2000/svg">
  <g transform="matrix(1.0, 0.0, 0.0, 1.0, 10.75, 10.75)">
    <path d="M10.0 -2.15 Q9.9 -5.0 7.0 -5.0 L-7.0 -5.0 Q-9.9 -5.0 -10.0 -2.15 L-10.0 -7.0 Q-10.0 -10.0 -7.0 -10.0 L7.0 -10.0 Q10.0 -10.0 10.0 -7.0 L10.0 -2.15" fill="#eaeaea" fill-rule="evenodd" stroke="none"/>
    <path d="M-10.0 -2.15 Q-9.9 -5.0 -7.0 -5.0 L7.0 -5.0 Q9.9 -5.0 10.0 -2.15 L10.0 7.0 Q10.0 10.0 7.0 10.0 L-7.0 10.0 Q-10.0 10.0 -10.0 7.0 L-10.0 -2.15" fill="#d8d8d8" fill-rule="evenodd" stroke="none"/>
    <path d="M10.0 -2.15 L10.0 -7.0 Q10.0 -10.0 7.0 -10.0 L-7.0 -10.0 Q-10.0 -10.0 -10.0 -7.0 L-10.0 -2.15 -10.0 7.0 Q-10.0 10.0 -7.0 10.0 L7.0 10.0 Q10.0 10.0 10.0 7.0 L10.0 -2.15 Z" fill="none" stroke="#999999" stroke-linecap="round" stroke-linejoin="round" stroke-width="1.5"/>
  </g>
</svg>
