<?xml version="1.0" encoding="UTF-8" standalone="no"?>
<svg xmlns:xlink="http://www.w3.org/1999/xlink" height="42.0px" width="32.0px" xmlns="http://www.w3.org/2000/svg">
  <g transform="matrix(1.0, 0.0, 0.0, 1.0, 16.0, 21.0)">
    <path d="M14.0 -16.15 L14.0 16.15 Q14.0 19.0 11.15 19.0 L-11.15 19.0 Q-14.0 19.0 -14.0 16.15 L-14.0 -16.15 Q-14.0 -19.0 -11.15 -19.0 L11.15 -19.0 Q14.0 -19.0 14.0 -16.15" fill="#999999" fill-rule="evenodd" stroke="none"/>
    <path d="M11.15 -21.0 Q16.0 -21.0 16.0 -16.15 L16.0 16.15 Q16.0 21.0 11.15 21.0 L-11.15 21.0 Q-16.0 21.0 -16.0 16.15 L-16.0 -16.15 Q-16.0 -21.0 -11.15 -21.0 L11.15 -21.0 M14.0 -16.15 Q14.0 -19.0 11.15 -19.0 L-11.15 -19.0 Q-14.0 -19.0 -14.0 -16.15 L-14.0 16.15 Q-14.0 19.0 -11.15 19.0 L11.15 19.0 Q14.0 19.0 14.0 16.15 L14.0 -16.15" fill="#666666" fill-rule="evenodd" stroke="none"/>
  </g>
</svg>
