<?xml version="1.0" encoding="UTF-8" standalone="no"?>
<svg xmlns:xlink="http://www.w3.org/1999/xlink" height="31.5px" width="91.5px" xmlns="http://www.w3.org/2000/svg">
  <g transform="matrix(1.0, 0.0, 0.0, 1.0, 45.75, 15.75)">
    <path d="M-45.0 -4.05 Q-44.85 -8.05 -41.05 -8.05 L41.05 -8.05 Q44.85 -8.05 45.0 -4.05 L45.0 10.8 Q45.0 15.0 41.05 15.0 L-41.05 15.0 Q-45.0 15.0 -45.0 10.8 L-45.0 -4.05" fill="#f18001" fill-rule="evenodd" stroke="none"/>
    <path d="M45.0 -4.05 Q44.85 -8.05 41.05 -8.05 L-41.05 -8.05 Q-44.85 -8.05 -45.0 -4.05 L-45.0 -10.9 Q-45.0 -15.0 -41.05 -15.0 L41.05 -15.0 Q45.0 -15.0 45.0 -10.9 L45.0 -4.05" fill="#ffa215" fill-rule="evenodd" stroke="none"/>
    <path d="M45.0 -4.05 L45.0 -10.9 Q45.0 -15.0 41.05 -15.0 L-41.05 -15.0 Q-45.0 -15.0 -45.0 -10.9 L-45.0 -4.05 -45.0 10.8 Q-45.0 15.0 -41.05 15.0 L41.05 15.0 Q45.0 15.0 45.0 10.8 L45.0 -4.05 Z" fill="none" stroke="#fd9e35" stroke-linecap="round" stroke-linejoin="round" stroke-width="1.5"/>
  </g>
</svg>
