<?xml version="1.0" encoding="UTF-8" standalone="no"?>
<svg xmlns:xlink="http://www.w3.org/1999/xlink" height="104.45px" width="128.2px" xmlns="http://www.w3.org/2000/svg">
  <g transform="matrix(1.0, 0.0, 0.0, 1.0, 68.7, 53.3)">
    <path d="M-54.0 -41.9 L49.8 -40.4 46.5 41.4 -57.35 39.9 -54.0 -41.9" fill="#666666" fill-rule="evenodd" stroke="none"/>
    <path d="M-58.9 -46.05 L55.15 -44.4 51.45 45.5 -62.65 43.9 -58.9 -46.05 M-54.0 -41.9 L-57.35 39.9 46.5 41.4 49.8 -40.4 -54.0 -41.9" fill="#333333" fill-rule="evenodd" stroke="none"/>
    <path d="M-1.65 -29.45 L0.8 -29.5 2.0 -29.45 7.1 -28.7 8.75 -28.25 8.3 -27.8 5.25 -27.65 2.6 -27.3 Q-0.15 -26.9 -1.55 -26.3 -7.5 -24.35 -8.4 -23.65 L-16.15 -17.5 Q-21.2 -11.5 -21.6 -3.7 L-21.65 -1.75 -19.95 -2.75 Q-19.25 -2.7 -18.4 -1.75 -16.7 -1.4 -16.75 -0.4 -16.75 0.1 -18.95 1.2 -19.25 1.5 -19.3 2.9 -19.35 3.8 -20.2 6.5 -20.25 8.85 -19.5 10.65 -18.65 12.8 -16.2 13.5 -13.9 14.05 -13.95 14.55 -14.0 16.0 -16.1 17.65 -16.2 19.6 -12.5 22.45 -11.65 23.1 -8.4 24.35 L-4.25 25.65 2.65 26.75 6.4 26.45 11.1 26.3 13.65 25.55 Q14.25 25.6 14.25 26.1 L14.25 26.2 11.85 27.3 Q6.0 30.0 -0.9 29.8 -13.1 29.45 -21.6 20.45 -29.9 11.55 -29.55 -0.75 -29.3 -10.0 -24.05 -17.1 -22.5 -19.4 -20.4 -21.45 -12.45 -28.9 -2.05 -29.4 L-1.95 -29.4 -1.65 -29.45 M-11.65 -0.75 L-10.85 -0.8 Q-9.5 -0.75 -9.0 -0.25 -8.7 -0.05 -8.7 0.35 -8.75 1.05 -9.85 1.0 L-9.95 1.0 Q-10.35 0.0 -10.85 0.0 L-11.45 0.05 -10.9 1.0 -11.0 0.9 Q-12.5 0.65 -12.45 -0.25 -12.45 -0.65 -11.65 -0.75 M8.05 -1.3 Q8.15 -1.7 8.65 -1.7 L9.25 -1.5 Q10.5 -1.45 11.2 -1.95 11.8 -1.9 11.9 -1.3 11.9 -0.75 11.05 -0.4 11.0 -0.7 11.1 -0.8 L10.7 -0.8 10.65 -0.3 9.0 -0.25 8.7 -0.25 7.95 -1.05 8.05 -1.3" fill="#fccf8b" fill-rule="evenodd" stroke="none"/>
    <path d="M14.25 26.2 L14.25 26.1 Q14.25 25.6 13.65 25.55 L11.1 26.3 6.4 26.45 2.65 26.75 -4.25 25.65 -8.4 24.35 Q-11.65 23.1 -12.5 22.45 -16.2 19.6 -16.1 17.65 -14.0 16.0 -13.95 14.55 -13.9 14.05 -16.2 13.5 -18.65 12.8 -19.5 10.65 -20.25 8.85 -20.2 6.5 -19.35 3.8 -19.3 2.9 -19.25 1.5 -18.95 1.2 -16.75 0.1 -16.75 -0.4 -16.7 -1.4 -18.4 -1.75 -19.25 -2.7 -19.95 -2.75 L-21.65 -1.75 -21.6 -3.7 Q-21.2 -11.5 -16.15 -17.5 L-8.4 -23.65 Q-7.5 -24.35 -1.55 -26.3 -0.15 -26.9 2.6 -27.3 L5.25 -27.65 8.3 -27.8 8.75 -28.25 Q15.95 -26.1 21.4 -20.25 L21.7 -19.95 Q29.8 -11.05 29.45 0.95 29.2 8.7 25.5 14.9 L25.2 15.4 24.85 16.0 Q22.9 19.0 20.2 21.65 17.35 24.3 14.25 26.2 M9.25 -1.5 Q12.1 -2.1 14.95 -4.35 15.9 -6.25 15.95 -9.0 16.05 -11.05 15.6 -13.3 15.4 -14.1 13.85 -15.45 12.65 -16.65 11.65 -17.0 10.65 -17.7 8.0 -17.8 4.4 -17.9 2.05 -15.95 L0.9 -14.75 Q-0.95 -17.55 -5.45 -17.65 -10.85 -17.85 -13.5 -14.15 -15.35 -11.75 -15.45 -9.4 -15.65 -2.4 -11.65 -0.75 -12.45 -0.65 -12.45 -0.25 -12.5 0.65 -11.0 0.9 L-10.25 4.4 -10.05 8.55 Q-10.1 10.2 -10.7 12.6 -11.75 13.5 -11.8 15.2 L-11.7 15.55 Q-10.8 15.15 -10.5 13.95 L-10.4 13.95 -9.1 10.55 -8.65 11.75 Q-8.1 13.35 -7.45 13.85 -5.6 15.6 -0.7 15.75 13.25 16.15 13.5 7.6 13.6 4.25 12.75 3.3 L11.5 1.55 11.55 1.05 Q11.05 0.1 11.05 -0.4 11.9 -0.75 11.9 -1.3 11.8 -1.9 11.2 -1.95 10.5 -1.45 9.25 -1.5 M-9.0 -0.25 Q-4.95 -0.25 -1.75 -2.4 L0.5 -4.6 Q1.1 -1.4 6.5 -1.25 L8.05 -1.3 7.95 -1.05 8.7 -0.25 7.4 -0.5 Q6.35 0.1 4.35 -0.15 L-0.45 -0.3 -1.6 -0.55 Q-7.9 -0.75 -9.55 4.1 -9.7 2.65 -9.95 1.75 L-9.85 1.35 -9.95 1.0 -9.85 1.0 Q-8.75 1.05 -8.7 0.35 -8.7 -0.05 -9.0 -0.25 M9.0 -0.25 L10.65 -0.3 10.55 0.1 10.95 1.0 Q10.0 0.1 9.0 -0.25 M11.8 12.75 L11.7 13.25 11.75 13.4 12.15 13.35 12.0 12.75 11.8 12.75" fill="#fde0b5" fill-rule="evenodd" stroke="none"/>
    <path d="M-1.65 -29.45 L-1.95 -29.4 -2.05 -29.4 -2.8 -30.55 Q-3.1 -31.25 -4.45 -31.2 -5.95 -31.15 -6.5 -31.75 -8.25 -33.3 -8.2 -34.15 -8.1 -37.8 -4.15 -37.7 -1.7 -37.65 -1.75 -36.75 L-1.85 -36.0 -2.15 -36.0 Q-2.75 -37.15 -4.2 -37.2 -6.0 -37.25 -6.85 -35.85 -7.5 -34.75 -7.5 -33.95 -7.55 -33.2 -5.55 -31.85 -4.75 -31.2 -3.4 -31.45 -2.3 -31.65 -1.8 -31.05 L-1.55 -29.85 -1.65 -29.45 M10.55 -16.8 L8.0 -17.2 Q5.95 -17.25 4.15 -16.2 3.15 -15.75 2.55 -15.2 L1.55 -13.3 Q2.05 -11.65 2.0 -9.6 1.9 -7.2 0.9 -5.4 L1.7 -3.9 Q3.15 -2.15 6.4 -2.05 L7.65 -2.15 Q15.0 -3.4 15.15 -8.9 15.35 -14.4 10.55 -16.7 L10.55 -16.8 M-11.65 -0.75 Q-15.65 -2.4 -15.45 -9.4 -15.35 -11.75 -13.5 -14.15 -10.85 -17.85 -5.45 -17.65 -0.95 -17.55 0.9 -14.75 L2.05 -15.95 Q4.4 -17.9 8.0 -17.8 10.65 -17.7 11.65 -17.0 12.65 -16.65 13.85 -15.45 15.4 -14.1 15.6 -13.3 16.05 -11.05 15.95 -9.0 15.9 -6.25 14.95 -4.35 12.1 -2.1 9.25 -1.5 L8.65 -1.7 Q8.15 -1.7 8.05 -1.3 L6.5 -1.25 Q1.1 -1.4 0.5 -4.6 L-1.75 -2.4 Q-4.95 -0.25 -9.0 -0.25 -9.5 -0.75 -10.85 -0.8 L-11.65 -0.75 M8.6 -6.45 L7.9 -7.05 Q7.95 -8.25 9.15 -8.2 9.65 -8.2 9.5 -7.3 9.5 -6.45 8.6 -6.45 M0.1 -6.0 L0.15 -6.2 0.35 -6.1 Q0.95 -7.55 1.05 -9.75 1.25 -16.6 -7.9 -16.85 L-8.8 -16.75 Q-11.45 -16.85 -13.1 -13.45 -14.6 -11.35 -14.65 -9.5 -15.25 -1.45 -9.15 -1.25 -3.85 -1.1 -0.4 -5.0 L0.2 -5.9 0.1 -6.0 M-2.85 -8.45 Q-1.85 -8.4 -1.9 -7.5 -1.9 -6.35 -2.9 -6.4 L-3.9 -7.75 Q-3.85 -8.45 -2.85 -8.45" fill="#000000" fill-rule="evenodd" stroke="none"/>
    <path d="M10.55 -16.8 L10.55 -16.7 Q15.35 -14.4 15.15 -8.9 15.0 -3.4 7.65 -2.15 L6.4 -2.05 Q3.15 -2.15 1.7 -3.9 L0.9 -5.4 Q1.9 -7.2 2.0 -9.6 2.05 -11.65 1.55 -13.3 L2.55 -15.2 Q3.15 -15.75 4.15 -16.2 5.95 -17.25 8.0 -17.2 L10.55 -16.8 M0.1 -6.0 L0.2 -5.9 -0.4 -5.0 Q-3.85 -1.1 -9.15 -1.25 -15.25 -1.45 -14.65 -9.5 -14.6 -11.35 -13.1 -13.45 -11.45 -16.85 -8.8 -16.75 L-7.9 -16.85 Q1.25 -16.6 1.05 -9.75 0.95 -7.55 0.35 -6.1 L0.15 -6.2 0.1 -6.0 M8.6 -6.45 Q9.5 -6.45 9.5 -7.3 9.65 -8.2 9.15 -8.2 7.95 -8.25 7.9 -7.05 L8.6 -6.45 M-2.85 -8.45 Q-3.85 -8.45 -3.9 -7.75 L-2.9 -6.4 Q-1.9 -6.35 -1.9 -7.5 -1.85 -8.4 -2.85 -8.45" fill="#ffffff" fill-rule="evenodd" stroke="none"/>
    <path d="M11.5 1.55 L12.75 3.3 Q13.6 4.25 13.5 7.6 13.25 16.15 -0.7 15.75 -5.6 15.6 -7.45 13.85 -8.1 13.35 -8.65 11.75 L-9.1 10.55 -8.95 8.7 -9.45 4.55 -9.55 4.1 Q-7.9 -0.75 -1.6 -0.55 L-0.45 -0.3 4.35 -0.15 Q6.35 0.1 7.4 -0.5 L8.7 -0.25 9.0 -0.25 Q10.0 0.1 10.95 1.0 L11.1 1.6 11.5 1.55 M7.75 4.6 Q8.55 5.35 8.4 7.6 8.25 12.55 4.8 12.45 3.55 12.4 2.95 11.4 2.5 10.8 2.5 10.3 L1.7 10.25 0.95 10.55 Q-0.3 10.5 -0.9 10.1 L-0.95 10.05 -1.5 9.2 -1.7 8.2 Q-1.6 5.25 0.8 4.75 L2.15 4.55 2.35 4.55 2.45 4.8 3.55 4.9 Q4.2 3.9 6.35 3.95 L7.3 4.15 7.75 4.6 M-7.5 6.0 L-7.6 7.35 Q-7.65 7.95 -6.4 11.45 L-6.4 11.55 -6.7 11.5 Q-7.85 8.85 -7.8 7.45 -7.8 6.4 -7.4 5.2 L-7.4 5.5 -7.45 5.7 -7.5 6.0 M11.85 3.7 Q9.3 0.35 7.05 0.3 L5.55 0.65 5.35 0.55 1.7 0.55 -0.85 0.4 -0.95 0.25 -3.3 0.6 Q-5.3 1.4 -6.45 2.95 -5.7 1.8 -4.8 0.95 -8.8 2.5 -8.9 7.1 -8.95 8.4 -7.75 11.4 -6.75 13.85 -5.15 14.4 L-0.7 14.75 Q12.5 15.15 12.75 7.5 12.8 5.7 11.85 3.7 M-0.95 7.55 L-1.1 8.15 Q-1.15 9.95 0.65 10.0 L2.5 9.75 Q3.0 9.75 4.8 11.75 7.25 11.8 7.8 7.6 7.85 4.65 6.0 4.6 L4.2 5.55 4.2 5.65 4.05 5.7 3.95 5.7 3.75 5.7 2.5 7.85 2.4 7.85 2.4 6.9 3.35 5.7 0.8 5.35 Q0.4 5.3 0.1 5.6 -0.9 5.8 -0.95 7.45 L-0.95 7.55" fill="#802202" fill-rule="evenodd" stroke="none"/>
    <path d="M11.05 -0.4 Q11.05 0.1 11.55 1.05 L11.5 1.55 11.1 1.6 10.95 1.0 10.55 0.1 10.65 -0.3 10.7 -0.8 11.1 -0.8 Q11.0 -0.7 11.05 -0.4 M-9.1 10.55 L-10.4 13.95 -10.5 13.95 Q-10.8 15.15 -11.7 15.55 L-11.8 15.2 Q-11.75 13.5 -10.7 12.6 -10.1 10.2 -10.05 8.55 L-10.25 4.4 -11.0 0.9 -10.9 1.0 -11.45 0.05 -10.85 0.0 Q-10.35 0.0 -9.95 1.0 L-9.85 1.35 -9.95 1.75 Q-9.7 2.65 -9.55 4.1 L-9.45 4.55 -8.95 8.7 -9.1 10.55 M11.8 12.75 L12.0 12.75 12.15 13.35 11.75 13.4 11.7 13.25 11.8 12.75" fill="#865204" fill-rule="evenodd" stroke="none"/>
    <path d="M7.75 4.6 L8.05 4.75 8.95 5.45 8.5 6.85 Q8.45 8.5 8.75 9.4 7.6 11.25 7.6 11.45 7.55 12.15 8.15 12.15 8.75 12.15 10.05 10.8 10.75 10.8 11.3 9.5 L11.5 9.2 11.5 8.9 11.85 6.95 Q11.9 5.35 10.75 3.55 9.0 1.05 5.35 0.95 4.3 1.6 1.65 1.5 1.3 0.95 -0.8 0.9 L-2.55 1.05 -2.45 0.85 -2.8 0.7 Q-3.4 0.7 -4.35 1.45 -5.0 1.6 -5.45 2.5 L-5.55 2.7 -5.65 2.7 -5.65 2.8 Q-6.25 3.05 -6.55 3.75 L-7.4 5.2 Q-7.8 6.4 -7.8 7.45 -7.85 8.85 -6.7 11.5 L-6.4 11.55 -6.4 11.45 Q-7.65 7.95 -7.6 7.35 L-7.5 6.0 -6.8 9.05 -6.25 10.65 Q-6.3 12.05 -5.2 12.75 L-4.8 13.0 -2.8 13.4 -2.4 13.7 Q1.6 13.8 1.65 12.25 L1.65 12.05 1.65 11.85 1.55 11.65 Q1.3 10.55 -0.25 10.5 L-0.45 10.5 -0.75 10.3 -0.9 10.1 Q-0.3 10.5 0.95 10.55 L1.7 10.25 2.5 10.3 Q2.5 10.8 2.95 11.4 3.55 12.4 4.8 12.45 8.25 12.55 8.4 7.6 8.55 5.35 7.75 4.6 M-6.95 6.1 L-6.95 6.7 -6.85 7.0 -7.0 7.85 -7.05 6.7 -6.95 6.1 M-6.9 8.25 L-6.4 9.25 -6.45 9.35 -6.15 9.9 -6.15 10.05 -6.9 8.25 M11.85 3.7 Q12.8 5.7 12.75 7.5 12.5 15.15 -0.7 14.75 L-5.15 14.4 Q-6.75 13.85 -7.75 11.4 -8.95 8.4 -8.9 7.1 -8.8 2.5 -4.8 0.95 -5.7 1.8 -6.45 2.95 -5.3 1.4 -3.3 0.6 L-0.95 0.25 -0.85 0.4 1.7 0.55 5.35 0.55 5.55 0.65 7.05 0.3 Q9.3 0.35 11.85 3.7 M2.15 4.55 L3.3 4.15 Q4.1 3.35 5.35 3.4 6.25 3.45 7.3 4.15 L6.35 3.95 Q4.2 3.9 3.55 4.9 L2.45 4.8 2.35 4.55 2.15 4.55 M-1.5 9.2 L-1.85 8.8 -1.9 7.4 -0.5 4.7 0.3 4.7 0.8 4.75 Q-1.6 5.25 -1.7 8.2 L-1.5 9.2 M0.1 5.6 Q0.4 5.3 0.8 5.35 L3.35 5.7 2.4 6.9 2.4 7.85 2.5 7.85 3.75 5.7 3.95 5.7 4.05 5.7 4.2 5.65 4.2 5.55 6.0 4.6 Q7.85 4.65 7.8 7.6 7.25 11.8 4.8 11.75 3.0 9.75 2.5 9.75 L0.65 10.0 Q-1.15 9.95 -1.1 8.15 L-0.95 7.55 Q-0.9 8.35 0.0 8.35 1.55 8.4 1.6 6.75 1.75 5.55 0.5 5.5 L0.1 5.6 M3.85 8.35 L3.95 9.35 Q4.15 10.35 5.35 10.35 7.1 10.4 7.2 7.45 7.65 5.65 6.1 5.6 3.95 5.5 3.85 8.35" fill="#ef3f03" fill-rule="evenodd" stroke="none"/>
    <path d="M-2.55 1.05 L-0.8 0.9 Q1.3 0.95 1.65 1.5 4.3 1.6 5.35 0.95 9.0 1.05 10.75 3.55 11.9 5.35 11.85 6.95 L11.5 8.9 11.5 9.2 11.3 9.5 Q10.75 10.8 10.05 10.8 8.75 12.15 8.15 12.15 7.55 12.15 7.6 11.45 7.6 11.25 8.75 9.4 8.45 8.5 8.5 6.85 L8.95 5.45 8.05 4.75 7.75 4.6 7.3 4.15 Q6.25 3.45 5.35 3.4 4.1 3.35 3.3 4.15 L2.15 4.55 0.8 4.75 0.3 4.7 -0.5 4.7 -1.9 7.4 -1.85 8.8 -1.5 9.2 -0.95 10.05 -0.9 10.1 -0.75 10.3 -0.45 10.5 -0.25 10.5 Q1.3 10.55 1.55 11.65 L1.65 11.85 1.65 12.05 1.65 12.25 Q1.6 13.8 -2.4 13.7 L-2.8 13.4 -4.8 13.0 -5.2 12.75 Q-6.3 12.05 -6.25 10.65 L-5.5 11.75 -5.4 11.35 -6.15 10.05 -6.15 9.9 -6.45 9.35 -6.4 9.25 -6.9 8.25 -7.0 7.85 -6.85 7.0 -6.95 6.7 -6.95 6.1 Q-6.7 4.9 -5.55 3.4 -3.35 2.05 -2.55 1.05 M0.1 5.6 L0.5 5.5 Q1.75 5.55 1.6 6.75 1.55 8.4 0.0 8.35 -0.9 8.35 -0.95 7.55 L-0.95 7.45 Q-0.9 5.8 0.1 5.6 M3.85 8.35 Q3.95 5.5 6.1 5.6 7.65 5.65 7.2 7.45 7.1 10.4 5.35 10.35 4.15 10.35 3.95 9.35 L3.85 8.35 M5.6 8.5 Q6.5 8.55 6.55 7.4 6.0 6.1 5.7 6.05 4.9 6.05 4.85 7.5 4.8 8.5 5.6 8.5" fill="#fd7040" fill-rule="evenodd" stroke="none"/>
    <path d="M-6.25 10.65 L-6.8 9.05 -7.5 6.0 -7.45 5.7 -7.4 5.5 -7.4 5.2 -6.55 3.75 Q-6.25 3.05 -5.65 2.8 L-5.65 2.7 -5.55 2.7 -5.45 2.5 Q-5.0 1.6 -4.35 1.45 -3.4 0.7 -2.8 0.7 L-2.45 0.85 -2.55 1.05 Q-3.35 2.05 -5.55 3.4 -6.7 4.9 -6.95 6.1 L-7.05 6.7 -7.0 7.85 -6.9 8.25 -6.15 10.05 -5.4 11.35 -5.5 11.75 -6.25 10.65 M5.6 8.5 Q4.8 8.5 4.85 7.5 4.9 6.05 5.7 6.05 6.0 6.1 6.55 7.4 6.5 8.55 5.6 8.5" fill="#fea283" fill-rule="evenodd" stroke="none"/>
    <path d="M8.75 -28.25 L7.1 -28.7 2.0 -29.45 0.8 -29.5 -1.65 -29.45 M-2.05 -29.4 Q-12.45 -28.9 -20.4 -21.45 -22.5 -19.4 -24.05 -17.1 -29.3 -10.0 -29.55 -0.75 -29.9 11.55 -21.6 20.45 -13.1 29.45 -0.9 29.8 6.0 30.0 11.85 27.3 L14.25 26.2 Q17.35 24.3 20.2 21.65 22.9 19.0 24.85 16.0 L25.2 15.4 25.5 14.9 Q29.2 8.7 29.45 0.95 29.8 -11.05 21.7 -19.95 L21.4 -20.25 Q15.95 -26.1 8.75 -28.25 Z" fill="none" stroke="#865204" stroke-linecap="round" stroke-linejoin="round" stroke-width="0.5"/>
    <path d="M55.0 -26.95 L38.4 -47.1 43.75 -53.3 59.5 -33.05 55.0 -26.95 M56.0 36.5 L41.5 51.15 38.4 46.35 53.15 30.85 56.0 36.5 M-60.75 -31.15 L-63.85 -34.3 -55.1 -51.2 -52.0 -47.5 -60.75 -31.15 M-64.55 29.75 L-47.6 44.95 -51.2 50.65 -68.7 35.75 -64.55 29.75" fill="#e6e6e6" fill-opacity="0.49803922" fill-rule="evenodd" stroke="none"/>
  </g>
</svg>
