<?xml version="1.0" encoding="UTF-8" standalone="no"?>
<svg xmlns:xlink="http://www.w3.org/1999/xlink" height="112.55px" width="137.1px" xmlns="http://www.w3.org/2000/svg">
  <g transform="matrix(1.0, 0.0, 0.0, 1.0, 72.45, 57.35)">
    <path d="M54.65 24.1 L46.3 32.75 38.5 31.5 33.7 38.35 -58.85 45.1 -60.55 4.9 -54.0 0.5 -60.9 -3.95 -62.3 -36.7 51.75 -45.05 54.65 24.1" fill="#666666" fill-rule="evenodd" stroke="none"/>
    <path d="M54.65 24.1 L51.75 -45.05 -62.3 -36.7 -60.9 -3.95 -66.65 -7.65 -67.95 -40.4 57.25 -49.6 60.4 26.85 54.65 24.1 M-60.55 4.9 L-58.85 45.1 33.7 38.35 30.65 42.6 -64.35 49.6 -66.0 8.5 -60.55 4.9" fill="#333333" fill-rule="evenodd" stroke="none"/>
    <path d="M4.35 -27.5 L4.35 -27.6 Q1.6 -30.1 -4.55 -29.75 L-6.4 -29.55 Q-10.65 -28.75 -10.55 -27.0 -10.4 -24.55 -5.15 -24.85 2.9 -25.3 4.35 -27.5 M8.95 -24.8 L8.8 -25.2 2.1 -24.8 Q-3.45 -24.1 -8.4 -22.25 L-7.85 -21.95 Q-2.25 -24.15 8.85 -24.35 L8.95 -24.8 M19.65 -13.45 L20.2 -13.3 Q23.2 -12.65 24.25 -11.4 L24.45 -11.5 24.55 -11.8 Q24.45 -13.7 19.1 -16.35 13.0 -19.5 6.75 -19.15 2.9 -18.95 3.1 -15.65 L3.35 -14.45 Q3.85 -13.5 5.2 -13.45 3.05 -12.7 3.1 -12.05 3.15 -11.15 4.35 -11.2 6.3 -11.3 7.8 -12.2 9.3 -13.05 14.1 -13.3 17.2 -13.5 18.65 -11.45 21.35 -7.55 23.45 -6.05 24.25 -7.0 24.25 -7.3 L22.1 -10.15 22.75 -10.3 22.75 -10.85 21.75 -10.8 21.05 -11.75 19.65 -13.45 M13.65 -21.65 Q14.05 -21.9 14.25 -22.45 13.45 -23.15 13.0 -23.05 -3.9 -21.85 -8.4 -20.4 -10.55 -18.95 -13.1 -18.5 L-13.0 -18.25 Q-6.65 -20.6 -1.5 -20.9 L13.65 -21.65 M-16.6 -11.9 L-16.95 -11.75 Q-20.45 -9.95 -21.15 -8.8 L-21.1 -7.9 -20.65 -7.8 -16.3 -10.45 Q-12.55 -12.25 -10.0 -12.4 -8.15 -12.5 -5.65 -11.0 L-3.65 -10.65 -2.2 -9.85 Q0.2 -10.0 1.75 -11.75 L1.1 -11.8 0.0 -11.5 Q-1.0 -11.45 -2.0 -12.4 L-0.75 -12.1 Q1.0 -12.2 0.9 -14.0 0.85 -14.95 -0.75 -16.8 -2.75 -19.15 -4.95 -19.05 -14.35 -18.5 -23.1 -9.65 L-22.65 -9.55 -16.95 -11.9 -16.6 -11.9 M3.9 -1.5 L2.85 -4.1 Q1.75 -8.75 0.75 -8.7 -0.65 -8.6 -0.55 -6.85 L0.0 -3.95 0.4 -1.0 0.45 -0.9 Q-2.9 2.15 -3.05 3.6 L-3.05 3.8 Q-4.0 3.9 -4.55 4.25 L-5.55 4.4 -5.5 4.85 -5.05 4.95 -4.95 5.3 -4.65 5.35 Q-3.55 5.3 -3.1 4.65 L0.5 4.25 0.9 4.05 1.15 4.05 4.55 3.4 Q5.75 3.3 5.7 2.65 5.65 1.8 4.45 2.2 L4.45 2.1 5.05 1.15 Q3.8 -0.2 3.75 -0.65 L3.9 -1.5 M22.15 -3.65 Q21.9 -5.95 19.65 -8.35 17.9 -10.15 16.3 -10.6 15.9 -10.65 14.3 -11.65 13.9 -12.0 9.4 -11.75 6.75 -11.6 4.15 -8.7 3.6 -8.2 3.8 -4.8 4.0 -1.5 4.9 -0.15 5.45 0.6 7.7 1.9 L9.3 2.7 8.95 2.6 8.85 2.6 8.9 2.95 10.35 3.05 10.55 3.15 Q11.65 3.55 12.8 3.55 13.15 4.0 14.8 3.9 L14.8 4.15 18.9 4.65 Q21.5 4.5 23.9 2.95 L23.3 2.85 20.1 4.4 14.8 3.8 13.8 3.5 Q16.15 3.25 18.0 2.4 L17.9 2.5 18.0 2.85 19.2 2.9 20.65 2.6 Q19.5 3.55 16.55 3.7 L14.65 3.7 17.3 4.1 Q18.85 4.0 20.45 3.0 L21.0 2.35 22.45 1.4 Q24.0 0.05 24.0 -0.45 L24.0 -0.6 24.35 -0.35 25.05 -0.95 Q24.15 -1.8 23.45 -1.75 L23.3 -0.85 Q22.65 -0.6 21.2 0.75 L19.3 1.7 20.35 0.6 Q21.65 -0.75 22.15 -2.15 L24.0 -2.25 24.1 -2.35 22.65 -2.45 22.1 -2.35 22.15 -3.25 Q23.25 -3.4 24.05 -4.0 L23.85 -4.1 Q22.65 -4.05 22.15 -3.65 M32.0 6.85 Q31.25 10.9 29.45 14.65 L29.5 14.85 28.3 17.0 25.85 20.4 25.55 20.9 24.45 22.15 24.2 22.4 Q15.35 32.45 1.95 33.25 -11.45 34.0 -21.5 25.05 -28.1 19.15 -30.65 11.5 L-30.65 11.4 -30.55 11.35 Q-30.1 10.25 -29.3 10.2 L-27.85 10.3 Q-26.75 10.25 -26.8 9.6 L-27.05 9.05 -26.55 7.85 -26.2 8.45 -25.45 5.9 Q-25.15 5.9 -25.2 5.35 L-25.45 4.7 Q-24.9 4.2 -25.1 2.8 L-23.5 1.4 -22.6 0.45 -22.85 0.25 -22.95 0.35 -22.95 0.05 Q-21.15 -0.6 -21.15 -0.85 L-21.6 -1.4 -24.95 -0.3 Q-26.05 -0.15 -26.6 0.35 -27.35 -1.25 -27.4 -2.45 L-26.4 -2.5 -26.1 -2.25 -24.85 -2.5 -26.65 -1.1 -26.2 -0.75 -25.2 -1.2 -25.2 -1.05 -25.1 -1.05 -24.55 -1.2 -24.6 -1.4 -23.85 -1.8 -23.05 -1.95 Q-22.95 -1.5 -22.65 -1.55 -21.95 -1.55 -22.0 -2.45 L-22.0 -3.0 -21.85 -3.35 Q-21.7 -0.95 -19.2 0.8 L-17.15 2.9 Q-15.35 4.15 -10.85 3.85 -8.8 3.75 -6.8 2.95 L-8.75 4.15 Q-10.1 5.05 -15.95 5.35 -16.9 5.4 -19.1 4.35 L-19.2 4.45 Q-18.0 5.7 -15.95 5.65 L-18.9 5.85 -16.0 6.1 -13.2 5.6 -13.5 5.5 -11.85 5.35 Q-17.75 6.95 -18.0 7.8 L-18.45 7.7 Q-20.65 7.85 -20.5 10.55 L-20.15 12.55 Q-20.1 14.2 -22.3 17.7 L-21.8 18.15 Q-22.4 18.85 -22.4 19.4 L-22.25 19.55 -22.3 20.5 -20.95 23.1 Q-20.3 23.05 -20.35 22.5 -21.15 21.35 -21.25 20.25 L-21.0 18.85 -21.0 18.75 Q-19.6 18.3 -18.15 12.4 L-18.65 10.45 Q-17.8 9.2 -17.65 8.6 L-16.5 8.8 Q-16.15 8.8 -16.35 8.65 L-16.75 8.15 Q-8.85 5.9 -8.9 5.35 -8.9 4.95 -9.25 4.85 -6.1 4.0 -6.2 2.6 L-3.55 0.45 Q-1.0 -2.2 -1.15 -4.4 -1.4 -9.0 -8.2 -11.3 -21.1 -9.45 -21.8 -4.35 L-22.35 -4.5 -22.8 -4.2 -26.05 -4.1 -26.2 -4.65 -26.3 -4.65 -26.3 -4.0 -24.8 -3.7 -25.35 -3.6 -25.7 -3.45 -27.35 -3.25 -27.3 -5.1 Q-27.35 -5.55 -28.75 -6.8 -29.95 -8.6 -30.6 -8.55 L-30.9 -8.5 Q-29.9 -12.25 -27.8 -15.65 -26.3 -18.25 -24.15 -20.7 -15.2 -30.65 -1.8 -31.4 L-0.5 -31.5 Q12.05 -31.8 21.55 -23.35 L21.95 -23.0 Q26.7 -18.65 29.3 -13.35 26.2 -11.5 26.35 -9.4 26.4 -8.4 27.5 -4.6 27.6 -3.3 26.75 1.0 L26.85 1.8 26.65 1.7 Q26.3 1.75 26.35 1.95 L27.55 3.7 28.15 5.25 Q28.35 6.25 29.25 6.2 L30.4 5.65 32.0 6.85 M25.35 -7.15 Q25.7 -7.15 26.0 -7.55 L25.4 -8.05 Q24.65 -8.0 24.7 -7.55 L25.35 -7.15 M23.65 1.45 L23.3 1.1 Q22.55 1.4 21.1 2.7 L21.9 3.05 Q23.75 2.95 23.65 1.45 M24.55 3.05 L24.45 3.05 Q25.0 4.1 25.05 5.4 L24.8 7.85 Q25.35 5.95 25.3 5.3 L24.55 3.05 M25.9 17.45 L26.45 16.9 Q25.25 16.85 25.0 13.25 24.85 10.5 24.35 9.4 23.75 10.45 23.9 13.3 L24.15 15.5 Q24.55 17.55 25.9 17.45 M26.55 9.6 Q25.85 9.65 25.9 10.2 25.95 11.2 26.65 11.15 L27.15 10.55 Q27.1 9.55 26.55 9.6 M22.8 11.35 Q22.35 7.55 20.6 7.65 20.4 7.65 20.4 7.8 19.8 6.9 18.0 6.0 15.35 4.75 13.6 4.85 L13.05 5.0 Q13.1 5.9 16.55 6.75 16.8 6.75 20.0 8.9 L20.1 8.9 20.75 10.65 20.85 15.9 21.1 18.1 21.1 18.75 Q21.7 21.35 23.25 21.25 24.55 21.2 24.5 20.3 22.95 18.3 22.8 15.8 L22.8 11.35 M-0.5 17.4 Q-0.75 16.8 -1.15 16.5 L-1.25 16.4 -1.15 16.4 -0.15 16.35 Q0.8 16.85 0.6 17.7 L0.7 17.6 0.4 16.3 3.45 15.9 3.6 16.0 3.7 15.95 3.9 16.1 4.35 15.95 3.7 15.85 13.6 14.2 Q15.15 14.2 17.65 13.2 L19.65 12.2 19.7 13.1 19.65 15.75 20.55 18.3 21.0 18.2 Q20.2 17.6 20.1 15.6 L20.15 13.05 19.95 11.65 Q19.35 8.6 16.7 8.75 L16.6 8.75 Q18.75 9.4 19.4 11.35 L19.05 11.4 Q18.0 12.3 15.05 13.0 L5.85 14.9 5.05 14.95 Q7.05 13.25 7.0 12.05 L6.9 11.85 6.8 11.85 4.65 14.95 2.45 15.2 -0.85 15.5 -1.2 15.5 -5.9 15.4 -7.3 14.2 -7.55 14.2 -7.5 14.65 -7.6 14.65 -7.55 15.2 Q-12.05 14.45 -16.4 12.4 -16.05 10.55 -14.3 8.8 -17.45 10.05 -16.95 14.1 -16.9 15.4 -20.15 19.65 -16.3 16.45 -16.5 14.45 -16.7 13.55 -16.5 12.6 -16.45 13.15 -10.9 14.85 -6.3 16.15 -3.0 16.35 L-2.75 16.8 -2.35 16.45 -1.8 16.45 Q-1.4 16.7 -0.6 18.25 L-0.5 18.2 Q-0.45 19.05 0.2 20.15 0.25 21.15 -0.6 22.75 L-0.2 23.25 Q1.2 22.0 1.1 20.1 0.55 17.15 -0.2 17.2 -0.55 17.2 -0.5 17.4 M-0.85 15.5 Q1.25 15.0 1.1 12.95 1.1 12.15 0.75 12.2 0.3 12.2 0.1 12.45 0.6 13.45 -0.85 15.5 M8.95 14.0 L9.3 13.9 9.3 13.6 Q8.75 13.65 8.75 13.95 L8.95 14.0 M3.3 10.85 L3.55 11.25 0.7 15.2 1.55 15.15 1.65 15.0 2.45 15.1 Q4.3 15.0 5.75 13.15 6.75 11.65 6.7 10.9 6.7 10.1 6.25 10.1 6.0 10.1 4.8 12.65 L3.05 13.95 Q4.35 12.65 4.3 11.55 L4.15 10.7 3.6 10.6 3.3 10.85 M7.05 13.35 L5.85 14.75 6.05 14.75 Q6.6 14.6 7.05 13.35 M-5.2 -28.15 L-5.45 -27.95 Q-7.7 -26.9 -8.45 -26.85 L-8.8 -27.1 Q-8.2 -28.0 -6.65 -28.1 L-5.2 -28.15 M1.9 16.65 Q1.2 16.65 1.2 17.1 1.3 18.95 2.75 20.25 3.15 19.75 3.15 19.1 L1.9 16.65 M5.85 16.4 L5.6 16.95 6.4 17.15 Q6.75 17.15 6.65 17.0 L6.6 16.8 5.85 16.4 M-22.45 -6.4 L-22.6 -6.7 Q-25.55 -7.2 -25.5 -7.75 L-25.95 -7.4 Q-25.9 -6.75 -23.45 -6.0 L-22.55 -6.05 -22.45 -6.4 M-21.3 2.15 L-21.4 2.45 Q-21.3 3.75 -19.85 3.7 L-19.5 3.55 Q-17.95 5.05 -16.3 4.95 L-16.0 4.8 -15.85 4.35 -19.1 2.45 -21.75 0.0 -22.1 0.2 -21.35 1.35 -21.45 1.35 -21.45 1.9 -21.3 2.15 M-21.35 1.35 L-20.6 2.3 -20.85 2.25 -21.35 1.35 M-11.55 15.0 Q-12.2 15.05 -12.15 15.6 L-9.2 17.4 -7.6 18.2 -6.5 18.3 -4.6 18.65 Q-3.65 19.7 -2.25 22.85 L-1.2 20.45 Q-2.85 16.8 -4.15 16.9 -6.65 17.0 -8.85 16.05 -11.1 14.95 -11.55 15.0 M-7.5 14.85 L-6.65 15.25 -7.3 15.2 -7.5 14.85 M-24.85 9.95 Q-24.2 12.95 -21.8 15.15 L-21.85 15.8 -21.5 15.55 -21.55 14.9 -24.8 8.3 Q-24.85 6.65 -24.25 5.95 L-24.5 5.85 Q-25.15 6.55 -25.05 8.3 L-24.85 9.95 Q-25.75 8.55 -26.0 8.55 L-26.1 8.55 -26.2 8.9 -25.0 10.5 -24.85 9.95 M-22.65 3.1 L-22.75 3.1 Q-22.7 4.2 -21.55 4.8 L-18.9 5.85 Q-19.8 5.55 -22.65 3.1 M-23.7 7.85 L-22.4 9.7 Q-21.75 9.65 -21.85 7.9 -21.75 6.1 -22.85 6.15 -23.8 6.2 -23.7 7.85 M-21.3 18.6 L-21.45 18.6 -21.35 18.5 -21.3 18.6" fill="#fbc87b" fill-rule="evenodd" stroke="none"/>
    <path d="M8.95 -24.8 L8.85 -24.35 Q-2.25 -24.15 -7.85 -21.95 L-8.4 -22.25 Q-3.45 -24.1 2.1 -24.8 L8.8 -25.2 8.95 -24.8 M4.35 -27.5 Q2.9 -25.3 -5.15 -24.85 -10.4 -24.55 -10.55 -27.0 -10.65 -28.75 -6.4 -29.55 L-4.55 -29.75 Q1.6 -30.1 4.35 -27.6 L4.35 -27.5 M7.7 -14.25 Q11.5 -15.55 14.65 -15.45 L17.15 -15.05 Q15.2 -15.25 12.9 -15.1 L7.7 -14.25 M5.2 -13.45 L5.65 -13.5 12.95 -14.35 Q15.25 -14.5 19.65 -13.45 L21.05 -11.75 21.75 -10.8 22.75 -10.85 22.75 -10.3 22.1 -10.15 24.25 -7.3 Q24.25 -7.0 23.45 -6.05 21.35 -7.55 18.65 -11.45 17.2 -13.5 14.1 -13.3 9.3 -13.05 7.8 -12.2 6.3 -11.3 4.35 -11.2 3.15 -11.15 3.1 -12.05 3.05 -12.7 5.2 -13.45 M13.65 -21.65 L-1.5 -20.9 Q-6.65 -20.6 -13.0 -18.25 L-13.1 -18.5 Q-10.55 -18.95 -8.4 -20.4 -3.9 -21.85 13.0 -23.05 13.45 -23.15 14.25 -22.45 14.05 -21.9 13.65 -21.65 M-2.0 -12.4 Q-1.0 -11.45 0.0 -11.5 L1.1 -11.8 1.75 -11.75 Q0.2 -10.0 -2.2 -9.85 L-3.65 -10.65 -5.65 -11.0 Q-8.15 -12.5 -10.0 -12.4 -12.55 -12.25 -16.3 -10.45 L-20.65 -7.8 -21.1 -7.9 -21.15 -8.8 Q-20.45 -9.95 -16.95 -11.75 L-16.6 -11.9 Q-12.7 -13.1 -8.75 -13.3 -6.1 -13.45 -2.0 -12.4 M3.9 -1.5 L3.75 -0.65 Q3.8 -0.2 5.05 1.15 L4.45 2.1 4.45 2.2 Q5.65 1.8 5.7 2.65 5.75 3.3 4.55 3.4 L1.15 4.05 0.9 4.05 0.5 4.25 -3.1 4.65 Q-3.55 5.3 -4.65 5.35 L-4.95 5.3 -5.05 4.95 -5.5 4.85 -5.55 4.4 -4.55 4.25 Q-4.0 3.9 -3.05 3.8 L-3.05 3.6 Q-2.9 2.15 0.45 -0.9 L0.4 -1.0 0.0 -3.95 -0.55 -6.85 Q-0.65 -8.6 0.75 -8.7 1.75 -8.75 2.85 -4.1 L3.9 -1.5 M19.3 1.7 L21.2 0.75 Q22.65 -0.6 23.3 -0.85 L23.45 -1.75 Q24.15 -1.8 25.05 -0.95 L24.35 -0.35 24.0 -0.6 24.0 -0.45 Q24.0 0.05 22.45 1.4 L21.0 2.35 20.65 2.6 19.2 2.9 18.0 2.85 17.9 2.5 18.0 2.4 Q18.6 2.0 19.3 1.7 M25.35 -7.15 L24.7 -7.55 Q24.65 -8.0 25.4 -8.05 L26.0 -7.55 Q25.7 -7.15 25.35 -7.15 M23.65 1.45 Q23.75 2.95 21.9 3.05 L21.1 2.7 Q22.55 1.4 23.3 1.1 L23.65 1.45 M22.8 11.35 L22.8 15.8 Q22.95 18.3 24.5 20.3 24.55 21.2 23.25 21.25 21.7 21.35 21.1 18.75 L21.1 18.1 20.85 15.9 20.75 10.65 20.1 8.9 20.0 8.9 Q16.8 6.75 16.55 6.75 13.1 5.9 13.05 5.0 L13.6 4.85 Q15.35 4.75 18.0 6.0 19.8 6.9 20.4 7.8 20.4 7.65 20.6 7.65 22.35 7.55 22.8 11.35 M26.55 9.6 Q27.1 9.55 27.15 10.55 L26.65 11.15 Q25.95 11.2 25.9 10.2 25.85 9.65 26.55 9.6 M25.9 17.45 Q24.55 17.55 24.15 15.5 L23.9 13.3 Q23.75 10.45 24.35 9.4 24.85 10.5 25.0 13.25 25.25 16.85 26.45 16.9 L25.9 17.45 M-0.5 17.4 Q-0.55 17.2 -0.2 17.2 0.55 17.15 1.1 20.1 1.2 22.0 -0.2 23.25 L-0.6 22.75 Q0.25 21.15 0.2 20.15 -0.45 19.05 -0.5 18.2 L-0.6 17.7 -0.5 17.4 M-7.5 14.65 L-7.55 14.2 -7.3 14.2 -5.9 15.4 -5.55 15.75 Q-5.5 15.95 -5.75 15.95 L-6.65 15.25 -7.5 14.85 -7.5 14.65 M-0.85 15.5 Q0.6 13.45 0.1 12.45 0.3 12.2 0.75 12.2 1.1 12.15 1.1 12.95 1.25 15.0 -0.85 15.5 M3.3 10.85 L3.6 10.6 4.15 10.7 4.3 11.55 Q4.35 12.65 3.05 13.95 L4.8 12.65 Q6.0 10.1 6.25 10.1 6.7 10.1 6.7 10.9 6.75 11.65 5.75 13.15 4.3 15.0 2.45 15.1 L1.65 15.0 1.55 15.15 0.7 15.2 3.55 11.25 3.3 10.85 M8.95 14.0 L8.75 13.95 Q8.75 13.65 9.3 13.6 L9.3 13.9 8.95 14.0 M5.85 16.4 L6.6 16.8 6.65 17.0 Q6.75 17.15 6.4 17.15 L5.6 16.95 5.85 16.4 M1.9 16.65 L3.15 19.1 Q3.15 19.75 2.75 20.25 1.3 18.95 1.2 17.1 1.2 16.65 1.9 16.65 M-5.2 -28.15 L-6.65 -28.1 Q-8.2 -28.0 -8.8 -27.1 L-8.45 -26.85 Q-7.7 -26.9 -5.45 -27.95 L-5.2 -28.15 M-22.45 -6.4 L-22.55 -6.05 -23.45 -6.0 Q-25.9 -6.75 -25.95 -7.4 L-25.5 -7.75 Q-25.55 -7.2 -22.6 -6.7 L-22.45 -6.4 M-24.8 -3.7 L-24.7 -3.8 -24.6 -3.7 -23.8 -3.75 -23.4 -3.7 -22.8 -4.2 -22.35 -4.5 -21.8 -4.35 -21.7 -4.25 -21.65 -4.0 -21.65 -3.8 -21.85 -3.35 -22.0 -3.0 -22.0 -2.45 Q-21.95 -1.55 -22.65 -1.55 -22.95 -1.5 -23.05 -1.95 L-23.05 -2.15 -23.85 -1.8 -24.6 -1.4 -24.55 -1.2 -25.1 -1.05 -25.2 -1.05 -25.2 -1.2 -26.2 -0.75 -26.65 -1.1 -24.85 -2.5 -26.1 -2.25 -26.4 -2.5 -27.4 -2.45 -27.4 -2.7 -27.35 -3.25 -25.7 -3.45 -25.35 -3.6 -24.8 -3.7 M-9.25 4.85 Q-8.9 4.95 -8.9 5.35 -8.85 5.9 -16.75 8.15 L-16.35 8.65 Q-16.15 8.8 -16.5 8.8 L-17.65 8.6 Q-17.8 9.2 -18.65 10.45 L-18.15 12.4 Q-19.6 18.3 -21.0 18.75 L-21.0 18.85 -21.25 20.25 Q-21.15 21.35 -20.35 22.5 -20.3 23.05 -20.95 23.1 L-22.3 20.5 -22.25 19.55 -22.4 19.4 Q-22.4 18.85 -21.8 18.15 L-22.3 17.7 Q-20.1 14.2 -20.15 12.55 L-20.5 10.55 Q-20.65 7.85 -18.45 7.7 L-18.0 7.8 Q-17.75 6.95 -11.85 5.35 L-10.45 4.9 -10.05 4.75 -9.25 4.85 M-26.6 0.35 Q-26.05 -0.15 -24.95 -0.3 L-21.6 -1.4 -21.15 -0.85 Q-21.15 -0.6 -22.95 0.05 L-22.95 0.35 -22.85 0.25 -22.6 0.45 -23.5 1.4 -25.1 2.8 Q-24.9 4.2 -25.45 4.7 L-25.2 5.35 Q-25.15 5.9 -25.45 5.9 L-26.2 8.45 -26.55 7.85 Q-25.25 4.45 -25.3 3.15 L-26.6 0.35 M-11.85 -13.85 L-8.8 -14.3 Q-5.05 -14.5 -3.4 -13.6 L-8.15 -14.25 -11.85 -13.85 M-21.35 1.35 L-22.1 0.2 -21.75 0.0 -19.1 2.45 -15.85 4.35 -16.0 4.8 -16.3 4.95 Q-17.95 5.05 -19.5 3.55 L-19.85 3.7 Q-21.3 3.75 -21.4 2.45 L-21.3 2.15 -21.2 1.8 -20.85 2.25 -20.6 2.3 -21.35 1.35 M-11.55 15.0 Q-11.1 14.95 -8.85 16.05 -6.65 17.0 -4.15 16.9 -2.85 16.8 -1.2 20.45 L-2.25 22.85 Q-3.65 19.7 -4.6 18.65 L-6.5 18.3 -7.6 18.2 -9.2 17.4 -12.15 15.6 Q-12.2 15.05 -11.55 15.0 M-24.85 9.95 L-25.0 10.5 -26.2 8.9 -26.1 8.55 -26.0 8.55 Q-25.75 8.55 -24.85 9.95 M-23.7 7.85 Q-23.8 6.2 -22.85 6.15 -21.75 6.1 -21.85 7.9 -21.75 9.65 -22.4 9.7 L-23.7 7.85 M-21.3 18.6 L-21.35 18.5 -21.45 18.6 -21.3 18.6" fill="#fcd79e" fill-rule="evenodd" stroke="none"/>
    <path d="M17.15 -15.05 Q19.65 -14.75 21.45 -13.75 15.1 -18.8 6.0 -18.25 4.5 -18.2 4.0 -16.9 L3.75 -15.7 Q3.85 -14.05 5.95 -14.15 L7.7 -14.25 12.9 -15.1 Q15.2 -15.25 17.15 -15.05 M19.65 -13.45 Q15.25 -14.5 12.95 -14.35 L5.65 -13.5 5.2 -13.45 Q3.85 -13.5 3.35 -14.45 L3.1 -15.65 Q2.9 -18.95 6.75 -19.15 13.0 -19.5 19.1 -16.35 24.45 -13.7 24.55 -11.8 L24.45 -11.5 24.25 -11.4 Q23.2 -12.65 20.2 -13.3 L19.65 -13.45 M-16.6 -11.9 L-16.95 -11.9 -22.65 -9.55 -23.1 -9.65 Q-14.35 -18.5 -4.95 -19.05 -2.75 -19.15 -0.75 -16.8 0.85 -14.95 0.9 -14.0 1.0 -12.2 -0.75 -12.1 L-2.0 -12.4 Q-6.1 -13.45 -8.75 -13.3 -12.7 -13.1 -16.6 -11.9 M9.3 2.7 L7.7 1.9 Q5.45 0.6 4.9 -0.15 4.0 -1.5 3.8 -4.8 3.6 -8.2 4.15 -8.7 6.75 -11.6 9.4 -11.75 13.9 -12.0 14.3 -11.65 15.9 -10.65 16.3 -10.6 17.9 -10.15 19.65 -8.35 21.9 -5.95 22.15 -3.65 L21.7 -3.2 22.15 -3.25 22.1 -2.35 21.8 -2.1 22.15 -2.15 Q21.65 -0.75 20.35 0.6 L19.3 1.7 Q18.6 2.0 18.0 2.4 16.15 3.25 13.8 3.5 L12.75 3.25 12.65 3.25 12.8 3.55 Q11.65 3.55 10.55 3.15 L11.2 3.25 9.3 2.7 M8.4 -4.95 Q8.35 -5.8 9.25 -5.85 10.35 -5.95 10.45 -4.75 10.5 -3.9 9.7 -3.85 L8.4 -4.95 M20.35 -0.5 Q21.6 -2.1 21.5 -3.4 21.3 -6.8 17.3 -9.25 13.75 -11.45 10.8 -11.25 4.1 -10.9 4.45 -4.85 4.7 -0.8 5.65 -0.3 10.55 2.85 13.4 2.7 L14.2 2.65 15.05 2.7 Q17.9 2.5 20.35 -0.5 M29.3 -13.35 L29.8 -13.1 29.55 -12.9 Q26.7 -10.75 26.8 -9.35 L27.9 -4.65 27.9 -3.3 27.8 -3.2 27.9 -3.2 27.2 1.0 27.35 2.1 Q27.85 2.7 28.6 4.45 L28.6 5.1 28.85 5.55 29.3 5.65 30.6 5.2 32.2 6.1 32.5 6.4 32.0 6.85 30.4 5.65 29.25 6.2 Q28.35 6.25 28.15 5.25 L27.55 3.7 26.35 1.95 Q26.3 1.75 26.65 1.7 L26.85 1.8 26.75 1.0 Q27.6 -3.3 27.5 -4.6 26.4 -8.4 26.35 -9.4 26.2 -11.5 29.3 -13.35 M-30.65 11.4 L-31.0 11.4 -30.8 10.95 Q-30.25 9.35 -28.65 9.8 L-27.25 9.7 -27.5 9.1 -26.35 6.25 -26.2 5.7 -26.2 5.6 Q-25.7 4.15 -25.75 3.15 L-26.85 0.65 Q-27.8 -1.25 -27.85 -2.45 L-27.85 -2.7 -27.75 -5.1 Q-30.85 -7.5 -30.9 -8.5 L-30.6 -8.55 Q-29.95 -8.6 -28.75 -6.8 -27.35 -5.55 -27.3 -5.1 L-27.35 -3.25 -27.4 -2.7 -27.4 -2.45 Q-27.35 -1.25 -26.6 0.35 L-25.3 3.15 Q-25.25 4.45 -26.55 7.85 L-27.05 9.05 -26.8 9.6 Q-26.75 10.25 -27.85 10.3 L-29.3 10.2 Q-30.1 10.25 -30.55 11.35 L-30.65 11.4 M-21.8 -4.35 Q-21.1 -9.45 -8.2 -11.3 -1.4 -9.0 -1.15 -4.4 -1.0 -2.2 -3.55 0.45 L-6.2 2.6 -6.2 2.5 -6.8 2.95 Q-8.8 3.75 -10.85 3.85 -15.35 4.15 -17.15 2.9 L-19.2 0.8 Q-21.7 -0.95 -21.85 -3.35 L-21.65 -3.8 -21.5 -4.0 -21.7 -4.25 -21.8 -4.35 M-21.25 -4.35 L-21.25 -4.65 -21.35 -4.65 -21.3 -3.8 -21.3 -3.6 -21.15 -3.15 Q-21.0 -2.15 -19.85 -0.85 L-18.75 0.35 Q-16.95 2.75 -16.3 2.75 L-16.2 2.7 -15.85 2.8 -15.95 3.05 -15.85 3.35 -15.2 3.3 -15.1 3.2 -15.3 3.0 -11.9 3.1 -11.85 3.2 -11.8 3.1 -11.7 3.1 Q-7.1 2.85 -4.05 -0.2 -1.7 -2.65 -1.8 -4.4 -1.85 -5.7 -3.75 -7.8 -6.2 -10.5 -9.15 -10.35 -15.2 -10.0 -18.65 -7.35 -20.75 -5.8 -21.25 -4.35 M-3.4 -13.6 L-0.8 -13.0 Q0.3 -13.1 0.25 -14.1 -0.05 -18.7 -7.5 -18.25 -8.95 -18.15 -14.7 -15.3 L-20.8 -11.1 Q-16.3 -13.0 -11.85 -13.85 L-8.15 -14.25 -3.4 -13.6 M-7.25 -5.9 Q-6.15 -6.0 -6.05 -4.9 -6.0 -3.25 -7.35 -3.15 L-8.35 -4.35 Q-8.45 -5.85 -7.25 -5.9" fill="#000000" fill-rule="evenodd" stroke="none"/>
    <path d="M17.15 -15.05 L14.65 -15.45 Q11.5 -15.55 7.7 -14.25 L5.95 -14.15 Q3.85 -14.05 3.75 -15.7 L4.0 -16.9 Q4.5 -18.2 6.0 -18.25 15.1 -18.8 21.45 -13.75 19.65 -14.75 17.15 -15.05 M9.9 -17.7 Q7.05 -17.55 6.95 -15.55 L7.5 -15.45 Q10.5 -16.85 10.45 -17.25 10.45 -17.7 9.9 -17.7 M29.55 -12.9 Q32.05 -7.45 32.45 -0.95 32.65 2.65 32.2 6.1 L30.6 5.2 29.3 5.65 28.85 5.55 28.6 5.1 28.6 4.45 Q27.85 2.7 27.35 2.1 L27.2 1.0 27.9 -3.2 29.3 -4.05 29.3 -3.85 Q29.45 -1.75 30.0 -1.7 30.65 -4.6 30.5 -7.35 L30.4 -7.65 30.3 -7.65 Q30.0 -6.4 27.9 -3.3 L27.9 -4.65 26.8 -9.35 Q26.7 -10.75 29.55 -12.9 M-30.8 10.95 Q-32.0 7.05 -32.25 2.8 -32.6 -3.25 -30.9 -8.5 -30.85 -7.5 -27.75 -5.1 L-27.85 -2.7 -27.85 -2.45 Q-27.8 -1.25 -26.85 0.65 L-25.75 3.15 Q-25.7 4.15 -26.2 5.6 L-26.2 5.7 -26.35 6.25 -27.5 9.1 -27.25 9.7 -28.65 9.8 Q-30.25 9.35 -30.8 10.95 M-29.1 -3.15 L-29.15 -4.1 Q-30.25 -2.4 -30.1 3.95 -29.85 8.1 -29.1 8.1 -28.0 8.0 -28.2 -3.2 -28.25 -4.05 -28.8 -3.95 -29.2 -2.9 -29.05 -1.9 L-29.35 -1.9 -29.1 -3.15 M-2.7 -16.85 L-2.9 -17.05 -9.85 -16.8 Q-10.8 -16.75 -13.85 -15.05 L-13.8 -14.4 -13.15 -14.4 Q-11.2 -15.5 -8.35 -15.55 L-3.35 -15.35 Q-2.6 -15.4 -2.65 -15.85 L-2.55 -16.4 -2.7 -16.85 M-11.85 -13.85 Q-16.3 -13.0 -20.8 -11.1 L-14.7 -15.3 Q-8.95 -18.15 -7.5 -18.25 -0.05 -18.7 0.25 -14.1 0.3 -13.1 -0.8 -13.0 L-3.4 -13.6 Q-5.05 -14.5 -8.8 -14.3 L-11.85 -13.85" fill="#c8c8c8" fill-rule="evenodd" stroke="none"/>
    <path d="M9.9 -17.7 Q10.45 -17.7 10.45 -17.25 10.5 -16.85 7.5 -15.45 L6.95 -15.55 Q7.05 -17.55 9.9 -17.7 M27.9 -3.2 L27.8 -3.2 27.9 -3.3 Q30.0 -6.4 30.3 -7.65 L30.4 -7.65 30.5 -7.35 Q30.65 -4.6 30.0 -1.7 29.45 -1.75 29.3 -3.85 L29.3 -4.05 27.9 -3.2 M-29.1 -3.15 L-29.35 -1.9 -29.05 -1.9 Q-29.2 -2.9 -28.8 -3.95 -28.25 -4.05 -28.2 -3.2 -28.0 8.0 -29.1 8.1 -29.85 8.1 -30.1 3.95 -30.25 -2.4 -29.15 -4.1 L-29.1 -3.15 M-2.7 -16.85 L-2.55 -16.4 -2.65 -15.85 Q-2.6 -15.4 -3.35 -15.35 L-8.35 -15.55 Q-11.2 -15.5 -13.15 -14.4 L-13.8 -14.4 -13.85 -15.05 Q-10.8 -16.75 -9.85 -16.8 L-2.9 -17.05 -2.7 -16.85" fill="#d8d8d8" fill-rule="evenodd" stroke="none"/>
    <path d="M14.2 2.65 L13.4 2.7 Q10.55 2.85 5.65 -0.3 4.7 -0.8 4.45 -4.85 4.1 -10.9 10.8 -11.25 13.75 -11.45 17.3 -9.25 21.3 -6.8 21.5 -3.4 21.6 -2.1 20.35 -0.5 L20.45 -0.7 20.35 -0.95 Q17.3 1.9 13.45 2.3 L14.2 2.65 M8.4 -4.95 L9.7 -3.85 Q10.5 -3.9 10.45 -4.75 10.35 -5.95 9.25 -5.85 8.35 -5.8 8.4 -4.95 M19.45 -2.85 L19.45 -2.55 19.7 -2.4 20.25 -2.7 Q20.1 -2.75 19.9 -2.85 L19.45 -2.85 M19.4 -2.0 L19.2 -1.7 19.3 -1.55 19.65 -1.55 19.85 -1.75 19.4 -2.0 M17.0 -1.5 L16.55 -1.35 Q15.35 -1.3 15.4 -0.75 15.7 -1.05 16.65 -1.15 L17.4 -0.85 18.25 -1.1 17.0 -1.5 M17.5 -2.2 L17.7 -2.75 17.45 -2.85 17.1 -2.8 17.3 -2.05 17.4 -2.05 19.0 -0.7 19.0 -0.6 19.15 -0.5 19.25 -0.6 19.35 -0.55 19.55 -0.75 19.55 -1.0 Q18.15 -2.2 17.7 -2.2 L17.5 -2.2 M20.95 -3.4 L20.85 -3.45 20.2 -3.15 20.9 -2.7 21.1 -2.95 21.0 -2.95 20.95 -3.4 M20.45 -2.35 L20.35 -2.35 20.4 -1.8 Q20.75 -1.5 20.85 -1.7 20.5 -2.05 20.45 -2.35 M-21.25 -4.35 Q-20.75 -5.8 -18.65 -7.35 -15.2 -10.0 -9.15 -10.35 -6.2 -10.5 -3.75 -7.8 -1.85 -5.7 -1.8 -4.4 -1.7 -2.65 -4.05 -0.2 -7.1 2.85 -11.7 3.1 L-11.8 3.1 -11.7 3.0 -11.8 2.55 -12.15 2.7 -11.9 3.1 -15.3 3.0 -15.65 2.6 -15.85 2.6 -15.85 2.8 -16.2 2.7 -16.1 2.6 -16.25 2.35 -16.8 1.75 -16.15 1.7 -16.2 1.6 Q-16.5 1.35 -17.15 1.35 L-17.85 0.6 Q-17.1 0.25 -16.95 -0.55 L-17.4 -0.95 Q-16.55 -1.4 -16.4 -1.8 L-17.55 -1.05 -18.25 -1.7 -18.35 -1.65 -17.35 -0.4 -18.1 0.5 Q-20.9 -2.75 -21.25 -4.35 M-18.75 0.35 L-19.85 -0.85 -19.35 -0.5 -18.75 0.35 M-7.25 -5.9 Q-8.45 -5.85 -8.35 -4.35 L-7.35 -3.15 Q-6.0 -3.25 -6.05 -4.9 -6.15 -6.0 -7.25 -5.9" fill="#ffffff" fill-rule="evenodd" stroke="none"/>
    <path d="M14.2 2.65 L13.45 2.3 Q17.3 1.9 20.35 -0.95 L20.45 -0.7 20.35 -0.5 Q17.9 2.5 15.05 2.7 L14.2 2.65 M17.5 -2.2 L17.7 -2.2 Q18.15 -2.2 19.55 -1.0 L19.55 -0.75 19.35 -0.55 19.25 -0.6 19.15 -0.5 19.0 -0.6 19.0 -0.7 17.4 -2.05 17.3 -2.05 17.1 -2.8 17.45 -2.85 17.7 -2.75 17.5 -2.2 M17.0 -1.5 L18.25 -1.1 17.4 -0.85 16.65 -1.15 Q15.7 -1.05 15.4 -0.75 15.35 -1.3 16.55 -1.35 L17.0 -1.5 M19.4 -2.0 L19.85 -1.75 19.65 -1.55 19.3 -1.55 19.2 -1.7 19.4 -2.0 M19.45 -2.85 L19.9 -2.85 Q20.1 -2.75 20.25 -2.7 L19.7 -2.4 19.45 -2.55 19.45 -2.85 M20.95 -3.4 L21.0 -2.95 21.1 -2.95 20.9 -2.7 20.2 -3.15 20.85 -3.45 20.95 -3.4 M20.45 -2.35 Q20.5 -2.05 20.85 -1.7 20.75 -1.5 20.4 -1.8 L20.35 -2.35 20.45 -2.35 M-19.85 -0.85 Q-21.0 -2.15 -21.15 -3.15 L-21.3 -3.6 -21.3 -3.8 -21.35 -4.65 -21.25 -4.65 -21.25 -4.35 Q-20.9 -2.75 -18.1 0.5 L-17.35 -0.4 -18.35 -1.65 -18.25 -1.7 -17.55 -1.05 -16.4 -1.8 Q-16.55 -1.4 -17.4 -0.95 L-16.95 -0.55 Q-17.1 0.25 -17.85 0.6 L-17.15 1.35 Q-16.5 1.35 -16.2 1.6 L-16.15 1.7 -16.8 1.75 -16.25 2.35 -16.1 2.6 -16.2 2.7 -16.3 2.75 Q-16.95 2.75 -18.75 0.35 L-19.35 -0.5 -19.85 -0.85 M-11.8 3.1 L-11.85 3.2 -11.9 3.1 -12.15 2.7 -11.8 2.55 -11.7 3.0 -11.8 3.1 M-15.3 3.0 L-15.1 3.2 -15.2 3.3 -15.85 3.35 -15.95 3.05 -15.85 2.8 -15.85 2.6 -15.65 2.6 -15.3 3.0" fill="#fe503d" fill-rule="evenodd" stroke="none"/>
    <path d="M22.15 -3.65 Q22.65 -4.05 23.85 -4.1 L24.05 -4.0 Q23.25 -3.4 22.15 -3.25 L21.7 -3.2 22.15 -3.65 M22.1 -2.35 L22.65 -2.45 24.1 -2.35 24.0 -2.25 22.15 -2.15 21.8 -2.1 22.1 -2.35 M21.0 2.35 L20.45 3.0 Q18.85 4.0 17.3 4.1 L14.65 3.7 16.55 3.7 Q19.5 3.55 20.65 2.6 L21.0 2.35 M13.8 3.5 L14.8 3.8 20.1 4.4 23.3 2.85 23.9 2.95 Q21.5 4.5 18.9 4.65 L14.8 4.15 14.8 3.9 Q13.15 4.0 12.8 3.55 L12.65 3.25 12.75 3.25 13.8 3.5 M10.55 3.15 L10.35 3.05 8.9 2.95 8.85 2.6 8.95 2.6 9.3 2.7 11.2 3.25 10.55 3.15 M24.55 3.05 L25.3 5.3 Q25.35 5.95 24.8 7.85 L25.05 5.4 Q25.0 4.1 24.45 3.05 L24.55 3.05 M-0.85 15.5 L2.45 15.2 4.65 14.95 6.8 11.85 6.9 11.85 7.0 12.05 Q7.05 13.25 5.05 14.95 L5.85 14.9 15.05 13.0 Q18.0 12.3 19.05 11.4 L19.4 11.35 Q18.75 9.4 16.6 8.75 L16.7 8.75 Q19.35 8.6 19.95 11.65 L20.15 13.05 20.1 15.6 Q20.2 17.6 21.0 18.2 L20.55 18.3 19.65 15.75 19.7 13.1 19.65 12.2 17.65 13.2 Q15.15 14.2 13.6 14.2 L3.7 15.85 4.35 15.95 3.9 16.1 3.7 15.95 3.6 16.0 3.45 15.9 0.4 16.3 0.7 17.6 0.6 17.7 Q0.8 16.85 -0.15 16.35 L-1.15 16.4 -1.25 16.4 -1.15 16.5 Q-0.75 16.8 -0.5 17.4 L-0.6 17.7 -0.5 18.2 -0.6 18.25 Q-1.4 16.7 -1.8 16.45 L-2.35 16.45 -2.75 16.8 -3.0 16.35 Q-6.3 16.15 -10.9 14.85 -16.45 13.15 -16.5 12.6 -16.7 13.55 -16.5 14.45 -16.3 16.45 -20.15 19.65 -16.9 15.4 -16.95 14.1 -17.45 10.05 -14.3 8.8 -16.05 10.55 -16.4 12.4 -12.05 14.45 -7.55 15.2 L-7.6 14.65 -7.5 14.65 -7.5 14.85 -7.3 15.2 -6.65 15.25 -5.75 15.95 Q-5.5 15.95 -5.55 15.75 L-5.9 15.4 -1.2 15.5 -0.85 15.5 M7.05 13.35 Q6.6 14.6 6.05 14.75 L5.85 14.75 7.05 13.35 M-24.8 -3.7 L-26.3 -4.0 -26.3 -4.65 -26.2 -4.65 -26.05 -4.1 -22.8 -4.2 -23.4 -3.7 -23.8 -3.75 -24.6 -3.7 -24.7 -3.8 -24.8 -3.7 M-6.2 2.6 Q-6.1 4.0 -9.25 4.85 L-10.05 4.75 -10.45 4.9 -11.85 5.35 -13.5 5.5 -13.2 5.6 -16.0 6.1 -18.9 5.85 -15.95 5.65 Q-18.0 5.7 -19.2 4.45 L-19.1 4.35 Q-16.9 5.4 -15.95 5.35 -10.1 5.05 -8.75 4.15 L-6.8 2.95 -6.2 2.5 -6.2 2.6 M-23.05 -1.95 L-23.85 -1.8 -23.05 -2.15 -23.05 -1.95 M-21.65 -3.8 L-21.65 -4.0 -21.7 -4.25 -21.5 -4.0 -21.65 -3.8 M-21.3 2.15 L-21.45 1.9 -21.45 1.35 -21.35 1.35 -20.85 2.25 -21.2 1.8 -21.3 2.15 M-24.85 9.95 L-25.05 8.3 Q-25.15 6.55 -24.5 5.85 L-24.25 5.95 Q-24.85 6.65 -24.8 8.3 L-21.55 14.9 -21.5 15.55 -21.85 15.8 -21.8 15.15 Q-24.2 12.95 -24.85 9.95 M-22.65 3.1 Q-19.8 5.55 -18.9 5.85 L-21.55 4.8 Q-22.7 4.2 -22.75 3.1 L-22.65 3.1" fill="#865204" fill-rule="evenodd" stroke="none"/>
    <path d="M29.55 -12.9 Q32.05 -7.45 32.45 -0.95 32.65 2.65 32.2 6.1 M32.0 6.85 Q31.25 10.9 29.45 14.65 L29.5 14.85 28.3 17.0 25.85 20.4 25.55 20.9 24.45 22.15 24.2 22.4 Q15.35 32.45 1.95 33.25 -11.45 34.0 -21.5 25.05 -28.1 19.15 -30.65 11.5 L-30.65 11.4 M-30.8 10.95 Q-32.0 7.05 -32.25 2.8 -32.6 -3.25 -30.9 -8.5 -29.9 -12.25 -27.8 -15.65 -26.3 -18.25 -24.15 -20.7 -15.2 -30.65 -1.8 -31.4 L-0.5 -31.5 Q12.05 -31.8 21.55 -23.35 L21.95 -23.0 Q26.7 -18.65 29.3 -13.35" fill="none" stroke="#865204" stroke-linecap="round" stroke-linejoin="round" stroke-width="0.5"/>
    <path d="M58.65 -32.15 L38.7 -50.65 44.0 -57.35 63.05 -38.7 58.65 -32.15 M40.8 41.4 L38.65 34.6 62.9 15.8 64.65 23.55 40.8 41.4 M-60.55 -42.45 L-68.75 -25.4 -72.45 -28.2 -64.3 -45.85 -60.55 -42.45 M-47.8 49.25 L-51.25 55.2 -71.65 42.05 -67.7 35.7 -47.8 49.25" fill="#e6e6e6" fill-opacity="0.49803922" fill-rule="evenodd" stroke="none"/>
  </g>
</svg>
