<?xml version="1.0" encoding="UTF-8" standalone="no"?>
<svg xmlns:xlink="http://www.w3.org/1999/xlink" height="110.95px" width="164.5px" xmlns="http://www.w3.org/2000/svg">
  <g transform="matrix(1.0, 0.0, 0.0, 1.0, 82.25, 56.6)">
    <path d="M-66.15 44.15 L-70.1 -37.65 66.2 -44.3 70.15 37.5 -66.15 44.15" fill="#666666" fill-rule="evenodd" stroke="none"/>
    <path d="M-66.15 44.15 L70.15 37.5 66.2 -44.3 -70.1 -37.65 -66.15 44.15 M-77.05 -41.4 L72.75 -48.65 77.1 41.25 -72.7 48.55 -77.05 -41.4" fill="#333333" fill-rule="evenodd" stroke="none"/>
    <path d="M2.65 -28.5 L2.6 -28.2 2.6 -28.0 2.4 -28.0 2.15 -28.55 2.65 -28.5 M3.25 -28.05 L3.0 -28.5 4.15 -28.25 4.15 -28.05 3.95 -28.05 3.25 -28.05 M11.95 -18.7 L11.95 -19.5 12.15 -19.5 12.35 -19.2 12.5 -18.55 12.4 -18.55 12.5 -18.25 12.65 -17.45 12.7 -17.75 12.75 -17.55 12.75 -17.35 12.45 -17.35 12.35 -17.35 12.3 -17.65 11.95 -18.7 M14.05 -19.1 Q14.25 -19.4 14.7 -19.4 L14.5 -19.1 Q14.5 -18.8 14.6 -18.8 15.1 -19.15 15.4 -19.65 L15.7 -19.65 15.9 -19.45 13.75 -17.6 13.7 -17.7 13.65 -17.5 13.65 -17.4 13.45 -17.3 13.05 -17.0 13.15 -17.5 13.15 -17.6 13.25 -17.5 13.5 -18.0 13.6 -18.2 13.6 -18.4 13.7 -18.5 13.95 -18.95 14.05 -19.1 M16.1 -21.3 L16.3 -21.3 17.95 -19.05 18.3 -18.45 18.4 -18.45 18.75 -17.15 18.65 -17.15 17.25 -18.95 15.9 -21.0 15.9 -21.3 16.1 -21.3 M18.95 -17.65 L19.15 -17.65 19.05 -17.15 18.95 -17.65 M19.35 -17.7 Q20.15 -18.05 21.15 -18.95 L21.25 -19.1 21.35 -18.8 21.35 -18.7 20.5 -17.85 19.1 -16.65 19.05 -17.0 19.2 -16.85 19.35 -17.7 M-25.85 12.2 L-26.35 12.2 Q-28.05 8.95 -28.45 0.5 -28.7 -4.9 -27.95 -7.5 -27.35 -9.7 -25.25 -13.15 L-25.15 -13.3 -23.8 -15.4 -25.6 -12.25 Q-28.3 -7.3 -28.15 -4.25 L-28.05 -4.05 Q-28.45 -1.45 -28.3 1.2 -28.0 7.5 -25.85 12.2 M-24.7 -14.35 L-23.85 -15.9 Q-21.85 -19.05 -18.3 -21.75 L-19.1 -20.9 Q-20.05 -19.5 -21.7 -17.65 L-23.8 -15.4 -24.7 -14.35 M-17.35 -22.5 L-16.95 -22.8 Q-14.4 -24.7 -12.1 -25.85 L-12.1 -25.7 -13.15 -25.15 -12.05 -25.6 -10.2 -25.1 -10.6 -25.0 -11.5 -24.45 -12.4 -24.6 -13.0 -24.45 -12.8 -24.3 -13.85 -24.35 -14.75 -24.2 -14.75 -24.0 -12.9 -23.8 -13.3 -23.55 -14.05 -23.7 -14.25 -23.5 -14.1 -23.3 -13.8 -23.25 -14.2 -23.0 -15.6 -23.35 Q-16.1 -23.3 -16.1 -23.0 -16.1 -22.8 -15.1 -22.6 L-16.4 -21.85 -17.55 -20.9 -17.85 -21.0 -17.95 -20.85 -17.75 -20.8 -17.65 -20.8 -20.75 -18.0 -20.85 -17.7 Q-20.8 -16.75 -20.5 -16.35 L-20.45 -15.75 -20.75 -15.65 -21.15 -15.6 Q-21.8 -15.75 -21.4 -16.5 L-21.4 -16.6 -21.55 -16.6 -21.95 -16.75 -22.25 -16.75 -22.35 -16.35 -23.45 -14.8 -23.45 -14.7 -23.55 -14.6 -23.55 -14.5 -23.65 -14.4 -23.95 -14.0 -25.0 -11.75 Q-24.15 -11.4 -23.75 -8.2 L-23.8 -7.6 -23.75 -6.3 -23.8 -5.85 -23.85 -7.2 Q-24.65 -9.1 -24.7 -10.1 L-24.9 -10.1 -24.25 -6.8 -24.55 -7.55 -25.05 -8.8 -25.6 -10.6 -27.1 -7.15 Q-27.6 -5.05 -27.5 -0.4 L-27.4 -0.5 Q-26.85 0.1 -26.4 1.1 L-26.3 1.5 -26.4 1.6 -26.7 1.4 Q-27.3 0.75 -27.35 0.15 L-27.45 0.15 -27.45 0.45 -26.85 6.0 Q-26.8 7.3 -25.65 11.4 L-25.65 11.5 -25.65 11.9 -27.85 4.3 -28.15 0.65 -27.85 -3.55 -27.8 -4.55 Q-27.1 -11.35 -22.25 -16.75 L-20.3 -18.7 -21.2 -18.0 -17.9 -22.0 -17.35 -22.5 M-11.6 -26.3 Q-10.6 -26.85 -9.5 -27.2 L-7.7 -26.1 -8.6 -25.7 -9.6 -25.75 -9.1 -25.55 -9.2 -25.45 -11.0 -26.0 -10.75 -26.35 -10.95 -26.45 -11.3 -26.2 -11.6 -26.3 M-9.1 -27.4 Q-7.3 -28.1 -5.7 -28.2 L-4.9 -27.25 -5.0 -27.2 -6.8 -26.55 Q-8.25 -27.35 -9.1 -27.4 M-5.35 -28.2 L-3.05 -28.5 -2.8 -27.75 -4.1 -27.45 -4.7 -27.35 -5.35 -28.2 M-2.6 -28.55 L-2.3 -28.55 -1.5 -28.6 -1.45 -28.2 -1.35 -27.9 -1.95 -27.75 -1.95 -27.95 -2.25 -27.95 -2.6 -28.55 M-1.2 -28.6 L-0.8 -28.55 -1.2 -28.8 -1.1 -28.9 -0.3 -28.85 -0.3 -28.45 -0.05 -28.05 -0.55 -27.95 Q-0.8 -28.35 -1.0 -28.3 L-1.1 -28.3 -1.2 -28.6 M-0.1 -28.85 L1.75 -28.65 1.75 -28.55 2.0 -28.05 1.3 -28.05 0.75 -28.5 0.35 -28.4 0.5 -28.2 0.2 -28.2 -0.1 -28.85 M3.15 -23.85 Q2.25 -24.3 1.9 -25.4 L2.1 -25.4 2.65 -24.85 2.75 -24.95 2.3 -25.4 2.65 -25.35 2.85 -25.25 2.85 -25.15 3.05 -24.15 3.15 -23.85 M1.15 -16.4 L2.15 -14.8 2.05 -14.3 2.1 -14.0 1.15 -16.4 M11.2 -14.65 L11.1 -14.55 10.9 -14.9 11.0 -15.0 10.8 -15.5 11.3 -14.65 11.2 -14.65 M9.5 -15.15 L5.75 -17.5 6.2 -17.85 7.45 -17.1 8.55 -16.75 9.45 -15.9 9.55 -16.0 10.8 -14.6 9.5 -15.15 M10.7 -15.1 L9.75 -16.2 10.05 -16.05 10.7 -15.1 M2.65 -14.2 L2.9 -13.8 2.8 -13.5 2.5 -13.5 2.2 -13.5 2.0 -13.5 Q0.9 -13.85 0.35 -15.75 L0.2 -16.25 -0.05 -17.65 0.25 -17.75 0.45 -17.35 0.45 -17.25 1.85 -14.05 0.45 -15.85 0.35 -15.75 2.0 -13.7 2.0 -13.9 2.1 -14.0 2.1 -13.6 2.4 -13.6 2.5 -13.9 2.65 -14.2 M7.05 -20.65 L7.7 -20.15 Q7.7 -19.65 7.3 -19.65 L7.1 -19.75 7.1 -19.85 7.0 -19.85 6.4 -20.2 6.35 -20.7 6.15 -20.9 7.2 -20.25 6.15 -21.25 6.55 -21.0 6.95 -20.65 7.05 -20.65 M5.9 -21.15 L5.6 -21.3 5.7 -21.35 5.9 -21.15 M5.0 -20.55 L5.1 -20.45 5.0 -20.45 5.0 -20.55 M-2.25 -19.8 Q-1.55 -19.0 -0.6 -18.85 L0.3 -18.8 0.4 -18.8 0.4 -18.6 0.3 -18.6 0.0 -18.5 -1.8 -18.6 -0.6 -18.65 -0.6 -18.85 -2.45 -18.85 -2.7 -19.05 -2.95 -18.85 -3.4 -18.95 -3.45 -18.95 -3.8 -19.1 -3.8 -19.4 -3.8 -19.5 -3.6 -19.6 -3.5 -19.65 -2.7 -19.55 -2.25 -19.8 M2.55 -14.4 L2.55 -14.3 2.45 -14.1 2.55 -14.4 M-6.4 -24.5 L-5.4 -24.35 -6.1 -23.9 -6.45 -23.7 -7.8 -23.85 -7.9 -23.9 -8.15 -23.9 -8.15 -24.1 -7.9 -24.0 -6.4 -24.5 M-3.95 -24.5 L-3.85 -24.6 -3.95 -24.6 -4.7 -25.1 -4.4 -25.2 Q-4.8 -25.6 -4.85 -26.35 L-4.65 -26.55 -4.65 -26.65 -3.7 -25.15 Q-3.65 -24.85 -3.85 -24.5 L-3.95 -24.5 M-9.65 -14.0 L-6.7 -14.35 -4.9 -14.15 -4.45 -14.25 -4.05 -14.4 -4.05 -14.1 -4.35 -13.75 -6.55 -13.45 -12.05 -13.1 -12.55 -13.05 -16.95 -12.65 -18.45 -12.6 -18.45 -12.3 -18.55 -12.3 Q-18.6 -12.25 -18.8 -12.15 L-19.5 -12.15 -19.6 -12.1 -20.7 -11.95 -20.8 -11.95 -20.9 -12.05 -21.0 -12.25 Q-21.0 -12.65 -20.3 -12.7 -18.65 -13.35 -14.75 -13.55 L-9.65 -14.0 M-8.25 -18.4 L-9.05 -18.35 Q-8.0 -19.5 -4.6 -21.45 L-4.5 -21.55 -4.2 -21.05 Q-4.15 -20.75 -6.25 -19.4 -7.15 -18.95 -7.6 -18.5 L-4.55 -20.85 Q-8.0 -19.3 -8.25 -18.4 M-23.7 -5.55 L-23.7 -5.05 -23.75 -5.05 -23.8 -5.85 -23.7 -5.55 M-23.85 -5.05 L-24.05 -5.05 -24.1 -6.1 -23.85 -5.05" fill="#504d47" fill-rule="evenodd" stroke="none"/>
    <path d="M2.6 -28.0 L2.6 -28.2 2.65 -28.5 2.65 -28.6 2.8 -28.6 3.0 -28.5 3.25 -28.05 3.5 -26.95 3.55 -25.9 3.05 -25.75 2.95 -26.1 2.9 -26.25 2.75 -26.7 2.6 -28.0 M4.45 -28.2 L4.65 -28.2 4.95 -27.9 Q5.0 -27.1 4.25 -25.6 L4.15 -25.7 3.95 -26.0 4.4 -27.1 4.45 -28.2 M7.05 -25.25 L6.6 -26.35 6.7 -26.35 9.1 -22.8 9.25 -22.5 10.85 -19.65 10.8 -19.4 9.15 -21.6 8.75 -22.3 8.0 -23.65 7.05 -25.25 M10.8 -20.95 L10.7 -20.8 Q9.35 -21.9 9.2 -24.85 L8.5 -27.3 8.6 -27.3 10.9 -21.05 10.9 -20.95 10.8 -20.95 M12.25 -19.5 L10.6 -25.55 10.55 -26.25 10.85 -26.25 11.95 -21.55 12.3 -19.7 12.25 -19.5 M12.95 -20.95 L12.8 -20.4 Q12.15 -23.45 12.05 -24.9 L11.85 -25.6 12.05 -25.6 12.95 -21.5 12.95 -21.25 12.95 -20.95 M13.25 -19.15 L14.15 -24.5 14.35 -24.15 Q14.45 -22.05 14.05 -19.5 L13.95 -18.95 13.7 -18.5 13.6 -18.4 13.5 -18.4 13.3 -18.4 13.25 -19.15 M14.7 -19.4 L15.4 -21.6 15.6 -21.35 15.6 -21.15 15.6 -21.05 15.4 -19.65 Q15.1 -19.15 14.6 -18.8 14.5 -18.8 14.5 -19.1 L14.7 -19.4 M17.95 -19.05 L16.55 -22.35 16.65 -22.35 17.8 -20.35 18.4 -18.55 18.4 -18.45 18.3 -18.45 17.95 -19.05 M19.25 -19.05 Q18.85 -19.7 18.8 -20.9 L18.8 -22.15 19.0 -22.2 19.6 -20.05 19.8 -19.65 20.0 -19.05 19.85 -18.6 19.6 -18.7 19.25 -19.05 M21.15 -18.95 L20.95 -18.85 Q20.5 -19.2 20.5 -19.6 L20.7 -20.0 21.2 -19.15 21.25 -19.1 21.15 -18.95 M0.5 -28.2 L0.35 -28.4 0.75 -28.5 1.3 -28.05 Q1.8 -27.65 2.35 -26.5 L2.95 -25.45 2.95 -25.15 2.85 -25.15 2.85 -25.25 2.65 -25.35 Q1.8 -26.0 0.5 -28.2 M-0.55 -27.95 Q0.25 -26.5 1.75 -18.8 L1.65 -18.65 Q0.75 -20.65 0.35 -22.65 L0.3 -22.95 0.15 -23.35 -1.25 -28.0 -1.2 -28.3 -1.1 -28.3 -1.0 -28.3 Q-0.8 -28.35 -0.55 -27.95 M-1.95 -27.75 L-0.45 -23.7 Q-0.45 -23.6 -0.25 -23.6 L-0.2 -22.95 -0.3 -22.85 -1.8 -26.4 -2.45 -27.65 -2.45 -27.95 -2.25 -27.95 -1.95 -27.95 -1.95 -27.75 M2.6 -17.85 L2.5 -17.85 Q2.4 -17.75 2.4 -18.05 L2.55 -18.9 2.05 -23.15 2.25 -23.15 2.7 -19.35 2.75 -19.05 2.6 -17.85 M10.4 -17.05 Q9.3 -18.95 8.85 -20.15 L9.05 -20.15 Q9.65 -19.65 10.7 -17.15 L10.6 -17.05 10.4 -17.05 M8.35 -18.6 L8.25 -18.8 8.45 -19.0 8.75 -18.6 10.8 -15.5 11.0 -15.0 10.9 -14.9 10.8 -14.9 10.7 -15.1 10.05 -16.05 8.35 -18.6 M9.3 -16.8 L9.55 -16.0 9.45 -15.9 8.55 -16.75 7.1 -18.2 7.4 -18.3 7.5 -18.3 7.7 -18.3 9.3 -16.8 M6.0 -20.2 L5.65 -20.15 5.25 -20.35 5.1 -20.45 5.0 -20.55 4.8 -20.65 4.5 -20.8 3.65 -21.35 3.65 -21.55 3.95 -21.65 5.6 -21.3 5.9 -21.15 6.15 -20.9 6.35 -20.7 6.4 -20.2 6.0 -20.2 M7.2 -22.3 L6.9 -22.2 5.95 -24.5 6.15 -25.0 Q6.75 -24.55 7.15 -22.9 L7.2 -22.3 M7.35 -20.85 L7.35 -20.75 7.05 -20.65 6.95 -20.65 6.55 -21.0 Q4.9 -22.5 4.65 -23.5 L4.95 -23.5 5.8 -23.15 7.35 -20.85 M-0.95 -19.75 L-1.25 -19.65 -1.6 -20.1 -2.95 -22.2 -2.85 -22.2 -0.85 -19.85 -0.95 -19.75 M3.2 -19.75 L3.5 -20.55 3.85 -19.9 3.9 -18.9 Q3.8 -16.65 2.8 -15.75 L2.65 -16.15 Q2.55 -18.2 3.2 -19.75 M22.2 -17.3 L22.55 -16.3 22.5 -15.2 Q22.0 -15.35 21.95 -16.15 21.9 -17.2 22.2 -17.3 M-9.1 -25.55 L-9.6 -25.75 -8.6 -25.7 -7.95 -25.7 -7.85 -25.65 -7.85 -25.35 -8.4 -25.3 -9.1 -25.55 M-14.8 -14.35 L-19.35 -15.2 -18.7 -15.35 -14.7 -14.55 -12.85 -14.65 -12.85 -14.45 -14.8 -14.35 M-9.15 -15.1 L-9.3 -15.1 -9.9 -15.15 Q-12.65 -15.3 -15.8 -16.65 L-17.7 -17.65 -17.5 -17.65 -8.1 -15.45 -8.0 -15.35 -8.2 -15.25 -8.5 -15.1 -9.15 -15.1 M-13.8 -23.25 L-14.1 -23.3 -14.25 -23.5 -14.05 -23.7 -13.3 -23.55 -6.6 -22.55 -6.6 -22.05 -6.8 -21.9 -11.4 -22.6 -13.8 -23.25 M-12.8 -24.3 L-13.0 -24.45 -12.4 -24.6 -11.5 -24.45 -8.15 -23.9 -7.9 -23.9 -7.8 -23.85 -7.75 -23.55 -8.7 -23.5 -12.8 -24.3 M-13.5 -19.15 L-16.05 -20.15 -15.95 -20.25 -13.05 -19.15 -11.55 -18.55 -11.5 -18.45 -13.5 -19.15 M-23.45 -14.7 L-23.15 -14.8 Q-22.45 -14.85 -22.25 -12.4 -22.2 -11.45 -22.6 -9.5 L-22.8 -9.5 -22.85 -9.8 -22.9 -11.4 -22.7 -11.45 -22.7 -11.55 -23.1 -13.65 -23.25 -14.2 -23.25 -13.95 -23.4 -13.65 -23.55 -14.15 -23.65 -14.3 -23.65 -14.4 -23.55 -14.5 -23.55 -14.6 -23.45 -14.7 M-6.9 -20.5 L-7.95 -20.3 -16.65 -20.95 -15.7 -21.1 -13.45 -20.7 Q-6.85 -20.9 -6.9 -20.7 L-6.9 -20.5" fill="#504b47" fill-rule="evenodd" stroke="none"/>
    <path d="M2.6 -28.0 L2.75 -26.7 2.4 -28.0 2.6 -28.0 M2.95 -26.1 L3.05 -25.75 3.55 -25.9 3.5 -26.95 3.25 -28.05 3.95 -28.05 4.15 -28.05 Q4.0 -26.65 3.3 -24.75 L2.95 -26.1 M3.0 -28.5 L2.8 -28.6 2.65 -28.6 2.65 -28.5 2.15 -28.55 1.95 -29.3 1.75 -29.3 1.75 -28.65 -0.1 -28.85 -0.2 -28.95 -0.3 -28.95 -0.3 -28.85 -1.1 -28.9 -1.2 -28.8 -0.8 -28.55 -1.2 -28.6 -1.3 -29.05 -1.1 -29.15 -1.5 -29.15 -1.5 -28.6 -2.3 -28.55 -2.6 -28.55 -2.85 -28.75 -3.05 -28.5 -5.35 -28.2 -5.55 -28.5 -6.0 -28.35 -5.7 -28.2 Q-7.3 -28.1 -9.1 -27.4 L-9.3 -27.4 -9.5 -27.4 -9.5 -27.2 Q-10.6 -26.85 -11.6 -26.3 L-12.2 -26.25 -12.1 -25.85 Q-14.4 -24.7 -16.95 -22.8 L-17.35 -22.5 -16.95 -22.9 -18.2 -21.85 -18.3 -21.75 Q-21.85 -19.05 -23.85 -15.9 L-24.7 -14.35 -24.8 -14.2 -25.15 -13.35 -25.15 -13.3 -25.25 -13.15 Q-27.35 -9.7 -27.95 -7.5 -28.7 -4.9 -28.45 0.5 -28.05 8.95 -26.35 12.2 L-25.85 12.2 -25.75 12.5 Q-25.8 13.2 -26.1 13.75 -29.1 8.25 -29.45 1.35 -29.9 -7.9 -25.25 -15.4 -23.9 -17.75 -21.9 -20.0 -18.9 -23.3 -15.1 -25.45 -9.1 -29.2 -1.45 -29.55 L-0.25 -29.6 Q5.5 -29.7 10.7 -27.7 L10.9 -27.7 11.65 -27.35 Q12.05 -27.05 12.6 -26.85 16.4 -25.0 19.8 -22.0 L20.1 -21.7 22.2 -19.6 21.35 -18.8 21.25 -19.1 21.2 -19.15 20.7 -20.0 20.5 -19.6 Q20.5 -19.2 20.95 -18.85 L21.15 -18.95 Q20.15 -18.05 19.35 -17.7 19.4 -18.3 19.6 -18.7 L19.85 -18.6 20.0 -19.05 19.8 -19.65 20.05 -20.7 19.6 -20.05 19.0 -22.2 18.8 -22.15 18.8 -20.9 Q18.85 -19.7 19.25 -19.05 L19.15 -17.65 18.95 -17.65 17.5 -22.4 17.3 -22.4 17.8 -20.35 16.65 -22.35 16.55 -22.35 17.95 -19.05 16.3 -21.3 16.1 -21.3 15.8 -21.8 15.6 -21.8 15.6 -21.35 15.4 -21.6 14.7 -19.4 Q14.25 -19.4 14.05 -19.1 L15.7 -23.5 14.05 -19.5 Q14.45 -22.05 14.35 -24.15 L14.15 -24.5 13.25 -19.15 13.35 -23.4 13.2 -24.55 13.0 -24.55 12.95 -21.5 12.05 -25.6 11.85 -25.6 12.05 -24.9 Q12.15 -23.45 12.8 -20.4 L12.95 -20.95 Q12.8 -19.9 12.8 -18.65 12.55 -20.8 11.3 -26.55 L11.15 -26.55 11.15 -25.95 11.95 -21.55 10.85 -26.25 10.55 -26.25 10.6 -25.55 12.25 -19.5 12.35 -19.2 12.15 -19.5 11.95 -19.5 11.95 -18.7 11.65 -19.45 Q10.75 -22.3 10.35 -24.1 L10.25 -24.1 9.5 -27.25 9.3 -27.2 9.35 -26.65 10.15 -24.1 10.2 -23.45 11.35 -19.85 11.15 -19.65 11.15 -19.95 10.9 -20.95 10.9 -21.05 8.6 -27.3 8.5 -27.3 9.2 -24.85 Q9.35 -21.9 10.7 -20.8 L10.8 -20.95 11.1 -19.45 11.0 -19.35 11.4 -17.1 9.5 -20.85 9.5 -20.95 9.15 -21.6 10.8 -19.4 10.85 -19.65 9.25 -22.5 9.2 -23.1 8.75 -24.15 8.5 -24.75 9.1 -22.8 6.7 -26.35 6.6 -26.35 7.05 -25.25 6.1 -26.5 7.1 -27.8 7.0 -27.9 Q6.45 -27.6 3.85 -24.3 L4.05 -24.2 5.25 -25.55 3.3 -23.2 2.6 -24.15 3.15 -23.7 3.45 -23.55 3.35 -23.7 3.45 -23.8 3.55 -24.1 3.55 -24.2 4.15 -25.7 4.25 -25.6 Q5.0 -27.1 4.95 -27.9 L4.65 -28.2 4.45 -28.2 4.45 -28.3 4.3 -28.6 4.1 -28.55 4.15 -28.25 3.0 -28.5 M4.4 -27.1 L4.45 -28.1 4.45 -28.2 4.4 -27.1 M0.2 -28.2 L0.5 -28.2 Q1.8 -26.0 2.65 -25.35 L2.3 -25.4 Q0.75 -27.0 0.7 -27.4 L0.2 -28.2 M1.3 -28.05 L2.0 -28.05 2.35 -26.5 Q1.8 -27.65 1.3 -28.05 M2.35 -24.3 L1.55 -25.0 Q1.35 -24.85 1.25 -24.85 L1.25 -24.65 2.85 -23.0 2.75 -23.0 2.65 -22.7 2.75 -22.5 2.95 -22.6 Q2.7 -21.8 2.8 -20.05 L2.7 -19.35 2.25 -23.15 2.05 -23.15 2.55 -18.9 2.4 -18.05 Q2.4 -17.75 2.5 -17.85 L2.6 -17.85 2.4 -15.95 2.1 -19.6 Q1.95 -22.45 1.3 -23.85 L1.3 -24.15 1.15 -24.45 1.05 -24.45 0.95 -24.55 0.75 -24.55 1.0 -23.95 1.0 -23.85 1.2 -23.3 Q2.3 -20.2 2.15 -14.8 L1.15 -16.4 0.7 -17.8 1.15 -18.15 1.05 -18.25 1.15 -18.65 -0.8 -22.7 -0.9 -22.7 -1.7 -25.05 -1.8 -26.4 -0.3 -22.85 -0.2 -22.95 -0.25 -23.6 Q-0.45 -23.6 -0.45 -23.7 L-1.95 -27.75 -1.35 -27.9 0.15 -23.35 0.3 -22.95 0.35 -22.65 Q0.75 -20.65 1.65 -18.65 L1.75 -18.8 Q0.25 -26.5 -0.55 -27.95 L-0.05 -28.05 Q0.55 -26.9 2.1 -25.4 L1.9 -25.4 Q2.25 -24.3 3.15 -23.85 L3.15 -23.75 2.35 -24.4 2.35 -24.3 M3.2 -22.5 L3.3 -22.5 3.8 -23.05 5.7 -21.35 5.6 -21.3 3.95 -21.65 3.65 -21.55 3.65 -21.35 4.5 -20.8 Q4.4 -20.6 4.45 -20.3 L4.05 -20.1 4.25 -19.9 3.9 -18.9 3.85 -19.9 3.5 -20.55 3.2 -19.75 3.25 -21.6 3.2 -22.5 M3.9 -23.15 L4.8 -24.45 5.8 -23.15 4.95 -23.5 4.65 -23.5 Q4.9 -22.5 6.55 -21.0 L6.15 -21.25 3.9 -23.15 M5.0 -24.75 L5.5 -25.5 5.25 -25.55 6.0 -26.4 7.45 -23.2 7.25 -23.0 7.75 -20.6 8.1 -19.5 7.3 -19.45 7.2 -19.55 7.1 -19.75 7.3 -19.65 Q7.7 -19.65 7.7 -20.15 L7.05 -20.65 7.35 -20.75 7.35 -20.85 7.7 -20.45 7.75 -20.6 6.9 -22.2 Q5.4 -24.65 5.0 -24.75 M8.45 -20.9 L8.45 -21.35 8.0 -23.65 8.75 -22.3 8.65 -22.1 10.5 -18.6 11.5 -16.6 12.0 -14.25 Q9.95 -17.85 8.9 -18.95 L8.9 -19.05 8.45 -20.9 M13.05 -25.45 L12.95 -25.15 13.1 -24.75 13.15 -24.85 13.25 -25.35 13.25 -25.45 13.15 -25.65 12.85 -25.75 12.75 -25.65 13.05 -25.45 M7.8 -27.85 L7.6 -27.85 7.65 -27.25 8.3 -25.8 7.8 -27.85 M17.25 -18.95 L18.65 -17.15 18.55 -17.15 18.55 -16.95 18.9 -16.85 19.0 -16.35 18.9 -16.35 18.7 -16.55 17.25 -18.95 M15.6 -21.05 Q15.95 -20.3 16.4 -19.7 L14.2 -17.95 13.85 -17.6 13.75 -17.6 15.9 -19.45 15.7 -19.65 15.4 -19.65 15.6 -21.05 M12.8 -16.55 L12.6 -16.45 Q12.45 -16.95 12.45 -17.35 L12.75 -17.35 12.65 -16.85 12.8 -16.55 M13.25 -19.15 L13.3 -18.4 13.5 -18.4 13.15 -17.6 13.25 -19.15 M13.05 -17.0 L13.45 -17.3 13.35 -17.2 13.05 -16.9 13.05 -17.0 M24.85 -16.2 L24.75 -16.2 Q22.9 -14.6 22.8 -13.9 21.65 -16.5 20.95 -16.95 22.55 -18.65 22.6 -19.05 L24.85 -16.2 M10.4 -17.05 L10.6 -17.05 10.7 -17.15 Q9.65 -19.65 9.05 -20.15 L8.85 -20.15 Q9.3 -18.95 10.4 -17.05 M11.9 -14.35 L11.2 -14.65 11.3 -14.65 10.8 -15.5 8.75 -18.6 8.8 -18.75 11.9 -14.35 M5.75 -17.5 L5.55 -17.7 6.15 -18.8 7.05 -18.65 7.4 -18.3 7.1 -18.2 8.55 -16.75 7.45 -17.1 6.2 -17.85 5.75 -17.5 M7.35 -18.55 L8.35 -18.6 10.05 -16.05 9.75 -16.2 9.3 -16.8 7.7 -18.3 7.35 -18.55 M19.1 -16.55 L19.1 -16.65 20.5 -17.85 19.1 -16.55 M6.4 -20.0 L6.0 -20.2 6.4 -20.2 7.0 -19.85 6.5 -20.0 6.4 -20.0 M5.25 -20.35 L4.7 -20.45 4.8 -20.65 5.0 -20.55 5.0 -20.45 5.1 -20.45 5.25 -20.35 M4.55 -19.7 L5.5 -19.05 Q4.75 -18.25 3.4 -15.6 L3.4 -15.8 4.55 -19.7 M2.2 -13.5 L2.1 -13.4 2.0 -13.5 2.2 -13.5 M0.2 -16.25 L-0.95 -17.7 0.25 -17.75 0.45 -17.75 0.45 -17.35 0.25 -17.75 -0.05 -17.65 0.2 -16.25 M7.2 -22.3 L7.15 -22.9 Q6.75 -24.55 6.15 -25.0 L5.95 -24.5 6.9 -22.2 7.2 -22.3 M0.25 -19.2 L-0.05 -19.3 -1.25 -21.4 Q-2.8 -23.45 -3.1 -23.45 L-3.3 -23.45 Q-2.95 -22.7 -1.65 -21.25 L-0.25 -19.4 -0.95 -19.75 -0.85 -19.85 -2.85 -22.2 -2.95 -22.2 -1.6 -20.1 -2.85 -20.8 Q-3.95 -22.55 -4.8 -23.2 -2.45 -23.6 -2.5 -24.5 L-4.1 -27.45 Q-4.4 -27.35 -4.35 -27.05 L-4.35 -27.0 -4.7 -27.35 -4.1 -27.45 -2.8 -27.75 Q-1.9 -24.6 -1.0 -22.6 L-1.1 -22.2 0.25 -19.2 M-2.75 -20.35 L-2.25 -19.8 -2.7 -19.55 -3.5 -19.65 -2.75 -20.35 M0.4 -18.8 L0.55 -18.5 0.3 -18.6 0.4 -18.6 0.4 -18.8 M-4.0 -18.9 L-4.8 -18.95 -3.8 -19.4 -3.8 -19.1 -3.45 -18.95 -4.0 -18.9 M2.55 -14.4 Q2.55 -14.9 2.7 -15.4 L2.7 -15.3 2.55 -14.3 2.55 -14.4 M22.2 -17.3 Q21.9 -17.2 21.95 -16.15 22.0 -15.35 22.5 -15.2 L22.55 -16.3 22.2 -17.3 M-9.2 -25.45 L-9.1 -25.55 -8.4 -25.3 -7.85 -25.35 -7.85 -25.65 -7.95 -25.7 -8.6 -25.7 -7.7 -26.1 -5.35 -24.95 -8.8 -25.3 -9.2 -25.45 M-10.2 -25.1 L-6.4 -24.5 -7.9 -24.0 -8.15 -24.1 -8.15 -23.9 -11.5 -24.45 -10.6 -25.0 -10.2 -25.1 M-4.7 -25.1 L-6.8 -26.55 -5.0 -27.2 -4.9 -27.25 -4.45 -26.55 -4.15 -26.65 -3.95 -26.15 -3.15 -24.65 -3.85 -24.4 -3.85 -24.5 Q-3.65 -24.85 -3.7 -25.15 L-4.65 -26.65 -4.65 -26.55 -4.85 -26.35 Q-4.8 -25.6 -4.4 -25.2 L-4.7 -25.1 M-21.15 -15.6 L-20.75 -15.65 -20.45 -15.75 -20.5 -16.35 Q-20.8 -16.75 -20.85 -17.7 L-20.75 -18.0 -17.65 -20.8 -17.65 -20.7 -16.5 -19.8 -16.7 -19.6 Q-15.4 -18.75 -11.35 -17.2 -10.85 -16.9 -6.35 -15.15 L-6.55 -15.1 -7.05 -15.0 -8.2 -15.25 -8.0 -15.35 -8.1 -15.45 -17.5 -17.65 -17.7 -17.65 -15.8 -16.65 -16.35 -16.75 -18.8 -17.5 -19.05 -17.65 -19.25 -17.45 -19.25 -17.35 -19.55 -17.15 Q-18.45 -16.55 -14.15 -15.35 L-10.45 -15.1 -9.9 -15.15 -9.3 -15.1 -9.15 -15.1 -8.5 -14.9 -8.4 -14.9 -12.85 -14.45 -12.85 -14.65 -14.7 -14.55 -18.7 -15.35 -19.35 -15.2 -14.8 -14.35 -16.05 -14.3 -20.6 -14.45 -21.0 -14.3 -21.15 -15.6 M-17.55 -20.9 L-16.4 -21.85 -15.1 -22.6 -11.2 -21.9 -5.45 -21.4 -4.7 -21.6 -6.6 -22.05 -6.6 -22.55 -13.3 -23.55 -12.9 -23.8 -11.3 -23.65 -7.25 -23.35 -7.55 -23.25 -7.45 -23.2 -6.85 -23.1 -5.75 -23.15 Q-5.5 -22.5 -4.7 -21.6 L-4.6 -21.45 Q-8.0 -19.5 -9.05 -18.35 L-10.6 -18.35 Q-11.3 -18.35 -11.3 -17.95 L-15.35 -19.45 -15.25 -19.45 -15.25 -19.55 -13.5 -19.15 -11.5 -18.45 -11.55 -18.55 -13.05 -19.15 -9.6 -19.15 Q-8.0 -19.2 -7.55 -19.75 L-7.7 -19.8 -15.5 -20.6 -15.5 -20.7 -15.7 -20.6 -16.45 -20.65 -16.75 -20.65 -16.65 -20.55 -16.05 -20.05 -15.95 -19.6 -16.3 -19.7 -16.2 -20.05 -16.65 -20.55 -16.75 -20.55 Q-17.05 -20.9 -17.45 -20.9 L-17.55 -20.9 M-14.2 -23.0 L-13.8 -23.25 -11.4 -22.6 -13.35 -22.7 -13.35 -22.9 -14.2 -23.0 M-22.35 -16.35 L-22.45 -16.15 -21.95 -14.35 -21.8 -13.0 -21.85 -12.6 -21.6 -11.8 -21.9 -11.7 -21.7 -11.5 -21.6 -11.5 Q-21.85 -9.85 -24.0 -3.65 L-24.1 -3.65 -24.55 -7.55 -24.25 -6.8 -24.1 -6.1 -24.05 -5.05 -23.85 -5.05 -23.85 -4.65 -23.75 -4.75 -23.75 -5.05 -23.7 -5.05 -23.7 -5.55 -22.85 -9.8 -22.8 -9.5 -22.6 -9.5 Q-22.2 -11.45 -22.25 -12.4 -22.45 -14.85 -23.15 -14.8 L-23.45 -14.7 -23.45 -14.8 -22.35 -16.35 M-21.1 -12.85 L-21.0 -14.15 Q-18.1 -13.6 -11.4 -13.95 L-9.65 -14.0 -14.75 -13.55 Q-18.65 -13.35 -20.3 -12.7 -21.0 -12.65 -21.0 -12.25 L-20.9 -12.05 -20.8 -11.95 -21.0 -11.95 -21.0 -12.25 -21.1 -12.85 M-4.05 -14.4 L-3.95 -14.6 -3.25 -13.85 -4.35 -13.75 -4.05 -14.1 -4.05 -14.4 M-4.2 -15.1 Q-5.15 -15.7 -9.2 -17.2 L-6.5 -18.2 -4.2 -15.1 M-9.4 -17.3 L-10.2 -17.55 -9.6 -17.55 -8.9 -17.6 -9.4 -17.3 M-21.55 -16.6 L-21.4 -16.6 -21.4 -16.5 -21.55 -16.6 M-23.95 -14.0 L-23.65 -14.4 -23.65 -14.3 -23.55 -14.15 -23.95 -14.0 -23.2 -11.3 -23.75 -6.3 -23.8 -7.6 -23.75 -8.2 Q-24.15 -11.4 -25.0 -11.75 L-23.95 -14.0 M-23.25 -13.95 L-23.25 -14.2 -23.1 -13.65 -23.25 -13.95 M-18.8 -12.15 Q-18.6 -12.25 -18.55 -12.3 L-18.45 -12.3 -18.8 -12.15 M-16.95 -12.65 L-12.55 -13.05 -14.3 -12.9 -14.8 -12.95 -16.95 -12.65 M-25.05 -8.8 L-25.45 -8.8 Q-26.7 -7.15 -26.55 -3.5 -26.4 -0.35 -26.0 0.55 L-25.95 1.05 -26.4 1.1 Q-26.85 0.1 -27.4 -0.5 L-27.5 -0.4 Q-27.6 -5.05 -27.1 -7.15 L-25.6 -10.6 -25.05 -8.8 M-26.7 1.4 L-26.65 1.9 Q-25.85 3.6 -25.6 7.95 -25.55 9.8 -25.65 11.4 -26.8 7.3 -26.85 6.0 L-27.45 0.45 -27.45 0.15 -27.35 0.15 Q-27.3 0.75 -26.7 1.4 M-4.2 -21.05 L-3.55 -20.55 -7.95 -18.2 -7.6 -18.5 Q-7.15 -18.95 -6.25 -19.4 -4.15 -20.75 -4.2 -21.05 M-2.95 -18.85 L-2.7 -19.05 -2.45 -18.85 -2.95 -18.85 M-6.9 -20.5 L-6.9 -20.7 Q-6.85 -20.9 -13.45 -20.7 L-15.7 -21.1 -16.65 -20.95 -7.95 -20.3 -6.9 -20.5" fill="#3f3c38" fill-rule="evenodd" stroke="none"/>
    <path d="M2.75 -26.7 L2.9 -26.25 2.95 -26.1 3.3 -24.75 Q4.0 -26.65 4.15 -28.05 L4.15 -28.25 4.1 -28.55 4.3 -28.6 4.45 -28.3 4.45 -28.2 4.45 -28.1 4.4 -27.1 3.95 -26.0 4.15 -25.7 3.55 -24.2 3.55 -24.1 3.45 -23.8 3.35 -23.7 3.15 -23.7 3.15 -23.75 3.15 -23.85 3.05 -24.15 2.85 -25.15 2.95 -25.15 2.95 -25.45 2.35 -26.5 2.0 -28.05 1.75 -28.55 1.75 -28.65 1.75 -29.3 1.95 -29.3 2.15 -28.55 2.4 -28.0 2.75 -26.7 M5.25 -25.55 L4.05 -24.2 3.85 -24.3 Q6.45 -27.6 7.0 -27.9 L7.1 -27.8 6.1 -26.5 7.05 -25.25 8.0 -23.65 8.45 -21.35 8.45 -20.9 8.35 -20.9 7.45 -23.2 6.0 -26.4 5.25 -25.55 M9.1 -22.8 L8.5 -24.75 8.75 -24.15 9.2 -23.1 9.25 -22.5 9.1 -22.8 M9.15 -21.6 L9.5 -20.95 9.5 -20.85 11.4 -17.1 12.15 -15.3 12.05 -15.05 11.5 -16.6 10.5 -18.6 8.65 -22.1 8.75 -22.3 9.15 -21.6 M11.1 -19.45 L10.8 -20.95 10.9 -20.95 11.15 -19.95 11.15 -19.65 11.2 -19.25 11.1 -19.15 11.1 -19.45 M11.35 -19.85 L10.2 -23.45 10.15 -24.1 9.35 -26.65 9.3 -27.2 9.5 -27.25 10.25 -24.1 10.35 -24.1 Q10.75 -22.3 11.65 -19.45 L11.85 -18.65 11.8 -18.6 Q11.65 -18.65 11.35 -19.85 M12.35 -19.2 L12.25 -19.5 12.3 -19.7 11.95 -21.55 11.15 -25.95 11.15 -26.55 11.3 -26.55 Q12.55 -20.8 12.8 -18.65 12.8 -19.9 12.95 -20.95 L12.95 -21.25 12.95 -21.5 13.0 -24.55 13.2 -24.55 13.35 -23.4 13.25 -19.15 13.15 -17.6 13.5 -18.4 13.6 -18.4 13.6 -18.2 13.5 -18.0 13.25 -17.5 13.15 -17.6 13.15 -17.5 13.05 -17.0 12.95 -16.65 12.9 -16.05 12.8 -16.55 12.65 -16.85 12.75 -17.35 12.75 -17.55 12.7 -17.75 12.65 -17.45 12.5 -18.25 12.5 -18.55 12.35 -19.2 M14.05 -19.5 L15.7 -23.5 14.05 -19.1 13.95 -18.95 14.05 -19.5 M17.8 -20.35 L17.3 -22.4 17.5 -22.4 18.95 -17.65 19.05 -17.15 19.15 -17.65 19.25 -19.05 19.6 -18.7 Q19.4 -18.3 19.35 -17.7 L19.2 -16.85 19.05 -17.0 19.1 -16.65 19.1 -16.55 19.1 -16.35 19.0 -16.25 19.0 -16.35 18.9 -16.85 18.75 -17.15 18.4 -18.45 18.4 -18.55 17.8 -20.35 M19.6 -20.05 L20.05 -20.7 19.8 -19.65 19.6 -20.05 M-12.1 -25.85 L-12.2 -26.25 -11.6 -26.3 -11.3 -26.2 -11.0 -26.0 -9.2 -25.45 -8.8 -25.3 -5.35 -24.95 -7.7 -26.1 -9.5 -27.2 -9.5 -27.4 -9.3 -27.4 -9.1 -27.4 Q-8.25 -27.35 -6.8 -26.55 L-4.7 -25.1 -3.95 -24.6 -3.85 -24.6 -3.95 -24.5 -3.95 -24.4 -4.25 -24.3 -4.45 -24.4 -4.65 -24.4 -5.4 -24.35 -6.4 -24.5 -10.2 -25.1 -12.05 -25.6 -12.1 -25.7 -12.1 -25.85 M-5.7 -28.2 L-6.0 -28.35 -5.55 -28.5 -5.35 -28.2 -4.7 -27.35 -4.35 -27.0 -4.15 -26.75 -4.15 -26.65 -4.45 -26.55 -4.9 -27.25 -5.7 -28.2 M-3.05 -28.5 L-2.85 -28.75 -2.6 -28.55 -2.25 -27.95 -2.45 -27.95 -2.45 -27.65 -1.8 -26.4 -1.7 -25.05 -0.9 -22.7 -0.45 -21.75 -0.55 -21.6 -1.0 -22.6 Q-1.9 -24.6 -2.8 -27.75 L-3.05 -28.5 M-1.5 -28.6 L-1.5 -29.15 -1.1 -29.15 -1.3 -29.05 -1.2 -28.6 -1.1 -28.3 -1.2 -28.3 -1.25 -28.0 0.15 -23.35 -1.35 -27.9 -1.45 -28.2 -1.5 -28.6 M-0.3 -28.85 L-0.3 -28.95 -0.2 -28.95 -0.1 -28.85 0.2 -28.2 0.7 -27.4 Q0.75 -27.0 2.3 -25.4 L2.75 -24.95 2.65 -24.85 2.1 -25.4 Q0.55 -26.9 -0.05 -28.05 L-0.3 -28.45 -0.3 -28.85 M0.7 -17.8 L1.15 -16.4 2.1 -14.0 2.0 -13.9 1.85 -14.05 0.45 -17.25 0.45 -17.35 0.45 -17.75 0.4 -18.1 0.55 -18.1 0.7 -17.8 M2.15 -14.8 Q2.3 -20.2 1.2 -23.3 L1.0 -23.85 1.0 -23.95 0.75 -24.55 0.95 -24.55 1.05 -24.45 1.15 -24.45 1.3 -24.15 1.3 -23.85 Q1.95 -22.45 2.1 -19.6 L2.4 -15.95 2.6 -17.85 2.75 -19.05 2.7 -19.35 2.8 -20.05 Q2.7 -21.8 2.95 -22.6 L2.75 -22.5 2.65 -22.7 2.75 -23.0 2.85 -23.0 2.95 -23.0 3.2 -22.5 3.25 -21.6 3.2 -19.75 Q2.55 -18.2 2.65 -16.15 L2.8 -15.75 Q3.8 -16.65 3.9 -18.9 L4.25 -19.9 4.45 -20.3 Q4.4 -20.6 4.5 -20.8 L4.8 -20.65 4.7 -20.45 4.55 -19.7 3.4 -15.8 3.4 -15.6 2.65 -14.2 2.5 -13.9 2.4 -13.6 2.1 -13.6 2.1 -14.0 2.05 -14.3 2.15 -14.8 M3.8 -23.05 L3.6 -23.25 3.8 -23.25 3.9 -23.15 6.15 -21.25 7.2 -20.25 6.15 -20.9 5.9 -21.15 5.7 -21.35 3.8 -23.05 M4.8 -24.45 L4.7 -24.55 4.7 -24.75 5.0 -24.75 Q5.4 -24.65 6.9 -22.2 L7.75 -20.6 7.7 -20.45 7.35 -20.85 5.8 -23.15 4.8 -24.45 M7.8 -27.85 L8.3 -25.8 7.65 -27.25 7.6 -27.85 7.8 -27.85 M13.05 -25.45 L12.75 -25.65 12.85 -25.75 13.15 -25.65 13.25 -25.45 13.25 -25.35 13.15 -24.85 13.1 -24.75 12.95 -25.15 13.05 -25.45 M12.0 -14.25 L12.0 -14.05 11.9 -14.35 8.8 -18.75 8.55 -19.1 8.65 -19.2 8.9 -18.95 Q9.95 -17.85 12.0 -14.25 M11.35 -14.45 L11.75 -13.85 11.65 -13.75 11.05 -14.4 10.8 -14.6 9.55 -16.0 9.3 -16.8 9.75 -16.2 10.7 -15.1 10.8 -14.9 10.9 -14.9 11.1 -14.55 11.35 -14.45 M7.05 -18.65 L6.75 -18.9 6.95 -18.95 7.35 -18.55 7.7 -18.3 7.5 -18.3 7.4 -18.3 7.05 -18.65 M0.25 -19.2 L0.5 -19.0 0.4 -18.8 0.3 -18.8 -0.6 -18.85 Q-1.55 -19.0 -2.25 -19.8 L-2.75 -20.35 -3.15 -20.9 -3.05 -20.9 -2.85 -20.8 -1.6 -20.1 -1.25 -19.65 -0.95 -19.75 -0.25 -19.4 -1.65 -21.25 Q-2.95 -22.7 -3.3 -23.45 L-3.1 -23.45 Q-2.8 -23.45 -1.25 -21.4 L-0.05 -19.3 0.25 -19.2 M2.55 -14.3 L2.7 -15.3 2.7 -15.4 Q2.55 -14.9 2.55 -14.4 L2.45 -14.1 2.55 -14.3 M-21.15 -15.6 L-21.0 -14.3 -20.6 -14.45 -16.05 -14.3 -14.8 -14.35 -12.85 -14.45 -8.4 -14.9 -8.5 -14.9 -9.15 -15.1 -8.5 -15.1 -8.2 -15.25 -7.05 -15.0 -6.55 -15.1 -6.35 -15.15 Q-10.85 -16.9 -11.35 -17.2 -15.4 -18.75 -16.7 -19.6 L-16.5 -19.8 -17.65 -20.7 -17.65 -20.8 -17.75 -20.8 -17.95 -20.85 -17.85 -21.0 -17.55 -20.9 -17.45 -20.9 Q-17.05 -20.9 -16.75 -20.55 L-16.65 -20.55 -16.2 -20.05 -16.3 -19.7 -15.95 -19.6 -16.05 -20.05 -16.65 -20.55 -16.75 -20.65 -16.45 -20.65 -15.7 -20.6 -15.5 -20.7 -15.5 -20.6 -7.7 -19.8 -7.55 -19.75 Q-8.0 -19.2 -9.6 -19.15 L-13.05 -19.15 -15.95 -20.25 -16.05 -20.15 -13.5 -19.15 -15.25 -19.55 -15.25 -19.45 -15.35 -19.45 -11.3 -17.95 Q-11.3 -18.35 -10.6 -18.35 L-9.05 -18.35 -8.25 -18.4 -8.15 -18.1 -8.15 -18.0 Q-8.25 -17.7 -8.9 -17.6 L-9.6 -17.55 -10.2 -17.55 -9.4 -17.3 -9.2 -17.2 Q-5.15 -15.7 -4.2 -15.1 L-3.95 -14.8 -3.95 -14.6 -4.05 -14.4 -4.45 -14.25 -4.9 -14.15 -6.7 -14.35 -9.65 -14.0 -11.4 -13.95 Q-18.1 -13.6 -21.0 -14.15 L-21.1 -12.85 Q-21.35 -12.55 -21.75 -12.5 L-21.8 -13.0 -21.95 -14.35 -22.45 -16.15 -22.35 -16.35 -22.25 -16.75 -21.95 -16.75 -21.55 -16.6 -21.4 -16.5 Q-21.8 -15.75 -21.15 -15.6 M-9.9 -15.15 L-10.45 -15.1 -14.15 -15.35 Q-18.45 -16.55 -19.55 -17.15 L-19.25 -17.35 -19.25 -17.45 -19.05 -17.65 -18.8 -17.5 -16.35 -16.75 -15.8 -16.65 Q-12.65 -15.3 -9.9 -15.15 M-15.1 -22.6 Q-16.1 -22.8 -16.1 -23.0 -16.1 -23.3 -15.6 -23.35 L-14.2 -23.0 -13.35 -22.9 -13.35 -22.7 -11.4 -22.6 -6.8 -21.9 -6.6 -22.05 -4.7 -21.6 -5.45 -21.4 -11.2 -21.9 -15.1 -22.6 M-12.9 -23.8 L-14.75 -24.0 -14.75 -24.2 -13.85 -24.35 -12.8 -24.3 -8.7 -23.5 -7.75 -23.55 -7.8 -23.85 -6.45 -23.7 -6.35 -23.7 -6.35 -23.4 -6.95 -23.35 -7.25 -23.35 -11.3 -23.65 -12.9 -23.8 M-22.85 -9.8 L-23.7 -5.55 -23.8 -5.85 -23.75 -6.3 -23.2 -11.3 -23.95 -14.0 -23.55 -14.15 -23.4 -13.65 -23.25 -13.95 -23.1 -13.65 -22.7 -11.55 -22.7 -11.45 -22.9 -11.4 -22.85 -9.8" fill="#322f2c" fill-rule="evenodd" stroke="none"/>
    <path d="M2.6 -24.15 L3.3 -23.2 5.25 -25.55 5.5 -25.5 5.0 -24.75 4.7 -24.75 4.7 -24.55 4.8 -24.45 3.9 -23.15 3.8 -23.25 3.6 -23.25 3.8 -23.05 3.3 -22.5 3.2 -22.5 2.95 -23.0 2.85 -23.0 1.25 -24.65 1.25 -24.85 Q1.35 -24.85 1.55 -25.0 L2.35 -24.3 2.25 -24.3 2.6 -24.15 M11.4 -17.1 L11.0 -19.35 11.1 -19.45 11.1 -19.15 11.2 -19.25 11.15 -19.65 11.35 -19.85 Q11.65 -18.65 11.8 -18.6 L11.85 -18.65 11.65 -19.45 11.95 -18.7 12.3 -17.65 12.35 -17.35 12.45 -17.35 Q12.45 -16.95 12.6 -16.45 L12.8 -16.55 12.9 -16.05 12.95 -16.65 Q13.85 -16.7 13.85 -17.5 L13.85 -17.6 14.2 -17.95 16.4 -19.7 Q15.95 -20.3 15.6 -21.05 L15.6 -21.15 15.6 -21.35 15.6 -21.8 15.8 -21.8 16.1 -21.3 15.9 -21.3 15.9 -21.0 17.25 -18.95 18.7 -16.55 18.9 -16.35 19.0 -16.35 19.0 -16.25 19.1 -16.35 19.1 -16.55 20.5 -17.85 21.35 -18.7 21.35 -18.8 22.2 -19.6 22.6 -19.15 22.6 -19.05 Q22.55 -18.65 20.95 -16.95 21.65 -16.5 22.8 -13.9 22.9 -14.6 24.75 -16.2 L24.85 -16.2 25.35 -16.2 25.45 -15.75 25.25 -15.4 22.65 -12.95 20.25 -16.45 18.65 -15.3 Q18.45 -15.3 16.5 -19.3 L12.85 -15.6 12.75 -15.6 12.95 -13.5 Q12.95 -13.05 12.35 -13.05 11.5 -13.0 8.25 -15.2 6.15 -16.75 5.45 -17.4 L2.15 -12.45 Q1.85 -12.4 0.2 -14.6 -1.3 -16.6 -1.75 -17.75 L-5.8 -18.3 -2.05 -13.6 -2.05 -13.4 -2.1 -13.2 -2.4 -13.05 -2.6 -13.25 -11.3 -12.25 -17.7 -11.55 -19.15 -11.65 -20.75 -11.5 -20.95 -11.5 Q-21.1 -9.9 -22.25 -6.5 L-22.7 -5.4 Q-23.85 -2.7 -24.3 -2.35 -25.05 -5.5 -25.2 -7.65 -26.1 -6.5 -26.0 -3.55 L-25.5 0.05 Q-25.35 1.35 -24.35 3.35 L-24.4 3.75 -24.9 3.75 -25.25 3.2 Q-24.75 13.55 -25.5 14.85 L-25.75 14.95 -26.25 14.85 -26.25 14.15 -26.1 13.75 Q-25.8 13.2 -25.75 12.5 L-25.35 13.35 -25.25 13.25 -25.65 11.9 -25.65 11.5 -25.65 11.4 Q-25.55 9.8 -25.6 7.95 -25.85 3.6 -26.65 1.9 L-26.7 1.4 -26.4 1.6 -26.3 1.5 -26.4 1.1 -25.95 1.05 -26.0 0.55 Q-26.4 -0.35 -26.55 -3.5 -26.7 -7.15 -25.45 -8.8 L-25.05 -8.8 -24.55 -7.55 -24.1 -3.65 -24.0 -3.65 Q-21.85 -9.85 -21.6 -11.5 L-21.7 -11.5 -21.9 -11.7 -21.6 -11.8 -21.85 -12.6 -21.8 -13.0 -21.75 -12.5 Q-21.35 -12.55 -21.1 -12.85 L-21.0 -12.25 -21.0 -11.95 -20.8 -11.95 -20.7 -11.95 -19.6 -12.1 -19.0 -12.05 -18.9 -12.05 -17.35 -12.35 Q-13.05 -12.85 -14.3 -12.9 L-12.55 -13.05 -12.05 -13.1 -6.55 -13.45 -4.35 -13.75 -3.25 -13.85 -3.95 -14.6 -3.95 -14.8 -4.2 -15.1 -6.5 -18.2 -9.2 -17.2 -9.4 -17.3 -8.9 -17.6 Q-8.25 -17.7 -8.15 -18.0 L-7.95 -18.2 -3.55 -20.55 -4.2 -21.05 -4.5 -21.55 -4.6 -21.45 -4.7 -21.6 Q-5.5 -22.5 -5.75 -23.15 L-6.85 -23.1 -7.45 -23.2 -7.55 -23.25 -7.25 -23.35 -6.95 -23.35 -6.35 -23.4 -6.35 -23.7 -6.45 -23.7 -6.1 -23.9 -5.95 -23.8 Q-4.9 -23.85 -4.25 -24.3 L-3.95 -24.4 -3.85 -24.4 -3.15 -24.65 -3.95 -26.15 -4.15 -26.65 -4.15 -26.75 -4.35 -27.0 -4.35 -27.05 Q-4.4 -27.35 -4.1 -27.45 L-2.5 -24.5 Q-2.45 -23.6 -4.8 -23.2 -3.95 -22.55 -2.85 -20.8 L-3.05 -20.9 -3.15 -20.9 -2.75 -20.35 -3.5 -19.65 -3.6 -19.6 -3.8 -19.5 -3.8 -19.4 -4.8 -18.95 -4.0 -18.9 -4.05 -18.8 -3.05 -18.55 -1.8 -18.6 0.0 -18.5 0.3 -18.6 0.55 -18.5 0.4 -18.8 0.5 -19.0 0.25 -19.2 -1.1 -22.2 -1.0 -22.6 -0.55 -21.6 -0.45 -21.75 -0.9 -22.7 -0.8 -22.7 1.15 -18.65 1.05 -18.25 1.15 -18.15 0.7 -17.8 0.55 -18.1 0.4 -18.1 0.45 -17.75 0.25 -17.75 -0.95 -17.7 0.2 -16.25 0.35 -15.75 Q0.9 -13.85 2.0 -13.5 L2.1 -13.4 2.2 -13.5 2.5 -13.5 2.8 -13.5 2.9 -13.8 2.65 -14.2 3.4 -15.6 Q4.75 -18.25 5.5 -19.05 L4.55 -19.7 4.7 -20.45 5.25 -20.35 5.65 -20.15 6.0 -20.2 6.4 -20.0 6.0 -19.9 7.25 -19.35 7.2 -19.55 7.3 -19.45 8.1 -19.5 7.75 -20.6 7.25 -23.0 7.45 -23.2 8.35 -20.9 8.45 -20.9 8.9 -19.05 8.9 -18.95 8.65 -19.2 8.55 -19.1 8.8 -18.75 8.75 -18.6 8.45 -19.0 8.25 -18.8 8.35 -18.6 7.35 -18.55 6.95 -18.95 6.75 -18.9 7.05 -18.65 6.15 -18.8 5.55 -17.7 5.75 -17.5 9.5 -15.15 9.4 -15.05 Q10.0 -14.45 11.05 -14.4 L11.65 -13.75 11.75 -13.85 11.35 -14.45 11.3 -14.55 11.1 -14.55 11.2 -14.65 11.9 -14.35 12.0 -14.05 12.0 -14.25 11.5 -16.6 12.05 -15.05 12.15 -15.3 11.4 -17.1 M4.25 -19.9 L4.05 -20.1 4.45 -20.3 4.25 -19.9" fill="#171615" fill-rule="evenodd" stroke="none"/>
    <path d="M3.35 -23.7 L3.45 -23.55 3.15 -23.7 2.6 -24.15 2.25 -24.3 2.35 -24.3 2.35 -24.4 3.15 -23.75 3.15 -23.7 3.35 -23.7 M-25.75 12.5 L-25.85 12.2 Q-28.0 7.5 -28.3 1.2 -28.45 -1.45 -28.05 -4.05 L-28.15 -4.25 Q-28.3 -7.3 -25.6 -12.25 L-23.8 -15.4 -25.15 -13.3 -25.15 -13.35 -24.8 -14.2 -24.7 -14.35 -23.8 -15.4 -21.7 -17.65 Q-20.05 -19.5 -19.1 -20.9 L-18.3 -21.75 -18.2 -21.85 -16.95 -22.9 -17.35 -22.5 -17.9 -22.0 -21.2 -18.0 -20.3 -18.7 -22.25 -16.75 Q-27.1 -11.35 -27.8 -4.55 L-27.85 -3.55 -28.15 0.65 -27.85 4.3 -25.65 11.9 -25.25 13.25 -25.35 13.35 -25.75 12.5 M18.65 -17.15 L18.75 -17.15 18.9 -16.85 18.55 -16.95 18.55 -17.15 18.65 -17.15 M13.85 -17.6 L13.85 -17.5 Q13.85 -16.7 12.95 -16.65 L13.05 -17.0 13.05 -16.9 13.35 -17.2 13.45 -17.3 13.65 -17.4 13.65 -17.5 13.7 -17.7 13.75 -17.6 13.85 -17.6 M12.5 -18.25 L12.4 -18.55 12.5 -18.55 12.5 -18.25 M11.1 -14.55 L11.3 -14.55 11.35 -14.45 11.1 -14.55 M11.05 -14.4 Q10.0 -14.45 9.4 -15.05 L9.5 -15.15 10.8 -14.6 11.05 -14.4 M7.2 -19.55 L7.25 -19.35 6.0 -19.9 6.4 -20.0 6.5 -20.0 7.0 -19.85 7.1 -19.85 7.1 -19.75 7.2 -19.55 M-1.8 -18.6 L-3.05 -18.55 -4.05 -18.8 -4.0 -18.9 -3.45 -18.95 -3.4 -18.95 -2.95 -18.85 -2.45 -18.85 -0.6 -18.85 -0.6 -18.65 -1.8 -18.6 M0.35 -15.75 L0.45 -15.85 1.85 -14.05 2.0 -13.9 2.0 -13.7 0.35 -15.75 M-11.3 -26.2 L-10.95 -26.45 -10.75 -26.35 -11.0 -26.0 -11.3 -26.2 M-12.1 -25.7 L-12.05 -25.6 -13.15 -25.15 -12.1 -25.7 M-5.4 -24.35 L-4.65 -24.4 -4.45 -24.4 -4.25 -24.3 Q-4.9 -23.85 -5.95 -23.8 L-6.1 -23.9 -5.4 -24.35 M-3.95 -24.4 L-3.95 -24.5 -3.85 -24.5 -3.85 -24.4 -3.95 -24.4 M-8.15 -18.0 L-8.15 -18.1 -8.25 -18.4 Q-8.0 -19.3 -4.55 -20.85 L-7.6 -18.5 -7.95 -18.2 -8.15 -18.0 M-23.75 -5.05 L-23.75 -4.75 -23.85 -4.65 -23.85 -5.05 -24.1 -6.1 -24.25 -6.8 -24.9 -10.1 -24.7 -10.1 Q-24.65 -9.1 -23.85 -7.2 L-23.8 -5.85 -23.75 -5.05 M-19.6 -12.1 L-19.5 -12.15 -18.8 -12.15 -18.45 -12.3 -18.45 -12.6 -16.95 -12.65 -14.8 -12.95 -14.3 -12.9 Q-13.05 -12.85 -17.35 -12.35 L-18.9 -12.05 -19.0 -12.05 -19.6 -12.1" fill="#928d85" fill-rule="evenodd" stroke="none"/>
    <path d="M-22.7 -5.4 L-22.25 -6.5 Q-21.1 -9.9 -20.95 -11.5 L-20.75 -11.5 -19.15 -11.65 -17.7 -11.55 -11.3 -12.25 -2.6 -13.25 -2.4 -13.05 -2.1 -13.2 -2.05 -13.4 -2.05 -13.6 -5.8 -18.3 -1.75 -17.75 Q-1.3 -16.6 0.2 -14.6 1.85 -12.4 2.15 -12.45 L5.45 -17.4 Q6.15 -16.75 8.25 -15.2 11.5 -13.0 12.35 -13.05 12.95 -13.05 12.95 -13.5 L12.75 -15.6 12.85 -15.6 16.5 -19.3 Q18.45 -15.3 18.65 -15.3 L20.25 -16.45 22.65 -12.95 25.25 -15.4 Q29.05 -9.3 29.45 -1.55 29.8 6.1 26.65 12.6 24.7 16.45 21.8 19.7 13.65 28.75 1.45 29.35 L-5.75 28.95 -5.75 28.85 -5.5 28.75 -5.75 28.55 -5.75 28.45 Q-7.05 27.3 -7.65 27.35 L-10.7 25.25 Q-14.05 23.05 -15.45 20.15 -17.75 16.9 -18.45 15.1 L-19.5 12.5 -21.65 10.15 Q-22.5 7.6 -22.55 6.2 L-21.45 1.85 -22.0 -0.7 -21.9 -0.8 -21.8 -1.1 -22.7 -5.1 -22.7 -5.4 M5.95 -3.45 L0.05 -3.15 Q-0.2 -6.5 -2.8 -8.95 -5.55 -11.35 -9.1 -11.2 L-10.65 -11.0 Q-13.3 -10.4 -15.3 -8.35 -17.7 -5.55 -17.55 -1.9 -17.35 1.65 -14.7 4.15 -12.5 6.0 -9.8 6.4 L-8.25 6.4 Q-4.7 6.25 -2.2 3.55 -0.6 1.7 -0.1 -0.5 L6.0 -0.8 Q6.4 1.95 8.45 3.9 10.5 5.7 12.9 6.0 L14.4 6.0 Q17.85 5.85 20.05 3.35 22.4 0.75 22.25 -2.6 22.05 -6.0 19.5 -8.2 17.05 -10.6 13.6 -10.45 L12.1 -10.15 Q9.75 -9.75 7.9 -7.65 6.25 -5.8 5.95 -3.45 M19.15 10.9 Q9.25 11.5 2.2 10.9 -7.9 9.85 -14.8 12.55 -7.3 11.8 1.05 14.95 10.15 14.1 19.15 10.9 M-2.25 22.65 Q-4.8 22.8 -4.75 23.75 -4.65 25.55 -0.5 25.35 2.8 25.15 2.75 23.85 2.65 22.4 -2.25 22.65" fill="#fbc87b" fill-rule="evenodd" stroke="none"/>
    <path d="M5.95 -3.45 Q6.25 -5.8 7.9 -7.65 9.75 -9.75 12.1 -10.15 L13.6 -10.45 Q17.05 -10.6 19.5 -8.2 22.05 -6.0 22.25 -2.6 22.4 0.75 20.05 3.35 17.85 5.85 14.4 6.0 L12.9 6.0 Q10.5 5.7 8.45 3.9 6.4 1.95 6.0 -0.8 L-0.1 -0.5 Q-0.6 1.7 -2.2 3.55 -4.7 6.25 -8.25 6.4 L-9.8 6.4 Q-12.5 6.0 -14.7 4.15 -17.35 1.65 -17.55 -1.9 -17.7 -5.55 -15.3 -8.35 -13.3 -10.4 -10.65 -11.0 L-9.1 -11.2 Q-5.55 -11.35 -2.8 -8.95 -0.2 -6.5 0.05 -3.15 L5.95 -3.45 M7.65 -7.0 Q6.45 -5.25 6.55 -3.9 L6.75 -3.5 Q8.15 -8.65 13.05 -8.9 13.35 -8.9 13.35 -8.7 L13.75 -8.85 Q13.5 -9.55 12.2 -9.45 9.25 -9.35 7.65 -7.0 M0.2 -2.25 L5.3 -2.5 5.25 -3.0 5.15 -3.1 -0.35 -2.75 -0.3 -2.45 0.2 -2.25 M9.35 -6.25 Q7.55 -4.45 7.7 -1.8 7.8 0.8 9.8 2.6 11.65 4.25 14.2 4.1 16.05 4.05 17.5 3.1 L18.5 2.15 Q20.2 0.2 20.1 -2.4 19.95 -5.05 18.05 -6.7 L17.4 -7.25 Q15.75 -8.35 13.6 -8.25 11.05 -8.1 9.35 -6.25 M-15.0 -6.85 Q-13.35 -8.0 -12.75 -8.85 -12.55 -9.05 -7.95 -10.25 L-7.65 -10.35 -9.0 -10.6 -10.25 -10.6 Q-11.95 -10.55 -14.0 -8.8 -15.8 -7.2 -16.05 -6.6 -17.1 -5.4 -16.9 -1.65 -16.55 3.95 -13.9 3.85 L-13.7 3.85 Q-13.1 5.45 -11.55 5.4 L-11.25 5.15 -11.35 5.05 Q-12.6 3.95 -13.4 3.4 -16.2 0.7 -16.3 -1.75 -16.5 -5.8 -15.0 -6.85 M-13.4 -6.4 Q-15.2 -4.55 -15.05 -1.9 -14.95 0.65 -12.95 2.3 -11.1 4.1 -8.45 3.95 -5.9 3.85 -4.2 1.85 L-3.6 1.1 -2.85 -0.35 Q-2.5 -1.4 -2.55 -2.55 L-2.6 -3.05 Q-2.75 -4.5 -3.65 -5.75 L-4.65 -6.85 Q-6.55 -8.55 -9.1 -8.45 -11.75 -8.3 -13.4 -6.4" fill="#58503a" fill-rule="evenodd" stroke="none"/>
    <path d="M0.2 -2.25 L-0.3 -2.45 -0.35 -2.75 5.15 -3.1 5.25 -3.0 5.3 -2.5 0.2 -2.25 M7.65 -7.0 Q9.25 -9.35 12.2 -9.45 13.5 -9.55 13.75 -8.85 L13.35 -8.7 Q13.35 -8.9 13.05 -8.9 8.15 -8.65 6.75 -3.5 L6.55 -3.9 Q6.45 -5.25 7.65 -7.0 M-15.0 -6.85 Q-16.5 -5.8 -16.3 -1.75 -16.2 0.7 -13.4 3.4 -12.6 3.95 -11.35 5.05 L-11.25 5.15 -11.55 5.4 Q-13.1 5.45 -13.7 3.85 L-13.9 3.85 Q-16.55 3.95 -16.9 -1.65 -17.1 -5.4 -16.05 -6.6 -15.8 -7.2 -14.0 -8.8 -11.95 -10.55 -10.25 -10.6 L-9.0 -10.6 -7.65 -10.35 -7.95 -10.25 Q-12.55 -9.05 -12.75 -8.85 -13.35 -8.0 -15.0 -6.85" fill="#796f51" fill-rule="evenodd" stroke="none"/>
    <path d="M9.35 -6.25 Q11.05 -8.1 13.6 -8.25 15.75 -8.35 17.4 -7.25 L18.05 -6.7 Q19.95 -5.05 20.1 -2.4 20.2 0.2 18.5 2.15 L17.5 3.1 Q16.05 4.05 14.2 4.1 11.65 4.25 9.8 2.6 7.8 0.8 7.7 -1.8 7.55 -4.45 9.35 -6.25 M14.25 -0.8 L14.4 -1.8 Q14.35 -3.25 12.95 -3.2 11.9 -3.15 11.95 -1.8 L12.1 -0.9 12.3 -0.5 11.9 -0.3 Q11.95 0.5 13.4 0.45 15.2 0.35 15.15 -0.35 15.15 -0.85 14.45 -0.8 L14.25 -0.8 M18.5 -0.4 Q18.9 -1.75 18.85 -3.4 18.7 -3.85 18.3 -3.85 17.8 -3.85 17.4 -2.7 16.85 -1.75 17.0 -1.15 17.1 1.1 13.65 1.3 L12.1 1.15 Q11.4 1.2 11.6 1.7 11.3 1.7 10.5 0.95 L10.4 1.45 Q10.5 3.35 14.75 3.15 16.2 3.05 17.5 1.5 18.5 0.3 18.5 -0.4 M-13.4 -6.4 Q-11.75 -8.3 -9.1 -8.45 -6.55 -8.55 -4.65 -6.85 L-3.65 -5.75 Q-2.75 -4.5 -2.6 -3.05 L-2.55 -2.55 Q-2.5 -1.4 -2.85 -0.35 L-3.6 1.1 -4.2 1.85 Q-5.9 3.85 -8.45 3.95 -11.1 4.1 -12.95 2.3 -14.95 0.65 -15.05 -1.9 -15.2 -4.55 -13.4 -6.4 M-9.3 -0.95 L-9.6 -1.05 -9.7 -1.05 -9.85 -0.6 Q-9.05 -0.05 -7.45 -0.15 -6.2 -0.2 -6.25 -0.6 -6.25 -1.0 -6.65 -1.1 L-6.75 -1.15 -6.7 -2.25 Q-6.9 -3.9 -8.05 -3.85 -8.95 -3.8 -9.1 -2.8 L-9.35 -1.9 -9.2 -1.05 -9.3 -0.95 M-8.75 -5.5 L-9.4 -5.25 -9.3 -5.15 -8.75 -5.5 M-3.55 -2.0 Q-3.7 -4.75 -4.65 -4.7 -5.15 -4.65 -5.1 -4.05 L-4.85 -2.7 Q-5.6 0.65 -8.55 0.8 L-10.2 0.5 Q-10.25 1.2 -10.75 1.55 -11.45 1.25 -11.45 1.85 -11.4 2.7 -9.55 2.5 -9.5 3.0 -7.25 2.3 -5.25 1.6 -4.35 0.7 -3.45 -0.45 -3.55 -2.0" fill="#d2cdbd" fill-rule="evenodd" stroke="none"/>
    <path d="M14.25 -0.8 L14.45 -0.8 Q15.15 -0.85 15.15 -0.35 15.2 0.35 13.4 0.45 11.95 0.5 11.9 -0.3 L12.3 -0.5 12.1 -0.9 11.95 -1.8 Q11.9 -3.15 12.95 -3.2 14.35 -3.25 14.4 -1.8 L14.25 -0.8 M-8.75 -5.5 L-9.3 -5.15 -9.4 -5.25 -8.75 -5.5 M-9.3 -0.95 L-9.2 -1.05 -9.35 -1.9 -9.1 -2.8 Q-8.95 -3.8 -8.05 -3.85 -6.9 -3.9 -6.7 -2.25 L-6.75 -1.15 -6.65 -1.1 Q-6.25 -1.0 -6.25 -0.6 -6.2 -0.2 -7.45 -0.15 -9.05 -0.05 -9.85 -0.6 L-9.7 -1.05 -9.6 -1.05 -9.3 -0.95" fill="#070605" fill-rule="evenodd" stroke="none"/>
    <path d="M18.5 -0.4 Q18.5 0.3 17.5 1.5 16.2 3.05 14.75 3.15 10.5 3.35 10.4 1.45 L10.5 0.95 Q11.3 1.7 11.6 1.7 11.4 1.2 12.1 1.15 L13.65 1.3 Q17.1 1.1 17.0 -1.15 16.85 -1.75 17.4 -2.7 17.8 -3.85 18.3 -3.85 18.7 -3.85 18.85 -3.4 18.9 -1.75 18.5 -0.4 M-3.55 -2.0 Q-3.45 -0.45 -4.35 0.7 -5.25 1.6 -7.25 2.3 -9.5 3.0 -9.55 2.5 -11.4 2.7 -11.45 1.85 -11.45 1.25 -10.75 1.55 -10.25 1.2 -10.2 0.5 L-8.55 0.8 Q-5.6 0.65 -4.85 -2.7 L-5.1 -4.05 Q-5.15 -4.65 -4.65 -4.7 -3.7 -4.75 -3.55 -2.0" fill="#c8c1ae" fill-rule="evenodd" stroke="none"/>
    <path d="M-22.7 -5.4 L-22.7 -5.1 -21.8 -1.1 -21.9 -0.8 -22.0 -0.7 -21.45 1.85 -22.55 6.2 Q-22.5 7.6 -21.65 10.15 L-19.5 12.5 -18.45 15.1 Q-17.75 16.9 -15.45 20.15 -14.05 23.05 -10.7 25.25 L-7.65 27.35 Q-7.05 27.3 -5.75 28.45 L-5.75 28.55 -5.5 28.75 -5.75 28.85 -5.75 28.95 -6.05 29.05 -6.25 28.85 Q-13.85 27.25 -19.9 21.7 -23.3 18.6 -25.5 14.85 -24.75 13.55 -25.25 3.2 L-24.9 3.75 -24.4 3.75 -24.35 3.35 Q-25.35 1.35 -25.5 0.05 L-26.0 -3.55 Q-26.1 -6.5 -25.2 -7.65 -25.05 -5.5 -24.3 -2.35 -23.85 -2.7 -22.7 -5.4 M-2.25 22.65 Q2.65 22.4 2.75 23.85 2.8 25.15 -0.5 25.35 -4.65 25.55 -4.75 23.75 -4.8 22.8 -2.25 22.65" fill="#fbba59" fill-rule="evenodd" stroke="none"/>
    <path d="M19.15 10.9 Q10.15 14.1 1.05 14.95 -7.3 11.8 -14.8 12.55 -7.9 9.85 2.2 10.9 9.25 11.5 19.15 10.9" fill="#ffffff" fill-rule="evenodd" stroke="none"/>
    <path d="M22.2 -19.6 L20.1 -21.7 19.8 -22.0 Q16.4 -25.0 12.6 -26.85 12.05 -27.05 11.65 -27.35 M10.7 -27.7 Q5.5 -29.7 -0.25 -29.6 L-1.45 -29.55 Q-9.1 -29.2 -15.1 -25.45 -18.9 -23.3 -21.9 -20.0 -23.9 -17.75 -25.25 -15.4 -29.9 -7.9 -29.45 1.35 -29.1 8.25 -26.1 13.75 M24.85 -16.2 L22.6 -19.05 M-5.75 28.95 L1.45 29.35 Q13.65 28.75 21.8 19.7 24.7 16.45 26.65 12.6 29.8 6.1 29.45 -1.55 29.05 -9.3 25.25 -15.4 M19.15 10.9 Q10.15 14.1 1.05 14.95 -7.3 11.8 -14.8 12.55 -7.9 9.85 2.2 10.9 9.25 11.5 19.15 10.9 M-25.5 14.85 Q-23.3 18.6 -19.9 21.7 -13.85 27.25 -6.25 28.85" fill="none" stroke="#865204" stroke-linecap="round" stroke-linejoin="round" stroke-width="0.5"/>
    <path d="M5.95 -3.45 Q6.25 -5.8 7.9 -7.65 9.75 -9.75 12.1 -10.15 L13.6 -10.45 Q17.05 -10.6 19.5 -8.2 22.05 -6.0 22.25 -2.6 22.4 0.75 20.05 3.35 17.85 5.85 14.4 6.0 L12.9 6.0 Q10.5 5.7 8.45 3.9 6.4 1.95 6.0 -0.8 L-0.1 -0.5 Q-0.6 1.7 -2.2 3.55 -4.7 6.25 -8.25 6.4 L-9.8 6.4 Q-12.5 6.0 -14.7 4.15 -17.35 1.65 -17.55 -1.9 -17.7 -5.55 -15.3 -8.35 -13.3 -10.4 -10.65 -11.0 L-9.1 -11.2 Q-5.55 -11.35 -2.8 -8.95 -0.2 -6.5 0.05 -3.15 L5.95 -3.45 M9.35 -6.25 Q11.05 -8.1 13.6 -8.25 15.75 -8.35 17.4 -7.25 L18.05 -6.7 Q19.95 -5.05 20.1 -2.4 20.2 0.2 18.5 2.15 L17.5 3.1 Q16.05 4.05 14.2 4.1 11.65 4.25 9.8 2.6 7.8 0.8 7.7 -1.8 7.55 -4.45 9.35 -6.25 M-13.4 -6.4 Q-11.75 -8.3 -9.1 -8.45 -6.55 -8.55 -4.65 -6.85 L-3.65 -5.75 Q-2.75 -4.5 -2.6 -3.05 L-2.55 -2.55 Q-2.5 -1.4 -2.85 -0.35 L-3.6 1.1 -4.2 1.85 Q-5.9 3.85 -8.45 3.95 -11.1 4.1 -12.95 2.3 -14.95 0.65 -15.05 -1.9 -15.2 -4.55 -13.4 -6.4" fill="none" stroke="#000000" stroke-linecap="round" stroke-linejoin="round" stroke-width="0.5"/>
    <path d="M56.95 -56.6 L79.6 -37.65 74.3 -31.25 50.6 -50.05 56.95 -56.6 M77.8 26.55 L82.25 31.9 64.65 47.7 60.15 43.1 77.8 26.55 M-77.95 -26.45 L-82.25 -29.3 -72.55 -46.9 -68.05 -43.4 -77.95 -26.45 M-52.9 48.4 L-56.95 54.35 -81.45 40.85 -76.6 34.5 -52.9 48.4" fill="#e6e6e6" fill-opacity="0.49803922" fill-rule="evenodd" stroke="none"/>
  </g>
</svg>
