<?xml version="1.0" encoding="UTF-8" standalone="no"?>
<svg xmlns:xlink="http://www.w3.org/1999/xlink" height="110.0px" width="169.2px" xmlns="http://www.w3.org/2000/svg">
  <g transform="matrix(1.0, 0.0, 0.0, 1.0, 85.8, 55.0)">
    <path d="M-70.95 36.2 L-65.3 -45.5 70.85 -36.15 65.2 45.6 -70.95 36.2" fill="#666666" fill-rule="evenodd" stroke="none"/>
    <path d="M-71.75 -50.0 L77.85 -39.7 71.65 50.1 -77.95 39.8 -71.75 -50.0 M-70.95 36.2 L65.2 45.6 70.85 -36.15 -65.3 -45.5 -70.95 36.2" fill="#333333" fill-rule="evenodd" stroke="none"/>
    <path d="M22.8 18.0 Q20.85 14.5 21.2 9.6 L22.4 0.25 Q22.6 -3.1 22.05 -5.4 19.1 -13.5 15.75 -17.5 L10.65 -23.1 Q5.35 -27.95 2.9 -28.15 L2.6 -28.05 10.2 -22.7 15.25 -17.05 Q18.2 -13.15 19.25 -11.05 L21.1 -6.9 Q22.3 -2.85 22.1 0.2 21.8 4.4 20.8 10.85 20.3 18.05 23.95 20.35 L24.1 20.05 Q23.45 19.3 22.95 18.4 L23.25 18.35 23.25 18.55 Q23.7 19.9 25.05 20.8 L24.55 21.0 20.5 17.95 Q19.15 14.5 19.35 13.4 L19.15 13.4 19.05 14.3 20.5 18.35 Q21.35 20.05 23.25 20.9 L22.5 20.85 22.45 21.1 23.6 21.45 24.6 21.55 25.95 22.65 Q26.1 23.85 28.25 24.15 26.95 25.85 23.2 25.6 L21.75 25.4 21.75 25.3 Q19.5 23.65 19.25 23.1 L18.65 21.95 18.5 21.3 Q18.2 19.85 18.3 17.9 18.7 12.6 20.0 7.65 21.3 2.6 21.4 1.1 21.15 -7.1 19.6 -7.2 L19.4 -7.1 Q19.5 -8.55 17.25 -13.1 L14.75 -17.45 Q8.15 -24.8 2.2 -27.0 L2.1 -26.95 Q10.4 -22.9 14.35 -17.4 L16.55 -13.5 16.45 -13.2 Q16.35 -12.05 17.15 -10.65 L16.2 -11.25 15.85 -11.65 15.8 -11.55 Q15.35 -12.1 15.2 -12.8 L15.4 -12.5 15.9 -12.45 15.9 -12.65 Q14.9 -14.9 11.05 -19.9 L8.05 -23.35 Q3.75 -25.2 2.95 -26.25 L2.85 -26.3 Q2.7 -25.5 4.4 -24.45 L4.2 -24.45 3.4 -24.4 3.5 -24.25 Q5.45 -23.45 7.55 -21.45 L7.15 -21.55 6.85 -21.5 Q7.95 -19.3 7.9 -18.45 L7.6 -17.15 7.2 -19.05 7.4 -19.15 Q7.25 -19.85 5.85 -21.55 4.25 -23.4 3.35 -23.5 L3.0 -23.4 5.1 -21.5 Q3.85 -22.15 2.1 -22.35 2.7 -22.3 2.75 -23.1 2.8 -24.1 2.15 -26.3 1.35 -29.05 0.2 -29.1 -0.3 -29.15 -0.35 -28.45 -0.35 -28.05 0.25 -26.95 L0.35 -26.65 Q-1.0 -26.55 -1.65 -25.4 -3.65 -23.85 -4.2 -22.7 L-6.05 -20.25 -5.35 -21.4 Q-5.75 -21.35 -6.45 -19.85 L-7.25 -19.0 -7.45 -19.0 Q-7.7 -17.9 -11.2 -15.2 L-11.1 -15.1 -8.5 -17.3 Q-10.0 -15.7 -12.5 -14.0 L-12.1 -13.9 Q-9.85 -15.2 -7.7 -18.0 L-7.25 -18.4 -7.25 -18.6 -6.7 -19.35 -1.15 -25.35 0.65 -26.1 0.75 -26.0 0.85 -25.8 0.15 -25.35 Q-1.7 -24.8 -2.0 -23.55 -3.3 -22.65 -4.4 -20.25 -5.85 -17.05 -7.55 -15.65 -9.5 -14.1 -13.3 -12.75 L-16.8 -11.35 -14.3 -13.15 -9.8 -17.2 -5.45 -21.8 -5.55 -21.55 -5.45 -21.5 Q-5.0 -21.9 -3.25 -24.75 -2.15 -26.6 -0.65 -27.1 L-0.45 -27.2 -0.55 -27.2 -0.55 -27.3 -0.4 -27.65 Q-0.35 -28.15 -1.35 -28.2 L-1.45 -28.35 -1.95 -28.35 Q-7.1 -28.2 -11.45 -26.55 L-11.8 -26.7 Q-12.65 -26.75 -14.9 -25.05 -17.65 -23.4 -20.1 -21.1 -21.45 -19.85 -24.1 -15.6 -26.65 -11.45 -26.7 -10.5 L-26.65 -9.35 -26.5 -9.45 -25.05 -13.05 -25.0 -12.8 -24.8 -12.9 -24.65 -13.0 -24.8 -12.5 Q-25.6 -10.95 -25.8 -8.15 -26.45 -7.6 -27.85 -4.15 -28.3 -3.25 -28.5 0.75 -28.8 5.45 -28.45 7.65 L-28.25 7.55 -28.05 5.9 -27.85 -2.85 -26.8 -5.65 -25.75 -7.55 -25.7 -6.65 -25.6 -6.75 Q-24.7 -11.0 -23.9 -12.75 L-24.2 -11.25 -24.2 -9.8 -23.95 -9.8 Q-20.7 -20.85 -11.35 -26.05 L-11.35 -26.35 Q-7.5 -27.8 -2.65 -28.0 -9.9 -26.45 -13.7 -23.25 -15.55 -21.8 -19.4 -16.65 L-19.3 -16.55 Q-13.2 -24.25 -5.3 -27.0 L-10.05 -24.0 Q-13.1 -22.05 -14.65 -19.6 -15.25 -18.75 -22.0 -11.7 L-21.9 -11.4 -21.7 -11.5 -21.5 -11.5 Q-7.8 -21.6 -7.65 -24.05 -5.25 -25.75 -2.3 -27.45 L-1.55 -27.3 Q-2.3 -26.85 -3.35 -25.2 L-3.7 -25.6 Q-9.1 -20.05 -10.7 -17.8 -13.05 -15.05 -19.85 -10.4 L-19.65 -10.2 -20.05 -10.1 -22.45 -9.4 -22.4 -9.05 -21.9 -8.95 Q-20.95 -8.85 -12.8 -11.0 -7.55 -12.75 -6.0 -13.55 -9.95 -9.3 -23.15 -8.4 L-23.0 -8.7 -23.25 -8.45 -23.65 -8.35 -23.15 -9.35 -23.15 -9.65 Q-11.2 -15.3 -5.7 -24.8 -10.1 -18.9 -12.6 -16.9 -20.6 -11.1 -23.25 -9.85 L-23.45 -9.85 -24.15 -8.4 -24.2 -8.4 -24.15 -8.3 -24.4 -8.05 Q-24.25 -9.0 -24.5 -9.5 L-24.7 -9.45 -24.95 -7.5 Q-25.9 -6.85 -26.2 -2.45 L-26.3 6.65 Q-26.55 10.05 -28.9 13.85 -27.85 11.45 -27.65 8.7 L-27.5 1.3 Q-27.25 -2.35 -25.9 -5.6 -27.2 -4.6 -27.4 -2.05 L-27.95 1.5 Q-28.05 3.55 -27.8 5.2 L-28.05 9.5 Q-28.3 13.1 -31.4 17.7 -31.55 17.0 -31.95 16.6 L-32.05 16.6 -32.05 16.8 -31.9 17.75 -32.4 17.8 Q-33.4 17.55 -33.8 17.05 -31.75 15.3 -31.45 11.3 -31.55 6.65 -31.2 4.7 L-30.1 -1.6 -29.25 -3.8 -29.25 -4.0 -29.0 -4.8 Q-28.35 -7.0 -28.3 -7.9 L-28.1 -9.05 -28.2 -9.05 Q-26.75 -14.1 -23.45 -18.35 -21.8 -20.5 -19.6 -22.4 -10.45 -30.25 1.5 -29.45 L2.7 -29.35 Q13.8 -28.2 21.3 -19.6 L21.6 -19.25 Q26.5 -13.4 27.95 -6.4 L27.55 -6.55 27.6 -5.85 28.05 -5.9 Q28.7 -2.3 28.45 1.5 L27.95 5.4 27.95 5.45 Q27.55 5.4 27.55 5.6 L27.7 6.6 27.7 6.7 27.4 7.85 27.05 8.4 27.15 8.8 27.65 8.45 Q26.9 10.4 26.75 12.55 L26.8 13.9 Q26.05 10.55 26.2 8.2 27.3 3.4 27.45 0.85 27.55 -0.3 24.9 -11.15 L24.65 -10.95 26.15 -5.15 Q27.1 -1.65 26.9 0.8 L26.2 5.2 Q26.5 0.75 25.9 -3.2 25.6 -4.85 24.25 -8.0 L23.05 -10.65 19.9 -17.6 Q16.05 -24.85 13.8 -25.0 L13.4 -25.05 13.35 -24.75 Q17.7 -21.6 22.65 -11.2 L22.45 -11.2 22.9 -10.25 23.0 -10.15 Q26.65 -4.05 26.0 5.5 L25.75 7.65 25.6 8.05 25.6 8.25 24.85 12.3 Q24.55 16.05 25.95 18.0 L25.45 17.9 25.25 17.95 Q25.15 18.9 26.3 19.4 26.75 20.35 28.25 21.7 L28.05 21.8 26.6 22.1 26.35 21.85 26.1 22.05 25.2 21.4 25.75 20.85 Q24.25 19.45 23.7 18.45 L24.0 18.6 24.75 17.85 24.85 18.05 25.15 17.85 Q23.1 13.55 23.2 10.55 L23.2 10.45 Q24.1 5.95 24.35 2.35 24.8 -3.95 22.95 -7.9 L22.95 -8.0 17.75 -17.75 14.2 -22.55 Q10.4 -26.9 7.85 -27.1 L7.55 -27.1 Q13.65 -23.35 17.15 -17.7 L22.45 -8.65 22.35 -8.55 Q24.4 -4.0 23.95 2.3 23.7 5.8 22.8 10.4 22.45 15.1 23.6 16.85 L23.6 16.75 Q22.95 14.35 23.0 13.65 L23.0 13.3 Q23.4 15.1 24.65 17.75 24.2 18.4 23.7 18.15 L23.5 18.15 23.45 18.05 22.15 12.45 21.95 12.4 21.9 13.0 23.4 18.05 23.3 18.05 23.25 18.15 22.8 18.0 M-17.85 -10.7 L-12.6 -12.5 Q-8.5 -14.05 -6.85 -15.7 -5.05 -17.65 -4.05 -19.55 L-1.8 -23.15 -1.7 -23.1 Q-1.35 -24.0 0.5 -25.15 L1.1 -25.4 1.45 -24.55 1.35 -24.5 1.05 -24.45 1.05 -24.35 0.6 -24.05 0.5 -24.25 Q-1.1 -23.7 -3.2 -19.75 L-6.65 -14.6 Q-7.6 -13.6 -9.9 -12.95 L-13.8 -12.05 -17.75 -10.7 -18.05 -10.65 -17.85 -10.7 M15.05 -5.05 Q14.35 -14.25 8.65 -18.95 L8.45 -20.45 Q10.3 -18.5 12.15 -15.5 13.75 -12.9 15.9 -6.85 L16.1 -6.95 Q14.25 -14.05 12.45 -16.2 L9.25 -20.6 6.3 -23.5 7.85 -22.85 Q9.6 -21.45 10.75 -19.5 L14.9 -13.25 Q14.75 -11.35 15.95 -10.5 16.1 -8.0 16.5 -5.5 16.3 -2.4 15.05 0.8 L15.15 -4.55 15.25 -4.6 15.15 -5.05 15.05 -5.05 M2.0 -22.65 L2.1 -22.35 1.6 -22.4 1.5 -22.4 Q0.4 -22.35 -0.85 -20.8 L0.55 -23.45 1.55 -23.5 1.65 -23.4 1.45 -22.9 1.5 -22.4 2.0 -22.65 M19.25 -6.6 L19.1 -4.35 19.0 -4.35 17.15 -7.75 16.75 -10.15 17.55 -10.1 17.9 -10.15 19.05 -6.6 19.25 -6.6 M21.25 -19.0 L21.15 -19.0 24.75 -9.0 25.1 -7.0 25.15 -7.1 25.2 -7.65 25.1 -8.25 25.1 -8.65 24.8 -9.9 24.45 -12.2 24.25 -12.2 24.2 -11.6 21.25 -19.0 M26.2 18.15 Q24.85 14.9 25.05 12.25 L25.65 9.1 Q25.75 10.8 26.4 13.6 27.35 17.4 27.9 18.35 L28.0 18.25 28.25 18.8 27.65 19.0 26.5 18.25 26.4 18.15 26.4 18.25 26.2 18.15 M23.8 16.95 L23.7 16.95 23.8 17.05 23.8 16.95 M23.9 21.15 L23.7 21.15 23.25 20.9 23.9 21.15 M21.1 22.1 L21.2 22.0 Q19.4 19.45 19.4 16.45 L19.2 16.45 Q19.15 18.8 21.1 22.1 M21.75 22.45 L21.55 22.45 Q23.45 23.8 24.65 23.9 L24.95 23.85 21.75 22.45 M21.4 23.25 Q20.5 22.55 20.35 21.75 L20.15 21.75 20.1 22.35 21.1 23.5 21.4 23.45 21.4 23.25 M-5.25 -27.05 L-2.65 -27.8 -2.35 -27.5 Q-8.35 -25.2 -11.5 -21.05 L-9.0 -23.0 Q-13.9 -17.4 -21.2 -12.05 L-18.15 -15.1 Q-15.2 -17.85 -14.2 -19.15 -13.5 -20.3 -5.0 -26.9 L-5.25 -27.05 M-23.5 -14.0 L-23.55 -13.9 -23.65 -13.8 -23.5 -14.0 M-20.2 -19.55 Q-23.8 -15.5 -24.55 -13.35 L-24.75 -13.55 Q-22.8 -17.8 -19.9 -20.8 -17.95 -23.0 -15.5 -24.5 L-16.25 -23.8 Q-19.2 -21.25 -20.1 -19.75 L-20.2 -19.55 M-22.1 -12.8 L-22.05 -12.6 -18.3 -17.4 Q-22.05 -14.05 -22.1 -12.8 M-24.25 -7.55 L-23.85 -8.15 -23.35 -8.15 -23.9 -7.2 -24.15 -6.75 -24.1 -7.25 Q-24.1 -7.55 -24.25 -7.55 M-23.5 -7.4 L-23.25 -8.15 -22.75 -8.1 -23.15 -6.55 -23.35 -6.9 -23.5 -7.4 M-22.45 -8.05 L-21.0 -7.95 Q-21.8 -7.0 -22.15 -4.85 L-22.55 -0.4 Q-22.9 4.2 -22.4 14.2 L-23.5 18.65 Q-24.1 21.75 -27.1 22.35 L-27.0 22.45 -28.75 22.75 Q-29.9 22.65 -29.75 22.35 L-29.65 22.15 Q-27.95 21.5 -27.9 21.1 -27.9 20.7 -28.2 20.45 L-28.5 20.85 -30.5 21.5 -32.75 21.35 -31.75 19.85 -31.35 19.9 Q-30.05 19.4 -28.9 18.35 L-28.85 17.55 -29.15 17.55 Q-30.15 19.0 -31.5 19.4 L-31.4 19.2 -31.35 18.4 -31.3 17.9 Q-29.95 16.25 -29.1 14.3 L-29.05 14.65 Q-28.4 14.35 -26.55 11.05 L-25.75 8.75 -25.75 10.3 Q-26.15 15.7 -30.05 17.7 L-29.95 17.8 Q-25.9 16.2 -25.35 8.65 L-25.25 -0.4 -25.2 -0.9 -25.0 0.8 -25.05 0.9 Q-25.2 3.65 -24.4 13.25 -24.7 17.3 -27.4 19.45 -24.1 17.05 -23.8 13.2 -24.65 3.4 -24.45 0.85 L-24.3 0.05 Q-24.45 2.25 -23.5 5.4 L-23.5 5.6 -23.5 5.7 -23.3 10.35 -23.9 16.15 Q-24.45 16.9 -24.9 18.95 L-27.1 21.15 Q-23.75 19.7 -23.5 16.15 -22.95 12.8 -22.75 10.4 L-22.95 5.25 -22.95 5.15 Q-23.2 -0.2 -23.05 -2.05 -22.15 -5.05 -22.05 -6.9 L-22.1 -7.3 -22.4 -7.2 -22.4 -7.6 -22.45 -8.05 M-24.55 -3.0 L-24.95 -0.3 -24.9 -2.15 -24.55 -3.0 M-23.25 -3.4 L-23.45 -2.15 -23.5 1.4 Q-23.75 -0.6 -23.65 -2.5 L-23.25 -3.4 M-28.75 -0.05 L-28.95 -0.1 -29.15 2.95 Q-29.0 5.25 -29.2 8.2 -29.4 11.25 -31.65 15.4 L-31.55 15.6 Q-29.35 13.5 -29.0 8.2 L-28.75 -0.05 M-28.8 -2.05 L-28.75 -1.0 -28.65 -1.1 Q-28.1 -6.0 -27.0 -7.85 -28.4 -7.45 -28.8 -2.05 M-31.0 21.1 L-30.9 21.2 -29.25 20.5 -31.0 21.1" fill="#fdc551" fill-rule="evenodd" stroke="none"/>
    <path d="M22.95 18.4 Q23.45 19.3 24.1 20.05 L23.95 20.35 Q20.3 18.05 20.8 10.85 21.8 4.4 22.1 0.2 22.3 -2.85 21.1 -6.9 L19.25 -11.05 Q18.2 -13.15 15.25 -17.05 L10.2 -22.7 2.6 -28.05 2.9 -28.15 Q5.35 -27.95 10.65 -23.1 L15.75 -17.5 Q19.1 -13.5 22.05 -5.4 22.6 -3.1 22.4 0.25 L21.2 9.6 Q20.85 14.5 22.8 18.0 L22.95 18.4 M23.0 13.3 L23.0 13.65 Q22.95 14.35 23.6 16.75 L23.6 16.85 Q22.45 15.1 22.8 10.4 23.7 5.8 23.95 2.3 24.4 -4.0 22.35 -8.55 L22.45 -8.65 17.15 -17.7 Q13.65 -23.35 7.55 -27.1 L7.85 -27.1 Q10.4 -26.9 14.2 -22.55 L17.75 -17.75 22.95 -8.0 22.95 -7.9 Q24.8 -3.95 24.35 2.35 24.1 5.95 23.2 10.45 L23.25 10.05 23.05 10.05 22.85 11.25 23.0 13.3 M25.95 18.0 Q24.55 16.05 24.85 12.3 L25.6 8.25 25.6 8.05 25.75 7.65 26.0 5.5 Q26.65 -4.05 23.0 -10.15 L22.9 -10.25 22.45 -11.2 22.65 -11.2 Q17.7 -21.6 13.35 -24.75 L13.4 -25.05 13.8 -25.0 Q16.05 -24.85 19.9 -17.6 L23.05 -10.65 24.25 -8.0 Q25.6 -4.85 25.9 -3.2 26.5 0.75 26.2 5.2 L26.9 0.8 Q27.1 -1.65 26.15 -5.15 L24.65 -10.95 24.9 -11.15 Q27.55 -0.3 27.45 0.85 27.3 3.4 26.2 8.2 26.05 10.55 26.8 13.9 26.95 15.85 27.9 18.05 L28.0 18.25 27.9 18.35 Q27.35 17.4 26.4 13.6 25.75 10.8 25.65 9.1 L25.05 12.25 Q24.85 14.9 26.2 18.15 L26.1 18.25 25.95 18.0 M-31.4 17.7 Q-28.3 13.1 -28.05 9.5 L-27.8 5.2 Q-28.05 3.55 -27.95 1.5 L-27.4 -2.05 Q-27.2 -4.6 -25.9 -5.6 -27.25 -2.35 -27.5 1.3 L-27.65 8.7 Q-27.85 11.45 -28.9 13.85 L-29.1 14.2 -29.1 14.3 Q-29.95 16.25 -31.3 17.9 L-31.4 17.9 -31.5 17.8 -31.4 17.7 M-23.25 -9.85 Q-20.6 -11.1 -12.6 -16.9 -10.1 -18.9 -5.7 -24.8 -11.2 -15.3 -23.15 -9.65 L-23.35 -9.65 -23.45 -9.75 Q-23.35 -9.75 -23.25 -9.85 M-23.25 -8.45 L-23.0 -8.7 -23.15 -8.4 -23.25 -8.15 -23.5 -7.4 -23.6 -7.5 -23.9 -7.2 -23.35 -8.15 -23.25 -8.45 M-6.0 -13.55 Q-7.55 -12.75 -12.8 -11.0 -20.95 -8.85 -21.9 -8.95 L-22.4 -9.05 -22.45 -9.4 -20.05 -10.1 -19.65 -10.2 -19.45 -10.1 Q-19.05 -10.05 -18.05 -10.65 L-17.75 -10.7 -13.8 -12.05 -9.9 -12.95 Q-7.6 -13.6 -6.65 -14.6 L-3.2 -19.75 Q-1.1 -23.7 0.5 -24.25 L0.6 -24.05 1.05 -24.35 1.55 -23.5 0.55 -23.45 -0.85 -20.8 -2.0 -19.1 Q-4.55 -15.05 -5.5 -13.95 L-6.0 -13.55 M-3.35 -25.2 Q-2.3 -26.85 -1.55 -27.3 L-2.3 -27.45 Q-5.25 -25.75 -7.65 -24.05 L-7.8 -24.55 -9.0 -23.0 -11.5 -21.05 Q-8.35 -25.2 -2.35 -27.5 L-2.65 -27.8 -5.25 -27.05 -5.3 -27.0 Q-13.2 -24.25 -19.3 -16.55 L-19.4 -16.65 Q-15.55 -21.8 -13.7 -23.25 -9.9 -26.45 -2.65 -28.0 -7.5 -27.8 -11.35 -26.35 L-11.35 -26.55 -11.45 -26.55 Q-7.1 -28.2 -1.95 -28.35 L-1.45 -28.35 -1.35 -28.2 Q-0.35 -28.15 -0.4 -27.65 L-0.55 -27.3 -0.55 -27.2 -0.45 -27.2 -0.65 -27.1 Q-2.15 -26.6 -3.25 -24.75 -5.0 -21.9 -5.45 -21.5 L-5.55 -21.55 -5.45 -21.8 -5.3 -22.0 Q-3.4 -24.35 -3.35 -25.2 M-23.9 -12.75 Q-24.7 -11.0 -25.6 -6.75 L-25.7 -6.65 -25.75 -7.55 -25.5 -8.05 -25.7 -8.2 -25.8 -8.15 Q-25.6 -10.95 -24.8 -12.5 L-24.65 -13.0 -24.8 -12.9 -25.0 -12.8 -25.05 -13.05 -26.5 -9.45 -26.65 -9.35 -26.7 -10.5 Q-26.65 -11.45 -24.1 -15.6 -21.45 -19.85 -20.1 -21.1 -17.65 -23.4 -14.9 -25.05 L-15.5 -24.5 Q-17.95 -23.0 -19.9 -20.8 -22.8 -17.8 -24.75 -13.55 L-24.55 -13.35 Q-23.8 -15.5 -20.2 -19.55 -22.35 -16.75 -23.3 -14.45 L-23.45 -14.15 -23.45 -14.05 -23.5 -14.0 -23.65 -13.8 -23.55 -13.9 -23.9 -12.75 M-16.8 -11.35 L-13.3 -12.75 Q-9.5 -14.1 -7.55 -15.65 -5.85 -17.05 -4.4 -20.25 -3.3 -22.65 -2.0 -23.55 -1.7 -24.8 0.15 -25.35 L0.85 -25.8 1.1 -25.4 0.5 -25.15 Q-1.35 -24.0 -1.7 -23.1 L-1.8 -23.15 -4.05 -19.55 Q-5.05 -17.65 -6.85 -15.7 -8.5 -14.05 -12.6 -12.5 L-17.85 -10.7 -16.8 -11.35 M0.65 -26.1 L-1.15 -25.35 -6.7 -19.35 -7.25 -18.6 -7.25 -18.4 -7.7 -18.0 Q-9.85 -15.2 -12.1 -13.9 L-12.5 -14.0 Q-10.0 -15.7 -8.5 -17.3 L-11.1 -15.1 -11.2 -15.2 Q-7.7 -17.9 -7.45 -19.0 L-7.25 -19.0 -6.45 -19.85 Q-5.75 -21.35 -5.35 -21.4 L-6.05 -20.25 -4.2 -22.7 Q-3.65 -23.85 -1.65 -25.4 -1.0 -26.55 0.35 -26.65 L0.65 -26.1 M5.1 -21.5 L3.0 -23.4 3.35 -23.5 Q4.25 -23.4 5.85 -21.55 7.25 -19.85 7.4 -19.15 L7.2 -19.05 7.0 -19.05 5.2 -21.4 5.1 -21.5 M7.55 -21.45 Q5.45 -23.45 3.5 -24.25 L3.4 -24.4 4.2 -24.45 4.4 -24.45 Q2.7 -25.5 2.85 -26.3 L2.95 -26.25 Q3.75 -25.2 8.05 -23.35 L11.05 -19.9 Q14.9 -14.9 15.9 -12.65 L15.9 -12.45 15.4 -12.5 15.2 -12.8 14.9 -13.25 10.75 -19.5 Q9.6 -21.45 7.85 -22.85 L6.3 -23.5 9.25 -20.6 12.45 -16.2 Q14.25 -14.05 16.1 -6.95 L15.9 -6.85 Q13.75 -12.9 12.15 -15.5 10.3 -18.5 8.45 -20.45 8.1 -21.3 7.55 -21.45 M16.55 -13.5 L14.35 -17.4 Q10.4 -22.9 2.1 -26.95 L2.2 -27.0 Q8.15 -24.8 14.75 -17.45 L17.25 -13.1 Q19.5 -8.55 19.4 -7.1 L19.25 -6.6 19.05 -6.6 17.9 -10.15 17.35 -11.75 16.55 -13.5 M23.25 20.9 Q21.35 20.05 20.5 18.35 L19.05 14.3 19.15 13.4 19.35 13.4 Q19.15 14.5 20.5 17.95 L24.55 21.0 25.1 21.35 23.9 21.15 23.25 20.9 M1.35 -24.5 L1.45 -24.55 1.45 -24.5 1.35 -24.5 M21.25 -19.0 L24.2 -11.6 24.25 -12.2 24.45 -12.2 24.8 -9.9 25.1 -8.65 25.1 -8.25 25.2 -7.65 25.15 -7.1 25.1 -7.0 24.75 -9.0 21.15 -19.0 21.25 -19.0 M23.8 16.95 L23.8 17.05 23.7 16.95 23.8 16.95 M21.4 23.25 L21.4 23.45 21.1 23.5 20.1 22.35 20.15 21.75 20.35 21.75 Q20.5 22.55 21.4 23.25 M21.75 22.45 L24.95 23.85 24.65 23.9 Q23.45 23.8 21.55 22.45 L21.75 22.45 M21.1 22.1 Q19.15 18.8 19.2 16.45 L19.4 16.45 Q19.4 19.45 21.2 22.0 L21.1 22.1 M-22.1 -12.8 Q-22.05 -14.05 -18.3 -17.4 L-22.05 -12.6 -22.1 -12.8 M-24.15 -6.75 L-23.9 -7.2 -24.4 -5.3 -24.15 -6.75 M-23.35 -6.9 L-23.15 -6.55 -23.7 -4.65 -24.3 -0.15 -24.3 0.05 -24.45 0.85 Q-24.65 3.4 -23.8 13.2 -24.1 17.05 -27.4 19.45 -24.7 17.3 -24.4 13.25 -25.2 3.65 -25.05 0.9 L-25.0 0.8 -24.9 2.45 -24.8 2.35 -24.95 -0.3 -24.55 -3.0 Q-24.2 -6.15 -23.35 -6.9 M-22.4 -7.2 L-22.1 -7.3 -22.05 -6.9 Q-22.15 -5.05 -23.05 -2.05 -23.2 -0.2 -22.95 5.15 L-23.5 1.4 -23.45 -2.15 -23.25 -3.4 -22.85 -4.9 -22.4 -7.2 M-22.95 5.25 L-22.75 10.4 Q-22.95 12.8 -23.5 16.15 -23.75 19.7 -27.1 21.15 L-24.9 18.95 Q-24.45 16.9 -23.9 16.15 L-23.3 10.35 -23.5 5.7 -23.4 5.85 -23.2 5.85 -22.95 5.25 M-28.8 -2.05 Q-28.4 -7.45 -27.0 -7.85 -28.1 -6.0 -28.65 -1.1 L-28.75 -1.0 -28.8 -2.05 M-28.75 -0.05 L-29.0 8.2 Q-29.35 13.5 -31.55 15.6 L-31.65 15.4 Q-29.4 11.25 -29.2 8.2 -29.0 5.25 -29.15 2.95 L-28.95 -0.1 -28.75 -0.05 M-25.75 8.75 L-25.5 6.7 -25.3 -0.7 -25.2 -1.1 -25.2 -0.9 -25.25 -0.4 -25.35 8.65 Q-25.9 16.2 -29.95 17.8 L-30.05 17.7 Q-26.15 15.7 -25.75 10.3 L-25.75 8.75 M-31.0 21.1 L-29.25 20.5 -30.9 21.2 -31.0 21.1" fill="#fee1a5" fill-rule="evenodd" stroke="none"/>
    <path d="M-28.9 13.85 Q-26.55 10.05 -26.3 6.65 L-26.2 -2.45 Q-25.9 -6.85 -24.95 -7.5 L-24.55 -7.65 -24.25 -7.55 Q-24.1 -7.55 -24.1 -7.25 L-24.15 -6.75 -24.4 -5.3 -23.9 -7.2 -23.6 -7.5 -23.5 -7.4 -23.35 -6.9 Q-24.2 -6.15 -24.55 -3.0 L-24.9 -2.15 -24.95 -0.3 -24.8 2.35 -24.9 2.45 -25.0 0.8 -25.2 -0.9 -25.2 -1.1 -25.3 -0.7 -25.5 6.7 -25.75 8.75 -26.55 11.05 Q-28.4 14.35 -29.05 14.65 L-29.1 14.3 -29.1 14.2 -28.9 13.85 M-19.65 -10.2 L-19.85 -10.4 Q-13.05 -15.05 -10.7 -17.8 -9.1 -20.05 -3.7 -25.6 L-3.35 -25.2 Q-3.4 -24.35 -5.3 -22.0 L-5.45 -21.8 -9.8 -17.2 -14.3 -13.15 -16.8 -11.35 -17.85 -10.7 -18.05 -10.65 Q-19.05 -10.05 -19.45 -10.1 L-19.65 -10.2 M-7.65 -24.05 Q-7.8 -21.6 -21.5 -11.5 L-21.7 -11.5 -21.9 -11.4 -22.0 -11.7 Q-15.25 -18.75 -14.65 -19.6 -13.1 -22.05 -10.05 -24.0 L-5.3 -27.0 -5.25 -27.05 -5.0 -26.9 Q-13.5 -20.3 -14.2 -19.15 -15.2 -17.85 -18.15 -15.1 L-21.2 -12.05 Q-13.9 -17.4 -9.0 -23.0 L-7.8 -24.55 -7.65 -24.05 M-11.35 -26.35 L-11.35 -26.05 Q-20.7 -20.85 -23.95 -9.8 L-24.2 -9.8 -24.2 -11.25 -23.9 -12.75 -23.55 -13.9 -23.5 -14.0 -23.45 -14.05 -23.45 -14.15 -23.3 -14.45 Q-22.35 -16.75 -20.2 -19.55 L-20.1 -19.75 Q-19.2 -21.25 -16.25 -23.8 L-15.5 -24.5 -14.9 -25.05 Q-12.65 -26.75 -11.8 -26.7 L-11.45 -26.55 -11.35 -26.55 -11.35 -26.35 M-25.75 -7.55 L-26.8 -5.65 -27.85 -2.85 -28.05 5.9 -28.25 7.55 -28.45 7.65 Q-28.8 5.45 -28.5 0.75 -28.3 -3.25 -27.85 -4.15 -26.45 -7.6 -25.8 -8.15 L-25.7 -8.2 -25.5 -8.05 -25.75 -7.55 M0.85 -25.8 L0.75 -26.0 1.35 -25.8 Q1.85 -25.75 1.85 -26.35 1.95 -27.3 0.75 -27.35 0.3 -27.4 0.25 -26.95 -0.35 -28.05 -0.35 -28.45 -0.3 -29.15 0.2 -29.1 1.35 -29.05 2.15 -26.3 2.8 -24.1 2.75 -23.1 2.7 -22.3 2.1 -22.35 L2.0 -22.65 2.35 -23.25 Q2.45 -24.5 1.55 -24.55 L1.45 -24.5 1.45 -24.55 1.1 -25.4 0.85 -25.8 M-22.75 -8.1 L-22.75 -8.4 -22.55 -8.4 -22.45 -8.05 -22.4 -7.6 -22.4 -7.2 -22.85 -4.9 -23.25 -3.4 -23.65 -2.5 Q-23.75 -0.6 -23.5 1.4 L-22.95 5.15 -22.95 5.25 -23.2 5.85 -23.4 5.85 -23.5 5.7 -23.5 5.6 -23.5 5.4 Q-24.45 2.25 -24.3 0.05 L-24.3 -0.15 -23.7 -4.65 -23.15 -6.55 -22.75 -8.1" fill="#fdba2f" fill-rule="evenodd" stroke="none"/>
    <path d="M23.4 18.05 L21.9 13.0 21.95 12.4 22.15 12.45 23.45 18.05 23.35 18.25 23.4 18.05 M24.65 17.75 Q23.4 15.1 23.0 13.3 L22.85 11.25 23.05 10.05 23.25 10.05 23.2 10.45 23.2 10.55 Q23.1 13.55 25.15 17.85 L24.85 18.05 24.75 17.85 24.65 17.75 M0.75 -26.0 L0.65 -26.1 0.35 -26.65 0.25 -26.95 Q0.3 -27.4 0.75 -27.35 1.95 -27.3 1.85 -26.35 1.85 -25.75 1.35 -25.8 L0.75 -26.0 M1.05 -24.35 L1.05 -24.45 1.35 -24.5 1.45 -24.5 1.55 -24.55 Q2.45 -24.5 2.35 -23.25 L2.0 -22.65 1.5 -22.4 1.45 -22.9 1.65 -23.4 1.55 -23.5 1.05 -24.35" fill="#fdad06" fill-rule="evenodd" stroke="none"/>
    <path d="M-10.9 -9.95 Q-8.05 -11.15 -5.45 -13.15 -4.4 -14.15 -2.4 -17.25 0.25 -21.75 1.55 -21.65 4.6 -21.45 6.2 -19.0 6.65 -18.35 7.3 -15.9 8.45 -15.85 8.6 -18.3 9.15 -17.55 10.65 -16.45 11.4 -15.65 12.15 -13.8 L13.95 -8.75 14.15 -8.3 14.05 -8.3 13.55 -8.35 13.7 -7.6 Q13.65 -6.9 12.75 -5.5 L11.9 -5.45 Q12.8 -6.65 12.9 -7.95 L12.8 -9.2 Q12.7 -6.35 11.6 -5.4 L11.25 -5.3 10.9 -5.55 10.6 -5.55 Q10.95 -6.2 11.1 -7.55 L11.25 -9.3 10.85 -9.35 10.2 -5.45 9.45 -5.4 Q9.55 -7.2 8.85 -7.75 L8.65 -7.75 8.65 -7.15 9.1 -5.25 Q8.2 -5.0 7.3 -4.15 L6.9 -5.6 6.65 -5.6 6.55 -5.4 7.1 -4.0 6.5 -3.35 Q4.9 -1.45 4.8 0.0 4.25 7.95 11.7 8.05 L11.7 8.25 14.45 8.45 Q16.65 7.55 17.3 6.85 18.75 4.8 18.8 4.4 L19.45 1.7 Q19.2 -3.05 17.65 -3.85 L18.2 -4.5 Q18.6 -3.3 18.9 -3.25 19.75 -3.2 19.8 -5.35 L20.7 1.1 Q20.55 3.05 19.35 6.9 19.0 7.95 18.8 9.25 18.55 8.2 17.25 8.1 15.3 8.0 15.15 10.0 15.0 11.95 16.95 12.05 17.85 12.15 18.4 11.55 18.05 13.9 17.85 16.65 17.65 19.6 17.95 20.9 L17.85 20.85 18.05 21.8 Q9.2 29.25 -2.5 28.45 -14.45 27.65 -22.4 18.5 L-22.5 18.4 -22.25 17.25 -21.65 17.6 Q-21.7 18.15 -20.35 20.15 -18.8 22.4 -17.55 22.5 L-17.35 22.5 Q-16.05 24.15 -15.35 24.2 -14.55 24.25 -14.5 23.7 L-15.9 22.4 -16.3 21.8 -16.4 21.7 -16.3 21.3 -17.8 18.7 -18.3 17.65 Q-18.6 16.0 -19.65 13.75 L-19.55 12.3 -19.5 11.9 -19.4 10.6 -19.25 10.0 -19.4 9.25 -19.5 7.5 Q-16.85 7.7 -16.65 5.05 -16.45 2.1 -18.8 1.9 L-19.2 1.9 -19.55 -1.3 -19.4 -5.15 -19.15 -5.7 Q-17.2 -5.65 -17.1 -6.85 -17.05 -7.8 -18.15 -7.9 L-19.5 -7.85 -19.7 -8.0 Q-15.45 -8.3 -11.6 -9.65 L-11.75 -9.05 -11.0 -7.15 -11.2 -7.3 -11.55 -7.15 -11.75 -7.2 -13.25 -8.95 -13.45 -8.95 -13.55 -8.65 Q-13.65 -7.65 -13.15 -7.2 L-13.65 -7.2 -14.25 -8.1 -14.45 -8.15 -14.5 -7.85 -15.1 -7.65 -15.2 -7.65 -15.3 -7.8 -15.4 -7.8 -15.45 -7.15 -15.35 -7.05 -14.7 -7.4 -14.7 -7.45 -14.15 -7.05 -14.9 -6.1 Q-15.45 -5.75 -16.05 -4.0 -16.6 -3.35 -17.2 0.05 -17.6 6.0 -10.85 6.5 -8.3 6.65 -5.3 4.8 -2.85 3.2 -2.8 2.5 -2.25 1.85 -2.15 0.4 -2.0 -1.4 -3.25 -3.65 L-3.45 -3.85 -3.2 -4.3 Q-3.1 -4.3 -2.9 -4.45 L-3.5 -5.9 -3.7 -5.65 -3.6 -5.4 -3.8 -5.15 -3.75 -4.55 -4.8 -5.6 -4.8 -5.7 -5.15 -5.85 -5.25 -5.95 -5.15 -6.05 -5.55 -7.7 Q-4.75 -9.05 -4.6 -9.7 L-4.8 -9.8 Q-5.8 -9.6 -5.95 -7.75 L-5.75 -6.25 -6.75 -6.75 -6.95 -8.5 -6.65 -9.95 Q-7.35 -9.8 -7.45 -8.45 -7.55 -7.15 -7.25 -6.9 L-7.85 -6.9 -8.35 -7.4 -8.55 -9.15 Q-8.5 -10.0 -8.05 -10.25 L-8.0 -10.75 -8.45 -10.9 Q-9.25 -10.95 -9.35 -9.1 -9.45 -8.0 -8.7 -7.05 L-9.6 -7.1 Q-10.5 -8.35 -10.55 -9.35 L-10.35 -9.45 -10.65 -9.55 -10.9 -8.6 -10.3 -7.1 -10.6 -7.1 Q-11.3 -7.8 -11.25 -9.0 -10.95 -9.4 -10.9 -9.95 M19.95 -3.2 L19.8 -3.4 19.2 -2.65 19.95 -3.2 M-21.2 -5.3 L-21.45 -4.6 -21.7 -2.05 -21.65 0.2 -21.9 0.9 -21.75 4.1 -21.75 4.6 Q-21.85 5.65 -21.5 6.35 L-21.3 7.85 -21.6 11.15 -21.9 12.55 Q-22.3 3.55 -22.05 -0.25 L-21.65 -4.4 -21.2 -5.3 M-20.4 -7.7 L-20.4 -8.05 -19.9 -8.0 -19.9 -7.8 -20.4 -7.7 M-12.45 13.95 Q-10.65 15.5 -1.35 15.85 6.6 16.8 9.75 13.95 L-1.1 13.5 -12.45 13.95" fill="#ffddbb" fill-rule="evenodd" stroke="none"/>
    <path d="M22.8 18.0 L23.25 18.15 23.3 18.05 23.4 18.05 23.35 18.25 23.45 18.05 23.5 18.15 23.7 18.15 Q24.2 18.4 24.65 17.75 L24.75 17.85 24.0 18.6 23.7 18.45 Q24.25 19.45 25.75 20.85 L25.2 21.4 26.1 22.05 26.35 21.85 26.6 22.1 28.05 21.8 28.25 21.7 Q26.75 20.35 26.3 19.4 25.15 18.9 25.25 17.95 L25.45 17.9 25.95 18.0 26.1 18.25 26.2 18.15 26.4 18.25 26.4 18.15 26.5 18.25 27.65 19.0 28.25 18.8 28.0 18.25 27.9 18.05 Q26.95 15.85 26.8 13.9 L26.75 12.55 Q26.9 10.4 27.65 8.45 L27.15 8.8 27.05 8.4 27.4 7.85 27.7 6.7 27.7 6.6 27.55 5.6 Q27.55 5.4 27.95 5.45 L27.95 5.4 28.05 5.35 Q28.35 5.75 28.3 6.6 L28.25 6.9 Q28.55 7.15 28.5 7.55 L27.45 11.7 Q27.3 13.75 29.0 18.75 28.95 19.7 27.7 19.6 L27.2 19.55 27.25 19.95 29.0 21.55 Q28.95 22.55 27.45 22.75 L28.45 23.6 29.3 23.35 29.55 23.8 Q29.5 24.45 27.8 25.35 25.6 26.4 23.15 26.2 22.3 26.15 21.55 25.7 L21.45 25.7 Q19.0 25.55 18.05 21.8 L17.85 20.85 17.95 20.9 Q17.65 19.6 17.85 16.65 18.05 13.9 18.4 11.55 18.8 11.1 18.85 10.15 L18.8 9.25 Q19.0 7.95 19.35 6.9 20.55 3.05 20.7 1.1 L19.8 -5.35 Q19.75 -3.2 18.9 -3.25 18.6 -3.3 18.2 -4.5 L18.55 -4.9 18.25 -4.9 18.1 -4.85 17.95 -5.3 17.15 -6.25 17.1 -5.55 17.0 -4.1 17.0 -4.0 16.7 -3.9 16.85 -3.5 Q16.35 -0.15 14.75 2.4 14.95 -1.6 14.75 -4.45 L14.95 -4.45 Q15.05 -4.45 15.15 -4.55 L15.05 0.8 Q16.3 -2.4 16.5 -5.5 16.1 -8.0 15.95 -10.5 14.75 -11.35 14.9 -13.25 L15.2 -12.8 Q15.35 -12.1 15.8 -11.55 L15.85 -11.65 16.2 -11.25 17.15 -10.65 Q16.35 -12.05 16.45 -13.2 L16.55 -13.5 17.35 -11.75 17.9 -10.15 17.55 -10.1 16.75 -10.15 17.15 -7.75 19.0 -4.35 19.1 -4.35 19.25 -6.6 19.4 -7.1 19.6 -7.2 Q21.15 -7.1 21.4 1.1 21.3 2.6 20.0 7.65 18.7 12.6 18.3 17.9 18.2 19.85 18.5 21.3 L18.65 21.95 19.25 23.1 Q19.5 23.65 21.75 25.3 L21.75 25.4 23.2 25.6 Q26.95 25.85 28.25 24.15 26.1 23.85 25.95 22.65 L24.6 21.55 23.6 21.45 22.45 21.1 22.5 20.85 23.25 20.9 23.7 21.15 23.9 21.15 25.1 21.35 24.55 21.0 25.05 20.8 Q23.7 19.9 23.25 18.55 L23.25 18.35 22.95 18.4 22.8 18.0 M-28.2 -9.05 L-28.1 -9.05 -28.3 -7.9 Q-28.35 -7.0 -29.0 -4.8 L-29.25 -4.0 -29.25 -3.8 -30.1 -1.6 -31.2 4.7 Q-31.55 6.65 -31.45 11.3 -31.75 15.3 -33.8 17.05 -33.4 17.55 -32.4 17.8 L-31.9 17.75 -32.05 16.8 -32.05 16.6 -31.95 16.6 Q-31.55 17.0 -31.4 17.7 L-31.5 17.8 -31.4 17.9 -31.3 17.9 -31.35 18.4 -31.4 19.2 -31.5 19.4 Q-30.15 19.0 -29.15 17.55 L-28.85 17.55 -28.9 18.35 Q-30.05 19.4 -31.35 19.9 L-31.75 19.85 -32.75 21.35 -30.5 21.5 -28.5 20.85 -28.2 20.45 Q-27.9 20.7 -27.9 21.1 -27.95 21.5 -29.65 22.15 L-29.75 22.35 Q-29.9 22.65 -28.75 22.75 L-27.0 22.45 -27.1 22.35 Q-24.1 21.75 -23.5 18.65 L-22.4 14.2 Q-22.9 4.2 -22.55 -0.4 L-22.15 -4.85 Q-21.8 -7.0 -21.0 -7.95 L-22.45 -8.05 -22.55 -8.4 -22.75 -8.4 -22.75 -8.1 -23.25 -8.15 -23.15 -8.4 Q-9.95 -9.3 -6.0 -13.55 L-5.5 -13.95 Q-4.55 -15.05 -2.0 -19.1 L-0.85 -20.8 Q0.4 -22.35 1.5 -22.4 L1.6 -22.4 2.1 -22.35 Q3.85 -22.15 5.1 -21.5 L5.2 -21.4 7.0 -19.05 7.2 -19.05 7.6 -17.15 7.9 -18.45 Q7.95 -19.3 6.85 -21.5 L7.15 -21.55 7.55 -21.45 Q8.1 -21.3 8.45 -20.45 L8.65 -18.95 Q14.35 -14.25 15.05 -5.05 L14.7 -5.15 14.65 -5.7 14.7 -5.9 14.6 -6.15 14.15 -8.3 13.95 -8.75 12.15 -13.8 Q11.4 -15.65 10.65 -16.45 9.15 -17.55 8.6 -18.3 8.45 -15.85 7.3 -15.9 6.65 -18.35 6.2 -19.0 4.6 -21.45 1.55 -21.65 0.25 -21.75 -2.4 -17.25 -4.4 -14.15 -5.45 -13.15 -8.05 -11.15 -10.9 -9.95 L-11.25 -10.05 -11.6 -9.65 Q-15.45 -8.3 -19.7 -8.0 L-19.9 -8.1 -19.9 -8.0 -20.4 -8.05 -20.4 -7.7 Q-20.95 -7.4 -20.95 -7.0 L-20.8 -6.4 -20.8 -6.3 -20.9 -6.2 -21.2 -5.3 -21.65 -4.4 -22.05 -0.25 Q-22.3 3.55 -21.9 12.55 L-22.35 16.35 -22.25 17.25 -22.5 18.4 Q-23.45 21.6 -25.55 22.45 -26.15 23.45 -28.9 23.3 -30.65 23.15 -30.6 22.5 L-30.05 22.05 -30.55 22.1 -33.6 21.9 -33.7 21.5 Q-32.5 20.45 -32.05 19.65 L-32.0 18.85 -31.75 18.35 -31.75 18.25 -32.35 18.4 Q-34.3 18.3 -34.2 17.05 -32.25 15.05 -32.1 12.05 L-31.85 6.65 Q-31.3 -1.0 -28.3 -9.1 L-28.2 -9.05 M-24.95 -7.5 L-24.7 -9.45 -24.5 -9.5 Q-24.25 -9.0 -24.4 -8.05 L-24.15 -8.3 -24.2 -8.4 -24.15 -8.4 -23.45 -9.85 -23.25 -9.85 Q-23.35 -9.75 -23.45 -9.75 L-23.35 -9.65 -23.15 -9.65 -23.15 -9.35 -23.65 -8.35 -23.25 -8.45 -23.35 -8.15 -23.85 -8.15 -24.25 -7.55 -24.55 -7.65 -24.95 -7.5" fill="#70510a" fill-rule="evenodd" stroke="none"/>
    <path d="M28.05 -5.9 L27.6 -5.85 27.55 -6.55 27.95 -6.4 28.35 -6.3 28.05 -5.9 M-10.9 -9.95 Q-10.95 -9.4 -11.25 -9.0 -11.3 -7.8 -10.6 -7.1 L-10.3 -7.1 -10.9 -8.6 -10.65 -9.55 -10.35 -9.45 -10.55 -9.35 Q-10.5 -8.35 -9.6 -7.1 L-8.7 -7.05 Q-9.45 -8.0 -9.35 -9.1 -9.25 -10.95 -8.45 -10.9 L-8.0 -10.75 -8.05 -10.25 Q-8.5 -10.0 -8.55 -9.15 L-8.35 -7.4 -7.85 -6.9 -7.25 -6.9 Q-7.55 -7.15 -7.45 -8.45 -7.35 -9.8 -6.65 -9.95 L-6.95 -8.5 -6.75 -6.75 -5.75 -6.25 -5.95 -7.75 Q-5.8 -9.6 -4.8 -9.8 L-4.6 -9.7 Q-4.75 -9.05 -5.55 -7.7 L-5.15 -6.05 -5.25 -5.95 -5.15 -5.85 -4.8 -5.7 -4.8 -5.6 -3.75 -4.55 -3.8 -5.15 -3.6 -5.4 -3.7 -5.65 -3.5 -5.9 -2.9 -4.45 Q-3.1 -4.3 -3.2 -4.3 L-3.45 -3.85 -3.25 -3.65 Q-2.0 -1.4 -2.15 0.4 -2.25 1.85 -2.8 2.5 -2.85 3.2 -5.3 4.8 -8.3 6.65 -10.85 6.5 -17.6 6.0 -17.2 0.05 -16.6 -3.35 -16.05 -4.0 -15.45 -5.75 -14.9 -6.1 L-14.15 -7.05 -14.7 -7.45 -15.05 -7.6 -14.7 -7.4 -15.35 -7.05 -15.45 -7.15 -15.4 -7.8 -15.3 -7.8 -15.2 -7.65 -15.1 -7.65 -14.5 -7.85 -14.45 -8.15 -14.25 -8.1 -13.65 -7.2 -13.15 -7.2 Q-13.65 -7.65 -13.55 -8.65 L-13.45 -8.95 -13.25 -8.95 -11.75 -7.2 -11.55 -7.15 -11.2 -7.3 -11.0 -7.15 -11.75 -9.05 -11.6 -9.65 -11.25 -10.05 -10.9 -9.95 M18.2 -4.5 L17.65 -3.85 Q19.2 -3.05 19.45 1.7 L18.8 4.4 Q18.75 4.8 17.3 6.85 16.65 7.55 14.45 8.45 L11.7 8.25 11.7 8.05 Q4.25 7.95 4.8 0.0 4.9 -1.45 6.5 -3.35 L7.1 -4.0 6.55 -5.4 6.65 -5.6 6.9 -5.6 7.3 -4.15 Q8.2 -5.0 9.1 -5.25 L8.65 -7.15 8.65 -7.75 8.85 -7.75 Q9.55 -7.2 9.45 -5.4 L10.2 -5.45 10.85 -9.35 11.25 -9.3 11.1 -7.55 Q10.95 -6.2 10.6 -5.55 L10.9 -5.55 11.25 -5.3 11.6 -5.4 Q12.7 -6.35 12.8 -9.2 L12.9 -7.95 Q12.8 -6.65 11.9 -5.45 L12.75 -5.5 Q13.65 -6.9 13.7 -7.6 L13.55 -8.35 14.05 -8.3 14.1 -7.65 Q13.7 -6.0 13.15 -5.45 L13.25 -5.45 14.15 -5.3 14.7 -5.15 15.05 -5.05 15.15 -5.05 15.25 -4.6 15.15 -4.55 Q15.05 -4.45 14.95 -4.45 L14.75 -4.45 14.3 -4.6 Q14.2 -4.9 13.1 -4.95 L10.85 -4.85 10.65 -4.95 10.65 -5.05 Q9.1 -4.85 7.45 -3.3 5.45 -1.35 5.35 0.1 4.9 7.15 13.15 7.75 18.65 8.1 19.1 1.65 19.2 0.15 18.6 -1.25 L16.85 -3.5 16.7 -3.9 17.0 -4.0 17.0 -4.1 17.35 -3.95 Q17.4 -4.55 18.1 -4.85 L18.25 -4.9 18.55 -4.9 18.2 -4.5 M14.7 -5.9 L14.65 -5.7 Q14.55 -5.4 14.05 -5.4 L13.95 -5.65 14.5 -6.15 14.7 -5.9 M19.95 -3.2 L19.2 -2.65 19.8 -3.4 19.95 -3.2 M9.5 1.5 Q9.4 2.55 8.25 2.5 7.25 2.4 7.3 1.75 7.4 0.35 8.8 0.45 9.55 0.5 9.5 1.5 M8.6 0.85 L8.55 1.05 8.95 1.05 9.0 0.95 8.7 0.85 8.6 0.85 M-12.2 -6.7 Q-14.35 -6.85 -15.7 -3.4 -16.4 -1.7 -16.65 0.2 -17.0 5.3 -10.8 5.75 -7.25 6.0 -4.7 3.5 -2.8 1.6 -2.75 0.35 -3.4 -6.0 -8.7 -6.35 L-11.4 -6.35 Q-11.25 -6.55 -11.9 -6.7 L-12.2 -6.7 M-6.45 1.05 L-6.85 1.45 -6.75 1.75 -6.3 1.8 -6.15 1.4 -6.45 1.05 M-7.75 1.4 Q-7.65 0.05 -6.2 0.15 -5.0 0.2 -5.05 1.25 -5.1 2.15 -6.55 2.65 -7.8 2.5 -7.75 1.4" fill="#000000" fill-rule="evenodd" stroke="none"/>
    <path d="M16.85 -3.5 L18.6 -1.25 Q19.2 0.15 19.1 1.65 18.65 8.1 13.15 7.75 4.9 7.15 5.35 0.1 5.45 -1.35 7.45 -3.3 9.1 -4.85 10.65 -5.05 L10.65 -4.95 10.85 -4.85 13.1 -4.95 Q14.2 -4.9 14.3 -4.6 L14.75 -4.45 Q14.95 -1.6 14.75 2.4 16.35 -0.15 16.85 -3.5 M9.5 1.5 Q9.55 0.5 8.8 0.45 7.4 0.35 7.3 1.75 7.25 2.4 8.25 2.5 9.4 2.55 9.5 1.5 M8.6 0.85 L8.7 0.85 9.0 0.95 8.95 1.05 8.55 1.05 8.6 0.85 M-12.2 -6.7 L-11.9 -6.7 Q-11.25 -6.55 -11.4 -6.35 L-8.7 -6.35 Q-3.4 -6.0 -2.75 0.35 -2.8 1.6 -4.7 3.5 -7.25 6.0 -10.8 5.75 -17.0 5.3 -16.65 0.2 -16.4 -1.7 -15.7 -3.4 -14.35 -6.85 -12.2 -6.7 M-6.45 1.05 L-6.15 1.4 -6.3 1.8 -6.75 1.75 -6.85 1.45 -6.45 1.05 M-7.75 1.4 Q-7.8 2.5 -6.55 2.65 -5.1 2.15 -5.05 1.25 -5.0 0.2 -6.2 0.15 -7.65 0.05 -7.75 1.4" fill="#ffffff" fill-rule="evenodd" stroke="none"/>
    <path d="M-19.7 -8.0 L-19.5 -7.85 -18.15 -7.9 Q-17.05 -7.8 -17.1 -6.85 -17.2 -5.65 -19.15 -5.7 L-19.4 -5.15 -19.55 -1.3 -19.2 1.9 -18.8 1.9 Q-16.45 2.1 -16.65 5.05 -16.85 7.7 -19.5 7.5 L-19.4 9.25 -19.25 10.0 -19.4 10.6 -19.5 11.9 -19.55 12.3 -19.65 13.75 Q-18.6 16.0 -18.3 17.65 L-17.8 18.7 -16.3 21.3 -16.4 21.7 -16.3 21.8 -15.9 22.4 -14.5 23.7 Q-14.55 24.25 -15.35 24.2 -16.05 24.15 -17.35 22.5 L-17.55 22.5 Q-18.8 22.4 -20.35 20.15 -21.7 18.15 -21.65 17.6 L-22.25 17.25 -22.35 16.35 -21.9 12.55 -21.6 11.15 -21.3 7.85 -21.5 6.35 Q-21.85 5.65 -21.75 4.6 L-21.75 4.1 -21.9 0.9 -21.65 0.2 -21.7 -2.05 -21.45 -4.6 -21.2 -5.3 -20.9 -6.2 -20.8 -6.3 -20.8 -6.4 -20.95 -7.0 Q-20.95 -7.4 -20.4 -7.7 L-19.9 -7.8 -19.9 -8.0 -19.9 -8.1 -19.7 -8.0 M18.4 11.55 Q17.85 12.15 16.95 12.05 15.0 11.95 15.15 10.0 15.3 8.0 17.25 8.1 18.55 8.2 18.8 9.25 L18.85 10.15 Q18.8 11.1 18.4 11.55" fill="#ffb99b" fill-rule="evenodd" stroke="none"/>
    <path d="M1.5 14.65 L1.45 14.35 Q1.2 14.45 1.4 14.5 L1.5 14.65 M2.95 15.05 L3.85 14.9 4.65 14.85 4.45 14.75 3.85 14.8 3.75 14.65 2.0 14.75 -0.15 14.7 -0.45 14.6 -0.45 14.7 -2.4 14.55 -2.8 14.45 -2.9 14.4 -2.8 14.55 -4.7 14.3 -5.25 14.35 -5.55 14.45 -5.95 14.3 -5.95 14.2 -5.95 14.1 -6.05 14.1 -7.15 13.95 -7.25 14.0 -7.8 14.1 -7.9 14.3 -3.75 14.75 -2.4 14.85 Q-1.7 15.2 -0.85 14.85 L-0.35 14.9 0.25 14.95 1.9 14.95 2.95 15.05 M-12.45 13.95 L-1.1 13.5 9.75 13.95 Q6.6 16.8 -1.35 15.85 -10.65 15.5 -12.45 13.95" fill="#ff1515" fill-rule="evenodd" stroke="none"/>
    <path d="M2.95 15.05 L1.9 14.95 0.25 14.95 -0.35 14.9 -0.85 14.85 Q-1.7 15.2 -2.4 14.85 L-3.75 14.75 -7.9 14.3 -7.8 14.1 -7.25 14.0 -7.15 13.95 -6.05 14.1 -5.95 14.1 -5.95 14.2 -5.95 14.3 -5.55 14.45 -5.25 14.35 -4.7 14.3 -2.8 14.55 -2.9 14.4 -2.8 14.45 -2.4 14.55 -0.45 14.7 -0.45 14.6 -0.15 14.7 2.0 14.75 3.75 14.65 3.85 14.8 4.45 14.75 4.65 14.85 3.85 14.9 2.95 15.05 M1.5 14.65 L1.4 14.5 Q1.2 14.45 1.45 14.35 L1.5 14.65" fill="#ffa4a4" fill-rule="evenodd" stroke="none"/>
    <path d="M27.95 -6.4 Q26.5 -13.4 21.6 -19.25 L21.3 -19.6 Q13.8 -28.2 2.7 -29.35 L1.5 -29.45 Q-10.45 -30.25 -19.6 -22.4 -21.8 -20.5 -23.45 -18.35 -26.75 -14.1 -28.2 -9.05" fill="none" stroke="#a27202" stroke-linecap="round" stroke-linejoin="round" stroke-width="0.5"/>
    <path d="M27.95 5.45 L27.95 5.4 28.45 1.5 Q28.7 -2.3 28.05 -5.9 M-22.5 18.4 L-22.4 18.5 Q-14.45 27.65 -2.5 28.45 9.2 29.25 18.05 21.8" fill="none" stroke="#865204" stroke-linecap="round" stroke-linejoin="round" stroke-width="0.5"/>
    <path d="M-12.45 13.95 L-1.1 13.5 9.75 13.95 Q6.6 16.8 -1.35 15.85 -10.65 15.5 -12.45 13.95" fill="none" stroke="#990000" stroke-linecap="round" stroke-linejoin="round" stroke-width="0.5"/>
    <path d="M63.1 -49.45 L83.4 -27.9 77.4 -22.2 56.0 -43.7 63.1 -49.45 M77.85 41.45 L58.55 55.0 54.6 50.0 74.05 35.6 77.85 41.45 M-62.55 -50.95 L-74.4 -35.35 -78.35 -38.65 -66.65 -55.0 -62.55 -50.95 M-58.35 41.95 L-63.0 47.45 -85.8 31.1 -80.15 25.35 -58.35 41.95" fill="#e6e6e6" fill-opacity="0.49803922" fill-rule="evenodd" stroke="none"/>
  </g>
</svg>
