<?xml version="1.0" encoding="UTF-8" standalone="no"?>
<svg xmlns:xlink="http://www.w3.org/1999/xlink" height="22.05px" width="29.5px" xmlns="http://www.w3.org/2000/svg">
  <g transform="matrix(1.0, 0.0, 0.0, 1.0, 14.75, 11.0)">
    <path d="M-12.1 1.05 L-14.0 0.05 -13.4 -0.4 Q-7.3 -3.9 -0.9 -10.25 L-0.9 -3.2 14.0 -4.65 14.0 -0.4 0.35 0.25 Q-5.75 1.6 -12.1 1.05" fill="#ffffcc" fill-rule="evenodd" stroke="none"/>
    <path d="M14.0 -0.4 L14.0 4.4 -0.9 2.3 -0.9 10.3 Q-6.25 4.25 -12.1 1.05 -5.75 1.6 0.35 0.25 L14.0 -0.4" fill="#ffffbb" fill-rule="evenodd" stroke="none"/>
    <path d="M-12.1 1.05 L-14.0 0.05 -13.4 -0.4 Q-7.3 -3.9 -0.9 -10.25 L-0.9 -3.2 14.0 -4.65 14.0 -0.4 14.0 4.4 -0.9 2.3 -0.9 10.3 Q-6.25 4.25 -12.1 1.05 Z" fill="none" stroke="#f95239" stroke-linecap="round" stroke-linejoin="round" stroke-width="1.5"/>
  </g>
</svg>
