<?xml version="1.0" encoding="UTF-8" standalone="no"?>
<svg xmlns:xlink="http://www.w3.org/1999/xlink" height="19.0px" width="17.0px" xmlns="http://www.w3.org/2000/svg">
  <g transform="matrix(1.0, 0.0, 0.0, 1.0, 6.0, 8.0)">
    <path d="M9.5 11.0 Q8.85 11.0 8.45 10.55 8.0 10.15 8.0 9.5 8.0 8.9 8.45 8.45 8.85 8.0 9.5 8.0 10.1 8.0 10.55 8.45 11.0 8.9 11.0 9.5 11.0 10.15 10.55 10.55 10.1 11.0 9.5 11.0" fill="#cccccc" fill-rule="evenodd" stroke="none"/>
    <path d="M6.0 -0.9 L2.35 -0.9 2.35 8.0 -2.3 8.0 -2.3 -0.9 -6.0 -0.9 0.0 -8.0 6.0 -0.9" fill="url(#gradient0)" fill-rule="evenodd" stroke="none"/>
  </g>
  <defs>
    <radialGradient cx="0" cy="0" gradientTransform="matrix(0.007, 0.0, 0.0, 0.0128, 0.05, 0.0)" gradientUnits="userSpaceOnUse" id="gradient0" r="819.2" spreadMethod="pad">
      <stop offset="0.0" stop-color="#cccccc"/>
      <stop offset="1.0" stop-color="#736740"/>
    </radialGradient>
  </defs>
</svg>
