<?xml version="1.0" encoding="UTF-8" standalone="no"?>
<svg xmlns:xlink="http://www.w3.org/1999/xlink" height="24.35px" width="31.55px" xmlns="http://www.w3.org/2000/svg">
  <g transform="matrix(1.0, 0.0, 0.0, 1.0, 16.0, 11.9)">
    <path d="M3.8 -11.0 L3.8 -5.05 15.05 -5.05 15.05 5.7 3.8 5.7 3.8 11.55 -15.0 0.25 3.8 -11.0 M1.8 -3.05 L1.8 -7.45 -11.1 0.25 1.8 8.0 1.8 3.7 13.05 3.7 13.05 -3.05 1.8 -3.05" fill="#000000" fill-rule="evenodd" stroke="none"/>
    <path d="M1.8 -3.05 L13.05 -3.05 13.05 3.7 1.8 3.7 1.8 8.0 -11.1 0.25 1.8 -7.45 1.8 -3.05" fill="#ff3300" fill-rule="evenodd" stroke="none"/>
    <path d="M3.8 -11.0 L-15.0 0.25 3.8 11.55 3.8 5.7 15.05 5.7 15.05 -5.05 3.8 -5.05 3.8 -11.0 Z" fill="none" stroke="#ffffff" stroke-linecap="butt" stroke-linejoin="miter-clip" stroke-miterlimit="3.0" stroke-width="1.0"/>
  </g>
</svg>
