<?xml version="1.0" encoding="UTF-8" standalone="no"?>
<svg xmlns:xlink="http://www.w3.org/1999/xlink" height="29.65px" width="32.6px" xmlns="http://www.w3.org/2000/svg">
  <g transform="matrix(1.0, 0.0, 0.0, 1.0, 16.75, 14.5)">
    <path d="M14.05 -3.55 L13.8 -3.5 13.75 -3.8 14.0 -3.75 14.2 -3.7 14.05 -3.55 M-8.4 2.5 Q-7.6 1.95 -7.75 1.15 L-7.75 1.05 -7.7 0.9 -7.5 1.1 -7.5 1.15 -5.05 1.5 -1.75 1.15 -2.55 1.65 -1.9 2.7 Q-1.95 2.85 -2.15 2.85 L-2.7 1.8 -2.6 1.65 -3.35 1.8 Q-3.2 1.95 -3.15 3.0 L-3.2 3.25 Q-3.55 3.15 -3.55 2.6 L-3.55 1.85 -3.5 1.8 -4.35 1.85 Q-4.1 2.1 -4.1 2.45 L-4.25 3.5 -4.4 3.6 -4.55 3.25 -4.35 2.3 -4.45 2.05 -4.4 1.85 -4.65 1.85 -4.9 1.85 -4.85 2.25 -5.05 3.45 -5.15 3.5 -5.25 3.15 -5.05 1.85 -5.45 1.85 Q-5.45 2.6 -6.25 3.35 L-6.3 3.25 -5.7 1.85 -6.1 1.8 Q-6.1 2.5 -7.15 3.35 L-7.25 3.35 -7.3 3.25 -6.65 2.35 -6.25 1.8 -6.95 1.65 -6.95 1.7 Q-6.95 2.1 -7.95 3.2 L-8.05 3.2 -8.1 3.1 -7.15 1.6 -7.45 1.5 Q-7.55 2.05 -8.35 2.65 L-8.6 2.85 -8.7 2.65 -8.4 2.5 M10.05 -1.9 L9.65 -1.65 9.95 -2.0 10.05 -1.9 M9.55 1.2 Q9.25 1.5 8.35 1.65 L8.3 1.9 8.9 2.75 8.9 2.9 8.6 2.9 8.1 1.95 8.15 1.7 7.55 1.75 7.8 2.6 Q7.35 2.45 7.35 1.8 L7.35 1.75 7.05 1.8 6.95 2.15 Q6.95 2.65 7.6 2.85 L7.35 2.95 Q6.75 2.95 6.75 2.2 6.75 1.95 6.9 1.8 L6.15 1.8 6.05 2.25 Q6.05 2.75 6.35 2.8 L6.35 2.95 6.05 2.95 5.85 2.3 5.95 1.8 5.3 1.8 5.1 2.5 5.2 2.75 5.2 2.85 5.0 2.9 4.9 2.85 4.9 2.55 5.0 1.8 4.35 1.7 4.1 2.3 4.25 2.85 4.1 2.9 Q3.85 2.9 3.85 2.4 3.85 2.0 4.1 1.7 L3.5 1.55 3.5 1.7 Q3.5 2.1 2.9 2.65 L2.85 2.5 3.3 1.75 3.15 1.45 3.0 1.4 3.0 1.2 Q3.45 1.2 3.5 1.35 L5.15 1.45 5.3 1.45 5.9 1.5 7.4 1.4 9.55 0.9 9.55 1.2 M9.0 1.6 L9.25 1.45 9.2 1.55 10.05 2.2 10.05 2.35 9.7 2.35 9.0 1.6 M-7.9 -2.95 L-7.7 -2.8 -8.0 -2.6 -8.05 -2.65 -8.05 -3.0 -8.0 -3.0 -7.95 -2.95 -7.9 -2.95" fill="#000000" fill-rule="evenodd" stroke="none"/>
    <path d="M7.3 -6.5 L7.4 -6.35 7.65 -6.35 7.65 -6.45 4.95 -9.85 3.3 -11.45 Q1.05 -12.25 0.6 -12.75 L0.55 -12.75 Q0.5 -12.35 1.4 -11.9 L1.3 -11.9 0.9 -11.8 0.95 -11.75 Q1.95 -11.4 3.1 -10.5 L2.9 -10.55 2.75 -10.5 3.4 -9.05 3.3 -8.4 3.0 -9.35 3.1 -9.4 2.25 -10.5 Q1.35 -11.35 0.9 -11.35 L0.75 -11.35 1.85 -10.45 0.3 -10.8 Q0.6 -10.8 0.6 -11.2 L0.2 -12.75 Q-0.3 -14.05 -0.9 -14.05 L-1.15 -13.7 -0.8 -13.0 -0.75 -12.85 Q-1.4 -12.75 -1.7 -12.15 L-2.9 -10.75 -3.75 -9.45 -3.45 -10.05 -3.95 -9.25 -4.3 -8.8 -4.4 -8.8 Q-4.5 -8.25 -6.2 -6.8 L-6.15 -6.75 -4.9 -7.9 -6.8 -6.15 -6.6 -6.1 Q-5.5 -6.85 -4.5 -8.3 L-4.3 -8.5 -4.3 -8.6 -4.05 -9.0 -1.45 -12.15 -0.55 -12.6 -0.5 -12.55 -0.45 -12.45 -0.8 -12.2 Q-1.7 -11.85 -1.8 -11.25 -2.45 -10.75 -2.9 -9.5 -3.55 -7.85 -4.35 -7.15 -5.3 -6.3 -7.15 -5.55 L-8.9 -4.7 -7.7 -5.65 -5.55 -7.8 -3.45 -10.35 -3.55 -10.1 -3.5 -10.1 -2.5 -11.75 Q-2.0 -12.75 -1.25 -13.05 L-1.15 -13.1 -1.2 -13.1 -1.2 -13.15 -1.15 -13.3 Q-1.15 -13.55 -1.65 -13.55 L-1.7 -13.6 -1.95 -13.6 Q-4.55 -13.35 -6.7 -12.4 L-6.9 -12.45 Q-7.35 -12.45 -8.4 -11.5 -9.75 -10.65 -10.9 -9.45 L-12.75 -6.55 -13.9 -3.9 -13.8 -3.4 -13.75 -3.45 -13.15 -5.25 -13.1 -5.15 -13.0 -5.2 -12.95 -5.25 -13.0 -5.0 Q-13.35 -4.2 -13.35 -2.8 L-14.25 -0.75 -14.4 1.7 -14.25 4.4 -14.25 4.6 -14.2 5.0 -14.15 5.25 -14.05 5.2 -14.0 4.2 -14.2 -0.1 -13.75 -1.55 -13.3 -2.5 -13.25 -2.05 -13.2 -2.1 -12.55 -5.15 -12.65 -4.4 -12.6 -3.7 -12.45 -3.7 Q-11.2 -9.3 -6.65 -12.15 L-6.65 -12.3 Q-4.75 -13.15 -2.3 -13.4 -5.9 -12.4 -7.75 -10.7 L-10.4 -7.25 -10.35 -7.2 Q-7.05 -11.85 -2.25 -13.4 L-2.3 -13.35 -2.15 -13.2 Q-5.1 -11.8 -6.55 -9.65 L-5.35 -10.75 Q-7.65 -7.75 -11.15 -4.9 L-9.7 -6.5 -7.85 -8.65 -3.45 -12.8 -3.6 -12.85 -5.9 -11.2 Q-7.4 -10.1 -8.1 -8.85 L-11.55 -4.7 -11.5 -4.55 -11.4 -4.6 -11.3 -4.6 Q-4.7 -10.05 -4.7 -11.3 L-2.1 -13.15 -1.7 -13.1 -2.55 -12.0 -2.75 -12.2 -6.05 -8.1 Q-7.1 -6.65 -10.4 -4.1 L-10.3 -4.0 -10.5 -3.95 -11.7 -3.55 -11.65 -3.4 -11.4 -3.35 -6.85 -4.65 -3.5 -6.15 Q-5.35 -3.9 -12.0 -3.05 L-11.95 -3.2 -12.05 -3.05 -12.25 -3.0 -12.05 -3.5 -12.05 -3.65 Q-6.2 -6.85 -3.75 -11.7 -5.75 -8.65 -6.95 -7.55 -10.8 -4.45 -12.1 -3.7 L-12.2 -3.7 -12.5 -3.0 -12.55 -3.0 -12.5 -2.95 -12.65 -2.8 -12.75 -3.55 -12.85 -3.5 -12.9 -2.5 Q-13.35 -2.15 -13.35 0.05 L-13.1 4.4 -13.1 4.5 -13.1 4.65 -13.1 5.0 -13.3 6.25 Q-13.55 7.3 -14.15 8.4 L-13.95 7.8 -13.7 6.25 -13.7 5.75 -13.75 5.0 -13.8 4.4 -13.9 1.95 Q-13.9 0.15 -13.3 -1.55 -13.95 -1.0 -13.95 0.25 L-14.1 2.05 -13.9 3.9 -13.85 6.15 -13.85 6.25 Q-13.9 7.8 -14.95 9.85 L-15.25 10.4 -15.3 10.45 -15.6 9.9 -15.65 9.9 -15.65 10.0 -15.6 10.25 -15.55 10.5 -15.8 10.55 Q-16.3 10.45 -16.55 10.2 L-16.35 10.05 Q-15.55 9.1 -15.55 7.2 L-15.6 6.4 -15.6 6.25 -15.65 5.0 -15.65 4.4 -15.65 3.75 -15.3 0.55 -14.95 -0.55 -14.95 -0.65 -14.85 -1.05 -14.6 -2.6 -14.55 -3.2 -14.6 -3.2 Q-14.05 -5.7 -12.5 -7.9 L-10.7 -10.05 Q-6.35 -14.25 -0.25 -14.25 L0.35 -14.25 Q6.05 -14.05 10.15 -10.05 L10.3 -9.9 Q13.0 -7.2 14.0 -3.75 L13.75 -3.8 13.8 -3.5 14.05 -3.55 Q14.5 -1.8 14.5 0.15 L14.4 2.05 Q14.2 2.05 14.2 2.15 L14.3 2.65 14.3 2.7 14.2 3.3 14.05 3.6 14.1 3.8 14.35 3.6 14.15 4.4 14.2 4.4 14.1 5.0 14.05 5.65 14.05 5.8 14.1 6.2 14.1 6.25 14.1 6.3 14.1 6.5 14.05 6.25 13.75 5.0 13.65 4.4 13.7 4.4 13.6 3.5 14.0 -0.15 12.25 -6.0 12.15 -5.9 13.1 -3.1 Q13.7 -1.4 13.7 -0.15 L13.5 2.05 Q13.5 -0.15 13.05 -2.1 L12.05 -4.45 11.35 -5.7 9.5 -9.05 Q7.3 -12.5 6.15 -12.5 L5.95 -12.5 5.95 -12.35 Q8.25 -10.95 11.1 -5.95 L11.0 -5.95 11.3 -5.55 11.35 -5.5 Q13.4 -2.55 13.4 2.15 L13.35 3.25 13.3 3.45 13.3 3.55 13.2 4.4 13.25 4.4 13.15 5.0 13.05 5.75 13.05 5.85 13.05 5.9 13.1 6.25 13.15 6.7 Q13.25 7.7 13.6 8.3 L13.8 8.6 13.55 8.55 13.45 8.6 Q13.45 9.1 14.05 9.3 L14.85 10.2 15.1 10.4 15.0 10.45 14.3 10.65 14.15 10.55 14.05 10.65 13.55 10.35 Q13.7 10.3 13.8 10.2 L13.8 10.05 13.7 10.0 13.45 9.75 12.7 8.9 12.85 8.95 12.9 8.95 13.2 8.55 13.25 8.65 13.4 8.55 13.3 8.4 12.4 6.25 12.15 5.0 12.15 4.9 12.15 4.85 12.2 4.4 12.45 0.65 Q12.45 -2.45 11.4 -4.35 L11.4 -4.4 8.4 -9.05 6.45 -11.3 Q4.35 -13.3 3.05 -13.3 L2.9 -13.3 Q6.15 -11.65 8.1 -9.0 L11.1 -4.7 11.05 -4.65 Q12.25 -2.45 12.25 0.65 L12.0 4.4 11.95 4.85 11.95 5.0 12.0 5.85 12.0 5.9 12.05 6.25 12.05 6.4 Q12.15 7.6 12.6 8.1 L12.6 8.05 12.45 7.65 12.15 6.5 12.15 6.3 13.1 8.4 13.15 8.5 12.8 8.8 12.7 8.75 12.6 8.75 12.55 8.7 11.7 5.9 11.6 5.9 11.6 6.2 11.65 6.25 12.5 8.7 12.45 8.7 12.45 8.75 12.2 8.7 Q11.5 7.65 11.25 6.25 L11.1 5.0 11.1 4.65 11.1 4.5 11.1 4.4 11.1 4.35 11.4 -0.3 Q11.4 -1.95 11.0 -3.1 9.25 -7.0 7.4 -8.85 L4.6 -11.4 Q1.75 -13.65 0.5 -13.65 L0.35 -13.6 4.4 -11.25 7.15 -8.6 9.4 -5.75 10.5 -3.75 Q11.25 -1.8 11.25 -0.3 L11.0 4.4 11.05 4.4 11.0 5.0 10.95 5.15 11.0 5.65 11.0 6.25 Q11.15 8.1 12.0 9.1 L12.9 9.85 12.95 9.7 12.8 9.55 12.3 8.9 12.45 8.85 12.45 8.95 12.85 9.6 13.05 9.75 13.45 10.05 13.2 10.15 11.1 8.8 11.05 8.75 10.45 7.25 10.3 6.5 10.2 6.5 10.2 6.95 11.05 8.95 12.15 10.0 12.25 10.05 12.55 10.15 12.15 10.15 12.15 10.3 12.75 10.45 13.25 10.45 14.0 10.95 Q14.1 11.5 14.95 11.65 L15.2 11.65 15.0 11.9 15.0 11.95 Q14.3 12.55 12.7 12.55 L11.95 12.5 11.95 12.45 11.7 12.3 10.6 11.4 10.25 10.85 10.15 10.55 9.95 8.8 9.95 8.55 9.95 8.0 10.1 6.25 10.2 5.0 10.3 4.4 10.45 3.45 10.9 0.15 Q10.5 -3.85 9.7 -3.85 L9.6 -3.8 Q9.6 -4.55 8.3 -6.7 L6.9 -8.8 Q3.3 -12.2 0.2 -13.1 L0.15 -13.05 Q4.5 -11.35 6.7 -8.75 L7.95 -6.9 7.9 -6.75 Q7.9 -6.15 8.35 -5.55 8.05 -5.6 7.85 -5.75 L7.65 -5.95 7.65 -5.9 7.3 -6.5 M3.6 -10.05 L5.65 -7.7 Q6.55 -6.5 7.85 -3.6 L7.95 -3.65 Q6.75 -7.1 5.75 -8.1 L4.0 -10.15 2.4 -11.45 3.2 -11.25 4.8 -9.65 7.1 -6.7 Q7.1 -5.75 7.75 -5.4 7.9 -4.15 8.2 -2.95 8.2 -1.4 7.7 0.2 L7.55 -2.4 7.6 -2.45 7.55 -2.65 7.5 -2.65 Q6.8 -7.2 3.75 -9.35 L3.6 -10.05 M0.0 -11.35 L0.05 -11.3 -0.05 -11.05 0.0 -10.8 Q-0.55 -10.75 -1.15 -9.9 L-0.5 -11.3 0.0 -11.35 M0.0 -10.8 L0.25 -10.95 0.3 -10.8 0.05 -10.8 0.0 -10.8 M-0.15 -11.8 L-0.3 -11.75 -0.3 -11.7 -0.5 -11.55 -0.55 -11.65 Q-1.35 -11.35 -2.3 -9.35 L-3.85 -6.65 Q-4.3 -6.1 -5.45 -5.7 L-7.4 -5.15 -9.35 -4.35 -9.5 -4.3 -9.4 -4.35 -6.8 -5.45 Q-4.8 -6.3 -4.0 -7.2 L-2.7 -9.2 -1.7 -11.05 -1.65 -11.05 -0.6 -12.1 -0.3 -12.25 -0.1 -11.85 -0.15 -11.8 M9.55 -3.6 L9.55 -2.45 9.5 -2.45 8.45 -4.05 8.15 -5.25 8.55 -5.25 8.75 -5.3 9.45 -3.6 9.55 -3.6 M12.0 -6.5 L11.9 -6.5 11.9 -6.2 10.15 -9.75 10.1 -9.75 12.25 -4.95 12.5 -3.95 12.55 -4.0 12.55 -4.3 12.45 -4.6 12.45 -4.8 12.25 -5.4 12.0 -6.5 M13.95 8.65 L13.8 8.35 Q13.3 7.2 13.2 6.25 L13.15 5.7 13.25 5.0 13.3 4.5 13.3 4.4 13.35 3.95 13.45 4.4 13.4 4.4 13.55 5.0 13.9 6.25 13.9 6.35 14.8 8.7 14.85 8.65 14.9 8.7 15.0 8.9 14.7 9.05 14.1 8.7 14.05 8.65 14.05 8.7 13.95 8.65 M12.7 8.2 L12.7 8.15 12.65 8.15 12.7 8.2 M10.45 8.05 L10.35 8.05 Q10.4 9.25 11.5 10.85 L11.55 10.8 Q10.8 9.9 10.6 8.85 L10.45 8.05 M11.85 11.0 L11.75 11.0 Q12.75 11.65 13.35 11.65 L13.5 11.6 11.85 11.0 M11.1 10.7 L11.0 10.7 11.0 11.0 11.55 11.55 11.7 11.5 11.7 11.4 11.15 10.85 11.1 10.7 M12.9 10.25 L12.8 10.25 12.55 10.15 12.9 10.25 M-8.7 -11.25 L-9.05 -10.9 -10.85 -8.75 -10.9 -8.65 Q-12.6 -6.5 -12.9 -5.45 L-13.0 -5.55 Q-12.15 -7.65 -10.8 -9.3 L-8.7 -11.25 M-12.35 -5.8 L-12.4 -5.7 -12.45 -5.65 -12.35 -5.8 M-11.65 -5.25 L-11.6 -5.15 -9.85 -7.6 Q-11.65 -5.85 -11.65 -5.25 M-11.65 -2.9 L-10.9 -2.9 -11.4 -1.3 -11.45 0.9 -11.25 4.4 -11.2 5.0 -11.1 5.8 -11.05 6.25 -11.0 6.4 -11.0 6.5 -11.0 6.55 -10.85 8.2 -10.85 8.35 -11.25 10.65 Q-11.45 12.25 -12.95 12.65 L-12.9 12.7 -13.25 12.85 -13.75 12.9 -14.25 12.85 -14.3 12.75 -14.25 12.65 -14.0 12.55 -13.4 12.05 -13.45 11.85 -13.55 11.75 -13.7 11.95 -14.7 12.35 -15.85 12.35 -15.4 11.55 -15.2 11.55 -14.0 10.7 -14.0 10.3 -14.15 10.3 -14.8 11.05 -15.3 11.3 -15.25 11.2 -15.25 10.55 -14.25 8.65 -14.2 8.8 -13.05 6.9 -12.85 6.25 -12.75 5.7 -12.7 6.1 -12.7 6.25 -12.7 6.3 -12.7 6.5 Q-12.7 7.5 -12.95 8.3 -13.3 9.35 -14.05 10.0 L-14.25 10.2 -14.6 10.4 -14.55 10.45 -14.4 10.4 -14.0 10.15 Q-12.7 9.05 -12.55 6.25 L-12.55 5.8 -12.55 5.65 -12.6 5.0 -12.65 4.4 -12.6 4.4 -12.8 1.0 -12.8 0.75 -12.65 1.6 -12.65 1.65 -12.4 4.4 -12.3 5.0 -12.25 5.35 -12.15 6.25 -11.9 7.95 Q-11.9 9.05 -12.25 9.95 L-13.2 11.2 Q-11.6 9.85 -11.6 7.9 L-11.85 6.25 -12.0 5.0 -12.1 4.4 -12.05 4.4 -12.35 1.6 -12.3 1.2 Q-12.3 2.25 -11.7 3.85 L-11.7 3.95 -11.65 4.4 -11.6 5.0 -11.45 6.25 -11.45 6.45 -11.55 9.4 -11.95 10.85 -12.3 11.3 -13.0 12.05 Q-11.35 11.2 -11.35 9.4 L-11.2 7.7 -11.15 6.45 -11.15 6.25 -11.25 5.55 -11.3 5.0 -11.35 4.75 -11.4 4.4 -11.35 4.4 -11.45 3.75 -11.45 3.7 -11.75 0.15 Q-11.4 -1.4 -11.4 -2.3 L-11.45 -2.5 -11.6 -2.45 -11.6 -2.65 -11.65 -2.9 M-11.9 -0.55 L-11.95 0.1 -11.85 1.85 -12.05 -0.05 -11.9 -0.55 M-12.1 -2.9 L-12.35 -2.4 -12.45 -2.15 -12.45 -2.4 -12.55 -2.55 -12.35 -2.9 -12.1 -2.9 M-12.15 -2.5 L-12.05 -2.9 -11.8 -2.9 -11.95 -2.1 -12.05 -2.25 -12.15 -2.5 M-12.55 -0.3 L-12.65 1.05 -12.7 0.15 -12.55 -0.3 M-14.55 1.3 L-14.65 1.3 -14.65 2.8 -14.5 4.4 -14.5 4.95 -14.5 5.0 -14.5 5.4 -14.5 5.55 -14.55 6.25 Q-14.7 7.5 -15.4 9.1 L-15.5 9.3 -15.45 9.4 Q-14.55 8.4 -14.4 6.25 L-14.4 5.75 -14.45 4.4 -14.4 4.4 -14.55 1.3 M-14.65 0.3 L-14.6 0.8 -14.55 0.75 Q-14.45 -1.7 -13.95 -2.6 -14.65 -2.35 -14.65 0.3 M-16.5 9.95 L-16.55 9.9 -16.4 9.8 -16.5 9.95 M-14.95 12.15 L-14.9 12.2 -14.1 11.8 -14.95 12.15" fill="#fdc551" fill-rule="evenodd" stroke="none"/>
    <path d="M3.1 -10.5 Q1.95 -11.4 0.95 -11.75 L0.9 -11.8 1.3 -11.9 1.4 -11.9 Q0.5 -12.35 0.55 -12.75 L0.6 -12.75 Q1.05 -12.25 3.3 -11.45 L4.95 -9.85 7.65 -6.45 7.65 -6.35 7.4 -6.35 7.3 -6.5 7.1 -6.7 4.8 -9.65 3.2 -11.25 2.4 -11.45 4.0 -10.15 5.75 -8.1 Q6.75 -7.1 7.95 -3.65 L7.85 -3.6 Q6.55 -6.5 5.65 -7.7 L3.6 -10.05 3.1 -10.5 M7.95 -6.9 L6.7 -8.75 Q4.5 -11.35 0.15 -13.05 L0.2 -13.1 Q3.3 -12.2 6.9 -8.8 L8.3 -6.7 Q9.6 -4.55 9.6 -3.8 L9.55 -3.6 9.45 -3.6 8.75 -5.3 8.4 -6.05 7.95 -6.9 M12.55 10.15 L12.25 10.05 12.15 10.0 11.05 8.95 10.2 6.95 10.2 6.5 10.3 6.5 10.45 7.25 11.05 8.75 11.1 8.8 13.2 10.15 13.5 10.35 12.9 10.25 12.55 10.15 M12.3 8.9 L12.8 9.55 12.95 9.7 12.9 9.85 12.0 9.1 Q11.15 8.1 11.0 6.25 L11.0 5.65 10.95 5.15 11.0 5.0 11.05 4.4 11.0 4.4 11.25 -0.3 Q11.25 -1.8 10.5 -3.75 L9.4 -5.75 7.15 -8.6 4.4 -11.25 0.35 -13.6 0.5 -13.65 Q1.75 -13.65 4.6 -11.4 L7.4 -8.85 Q9.25 -7.0 11.0 -3.1 11.4 -1.95 11.4 -0.3 L11.1 4.35 11.1 4.4 11.1 4.5 11.1 4.65 11.1 5.0 11.25 6.25 Q11.5 7.65 12.2 8.7 L12.3 8.9 M12.15 6.3 L12.15 6.5 12.45 7.65 12.6 8.05 12.6 8.1 Q12.15 7.6 12.05 6.4 L12.05 6.25 12.0 5.9 12.0 5.85 11.95 5.0 11.95 4.85 12.0 4.4 12.25 0.65 Q12.25 -2.45 11.05 -4.65 L11.1 -4.7 8.1 -9.0 Q6.15 -11.65 2.9 -13.3 L3.05 -13.3 Q4.35 -13.3 6.45 -11.3 L8.4 -9.05 11.4 -4.4 11.4 -4.35 Q12.45 -2.45 12.45 0.65 L12.2 4.4 12.15 4.85 12.15 4.75 12.15 4.65 12.05 4.65 12.0 5.3 12.15 6.25 12.15 6.3 M13.8 8.6 L13.6 8.3 Q13.25 7.7 13.15 6.7 L13.1 6.25 13.05 5.9 13.05 5.85 13.05 5.75 13.15 5.0 13.25 4.4 13.2 4.4 13.3 3.55 13.3 3.45 13.35 3.25 13.4 2.15 Q13.4 -2.55 11.35 -5.5 L11.3 -5.55 11.0 -5.95 11.1 -5.95 Q8.25 -10.95 5.95 -12.35 L5.95 -12.5 6.15 -12.5 Q7.3 -12.5 9.5 -9.05 L11.35 -5.7 12.05 -4.45 13.05 -2.1 Q13.5 -0.15 13.5 2.05 L13.7 -0.15 Q13.7 -1.4 13.1 -3.1 L12.15 -5.9 12.25 -6.0 14.0 -0.15 13.6 3.5 13.7 4.4 13.65 4.4 13.75 5.0 14.05 6.25 14.1 6.5 14.3 7.25 14.8 8.55 14.85 8.65 14.8 8.7 13.9 6.35 13.9 6.25 13.55 5.0 13.4 4.4 13.45 4.4 13.35 3.95 13.3 4.4 13.3 4.5 13.25 5.0 13.15 5.7 13.2 6.25 Q13.3 7.2 13.8 8.35 L13.95 8.65 13.9 8.7 13.8 8.6 M-15.3 10.45 L-15.25 10.4 -14.95 9.85 Q-13.9 7.8 -13.85 6.25 L-13.85 6.15 -13.9 3.9 -14.1 2.05 -13.95 0.25 Q-13.95 -1.0 -13.3 -1.55 -13.9 0.15 -13.9 1.95 L-13.8 4.4 -13.75 5.0 -13.7 5.75 -13.7 6.25 -13.95 7.8 -14.15 8.4 -14.2 8.55 -14.25 8.6 -14.25 8.65 -15.25 10.55 -15.3 10.55 -15.35 10.5 -15.3 10.45 M-12.2 -3.7 L-12.1 -3.7 Q-10.8 -4.45 -6.95 -7.55 -5.75 -8.65 -3.75 -11.7 -6.2 -6.85 -12.05 -3.65 L-12.15 -3.65 -12.2 -3.7 M-12.05 -3.05 L-11.95 -3.2 -12.0 -3.05 -12.05 -2.9 -12.15 -2.5 -12.2 -2.55 -12.35 -2.4 -12.1 -2.9 -12.05 -3.05 M-3.5 -6.15 L-6.85 -4.65 -11.4 -3.35 -11.65 -3.4 -11.7 -3.55 -10.5 -3.95 -10.3 -4.0 -10.2 -3.95 Q-10.0 -3.95 -9.5 -4.3 L-9.35 -4.35 -7.4 -5.15 -5.45 -5.7 Q-4.3 -6.1 -3.85 -6.65 L-2.3 -9.35 Q-1.35 -11.35 -0.55 -11.65 L-0.5 -11.55 -0.3 -11.7 0.0 -11.35 -0.5 -11.3 -1.15 -9.9 -1.65 -9.05 Q-2.8 -6.95 -3.25 -6.35 L-3.5 -6.15 M-2.55 -12.0 L-1.7 -13.1 -2.1 -13.15 -4.7 -11.3 -4.8 -11.5 -5.35 -10.75 -6.55 -9.65 Q-5.1 -11.8 -2.15 -13.2 L-2.3 -13.35 -2.25 -13.4 Q-7.05 -11.85 -10.35 -7.2 L-10.4 -7.25 -7.75 -10.7 Q-5.9 -12.4 -2.3 -13.4 -4.75 -13.15 -6.65 -12.3 L-6.65 -12.4 -6.7 -12.4 Q-4.55 -13.35 -1.95 -13.6 L-1.7 -13.6 -1.65 -13.55 Q-1.15 -13.55 -1.15 -13.3 L-1.2 -13.15 -1.2 -13.1 -1.15 -13.1 -1.25 -13.05 Q-2.0 -12.75 -2.5 -11.75 L-3.5 -10.1 -3.55 -10.1 -3.45 -10.35 Q-2.55 -11.55 -2.55 -12.0 M-12.55 -5.15 L-13.2 -2.1 -13.25 -2.05 -13.3 -2.5 -13.2 -2.75 -13.3 -2.85 -13.35 -2.8 Q-13.35 -4.2 -13.0 -5.0 L-12.95 -5.25 -13.0 -5.2 -13.1 -5.15 -13.15 -5.25 -13.75 -3.45 -13.8 -3.4 -13.9 -3.9 -12.75 -6.55 -10.9 -9.45 Q-9.75 -10.65 -8.4 -11.5 L-8.7 -11.25 -10.8 -9.3 Q-12.15 -7.65 -13.0 -5.55 L-12.9 -5.45 Q-12.6 -6.5 -10.9 -8.65 -11.9 -7.2 -12.3 -6.0 L-12.35 -5.85 -12.35 -5.8 -12.45 -5.65 -12.4 -5.7 -12.55 -5.15 M-8.9 -4.7 L-7.15 -5.55 Q-5.3 -6.3 -4.35 -7.15 -3.55 -7.85 -2.9 -9.5 -2.45 -10.75 -1.8 -11.25 -1.7 -11.85 -0.8 -12.2 L-0.45 -12.45 -0.3 -12.25 -0.6 -12.1 -1.65 -11.05 -1.7 -11.05 -2.7 -9.2 -4.0 -7.2 Q-4.8 -6.3 -6.8 -5.45 L-9.4 -4.35 -8.9 -4.7 M-0.55 -12.6 L-1.45 -12.15 -4.05 -9.0 -4.3 -8.6 -4.3 -8.5 -4.5 -8.3 Q-5.5 -6.85 -6.6 -6.1 L-6.8 -6.15 -4.9 -7.9 -6.15 -6.75 -6.2 -6.8 Q-4.5 -8.25 -4.4 -8.8 L-4.3 -8.8 -3.95 -9.25 -3.45 -10.05 -3.75 -9.45 -2.9 -10.75 -1.7 -12.15 Q-1.4 -12.75 -0.75 -12.85 L-0.55 -12.6 M1.85 -10.45 L0.75 -11.35 0.9 -11.35 Q1.35 -11.35 2.25 -10.5 L3.1 -9.4 3.0 -9.35 2.9 -9.35 1.9 -10.4 1.85 -10.45 M-0.1 -11.8 L-0.15 -11.8 -0.1 -11.85 -0.1 -11.8 M12.0 -6.5 L12.25 -5.4 12.45 -4.8 12.45 -4.6 12.55 -4.3 12.55 -4.0 12.5 -3.95 12.25 -4.95 10.1 -9.75 10.15 -9.75 11.9 -6.2 11.9 -6.5 12.0 -6.5 M12.7 8.2 L12.65 8.15 12.7 8.15 12.7 8.2 M10.45 8.05 L10.6 8.85 Q10.8 9.9 11.55 10.8 L11.5 10.85 Q10.4 9.25 10.35 8.05 L10.45 8.05 M11.1 10.7 L11.15 10.85 11.7 11.4 11.7 11.5 11.55 11.55 11.0 11.0 11.0 10.7 11.1 10.7 M11.85 11.0 L13.5 11.6 13.35 11.65 Q12.75 11.65 11.75 11.0 L11.85 11.0 M-11.65 -5.25 Q-11.65 -5.85 -9.85 -7.6 L-11.6 -5.15 -11.65 -5.25 M-11.6 -2.45 L-11.45 -2.5 -11.4 -2.3 Q-11.4 -1.4 -11.75 0.15 L-11.45 3.7 -11.85 1.85 -11.95 0.1 -11.9 -0.55 -11.75 -1.3 -11.6 -2.45 M-11.45 3.75 L-11.35 4.4 -11.4 4.4 -11.35 4.75 -11.3 5.0 -11.25 5.55 -11.15 6.25 -11.15 6.45 -11.2 7.7 -11.35 9.4 Q-11.35 11.2 -13.0 12.05 L-12.3 11.3 -11.95 10.85 -11.55 9.4 -11.45 6.45 -11.45 6.25 -11.6 5.0 -11.65 4.4 -11.7 3.95 -11.65 4.0 -11.55 4.0 -11.45 3.75 M-12.3 1.2 L-12.35 1.6 -12.05 4.4 -12.1 4.4 -12.0 5.0 -11.85 6.25 -11.6 7.9 Q-11.6 9.85 -13.2 11.2 L-12.25 9.95 Q-11.9 9.05 -11.9 7.95 L-12.15 6.25 -12.25 5.35 -12.3 5.0 -12.4 4.4 -12.65 1.65 -12.65 1.6 -12.5 2.4 -12.45 2.35 -12.65 1.05 -12.55 -0.3 Q-12.45 -1.85 -12.05 -2.25 L-11.95 -2.1 -12.15 -1.15 -12.3 1.1 -12.3 1.2 M-12.8 0.75 L-12.8 1.0 -12.6 4.4 -12.65 4.4 -12.6 5.0 -12.55 5.65 -12.55 5.8 -12.55 6.25 Q-12.7 9.05 -14.0 10.15 L-14.4 10.4 -14.55 10.45 -14.6 10.4 -14.25 10.2 -14.05 10.0 Q-13.3 9.35 -12.95 8.3 -12.7 7.5 -12.7 6.5 L-12.7 6.3 -12.7 6.25 -12.7 6.1 -12.75 5.7 -12.7 5.0 -12.7 4.75 -12.7 4.5 -12.7 4.4 -12.85 0.85 -12.8 0.65 -12.8 0.75 M-12.45 -2.15 L-12.35 -2.4 -12.55 -1.45 -12.45 -2.15 M-14.65 0.3 Q-14.65 -2.35 -13.95 -2.6 -14.45 -1.7 -14.55 0.75 L-14.6 0.8 -14.65 0.3 M-14.55 1.3 L-14.4 4.4 -14.45 4.4 -14.4 5.75 -14.4 6.25 Q-14.55 8.4 -15.45 9.4 L-15.5 9.3 -15.4 9.1 Q-14.7 7.5 -14.55 6.25 L-14.5 5.55 -14.5 5.4 -14.5 5.0 -14.5 4.95 -14.5 4.4 -14.65 2.8 -14.65 1.3 -14.55 1.3 M-14.95 12.15 L-14.1 11.8 -14.9 12.2 -14.95 12.15" fill="#fee1a5" fill-rule="evenodd" stroke="none"/>
    <path d="M7.3 -6.5 L7.65 -5.9 7.65 -5.95 7.85 -5.75 Q8.05 -5.6 8.35 -5.55 7.9 -6.15 7.9 -6.75 L7.95 -6.9 8.4 -6.05 8.75 -5.3 8.55 -5.25 8.15 -5.25 8.45 -4.05 9.5 -2.45 9.55 -2.45 9.55 -3.6 9.6 -3.8 9.7 -3.85 Q10.5 -3.85 10.9 0.15 L10.45 3.45 10.3 4.4 10.2 5.0 10.1 6.25 9.95 8.0 9.95 8.55 9.95 8.8 10.15 10.55 10.25 10.85 10.6 11.4 11.7 12.3 11.95 12.45 11.95 12.5 12.7 12.55 Q14.3 12.55 15.0 11.95 L15.0 11.9 15.2 11.65 14.95 11.65 Q14.1 11.5 14.0 10.95 L13.25 10.45 12.75 10.45 12.15 10.3 12.15 10.15 12.55 10.15 12.8 10.25 12.9 10.25 13.5 10.35 13.2 10.15 13.45 10.05 13.05 9.75 12.85 9.6 12.45 8.95 12.45 8.85 12.3 8.9 12.2 8.7 12.45 8.75 12.45 8.7 12.5 8.7 12.5 8.8 12.55 8.7 12.6 8.75 12.7 8.75 12.8 8.8 13.15 8.5 13.2 8.55 12.9 8.95 12.85 8.95 12.7 8.9 13.45 9.75 13.7 10.0 13.8 10.05 13.8 10.2 Q13.7 10.3 13.55 10.35 L14.05 10.65 14.15 10.55 14.3 10.65 15.0 10.45 15.1 10.4 14.85 10.2 14.05 9.3 Q13.45 9.1 13.45 8.6 L13.55 8.55 13.8 8.6 13.9 8.7 13.95 8.65 14.05 8.7 14.05 8.65 14.1 8.7 14.7 9.05 15.0 8.9 14.9 8.7 14.85 8.65 14.8 8.55 14.3 7.25 14.1 6.5 14.1 6.3 14.1 6.25 14.1 6.2 14.05 5.8 14.05 5.65 14.1 5.0 14.2 4.4 14.15 4.4 14.35 3.6 14.1 3.8 14.05 3.6 14.2 3.3 14.3 2.7 14.3 2.65 14.2 2.15 Q14.2 2.05 14.4 2.05 L14.45 2.05 14.6 2.65 14.6 2.8 14.75 3.1 14.55 4.4 14.45 5.0 14.35 5.35 Q14.4 6.35 15.4 8.6 L15.4 8.8 15.4 8.85 Q15.4 9.35 14.75 9.35 L14.6 9.35 15.5 10.0 15.45 10.25 15.5 10.3 Q15.5 10.7 15.05 10.9 L15.3 11.05 15.7 10.9 15.85 11.1 15.8 11.3 15.85 11.4 15.0 12.25 Q13.95 12.85 12.7 12.85 L11.85 12.65 11.8 12.65 Q10.55 12.65 9.95 10.8 L9.9 10.6 9.8 10.35 9.85 10.35 Q9.7 9.85 9.7 8.8 L9.65 8.2 9.65 7.95 9.7 6.75 9.7 6.25 9.75 5.6 9.95 5.0 9.95 4.85 9.95 4.7 9.9 4.4 9.95 4.4 9.9 4.25 10.1 3.1 10.55 0.15 9.9 -3.0 Q9.95 -1.9 9.5 -1.9 L9.1 -2.5 9.25 -2.7 9.1 -2.7 9.05 -2.65 8.95 -2.9 8.5 -3.35 8.5 -3.0 8.5 -2.25 8.5 -2.2 8.35 -2.15 8.45 -1.95 Q8.3 -0.25 7.6 1.0 L7.35 -2.35 7.45 -2.35 7.55 -2.4 7.7 0.2 Q8.2 -1.4 8.2 -2.95 7.9 -4.15 7.75 -5.4 7.1 -5.75 7.1 -6.7 L7.3 -6.5 M-14.6 -3.2 L-14.55 -3.2 -14.6 -2.6 -14.85 -1.05 -14.95 -0.65 -14.95 -0.55 -15.3 0.55 -15.65 3.75 -15.65 4.4 -15.65 5.0 -15.6 6.25 -15.6 6.4 -15.55 7.2 Q-15.55 9.1 -16.35 10.05 L-16.55 10.2 Q-16.3 10.45 -15.8 10.55 L-15.55 10.5 -15.6 10.25 -15.65 10.0 -15.65 9.9 -15.6 9.9 -15.3 10.45 -15.35 10.5 -15.3 10.55 -15.25 10.55 -15.25 11.2 -15.3 11.3 -14.8 11.05 -14.15 10.3 -14.0 10.3 -14.0 10.7 -15.2 11.55 -15.4 11.55 -15.85 12.35 -14.7 12.35 -13.7 11.95 -13.55 11.75 -13.45 11.85 -13.4 12.05 -14.0 12.55 -14.25 12.65 -14.3 12.75 -14.25 12.85 -13.75 12.9 -13.25 12.85 -12.9 12.7 -12.95 12.65 Q-11.45 12.25 -11.25 10.65 L-10.85 8.35 -10.85 8.2 -11.0 6.55 -11.0 6.5 -11.0 6.4 -11.05 6.25 -11.1 5.8 -11.2 5.0 -11.25 4.4 -11.45 0.9 -11.4 -1.3 -10.9 -2.9 -11.65 -2.9 -11.7 -3.05 -11.8 -3.05 -11.8 -2.9 -12.05 -2.9 -12.0 -3.05 Q-5.35 -3.9 -3.5 -6.15 L-3.25 -6.35 Q-2.8 -6.95 -1.65 -9.05 L-1.15 -9.9 Q-0.55 -10.75 0.0 -10.8 L0.05 -10.8 0.3 -10.8 1.85 -10.45 1.9 -10.4 2.9 -9.35 3.0 -9.35 3.3 -8.4 3.4 -9.05 2.75 -10.5 2.9 -10.55 3.1 -10.5 3.6 -10.05 3.75 -9.35 Q6.8 -7.2 7.5 -2.65 L7.3 -2.7 7.25 -3.0 7.25 -3.1 7.2 -3.2 6.9 -4.25 6.8 -4.45 5.7 -6.9 4.85 -8.15 Q4.05 -8.65 3.75 -9.0 3.75 -7.75 3.15 -7.75 L2.5 -9.3 Q1.6 -10.4 0.05 -10.4 -0.6 -10.4 -1.8 -8.1 L-3.2 -5.95 Q-4.45 -4.9 -5.85 -4.2 L-6.05 -4.25 -6.2 -4.0 Q-8.1 -3.25 -10.25 -2.95 L-10.35 -3.0 -10.35 -2.95 -10.6 -2.95 -10.6 -2.75 -10.85 -2.4 -10.75 -2.1 -10.75 -2.05 -10.8 -2.0 -10.9 -1.6 -11.1 -1.1 -11.15 0.95 -10.95 4.4 -10.9 5.0 -10.8 5.65 -10.8 5.85 -10.75 6.25 -10.7 6.95 -10.65 7.3 -10.65 7.4 -10.65 7.5 -10.7 8.35 -10.75 9.25 -10.75 9.45 -10.65 9.85 -10.65 9.9 -10.7 10.25 -10.75 10.5 Q-11.1 12.15 -12.15 12.65 -12.4 13.2 -13.8 13.2 -14.7 13.2 -14.7 12.85 L-14.6 12.7 -14.65 12.65 -14.7 12.65 -16.25 12.65 -16.3 12.45 -16.15 12.3 -16.25 12.3 -16.3 12.1 -15.55 11.15 -15.55 10.8 -15.75 10.85 Q-16.75 10.85 -16.75 10.2 L-16.7 10.15 -16.75 9.9 Q-15.85 8.95 -15.85 7.6 L-15.85 7.4 -15.9 4.85 -15.9 4.7 -15.9 4.4 Q-15.85 0.75 -14.65 -3.2 L-14.6 -3.2 M-12.9 -2.5 L-12.85 -3.5 -12.75 -3.55 -12.65 -2.8 -12.5 -2.95 -12.55 -3.0 -12.5 -3.0 -12.2 -3.7 -12.15 -3.65 -12.05 -3.65 -12.05 -3.5 -12.25 -3.0 -12.05 -3.05 -12.1 -2.9 -12.35 -2.9 -12.55 -2.55 -12.7 -2.6 -12.9 -2.5 M-16.5 9.95 L-16.4 9.8 -16.55 9.9 -16.5 9.95" fill="#70510a" fill-rule="evenodd" stroke="none"/>
    <path d="M7.5 -2.65 L7.55 -2.65 7.6 -2.45 7.55 -2.4 7.45 -2.35 7.35 -2.35 7.6 1.0 Q8.3 -0.25 8.45 -1.95 L8.35 -2.15 8.5 -2.2 8.5 -2.25 8.7 -2.2 Q8.7 -2.5 9.05 -2.65 L9.1 -2.7 9.25 -2.7 9.1 -2.5 9.5 -1.9 Q9.95 -1.9 9.9 -3.0 L10.55 0.15 10.1 3.1 9.9 4.25 Q9.7 3.8 9.05 3.8 8.25 3.8 8.1 4.4 L8.15 4.4 8.05 4.75 8.05 4.85 8.05 4.9 8.05 5.0 Q8.1 5.9 9.05 5.9 L9.75 5.65 9.75 5.6 9.7 6.25 9.7 6.75 9.65 7.95 9.65 8.2 9.7 8.8 Q9.7 9.85 9.85 10.35 L9.8 10.35 9.9 10.6 9.95 10.8 Q5.7 14.9 -0.25 14.9 -6.35 14.9 -10.7 10.55 L-10.75 10.5 -10.7 10.25 -10.65 9.9 -10.35 10.05 -9.75 11.15 -9.6 11.3 Q-8.75 12.4 -8.1 12.4 L-8.0 12.4 -6.9 13.2 -6.6 13.15 -6.5 12.9 -6.6 12.8 Q-6.95 12.5 -7.25 12.3 L-7.5 12.0 -7.55 11.95 -7.5 11.75 -7.55 11.65 -8.35 10.5 -8.65 9.95 -9.45 8.05 -9.45 7.8 -9.45 7.3 -9.45 7.1 -9.45 6.9 -9.45 6.45 -9.4 6.25 -9.4 6.1 -9.5 5.75 -9.55 5.2 -9.55 5.0 -9.6 4.85 -9.55 4.85 -8.9 4.75 -8.75 4.65 -8.55 4.5 -8.5 4.4 -8.6 4.4 Q-8.25 4.1 -8.25 3.4 L-8.35 2.65 Q-7.55 2.05 -7.45 1.5 L-7.15 1.6 -8.1 3.1 -8.05 3.2 -7.95 3.2 Q-6.95 2.1 -6.95 1.7 L-6.95 1.65 -6.25 1.8 -6.65 2.35 -7.3 3.25 -7.25 3.35 -7.15 3.35 Q-6.1 2.5 -6.1 1.8 L-5.7 1.85 -6.3 3.25 -6.25 3.35 Q-5.45 2.6 -5.45 1.85 L-5.05 1.85 -5.25 3.15 -5.15 3.5 -5.05 3.45 -4.85 2.25 -4.9 1.85 -4.65 1.85 -4.4 1.85 -4.45 2.05 -4.35 2.3 -4.55 3.25 -4.4 3.6 -4.25 3.5 -4.1 2.45 Q-4.1 2.1 -4.35 1.85 L-3.5 1.8 -3.55 1.85 -3.55 2.6 Q-3.55 3.15 -3.2 3.25 L-3.15 3.0 Q-3.2 1.95 -3.35 1.8 L-2.6 1.65 -2.7 1.8 -2.15 2.85 Q-1.95 2.85 -1.9 2.7 L-2.55 1.65 -1.75 1.15 -5.05 1.5 -7.5 1.15 -7.5 1.1 -7.7 0.9 -7.75 1.05 -7.75 1.15 Q-7.6 1.95 -8.4 2.5 -8.7 1.95 -9.45 1.95 L-9.65 1.95 -9.95 0.35 -10.0 -1.55 -9.9 -1.8 Q-8.9 -1.85 -8.9 -2.45 -8.9 -2.95 -9.45 -2.95 L-10.15 -2.9 -10.25 -2.95 Q-8.1 -3.25 -6.2 -4.0 L-6.05 -4.25 -5.85 -4.2 Q-4.45 -4.9 -3.2 -5.95 L-1.8 -8.1 Q-0.6 -10.4 0.05 -10.4 1.6 -10.4 2.5 -9.3 L3.15 -7.75 Q3.75 -7.75 3.75 -9.0 4.05 -8.65 4.85 -8.15 L5.7 -6.9 6.8 -4.45 6.9 -4.25 6.85 -4.25 6.9 -3.9 6.5 -2.8 6.55 -2.8 7.0 -2.75 7.3 -2.7 7.5 -2.65 M7.25 -3.0 L6.95 -2.8 6.9 -2.95 7.15 -3.2 7.25 -3.1 7.25 -3.0 M10.05 -1.9 L9.95 -2.0 9.65 -1.65 10.05 -1.9 M9.0 1.6 L9.7 2.35 10.05 2.35 10.05 2.2 9.2 1.55 9.25 1.45 9.0 1.6 M9.55 1.2 L9.55 0.9 7.4 1.4 5.9 1.5 5.3 1.45 5.15 1.45 3.5 1.35 Q3.45 1.2 3.0 1.2 L3.0 1.4 3.15 1.45 3.3 1.75 2.85 2.5 2.9 2.65 Q3.5 2.1 3.5 1.7 L3.5 1.55 4.1 1.7 Q3.85 2.0 3.85 2.4 3.85 2.9 4.1 2.9 L4.25 2.85 4.1 2.3 4.35 1.7 5.0 1.8 4.9 2.55 4.9 2.85 5.0 2.9 5.2 2.85 5.2 2.75 5.1 2.5 5.3 1.8 5.95 1.8 5.85 2.3 6.05 2.95 6.35 2.95 6.35 2.8 Q6.05 2.75 6.05 2.25 L6.15 1.8 6.9 1.8 Q6.75 1.95 6.75 2.2 6.75 2.95 7.35 2.95 L7.6 2.85 Q6.95 2.65 6.95 2.15 L7.05 1.8 7.35 1.75 7.35 1.8 Q7.35 2.45 7.8 2.6 L7.55 1.75 8.15 1.7 8.1 1.95 8.6 2.9 8.9 2.9 8.9 2.75 8.3 1.9 8.35 1.65 Q9.25 1.5 9.55 1.2 M4.6 0.5 L4.45 0.45 4.4 0.45 4.4 0.55 4.6 0.55 4.6 0.5 M4.75 7.9 L4.35 7.75 0.6 7.25 -0.4 7.25 -0.55 7.25 Q-3.5 7.4 -5.2 8.15 L-5.5 8.3 -5.75 8.4 -4.75 8.75 -3.85 8.85 -0.1 8.85 2.85 8.75 3.55 8.65 5.75 8.25 4.75 7.9 M-10.6 -2.75 L-10.6 -2.95 -10.35 -2.95 -10.35 -2.85 -10.6 -2.75 M-10.9 -1.6 L-11.0 -1.2 -11.05 0.1 -10.95 1.2 -11.05 1.55 -10.85 3.1 -10.85 3.35 -10.65 4.2 -10.6 4.4 -10.65 4.4 -10.5 5.0 -10.5 5.1 -10.5 5.4 -10.5 5.45 -10.55 6.25 -10.55 6.6 -10.55 6.8 -10.65 7.5 -10.65 7.4 -10.65 7.3 -10.7 6.95 -10.75 6.25 -10.8 5.85 -10.8 5.65 -10.9 5.0 -10.95 4.4 -11.15 0.95 -11.1 -1.1 -10.9 -1.6 M-7.7 -2.8 L-7.7 -2.85 -7.9 -2.95 -7.95 -2.95 -8.0 -3.0 -8.05 -3.0 -8.05 -2.65 -8.0 -2.6 -7.7 -2.8" fill="#ffddbb" fill-rule="evenodd" stroke="none"/>
    <path d="M4.6 0.5 L4.6 0.55 4.4 0.55 4.4 0.45 4.45 0.45 4.6 0.5" fill="#ffffff" fill-rule="evenodd" stroke="none"/>
    <path d="M2.6 8.2 L2.05 8.15 2.0 8.15 2.0 8.1 2.0 8.05 1.8 8.0 1.65 8.05 1.35 8.1 0.4 8.05 0.45 8.1 0.4 8.1 0.2 8.05 -0.8 8.05 -0.8 8.1 -0.95 8.05 -2.05 8.1 -2.95 8.25 -3.0 8.15 -3.3 8.2 -3.4 8.15 -3.0 8.1 -2.55 8.0 -2.0 8.0 -1.15 7.95 -0.85 7.95 -0.6 7.95 0.15 7.9 0.85 7.9 3.0 8.0 2.95 8.1 2.65 8.15 2.6 8.2 M1.25 7.6 L1.3 7.75 1.25 7.7 1.25 7.6" fill="#ffa4a4" fill-rule="evenodd" stroke="none"/>
    <path d="M12.5 8.7 L11.65 6.25 11.6 6.2 11.6 5.9 11.7 5.9 12.55 8.7 12.5 8.8 12.5 8.7 M13.15 8.5 L13.1 8.4 12.15 6.3 12.15 6.25 12.0 5.3 12.05 4.65 12.15 4.65 12.15 4.75 12.15 4.85 12.15 4.9 12.15 5.0 12.4 6.25 13.3 8.4 13.4 8.55 13.25 8.65 13.2 8.55 13.15 8.5 M-0.5 -12.55 L-0.55 -12.6 -0.75 -12.85 -0.8 -13.0 -0.55 -13.25 Q0.05 -13.25 0.05 -12.75 0.05 -12.45 -0.2 -12.45 L-0.5 -12.55 M0.0 -10.8 L-0.05 -11.05 0.05 -11.3 0.0 -11.35 -0.3 -11.7 -0.3 -11.75 -0.15 -11.8 -0.1 -11.8 -0.05 -11.85 Q0.4 -11.85 0.4 -11.25 L0.25 -10.95 0.0 -10.8" fill="#fdad06" fill-rule="evenodd" stroke="none"/>
    <path d="M-10.25 -2.95 L-10.15 -2.9 -9.45 -2.95 Q-8.9 -2.95 -8.9 -2.45 -8.9 -1.85 -9.9 -1.8 L-10.0 -1.55 -9.95 0.35 -9.65 1.95 -9.45 1.95 Q-8.7 1.95 -8.4 2.5 L-8.7 2.65 -8.6 2.85 -8.35 2.65 -8.25 3.4 Q-8.25 4.1 -8.6 4.4 L-8.5 4.4 -8.55 4.5 -8.75 4.65 -8.9 4.75 -9.55 4.85 -9.6 4.85 -9.55 5.0 -9.55 5.2 -9.5 5.75 -9.4 6.1 -9.4 6.25 -9.45 6.45 -9.45 6.9 -9.45 7.1 -9.45 7.3 -9.45 7.8 -9.45 8.05 -8.65 9.95 -8.35 10.5 -7.55 11.65 -7.5 11.75 -7.55 11.95 -7.5 12.0 -7.25 12.3 Q-6.95 12.5 -6.6 12.8 L-6.5 12.9 -6.6 13.15 -6.9 13.2 -8.0 12.4 -8.1 12.4 Q-8.75 12.4 -9.6 11.3 L-9.75 11.15 -10.35 10.05 -10.65 9.9 -10.65 9.85 -10.75 9.45 -10.75 9.25 -10.7 8.35 -10.65 7.5 -10.55 6.8 -10.55 6.6 -10.55 6.25 -10.5 5.45 -10.5 5.4 -10.5 5.1 -10.5 5.0 -10.65 4.4 -10.6 4.4 -10.65 4.2 -10.85 3.35 -10.85 3.1 -11.05 1.55 -10.95 1.2 -11.05 0.1 -11.0 -1.2 -10.9 -1.6 -10.8 -2.0 -10.75 -2.05 -10.75 -2.1 -10.85 -2.4 -10.6 -2.75 -10.35 -2.85 -10.35 -2.95 -10.35 -3.0 -10.25 -2.95 M9.75 5.6 L9.75 5.65 9.05 5.9 Q8.1 5.9 8.05 5.0 L8.05 4.9 8.05 4.85 8.05 4.75 8.15 4.4 8.1 4.4 Q8.25 3.8 9.05 3.8 9.7 3.8 9.9 4.25 L9.95 4.4 9.9 4.4 9.95 4.7 9.95 4.85 9.95 5.0 9.75 5.6" fill="#ffb99b" fill-rule="evenodd" stroke="none"/>
    <path d="M-14.15 8.4 Q-13.55 7.3 -13.3 6.25 L-13.1 5.0 -13.1 4.65 -13.1 4.5 -13.1 4.4 -13.35 0.05 Q-13.35 -2.15 -12.9 -2.5 L-12.7 -2.6 -12.55 -2.55 -12.45 -2.4 -12.45 -2.15 -12.55 -1.45 -12.35 -2.4 -12.2 -2.55 -12.15 -2.5 -12.05 -2.25 Q-12.45 -1.85 -12.55 -0.3 L-12.7 0.15 -12.65 1.05 -12.45 2.35 -12.5 2.4 -12.65 1.6 -12.8 0.75 -12.8 0.65 -12.85 0.85 -12.7 4.4 -12.7 4.5 -12.7 4.75 -12.7 5.0 -12.75 5.7 -12.85 6.25 -13.05 6.9 -14.2 8.8 -14.25 8.65 -14.25 8.6 -14.2 8.55 -14.15 8.4 M-10.3 -4.0 L-10.4 -4.1 Q-7.1 -6.65 -6.05 -8.1 L-2.75 -12.2 -2.55 -12.0 Q-2.55 -11.55 -3.45 -10.35 L-5.55 -7.8 -7.7 -5.65 -8.9 -4.7 -9.4 -4.35 -9.5 -4.3 Q-10.0 -3.95 -10.2 -3.95 L-10.3 -4.0 M-4.7 -11.3 Q-4.7 -10.05 -11.3 -4.6 L-11.4 -4.6 -11.5 -4.55 -11.55 -4.7 -8.1 -8.85 Q-7.4 -10.1 -5.9 -11.2 L-3.6 -12.85 -3.45 -12.8 -7.85 -8.65 -9.7 -6.5 -11.15 -4.9 Q-7.65 -7.75 -5.35 -10.75 L-4.8 -11.5 -4.7 -11.3 M-6.65 -12.3 L-6.65 -12.15 Q-11.2 -9.3 -12.45 -3.7 L-12.6 -3.7 -12.65 -4.4 -12.55 -5.15 -12.4 -5.7 -12.35 -5.8 -12.35 -5.85 -12.3 -6.0 Q-11.9 -7.2 -10.9 -8.65 L-10.85 -8.75 -9.05 -10.9 -8.7 -11.25 -8.4 -11.5 Q-7.35 -12.45 -6.9 -12.45 L-6.7 -12.4 -6.65 -12.4 -6.65 -12.3 M-13.3 -2.5 L-13.75 -1.55 -14.2 -0.1 -14.0 4.2 -14.05 5.2 -14.15 5.25 -14.2 5.0 -14.25 4.6 -14.25 4.4 -14.4 1.7 -14.25 -0.75 -13.35 -2.8 -13.3 -2.85 -13.2 -2.75 -13.3 -2.5 M-0.45 -12.45 L-0.5 -12.55 -0.2 -12.45 Q0.05 -12.45 0.05 -12.75 0.05 -13.25 -0.55 -13.25 L-0.8 -13.0 -1.15 -13.7 -0.9 -14.05 Q-0.3 -14.05 0.2 -12.75 L0.6 -11.2 Q0.6 -10.8 0.3 -10.8 L0.25 -10.95 0.4 -11.25 Q0.4 -11.85 -0.05 -11.85 L-0.1 -11.8 -0.1 -11.85 -0.3 -12.25 -0.45 -12.45 M-11.8 -2.9 L-11.8 -3.05 -11.7 -3.05 -11.65 -2.9 -11.6 -2.65 -11.6 -2.45 -11.75 -1.3 -11.9 -0.55 -12.05 -0.05 -11.85 1.85 -11.45 3.7 -11.45 3.75 -11.55 4.0 -11.65 4.0 -11.7 3.95 -11.7 3.85 Q-12.3 2.25 -12.3 1.2 L-12.3 1.1 -12.15 -1.15 -11.95 -2.1 -11.8 -2.9" fill="#fdba2f" fill-rule="evenodd" stroke="none"/>
    <path d="M4.75 7.9 L5.75 8.25 3.55 8.65 2.85 8.75 -0.1 8.85 -3.85 8.85 -4.75 8.75 -5.75 8.4 -5.5 8.3 -5.2 8.15 Q-3.5 7.4 -0.55 7.25 L-0.4 7.25 0.6 7.25 4.35 7.75 4.75 7.9 M1.25 7.6 L1.25 7.7 1.3 7.75 1.25 7.6 M2.6 8.2 L2.65 8.15 2.95 8.1 3.0 8.0 0.85 7.9 0.15 7.9 -0.6 7.95 -0.85 7.95 -1.15 7.95 -2.0 8.0 -2.55 8.0 -3.0 8.1 -3.4 8.15 -3.3 8.2 -3.0 8.15 -2.95 8.25 -2.05 8.1 -0.95 8.05 -0.8 8.1 -0.8 8.05 0.2 8.05 0.4 8.1 0.45 8.1 0.4 8.05 1.35 8.1 1.65 8.05 1.8 8.0 2.0 8.05 2.0 8.1 2.0 8.15 2.05 8.15 2.6 8.2" fill="url(#gradient0)" fill-rule="evenodd" stroke="none"/>
    <path d="M14.0 -3.75 Q13.0 -7.2 10.3 -9.9 L10.15 -10.05 Q6.05 -14.05 0.35 -14.25 L-0.25 -14.25 Q-6.35 -14.25 -10.7 -10.05 L-12.5 -7.9 Q-14.05 -5.7 -14.6 -3.2" fill="none" stroke="#a27202" stroke-linecap="round" stroke-linejoin="round" stroke-width="0.5"/>
    <path d="M14.4 2.05 L14.5 0.15 Q14.5 -1.8 14.05 -3.55 M-10.75 10.5 L-10.7 10.55 Q-6.35 14.9 -0.25 14.9 5.7 14.9 9.95 10.8" fill="none" stroke="#865204" stroke-linecap="round" stroke-linejoin="round" stroke-width="0.5"/>
    <path d="M4.75 7.9 L5.75 8.25 3.55 8.65 2.85 8.75 -0.1 8.85 -3.85 8.85 -4.75 8.75 -5.75 8.4 -5.5 8.3 -5.2 8.15 Q-3.5 7.4 -0.55 7.25 L-0.4 7.25 0.6 7.25 4.35 7.75 4.75 7.9" fill="none" stroke="#990000" stroke-linecap="round" stroke-linejoin="round" stroke-width="0.5"/>
  </g>
  <defs>
    <radialGradient cx="0" cy="0" gradientTransform="matrix(0.0079, 0.0, 0.0, 0.0079, 0.0, 8.05)" gradientUnits="userSpaceOnUse" id="gradient0" r="819.2" spreadMethod="pad">
      <stop offset="0.0" stop-color="#990000"/>
      <stop offset="1.0" stop-color="#ff0000"/>
    </radialGradient>
  </defs>
</svg>
