<?xml version="1.0" encoding="UTF-8" standalone="no"?>
<svg xmlns:xlink="http://www.w3.org/1999/xlink" height="4.2px" width="14.3px" xmlns="http://www.w3.org/2000/svg">
  <g transform="matrix(1.0, 0.0, 0.0, 1.0, 6.65, -4.8)">
    <path d="M-0.85 8.7 L-1.0 8.7 -1.9 8.7 -3.45 8.6 -5.25 8.65 -5.9 8.75 -5.9 8.7 -6.4 8.7 -4.45 6.6 -3.4 5.75 Q-2.65 5.15 -1.9 5.05 L1.05 4.95 1.05 5.0 3.25 5.35 3.95 5.8 5.3 6.75 7.35 8.8 7.25 8.85 4.9 8.6 2.3 8.7 2.5 8.6 2.4 8.55 1.5 8.55 1.5 8.4 1.3 8.4 Q1.1 8.4 1.0 8.55 L0.6 8.3 0.0 8.4 -0.1 8.35 -0.3 8.4 -0.4 8.35 Q-0.6 8.35 -0.6 8.5 L-0.85 8.45 -1.9 8.6 -2.05 8.55 -2.25 8.6 -1.9 8.7 -1.35 8.6 -1.0 8.7 -0.85 8.65 -0.85 8.7 M0.65 5.8 Q0.6 5.5 0.05 5.5 -0.75 5.5 -0.8 5.8 L-1.0 5.85 -1.5 6.05 -1.8 6.0 -1.8 6.15 -2.25 6.15 -2.25 6.3 -3.35 6.85 -2.9 6.7 -2.35 6.6 -1.8 6.35 -1.55 6.3 -1.35 6.4 -1.1 6.1 -0.8 6.4 Q-0.35 6.4 -0.4 6.15 L-0.3 6.15 -0.05 6.3 0.5 6.35 0.6 6.3 0.6 6.35 1.4 6.35 1.6 6.1 1.7 6.1 Q1.95 6.4 1.95 6.2 L2.05 6.15 2.15 6.2 2.25 6.1 2.4 6.15 2.55 6.05 2.55 6.15 2.7 6.15 2.75 6.05 2.5 5.9 2.45 5.95 2.2 5.95 Q2.35 5.75 2.0 5.8 L1.95 5.85 1.85 5.8 1.7 5.8 1.5 5.85 1.2 5.8 Q0.9 5.8 0.8 6.05 L0.8 5.9 0.6 5.9 0.65 5.8 M3.45 6.15 L3.25 6.15 3.2 6.25 3.15 6.25 2.95 6.15 Q2.6 6.15 2.6 6.3 L2.65 6.35 2.9 6.35 2.95 6.2 3.25 6.3 3.3 6.2 3.75 6.35 3.75 6.3 3.45 6.15 M4.8 7.1 L3.95 6.75 2.05 6.5 -2.45 6.75 -3.55 7.15 Q-5.35 7.9 -5.35 8.2 L-5.35 8.25 -5.3 8.25 -5.15 8.35 -2.4 8.05 -0.8 7.9 0.15 7.7 4.1 7.9 5.65 8.15 5.8 8.15 6.1 7.95 6.1 8.0 6.2 8.0 6.15 7.9 6.1 7.9 6.15 7.85 5.6 7.45 4.8 7.1" fill="#ff1515" fill-rule="evenodd" stroke="none"/>
    <path d="M2.3 8.7 L4.9 8.6 7.25 8.85 7.35 8.8 5.3 6.75 3.95 5.8 3.25 5.35 1.05 5.0 1.05 4.95 -1.9 5.05 Q-2.65 5.15 -3.4 5.75 L-4.45 6.6 -6.4 8.7 -5.9 8.7 -5.9 8.75 -5.25 8.65 -3.45 8.6 -1.9 8.7 -1.0 8.7 -0.85 8.7 -0.7 8.75 -0.65 8.7 -0.45 8.7 -0.35 8.8 -0.2 8.7 -0.15 8.7 0.0 8.75 0.05 8.7 0.3 8.7 2.3 8.7 M4.8 7.1 L5.6 7.45 6.15 7.85 6.1 7.9 6.15 7.9 6.2 8.0 6.1 8.0 6.1 7.95 5.8 8.15 5.65 8.15 4.1 7.9 0.15 7.7 -0.8 7.9 -2.4 8.05 -5.15 8.35 -5.3 8.25 -5.35 8.25 -5.35 8.2 Q-5.35 7.9 -3.55 7.15 L-2.45 6.75 2.05 6.5 3.95 6.75 4.8 7.1 M0.8 7.7 L4.15 7.8 5.5 8.05 5.9 7.85 Q3.95 6.65 2.05 6.65 L-1.4 6.75 Q-2.25 6.75 -3.65 7.45 L-4.85 8.05 -4.65 8.0 -2.5 7.9 -0.8 7.7 0.15 7.55 0.8 7.7 M1.55 8.9 L-0.1 8.85 -0.05 8.8 -1.85 8.9 -3.2 8.75 -5.15 8.85 -5.65 8.9 -6.0 8.85 -6.2 8.9 Q-6.7 8.9 -6.65 8.7 L-4.75 6.65 -2.85 5.1 -0.05 4.8 3.25 5.1 Q3.95 5.4 5.4 6.6 7.65 8.25 7.65 8.8 L7.4 8.9 7.45 8.95 7.3 9.0 4.95 8.75 1.55 8.9" fill="#990000" fill-rule="evenodd" stroke="none"/>
    <path d="M0.8 7.7 L0.15 7.55 -0.8 7.7 -2.5 7.9 -4.65 8.0 -4.85 8.05 -3.65 7.45 Q-2.25 6.75 -1.4 6.75 L2.05 6.65 Q3.95 6.65 5.9 7.85 L5.5 8.05 4.15 7.8 0.8 7.7" fill="#770000" fill-rule="evenodd" stroke="none"/>
    <path d="M2.3 8.7 L0.3 8.7 0.15 8.65 0.05 8.7 0.0 8.75 -0.15 8.7 -0.2 8.7 -0.35 8.8 -0.45 8.7 -0.5 8.65 -0.65 8.7 -0.7 8.75 -0.85 8.7 -0.85 8.65 -1.0 8.7 -1.35 8.6 -1.9 8.7 -2.25 8.6 -2.05 8.55 -1.9 8.6 -0.85 8.45 -0.6 8.5 Q-0.6 8.35 -0.4 8.35 L-0.3 8.4 -0.1 8.35 0.0 8.4 0.6 8.3 1.0 8.55 Q1.1 8.4 1.3 8.4 L1.5 8.4 1.5 8.55 2.4 8.55 2.5 8.6 2.3 8.7 M0.65 5.8 L0.6 5.9 0.8 5.9 0.8 6.05 Q0.9 5.8 1.2 5.8 L1.5 5.85 1.7 5.8 1.85 5.8 1.95 5.85 2.0 5.8 Q2.35 5.75 2.2 5.95 L2.45 5.95 2.5 5.9 2.75 6.05 2.7 6.15 2.55 6.15 2.55 6.05 2.4 6.15 2.25 6.1 2.15 6.2 2.05 6.15 1.95 6.2 Q1.95 6.4 1.7 6.1 L1.6 6.1 1.4 6.35 0.6 6.35 0.6 6.3 0.5 6.35 -0.05 6.3 -0.3 6.15 -0.4 6.15 Q-0.35 6.4 -0.8 6.4 L-1.1 6.1 -1.35 6.4 -1.55 6.3 -1.8 6.35 -2.35 6.6 -2.9 6.7 -3.35 6.85 -2.25 6.3 -2.25 6.15 -1.8 6.15 -1.8 6.0 -1.5 6.05 -1.0 5.85 -0.8 5.8 Q-0.75 5.5 0.05 5.5 0.6 5.5 0.65 5.8 M0.75 8.45 L0.75 8.55 0.8 8.55 0.8 8.45 0.75 8.45" fill="#ffa4a4" fill-rule="evenodd" stroke="none"/>
  </g>
</svg>
