<?xml version="1.0" encoding="UTF-8" standalone="no"?>
<svg xmlns:xlink="http://www.w3.org/1999/xlink" height="30.6px" width="32.6px" xmlns="http://www.w3.org/2000/svg">
  <g transform="matrix(1.0, 0.0, 0.0, 1.0, 16.75, 15.25)">
    <path d="M14.05 -3.8 L13.8 -3.75 13.75 -4.1 14.0 -4.05 14.2 -4.0 14.05 -3.8 M7.55 -2.6 L7.45 -2.55 7.35 -2.6 7.1 -2.6 6.5 -2.75 5.35 -2.6 5.25 -2.65 5.3 -2.75 5.25 -2.7 Q4.45 -2.55 3.7 -1.75 2.75 -0.65 2.75 0.1 L2.8 0.75 3.0 0.85 2.85 0.9 2.9 1.0 3.8 0.8 Q3.85 0.15 4.5 0.15 4.9 0.15 4.9 0.65 L4.9 0.7 7.0 0.65 7.6 0.65 7.75 0.65 9.75 0.8 9.75 0.4 9.4 -1.05 8.45 -2.2 8.35 -2.4 8.5 -2.5 8.7 -2.5 9.05 -2.9 9.25 -2.9 9.1 -2.7 8.85 -2.45 Q9.65 -2.05 9.95 0.4 L9.95 0.85 10.0 1.0 9.9 1.05 9.85 1.4 9.7 1.25 9.75 1.1 9.4 1.1 8.65 1.15 7.2 1.1 7.15 1.0 6.7 1.1 3.95 1.15 3.05 1.2 3.2 1.45 4.4 2.6 4.35 2.7 Q3.9 2.6 2.95 1.45 L2.75 1.15 2.7 1.15 2.7 1.05 2.55 1.1 2.45 0.05 Q2.45 -0.7 3.2 -1.75 L3.5 -2.1 3.15 -2.75 3.2 -2.85 3.35 -2.85 3.6 -2.2 Q4.0 -2.6 4.45 -2.8 L4.15 -3.75 4.15 -4.05 4.25 -4.05 Q4.6 -3.8 4.65 -2.85 L5.0 -2.95 5.2 -4.95 5.4 -4.95 5.4 -4.05 5.2 -2.95 5.35 -2.95 5.55 -2.9 5.7 -2.95 Q6.25 -3.5 6.2 -4.95 L6.3 -4.3 5.85 -2.95 6.3 -3.0 6.7 -4.15 6.6 -4.55 6.85 -4.55 6.9 -4.2 6.5 -3.0 6.55 -3.0 6.95 -3.0 6.9 -3.15 7.15 -3.4 7.25 -3.3 7.25 -3.2 7.0 -3.0 7.3 -2.95 7.5 -2.9 7.55 -2.85 7.6 -2.65 7.55 -2.6 M9.95 -2.25 L10.05 -2.15 9.65 -1.85 9.95 -2.25 M4.4 0.35 L4.4 0.45 4.6 0.45 4.6 0.4 4.45 0.35 4.4 0.35 M-7.7 -3.0 L-8.0 -2.8 -8.05 -2.85 -8.05 -3.2 -8.0 -3.2 -7.95 -3.15 -7.9 -3.15 -7.6 -3.25 -7.6 -3.4 -7.5 -3.4 -7.15 -2.95 -6.9 -3.0 -7.15 -3.75 -7.1 -3.9 -7.0 -3.9 -6.2 -3.05 -6.1 -3.05 -5.9 -3.1 -5.8 -3.05 -6.25 -4.0 -6.2 -4.35 -6.05 -4.55 -5.85 -4.5 Q-5.85 -4.2 -6.0 -4.0 -6.0 -3.4 -5.6 -3.05 L-5.45 -3.05 -5.8 -3.8 -5.7 -4.3 -5.55 -4.25 -5.65 -4.2 -5.1 -3.05 -4.65 -3.05 Q-5.05 -3.55 -5.05 -4.1 -5.05 -5.1 -4.65 -5.05 L-4.4 -5.0 -4.4 -4.75 -4.65 -4.15 -4.45 -3.25 -4.2 -3.05 -3.9 -3.0 -4.05 -3.85 Q-4.05 -4.6 -3.7 -4.65 L-3.8 -3.9 -3.65 -2.95 -3.1 -2.8 -3.25 -3.5 Q-3.25 -4.5 -2.75 -4.65 L-2.65 -4.6 -3.05 -3.5 -2.8 -2.65 -2.85 -2.65 -2.8 -2.6 -2.6 -2.5 -2.05 -2.0 -2.1 -2.3 -2.0 -2.5 -2.05 -2.5 -1.95 -2.65 -1.6 -2.0 -1.75 -1.9 -1.85 -1.65 -1.75 -1.55 Q-1.05 -0.4 -1.05 0.5 L-1.1 1.1 -1.15 1.45 -1.6 2.3 Q-2.1 3.05 -2.5 3.05 -1.8 2.65 -1.35 1.45 L-1.3 1.25 -1.35 1.2 -1.4 1.4 -2.2 1.45 -2.9 1.5 -3.5 1.55 -3.6 1.55 -5.05 1.6 -6.1 1.5 -7.7 1.65 -8.15 1.65 -8.25 1.65 -7.8 2.2 -7.95 2.3 -8.35 1.8 -8.35 1.65 -8.65 1.45 -8.65 1.4 -8.7 0.9 -8.25 -1.3 -7.75 -2.4 -7.4 -2.85 -7.7 -3.05 -7.9 -3.15 -7.7 -3.0 M-2.2 1.1 L-1.45 1.0 -1.35 0.5 Q-1.9 -2.75 -4.6 -2.7 L-6.0 -2.6 Q-5.9 -2.75 -6.25 -2.75 L-6.4 -2.75 Q-7.5 -2.75 -8.05 -0.95 L-8.4 0.95 -8.35 1.35 -8.2 1.45 -7.4 1.45 -6.05 1.4 -6.0 1.4 -4.0 1.3 -4.0 1.2 -4.0 1.15 Q-4.0 0.4 -3.3 0.4 -2.65 0.4 -2.65 0.65 -2.5 0.8 -2.5 1.1 L-2.55 1.1 -2.55 1.15 -2.2 1.1" fill="#000000" fill-rule="evenodd" stroke="none"/>
    <path d="M9.6 -4.15 Q9.6 -4.9 8.3 -7.15 L6.9 -9.3 Q3.3 -12.85 0.2 -13.75 L0.15 -13.7 Q4.5 -11.95 6.7 -9.25 L7.95 -7.35 7.9 -7.2 Q7.9 -6.6 8.35 -5.9 8.05 -6.0 7.85 -6.15 L7.65 -6.35 7.3 -6.95 7.4 -6.8 7.65 -6.8 7.65 -6.9 4.95 -10.4 3.3 -12.1 Q1.05 -12.9 0.6 -13.4 L0.55 -13.4 Q0.5 -13.0 1.4 -12.5 L1.3 -12.5 0.9 -12.45 0.95 -12.4 3.1 -11.1 2.9 -11.1 2.75 -11.05 3.4 -9.55 3.3 -8.9 3.0 -9.9 3.1 -9.9 2.25 -11.05 0.9 -12.0 0.75 -11.95 1.85 -11.0 0.3 -11.4 Q0.6 -11.4 0.6 -11.8 L0.2 -13.4 Q-0.3 -14.8 -0.9 -14.8 L-1.15 -14.45 -0.8 -13.65 -0.75 -13.5 Q-1.4 -13.4 -1.7 -12.8 L-2.9 -11.35 -3.75 -10.05 -3.45 -10.6 -3.95 -9.8 -4.3 -9.3 -4.4 -9.3 Q-4.5 -8.75 -6.2 -7.25 L-6.15 -7.2 -4.9 -8.35 -6.8 -6.55 -6.6 -6.5 Q-5.5 -7.3 -4.5 -8.8 L-4.3 -9.0 -4.3 -9.1 -4.05 -9.5 -1.45 -12.8 -0.55 -13.25 -0.5 -13.2 -0.45 -13.1 -0.8 -12.85 Q-1.7 -12.5 -1.8 -11.9 -2.45 -11.35 -2.9 -10.05 -3.55 -8.3 -4.35 -7.55 -5.3 -6.7 -7.15 -5.9 L-8.9 -5.0 -7.7 -6.05 -5.55 -8.25 -3.45 -10.9 -3.55 -10.65 -3.5 -10.65 -2.5 -12.4 Q-2.0 -13.4 -1.25 -13.7 L-1.15 -13.75 -1.2 -13.8 -1.2 -13.85 -1.15 -14.0 -1.65 -14.3 -1.7 -14.35 -1.95 -14.35 Q-4.55 -14.05 -6.7 -13.05 L-6.9 -13.1 Q-7.35 -13.1 -8.4 -12.15 L-8.4 -12.1 -8.55 -11.95 -10.9 -9.95 -12.75 -7.0 -13.9 -4.2 -13.8 -3.6 -13.75 -3.65 -13.15 -5.6 -13.1 -5.5 -13.0 -5.55 -12.95 -5.6 -13.0 -5.35 Q-13.35 -4.55 -13.35 -3.0 L-14.25 -0.9 -14.4 1.65 -14.25 4.5 -14.25 4.6 -14.25 4.7 -14.2 5.2 -14.15 5.45 -14.05 5.4 -14.0 4.6 -14.0 4.3 -14.2 -0.25 -13.75 -1.75 -13.3 -2.7 -13.25 -2.3 -13.2 -2.35 -12.55 -5.5 -12.65 -4.7 -12.6 -3.95 -12.45 -3.95 Q-11.2 -9.85 -6.65 -12.8 L-6.65 -12.95 -2.3 -14.15 Q-5.9 -13.1 -7.75 -11.3 -8.65 -10.5 -10.4 -7.65 L-10.35 -7.6 Q-7.05 -12.5 -2.25 -14.15 L-2.3 -14.05 -2.15 -13.85 Q-5.1 -12.5 -6.55 -10.2 L-5.35 -11.4 Q-7.65 -8.2 -11.15 -5.25 L-9.7 -6.95 -7.85 -9.15 Q-7.55 -9.75 -3.45 -13.45 L-3.6 -13.5 -5.9 -11.8 Q-7.4 -10.7 -8.1 -9.35 -8.35 -8.9 -11.55 -5.0 L-11.5 -4.85 -11.4 -4.95 -11.3 -4.9 Q-4.7 -10.65 -4.7 -11.9 L-4.7 -11.95 -2.1 -13.85 -1.7 -13.75 -2.55 -12.65 -2.75 -12.85 -6.05 -8.55 Q-7.1 -7.1 -10.4 -4.4 L-10.3 -4.35 -10.5 -4.25 -11.7 -3.8 -11.65 -3.6 -11.4 -3.55 -6.85 -4.95 -3.5 -6.55 Q-5.35 -4.2 -12.0 -3.25 L-11.95 -3.4 -12.05 -3.25 -12.25 -3.25 -12.05 -3.75 -12.05 -3.95 Q-6.2 -7.3 -3.75 -12.35 -5.75 -9.15 -6.95 -8.0 -10.8 -4.75 -12.1 -4.0 L-12.2 -4.0 -12.5 -3.2 -12.65 -3.0 -12.75 -3.8 -12.85 -3.75 -12.9 -2.75 Q-13.35 -2.45 -13.35 -0.1 L-13.1 4.5 -13.1 4.6 -13.1 4.75 -13.1 4.85 -13.1 5.1 -13.1 5.2 -13.3 6.45 Q-13.55 7.5 -14.15 8.6 L-14.05 8.35 -13.7 6.45 -13.7 6.35 -13.7 6.0 -13.7 5.95 -13.75 5.2 -13.8 4.6 -13.8 4.5 -13.9 1.9 Q-13.9 0.0 -13.3 -1.75 -13.95 -1.2 -13.95 0.15 L-14.1 2.0 -13.9 3.95 -13.85 4.5 -13.9 4.5 -13.85 6.1 -13.85 6.25 -13.85 6.35 -13.85 6.45 Q-13.9 8.25 -15.3 10.65 L-15.3 10.6 -15.6 10.1 -15.65 10.1 -15.65 10.2 -15.55 10.6 -15.55 10.7 -15.8 10.75 Q-16.3 10.65 -16.55 10.4 L-16.5 10.35 Q-15.55 9.4 -15.55 7.4 L-15.55 7.3 -15.6 6.65 -15.6 6.45 -15.6 5.9 -15.65 5.2 -15.65 4.85 -15.65 4.6 -15.65 4.5 -15.65 3.8 -15.3 0.45 -14.95 -0.7 -14.95 -0.85 -14.85 -1.2 -14.6 -2.8 -14.55 -3.4 -14.6 -3.4 Q-14.05 -6.1 -12.5 -8.35 L-10.7 -10.6 Q-6.35 -15.0 -0.25 -15.0 L0.35 -15.0 Q6.05 -14.8 10.15 -10.6 L10.3 -10.5 Q13.0 -7.65 14.0 -4.05 L13.75 -4.1 13.8 -3.75 14.05 -3.8 Q14.5 -2.05 14.5 0.0 L14.45 1.45 14.4 2.05 Q14.2 2.05 14.2 2.15 L14.3 2.6 14.3 2.7 14.2 3.25 14.05 3.6 14.1 3.85 14.35 3.6 14.15 4.5 14.2 4.5 14.2 4.6 14.1 5.2 14.05 5.75 14.05 5.9 14.05 6.0 14.1 6.45 14.1 6.5 14.1 6.6 14.1 6.7 14.05 6.45 13.75 5.2 13.65 4.6 13.65 4.5 13.7 4.5 13.6 3.5 13.9 1.45 14.0 -0.3 12.25 -6.4 12.15 -6.3 13.1 -3.3 Q13.7 -1.6 13.7 -0.3 L13.6 1.45 13.5 2.0 13.5 1.45 Q13.45 -0.55 13.05 -2.35 L12.05 -4.75 11.35 -6.1 9.5 -9.55 Q7.3 -13.15 6.15 -13.15 L5.95 -13.15 5.95 -13.0 Q8.25 -11.6 11.1 -6.35 L11.0 -6.35 11.3 -5.9 11.35 -5.85 Q13.25 -3.0 13.4 1.45 L13.4 2.15 13.35 3.2 13.3 3.45 13.3 3.55 13.2 4.5 13.25 4.5 13.25 4.6 13.15 5.2 13.05 5.95 13.1 6.45 Q13.15 7.9 13.7 8.7 L13.8 8.8 13.55 8.75 13.45 8.8 Q13.45 9.3 14.05 9.5 L15.05 10.55 15.1 10.6 15.0 10.65 14.3 10.85 14.15 10.75 14.05 10.85 13.55 10.55 13.65 10.5 13.8 10.25 12.7 9.1 12.85 9.15 13.2 8.75 13.25 8.85 13.4 8.75 13.35 8.7 Q12.7 7.45 12.4 6.45 L12.15 5.2 12.15 5.1 12.15 5.05 12.2 4.6 12.2 4.5 12.45 1.45 12.45 0.55 Q12.45 -2.7 11.4 -4.7 L8.4 -9.55 6.45 -11.9 Q4.35 -14.05 3.05 -14.0 L2.9 -14.0 Q6.15 -12.35 8.1 -9.5 L11.1 -5.0 11.05 -4.95 Q12.25 -2.7 12.25 0.55 L12.25 1.45 12.0 4.5 12.0 4.6 11.95 5.05 11.95 5.1 11.95 5.2 12.0 5.8 12.05 6.45 12.1 6.7 Q12.2 7.8 12.6 8.3 L12.6 8.25 12.6 8.15 12.15 6.7 12.15 6.65 12.15 6.6 12.15 6.5 13.15 8.65 13.15 8.7 12.7 8.95 12.6 8.95 12.55 8.9 12.55 8.85 11.7 6.1 11.6 6.1 11.6 6.4 11.65 6.45 12.5 8.8 12.5 8.9 12.45 8.9 12.45 8.95 12.25 8.9 12.2 8.9 Q11.5 7.85 11.25 6.45 L11.1 5.2 11.1 5.1 11.1 4.75 11.1 4.6 11.1 4.5 11.1 4.45 11.35 1.45 11.4 -0.45 Q11.4 -2.2 11.0 -3.3 9.25 -7.45 7.4 -9.35 L4.6 -12.05 Q1.75 -14.4 0.5 -14.4 L0.35 -14.35 4.4 -11.85 7.15 -9.1 9.4 -6.15 10.5 -4.05 Q11.25 -2.05 11.25 -0.45 L11.2 1.45 11.0 4.5 11.05 4.5 11.05 4.6 11.0 5.1 11.0 5.2 10.95 5.35 10.95 5.45 11.0 5.95 11.0 6.45 Q11.2 8.8 12.5 9.8 L12.9 10.05 12.95 9.9 12.3 9.1 12.35 9.1 12.45 9.05 12.45 9.15 12.55 9.35 12.95 9.85 13.35 10.2 13.45 10.25 13.3 10.3 13.2 10.35 11.05 8.95 Q10.25 7.25 10.3 6.7 L10.2 6.7 10.2 7.15 11.05 9.15 Q11.5 9.9 12.3 10.25 L12.55 10.35 12.15 10.35 12.15 10.5 12.75 10.65 13.25 10.65 14.0 11.15 Q14.1 11.75 15.15 11.85 L15.2 11.85 Q14.6 12.75 12.7 12.75 L11.95 12.7 11.95 12.65 10.6 11.6 10.25 11.05 10.15 10.75 9.95 9.0 9.95 8.9 9.95 8.8 9.95 8.5 10.1 6.45 10.2 5.2 10.3 4.6 10.3 4.5 10.45 3.45 10.8 1.45 10.9 0.05 Q10.5 -4.15 9.7 -4.15 L9.6 -4.15 M8.75 -5.65 L9.45 -3.85 9.55 -3.85 9.55 -2.65 9.5 -2.65 8.45 -4.35 8.15 -5.6 8.55 -5.6 8.75 -5.65 M7.1 -7.15 Q7.1 -6.15 7.75 -5.75 L8.2 -3.15 Q8.2 -1.6 7.7 0.1 L7.55 -2.6 7.6 -2.65 7.55 -2.85 7.5 -2.9 Q6.8 -7.65 3.75 -9.9 L3.6 -10.65 5.65 -8.15 Q6.55 -6.95 7.85 -3.85 L7.95 -3.9 Q6.75 -7.5 5.75 -8.55 L4.0 -10.7 2.4 -12.15 3.2 -11.85 4.8 -10.2 7.1 -7.15 M0.25 -11.55 L0.3 -11.4 0.05 -11.4 0.0 -11.4 Q-0.55 -11.35 -1.15 -10.5 L-0.5 -11.9 0.0 -12.0 0.05 -11.9 -0.05 -11.65 0.0 -11.4 0.25 -11.55 M-0.1 -12.5 L-0.15 -12.45 -0.3 -12.4 -0.3 -12.35 -0.5 -12.25 -0.55 -12.3 Q-1.35 -11.95 -2.3 -9.85 L-3.85 -7.1 Q-4.3 -6.5 -5.45 -6.1 L-7.4 -5.5 -9.35 -4.65 -9.5 -4.6 -9.4 -4.7 -6.8 -5.8 Q-4.8 -6.7 -4.0 -7.6 L-2.7 -9.7 -1.7 -11.7 -1.65 -11.65 -0.6 -12.75 -0.3 -12.9 -0.1 -12.5 M12.0 -6.95 L11.9 -6.95 11.9 -6.65 10.15 -10.3 10.1 -10.3 12.25 -5.3 12.5 -4.25 12.55 -4.3 12.55 -4.6 12.45 -4.9 12.45 -5.1 12.25 -5.75 12.0 -6.95 M13.95 8.85 L13.95 8.8 Q13.3 7.5 13.2 6.45 L13.15 5.9 13.25 5.2 13.25 5.1 13.3 4.6 13.3 4.5 13.35 4.05 13.45 4.5 13.4 4.5 13.45 4.6 13.4 4.6 13.55 5.2 13.9 6.45 13.9 6.55 14.8 8.9 14.85 8.85 14.95 9.05 15.0 9.1 14.7 9.25 14.1 8.9 14.05 8.85 14.05 8.9 13.95 8.85 M12.7 8.4 L12.7 8.35 12.65 8.35 12.7 8.4 M10.45 8.25 L10.35 8.25 Q10.4 9.45 11.5 11.05 L11.55 11.0 11.5 10.95 10.85 9.8 Q10.5 9.05 10.45 8.25 M11.85 11.2 L11.75 11.2 Q12.75 11.85 13.35 11.85 L13.5 11.8 13.35 11.75 12.0 11.25 11.85 11.2 M11.0 10.9 L11.0 11.2 11.55 11.75 11.7 11.7 11.7 11.6 11.1 10.9 11.0 10.9 M12.9 10.45 L12.8 10.45 12.55 10.35 12.9 10.45 M-12.3 -6.3 L-12.4 -6.1 -12.45 -6.05 -12.3 -6.3 M-8.7 -11.85 L-9.05 -11.5 Q-10.45 -10.1 -10.85 -9.25 L-10.9 -9.15 Q-12.6 -6.95 -12.9 -5.8 L-13.0 -5.9 Q-12.15 -8.1 -10.8 -9.8 L-8.7 -11.85 M-11.65 -5.6 L-11.6 -5.5 -9.85 -8.05 Q-11.65 -6.25 -11.65 -5.6 M-12.55 -2.8 L-12.35 -3.15 -12.1 -3.1 -12.45 -2.45 -12.45 -2.6 -12.55 -2.8 M-12.15 -2.7 L-12.05 -3.1 -11.8 -3.1 -11.95 -2.4 -12.05 -2.5 -12.15 -2.7 M-11.65 -3.1 L-10.9 -3.15 Q-11.3 -2.6 -11.4 -1.5 L-11.45 0.85 -11.45 1.45 -11.25 4.5 -11.25 4.6 -11.25 4.65 -11.2 5.0 -11.2 5.2 -11.05 6.45 -10.85 8.5 -10.85 8.55 -11.25 10.85 Q-11.45 12.45 -12.95 12.85 L-12.9 12.9 -13.75 13.1 -14.3 12.95 -14.25 12.95 -14.25 12.85 Q-13.4 12.45 -13.4 12.25 L-13.4 12.2 -13.4 12.15 -13.55 11.95 -13.7 12.15 -14.7 12.55 -15.85 12.55 -15.4 11.75 -15.2 11.75 -14.0 10.9 -14.0 10.5 -14.15 10.5 Q-14.6 11.25 -15.3 11.5 L-15.25 11.4 -15.25 10.85 -15.25 10.75 -14.25 8.85 -14.2 9.0 -13.05 7.1 -12.85 6.45 -12.75 5.9 -12.75 6.05 -12.7 6.45 -12.7 6.5 -12.7 6.6 -12.7 6.7 Q-12.7 9.3 -14.4 10.5 L-14.6 10.6 -14.55 10.65 -14.15 10.45 -14.1 10.4 Q-13.05 9.65 -12.7 7.8 L-12.55 6.45 -12.55 6.35 -12.55 5.9 -12.55 5.85 -12.6 5.2 -12.6 5.1 -12.65 4.6 -12.6 4.6 -12.65 4.5 -12.6 4.5 -12.8 1.45 -12.8 0.95 -12.8 0.65 -12.65 1.45 -12.65 1.55 -12.65 1.6 -12.35 4.5 -12.4 4.5 -12.35 4.6 -12.4 4.6 -12.3 5.2 -12.15 6.45 -11.9 8.15 -11.95 8.9 Q-12.1 9.95 -12.6 10.75 L-13.2 11.4 Q-11.6 10.05 -11.6 8.1 L-11.85 6.45 -12.0 5.2 -12.1 4.6 -12.05 4.6 -12.1 4.5 -12.05 4.5 -12.35 1.55 -12.3 1.45 -12.3 1.2 -12.25 1.45 -11.7 3.9 -11.7 4.0 -11.7 4.05 -11.65 4.5 -11.65 4.6 -11.6 5.2 -11.45 6.45 -11.45 6.55 -11.45 6.65 -11.55 9.6 -11.95 11.05 -12.8 12.05 -13.0 12.25 Q-11.35 11.4 -11.35 9.6 L-11.25 8.6 -11.15 6.65 -11.15 6.55 -11.15 6.45 -11.3 5.2 -11.4 4.6 -11.35 4.6 -11.4 4.5 -11.35 4.5 -11.45 3.7 -11.65 1.45 -11.75 0.0 Q-11.4 -1.6 -11.4 -2.5 L-11.45 -2.7 -11.6 -2.7 -11.6 -2.85 -11.65 -3.1 M-11.9 1.45 L-12.05 -0.2 -11.9 -0.7 -11.95 -0.05 -11.9 1.45 M-12.65 1.0 L-12.7 0.0 -12.55 -0.45 -12.65 1.0 M-14.55 1.25 L-14.65 1.25 -14.65 2.8 -14.5 4.5 -14.5 4.6 -14.5 5.2 -14.5 5.5 -14.5 5.65 -14.5 5.75 -14.55 6.45 Q-14.7 7.8 -15.5 9.5 L-15.45 9.6 Q-14.55 8.6 -14.4 6.45 L-14.4 6.35 -14.4 5.85 -14.45 4.5 -14.4 4.5 -14.55 1.25 M-14.6 0.7 L-14.55 0.65 Q-14.45 -1.9 -13.95 -2.8 -14.65 -2.55 -14.65 0.2 L-14.6 0.7 M-14.1 12.0 L-14.95 12.35 -14.9 12.4 -14.1 12.0" fill="#fdc551" fill-rule="evenodd" stroke="none"/>
    <path d="M7.95 -7.35 L6.7 -9.25 Q4.5 -11.95 0.15 -13.7 L0.2 -13.75 Q3.3 -12.85 6.9 -9.3 L8.3 -7.15 Q9.6 -4.9 9.6 -4.15 L9.6 -4.1 9.55 -3.85 9.45 -3.85 8.75 -5.65 8.4 -6.45 7.95 -7.35 M12.55 10.35 L12.3 10.25 Q11.5 9.9 11.05 9.15 L10.2 7.15 10.2 6.7 10.3 6.7 Q10.25 7.25 11.05 8.95 L13.2 10.35 13.5 10.55 12.9 10.45 12.55 10.35 M12.3 9.1 L12.95 9.9 12.9 10.05 12.5 9.8 Q11.2 8.8 11.0 6.45 L11.0 5.95 10.95 5.45 10.95 5.35 11.0 5.2 11.0 5.1 11.05 4.6 11.05 4.5 11.0 4.5 11.2 1.45 11.25 -0.45 Q11.25 -2.05 10.5 -4.05 L9.4 -6.15 7.15 -9.1 4.4 -11.85 0.35 -14.35 0.5 -14.4 Q1.75 -14.4 4.6 -12.05 L7.4 -9.35 Q9.25 -7.45 11.0 -3.3 11.4 -2.2 11.4 -0.45 L11.35 1.45 11.1 4.45 11.1 4.5 11.1 4.6 11.1 4.75 11.1 5.1 11.1 5.2 11.25 6.45 Q11.5 7.85 12.2 8.9 L12.3 9.1 M12.15 6.5 L12.15 6.6 12.15 6.65 12.15 6.7 12.6 8.15 12.6 8.25 12.6 8.3 Q12.2 7.8 12.1 6.7 L12.05 6.45 12.0 5.8 11.95 5.2 11.95 5.1 11.95 5.05 12.0 4.6 12.0 4.5 12.25 1.45 12.25 0.55 Q12.25 -2.7 11.05 -4.95 L11.1 -5.0 8.1 -9.5 Q6.15 -12.35 2.9 -14.0 L3.05 -14.0 Q4.35 -14.05 6.45 -11.9 L8.4 -9.55 11.4 -4.7 Q12.45 -2.7 12.45 0.55 L12.45 1.45 12.2 4.5 12.2 4.6 12.15 5.05 12.15 4.95 12.15 4.85 12.05 4.85 12.0 5.5 12.15 6.45 12.15 6.5 M13.8 8.8 L13.7 8.7 Q13.15 7.9 13.1 6.45 L13.05 5.95 13.15 5.2 13.25 4.6 13.25 4.5 13.2 4.5 13.3 3.55 13.3 3.45 13.35 3.2 13.4 2.15 13.4 1.45 Q13.25 -3.0 11.35 -5.85 L11.3 -5.9 11.0 -6.35 11.1 -6.35 Q8.25 -11.6 5.95 -13.0 L5.95 -13.15 6.15 -13.15 Q7.3 -13.15 9.5 -9.55 L11.35 -6.1 12.05 -4.75 13.05 -2.35 Q13.45 -0.55 13.5 1.45 L13.5 2.0 13.6 1.45 13.7 -0.3 Q13.7 -1.6 13.1 -3.3 L12.15 -6.3 12.25 -6.4 14.0 -0.3 13.9 1.45 13.6 3.5 13.7 4.5 13.65 4.5 13.65 4.6 13.75 5.2 14.05 6.45 14.1 6.7 14.8 8.75 14.8 8.8 14.85 8.85 14.8 8.9 13.9 6.55 13.9 6.45 13.55 5.2 13.4 4.6 13.45 4.6 13.4 4.5 13.45 4.5 13.35 4.05 13.3 4.5 13.3 4.6 13.25 5.1 13.25 5.2 13.15 5.9 13.2 6.45 Q13.3 7.5 13.95 8.8 L13.95 8.85 13.9 8.9 13.8 8.8 M-15.3 10.65 Q-13.9 8.25 -13.85 6.45 L-13.85 6.35 -13.85 6.25 -13.85 6.1 -13.9 4.5 -13.85 4.5 -13.9 3.95 -14.1 2.0 -13.95 0.15 Q-13.95 -1.2 -13.3 -1.75 -13.9 0.0 -13.9 1.9 L-13.8 4.5 -13.8 4.6 -13.75 5.2 -13.7 5.95 -13.7 6.0 -13.7 6.35 -13.7 6.45 -14.05 8.35 -14.15 8.6 -14.25 8.8 -14.25 8.85 -15.25 10.75 -15.3 10.75 -15.35 10.7 -15.3 10.65 M-12.1 -4.0 Q-10.8 -4.75 -6.95 -8.0 -5.75 -9.15 -3.75 -12.35 -6.2 -7.3 -12.05 -3.95 L-12.15 -3.9 -12.2 -3.95 -12.1 -4.0 M-12.05 -3.25 L-11.95 -3.4 -12.0 -3.25 -12.05 -3.1 -12.15 -2.7 -12.2 -2.75 -12.35 -2.6 -12.55 -1.65 -12.45 -2.45 -12.1 -3.1 -12.05 -3.25 M-3.5 -6.55 L-6.85 -4.95 -11.4 -3.55 -11.65 -3.6 -11.7 -3.8 -10.5 -4.25 -10.3 -4.35 -10.3 -4.3 -10.2 -4.25 Q-10.0 -4.25 -9.5 -4.6 L-9.35 -4.65 -7.4 -5.5 -5.45 -6.1 Q-4.3 -6.5 -3.85 -7.1 L-2.3 -9.85 Q-1.35 -11.95 -0.55 -12.3 L-0.5 -12.25 -0.3 -12.35 0.0 -12.0 -0.5 -11.9 -1.15 -10.5 -1.65 -9.55 -3.25 -6.8 -3.5 -6.55 M-2.55 -12.65 L-1.7 -13.75 -2.1 -13.85 -4.7 -11.95 -4.8 -12.15 -5.35 -11.4 -6.55 -10.2 Q-5.1 -12.5 -2.15 -13.85 L-2.3 -14.05 -2.25 -14.15 Q-7.05 -12.5 -10.35 -7.6 L-10.4 -7.65 Q-8.65 -10.5 -7.75 -11.3 -5.9 -13.1 -2.3 -14.15 L-6.65 -12.95 -6.65 -13.05 -6.7 -13.05 Q-4.55 -14.05 -1.95 -14.35 L-1.7 -14.35 -1.65 -14.3 -1.15 -14.0 -1.2 -13.85 -1.2 -13.8 -1.15 -13.75 -1.25 -13.7 Q-2.0 -13.4 -2.5 -12.4 L-3.5 -10.65 -3.55 -10.65 -3.45 -10.9 Q-2.55 -12.2 -2.55 -12.6 L-2.55 -12.65 M-12.55 -5.5 L-13.2 -2.35 -13.25 -2.3 -13.3 -2.7 -13.2 -2.95 -13.3 -3.05 -13.35 -3.0 Q-13.35 -4.55 -13.0 -5.35 L-12.95 -5.6 -13.0 -5.55 -13.1 -5.5 -13.15 -5.6 -13.75 -3.65 -13.8 -3.6 -13.9 -4.2 -12.75 -7.0 -10.9 -9.95 -8.55 -11.95 -8.7 -11.85 -10.8 -9.8 Q-12.15 -8.1 -13.0 -5.9 L-12.9 -5.8 Q-12.6 -6.95 -10.9 -9.15 L-12.3 -6.4 -12.3 -6.35 -12.3 -6.3 -12.45 -6.05 -12.4 -6.1 -12.55 -5.5 M-8.9 -5.0 L-7.15 -5.9 Q-5.3 -6.7 -4.35 -7.55 -3.55 -8.3 -2.9 -10.05 -2.45 -11.35 -1.8 -11.9 -1.7 -12.5 -0.8 -12.85 L-0.45 -13.1 -0.3 -12.9 -0.6 -12.75 -1.65 -11.65 -1.7 -11.7 -2.7 -9.7 -4.0 -7.6 Q-4.8 -6.7 -6.8 -5.8 L-9.4 -4.7 -8.9 -5.0 M-0.55 -13.25 L-1.45 -12.8 -4.05 -9.5 -4.3 -9.1 -4.3 -9.0 -4.5 -8.8 Q-5.5 -7.3 -6.6 -6.5 L-6.8 -6.55 -4.9 -8.35 -6.15 -7.2 -6.2 -7.25 Q-4.5 -8.75 -4.4 -9.3 L-4.3 -9.3 -3.95 -9.8 -3.45 -10.6 -3.75 -10.05 -2.9 -11.35 -1.7 -12.8 Q-1.4 -13.4 -0.75 -13.5 L-0.55 -13.25 M1.85 -11.0 L0.75 -11.95 0.9 -12.0 2.25 -11.05 3.1 -9.9 3.0 -9.9 2.9 -9.85 1.9 -10.95 1.85 -11.0 M3.1 -11.1 L0.95 -12.4 0.9 -12.45 1.3 -12.5 1.4 -12.5 Q0.5 -13.0 0.55 -13.4 L0.6 -13.4 Q1.05 -12.9 3.3 -12.1 L4.95 -10.4 7.65 -6.9 7.65 -6.8 7.4 -6.8 7.3 -6.95 7.1 -7.15 4.8 -10.2 3.2 -11.85 2.4 -12.15 4.0 -10.7 5.75 -8.55 Q6.75 -7.5 7.95 -3.9 L7.85 -3.85 Q6.55 -6.95 5.65 -8.15 L3.6 -10.65 3.1 -11.1 M12.0 -6.95 L12.25 -5.75 12.45 -5.1 12.45 -4.9 12.55 -4.6 12.55 -4.3 12.5 -4.25 12.25 -5.3 10.1 -10.3 10.15 -10.3 11.9 -6.65 11.9 -6.95 12.0 -6.95 M12.7 8.4 L12.65 8.35 12.7 8.35 12.7 8.4 M10.45 8.25 Q10.5 9.05 10.85 9.8 L11.5 10.95 11.55 11.0 11.5 11.05 Q10.4 9.45 10.35 8.25 L10.45 8.25 M11.0 10.9 L11.1 10.9 11.7 11.6 11.7 11.7 11.55 11.75 11.0 11.2 11.0 10.9 M11.85 11.2 L12.0 11.25 13.35 11.75 13.5 11.8 13.35 11.85 Q12.75 11.85 11.75 11.2 L11.85 11.2 M-11.65 -5.6 Q-11.65 -6.25 -9.85 -8.05 L-11.6 -5.5 -11.65 -5.6 M-11.95 -2.4 L-12.15 -1.35 -12.3 1.05 -12.3 1.2 -12.3 1.45 -12.35 1.55 -12.05 4.5 -12.1 4.5 -12.05 4.6 -12.1 4.6 -12.0 5.2 -11.85 6.45 -11.6 8.1 Q-11.6 10.05 -13.2 11.4 L-12.6 10.75 Q-12.1 9.95 -11.95 8.9 L-11.9 8.15 -12.15 6.45 -12.3 5.2 -12.4 4.6 -12.35 4.6 -12.4 4.5 -12.35 4.5 -12.65 1.6 -12.65 1.55 -12.5 2.45 -12.45 2.4 -12.6 1.45 -12.65 1.0 -12.55 -0.45 Q-12.45 -2.1 -12.05 -2.5 L-11.95 -2.4 M-11.7 4.05 L-11.65 4.1 -11.55 4.1 -11.45 3.7 -11.85 1.8 -11.9 1.45 -11.95 -0.05 -11.9 -0.7 -11.75 -1.5 -11.6 -2.7 -11.45 -2.7 -11.4 -2.5 Q-11.4 -1.6 -11.75 0.0 L-11.65 1.45 -11.45 3.7 -11.35 4.5 -11.4 4.5 -11.35 4.6 -11.4 4.6 -11.3 5.2 -11.15 6.45 -11.15 6.55 -11.15 6.65 -11.25 8.6 -11.35 9.6 Q-11.35 11.4 -13.0 12.25 L-12.8 12.05 -11.95 11.05 -11.55 9.6 -11.45 6.65 -11.45 6.55 -11.45 6.45 -11.6 5.2 -11.65 4.6 -11.65 4.5 -11.7 4.05 M-12.8 0.65 L-12.8 0.95 -12.8 1.45 -12.6 4.5 -12.65 4.5 -12.6 4.6 -12.65 4.6 -12.6 5.1 -12.6 5.2 -12.55 5.85 -12.55 5.9 -12.55 6.35 -12.55 6.45 -12.7 7.8 Q-13.05 9.65 -14.1 10.4 L-14.15 10.45 -14.55 10.65 -14.6 10.6 -14.4 10.5 Q-12.7 9.3 -12.7 6.7 L-12.7 6.6 -12.7 6.5 -12.7 6.45 -12.75 6.05 -12.75 5.9 -12.7 5.2 -12.7 5.1 -12.7 4.85 -12.7 4.6 -12.7 4.5 -12.85 1.45 -12.85 0.8 -12.8 0.55 -12.8 0.65 M-14.6 0.7 L-14.65 0.2 Q-14.65 -2.55 -13.95 -2.8 -14.45 -1.9 -14.55 0.65 L-14.6 0.7 M-14.55 1.25 L-14.4 4.5 -14.45 4.5 -14.4 5.85 -14.4 6.35 -14.4 6.45 Q-14.55 8.6 -15.45 9.6 L-15.5 9.5 Q-14.7 7.8 -14.55 6.45 L-14.5 5.75 -14.5 5.65 -14.5 5.5 -14.5 5.2 -14.5 4.6 -14.5 4.5 -14.65 2.8 -14.65 1.25 -14.55 1.25 M-14.1 12.0 L-14.9 12.4 -14.95 12.35 -14.1 12.0" fill="#fee1a5" fill-rule="evenodd" stroke="none"/>
    <path d="M7.95 -7.35 L8.4 -6.45 8.75 -5.65 8.55 -5.6 8.15 -5.6 8.45 -4.35 9.5 -2.65 9.55 -2.65 9.55 -3.85 9.6 -4.1 9.6 -4.15 9.7 -4.15 Q10.5 -4.15 10.9 0.05 L10.8 1.45 10.45 3.45 10.3 4.5 10.3 4.6 10.2 5.2 10.1 6.45 9.95 8.5 9.95 8.8 9.95 8.9 9.95 9.0 10.15 10.75 10.25 11.05 10.6 11.6 11.95 12.65 11.95 12.7 12.7 12.75 Q14.6 12.75 15.2 11.85 L15.15 11.85 Q14.1 11.75 14.0 11.15 L13.25 10.65 12.75 10.65 12.15 10.5 12.15 10.35 12.55 10.35 12.8 10.45 12.9 10.45 13.5 10.55 13.2 10.35 13.3 10.3 13.45 10.25 13.35 10.2 12.95 9.85 12.55 9.35 12.45 9.15 12.45 9.05 12.35 9.1 12.3 9.1 12.2 8.9 12.25 8.9 12.45 8.95 12.45 8.9 12.5 8.9 12.5 9.0 12.55 8.9 12.6 8.95 12.7 8.95 13.15 8.7 13.2 8.75 12.85 9.15 12.7 9.1 13.8 10.25 13.65 10.5 13.55 10.55 14.05 10.85 14.15 10.75 14.3 10.85 15.0 10.65 15.1 10.6 15.05 10.55 14.05 9.5 Q13.45 9.3 13.45 8.8 L13.55 8.75 13.8 8.8 13.9 8.9 13.95 8.85 14.05 8.9 14.05 8.85 14.1 8.9 14.7 9.25 15.0 9.1 14.95 9.05 14.85 8.85 14.8 8.8 14.8 8.75 14.1 6.7 14.1 6.6 14.1 6.5 14.1 6.45 14.05 6.0 14.05 5.9 14.05 5.75 14.1 5.2 14.2 4.6 14.2 4.5 14.15 4.5 14.35 3.6 14.1 3.85 14.05 3.6 14.2 3.25 14.3 2.7 14.3 2.6 14.2 2.15 Q14.2 2.05 14.4 2.05 L14.45 2.0 14.6 2.65 14.6 2.8 14.75 3.1 14.55 4.5 14.55 4.6 14.45 5.2 14.35 5.55 14.5 6.35 15.4 8.85 15.4 8.95 15.4 9.05 Q15.4 9.55 14.75 9.55 L14.55 9.55 15.5 10.35 15.5 10.4 15.5 10.5 Q15.5 10.95 14.9 11.15 L15.3 11.45 15.7 11.25 15.85 11.5 15.85 11.6 15.0 12.45 Q13.95 13.05 12.7 13.05 L11.85 12.85 11.8 12.85 Q10.55 12.85 9.95 11.0 L9.95 10.95 9.8 10.55 9.85 10.55 9.85 10.45 9.65 8.4 9.65 8.3 9.65 8.15 9.7 6.45 9.7 6.35 9.75 5.8 9.95 5.2 9.95 5.1 9.95 4.95 9.9 4.6 9.95 4.6 9.9 4.5 9.95 4.5 9.9 4.35 10.1 3.1 10.45 1.45 10.55 0.05 9.9 -3.2 Q9.95 -2.15 9.5 -2.15 L9.1 -2.7 9.25 -2.9 9.05 -2.9 8.95 -3.1 8.5 -3.6 8.5 -3.2 8.5 -2.5 8.35 -2.4 8.45 -2.2 Q8.3 -0.55 7.75 0.65 L7.6 0.65 7.35 -2.6 7.45 -2.55 7.55 -2.6 7.7 0.1 Q8.2 -1.6 8.2 -3.15 L7.75 -5.75 Q7.1 -6.15 7.1 -7.15 L7.3 -6.95 7.65 -6.35 7.85 -6.15 Q8.05 -6.0 8.35 -5.9 7.9 -6.6 7.9 -7.2 L7.95 -7.35 M-14.6 -3.4 L-14.55 -3.4 -14.6 -2.8 -14.85 -1.2 -14.95 -0.85 -14.95 -0.7 -15.3 0.45 -15.65 3.8 -15.65 4.5 -15.65 4.6 -15.65 4.85 -15.65 5.2 -15.6 5.9 -15.6 6.45 -15.6 6.65 -15.55 7.3 -15.55 7.4 Q-15.55 9.4 -16.5 10.35 L-16.55 10.4 Q-16.3 10.65 -15.8 10.75 L-15.55 10.7 -15.55 10.6 -15.65 10.2 -15.65 10.1 -15.6 10.1 -15.3 10.6 -15.3 10.65 -15.35 10.7 -15.3 10.75 -15.25 10.75 -15.25 10.85 -15.25 11.4 -15.3 11.5 Q-14.6 11.25 -14.15 10.5 L-14.0 10.5 -14.0 10.9 -15.2 11.75 -15.4 11.75 -15.85 12.55 -14.7 12.55 -13.7 12.15 -13.55 11.95 -13.4 12.15 -13.4 12.2 -13.4 12.25 Q-13.4 12.45 -14.25 12.85 L-14.25 12.95 -14.3 12.95 -13.75 13.1 -12.9 12.9 -12.95 12.85 Q-11.45 12.45 -11.25 10.85 L-10.85 8.55 -10.85 8.5 -11.05 6.45 -11.2 5.2 -11.2 5.0 -11.25 4.65 -11.25 4.6 -11.25 4.5 -11.45 1.45 -11.45 0.85 -11.4 -1.5 Q-11.3 -2.6 -10.9 -3.15 L-11.65 -3.1 -11.7 -3.25 -11.8 -3.25 -11.8 -3.1 -12.05 -3.1 -12.0 -3.25 Q-5.35 -4.2 -3.5 -6.55 L-3.25 -6.8 -1.65 -9.55 -1.15 -10.5 Q-0.55 -11.35 0.0 -11.4 L0.05 -11.4 0.3 -11.4 1.85 -11.0 1.9 -10.95 2.9 -9.85 3.0 -9.9 3.3 -8.9 3.4 -9.55 2.75 -11.05 2.9 -11.1 3.1 -11.1 3.6 -10.65 3.75 -9.9 Q6.8 -7.65 7.5 -2.9 L7.3 -2.95 7.25 -3.2 7.25 -3.3 7.2 -3.45 6.9 -4.6 6.8 -4.75 5.7 -7.35 4.85 -8.6 3.75 -9.5 Q3.75 -8.2 3.15 -8.2 L2.5 -9.8 Q1.6 -11.0 0.05 -10.95 -0.6 -11.0 -1.8 -8.55 L-3.2 -6.35 Q-4.45 -5.25 -5.85 -4.5 L-6.05 -4.55 -6.2 -4.35 Q-8.1 -3.45 -10.25 -3.2 L-10.35 -3.2 -10.6 -3.15 -10.6 -2.95 -10.85 -2.6 -10.75 -2.35 -10.8 -2.25 -10.9 -1.8 -11.1 -1.3 -11.15 0.9 -11.15 1.45 -10.95 4.5 -10.95 4.6 -10.9 5.2 -10.75 6.45 -10.65 7.6 -10.65 7.7 -10.75 9.45 -10.75 9.55 -10.75 9.65 -10.65 10.1 -10.7 10.65 -10.75 10.7 Q-11.1 12.35 -12.15 12.85 -12.4 13.4 -13.8 13.4 -14.7 13.4 -14.7 13.05 L-14.7 12.95 -14.7 12.9 -14.65 12.85 -16.25 12.85 -16.3 12.65 -16.25 12.65 -16.3 12.55 -16.3 12.5 -15.7 11.8 -15.55 11.6 -15.55 11.55 -15.55 11.1 -15.45 10.95 -15.75 11.05 Q-16.75 11.05 -16.75 10.4 L-16.75 10.3 -16.75 10.25 Q-15.9 9.25 -15.85 7.8 L-15.85 7.7 -15.85 7.55 -15.9 5.05 -15.9 4.95 -15.9 4.8 -15.9 4.6 -15.9 4.5 Q-15.85 0.7 -14.65 -3.4 L-14.6 -3.4 M-12.9 -2.75 L-12.85 -3.75 -12.75 -3.8 -12.65 -3.0 -12.5 -3.2 -12.2 -4.0 -12.1 -4.0 -12.2 -3.95 -12.15 -3.9 -12.05 -3.95 -12.05 -3.75 -12.25 -3.25 -12.05 -3.25 -12.1 -3.1 -12.35 -3.15 -12.55 -2.8 -12.7 -2.8 -12.9 -2.75" fill="#70510a" fill-rule="evenodd" stroke="none"/>
    <path d="M9.1 -2.7 L9.5 -2.15 Q9.95 -2.15 9.9 -3.2 L10.55 0.05 10.45 1.45 10.1 3.1 9.9 4.35 Q9.7 3.8 9.05 3.85 8.25 3.8 8.1 4.5 L8.15 4.5 8.1 4.6 8.15 4.6 8.05 5.0 8.05 5.1 8.05 5.2 Q8.1 6.1 9.05 6.1 L9.75 5.85 9.75 5.8 9.7 6.35 9.7 6.45 9.65 8.15 9.65 8.3 9.65 8.4 9.85 10.45 9.85 10.55 9.8 10.55 9.95 10.95 9.95 11.0 Q5.7 15.1 -0.25 15.1 -6.35 15.1 -10.7 10.75 L-10.75 10.7 -10.7 10.65 -10.65 10.1 -10.35 10.25 -9.6 11.5 -9.15 12.05 -8.15 12.6 -8.1 12.6 -8.0 12.6 -7.9 12.7 -6.9 13.4 Q-6.5 13.4 -6.5 13.15 L-6.5 13.1 Q-6.9 12.75 -7.25 12.5 L-7.5 12.2 -7.55 12.15 -7.5 12.1 -7.5 11.95 -8.35 10.7 -8.65 10.15 -9.45 8.25 -9.45 8.15 -9.45 8.0 -9.45 7.5 -9.45 7.4 -9.45 7.3 -9.45 7.2 -9.45 7.1 -9.45 6.65 -9.4 6.45 -9.4 6.35 -9.4 6.3 -9.5 5.95 -9.55 5.3 -9.55 5.2 -9.6 5.05 -9.55 5.05 Q-8.8 5.05 -8.5 4.6 L-8.55 4.6 -8.5 4.5 -8.6 4.5 -8.55 4.45 Q-8.25 4.05 -8.25 3.4 L-8.25 3.05 -9.1 2.0 -9.1 1.95 -9.45 1.9 -9.65 1.9 -9.95 0.25 -10.0 -1.75 -9.9 -2.05 Q-8.9 -2.1 -8.9 -2.65 -8.9 -3.2 -9.45 -3.15 L-10.15 -3.1 -10.25 -3.2 Q-8.1 -3.45 -6.2 -4.35 L-6.25 -4.0 -5.8 -3.05 -5.9 -3.1 -6.1 -3.05 -6.2 -3.05 -7.0 -3.9 -7.1 -3.9 -7.15 -3.75 -6.9 -3.0 -7.15 -2.95 -7.5 -3.4 -7.6 -3.4 -7.6 -3.25 -7.9 -3.15 -7.95 -3.15 -8.0 -3.2 -8.05 -3.2 -8.05 -2.85 -8.0 -2.8 -7.7 -3.0 -7.7 -3.05 -7.4 -2.85 -7.75 -2.4 -8.25 -1.3 -8.7 0.9 -8.65 1.4 -8.65 1.45 -8.35 1.65 -8.35 1.8 -7.95 2.3 -7.8 2.2 -8.25 1.65 -8.15 1.65 -8.1 1.7 -7.7 1.65 -6.1 1.5 -5.05 1.6 -3.6 1.55 -3.5 1.55 -2.9 1.5 -2.2 1.45 -1.4 1.4 -1.35 1.2 -1.3 1.25 -1.35 1.45 Q-1.8 2.65 -2.5 3.05 -2.1 3.05 -1.6 2.3 L-1.15 1.45 -1.1 1.1 -1.05 0.5 Q-1.05 -0.4 -1.75 -1.55 L-1.85 -1.65 -1.75 -1.9 -1.6 -2.0 -1.95 -2.65 -2.05 -2.5 -2.0 -2.5 -2.1 -2.3 -2.05 -2.0 -2.6 -2.5 -2.8 -2.6 -2.85 -2.65 -2.8 -2.65 -3.05 -3.5 -2.65 -4.6 -2.75 -4.65 Q-3.25 -4.5 -3.25 -3.5 L-3.1 -2.8 -3.65 -2.95 -3.8 -3.9 -3.7 -4.65 Q-4.05 -4.6 -4.05 -3.85 L-3.9 -3.0 -4.2 -3.05 -4.45 -3.25 -4.65 -4.15 -4.4 -4.75 -4.4 -5.0 -4.65 -5.05 Q-5.05 -5.1 -5.05 -4.1 -5.05 -3.55 -4.65 -3.05 L-5.1 -3.05 -5.65 -4.2 -5.55 -4.25 -5.7 -4.3 -5.8 -3.8 -5.45 -3.05 -5.6 -3.05 Q-6.0 -3.4 -6.0 -4.0 -5.85 -4.2 -5.85 -4.5 -4.45 -5.25 -3.2 -6.35 L-1.8 -8.55 Q-0.6 -11.0 0.05 -10.95 1.6 -11.0 2.5 -9.8 L3.15 -8.2 Q3.75 -8.2 3.75 -9.5 L4.85 -8.6 5.7 -7.35 6.8 -4.75 6.9 -4.6 6.85 -4.55 6.6 -4.55 6.7 -4.15 6.3 -3.0 5.85 -2.95 6.3 -4.3 6.2 -4.95 Q6.25 -3.5 5.7 -2.95 L5.55 -2.9 5.35 -2.95 5.2 -2.95 5.4 -4.05 5.4 -4.95 5.2 -4.95 5.0 -2.95 4.65 -2.85 Q4.6 -3.8 4.25 -4.05 L4.15 -4.05 4.15 -3.75 4.45 -2.8 Q4.0 -2.6 3.6 -2.2 L3.35 -2.85 3.2 -2.85 3.15 -2.75 3.5 -2.1 3.2 -1.75 Q2.45 -0.7 2.45 0.05 L2.55 1.1 2.7 1.05 2.7 1.15 2.75 1.15 2.95 1.45 Q3.9 2.6 4.35 2.7 L4.4 2.6 3.2 1.45 3.05 1.2 3.95 1.15 6.7 1.1 7.15 1.0 7.2 1.1 8.65 1.15 9.4 1.1 9.7 1.25 9.85 1.4 9.9 1.05 10.0 1.0 9.95 0.85 9.95 0.4 Q9.65 -2.05 8.85 -2.45 L9.1 -2.7 M9.95 -2.25 L9.65 -1.85 10.05 -2.15 9.95 -2.25 M8.25 2.15 L7.55 3.05 7.55 3.1 Q8.7 2.5 8.75 2.1 L8.25 2.1 8.25 2.15 M1.25 7.8 L1.25 7.9 1.3 7.95 1.3 7.85 1.25 7.8 M-10.35 -3.2 L-10.35 -3.05 -10.6 -2.95 -10.6 -3.15 -10.35 -3.2 M-10.9 -1.8 L-11.0 -1.4 -11.05 -0.05 -10.95 1.1 -11.05 1.45 -11.05 1.5 -10.85 3.1 -10.85 3.35 -10.65 4.25 -10.6 4.5 -10.65 4.5 -10.6 4.6 -10.65 4.6 -10.5 5.2 -10.5 5.3 -10.5 5.45 -10.55 5.65 -10.55 5.7 -10.55 5.9 -10.55 6.35 -10.55 6.45 -10.55 6.8 -10.55 6.9 -10.55 7.0 -10.65 7.7 -10.65 7.6 -10.75 6.45 -10.9 5.2 -10.95 4.6 -10.95 4.5 -11.15 1.45 -11.15 0.9 -11.1 -1.3 -10.9 -1.8 M-6.0 1.4 L-4.0 1.15 -4.0 1.2 -4.0 1.3 -6.0 1.4 M-2.5 1.1 L-2.45 1.1 -2.2 1.1 -2.55 1.15 -2.55 1.1 -2.5 1.1" fill="#ffddbb" fill-rule="evenodd" stroke="none"/>
    <path d="M7.35 -2.6 L7.6 0.65 7.0 0.65 4.9 0.7 4.9 0.65 Q4.9 0.15 4.5 0.15 3.85 0.15 3.8 0.8 L2.9 1.0 2.85 0.9 3.0 0.85 2.8 0.75 2.75 0.1 Q2.75 -0.65 3.7 -1.75 4.45 -2.55 5.25 -2.7 L5.25 -2.65 5.35 -2.6 6.5 -2.75 7.1 -2.6 7.35 -2.6 M7.75 0.65 Q8.3 -0.55 8.45 -2.2 L9.4 -1.05 9.75 0.4 9.75 0.8 7.75 0.65 M9.4 1.1 L9.75 1.1 9.7 1.25 9.4 1.1 M8.25 2.15 L8.25 2.1 8.75 2.1 Q8.7 2.5 7.55 3.1 L7.55 3.05 8.25 2.15 M4.4 0.35 L4.45 0.35 4.6 0.4 4.6 0.45 4.4 0.45 4.4 0.35 M-7.7 1.65 L-8.1 1.7 -8.15 1.65 -7.7 1.65 M-6.0 1.4 L-6.05 1.4 -7.4 1.45 -8.2 1.45 -8.35 1.35 -8.4 0.95 -8.05 -0.95 Q-7.5 -2.75 -6.4 -2.75 L-6.25 -2.75 Q-5.9 -2.75 -6.0 -2.6 L-4.6 -2.7 Q-1.9 -2.75 -1.35 0.5 L-1.45 1.0 -2.2 1.1 -2.45 1.1 -2.5 1.1 Q-2.5 0.8 -2.65 0.65 -2.65 0.4 -3.3 0.4 -4.0 0.4 -4.0 1.15 L-6.0 1.4" fill="#ffffff" fill-rule="evenodd" stroke="none"/>
    <path d="M9.9 4.35 L9.95 4.5 9.9 4.5 9.95 4.6 9.9 4.6 9.95 4.95 9.95 5.1 9.95 5.2 9.75 5.8 9.75 5.85 9.05 6.1 Q8.1 6.1 8.05 5.2 L8.05 5.1 8.05 5.0 8.15 4.6 8.1 4.6 8.15 4.5 8.1 4.5 Q8.25 3.8 9.05 3.85 9.7 3.8 9.9 4.35 M-10.25 -3.2 L-10.15 -3.1 -9.45 -3.15 Q-8.9 -3.2 -8.9 -2.65 -8.9 -2.1 -9.9 -2.05 L-10.0 -1.75 -9.95 0.25 -9.65 1.9 -9.45 1.9 -9.1 1.95 -9.1 2.0 -8.25 3.05 -8.25 3.4 Q-8.25 4.05 -8.55 4.45 L-8.6 4.5 -8.5 4.5 -8.55 4.6 -8.5 4.6 Q-8.8 5.05 -9.55 5.05 L-9.6 5.05 -9.55 5.2 -9.55 5.3 -9.5 5.95 -9.4 6.3 -9.4 6.35 -9.4 6.45 -9.45 6.65 -9.45 7.1 -9.45 7.2 -9.45 7.3 -9.45 7.4 -9.45 7.5 -9.45 8.0 -9.45 8.15 -9.45 8.25 -8.65 10.15 -8.35 10.7 -7.5 11.95 -7.5 12.1 -7.55 12.15 -7.5 12.2 -7.25 12.5 Q-6.9 12.75 -6.5 13.1 L-6.5 13.15 Q-6.5 13.4 -6.9 13.4 L-7.9 12.7 -8.0 12.6 -8.1 12.6 -8.15 12.6 -9.15 12.05 -9.6 11.5 -10.35 10.25 -10.65 10.1 -10.75 9.65 -10.75 9.55 -10.75 9.45 -10.65 7.7 -10.55 7.0 -10.55 6.9 -10.55 6.8 -10.55 6.45 -10.55 6.35 -10.55 5.9 -10.55 5.7 -10.55 5.65 -10.5 5.45 -10.5 5.3 -10.5 5.2 -10.65 4.6 -10.6 4.6 -10.65 4.5 -10.6 4.5 -10.65 4.25 -10.85 3.35 -10.85 3.1 -11.05 1.5 -11.05 1.45 -10.95 1.1 -11.05 -0.05 -11.0 -1.4 -10.9 -1.8 -10.8 -2.25 -10.75 -2.35 -10.85 -2.6 -10.6 -2.95 -10.35 -3.05 -10.35 -3.2 -10.25 -3.2" fill="#ffb99b" fill-rule="evenodd" stroke="none"/>
    <path d="M12.5 8.9 L12.5 8.8 11.65 6.45 11.6 6.4 11.6 6.1 11.7 6.1 12.55 8.85 12.55 8.9 12.5 9.0 12.5 8.9 M13.15 8.7 L13.15 8.65 12.15 6.5 12.15 6.45 12.0 5.5 12.05 4.85 12.15 4.85 12.15 4.95 12.15 5.05 12.15 5.1 12.15 5.2 12.4 6.45 Q12.7 7.45 13.35 8.7 L13.4 8.75 13.25 8.85 13.2 8.75 13.15 8.7 M-0.5 -13.2 L-0.55 -13.25 -0.75 -13.5 -0.8 -13.65 -0.55 -13.9 Q0.05 -13.9 0.05 -13.4 0.05 -13.1 -0.2 -13.1 L-0.5 -13.2 M-0.1 -12.5 L-0.05 -12.5 Q0.4 -12.5 0.4 -11.85 L0.25 -11.55 0.0 -11.4 -0.05 -11.65 0.05 -11.9 0.0 -12.0 -0.3 -12.35 -0.3 -12.4 -0.15 -12.45 -0.1 -12.5" fill="#fdad06" fill-rule="evenodd" stroke="none"/>
    <path d="M-14.15 8.6 Q-13.55 7.5 -13.3 6.45 L-13.1 5.2 -13.1 5.1 -13.1 4.85 -13.1 4.75 -13.1 4.6 -13.1 4.5 -13.35 -0.1 Q-13.35 -2.45 -12.9 -2.75 L-12.7 -2.8 -12.55 -2.8 -12.45 -2.6 -12.45 -2.45 -12.55 -1.65 -12.35 -2.6 -12.2 -2.75 -12.15 -2.7 -12.05 -2.5 Q-12.45 -2.1 -12.55 -0.45 L-12.7 0.0 -12.65 1.0 -12.6 1.45 -12.45 2.4 -12.5 2.45 -12.65 1.55 -12.65 1.45 -12.8 0.65 -12.8 0.55 -12.85 0.8 -12.85 1.45 -12.7 4.5 -12.7 4.6 -12.7 4.85 -12.7 5.1 -12.7 5.2 -12.75 5.9 -12.85 6.45 -13.05 7.1 -14.2 9.0 -14.25 8.85 -14.25 8.8 -14.15 8.6 M-10.3 -4.35 L-10.4 -4.4 Q-7.1 -7.1 -6.05 -8.55 L-2.75 -12.85 -2.55 -12.65 -2.55 -12.6 Q-2.55 -12.2 -3.45 -10.9 L-5.55 -8.25 -7.7 -6.05 -8.9 -5.0 -9.4 -4.7 -9.5 -4.6 Q-10.0 -4.25 -10.2 -4.25 L-10.3 -4.3 -10.3 -4.35 M-4.7 -11.95 L-4.7 -11.9 Q-4.7 -10.65 -11.3 -4.9 L-11.4 -4.95 -11.5 -4.85 -11.55 -5.0 Q-8.35 -8.9 -8.1 -9.35 -7.4 -10.7 -5.9 -11.8 L-3.6 -13.5 -3.45 -13.45 Q-7.55 -9.75 -7.85 -9.15 L-9.7 -6.95 -11.15 -5.25 Q-7.65 -8.2 -5.35 -11.4 L-4.8 -12.15 -4.7 -11.95 M-6.65 -12.95 L-6.65 -12.8 Q-11.2 -9.85 -12.45 -3.95 L-12.6 -3.95 -12.65 -4.7 -12.55 -5.5 -12.4 -6.1 -12.3 -6.3 -12.3 -6.35 -12.3 -6.4 -10.9 -9.15 -10.85 -9.25 Q-10.45 -10.1 -9.05 -11.5 L-8.7 -11.85 -8.55 -11.95 -8.4 -12.1 -8.4 -12.15 Q-7.35 -13.1 -6.9 -13.1 L-6.7 -13.05 -6.65 -13.05 -6.65 -12.95 M-13.3 -2.7 L-13.75 -1.75 -14.2 -0.25 -14.0 4.3 -14.0 4.6 -14.05 5.4 -14.15 5.45 -14.2 5.2 -14.25 4.7 -14.25 4.6 -14.25 4.5 -14.4 1.65 -14.25 -0.9 -13.35 -3.0 -13.3 -3.05 -13.2 -2.95 -13.3 -2.7 M-0.45 -13.1 L-0.5 -13.2 -0.2 -13.1 Q0.05 -13.1 0.05 -13.4 0.05 -13.9 -0.55 -13.9 L-0.8 -13.65 -1.15 -14.45 -0.9 -14.8 Q-0.3 -14.8 0.2 -13.4 L0.6 -11.8 Q0.6 -11.4 0.3 -11.4 L0.25 -11.55 0.4 -11.85 Q0.4 -12.5 -0.05 -12.5 L-0.1 -12.5 -0.3 -12.9 -0.45 -13.1 M-11.8 -3.1 L-11.8 -3.25 -11.7 -3.25 -11.65 -3.1 -11.6 -2.85 -11.6 -2.7 -11.75 -1.5 -11.9 -0.7 -12.05 -0.2 -11.9 1.45 -11.85 1.8 -11.45 3.7 -11.55 4.1 -11.65 4.1 -11.7 4.05 -11.7 4.0 -11.7 3.9 -12.25 1.45 -12.3 1.2 -12.3 1.05 -12.15 -1.35 -11.95 -2.4 -11.8 -3.1" fill="#fdba2f" fill-rule="evenodd" stroke="none"/>
    <path d="M1.25 7.8 L1.3 7.85 1.3 7.95 1.25 7.9 1.25 7.8" fill="#ffa4a4" fill-rule="evenodd" stroke="none"/>
    <path d="M14.0 -4.05 Q13.0 -7.65 10.3 -10.5 L10.15 -10.6 Q6.05 -14.8 0.35 -15.0 L-0.25 -15.0 Q-6.35 -15.0 -10.7 -10.6 L-12.5 -8.35 Q-14.05 -6.1 -14.6 -3.4" fill="none" stroke="#a27202" stroke-linecap="round" stroke-linejoin="round" stroke-width="0.5"/>
    <path d="M14.4 2.05 L14.45 1.45 14.5 0.0 Q14.5 -2.05 14.05 -3.8 M-10.75 10.7 L-10.7 10.75 Q-6.35 15.1 -0.25 15.1 5.7 15.1 9.95 11.0" fill="none" stroke="#865204" stroke-linecap="round" stroke-linejoin="round" stroke-width="0.5"/>
  </g>
</svg>
