<?xml version="1.0" encoding="UTF-8" standalone="no"?>
<svg xmlns:xlink="http://www.w3.org/1999/xlink" height="30.3px" width="32.6px" xmlns="http://www.w3.org/2000/svg">
  <g transform="matrix(1.0, 0.0, 0.0, 1.0, 16.75, 15.25)">
    <path d="M9.6 -4.25 Q9.6 -5.0 8.3 -7.2 L6.9 -9.35 Q3.3 -12.85 0.2 -13.75 L0.15 -13.7 Q4.5 -12.0 6.7 -9.3 L7.95 -7.4 7.9 -7.25 Q7.9 -6.65 8.35 -6.0 8.05 -6.1 7.85 -6.25 L7.65 -6.45 7.65 -6.4 7.3 -7.0 7.4 -6.85 7.65 -6.85 7.65 -6.95 4.95 -10.45 3.3 -12.15 Q1.05 -12.9 0.6 -13.4 L0.55 -13.4 Q0.5 -13.0 1.4 -12.55 L1.3 -12.55 0.9 -12.5 0.95 -12.45 3.1 -11.15 2.9 -11.15 2.75 -11.1 3.4 -9.6 3.3 -8.95 3.0 -9.95 3.1 -9.95 2.25 -11.1 0.9 -12.05 0.75 -12.0 1.85 -11.05 0.3 -11.45 Q0.6 -11.45 0.6 -11.85 L0.2 -13.4 Q-0.3 -14.8 -0.9 -14.8 L-1.15 -14.45 -0.8 -13.65 -0.75 -13.55 Q-1.4 -13.45 -1.7 -12.8 L-2.9 -11.4 -3.75 -10.1 -3.45 -10.65 -3.95 -9.85 -4.3 -9.35 -4.4 -9.35 Q-4.5 -8.8 -6.2 -7.3 L-6.15 -7.25 -4.9 -8.45 -6.8 -6.65 -6.6 -6.6 Q-5.5 -7.35 -4.5 -8.85 L-4.3 -9.05 -4.3 -9.15 -4.05 -9.55 -1.45 -12.85 -0.55 -13.25 -0.5 -13.2 -0.45 -13.15 -0.8 -12.9 Q-1.7 -12.5 -1.8 -11.9 -2.45 -11.4 -2.9 -10.1 -3.55 -8.4 -4.35 -7.6 -5.3 -6.8 -7.15 -6.0 L-8.9 -5.1 -7.7 -6.15 -5.55 -8.35 -3.45 -10.95 -3.55 -10.7 -3.5 -10.7 -2.5 -12.45 Q-2.0 -13.45 -1.25 -13.7 L-1.15 -13.75 -1.2 -13.8 -1.2 -13.85 -1.15 -14.0 -1.65 -14.3 -1.7 -14.35 -1.95 -14.35 Q-4.55 -14.1 -6.7 -13.1 L-6.9 -13.1 Q-7.35 -13.1 -8.4 -12.2 -9.75 -11.3 -10.9 -10.0 L-12.75 -7.05 -13.9 -4.3 -13.8 -3.75 -13.75 -3.8 -13.15 -5.7 -13.1 -5.6 -13.0 -5.65 -12.95 -5.7 -13.0 -5.45 Q-13.35 -4.65 -13.35 -3.15 L-14.25 -1.05 -14.4 1.5 -14.25 4.3 -14.25 4.5 -14.2 4.9 -14.15 5.15 -14.05 5.1 -14.0 4.1 -14.2 -0.4 -13.75 -1.85 -13.3 -2.85 -13.25 -2.45 -13.2 -2.5 -12.55 -5.6 -12.65 -4.8 -12.6 -4.05 -12.45 -4.05 Q-11.2 -9.85 -6.65 -12.8 L-6.65 -13.0 Q-4.75 -13.8 -2.3 -14.15 -5.9 -13.1 -7.75 -11.35 -8.65 -10.55 -10.4 -7.7 L-10.35 -7.65 Q-7.05 -12.5 -2.25 -14.15 L-2.3 -14.05 -2.15 -13.85 Q-5.1 -12.5 -6.55 -10.25 L-5.35 -11.4 Q-7.65 -8.3 -11.15 -5.35 L-9.7 -7.0 -7.85 -9.2 -3.45 -13.45 -3.6 -13.5 -5.9 -11.85 Q-7.4 -10.75 -8.1 -9.4 L-11.55 -5.1 -11.5 -4.95 -11.4 -5.05 -11.3 -5.0 Q-4.7 -10.65 -4.7 -11.95 L-2.1 -13.85 -1.7 -13.75 -2.55 -12.65 -2.75 -12.85 -6.05 -8.65 Q-7.1 -7.15 -10.4 -4.5 L-10.3 -4.45 -10.5 -4.35 -11.7 -3.9 -11.65 -3.75 -11.4 -3.7 Q-10.9 -3.7 -6.85 -5.05 -4.25 -6.2 -3.5 -6.65 -5.35 -4.3 -12.0 -3.4 L-11.95 -3.55 -12.05 -3.4 -12.25 -3.35 -12.05 -3.85 -12.05 -4.05 Q-6.2 -7.35 -3.75 -12.4 -5.75 -9.2 -6.95 -8.05 -10.8 -4.85 -12.1 -4.1 L-12.2 -4.1 -12.5 -3.35 -12.55 -3.35 -12.5 -3.3 -12.65 -3.15 -12.75 -3.9 -12.85 -3.85 -12.9 -2.85 Q-13.35 -2.55 -13.35 -0.25 L-13.1 4.3 -13.1 4.4 -13.1 4.55 -13.1 4.9 -13.3 6.15 Q-13.55 7.2 -14.15 8.3 L-14.0 7.9 -13.7 6.15 -13.7 5.65 -13.75 4.9 -13.8 4.3 -13.9 1.75 Q-13.9 -0.15 -13.3 -1.85 -13.95 -1.3 -13.95 0.0 L-14.1 1.85 -13.9 3.75 -13.85 4.3 -13.9 4.3 -13.85 5.9 -13.85 6.05 -13.85 6.15 Q-13.9 7.95 -15.3 10.35 L-15.3 10.3 -15.6 9.8 -15.65 9.8 -15.65 9.9 -15.55 10.3 -15.55 10.4 -15.8 10.45 Q-16.3 10.35 -16.55 10.1 L-16.5 10.05 Q-15.65 9.2 -15.55 7.6 L-15.55 7.1 -15.6 6.45 -15.6 6.15 -15.65 4.9 -15.65 4.3 -15.65 3.6 -15.3 0.3 -14.95 -0.85 -14.95 -1.0 -14.85 -1.35 -14.6 -2.95 -14.55 -3.55 -14.6 -3.55 Q-14.05 -6.2 -12.5 -8.45 L-10.7 -10.65 Q-6.35 -15.0 -0.25 -15.0 L0.35 -15.0 Q6.05 -14.8 10.15 -10.65 L10.3 -10.55 Q13.0 -7.7 14.0 -4.15 L13.75 -4.2 13.8 -3.85 14.05 -3.9 Q14.5 -2.15 14.5 -0.15 L14.45 1.3 14.4 1.85 14.2 2.0 14.3 2.45 14.3 2.5 14.2 3.1 14.05 3.4 14.1 3.65 14.35 3.4 14.15 4.3 14.2 4.3 14.1 4.9 14.05 5.55 14.05 5.7 14.1 6.0 14.1 6.15 14.1 6.25 14.1 6.4 14.05 6.15 13.75 4.9 13.65 4.3 13.7 4.3 13.6 3.3 13.9 1.3 14.0 -0.45 12.25 -6.5 12.15 -6.4 13.1 -3.45 Q13.7 -1.7 13.7 -0.45 L13.6 1.3 13.5 1.85 13.5 1.3 Q13.45 -0.7 13.05 -2.5 L12.05 -4.85 11.35 -6.2 9.5 -9.6 Q7.3 -13.15 6.15 -13.15 L5.95 -13.15 5.95 -13.0 Q8.25 -11.6 11.1 -6.45 L11.0 -6.45 11.3 -6.0 11.35 -5.95 Q13.25 -3.1 13.4 1.3 L13.4 2.0 13.35 3.05 13.3 3.25 13.3 3.35 13.2 4.3 13.25 4.3 13.15 4.9 13.05 5.65 13.05 5.85 13.1 6.15 13.15 6.7 Q13.25 7.7 13.7 8.35 L13.8 8.5 13.55 8.45 13.5 8.5 13.45 8.5 Q13.45 9.0 14.05 9.2 L15.05 10.25 15.1 10.3 15.0 10.35 14.3 10.55 14.15 10.45 14.05 10.55 13.55 10.25 13.65 10.2 13.8 9.95 12.7 8.8 12.85 8.85 13.2 8.45 13.25 8.55 13.4 8.45 13.35 8.35 Q12.7 7.15 12.4 6.15 L12.15 4.9 12.15 4.8 12.15 4.75 12.2 4.3 12.45 1.3 12.45 0.4 Q12.45 -2.8 11.4 -4.8 L8.4 -9.6 6.45 -11.95 Q4.35 -14.05 3.05 -14.0 L2.9 -14.0 Q6.15 -12.35 8.1 -9.55 L11.1 -5.1 11.05 -5.05 Q12.25 -2.8 12.25 0.4 L12.25 1.3 12.0 4.3 11.95 4.75 11.95 4.9 12.0 5.85 12.05 6.15 12.1 6.4 Q12.2 7.5 12.6 8.0 L12.6 7.95 12.5 7.65 12.15 6.4 12.15 6.3 12.15 6.2 13.1 8.35 13.15 8.4 12.75 8.65 12.6 8.65 12.55 8.6 12.55 8.5 12.5 8.45 11.7 5.8 11.6 5.8 11.6 6.1 11.65 6.15 12.5 8.6 12.45 8.6 12.45 8.65 12.35 8.65 12.3 8.65 12.2 8.6 Q11.5 7.55 11.25 6.15 L11.1 4.9 11.1 4.55 11.1 4.4 11.1 4.3 11.1 4.25 11.35 1.3 11.4 -0.6 Q11.4 -2.3 11.0 -3.45 9.25 -7.5 7.4 -9.4 L4.6 -12.1 Q1.75 -14.4 0.5 -14.4 L0.35 -14.35 4.4 -11.9 7.15 -9.15 9.4 -6.25 10.5 -4.15 Q11.25 -2.2 11.25 -0.6 L11.2 1.3 11.0 4.3 11.05 4.3 11.0 4.9 10.95 5.05 10.95 5.55 11.0 6.15 Q11.2 8.45 12.45 9.45 L12.9 9.75 12.95 9.6 12.3 8.8 12.4 8.8 12.45 8.75 12.45 8.85 12.95 9.55 13.35 9.9 13.45 9.95 13.3 10.0 13.2 10.05 11.05 8.65 10.9 8.35 10.55 7.5 Q10.25 6.75 10.3 6.4 L10.2 6.4 10.2 6.85 11.05 8.85 Q11.5 9.6 12.3 9.95 L12.55 10.05 12.15 10.05 12.15 10.2 12.75 10.35 13.25 10.35 14.0 10.85 Q14.1 11.45 15.15 11.55 L15.2 11.55 Q14.6 12.45 12.7 12.45 L11.95 12.4 11.95 12.35 10.6 11.3 10.25 10.75 10.15 10.45 Q10.0 9.9 10.0 9.15 L9.95 8.7 9.95 8.55 9.95 7.95 10.1 6.15 10.2 4.9 10.3 4.3 10.45 3.25 10.8 1.3 10.9 -0.1 Q10.5 -4.25 9.7 -4.25 L9.6 -4.25 M8.75 -5.75 L9.45 -3.95 9.55 -3.95 9.55 -2.8 9.5 -2.8 8.45 -4.45 8.15 -5.7 8.55 -5.7 8.75 -5.75 M7.1 -7.25 Q7.1 -6.25 7.75 -5.85 7.9 -4.55 8.2 -3.3 8.2 -1.75 7.7 -0.05 L7.55 -2.75 7.6 -2.8 7.55 -3.0 7.5 -3.0 Q6.8 -7.7 3.75 -9.95 L3.6 -10.7 5.65 -8.2 Q6.55 -7.0 7.85 -3.95 L7.95 -4.0 Q6.75 -7.6 5.75 -8.65 L4.0 -10.75 2.4 -12.15 3.2 -11.9 4.8 -10.25 7.1 -7.25 M0.0 -12.0 L0.05 -11.95 -0.05 -11.7 0.0 -11.45 Q-0.55 -11.4 -1.15 -10.55 L-0.5 -11.95 0.0 -12.0 M0.0 -11.45 L0.25 -11.6 0.3 -11.45 0.05 -11.45 0.0 -11.45 M-0.1 -12.5 L-0.15 -12.5 -0.3 -12.45 -0.3 -12.4 -0.5 -12.25 -0.55 -12.35 Q-1.35 -12.0 -2.3 -9.9 L-3.85 -7.15 Q-4.3 -6.6 -5.45 -6.2 L-7.4 -5.6 -9.35 -4.75 -9.5 -4.7 -9.4 -4.8 -6.8 -5.9 Q-4.8 -6.8 -4.0 -7.65 L-2.7 -9.75 -1.7 -11.7 -1.65 -11.7 -0.6 -12.8 -0.3 -12.9 -0.1 -12.5 M12.0 -7.0 L11.9 -7.0 11.9 -6.7 10.15 -10.35 10.1 -10.35 12.25 -5.4 12.5 -4.35 12.55 -4.4 12.55 -4.7 12.45 -5.0 12.45 -5.2 12.25 -5.85 12.0 -7.0 M13.95 8.55 L13.9 8.45 Q13.3 7.2 13.2 6.15 L13.15 5.6 13.25 4.9 13.3 4.4 13.3 4.3 13.35 3.85 13.45 4.3 13.4 4.3 13.55 4.9 13.9 6.15 13.9 6.25 14.8 8.6 14.85 8.55 14.95 8.7 15.0 8.8 14.7 8.95 14.1 8.6 14.05 8.55 14.05 8.6 13.95 8.55 M12.7 8.1 L12.7 8.05 12.65 8.05 12.7 8.1 M10.45 7.95 L10.35 7.95 Q10.4 9.15 11.5 10.75 L11.55 10.7 11.5 10.65 10.75 9.3 10.45 7.95 M12.0 10.95 L11.85 10.9 11.75 10.9 Q12.75 11.55 13.35 11.55 L13.5 11.5 13.35 11.45 12.0 10.95 M11.1 10.6 L11.0 10.6 11.0 10.9 11.55 11.45 11.7 11.4 11.7 11.3 11.1 10.6 M12.9 10.15 L12.8 10.15 12.55 10.05 12.9 10.15 M-12.35 -6.3 L-12.4 -6.2 -12.45 -6.15 -12.35 -6.3 M-8.7 -11.9 L-9.05 -11.55 Q-10.45 -10.1 -10.85 -9.3 L-10.9 -9.2 Q-12.6 -7.05 -12.9 -5.9 L-13.0 -6.0 Q-12.15 -8.2 -10.8 -9.85 L-8.7 -11.9 M-11.65 -5.7 L-11.6 -5.6 -9.85 -8.1 Q-11.65 -6.35 -11.65 -5.7 M-12.55 -2.9 L-12.35 -3.25 -12.1 -3.25 -12.45 -2.55 -12.45 -2.75 -12.55 -2.9 M-12.15 -2.85 L-12.05 -3.25 -11.8 -3.25 -11.95 -2.5 -12.05 -2.6 -12.15 -2.85 M-11.65 -3.25 L-10.9 -3.25 Q-11.3 -2.7 -11.4 -1.6 L-11.45 0.7 -11.45 1.3 -11.25 4.3 -11.25 4.4 -11.2 4.9 -11.15 5.3 -11.05 6.15 -11.0 6.45 -11.0 6.75 -10.85 8.2 -10.85 8.25 -11.25 10.55 Q-11.45 12.15 -12.95 12.55 L-12.9 12.6 -13.75 12.8 -14.3 12.65 -14.25 12.65 -14.25 12.55 Q-13.4 12.15 -13.4 11.95 L-13.4 11.9 -13.4 11.85 -13.55 11.65 -13.7 11.85 -14.7 12.25 -15.85 12.25 -15.4 11.45 -15.2 11.45 -14.0 10.6 -14.0 10.2 -14.15 10.2 Q-14.6 10.95 -15.3 11.2 L-15.25 11.1 -15.25 10.6 -15.25 10.45 -14.25 8.55 -14.2 8.7 -13.05 6.8 -12.85 6.15 -12.75 5.6 -12.7 5.95 -12.7 6.15 -12.7 6.25 -12.7 6.4 Q-12.7 9.0 -14.35 10.15 L-14.6 10.3 -14.55 10.35 -14.15 10.15 -14.1 10.1 Q-12.7 9.1 -12.55 6.15 L-12.55 5.7 -12.55 5.55 -12.6 4.9 -12.65 4.3 -12.6 4.3 -12.8 1.3 -12.8 0.8 -12.8 0.5 -12.65 1.3 -12.65 1.4 -12.65 1.45 -12.35 4.3 -12.4 4.3 -12.3 4.9 -12.15 6.15 -11.9 7.85 Q-11.9 9.3 -12.5 10.3 L-13.2 11.1 Q-11.6 9.75 -11.6 7.8 L-11.85 6.15 -12.0 4.9 -12.1 4.3 -12.05 4.3 -12.35 1.4 -12.3 1.3 -12.3 1.0 -12.25 1.3 -11.7 3.7 -11.7 3.8 -11.7 3.85 -11.65 4.3 -11.6 4.9 -11.45 6.15 -11.55 9.3 -11.95 10.75 -12.8 11.75 -13.0 11.95 Q-11.35 11.1 -11.35 9.3 L-11.2 7.6 -11.15 6.35 -11.15 6.2 -11.15 5.95 -11.2 5.75 -11.3 4.9 -11.3 4.7 -11.4 4.3 -11.35 4.3 -11.45 3.55 -11.45 3.5 -11.65 1.3 -11.75 -0.15 Q-11.4 -1.75 -11.4 -2.65 L-11.45 -2.85 -11.6 -2.8 -11.6 -3.0 -11.65 -3.25 M-11.9 1.3 L-12.05 -0.35 -11.9 -0.85 -11.95 -0.2 -11.9 1.3 M-12.65 0.85 L-12.7 -0.15 -12.55 -0.6 -12.65 0.85 M-14.55 1.1 L-14.65 1.1 -14.65 2.6 -14.5 4.3 -14.5 4.85 -14.5 4.9 -14.5 5.3 -14.5 5.45 -14.55 6.15 Q-14.7 7.5 -15.45 9.15 L-15.5 9.2 -15.45 9.3 Q-14.55 8.3 -14.4 6.15 L-14.4 5.65 -14.45 4.3 -14.4 4.3 -14.55 1.1 M-14.65 0.05 L-14.6 0.55 -14.55 0.5 Q-14.45 -2.05 -13.95 -2.95 -14.65 -2.7 -14.65 0.05 M-14.95 12.05 L-14.9 12.1 -14.1 11.7 -14.95 12.05" fill="#fdc551" fill-rule="evenodd" stroke="none"/>
    <path d="M14.05 -3.9 L13.8 -3.85 13.75 -4.2 14.0 -4.15 14.2 -4.1 14.05 -3.9 M7.55 -2.75 L7.45 -2.7 7.35 -2.7 7.1 -2.75 6.5 -2.9 5.35 -2.75 5.25 -2.8 5.25 -2.85 Q4.45 -2.7 3.7 -1.85 2.75 -0.8 2.75 -0.05 L2.8 0.6 3.0 0.7 2.85 0.75 2.9 0.85 3.8 0.65 Q3.85 0.0 4.5 0.0 4.9 0.0 4.9 0.5 L4.9 0.55 7.0 0.5 7.6 0.5 7.75 0.5 9.75 0.65 9.75 0.25 9.4 -1.2 8.45 -2.35 8.35 -2.55 8.5 -2.6 8.7 -2.6 9.05 -3.0 9.1 -3.05 9.25 -3.05 9.1 -2.85 8.85 -2.55 Q9.65 -2.15 9.95 0.25 L9.95 0.7 10.0 0.85 9.9 0.9 9.85 1.25 9.7 1.1 9.75 0.95 9.4 0.95 8.65 1.0 7.2 0.95 7.15 0.85 6.7 0.95 3.95 1.0 3.05 1.05 3.2 1.3 Q3.8 2.25 4.4 2.4 L4.35 2.5 Q3.9 2.4 2.95 1.3 L2.75 1.0 2.7 1.0 2.7 0.9 2.55 0.95 2.45 -0.1 Q2.45 -0.85 3.2 -1.85 L3.5 -2.25 3.15 -2.9 3.2 -3.0 3.35 -3.0 3.6 -2.35 4.45 -2.9 4.15 -3.85 4.15 -4.15 4.25 -4.15 Q4.6 -3.95 4.65 -3.0 L5.0 -3.05 5.2 -5.05 5.4 -5.05 5.4 -4.15 5.2 -3.1 5.35 -3.1 5.55 -3.0 5.7 -3.05 Q6.25 -3.6 6.2 -5.05 L6.3 -4.4 5.85 -3.1 6.3 -3.15 6.7 -4.25 6.6 -4.65 6.85 -4.65 6.9 -4.3 6.5 -3.15 6.55 -3.15 7.0 -3.1 7.3 -3.05 7.5 -3.0 7.55 -3.0 7.6 -2.8 7.55 -2.75 M7.25 -3.45 L7.25 -3.35 6.95 -3.15 6.9 -3.3 7.15 -3.55 7.25 -3.45 M9.65 -1.95 L9.95 -2.35 10.05 -2.25 9.65 -1.95 M4.45 0.2 L4.4 0.2 4.4 0.3 4.6 0.3 4.6 0.25 4.45 0.2 M-7.7 -3.15 L-8.0 -2.95 -8.05 -3.0 -8.05 -3.35 -8.0 -3.35 -7.95 -3.3 -7.9 -3.3 -7.6 -3.4 -7.6 -3.55 -7.5 -3.55 -7.15 -3.1 -6.9 -3.1 -7.15 -3.85 -7.1 -4.0 -7.0 -4.0 -6.2 -3.15 -6.1 -3.15 -5.9 -3.25 -5.8 -3.15 -6.25 -4.1 -6.2 -4.45 -6.05 -4.65 -5.85 -4.6 Q-5.85 -4.3 -6.0 -4.1 -6.0 -3.55 -5.6 -3.15 L-5.45 -3.15 -5.8 -3.9 -5.7 -4.4 -5.55 -4.35 -5.65 -4.3 -5.1 -3.2 -4.65 -3.2 Q-5.05 -3.65 -5.05 -4.2 -5.05 -5.2 -4.65 -5.15 L-4.4 -5.1 -4.4 -4.85 -4.65 -4.25 -4.45 -3.4 -4.2 -3.15 -3.9 -3.15 -4.05 -3.95 Q-4.05 -4.7 -3.7 -4.75 L-3.8 -4.0 -3.65 -3.1 -3.1 -2.9 -3.25 -3.65 Q-3.25 -4.6 -2.75 -4.75 L-2.65 -4.7 -3.05 -3.65 -2.8 -2.8 -2.85 -2.75 -2.8 -2.7 -2.6 -2.65 -2.6 -2.6 -2.05 -2.1 -2.1 -2.45 -2.0 -2.6 -2.05 -2.65 -1.95 -2.8 -1.6 -2.1 -1.75 -2.0 -1.85 -1.8 -1.75 -1.65 Q-1.05 -0.55 -1.05 0.35 L-1.1 0.95 -1.15 1.3 -1.6 2.1 Q-2.1 2.85 -2.5 2.85 -1.8 2.45 -1.35 1.3 L-1.3 1.1 -1.35 1.05 -1.4 1.25 -2.2 1.3 -2.9 1.35 -3.5 1.4 -3.6 1.35 -5.05 1.45 -6.1 1.35 -7.7 1.5 -8.15 1.5 -8.25 1.5 -7.8 2.05 -7.95 2.1 -8.35 1.65 -8.35 1.45 -8.65 1.3 -8.65 1.25 -8.7 0.75 -8.25 -1.4 -7.75 -2.55 -7.4 -3.0 -7.7 -3.2 -7.9 -3.3 -7.7 -3.15 M-2.2 0.95 L-1.45 0.85 -1.35 0.35 Q-1.9 -2.85 -4.6 -2.85 L-6.0 -2.75 Q-5.9 -2.9 -6.25 -2.9 L-6.4 -2.9 Q-7.5 -2.9 -8.05 -1.1 L-8.4 0.8 -8.35 1.2 -8.2 1.3 -7.4 1.3 -6.05 1.25 -6.0 1.25 -4.0 1.15 -4.0 1.0 Q-4.0 0.25 -3.3 0.25 -2.65 0.25 -2.65 0.5 -2.5 0.65 -2.5 0.95 L-2.55 0.95 -2.55 1.0 -2.2 0.95" fill="#000000" fill-rule="evenodd" stroke="none"/>
    <path d="M7.95 -7.4 L6.7 -9.3 Q4.5 -12.0 0.15 -13.7 L0.2 -13.75 Q3.3 -12.85 6.9 -9.35 L8.3 -7.2 Q9.6 -5.0 9.6 -4.25 L9.6 -4.2 9.55 -3.95 9.45 -3.95 8.75 -5.75 8.4 -6.55 7.95 -7.4 M12.55 10.05 L12.3 9.95 Q11.5 9.6 11.05 8.85 L10.2 6.85 10.2 6.4 10.3 6.4 Q10.25 6.75 10.55 7.5 L10.9 8.35 11.05 8.65 13.2 10.05 13.5 10.25 13.25 10.2 12.9 10.15 12.55 10.05 M12.3 8.8 L12.95 9.6 12.9 9.75 12.45 9.45 Q11.2 8.45 11.0 6.15 L10.95 5.55 10.95 5.05 11.0 4.9 11.05 4.3 11.0 4.3 11.2 1.3 11.25 -0.6 Q11.25 -2.2 10.5 -4.15 L9.4 -6.25 7.15 -9.15 4.4 -11.9 0.35 -14.35 0.5 -14.4 Q1.75 -14.4 4.6 -12.1 L7.4 -9.4 Q9.25 -7.5 11.0 -3.45 11.4 -2.3 11.4 -0.6 L11.35 1.3 11.1 4.25 11.1 4.3 11.1 4.4 11.1 4.55 11.1 4.9 11.25 6.15 Q11.5 7.55 12.2 8.6 L12.3 8.8 M12.15 6.2 L12.15 6.3 12.15 6.4 12.5 7.65 12.6 7.95 12.6 8.0 Q12.2 7.5 12.1 6.4 L12.05 6.15 12.0 5.85 11.95 4.9 11.95 4.75 12.0 4.3 12.25 1.3 12.25 0.4 Q12.25 -2.8 11.05 -5.05 L11.1 -5.1 8.1 -9.55 Q6.15 -12.35 2.9 -14.0 L3.05 -14.0 Q4.35 -14.05 6.45 -11.95 L8.4 -9.6 11.4 -4.8 Q12.45 -2.8 12.45 0.4 L12.45 1.3 12.2 4.3 12.15 4.75 12.15 4.65 12.15 4.55 12.05 4.55 12.0 5.2 12.15 6.15 12.15 6.2 M13.8 8.5 L13.7 8.35 Q13.25 7.7 13.15 6.7 L13.1 6.15 13.05 5.85 13.05 5.65 13.15 4.9 13.25 4.3 13.2 4.3 13.3 3.35 13.3 3.25 13.35 3.05 13.4 2.0 13.4 1.3 Q13.25 -3.1 11.35 -5.95 L11.3 -6.0 11.0 -6.45 11.1 -6.45 Q8.25 -11.6 5.95 -13.0 L5.95 -13.15 6.15 -13.15 Q7.3 -13.15 9.5 -9.6 L11.35 -6.2 12.05 -4.85 13.05 -2.5 Q13.45 -0.7 13.5 1.3 L13.5 1.85 13.6 1.3 13.7 -0.45 Q13.7 -1.7 13.1 -3.45 L12.15 -6.4 12.25 -6.5 14.0 -0.45 13.9 1.3 13.6 3.3 13.7 4.3 13.65 4.3 13.75 4.9 14.05 6.15 14.1 6.4 14.8 8.45 14.85 8.55 14.8 8.6 13.9 6.25 13.9 6.15 13.55 4.9 13.4 4.3 13.45 4.3 13.35 3.85 13.3 4.3 13.3 4.4 13.25 4.9 13.15 5.6 13.2 6.15 Q13.3 7.2 13.9 8.45 L13.95 8.55 13.9 8.6 13.8 8.5 M-15.3 10.35 Q-13.9 7.95 -13.85 6.15 L-13.85 6.05 -13.85 5.9 -13.9 4.3 -13.85 4.3 -13.9 3.75 -14.1 1.85 -13.95 0.0 Q-13.95 -1.3 -13.3 -1.85 -13.9 -0.15 -13.9 1.75 L-13.8 4.3 -13.75 4.9 -13.7 5.65 -13.7 6.15 -14.0 7.9 -14.15 8.3 -14.2 8.45 -14.25 8.5 -14.25 8.55 -15.25 10.45 -15.3 10.45 -15.35 10.4 -15.3 10.35 M-12.1 -4.1 Q-10.8 -4.85 -6.95 -8.05 -5.75 -9.2 -3.75 -12.4 -6.2 -7.35 -12.05 -4.05 L-12.15 -4.0 -12.2 -4.05 -12.1 -4.1 M-12.05 -3.4 L-11.95 -3.55 -12.0 -3.4 -12.05 -3.25 -12.15 -2.85 -12.2 -2.9 -12.35 -2.75 -12.55 -1.8 -12.45 -2.55 -12.1 -3.25 -12.05 -3.4 M-3.5 -6.65 Q-4.25 -6.2 -6.85 -5.05 -10.9 -3.7 -11.4 -3.7 L-11.65 -3.75 -11.7 -3.9 -10.5 -4.35 -10.3 -4.45 -10.3 -4.4 -10.2 -4.35 Q-10.0 -4.35 -9.5 -4.7 L-9.35 -4.75 -7.4 -5.6 -5.45 -6.2 Q-4.3 -6.6 -3.85 -7.15 L-2.3 -9.9 Q-1.35 -12.0 -0.55 -12.35 L-0.5 -12.25 -0.3 -12.4 0.0 -12.0 -0.5 -11.95 -1.15 -10.55 -1.65 -9.6 -3.25 -6.85 -3.5 -6.65 M-2.55 -12.65 L-1.7 -13.75 -2.1 -13.85 -4.7 -11.95 -4.8 -12.2 -5.35 -11.4 -6.55 -10.25 Q-5.1 -12.5 -2.15 -13.85 L-2.3 -14.05 -2.25 -14.15 Q-7.05 -12.5 -10.35 -7.65 L-10.4 -7.7 Q-8.65 -10.55 -7.75 -11.35 -5.9 -13.1 -2.3 -14.15 -4.75 -13.8 -6.65 -13.0 L-6.65 -13.05 -6.7 -13.1 Q-4.55 -14.1 -1.95 -14.35 L-1.7 -14.35 -1.65 -14.3 -1.15 -14.0 -1.2 -13.85 -1.2 -13.8 -1.15 -13.75 -1.25 -13.7 Q-2.0 -13.45 -2.5 -12.45 L-3.5 -10.7 -3.55 -10.7 -3.45 -10.95 Q-2.55 -12.25 -2.55 -12.65 M-12.55 -5.6 L-13.2 -2.5 -13.25 -2.45 -13.3 -2.85 -13.2 -3.1 -13.3 -3.2 -13.35 -3.15 Q-13.35 -4.65 -13.0 -5.45 L-12.95 -5.7 -13.0 -5.65 -13.1 -5.6 -13.15 -5.7 -13.75 -3.8 -13.8 -3.75 -13.9 -4.3 -12.75 -7.05 -10.9 -10.0 Q-9.75 -11.3 -8.4 -12.2 L-8.7 -11.9 -10.8 -9.85 Q-12.15 -8.2 -13.0 -6.0 L-12.9 -5.9 Q-12.6 -7.05 -10.9 -9.2 -11.9 -7.65 -12.3 -6.5 L-12.35 -6.35 -12.35 -6.3 -12.45 -6.15 -12.4 -6.2 -12.55 -5.6 M-8.9 -5.1 L-7.15 -6.0 Q-5.3 -6.8 -4.35 -7.6 -3.55 -8.4 -2.9 -10.1 -2.45 -11.4 -1.8 -11.9 -1.7 -12.5 -0.8 -12.9 L-0.45 -13.15 -0.3 -12.9 -0.6 -12.8 -1.65 -11.7 -1.7 -11.7 -2.7 -9.75 -4.0 -7.65 Q-4.8 -6.8 -6.8 -5.9 L-9.4 -4.8 -8.9 -5.1 M-0.55 -13.25 L-1.45 -12.85 -4.05 -9.55 -4.3 -9.15 -4.3 -9.05 -4.5 -8.85 Q-5.5 -7.35 -6.6 -6.6 L-6.8 -6.65 -4.9 -8.45 -6.15 -7.25 -6.2 -7.3 Q-4.5 -8.8 -4.4 -9.35 L-4.3 -9.35 -3.95 -9.85 -3.45 -10.65 -3.75 -10.1 -2.9 -11.4 -1.7 -12.8 Q-1.4 -13.45 -0.75 -13.55 L-0.55 -13.25 M1.85 -11.05 L0.75 -12.0 0.9 -12.05 2.25 -11.1 3.1 -9.95 3.0 -9.95 2.9 -9.9 1.9 -11.0 1.85 -11.05 M3.1 -11.15 L0.95 -12.45 0.9 -12.5 1.3 -12.55 1.4 -12.55 Q0.5 -13.0 0.55 -13.4 L0.6 -13.4 Q1.05 -12.9 3.3 -12.15 L4.95 -10.45 7.65 -6.95 7.65 -6.85 7.4 -6.85 7.3 -7.0 7.1 -7.25 4.8 -10.25 3.2 -11.9 2.4 -12.15 4.0 -10.75 5.75 -8.65 Q6.75 -7.6 7.95 -4.0 L7.85 -3.95 Q6.55 -7.0 5.65 -8.2 L3.6 -10.7 3.1 -11.15 M12.0 -7.0 L12.25 -5.85 12.45 -5.2 12.45 -5.0 12.55 -4.7 12.55 -4.4 12.5 -4.35 12.25 -5.4 10.1 -10.35 10.15 -10.35 11.9 -6.7 11.9 -7.0 12.0 -7.0 M12.7 8.1 L12.65 8.05 12.7 8.05 12.7 8.1 M10.45 7.95 L10.75 9.3 11.5 10.65 11.55 10.7 11.5 10.75 Q10.4 9.15 10.35 7.95 L10.45 7.95 M11.1 10.6 L11.7 11.3 11.7 11.4 11.55 11.45 11.0 10.9 11.0 10.6 11.1 10.6 M12.0 10.95 L13.35 11.45 13.5 11.5 13.35 11.55 Q12.75 11.55 11.75 10.9 L11.85 10.9 12.0 10.95 M-11.65 -5.7 Q-11.65 -6.35 -9.85 -8.1 L-11.6 -5.6 -11.65 -5.7 M-11.95 -2.5 L-12.15 -1.45 -12.3 0.9 -12.3 1.0 -12.3 1.3 -12.35 1.4 -12.05 4.3 -12.1 4.3 -12.0 4.9 -11.85 6.15 -11.6 7.8 Q-11.6 9.75 -13.2 11.1 L-12.5 10.3 Q-11.9 9.3 -11.9 7.85 L-12.15 6.15 -12.3 4.9 -12.4 4.3 -12.35 4.3 -12.65 1.45 -12.65 1.4 -12.5 2.25 -12.45 2.2 -12.6 1.3 -12.65 0.85 -12.55 -0.6 Q-12.45 -2.25 -12.05 -2.6 L-11.95 -2.5 M-11.7 3.85 L-11.65 3.9 -11.55 3.9 -11.45 3.55 -11.35 4.3 -11.4 4.3 -11.3 4.7 -11.3 4.9 -11.2 5.75 -11.15 5.95 -11.15 6.2 -11.15 6.35 -11.2 7.6 -11.35 9.3 Q-11.35 11.1 -13.0 11.95 L-12.8 11.75 -11.95 10.75 -11.55 9.3 -11.45 6.15 -11.6 4.9 -11.65 4.3 -11.7 3.85 M-11.45 3.5 L-11.85 1.65 -11.9 1.3 -11.95 -0.2 -11.9 -0.85 -11.75 -1.6 -11.6 -2.8 -11.45 -2.85 -11.4 -2.65 Q-11.4 -1.75 -11.75 -0.15 L-11.65 1.3 -11.45 3.5 M-12.75 5.6 L-12.7 4.9 -12.7 4.65 -12.7 4.55 -12.7 4.4 -12.7 4.3 -12.85 1.3 -12.85 0.65 -12.8 0.4 -12.8 0.5 -12.8 0.8 -12.8 1.3 -12.6 4.3 -12.65 4.3 -12.6 4.9 -12.55 5.55 -12.55 5.7 -12.55 6.15 Q-12.7 9.1 -14.1 10.1 L-14.15 10.15 -14.55 10.35 -14.6 10.3 -14.35 10.15 Q-12.7 9.0 -12.7 6.4 L-12.7 6.25 -12.7 6.15 -12.7 5.95 -12.75 5.6 M-14.65 0.05 Q-14.65 -2.7 -13.95 -2.95 -14.45 -2.05 -14.55 0.5 L-14.6 0.55 -14.65 0.05 M-14.55 1.1 L-14.4 4.3 -14.45 4.3 -14.4 5.65 -14.4 6.15 Q-14.55 8.3 -15.45 9.3 L-15.5 9.2 -15.45 9.15 Q-14.7 7.5 -14.55 6.15 L-14.5 5.45 -14.5 5.3 -14.5 4.9 -14.5 4.85 -14.5 4.3 -14.65 2.6 -14.65 1.1 -14.55 1.1 M-14.95 12.05 L-14.1 11.7 -14.9 12.1 -14.95 12.05" fill="#fee1a5" fill-rule="evenodd" stroke="none"/>
    <path d="M7.95 -7.4 L8.4 -6.55 8.75 -5.75 8.55 -5.7 8.15 -5.7 8.45 -4.45 9.5 -2.8 9.55 -2.8 9.55 -3.95 9.6 -4.2 9.6 -4.25 9.7 -4.25 Q10.5 -4.25 10.9 -0.1 L10.8 1.3 10.45 3.25 10.3 4.3 10.2 4.9 10.1 6.15 9.95 7.95 9.95 8.55 9.95 8.7 10.0 9.15 Q10.0 9.9 10.15 10.45 L10.25 10.75 10.6 11.3 11.95 12.35 11.95 12.4 12.7 12.45 Q14.6 12.45 15.2 11.55 L15.15 11.55 Q14.1 11.45 14.0 10.85 L13.25 10.35 12.75 10.35 12.15 10.2 12.15 10.05 12.55 10.05 12.8 10.15 12.9 10.15 13.25 10.2 13.5 10.25 13.2 10.05 13.3 10.0 13.45 9.95 13.35 9.9 12.95 9.55 12.45 8.85 12.45 8.75 12.4 8.8 12.3 8.8 12.2 8.6 12.3 8.65 12.35 8.65 12.45 8.65 12.45 8.6 12.5 8.6 12.5 8.7 12.55 8.6 12.6 8.65 12.75 8.65 13.15 8.4 13.2 8.45 12.85 8.85 12.7 8.8 13.8 9.95 13.65 10.2 13.55 10.25 14.05 10.55 14.15 10.45 14.3 10.55 15.0 10.35 15.1 10.3 15.05 10.25 14.05 9.2 Q13.45 9.0 13.45 8.5 L13.5 8.5 13.55 8.45 13.8 8.5 13.9 8.6 13.95 8.55 14.05 8.6 14.05 8.55 14.1 8.6 14.7 8.95 15.0 8.8 14.95 8.7 14.85 8.55 14.8 8.45 14.1 6.4 14.1 6.25 14.1 6.15 14.1 6.0 14.05 5.7 14.05 5.55 14.1 4.9 14.2 4.3 14.15 4.3 14.35 3.4 14.1 3.65 14.05 3.4 14.2 3.1 14.3 2.5 14.3 2.45 14.2 2.0 14.4 1.85 14.45 1.85 14.6 2.45 14.6 2.6 14.75 2.9 14.55 4.3 14.45 4.9 14.35 5.25 Q14.4 6.3 15.4 8.6 L15.4 8.75 Q15.4 9.25 14.75 9.25 L14.55 9.25 14.55 9.3 15.5 10.1 15.5 10.2 14.85 10.85 15.3 11.15 15.7 11.0 15.85 11.2 15.85 11.3 15.0 12.15 Q13.95 12.75 12.7 12.75 L11.85 12.55 11.8 12.55 Q10.55 12.55 9.95 10.7 L9.9 10.6 9.8 10.25 9.85 10.25 9.85 10.15 9.7 9.3 9.65 8.1 9.65 7.95 9.65 7.05 9.7 6.15 9.75 5.5 9.95 4.9 9.95 4.75 9.95 4.6 9.9 4.3 9.95 4.3 9.9 4.15 10.1 2.9 10.45 1.3 10.55 -0.1 9.9 -3.35 Q9.95 -2.3 9.5 -2.25 L9.1 -2.85 9.25 -3.05 9.1 -3.05 9.05 -3.0 8.95 -3.25 8.5 -3.7 8.5 -3.35 8.5 -2.6 8.35 -2.55 8.45 -2.35 Q8.3 -0.7 7.75 0.5 L7.6 0.5 7.35 -2.7 7.45 -2.7 7.55 -2.75 7.7 -0.05 Q8.2 -1.75 8.2 -3.3 7.9 -4.55 7.75 -5.85 7.1 -6.25 7.1 -7.25 L7.3 -7.0 7.65 -6.4 7.65 -6.45 7.85 -6.25 Q8.05 -6.1 8.35 -6.0 7.9 -6.65 7.9 -7.25 L7.95 -7.4 M-14.6 -3.55 L-14.55 -3.55 -14.6 -2.95 -14.85 -1.35 -14.95 -1.0 -14.95 -0.85 -15.3 0.3 -15.65 3.6 -15.65 4.3 -15.65 4.9 -15.6 6.15 -15.6 6.45 -15.55 7.1 -15.55 7.6 Q-15.65 9.2 -16.5 10.05 L-16.55 10.1 Q-16.3 10.35 -15.8 10.45 L-15.55 10.4 -15.55 10.3 -15.65 9.9 -15.65 9.8 -15.6 9.8 -15.3 10.3 -15.3 10.35 -15.35 10.4 -15.3 10.45 -15.25 10.45 -15.25 10.6 -15.25 11.1 -15.3 11.2 Q-14.6 10.95 -14.15 10.2 L-14.0 10.2 -14.0 10.6 -15.2 11.45 -15.4 11.45 -15.85 12.25 -14.7 12.25 -13.7 11.85 -13.55 11.65 -13.4 11.85 -13.4 11.9 -13.4 11.95 Q-13.4 12.15 -14.25 12.55 L-14.25 12.65 -14.3 12.65 -13.75 12.8 -12.9 12.6 -12.95 12.55 Q-11.45 12.15 -11.25 10.55 L-10.85 8.25 -10.85 8.2 -11.0 6.75 -11.0 6.45 -11.05 6.15 -11.15 5.3 -11.2 4.9 -11.25 4.4 -11.25 4.3 -11.45 1.3 -11.45 0.7 -11.4 -1.6 Q-11.3 -2.7 -10.9 -3.25 L-11.65 -3.25 -11.7 -3.4 -11.8 -3.4 -11.8 -3.25 -12.05 -3.25 -12.0 -3.4 Q-5.35 -4.3 -3.5 -6.65 L-3.25 -6.85 -1.65 -9.6 -1.15 -10.55 Q-0.55 -11.4 0.0 -11.45 L0.05 -11.45 0.3 -11.45 1.85 -11.05 1.9 -11.0 2.9 -9.9 3.0 -9.95 3.3 -8.95 3.4 -9.6 2.75 -11.1 2.9 -11.15 3.1 -11.15 3.6 -10.7 3.75 -9.95 Q6.8 -7.7 7.5 -3.0 L7.3 -3.05 7.25 -3.35 7.25 -3.45 7.2 -3.55 6.9 -4.7 6.8 -4.85 5.7 -7.4 4.85 -8.7 Q4.05 -9.2 3.75 -9.55 3.75 -8.3 3.15 -8.25 L2.5 -9.85 Q1.6 -11.05 0.05 -11.0 -0.6 -11.05 -1.8 -8.65 L-3.2 -6.45 Q-4.45 -5.35 -5.85 -4.6 L-6.05 -4.65 -6.2 -4.45 Q-8.1 -3.6 -10.25 -3.3 L-10.35 -3.35 -10.35 -3.3 -10.6 -3.3 -10.6 -3.1 -10.85 -2.75 -10.75 -2.5 -10.75 -2.45 -10.8 -2.35 -10.9 -1.95 -11.1 -1.4 -11.15 0.75 -11.15 1.3 -10.95 4.3 -10.9 4.9 -10.85 5.5 -10.75 6.15 -10.65 7.3 -10.65 7.4 -10.75 9.2 -10.75 9.25 -10.75 9.35 -10.65 9.8 -10.7 10.35 -10.75 10.4 Q-11.1 12.05 -12.15 12.55 -12.4 13.1 -13.8 13.1 -14.7 13.1 -14.7 12.75 L-14.7 12.65 -14.65 12.55 -14.7 12.55 -16.25 12.55 -16.3 12.35 -16.25 12.35 -16.3 12.25 -15.55 11.25 -15.55 10.85 -15.45 10.65 -15.75 10.75 Q-16.75 10.75 -16.75 10.1 L-16.75 10.0 Q-15.85 8.95 -15.85 7.5 L-15.85 7.35 -15.9 4.75 -15.9 4.6 -15.9 4.3 Q-15.85 0.5 -14.65 -3.55 L-14.6 -3.55 M-12.9 -2.85 L-12.85 -3.85 -12.75 -3.9 -12.65 -3.15 -12.5 -3.3 -12.55 -3.35 -12.5 -3.35 -12.2 -4.1 -12.1 -4.1 -12.2 -4.05 -12.15 -4.0 -12.05 -4.05 -12.05 -3.85 -12.25 -3.35 -12.05 -3.4 -12.1 -3.25 -12.35 -3.25 -12.55 -2.9 -12.7 -2.95 -12.9 -2.85" fill="#70510a" fill-rule="evenodd" stroke="none"/>
    <path d="M9.1 -2.85 L9.5 -2.25 Q9.95 -2.3 9.9 -3.35 L10.55 -0.1 10.45 1.3 10.1 2.9 9.9 4.15 Q9.7 3.6 9.05 3.65 8.25 3.6 8.1 4.3 L8.15 4.3 8.05 4.65 8.05 4.7 8.05 4.8 8.05 4.9 8.05 4.95 Q8.1 5.65 8.8 5.8 L9.05 5.8 9.75 5.55 9.75 5.5 9.7 6.15 9.65 7.05 9.65 7.95 9.65 8.1 9.7 9.3 9.85 10.15 9.85 10.25 9.8 10.25 9.9 10.6 9.95 10.7 Q5.7 14.8 -0.25 14.8 -6.35 14.8 -10.7 10.45 L-10.75 10.4 -10.7 10.35 -10.65 9.8 -10.35 9.95 -9.6 11.2 -9.1 11.75 -8.45 12.25 -8.1 12.3 -8.0 12.3 -6.9 13.1 -6.5 12.8 Q-6.9 12.45 -7.25 12.2 L-7.5 11.9 -7.55 11.85 -7.5 11.8 -7.5 11.65 -8.35 10.4 -8.65 9.85 -9.45 7.95 -9.45 7.8 -9.45 7.2 -9.45 7.1 -9.45 7.0 -9.45 6.9 -9.45 6.35 -9.4 6.15 -9.4 6.0 -9.5 5.65 -9.55 5.1 -9.55 4.9 -9.6 4.75 -9.55 4.75 -9.45 4.75 -9.25 4.75 -8.5 4.3 -8.6 4.3 -8.55 4.25 Q-8.25 3.85 -8.25 3.2 L-8.25 2.85 -9.1 1.85 -9.1 1.8 -9.45 1.75 -9.65 1.75 -9.95 0.1 -10.0 -1.85 -9.9 -2.15 Q-8.9 -2.2 -8.9 -2.8 -8.9 -3.3 -9.45 -3.3 L-10.15 -3.25 -10.25 -3.3 Q-8.1 -3.6 -6.2 -4.45 L-6.25 -4.1 -5.8 -3.15 -5.9 -3.25 -6.1 -3.15 -6.2 -3.15 -7.0 -4.0 -7.1 -4.0 -7.15 -3.85 -6.9 -3.1 -7.15 -3.1 -7.5 -3.55 -7.6 -3.55 -7.6 -3.4 -7.9 -3.3 -7.95 -3.3 -8.0 -3.35 -8.05 -3.35 -8.05 -3.0 -8.0 -2.95 -7.7 -3.15 -7.7 -3.2 -7.4 -3.0 -7.75 -2.55 -8.25 -1.4 -8.7 0.75 -8.65 1.25 -8.65 1.3 -8.35 1.45 -8.35 1.65 -7.95 2.1 -7.8 2.05 -8.25 1.5 -8.15 1.5 -8.1 1.55 -7.7 1.5 -6.1 1.35 -5.05 1.45 -3.6 1.35 -3.5 1.4 -2.9 1.35 -2.2 1.3 -1.4 1.25 -1.35 1.05 -1.3 1.1 -1.35 1.3 Q-1.8 2.45 -2.5 2.85 -2.1 2.85 -1.6 2.1 L-1.15 1.3 -1.1 0.95 -1.05 0.35 Q-1.05 -0.55 -1.75 -1.65 L-1.85 -1.8 -1.75 -2.0 -1.6 -2.1 -1.95 -2.8 -2.05 -2.65 -2.0 -2.6 -2.1 -2.45 -2.05 -2.1 -2.6 -2.6 -2.6 -2.65 -2.8 -2.7 -2.85 -2.75 -2.8 -2.8 -3.05 -3.65 -2.65 -4.7 -2.75 -4.75 Q-3.25 -4.6 -3.25 -3.65 L-3.1 -2.9 -3.65 -3.1 -3.8 -4.0 -3.7 -4.75 Q-4.05 -4.7 -4.05 -3.95 L-3.9 -3.15 -4.2 -3.15 -4.45 -3.4 -4.65 -4.25 -4.4 -4.85 -4.4 -5.1 -4.65 -5.15 Q-5.05 -5.2 -5.05 -4.2 -5.05 -3.65 -4.65 -3.2 L-5.1 -3.2 -5.65 -4.3 -5.55 -4.35 -5.7 -4.4 -5.8 -3.9 -5.45 -3.15 -5.6 -3.15 Q-6.0 -3.55 -6.0 -4.1 -5.85 -4.3 -5.85 -4.6 -4.45 -5.35 -3.2 -6.45 L-1.8 -8.65 Q-0.6 -11.05 0.05 -11.0 1.6 -11.05 2.5 -9.85 L3.15 -8.25 Q3.75 -8.3 3.75 -9.55 4.05 -9.2 4.85 -8.7 L5.7 -7.4 6.8 -4.85 6.9 -4.7 6.85 -4.65 6.6 -4.65 6.7 -4.25 6.3 -3.15 5.85 -3.1 6.3 -4.4 6.2 -5.05 Q6.25 -3.6 5.7 -3.05 L5.55 -3.0 5.35 -3.1 5.2 -3.1 5.4 -4.15 5.4 -5.05 5.2 -5.05 5.0 -3.05 4.65 -3.0 Q4.6 -3.95 4.25 -4.15 L4.15 -4.15 4.15 -3.85 4.45 -2.9 3.6 -2.35 3.35 -3.0 3.2 -3.0 3.15 -2.9 3.5 -2.25 3.2 -1.85 Q2.45 -0.85 2.45 -0.1 L2.55 0.95 2.7 0.9 2.7 1.0 2.75 1.0 2.95 1.3 Q3.9 2.4 4.35 2.5 L4.4 2.4 Q3.8 2.25 3.2 1.3 L3.05 1.05 3.95 1.0 6.7 0.95 7.15 0.85 7.2 0.95 8.65 1.0 9.4 0.95 9.7 1.1 9.85 1.25 9.9 0.9 10.0 0.85 9.95 0.7 9.95 0.25 Q9.65 -2.15 8.85 -2.55 L9.1 -2.85 M9.65 -1.95 L10.05 -2.25 9.95 -2.35 9.65 -1.95 M8.25 2.0 L7.55 2.85 7.55 2.9 8.75 1.95 8.25 1.95 8.25 2.0 M-10.35 -3.3 L-10.35 -3.2 -10.6 -3.1 -10.6 -3.3 -10.35 -3.3 M-10.9 -1.95 L-11.0 -1.5 -11.05 -0.2 -10.95 0.95 -11.05 1.3 -11.05 1.35 -10.85 2.9 -10.85 3.15 -10.65 4.05 -10.6 4.3 -10.65 4.3 -10.5 4.9 -10.5 5.0 -10.5 5.3 -10.5 5.45 -10.55 6.15 -10.55 6.6 -10.55 6.7 -10.65 7.4 -10.65 7.3 -10.75 6.15 -10.85 5.5 -10.9 4.9 -10.95 4.3 -11.15 1.3 -11.15 0.75 -11.1 -1.4 -10.9 -1.95 M-6.0 1.25 L-4.0 1.0 -4.0 1.15 -6.0 1.25 M-2.5 0.95 L-2.45 0.95 -2.2 0.95 -2.55 1.0 -2.55 0.95 -2.5 0.95" fill="#ffddbb" fill-rule="evenodd" stroke="none"/>
    <path d="M7.35 -2.7 L7.6 0.5 7.0 0.5 4.9 0.55 4.9 0.5 Q4.9 0.0 4.5 0.0 3.85 0.0 3.8 0.65 L2.9 0.85 2.85 0.75 3.0 0.7 2.8 0.6 2.75 -0.05 Q2.75 -0.8 3.7 -1.85 4.45 -2.7 5.25 -2.85 L5.25 -2.8 5.35 -2.75 6.5 -2.9 7.1 -2.75 7.35 -2.7 M7.75 0.5 Q8.3 -0.7 8.45 -2.35 L9.4 -1.2 9.75 0.25 9.75 0.65 7.75 0.5 M9.7 1.1 L9.4 0.95 9.75 0.95 9.7 1.1 M8.25 2.0 L8.25 1.95 8.75 1.95 7.55 2.9 7.55 2.85 8.25 2.0 M4.45 0.2 L4.6 0.25 4.6 0.3 4.4 0.3 4.4 0.2 4.45 0.2 M-7.7 1.5 L-8.1 1.55 -8.15 1.5 -7.7 1.5 M-6.0 1.25 L-6.05 1.25 -7.4 1.3 -8.2 1.3 -8.35 1.2 -8.4 0.8 -8.05 -1.1 Q-7.5 -2.9 -6.4 -2.9 L-6.25 -2.9 Q-5.9 -2.9 -6.0 -2.75 L-4.6 -2.85 Q-1.9 -2.85 -1.35 0.35 L-1.45 0.85 -2.2 0.95 -2.45 0.95 -2.5 0.95 Q-2.5 0.65 -2.65 0.5 -2.65 0.25 -3.3 0.25 -4.0 0.25 -4.0 1.0 L-6.0 1.25" fill="#ffffff" fill-rule="evenodd" stroke="none"/>
    <path d="M9.9 4.15 L9.95 4.3 9.9 4.3 9.95 4.6 9.95 4.75 9.95 4.9 9.75 5.5 9.75 5.55 9.05 5.8 8.8 5.8 Q8.1 5.65 8.05 4.95 L8.05 4.9 8.05 4.8 8.05 4.7 8.05 4.65 8.15 4.3 8.1 4.3 Q8.25 3.6 9.05 3.65 9.7 3.6 9.9 4.15 M-10.6 -3.1 L-10.35 -3.2 -10.35 -3.3 -10.35 -3.35 -10.25 -3.3 -10.15 -3.25 -9.45 -3.3 Q-8.9 -3.3 -8.9 -2.8 -8.9 -2.2 -9.9 -2.15 L-10.0 -1.85 -9.95 0.1 -9.65 1.75 -9.45 1.75 -9.1 1.8 -9.1 1.85 -8.25 2.85 -8.25 3.2 Q-8.25 3.85 -8.55 4.25 L-8.6 4.3 -8.5 4.3 -9.25 4.75 -9.45 4.75 -9.55 4.75 -9.6 4.75 -9.55 4.9 -9.55 5.1 -9.5 5.65 -9.4 6.0 -9.4 6.15 -9.45 6.35 -9.45 6.9 -9.45 7.0 -9.45 7.1 -9.45 7.2 -9.45 7.8 -9.45 7.95 -8.65 9.85 -8.35 10.4 -7.5 11.65 -7.5 11.8 -7.55 11.85 -7.5 11.9 -7.25 12.2 Q-6.9 12.45 -6.5 12.8 L-6.9 13.1 -8.0 12.3 -8.1 12.3 -8.45 12.25 -9.1 11.75 -9.6 11.2 -10.35 9.95 -10.65 9.8 -10.75 9.35 -10.75 9.25 -10.75 9.2 -10.65 7.4 -10.55 6.7 -10.55 6.6 -10.55 6.15 -10.5 5.45 -10.5 5.3 -10.5 5.0 -10.5 4.9 -10.65 4.3 -10.6 4.3 -10.65 4.05 -10.85 3.15 -10.85 2.9 -11.05 1.35 -11.05 1.3 -10.95 0.95 -11.05 -0.2 -11.0 -1.5 -10.9 -1.95 -10.8 -2.35 -10.75 -2.45 -10.75 -2.5 -10.85 -2.75 -10.6 -3.1" fill="#ffb99b" fill-rule="evenodd" stroke="none"/>
    <path d="M12.5 8.6 L11.65 6.15 11.6 6.1 11.6 5.8 11.7 5.8 12.5 8.45 12.55 8.5 12.55 8.6 12.5 8.7 12.5 8.6 M13.15 8.4 L13.1 8.35 12.15 6.2 12.15 6.15 12.0 5.2 12.05 4.55 12.15 4.55 12.15 4.65 12.15 4.75 12.15 4.8 12.15 4.9 12.4 6.15 Q12.7 7.15 13.35 8.35 L13.4 8.45 13.25 8.55 13.2 8.45 13.15 8.4 M-0.5 -13.2 L-0.55 -13.25 -0.75 -13.55 -0.8 -13.65 -0.55 -13.9 Q0.05 -13.95 0.05 -13.4 0.05 -13.1 -0.2 -13.1 L-0.5 -13.2 M0.0 -11.45 L-0.05 -11.7 0.05 -11.95 0.0 -12.0 -0.3 -12.4 -0.3 -12.45 -0.15 -12.5 -0.1 -12.5 -0.05 -12.5 Q0.4 -12.5 0.4 -11.9 L0.25 -11.6 0.0 -11.45" fill="#fdad06" fill-rule="evenodd" stroke="none"/>
    <path d="M-14.15 8.3 Q-13.55 7.2 -13.3 6.15 L-13.1 4.9 -13.1 4.55 -13.1 4.4 -13.1 4.3 -13.35 -0.25 Q-13.35 -2.55 -12.9 -2.85 L-12.7 -2.95 -12.55 -2.9 -12.45 -2.75 -12.45 -2.55 -12.55 -1.8 -12.35 -2.75 -12.2 -2.9 -12.15 -2.85 -12.05 -2.6 Q-12.45 -2.25 -12.55 -0.6 L-12.7 -0.15 -12.65 0.85 -12.6 1.3 -12.45 2.2 -12.5 2.25 -12.65 1.4 -12.65 1.3 -12.8 0.5 -12.8 0.4 -12.85 0.65 -12.85 1.3 -12.7 4.3 -12.7 4.4 -12.7 4.55 -12.7 4.65 -12.7 4.9 -12.75 5.6 -12.85 6.15 -13.05 6.8 -14.2 8.7 -14.25 8.55 -14.25 8.5 -14.2 8.45 -14.15 8.3 M-10.3 -4.45 L-10.4 -4.5 Q-7.1 -7.15 -6.05 -8.65 L-2.75 -12.85 -2.55 -12.65 Q-2.55 -12.25 -3.45 -10.95 L-5.55 -8.35 -7.7 -6.15 -8.9 -5.1 -9.4 -4.8 -9.5 -4.7 Q-10.0 -4.35 -10.2 -4.35 L-10.3 -4.4 -10.3 -4.45 M-4.7 -11.95 Q-4.7 -10.65 -11.3 -5.0 L-11.4 -5.05 -11.5 -4.95 -11.55 -5.1 -8.1 -9.4 Q-7.4 -10.75 -5.9 -11.85 L-3.6 -13.5 -3.45 -13.45 -7.85 -9.2 -9.7 -7.0 -11.15 -5.35 Q-7.65 -8.3 -5.35 -11.4 L-4.8 -12.2 -4.7 -11.95 M-6.65 -13.0 L-6.65 -12.8 Q-11.2 -9.85 -12.45 -4.05 L-12.6 -4.05 -12.65 -4.8 -12.55 -5.6 -12.4 -6.2 -12.35 -6.3 -12.35 -6.35 -12.3 -6.5 Q-11.9 -7.65 -10.9 -9.2 L-10.85 -9.3 Q-10.45 -10.1 -9.05 -11.55 L-8.7 -11.9 -8.4 -12.2 Q-7.35 -13.1 -6.9 -13.1 L-6.7 -13.1 -6.65 -13.05 -6.65 -13.0 M-13.3 -2.85 L-13.75 -1.85 -14.2 -0.4 -14.0 4.1 -14.05 5.1 -14.15 5.15 -14.2 4.9 -14.25 4.5 -14.25 4.3 -14.4 1.5 -14.25 -1.05 -13.35 -3.15 -13.3 -3.2 -13.2 -3.1 -13.3 -2.85 M-0.45 -13.15 L-0.5 -13.2 -0.2 -13.1 Q0.05 -13.1 0.05 -13.4 0.05 -13.95 -0.55 -13.9 L-0.8 -13.65 -1.15 -14.45 -0.9 -14.8 Q-0.3 -14.8 0.2 -13.4 L0.6 -11.85 Q0.6 -11.45 0.3 -11.45 L0.25 -11.6 0.4 -11.9 Q0.4 -12.5 -0.05 -12.5 L-0.1 -12.5 -0.3 -12.9 -0.45 -13.15 M-11.8 -3.25 L-11.8 -3.4 -11.7 -3.4 -11.65 -3.25 -11.6 -3.0 -11.6 -2.8 -11.75 -1.6 -11.9 -0.85 -12.05 -0.35 -11.9 1.3 -11.85 1.65 -11.45 3.5 -11.45 3.55 -11.55 3.9 -11.65 3.9 -11.7 3.85 -11.7 3.8 -11.7 3.7 -12.25 1.3 -12.3 1.0 -12.3 0.9 -12.15 -1.45 -11.95 -2.5 -11.8 -3.25" fill="#fdba2f" fill-rule="evenodd" stroke="none"/>
    <path d="M14.0 -4.15 Q13.0 -7.7 10.3 -10.55 L10.15 -10.65 Q6.05 -14.8 0.35 -15.0 L-0.25 -15.0 Q-6.35 -15.0 -10.7 -10.65 L-12.5 -8.45 Q-14.05 -6.2 -14.6 -3.55" fill="none" stroke="#a27202" stroke-linecap="round" stroke-linejoin="round" stroke-width="0.5"/>
    <path d="M14.4 1.85 L14.45 1.3 14.5 -0.15 Q14.5 -2.15 14.05 -3.9 M-9.1 11.75 L-8.45 12.25 M9.95 10.7 Q5.7 14.8 -0.25 14.8 -6.35 14.8 -10.7 10.45 L-10.75 10.4" fill="none" stroke="#865204" stroke-linecap="round" stroke-linejoin="round" stroke-width="0.5"/>
  </g>
</svg>
