<?xml version="1.0" encoding="UTF-8" standalone="no"?>
<svg xmlns:xlink="http://www.w3.org/1999/xlink" height="30.0px" width="32.6px" xmlns="http://www.w3.org/2000/svg">
  <g transform="matrix(1.0, 0.0, 0.0, 1.0, 16.75, 15.25)">
    <path d="M14.05 -3.95 L13.8 -3.95 13.75 -4.25 14.0 -4.2 14.2 -4.15 14.05 -3.95 M7.55 -2.85 L7.45 -2.8 7.35 -2.85 7.1 -2.85 6.5 -3.0 5.35 -2.85 5.25 -2.9 5.3 -3.0 5.25 -2.95 Q4.45 -2.8 3.7 -1.95 2.75 -0.9 2.75 -0.15 L2.8 0.5 3.0 0.6 2.85 0.65 2.9 0.75 3.8 0.55 Q3.85 -0.1 4.5 -0.1 4.9 -0.1 4.9 0.4 L4.9 0.45 7.0 0.4 7.6 0.4 7.75 0.4 9.75 0.55 9.75 0.15 9.4 -1.3 8.45 -2.4 8.35 -2.6 8.5 -2.7 8.7 -2.7 9.05 -3.15 9.25 -3.15 9.1 -2.95 8.85 -2.65 Q9.65 -2.25 9.95 0.15 L9.95 0.6 10.0 0.75 9.9 0.8 9.85 1.1 9.7 1.0 9.75 0.85 9.4 0.85 8.65 0.9 7.2 0.85 7.15 0.75 6.7 0.85 3.95 0.9 3.05 0.95 3.2 1.15 Q3.8 2.1 4.4 2.35 L4.35 2.45 Q3.9 2.35 2.95 1.15 L2.75 0.9 2.7 0.9 2.7 0.8 2.55 0.85 2.45 -0.2 Q2.45 -0.95 3.2 -1.95 L3.5 -2.3 3.15 -3.0 3.2 -3.1 3.35 -3.1 3.6 -2.4 4.45 -3.05 4.15 -3.95 4.15 -4.2 4.25 -4.2 Q4.6 -4.0 4.65 -3.1 L5.0 -3.2 5.2 -5.1 5.4 -5.1 5.4 -4.2 5.2 -3.2 5.35 -3.2 5.55 -3.15 5.7 -3.2 Q6.25 -3.7 6.2 -5.1 L6.3 -4.45 5.85 -3.2 6.3 -3.25 6.7 -4.3 6.6 -4.7 6.85 -4.7 6.9 -4.35 6.5 -3.25 6.55 -3.25 6.95 -3.25 6.9 -3.4 7.15 -3.65 7.25 -3.55 7.25 -3.45 7.0 -3.25 7.3 -3.2 7.5 -3.15 7.55 -3.1 7.6 -2.9 7.55 -2.85 M10.05 -2.35 L9.65 -2.05 9.95 -2.45 10.05 -2.35 M4.6 0.2 L4.6 0.15 4.45 0.1 4.4 0.1 4.4 0.2 4.6 0.2 M-6.2 -4.5 L-6.05 -4.7 -5.85 -4.65 Q-5.85 -4.35 -6.0 -4.15 -6.0 -3.65 -5.6 -3.3 L-5.45 -3.3 -5.8 -3.95 -5.7 -4.45 -5.55 -4.4 -5.65 -4.35 -5.1 -3.3 -4.65 -3.3 Q-5.05 -3.75 -5.05 -4.25 -5.05 -5.25 -4.65 -5.2 L-4.4 -5.15 -4.4 -4.9 -4.65 -4.3 -4.45 -3.5 -4.2 -3.3 -3.9 -3.25 -4.05 -4.0 Q-4.05 -4.75 -3.7 -4.8 L-3.8 -4.05 -3.65 -3.2 -3.1 -3.05 -3.25 -3.75 Q-3.25 -4.7 -2.75 -4.8 L-2.65 -4.75 -3.05 -3.75 -2.8 -2.9 -2.85 -2.9 -2.8 -2.85 -2.6 -2.75 -2.6 -2.7 -2.05 -2.2 -2.1 -2.5 -2.0 -2.7 -2.05 -2.75 -1.95 -2.9 -1.6 -2.2 -1.75 -2.1 -1.85 -1.85 -1.75 -1.75 Q-1.05 -0.65 -1.05 0.25 L-1.1 0.85 -1.15 1.15 -1.6 2.0 Q-2.1 2.8 -2.5 2.8 -1.8 2.4 -1.35 1.15 L-1.3 1.0 -1.35 0.95 -1.4 1.1 -2.2 1.15 -2.9 1.2 -3.5 1.25 -3.6 1.25 -5.05 1.3 -6.1 1.2 -7.7 1.35 -8.15 1.35 -8.25 1.35 -7.8 1.9 -7.95 2.0 -8.35 1.5 -8.35 1.35 -8.65 1.15 -8.65 1.1 -8.7 0.65 -8.25 -1.5 -7.75 -2.6 -7.4 -3.1 -7.7 -3.3 -7.9 -3.4 -7.7 -3.25 -8.0 -3.05 -8.05 -3.1 -8.05 -3.45 -8.0 -3.45 -7.95 -3.4 -7.9 -3.4 -7.6 -3.5 -7.6 -3.65 -7.5 -3.65 -7.15 -3.2 -6.9 -3.25 -7.15 -3.95 -7.1 -4.05 -7.0 -4.05 -6.2 -3.3 -6.1 -3.3 -5.9 -3.35 -5.8 -3.3 -6.25 -4.15 -6.2 -4.5 M-2.2 0.85 L-1.45 0.75 -1.35 0.25 Q-1.9 -2.95 -4.6 -2.95 L-6.0 -2.85 Q-5.9 -3.0 -6.25 -3.0 L-6.4 -3.0 Q-7.5 -3.05 -8.05 -1.2 L-8.4 0.7 -8.35 1.05 -8.2 1.15 -7.4 1.15 -6.05 1.1 -6.0 1.1 -4.0 1.0 -4.0 0.9 Q-4.0 0.15 -3.3 0.15 -2.65 0.15 -2.65 0.4 -2.5 0.55 -2.5 0.85 L-2.55 0.85 -2.55 0.9 -2.2 0.85" fill="#000000" fill-rule="evenodd" stroke="none"/>
    <path d="M9.6 -4.3 Q9.6 -5.05 8.3 -7.25 L6.9 -9.4 Q3.3 -12.85 0.2 -13.75 L0.15 -13.75 Q4.5 -12.0 6.7 -9.35 L7.95 -7.45 7.9 -7.3 Q7.9 -6.7 8.35 -6.05 8.05 -6.15 7.85 -6.3 L7.65 -6.45 7.3 -7.05 7.4 -6.9 7.65 -6.9 7.65 -7.0 4.95 -10.5 3.3 -12.1 Q1.05 -12.95 0.6 -13.45 L0.55 -13.45 Q0.5 -13.05 1.4 -12.55 L1.3 -12.55 0.9 -12.45 0.95 -12.4 Q1.95 -12.1 3.1 -11.2 L2.9 -11.2 2.75 -11.15 3.4 -9.65 3.3 -9.0 3.0 -10.0 3.1 -10.0 2.25 -11.15 Q1.35 -12.05 0.9 -12.0 L0.75 -11.95 1.85 -11.1 0.3 -11.4 Q0.6 -11.4 0.6 -11.8 L0.2 -13.45 Q-0.3 -14.8 -0.9 -14.8 L-1.15 -14.45 -0.8 -13.7 -0.75 -13.55 Q-1.4 -13.45 -1.7 -12.85 L-2.9 -11.35 -3.75 -10.15 -3.45 -10.7 -3.95 -9.9 -4.3 -9.4 -4.4 -9.4 Q-4.5 -8.85 -6.2 -7.35 L-6.15 -7.3 -4.9 -8.5 -6.8 -6.65 -6.6 -6.6 Q-5.5 -7.4 -4.5 -8.9 L-4.3 -9.1 -4.3 -9.2 -4.05 -9.6 -1.45 -12.85 -0.55 -13.3 -0.5 -13.25 -0.45 -13.15 -0.8 -12.9 Q-1.7 -12.5 -1.8 -11.9 -2.45 -11.4 -2.9 -10.15 -3.55 -8.45 -4.35 -7.7 -5.3 -6.85 -7.15 -6.05 L-8.9 -5.15 -7.7 -6.2 -5.55 -8.4 -3.45 -11.0 -3.55 -10.75 -3.5 -10.75 -2.5 -12.4 Q-2.0 -13.45 -1.25 -13.75 L-1.15 -13.75 -1.2 -13.8 -1.2 -13.85 -1.15 -14.0 -1.65 -14.3 -1.7 -14.35 -1.95 -14.35 Q-4.55 -14.1 -6.7 -13.1 L-6.9 -13.15 Q-7.35 -13.15 -8.4 -12.15 L-10.9 -10.05 -12.75 -7.1 -13.9 -4.35 -13.8 -3.85 -13.75 -3.9 -13.15 -5.75 -13.1 -5.65 -13.0 -5.7 -12.95 -5.75 -13.0 -5.5 Q-13.35 -4.7 -13.35 -3.25 L-14.25 -1.15 -14.4 1.35 -14.25 4.0 -14.2 4.6 -14.15 4.85 -14.05 4.8 -14.0 3.95 -14.2 -0.5 -13.75 -1.95 -13.3 -2.95 -13.25 -2.5 -13.2 -2.55 -12.55 -5.65 -12.65 -4.85 -12.6 -4.1 -12.45 -4.1 Q-11.2 -9.9 -6.65 -12.85 L-6.65 -13.0 Q-4.75 -13.85 -2.3 -14.15 -5.9 -13.1 -7.75 -11.3 -8.65 -10.55 -10.4 -7.8 L-10.35 -7.75 Q-7.05 -12.55 -2.25 -14.15 L-2.3 -14.05 -2.15 -13.85 Q-5.1 -12.45 -6.55 -10.3 L-5.35 -11.4 Q-7.65 -8.35 -11.15 -5.4 L-9.7 -7.05 -7.85 -9.25 -3.45 -13.5 -3.6 -13.55 -5.9 -11.8 Q-7.4 -10.75 -8.1 -9.45 L-11.55 -5.15 -11.5 -5.0 -11.4 -5.1 -11.3 -5.05 Q-4.7 -10.7 -4.7 -11.9 L-4.7 -11.95 -2.1 -13.85 -1.7 -13.75 -2.55 -12.7 -2.75 -12.9 -6.05 -8.7 Q-7.1 -7.2 -10.4 -4.55 L-10.3 -4.5 -10.5 -4.4 -11.7 -3.95 -11.65 -3.85 -11.4 -3.8 -6.85 -5.1 -3.5 -6.65 Q-5.35 -4.35 -12.0 -3.5 L-11.95 -3.65 -12.05 -3.5 -12.25 -3.5 -12.05 -3.95 -12.05 -4.1 Q-6.2 -7.35 -3.75 -12.35 -5.75 -9.25 -6.95 -8.15 -10.8 -4.9 -12.1 -4.15 L-12.2 -4.15 -12.5 -3.45 -12.65 -3.25 -12.75 -3.95 -12.85 -3.95 -12.9 -3.0 Q-13.35 -2.65 -13.35 -0.35 L-13.1 4.0 -13.1 4.25 -13.1 4.9 -13.25 5.75 -13.3 5.85 -13.6 6.85 -14.1 7.9 -14.15 8.0 Q-13.8 7.0 -13.7 5.85 L-13.7 5.55 -13.7 5.45 -13.7 5.35 -13.75 4.6 -13.8 4.0 -13.9 1.6 Q-13.9 -0.25 -13.3 -1.95 -13.95 -1.4 -13.95 -0.1 L-14.1 1.7 -13.9 3.6 -13.85 5.75 -13.85 5.85 -13.85 6.2 Q-14.0 7.95 -15.3 10.05 L-15.6 9.5 -15.65 9.5 -15.65 9.65 -15.55 10.1 -15.8 10.15 -16.5 9.85 -16.55 9.8 -15.9 8.9 -15.6 7.7 -15.55 7.5 -15.55 6.95 -15.55 6.8 -15.6 5.85 -15.65 4.6 -15.65 4.0 -15.65 3.45 -15.3 0.2 -14.95 -0.95 -14.95 -1.1 -14.85 -1.45 -14.6 -3.05 -14.55 -3.65 -14.6 -3.65 Q-14.05 -6.25 -12.5 -8.5 L-10.7 -10.7 Q-6.35 -15.0 -0.25 -15.0 L0.35 -15.0 Q6.05 -14.8 10.15 -10.7 L10.3 -10.6 Q13.0 -7.75 14.0 -4.2 L13.75 -4.25 13.8 -3.95 14.05 -3.95 Q14.5 -2.25 14.5 -0.25 L14.45 1.15 14.4 1.75 Q14.2 1.75 14.2 1.85 L14.3 2.35 14.3 2.45 14.2 3.0 14.05 3.35 14.1 3.5 14.35 3.35 14.2 4.0 14.2 4.1 14.15 4.25 14.1 4.6 14.05 5.4 14.1 5.85 14.1 6.1 14.05 5.85 13.85 5.2 13.75 4.6 13.65 4.0 13.6 3.25 13.9 1.15 14.0 -0.55 12.25 -6.5 12.15 -6.4 13.1 -3.55 Q13.7 -1.8 13.7 -0.55 L13.6 1.15 13.5 1.7 13.5 1.15 Q13.45 -0.8 13.05 -2.55 L12.05 -4.9 11.35 -6.25 9.5 -9.65 Q7.3 -13.2 6.15 -13.2 L5.95 -13.2 5.95 -13.05 Q8.25 -11.6 11.1 -6.45 L11.0 -6.45 11.3 -6.05 11.35 -6.0 Q13.25 -3.25 13.4 1.15 L13.4 1.85 13.35 2.95 13.3 3.2 13.3 3.3 13.25 4.0 13.15 4.6 13.05 5.35 13.05 5.5 13.1 5.85 13.15 6.4 13.25 7.05 13.5 7.75 13.55 7.8 13.55 7.85 13.6 7.95 13.65 8.0 13.7 8.1 13.8 8.2 13.6 8.15 13.55 8.15 13.45 8.2 13.45 8.25 Q13.45 8.65 14.0 8.9 L14.05 8.9 14.1 8.95 14.25 9.2 14.7 9.65 15.1 10.0 15.0 10.05 14.3 10.25 14.15 10.15 14.05 10.25 13.6 10.0 13.55 9.95 13.8 9.7 13.8 9.65 13.0 8.9 12.7 8.5 12.85 8.55 13.2 8.15 13.25 8.25 13.4 8.15 13.1 7.6 12.75 6.8 12.4 5.85 12.15 4.6 12.15 4.5 12.15 4.45 12.2 4.0 12.45 1.15 12.45 0.3 Q12.45 -2.9 11.4 -4.85 L8.4 -9.65 6.45 -11.9 Q4.35 -14.05 3.05 -14.0 L2.9 -14.0 Q6.15 -12.3 8.1 -9.6 L11.1 -5.15 11.05 -5.1 Q12.25 -2.9 12.25 0.3 L12.25 1.15 12.0 4.0 11.95 4.45 11.95 4.6 12.05 5.85 Q12.15 7.15 12.6 7.7 L12.6 7.65 12.15 6.1 12.15 5.9 12.25 6.25 12.45 6.75 13.05 7.95 13.1 8.05 13.15 8.1 12.95 8.35 12.9 8.35 12.85 8.35 12.75 8.35 12.6 8.35 12.55 8.3 11.7 5.5 11.6 5.5 11.6 5.8 11.65 5.85 12.5 8.3 12.45 8.3 12.45 8.35 12.2 8.3 11.9 7.75 Q11.45 6.9 11.25 5.85 L11.15 5.35 11.15 5.15 11.1 4.6 11.1 4.1 11.1 4.0 11.35 1.15 11.4 -0.7 Q11.4 -2.4 11.0 -3.55 9.25 -7.55 7.4 -9.45 L4.6 -12.05 Q1.75 -14.4 0.5 -14.4 L0.35 -14.35 4.4 -11.85 7.15 -9.2 9.4 -6.3 10.5 -4.2 Q11.25 -2.25 11.25 -0.7 L11.2 1.15 11.05 4.0 11.0 4.3 11.0 4.6 10.95 4.75 11.0 5.85 11.85 8.5 12.25 9.0 12.7 9.35 12.9 9.45 12.95 9.3 12.85 9.2 12.3 8.5 12.45 8.45 12.45 8.55 12.55 8.7 13.45 9.65 13.25 9.75 13.2 9.75 11.05 8.35 10.6 7.35 10.3 6.25 10.3 6.2 10.3 6.1 10.2 6.1 10.2 6.55 11.05 8.55 11.1 8.65 11.5 9.15 Q11.95 9.55 12.55 9.75 L12.15 9.75 12.15 9.9 12.75 10.05 13.25 10.05 14.0 10.55 Q14.1 11.1 15.2 11.25 14.6 12.15 12.7 12.15 L12.6 12.15 11.95 12.1 11.95 12.05 10.6 11.0 10.25 10.45 10.2 10.2 10.15 10.15 10.15 10.1 9.95 8.4 9.95 8.15 9.95 8.0 10.05 6.4 10.1 5.85 10.15 5.05 10.2 4.85 10.2 4.6 10.3 4.0 10.45 3.2 10.8 1.15 10.9 -0.2 Q10.5 -4.35 9.7 -4.3 L9.6 -4.3 M8.75 -5.8 L9.45 -4.0 9.55 -4.0 9.55 -2.9 9.5 -2.9 8.45 -4.5 8.15 -5.75 8.55 -5.75 8.75 -5.8 M7.1 -7.25 Q7.1 -6.3 7.75 -5.9 7.9 -4.6 8.2 -3.4 8.2 -1.8 7.7 -0.15 L7.55 -2.85 7.6 -2.9 7.55 -3.1 7.5 -3.15 Q6.8 -7.8 3.75 -10.0 L3.6 -10.75 5.65 -8.3 Q6.55 -7.05 7.85 -4.0 L7.95 -4.05 Q6.75 -7.65 5.75 -8.7 L4.0 -10.8 2.4 -12.15 3.2 -11.85 4.8 -10.3 7.1 -7.25 M0.0 -12.0 L0.05 -11.9 -0.05 -11.65 0.0 -11.4 Q-0.55 -11.4 -1.15 -10.6 L-0.5 -11.9 0.0 -12.0 M0.0 -11.4 L0.25 -11.55 0.3 -11.4 0.05 -11.4 0.0 -11.4 M-0.1 -12.5 L-0.15 -12.45 -0.3 -12.4 -0.3 -12.35 -0.5 -12.25 -0.55 -12.3 Q-1.35 -12.0 -2.3 -9.95 L-3.85 -7.2 Q-4.3 -6.65 -5.45 -6.25 L-7.4 -5.65 -9.35 -4.8 -9.5 -4.75 -9.4 -4.85 -6.8 -5.95 Q-4.8 -6.85 -4.0 -7.75 L-2.7 -9.8 -1.7 -11.7 -1.65 -11.65 -0.6 -12.8 -0.3 -12.95 -0.1 -12.5 M12.0 -7.05 L11.9 -7.05 11.9 -6.75 10.15 -10.4 10.1 -10.4 12.25 -5.45 12.5 -4.4 12.55 -4.45 12.55 -4.75 12.45 -5.05 12.45 -5.25 12.25 -5.9 12.0 -7.05 M13.95 8.25 L13.85 8.05 Q13.3 6.9 13.2 5.85 L13.15 5.6 13.15 5.4 13.15 5.3 13.25 4.6 13.3 4.0 13.35 3.7 13.4 4.0 13.55 4.6 13.9 5.85 13.9 5.95 14.45 7.55 14.75 8.2 14.8 8.3 14.85 8.25 15.0 8.5 14.7 8.65 14.6 8.6 14.1 8.3 14.05 8.25 14.05 8.3 13.95 8.25 M12.7 7.8 L12.7 7.75 12.65 7.75 12.7 7.8 M10.35 7.65 L10.35 7.75 10.8 9.25 11.15 9.9 11.5 10.45 11.55 10.4 11.05 9.6 10.8 9.1 10.45 7.65 10.35 7.65 M11.0 10.3 L11.0 10.6 11.55 11.15 11.7 11.1 11.7 11.0 11.45 10.85 11.1 10.3 11.0 10.3 M11.75 10.6 L11.85 10.65 12.5 11.05 13.15 11.25 13.35 11.25 13.5 11.2 11.85 10.6 11.75 10.6 M12.9 9.85 L12.8 9.85 12.55 9.75 12.9 9.85 M-12.35 -6.35 L-12.4 -6.25 -12.45 -6.2 -12.35 -6.35 M-8.7 -11.85 L-9.05 -11.5 -10.85 -9.35 -10.9 -9.25 Q-12.6 -7.05 -12.9 -5.95 L-13.0 -6.05 Q-12.15 -8.25 -10.8 -9.9 L-8.7 -11.85 M-11.65 -5.75 L-11.6 -5.65 -9.85 -8.2 Q-11.65 -6.4 -11.65 -5.75 M-12.55 -3.05 L-12.35 -3.4 -12.1 -3.35 -12.45 -2.65 -12.45 -2.85 -12.55 -3.05 M-12.15 -2.95 L-12.05 -3.35 -11.8 -3.35 -11.95 -2.6 -12.05 -2.7 -12.15 -2.95 M-11.6 -2.95 L-11.6 -3.1 -11.65 -3.35 -10.9 -3.4 -11.4 -1.7 -11.45 0.6 -11.45 1.15 -11.25 4.0 -11.2 4.6 -11.05 5.85 -11.0 6.6 -10.9 7.25 -10.85 7.95 -11.25 10.25 -11.25 10.45 -11.65 11.4 -11.7 11.5 -12.7 12.2 -12.75 12.2 -12.85 12.25 -12.95 12.25 -12.9 12.3 -13.0 12.35 -13.2 12.45 -13.5 12.5 -13.75 12.5 -14.3 12.35 -14.25 12.25 -13.4 11.65 Q-13.4 11.4 -13.55 11.35 L-13.7 11.55 -14.7 11.95 -15.85 11.95 -15.4 11.15 -15.2 11.15 -14.85 11.0 -14.0 10.3 -14.0 9.9 -14.15 9.9 -14.8 10.65 -15.3 10.9 -15.25 10.8 -15.25 10.4 -15.25 10.15 -14.65 9.25 -14.25 8.25 -14.2 8.4 -13.05 6.5 -12.85 5.85 -12.75 5.3 -12.7 5.85 -12.7 6.1 -12.8 7.25 -12.85 7.45 -14.6 10.0 -14.55 10.05 Q-12.7 9.2 -12.55 5.85 L-12.55 5.5 -12.55 5.25 -12.6 4.6 -12.65 4.0 -12.8 1.15 -12.8 0.7 -12.8 0.4 -12.65 1.15 -12.65 1.25 -12.65 1.3 -12.4 4.0 -12.3 4.6 -12.15 5.85 -11.9 7.55 -11.9 8.05 -11.95 8.4 -12.05 8.85 -12.55 10.05 -13.05 10.65 -13.05 10.7 -13.2 10.8 -13.05 10.7 -12.7 10.35 -12.35 9.9 -11.7 8.5 -11.65 8.35 -11.6 8.0 -11.6 7.7 -11.6 7.65 -11.6 7.5 -11.85 5.85 -12.0 4.6 -12.1 4.0 -12.35 1.25 -12.3 1.15 -12.3 0.9 -12.25 1.15 -11.7 3.55 -11.7 3.65 -11.7 3.7 -11.65 4.0 -11.65 4.1 -11.65 4.3 -11.6 4.6 -11.55 5.15 -11.5 5.35 -11.5 5.55 -11.45 5.75 -11.45 5.85 -11.45 6.05 -11.55 9.0 -11.55 9.1 -11.85 10.0 -11.95 10.45 -11.95 10.5 -12.15 10.7 -12.8 11.45 -12.95 11.6 -13.0 11.65 Q-11.35 10.8 -11.35 9.0 L-11.15 6.05 -11.15 5.85 -11.3 4.8 -11.3 4.6 -11.4 4.0 -11.45 3.45 -11.65 1.15 -11.75 -0.25 Q-11.4 -1.8 -11.4 -2.75 L-11.45 -2.95 -11.6 -2.95 M-13.95 -3.05 Q-14.65 -2.8 -14.65 -0.05 L-14.6 0.45 -14.55 0.4 Q-14.45 -2.1 -13.95 -3.05 M-12.55 -0.7 L-12.65 0.75 -12.7 -0.25 -12.55 -0.7 M-11.9 1.15 L-12.05 -0.45 -11.9 -0.95 -11.95 -0.3 -11.9 1.15 M-14.55 1.0 L-14.65 1.0 -14.65 2.55 -14.5 4.0 -14.5 4.6 -14.5 5.15 -14.55 5.85 Q-14.7 7.2 -15.5 8.9 L-15.45 9.0 Q-14.55 8.0 -14.4 5.85 L-14.4 5.15 -14.55 1.0 M-14.1 11.4 L-14.2 11.45 -14.95 11.75 -14.9 11.8 -14.1 11.4" fill="#fdc551" fill-rule="evenodd" stroke="none"/>
    <path d="M7.95 -7.45 L6.7 -9.35 Q4.5 -12.0 0.15 -13.75 L0.2 -13.75 Q3.3 -12.85 6.9 -9.4 L8.3 -7.25 Q9.6 -5.05 9.6 -4.3 L9.6 -4.25 9.55 -4.0 9.45 -4.0 8.75 -5.8 8.4 -6.55 7.95 -7.45 M12.55 9.75 Q11.95 9.55 11.5 9.15 L11.1 8.65 11.05 8.55 10.2 6.55 10.2 6.1 10.3 6.1 10.3 6.2 10.3 6.25 10.6 7.35 11.05 8.35 13.2 9.75 13.5 9.95 13.4 9.95 13.3 9.9 12.9 9.85 12.55 9.75 M12.3 8.5 L12.85 9.2 12.95 9.3 12.9 9.45 12.7 9.35 12.25 9.0 11.85 8.5 11.0 5.85 10.95 4.75 11.0 4.6 11.0 4.3 11.05 4.0 11.2 1.15 11.25 -0.7 Q11.25 -2.25 10.5 -4.2 L9.4 -6.3 7.15 -9.2 4.4 -11.85 0.35 -14.35 0.5 -14.4 Q1.75 -14.4 4.6 -12.05 L7.4 -9.45 Q9.25 -7.55 11.0 -3.55 11.4 -2.4 11.4 -0.7 L11.35 1.15 11.1 4.0 11.1 4.1 11.1 4.6 11.15 5.15 11.15 5.35 11.25 5.85 Q11.45 6.9 11.9 7.75 L12.2 8.3 12.25 8.35 12.25 8.4 12.3 8.5 M12.15 5.9 L12.15 6.1 12.6 7.65 12.6 7.7 Q12.15 7.15 12.05 5.85 L11.95 4.6 11.95 4.45 12.0 4.0 12.25 1.15 12.25 0.3 Q12.25 -2.9 11.05 -5.1 L11.1 -5.15 8.1 -9.6 Q6.15 -12.3 2.9 -14.0 L3.05 -14.0 Q4.35 -14.05 6.45 -11.9 L8.4 -9.65 11.4 -4.85 Q12.45 -2.9 12.45 0.3 L12.45 1.15 12.2 4.0 12.15 4.45 12.15 4.25 12.05 4.25 12.0 4.9 12.0 5.05 12.0 5.15 12.05 5.55 12.1 5.8 12.15 5.85 12.15 5.9 M13.8 8.2 L13.7 8.1 13.65 8.0 13.6 7.95 13.55 7.85 13.55 7.8 13.5 7.75 13.25 7.05 13.15 6.4 13.1 5.85 13.05 5.5 13.05 5.35 13.15 4.6 13.25 4.0 13.3 3.3 13.3 3.2 13.35 2.95 13.4 1.85 13.4 1.15 Q13.25 -3.25 11.35 -6.0 L11.3 -6.05 11.0 -6.45 11.1 -6.45 Q8.25 -11.6 5.95 -13.05 L5.95 -13.2 6.15 -13.2 Q7.3 -13.2 9.5 -9.65 L11.35 -6.25 12.05 -4.9 13.05 -2.55 Q13.45 -0.8 13.5 1.15 L13.5 1.7 13.6 1.15 13.7 -0.55 Q13.7 -1.8 13.1 -3.55 L12.15 -6.4 12.25 -6.5 14.0 -0.55 13.9 1.15 13.6 3.25 13.65 4.0 13.75 4.6 13.85 5.2 14.05 5.85 14.1 6.1 14.8 8.15 14.85 8.25 14.8 8.3 14.75 8.2 14.45 7.55 13.9 5.95 13.9 5.85 13.55 4.6 13.4 4.0 13.35 3.7 13.3 4.0 13.25 4.6 13.15 5.3 13.15 5.4 13.15 5.6 13.2 5.85 Q13.3 6.9 13.85 8.05 L13.95 8.25 13.9 8.3 13.8 8.2 M-15.3 10.05 Q-14.0 7.95 -13.85 6.2 L-13.85 5.85 -13.85 5.75 -13.9 3.6 -14.1 1.7 -13.95 -0.1 Q-13.95 -1.4 -13.3 -1.95 -13.9 -0.25 -13.9 1.6 L-13.8 4.0 -13.75 4.6 -13.7 5.35 -13.7 5.45 -13.7 5.55 -13.7 5.85 Q-13.8 7.0 -14.15 8.0 L-14.25 8.2 -14.25 8.25 -14.65 9.25 -15.25 10.15 -15.3 10.15 -15.35 10.1 -15.3 10.05 M-12.1 -4.15 Q-10.8 -4.9 -6.95 -8.15 -5.75 -9.25 -3.75 -12.35 -6.2 -7.35 -12.05 -4.1 L-12.15 -4.05 -12.2 -4.1 -12.1 -4.15 M-12.05 -3.5 L-11.95 -3.65 -12.0 -3.5 -12.05 -3.35 -12.15 -2.95 -12.2 -3.0 -12.35 -2.85 -12.55 -1.85 -12.45 -2.65 -12.1 -3.35 -12.05 -3.5 M-3.5 -6.65 L-6.85 -5.1 -11.4 -3.8 -11.65 -3.85 -11.7 -3.95 -10.5 -4.4 -10.3 -4.5 -10.3 -4.45 -10.2 -4.4 Q-10.0 -4.4 -9.5 -4.75 L-9.35 -4.8 -7.4 -5.65 -5.45 -6.25 Q-4.3 -6.65 -3.85 -7.2 L-2.3 -9.95 Q-1.35 -12.0 -0.55 -12.3 L-0.5 -12.25 -0.3 -12.35 0.0 -12.0 -0.5 -11.9 -1.15 -10.6 -1.65 -9.65 -3.25 -6.9 -3.5 -6.65 M-2.55 -12.7 L-1.7 -13.75 -2.1 -13.85 -4.7 -11.95 -4.8 -12.15 -5.35 -11.4 -6.55 -10.3 Q-5.1 -12.45 -2.15 -13.85 L-2.3 -14.05 -2.25 -14.15 Q-7.05 -12.55 -10.35 -7.75 L-10.4 -7.8 Q-8.65 -10.55 -7.75 -11.3 -5.9 -13.1 -2.3 -14.15 -4.75 -13.85 -6.65 -13.0 L-6.65 -13.1 -6.7 -13.1 Q-4.55 -14.1 -1.95 -14.35 L-1.7 -14.35 -1.65 -14.3 -1.15 -14.0 -1.2 -13.85 -1.2 -13.8 -1.15 -13.75 -1.25 -13.75 Q-2.0 -13.45 -2.5 -12.4 L-3.5 -10.75 -3.55 -10.75 -3.45 -11.0 Q-2.55 -12.25 -2.55 -12.65 L-2.55 -12.7 M-12.55 -5.65 L-13.2 -2.55 -13.25 -2.5 -13.3 -2.95 -13.2 -3.2 -13.3 -3.3 -13.35 -3.25 Q-13.35 -4.7 -13.0 -5.5 L-12.95 -5.75 -13.0 -5.7 -13.1 -5.65 -13.15 -5.75 -13.75 -3.9 -13.8 -3.85 -13.9 -4.35 -12.75 -7.1 -10.9 -10.05 -8.4 -12.15 -8.7 -11.85 -10.8 -9.9 Q-12.15 -8.25 -13.0 -6.05 L-12.9 -5.95 Q-12.6 -7.05 -10.9 -9.25 -11.9 -7.75 -12.3 -6.5 L-12.35 -6.35 -12.45 -6.2 -12.4 -6.25 -12.55 -5.65 M-8.9 -5.15 L-7.15 -6.05 Q-5.3 -6.85 -4.35 -7.7 -3.55 -8.45 -2.9 -10.15 -2.45 -11.4 -1.8 -11.9 -1.7 -12.5 -0.8 -12.9 L-0.45 -13.15 -0.3 -12.95 -0.6 -12.8 -1.65 -11.65 -1.7 -11.7 -2.7 -9.8 -4.0 -7.75 Q-4.8 -6.85 -6.8 -5.95 L-9.4 -4.85 -8.9 -5.15 M-0.55 -13.3 L-1.45 -12.85 -4.05 -9.6 -4.3 -9.2 -4.3 -9.1 -4.5 -8.9 Q-5.5 -7.4 -6.6 -6.6 L-6.8 -6.65 -4.9 -8.5 -6.15 -7.3 -6.2 -7.35 Q-4.5 -8.85 -4.4 -9.4 L-4.3 -9.4 -3.95 -9.9 -3.45 -10.7 -3.75 -10.15 -2.9 -11.35 -1.7 -12.85 Q-1.4 -13.45 -0.75 -13.55 L-0.55 -13.3 M1.85 -11.1 L0.75 -11.95 0.9 -12.0 Q1.35 -12.05 2.25 -11.15 L3.1 -10.0 3.0 -10.0 2.9 -9.95 1.9 -11.05 1.85 -11.1 M3.1 -11.2 Q1.95 -12.1 0.95 -12.4 L0.9 -12.45 1.3 -12.55 1.4 -12.55 Q0.5 -13.05 0.55 -13.45 L0.6 -13.45 Q1.05 -12.95 3.3 -12.1 L4.95 -10.5 7.65 -7.0 7.65 -6.9 7.4 -6.9 7.3 -7.05 7.1 -7.25 4.8 -10.3 3.2 -11.85 2.4 -12.15 4.0 -10.8 5.75 -8.7 Q6.75 -7.65 7.95 -4.05 L7.85 -4.0 Q6.55 -7.05 5.65 -8.3 L3.6 -10.75 3.1 -11.2 M12.0 -7.05 L12.25 -5.9 12.45 -5.25 12.45 -5.05 12.55 -4.75 12.55 -4.45 12.5 -4.4 12.25 -5.45 10.1 -10.4 10.15 -10.4 11.9 -6.75 11.9 -7.05 12.0 -7.05 M12.7 7.8 L12.65 7.75 12.7 7.75 12.7 7.8 M10.35 7.65 L10.45 7.65 10.8 9.1 11.05 9.6 11.55 10.4 11.5 10.45 11.15 9.9 10.8 9.25 10.35 7.75 10.35 7.65 M11.75 10.6 L11.85 10.6 13.5 11.2 13.35 11.25 13.15 11.25 12.5 11.05 11.85 10.65 11.75 10.6 M11.0 10.3 L11.1 10.3 11.45 10.85 11.7 11.0 11.7 11.1 11.55 11.15 11.0 10.6 11.0 10.3 M-11.65 -5.75 Q-11.65 -6.4 -9.85 -8.2 L-11.6 -5.65 -11.65 -5.75 M-11.6 -2.95 L-11.45 -2.95 -11.4 -2.75 Q-11.4 -1.8 -11.75 -0.25 L-11.65 1.15 -11.45 3.45 -11.4 4.0 -11.3 4.6 -11.3 4.8 -11.15 5.85 -11.15 6.05 -11.35 9.0 Q-11.35 10.8 -13.0 11.65 L-12.95 11.6 -12.8 11.45 -12.15 10.7 -11.95 10.5 -11.95 10.45 -11.85 10.0 -11.55 9.1 -11.55 9.0 -11.45 6.05 -11.45 5.85 -11.45 5.75 -11.5 5.55 -11.5 5.35 -11.55 5.15 -11.6 4.6 -11.65 4.3 -11.65 4.1 -11.65 4.0 -11.7 3.7 -11.65 3.75 -11.55 3.75 -11.45 3.45 -11.85 1.5 -11.9 1.15 -11.95 -0.3 -11.9 -0.95 -11.75 -1.7 -11.6 -2.95 M-12.3 0.9 L-12.3 1.15 -12.35 1.25 -12.1 4.0 -12.0 4.6 -11.85 5.85 -11.6 7.5 -11.6 7.65 -11.6 7.7 -11.6 8.0 -11.65 8.35 -11.7 8.5 -12.35 9.9 -12.7 10.35 -13.05 10.7 -13.2 10.8 -13.05 10.7 -13.05 10.65 -12.55 10.05 -12.05 8.85 -11.95 8.4 -11.9 8.05 -11.9 7.55 -12.15 5.85 -12.3 4.6 -12.4 4.0 -12.65 1.3 -12.65 1.25 -12.5 2.15 -12.45 2.1 -12.6 1.15 -12.65 0.75 -12.55 -0.7 Q-12.45 -2.3 -12.05 -2.7 L-11.95 -2.6 -12.15 -1.55 -12.3 0.8 -12.3 0.9 M-12.8 0.4 L-12.8 0.7 -12.8 1.15 -12.65 4.0 -12.6 4.6 -12.55 5.25 -12.55 5.5 -12.55 5.85 Q-12.7 9.2 -14.55 10.05 L-14.6 10.0 -12.85 7.45 -12.8 7.25 -12.7 6.1 -12.7 5.85 -12.75 5.3 -12.7 4.6 -12.7 4.25 -12.7 4.0 -12.85 1.15 -12.85 0.55 -12.8 0.3 -12.8 0.4 M-13.95 -3.05 Q-14.45 -2.1 -14.55 0.4 L-14.6 0.45 -14.65 -0.05 Q-14.65 -2.8 -13.95 -3.05 M-14.55 1.0 L-14.4 5.15 -14.4 5.85 Q-14.55 8.0 -15.45 9.0 L-15.5 8.9 Q-14.7 7.2 -14.55 5.85 L-14.5 5.15 -14.5 4.6 -14.5 4.0 -14.65 2.55 -14.65 1.0 -14.55 1.0 M-14.1 11.4 L-14.9 11.8 -14.95 11.75 -14.2 11.45 -14.1 11.4" fill="#fee1a5" fill-rule="evenodd" stroke="none"/>
    <path d="M7.95 -7.45 L8.4 -6.55 8.75 -5.8 8.55 -5.75 8.15 -5.75 8.45 -4.5 9.5 -2.9 9.55 -2.9 9.55 -4.0 9.6 -4.25 9.6 -4.3 9.7 -4.3 Q10.5 -4.35 10.9 -0.2 L10.8 1.15 10.45 3.2 10.3 4.0 10.2 4.6 10.2 4.85 10.15 5.05 10.1 5.85 10.05 6.4 9.95 8.0 9.95 8.15 9.95 8.4 10.15 10.1 10.15 10.15 10.2 10.2 10.25 10.45 10.6 11.0 11.95 12.05 11.95 12.1 12.6 12.15 12.7 12.15 Q14.6 12.15 15.2 11.25 14.1 11.1 14.0 10.55 L13.25 10.05 12.75 10.05 12.15 9.9 12.15 9.75 12.55 9.75 12.8 9.85 12.9 9.85 13.3 9.9 13.4 9.95 13.5 9.95 13.2 9.75 13.25 9.75 13.45 9.65 12.55 8.7 12.45 8.55 12.45 8.45 12.3 8.5 12.25 8.4 12.25 8.35 12.2 8.3 12.45 8.35 12.45 8.3 12.5 8.3 12.5 8.4 12.55 8.3 12.6 8.35 12.75 8.35 12.85 8.35 12.9 8.35 12.95 8.35 13.15 8.1 13.2 8.15 12.85 8.55 12.7 8.5 13.0 8.9 13.8 9.65 13.8 9.7 13.55 9.95 13.6 10.0 14.05 10.25 14.15 10.15 14.3 10.25 15.0 10.05 15.1 10.0 14.7 9.65 14.25 9.2 14.1 8.95 14.05 8.9 14.0 8.9 Q13.45 8.65 13.45 8.25 L13.45 8.2 13.55 8.15 13.6 8.15 13.8 8.2 13.9 8.3 13.95 8.25 14.05 8.3 14.05 8.25 14.1 8.3 14.6 8.6 14.7 8.65 15.0 8.5 14.85 8.25 14.8 8.15 14.1 6.1 14.1 5.85 14.05 5.4 14.1 4.6 14.15 4.25 14.2 4.1 14.2 4.0 14.35 3.35 14.1 3.5 14.05 3.35 14.2 3.0 14.3 2.45 14.3 2.35 14.2 1.85 Q14.2 1.75 14.4 1.75 L14.45 1.7 14.6 2.4 14.6 2.55 14.75 2.85 14.55 4.0 14.55 4.1 14.5 4.2 14.5 4.35 14.45 4.6 14.35 4.95 14.5 5.85 Q14.7 6.85 15.4 8.45 15.4 8.95 14.75 8.95 L14.5 8.95 14.55 9.15 14.7 9.3 15.5 9.9 15.5 9.95 Q15.5 10.45 14.85 10.6 L15.3 10.95 15.7 10.8 15.85 11.0 15.0 11.85 Q13.95 12.45 12.7 12.45 L11.85 12.25 11.8 12.25 Q10.55 12.25 9.95 10.4 L9.9 10.3 9.8 9.95 9.85 9.95 9.75 9.35 9.65 7.8 9.7 5.85 9.75 5.2 9.95 4.6 9.95 4.45 9.9 4.0 10.1 2.85 10.45 1.15 10.55 -0.2 9.9 -3.45 Q9.95 -2.35 9.5 -2.35 L9.1 -2.95 9.25 -3.15 9.05 -3.15 8.95 -3.35 8.5 -3.85 8.5 -3.45 8.5 -2.7 8.35 -2.6 8.45 -2.4 Q8.3 -0.8 7.75 0.4 L7.6 0.4 7.35 -2.85 7.45 -2.8 7.55 -2.85 7.7 -0.15 Q8.2 -1.8 8.2 -3.4 7.9 -4.6 7.75 -5.9 7.1 -6.3 7.1 -7.25 L7.3 -7.05 7.65 -6.45 7.85 -6.3 Q8.05 -6.15 8.35 -6.05 7.9 -6.7 7.9 -7.3 L7.95 -7.45 M-14.6 -3.65 L-14.55 -3.65 -14.6 -3.05 -14.85 -1.45 -14.95 -1.1 -14.95 -0.95 -15.3 0.2 -15.65 3.45 -15.65 4.0 -15.65 4.6 -15.6 5.85 -15.55 6.8 -15.55 6.95 -15.55 7.5 -15.6 7.7 -15.9 8.9 -16.55 9.8 -16.5 9.85 -15.8 10.15 -15.55 10.1 -15.65 9.65 -15.65 9.5 -15.6 9.5 -15.3 10.05 -15.35 10.1 -15.3 10.15 -15.25 10.15 -15.25 10.4 -15.25 10.8 -15.3 10.9 -14.8 10.65 -14.15 9.9 -14.0 9.9 -14.0 10.3 -14.85 11.0 -15.2 11.15 -15.4 11.15 -15.85 11.95 -14.7 11.95 -13.7 11.55 -13.55 11.35 Q-13.4 11.4 -13.4 11.65 L-14.25 12.25 -14.3 12.35 -13.75 12.5 -13.5 12.5 -13.2 12.45 -13.0 12.35 -12.9 12.3 -12.95 12.25 -12.85 12.25 -12.75 12.2 -12.7 12.2 -11.7 11.5 -11.65 11.4 -11.25 10.45 -11.25 10.25 -10.85 7.95 -10.9 7.25 -11.0 6.6 -11.05 5.85 -11.2 4.6 -11.25 4.0 -11.45 1.15 -11.45 0.6 -11.4 -1.7 -10.9 -3.4 -11.65 -3.35 -11.7 -3.5 -11.8 -3.5 -11.8 -3.35 -12.05 -3.35 -12.0 -3.5 Q-5.35 -4.35 -3.5 -6.65 L-3.25 -6.9 -1.65 -9.65 -1.15 -10.6 Q-0.55 -11.4 0.0 -11.4 L0.05 -11.4 0.3 -11.4 1.85 -11.1 1.9 -11.05 2.9 -9.95 3.0 -10.0 3.3 -9.0 3.4 -9.65 2.75 -11.15 2.9 -11.2 3.1 -11.2 3.6 -10.75 3.75 -10.0 Q6.8 -7.8 7.5 -3.15 L7.3 -3.2 7.25 -3.45 7.25 -3.55 7.2 -3.7 6.9 -4.75 6.8 -4.9 5.7 -7.45 4.85 -8.75 Q4.05 -9.3 3.75 -9.6 3.75 -8.35 3.15 -8.35 L2.5 -9.9 Q1.6 -11.1 0.05 -11.05 -0.6 -11.1 -1.8 -8.7 L-3.2 -6.45 Q-4.45 -5.4 -5.85 -4.65 L-6.05 -4.7 -6.2 -4.5 Q-8.1 -3.7 -10.25 -3.45 L-10.35 -3.45 -10.6 -3.4 -10.6 -3.2 -10.85 -2.85 -10.75 -2.55 -10.8 -2.45 -10.9 -2.0 -11.1 -1.5 -11.15 0.65 -11.15 1.15 -10.95 4.0 -10.9 4.6 -10.75 5.85 -10.75 6.25 -10.7 6.45 -10.65 7.1 -10.75 9.05 -10.65 9.5 -10.75 10.1 -10.75 10.15 -10.85 10.65 -11.05 11.1 -11.25 11.45 -12.15 12.25 Q-12.3 12.6 -13.05 12.75 L-13.8 12.8 Q-14.7 12.8 -14.7 12.45 L-14.45 12.2 -14.7 12.25 -16.25 12.25 -16.3 12.05 -15.55 11.05 -15.55 10.65 -15.45 10.45 -15.45 10.35 -15.75 10.5 Q-16.75 10.5 -16.75 9.85 L-16.75 9.8 -16.05 8.7 -15.85 7.4 -15.85 7.2 -15.9 4.45 -15.9 4.0 Q-15.85 0.3 -14.65 -3.65 L-14.6 -3.65 M-12.9 -3.0 L-12.85 -3.95 -12.75 -3.95 -12.65 -3.25 -12.5 -3.45 -12.2 -4.15 -12.1 -4.15 -12.2 -4.1 -12.15 -4.05 -12.05 -4.1 -12.05 -3.95 -12.25 -3.5 -12.05 -3.5 -12.1 -3.35 -12.35 -3.4 -12.55 -3.05 -12.7 -3.05 -12.9 -3.0" fill="#70510a" fill-rule="evenodd" stroke="none"/>
    <path d="M9.1 -2.95 L9.5 -2.35 Q9.95 -2.35 9.9 -3.45 L10.55 -0.2 10.45 1.15 10.1 2.85 9.9 4.0 Q9.7 3.45 9.05 3.5 8.35 3.45 8.15 4.0 L8.05 4.5 8.05 4.6 8.1 4.8 8.15 5.05 8.3 5.2 Q8.5 5.5 9.0 5.5 L9.05 5.5 9.75 5.2 9.7 5.85 9.65 7.8 9.75 9.35 9.85 9.95 9.8 9.95 9.9 10.3 9.95 10.4 Q5.7 14.5 -0.25 14.5 L-0.45 14.5 -0.6 14.5 Q-5.0 14.4 -8.45 12.05 L-10.7 10.2 -10.75 10.15 -10.75 10.1 -10.65 9.5 -10.35 9.65 -10.35 9.7 -9.65 10.85 -9.6 10.9 Q-8.75 12.0 -8.1 12.0 L-8.0 12.0 -7.75 12.25 -6.9 12.8 -6.5 12.65 -6.5 12.5 Q-6.9 12.15 -7.25 11.9 L-7.5 11.6 -7.55 11.55 -7.5 11.45 -7.5 11.35 -7.85 10.8 -8.35 10.1 -8.65 9.55 -9.45 7.65 -9.45 6.9 -9.45 6.7 -9.45 6.05 -9.4 5.85 -9.4 5.7 -9.5 5.35 -9.55 5.0 -9.55 4.85 -9.55 4.75 -9.55 4.6 -9.6 4.45 -9.15 4.4 -8.8 4.3 -8.5 4.05 -8.5 4.0 -8.45 4.0 -8.25 3.15 -8.25 2.8 -9.1 1.7 -9.1 1.65 -9.45 1.6 -9.65 1.6 -9.95 0.0 -10.0 -1.95 -9.9 -2.25 Q-8.9 -2.3 -8.9 -2.9 -8.9 -3.45 -9.45 -3.4 L-10.15 -3.35 -10.25 -3.45 Q-8.1 -3.7 -6.2 -4.5 L-6.25 -4.15 -5.8 -3.3 -5.9 -3.35 -6.1 -3.3 -6.2 -3.3 -7.0 -4.05 -7.1 -4.05 -7.15 -3.95 -6.9 -3.25 -7.15 -3.2 -7.5 -3.65 -7.6 -3.65 -7.6 -3.5 -7.9 -3.4 -7.95 -3.4 -8.0 -3.45 -8.05 -3.45 -8.05 -3.1 -8.0 -3.05 -7.7 -3.25 -7.7 -3.3 -7.4 -3.1 -7.75 -2.6 -8.25 -1.5 -8.7 0.65 -8.65 1.1 -8.65 1.15 -8.35 1.35 -8.35 1.5 -7.95 2.0 -7.8 1.9 -8.25 1.35 -8.15 1.35 -8.1 1.4 -7.7 1.35 -6.1 1.2 -5.05 1.3 -3.6 1.25 -3.5 1.25 -2.9 1.2 -2.2 1.15 -1.4 1.1 -1.35 0.95 -1.3 1.0 -1.35 1.15 Q-1.8 2.4 -2.5 2.8 -2.1 2.8 -1.6 2.0 L-1.15 1.15 -1.1 0.85 -1.05 0.25 Q-1.05 -0.65 -1.75 -1.75 L-1.85 -1.85 -1.75 -2.1 -1.6 -2.2 -1.95 -2.9 -2.05 -2.75 -2.0 -2.7 -2.1 -2.5 -2.05 -2.2 -2.6 -2.7 -2.6 -2.75 -2.8 -2.85 -2.85 -2.9 -2.8 -2.9 -3.05 -3.75 -2.65 -4.75 -2.75 -4.8 Q-3.25 -4.7 -3.25 -3.75 L-3.1 -3.05 -3.65 -3.2 -3.8 -4.05 -3.7 -4.8 Q-4.05 -4.75 -4.05 -4.0 L-3.9 -3.25 -4.2 -3.3 -4.45 -3.5 -4.65 -4.3 -4.4 -4.9 -4.4 -5.15 -4.65 -5.2 Q-5.05 -5.25 -5.05 -4.25 -5.05 -3.75 -4.65 -3.3 L-5.1 -3.3 -5.65 -4.35 -5.55 -4.4 -5.7 -4.45 -5.8 -3.95 -5.45 -3.3 -5.6 -3.3 Q-6.0 -3.65 -6.0 -4.15 -5.85 -4.35 -5.85 -4.65 -4.45 -5.4 -3.2 -6.45 L-1.8 -8.7 Q-0.6 -11.1 0.05 -11.05 1.6 -11.1 2.5 -9.9 L3.15 -8.35 Q3.75 -8.35 3.75 -9.6 4.05 -9.3 4.85 -8.75 L5.7 -7.45 6.8 -4.9 6.9 -4.75 6.85 -4.7 6.6 -4.7 6.7 -4.3 6.3 -3.25 5.85 -3.2 6.3 -4.45 6.2 -5.1 Q6.25 -3.7 5.7 -3.2 L5.55 -3.15 5.35 -3.2 5.2 -3.2 5.4 -4.2 5.4 -5.1 5.2 -5.1 5.0 -3.2 4.65 -3.1 Q4.6 -4.0 4.25 -4.2 L4.15 -4.2 4.15 -3.95 4.45 -3.05 3.6 -2.4 3.35 -3.1 3.2 -3.1 3.15 -3.0 3.5 -2.3 3.2 -1.95 Q2.45 -0.95 2.45 -0.2 L2.55 0.85 2.7 0.8 2.7 0.9 2.75 0.9 2.95 1.15 Q3.9 2.35 4.35 2.45 L4.4 2.35 Q3.8 2.1 3.2 1.15 L3.05 0.95 3.95 0.9 6.7 0.85 7.15 0.75 7.2 0.85 8.65 0.9 9.4 0.85 9.7 1.0 9.85 1.1 9.9 0.8 10.0 0.75 9.95 0.6 9.95 0.15 Q9.65 -2.25 8.85 -2.65 L9.1 -2.95 M10.05 -2.35 L9.95 -2.45 9.65 -2.05 10.05 -2.35 M8.25 1.85 L7.55 2.8 7.55 2.85 8.75 1.8 8.25 1.8 8.25 1.85 M1.25 7.2 L1.25 7.3 1.3 7.35 1.25 7.2 M-10.35 -3.45 L-10.35 -3.3 -10.6 -3.2 -10.6 -3.4 -10.35 -3.45 M-10.9 -2.0 L-11.0 -1.6 -11.05 -0.3 -10.95 0.85 -11.05 1.15 -11.05 1.2 -10.85 2.85 -10.85 3.1 -10.65 3.9 -10.6 4.0 -10.65 4.0 -10.5 4.6 -10.5 4.7 -10.55 5.85 -10.55 6.4 -10.65 7.1 -10.7 6.45 -10.75 6.25 -10.75 5.85 -10.9 4.6 -10.95 4.0 -11.15 1.15 -11.15 0.65 -11.1 -1.5 -10.9 -2.0 M-6.0 1.1 L-4.0 0.9 -4.0 1.0 -6.0 1.1 M-2.5 0.85 L-2.45 0.85 -2.2 0.85 -2.55 0.9 -2.55 0.85 -2.5 0.85 M-8.45 12.05 L-9.05 11.6 -8.45 12.05 -9.05 11.6 -8.45 12.05 M-10.75 10.1 L-10.7 10.15 -9.05 11.6 -10.7 10.15 -10.75 10.1" fill="#ffddbb" fill-rule="evenodd" stroke="none"/>
    <path d="M7.35 -2.85 L7.6 0.4 7.0 0.4 4.9 0.45 4.9 0.4 Q4.9 -0.1 4.5 -0.1 3.85 -0.1 3.8 0.55 L2.9 0.75 2.85 0.65 3.0 0.6 2.8 0.5 2.75 -0.15 Q2.75 -0.9 3.7 -1.95 4.45 -2.8 5.25 -2.95 L5.25 -2.9 5.35 -2.85 6.5 -3.0 7.1 -2.85 7.35 -2.85 M7.75 0.4 Q8.3 -0.8 8.45 -2.4 L9.4 -1.3 9.75 0.15 9.75 0.55 7.75 0.4 M9.7 1.0 L9.4 0.85 9.75 0.85 9.7 1.0 M8.25 1.85 L8.25 1.8 8.75 1.8 7.55 2.85 7.55 2.8 8.25 1.85 M4.6 0.2 L4.4 0.2 4.4 0.1 4.45 0.1 4.6 0.15 4.6 0.2 M-7.7 1.35 L-8.1 1.4 -8.15 1.35 -7.7 1.35 M-6.0 1.1 L-6.05 1.1 -7.4 1.15 -8.2 1.15 -8.35 1.05 -8.4 0.7 -8.05 -1.2 Q-7.5 -3.05 -6.4 -3.0 L-6.25 -3.0 Q-5.9 -3.0 -6.0 -2.85 L-4.6 -2.95 Q-1.9 -2.95 -1.35 0.25 L-1.45 0.75 -2.2 0.85 -2.45 0.85 -2.5 0.85 Q-2.5 0.55 -2.65 0.4 -2.65 0.15 -3.3 0.15 -4.0 0.15 -4.0 0.9 L-6.0 1.1" fill="#ffffff" fill-rule="evenodd" stroke="none"/>
    <path d="M9.9 4.0 L9.95 4.45 9.95 4.6 9.75 5.2 9.05 5.5 9.0 5.5 Q8.5 5.5 8.3 5.2 L8.15 5.05 8.1 4.8 8.05 4.6 8.05 4.5 8.15 4.0 Q8.35 3.45 9.05 3.5 9.7 3.45 9.9 4.0 M-10.6 -3.2 L-10.35 -3.3 -10.35 -3.45 -10.25 -3.45 -10.15 -3.35 -9.45 -3.4 Q-8.9 -3.45 -8.9 -2.9 -8.9 -2.3 -9.9 -2.25 L-10.0 -1.95 -9.95 0.0 -9.65 1.6 -9.45 1.6 -9.1 1.65 -9.1 1.7 -8.25 2.8 -8.25 3.15 -8.45 4.0 -8.5 4.0 -8.5 4.05 -8.8 4.3 -9.15 4.4 -9.6 4.45 -9.55 4.6 -9.55 4.75 -9.55 4.85 -9.55 5.0 -9.5 5.35 -9.4 5.7 -9.4 5.85 -9.45 6.05 -9.45 6.7 -9.45 6.9 -9.45 7.65 -8.65 9.55 -8.35 10.1 -7.85 10.8 -7.5 11.35 -7.5 11.45 -7.55 11.55 -7.5 11.6 -7.25 11.9 Q-6.9 12.15 -6.5 12.5 L-6.5 12.65 -6.9 12.8 -7.75 12.25 -8.0 12.0 -8.1 12.0 Q-8.75 12.0 -9.6 10.9 L-9.65 10.85 -10.35 9.7 -10.35 9.65 -10.65 9.5 -10.75 9.05 -10.65 7.1 -10.55 6.4 -10.55 5.85 -10.5 4.7 -10.5 4.6 -10.65 4.0 -10.6 4.0 -10.65 3.9 -10.85 3.1 -10.85 2.85 -11.05 1.2 -11.05 1.15 -10.95 0.85 -11.05 -0.3 -11.0 -1.6 -10.9 -2.0 -10.8 -2.45 -10.75 -2.55 -10.85 -2.85 -10.6 -3.2" fill="#ffb99b" fill-rule="evenodd" stroke="none"/>
    <path d="M12.5 8.3 L11.65 5.85 11.6 5.8 11.6 5.5 11.7 5.5 12.55 8.3 12.5 8.4 12.5 8.3 M13.15 8.1 L13.1 8.05 13.05 7.95 12.45 6.75 12.25 6.25 12.15 5.9 12.15 5.85 12.1 5.8 12.05 5.55 12.0 5.15 12.0 5.05 12.0 4.9 12.05 4.25 12.15 4.25 12.15 4.45 12.15 4.5 12.15 4.6 12.4 5.85 12.75 6.8 13.1 7.6 13.4 8.15 13.25 8.25 13.2 8.15 13.15 8.1 M-0.5 -13.25 L-0.55 -13.3 -0.75 -13.55 -0.8 -13.7 -0.55 -13.9 Q0.05 -13.95 0.05 -13.45 0.05 -13.15 -0.2 -13.15 L-0.5 -13.25 M0.0 -11.4 L-0.05 -11.65 0.05 -11.9 0.0 -12.0 -0.3 -12.35 -0.3 -12.4 -0.15 -12.45 -0.1 -12.5 -0.05 -12.5 Q0.4 -12.55 0.4 -11.85 L0.25 -11.55 0.0 -11.4" fill="#fdad06" fill-rule="evenodd" stroke="none"/>
    <path d="M-14.15 8.0 L-14.1 7.9 -13.6 6.85 -13.3 5.85 -13.25 5.75 -13.1 4.9 -13.1 4.25 -13.1 4.0 -13.35 -0.35 Q-13.35 -2.65 -12.9 -3.0 L-12.7 -3.05 -12.55 -3.05 -12.45 -2.85 -12.45 -2.65 -12.55 -1.85 -12.35 -2.85 -12.2 -3.0 -12.15 -2.95 -12.05 -2.7 Q-12.45 -2.3 -12.55 -0.7 L-12.7 -0.25 -12.65 0.75 -12.6 1.15 -12.45 2.1 -12.5 2.15 -12.65 1.25 -12.65 1.15 -12.8 0.4 -12.8 0.3 -12.85 0.55 -12.85 1.15 -12.7 4.0 -12.7 4.25 -12.7 4.6 -12.75 5.3 -12.85 5.85 -13.05 6.5 -14.2 8.4 -14.25 8.25 -14.25 8.2 -14.15 8.0 M-10.3 -4.5 L-10.4 -4.55 Q-7.1 -7.2 -6.05 -8.7 L-2.75 -12.9 -2.55 -12.7 -2.55 -12.65 Q-2.55 -12.25 -3.45 -11.0 L-5.55 -8.4 -7.7 -6.2 -8.9 -5.15 -9.4 -4.85 -9.5 -4.75 Q-10.0 -4.4 -10.2 -4.4 L-10.3 -4.45 -10.3 -4.5 M-4.7 -11.95 L-4.7 -11.9 Q-4.7 -10.7 -11.3 -5.05 L-11.4 -5.1 -11.5 -5.0 -11.55 -5.15 -8.1 -9.45 Q-7.4 -10.75 -5.9 -11.8 L-3.6 -13.55 -3.45 -13.5 -7.85 -9.25 -9.7 -7.05 -11.15 -5.4 Q-7.65 -8.35 -5.35 -11.4 L-4.8 -12.15 -4.7 -11.95 M-6.65 -13.0 L-6.65 -12.85 Q-11.2 -9.9 -12.45 -4.1 L-12.6 -4.1 -12.65 -4.85 -12.55 -5.65 -12.4 -6.25 -12.35 -6.35 -12.3 -6.5 Q-11.9 -7.75 -10.9 -9.25 L-10.85 -9.35 -9.05 -11.5 -8.7 -11.85 -8.4 -12.15 Q-7.35 -13.15 -6.9 -13.15 L-6.7 -13.1 -6.65 -13.1 -6.65 -13.0 M-13.3 -2.95 L-13.75 -1.95 -14.2 -0.5 -14.0 3.95 -14.05 4.8 -14.15 4.85 -14.2 4.6 -14.25 4.0 -14.4 1.35 -14.25 -1.15 -13.35 -3.25 -13.3 -3.3 -13.2 -3.2 -13.3 -2.95 M-0.45 -13.15 L-0.5 -13.25 -0.2 -13.15 Q0.05 -13.15 0.05 -13.45 0.05 -13.95 -0.55 -13.9 L-0.8 -13.7 -1.15 -14.45 -0.9 -14.8 Q-0.3 -14.8 0.2 -13.45 L0.6 -11.8 Q0.6 -11.4 0.3 -11.4 L0.25 -11.55 0.4 -11.85 Q0.4 -12.55 -0.05 -12.5 L-0.1 -12.5 -0.3 -12.95 -0.45 -13.15 M-11.65 -3.35 L-11.6 -3.1 -11.6 -2.95 -11.75 -1.7 -11.9 -0.95 -12.05 -0.45 -11.9 1.15 -11.85 1.5 -11.45 3.45 -11.55 3.75 -11.65 3.75 -11.7 3.7 -11.7 3.65 -11.7 3.55 -12.25 1.15 -12.3 0.9 -12.3 0.8 -12.15 -1.55 -11.95 -2.6 -11.8 -3.35 -11.8 -3.5 -11.7 -3.5 -11.65 -3.35" fill="#fdba2f" fill-rule="evenodd" stroke="none"/>
    <path d="M1.25 7.2 L1.3 7.35 1.25 7.3 1.25 7.2" fill="#ffa4a4" fill-rule="evenodd" stroke="none"/>
    <path d="M14.0 -4.2 Q13.0 -7.75 10.3 -10.6 L10.15 -10.7 Q6.05 -14.8 0.35 -15.0 L-0.25 -15.0 Q-6.35 -15.0 -10.7 -10.7 L-12.5 -8.5 Q-14.05 -6.25 -14.6 -3.65" fill="none" stroke="#a27202" stroke-linecap="round" stroke-linejoin="round" stroke-width="0.5"/>
    <path d="M14.4 1.75 L14.45 1.15 14.5 -0.25 Q14.5 -2.25 14.05 -3.95 M9.95 10.4 Q5.7 14.5 -0.25 14.5 L-0.45 14.5 -0.6 14.5 Q-5.0 14.4 -8.45 12.05 L-10.7 10.2 -10.75 10.15 M-8.45 12.05 L-9.05 11.6 -8.45 12.05 M-9.05 11.6 L-10.7 10.15 -10.75 10.1" fill="none" stroke="#865204" stroke-linecap="round" stroke-linejoin="round" stroke-width="0.5"/>
  </g>
</svg>
