<?xml version="1.0" encoding="UTF-8" standalone="no"?>
<svg xmlns:xlink="http://www.w3.org/1999/xlink" height="28.9px" width="32.6px" xmlns="http://www.w3.org/2000/svg">
  <g transform="matrix(1.0, 0.0, 0.0, 1.0, 16.75, 14.15)">
    <path d="M14.05 -3.3 L13.8 -3.25 13.75 -3.6 14.0 -3.55 14.2 -3.5 14.05 -3.3 M7.6 1.1 L7.65 1.1 Q9.15 1.2 9.5 2.35 9.15 1.4 7.15 1.4 5.9 1.4 4.65 1.9 L3.25 2.4 3.1 2.4 2.85 2.35 Q2.3 2.2 2.3 1.4 L2.3 1.3 2.4 1.25 2.5 1.3 3.0 1.85 3.1 2.1 7.2 1.05 7.6 1.1 M10.05 -1.75 L9.65 -1.45 9.95 -1.85 10.05 -1.75 M3.7 2.45 L3.9 2.45 4.45 2.65 4.45 2.75 4.4 2.8 3.7 2.55 3.7 2.45 M-0.55 0.8 L-0.65 0.65 -0.65 0.55 -0.45 0.55 -0.4 0.75 -0.65 1.15 -0.7 1.1 -0.55 0.8 M-3.35 1.4 L-3.8 1.25 Q-5.15 0.75 -7.2 0.75 L-8.35 0.85 -8.65 0.9 Q-9.05 0.95 -9.15 1.15 L-9.2 1.05 Q-9.2 0.8 -8.65 0.7 L-8.35 0.6 -5.55 0.45 -3.65 0.95 -3.15 1.15 Q-2.9 1.25 -2.5 1.5 L-1.8 1.85 -1.75 1.9 -1.25 1.85 -1.0 1.45 -0.8 1.5 -0.75 1.65 Q-0.75 2.25 -1.6 2.3 L-1.75 2.3 -2.05 2.15 Q-2.4 1.9 -2.7 1.8 L-3.05 1.55 -3.1 1.55 -3.35 1.4 M-2.35 2.7 L-2.75 2.7 -3.55 2.5 -3.1 2.45 -2.35 2.6 -2.35 2.7" fill="#000000" fill-rule="evenodd" stroke="none"/>
    <path d="M12.2 8.55 L11.45 6.95 Q11.1 5.85 11.1 4.5 L11.4 -0.15 Q11.4 -1.75 11.0 -2.85 9.25 -6.75 7.4 -8.55 L6.85 -9.05 4.6 -11.1 Q1.75 -13.3 0.5 -13.3 L0.35 -13.25 4.4 -10.9 7.15 -8.3 9.4 -5.5 10.5 -3.55 Q11.25 -1.65 11.25 -0.15 L10.95 5.15 Q10.95 6.85 11.45 8.0 11.95 9.1 12.9 9.65 L12.95 9.5 12.3 8.75 12.45 8.7 12.45 8.75 Q12.75 9.45 13.45 9.85 L13.2 9.95 11.05 8.6 Q10.25 6.9 10.3 6.45 L10.2 6.45 10.2 6.85 11.05 8.75 11.45 9.3 12.55 9.95 12.15 9.95 12.15 10.1 12.75 10.25 13.25 10.2 14.0 10.7 Q14.1 11.25 15.2 11.35 14.6 12.25 12.7 12.25 L11.95 12.15 11.45 11.8 10.6 11.15 10.25 10.6 10.15 10.35 9.95 8.65 Q9.95 6.05 10.45 3.55 L10.9 0.35 Q10.5 -3.65 9.7 -3.65 L9.6 -3.6 Q9.6 -4.35 8.3 -6.45 L6.9 -8.5 6.3 -9.05 Q3.05 -12.0 0.2 -12.7 L0.15 -12.65 Q3.95 -11.25 6.15 -9.05 L6.7 -8.45 7.95 -6.65 7.9 -6.5 Q7.9 -5.9 8.35 -5.3 L7.85 -5.5 7.65 -5.7 7.3 -6.25 7.4 -6.1 7.65 -6.1 7.65 -6.2 5.4 -9.05 4.95 -9.55 3.3 -11.15 Q1.05 -11.95 0.6 -12.4 L0.55 -12.4 Q0.5 -12.05 1.4 -11.6 L1.3 -11.6 0.9 -11.5 0.95 -11.45 Q1.95 -11.15 3.1 -10.2 L2.9 -10.25 2.75 -10.2 3.35 -9.05 3.4 -8.75 3.3 -8.1 3.0 -9.05 3.1 -9.05 2.25 -10.2 Q1.35 -11.1 0.9 -11.05 L0.75 -11.0 1.85 -10.15 0.3 -10.5 Q0.6 -10.5 0.6 -10.85 L0.2 -12.4 Q-0.3 -13.7 -0.9 -13.7 L-1.15 -13.35 -0.8 -12.6 -0.75 -12.5 -1.7 -11.85 -2.9 -10.45 -3.75 -9.2 -3.45 -9.75 -3.9 -9.05 -3.95 -8.95 -4.3 -8.5 -4.4 -8.5 Q-4.5 -7.95 -6.2 -6.55 L-6.15 -6.5 -4.9 -7.6 Q-5.6 -6.85 -6.8 -5.9 L-6.6 -5.85 Q-5.5 -6.6 -4.5 -8.0 L-4.3 -8.2 -4.3 -8.3 -4.05 -8.7 -3.75 -9.05 -1.45 -11.85 -0.55 -12.3 -0.5 -12.25 -0.45 -12.15 -0.8 -11.9 Q-1.7 -11.55 -1.8 -10.95 -2.45 -10.45 -2.9 -9.2 L-2.95 -9.05 Q-3.6 -7.6 -4.35 -6.9 -5.3 -6.1 -7.15 -5.3 L-8.9 -4.45 -7.7 -5.45 -5.55 -7.55 -4.2 -9.05 -3.45 -10.05 -3.55 -9.8 -3.5 -9.8 -2.5 -11.45 Q-2.0 -12.4 -1.25 -12.65 L-1.15 -12.7 -1.2 -12.75 -1.2 -12.8 -1.15 -12.95 Q-1.15 -13.2 -1.65 -13.2 L-1.7 -13.25 -1.95 -13.25 Q-4.55 -13.0 -6.7 -12.1 L-6.9 -12.15 Q-7.35 -12.15 -8.4 -11.2 L-10.9 -9.1 -10.95 -9.05 -12.75 -6.3 -13.9 -3.65 -13.8 -3.15 -13.75 -3.2 -13.15 -5.0 -13.1 -4.9 -13.0 -4.95 -12.95 -5.0 -13.0 -4.75 Q-13.35 -4.0 -13.35 -2.6 L-14.25 -0.55 -14.4 1.85 -14.15 5.2 -14.05 5.2 -14.0 4.35 -14.2 0.05 -13.75 -1.35 -13.3 -2.3 -13.25 -1.9 -13.2 -1.9 -12.55 -4.9 -12.65 -4.15 -12.6 -3.45 -12.45 -3.45 Q-11.7 -6.75 -9.8 -9.05 -8.5 -10.7 -6.65 -11.85 L-6.65 -12.0 -2.3 -13.1 Q-5.9 -12.1 -7.75 -10.4 L-8.9 -9.05 -10.4 -7.0 -10.35 -6.95 -8.55 -9.05 Q-5.8 -11.95 -2.25 -13.1 L-2.3 -13.0 -2.15 -12.8 Q-5.1 -11.5 -6.55 -9.35 L-5.35 -10.45 -6.45 -9.05 Q-8.45 -6.85 -11.15 -4.65 L-9.7 -6.25 -7.85 -8.35 -7.2 -9.05 -3.45 -12.45 -3.6 -12.5 -5.9 -10.85 Q-7.1 -10.05 -7.75 -9.05 L-8.1 -8.55 -11.55 -4.45 -11.5 -4.3 -11.4 -4.4 -11.3 -4.35 Q-7.6 -7.4 -5.95 -9.05 -4.7 -10.45 -4.7 -10.95 L-4.7 -11.0 -2.1 -12.8 -1.7 -12.7 -2.55 -11.7 -2.75 -11.9 -5.1 -9.05 -6.05 -7.8 Q-7.1 -6.4 -10.4 -3.85 L-10.3 -3.8 -10.5 -3.7 -11.7 -3.3 -11.65 -3.15 -11.4 -3.1 -6.85 -4.4 -3.5 -5.9 Q-5.35 -3.65 -12.0 -2.85 L-11.95 -2.95 -12.05 -2.85 -12.25 -2.8 -12.05 -3.25 -12.05 -3.4 Q-7.65 -5.8 -5.15 -9.05 L-3.75 -11.4 -5.35 -9.05 -6.95 -7.3 -12.1 -3.5 -12.2 -3.5 -12.5 -2.8 -12.65 -2.6 -12.75 -3.3 -12.85 -3.25 -12.9 -2.35 Q-13.35 -2.0 -13.35 0.2 L-13.1 4.65 Q-13.1 6.35 -14.15 8.25 -13.7 7.0 -13.7 5.7 L-13.9 2.05 Q-13.9 0.3 -13.3 -1.35 -13.95 -0.8 -13.95 0.45 L-14.1 2.15 -13.9 4.0 -13.85 6.1 Q-13.85 7.85 -15.3 10.2 L-15.6 9.7 -15.65 9.7 -15.65 9.8 -15.55 10.25 -15.8 10.35 -16.55 10.0 Q-15.55 9.05 -15.55 7.05 L-15.65 3.85 -15.3 0.75 -14.95 -0.4 -14.95 -0.5 -14.85 -0.85 -14.6 -2.4 -14.55 -2.95 -14.6 -2.95 Q-14.05 -5.5 -12.5 -7.6 L-11.35 -9.05 -10.7 -9.75 Q-6.35 -13.9 -0.25 -13.9 L0.35 -13.9 Q6.05 -13.7 10.15 -9.75 L10.3 -9.65 10.85 -9.05 11.45 -8.35 Q13.25 -6.15 14.0 -3.55 L13.75 -3.6 13.8 -3.25 14.05 -3.3 Q14.5 -1.6 14.5 0.3 L14.4 2.2 Q14.2 2.2 14.2 2.3 L14.3 2.75 14.3 2.85 14.2 3.4 14.05 3.7 14.1 3.9 14.35 3.7 Q14.05 4.65 14.05 5.75 L14.1 6.45 Q13.6 4.75 13.6 3.6 L14.0 0.0 12.25 -5.75 12.15 -5.65 13.1 -2.85 Q13.7 -1.2 13.7 0.0 L13.5 2.15 Q13.5 0.0 13.05 -1.9 12.85 -2.75 12.05 -4.2 L11.45 -5.35 11.35 -5.5 9.5 -8.75 9.3 -9.05 Q7.25 -12.2 6.15 -12.2 L5.95 -12.2 5.95 -12.05 Q7.35 -11.2 8.9 -9.05 L11.1 -5.7 11.0 -5.7 11.3 -5.3 11.35 -5.25 11.45 -5.1 Q13.4 -2.25 13.4 2.3 L13.35 3.35 13.3 3.55 13.3 3.65 13.05 5.7 Q13.05 7.5 13.8 8.4 L13.55 8.4 13.45 8.45 Q13.45 8.9 14.05 9.1 L15.1 10.2 15.0 10.25 14.3 10.45 14.15 10.35 14.05 10.45 13.55 10.15 13.8 9.85 12.7 8.75 12.85 8.75 13.2 8.35 13.25 8.5 13.4 8.4 Q12.2 6.4 12.15 4.9 L12.15 4.85 12.45 0.85 Q12.45 -2.15 11.45 -4.0 L11.4 -4.15 8.4 -8.75 8.15 -9.05 6.45 -10.95 Q4.35 -12.95 3.05 -12.95 L2.9 -12.95 Q5.9 -11.5 7.8 -9.05 L8.1 -8.7 11.1 -4.45 11.05 -4.4 11.45 -3.6 Q12.25 -1.7 12.25 0.85 L11.95 4.85 Q11.95 7.1 12.6 7.9 L12.15 6.45 12.15 6.2 13.15 8.35 12.7 8.6 12.6 8.55 12.55 8.55 11.7 5.85 11.6 5.85 11.6 6.15 12.5 8.55 12.2 8.55 M3.6 -9.8 L4.3 -9.05 5.65 -7.45 Q6.55 -6.25 7.85 -3.35 L7.95 -3.4 Q6.75 -6.85 5.75 -7.8 L4.7 -9.05 4.0 -9.85 2.4 -11.2 3.2 -10.9 4.8 -9.35 5.0 -9.05 7.1 -6.45 Q7.1 -5.5 7.75 -5.15 7.9 -3.9 8.2 -2.75 8.2 -1.2 7.7 0.4 L7.55 -2.2 7.6 -2.25 7.55 -2.45 7.5 -2.5 Q6.8 -6.95 3.75 -9.05 L3.6 -9.8 M0.0 -11.05 L0.05 -10.95 -0.05 -10.75 0.0 -10.5 -1.15 -9.65 -0.5 -10.95 0.0 -11.05 M0.0 -10.5 L0.25 -10.65 0.3 -10.5 0.05 -10.5 0.0 -10.5 M-0.1 -11.55 L-0.15 -11.5 -0.3 -11.45 -0.3 -11.4 -0.5 -11.3 -0.55 -11.35 Q-1.35 -11.05 -2.25 -9.05 L-2.3 -9.0 -3.85 -6.4 Q-4.3 -5.85 -5.45 -5.45 L-7.4 -4.9 -9.35 -4.1 -9.5 -4.05 -9.4 -4.15 -6.8 -5.2 Q-4.8 -6.05 -4.0 -6.95 L-2.7 -8.9 -2.6 -9.05 -1.7 -10.75 -1.65 -10.75 -0.6 -11.8 -0.3 -11.95 -0.1 -11.55 M9.55 -3.35 L9.55 -2.25 9.5 -2.25 8.45 -3.8 8.15 -5.0 8.55 -5.0 8.75 -5.05 9.45 -3.35 9.55 -3.35 M10.35 -9.05 L10.15 -9.45 10.1 -9.45 10.3 -9.05 11.45 -6.55 12.25 -4.7 12.5 -3.7 12.55 -3.75 12.55 -4.05 12.45 -4.35 12.45 -4.55 12.25 -5.15 12.0 -6.25 11.9 -6.25 11.9 -6.0 11.45 -6.95 10.35 -9.05 M13.95 8.45 Q13.15 6.9 13.15 5.65 L13.35 4.1 Q13.45 4.9 13.9 6.3 L14.8 8.55 14.85 8.5 14.85 8.45 15.0 8.75 14.7 8.85 14.1 8.55 14.05 8.5 13.95 8.45 M12.7 8.05 L12.7 8.0 12.65 7.95 12.7 8.05 M10.45 7.9 L10.35 7.9 Q10.4 9.0 11.45 10.55 L11.5 10.6 11.55 10.55 11.45 10.45 Q10.55 9.25 10.45 7.9 M11.0 10.5 L11.0 10.75 11.55 11.3 11.7 11.25 11.7 11.15 11.45 11.0 11.1 10.5 11.0 10.5 M11.85 10.75 L11.75 10.75 Q12.75 11.35 13.35 11.35 L13.5 11.35 11.85 10.75 M12.9 10.05 L12.8 10.05 12.55 9.95 12.9 10.05 M-10.9 -8.35 Q-12.6 -6.3 -12.9 -5.2 L-13.0 -5.3 Q-12.15 -7.45 -10.8 -9.0 L-10.7 -9.05 -8.7 -10.9 -9.05 -10.6 -10.4 -9.05 -10.85 -8.45 -10.9 -8.35 M-12.4 -5.45 L-12.45 -5.4 -12.3 -5.65 -12.4 -5.45 M-11.65 -5.0 L-11.6 -4.9 -9.85 -7.35 Q-11.65 -5.65 -11.65 -5.0 M-12.55 -2.4 L-12.35 -2.75 -12.1 -2.7 -12.45 -2.0 -12.45 -2.2 -12.55 -2.4 M-11.65 -2.7 L-10.9 -2.75 Q-11.3 -2.2 -11.4 -1.1 L-11.45 1.1 Q-11.45 3.3 -10.85 8.2 L-11.25 10.45 Q-11.45 11.9 -12.95 12.3 L-12.9 12.35 -13.75 12.55 -14.3 12.4 -14.25 12.3 -13.4 11.75 Q-13.4 11.55 -13.55 11.45 L-13.7 11.6 -14.7 12.05 -15.85 12.05 -15.4 11.3 -15.2 11.3 -14.0 10.5 -14.0 10.1 -14.15 10.1 Q-14.6 10.8 -15.3 11.05 L-15.25 10.95 -15.25 10.55 -15.25 10.3 Q-14.6 9.4 -14.25 8.5 L-14.2 8.65 Q-13.9 8.5 -13.05 6.8 L-12.75 5.65 -12.7 6.45 Q-12.7 9.05 -14.6 10.2 L-14.55 10.25 Q-12.55 9.3 -12.55 5.6 L-12.8 1.2 -12.8 0.95 -12.65 1.75 -12.65 1.8 -11.9 7.8 Q-11.9 9.8 -13.2 10.95 -11.6 9.65 -11.6 7.75 L-12.35 1.75 -12.3 1.4 Q-12.3 2.4 -11.7 3.95 L-11.7 4.05 -11.7 4.1 -11.45 6.4 -11.55 9.2 -11.95 10.6 -13.0 11.75 Q-11.35 10.95 -11.35 9.2 L-11.15 6.4 -11.45 3.85 -11.45 3.8 -11.75 0.3 Q-11.4 -1.2 -11.4 -2.1 L-11.45 -2.3 -11.6 -2.3 -11.6 -2.45 -11.65 -2.7 M-12.05 -2.05 L-12.15 -2.3 -12.05 -2.7 -11.8 -2.7 -11.95 -1.95 -12.05 -2.05 M-12.55 -0.15 L-12.65 1.25 -12.7 0.3 -12.55 -0.15 M-11.9 -0.35 L-11.95 0.25 -11.85 1.95 -12.05 0.1 -11.9 -0.35 M-14.65 1.5 L-14.65 2.95 Q-14.5 4.05 -14.5 5.5 -14.5 6.95 -15.5 9.1 L-15.45 9.2 Q-14.4 8.1 -14.4 5.5 L-14.55 1.5 -14.65 1.5 M-14.65 0.5 L-14.6 1.0 -14.55 0.95 Q-14.45 -1.5 -13.95 -2.4 -14.65 -2.2 -14.65 0.5 M-14.2 11.55 L-14.95 11.85 -14.9 11.9 -14.2 11.55" fill="#fdc551" fill-rule="evenodd" stroke="none"/>
    <path d="M12.3 8.75 L12.95 9.5 12.9 9.65 Q11.95 9.1 11.45 8.0 10.95 6.85 10.95 5.15 L11.25 -0.15 Q11.25 -1.65 10.5 -3.55 L9.4 -5.5 7.15 -8.3 4.4 -10.9 0.35 -13.25 0.5 -13.3 Q1.75 -13.3 4.6 -11.1 L6.85 -9.05 7.4 -8.55 Q9.25 -6.75 11.0 -2.85 11.4 -1.75 11.4 -0.15 L11.1 4.5 Q11.1 5.85 11.45 6.95 L12.2 8.55 12.3 8.75 M12.15 6.2 L12.15 6.45 12.6 7.9 Q11.95 7.1 11.95 4.85 L12.25 0.85 Q12.25 -1.7 11.45 -3.6 L11.05 -4.4 11.1 -4.45 8.1 -8.7 7.8 -9.05 Q5.9 -11.5 2.9 -12.95 L3.05 -12.95 Q4.35 -12.95 6.45 -10.95 L8.15 -9.05 8.4 -8.75 11.4 -4.15 11.45 -4.0 Q12.45 -2.15 12.45 0.85 L12.15 4.85 12.15 4.65 12.05 4.65 12.0 5.25 12.15 6.2 M13.8 8.4 Q13.05 7.5 13.05 5.7 L13.3 3.65 13.3 3.55 13.35 3.35 13.4 2.3 Q13.4 -2.25 11.45 -5.1 L11.35 -5.25 11.3 -5.3 11.0 -5.7 11.1 -5.7 8.9 -9.05 Q7.35 -11.2 5.95 -12.05 L5.95 -12.2 6.15 -12.2 Q7.25 -12.2 9.3 -9.05 L9.5 -8.75 11.35 -5.5 11.45 -5.35 12.05 -4.2 Q12.85 -2.75 13.05 -1.9 13.5 0.0 13.5 2.15 L13.7 0.0 Q13.7 -1.2 13.1 -2.85 L12.15 -5.65 12.25 -5.75 14.0 0.0 13.6 3.6 Q13.6 4.75 14.1 6.45 L14.8 8.35 14.85 8.45 14.85 8.5 14.8 8.55 13.9 6.3 Q13.45 4.9 13.35 4.1 L13.15 5.65 Q13.15 6.9 13.95 8.45 L13.95 8.5 13.9 8.55 13.8 8.4 M-15.3 10.2 Q-13.85 7.85 -13.85 6.1 L-13.9 4.0 -14.1 2.15 -13.95 0.45 Q-13.95 -0.8 -13.3 -1.35 -13.9 0.3 -13.9 2.05 L-13.7 5.7 Q-13.7 7.0 -14.15 8.25 L-14.25 8.45 -14.25 8.5 Q-14.6 9.4 -15.25 10.3 L-15.3 10.35 -15.35 10.3 -15.3 10.2 M-12.1 -3.5 L-6.95 -7.3 -5.35 -9.05 -3.75 -11.4 -5.15 -9.05 Q-7.65 -5.8 -12.05 -3.4 L-12.15 -3.4 -12.2 -3.45 -12.1 -3.5 M-12.05 -2.85 L-11.95 -2.95 -12.0 -2.85 -12.05 -2.7 -12.15 -2.3 -12.2 -2.35 -12.35 -2.2 -12.55 -1.25 -12.45 -2.0 -12.1 -2.7 -12.05 -2.85 M-3.5 -5.9 L-6.85 -4.4 -11.4 -3.1 -11.65 -3.15 -11.7 -3.3 -10.5 -3.7 -10.3 -3.8 -10.3 -3.75 -10.2 -3.7 -9.5 -4.05 -9.35 -4.1 -7.4 -4.9 -5.45 -5.45 Q-4.3 -5.85 -3.85 -6.4 L-2.3 -9.0 -2.25 -9.05 Q-1.35 -11.05 -0.55 -11.35 L-0.5 -11.3 -0.3 -11.4 0.0 -11.05 -0.5 -10.95 -1.15 -9.65 -1.45 -9.05 -1.65 -8.75 -3.25 -6.1 -3.5 -5.9 M-2.55 -11.7 L-1.7 -12.7 -2.1 -12.8 -4.7 -11.0 -4.8 -11.2 -5.35 -10.45 -6.55 -9.35 Q-5.1 -11.5 -2.15 -12.8 L-2.3 -13.0 -2.25 -13.1 Q-5.8 -11.95 -8.55 -9.05 L-10.35 -6.95 -10.4 -7.0 -8.9 -9.05 -7.75 -10.4 Q-5.9 -12.1 -2.3 -13.1 L-6.65 -12.0 -6.65 -12.1 -6.7 -12.1 Q-4.55 -13.0 -1.95 -13.25 L-1.7 -13.25 -1.65 -13.2 Q-1.15 -13.2 -1.15 -12.95 L-1.2 -12.8 -1.2 -12.75 -1.15 -12.7 -1.25 -12.65 Q-2.0 -12.4 -2.5 -11.45 L-3.5 -9.8 -3.55 -9.8 -3.45 -10.05 Q-2.55 -11.25 -2.55 -11.7 M-12.55 -4.9 L-13.2 -1.9 -13.25 -1.9 -13.3 -2.3 -13.2 -2.55 -13.3 -2.65 -13.35 -2.6 Q-13.35 -4.0 -13.0 -4.75 L-12.95 -5.0 -13.0 -4.95 -13.1 -4.9 -13.15 -5.0 -13.75 -3.2 -13.8 -3.15 -13.9 -3.65 -12.75 -6.3 -10.95 -9.05 -10.9 -9.1 -8.4 -11.2 -8.7 -10.9 -10.7 -9.05 -10.8 -9.0 Q-12.15 -7.45 -13.0 -5.3 L-12.9 -5.2 Q-12.6 -6.3 -10.9 -8.35 -11.9 -6.95 -12.3 -5.75 L-12.3 -5.7 -12.3 -5.65 -12.45 -5.4 -12.4 -5.45 -12.55 -4.9 M-8.9 -4.45 L-7.15 -5.3 Q-5.3 -6.1 -4.35 -6.9 -3.6 -7.6 -2.95 -9.05 L-2.9 -9.2 Q-2.45 -10.45 -1.8 -10.95 -1.7 -11.55 -0.8 -11.9 L-0.45 -12.15 -0.3 -11.95 -0.6 -11.8 -1.65 -10.75 -1.7 -10.75 -2.6 -9.05 -2.7 -8.9 -4.0 -6.95 Q-4.8 -6.05 -6.8 -5.2 L-9.4 -4.15 -8.9 -4.45 M-0.55 -12.3 L-1.45 -11.85 -3.75 -9.05 -4.05 -8.7 -4.3 -8.3 -4.3 -8.2 -4.5 -8.0 Q-5.5 -6.6 -6.6 -5.85 L-6.8 -5.9 Q-5.6 -6.85 -4.9 -7.6 L-6.15 -6.5 -6.2 -6.55 Q-4.5 -7.95 -4.4 -8.5 L-4.3 -8.5 -3.95 -8.95 -3.9 -9.05 -3.45 -9.75 -3.75 -9.2 -2.9 -10.45 -1.7 -11.85 -0.75 -12.5 -0.55 -12.3 M1.85 -10.15 L0.75 -11.0 0.9 -11.05 Q1.35 -11.1 2.25 -10.2 L3.1 -9.05 3.0 -9.05 2.9 -9.0 2.85 -9.05 1.9 -10.1 1.85 -10.15 M3.1 -10.2 Q1.95 -11.15 0.95 -11.45 L0.9 -11.5 1.3 -11.6 1.4 -11.6 Q0.5 -12.05 0.55 -12.4 L0.6 -12.4 Q1.05 -11.95 3.3 -11.15 L4.95 -9.55 5.4 -9.05 7.65 -6.2 7.65 -6.1 7.4 -6.1 7.3 -6.25 7.1 -6.45 5.0 -9.05 4.8 -9.35 3.2 -10.9 2.4 -11.2 4.0 -9.85 4.7 -9.05 5.75 -7.8 Q6.75 -6.85 7.95 -3.4 L7.85 -3.35 Q6.55 -6.25 5.65 -7.45 L4.3 -9.05 3.6 -9.8 3.1 -10.2 M7.95 -6.65 L6.7 -8.45 6.15 -9.05 Q3.95 -11.25 0.15 -12.65 L0.2 -12.7 Q3.05 -12.0 6.3 -9.05 L6.9 -8.5 8.3 -6.45 Q9.6 -4.35 9.6 -3.6 L9.55 -3.35 9.45 -3.35 8.75 -5.05 8.4 -5.8 7.95 -6.65 M12.55 9.95 L11.45 9.3 11.05 8.75 10.2 6.85 10.2 6.45 10.3 6.45 Q10.25 6.9 11.05 8.6 L13.2 9.95 13.5 10.15 12.9 10.05 12.55 9.95 M10.35 -9.05 L11.45 -6.95 11.9 -6.0 11.9 -6.25 12.0 -6.25 12.25 -5.15 12.45 -4.55 12.45 -4.35 12.55 -4.05 12.55 -3.75 12.5 -3.7 12.25 -4.7 11.45 -6.55 10.3 -9.05 10.1 -9.45 10.15 -9.45 10.35 -9.05 M12.7 8.05 L12.65 7.95 12.7 8.0 12.7 8.05 M10.45 7.9 Q10.55 9.25 11.45 10.45 L11.55 10.55 11.5 10.6 11.45 10.55 Q10.4 9.0 10.35 7.9 L10.45 7.9 M11.85 10.75 L13.5 11.35 13.35 11.35 Q12.75 11.35 11.75 10.75 L11.85 10.75 M11.0 10.5 L11.1 10.5 11.45 11.0 11.7 11.15 11.7 11.25 11.55 11.3 11.0 10.75 11.0 10.5 M-11.65 -5.0 Q-11.65 -5.65 -9.85 -7.35 L-11.6 -4.9 -11.65 -5.0 M-11.6 -2.3 L-11.45 -2.3 -11.4 -2.1 Q-11.4 -1.2 -11.75 0.3 L-11.45 3.8 -11.85 1.95 -11.95 0.25 -11.9 -0.35 -11.75 -1.1 -11.6 -2.3 M-11.45 3.85 L-11.15 6.4 -11.35 9.2 Q-11.35 10.95 -13.0 11.75 L-11.95 10.6 -11.55 9.2 -11.45 6.4 -11.7 4.1 -11.65 4.15 -11.55 4.15 -11.45 3.85 M-12.3 1.4 L-12.35 1.75 -11.6 7.75 Q-11.6 9.65 -13.2 10.95 -11.9 9.8 -11.9 7.8 L-12.65 1.8 -12.65 1.75 -12.5 2.55 -12.45 2.5 -12.65 1.25 -12.55 -0.15 Q-12.45 -1.7 -12.05 -2.05 L-11.95 -1.95 -12.15 -0.95 -12.3 1.3 -12.3 1.4 M-12.8 0.95 L-12.8 1.2 -12.55 5.6 Q-12.55 9.3 -14.55 10.25 L-14.6 10.2 Q-12.7 9.05 -12.7 6.45 L-12.75 5.65 -12.7 4.65 -12.85 1.05 -12.8 0.8 -12.8 0.95 M-14.65 0.5 Q-14.65 -2.2 -13.95 -2.4 -14.45 -1.5 -14.55 0.95 L-14.6 1.0 -14.65 0.5 M-14.65 1.5 L-14.55 1.5 -14.4 5.5 Q-14.4 8.1 -15.45 9.2 L-15.5 9.1 Q-14.5 6.95 -14.5 5.5 -14.5 4.05 -14.65 2.95 L-14.65 1.5 M-14.2 11.55 L-14.9 11.9 -14.95 11.85 -14.2 11.55" fill="#fee1a5" fill-rule="evenodd" stroke="none"/>
    <path d="M12.2 8.55 L12.5 8.55 12.5 8.65 12.55 8.55 12.6 8.55 12.7 8.6 13.15 8.35 13.2 8.35 12.85 8.75 12.7 8.75 13.8 9.85 13.55 10.15 14.05 10.45 14.15 10.35 14.3 10.45 15.0 10.25 15.1 10.2 14.05 9.1 Q13.45 8.9 13.45 8.45 L13.55 8.4 13.8 8.4 13.9 8.55 13.95 8.5 13.95 8.45 14.05 8.5 14.1 8.55 14.7 8.85 15.0 8.75 14.85 8.45 14.8 8.35 14.1 6.45 14.05 5.75 Q14.05 4.65 14.35 3.7 L14.1 3.9 14.05 3.7 14.2 3.4 14.3 2.85 14.3 2.75 14.2 2.3 Q14.2 2.2 14.4 2.2 L14.45 2.15 14.6 2.8 14.6 2.95 14.75 3.25 14.35 5.3 Q14.35 6.35 15.4 8.7 15.4 9.15 14.75 9.15 L14.5 9.15 14.55 9.35 15.5 10.1 Q15.5 10.6 14.75 10.7 L15.3 11.1 15.7 10.95 15.85 11.15 Q15.85 11.45 15.0 11.95 L12.7 12.5 11.85 12.3 11.8 12.3 11.45 12.3 Q10.45 12.05 9.95 10.55 L9.8 10.15 9.85 10.15 9.65 8.05 9.75 5.55 9.95 4.85 9.9 4.4 10.1 3.25 10.55 0.35 9.9 -2.8 Q9.95 -1.75 9.5 -1.75 L9.1 -2.3 9.25 -2.5 9.05 -2.5 8.95 -2.7 8.5 -3.1 8.5 -2.8 8.5 -2.05 8.35 -1.95 8.45 -1.8 Q8.3 -0.15 7.65 1.1 L7.6 1.1 7.35 -2.2 7.45 -2.15 7.55 -2.2 7.7 0.4 Q8.2 -1.2 8.2 -2.75 7.9 -3.9 7.75 -5.15 7.1 -5.5 7.1 -6.45 L7.3 -6.25 7.65 -5.7 7.85 -5.5 8.35 -5.3 Q7.9 -5.9 7.9 -6.5 L7.95 -6.65 8.4 -5.8 8.75 -5.05 8.55 -5.0 8.15 -5.0 8.45 -3.8 9.5 -2.25 9.55 -2.25 9.55 -3.35 9.6 -3.6 9.7 -3.65 Q10.5 -3.65 10.9 0.35 L10.45 3.55 Q9.95 6.05 9.95 8.65 L10.15 10.35 10.25 10.6 10.6 11.15 11.45 11.8 11.95 12.15 12.7 12.25 Q14.6 12.25 15.2 11.35 14.1 11.25 14.0 10.7 L13.25 10.2 12.75 10.25 12.15 10.1 12.15 9.95 12.55 9.95 12.8 10.05 12.9 10.05 13.5 10.15 13.2 9.95 13.45 9.85 Q12.75 9.45 12.45 8.75 L12.45 8.7 12.3 8.75 12.2 8.55 M-14.6 -2.95 L-14.55 -2.95 -14.6 -2.4 -14.85 -0.85 -14.95 -0.5 -14.95 -0.4 -15.3 0.75 -15.65 3.85 -15.55 7.05 Q-15.55 9.05 -16.55 10.0 L-15.8 10.35 -15.55 10.25 -15.65 9.8 -15.65 9.7 -15.6 9.7 -15.3 10.2 -15.35 10.3 -15.3 10.35 -15.25 10.3 -15.25 10.55 -15.25 10.95 -15.3 11.05 Q-14.6 10.8 -14.15 10.1 L-14.0 10.1 -14.0 10.5 -15.2 11.3 -15.4 11.3 -15.85 12.05 -14.7 12.05 -13.7 11.6 -13.55 11.45 Q-13.4 11.55 -13.4 11.75 L-14.25 12.3 -14.3 12.4 -13.75 12.55 -12.9 12.35 -12.95 12.3 Q-11.45 11.9 -11.25 10.45 L-10.85 8.2 Q-11.45 3.3 -11.45 1.1 L-11.4 -1.1 Q-11.3 -2.2 -10.9 -2.75 L-11.65 -2.7 -11.7 -2.85 -11.8 -2.85 -11.8 -2.7 -12.05 -2.7 -12.0 -2.85 Q-5.35 -3.65 -3.5 -5.9 L-3.25 -6.1 -1.65 -8.75 -1.45 -9.05 -1.15 -9.65 0.0 -10.5 0.05 -10.5 0.3 -10.5 1.85 -10.15 1.9 -10.1 2.85 -9.05 2.9 -9.0 3.0 -9.05 3.3 -8.1 3.4 -8.75 3.35 -9.05 2.75 -10.2 2.9 -10.25 3.1 -10.2 3.6 -9.8 3.75 -9.05 Q6.8 -6.95 7.5 -2.5 L7.3 -2.55 7.25 -2.8 7.25 -2.85 7.2 -2.95 6.9 -4.0 6.9 -4.05 6.8 -4.2 5.7 -6.65 4.85 -7.85 Q4.05 -8.4 3.75 -8.7 3.75 -7.55 3.15 -7.5 L2.5 -9.0 2.45 -9.05 Q1.55 -10.1 0.05 -10.1 -0.4 -10.1 -1.05 -9.05 L-1.8 -7.8 -3.2 -5.7 -5.85 -3.95 -6.05 -4.0 -6.2 -3.8 Q-8.1 -3.0 -10.25 -2.8 L-10.35 -2.8 -10.6 -2.75 -10.6 -2.55 -10.85 -2.2 -10.75 -1.9 -10.8 -1.85 -10.9 -1.4 -11.1 -0.9 -11.15 1.15 -10.65 7.35 -10.75 9.25 -10.65 9.65 -10.75 10.3 Q-11.1 11.8 -12.15 12.3 -12.4 12.85 -13.8 12.85 -14.7 12.85 -14.7 12.5 L-14.45 12.3 -14.7 12.3 -16.25 12.3 -16.3 12.15 -15.55 11.2 -15.55 10.8 -15.45 10.55 -15.45 10.5 -15.75 10.6 Q-16.75 10.6 -16.75 10.0 -15.8 8.95 -15.85 7.45 L-15.9 4.85 Q-15.9 1.1 -14.65 -2.95 L-14.6 -2.95 M-12.9 -2.35 L-12.85 -3.25 -12.75 -3.3 -12.65 -2.6 -12.5 -2.8 -12.2 -3.5 -12.1 -3.5 -12.2 -3.45 -12.15 -3.4 -12.05 -3.4 -12.05 -3.25 -12.25 -2.8 -12.05 -2.85 -12.1 -2.7 -12.35 -2.75 -12.55 -2.4 -12.7 -2.4 -12.9 -2.35" fill="#70510a" fill-rule="evenodd" stroke="none"/>
    <path d="M7.55 -2.2 L7.45 -2.15 7.35 -2.2 7.6 1.1 7.2 1.05 3.1 2.1 3.0 1.85 2.5 1.3 2.4 1.25 2.3 1.3 2.3 1.4 Q2.3 2.2 2.85 2.35 L3.1 2.4 3.25 2.4 4.65 1.9 Q5.9 1.4 7.15 1.4 9.15 1.4 9.5 2.35 9.15 1.2 7.65 1.1 8.3 -0.15 8.45 -1.8 L8.35 -1.95 8.5 -2.05 8.5 -2.8 8.5 -3.1 8.95 -2.7 9.05 -2.5 9.25 -2.5 9.1 -2.3 9.5 -1.75 Q9.95 -1.75 9.9 -2.8 L10.55 0.35 10.1 3.25 9.9 4.4 Q9.7 3.9 9.05 3.9 8.05 3.9 8.05 4.9 8.05 5.85 9.05 5.85 L9.75 5.55 9.65 8.05 9.85 10.15 9.8 10.15 9.95 10.55 6.5 12.95 Q3.45 14.5 -0.25 14.5 -3.95 14.5 -7.0 12.95 -9.0 11.95 -10.7 10.35 L-10.75 10.3 -10.65 9.65 -10.35 9.85 -9.6 11.05 -9.15 11.5 Q-8.6 12.05 -8.1 12.1 L-8.0 12.1 Q-7.25 12.85 -6.9 12.85 L-6.65 12.8 -6.45 12.95 -5.9 13.2 -5.7 13.15 -5.9 12.95 -6.35 12.45 -6.65 12.25 -6.3 12.2 -6.3 12.25 -6.05 12.25 -6.05 12.2 -5.7 12.2 -5.7 11.95 -6.8 11.65 -7.45 11.3 -7.55 11.3 -7.55 11.35 -7.65 11.25 -6.0 11.15 -4.75 11.2 -1.95 11.35 0.05 11.35 0.05 11.3 2.2 11.35 3.9 11.15 4.65 11.15 6.3 11.35 6.85 11.35 7.3 11.35 7.5 11.35 Q8.1 11.35 8.15 11.05 L6.5 8.1 5.95 7.25 4.35 5.15 3.7 4.5 Q2.8 3.9 0.25 3.9 -2.6 3.9 -3.75 4.5 L-4.55 5.1 Q-5.35 5.75 -6.55 7.15 L-7.3 8.0 -8.65 9.75 -8.65 9.7 -8.8 9.2 -8.4 8.4 -8.5 8.3 -8.5 8.25 -8.3 7.85 -8.4 7.7 -8.8 8.1 -8.95 8.1 -9.25 8.25 -9.45 7.9 -9.45 7.15 -9.45 6.95 -9.45 6.35 -9.4 6.05 -9.5 5.7 -9.6 4.85 Q-8.25 4.8 -8.25 3.5 -8.25 2.05 -9.45 2.05 L-9.65 2.05 -9.95 0.55 -10.0 -1.35 -9.9 -1.65 Q-8.9 -1.7 -8.9 -2.25 -8.9 -2.75 -9.45 -2.75 L-10.15 -2.7 -10.25 -2.8 Q-8.1 -3.0 -6.2 -3.8 L-6.05 -4.0 -5.85 -3.95 -3.2 -5.7 -1.8 -7.8 -1.05 -9.05 Q-0.4 -10.1 0.05 -10.1 1.55 -10.1 2.45 -9.05 L2.5 -9.0 3.15 -7.5 Q3.75 -7.55 3.75 -8.7 4.05 -8.4 4.85 -7.85 L5.7 -6.65 6.8 -4.2 6.9 -4.05 6.85 -4.0 6.9 -4.0 7.2 -2.95 7.25 -2.85 7.25 -2.8 7.3 -2.55 7.5 -2.5 7.55 -2.45 7.6 -2.25 7.55 -2.2 M10.05 -1.75 L9.95 -1.85 9.65 -1.45 10.05 -1.75 M4.4 0.75 L4.6 0.75 4.6 0.7 4.45 0.65 4.4 0.65 4.4 0.75 M3.7 2.45 L3.7 2.55 4.4 2.8 4.45 2.75 4.45 2.65 3.9 2.45 3.7 2.45 M-10.35 -2.8 L-10.35 -2.65 -10.6 -2.55 -10.6 -2.75 -10.35 -2.8 M-10.9 -1.4 L-11.0 -1.0 -11.05 0.25 -10.95 1.35 -11.05 1.7 -10.85 3.25 -10.85 3.45 -10.85 3.55 -10.95 3.9 -10.55 6.1 -10.55 6.7 -10.65 7.35 -11.15 1.15 -11.1 -0.9 -10.9 -1.4 M-3.05 1.55 L-2.7 1.8 Q-2.4 1.9 -2.05 2.15 L-1.75 2.3 -1.6 2.3 Q-0.75 2.25 -0.75 1.65 L-0.8 1.5 -1.0 1.45 -1.25 1.85 -1.75 1.9 -1.8 1.85 -2.5 1.5 Q-2.9 1.25 -3.15 1.15 L-3.65 0.95 -5.55 0.45 -8.35 0.6 -8.65 0.7 Q-9.2 0.8 -9.2 1.05 L-9.15 1.15 Q-9.05 0.95 -8.65 0.9 L-8.35 0.85 -7.2 0.75 Q-5.15 0.75 -3.8 1.25 L-3.35 1.4 -3.4 1.5 -3.35 1.65 -3.1 1.65 -3.05 1.55 M-0.55 0.8 L-0.7 1.1 -0.65 1.15 -0.4 0.75 -0.45 0.55 -0.65 0.55 -0.65 0.65 -0.55 0.8 M-2.35 2.7 L-2.35 2.6 -3.1 2.45 -3.55 2.5 -2.75 2.7 -2.35 2.7 M-6.8 12.15 Q-6.95 12.05 -7.05 12.0 L-7.0 12.0 -6.8 12.15" fill="#ffddbb" fill-rule="evenodd" stroke="none"/>
    <path d="M4.4 0.75 L4.4 0.65 4.45 0.65 4.6 0.7 4.6 0.75 4.4 0.75 M-3.05 1.55 L-3.1 1.65 -3.35 1.65 -3.4 1.5 -3.35 1.4 -3.1 1.55 -3.05 1.55" fill="#ffffff" fill-rule="evenodd" stroke="none"/>
    <path d="M-8.65 9.75 L-7.3 8.0 -6.55 7.15 Q-5.35 5.75 -4.55 5.1 L-3.75 4.5 Q-2.6 3.9 0.25 3.9 2.8 3.9 3.7 4.5 L4.35 5.15 5.95 7.25 6.5 8.1 8.15 11.05 Q8.1 11.35 7.5 11.35 L7.3 11.35 6.85 11.35 6.3 11.35 4.65 11.15 3.9 11.15 2.2 11.35 0.05 11.3 0.05 11.35 -1.95 11.35 -4.75 11.2 -6.0 11.15 -7.65 11.25 Q-8.7 11.35 -8.95 11.6 L-9.15 11.5 -9.1 11.4 -9.3 11.25 Q-9.35 10.75 -8.65 9.75 M1.05 11.1 L2.25 11.1 4.25 10.85 4.8 10.9 6.45 11.0 7.25 11.15 7.25 11.05 7.85 11.1 6.3 8.45 5.5 7.2 4.3 5.6 3.7 5.0 Q3.15 4.45 2.55 4.35 L-1.05 4.2 -1.05 4.25 Q-3.15 4.45 -3.85 4.95 L-3.95 5.05 -4.65 5.7 -6.35 7.45 -7.05 8.3 -8.45 10.15 -9.0 11.25 -8.9 11.35 Q-8.55 11.1 -7.85 11.0 L-5.95 10.85 -5.0 10.9 -2.75 11.05 -2.6 11.05 -2.2 11.1 -0.4 11.1 -0.3 11.1 -0.05 11.1 0.0 11.15 0.2 11.1 0.25 11.1 0.45 11.25 0.55 11.1 0.85 11.1 0.9 11.15 1.05 11.1 M3.1 7.45 L4.45 8.25 5.85 9.25 Q6.6 9.8 6.6 10.15 L6.55 10.3 6.5 10.25 6.35 10.4 5.25 10.2 2.95 9.8 1.0 9.55 Q0.3 9.2 -0.15 9.2 1.25 9.75 -5.0 9.6 L-5.8 9.9 -6.9 10.05 -7.0 10.0 -7.1 10.0 -7.45 9.65 -7.45 9.75 -7.55 9.75 -7.5 9.65 -7.5 9.5 -6.8 8.75 -6.75 8.75 Q-6.1 8.15 -5.8 8.1 L-4.8 7.45 Q-4.0 7.0 -2.4 7.0 L3.1 7.45 M4.55 8.75 Q2.85 7.4 1.8 7.45 L-2.4 7.3 Q-4.45 7.25 -6.55 8.95 L-7.2 9.5 -6.75 9.85 -6.0 9.65 -5.05 9.4 -0.95 9.2 -0.1 8.9 1.0 9.25 3.1 9.6 5.55 9.75 5.7 9.75 6.0 9.85 5.65 9.6 4.55 8.75" fill="#990000" fill-rule="evenodd" stroke="none"/>
    <path d="M1.15 5.8 L0.7 5.3 0.1 5.2 0.0 5.2 -0.05 5.2 Q-0.65 5.3 -0.65 5.8 L-0.65 5.95 -0.8 5.95 -0.8 6.2 Q-1.0 5.7 -1.35 5.7 L-1.7 5.85 -1.95 5.8 Q-2.0 5.7 -2.1 5.7 L-2.25 5.9 -2.3 5.75 Q-2.75 5.65 -2.55 6.05 L-2.8 6.1 -2.9 5.95 Q-3.25 6.0 -3.25 6.2 L-3.15 6.45 -3.0 6.45 -3.0 6.2 -2.75 6.45 -2.6 6.35 -2.5 6.5 -2.35 6.4 -2.25 6.5 Q-2.25 6.8 -1.95 6.35 L-1.8 6.35 -1.55 6.7 -0.6 6.7 -0.6 6.6 -0.45 6.75 0.2 6.6 0.5 6.45 0.65 6.45 Q0.55 6.8 1.15 6.8 L1.5 6.45 Q1.5 6.8 1.8 6.8 L2.0 6.65 2.35 6.75 3.0 7.15 Q3.45 7.2 3.65 7.4 L4.2 7.65 Q3.4 6.75 2.9 6.65 L2.9 6.45 2.4 6.4 2.35 6.15 1.95 6.2 1.4 5.9 1.15 5.8 M-2.75 11.05 L-5.0 10.9 -5.95 10.85 -7.85 11.0 Q-8.55 11.1 -8.9 11.35 L-9.0 11.25 -8.45 10.15 -7.05 8.3 -6.35 7.45 -4.65 5.7 -3.95 5.05 -3.85 4.95 Q-3.15 4.45 -1.05 4.25 L-1.05 4.2 2.55 4.35 Q3.15 4.45 3.7 5.0 L4.3 5.6 5.5 7.2 6.3 8.45 7.85 11.1 7.25 11.05 7.25 11.15 6.45 11.0 4.8 10.9 4.25 10.85 2.25 11.1 1.05 11.1 1.1 10.95 1.25 11.05 1.7 10.9 2.4 11.05 2.8 10.85 2.55 10.75 2.35 10.85 1.05 10.6 0.8 10.7 0.5 10.45 0.35 10.55 0.15 10.45 0.0 10.55 -0.7 10.35 -1.15 10.8 Q-1.35 10.5 -1.6 10.5 L-1.8 10.55 -1.8 10.8 -2.9 10.75 -3.05 10.85 -2.75 11.05 M3.1 7.45 L-2.4 7.0 Q-4.0 7.0 -4.8 7.45 L-5.8 8.1 Q-6.1 8.15 -6.75 8.75 L-6.8 8.75 -7.5 9.5 -7.5 9.65 -7.55 9.75 -7.45 9.75 -7.45 9.65 -7.1 10.0 -7.0 10.0 -6.9 10.05 -5.8 9.9 -5.0 9.6 Q1.25 9.75 -0.15 9.2 0.3 9.2 1.0 9.55 L2.95 9.8 5.25 10.2 6.35 10.4 6.5 10.25 6.55 10.3 6.6 10.15 Q6.6 9.8 5.85 9.25 L4.45 8.25 3.1 7.45 M-3.05 6.6 L-3.15 6.45 -3.45 6.4 -3.7 6.6 -3.75 6.6 -3.8 6.4 -4.05 6.4 Q-4.1 6.5 -4.45 6.6 L-4.45 6.7 -3.9 6.5 -3.85 6.65 -3.5 6.5 -3.45 6.5 -3.4 6.75 -3.1 6.75 -3.05 6.6" fill="#ff1515" fill-rule="evenodd" stroke="none"/>
    <path d="M1.15 5.8 L1.4 5.9 1.95 6.2 2.35 6.15 2.4 6.4 2.9 6.45 2.9 6.65 Q3.4 6.75 4.2 7.65 L3.65 7.4 Q3.45 7.2 3.0 7.15 L2.35 6.75 2.0 6.65 1.8 6.8 Q1.5 6.8 1.5 6.45 L1.15 6.8 Q0.55 6.8 0.65 6.45 L0.5 6.45 0.2 6.6 -0.45 6.75 -0.6 6.6 -0.6 6.7 -1.55 6.7 -1.8 6.35 -1.95 6.35 Q-2.25 6.8 -2.25 6.5 L-2.35 6.4 -2.5 6.5 -2.6 6.35 -2.75 6.45 -3.0 6.2 -3.0 6.45 -3.15 6.45 -3.25 6.2 Q-3.25 6.0 -2.9 5.95 L-2.8 6.1 -2.55 6.05 Q-2.75 5.65 -2.3 5.75 L-2.25 5.9 -2.1 5.7 Q-2.0 5.7 -1.95 5.8 L-1.7 5.85 -1.35 5.7 Q-1.0 5.7 -0.8 6.2 L-0.8 5.95 -0.65 5.95 -0.65 5.8 Q-0.65 5.3 -0.05 5.2 L0.0 5.2 0.1 5.2 0.7 5.3 1.15 5.8 M1.05 11.1 L0.9 11.15 0.85 11.1 0.65 10.95 0.55 11.1 0.45 11.25 0.25 11.1 0.25 11.05 0.2 11.1 0.0 11.15 -0.05 11.1 -0.15 11.0 -0.3 11.1 -0.4 11.1 -0.65 11.05 -2.6 11.05 -2.75 11.05 -3.05 10.85 -2.9 10.75 -1.8 10.8 -1.8 10.55 -1.6 10.5 Q-1.35 10.5 -1.15 10.8 L-0.7 10.35 0.0 10.55 0.15 10.45 0.35 10.55 0.5 10.45 0.8 10.7 1.05 10.6 2.35 10.85 2.55 10.75 2.8 10.85 2.4 11.05 1.7 10.9 1.25 11.05 1.1 10.95 1.05 11.1 M-3.05 6.6 L-3.1 6.75 -3.4 6.75 -3.45 6.5 -3.5 6.5 -3.85 6.65 -3.9 6.5 -4.45 6.7 -4.45 6.6 Q-4.1 6.5 -4.05 6.4 L-3.8 6.4 -3.75 6.6 -3.7 6.6 -3.45 6.4 -3.15 6.45 -3.05 6.6 M-0.9 10.65 L-0.95 10.65 -1.0 10.8 -0.9 10.8 -0.9 10.65" fill="#ffa4a4" fill-rule="evenodd" stroke="none"/>
    <path d="M4.55 8.75 L5.65 9.6 6.0 9.85 5.7 9.75 5.55 9.75 3.1 9.6 1.0 9.25 -0.1 8.9 -0.95 9.2 -5.05 9.4 -6.0 9.65 -6.75 9.85 -7.2 9.5 -6.55 8.95 Q-4.45 7.25 -2.4 7.3 L1.8 7.45 Q2.85 7.4 4.55 8.75" fill="#770000" fill-rule="evenodd" stroke="none"/>
    <path d="M12.5 8.55 L11.6 6.15 11.6 5.85 11.7 5.85 12.55 8.55 12.5 8.65 12.5 8.55 M13.15 8.35 L12.15 6.2 12.0 5.25 12.05 4.65 12.15 4.65 12.15 4.85 12.15 4.9 Q12.2 6.4 13.4 8.4 L13.25 8.5 13.2 8.35 13.15 8.35 M-0.5 -12.25 L-0.55 -12.3 -0.75 -12.5 -0.8 -12.6 -0.55 -12.85 Q0.05 -12.9 0.05 -12.4 0.05 -12.15 -0.2 -12.15 L-0.5 -12.25 M0.0 -10.5 L-0.05 -10.75 0.05 -10.95 0.0 -11.05 -0.3 -11.4 -0.3 -11.45 -0.15 -11.5 -0.1 -11.55 -0.05 -11.55 Q0.4 -11.55 0.4 -10.9 L0.25 -10.65 0.0 -10.5" fill="#fdad06" fill-rule="evenodd" stroke="none"/>
    <path d="M9.9 4.4 L9.95 4.85 9.75 5.55 9.05 5.85 Q8.05 5.85 8.05 4.9 8.05 3.9 9.05 3.9 9.7 3.9 9.9 4.4 M-10.25 -2.8 L-10.15 -2.7 -9.45 -2.75 Q-8.9 -2.75 -8.9 -2.25 -8.9 -1.7 -9.9 -1.65 L-10.0 -1.35 -9.95 0.55 -9.65 2.05 -9.45 2.05 Q-8.25 2.05 -8.25 3.5 -8.25 4.8 -9.6 4.85 L-9.5 5.7 -9.4 6.05 -9.45 6.35 -9.45 6.95 -9.45 7.15 -9.45 7.9 -9.25 8.25 -8.95 8.1 -8.8 8.1 -8.4 7.7 -8.3 7.85 -8.5 8.25 -8.5 8.3 -8.4 8.4 -8.8 9.2 -8.65 9.7 -8.65 9.75 Q-9.35 10.75 -9.3 11.25 L-9.1 11.4 -9.15 11.5 -8.95 11.6 Q-8.7 11.35 -7.65 11.25 L-7.55 11.35 -7.55 11.3 -7.45 11.3 -6.8 11.65 -5.7 11.95 -5.7 12.2 -6.05 12.2 -6.05 12.25 -6.3 12.25 -6.3 12.2 -6.65 12.25 -6.35 12.45 -5.9 12.95 -5.7 13.15 -5.9 13.2 -6.45 12.95 -6.65 12.8 -6.9 12.85 Q-7.25 12.85 -8.0 12.1 L-8.1 12.1 Q-8.6 12.05 -9.15 11.5 L-9.6 11.05 -10.35 9.85 -10.65 9.65 -10.75 9.25 -10.65 7.35 -10.55 6.7 -10.55 6.1 -10.95 3.9 -10.85 3.55 -10.85 3.45 -10.85 3.25 -11.05 1.7 -10.95 1.35 -11.05 0.25 -11.0 -1.0 -10.9 -1.4 -10.8 -1.85 -10.75 -1.9 -10.85 -2.2 -10.6 -2.55 -10.35 -2.65 -10.35 -2.8 -10.25 -2.8 M-6.8 12.15 L-7.0 12.0 -7.05 12.0 Q-6.95 12.05 -6.8 12.15" fill="#ffb99b" fill-rule="evenodd" stroke="none"/>
    <path d="M-14.15 8.25 Q-13.1 6.35 -13.1 4.65 L-13.35 0.2 Q-13.35 -2.0 -12.9 -2.35 L-12.7 -2.4 -12.55 -2.4 -12.45 -2.2 -12.45 -2.0 -12.55 -1.25 -12.35 -2.2 -12.2 -2.35 -12.15 -2.3 -12.05 -2.05 Q-12.45 -1.7 -12.55 -0.15 L-12.7 0.3 -12.65 1.25 -12.45 2.5 -12.5 2.55 -12.65 1.75 -12.8 0.95 -12.8 0.8 -12.85 1.05 -12.7 4.65 -12.75 5.65 -13.05 6.8 Q-13.9 8.5 -14.2 8.65 L-14.25 8.5 -14.25 8.45 -14.15 8.25 M-10.3 -3.8 L-10.4 -3.85 Q-7.1 -6.4 -6.05 -7.8 L-5.1 -9.05 -2.75 -11.9 -2.55 -11.7 Q-2.55 -11.25 -3.45 -10.05 L-4.2 -9.05 -5.55 -7.55 -7.7 -5.45 -8.9 -4.45 -9.4 -4.15 -9.5 -4.05 -10.2 -3.7 -10.3 -3.75 -10.3 -3.8 M-4.7 -11.0 L-4.7 -10.95 Q-4.7 -10.45 -5.95 -9.05 -7.6 -7.4 -11.3 -4.35 L-11.4 -4.4 -11.5 -4.3 -11.55 -4.45 -8.1 -8.55 -7.75 -9.05 Q-7.1 -10.05 -5.9 -10.85 L-3.6 -12.5 -3.45 -12.45 -7.2 -9.05 -7.85 -8.35 -9.7 -6.25 -11.15 -4.65 Q-8.45 -6.85 -6.45 -9.05 L-5.35 -10.45 -4.8 -11.2 -4.7 -11.0 M-6.65 -12.0 L-6.65 -11.85 Q-8.5 -10.7 -9.8 -9.05 -11.7 -6.75 -12.45 -3.45 L-12.6 -3.45 -12.65 -4.15 -12.55 -4.9 -12.4 -5.45 -12.3 -5.65 -12.3 -5.7 -12.3 -5.75 Q-11.9 -6.95 -10.9 -8.35 L-10.85 -8.45 -10.4 -9.05 -9.05 -10.6 -8.7 -10.9 -8.4 -11.2 Q-7.35 -12.15 -6.9 -12.15 L-6.7 -12.1 -6.65 -12.1 -6.65 -12.0 M-13.3 -2.3 L-13.75 -1.35 -14.2 0.05 -14.0 4.35 -14.05 5.2 -14.15 5.2 -14.4 1.85 -14.25 -0.55 -13.35 -2.6 -13.3 -2.65 -13.2 -2.55 -13.3 -2.3 M-0.45 -12.15 L-0.5 -12.25 -0.2 -12.15 Q0.05 -12.15 0.05 -12.4 0.05 -12.9 -0.55 -12.85 L-0.8 -12.6 -1.15 -13.35 -0.9 -13.7 Q-0.3 -13.7 0.2 -12.4 L0.6 -10.85 Q0.6 -10.5 0.3 -10.5 L0.25 -10.65 0.4 -10.9 Q0.4 -11.55 -0.05 -11.55 L-0.1 -11.55 -0.3 -11.95 -0.45 -12.15 M-11.8 -2.7 L-11.8 -2.85 -11.7 -2.85 -11.65 -2.7 -11.6 -2.45 -11.6 -2.3 -11.75 -1.1 -11.9 -0.35 -12.05 0.1 -11.85 1.95 -11.45 3.8 -11.45 3.85 -11.55 4.15 -11.65 4.15 -11.7 4.1 -11.7 4.05 -11.7 3.95 Q-12.3 2.4 -12.3 1.4 L-12.3 1.3 -12.15 -0.95 -11.95 -1.95 -11.8 -2.7" fill="#fdba2f" fill-rule="evenodd" stroke="none"/>
    <path d="M14.0 -3.55 Q13.25 -6.15 11.45 -8.35 L10.85 -9.05 10.3 -9.65 10.15 -9.75 Q6.05 -13.7 0.35 -13.9 L-0.25 -13.9 Q-6.35 -13.9 -10.7 -9.75 L-11.35 -9.05 -12.5 -7.6 Q-14.05 -5.5 -14.6 -2.95" fill="none" stroke="#a27202" stroke-linecap="round" stroke-linejoin="round" stroke-width="0.5"/>
    <path d="M14.4 2.2 L14.5 0.3 Q14.5 -1.6 14.05 -3.3 M-10.75 10.3 L-10.7 10.35 Q-9.0 11.95 -7.0 12.95 -3.95 14.5 -0.25 14.5 3.45 14.5 6.5 12.95 L9.95 10.55" fill="none" stroke="#865204" stroke-linecap="round" stroke-linejoin="round" stroke-width="0.5"/>
  </g>
</svg>
