<?xml version="1.0" encoding="UTF-8" standalone="no"?>
<svg xmlns:xlink="http://www.w3.org/1999/xlink" height="29.5px" width="32.6px" xmlns="http://www.w3.org/2000/svg">
  <g transform="matrix(1.0, 0.0, 0.0, 1.0, 16.75, 14.75)">
    <path d="M7.3 -6.65 L7.4 -6.5 7.65 -6.5 7.65 -6.6 5.4 -9.5 4.95 -10.05 3.3 -11.65 Q1.05 -12.5 0.6 -12.95 L0.55 -12.95 Q0.5 -12.6 1.4 -12.15 L1.3 -12.15 0.9 -12.05 0.95 -12.0 3.1 -10.7 2.9 -10.75 2.75 -10.7 3.35 -9.5 3.4 -9.2 3.3 -8.6 3.0 -9.5 3.1 -9.5 2.25 -10.7 Q1.35 -11.55 0.9 -11.55 L0.75 -11.5 1.85 -10.65 0.3 -11.0 Q0.6 -11.0 0.6 -11.35 L0.2 -12.95 Q-0.3 -14.25 -0.9 -14.25 L-1.15 -13.95 -0.8 -13.2 -0.75 -13.1 -1.7 -12.35 -2.9 -10.95 -3.75 -9.7 -3.45 -10.25 -3.9 -9.5 -3.95 -9.4 -4.3 -8.95 -4.4 -8.95 Q-4.5 -8.45 -6.2 -6.9 L-6.15 -6.85 -6.8 -6.3 -6.6 -6.25 Q-5.5 -7.0 -4.5 -8.5 L-4.3 -8.65 -4.3 -8.8 -4.05 -9.15 -3.75 -9.5 -1.45 -12.4 -0.55 -12.8 -0.5 -12.75 -0.45 -12.7 -0.8 -12.45 Q-1.7 -12.05 -1.8 -11.45 -2.45 -10.95 -2.9 -9.7 L-2.95 -9.5 Q-3.6 -8.0 -4.35 -7.3 -5.3 -6.45 -7.15 -5.7 L-8.9 -4.85 -7.7 -5.85 Q-6.95 -6.45 -5.55 -8.0 L-4.2 -9.5 -3.45 -10.55 -3.55 -10.3 -3.5 -10.3 -2.5 -12.0 Q-2.0 -13.0 -1.25 -13.25 L-1.15 -13.3 -1.2 -13.3 -1.2 -13.35 -1.15 -13.55 Q-1.15 -13.8 -1.65 -13.8 L-1.7 -13.85 -1.95 -13.85 Q-4.55 -13.6 -6.7 -12.65 L-6.9 -12.65 Q-7.35 -12.65 -8.4 -11.7 L-10.9 -9.6 -10.95 -9.5 -12.75 -6.7 -13.9 -4.05 -13.8 -3.5 -13.75 -3.55 -13.15 -5.4 -13.1 -5.3 -13.0 -5.35 -12.95 -5.4 -13.0 -5.15 Q-13.35 -4.35 -13.35 -2.95 L-14.25 -0.85 -14.4 1.6 -14.15 5.05 -14.05 5.05 -14.0 4.15 -14.2 -0.25 -13.75 -1.65 -13.3 -2.65 -13.25 -2.15 -13.2 -2.2 -12.55 -5.3 -12.65 -4.5 -12.6 -3.8 -12.45 -3.8 Q-11.7 -7.2 -9.8 -9.5 -8.5 -11.15 -6.65 -12.35 L-6.65 -12.55 -2.3 -13.65 Q-5.9 -12.65 -7.75 -10.9 L-8.9 -9.5 -10.4 -7.4 -10.35 -7.35 -8.55 -9.5 Q-5.8 -12.5 -2.25 -13.65 L-2.3 -13.6 -2.15 -13.4 Q-5.1 -12.05 -6.55 -9.85 L-5.35 -10.95 -6.45 -9.5 Q-8.45 -7.3 -11.15 -5.05 L-9.7 -6.65 -7.85 -8.8 -7.2 -9.5 -3.45 -13.0 -3.6 -13.05 -5.9 -11.35 -7.75 -9.5 -8.1 -9.0 -11.55 -4.85 -11.5 -4.65 -11.4 -4.8 -11.3 -4.75 Q-7.6 -7.85 -5.95 -9.5 -4.7 -10.95 -4.7 -11.45 L-4.7 -11.5 -2.1 -13.35 -1.7 -13.3 -2.55 -12.25 -2.75 -12.4 -5.1 -9.5 -6.05 -8.3 Q-7.1 -6.8 -10.4 -4.25 L-10.3 -4.15 -10.5 -4.1 -11.7 -3.65 -11.65 -3.5 -11.4 -3.45 -6.85 -4.8 -3.5 -6.3 Q-5.35 -4.05 -12.0 -3.15 L-11.95 -3.3 -12.05 -3.15 -12.25 -3.15 -12.05 -3.6 -12.05 -3.8 Q-7.65 -6.2 -5.15 -9.5 L-3.75 -11.9 -5.35 -9.5 -6.95 -7.75 Q-10.8 -4.55 -12.1 -3.85 L-12.2 -3.85 -12.5 -3.15 -12.55 -3.15 -12.5 -3.1 -12.65 -2.95 -12.75 -3.65 -12.85 -3.6 -12.9 -2.65 Q-13.35 -2.35 -13.35 -0.1 L-13.1 4.45 Q-13.1 6.15 -14.15 8.15 -13.7 6.85 -13.7 5.55 L-13.9 1.85 Q-13.9 0.0 -13.3 -1.65 -13.95 -1.1 -13.95 0.2 L-14.1 1.95 -13.9 3.8 -13.85 5.9 Q-13.85 7.75 -15.3 10.15 L-15.6 9.6 -15.65 9.6 -15.65 9.7 -15.55 10.2 -15.8 10.25 -16.55 9.95 Q-15.55 8.95 -15.55 6.95 L-15.65 3.65 -15.3 0.5 -14.95 -0.7 -14.95 -0.8 -14.85 -1.15 -14.6 -2.75 -14.55 -3.3 -14.6 -3.3 Q-14.05 -5.9 -12.5 -8.1 L-11.35 -9.5 -10.7 -10.25 Q-6.35 -14.5 -0.25 -14.5 L0.35 -14.5 Q6.05 -14.25 10.15 -10.25 L10.3 -10.15 10.85 -9.5 11.45 -8.8 Q13.25 -6.55 14.0 -3.9 L13.75 -3.95 13.8 -3.6 14.05 -3.65 Q14.5 -1.9 14.5 0.0 L14.4 1.95 14.2 2.1 14.3 2.6 14.3 2.65 14.2 3.2 14.05 3.5 14.1 3.7 14.35 3.5 Q14.05 4.45 14.05 5.6 L14.1 6.25 Q13.6 4.55 13.6 3.4 L14.0 -0.3 12.25 -6.15 12.15 -6.05 13.1 -3.2 Q13.7 -1.5 13.7 -0.3 L13.5 1.95 Q13.5 -0.3 13.05 -2.2 L12.05 -4.55 11.45 -5.75 11.35 -5.9 9.5 -9.2 9.3 -9.5 Q7.25 -12.7 6.15 -12.7 L5.95 -12.7 5.95 -12.55 Q7.35 -11.7 8.9 -9.5 L11.1 -6.1 11.0 -6.1 11.3 -5.7 11.35 -5.65 11.45 -5.5 Q13.4 -2.6 13.4 2.1 L13.35 3.15 13.3 3.35 13.3 3.45 13.05 5.55 Q13.05 7.4 13.8 8.3 L13.55 8.3 13.45 8.35 Q13.45 8.8 14.05 9.0 L15.1 10.1 15.0 10.15 14.3 10.35 14.15 10.25 14.05 10.35 13.55 10.1 13.8 9.75 12.7 8.65 12.85 8.65 13.2 8.25 13.25 8.4 13.4 8.3 Q12.2 6.2 12.15 4.7 L12.15 4.65 12.45 0.55 Q12.45 -2.5 11.45 -4.35 L11.4 -4.5 8.4 -9.2 8.15 -9.5 6.45 -11.45 Q4.35 -13.55 3.05 -13.55 L2.9 -13.55 Q5.9 -12.0 7.8 -9.5 L8.1 -9.15 11.1 -4.85 11.05 -4.8 11.45 -3.95 Q12.25 -2.0 12.25 0.55 L11.95 4.65 Q11.95 7.0 12.6 7.8 L12.15 6.25 12.15 6.05 Q12.4 6.95 13.15 8.25 L12.7 8.5 12.6 8.45 12.55 8.45 11.7 5.7 11.6 5.7 11.6 5.95 12.5 8.45 12.2 8.45 Q11.7 7.7 11.45 6.8 11.1 5.7 11.1 4.3 L11.4 -0.45 Q11.4 -2.05 11.0 -3.2 9.25 -7.2 7.4 -9.0 L6.85 -9.5 4.6 -11.6 Q1.75 -13.9 0.5 -13.9 L0.35 -13.85 4.4 -11.4 7.15 -8.75 9.4 -5.9 10.5 -3.9 Q11.25 -1.95 11.25 -0.45 L10.95 5.0 Q10.95 6.75 11.45 7.9 11.95 9.0 12.9 9.55 L12.95 9.4 12.3 8.65 12.45 8.6 12.45 8.65 Q12.75 9.35 13.45 9.75 L13.2 9.9 11.05 8.5 Q10.25 6.8 10.3 6.25 L10.2 6.25 10.2 6.7 11.05 8.65 11.45 9.2 12.55 9.9 12.15 9.9 12.15 10.05 12.75 10.15 13.25 10.15 14.0 10.6 Q14.1 11.2 15.2 11.35 14.6 12.25 12.7 12.25 L11.95 12.15 11.95 12.1 11.45 11.8 10.6 11.1 10.25 10.5 10.15 10.25 9.95 8.55 Q9.95 5.85 10.45 3.35 L10.9 0.05 Q10.5 -4.0 9.7 -4.0 L9.6 -4.0 Q9.6 -4.75 8.3 -6.8 L6.9 -8.95 6.3 -9.5 Q3.05 -12.5 0.2 -13.3 L0.15 -13.25 Q3.95 -11.7 6.15 -9.5 L6.7 -8.9 7.95 -7.0 7.9 -6.85 Q7.9 -6.3 8.35 -5.7 L7.85 -5.9 7.65 -6.1 7.3 -6.65 M3.6 -10.3 L4.3 -9.5 5.65 -7.9 7.85 -3.7 7.95 -3.75 Q6.75 -7.3 5.75 -8.3 L4.7 -9.5 4.0 -10.35 2.4 -11.65 3.2 -11.4 4.8 -9.85 5.0 -9.5 7.1 -6.85 Q7.1 -5.9 7.75 -5.55 7.9 -4.3 8.2 -3.1 8.2 -1.5 7.7 0.15 L7.55 -2.55 7.6 -2.6 7.55 -2.8 7.5 -2.8 Q6.8 -7.4 3.75 -9.5 L3.6 -10.3 M8.75 -5.45 L9.45 -3.7 9.55 -3.7 9.55 -2.6 9.5 -2.6 8.45 -4.2 8.15 -5.4 8.55 -5.4 8.75 -5.45 M0.25 -11.15 L0.3 -11.0 0.05 -11.0 0.0 -11.0 0.25 -11.15 M-0.15 -12.05 L-0.3 -12.0 -0.3 -11.9 -0.5 -11.75 -0.55 -11.85 Q-1.35 -11.5 -2.25 -9.5 L-2.3 -9.45 -3.85 -6.8 Q-4.3 -6.25 -5.45 -5.85 L-7.4 -5.3 -9.35 -4.45 -9.5 -4.4 -9.4 -4.5 -6.8 -5.6 Q-4.8 -6.45 -4.0 -7.35 L-2.7 -9.35 -2.6 -9.5 -1.7 -11.25 -1.65 -11.25 -0.6 -12.35 -0.3 -12.45 -0.1 -12.1 -0.15 -12.05 M0.0 -11.55 L0.05 -11.45 -0.05 -11.25 0.0 -11.0 -1.15 -10.15 -0.5 -11.45 0.0 -11.55 M10.35 -9.5 L10.15 -9.95 10.1 -9.95 10.3 -9.5 11.45 -6.9 12.25 -5.1 12.5 -4.1 12.55 -4.15 12.55 -4.4 12.45 -4.75 12.45 -4.95 12.25 -5.55 12.0 -6.65 11.9 -6.65 11.9 -6.4 11.45 -7.4 10.35 -9.5 M13.95 8.35 Q13.15 6.75 13.15 5.5 L13.35 3.9 Q13.45 4.7 13.9 6.1 L14.8 8.45 14.85 8.4 14.85 8.35 15.0 8.65 14.7 8.75 14.1 8.45 14.05 8.4 13.95 8.35 M12.7 7.95 L12.7 7.9 12.65 7.85 12.7 7.95 M10.45 7.8 L10.35 7.8 Q10.4 8.9 11.45 10.45 L11.5 10.55 11.55 10.5 11.45 10.4 Q10.55 9.15 10.45 7.8 M11.1 10.4 L11.0 10.4 11.0 10.7 11.55 11.25 11.7 11.2 11.7 11.1 11.45 10.9 11.1 10.4 M11.85 10.7 L11.75 10.7 Q12.75 11.3 13.35 11.35 L13.5 11.3 11.85 10.7 M12.9 10.0 L12.8 10.0 12.55 9.9 12.9 10.0 M-10.9 -8.8 Q-12.6 -6.65 -12.9 -5.6 L-13.0 -5.7 Q-12.15 -7.85 -10.8 -9.45 L-10.7 -9.5 -8.7 -11.4 -9.05 -11.1 -10.4 -9.5 -10.85 -8.9 -10.9 -8.8 M-12.4 -5.85 L-12.45 -5.8 -12.3 -6.05 -12.4 -5.85 M-11.65 -5.4 L-11.6 -5.3 -9.85 -7.8 Q-11.65 -6.0 -11.65 -5.4 M-11.65 -3.05 L-10.9 -3.05 Q-11.3 -2.5 -11.4 -1.4 L-11.45 0.8 Q-11.45 3.1 -10.85 8.1 L-11.25 10.35 Q-11.45 11.9 -12.95 12.35 L-12.9 12.4 -13.75 12.55 -14.3 12.45 -14.25 12.35 -13.4 11.7 Q-13.4 11.5 -13.55 11.4 L-13.7 11.6 -14.7 12.0 -15.85 12.0 -15.4 11.25 -15.2 11.25 -14.0 10.4 -14.0 10.05 -14.15 10.05 Q-14.6 10.75 -15.3 10.95 L-15.25 10.9 -15.25 10.5 -15.25 10.25 -14.25 8.4 -14.2 8.55 -13.05 6.65 -12.75 5.45 -12.7 6.25 Q-12.7 8.95 -14.6 10.1 L-14.55 10.15 Q-12.55 9.2 -12.55 5.45 L-12.8 0.9 -12.8 0.65 -12.65 1.5 -12.65 1.55 -11.9 7.7 Q-11.9 9.7 -13.2 10.9 -11.6 9.55 -11.6 7.7 L-12.35 1.5 -12.3 1.1 Q-12.3 2.15 -11.7 3.75 L-11.7 3.85 -11.7 3.9 -11.45 6.2 -11.55 9.1 -11.95 10.55 -13.0 11.7 Q-11.35 10.9 -11.35 9.1 L-11.15 6.2 -11.45 3.65 -11.45 3.6 -11.75 0.0 Q-11.4 -1.5 -11.4 -2.45 L-11.45 -2.65 -11.6 -2.6 -11.6 -2.8 -11.65 -3.05 M-11.9 -0.65 L-11.95 -0.05 -11.85 1.75 -12.05 -0.2 -11.9 -0.65 M-12.3 -2.55 L-12.35 -2.55 -12.35 -2.45 -12.45 -2.25 -12.45 -2.55 -12.55 -2.7 -12.35 -3.05 -12.1 -3.05 -12.3 -2.55 M-12.05 -2.4 L-12.15 -2.65 -12.05 -3.05 -11.8 -3.05 -11.95 -2.2 -12.05 -2.4 M-12.55 -0.45 L-12.65 0.95 -12.7 0.0 -12.55 -0.45 M-14.65 1.2 L-14.65 2.75 Q-14.5 3.85 -14.5 5.35 -14.5 6.8 -15.5 9.0 L-15.45 9.1 Q-14.4 8.0 -14.4 5.35 L-14.55 1.2 -14.65 1.2 M-14.65 0.25 L-14.6 0.7 -14.55 0.65 Q-14.45 -1.8 -13.95 -2.75 -14.65 -2.5 -14.65 0.25 M-14.9 11.85 L-14.1 11.45 -14.95 11.8 -14.9 11.85" fill="#fdc551" fill-rule="evenodd" stroke="none"/>
    <path d="M14.05 -3.65 L13.8 -3.6 13.75 -3.95 14.0 -3.9 14.2 -3.85 14.05 -3.65 M7.65 0.8 Q9.15 0.95 9.5 2.1 9.15 1.15 7.15 1.15 5.9 1.15 4.65 1.7 L3.25 2.15 3.1 2.2 2.85 2.15 Q2.3 1.95 2.3 1.15 L2.3 1.05 2.4 1.0 2.5 1.0 3.0 1.6 3.1 1.9 7.2 0.8 7.6 0.8 7.65 0.8 M9.65 -1.75 L9.95 -2.1 10.05 -2.0 9.65 -1.75 M3.7 2.25 L3.9 2.25 4.45 2.45 4.45 2.6 4.4 2.65 3.7 2.35 3.7 2.25 M-0.4 0.5 L-0.65 0.9 -0.7 0.85 -0.55 0.55 -0.65 0.4 -0.65 0.3 -0.45 0.3 -0.4 0.5 M-3.35 1.15 L-3.8 0.95 -7.2 0.5 -8.35 0.55 -8.65 0.6 -9.15 0.9 -9.2 0.8 Q-9.2 0.55 -8.65 0.45 L-8.35 0.35 -5.55 0.2 -3.65 0.7 -3.15 0.9 -2.5 1.2 -1.8 1.65 -1.75 1.7 -1.25 1.55 -1.0 1.2 -0.8 1.25 -0.75 1.4 Q-0.75 2.0 -1.6 2.1 L-1.75 2.1 -2.05 1.9 -2.7 1.5 -3.05 1.3 -3.1 1.3 -3.35 1.15 M-2.35 2.5 L-2.75 2.5 -3.55 2.3 -3.1 2.25 -2.35 2.4 -2.35 2.5" fill="#000000" fill-rule="evenodd" stroke="none"/>
    <path d="M3.1 -10.7 L0.95 -12.0 0.9 -12.05 1.3 -12.15 1.4 -12.15 Q0.5 -12.6 0.55 -12.95 L0.6 -12.95 Q1.05 -12.5 3.3 -11.65 L4.95 -10.05 5.4 -9.5 7.65 -6.6 7.65 -6.5 7.4 -6.5 7.3 -6.65 7.1 -6.85 5.0 -9.5 4.8 -9.85 3.2 -11.4 2.4 -11.65 4.0 -10.35 4.7 -9.5 5.75 -8.3 Q6.75 -7.3 7.95 -3.75 L7.85 -3.7 5.65 -7.9 4.3 -9.5 3.6 -10.3 3.1 -10.7 M7.95 -7.0 L6.7 -8.9 6.15 -9.5 Q3.95 -11.7 0.15 -13.25 L0.2 -13.3 Q3.05 -12.5 6.3 -9.5 L6.9 -8.95 8.3 -6.8 Q9.6 -4.75 9.6 -4.0 L9.6 -3.95 9.55 -3.7 9.45 -3.7 8.75 -5.45 8.4 -6.2 7.95 -7.0 M12.55 9.9 L11.45 9.2 11.05 8.65 10.2 6.7 10.2 6.25 10.3 6.25 Q10.25 6.8 11.05 8.5 L13.2 9.9 13.5 10.1 12.9 10.0 12.55 9.9 M12.3 8.65 L12.95 9.4 12.9 9.55 Q11.95 9.0 11.45 7.9 10.95 6.75 10.95 5.0 L11.25 -0.45 Q11.25 -1.95 10.5 -3.9 L9.4 -5.9 7.15 -8.75 4.4 -11.4 0.35 -13.85 0.5 -13.9 Q1.75 -13.9 4.6 -11.6 L6.85 -9.5 7.4 -9.0 Q9.25 -7.2 11.0 -3.2 11.4 -2.05 11.4 -0.45 L11.1 4.3 Q11.1 5.7 11.45 6.8 11.7 7.7 12.2 8.45 L12.3 8.65 M12.15 6.05 L12.15 6.25 12.6 7.8 Q11.95 7.0 11.95 4.65 L12.25 0.55 Q12.25 -2.0 11.45 -3.95 L11.05 -4.8 11.1 -4.85 8.1 -9.15 7.8 -9.5 Q5.9 -12.0 2.9 -13.55 L3.05 -13.55 Q4.35 -13.55 6.45 -11.45 L8.15 -9.5 8.4 -9.2 11.4 -4.5 11.45 -4.35 Q12.45 -2.5 12.45 0.55 L12.15 4.65 12.15 4.45 12.05 4.45 12.0 5.1 12.15 6.05 M13.8 8.3 Q13.05 7.4 13.05 5.55 L13.3 3.45 13.3 3.35 13.35 3.15 13.4 2.1 Q13.4 -2.6 11.45 -5.5 L11.35 -5.65 11.3 -5.7 11.0 -6.1 11.1 -6.1 8.9 -9.5 Q7.35 -11.7 5.95 -12.55 L5.95 -12.7 6.15 -12.7 Q7.25 -12.7 9.3 -9.5 L9.5 -9.2 11.35 -5.9 11.45 -5.75 12.05 -4.55 13.05 -2.2 Q13.5 -0.3 13.5 1.95 L13.7 -0.3 Q13.7 -1.5 13.1 -3.2 L12.15 -6.05 12.25 -6.15 14.0 -0.3 13.6 3.4 Q13.6 4.55 14.1 6.25 L14.8 8.25 14.85 8.35 14.85 8.4 14.8 8.45 13.9 6.1 Q13.45 4.7 13.35 3.9 L13.15 5.5 Q13.15 6.75 13.95 8.35 L13.95 8.4 13.9 8.45 13.8 8.3 M-15.3 10.15 Q-13.85 7.75 -13.85 5.9 L-13.9 3.8 -14.1 1.95 -13.95 0.2 Q-13.95 -1.1 -13.3 -1.65 -13.9 0.0 -13.9 1.85 L-13.7 5.55 Q-13.7 6.85 -14.15 8.15 L-14.25 8.35 -14.25 8.4 -15.25 10.25 -15.3 10.25 -15.35 10.2 -15.3 10.15 M-12.1 -3.85 Q-10.8 -4.55 -6.95 -7.75 L-5.35 -9.5 -3.75 -11.9 -5.15 -9.5 Q-7.65 -6.2 -12.05 -3.8 L-12.15 -3.75 -12.2 -3.8 -12.1 -3.85 M-12.05 -3.15 L-11.95 -3.3 -12.0 -3.15 -12.05 -3.05 -12.15 -2.65 -12.2 -2.7 -12.3 -2.55 -12.1 -3.05 -12.05 -3.15 M-3.5 -6.3 L-6.85 -4.8 -11.4 -3.45 -11.65 -3.5 -11.7 -3.65 -10.5 -4.1 -10.3 -4.15 -10.2 -4.1 -9.5 -4.4 -9.35 -4.45 -7.4 -5.3 -5.45 -5.85 Q-4.3 -6.25 -3.85 -6.8 L-2.3 -9.45 -2.25 -9.5 Q-1.35 -11.5 -0.55 -11.85 L-0.5 -11.75 -0.3 -11.9 0.0 -11.55 -0.5 -11.45 -1.15 -10.15 -1.45 -9.5 -1.65 -9.2 Q-2.8 -7.1 -3.25 -6.5 L-3.5 -6.3 M-2.55 -12.25 L-1.7 -13.3 -2.1 -13.35 -4.7 -11.5 -4.8 -11.7 -5.35 -10.95 -6.55 -9.85 Q-5.1 -12.05 -2.15 -13.4 L-2.3 -13.6 -2.25 -13.65 Q-5.8 -12.5 -8.55 -9.5 L-10.35 -7.35 -10.4 -7.4 -8.9 -9.5 -7.75 -10.9 Q-5.9 -12.65 -2.3 -13.65 L-6.65 -12.55 -6.65 -12.6 -6.7 -12.65 Q-4.55 -13.6 -1.95 -13.85 L-1.7 -13.85 -1.65 -13.8 Q-1.15 -13.8 -1.15 -13.55 L-1.2 -13.35 -1.2 -13.3 -1.15 -13.3 -1.25 -13.25 Q-2.0 -13.0 -2.5 -12.0 L-3.5 -10.3 -3.55 -10.3 -3.45 -10.55 Q-2.55 -11.75 -2.55 -12.2 L-2.55 -12.25 M-12.55 -5.3 L-13.2 -2.2 -13.25 -2.15 -13.3 -2.65 -13.2 -2.9 -13.3 -3.0 -13.35 -2.95 Q-13.35 -4.35 -13.0 -5.15 L-12.95 -5.4 -13.0 -5.35 -13.1 -5.3 -13.15 -5.4 -13.75 -3.55 -13.8 -3.5 -13.9 -4.05 -12.75 -6.7 -10.95 -9.5 -10.9 -9.6 -8.4 -11.7 -8.7 -11.4 -10.7 -9.5 -10.8 -9.45 Q-12.15 -7.85 -13.0 -5.7 L-12.9 -5.6 Q-12.6 -6.65 -10.9 -8.8 -11.9 -7.4 -12.3 -6.15 L-12.3 -6.1 -12.3 -6.05 -12.45 -5.8 -12.4 -5.85 -12.55 -5.3 M-8.9 -4.85 L-7.15 -5.7 Q-5.3 -6.45 -4.35 -7.3 -3.6 -8.0 -2.95 -9.5 L-2.9 -9.7 Q-2.45 -10.95 -1.8 -11.45 -1.7 -12.05 -0.8 -12.45 L-0.45 -12.7 -0.3 -12.45 -0.6 -12.35 -1.65 -11.25 -1.7 -11.25 -2.6 -9.5 -2.7 -9.35 -4.0 -7.35 Q-4.8 -6.45 -6.8 -5.6 L-9.4 -4.5 -8.9 -4.85 M-0.55 -12.8 L-1.45 -12.4 -3.75 -9.5 -4.05 -9.15 -4.3 -8.8 -4.3 -8.65 -4.5 -8.5 Q-5.5 -7.0 -6.6 -6.25 L-6.8 -6.3 -6.15 -6.85 -6.2 -6.9 Q-4.5 -8.45 -4.4 -8.95 L-4.3 -8.95 -3.95 -9.4 -3.9 -9.5 -3.45 -10.25 -3.75 -9.7 -2.9 -10.95 -1.7 -12.35 -0.75 -13.1 -0.55 -12.8 M1.85 -10.65 L0.75 -11.5 0.9 -11.55 Q1.35 -11.55 2.25 -10.7 L3.1 -9.5 3.0 -9.5 2.9 -9.45 2.85 -9.5 1.9 -10.6 1.85 -10.65 M-0.1 -12.05 L-0.15 -12.05 -0.1 -12.1 -0.1 -12.05 M10.35 -9.5 L11.45 -7.4 11.9 -6.4 11.9 -6.65 12.0 -6.65 12.25 -5.55 12.45 -4.95 12.45 -4.75 12.55 -4.4 12.55 -4.15 12.5 -4.1 12.25 -5.1 11.45 -6.9 10.3 -9.5 10.1 -9.95 10.15 -9.95 10.35 -9.5 M12.7 7.95 L12.65 7.85 12.7 7.9 12.7 7.95 M10.45 7.8 Q10.55 9.15 11.45 10.4 L11.55 10.5 11.5 10.55 11.45 10.45 Q10.4 8.9 10.35 7.8 L10.45 7.8 M11.85 10.7 L13.5 11.3 13.35 11.35 Q12.75 11.3 11.75 10.7 L11.85 10.7 M11.1 10.4 L11.45 10.9 11.7 11.1 11.7 11.2 11.55 11.25 11.0 10.7 11.0 10.4 11.1 10.4 M-11.65 -5.4 Q-11.65 -6.0 -9.85 -7.8 L-11.6 -5.3 -11.65 -5.4 M-11.6 -2.6 L-11.45 -2.65 -11.4 -2.45 Q-11.4 -1.5 -11.75 0.0 L-11.45 3.6 -11.85 1.75 -11.95 -0.05 -11.9 -0.65 -11.75 -1.4 -11.6 -2.6 M-11.45 3.65 L-11.15 6.2 -11.35 9.1 Q-11.35 10.9 -13.0 11.7 L-11.95 10.55 -11.55 9.1 -11.45 6.2 -11.7 3.9 -11.65 3.95 -11.55 3.95 -11.45 3.65 M-12.3 1.1 L-12.35 1.5 -11.6 7.7 Q-11.6 9.55 -13.2 10.9 -11.9 9.7 -11.9 7.7 L-12.65 1.55 -12.65 1.5 -12.5 2.3 -12.45 2.3 -12.65 0.95 -12.55 -0.45 Q-12.45 -2.0 -12.05 -2.4 L-11.95 -2.2 -12.15 -1.25 -12.3 1.0 -12.3 1.1 M-12.8 0.65 L-12.8 0.9 -12.55 5.45 Q-12.55 9.2 -14.55 10.15 L-14.6 10.1 Q-12.7 8.95 -12.7 6.25 L-12.75 5.45 -12.7 4.45 -12.85 0.75 -12.8 0.55 -12.8 0.65 M-12.45 -2.25 L-12.35 -2.45 -12.55 -1.55 -12.45 -2.25 M-14.65 0.25 Q-14.65 -2.5 -13.95 -2.75 -14.45 -1.8 -14.55 0.65 L-14.6 0.7 -14.65 0.25 M-14.65 1.2 L-14.55 1.2 -14.4 5.35 Q-14.4 8.0 -15.45 9.1 L-15.5 9.0 Q-14.5 6.8 -14.5 5.35 -14.5 3.85 -14.65 2.75 L-14.65 1.2 M-14.9 11.85 L-14.95 11.8 -14.1 11.45 -14.9 11.85" fill="#fee1a5" fill-rule="evenodd" stroke="none"/>
    <path d="M7.3 -6.65 L7.65 -6.1 7.85 -5.9 8.35 -5.7 Q7.9 -6.3 7.9 -6.85 L7.95 -7.0 8.4 -6.2 8.75 -5.45 8.55 -5.4 8.15 -5.4 8.45 -4.2 9.5 -2.6 9.55 -2.6 9.55 -3.7 9.6 -3.95 9.6 -4.0 9.7 -4.0 Q10.5 -4.0 10.9 0.05 L10.45 3.35 Q9.95 5.85 9.95 8.55 L10.15 10.25 10.25 10.5 10.6 11.1 11.45 11.8 11.95 12.1 11.95 12.15 12.7 12.25 Q14.6 12.25 15.2 11.35 14.1 11.2 14.0 10.6 L13.25 10.15 12.75 10.15 12.15 10.05 12.15 9.9 12.55 9.9 12.8 10.0 12.9 10.0 13.5 10.1 13.2 9.9 13.45 9.75 Q12.75 9.35 12.45 8.65 L12.45 8.6 12.3 8.65 12.2 8.45 12.5 8.45 12.5 8.55 12.55 8.45 12.6 8.45 12.7 8.5 13.15 8.25 13.2 8.25 12.85 8.65 12.7 8.65 13.8 9.75 13.55 10.1 14.05 10.35 14.15 10.25 14.3 10.35 15.0 10.15 15.1 10.1 14.05 9.0 Q13.45 8.8 13.45 8.35 L13.55 8.3 13.8 8.3 13.9 8.45 13.95 8.4 13.95 8.35 14.05 8.4 14.1 8.45 14.7 8.75 15.0 8.65 14.85 8.35 14.8 8.25 14.1 6.25 14.05 5.6 Q14.05 4.45 14.35 3.5 L14.1 3.7 14.05 3.5 14.2 3.2 14.3 2.65 14.3 2.6 14.2 2.1 14.4 1.95 14.45 1.95 14.6 2.6 14.6 2.75 14.75 3.05 14.35 5.15 Q14.35 6.15 15.4 8.6 15.4 9.05 14.75 9.05 L14.5 9.05 14.55 9.25 15.5 10.05 Q15.5 10.5 14.75 10.65 L15.3 11.05 15.7 10.9 15.85 11.1 Q15.85 11.4 15.0 11.9 13.95 12.55 12.7 12.55 L11.85 12.35 11.8 12.35 11.45 12.3 Q10.45 12.0 9.95 10.45 L9.8 10.1 9.85 10.1 9.65 7.95 9.75 5.4 9.95 4.65 9.9 4.2 10.1 3.05 10.55 0.05 9.9 -3.15 Q9.95 -2.05 9.5 -2.0 L9.1 -2.65 9.25 -2.85 9.1 -2.85 9.05 -2.8 8.95 -3.05 8.5 -3.5 8.5 -3.15 8.5 -2.35 8.35 -2.25 8.45 -2.1 Q8.3 -0.45 7.65 0.8 L7.6 0.8 7.35 -2.5 7.45 -2.5 7.55 -2.55 7.7 0.15 Q8.2 -1.5 8.2 -3.1 7.9 -4.3 7.75 -5.55 7.1 -5.9 7.1 -6.85 L7.3 -6.65 M-14.6 -3.3 L-14.55 -3.3 -14.6 -2.75 -14.85 -1.15 -14.95 -0.8 -14.95 -0.7 -15.3 0.5 -15.65 3.65 -15.55 6.95 Q-15.55 8.95 -16.55 9.95 L-15.8 10.25 -15.55 10.2 -15.65 9.7 -15.65 9.6 -15.6 9.6 -15.3 10.15 -15.35 10.2 -15.3 10.25 -15.25 10.25 -15.25 10.5 -15.25 10.9 -15.3 10.95 Q-14.6 10.75 -14.15 10.05 L-14.0 10.05 -14.0 10.4 -15.2 11.25 -15.4 11.25 -15.85 12.0 -14.7 12.0 -13.7 11.6 -13.55 11.4 Q-13.4 11.5 -13.4 11.7 L-14.25 12.35 -14.3 12.45 -13.75 12.55 -12.9 12.4 -12.95 12.35 Q-11.45 11.9 -11.25 10.35 L-10.85 8.1 Q-11.45 3.1 -11.45 0.8 L-11.4 -1.4 Q-11.3 -2.5 -10.9 -3.05 L-11.65 -3.05 -11.7 -3.15 -11.8 -3.15 -11.8 -3.05 -12.05 -3.05 -12.0 -3.15 Q-5.35 -4.05 -3.5 -6.3 L-3.25 -6.5 Q-2.8 -7.1 -1.65 -9.2 L-1.45 -9.5 -1.15 -10.15 0.0 -11.0 0.05 -11.0 0.3 -11.0 1.85 -10.65 1.9 -10.6 2.85 -9.5 2.9 -9.45 3.0 -9.5 3.3 -8.6 3.4 -9.2 3.35 -9.5 2.75 -10.7 2.9 -10.75 3.1 -10.7 3.6 -10.3 3.75 -9.5 Q6.8 -7.4 7.5 -2.8 L7.3 -2.85 7.25 -3.15 7.25 -3.2 7.2 -3.35 6.9 -4.4 6.8 -4.55 5.7 -7.0 4.85 -8.35 3.75 -9.15 Q3.75 -7.95 3.15 -7.95 L2.5 -9.45 2.45 -9.5 Q1.55 -10.6 0.05 -10.6 -0.4 -10.6 -1.05 -9.5 L-1.8 -8.3 -3.2 -6.1 -5.85 -4.35 -6.05 -4.4 -6.2 -4.15 Q-8.1 -3.35 -10.25 -3.1 L-10.35 -3.15 -10.35 -3.1 -10.6 -3.1 -10.6 -2.9 -10.85 -2.55 -10.75 -2.2 -10.8 -2.1 -10.9 -1.7 -11.1 -1.2 -11.15 0.85 -10.65 7.25 -10.75 9.15 -10.65 9.55 -10.75 10.2 Q-11.1 11.75 -12.15 12.35 -12.4 12.85 -13.8 12.85 -14.7 12.85 -14.7 12.55 L-14.45 12.3 -14.7 12.35 -16.25 12.35 -16.3 12.1 -15.55 11.15 -15.55 10.75 -15.45 10.5 -15.45 10.45 -15.75 10.55 Q-16.75 10.55 -16.75 9.95 -15.8 8.85 -15.85 7.4 L-15.9 4.65 Q-15.9 0.8 -14.65 -3.3 L-14.6 -3.3 M-12.9 -2.65 L-12.85 -3.6 -12.75 -3.65 -12.65 -2.95 -12.5 -3.1 -12.55 -3.15 -12.5 -3.15 -12.2 -3.85 -12.1 -3.85 -12.2 -3.8 -12.15 -3.75 -12.05 -3.8 -12.05 -3.6 -12.25 -3.15 -12.05 -3.15 -12.1 -3.05 -12.35 -3.05 -12.55 -2.7 -12.7 -2.75 -12.9 -2.65" fill="#70510a" fill-rule="evenodd" stroke="none"/>
    <path d="M7.5 -2.8 L7.55 -2.8 7.6 -2.6 7.55 -2.55 7.45 -2.5 7.35 -2.5 7.6 0.8 7.2 0.8 3.1 1.9 3.0 1.6 2.5 1.0 2.4 1.0 2.3 1.05 2.3 1.15 Q2.3 1.95 2.85 2.15 L3.1 2.2 3.25 2.15 4.65 1.7 Q5.9 1.15 7.15 1.15 9.15 1.15 9.5 2.1 9.15 0.95 7.65 0.8 8.3 -0.45 8.45 -2.1 L8.35 -2.25 8.5 -2.35 8.5 -3.15 8.5 -3.5 8.95 -3.05 9.05 -2.8 9.1 -2.85 9.25 -2.85 9.1 -2.65 9.5 -2.0 Q9.95 -2.05 9.9 -3.15 L10.55 0.05 10.1 3.05 9.9 4.2 Q9.7 3.7 9.05 3.7 8.05 3.7 8.05 4.7 8.05 5.7 9.05 5.7 L9.75 5.4 9.65 7.95 9.85 10.1 9.8 10.1 9.95 10.45 Q8.35 11.95 6.5 12.95 3.45 14.5 -0.25 14.5 -3.95 14.5 -7.0 12.95 -9.0 11.9 -10.7 10.25 L-10.75 10.2 -10.65 9.55 -10.35 9.75 -9.6 11.0 -9.15 11.45 Q-8.6 12.05 -8.1 12.05 L-8.0 12.05 -6.9 12.85 -6.65 12.8 -6.45 12.95 -5.9 13.2 -5.7 13.15 -5.9 12.95 -6.35 12.5 -6.65 12.3 -6.3 12.25 -6.05 12.25 -5.7 12.15 -5.7 11.9 -6.8 11.6 -7.45 11.25 -7.55 11.25 -7.55 11.3 -7.65 11.15 -6.0 11.05 -4.75 11.1 -1.95 11.35 0.05 11.3 0.05 11.2 2.2 11.35 3.9 11.05 4.65 11.05 6.3 11.25 6.85 11.35 7.3 11.25 7.5 11.35 8.15 10.95 6.5 8.0 5.95 7.1 4.35 5.0 3.7 4.3 Q2.8 3.7 0.25 3.7 -2.6 3.7 -3.75 4.3 L-4.55 4.9 -6.55 7.0 -7.3 7.9 -8.65 9.65 -8.65 9.6 -8.8 9.1 -8.4 8.3 -8.5 8.2 -8.5 8.15 -8.3 7.75 -8.4 7.65 -8.8 8.0 -8.95 8.0 -9.25 8.15 -9.45 7.8 -9.45 7.05 -9.45 6.85 -9.45 6.2 -9.4 5.9 -9.5 5.55 -9.6 4.65 Q-8.25 4.6 -8.25 3.3 -8.25 1.8 -9.45 1.85 L-9.65 1.85 -9.95 0.3 -10.0 -1.65 -9.9 -1.95 Q-8.9 -2.0 -8.9 -2.6 -8.9 -3.1 -9.45 -3.1 L-10.15 -3.05 -10.25 -3.1 Q-8.1 -3.35 -6.2 -4.15 L-6.05 -4.4 -5.85 -4.35 -3.2 -6.1 -1.8 -8.3 -1.05 -9.5 Q-0.4 -10.6 0.05 -10.6 1.55 -10.6 2.45 -9.5 L2.5 -9.45 3.15 -7.95 Q3.75 -7.95 3.75 -9.15 L4.85 -8.35 5.7 -7.0 6.8 -4.55 6.9 -4.4 7.2 -3.35 7.25 -3.2 7.25 -3.15 7.3 -2.85 7.5 -2.8 M9.65 -1.75 L10.05 -2.0 9.95 -2.1 9.65 -1.75 M4.45 0.4 L4.4 0.4 4.4 0.5 4.6 0.5 4.6 0.45 4.45 0.4 M3.7 2.25 L3.7 2.35 4.4 2.65 4.45 2.6 4.45 2.45 3.9 2.25 3.7 2.25 M-10.35 -3.1 L-10.35 -3.0 -10.6 -2.9 -10.6 -3.1 -10.35 -3.1 M-10.9 -1.7 L-11.0 -1.3 -11.05 -0.05 -10.95 1.1 -11.05 1.45 -10.85 3.05 -10.85 3.25 -10.85 3.35 -10.95 3.7 -10.55 5.9 -10.55 6.55 -10.65 7.25 -11.15 0.85 -11.1 -1.2 -10.9 -1.7 M-3.05 1.3 L-2.7 1.5 -2.05 1.9 -1.75 2.1 -1.6 2.1 Q-0.75 2.0 -0.75 1.4 L-0.8 1.25 -1.0 1.2 -1.25 1.55 -1.75 1.7 -1.8 1.65 -2.5 1.2 -3.15 0.9 -3.65 0.7 -5.55 0.2 -8.35 0.35 -8.65 0.45 Q-9.2 0.55 -9.2 0.8 L-9.15 0.9 -8.65 0.6 -8.35 0.55 -7.2 0.5 -3.8 0.95 -3.35 1.15 -3.4 1.2 -3.35 1.35 -3.1 1.35 -3.05 1.3 M-0.4 0.5 L-0.45 0.3 -0.65 0.3 -0.65 0.4 -0.55 0.55 -0.7 0.85 -0.65 0.9 -0.4 0.5 M-2.35 2.5 L-2.35 2.4 -3.1 2.25 -3.55 2.3 -2.75 2.5 -2.35 2.5 M-6.8 12.15 L-7.05 11.95 -7.0 11.95 -6.8 12.15" fill="#ffddbb" fill-rule="evenodd" stroke="none"/>
    <path d="M4.45 0.4 L4.6 0.45 4.6 0.5 4.4 0.5 4.4 0.4 4.45 0.4 M-3.05 1.3 L-3.1 1.35 -3.35 1.35 -3.4 1.2 -3.35 1.15 -3.1 1.3 -3.05 1.3" fill="#ffffff" fill-rule="evenodd" stroke="none"/>
    <path d="M-8.65 9.65 L-7.3 7.9 -6.55 7.0 -4.55 4.9 -3.75 4.3 Q-2.6 3.7 0.25 3.7 2.8 3.7 3.7 4.3 L4.35 5.0 5.95 7.1 6.5 8.0 8.15 10.95 7.5 11.35 7.3 11.25 6.85 11.35 6.3 11.25 4.65 11.05 3.9 11.05 2.2 11.35 0.05 11.2 0.05 11.3 -1.95 11.35 -4.75 11.1 -6.0 11.05 -7.65 11.15 Q-8.7 11.25 -8.95 11.55 L-9.15 11.45 -9.1 11.4 -9.3 11.15 Q-9.35 10.7 -8.65 9.65 M1.05 11.0 L2.25 11.0 4.25 10.8 4.8 10.85 6.45 10.95 7.25 11.05 7.25 10.95 7.85 11.0 6.3 8.35 5.5 7.05 4.3 5.45 3.7 4.8 Q3.15 4.25 2.55 4.15 L-1.05 4.0 -1.05 4.05 Q-3.15 4.25 -3.85 4.75 L-3.95 4.85 -4.65 5.55 -6.35 7.3 -7.05 8.2 -8.45 10.1 -9.0 11.15 -8.9 11.25 Q-8.55 11.0 -7.85 10.9 L-5.95 10.8 -5.0 10.8 -2.75 10.95 -2.6 10.95 -2.2 11.0 -0.4 11.0 -0.3 11.0 -0.05 11.0 0.0 11.05 0.2 11.0 0.25 11.0 0.45 11.15 0.55 11.0 0.85 11.0 0.9 11.05 1.05 11.0 M3.1 7.4 L4.45 8.15 5.85 9.15 Q6.6 9.7 6.6 10.1 L6.55 10.2 6.5 10.2 6.35 10.35 5.25 10.15 2.95 9.7 1.0 9.45 Q0.3 9.1 -0.15 9.1 1.25 9.6 -5.0 9.5 L-5.8 9.85 -6.9 10.0 -7.0 9.95 -7.1 9.95 -7.45 9.55 -7.45 9.65 -7.55 9.65 -7.5 9.55 -7.5 9.4 -6.8 8.65 -6.75 8.65 Q-6.1 8.05 -5.8 8.0 -5.4 7.9 -4.8 7.4 -4.0 6.9 -2.4 6.9 L3.1 7.4 M1.0 9.15 L3.1 9.5 5.55 9.65 5.7 9.65 6.0 9.75 5.65 9.5 4.55 8.65 Q2.85 7.3 1.8 7.3 L-2.4 7.15 Q-4.45 7.15 -6.55 8.85 L-7.2 9.4 -6.75 9.75 -6.0 9.55 -5.05 9.3 -0.95 9.1 -0.1 8.8 1.0 9.15" fill="#990000" fill-rule="evenodd" stroke="none"/>
    <path d="M0.0 5.05 L-0.05 5.05 Q-0.65 5.1 -0.65 5.65 L-0.65 5.75 -0.8 5.75 -0.8 6.0 Q-1.0 5.5 -1.35 5.55 L-1.7 5.7 -1.95 5.65 Q-2.0 5.55 -2.1 5.55 L-2.25 5.7 -2.3 5.6 Q-2.75 5.5 -2.55 5.85 L-2.8 5.9 -2.9 5.75 -3.25 6.0 -3.15 6.25 -3.0 6.25 -3.0 6.0 -2.75 6.25 -2.6 6.15 -2.5 6.35 -2.35 6.2 -2.25 6.35 Q-2.25 6.7 -1.95 6.15 L-1.8 6.15 -1.55 6.6 -0.6 6.6 -0.6 6.5 -0.45 6.65 0.2 6.5 0.5 6.25 0.65 6.25 Q0.55 6.65 1.15 6.7 1.5 6.65 1.5 6.3 1.5 6.65 1.8 6.7 L2.0 6.55 2.35 6.65 3.0 7.0 Q3.45 7.05 3.65 7.25 3.75 7.55 4.2 7.6 3.4 6.6 2.9 6.55 L2.9 6.25 2.4 6.2 2.35 6.0 1.95 6.0 1.4 5.7 1.15 5.65 0.7 5.15 0.1 5.05 0.0 5.05 M-2.75 10.95 L-5.0 10.8 -5.95 10.8 -7.85 10.9 Q-8.55 11.0 -8.9 11.25 L-9.0 11.15 -8.45 10.1 -7.05 8.2 -6.35 7.3 -4.65 5.55 -3.95 4.85 -3.85 4.75 Q-3.15 4.25 -1.05 4.05 L-1.05 4.0 2.55 4.15 Q3.15 4.25 3.7 4.8 L4.3 5.45 5.5 7.05 6.3 8.35 7.85 11.0 7.25 10.95 7.25 11.05 6.45 10.95 4.8 10.85 4.25 10.8 2.25 11.0 1.05 11.0 1.1 10.9 1.25 10.95 1.7 10.85 2.4 10.95 2.8 10.8 2.55 10.7 2.35 10.8 1.05 10.5 Q0.95 10.5 0.8 10.65 0.75 10.35 0.5 10.4 L0.35 10.45 0.15 10.4 0.0 10.45 -0.7 10.25 -1.15 10.75 Q-1.35 10.4 -1.6 10.45 L-1.8 10.45 -1.8 10.75 -2.9 10.7 -3.05 10.8 -2.75 10.95 M3.1 7.4 L-2.4 6.9 Q-4.0 6.9 -4.8 7.4 -5.4 7.9 -5.8 8.0 -6.1 8.05 -6.75 8.65 L-6.8 8.65 -7.5 9.4 -7.5 9.55 -7.55 9.65 -7.45 9.65 -7.45 9.55 -7.1 9.95 -7.0 9.95 -6.9 10.0 -5.8 9.85 -5.0 9.5 Q1.25 9.6 -0.15 9.1 0.3 9.1 1.0 9.45 L2.95 9.7 5.25 10.15 6.35 10.35 6.5 10.2 6.55 10.2 6.6 10.1 Q6.6 9.7 5.85 9.15 L4.45 8.15 3.1 7.4 M-3.7 6.45 L-3.75 6.45 -3.8 6.2 -4.05 6.2 -4.45 6.5 -4.45 6.6 -3.9 6.35 -3.85 6.55 -3.5 6.3 -3.45 6.3 -3.4 6.65 -3.1 6.65 -3.05 6.5 Q-3.05 6.2 -3.45 6.2 L-3.7 6.45" fill="#ff1515" fill-rule="evenodd" stroke="none"/>
    <path d="M0.0 5.05 L0.1 5.05 0.7 5.15 1.15 5.65 1.4 5.7 1.95 6.0 2.35 6.0 2.4 6.2 2.9 6.25 2.9 6.55 Q3.4 6.6 4.2 7.6 3.75 7.55 3.65 7.25 3.45 7.05 3.0 7.0 L2.35 6.65 2.0 6.55 1.8 6.7 Q1.5 6.65 1.5 6.3 1.5 6.65 1.15 6.7 0.55 6.65 0.65 6.25 L0.5 6.25 0.2 6.5 -0.45 6.65 -0.6 6.5 -0.6 6.6 -1.55 6.6 -1.8 6.15 -1.95 6.15 Q-2.25 6.7 -2.25 6.35 L-2.35 6.2 -2.5 6.35 -2.6 6.15 -2.75 6.25 -3.0 6.0 -3.0 6.25 -3.15 6.25 -3.25 6.0 -2.9 5.75 -2.8 5.9 -2.55 5.85 Q-2.75 5.5 -2.3 5.6 L-2.25 5.7 -2.1 5.55 Q-2.0 5.55 -1.95 5.65 L-1.7 5.7 -1.35 5.55 Q-1.0 5.5 -0.8 6.0 L-0.8 5.75 -0.65 5.75 -0.65 5.65 Q-0.65 5.1 -0.05 5.05 L0.0 5.05 M1.05 11.0 L0.9 11.05 0.85 11.0 0.65 10.9 0.55 11.0 0.45 11.15 0.25 11.0 0.25 10.95 0.2 11.0 0.0 11.05 -0.05 11.0 -0.15 10.95 -0.3 11.0 -0.4 11.0 -0.65 10.95 -2.6 10.95 -2.75 10.95 -3.05 10.8 -2.9 10.7 -1.8 10.75 -1.8 10.45 -1.6 10.45 Q-1.35 10.4 -1.15 10.75 L-0.7 10.25 0.0 10.45 0.15 10.4 0.35 10.45 0.5 10.4 Q0.75 10.35 0.8 10.65 0.95 10.5 1.05 10.5 L2.35 10.8 2.55 10.7 2.8 10.8 2.4 10.95 1.7 10.85 1.25 10.95 1.1 10.9 1.05 11.0 M-3.7 6.45 L-3.45 6.2 Q-3.05 6.2 -3.05 6.5 L-3.1 6.65 -3.4 6.65 -3.45 6.3 -3.5 6.3 -3.85 6.55 -3.9 6.35 -4.45 6.6 -4.45 6.5 -4.05 6.2 -3.8 6.2 -3.75 6.45 -3.7 6.45 M-0.9 10.55 L-0.95 10.55 -1.0 10.7 -0.9 10.7 -0.9 10.55" fill="#ffa4a4" fill-rule="evenodd" stroke="none"/>
    <path d="M1.0 9.15 L-0.1 8.8 -0.95 9.1 -5.05 9.3 -6.0 9.55 -6.75 9.75 -7.2 9.4 -6.55 8.85 Q-4.45 7.15 -2.4 7.15 L1.8 7.3 Q2.85 7.3 4.55 8.65 L5.65 9.5 6.0 9.75 5.7 9.65 5.55 9.65 3.1 9.5 1.0 9.15" fill="#770000" fill-rule="evenodd" stroke="none"/>
    <path d="M12.5 8.45 L11.6 5.95 11.6 5.7 11.7 5.7 12.55 8.45 12.5 8.55 12.5 8.45 M13.15 8.25 Q12.4 6.95 12.15 6.05 L12.0 5.1 12.05 4.45 12.15 4.45 12.15 4.65 12.15 4.7 Q12.2 6.2 13.4 8.3 L13.25 8.4 13.2 8.25 13.15 8.25 M-0.5 -12.75 L-0.55 -12.8 -0.75 -13.1 -0.8 -13.2 -0.55 -13.45 Q0.05 -13.45 0.05 -12.95 L-0.2 -12.65 -0.5 -12.75 M0.25 -11.15 L0.0 -11.0 -0.05 -11.25 0.05 -11.45 0.0 -11.55 -0.3 -11.9 -0.3 -12.0 -0.15 -12.05 -0.1 -12.05 -0.05 -12.1 Q0.4 -12.1 0.4 -11.4 L0.25 -11.15" fill="#fdad06" fill-rule="evenodd" stroke="none"/>
    <path d="M-10.25 -3.1 L-10.15 -3.05 -9.45 -3.1 Q-8.9 -3.1 -8.9 -2.6 -8.9 -2.0 -9.9 -1.95 L-10.0 -1.65 -9.95 0.3 -9.65 1.85 -9.45 1.85 Q-8.25 1.8 -8.25 3.3 -8.25 4.6 -9.6 4.65 L-9.5 5.55 -9.4 5.9 -9.45 6.2 -9.45 6.85 -9.45 7.05 -9.45 7.8 -9.25 8.15 -8.95 8.0 -8.8 8.0 -8.4 7.65 -8.3 7.75 -8.5 8.15 -8.5 8.2 -8.4 8.3 -8.8 9.1 -8.65 9.6 -8.65 9.65 Q-9.35 10.7 -9.3 11.15 L-9.1 11.4 -9.15 11.45 -8.95 11.55 Q-8.7 11.25 -7.65 11.15 L-7.55 11.3 -7.55 11.25 -7.45 11.25 -6.8 11.6 -5.7 11.9 -5.7 12.15 -6.05 12.25 -6.3 12.25 -6.65 12.3 -6.35 12.5 -5.9 12.95 -5.7 13.15 -5.9 13.2 -6.45 12.95 -6.65 12.8 -6.9 12.85 -8.0 12.05 -8.1 12.05 Q-8.6 12.05 -9.15 11.45 L-9.6 11.0 -10.35 9.75 -10.65 9.55 -10.75 9.15 -10.65 7.25 -10.55 6.55 -10.55 5.9 -10.95 3.7 -10.85 3.35 -10.85 3.25 -10.85 3.05 -11.05 1.45 -10.95 1.1 -11.05 -0.05 -11.0 -1.3 -10.9 -1.7 -10.8 -2.1 -10.75 -2.2 -10.85 -2.55 -10.6 -2.9 -10.35 -3.0 -10.35 -3.1 -10.35 -3.15 -10.25 -3.1 M9.75 5.4 L9.05 5.7 Q8.05 5.7 8.05 4.7 8.05 3.7 9.05 3.7 9.7 3.7 9.9 4.2 L9.95 4.65 9.75 5.4 M-6.8 12.15 L-7.0 11.95 -7.05 11.95 -6.8 12.15" fill="#ffb99b" fill-rule="evenodd" stroke="none"/>
    <path d="M-14.15 8.15 Q-13.1 6.15 -13.1 4.45 L-13.35 -0.1 Q-13.35 -2.35 -12.9 -2.65 L-12.7 -2.75 -12.55 -2.7 -12.45 -2.55 -12.45 -2.25 -12.55 -1.55 -12.35 -2.45 -12.35 -2.55 -12.3 -2.55 -12.2 -2.7 -12.15 -2.65 -12.05 -2.4 Q-12.45 -2.0 -12.55 -0.45 L-12.7 0.0 -12.65 0.95 -12.45 2.3 -12.5 2.3 -12.65 1.5 -12.8 0.65 -12.8 0.55 -12.85 0.75 -12.7 4.45 -12.75 5.45 -13.05 6.65 -14.2 8.55 -14.25 8.4 -14.25 8.35 -14.15 8.15 M-10.3 -4.15 L-10.4 -4.25 Q-7.1 -6.8 -6.05 -8.3 L-5.1 -9.5 -2.75 -12.4 -2.55 -12.25 -2.55 -12.2 Q-2.55 -11.75 -3.45 -10.55 L-4.2 -9.5 -5.55 -8.0 Q-6.95 -6.45 -7.7 -5.85 L-8.9 -4.85 -9.4 -4.5 -9.5 -4.4 -10.2 -4.1 -10.3 -4.15 M-4.7 -11.5 L-4.7 -11.45 Q-4.7 -10.95 -5.95 -9.5 -7.6 -7.85 -11.3 -4.75 L-11.4 -4.8 -11.5 -4.65 -11.55 -4.85 -8.1 -9.0 -7.75 -9.5 -5.9 -11.35 -3.6 -13.05 -3.45 -13.0 -7.2 -9.5 -7.85 -8.8 -9.7 -6.65 -11.15 -5.05 Q-8.45 -7.3 -6.45 -9.5 L-5.35 -10.95 -4.8 -11.7 -4.7 -11.5 M-6.65 -12.55 L-6.65 -12.35 Q-8.5 -11.15 -9.8 -9.5 -11.7 -7.2 -12.45 -3.8 L-12.6 -3.8 -12.65 -4.5 -12.55 -5.3 -12.4 -5.85 -12.3 -6.05 -12.3 -6.1 -12.3 -6.15 Q-11.9 -7.4 -10.9 -8.8 L-10.85 -8.9 -10.4 -9.5 -9.05 -11.1 -8.7 -11.4 -8.4 -11.7 Q-7.35 -12.65 -6.9 -12.65 L-6.7 -12.65 -6.65 -12.6 -6.65 -12.55 M-13.3 -2.65 L-13.75 -1.65 -14.2 -0.25 -14.0 4.15 -14.05 5.05 -14.15 5.05 -14.4 1.6 -14.25 -0.85 -13.35 -2.95 -13.3 -3.0 -13.2 -2.9 -13.3 -2.65 M-0.45 -12.7 L-0.5 -12.75 -0.2 -12.65 0.05 -12.95 Q0.05 -13.45 -0.55 -13.45 L-0.8 -13.2 -1.15 -13.95 -0.9 -14.25 Q-0.3 -14.25 0.2 -12.95 L0.6 -11.35 Q0.6 -11.0 0.3 -11.0 L0.25 -11.15 0.4 -11.4 Q0.4 -12.1 -0.05 -12.1 L-0.1 -12.05 -0.1 -12.1 -0.3 -12.45 -0.45 -12.7 M-11.8 -3.05 L-11.8 -3.15 -11.7 -3.15 -11.65 -3.05 -11.6 -2.8 -11.6 -2.6 -11.75 -1.4 -11.9 -0.65 -12.05 -0.2 -11.85 1.75 -11.45 3.6 -11.45 3.65 -11.55 3.95 -11.65 3.95 -11.7 3.9 -11.7 3.85 -11.7 3.75 Q-12.3 2.15 -12.3 1.1 L-12.3 1.0 -12.15 -1.25 -11.95 -2.2 -11.8 -3.05" fill="#fdba2f" fill-rule="evenodd" stroke="none"/>
    <path d="M14.0 -3.9 Q13.25 -6.55 11.45 -8.8 L10.85 -9.5 10.3 -10.15 10.15 -10.25 Q6.05 -14.25 0.35 -14.5 L-0.25 -14.5 Q-6.35 -14.5 -10.7 -10.25 L-11.35 -9.5 -12.5 -8.1 Q-14.05 -5.9 -14.6 -3.3" fill="none" stroke="#a27202" stroke-linecap="round" stroke-linejoin="round" stroke-width="0.5"/>
    <path d="M14.4 1.95 L14.5 0.0 Q14.5 -1.9 14.05 -3.65 M-10.75 10.2 L-10.7 10.25 Q-9.0 11.9 -7.0 12.95 -3.95 14.5 -0.25 14.5 3.45 14.5 6.5 12.95 8.35 11.95 9.95 10.45" fill="none" stroke="#865204" stroke-linecap="round" stroke-linejoin="round" stroke-width="0.5"/>
  </g>
</svg>
