<?xml version="1.0" encoding="UTF-8" standalone="no"?>
<svg xmlns:xlink="http://www.w3.org/1999/xlink" height="29.8px" width="32.6px" xmlns="http://www.w3.org/2000/svg">
  <g transform="matrix(1.0, 0.0, 0.0, 1.0, 16.75, 15.0)">
    <path d="M14.05 -3.85 L13.8 -3.8 13.75 -4.15 14.0 -4.1 14.2 -4.05 14.05 -3.85 M7.6 0.65 L7.65 0.65 Q9.15 0.8 9.5 2.05 9.15 1.0 7.15 1.0 5.9 0.95 4.65 1.55 L3.25 2.1 3.1 2.1 2.85 2.05 Q2.3 1.9 2.3 1.0 L2.3 0.9 2.4 0.85 2.5 0.85 3.0 1.45 3.1 1.75 7.2 0.65 7.6 0.65 M9.65 -1.9 L9.95 -2.3 10.05 -2.2 9.65 -1.9 M3.7 2.15 L3.9 2.15 4.45 2.35 4.45 2.45 4.4 2.5 3.7 2.25 3.7 2.15 M-0.4 0.3 L-0.65 0.75 -0.7 0.7 -0.55 0.35 -0.65 0.25 -0.65 0.15 -0.45 0.15 -0.4 0.3 M-3.35 1.0 L-3.8 0.8 Q-5.15 0.3 -7.2 0.3 L-8.35 0.4 -8.65 0.45 -9.15 0.75 -9.2 0.65 Q-9.2 0.4 -8.65 0.25 L-8.35 0.2 -5.55 0.05 Q-4.9 0.0 -3.65 0.5 L-3.15 0.75 -2.5 1.05 -1.8 1.5 -1.75 1.55 -1.25 1.4 -1.0 1.05 -0.8 1.1 -0.75 1.25 Q-0.75 1.95 -1.6 2.0 L-1.75 2.0 -2.05 1.85 -2.7 1.35 -3.05 1.15 -3.1 1.15 -3.35 1.0 M-2.35 2.4 L-2.75 2.4 -3.55 2.2 -3.1 2.15 -2.35 2.3 -2.35 2.4" fill="#000000" fill-rule="evenodd" stroke="none"/>
    <path d="M12.15 4.55 L12.45 0.4 Q12.45 -2.65 11.45 -4.6 L11.4 -4.7 11.4 -4.75 8.4 -9.5 8.15 -9.8 6.45 -11.75 Q4.35 -13.85 3.05 -13.85 L2.9 -13.85 Q5.9 -12.25 7.8 -9.8 L8.1 -9.45 11.1 -5.05 11.05 -5.0 11.45 -4.15 Q12.25 -2.2 12.25 0.4 L11.95 4.55 Q11.95 6.95 12.6 7.75 L12.6 7.7 12.15 6.15 12.15 5.95 Q12.4 6.9 13.15 8.2 L12.7 8.45 12.6 8.4 12.55 8.4 11.7 5.6 11.6 5.6 11.6 5.85 12.5 8.4 12.2 8.4 11.45 6.8 Q11.1 5.6 11.1 4.2 L11.4 -0.55 Q11.4 -2.25 11.0 -3.4 9.25 -7.35 7.4 -9.3 L6.85 -9.8 4.6 -11.9 Q1.75 -14.2 0.5 -14.2 L0.35 -14.15 4.4 -11.7 6.5 -9.65 6.3 -9.8 Q3.05 -12.75 0.2 -13.6 L0.15 -13.55 Q3.95 -12.0 6.15 -9.8 L6.7 -9.15 7.95 -7.25 7.9 -7.1 Q7.9 -6.5 8.35 -5.9 L7.85 -6.1 7.65 -6.3 7.3 -6.9 7.4 -6.7 7.65 -6.7 7.65 -6.85 5.4 -9.8 4.95 -10.3 3.3 -11.9 Q1.05 -12.7 0.6 -13.25 L0.55 -13.25 Q0.5 -12.8 1.4 -12.35 L1.3 -12.35 0.9 -12.25 0.95 -12.2 Q1.95 -11.9 3.1 -10.95 L2.9 -11.0 2.75 -10.95 3.35 -9.8 3.4 -9.5 3.3 -8.85 3.0 -9.75 3.1 -9.8 2.25 -10.95 Q1.35 -11.85 0.9 -11.85 L0.75 -11.8 1.85 -10.9 0.3 -11.25 Q0.6 -11.25 0.6 -11.65 L0.2 -13.25 Q-0.3 -14.6 -0.9 -14.55 L-1.15 -14.25 -0.8 -13.5 -0.75 -13.4 -1.7 -12.6 -2.9 -11.2 -3.75 -9.9 -3.45 -10.5 -3.9 -9.8 -3.95 -9.7 -4.3 -9.25 -4.4 -9.25 Q-4.5 -8.7 -6.2 -7.15 L-6.15 -7.1 -4.9 -8.35 -6.8 -6.5 -6.6 -6.45 Q-5.5 -7.2 -4.5 -8.75 L-4.3 -8.9 -4.3 -9.05 -4.05 -9.45 -3.75 -9.8 -1.45 -12.6 -0.55 -13.1 -0.5 -13.05 -0.45 -13.0 -0.8 -12.65 Q-1.7 -12.3 -1.8 -11.7 -2.45 -11.2 -2.9 -9.95 L-2.95 -9.8 Q-3.6 -8.25 -4.35 -7.5 -5.3 -6.7 -7.15 -5.9 L-8.9 -5.05 -7.7 -6.05 -5.55 -8.25 -4.2 -9.8 -3.45 -10.8 -3.55 -10.55 -3.5 -10.55 -2.5 -12.2 Q-2.0 -13.3 -1.25 -13.55 L-1.15 -13.6 -1.2 -13.6 -1.2 -13.65 -1.15 -13.85 Q-1.15 -14.1 -1.65 -14.1 L-1.7 -14.15 -1.95 -14.15 Q-4.55 -13.9 -6.7 -12.95 L-6.9 -12.95 Q-7.35 -12.95 -8.4 -11.95 L-10.9 -9.85 -10.95 -9.8 -12.75 -6.95 -13.9 -4.25 -13.8 -3.7 -13.75 -3.75 -13.15 -5.6 -13.1 -5.45 -12.95 -5.6 -13.0 -5.3 Q-13.35 -4.55 -13.35 -3.15 L-14.25 -1.0 -14.4 1.45 -14.15 4.95 -14.05 4.9 -14.0 4.05 -14.2 -0.35 -13.75 -1.8 -13.3 -2.75 -13.25 -2.35 -13.2 -2.35 -12.55 -5.5 -12.65 -4.75 -12.6 -4.0 -12.45 -4.0 Q-11.7 -7.35 -9.8 -9.8 -8.5 -11.45 -6.65 -12.6 L-6.65 -12.75 Q-4.75 -13.65 -2.3 -13.95 -5.9 -12.95 -7.75 -11.15 L-8.9 -9.8 -10.4 -7.6 -10.35 -7.55 -8.55 -9.8 Q-5.8 -12.75 -2.3 -13.85 L-2.15 -13.7 Q-5.1 -12.25 -6.55 -10.1 L-5.35 -11.2 -6.45 -9.8 Q-8.45 -7.45 -11.15 -5.25 L-9.7 -6.9 -7.85 -9.05 -7.2 -9.8 -3.45 -13.3 -3.6 -13.35 -5.9 -11.65 -7.75 -9.8 -8.1 -9.3 Q-8.35 -8.85 -11.55 -5.05 L-11.5 -4.9 -11.4 -4.95 -11.3 -4.95 Q-7.6 -8.05 -5.95 -9.8 -4.7 -11.2 -4.7 -11.75 L-2.1 -13.65 -1.7 -13.6 -2.55 -12.45 -2.75 -12.65 -5.1 -9.8 -6.05 -8.55 Q-7.1 -7.05 -10.4 -4.45 L-10.3 -4.4 -10.5 -4.3 -11.7 -3.85 -11.65 -3.7 -11.4 -3.65 Q-10.9 -3.65 -6.85 -5.0 L-3.5 -6.5 Q-5.35 -4.25 -12.0 -3.35 L-11.95 -3.5 -12.05 -3.35 -12.25 -3.35 -12.05 -3.8 -12.05 -4.0 Q-7.65 -6.4 -5.15 -9.8 L-3.75 -12.15 -5.35 -9.8 -6.95 -7.9 Q-10.8 -4.75 -12.1 -4.05 L-12.2 -4.05 -12.5 -3.35 -12.55 -3.35 -12.5 -3.3 -12.65 -3.15 -12.75 -3.85 -12.85 -3.8 -12.9 -2.8 Q-13.35 -2.45 -13.35 -0.2 L-13.1 4.35 Q-13.1 6.05 -14.15 8.1 -13.7 6.85 -13.7 5.4 L-13.9 1.7 Q-13.9 -0.15 -13.3 -1.8 -13.95 -1.25 -13.95 0.05 L-14.1 1.85 -13.9 3.7 -13.85 5.8 Q-13.85 7.7 -15.3 10.05 L-15.6 9.55 -15.65 9.55 -15.65 9.65 -15.55 10.1 -15.8 10.2 Q-16.3 10.1 -16.55 9.85 -15.55 8.9 -15.55 6.9 L-15.65 3.55 -15.3 0.3 -14.95 -0.85 -14.95 -0.95 -14.85 -1.3 -14.6 -2.85 -14.55 -3.5 -14.6 -3.5 Q-14.05 -6.1 -12.5 -8.35 L-11.35 -9.8 -10.7 -10.5 Q-6.35 -14.8 -0.25 -14.75 L0.35 -14.75 Q6.05 -14.6 10.15 -10.5 L10.3 -10.35 10.85 -9.8 11.45 -9.05 Q13.25 -6.8 14.0 -4.1 L13.75 -4.15 13.8 -3.8 14.05 -3.85 Q14.5 -2.05 14.5 -0.1 L14.4 1.9 Q14.2 1.9 14.2 2.0 L14.3 2.45 14.3 2.55 14.2 3.1 14.05 3.4 14.1 3.6 14.35 3.4 Q14.05 4.4 14.05 5.5 L14.1 6.15 Q13.6 4.45 13.6 3.3 L14.0 -0.4 12.25 -6.35 12.15 -6.25 12.0 -6.9 11.9 -6.9 11.9 -6.6 11.45 -7.55 10.35 -9.8 10.15 -10.2 10.1 -10.2 10.3 -9.8 11.45 -7.15 12.25 -5.25 12.5 -4.3 12.55 -4.35 12.55 -4.65 12.45 -4.95 12.45 -5.15 12.25 -5.75 12.15 -6.25 13.1 -3.4 Q13.7 -1.65 13.7 -0.4 L13.5 1.85 Q13.5 -0.4 13.05 -2.35 L12.05 -4.8 11.45 -5.95 11.35 -6.1 9.5 -9.5 9.3 -9.8 Q7.25 -13.0 6.15 -13.0 L5.95 -13.0 5.95 -12.8 Q7.35 -11.95 8.9 -9.8 L11.1 -6.3 11.0 -6.3 11.3 -5.9 11.35 -5.85 11.45 -5.7 Q13.4 -2.7 13.4 2.0 L13.35 3.05 13.3 3.25 13.3 3.35 13.05 5.4 Q13.05 7.3 13.8 8.25 L13.55 8.25 13.45 8.3 Q13.45 8.75 14.05 8.95 L15.1 10.05 15.0 10.1 14.3 10.3 14.15 10.2 14.05 10.3 13.55 10.0 13.8 9.7 12.7 8.6 12.85 8.6 13.2 8.2 13.25 8.35 13.4 8.25 Q12.2 6.15 12.15 4.6 L12.15 4.55 M7.1 -7.05 Q7.1 -6.1 7.75 -5.75 7.9 -4.5 8.2 -3.3 8.2 -1.65 7.7 0.0 L7.55 -2.65 7.6 -2.7 7.55 -2.9 7.5 -2.95 Q6.8 -7.55 3.75 -9.75 L3.75 -9.8 3.6 -10.55 4.3 -9.8 5.65 -8.15 Q6.55 -6.85 7.85 -3.9 L7.95 -3.95 Q6.75 -7.45 5.75 -8.55 L4.7 -9.8 4.0 -10.6 2.4 -11.95 3.2 -11.7 4.8 -10.1 5.0 -9.8 7.1 -7.05 M9.6 -4.2 Q9.6 -4.9 8.3 -7.05 L6.9 -9.25 7.15 -9.0 9.4 -6.1 10.5 -4.1 Q11.25 -2.1 11.25 -0.55 L10.95 4.85 Q10.95 6.7 11.45 7.85 11.95 9.0 12.9 9.5 L12.95 9.4 12.3 8.6 12.45 8.55 12.45 8.6 Q12.75 9.3 13.45 9.7 L13.2 9.8 11.05 8.45 Q10.25 6.75 10.3 6.15 L10.2 6.15 10.2 6.6 11.05 8.6 11.45 9.15 12.55 9.8 12.15 9.8 12.15 9.95 12.75 10.1 13.25 10.05 14.0 10.55 Q14.1 11.15 15.2 11.3 14.6 12.2 12.7 12.25 L11.95 12.15 11.45 11.8 10.6 11.05 10.25 10.45 10.15 10.2 9.95 8.5 Q9.95 5.75 10.45 3.25 L10.9 -0.05 Q10.5 -4.2 9.7 -4.2 L9.6 -4.2 M8.75 -5.65 L9.45 -3.9 9.55 -3.9 9.55 -2.7 9.5 -2.7 8.45 -4.4 8.15 -5.6 8.55 -5.6 8.75 -5.65 M0.0 -11.8 L0.05 -11.75 -0.05 -11.5 0.0 -11.25 Q-0.55 -11.2 -1.15 -10.35 L-0.5 -11.75 0.0 -11.8 M0.0 -11.25 L0.25 -11.4 0.3 -11.25 0.05 -11.25 0.0 -11.25 M-0.1 -12.3 L-0.15 -12.25 -0.3 -12.2 -0.3 -12.15 -0.5 -12.05 -0.55 -12.1 Q-1.35 -11.8 -2.25 -9.8 L-2.3 -9.75 -3.85 -7.0 Q-4.3 -6.5 -5.45 -6.05 L-7.4 -5.45 -9.35 -4.7 -9.5 -4.65 -9.4 -4.7 -6.8 -5.8 Q-4.8 -6.65 -4.0 -7.55 L-2.7 -9.6 -2.6 -9.8 -1.7 -11.5 -1.65 -11.5 -0.6 -12.55 -0.3 -12.7 -0.1 -12.3 M13.95 8.3 Q13.15 6.75 13.15 5.35 L13.35 3.8 Q13.45 4.6 13.9 6.0 L14.8 8.4 14.85 8.35 14.85 8.3 15.0 8.6 14.7 8.7 14.1 8.4 14.05 8.35 13.95 8.3 M12.7 7.85 L12.7 7.8 12.65 7.8 12.7 7.85 M10.45 7.7 L10.35 7.7 Q10.4 8.85 11.45 10.4 L11.5 10.5 11.55 10.45 11.45 10.3 Q10.55 9.1 10.45 7.7 M11.1 10.35 L11.0 10.35 11.0 10.65 11.55 11.2 11.7 11.15 11.7 11.05 11.45 10.85 11.1 10.35 M11.85 10.65 L11.75 10.65 Q12.75 11.25 13.35 11.3 L13.5 11.25 11.85 10.65 M12.9 9.9 L12.8 9.9 12.55 9.8 12.9 9.9 M-10.9 -9.05 Q-12.6 -6.9 -12.9 -5.8 L-13.0 -5.9 Q-12.15 -8.1 -10.8 -9.7 L-10.7 -9.8 -8.7 -11.7 -9.05 -11.35 -10.4 -9.8 -10.85 -9.15 -10.9 -9.05 M-11.65 -5.6 L-11.6 -5.45 -9.85 -8.05 Q-11.65 -6.25 -11.65 -5.6 M-12.4 -6.05 L-12.45 -6.0 -12.3 -6.25 -12.4 -6.05 M-12.55 -2.85 L-12.35 -3.25 -12.1 -3.25 -12.45 -2.45 -12.45 -2.65 -12.55 -2.85 M-12.15 -2.75 L-12.05 -3.25 -11.8 -3.25 -11.95 -2.4 -12.05 -2.5 -12.15 -2.75 M-11.65 -3.25 L-10.9 -3.25 -11.4 -1.55 -11.45 0.65 Q-11.45 3.0 -10.85 8.05 L-11.25 10.3 Q-11.45 11.9 -12.95 12.3 L-12.9 12.35 -13.75 12.55 -14.3 12.4 -14.25 12.3 -13.4 11.75 Q-13.4 11.45 -13.55 11.35 L-13.7 11.6 -14.7 12.05 -15.85 12.05 -15.4 11.2 -15.2 11.2 -14.0 10.35 -14.0 9.95 -14.15 9.95 Q-14.6 10.7 -15.3 10.9 L-15.25 10.85 -15.25 10.45 -15.25 10.15 Q-14.6 9.25 -14.25 8.35 L-14.2 8.5 Q-13.9 8.3 -13.05 6.55 L-12.75 5.35 -12.7 6.15 Q-12.7 8.9 -14.6 10.05 L-14.55 10.1 Q-12.55 9.15 -12.55 5.3 L-12.8 0.75 -12.8 0.5 -12.65 1.35 -12.65 1.4 -11.9 7.65 Q-11.9 9.65 -13.2 10.85 -11.6 9.5 -11.6 7.6 L-12.35 1.35 -12.3 0.95 Q-12.3 2.1 -11.7 3.65 L-11.7 3.75 -11.7 3.8 -11.45 6.1 -11.55 9.05 -11.95 10.5 -13.0 11.75 Q-11.35 10.85 -11.35 9.05 L-11.15 6.1 -11.45 3.55 -11.45 3.5 -11.75 -0.1 Q-11.4 -1.65 -11.4 -2.55 L-11.45 -2.75 -11.6 -2.75 -11.6 -2.9 -11.65 -3.25 M-11.85 1.6 L-12.05 -0.3 -11.9 -0.8 -11.95 -0.15 -11.85 1.6 M-12.55 -0.55 L-12.65 0.8 -12.7 -0.1 -12.55 -0.55 M-14.65 0.1 L-14.6 0.55 -14.55 0.5 Q-14.45 -1.95 -13.95 -2.85 -14.65 -2.65 -14.65 0.1 M-14.65 1.05 L-14.65 2.65 Q-14.5 3.75 -14.5 5.2 -14.5 6.8 -15.5 8.95 L-15.45 9.05 Q-14.4 7.9 -14.4 5.2 L-14.55 1.05 -14.65 1.05 M-14.2 11.5 L-14.95 11.85 -14.9 11.9 -14.2 11.5" fill="#fdc551" fill-rule="evenodd" stroke="none"/>
    <path d="M12.15 5.95 L12.15 6.15 12.6 7.7 12.6 7.75 Q11.95 6.95 11.95 4.55 L12.25 0.4 Q12.25 -2.2 11.45 -4.15 L11.05 -5.0 11.1 -5.05 8.1 -9.45 7.8 -9.8 Q5.9 -12.25 2.9 -13.85 L3.05 -13.85 Q4.35 -13.85 6.45 -11.75 L8.15 -9.8 8.4 -9.5 11.4 -4.75 11.4 -4.7 11.45 -4.6 Q12.45 -2.65 12.45 0.4 L12.15 4.55 12.15 4.35 12.05 4.35 12.0 5.0 12.15 5.95 M13.8 8.25 Q13.05 7.3 13.05 5.4 L13.3 3.35 13.3 3.25 13.35 3.05 13.4 2.0 Q13.4 -2.7 11.45 -5.7 L11.35 -5.85 11.3 -5.9 11.0 -6.3 11.1 -6.3 8.9 -9.8 Q7.35 -11.95 5.95 -12.8 L5.95 -13.0 6.15 -13.0 Q7.25 -13.0 9.3 -9.8 L9.5 -9.5 11.35 -6.1 11.45 -5.95 12.05 -4.8 13.05 -2.35 Q13.5 -0.4 13.5 1.85 L13.7 -0.4 Q13.7 -1.65 13.1 -3.4 L12.15 -6.25 12.25 -5.75 12.45 -5.15 12.45 -4.95 12.55 -4.65 12.55 -4.35 12.5 -4.3 12.25 -5.25 11.45 -7.15 10.3 -9.8 10.1 -10.2 10.15 -10.2 10.35 -9.8 11.45 -7.55 11.9 -6.6 11.9 -6.9 12.0 -6.9 12.15 -6.25 12.25 -6.35 14.0 -0.4 13.6 3.3 Q13.6 4.45 14.1 6.15 14.25 7.15 14.8 8.2 L14.85 8.3 14.85 8.35 14.8 8.4 13.9 6.0 Q13.45 4.6 13.35 3.8 L13.15 5.35 Q13.15 6.75 13.95 8.3 L13.95 8.35 13.9 8.4 13.8 8.25 M-15.3 10.05 Q-13.85 7.7 -13.85 5.8 L-13.9 3.7 -14.1 1.85 -13.95 0.05 Q-13.95 -1.25 -13.3 -1.8 -13.9 -0.15 -13.9 1.7 L-13.7 5.4 Q-13.7 6.85 -14.15 8.1 L-14.25 8.3 -14.25 8.35 Q-14.6 9.25 -15.25 10.15 L-15.3 10.2 -15.35 10.15 -15.3 10.05 M-12.1 -4.05 Q-10.8 -4.75 -6.95 -7.9 L-5.35 -9.8 -3.75 -12.15 -5.15 -9.8 Q-7.65 -6.4 -12.05 -4.0 L-12.15 -3.95 -12.2 -4.0 -12.1 -4.05 M-12.05 -3.35 L-11.95 -3.5 -12.0 -3.35 -12.05 -3.25 -12.15 -2.75 -12.2 -2.8 -12.35 -2.65 -12.55 -1.7 -12.45 -2.45 -12.1 -3.25 -12.05 -3.35 M-3.5 -6.5 L-6.85 -5.0 Q-10.9 -3.65 -11.4 -3.65 L-11.65 -3.7 -11.7 -3.85 -10.5 -4.3 -10.3 -4.4 -10.3 -4.35 -10.2 -4.3 Q-10.0 -4.3 -9.5 -4.65 L-9.35 -4.7 -7.4 -5.45 -5.45 -6.05 Q-4.3 -6.5 -3.85 -7.0 L-2.3 -9.75 -2.25 -9.8 Q-1.35 -11.8 -0.55 -12.1 L-0.5 -12.05 -0.3 -12.15 0.0 -11.8 -0.5 -11.75 -1.15 -10.35 -1.45 -9.8 -1.65 -9.5 -3.25 -6.7 -3.5 -6.5 M-2.55 -12.45 L-1.7 -13.6 -2.1 -13.65 -4.7 -11.75 -4.8 -11.95 -5.35 -11.2 -6.55 -10.1 Q-5.1 -12.25 -2.15 -13.7 L-2.3 -13.85 Q-5.8 -12.75 -8.55 -9.8 L-10.35 -7.55 -10.4 -7.6 -8.9 -9.8 -7.75 -11.15 Q-5.9 -12.95 -2.3 -13.95 -4.75 -13.65 -6.65 -12.75 L-6.65 -12.9 -6.7 -12.95 Q-4.55 -13.9 -1.95 -14.15 L-1.7 -14.15 -1.65 -14.1 Q-1.15 -14.1 -1.15 -13.85 L-1.2 -13.65 -1.2 -13.6 -1.15 -13.6 -1.25 -13.55 Q-2.0 -13.3 -2.5 -12.2 L-3.5 -10.55 -3.55 -10.55 -3.45 -10.8 Q-2.55 -12.05 -2.55 -12.45 M-12.55 -5.5 L-13.2 -2.35 -13.25 -2.35 -13.3 -2.75 -13.2 -3.0 -13.3 -3.2 -13.35 -3.15 Q-13.35 -4.55 -13.0 -5.3 L-12.95 -5.6 -13.1 -5.45 -13.15 -5.6 -13.75 -3.75 -13.8 -3.7 -13.9 -4.25 -12.75 -6.95 -10.95 -9.8 -10.9 -9.85 -8.4 -11.95 -8.7 -11.7 -10.7 -9.8 -10.8 -9.7 Q-12.15 -8.1 -13.0 -5.9 L-12.9 -5.8 Q-12.6 -6.9 -10.9 -9.05 -11.9 -7.55 -12.3 -6.35 L-12.3 -6.3 -12.3 -6.25 -12.45 -6.0 -12.4 -6.05 -12.55 -5.5 M-8.9 -5.05 L-7.15 -5.9 Q-5.3 -6.7 -4.35 -7.5 -3.6 -8.25 -2.95 -9.8 L-2.9 -9.95 Q-2.45 -11.2 -1.8 -11.7 -1.7 -12.3 -0.8 -12.65 L-0.45 -13.0 -0.3 -12.7 -0.6 -12.55 -1.65 -11.5 -1.7 -11.5 -2.6 -9.8 -2.7 -9.6 -4.0 -7.55 Q-4.8 -6.65 -6.8 -5.8 L-9.4 -4.7 -8.9 -5.05 M-0.55 -13.1 L-1.45 -12.6 -3.75 -9.8 -4.05 -9.45 -4.3 -9.05 -4.3 -8.9 -4.5 -8.75 Q-5.5 -7.2 -6.6 -6.45 L-6.8 -6.5 -4.9 -8.35 -6.15 -7.1 -6.2 -7.15 Q-4.5 -8.7 -4.4 -9.25 L-4.3 -9.25 -3.95 -9.7 -3.9 -9.8 -3.45 -10.5 -3.75 -9.9 -2.9 -11.2 -1.7 -12.6 -0.75 -13.4 -0.55 -13.1 M1.85 -10.9 L0.75 -11.8 0.9 -11.85 Q1.35 -11.85 2.25 -10.95 L3.1 -9.8 3.0 -9.75 2.9 -9.75 2.85 -9.8 1.9 -10.85 1.85 -10.9 M3.1 -10.95 Q1.95 -11.9 0.95 -12.2 L0.9 -12.25 1.3 -12.35 1.4 -12.35 Q0.5 -12.8 0.55 -13.25 L0.6 -13.25 Q1.05 -12.7 3.3 -11.9 L4.95 -10.3 5.4 -9.8 7.65 -6.85 7.65 -6.7 7.4 -6.7 7.3 -6.9 7.1 -7.05 5.0 -9.8 4.8 -10.1 3.2 -11.7 2.4 -11.95 4.0 -10.6 4.7 -9.8 5.75 -8.55 Q6.75 -7.45 7.95 -3.95 L7.85 -3.9 Q6.55 -6.85 5.65 -8.15 L4.3 -9.8 3.6 -10.55 3.1 -10.95 M7.95 -7.25 L6.7 -9.15 6.15 -9.8 Q3.95 -12.0 0.15 -13.55 L0.2 -13.6 Q3.05 -12.75 6.3 -9.8 L6.5 -9.65 4.4 -11.7 0.35 -14.15 0.5 -14.2 Q1.75 -14.2 4.6 -11.9 L6.85 -9.8 7.4 -9.3 Q9.25 -7.35 11.0 -3.4 11.4 -2.25 11.4 -0.55 L11.1 4.2 Q11.1 5.6 11.45 6.8 L12.2 8.4 12.3 8.6 12.95 9.4 12.9 9.5 Q11.95 9.0 11.45 7.85 10.95 6.7 10.95 4.85 L11.25 -0.55 Q11.25 -2.1 10.5 -4.1 L9.4 -6.1 7.15 -9.0 6.9 -9.25 8.3 -7.05 Q9.6 -4.9 9.6 -4.2 L9.6 -4.15 9.55 -3.9 9.45 -3.9 8.75 -5.65 8.4 -6.4 7.95 -7.25 M12.55 9.8 L11.45 9.15 11.05 8.6 10.2 6.6 10.2 6.15 10.3 6.15 Q10.25 6.75 11.05 8.45 L13.2 9.8 13.5 10.0 12.9 9.9 12.55 9.8 M12.7 7.85 L12.65 7.8 12.7 7.8 12.7 7.85 M10.45 7.7 Q10.55 9.1 11.45 10.3 L11.55 10.45 11.5 10.5 11.45 10.4 Q10.4 8.85 10.35 7.7 L10.45 7.7 M11.85 10.65 L13.5 11.25 13.35 11.3 Q12.75 11.25 11.75 10.65 L11.85 10.65 M11.1 10.35 L11.45 10.85 11.7 11.05 11.7 11.15 11.55 11.2 11.0 10.65 11.0 10.35 11.1 10.35 M-11.65 -5.6 Q-11.65 -6.25 -9.85 -8.05 L-11.6 -5.45 -11.65 -5.6 M-11.95 -2.4 L-12.15 -1.4 -12.3 0.85 -12.3 0.95 -12.35 1.35 -11.6 7.6 Q-11.6 9.5 -13.2 10.85 -11.9 9.65 -11.9 7.65 L-12.65 1.4 -12.65 1.35 -12.5 2.25 -12.45 2.2 -12.65 0.8 -12.55 -0.55 Q-12.45 -2.15 -12.05 -2.5 L-11.95 -2.4 M-11.7 3.8 L-11.65 3.85 -11.55 3.85 -11.45 3.55 -11.15 6.1 -11.35 9.05 Q-11.35 10.85 -13.0 11.75 L-11.95 10.5 -11.55 9.05 -11.45 6.1 -11.7 3.8 M-11.45 3.5 L-11.85 1.6 -11.95 -0.15 -11.9 -0.8 -11.75 -1.55 -11.6 -2.75 -11.45 -2.75 -11.4 -2.55 Q-11.4 -1.65 -11.75 -0.1 L-11.45 3.5 M-14.65 0.1 Q-14.65 -2.65 -13.95 -2.85 -14.45 -1.95 -14.55 0.5 L-14.6 0.55 -14.65 0.1 M-12.75 5.35 L-12.7 4.35 -12.85 0.6 -12.8 0.35 -12.8 0.5 -12.8 0.75 -12.55 5.3 Q-12.55 9.15 -14.55 10.1 L-14.6 10.05 Q-12.7 8.9 -12.7 6.15 L-12.75 5.35 M-14.65 1.05 L-14.55 1.05 -14.4 5.2 Q-14.4 7.9 -15.45 9.05 L-15.5 8.95 Q-14.5 6.8 -14.5 5.2 -14.5 3.75 -14.65 2.65 L-14.65 1.05 M-14.2 11.5 L-14.9 11.9 -14.95 11.85 -14.2 11.5" fill="#fee1a5" fill-rule="evenodd" stroke="none"/>
    <path d="M13.2 8.2 L12.85 8.6 12.7 8.6 13.8 9.7 13.55 10.0 14.05 10.3 14.15 10.2 14.3 10.3 15.0 10.1 15.1 10.05 14.05 8.95 Q13.45 8.75 13.45 8.3 L13.55 8.25 13.8 8.25 13.9 8.4 13.95 8.35 13.95 8.3 14.05 8.35 14.1 8.4 14.7 8.7 15.0 8.6 14.85 8.3 14.8 8.2 Q14.25 7.15 14.1 6.15 L14.05 5.5 Q14.05 4.4 14.35 3.4 L14.1 3.6 14.05 3.4 14.2 3.1 14.3 2.55 14.3 2.45 14.2 2.0 Q14.2 1.9 14.4 1.9 L14.45 1.85 14.6 2.5 14.6 2.65 14.75 2.9 14.35 5.05 Q14.35 6.05 15.4 8.55 15.4 9.0 14.75 9.0 L14.5 9.0 14.55 9.25 15.5 9.95 Q15.5 10.45 14.75 10.6 L15.3 11.0 15.7 10.85 15.85 11.05 15.0 11.95 12.7 12.5 11.85 12.3 11.8 12.3 11.45 12.3 Q10.45 12.05 9.95 10.4 L9.8 10.0 9.85 10.0 9.65 7.85 9.75 5.25 9.95 4.55 9.9 4.1 10.1 2.9 10.55 -0.05 9.9 -3.35 Q9.95 -2.2 9.5 -2.2 L9.1 -2.75 9.25 -2.95 9.05 -2.95 8.95 -3.25 8.5 -3.7 8.5 -3.35 8.5 -2.5 8.35 -2.4 8.45 -2.25 Q8.3 -0.6 7.65 0.65 L7.6 0.65 7.35 -2.65 7.45 -2.6 7.55 -2.65 7.7 0.0 Q8.2 -1.65 8.2 -3.3 7.9 -4.5 7.75 -5.75 7.1 -6.1 7.1 -7.05 L7.3 -6.9 7.65 -6.3 7.85 -6.1 8.35 -5.9 Q7.9 -6.5 7.9 -7.1 L7.95 -7.25 8.4 -6.4 8.75 -5.65 8.55 -5.6 8.15 -5.6 8.45 -4.4 9.5 -2.7 9.55 -2.7 9.55 -3.9 9.6 -4.15 9.6 -4.2 9.7 -4.2 Q10.5 -4.2 10.9 -0.05 L10.45 3.25 Q9.95 5.75 9.95 8.5 L10.15 10.2 10.25 10.45 10.6 11.05 11.45 11.8 11.95 12.15 12.7 12.25 Q14.6 12.2 15.2 11.3 14.1 11.15 14.0 10.55 L13.25 10.05 12.75 10.1 12.15 9.95 12.15 9.8 12.55 9.8 12.8 9.9 12.9 9.9 13.5 10.0 13.2 9.8 13.45 9.7 Q12.75 9.3 12.45 8.6 L12.45 8.55 12.3 8.6 12.2 8.4 12.5 8.4 12.5 8.5 12.55 8.4 12.6 8.4 12.7 8.45 13.15 8.2 13.2 8.2 M-14.6 -3.5 L-14.55 -3.5 -14.6 -2.85 -14.85 -1.3 -14.95 -0.95 -14.95 -0.85 -15.3 0.3 -15.65 3.55 -15.55 6.9 Q-15.55 8.9 -16.55 9.85 -16.3 10.1 -15.8 10.2 L-15.55 10.1 -15.65 9.65 -15.65 9.55 -15.6 9.55 -15.3 10.05 -15.35 10.15 -15.3 10.2 -15.25 10.15 -15.25 10.45 -15.25 10.85 -15.3 10.9 Q-14.6 10.7 -14.15 9.95 L-14.0 9.95 -14.0 10.35 -15.2 11.2 -15.4 11.2 -15.85 12.05 -14.7 12.05 -13.7 11.6 -13.55 11.35 Q-13.4 11.45 -13.4 11.75 L-14.25 12.3 -14.3 12.4 -13.75 12.55 -12.9 12.35 -12.95 12.3 Q-11.45 11.9 -11.25 10.3 L-10.85 8.05 Q-11.45 3.0 -11.45 0.65 L-11.4 -1.55 -10.9 -3.25 -11.65 -3.25 -11.7 -3.35 -11.8 -3.35 -11.8 -3.25 -12.05 -3.25 -12.0 -3.35 Q-5.35 -4.25 -3.5 -6.5 L-3.25 -6.7 -1.65 -9.5 -1.45 -9.8 -1.15 -10.35 Q-0.55 -11.2 0.0 -11.25 L0.05 -11.25 0.3 -11.25 1.85 -10.9 1.9 -10.85 2.85 -9.8 2.9 -9.75 3.0 -9.75 3.3 -8.85 3.4 -9.5 3.35 -9.8 2.75 -10.95 2.9 -11.0 3.1 -10.95 3.6 -10.55 3.75 -9.8 3.75 -9.75 Q6.8 -7.55 7.5 -2.95 L7.3 -3.0 7.25 -3.35 7.25 -3.4 7.2 -3.55 6.9 -4.6 6.8 -4.8 5.7 -7.25 4.85 -8.6 Q4.05 -9.1 3.75 -9.45 3.75 -8.2 3.15 -8.2 L2.5 -9.7 2.45 -9.8 Q1.55 -10.85 0.05 -10.85 -0.4 -10.85 -1.05 -9.8 L-1.8 -8.55 -3.2 -6.3 -5.85 -4.55 -6.05 -4.6 -6.2 -4.4 Q-8.1 -3.55 -10.25 -3.3 L-10.35 -3.35 -10.35 -3.3 -10.6 -3.3 -10.6 -3.0 -10.85 -2.65 -10.75 -2.35 -10.8 -2.3 -10.9 -1.9 -11.1 -1.35 -11.15 0.7 -10.65 7.2 -10.75 9.15 -10.65 9.55 -10.75 10.15 Q-11.1 11.8 -12.15 12.3 -12.4 12.85 -13.8 12.85 -14.7 12.85 -14.7 12.5 L-14.45 12.3 -14.7 12.3 -16.25 12.3 -16.3 12.15 -15.55 11.1 -15.55 10.7 -15.45 10.45 -15.45 10.4 -15.75 10.5 Q-16.75 10.5 -16.75 9.85 -15.8 8.8 -15.85 7.3 L-15.9 4.55 Q-15.9 0.65 -14.65 -3.5 L-14.6 -3.5 M-12.9 -2.8 L-12.85 -3.8 -12.75 -3.85 -12.65 -3.15 -12.5 -3.3 -12.55 -3.35 -12.5 -3.35 -12.2 -4.05 -12.1 -4.05 -12.2 -4.0 -12.15 -3.95 -12.05 -4.0 -12.05 -3.8 -12.25 -3.35 -12.05 -3.35 -12.1 -3.25 -12.35 -3.25 -12.55 -2.85 -12.7 -2.85 -12.9 -2.8" fill="#70510a" fill-rule="evenodd" stroke="none"/>
    <path d="M7.55 -2.65 L7.45 -2.6 7.35 -2.65 7.6 0.65 7.2 0.65 3.1 1.75 3.0 1.45 2.5 0.85 2.4 0.85 2.3 0.9 2.3 1.0 Q2.3 1.9 2.85 2.05 L3.1 2.1 3.25 2.1 4.65 1.55 Q5.9 0.95 7.15 1.0 9.15 1.0 9.5 2.05 9.15 0.8 7.65 0.65 8.3 -0.6 8.45 -2.25 L8.35 -2.4 8.5 -2.5 8.5 -3.35 8.5 -3.7 8.95 -3.25 9.05 -2.95 9.25 -2.95 9.1 -2.75 9.5 -2.2 Q9.95 -2.2 9.9 -3.35 L10.55 -0.05 10.1 2.9 9.9 4.1 Q9.7 3.6 9.05 3.6 8.05 3.6 8.05 4.6 8.05 5.6 9.05 5.6 9.5 5.55 9.75 5.25 L9.65 7.85 9.85 10.0 9.8 10.0 9.95 10.4 Q8.35 12.0 6.5 12.95 3.45 14.5 -0.25 14.55 -3.95 14.5 -7.0 12.95 -9.0 11.9 -10.7 10.2 L-10.75 10.15 -10.65 9.55 -10.35 9.7 -9.6 10.95 -9.15 11.4 -8.1 12.1 -8.0 12.1 Q-7.25 12.85 -6.9 12.85 L-6.65 12.8 -6.45 12.95 -5.9 13.2 -5.7 13.15 -5.9 12.95 -6.35 12.45 -6.65 12.25 -6.3 12.2 -6.3 12.25 -6.05 12.25 -6.05 12.2 -5.7 12.2 -5.7 11.95 -6.8 11.65 -7.45 11.2 -7.55 11.2 -7.55 11.25 -7.65 11.1 -6.0 11.0 -4.75 11.05 -1.95 11.3 0.05 11.25 0.05 11.15 2.2 11.3 3.9 11.0 4.65 11.0 6.3 11.2 6.85 11.3 7.3 11.2 7.5 11.3 8.15 10.9 6.5 7.95 5.95 7.1 4.35 4.85 3.7 4.2 Q2.8 3.6 0.25 3.6 -2.6 3.6 -3.75 4.2 L-4.55 4.8 -6.55 7.0 -7.3 7.85 -8.65 9.65 -8.65 9.6 -8.8 9.05 -8.4 8.25 -8.5 8.15 -8.5 8.1 -8.3 7.65 -8.4 7.55 -8.8 7.95 -8.95 7.95 -9.25 8.1 -9.45 7.7 -9.45 7.0 -9.45 6.8 -9.45 6.1 -9.4 5.8 -9.5 5.4 -9.6 4.55 Q-8.25 4.55 -8.25 3.2 -8.25 1.7 -9.45 1.7 L-9.65 1.7 -9.95 0.15 -10.0 -1.8 -9.9 -2.1 Q-8.9 -2.15 -8.9 -2.7 -8.9 -3.3 -9.45 -3.3 L-10.15 -3.25 -10.25 -3.3 Q-8.1 -3.55 -6.2 -4.4 L-6.05 -4.6 -5.85 -4.55 -3.2 -6.3 -1.8 -8.55 -1.05 -9.8 Q-0.4 -10.85 0.05 -10.85 1.55 -10.85 2.45 -9.8 L2.5 -9.7 3.15 -8.2 Q3.75 -8.2 3.75 -9.45 4.05 -9.1 4.85 -8.6 L5.7 -7.25 6.8 -4.8 6.9 -4.6 7.2 -3.55 7.25 -3.4 7.25 -3.35 7.3 -3.0 7.5 -2.95 7.55 -2.9 7.6 -2.7 7.55 -2.65 M9.65 -1.9 L10.05 -2.2 9.95 -2.3 9.65 -1.9 M4.4 0.25 L4.4 0.3 4.6 0.3 4.45 0.25 4.4 0.25 M3.7 2.15 L3.7 2.25 4.4 2.5 4.45 2.45 4.45 2.35 3.9 2.15 3.7 2.15 M-10.35 -3.3 L-10.35 -3.2 -10.6 -3.0 -10.6 -3.3 -10.35 -3.3 M-10.9 -1.9 L-11.0 -1.45 -11.05 -0.15 -10.95 0.95 -11.05 1.3 -10.85 2.9 -10.85 3.15 -10.85 3.25 -10.95 3.6 -10.55 5.8 -10.55 6.45 -10.65 7.2 -11.15 0.7 -11.1 -1.35 -10.9 -1.9 M-3.05 1.15 L-2.7 1.35 -2.05 1.85 -1.75 2.0 -1.6 2.0 Q-0.75 1.95 -0.75 1.25 L-0.8 1.1 -1.0 1.05 -1.25 1.4 -1.75 1.55 -1.8 1.5 -2.5 1.05 -3.15 0.75 -3.65 0.5 Q-4.9 0.0 -5.55 0.05 L-8.35 0.2 -8.65 0.25 Q-9.2 0.4 -9.2 0.65 L-9.15 0.75 -8.65 0.45 -8.35 0.4 -7.2 0.3 Q-5.15 0.3 -3.8 0.8 L-3.35 1.0 -3.4 1.05 -3.35 1.2 -3.1 1.2 -3.05 1.15 M-0.4 0.3 L-0.45 0.15 -0.65 0.15 -0.65 0.25 -0.55 0.35 -0.7 0.7 -0.65 0.75 -0.4 0.3 M-2.35 2.4 L-2.35 2.3 -3.1 2.15 -3.55 2.2 -2.75 2.4 -2.35 2.4 M-7.05 12.0 L-7.0 12.0 -6.8 12.15 Q-6.95 12.05 -7.05 12.0" fill="#ffddbb" fill-rule="evenodd" stroke="none"/>
    <path d="M4.4 0.25 L4.45 0.25 4.6 0.3 4.4 0.3 4.4 0.25 M-3.05 1.15 L-3.1 1.2 -3.35 1.2 -3.4 1.05 -3.35 1.0 -3.1 1.15 -3.05 1.15" fill="#ffffff" fill-rule="evenodd" stroke="none"/>
    <path d="M-8.65 9.65 L-7.3 7.85 -6.55 7.0 -4.55 4.8 -3.75 4.2 Q-2.6 3.6 0.25 3.6 2.8 3.6 3.7 4.2 L4.35 4.85 5.95 7.1 6.5 7.95 8.15 10.9 7.5 11.3 7.3 11.2 6.85 11.3 6.3 11.2 4.65 11.0 3.9 11.0 2.2 11.3 0.05 11.15 0.05 11.25 -1.95 11.3 -4.75 11.05 -6.0 11.0 -7.65 11.1 Q-8.7 11.2 -8.95 11.5 L-9.15 11.4 -9.1 11.35 -9.3 11.1 Q-9.35 10.6 -8.65 9.65 M1.05 10.95 L2.25 10.95 4.25 10.75 4.8 10.8 6.45 10.9 7.25 11.0 7.25 10.9 7.85 10.95 6.3 8.3 5.5 7.05 4.3 5.3 3.7 4.7 Q3.15 4.15 2.55 4.05 L-1.05 3.9 -1.05 3.95 Q-3.15 4.15 -3.85 4.65 L-3.95 4.75 -4.65 5.4 -6.35 7.3 -7.05 8.15 -8.45 10.0 -9.0 11.1 -8.9 11.2 Q-8.55 10.95 -7.85 10.85 L-5.95 10.75 -5.0 10.75 -2.75 10.9 -2.6 10.9 -2.2 10.95 -0.4 10.95 -0.3 10.95 -0.05 10.95 0.0 11.0 0.2 10.95 0.25 10.95 0.45 11.1 0.55 10.95 0.85 10.95 0.9 11.0 1.05 10.95 M3.1 7.3 L4.45 8.1 5.85 9.1 Q6.6 9.7 6.6 10.0 L6.55 10.15 6.5 10.1 6.35 10.25 5.25 10.05 2.95 9.7 1.0 9.45 -0.15 9.05 Q1.25 9.6 -5.0 9.5 L-5.8 9.75 -6.9 9.9 -7.1 9.9 -7.45 9.55 -7.45 9.65 -7.55 9.65 -7.5 9.5 -7.5 9.4 -6.8 8.6 -6.75 8.6 Q-6.1 8.0 -5.8 7.95 L-4.8 7.3 Q-4.0 6.85 -2.4 6.85 L3.1 7.3 M4.55 8.6 Q2.85 7.25 1.8 7.3 L-2.4 7.15 Q-4.45 7.1 -6.55 8.8 L-7.2 9.4 Q-6.8 9.55 -6.75 9.7 L-6.0 9.55 -5.05 9.3 -0.95 9.05 -0.1 8.75 1.0 9.1 3.1 9.5 5.55 9.65 5.7 9.65 6.0 9.75 5.65 9.5 4.55 8.6" fill="#990000" fill-rule="evenodd" stroke="none"/>
    <path d="M1.15 5.55 L0.7 5.05 0.1 4.95 0.0 4.95 -0.05 4.95 Q-0.65 5.0 -0.65 5.55 L-0.65 5.65 -0.8 5.65 -0.8 5.9 Q-1.0 5.4 -1.35 5.4 L-1.7 5.6 -1.95 5.55 -2.1 5.4 -2.25 5.6 -2.3 5.5 Q-2.75 5.4 -2.55 5.75 L-2.8 5.8 -2.9 5.65 -3.25 5.9 -3.15 6.15 -3.0 6.15 -3.0 5.9 -2.75 6.15 -2.6 6.05 -2.5 6.25 -2.35 6.1 -2.25 6.25 Q-2.25 6.6 -1.95 6.05 L-1.8 6.05 -1.55 6.5 -0.6 6.5 -0.6 6.4 -0.45 6.55 0.2 6.4 0.5 6.15 0.65 6.15 Q0.55 6.55 1.15 6.6 1.5 6.55 1.5 6.2 1.5 6.55 1.8 6.6 L2.0 6.45 2.35 6.55 3.0 7.0 Q3.45 7.05 3.65 7.25 L4.2 7.5 Q3.4 6.55 2.9 6.45 L2.9 6.15 2.4 6.1 2.35 5.9 1.95 5.9 1.4 5.6 1.15 5.55 M-2.75 10.9 L-5.0 10.75 -5.95 10.75 -7.85 10.85 Q-8.55 10.95 -8.9 11.2 L-9.0 11.1 -8.45 10.0 -7.05 8.15 -6.35 7.3 -4.65 5.4 -3.95 4.75 -3.85 4.65 Q-3.15 4.15 -1.05 3.95 L-1.05 3.9 2.55 4.05 Q3.15 4.15 3.7 4.7 L4.3 5.3 5.5 7.05 6.3 8.3 7.85 10.95 7.25 10.9 7.25 11.0 6.45 10.9 4.8 10.8 4.25 10.75 2.25 10.95 1.05 10.95 1.1 10.85 1.25 10.9 1.7 10.8 2.4 10.9 2.8 10.75 2.55 10.65 2.35 10.75 1.05 10.45 Q0.95 10.45 0.8 10.6 L0.5 10.3 0.35 10.4 0.15 10.3 0.0 10.4 -0.7 10.2 -1.15 10.7 Q-1.35 10.35 -1.6 10.4 L-1.8 10.4 -1.8 10.7 -2.9 10.65 -3.05 10.75 -2.75 10.9 M3.1 7.3 L-2.4 6.85 Q-4.0 6.85 -4.8 7.3 L-5.8 7.95 Q-6.1 8.0 -6.75 8.6 L-6.8 8.6 -7.5 9.4 -7.5 9.5 -7.55 9.65 -7.45 9.65 -7.45 9.55 -7.1 9.9 -6.9 9.9 -5.8 9.75 -5.0 9.5 Q1.25 9.6 -0.15 9.05 L1.0 9.45 2.95 9.7 5.25 10.05 6.35 10.25 6.5 10.1 6.55 10.15 6.6 10.0 Q6.6 9.7 5.85 9.1 L4.45 8.1 3.1 7.3 M-4.05 6.1 L-4.45 6.4 -4.45 6.5 -3.9 6.25 -3.85 6.45 -3.5 6.2 -3.45 6.2 -3.4 6.55 -3.1 6.55 -3.05 6.4 Q-3.05 6.1 -3.45 6.1 L-3.7 6.35 -3.75 6.35 -3.8 6.1 -4.05 6.1" fill="#ff1515" fill-rule="evenodd" stroke="none"/>
    <path d="M4.55 8.6 L5.65 9.5 6.0 9.75 5.7 9.65 5.55 9.65 3.1 9.5 1.0 9.1 -0.1 8.75 -0.95 9.05 -5.05 9.3 -6.0 9.55 -6.75 9.7 Q-6.8 9.55 -7.2 9.4 L-6.55 8.8 Q-4.45 7.1 -2.4 7.15 L1.8 7.3 Q2.85 7.25 4.55 8.6" fill="#770000" fill-rule="evenodd" stroke="none"/>
    <path d="M1.15 5.55 L1.4 5.6 1.95 5.9 2.35 5.9 2.4 6.1 2.9 6.15 2.9 6.45 Q3.4 6.55 4.2 7.5 L3.65 7.25 Q3.45 7.05 3.0 7.0 L2.35 6.55 2.0 6.45 1.8 6.6 Q1.5 6.55 1.5 6.2 1.5 6.55 1.15 6.6 0.55 6.55 0.65 6.15 L0.5 6.15 0.2 6.4 -0.45 6.55 -0.6 6.4 -0.6 6.5 -1.55 6.5 -1.8 6.05 -1.95 6.05 Q-2.25 6.6 -2.25 6.25 L-2.35 6.1 -2.5 6.25 -2.6 6.05 -2.75 6.15 -3.0 5.9 -3.0 6.15 -3.15 6.15 -3.25 5.9 -2.9 5.65 -2.8 5.8 -2.55 5.75 Q-2.75 5.4 -2.3 5.5 L-2.25 5.6 -2.1 5.4 -1.95 5.55 -1.7 5.6 -1.35 5.4 Q-1.0 5.4 -0.8 5.9 L-0.8 5.65 -0.65 5.65 -0.65 5.55 Q-0.65 5.0 -0.05 4.95 L0.0 4.95 0.1 4.95 0.7 5.05 1.15 5.55 M1.05 10.95 L0.9 11.0 0.85 10.95 0.65 10.85 0.55 10.95 0.45 11.1 0.25 10.95 0.25 10.9 0.2 10.95 0.0 11.0 -0.05 10.95 -0.15 10.9 -0.3 10.95 -0.4 10.95 -0.65 10.9 -2.6 10.9 -2.75 10.9 -3.05 10.75 -2.9 10.65 -1.8 10.7 -1.8 10.4 -1.6 10.4 Q-1.35 10.35 -1.15 10.7 L-0.7 10.2 0.0 10.4 0.15 10.3 0.35 10.4 0.5 10.3 0.8 10.6 Q0.95 10.45 1.05 10.45 L2.35 10.75 2.55 10.65 2.8 10.75 2.4 10.9 1.7 10.8 1.25 10.9 1.1 10.85 1.05 10.95 M-4.05 6.1 L-3.8 6.1 -3.75 6.35 -3.7 6.35 -3.45 6.1 Q-3.05 6.1 -3.05 6.4 L-3.1 6.55 -3.4 6.55 -3.45 6.2 -3.5 6.2 -3.85 6.45 -3.9 6.25 -4.45 6.5 -4.45 6.4 -4.05 6.1 M-0.9 10.5 L-0.95 10.5 -1.0 10.65 -0.9 10.65 -0.9 10.5" fill="#ffa4a4" fill-rule="evenodd" stroke="none"/>
    <path d="M12.15 4.55 L12.15 4.6 Q12.2 6.15 13.4 8.25 L13.25 8.35 13.2 8.2 13.15 8.2 Q12.4 6.9 12.15 5.95 L12.0 5.0 12.05 4.35 12.15 4.35 12.15 4.55 M-0.5 -13.05 L-0.55 -13.1 -0.75 -13.4 -0.8 -13.5 -0.55 -13.75 Q0.05 -13.75 0.05 -13.25 L-0.2 -12.95 -0.5 -13.05 M12.5 8.4 L11.6 5.85 11.6 5.6 11.7 5.6 12.55 8.4 12.5 8.5 12.5 8.4 M0.0 -11.25 L-0.05 -11.5 0.05 -11.75 0.0 -11.8 -0.3 -12.15 -0.3 -12.2 -0.15 -12.25 -0.1 -12.3 -0.05 -12.3 Q0.4 -12.35 0.4 -11.7 L0.25 -11.4 0.0 -11.25" fill="#fdad06" fill-rule="evenodd" stroke="none"/>
    <path d="M9.9 4.1 L9.95 4.55 9.75 5.25 Q9.5 5.55 9.05 5.6 8.05 5.6 8.05 4.6 8.05 3.6 9.05 3.6 9.7 3.6 9.9 4.1 M-10.25 -3.3 L-10.15 -3.25 -9.45 -3.3 Q-8.9 -3.3 -8.9 -2.7 -8.9 -2.15 -9.9 -2.1 L-10.0 -1.8 -9.95 0.15 -9.65 1.7 -9.45 1.7 Q-8.25 1.7 -8.25 3.2 -8.25 4.55 -9.6 4.55 L-9.5 5.4 -9.4 5.8 -9.45 6.1 -9.45 6.8 -9.45 7.0 -9.45 7.7 -9.25 8.1 -8.95 7.95 -8.8 7.95 -8.4 7.55 -8.3 7.65 -8.5 8.1 -8.5 8.15 -8.4 8.25 -8.8 9.05 -8.65 9.6 -8.65 9.65 Q-9.35 10.6 -9.3 11.1 L-9.1 11.35 -9.15 11.4 -8.95 11.5 Q-8.7 11.2 -7.65 11.1 L-7.55 11.25 -7.55 11.2 -7.45 11.2 -6.8 11.65 -5.7 11.95 -5.7 12.2 -6.05 12.2 -6.05 12.25 -6.3 12.25 -6.3 12.2 -6.65 12.25 -6.35 12.45 -5.9 12.95 -5.7 13.15 -5.9 13.2 -6.45 12.95 -6.65 12.8 -6.9 12.85 Q-7.25 12.85 -8.0 12.1 L-8.1 12.1 -9.15 11.4 -9.6 10.95 -10.35 9.7 -10.65 9.55 -10.75 9.15 -10.65 7.2 -10.55 6.45 -10.55 5.8 -10.95 3.6 -10.85 3.25 -10.85 3.15 -10.85 2.9 -11.05 1.3 -10.95 0.95 -11.05 -0.15 -11.0 -1.45 -10.9 -1.9 -10.8 -2.3 -10.75 -2.35 -10.85 -2.65 -10.6 -3.0 -10.35 -3.2 -10.35 -3.3 -10.35 -3.35 -10.25 -3.3 M-7.05 12.0 Q-6.95 12.05 -6.8 12.15 L-7.0 12.0 -7.05 12.0" fill="#ffb99b" fill-rule="evenodd" stroke="none"/>
    <path d="M-14.15 8.1 Q-13.1 6.05 -13.1 4.35 L-13.35 -0.2 Q-13.35 -2.45 -12.9 -2.8 L-12.7 -2.85 -12.55 -2.85 -12.45 -2.65 -12.45 -2.45 -12.55 -1.7 -12.35 -2.65 -12.2 -2.8 -12.15 -2.75 -12.05 -2.5 Q-12.45 -2.15 -12.55 -0.55 L-12.7 -0.1 -12.65 0.8 -12.45 2.2 -12.5 2.25 -12.65 1.35 -12.8 0.5 -12.8 0.35 -12.85 0.6 -12.7 4.35 -12.75 5.35 -13.05 6.55 Q-13.9 8.3 -14.2 8.5 L-14.25 8.35 -14.25 8.3 -14.15 8.1 M-10.3 -4.4 L-10.4 -4.45 Q-7.1 -7.05 -6.05 -8.55 L-5.1 -9.8 -2.75 -12.65 -2.55 -12.45 Q-2.55 -12.05 -3.45 -10.8 L-4.2 -9.8 -5.55 -8.25 -7.7 -6.05 -8.9 -5.05 -9.4 -4.7 -9.5 -4.65 Q-10.0 -4.3 -10.2 -4.3 L-10.3 -4.35 -10.3 -4.4 M-4.7 -11.75 Q-4.7 -11.2 -5.95 -9.8 -7.6 -8.05 -11.3 -4.95 L-11.4 -4.95 -11.5 -4.9 -11.55 -5.05 Q-8.35 -8.85 -8.1 -9.3 L-7.75 -9.8 -5.9 -11.65 -3.6 -13.35 -3.45 -13.3 -7.2 -9.8 -7.85 -9.05 -9.7 -6.9 -11.15 -5.25 Q-8.45 -7.45 -6.45 -9.8 L-5.35 -11.2 -4.8 -11.95 -4.7 -11.75 M-6.65 -12.75 L-6.65 -12.6 Q-8.5 -11.45 -9.8 -9.8 -11.7 -7.35 -12.45 -4.0 L-12.6 -4.0 -12.65 -4.75 -12.55 -5.5 -12.4 -6.05 -12.3 -6.25 -12.3 -6.3 -12.3 -6.35 Q-11.9 -7.55 -10.9 -9.05 L-10.85 -9.15 -10.4 -9.8 -9.05 -11.35 -8.7 -11.7 -8.4 -11.95 Q-7.35 -12.95 -6.9 -12.95 L-6.7 -12.95 -6.65 -12.9 -6.65 -12.75 M-13.3 -2.75 L-13.75 -1.8 -14.2 -0.35 -14.0 4.05 -14.05 4.9 -14.15 4.95 -14.4 1.45 -14.25 -1.0 -13.35 -3.15 -13.3 -3.2 -13.2 -3.0 -13.3 -2.75 M-0.45 -13.0 L-0.5 -13.05 -0.2 -12.95 0.05 -13.25 Q0.05 -13.75 -0.55 -13.75 L-0.8 -13.5 -1.15 -14.25 -0.9 -14.55 Q-0.3 -14.6 0.2 -13.25 L0.6 -11.65 Q0.6 -11.25 0.3 -11.25 L0.25 -11.4 0.4 -11.7 Q0.4 -12.35 -0.05 -12.3 L-0.1 -12.3 -0.3 -12.7 -0.45 -13.0 M-11.8 -3.25 L-11.8 -3.35 -11.7 -3.35 -11.65 -3.25 -11.6 -2.9 -11.6 -2.75 -11.75 -1.55 -11.9 -0.8 -12.05 -0.3 -11.85 1.6 -11.45 3.5 -11.45 3.55 -11.55 3.85 -11.65 3.85 -11.7 3.8 -11.7 3.75 -11.7 3.65 Q-12.3 2.1 -12.3 0.95 L-12.3 0.85 -12.15 -1.4 -11.95 -2.4 -11.8 -3.25" fill="#fdba2f" fill-rule="evenodd" stroke="none"/>
    <path d="M14.0 -4.1 Q13.25 -6.8 11.45 -9.05 L10.85 -9.8 10.3 -10.35 10.15 -10.5 Q6.05 -14.6 0.35 -14.75 L-0.25 -14.75 Q-6.35 -14.8 -10.7 -10.5 L-11.35 -9.8 -12.5 -8.35 Q-14.05 -6.1 -14.6 -3.5" fill="none" stroke="#a27202" stroke-linecap="round" stroke-linejoin="round" stroke-width="0.5"/>
    <path d="M14.4 1.9 L14.5 -0.1 Q14.5 -2.05 14.05 -3.85 M-10.75 10.15 L-10.7 10.2 Q-9.0 11.9 -7.0 12.95 -3.95 14.5 -0.25 14.55 3.45 14.5 6.5 12.95 8.35 12.0 9.95 10.4" fill="none" stroke="#865204" stroke-linecap="round" stroke-linejoin="round" stroke-width="0.5"/>
  </g>
</svg>
