<?xml version="1.0" encoding="UTF-8" standalone="no"?>
<svg xmlns:xlink="http://www.w3.org/1999/xlink" height="29.9px" width="32.6px" xmlns="http://www.w3.org/2000/svg">
  <g transform="matrix(1.0, 0.0, 0.0, 1.0, 16.75, 15.1)">
    <path d="M14.05 -3.9 L13.8 -3.85 13.75 -4.2 14.0 -4.15 14.2 -4.1 14.05 -3.9 M7.65 0.65 Q9.15 0.75 9.5 1.95 9.15 0.95 7.15 0.95 5.9 0.95 4.65 1.5 L3.25 2.0 3.1 2.05 2.85 2.0 Q2.3 1.8 2.3 0.95 L2.3 0.85 2.4 0.8 2.5 0.85 3.0 1.45 3.1 1.7 7.2 0.6 7.6 0.65 7.65 0.65 M10.05 -2.25 L9.65 -2.0 9.95 -2.35 10.05 -2.25 M3.7 2.1 L3.9 2.1 4.45 2.3 4.45 2.4 4.4 2.45 3.7 2.2 3.7 2.1 M-0.4 0.25 L-0.65 0.7 -0.7 0.65 Q-0.55 0.55 -0.55 0.3 L-0.65 0.2 -0.65 0.1 -0.45 0.1 -0.4 0.25 M-3.35 0.95 L-3.8 0.8 Q-5.15 0.25 -7.2 0.25 L-8.35 0.35 -8.65 0.4 -9.15 0.7 -9.2 0.6 Q-9.2 0.35 -8.65 0.2 L-8.35 0.15 -5.55 0.0 Q-4.9 -0.05 -3.65 0.45 L-3.15 0.7 Q-2.9 0.8 -2.5 1.05 -2.2 1.2 -1.8 1.45 L-1.75 1.5 -1.25 1.4 -1.0 1.0 -0.8 1.05 -0.75 1.2 Q-0.75 1.85 -1.6 1.95 L-1.75 1.95 -2.05 1.75 -2.7 1.35 -3.05 1.1 -3.1 1.1 -3.35 0.95 M-2.35 2.35 L-2.75 2.35 -3.55 2.15 -3.1 2.1 -2.35 2.25 -2.35 2.35" fill="#000000" fill-rule="evenodd" stroke="none"/>
    <path d="M7.3 -7.0 L7.4 -6.8 7.65 -6.8 7.65 -6.95 5.4 -9.85 4.95 -10.35 3.3 -12.05 Q1.05 -12.85 0.6 -13.35 L0.55 -13.35 Q0.5 -12.95 1.4 -12.5 L1.3 -12.5 0.9 -12.4 0.95 -12.35 3.1 -11.05 2.9 -11.05 2.75 -11.0 3.35 -9.85 3.4 -9.55 3.3 -8.9 3.0 -9.85 3.1 -9.85 2.25 -11.0 0.9 -11.95 0.75 -11.9 1.85 -10.95 Q1.2 -11.3 0.3 -11.3 0.6 -11.35 0.6 -11.75 L0.2 -13.35 Q-0.3 -14.7 -0.9 -14.65 L-1.15 -14.35 -0.8 -13.55 -0.75 -13.45 Q-1.4 -13.35 -1.7 -12.7 L-2.9 -11.25 -3.75 -10.0 -3.45 -10.6 -3.9 -9.85 -3.95 -9.75 -4.3 -9.3 -4.4 -9.3 Q-4.5 -8.75 -6.2 -7.25 L-6.15 -7.2 -4.9 -8.4 -6.8 -6.6 -6.6 -6.55 Q-5.5 -7.3 -4.5 -8.8 L-4.3 -8.95 -4.3 -9.1 -4.05 -9.5 -3.75 -9.85 -1.45 -12.75 -0.55 -13.2 -0.5 -13.15 -0.45 -13.05 -0.8 -12.8 Q-1.7 -12.45 -1.8 -11.85 -2.45 -11.3 -2.9 -10.0 L-2.95 -9.85 Q-3.6 -8.3 -4.35 -7.6 -5.3 -6.75 -7.15 -5.95 L-8.9 -5.1 -7.7 -6.1 -5.55 -8.3 -4.2 -9.85 -3.5 -10.8 -3.55 -10.65 -3.5 -10.65 -2.5 -12.35 Q-2.0 -13.35 -1.25 -13.6 L-1.15 -13.65 -1.2 -13.7 -1.2 -13.75 -1.15 -13.9 -1.65 -14.2 -1.7 -14.25 -1.95 -14.25 Q-4.55 -14.0 -6.7 -13.0 L-6.9 -13.05 Q-7.35 -13.05 -8.4 -12.1 -9.75 -11.2 -10.9 -9.9 L-10.95 -9.85 -12.75 -7.05 -13.9 -4.3 -13.8 -3.75 -13.75 -3.8 -13.15 -5.65 -13.1 -5.55 -13.0 -5.6 -12.95 -5.7 -13.0 -5.4 Q-13.35 -4.6 -13.35 -3.15 L-14.25 -1.05 -14.4 1.4 -14.15 4.9 -14.05 4.9 -14.0 4.0 -14.2 -0.4 -13.75 -1.85 -13.3 -2.85 -13.25 -2.4 -13.2 -2.45 -12.55 -5.55 -12.65 -4.8 -12.6 -4.05 -12.45 -4.05 Q-11.7 -7.45 -9.8 -9.85 -8.5 -11.55 -6.65 -12.7 L-6.65 -12.9 Q-4.75 -13.7 -2.3 -14.05 -5.9 -13.0 -7.75 -11.2 L-8.9 -9.85 -10.4 -7.7 -10.35 -7.65 -8.55 -9.85 Q-5.8 -12.85 -2.25 -14.05 L-2.3 -13.95 -2.15 -13.75 Q-3.65 -13.05 -4.8 -12.1 L-6.55 -10.15 -5.35 -11.3 -6.45 -9.85 Q-8.45 -7.55 -11.15 -5.3 L-9.7 -7.0 -7.85 -9.1 -7.2 -9.85 -3.45 -13.4 -3.6 -13.45 -5.9 -11.75 Q-7.1 -10.9 -7.75 -9.85 L-8.1 -9.35 Q-8.35 -8.9 -11.55 -5.1 L-11.5 -4.95 -11.4 -5.05 -11.3 -5.0 Q-7.6 -8.15 -5.95 -9.85 -4.7 -11.3 -4.7 -11.85 L-4.7 -11.9 -2.1 -13.75 -1.7 -13.65 -2.55 -12.6 -2.75 -12.75 -5.1 -9.85 -6.05 -8.6 Q-7.1 -7.1 -10.4 -4.55 L-10.3 -4.45 -10.5 -4.35 -11.7 -3.9 -11.65 -3.75 -11.4 -3.7 Q-10.9 -3.7 -6.85 -5.05 L-3.5 -6.6 Q-5.35 -4.3 -12.0 -3.4 L-11.95 -3.55 -12.05 -3.4 -12.25 -3.35 -12.05 -3.85 -12.05 -4.0 Q-7.65 -6.45 -5.15 -9.85 L-3.75 -12.3 -5.35 -9.85 -6.95 -8.0 Q-10.8 -4.8 -12.1 -4.1 L-12.2 -4.1 -12.5 -3.35 -12.65 -3.15 -12.75 -3.9 -12.85 -3.85 -12.9 -2.85 Q-13.35 -2.55 -13.35 -0.25 L-13.1 4.35 Q-13.1 6.05 -14.15 8.05 -13.7 6.8 -13.7 5.4 L-13.9 1.65 Q-13.9 -0.2 -13.3 -1.85 -13.95 -1.3 -13.95 0.0 L-14.1 1.8 -13.9 3.7 -13.85 5.8 Q-13.85 7.65 -15.3 10.05 L-15.6 9.55 -15.65 9.55 -15.65 9.65 -15.55 10.1 -15.8 10.15 -16.55 9.85 Q-15.55 8.9 -15.55 6.85 L-15.65 3.55 -15.3 0.25 -14.95 -0.9 -14.95 -1.0 -14.85 -1.35 -14.6 -2.95 -14.55 -3.55 -14.6 -3.55 Q-14.05 -6.15 -12.5 -8.4 L-11.35 -9.85 -10.7 -10.6 Q-6.35 -14.9 -0.25 -14.85 L0.35 -14.85 Q6.05 -14.65 10.15 -10.6 L10.3 -10.45 10.85 -9.85 11.45 -9.1 Q13.25 -6.85 14.0 -4.15 L13.75 -4.2 13.8 -3.85 14.05 -3.9 Q14.5 -2.15 14.5 -0.15 L14.4 1.8 14.2 1.95 14.3 2.4 14.3 2.45 14.2 3.05 14.05 3.4 14.1 3.6 14.35 3.4 Q14.05 4.35 14.05 5.5 L14.1 6.15 Q13.6 4.45 13.6 3.3 L14.0 -0.45 12.25 -6.45 12.15 -6.35 13.1 -3.45 Q13.7 -1.7 13.7 -0.45 L13.5 1.8 Q13.5 -0.45 13.05 -2.45 L12.05 -4.85 11.45 -6.0 11.35 -6.15 9.5 -9.55 9.3 -9.85 Q7.25 -13.1 6.15 -13.1 L5.95 -13.1 5.95 -12.9 Q7.35 -12.05 8.9 -9.85 L11.1 -6.4 11.0 -6.4 11.3 -6.0 11.35 -5.9 11.45 -5.75 Q13.4 -2.8 13.4 1.95 L13.35 3.0 13.3 3.2 13.3 3.35 13.05 5.4 Q13.05 7.25 13.8 8.25 L13.55 8.2 13.45 8.25 Q13.45 8.75 14.05 8.9 L15.1 10.0 15.0 10.05 14.3 10.25 14.15 10.15 14.05 10.25 13.55 10.0 13.8 9.7 12.7 8.55 12.85 8.6 13.2 8.2 13.25 8.3 13.4 8.2 Q12.2 6.1 12.15 4.6 L12.15 4.55 12.45 0.35 Q12.45 -2.75 11.45 -4.65 L11.4 -4.8 8.4 -9.55 8.15 -9.85 6.45 -11.85 Q4.35 -13.95 3.05 -13.9 L2.9 -13.9 Q5.9 -12.35 7.8 -9.85 L8.1 -9.5 11.1 -5.1 11.05 -5.05 11.45 -4.2 Q12.25 -2.25 12.25 0.35 L11.95 4.55 Q11.95 6.9 12.6 7.7 L12.6 7.65 12.15 6.15 12.15 5.95 Q12.4 6.85 13.15 8.15 L12.7 8.4 12.6 8.4 12.55 8.35 11.7 5.6 11.6 5.6 11.6 5.85 12.5 8.35 12.45 8.35 12.45 8.4 12.2 8.35 11.45 6.75 Q11.1 5.55 11.1 4.15 L11.4 -0.6 Q11.4 -2.3 11.0 -3.45 9.25 -7.45 7.4 -9.35 L6.85 -9.85 4.6 -12.0 Q1.75 -14.3 0.5 -14.3 L0.35 -14.25 4.4 -11.8 6.75 -9.45 6.3 -9.85 Q3.05 -12.85 0.2 -13.65 L0.15 -13.6 Q3.95 -12.1 6.15 -9.85 L6.7 -9.2 7.95 -7.35 7.9 -7.2 Q7.9 -6.6 8.35 -5.95 8.05 -6.05 7.85 -6.2 L7.65 -6.4 7.65 -6.35 7.3 -7.0 M3.6 -10.6 L4.3 -9.85 5.65 -8.2 Q6.55 -6.95 7.85 -3.95 L7.95 -4.0 Q6.75 -7.55 5.75 -8.6 L4.7 -9.85 4.0 -10.7 2.4 -12.05 3.2 -11.8 4.8 -10.15 5.0 -9.85 7.1 -7.15 Q7.1 -6.2 7.75 -5.85 7.9 -4.55 8.2 -3.3 8.2 -1.75 7.7 -0.05 L7.55 -2.75 7.6 -2.8 7.55 -3.0 7.5 -3.0 Q6.8 -7.65 3.75 -9.85 L3.6 -10.6 M8.75 -5.7 L9.45 -3.95 9.55 -3.95 9.55 -2.8 9.5 -2.8 8.45 -4.5 8.15 -5.7 8.55 -5.65 8.75 -5.7 M9.6 -4.25 Q9.6 -5.0 8.3 -7.15 L7.15 -9.05 9.4 -6.2 10.5 -4.15 Q11.25 -2.15 11.25 -0.6 L10.95 4.85 Q10.95 6.65 11.45 7.8 11.95 8.95 12.9 9.5 L12.95 9.35 12.3 8.55 12.45 8.5 12.45 8.6 Q12.75 9.25 13.45 9.7 L13.2 9.8 11.05 8.4 Q10.25 6.7 10.3 6.15 L10.2 6.15 10.2 6.6 11.05 8.6 11.45 9.15 12.55 9.8 12.9 9.9 12.8 9.9 12.55 9.8 12.15 9.8 12.15 9.95 12.75 10.05 13.25 10.05 14.0 10.6 Q14.1 11.2 15.2 11.3 14.6 12.2 12.7 12.2 L11.95 12.15 11.95 12.1 11.45 11.8 10.6 11.05 10.25 10.45 10.15 10.15 9.95 8.45 Q9.95 5.75 10.45 3.2 L10.9 -0.1 Q10.5 -4.25 9.7 -4.25 L9.6 -4.25 M0.3 -11.3 L0.05 -11.3 0.0 -11.3 -1.15 -10.45 -0.5 -11.85 0.0 -11.95 0.05 -11.85 -0.05 -11.6 0.0 -11.3 0.25 -11.5 0.3 -11.3 M-0.15 -12.4 L-0.3 -12.35 -0.3 -12.3 -0.5 -12.15 -0.55 -12.25 Q-1.35 -11.9 -2.25 -9.85 L-2.3 -9.8 -3.85 -7.1 Q-4.3 -6.55 -5.45 -6.15 L-7.4 -5.55 -9.35 -4.75 -9.5 -4.7 -9.4 -4.8 -6.8 -5.85 Q-4.8 -6.75 -4.0 -7.65 L-2.7 -9.7 -2.6 -9.85 -1.7 -11.6 -1.65 -11.6 -0.6 -12.7 -0.3 -12.8 -0.1 -12.45 -0.15 -12.4 M10.35 -9.85 L10.15 -10.25 10.1 -10.25 10.3 -9.85 11.45 -7.25 12.25 -5.35 12.5 -4.35 12.55 -4.45 12.55 -4.7 12.45 -5.0 12.45 -5.2 12.25 -5.8 12.0 -7.0 11.9 -7.0 11.9 -6.65 11.45 -7.65 10.35 -9.85 M13.95 8.3 Q13.15 6.7 13.15 5.35 L13.35 3.8 Q13.45 4.6 13.9 6.0 L14.8 8.35 14.85 8.3 15.0 8.55 14.7 8.7 Q14.35 8.45 14.1 8.35 L14.05 8.3 14.05 8.35 13.95 8.3 M12.7 7.8 L12.7 7.75 12.65 7.75 12.7 7.8 M10.45 7.65 L10.35 7.65 Q10.4 8.85 11.45 10.4 L11.5 10.5 11.55 10.45 11.45 10.3 Q10.55 9.05 10.45 7.65 M11.1 10.35 L11.0 10.35 11.0 10.65 11.55 11.2 11.7 11.15 11.7 11.05 11.45 10.9 11.1 10.35 M11.85 10.65 L11.75 10.65 Q12.75 11.3 13.35 11.3 L13.5 11.25 11.85 10.65 M-10.9 -9.1 Q-12.6 -6.95 -12.9 -5.9 L-13.0 -5.95 Q-12.15 -8.15 -10.8 -9.8 L-10.7 -9.85 -8.7 -11.8 -9.05 -11.4 -10.4 -9.85 -10.85 -9.2 -10.9 -9.1 M-11.65 -5.65 L-11.6 -5.55 -9.85 -8.1 Q-11.65 -6.3 -11.65 -5.65 M-12.4 -6.15 L-12.45 -6.1 -12.3 -6.4 -12.4 -6.15 M-12.55 -2.9 L-12.35 -3.3 -12.1 -3.25 -12.35 -2.75 -12.45 -2.5 -12.45 -2.75 -12.55 -2.9 M-12.15 -2.85 L-12.05 -3.25 -11.8 -3.25 -11.95 -2.45 -12.05 -2.6 -12.15 -2.85 M-11.65 -3.25 L-10.9 -3.3 -11.4 -1.6 -11.45 0.65 Q-11.45 2.95 -10.85 8.0 L-11.25 10.25 Q-11.45 11.85 -12.95 12.3 L-12.9 12.35 -13.75 12.5 -14.3 12.4 -14.25 12.3 Q-13.4 11.9 -13.4 11.7 -13.4 11.5 -13.55 11.4 L-13.7 11.6 -14.7 12.0 -15.85 12.0 -15.4 11.2 -15.2 11.2 -14.0 10.35 -14.0 9.95 -14.15 9.95 Q-14.6 10.7 -15.3 10.95 L-15.25 10.85 -15.25 10.45 -15.25 10.15 -14.25 8.3 -14.2 8.45 -13.05 6.55 -12.75 5.3 -12.7 6.15 Q-12.7 8.85 -14.6 10.0 L-14.55 10.05 Q-12.55 9.1 -12.55 5.3 L-12.8 0.75 -12.8 0.45 -12.65 1.3 -12.65 1.35 -11.9 7.6 Q-11.9 9.65 -13.2 10.85 -11.6 9.5 -11.6 7.55 L-12.35 1.3 -12.3 0.95 Q-12.3 2.05 -11.7 3.65 L-11.7 3.75 -11.45 6.1 -11.55 9.05 -11.95 10.5 -13.0 11.7 Q-11.35 10.85 -11.35 9.05 L-11.15 6.1 -11.45 3.5 -11.75 -0.15 Q-11.4 -1.7 -11.4 -2.65 L-11.45 -2.85 -11.6 -2.8 -11.6 -3.0 -11.65 -3.25 M-11.9 -0.85 L-11.95 -0.2 -11.85 1.55 -12.05 -0.35 -11.9 -0.85 M-12.55 -0.6 L-12.65 0.8 -12.7 -0.15 -12.55 -0.6 M-14.65 0.05 L-14.6 0.5 -14.55 0.45 Q-14.45 -2.05 -13.95 -2.95 -14.65 -2.7 -14.65 0.05 M-14.65 1.05 L-14.65 2.55 Q-14.5 3.7 -14.5 5.2 -14.5 6.75 -15.5 8.95 L-15.45 9.05 Q-14.4 7.85 -14.4 5.2 L-14.55 1.05 -14.65 1.05 M-14.1 11.45 L-14.95 11.8 -14.9 11.85 -14.1 11.45" fill="#fdc551" fill-rule="evenodd" stroke="none"/>
    <path d="M3.1 -11.05 L0.95 -12.35 0.9 -12.4 1.3 -12.5 1.4 -12.5 Q0.5 -12.95 0.55 -13.35 L0.6 -13.35 Q1.05 -12.85 3.3 -12.05 L4.95 -10.35 5.4 -9.85 7.65 -6.95 7.65 -6.8 7.4 -6.8 7.3 -7.0 7.1 -7.15 5.0 -9.85 4.8 -10.15 3.2 -11.8 2.4 -12.05 4.0 -10.7 4.7 -9.85 5.75 -8.6 Q6.75 -7.55 7.95 -4.0 L7.85 -3.95 Q6.55 -6.95 5.65 -8.2 L4.3 -9.85 3.6 -10.6 3.1 -11.05 M7.95 -7.35 L6.7 -9.2 6.15 -9.85 Q3.95 -12.1 0.15 -13.6 L0.2 -13.65 Q3.05 -12.85 6.3 -9.85 L6.75 -9.45 4.4 -11.8 0.35 -14.25 0.5 -14.3 Q1.75 -14.3 4.6 -12.0 L6.85 -9.85 7.4 -9.35 Q9.25 -7.45 11.0 -3.45 11.4 -2.3 11.4 -0.6 L11.1 4.15 Q11.1 5.55 11.45 6.75 L12.2 8.35 12.3 8.55 12.95 9.35 12.9 9.5 Q11.95 8.95 11.45 7.8 10.95 6.65 10.95 4.85 L11.25 -0.6 Q11.25 -2.15 10.5 -4.15 L9.4 -6.2 7.15 -9.05 8.3 -7.15 Q9.6 -5.0 9.6 -4.25 L9.6 -4.2 9.55 -3.95 9.45 -3.95 8.75 -5.7 8.4 -6.5 7.95 -7.35 M12.15 5.95 L12.15 6.15 12.6 7.65 12.6 7.7 Q11.95 6.9 11.95 4.55 L12.25 0.35 Q12.25 -2.25 11.45 -4.2 L11.05 -5.05 11.1 -5.1 8.1 -9.5 7.8 -9.85 Q5.9 -12.35 2.9 -13.9 L3.05 -13.9 Q4.35 -13.95 6.45 -11.85 L8.15 -9.85 8.4 -9.55 11.4 -4.8 11.45 -4.65 Q12.45 -2.75 12.45 0.35 L12.15 4.55 12.15 4.35 12.05 4.35 12.0 4.95 12.15 5.95 M13.8 8.25 Q13.05 7.25 13.05 5.4 L13.3 3.35 13.3 3.2 13.35 3.0 13.4 1.95 Q13.4 -2.8 11.45 -5.75 L11.35 -5.9 11.3 -6.0 11.0 -6.4 11.1 -6.4 8.9 -9.85 Q7.35 -12.05 5.95 -12.9 L5.95 -13.1 6.15 -13.1 Q7.25 -13.1 9.3 -9.85 L9.5 -9.55 11.35 -6.15 11.45 -6.0 12.05 -4.85 13.05 -2.45 Q13.5 -0.45 13.5 1.8 L13.7 -0.45 Q13.7 -1.7 13.1 -3.45 L12.15 -6.35 12.25 -6.45 14.0 -0.45 13.6 3.3 Q13.6 4.45 14.1 6.15 L14.8 8.2 14.85 8.3 14.8 8.35 13.9 6.0 Q13.45 4.6 13.35 3.8 L13.15 5.35 Q13.15 6.7 13.95 8.3 L13.9 8.35 13.8 8.25 M-15.3 10.05 Q-13.85 7.65 -13.85 5.8 L-13.9 3.7 -14.1 1.8 -13.95 0.0 Q-13.95 -1.3 -13.3 -1.85 -13.9 -0.2 -13.9 1.65 L-13.7 5.4 Q-13.7 6.8 -14.15 8.05 L-14.25 8.25 -14.25 8.3 -15.25 10.15 -15.3 10.15 -15.35 10.1 -15.3 10.05 M-12.1 -4.1 Q-10.8 -4.8 -6.95 -8.0 L-5.35 -9.85 -3.75 -12.3 -5.15 -9.85 Q-7.65 -6.45 -12.05 -4.0 L-12.15 -4.0 -12.2 -4.05 -12.1 -4.1 M-12.05 -3.4 L-11.95 -3.55 -12.0 -3.4 -12.05 -3.25 -12.15 -2.85 -12.2 -2.9 -12.35 -2.75 -12.1 -3.25 -12.05 -3.4 M-3.5 -6.6 L-6.85 -5.05 Q-10.9 -3.7 -11.4 -3.7 L-11.65 -3.75 -11.7 -3.9 -10.5 -4.35 -10.3 -4.45 -10.2 -4.35 Q-10.0 -4.35 -9.5 -4.7 L-9.35 -4.75 -7.4 -5.55 -5.45 -6.15 Q-4.3 -6.55 -3.85 -7.1 L-2.3 -9.8 -2.25 -9.85 Q-1.35 -11.9 -0.55 -12.25 L-0.5 -12.15 -0.3 -12.3 0.0 -11.95 -0.5 -11.85 -1.15 -10.45 -1.45 -9.85 -1.65 -9.55 -3.25 -6.8 -3.5 -6.6 M-2.55 -12.6 L-1.7 -13.65 -2.1 -13.75 -4.7 -11.9 -4.8 -12.1 Q-3.65 -13.05 -2.15 -13.75 L-2.3 -13.95 -2.25 -14.05 Q-5.8 -12.85 -8.55 -9.85 L-10.35 -7.65 -10.4 -7.7 -8.9 -9.85 -7.75 -11.2 Q-5.9 -13.0 -2.3 -14.05 -4.75 -13.7 -6.65 -12.9 L-6.65 -13.0 -6.7 -13.0 Q-4.55 -14.0 -1.95 -14.25 L-1.7 -14.25 -1.65 -14.2 -1.15 -13.9 -1.2 -13.75 -1.2 -13.7 -1.15 -13.65 -1.25 -13.6 Q-2.0 -13.35 -2.5 -12.35 L-3.5 -10.65 -3.55 -10.65 -3.5 -10.8 -3.45 -10.85 Q-2.55 -12.15 -2.55 -12.55 L-2.55 -12.6 M-5.35 -11.3 L-6.55 -10.15 -4.8 -12.1 -5.35 -11.3 M-12.55 -5.55 L-13.2 -2.45 -13.25 -2.4 -13.3 -2.85 -13.2 -3.1 -13.3 -3.2 -13.35 -3.15 Q-13.35 -4.6 -13.0 -5.4 L-12.95 -5.7 -13.0 -5.6 -13.1 -5.55 -13.15 -5.65 -13.75 -3.8 -13.8 -3.75 -13.9 -4.3 -12.75 -7.05 -10.95 -9.85 -10.9 -9.9 Q-9.75 -11.2 -8.4 -12.1 L-8.7 -11.8 -10.7 -9.85 -10.8 -9.8 Q-12.15 -8.15 -13.0 -5.95 L-12.9 -5.9 Q-12.6 -6.95 -10.9 -9.1 -11.9 -7.65 -12.3 -6.45 L-12.3 -6.4 -12.45 -6.1 -12.4 -6.15 -12.55 -5.55 M-8.9 -5.1 L-7.15 -5.95 Q-5.3 -6.75 -4.35 -7.6 -3.6 -8.3 -2.95 -9.85 L-2.9 -10.0 Q-2.45 -11.3 -1.8 -11.85 -1.7 -12.45 -0.8 -12.8 L-0.45 -13.05 -0.3 -12.8 -0.6 -12.7 -1.65 -11.6 -1.7 -11.6 -2.6 -9.85 -2.7 -9.7 -4.0 -7.65 Q-4.8 -6.75 -6.8 -5.85 L-9.4 -4.8 -8.9 -5.1 M-0.55 -13.2 L-1.45 -12.75 -3.75 -9.85 -4.05 -9.5 -4.3 -9.1 -4.3 -8.95 -4.5 -8.8 Q-5.5 -7.3 -6.6 -6.55 L-6.8 -6.6 -4.9 -8.4 -6.15 -7.2 -6.2 -7.25 Q-4.5 -8.75 -4.4 -9.3 L-4.3 -9.3 -3.95 -9.75 -3.9 -9.85 -3.45 -10.6 -3.75 -10.0 -2.9 -11.25 -1.7 -12.7 Q-1.4 -13.35 -0.75 -13.45 L-0.55 -13.2 M1.85 -10.95 L0.75 -11.9 0.9 -11.95 2.25 -11.0 3.1 -9.85 3.0 -9.85 2.9 -9.8 2.85 -9.85 1.9 -10.9 1.85 -10.95 M-0.1 -12.4 L-0.15 -12.4 -0.1 -12.45 -0.1 -12.4 M10.35 -9.85 L11.45 -7.65 11.9 -6.65 11.9 -7.0 12.0 -7.0 12.25 -5.8 12.45 -5.2 12.45 -5.0 12.55 -4.7 12.55 -4.45 12.5 -4.35 12.25 -5.35 11.45 -7.25 10.3 -9.85 10.1 -10.25 10.15 -10.25 10.35 -9.85 M12.9 9.9 L12.55 9.8 11.45 9.15 11.05 8.6 10.2 6.6 10.2 6.15 10.3 6.15 Q10.25 6.7 11.05 8.4 L13.2 9.8 13.5 10.0 12.9 9.9 M12.7 7.8 L12.65 7.75 12.7 7.75 12.7 7.8 M10.45 7.65 Q10.55 9.05 11.45 10.3 L11.55 10.45 11.5 10.5 11.45 10.4 Q10.4 8.85 10.35 7.65 L10.45 7.65 M11.85 10.65 L13.5 11.25 13.35 11.3 Q12.75 11.3 11.75 10.65 L11.85 10.65 M11.1 10.35 L11.45 10.9 11.7 11.05 11.7 11.15 11.55 11.2 11.0 10.65 11.0 10.35 11.1 10.35 M-11.65 -5.65 Q-11.65 -6.3 -9.85 -8.1 L-11.6 -5.55 -11.65 -5.65 M-12.45 -2.5 L-12.35 -2.75 -12.55 -1.75 -12.45 -2.5 M-11.6 -2.8 L-11.45 -2.85 -11.4 -2.65 Q-11.4 -1.7 -11.75 -0.15 L-11.45 3.5 -11.15 6.1 -11.35 9.05 Q-11.35 10.85 -13.0 11.7 L-11.95 10.5 -11.55 9.05 -11.45 6.1 -11.7 3.75 -11.65 3.85 -11.55 3.85 -11.45 3.5 -11.85 1.55 -11.95 -0.2 -11.9 -0.85 -11.75 -1.6 -11.6 -2.8 M-12.3 0.95 L-12.35 1.3 -11.6 7.55 Q-11.6 9.5 -13.2 10.85 -11.9 9.65 -11.9 7.6 L-12.65 1.35 -12.65 1.3 -12.5 2.15 -12.45 2.15 -12.65 0.8 -12.55 -0.6 Q-12.45 -2.2 -12.05 -2.6 L-11.95 -2.45 -12.15 -1.45 -12.3 0.85 -12.3 0.95 M-12.8 0.45 L-12.8 0.75 -12.55 5.3 Q-12.55 9.1 -14.55 10.05 L-14.6 10.0 Q-12.7 8.85 -12.7 6.15 L-12.75 5.3 -12.7 4.35 -12.85 0.6 -12.8 0.3 -12.8 0.45 M-14.65 0.05 Q-14.65 -2.7 -13.95 -2.95 -14.45 -2.05 -14.55 0.45 L-14.6 0.5 -14.65 0.05 M-14.65 1.05 L-14.55 1.05 -14.4 5.2 Q-14.4 7.85 -15.45 9.05 L-15.5 8.95 Q-14.5 6.75 -14.5 5.2 -14.5 3.7 -14.65 2.55 L-14.65 1.05 M-14.1 11.45 L-14.9 11.85 -14.95 11.8 -14.1 11.45" fill="#fee1a5" fill-rule="evenodd" stroke="none"/>
    <path d="M7.3 -7.0 L7.65 -6.35 7.65 -6.4 7.85 -6.2 Q8.05 -6.05 8.35 -5.95 7.9 -6.6 7.9 -7.2 L7.95 -7.35 8.4 -6.5 8.75 -5.7 8.55 -5.65 8.15 -5.7 8.45 -4.5 9.5 -2.8 9.55 -2.8 9.55 -3.95 9.6 -4.2 9.6 -4.25 9.7 -4.25 Q10.5 -4.25 10.9 -0.1 L10.45 3.2 Q9.95 5.75 9.95 8.45 L10.15 10.15 10.25 10.45 10.6 11.05 11.45 11.8 11.95 12.1 11.95 12.15 12.7 12.2 Q14.6 12.2 15.2 11.3 14.1 11.2 14.0 10.6 L13.25 10.05 12.75 10.05 12.15 9.95 12.15 9.8 12.55 9.8 12.8 9.9 12.9 9.9 13.5 10.0 13.2 9.8 13.45 9.7 Q12.75 9.25 12.45 8.6 L12.45 8.5 12.3 8.55 12.2 8.35 12.45 8.4 12.45 8.35 12.5 8.35 12.5 8.45 12.55 8.35 12.6 8.4 12.7 8.4 13.15 8.15 13.2 8.2 12.85 8.6 12.7 8.55 13.8 9.7 13.55 10.0 14.05 10.25 14.15 10.15 14.3 10.25 15.0 10.05 15.1 10.0 14.05 8.9 Q13.45 8.75 13.45 8.25 L13.55 8.2 13.8 8.25 13.9 8.35 13.95 8.3 14.05 8.35 14.05 8.3 14.1 8.35 Q14.35 8.45 14.7 8.7 L15.0 8.55 14.85 8.3 14.8 8.2 14.1 6.15 14.05 5.5 Q14.05 4.35 14.35 3.4 L14.1 3.6 14.05 3.4 14.2 3.05 14.3 2.45 14.3 2.4 14.2 1.95 14.4 1.8 14.45 1.8 14.6 2.4 14.6 2.55 14.75 2.85 14.35 5.0 Q14.35 6.05 15.4 8.5 15.4 9.0 14.75 9.0 L14.5 9.0 14.55 9.2 15.5 9.95 Q15.5 10.45 14.75 10.6 L15.3 11.0 15.7 10.85 15.85 11.05 15.0 11.9 Q13.95 12.5 12.7 12.5 L11.85 12.3 11.8 12.3 11.45 12.25 Q10.45 12.0 9.95 10.4 L9.8 10.0 9.85 10.0 9.65 7.8 9.75 5.25 9.95 4.55 9.9 4.05 10.1 2.85 10.55 -0.1 9.9 -3.35 Q9.95 -2.3 9.5 -2.25 L9.1 -2.85 9.25 -3.05 9.1 -3.05 9.05 -3.0 8.95 -3.25 8.5 -3.7 8.5 -3.35 8.5 -2.55 8.35 -2.5 8.45 -2.35 Q8.3 -0.65 7.65 0.65 L7.6 0.65 7.35 -2.7 7.45 -2.7 7.55 -2.75 7.7 -0.05 Q8.2 -1.75 8.2 -3.3 7.9 -4.55 7.75 -5.85 7.1 -6.2 7.1 -7.15 L7.3 -7.0 M-14.6 -3.55 L-14.55 -3.55 -14.6 -2.95 -14.85 -1.35 -14.95 -1.0 -14.95 -0.9 -15.3 0.25 -15.65 3.55 -15.55 6.85 Q-15.55 8.9 -16.55 9.85 L-15.8 10.15 -15.55 10.1 -15.65 9.65 -15.65 9.55 -15.6 9.55 -15.3 10.05 -15.35 10.1 -15.3 10.15 -15.25 10.15 -15.25 10.45 -15.25 10.85 -15.3 10.95 Q-14.6 10.7 -14.15 9.95 L-14.0 9.95 -14.0 10.35 -15.2 11.2 -15.4 11.2 -15.85 12.0 -14.7 12.0 -13.7 11.6 -13.55 11.4 Q-13.4 11.5 -13.4 11.7 -13.4 11.9 -14.25 12.3 L-14.3 12.4 -13.75 12.5 -12.9 12.35 -12.95 12.3 Q-11.45 11.85 -11.25 10.25 L-10.85 8.0 Q-11.45 2.95 -11.45 0.65 L-11.4 -1.6 -10.9 -3.3 -11.65 -3.25 -11.7 -3.4 -11.8 -3.4 -11.8 -3.25 -12.05 -3.25 -12.0 -3.4 Q-5.35 -4.3 -3.5 -6.6 L-3.25 -6.8 -1.65 -9.55 -1.45 -9.85 -1.15 -10.45 0.0 -11.3 0.05 -11.3 0.3 -11.3 Q1.2 -11.3 1.85 -10.95 L1.9 -10.9 2.85 -9.85 2.9 -9.8 3.0 -9.85 3.3 -8.9 3.4 -9.55 3.35 -9.85 2.75 -11.0 2.9 -11.05 3.1 -11.05 3.6 -10.6 3.75 -9.85 Q6.8 -7.65 7.5 -3.0 L7.3 -3.05 7.25 -3.35 7.25 -3.45 7.2 -3.55 6.9 -4.7 6.8 -4.85 5.7 -7.35 4.85 -8.65 Q4.05 -9.2 3.75 -9.5 3.75 -8.25 3.15 -8.25 L2.5 -9.8 2.45 -9.85 Q1.55 -10.9 0.05 -10.9 -0.4 -10.9 -1.05 -9.85 L-1.8 -8.6 -3.2 -6.4 Q-4.45 -5.35 -5.85 -4.65 L-6.05 -4.7 -6.2 -4.45 Q-8.1 -3.6 -10.25 -3.35 L-10.35 -3.35 -10.6 -3.3 -10.6 -3.1 -10.85 -2.75 -10.75 -2.45 -10.8 -2.35 -10.9 -1.95 -11.1 -1.4 -11.15 0.7 -10.65 7.15 -10.75 9.1 -10.65 9.5 -10.75 10.1 Q-11.1 11.75 -12.15 12.3 -12.4 12.85 -13.8 12.85 -14.7 12.85 -14.7 12.5 L-14.45 12.25 -14.7 12.3 -16.25 12.3 -16.3 12.1 -15.55 11.1 -15.55 10.7 -15.45 10.45 -15.45 10.4 -15.75 10.5 Q-16.75 10.45 -16.75 9.85 -15.8 8.8 -15.85 7.25 L-15.9 4.55 Q-15.9 0.65 -14.65 -3.55 L-14.6 -3.55 M-12.9 -2.85 L-12.85 -3.85 -12.75 -3.9 -12.65 -3.15 -12.5 -3.35 -12.2 -4.1 -12.1 -4.1 -12.2 -4.05 -12.15 -4.0 -12.05 -4.0 -12.05 -3.85 -12.25 -3.35 -12.05 -3.4 -12.1 -3.25 -12.35 -3.3 -12.55 -2.9 -12.7 -2.95 -12.9 -2.85" fill="#70510a" fill-rule="evenodd" stroke="none"/>
    <path d="M7.5 -3.0 L7.55 -3.0 7.6 -2.8 7.55 -2.75 7.45 -2.7 7.35 -2.7 7.6 0.65 7.2 0.6 3.1 1.7 3.0 1.45 2.5 0.85 2.4 0.8 2.3 0.85 2.3 0.95 Q2.3 1.8 2.85 2.0 L3.1 2.05 3.25 2.0 4.65 1.5 Q5.9 0.95 7.15 0.95 9.15 0.95 9.5 1.95 9.15 0.75 7.65 0.65 8.3 -0.65 8.45 -2.35 L8.35 -2.5 8.5 -2.55 8.5 -3.35 8.5 -3.7 8.95 -3.25 9.05 -3.0 9.1 -3.05 9.25 -3.05 9.1 -2.85 9.5 -2.25 Q9.95 -2.3 9.9 -3.35 L10.55 -0.1 10.1 2.85 9.9 4.05 Q9.7 3.55 9.05 3.6 8.05 3.6 8.05 4.6 8.05 5.55 9.05 5.6 9.5 5.55 9.75 5.25 L9.65 7.8 9.85 10.0 9.8 10.0 9.95 10.4 Q8.35 11.95 6.5 12.95 3.45 14.55 -0.25 14.55 -3.95 14.55 -7.0 12.95 -9.0 11.9 -10.7 10.15 L-10.75 10.1 -10.65 9.5 -10.35 9.7 -9.6 10.95 -9.15 11.45 Q-8.6 12.05 -8.1 12.05 L-8.0 12.05 -6.9 12.85 -6.65 12.8 -6.45 12.95 -5.9 13.2 -5.7 13.15 -5.9 12.95 -6.35 12.45 -6.65 12.25 -6.3 12.2 -6.05 12.2 -5.7 12.15 -5.7 11.9 -6.8 11.6 -7.45 11.2 -7.55 11.2 -7.55 11.25 -7.65 11.15 -6.0 11.05 -4.75 11.1 -1.95 11.3 0.05 11.25 0.05 11.2 2.2 11.3 3.9 11.05 4.65 11.05 6.3 11.25 6.85 11.3 7.3 11.25 7.5 11.3 Q8.1 11.3 8.15 10.95 L6.5 7.95 5.95 7.05 4.35 4.85 3.7 4.15 Q2.8 3.55 0.25 3.6 -2.6 3.55 -3.75 4.15 L-4.55 4.8 -6.55 6.95 -7.3 7.8 -8.65 9.6 -8.65 9.55 -8.8 9.05 -8.4 8.2 -8.5 8.1 -8.3 7.6 -8.4 7.5 -8.8 7.95 -8.95 7.9 -9.25 8.1 -9.45 7.65 -9.45 6.95 -9.45 6.75 -9.45 6.1 -9.4 5.8 -9.5 5.4 -9.6 4.55 Q-8.25 4.5 -8.25 3.15 -8.25 1.65 -9.45 1.65 L-9.65 1.65 -9.95 0.1 -10.0 -1.85 -9.9 -2.2 Q-8.9 -2.2 -8.9 -2.8 -8.9 -3.3 -9.45 -3.3 L-10.15 -3.25 -10.25 -3.35 Q-8.1 -3.6 -6.2 -4.45 L-6.05 -4.7 -5.85 -4.65 Q-4.45 -5.35 -3.2 -6.4 L-1.8 -8.6 -1.05 -9.85 Q-0.4 -10.9 0.05 -10.9 1.55 -10.9 2.45 -9.85 L2.5 -9.8 3.15 -8.25 Q3.75 -8.25 3.75 -9.5 4.05 -9.2 4.85 -8.65 L5.7 -7.35 6.8 -4.85 6.9 -4.7 7.2 -3.55 7.25 -3.45 7.25 -3.35 7.3 -3.05 7.5 -3.0 M10.05 -2.25 L9.95 -2.35 9.65 -2.0 10.05 -2.25 M4.6 0.25 L4.45 0.2 4.4 0.2 4.4 0.25 4.6 0.25 M3.7 2.1 L3.7 2.2 4.4 2.45 4.45 2.4 4.45 2.3 3.9 2.1 3.7 2.1 M-10.35 -3.35 L-10.35 -3.2 -10.6 -3.1 -10.6 -3.3 -10.35 -3.35 M-10.9 -1.95 L-11.0 -1.5 -11.05 -0.2 -10.95 0.9 -11.05 1.25 -10.85 2.85 -10.85 3.1 -10.85 3.2 -10.95 3.6 -10.55 5.8 -10.55 6.45 -10.65 7.15 -11.15 0.7 -11.1 -1.4 -10.9 -1.95 M-3.05 1.1 L-2.7 1.35 -2.05 1.75 -1.75 1.95 -1.6 1.95 Q-0.75 1.85 -0.75 1.2 L-0.8 1.05 -1.0 1.0 -1.25 1.4 -1.75 1.5 -1.8 1.45 Q-2.2 1.2 -2.5 1.05 -2.9 0.8 -3.15 0.7 L-3.65 0.45 Q-4.9 -0.05 -5.55 0.0 L-8.35 0.15 -8.65 0.2 Q-9.2 0.35 -9.2 0.6 L-9.15 0.7 -8.65 0.4 -8.35 0.35 -7.2 0.25 Q-5.15 0.25 -3.8 0.8 L-3.35 0.95 -3.4 1.05 -3.35 1.2 -3.1 1.2 -3.05 1.1 M-0.4 0.25 L-0.45 0.1 -0.65 0.1 -0.65 0.2 -0.55 0.3 Q-0.55 0.55 -0.7 0.65 L-0.65 0.7 -0.4 0.25 M-2.35 2.35 L-2.35 2.25 -3.1 2.1 -3.55 2.15 -2.75 2.35 -2.35 2.35 M-7.0 11.95 L-6.8 12.15 -7.05 11.95 -7.0 11.95" fill="#ffddbb" fill-rule="evenodd" stroke="none"/>
    <path d="M4.6 0.25 L4.4 0.25 4.4 0.2 4.45 0.2 4.6 0.25 M-3.05 1.1 L-3.1 1.2 -3.35 1.2 -3.4 1.05 -3.35 0.95 -3.1 1.1 -3.05 1.1" fill="#ffffff" fill-rule="evenodd" stroke="none"/>
    <path d="M-8.65 9.6 L-7.3 7.8 -6.55 6.95 -4.55 4.8 -3.75 4.15 Q-2.6 3.55 0.25 3.6 2.8 3.55 3.7 4.15 L4.35 4.85 5.95 7.05 6.5 7.95 8.15 10.95 Q8.1 11.3 7.5 11.3 L7.3 11.25 6.85 11.3 6.3 11.25 4.65 11.05 3.9 11.05 2.2 11.3 0.05 11.2 0.05 11.25 -1.95 11.3 -4.75 11.1 -6.0 11.05 -7.65 11.15 Q-8.7 11.25 -8.95 11.55 L-9.15 11.45 -9.1 11.35 -9.3 11.15 Q-9.35 10.65 -8.65 9.6 M1.05 11.0 L2.25 11.0 4.25 10.75 4.8 10.8 6.45 10.9 7.25 11.05 7.25 10.95 7.85 11.0 6.3 8.25 5.5 7.0 4.3 5.3 3.7 4.7 Q3.15 4.15 2.55 4.0 L-1.05 3.85 -1.05 3.95 Q-3.15 4.1 -3.85 4.65 L-3.95 4.75 -4.65 5.4 -6.35 7.25 -7.05 8.15 -8.45 10.0 -9.0 11.15 -8.9 11.25 Q-8.55 11.0 -7.85 10.9 L-5.95 10.75 -5.0 10.8 -2.75 10.95 -2.65 10.95 -2.2 11.0 -0.4 11.0 -0.3 11.0 -0.05 11.0 0.0 11.05 0.2 11.0 0.25 11.0 0.45 11.15 0.55 11.0 0.85 11.0 0.9 11.05 1.05 11.0 M3.1 7.25 L4.45 8.05 5.85 9.05 Q6.6 9.65 6.6 10.0 L6.55 10.1 6.5 10.1 6.35 10.25 5.25 10.05 2.95 9.65 1.0 9.4 -0.15 9.0 Q1.25 9.55 -5.0 9.45 L-5.8 9.75 -6.9 9.9 -7.0 9.85 -7.1 9.85 -7.45 9.5 -7.45 9.6 -7.55 9.6 -7.5 9.5 -7.5 9.35 -6.8 8.6 -6.75 8.55 -5.8 7.9 -4.8 7.25 Q-4.0 6.8 -2.4 6.8 L3.1 7.25 M4.55 8.55 Q2.85 7.2 1.8 7.25 L-2.4 7.1 Q-4.45 7.05 -6.55 8.8 L-7.2 9.35 -6.75 9.7 -6.0 9.5 -5.05 9.25 -0.95 9.0 -0.1 8.75 1.0 9.05 Q1.8 9.45 3.1 9.45 L5.55 9.6 5.7 9.6 6.0 9.7 5.65 9.45 4.55 8.55" fill="#990000" fill-rule="evenodd" stroke="none"/>
    <path d="M1.15 5.55 L0.7 5.0 0.1 4.9 0.0 4.9 -0.05 4.9 Q-0.65 5.0 -0.65 5.55 L-0.65 5.65 -0.8 5.65 -0.8 5.9 Q-1.0 5.4 -1.35 5.4 L-1.7 5.6 -1.95 5.55 -2.1 5.4 -2.25 5.6 -2.3 5.5 Q-2.75 5.4 -2.55 5.75 L-2.8 5.8 -2.9 5.65 -3.25 5.9 -3.15 6.15 -3.0 6.15 -3.0 5.9 -2.75 6.15 -2.6 6.05 -2.5 6.25 -2.35 6.1 -2.25 6.25 Q-2.25 6.6 -1.95 6.05 L-1.8 6.05 -1.55 6.5 -0.6 6.5 -0.6 6.4 -0.45 6.55 0.2 6.4 0.5 6.15 0.65 6.15 Q0.55 6.55 1.15 6.6 L1.5 6.15 Q1.5 6.55 1.8 6.6 L2.0 6.45 2.35 6.55 3.0 6.95 Q3.45 7.0 3.65 7.2 L4.2 7.45 Q3.4 6.5 2.9 6.45 L2.9 6.15 2.4 6.1 2.35 5.9 1.95 5.9 1.4 5.6 1.15 5.55 M-2.75 10.95 L-5.0 10.8 -5.95 10.75 -7.85 10.9 Q-8.55 11.0 -8.9 11.25 L-9.0 11.15 -8.45 10.0 -7.05 8.15 -6.35 7.25 -4.65 5.4 -3.95 4.75 -3.85 4.65 Q-3.15 4.1 -1.05 3.95 L-1.05 3.85 2.55 4.0 Q3.15 4.15 3.7 4.7 L4.3 5.3 5.5 7.0 6.3 8.25 7.85 11.0 7.25 10.95 7.25 11.05 6.45 10.9 4.8 10.8 4.25 10.75 2.25 11.0 1.05 11.0 1.1 10.85 1.25 10.95 1.7 10.8 2.4 10.95 2.8 10.75 2.55 10.65 2.35 10.75 1.05 10.45 Q0.95 10.45 0.8 10.6 L0.5 10.3 0.35 10.4 0.15 10.3 0.0 10.4 -0.7 10.15 -1.15 10.7 Q-1.35 10.35 -1.6 10.4 L-1.8 10.4 -1.8 10.7 -2.9 10.65 -3.05 10.75 -2.75 10.95 M3.1 7.25 L-2.4 6.8 Q-4.0 6.8 -4.8 7.25 L-5.8 7.9 -6.75 8.55 -6.8 8.6 -7.5 9.35 -7.5 9.5 -7.55 9.6 -7.45 9.6 -7.45 9.5 -7.1 9.85 -7.0 9.85 -6.9 9.9 -5.8 9.75 -5.0 9.45 Q1.25 9.55 -0.15 9.0 L1.0 9.4 2.95 9.65 5.25 10.05 6.35 10.25 6.5 10.1 6.55 10.1 6.6 10.0 Q6.6 9.65 5.85 9.05 L4.45 8.05 3.1 7.25 M-4.05 6.1 L-4.45 6.4 -4.45 6.5 -3.9 6.25 -3.85 6.45 -3.5 6.2 -3.45 6.2 -3.4 6.55 -3.1 6.55 -3.05 6.4 Q-3.05 6.1 -3.45 6.1 L-3.7 6.35 -3.75 6.35 -3.8 6.1 -4.05 6.1" fill="#ff1515" fill-rule="evenodd" stroke="none"/>
    <path d="M1.15 5.55 L1.4 5.6 1.95 5.9 2.35 5.9 2.4 6.1 2.9 6.15 2.9 6.45 Q3.4 6.5 4.2 7.45 L3.65 7.2 Q3.45 7.0 3.0 6.95 L2.35 6.55 2.0 6.45 1.8 6.6 Q1.5 6.55 1.5 6.15 L1.15 6.6 Q0.55 6.55 0.65 6.15 L0.5 6.15 0.2 6.4 -0.45 6.55 -0.6 6.4 -0.6 6.5 -1.55 6.5 -1.8 6.05 -1.95 6.05 Q-2.25 6.6 -2.25 6.25 L-2.35 6.1 -2.5 6.25 -2.6 6.05 -2.75 6.15 -3.0 5.9 -3.0 6.15 -3.15 6.15 -3.25 5.9 -2.9 5.65 -2.8 5.8 -2.55 5.75 Q-2.75 5.4 -2.3 5.5 L-2.25 5.6 -2.1 5.4 -1.95 5.55 -1.7 5.6 -1.35 5.4 Q-1.0 5.4 -0.8 5.9 L-0.8 5.65 -0.65 5.65 -0.65 5.55 Q-0.65 5.0 -0.05 4.9 L0.0 4.9 0.1 4.9 0.7 5.0 1.15 5.55 M1.05 11.0 L0.9 11.05 0.85 11.0 0.65 10.85 0.55 11.0 0.45 11.15 0.25 11.0 0.25 10.95 0.2 11.0 0.0 11.05 -0.05 11.0 -0.15 10.9 -0.3 11.0 -0.4 11.0 -0.65 10.95 -2.65 10.95 -2.75 10.95 -3.05 10.75 -2.9 10.65 -1.8 10.7 -1.8 10.4 -1.6 10.4 Q-1.35 10.35 -1.15 10.7 L-0.7 10.15 0.0 10.4 0.15 10.3 0.35 10.4 0.5 10.3 0.8 10.6 Q0.95 10.45 1.05 10.45 L2.35 10.75 2.55 10.65 2.8 10.75 2.4 10.95 1.7 10.8 1.25 10.95 1.1 10.85 1.05 11.0 M-4.05 6.1 L-3.8 6.1 -3.75 6.35 -3.7 6.35 -3.45 6.1 Q-3.05 6.1 -3.05 6.4 L-3.1 6.55 -3.4 6.55 -3.45 6.2 -3.5 6.2 -3.85 6.45 -3.9 6.25 -4.45 6.5 -4.45 6.4 -4.05 6.1 M-1.0 10.7 L-0.9 10.7 -0.9 10.5 -0.95 10.5 -1.0 10.7" fill="#ffa4a4" fill-rule="evenodd" stroke="none"/>
    <path d="M4.55 8.55 L5.65 9.45 6.0 9.7 5.7 9.6 5.55 9.6 3.1 9.45 Q1.8 9.45 1.0 9.05 L-0.1 8.75 -0.95 9.0 -5.05 9.25 -6.0 9.5 -6.75 9.7 -7.2 9.35 -6.55 8.8 Q-4.45 7.05 -2.4 7.1 L1.8 7.25 Q2.85 7.2 4.55 8.55" fill="#770000" fill-rule="evenodd" stroke="none"/>
    <path d="M12.5 8.35 L11.6 5.85 11.6 5.6 11.7 5.6 12.55 8.35 12.5 8.45 12.5 8.35 M13.15 8.15 Q12.4 6.85 12.15 5.95 L12.0 4.95 12.05 4.35 12.15 4.35 12.15 4.55 12.15 4.6 Q12.2 6.1 13.4 8.2 L13.25 8.3 13.2 8.2 13.15 8.15 M-0.5 -13.15 L-0.55 -13.2 -0.75 -13.45 -0.8 -13.55 -0.55 -13.8 Q0.05 -13.85 0.05 -13.35 0.05 -13.05 -0.2 -13.05 L-0.5 -13.15 M0.25 -11.5 L0.0 -11.3 -0.05 -11.6 0.05 -11.85 0.0 -11.95 -0.3 -12.3 -0.3 -12.35 -0.15 -12.4 -0.1 -12.4 -0.05 -12.45 Q0.4 -12.45 0.4 -11.8 L0.25 -11.5" fill="#fdad06" fill-rule="evenodd" stroke="none"/>
    <path d="M-10.25 -3.35 L-10.15 -3.25 -9.45 -3.3 Q-8.9 -3.3 -8.9 -2.8 -8.9 -2.2 -9.9 -2.2 L-10.0 -1.85 -9.95 0.1 -9.65 1.65 -9.45 1.65 Q-8.25 1.65 -8.25 3.15 -8.25 4.5 -9.6 4.55 L-9.5 5.4 -9.4 5.8 -9.45 6.1 -9.45 6.75 -9.45 6.95 -9.45 7.65 -9.25 8.1 -8.95 7.9 -8.8 7.95 -8.4 7.5 -8.3 7.6 -8.5 8.1 -8.4 8.2 -8.8 9.05 -8.65 9.55 -8.65 9.6 Q-9.35 10.65 -9.3 11.15 L-9.1 11.35 -9.15 11.45 -8.95 11.55 Q-8.7 11.25 -7.65 11.15 L-7.55 11.25 -7.55 11.2 -7.45 11.2 -6.8 11.6 -5.7 11.9 -5.7 12.15 -6.05 12.2 -6.3 12.2 -6.65 12.25 -6.35 12.45 -5.9 12.95 -5.7 13.15 -5.9 13.2 -6.45 12.95 -6.65 12.8 -6.9 12.85 -8.0 12.05 -8.1 12.05 Q-8.6 12.05 -9.15 11.45 L-9.6 10.95 -10.35 9.7 -10.65 9.5 -10.75 9.1 -10.65 7.15 -10.55 6.45 -10.55 5.8 -10.95 3.6 -10.85 3.2 -10.85 3.1 -10.85 2.85 -11.05 1.25 -10.95 0.9 -11.05 -0.2 -11.0 -1.5 -10.9 -1.95 -10.8 -2.35 -10.75 -2.45 -10.85 -2.75 -10.6 -3.1 -10.35 -3.2 -10.35 -3.35 -10.25 -3.35 M9.75 5.25 Q9.5 5.55 9.05 5.6 8.05 5.55 8.05 4.6 8.05 3.6 9.05 3.6 9.7 3.55 9.9 4.05 L9.95 4.55 9.75 5.25 M-7.0 11.95 L-7.05 11.95 -6.8 12.15 -7.0 11.95" fill="#ffb99b" fill-rule="evenodd" stroke="none"/>
    <path d="M-14.15 8.05 Q-13.1 6.05 -13.1 4.35 L-13.35 -0.25 Q-13.35 -2.55 -12.9 -2.85 L-12.7 -2.95 -12.55 -2.9 -12.45 -2.75 -12.45 -2.5 -12.55 -1.75 -12.35 -2.75 -12.2 -2.9 -12.15 -2.85 -12.05 -2.6 Q-12.45 -2.2 -12.55 -0.6 L-12.7 -0.15 -12.65 0.8 -12.45 2.15 -12.5 2.15 -12.65 1.3 -12.8 0.45 -12.8 0.3 -12.85 0.6 -12.7 4.35 -12.75 5.3 -13.05 6.55 -14.2 8.45 -14.25 8.3 -14.25 8.25 -14.15 8.05 M-10.3 -4.45 L-10.4 -4.55 Q-7.1 -7.1 -6.05 -8.6 L-5.1 -9.85 -2.75 -12.75 -2.55 -12.6 -2.55 -12.55 Q-2.55 -12.15 -3.45 -10.85 L-3.5 -10.8 -4.2 -9.85 -5.55 -8.3 -7.7 -6.1 -8.9 -5.1 -9.4 -4.8 -9.5 -4.7 Q-10.0 -4.35 -10.2 -4.35 L-10.3 -4.45 M-4.7 -11.9 L-4.7 -11.85 Q-4.7 -11.3 -5.95 -9.85 -7.6 -8.15 -11.3 -5.0 L-11.4 -5.05 -11.5 -4.95 -11.55 -5.1 Q-8.35 -8.9 -8.1 -9.35 L-7.75 -9.85 Q-7.1 -10.9 -5.9 -11.75 L-3.6 -13.45 -3.45 -13.4 -7.2 -9.85 -7.85 -9.1 -9.7 -7.0 -11.15 -5.3 Q-8.45 -7.55 -6.45 -9.85 L-5.35 -11.3 -4.8 -12.1 -4.7 -11.9 M-6.65 -12.9 L-6.65 -12.7 Q-8.5 -11.55 -9.8 -9.85 -11.7 -7.45 -12.45 -4.05 L-12.6 -4.05 -12.65 -4.8 -12.55 -5.55 -12.4 -6.15 -12.3 -6.4 -12.3 -6.45 Q-11.9 -7.65 -10.9 -9.1 L-10.85 -9.2 -10.4 -9.85 -9.05 -11.4 -8.7 -11.8 -8.4 -12.1 Q-7.35 -13.05 -6.9 -13.05 L-6.7 -13.0 -6.65 -13.0 -6.65 -12.9 M-13.3 -2.85 L-13.75 -1.85 -14.2 -0.4 -14.0 4.0 -14.05 4.9 -14.15 4.9 -14.4 1.4 -14.25 -1.05 -13.35 -3.15 -13.3 -3.2 -13.2 -3.1 -13.3 -2.85 M-0.45 -13.05 L-0.5 -13.15 -0.2 -13.05 Q0.05 -13.05 0.05 -13.35 0.05 -13.85 -0.55 -13.8 L-0.8 -13.55 -1.15 -14.35 -0.9 -14.65 Q-0.3 -14.7 0.2 -13.35 L0.6 -11.75 Q0.6 -11.35 0.3 -11.3 L0.25 -11.5 0.4 -11.8 Q0.4 -12.45 -0.05 -12.45 L-0.1 -12.4 -0.1 -12.45 -0.3 -12.8 -0.45 -13.05 M-11.8 -3.25 L-11.8 -3.4 -11.7 -3.4 -11.65 -3.25 -11.6 -3.0 -11.6 -2.8 -11.75 -1.6 -11.9 -0.85 -12.05 -0.35 -11.85 1.55 -11.45 3.5 -11.55 3.85 -11.65 3.85 -11.7 3.75 -11.7 3.65 Q-12.3 2.05 -12.3 0.95 L-12.3 0.85 -12.15 -1.45 -11.95 -2.45 -11.8 -3.25" fill="#fdba2f" fill-rule="evenodd" stroke="none"/>
    <path d="M14.0 -4.15 Q13.25 -6.85 11.45 -9.1 L10.85 -9.85 10.3 -10.45 10.15 -10.6 Q6.05 -14.65 0.35 -14.85 L-0.25 -14.85 Q-6.35 -14.9 -10.7 -10.6 L-11.35 -9.85 -12.5 -8.4 Q-14.05 -6.15 -14.6 -3.55" fill="none" stroke="#a27202" stroke-linecap="round" stroke-linejoin="round" stroke-width="0.5"/>
    <path d="M14.4 1.8 L14.5 -0.15 Q14.5 -2.15 14.05 -3.9 M-10.75 10.1 L-10.7 10.15 Q-9.0 11.9 -7.0 12.95 -3.95 14.55 -0.25 14.55 3.45 14.55 6.5 12.95 8.35 11.95 9.95 10.4" fill="none" stroke="#865204" stroke-linecap="round" stroke-linejoin="round" stroke-width="0.5"/>
  </g>
</svg>
