<?xml version="1.0" encoding="UTF-8" standalone="no"?>
<svg xmlns:xlink="http://www.w3.org/1999/xlink" height="17.35px" width="34.3px" xmlns="http://www.w3.org/2000/svg">
  <g transform="matrix(1.0, 0.0, 0.0, 1.0, 16.25, 15.95)">
    <path d="M-7.0 -12.15 Q-3.5 -13.85 3.45 -15.25 L3.2 -15.4 3.7 -15.4 Q5.85 -15.4 8.7 -13.7 L10.85 -12.2 Q10.2 -12.1 10.2 -11.45 L10.25 -10.95 Q6.4 -14.2 3.3 -14.2 -2.8 -14.2 -6.85 -12.1 L-7.0 -12.15 M1.95 -15.35 Q-1.0 -14.9 -5.35 -13.0 -9.15 -11.35 -10.15 -10.1 -12.1 -8.8 -12.1 -8.6 L-12.05 -8.3 -11.2 -8.6 -12.15 -7.3 Q-13.0 -6.95 -13.85 -5.5 L-12.75 -8.25 Q-11.45 -10.3 -8.2 -12.25 -3.75 -15.0 1.95 -15.35 M9.0 -0.3 Q8.9 0.8 8.0 0.8 L7.25 0.1 7.3 -0.5 Q7.5 -1.05 8.2 -1.05 9.25 -1.05 9.0 -0.3 M18.05 -9.3 Q18.05 -7.45 16.4 -7.45 15.2 -7.45 14.75 -8.2 L14.55 -9.05 Q14.55 -9.65 14.7 -10.05 15.0 -10.95 15.8 -10.95 18.05 -10.95 18.05 -9.3 M11.95 -11.0 Q13.3 -8.9 14.25 -6.6 L10.85 -10.35 11.1 -10.35 Q11.8 -10.35 11.95 -11.0 M-9.95 -14.5 Q-9.95 -15.95 -8.35 -15.95 -7.3 -15.95 -7.45 -14.85 -7.45 -13.5 -8.45 -13.5 -9.95 -13.5 -9.95 -14.5 M-11.65 -14.05 Q-11.65 -13.6 -12.15 -13.6 -12.65 -13.6 -12.65 -14.1 -12.65 -14.5 -12.15 -14.5 -11.65 -14.5 -11.65 -14.05 M-12.7 -11.0 Q-12.7 -10.1 -13.7 -10.1 -14.5 -10.1 -14.4 -10.95 -14.4 -11.85 -13.6 -11.85 -12.7 -11.85 -12.7 -11.0 M-15.25 -3.5 Q-13.65 -3.5 -13.65 -2.35 -13.65 -0.7 -15.3 -0.7 L-14.85 -0.45 -15.1 0.85 -15.1 1.3 -15.2 1.4 -15.55 0.45 -15.35 -0.7 Q-16.25 -0.75 -16.25 -1.95 -16.25 -3.5 -15.25 -3.5 M-3.75 -4.55 Q-3.65 -6.9 -2.2 -6.9 -0.15 -6.9 -0.35 -4.95 -0.35 -3.15 -2.2 -3.15 -3.05 -3.15 -3.5 -3.7 L-3.45 -4.2 -3.75 -4.55" fill="#b0a895" fill-rule="evenodd" stroke="none"/>
    <path d="M10.25 -10.95 L10.2 -11.45 Q10.2 -12.1 10.85 -12.2 L11.15 -12.25 Q11.95 -12.25 11.95 -11.3 L11.95 -11.0 Q11.8 -10.35 11.1 -10.35 L10.85 -10.35 Q10.35 -10.45 10.25 -10.9 L10.25 -10.95 M3.85 -9.3 L4.3 -9.95 Q4.85 -9.95 4.85 -9.5 4.75 -8.75 4.3 -8.75 L3.85 -9.3 M1.35 -11.75 Q1.35 -10.7 0.25 -10.7 -0.55 -10.7 -0.55 -11.25 L0.6 -12.3 Q1.45 -12.3 1.35 -11.75 M-14.45 -4.05 Q-14.45 -4.75 -13.9 -4.75 -13.1 -4.75 -13.2 -3.85 -13.2 -3.25 -13.85 -3.25 -14.6 -3.25 -14.45 -4.05 M-4.85 -8.65 Q-5.45 -8.65 -5.7 -9.1 L-5.8 -9.55 Q-5.8 -10.65 -4.7 -10.65 -3.85 -10.65 -3.95 -9.75 -3.95 -8.65 -4.85 -8.65 M-3.75 -4.55 L-3.45 -4.2 -3.5 -3.7 Q-3.65 -3.2 -4.15 -3.2 L-4.6 -3.65 -4.5 -4.15 -3.9 -4.6 -3.75 -4.55" fill="#c1bbac" fill-rule="evenodd" stroke="none"/>
    <path d="M3.2 -15.4 L3.45 -15.25 Q-3.5 -13.85 -7.0 -12.15 L-9.45 -10.55 -10.15 -10.1 Q-9.15 -11.35 -5.35 -13.0 -1.0 -14.9 1.95 -15.35 L2.75 -15.45 3.2 -15.4" fill="#9e947c" fill-rule="evenodd" stroke="none"/>
    <path d="M-7.0 -12.15 L-6.85 -12.1 -6.35 -12.05 -6.3 -11.9 Q-6.3 -11.65 -8.55 -10.15 -10.2 -9.05 -11.2 -8.6 L-12.05 -8.3 -12.1 -8.6 Q-12.1 -8.8 -10.15 -10.1 L-9.45 -10.55 -7.0 -12.15" fill="#a79d87" fill-rule="evenodd" stroke="none"/>
    <path d="M11.2 -0.75 Q10.55 -0.75 10.3 -1.35 L10.15 -2.05 Q10.15 -2.95 10.95 -2.95 12.15 -2.95 12.05 -1.55 12.05 -0.75 11.2 -0.75 M-11.3 -7.6 Q-10.85 -7.6 -10.85 -7.0 -10.85 -6.5 -11.3 -6.5 -11.8 -6.5 -11.75 -7.0 -11.75 -7.6 -11.3 -7.6" fill="#b6ae9c" fill-rule="evenodd" stroke="none"/>
  </g>
</svg>
