<?xml version="1.0" encoding="UTF-8" standalone="no"?>
<svg xmlns:xlink="http://www.w3.org/1999/xlink" height="29.7px" width="60.55px" xmlns="http://www.w3.org/2000/svg">
  <g transform="matrix(1.0, 0.0, 0.0, 1.0, 29.5, 28.35)">
    <path d="M3.15 -27.35 L1.8 -27.6 Q-6.2 -27.6 -8.75 -25.15 L-9.45 -24.9 Q-11.9 -23.9 -14.9 -22.3 -18.4 -20.4 -23.1 -15.05 -19.15 -23.35 -2.95 -27.8 L-2.05 -27.9 3.05 -27.45 3.15 -27.35 M26.7 -16.95 Q26.7 -19.2 28.6 -19.2 30.6 -19.2 31.05 -17.25 31.05 -15.15 28.55 -15.15 26.7 -15.15 26.7 -16.95 M-17.85 -27.35 L-16.95 -28.35 Q-15.9 -28.35 -15.95 -27.15 -15.95 -25.7 -16.7 -25.7 L-17.85 -27.35 M-26.45 -19.3 L-27.05 -19.5 -27.05 -20.5 -26.45 -21.0 Q-25.9 -21.0 -25.65 -20.05 L-25.7 -19.5 -26.45 -19.3 M-28.35 -2.0 Q-29.5 -2.0 -29.5 -3.25 -29.5 -4.4 -28.45 -4.4 -27.0 -4.4 -27.15 -3.05 -27.15 -2.0 -28.35 -2.0 M-5.05 -10.8 Q-2.95 -10.8 -2.95 -8.3 -2.95 -6.05 -5.4 -6.05 -6.7 -6.05 -7.05 -7.1 L-7.15 -8.2 Q-7.15 -10.8 -5.05 -10.8 M12.45 0.35 Q12.45 -0.45 13.35 -0.45 15.0 -0.45 15.0 0.35 15.0 1.35 13.8 1.35 L12.45 0.35" fill="#b0a895" fill-rule="evenodd" stroke="none"/>
    <path d="M17.7 -19.1 L17.6 -19.85 Q17.6 -21.1 18.95 -21.1 20.15 -21.1 20.2 -19.75 20.2 -18.5 18.85 -18.5 17.95 -18.5 17.7 -19.1 M-26.9 -6.85 Q-26.9 -7.55 -26.25 -7.55 -25.55 -7.55 -25.55 -6.75 -25.55 -6.15 -26.15 -6.15 -26.9 -6.15 -26.9 -6.85 M-9.9 -15.9 Q-10.85 -15.9 -11.0 -16.4 L-11.0 -17.05 Q-11.0 -18.2 -10.2 -18.2 -9.4 -18.2 -8.85 -16.8 -8.85 -15.9 -9.9 -15.9 M-0.7 -20.65 Q0.25 -20.65 0.25 -19.75 0.25 -18.85 -0.7 -18.85 L-1.7 -19.85 Q-1.7 -20.65 -0.7 -20.65" fill="#c1bbac" fill-rule="evenodd" stroke="none"/>
    <path d="M19.25 -4.15 Q20.4 -4.15 20.4 -2.6 20.4 -1.5 19.3 -1.5 18.4 -1.5 18.25 -2.05 L18.25 -2.6 Q18.25 -4.15 19.25 -4.15" fill="#b6ae9c" fill-rule="evenodd" stroke="none"/>
  </g>
</svg>
