<?xml version="1.0" encoding="UTF-8" standalone="no"?>
<svg xmlns:xlink="http://www.w3.org/1999/xlink" height="27.05px" width="59.2px" xmlns="http://www.w3.org/2000/svg">
  <g transform="matrix(1.0, 0.0, 0.0, 1.0, 28.6, 28.85)">
    <path d="M28.35 -17.7 Q28.35 -18.75 29.25 -18.75 30.5 -18.75 30.6 -17.3 30.6 -16.4 29.7 -16.4 28.7 -16.4 28.45 -17.05 L28.35 -17.7 M-18.25 -27.9 Q-18.25 -28.85 -17.25 -28.85 -16.35 -28.85 -16.15 -27.9 -16.15 -26.8 -17.25 -26.8 L-18.25 -27.9 M-28.6 -2.6 Q-28.6 -3.25 -27.9 -3.25 -27.15 -3.25 -27.15 -2.5 -27.15 -1.8 -27.9 -1.8 -28.6 -1.8 -28.6 -2.6 M-11.8 -24.7 L-13.45 -23.3 -15.0 -21.45 -16.85 -20.85 -17.05 -20.95 Q-15.6 -22.65 -11.8 -24.7 M-5.7 -7.5 L-5.75 -8.2 Q-5.75 -9.4 -4.6 -9.4 -3.5 -9.4 -3.6 -8.3 -3.6 -6.75 -4.6 -6.75 -5.4 -6.75 -5.7 -7.5" fill="#b0a895" fill-rule="evenodd" stroke="none"/>
  </g>
</svg>
