<?xml version="1.0" encoding="UTF-8" standalone="no"?>
<svg xmlns:xlink="http://www.w3.org/1999/xlink" height="30.15px" width="30.5px" xmlns="http://www.w3.org/2000/svg">
  <g transform="matrix(1.0, 0.0, 0.0, 1.0, 15.25, 14.9)">
    <path d="M0.75 -14.15 L1.15 -13.95 1.05 -13.8 3.6 -13.05 3.7 -13.1 1.25 -13.9 1.35 -13.9 4.15 -13.35 6.1 -12.4 9.2 -10.25 Q9.5 -10.25 9.5 -10.6 L8.45 -11.65 6.95 -12.55 Q3.25 -14.35 1.45 -14.25 L0.75 -14.15 M-12.45 -8.1 L-10.65 -10.35 Q-6.2 -14.65 0.0 -14.65 L0.6 -14.65 Q6.4 -14.45 10.6 -10.35 L10.75 -10.2 8.0 -10.05 Q3.65 -10.3 -0.75 -12.8 -2.25 -11.1 -4.2 -10.05 -7.0 -8.5 -9.4 -8.1 L-9.4 -8.15 -9.6 -8.05 -12.45 -8.1 M0.6 -14.65 Q0.0 -13.65 -0.75 -12.8 0.0 -13.65 0.6 -14.65 M-0.25 -14.35 Q-0.2 -14.55 -0.45 -14.55 L-0.75 -14.45 -1.2 -14.55 Q-2.35 -14.55 -4.95 -13.5 L-7.9 -12.1 -9.7 -10.65 Q-11.3 -9.15 -11.3 -8.65 -11.3 -8.3 -11.05 -8.3 L-7.4 -11.7 -6.0 -12.45 Q-5.6 -12.75 -4.3 -13.05 L-1.1 -14.1 -0.85 -14.15 Q-5.0 -12.75 -6.4 -11.6 L-6.3 -11.55 Q-4.75 -12.55 -3.2 -12.95 L-1.25 -13.6 -2.4 -12.9 -4.8 -11.8 Q-6.95 -10.55 -8.7 -8.8 L-8.45 -8.8 Q-6.75 -10.7 -4.45 -11.7 L-1.85 -12.75 Q0.0 -13.55 0.0 -14.05 L-0.2 -14.35 -0.25 -14.3 -0.25 -14.35 M-7.85 -10.55 L-8.2 -10.4 -8.15 -10.35 -7.85 -10.55 M-6.4 -11.0 L-6.6 -11.05 -8.45 -10.0 -8.45 -10.05 -8.7 -9.85 -9.85 -8.55 -9.65 -8.5 Q-8.85 -9.95 -6.4 -11.0" fill="#775402" fill-rule="evenodd" stroke="none"/>
    <path d="M0.75 -14.15 L1.45 -14.25 Q3.25 -14.35 6.95 -12.55 L8.45 -11.65 9.5 -10.6 Q9.5 -10.25 9.2 -10.25 L6.1 -12.4 4.15 -13.35 1.35 -13.9 1.25 -13.9 3.7 -13.1 3.6 -13.05 1.05 -13.8 1.15 -13.95 0.75 -14.15 M-0.25 -14.35 L-0.25 -14.3 -0.2 -14.35 0.0 -14.05 Q0.0 -13.55 -1.85 -12.75 L-4.45 -11.7 Q-6.75 -10.7 -8.45 -8.8 L-8.7 -8.8 Q-6.95 -10.55 -4.8 -11.8 L-2.4 -12.9 -1.25 -13.6 -3.2 -12.95 Q-4.75 -12.55 -6.3 -11.55 L-6.4 -11.6 Q-5.0 -12.75 -0.85 -14.15 L-1.1 -14.1 -4.3 -13.05 Q-5.6 -12.75 -6.0 -12.45 L-7.4 -11.7 -11.05 -8.3 Q-11.3 -8.3 -11.3 -8.65 -11.3 -9.15 -9.7 -10.65 L-7.9 -12.1 -4.95 -13.5 Q-2.35 -14.55 -1.2 -14.55 L-0.75 -14.45 -0.45 -14.55 Q-0.2 -14.55 -0.25 -14.35 M-6.4 -11.0 Q-8.85 -9.95 -9.65 -8.5 L-9.85 -8.55 -8.7 -9.85 -8.45 -10.05 -8.45 -10.0 -6.6 -11.05 -6.4 -11.0 M-7.85 -10.55 L-8.15 -10.35 -8.2 -10.4 -7.85 -10.55" fill="#916602" fill-rule="evenodd" stroke="none"/>
    <path d="M10.75 -10.2 Q15.0 -5.85 15.0 0.15 15.0 4.05 13.2 7.2 L13.05 7.2 Q11.7 8.5 9.55 9.95 L7.45 10.95 4.6 11.45 -0.05 11.95 Q-5.0 11.95 -7.85 8.05 L-6.95 8.25 Q-3.8 8.25 -1.55 6.7 0.35 5.4 0.2 4.65 L0.25 4.65 Q0.4 5.2 1.45 6.0 2.85 7.05 4.55 7.05 L7.75 6.75 7.75 6.8 7.8 6.75 8.3 6.35 8.25 6.2 8.25 6.15 8.15 6.15 8.55 6.05 Q12.8 4.95 14.65 0.0 L12.6 1.05 12.5 1.1 11.9 1.35 11.7 1.35 10.55 1.3 Q9.25 1.05 7.55 0.0 L6.8 -0.4 6.9 -0.5 Q6.3 -1.3 3.75 -1.3 L3.25 -1.2 1.4 -1.0 Q0.95 -0.9 0.65 -0.6 0.25 -0.3 0.15 0.25 -0.1 -0.75 -1.15 -1.0 L-1.85 -1.1 -1.85 -1.15 Q-1.85 -1.5 -2.7 -1.5 -6.45 -1.5 -6.45 -0.55 L-6.4 -0.45 -7.25 0.0 Q-9.1 1.15 -10.45 1.35 L-10.8 1.35 -10.7 1.3 -10.7 1.15 Q-11.45 0.25 -11.45 -1.4 -11.45 -3.15 -11.05 -4.8 L-9.4 -8.1 Q-7.0 -8.5 -4.2 -10.05 -2.25 -11.1 -0.75 -12.8 3.65 -10.3 8.0 -10.05 L10.75 -10.2 M4.3 -4.05 L2.85 -3.7 2.45 -4.2 2.35 -4.15 2.35 -3.8 Q2.8 -3.35 3.3 -3.35 L6.65 -4.0 Q9.5 -4.0 10.55 -3.1 L10.7 -3.15 Q10.6 -4.45 6.7 -4.45 L4.3 -4.05 M-8.2 -4.35 Q-9.4 -3.9 -9.5 -3.65 -9.35 -3.5 -9.15 -3.5 L-7.85 -3.95 -5.45 -4.45 Q-4.45 -4.45 -1.1 -3.5 -0.4 -3.5 -0.4 -4.05 -0.4 -4.25 -0.7 -4.25 -0.7 -3.9 -0.95 -3.9 -3.1 -4.95 -4.95 -4.95 -6.65 -4.95 -8.2 -4.35 M-2.75 -1.0 L-2.75 -1.05 -2.65 -1.05 -2.75 -1.0" fill="#f8c887" fill-rule="evenodd" stroke="none"/>
    <path d="M4.3 -4.05 L6.7 -4.45 Q10.6 -4.45 10.7 -3.15 L10.55 -3.1 Q9.5 -4.0 6.65 -4.0 L3.3 -3.35 Q2.8 -3.35 2.35 -3.8 L2.35 -4.15 2.45 -4.2 2.85 -3.7 4.3 -4.05 M-8.2 -4.35 Q-6.65 -4.95 -4.95 -4.95 -3.1 -4.95 -0.95 -3.9 -0.7 -3.9 -0.7 -4.25 -0.4 -4.25 -0.4 -4.05 -0.4 -3.5 -1.1 -3.5 -4.45 -4.45 -5.45 -4.45 L-7.85 -3.95 -9.15 -3.5 Q-9.35 -3.5 -9.5 -3.65 -9.4 -3.9 -8.2 -4.35" fill="#000000" fill-rule="evenodd" stroke="none"/>
    <path d="M0.15 0.25 Q0.25 -0.3 0.65 -0.6 0.95 -0.9 1.4 -1.0 L3.25 -1.2 3.15 -1.1 3.2 -1.05 Q0.5 -0.95 0.5 0.3 L0.75 0.85 0.95 0.7 1.1 0.9 1.1 1.0 1.45 1.0 1.6 0.9 2.95 0.55 3.0 0.6 3.35 0.6 3.35 0.5 Q4.8 0.6 6.45 1.85 L7.0 2.1 7.85 2.15 7.15 1.95 6.8 1.75 7.45 2.0 7.65 1.9 6.45 1.2 Q8.7 2.05 11.05 2.05 12.7 2.05 12.95 1.6 L13.1 1.55 Q14.2 1.05 14.2 0.7 L14.05 0.5 12.6 1.05 14.65 0.0 Q12.8 4.95 8.55 6.05 L8.15 6.15 7.9 6.15 7.9 6.2 Q5.4 6.65 3.0 5.45 1.2 4.55 0.65 3.55 L0.4 3.05 0.15 1.9 0.15 0.25 0.15 1.9 -0.15 3.05 Q-0.55 4.35 -2.75 5.45 -4.2 6.2 -5.75 6.3 L-8.3 6.05 -9.2 5.8 -9.25 5.65 -9.3 5.75 Q-12.75 4.35 -14.4 0.0 L-12.35 1.05 -10.85 1.35 -10.8 1.35 -10.45 1.35 Q-9.1 1.15 -7.25 0.0 L-6.4 -0.45 -6.4 -0.35 -6.25 -0.3 -6.05 -0.45 -5.7 -0.45 -5.45 -0.45 -5.2 -0.45 -6.9 0.15 Q-9.6 1.65 -10.6 1.65 -12.0 1.65 -12.6 1.15 L-13.8 0.6 -13.9 0.85 -13.6 1.25 -13.6 1.3 Q-13.6 1.55 -12.5 2.1 -11.4 2.65 -10.65 2.65 L-7.75 2.1 -5.95 1.2 -4.0 0.3 -3.65 0.25 -4.25 0.65 -5.75 1.45 Q-9.05 3.15 -10.45 3.15 L-11.6 2.9 -11.75 2.95 -11.75 3.1 -9.8 3.6 Q-7.2 3.6 -2.45 0.8 L-1.8 0.65 -1.2 0.7 -1.1 0.8 Q-1.95 0.8 -2.95 1.65 L-3.55 2.25 -6.55 3.85 -6.5 3.9 Q-6.15 3.85 -3.85 2.5 L-3.8 2.55 -3.45 2.3 -3.1 2.05 Q-1.9 1.2 -0.65 1.1 L-0.65 1.0 -0.6 0.85 -0.65 0.55 -0.65 0.35 -0.25 1.0 Q-0.05 1.0 -0.05 0.6 -0.05 -0.6 -2.7 -0.9 L-3.05 -0.9 -2.75 -1.0 -2.65 -1.05 -2.15 -0.9 -1.85 -1.1 -1.15 -1.0 Q-0.1 -0.75 0.15 0.25 M6.8 -0.4 L7.55 0.0 Q9.25 1.05 10.55 1.3 L10.4 1.3 Q7.65 0.45 7.2 0.05 L6.7 -0.35 6.8 -0.4 M11.7 1.35 L11.9 1.35 11.65 1.4 11.7 1.35 M4.05 0.2 L4.1 0.15 Q4.4 0.15 6.15 1.05 L5.5 0.8 4.05 0.2 M10.6 2.8 L10.45 2.75 9.3 3.05 Q7.15 3.05 6.0 2.15 4.85 1.25 2.95 1.25 L2.85 1.35 2.3 1.4 2.6 1.45 3.2 1.35 4.35 1.5 6.2 2.75 Q7.0 3.4 8.5 3.4 9.9 3.4 10.6 2.8 M10.6 2.2 L10.45 2.2 8.85 2.25 9.45 2.35 10.6 2.2 M11.3 2.1 L11.25 2.15 11.45 2.2 11.65 2.15 11.3 2.1 M5.15 3.4 L5.25 3.35 4.55 3.1 4.4 3.1 5.15 3.4 M-5.6 4.45 L-5.4 4.5 Q-4.55 4.5 -3.75 4.0 L-5.6 4.45" fill="#865f02" fill-rule="evenodd" stroke="none"/>
    <path d="M3.2 -1.05 L3.15 -1.1 3.25 -1.2 3.75 -1.3 Q6.3 -1.3 6.9 -0.5 L6.8 -0.4 6.7 -0.35 6.6 -0.3 6.05 -0.45 5.5 -0.65 4.1 -0.85 4.0 -0.85 3.2 -1.05 M-6.05 -0.45 L-6.25 -0.3 -6.4 -0.35 -6.4 -0.45 -6.45 -0.55 Q-6.45 -1.5 -2.7 -1.5 -1.85 -1.5 -1.85 -1.15 L-1.85 -1.1 -2.15 -0.9 -2.65 -1.05 -2.75 -1.05 Q-5.3 -1.05 -6.05 -0.45" fill="#453101" fill-rule="evenodd" stroke="none"/>
    <path d="M12.6 1.05 L14.05 0.5 14.2 0.7 Q14.2 1.05 13.1 1.55 L12.95 1.6 Q12.0 2.0 11.5 2.0 L8.35 1.5 7.05 0.95 6.65 0.65 Q5.0 -0.35 3.35 -0.35 L2.65 -0.3 4.05 0.2 5.5 0.8 6.15 1.05 6.45 1.2 7.65 1.9 7.45 2.0 6.8 1.75 5.35 1.1 2.7 0.0 1.2 0.4 0.95 0.7 0.75 0.85 0.5 0.3 Q0.5 -0.95 3.2 -1.05 L4.0 -0.85 4.1 -0.85 5.5 -0.65 6.05 -0.45 6.6 -0.3 6.7 -0.35 7.2 0.05 Q7.65 0.45 10.4 1.3 L10.55 1.3 11.7 1.35 11.65 1.4 11.9 1.35 12.5 1.1 12.6 1.05 M-13.6 1.25 L-13.9 0.85 -13.8 0.6 -12.6 1.15 Q-12.0 1.65 -10.6 1.65 -9.6 1.65 -6.9 0.15 L-5.2 -0.45 -5.45 -0.45 -5.7 -0.45 -6.05 -0.45 Q-5.3 -1.05 -2.75 -1.05 L-2.75 -1.0 -3.05 -0.9 -2.7 -0.9 Q-0.05 -0.6 -0.05 0.6 -0.05 1.0 -0.25 1.0 L-0.65 0.35 -0.85 0.2 -1.1 0.25 -2.2 0.05 Q-3.0 0.05 -5.1 1.45 L-5.15 1.4 -4.25 0.65 -3.65 0.25 -2.7 -0.25 -2.8 -0.25 Q-4.6 -0.25 -7.15 1.0 -9.75 2.15 -10.6 2.15 -12.7 2.15 -13.6 1.25" fill="#b07c02" fill-rule="evenodd" stroke="none"/>
    <path d="M12.95 1.6 Q12.7 2.05 11.05 2.05 8.7 2.05 6.45 1.2 L6.15 1.05 Q4.4 0.15 4.1 0.15 L4.05 0.2 2.65 -0.3 3.35 -0.35 Q5.0 -0.35 6.65 0.65 L7.05 0.95 8.35 1.5 11.5 2.0 Q12.0 2.0 12.95 1.6 M6.8 1.75 L7.15 1.95 7.85 2.15 7.0 2.1 6.45 1.85 Q4.8 0.6 3.35 0.5 L3.35 0.6 3.0 0.6 2.95 0.55 1.6 0.9 1.45 1.0 1.1 1.0 1.1 0.9 0.95 0.7 1.2 0.4 2.7 0.0 5.35 1.1 6.8 1.75 M11.3 2.1 L11.65 2.15 11.45 2.2 11.25 2.15 11.3 2.1 M10.6 2.2 L9.45 2.35 8.85 2.25 10.45 2.2 10.6 2.2 M10.6 2.8 Q9.9 3.4 8.5 3.4 7.0 3.4 6.2 2.75 L4.35 1.5 3.2 1.35 2.6 1.45 2.3 1.4 2.85 1.35 2.95 1.25 Q4.85 1.25 6.0 2.15 7.15 3.05 9.3 3.05 L10.45 2.75 10.6 2.8 M5.15 3.4 L4.4 3.1 4.55 3.1 5.25 3.35 5.15 3.4 M-13.6 1.25 Q-12.7 2.15 -10.6 2.15 -9.75 2.15 -7.15 1.0 -4.6 -0.25 -2.8 -0.25 L-2.7 -0.25 -3.65 0.25 -4.0 0.3 -5.95 1.2 -7.75 2.1 -10.65 2.65 Q-11.4 2.65 -12.5 2.1 -13.6 1.55 -13.6 1.3 L-13.6 1.25 M-4.25 0.65 L-5.15 1.4 -5.1 1.45 Q-3.0 0.05 -2.2 0.05 L-1.1 0.25 -0.85 0.2 -0.65 0.35 -0.65 0.55 -0.6 0.85 -0.65 1.0 -0.65 1.1 Q-1.9 1.2 -3.1 2.05 L-3.45 2.3 -3.8 2.55 -3.85 2.5 Q-6.15 3.85 -6.5 3.9 L-6.55 3.85 -3.55 2.25 -2.95 1.65 Q-1.95 0.8 -1.1 0.8 L-1.2 0.7 -1.8 0.65 -2.45 0.8 Q-7.2 3.6 -9.8 3.6 L-11.75 3.1 -11.75 2.95 -11.6 2.9 -10.45 3.15 Q-9.05 3.15 -5.75 1.45 L-4.25 0.65 M-5.6 4.45 L-3.75 4.0 Q-4.55 4.5 -5.4 4.5 L-5.6 4.45" fill="#956902" fill-rule="evenodd" stroke="none"/>
    <path d="M13.2 7.2 L13.25 7.2 13.15 7.3 Q12.15 9.05 10.6 10.6 6.2 15.0 0.0 15.0 -6.2 15.0 -10.65 10.6 -15.0 6.3 -15.0 0.15 -15.0 -4.45 -12.45 -8.1 L-9.6 -8.05 -9.4 -8.15 -9.4 -8.1 -11.05 -4.8 Q-11.45 -3.15 -11.45 -1.4 -11.45 0.25 -10.7 1.15 L-10.7 1.3 -10.8 1.35 -10.85 1.35 -12.35 1.05 -14.4 0.0 Q-12.75 4.35 -9.3 5.75 L-9.25 5.65 -9.2 5.8 -8.3 6.05 -5.75 6.3 Q-4.2 6.2 -2.75 5.45 -0.55 4.35 -0.15 3.05 L0.15 1.9 0.4 3.05 0.65 3.55 Q1.2 4.55 3.0 5.45 5.4 6.65 7.9 6.2 L7.9 6.15 8.15 6.15 8.25 6.15 8.25 6.2 8.3 6.35 7.8 6.75 7.75 6.8 7.75 6.75 4.55 7.05 Q2.85 7.05 1.45 6.0 0.4 5.2 0.25 4.65 L0.2 4.65 Q0.35 5.4 -1.55 6.7 -3.8 8.25 -6.95 8.25 L-7.85 8.05 Q-5.0 11.95 -0.05 11.95 L4.6 11.45 7.45 10.95 9.55 9.95 Q11.7 8.5 13.05 7.2 L13.2 7.2" fill="#f5b65f" fill-rule="evenodd" stroke="none"/>
    <path d="M-12.45 -8.1 L-10.65 -10.35 Q-6.2 -14.65 0.0 -14.65 L0.6 -14.65 Q6.4 -14.45 10.6 -10.35 L10.75 -10.2 Q15.0 -5.85 15.0 0.15 15.0 4.05 13.2 7.2 M13.15 7.3 Q12.15 9.05 10.6 10.6 6.2 15.0 0.0 15.0 -6.2 15.0 -10.65 10.6 -15.0 6.3 -15.0 0.15 -15.0 -4.45 -12.45 -8.1" fill="none" stroke="#865204" stroke-linecap="round" stroke-linejoin="round" stroke-width="0.5"/>
    <path d="M-12.45 -8.1 L-9.6 -8.05 M-9.4 -8.1 Q-7.0 -8.5 -4.2 -10.05 -2.25 -11.1 -0.75 -12.8 0.0 -13.65 0.6 -14.65 M3.25 -1.2 L1.4 -1.0 Q0.95 -0.9 0.65 -0.6 0.25 -0.3 0.15 0.25 L0.15 1.9 0.4 3.05 0.65 3.55 Q1.2 4.55 3.0 5.45 5.4 6.65 7.9 6.2 M8.15 6.15 L8.55 6.05 Q12.8 4.95 14.65 0.0 L12.6 1.05 12.5 1.1 11.9 1.35 11.7 1.35 10.55 1.3 Q9.25 1.05 7.55 0.0 L6.8 -0.4 M-0.75 -12.8 Q3.65 -10.3 8.0 -10.05 L10.75 -10.2 M-6.4 -0.45 L-7.25 0.0 Q-9.1 1.15 -10.45 1.35 L-10.8 1.35 -10.85 1.35 -12.35 1.05 -14.4 0.0 Q-12.75 4.35 -9.3 5.75 M-9.2 5.8 L-8.3 6.05 -5.75 6.3 Q-4.2 6.2 -2.75 5.45 -0.55 4.35 -0.15 3.05 L0.15 1.9 M-1.85 -1.1 L-1.15 -1.0 Q-0.1 -0.75 0.15 0.25" fill="none" stroke="#453101" stroke-linecap="round" stroke-linejoin="round" stroke-width="0.5"/>
  </g>
</svg>
