<?xml version="1.0" encoding="UTF-8" standalone="no"?>
<svg xmlns:xlink="http://www.w3.org/1999/xlink" height="30.25px" width="30.5px" xmlns="http://www.w3.org/2000/svg">
  <g transform="matrix(1.0, 0.0, 0.0, 1.0, 15.25, 15.25)">
    <path d="M1.45 -14.6 L0.75 -14.5 1.15 -14.3 1.05 -14.15 3.6 -13.4 3.7 -13.45 1.25 -14.25 1.35 -14.25 4.15 -13.7 6.1 -12.75 9.2 -10.55 Q9.5 -10.55 9.5 -10.9 L8.45 -11.95 6.95 -12.9 Q3.25 -14.7 1.45 -14.6 M-12.45 -8.45 L-10.65 -10.65 Q-6.2 -15.0 0.0 -15.0 L0.6 -15.0 Q0.0 -14.0 -0.75 -13.15 0.0 -14.0 0.6 -15.0 6.4 -14.8 10.6 -10.65 L10.75 -10.5 8.0 -10.35 Q3.65 -10.6 -0.75 -13.15 -2.25 -11.4 -4.2 -10.35 -7.0 -8.85 -9.4 -8.45 L-9.4 -8.5 -9.6 -8.4 -12.45 -8.45 M-8.2 -10.7 L-8.15 -10.65 -7.85 -10.85 -8.2 -10.7 M-6.4 -11.3 L-6.6 -11.35 -8.45 -10.3 -8.45 -10.35 -8.7 -10.15 -9.85 -8.9 -9.65 -8.85 Q-8.85 -10.25 -6.4 -11.3 M-0.25 -14.65 L-0.25 -14.7 Q-0.2 -14.9 -0.45 -14.9 L-0.75 -14.8 -1.2 -14.9 Q-2.35 -14.9 -4.95 -13.85 L-7.9 -12.45 -9.7 -10.95 Q-11.3 -9.5 -11.3 -9.0 -11.3 -8.65 -11.05 -8.65 L-7.4 -12.05 -6.0 -12.8 Q-5.6 -13.1 -4.3 -13.4 L-1.1 -14.45 -0.85 -14.5 Q-5.0 -13.1 -6.4 -11.9 L-6.3 -11.85 Q-4.75 -12.9 -3.2 -13.3 L-1.25 -13.95 -2.4 -13.25 -4.8 -12.15 Q-6.95 -10.85 -8.7 -9.15 L-8.45 -9.15 Q-6.75 -11.0 -4.45 -12.05 L-1.85 -13.1 Q0.0 -13.9 0.0 -14.4 L-0.2 -14.7 -0.25 -14.65" fill="#775402" fill-rule="evenodd" stroke="none"/>
    <path d="M1.45 -14.6 Q3.25 -14.7 6.95 -12.9 L8.45 -11.95 9.5 -10.9 Q9.5 -10.55 9.2 -10.55 L6.1 -12.75 4.15 -13.7 1.35 -14.25 1.25 -14.25 3.7 -13.45 3.6 -13.4 1.05 -14.15 1.15 -14.3 0.75 -14.5 1.45 -14.6 M-0.25 -14.65 L-0.2 -14.7 0.0 -14.4 Q0.0 -13.9 -1.85 -13.1 L-4.45 -12.05 Q-6.75 -11.0 -8.45 -9.15 L-8.7 -9.15 Q-6.95 -10.85 -4.8 -12.15 L-2.4 -13.25 -1.25 -13.95 -3.2 -13.3 Q-4.75 -12.9 -6.3 -11.85 L-6.4 -11.9 Q-5.0 -13.1 -0.85 -14.5 L-1.1 -14.45 -4.3 -13.4 Q-5.6 -13.1 -6.0 -12.8 L-7.4 -12.05 -11.05 -8.65 Q-11.3 -8.65 -11.3 -9.0 -11.3 -9.5 -9.7 -10.95 L-7.9 -12.45 -4.95 -13.85 Q-2.35 -14.9 -1.2 -14.9 L-0.75 -14.8 -0.45 -14.9 Q-0.2 -14.9 -0.25 -14.7 L-0.25 -14.65 M-6.4 -11.3 Q-8.85 -10.25 -9.65 -8.85 L-9.85 -8.9 -8.7 -10.15 -8.45 -10.35 -8.45 -10.3 -6.6 -11.35 -6.4 -11.3 M-8.2 -10.7 L-7.85 -10.85 -8.15 -10.65 -8.2 -10.7" fill="#916602" fill-rule="evenodd" stroke="none"/>
    <path d="M-9.4 -8.45 Q-7.0 -8.85 -4.2 -10.35 -2.25 -11.4 -0.75 -13.15 3.65 -10.6 8.0 -10.35 L10.75 -10.5 Q15.0 -6.2 15.0 -0.15 15.0 3.75 13.2 6.95 L13.05 6.95 Q11.7 8.25 9.55 9.7 L7.45 10.7 4.6 11.15 -0.05 11.65 Q-5.0 11.65 -7.85 7.8 L-7.2 7.95 -6.35 8.85 Q-4.6 10.25 -1.35 10.25 1.45 10.25 4.7 8.55 5.9 7.7 6.2 6.75 L7.75 6.5 7.75 6.55 7.8 6.5 8.3 6.05 8.25 5.9 8.25 5.85 8.15 5.85 8.55 5.75 Q12.8 4.65 14.65 -0.3 L12.6 0.75 12.5 0.8 11.9 1.05 11.7 1.05 10.55 1.0 Q9.25 0.75 7.55 -0.3 L6.75 -0.7 6.75 -0.75 Q6.75 -1.05 3.65 -1.65 L3.3 -1.5 1.4 -1.3 Q0.95 -1.2 0.65 -0.9 0.25 -0.6 0.15 -0.05 -0.1 -1.05 -1.15 -1.3 L-2.0 -1.45 Q-2.1 -1.65 -2.45 -1.65 -6.55 -1.65 -6.65 -0.65 L-7.25 -0.3 Q-9.1 0.85 -10.45 1.05 L-10.8 1.05 -10.7 1.0 -10.7 0.85 Q-11.45 -0.05 -11.45 -1.7 -11.45 -3.45 -11.05 -5.1 L-9.4 -8.45 M1.8 -2.7 L1.75 -2.55 Q1.75 -2.5 2.9 -1.9 L7.15 -2.9 Q8.45 -2.9 9.9 -1.45 10.1 -1.45 10.1 -1.75 L10.1 -1.85 10.0 -1.95 9.2 -2.65 Q8.15 -3.4 7.3 -3.4 3.5 -2.3 2.9 -2.3 L2.5 -2.35 2.1 -2.55 1.9 -2.75 1.8 -2.7 M-5.35 -3.6 L-6.4 -3.55 -7.65 -3.2 -9.0 -2.4 -9.05 -2.25 -8.95 -2.05 Q-8.0 -3.1 -5.5 -3.1 -2.3 -3.1 -1.1 -2.0 -0.1 -2.0 -0.1 -2.75 L-0.1 -2.85 -0.15 -2.9 -0.3 -2.95 Q-0.55 -2.55 -1.0 -2.5 L-1.1 -2.5 -2.45 -3.2 -3.95 -3.5 -4.25 -3.6 -5.35 -3.6 M-4.1 10.5 L-4.1 10.6 Q-3.5 11.2 -1.75 11.2 -0.8 11.2 -0.8 10.9 L-0.85 10.8 -1.75 10.9 -4.0 10.5 -4.1 10.5" fill="#f8c887" fill-rule="evenodd" stroke="none"/>
    <path d="M1.8 -2.7 L1.9 -2.75 2.1 -2.55 2.5 -2.35 2.9 -2.3 Q3.5 -2.3 7.3 -3.4 8.15 -3.4 9.2 -2.65 L10.0 -1.95 10.1 -1.85 10.1 -1.75 Q10.1 -1.45 9.9 -1.45 8.45 -2.9 7.15 -2.9 L2.9 -1.9 Q1.75 -2.5 1.75 -2.55 L1.8 -2.7 M6.0 6.0 L6.05 5.75 Q6.25 5.75 6.3 6.05 L6.3 6.15 6.2 6.75 Q5.9 7.7 4.7 8.55 1.45 10.25 -1.35 10.25 -4.6 10.25 -6.35 8.85 L-7.2 7.95 Q-7.7 7.3 -7.7 6.65 L-7.65 5.95 -7.55 5.9 -7.45 5.85 -7.4 5.95 -7.3 5.95 -7.25 6.2 -7.25 6.25 -7.2 6.45 -6.4 6.35 -4.7 6.3 -4.4 6.25 -1.8 6.65 -1.6 6.75 2.45 7.05 3.95 7.35 4.55 7.65 4.6 7.5 4.65 7.5 4.95 7.7 5.7 6.8 6.0 6.0 M4.6 8.0 L4.55 7.85 -0.2 7.5 0.25 7.85 0.25 8.1 -0.3 7.5 -0.4 7.5 Q-1.1 7.05 -2.15 6.85 L-4.45 6.6 -7.1 6.7 -6.45 8.0 Q-5.1 9.75 -1.35 9.75 1.95 9.75 4.4 8.1 L4.6 8.0 M-5.35 -3.6 L-4.25 -3.6 -3.95 -3.5 -2.45 -3.2 -1.1 -2.5 -1.0 -2.5 Q-0.55 -2.55 -0.3 -2.95 L-0.15 -2.9 -0.1 -2.85 -0.1 -2.75 Q-0.1 -2.0 -1.1 -2.0 -2.3 -3.1 -5.5 -3.1 -8.0 -3.1 -8.95 -2.05 L-9.05 -2.25 -9.0 -2.4 -7.65 -3.2 -6.4 -3.55 -5.35 -3.6 M-4.1 10.5 L-4.0 10.5 -1.75 10.9 -0.85 10.8 -0.8 10.9 Q-0.8 11.2 -1.75 11.2 -3.5 11.2 -4.1 10.6 L-4.1 10.5" fill="#000000" fill-rule="evenodd" stroke="none"/>
    <path d="M0.15 -0.05 Q0.25 -0.6 0.65 -0.9 0.95 -1.2 1.4 -1.3 L3.3 -1.5 3.25 -1.4 3.3 -1.35 Q0.5 -1.25 0.5 0.0 L0.75 0.55 0.95 0.45 1.1 0.6 1.1 0.7 1.45 0.7 1.6 0.6 2.9 0.3 2.95 0.3 3.0 0.35 3.35 0.35 3.35 0.25 Q4.8 0.35 6.45 1.55 L7.0 1.8 7.85 1.85 7.15 1.65 6.8 1.45 7.45 1.7 7.65 1.6 6.45 0.9 Q8.7 1.75 11.05 1.75 12.7 1.75 12.95 1.3 L13.1 1.25 14.2 0.45 14.05 0.25 12.6 0.75 14.65 -0.3 Q12.8 4.65 8.55 5.75 L8.15 5.85 7.9 5.85 7.9 5.9 6.3 6.05 Q6.25 5.75 6.05 5.75 L6.0 6.0 Q4.45 5.9 3.0 5.15 1.2 4.25 0.65 3.25 L0.4 2.75 0.15 1.6 0.15 -0.05 0.15 1.6 -0.15 2.75 Q-0.55 4.05 -2.75 5.15 -4.2 5.9 -5.75 6.0 L-7.3 5.95 -7.4 5.95 -7.45 5.85 -7.55 5.9 -8.3 5.75 -9.2 5.5 -9.25 5.35 -9.3 5.45 Q-12.75 4.05 -14.4 -0.3 L-12.35 0.75 -10.85 1.05 -10.8 1.05 -10.45 1.05 Q-9.1 0.85 -7.25 -0.3 L-6.65 -0.65 -6.65 -0.6 -6.6 -0.45 -6.3 -0.45 -5.95 -0.5 -6.9 -0.15 Q-9.6 1.35 -10.6 1.35 -12.0 1.35 -12.6 0.85 L-13.8 0.35 -13.9 0.55 -13.6 0.95 -13.6 1.0 Q-13.6 1.25 -12.5 1.8 -11.4 2.35 -10.65 2.35 L-7.75 1.8 -5.95 0.9 -4.0 0.0 -3.65 -0.05 -4.25 0.4 -5.75 1.15 Q-9.05 2.85 -10.45 2.85 L-11.6 2.6 -11.75 2.65 -11.75 2.8 -9.8 3.3 Q-7.2 3.3 -2.45 0.5 L-1.8 0.4 -1.2 0.45 -1.1 0.5 Q-1.95 0.5 -2.95 1.35 L-3.55 1.95 -6.55 3.55 -6.5 3.6 Q-6.15 3.55 -3.85 2.2 L-3.8 2.25 -3.45 2.0 -3.1 1.75 Q-1.9 0.9 -0.65 0.8 L-0.65 0.7 -0.6 0.55 -0.65 0.3 -0.65 0.1 -0.25 0.7 -0.05 0.35 Q-0.05 -0.9 -2.7 -1.2 L-2.95 -1.2 -2.0 -1.35 -2.0 -1.45 -1.15 -1.3 Q-0.1 -1.05 0.15 -0.05 M6.75 -0.7 L7.55 -0.3 Q9.25 0.75 10.55 1.0 L10.4 1.0 Q7.65 0.2 7.2 -0.25 L6.7 -0.65 6.75 -0.7 M11.7 1.05 L11.9 1.05 11.65 1.1 11.7 1.05 M4.05 -0.1 L4.1 -0.15 Q4.4 -0.15 6.15 0.75 L5.5 0.5 4.05 -0.1 M11.3 1.8 L11.25 1.85 11.45 1.9 11.65 1.85 11.3 1.8 M10.6 2.5 L10.45 2.45 9.3 2.75 Q7.15 2.75 6.0 1.85 4.85 0.95 2.95 0.95 L2.85 1.05 2.3 1.1 2.6 1.15 3.2 1.05 4.35 1.2 6.2 2.45 Q7.0 3.1 8.5 3.1 9.9 3.1 10.6 2.5 M10.6 1.9 L10.45 1.9 8.85 1.95 9.45 2.05 10.6 1.9 M5.15 3.1 L5.25 3.05 4.55 2.8 4.4 2.8 5.15 3.1 M-5.6 4.15 L-5.4 4.2 Q-4.55 4.2 -3.75 3.7 L-5.6 4.15" fill="#865f02" fill-rule="evenodd" stroke="none"/>
    <path d="M3.3 -1.35 L3.25 -1.4 3.3 -1.5 3.65 -1.65 Q6.75 -1.05 6.75 -0.75 L6.75 -0.7 6.7 -0.65 6.55 -0.5 4.6 -0.85 Q3.4 -1.15 3.3 -1.35 M-5.95 -0.5 L-6.3 -0.45 -6.6 -0.45 -6.65 -0.6 -6.65 -0.65 Q-6.55 -1.65 -2.45 -1.65 -2.1 -1.65 -2.0 -1.45 L-2.0 -1.35 -2.95 -1.2 -3.15 -1.15 -4.2 -0.9 -4.35 -0.85 -5.95 -0.5" fill="#453101" fill-rule="evenodd" stroke="none"/>
    <path d="M12.95 1.3 Q12.7 1.75 11.05 1.75 8.7 1.75 6.45 0.9 L6.15 0.75 Q4.4 -0.15 4.1 -0.15 L4.05 -0.1 2.65 -0.6 3.35 -0.65 Q5.0 -0.65 6.65 0.4 L7.05 0.65 8.35 1.2 11.5 1.7 Q12.0 1.7 12.95 1.3 M6.8 1.45 L7.15 1.65 7.85 1.85 7.0 1.8 6.45 1.55 Q4.8 0.35 3.35 0.25 L3.35 0.35 3.0 0.35 2.95 0.3 2.9 0.3 1.6 0.6 1.45 0.7 1.1 0.7 1.1 0.6 0.95 0.45 1.2 0.15 2.7 -0.3 5.35 0.8 6.8 1.45 M10.6 1.9 L9.45 2.05 8.85 1.95 10.45 1.9 10.6 1.9 M10.6 2.5 Q9.9 3.1 8.5 3.1 7.0 3.1 6.2 2.45 L4.35 1.2 3.2 1.05 2.6 1.15 2.3 1.1 2.85 1.05 2.95 0.95 Q4.85 0.95 6.0 1.85 7.15 2.75 9.3 2.75 L10.45 2.45 10.6 2.5 M11.3 1.8 L11.65 1.85 11.45 1.9 11.25 1.85 11.3 1.8 M5.15 3.1 L4.4 2.8 4.55 2.8 5.25 3.05 5.15 3.1 M-13.6 0.95 Q-12.7 1.85 -10.6 1.85 -9.75 1.85 -7.15 0.7 -4.6 -0.55 -2.8 -0.55 L-2.7 -0.55 -3.65 -0.05 -4.0 0.0 -5.95 0.9 -7.75 1.8 -10.65 2.35 Q-11.4 2.35 -12.5 1.8 -13.6 1.25 -13.6 1.0 L-13.6 0.95 M-4.25 0.4 L-5.15 1.1 -5.1 1.15 Q-3.0 -0.25 -2.2 -0.25 L-1.1 -0.05 -0.85 -0.1 -0.65 0.1 -0.65 0.3 -0.6 0.55 -0.65 0.7 -0.65 0.8 Q-1.9 0.9 -3.1 1.75 L-3.45 2.0 -3.8 2.25 -3.85 2.2 Q-6.15 3.55 -6.5 3.6 L-6.55 3.55 -3.55 1.95 -2.95 1.35 Q-1.95 0.5 -1.1 0.5 L-1.2 0.45 -1.8 0.4 -2.45 0.5 Q-7.2 3.3 -9.8 3.3 L-11.75 2.8 -11.75 2.65 -11.6 2.6 -10.45 2.85 Q-9.05 2.85 -5.75 1.15 L-4.25 0.4 M-5.6 4.15 L-3.75 3.7 Q-4.55 4.2 -5.4 4.2 L-5.6 4.15" fill="#956902" fill-rule="evenodd" stroke="none"/>
    <path d="M12.6 0.75 L14.05 0.25 14.2 0.45 13.1 1.25 12.95 1.3 Q12.0 1.7 11.5 1.7 L8.35 1.2 7.05 0.65 6.65 0.4 Q5.0 -0.65 3.35 -0.65 L2.65 -0.6 4.05 -0.1 5.5 0.5 6.15 0.75 6.45 0.9 7.65 1.6 7.45 1.7 6.8 1.45 5.35 0.8 2.7 -0.3 1.2 0.15 0.95 0.45 0.75 0.55 0.5 0.0 Q0.5 -1.25 3.3 -1.35 3.4 -1.15 4.6 -0.85 L6.55 -0.5 6.7 -0.65 7.2 -0.25 Q7.65 0.2 10.4 1.0 L10.55 1.0 11.7 1.05 11.65 1.1 11.9 1.05 12.5 0.8 12.6 0.75 M-13.6 0.95 L-13.9 0.55 -13.8 0.35 -12.6 0.85 Q-12.0 1.35 -10.6 1.35 -9.6 1.35 -6.9 -0.15 L-5.95 -0.5 -4.35 -0.85 -4.2 -0.9 -3.15 -1.15 -2.95 -1.2 -2.7 -1.2 Q-0.05 -0.9 -0.05 0.35 L-0.25 0.7 -0.65 0.1 -0.85 -0.1 -1.1 -0.05 -2.2 -0.25 Q-3.0 -0.25 -5.1 1.15 L-5.15 1.1 -4.25 0.4 -3.65 -0.05 -2.7 -0.55 -2.8 -0.55 Q-4.6 -0.55 -7.15 0.7 -9.75 1.85 -10.6 1.85 -12.7 1.85 -13.6 0.95" fill="#b07c02" fill-rule="evenodd" stroke="none"/>
    <path d="M-12.45 -8.45 L-9.6 -8.4 -9.4 -8.5 -9.4 -8.45 -11.05 -5.1 Q-11.45 -3.45 -11.45 -1.7 -11.45 -0.05 -10.7 0.85 L-10.7 1.0 -10.8 1.05 -10.85 1.05 -12.35 0.75 -14.4 -0.3 Q-12.75 4.05 -9.3 5.45 L-9.25 5.35 -9.2 5.5 -8.3 5.75 -7.55 5.9 -7.65 5.95 -7.7 6.65 Q-7.7 7.3 -7.2 7.95 L-7.85 7.8 Q-5.0 11.65 -0.05 11.65 L4.6 11.15 7.45 10.7 9.55 9.7 Q11.7 8.25 13.05 6.95 L13.2 6.95 13.25 6.95 13.15 7.05 Q12.15 8.8 10.6 10.35 6.2 14.75 0.0 14.75 -6.2 14.75 -10.65 10.35 -15.0 6.0 -15.0 -0.15 -15.0 -4.75 -12.45 -8.45 M6.3 6.05 L7.9 5.9 7.9 5.85 8.15 5.85 8.25 5.85 8.25 5.9 8.3 6.05 7.8 6.5 7.75 6.55 7.75 6.5 6.2 6.75 6.3 6.15 6.3 6.05" fill="#f5b65f" fill-rule="evenodd" stroke="none"/>
    <path d="M0.15 1.6 L0.4 2.75 0.65 3.25 Q1.2 4.25 3.0 5.15 4.45 5.9 6.0 6.0 L5.7 6.8 4.95 7.7 4.65 7.5 4.6 7.5 4.55 7.65 3.95 7.35 2.45 7.05 -1.6 6.75 -1.8 6.65 -4.4 6.25 -4.7 6.3 -6.4 6.35 -7.2 6.45 -7.25 6.25 -7.25 6.2 -7.3 5.95 -5.75 6.0 Q-4.2 5.9 -2.75 5.15 -0.55 4.05 -0.15 2.75 L0.15 1.6" fill="#6d2201" fill-rule="evenodd" stroke="none"/>
    <path d="M4.6 8.0 L4.4 8.1 Q1.95 9.75 -1.35 9.75 -5.1 9.75 -6.45 8.0 L-7.1 6.7 -4.45 6.6 -2.15 6.85 Q-1.1 7.05 -0.4 7.5 L-0.3 7.5 0.25 8.1 0.25 7.85 -0.2 7.5 4.55 7.85 4.6 8.0" fill="#bf3a02" fill-rule="evenodd" stroke="none"/>
    <path d="M0.6 -15.0 L0.0 -15.0 Q-6.2 -15.0 -10.65 -10.65 L-12.45 -8.45 Q-15.0 -4.75 -15.0 -0.15 -15.0 6.0 -10.65 10.35 -6.2 14.75 0.0 14.75 6.2 14.75 10.6 10.35 12.15 8.8 13.15 7.05 M0.6 -15.0 Q6.4 -14.8 10.6 -10.65 L10.75 -10.5 Q15.0 -6.2 15.0 -0.15 15.0 3.75 13.2 6.95" fill="none" stroke="#865204" stroke-linecap="round" stroke-linejoin="round" stroke-width="0.5"/>
    <path d="M-12.45 -8.45 L-9.6 -8.4 M-9.4 -8.45 Q-7.0 -8.85 -4.2 -10.35 -2.25 -11.4 -0.75 -13.15 0.0 -14.0 0.6 -15.0 M3.3 -1.5 L1.4 -1.3 Q0.95 -1.2 0.65 -0.9 0.25 -0.6 0.15 -0.05 L0.15 1.6 0.4 2.75 0.65 3.25 Q1.2 4.25 3.0 5.15 4.45 5.9 6.0 6.0 M6.3 6.05 L7.9 5.9 M8.15 5.85 L8.55 5.75 Q12.8 4.65 14.65 -0.3 L12.6 0.75 12.5 0.8 11.9 1.05 11.7 1.05 10.55 1.0 Q9.25 0.75 7.55 -0.3 L6.75 -0.7 M10.75 -10.5 L8.0 -10.35 Q3.65 -10.6 -0.75 -13.15 M-7.55 5.9 L-8.3 5.75 -9.2 5.5 M-9.3 5.45 Q-12.75 4.05 -14.4 -0.3 L-12.35 0.75 -10.85 1.05 -10.8 1.05 -10.45 1.05 Q-9.1 0.85 -7.25 -0.3 L-6.65 -0.65 M-7.3 5.95 L-7.4 5.95 M0.15 -0.05 Q-0.1 -1.05 -1.15 -1.3 L-2.0 -1.45 M-7.3 5.95 L-5.75 6.0 Q-4.2 5.9 -2.75 5.15 -0.55 4.05 -0.15 2.75 L0.15 1.6" fill="none" stroke="#453101" stroke-linecap="round" stroke-linejoin="round" stroke-width="0.5"/>
  </g>
</svg>
