<?xml version="1.0" encoding="UTF-8" standalone="no"?>
<svg xmlns:xlink="http://www.w3.org/1999/xlink" height="30.1px" width="30.5px" xmlns="http://www.w3.org/2000/svg">
  <g transform="matrix(1.0, 0.0, 0.0, 1.0, 15.25, 15.25)">
    <path d="M1.45 -14.6 L0.75 -14.5 1.15 -14.3 1.05 -14.15 3.6 -13.4 3.7 -13.45 1.25 -14.25 1.35 -14.25 4.15 -13.7 6.1 -12.75 9.2 -10.6 Q9.5 -10.6 9.5 -10.95 L8.45 -12.0 6.95 -12.9 Q3.25 -14.7 1.45 -14.6 M-12.45 -8.5 L-10.65 -10.7 Q-6.2 -15.0 0.0 -15.0 L0.6 -15.0 Q0.0 -14.0 -0.75 -13.15 0.0 -14.0 0.6 -15.0 6.4 -14.8 10.6 -10.7 L10.75 -10.55 8.0 -10.4 Q3.65 -10.65 -0.75 -13.15 -2.25 -11.45 -4.2 -10.4 -7.0 -8.9 -9.4 -8.5 L-9.4 -8.55 -9.6 -8.45 -12.45 -8.5 M-8.2 -10.75 L-8.15 -10.7 -7.85 -10.9 -8.2 -10.75 M-6.4 -11.35 L-6.6 -11.4 -8.45 -10.35 -8.45 -10.4 -8.7 -10.2 -9.85 -8.95 -9.65 -8.9 Q-8.85 -10.3 -6.4 -11.35 M-0.25 -14.7 Q-0.2 -14.9 -0.45 -14.9 L-0.75 -14.8 -1.2 -14.9 Q-2.35 -14.9 -4.95 -13.85 L-7.9 -12.45 -9.7 -11.0 Q-11.3 -9.55 -11.3 -9.05 -11.3 -8.7 -11.05 -8.7 L-7.4 -12.05 -6.0 -12.8 Q-5.6 -13.1 -4.3 -13.4 L-1.1 -14.45 -0.85 -14.5 Q-5.0 -13.1 -6.4 -11.95 L-6.3 -11.9 Q-4.75 -12.9 -3.2 -13.3 L-1.25 -13.95 -2.4 -13.25 -4.8 -12.15 -8.7 -9.2 -8.45 -9.2 Q-6.75 -11.05 -4.45 -12.05 L-1.85 -13.1 Q0.0 -13.9 0.0 -14.4 L-0.2 -14.7 -0.25 -14.65 -0.25 -14.7" fill="#775402" fill-rule="evenodd" stroke="none"/>
    <path d="M1.45 -14.6 Q3.25 -14.7 6.95 -12.9 L8.45 -12.0 9.5 -10.95 Q9.5 -10.6 9.2 -10.6 L6.1 -12.75 4.15 -13.7 1.35 -14.25 1.25 -14.25 3.7 -13.45 3.6 -13.4 1.05 -14.15 1.15 -14.3 0.75 -14.5 1.45 -14.6 M-0.25 -14.7 L-0.25 -14.65 -0.2 -14.7 0.0 -14.4 Q0.0 -13.9 -1.85 -13.1 L-4.45 -12.05 Q-6.75 -11.05 -8.45 -9.2 L-8.7 -9.2 -4.8 -12.15 -2.4 -13.25 -1.25 -13.95 -3.2 -13.3 Q-4.75 -12.9 -6.3 -11.9 L-6.4 -11.95 Q-5.0 -13.1 -0.85 -14.5 L-1.1 -14.45 -4.3 -13.4 Q-5.6 -13.1 -6.0 -12.8 L-7.4 -12.05 -11.05 -8.7 Q-11.3 -8.7 -11.3 -9.05 -11.3 -9.55 -9.7 -11.0 L-7.9 -12.45 -4.95 -13.85 Q-2.35 -14.9 -1.2 -14.9 L-0.75 -14.8 -0.45 -14.9 Q-0.2 -14.9 -0.25 -14.7 M-6.4 -11.35 Q-8.85 -10.3 -9.65 -8.9 L-9.85 -8.95 -8.7 -10.2 -8.45 -10.4 -8.45 -10.35 -6.6 -11.4 -6.4 -11.35 M-8.2 -10.75 L-7.85 -10.9 -8.15 -10.7 -8.2 -10.75" fill="#916602" fill-rule="evenodd" stroke="none"/>
    <path d="M-9.4 -8.5 Q-7.0 -8.9 -4.2 -10.4 -2.25 -11.45 -0.75 -13.15 3.65 -10.65 8.0 -10.4 L10.75 -10.55 Q15.0 -6.2 15.0 -0.2 15.0 3.65 13.2 6.8 L13.05 6.8 9.55 9.6 7.45 10.6 4.6 11.05 -0.05 11.55 Q-5.0 11.55 -7.85 7.65 L-7.2 7.8 -6.35 8.75 Q-4.6 10.15 -1.35 10.15 1.45 10.15 4.7 8.45 5.9 7.55 6.2 6.6 L7.75 6.35 7.75 6.4 7.8 6.35 8.3 5.95 8.25 5.8 8.25 5.75 8.15 5.75 8.55 5.65 Q12.8 4.55 14.65 -0.35 L12.6 0.65 12.5 0.7 11.9 0.95 11.7 0.95 10.55 0.9 Q9.25 0.65 7.55 -0.35 L6.75 -0.75 6.75 -0.8 Q6.75 -1.1 3.65 -1.7 L3.3 -1.55 1.4 -1.35 Q0.95 -1.25 0.65 -0.95 0.25 -0.65 0.15 -0.1 -0.1 -1.1 -1.15 -1.35 L-2.0 -1.5 Q-2.1 -1.7 -2.45 -1.7 -6.55 -1.7 -6.65 -0.7 L-7.25 -0.35 Q-9.1 0.75 -10.45 0.95 L-10.8 0.95 -10.7 0.9 -10.7 0.75 Q-11.45 -0.1 -11.45 -1.75 -11.45 -3.5 -11.05 -5.15 L-9.4 -8.5 M1.8 -2.55 L1.75 -2.5 Q1.75 -2.45 2.9 -1.85 L7.15 -2.85 Q8.45 -2.85 9.9 -1.4 10.1 -1.4 10.1 -1.7 L10.1 -1.8 10.0 -1.9 9.2 -2.6 Q8.15 -3.35 7.3 -3.35 3.5 -2.25 2.9 -2.25 L2.5 -2.3 2.1 -2.5 1.9 -2.7 1.8 -2.65 1.8 -2.55 M-9.0 -2.25 L-9.05 -2.2 -8.95 -2.0 Q-8.0 -3.05 -5.5 -3.05 -2.3 -3.05 -1.1 -1.95 -0.1 -1.95 -0.1 -2.7 L-0.1 -2.8 -0.15 -2.85 -0.3 -2.9 Q-0.55 -2.5 -1.0 -2.45 L-1.1 -2.45 -2.45 -3.15 -3.95 -3.45 -4.25 -3.55 -5.35 -3.55 -6.4 -3.5 -7.65 -3.15 -9.0 -2.35 -9.05 -2.35 -9.05 -2.3 -9.0 -2.25 M-4.0 10.4 L-4.1 10.4 -4.1 10.5 Q-3.5 11.1 -1.75 11.1 -0.8 11.1 -0.8 10.8 L-0.85 10.7 -1.75 10.8 -4.0 10.4" fill="#f8c887" fill-rule="evenodd" stroke="none"/>
    <path d="M1.8 -2.55 L1.8 -2.65 1.9 -2.7 2.1 -2.5 2.5 -2.3 2.9 -2.25 Q3.5 -2.25 7.3 -3.35 8.15 -3.35 9.2 -2.6 L10.0 -1.9 10.1 -1.8 10.1 -1.7 Q10.1 -1.4 9.9 -1.4 8.45 -2.85 7.15 -2.85 L2.9 -1.85 Q1.75 -2.45 1.75 -2.5 L1.8 -2.55 M6.0 5.9 L6.05 5.65 Q6.25 5.65 6.3 5.95 L6.3 6.0 6.2 6.6 Q5.9 7.55 4.7 8.45 1.45 10.15 -1.35 10.15 -4.6 10.15 -6.35 8.75 L-7.2 7.8 Q-7.7 7.15 -7.7 6.5 L-7.65 5.85 -7.55 5.8 -7.45 5.75 -7.4 5.85 -7.3 5.85 -7.25 6.05 -7.25 6.1 -7.2 6.3 -6.4 6.2 -4.7 6.15 -4.4 6.1 -1.8 6.5 -1.6 6.6 2.45 6.9 3.95 7.2 4.55 7.5 4.6 7.35 4.65 7.35 4.95 7.55 5.7 6.65 6.0 5.9 M4.6 7.85 L4.55 7.7 -0.2 7.35 0.25 7.7 0.25 7.95 -0.3 7.35 -0.4 7.35 Q-1.1 6.9 -2.15 6.7 L-4.45 6.45 -7.1 6.55 -6.45 7.85 Q-5.1 9.65 -1.35 9.65 1.95 9.65 4.4 7.95 L4.6 7.85 M-9.0 -2.35 L-7.65 -3.15 -6.4 -3.5 -5.35 -3.55 -4.25 -3.55 -3.95 -3.45 -2.45 -3.15 -1.1 -2.45 -1.0 -2.45 Q-0.55 -2.5 -0.3 -2.9 L-0.15 -2.85 -0.1 -2.8 -0.1 -2.7 Q-0.1 -1.95 -1.1 -1.95 -2.3 -3.05 -5.5 -3.05 -8.0 -3.05 -8.95 -2.0 L-9.05 -2.2 -9.0 -2.25 -9.0 -2.35 M-4.0 10.4 L-1.75 10.8 -0.85 10.7 -0.8 10.8 Q-0.8 11.1 -1.75 11.1 -3.5 11.1 -4.1 10.5 L-4.1 10.4 -4.0 10.4" fill="#000000" fill-rule="evenodd" stroke="none"/>
    <path d="M0.15 -0.1 Q0.25 -0.65 0.65 -0.95 0.95 -1.25 1.4 -1.35 L3.3 -1.55 3.25 -1.45 3.3 -1.4 Q0.5 -1.3 0.5 -0.05 L0.75 0.45 0.95 0.35 1.1 0.5 1.1 0.6 1.45 0.6 1.6 0.5 2.9 0.2 2.95 0.2 3.0 0.25 3.35 0.25 3.35 0.15 Q4.8 0.25 6.45 1.45 L7.0 1.7 7.85 1.75 7.15 1.55 6.8 1.35 7.45 1.6 7.65 1.5 6.45 0.8 Q8.7 1.65 11.05 1.65 12.7 1.65 12.95 1.2 L13.1 1.15 14.2 0.35 14.05 0.15 12.6 0.65 14.65 -0.35 Q12.8 4.55 8.55 5.65 L8.15 5.75 7.9 5.75 7.9 5.8 6.3 5.95 Q6.25 5.65 6.05 5.65 L6.0 5.9 Q4.45 5.8 3.0 5.05 1.2 4.15 0.65 3.15 L0.4 2.65 0.15 1.5 0.15 -0.1 0.15 1.5 -0.15 2.65 Q-0.55 3.95 -2.75 5.05 -4.2 5.8 -5.75 5.9 L-7.3 5.85 -7.4 5.85 -7.45 5.75 -7.55 5.8 -8.3 5.65 -9.2 5.4 -9.25 5.25 -9.3 5.35 Q-12.75 3.95 -14.4 -0.35 L-12.35 0.65 -10.85 0.95 -10.8 0.95 -10.45 0.95 Q-9.1 0.75 -7.25 -0.35 L-6.65 -0.7 -6.65 -0.65 -6.6 -0.5 -6.3 -0.5 -5.95 -0.55 -6.9 -0.2 Q-9.6 1.25 -10.6 1.25 -12.0 1.25 -12.6 0.75 L-13.8 0.25 -13.9 0.45 -13.6 0.85 -13.6 0.9 Q-13.6 1.15 -12.5 1.7 -11.4 2.25 -10.65 2.25 L-7.75 1.7 -5.95 0.8 -4.0 -0.05 -3.65 -0.1 -4.25 0.3 -5.75 1.05 Q-9.05 2.75 -10.45 2.75 L-11.6 2.5 -11.75 2.55 -11.75 2.7 -9.8 3.2 Q-7.2 3.2 -2.45 0.4 L-1.8 0.3 -1.2 0.35 -1.1 0.4 Q-1.95 0.4 -2.95 1.25 L-3.55 1.85 -6.55 3.45 -6.5 3.5 Q-6.15 3.45 -3.85 2.1 L-3.8 2.15 -3.45 1.9 -3.1 1.65 Q-1.9 0.8 -0.65 0.7 L-0.65 0.6 -0.6 0.45 -0.65 0.2 -0.65 0.0 -0.25 0.6 -0.05 0.25 Q-0.05 -0.95 -2.7 -1.25 L-2.95 -1.25 -2.0 -1.4 -2.0 -1.5 -1.15 -1.35 Q-0.1 -1.1 0.15 -0.1 M6.75 -0.75 L7.55 -0.35 Q9.25 0.65 10.55 0.9 L10.4 0.9 Q7.65 0.1 7.2 -0.3 L6.7 -0.7 6.75 -0.75 M11.7 0.95 L11.9 0.95 11.65 1.0 11.7 0.95 M4.05 -0.15 L4.1 -0.2 Q4.4 -0.2 6.15 0.65 L5.5 0.4 4.05 -0.15 M11.3 1.7 L11.25 1.75 11.45 1.8 11.65 1.75 11.3 1.7 M10.6 1.8 L10.45 1.8 8.85 1.85 9.45 1.95 10.6 1.8 M10.6 2.4 L10.45 2.35 9.3 2.65 Q7.15 2.65 6.0 1.75 4.85 0.85 2.95 0.85 L2.85 0.95 2.3 1.0 2.6 1.05 3.2 0.95 4.35 1.1 6.2 2.35 Q7.0 3.0 8.5 3.0 9.9 3.0 10.6 2.4 M5.15 3.0 L5.25 2.95 4.55 2.7 4.4 2.7 5.15 3.0 M-5.6 4.05 L-5.4 4.1 Q-4.55 4.1 -3.75 3.6 L-5.6 4.05" fill="#865f02" fill-rule="evenodd" stroke="none"/>
    <path d="M3.3 -1.4 L3.25 -1.45 3.3 -1.55 3.65 -1.7 Q6.75 -1.1 6.75 -0.8 L6.75 -0.75 6.7 -0.7 6.55 -0.55 4.6 -0.9 Q3.4 -1.2 3.3 -1.4 M-5.95 -0.55 L-6.3 -0.5 -6.6 -0.5 -6.65 -0.65 -6.65 -0.7 Q-6.55 -1.7 -2.45 -1.7 -2.1 -1.7 -2.0 -1.5 L-2.0 -1.4 -2.95 -1.25 -3.15 -1.2 -4.2 -0.95 -4.35 -0.9 -5.95 -0.55" fill="#453101" fill-rule="evenodd" stroke="none"/>
    <path d="M12.95 1.2 Q12.7 1.65 11.05 1.65 8.7 1.65 6.45 0.8 L6.15 0.65 Q4.4 -0.2 4.1 -0.2 L4.05 -0.15 2.65 -0.65 3.35 -0.7 Q5.0 -0.7 6.65 0.3 L7.05 0.55 8.35 1.1 11.5 1.6 Q12.0 1.6 12.95 1.2 M6.8 1.35 L7.15 1.55 7.85 1.75 7.0 1.7 6.45 1.45 Q4.8 0.25 3.35 0.15 L3.35 0.25 3.0 0.25 2.95 0.2 2.9 0.2 1.6 0.5 1.45 0.6 1.1 0.6 1.1 0.5 0.95 0.35 1.2 0.05 2.7 -0.35 5.35 0.7 6.8 1.35 M10.6 2.4 Q9.9 3.0 8.5 3.0 7.0 3.0 6.2 2.35 L4.35 1.1 3.2 0.95 2.6 1.05 2.3 1.0 2.85 0.95 2.95 0.85 Q4.85 0.85 6.0 1.75 7.15 2.65 9.3 2.65 L10.45 2.35 10.6 2.4 M10.6 1.8 L9.45 1.95 8.85 1.85 10.45 1.8 10.6 1.8 M11.3 1.7 L11.65 1.75 11.45 1.8 11.25 1.75 11.3 1.7 M5.15 3.0 L4.4 2.7 4.55 2.7 5.25 2.95 5.15 3.0 M-13.6 0.85 Q-12.7 1.75 -10.6 1.75 -9.75 1.75 -7.15 0.6 -4.6 -0.6 -2.8 -0.6 L-2.7 -0.6 -3.65 -0.1 -4.0 -0.05 -5.95 0.8 -7.75 1.7 -10.65 2.25 Q-11.4 2.25 -12.5 1.7 -13.6 1.15 -13.6 0.9 L-13.6 0.85 M-4.25 0.3 L-5.15 1.0 -5.1 1.05 Q-3.0 -0.3 -2.2 -0.3 L-1.1 -0.1 -0.85 -0.15 -0.65 0.0 -0.65 0.2 -0.6 0.45 -0.65 0.6 -0.65 0.7 Q-1.9 0.8 -3.1 1.65 L-3.45 1.9 -3.8 2.15 -3.85 2.1 Q-6.15 3.45 -6.5 3.5 L-6.55 3.45 -3.55 1.85 -2.95 1.25 Q-1.95 0.4 -1.1 0.4 L-1.2 0.35 -1.8 0.3 -2.45 0.4 Q-7.2 3.2 -9.8 3.2 L-11.75 2.7 -11.75 2.55 -11.6 2.5 -10.45 2.75 Q-9.05 2.75 -5.75 1.05 L-4.25 0.3 M-5.6 4.05 L-3.75 3.6 Q-4.55 4.1 -5.4 4.1 L-5.6 4.05" fill="#956902" fill-rule="evenodd" stroke="none"/>
    <path d="M12.6 0.65 L14.05 0.15 14.2 0.35 13.1 1.15 12.95 1.2 Q12.0 1.6 11.5 1.6 L8.35 1.1 7.05 0.55 6.65 0.3 Q5.0 -0.7 3.35 -0.7 L2.65 -0.65 4.05 -0.15 5.5 0.4 6.15 0.65 6.45 0.8 7.65 1.5 7.45 1.6 6.8 1.35 5.35 0.7 2.7 -0.35 1.2 0.05 0.95 0.35 0.75 0.45 0.5 -0.05 Q0.5 -1.3 3.3 -1.4 3.4 -1.2 4.6 -0.9 L6.55 -0.55 6.7 -0.7 7.2 -0.3 Q7.65 0.1 10.4 0.9 L10.55 0.9 11.7 0.95 11.65 1.0 11.9 0.95 12.5 0.7 12.6 0.65 M-13.6 0.85 L-13.9 0.45 -13.8 0.25 -12.6 0.75 Q-12.0 1.25 -10.6 1.25 -9.6 1.25 -6.9 -0.2 L-5.95 -0.55 -4.35 -0.9 -4.2 -0.95 -3.15 -1.2 -2.95 -1.25 -2.7 -1.25 Q-0.05 -0.95 -0.05 0.25 L-0.25 0.6 -0.65 0.0 -0.85 -0.15 -1.1 -0.1 -2.2 -0.3 Q-3.0 -0.3 -5.1 1.05 L-5.15 1.0 -4.25 0.3 -3.65 -0.1 -2.7 -0.6 -2.8 -0.6 Q-4.6 -0.6 -7.15 0.6 -9.75 1.75 -10.6 1.75 -12.7 1.75 -13.6 0.85" fill="#b07c02" fill-rule="evenodd" stroke="none"/>
    <path d="M-12.45 -8.5 L-9.6 -8.45 -9.4 -8.55 -9.4 -8.5 -11.05 -5.15 Q-11.45 -3.5 -11.45 -1.75 -11.45 -0.1 -10.7 0.75 L-10.7 0.9 -10.8 0.95 -10.85 0.95 -12.35 0.65 -14.4 -0.35 Q-12.75 3.95 -9.3 5.35 L-9.25 5.25 -9.2 5.4 -8.3 5.65 -7.55 5.8 -7.65 5.85 -7.7 6.5 Q-7.7 7.15 -7.2 7.8 L-7.85 7.65 Q-5.0 11.55 -0.05 11.55 L4.6 11.05 7.45 10.6 9.55 9.6 13.05 6.8 13.2 6.8 13.25 6.8 13.15 6.9 10.6 10.25 Q6.2 14.6 0.0 14.6 -6.2 14.6 -10.65 10.25 -15.0 5.9 -15.0 -0.2 -15.0 -4.8 -12.45 -8.5 M6.3 5.95 L7.9 5.8 7.9 5.75 8.15 5.75 8.25 5.75 8.25 5.8 8.3 5.95 7.8 6.35 7.75 6.4 7.75 6.35 6.2 6.6 6.3 6.0 6.3 5.95" fill="#f5b65f" fill-rule="evenodd" stroke="none"/>
    <path d="M0.15 1.5 L0.4 2.65 0.65 3.15 Q1.2 4.15 3.0 5.05 4.45 5.8 6.0 5.9 L5.7 6.65 4.95 7.55 4.65 7.35 4.6 7.35 4.55 7.5 3.95 7.2 2.45 6.9 -1.6 6.6 -1.8 6.5 -4.4 6.1 -4.7 6.15 -6.4 6.2 -7.2 6.3 -7.25 6.1 -7.25 6.05 -7.3 5.85 -5.75 5.9 Q-4.2 5.8 -2.75 5.05 -0.55 3.95 -0.15 2.65 L0.15 1.5" fill="#6d2201" fill-rule="evenodd" stroke="none"/>
    <path d="M4.6 7.85 L4.4 7.95 Q1.95 9.65 -1.35 9.65 -5.1 9.65 -6.45 7.85 L-7.1 6.55 -4.45 6.45 -2.15 6.7 Q-1.1 6.9 -0.4 7.35 L-0.3 7.35 0.25 7.95 0.25 7.7 -0.2 7.35 4.55 7.7 4.6 7.85" fill="#bf3a02" fill-rule="evenodd" stroke="none"/>
    <path d="M0.6 -15.0 L0.0 -15.0 Q-6.2 -15.0 -10.65 -10.7 L-12.45 -8.5 Q-15.0 -4.8 -15.0 -0.2 -15.0 5.9 -10.65 10.25 -6.2 14.6 0.0 14.6 6.2 14.6 10.6 10.25 L13.15 6.9 M0.6 -15.0 Q6.4 -14.8 10.6 -10.7 L10.75 -10.55 Q15.0 -6.2 15.0 -0.2 15.0 3.65 13.2 6.8" fill="none" stroke="#865204" stroke-linecap="round" stroke-linejoin="round" stroke-width="0.5"/>
    <path d="M-12.45 -8.5 L-9.6 -8.45 M-9.4 -8.5 Q-7.0 -8.9 -4.2 -10.4 -2.25 -11.45 -0.75 -13.15 0.0 -14.0 0.6 -15.0 M3.3 -1.55 L1.4 -1.35 Q0.95 -1.25 0.65 -0.95 0.25 -0.65 0.15 -0.1 L0.15 1.5 0.4 2.65 0.65 3.15 Q1.2 4.15 3.0 5.05 4.45 5.8 6.0 5.9 M6.3 5.95 L7.9 5.8 M8.15 5.75 L8.55 5.65 Q12.8 4.55 14.65 -0.35 L12.6 0.65 12.5 0.7 11.9 0.95 11.7 0.95 10.55 0.9 Q9.25 0.65 7.55 -0.35 L6.75 -0.75 M10.75 -10.55 L8.0 -10.4 Q3.65 -10.65 -0.75 -13.15 M-7.55 5.8 L-8.3 5.65 -9.2 5.4 M-9.3 5.35 Q-12.75 3.95 -14.4 -0.35 L-12.35 0.65 -10.85 0.95 -10.8 0.95 -10.45 0.95 Q-9.1 0.75 -7.25 -0.35 L-6.65 -0.7 M-7.3 5.85 L-7.4 5.85 M0.15 -0.1 Q-0.1 -1.1 -1.15 -1.35 L-2.0 -1.5 M-7.3 5.85 L-5.75 5.9 Q-4.2 5.8 -2.75 5.05 -0.55 3.95 -0.15 2.65 L0.15 1.5" fill="none" stroke="#453101" stroke-linecap="round" stroke-linejoin="round" stroke-width="0.5"/>
  </g>
</svg>
