<?xml version="1.0" encoding="UTF-8" standalone="no"?>
<svg xmlns:xlink="http://www.w3.org/1999/xlink" height="30.4px" width="30.5px" xmlns="http://www.w3.org/2000/svg">
  <g transform="matrix(1.0, 0.0, 0.0, 1.0, 15.25, 15.25)">
    <path d="M1.45 -14.6 L0.75 -14.5 1.15 -14.3 1.05 -14.15 3.6 -13.4 3.7 -13.45 1.25 -14.25 1.35 -14.25 4.15 -13.7 6.1 -12.7 9.2 -10.55 Q9.5 -10.55 9.5 -10.9 L8.45 -11.95 6.95 -12.85 Q3.25 -14.7 1.45 -14.6 M-12.45 -8.4 L-10.65 -10.65 Q-6.2 -15.0 0.0 -15.0 L0.6 -15.0 -0.75 -13.1 0.6 -15.0 Q6.4 -14.8 10.6 -10.65 L10.75 -10.5 8.0 -10.35 Q3.65 -10.6 -0.75 -13.1 -2.25 -11.4 -4.2 -10.35 -7.0 -8.8 -9.4 -8.4 L-9.4 -8.45 -9.6 -8.35 -12.45 -8.4 M-8.2 -10.7 L-8.15 -10.65 -7.85 -10.85 -8.2 -10.7 M-6.4 -11.3 L-6.6 -11.35 -8.45 -10.3 -8.45 -10.35 -8.7 -10.15 -9.85 -8.85 -9.65 -8.8 Q-8.85 -10.25 -6.4 -11.3 M-0.25 -14.7 Q-0.2 -14.9 -0.45 -14.9 L-0.75 -14.8 -1.2 -14.9 Q-2.35 -14.9 -4.95 -13.85 L-7.9 -12.4 -9.7 -10.95 Q-11.3 -9.5 -11.3 -8.95 -11.3 -8.6 -11.05 -8.6 L-7.4 -12.0 -6.0 -12.75 -4.3 -13.4 -1.1 -14.45 -0.85 -14.5 Q-5.0 -13.05 -6.4 -11.9 L-6.3 -11.85 Q-4.75 -12.85 -3.2 -13.3 L-1.25 -13.95 -2.4 -13.25 -4.8 -12.1 Q-6.95 -10.85 -8.7 -9.1 L-8.45 -9.1 Q-6.75 -11.0 -4.45 -12.0 L-1.85 -13.05 Q0.0 -13.9 0.0 -14.4 L-0.2 -14.7 -0.25 -14.65 -0.25 -14.7" fill="#775402" fill-rule="evenodd" stroke="none"/>
    <path d="M1.45 -14.6 Q3.25 -14.7 6.95 -12.85 L8.45 -11.95 9.5 -10.9 Q9.5 -10.55 9.2 -10.55 L6.1 -12.7 4.15 -13.7 1.35 -14.25 1.25 -14.25 3.7 -13.45 3.6 -13.4 1.05 -14.15 1.15 -14.3 0.75 -14.5 1.45 -14.6 M-0.25 -14.7 L-0.25 -14.65 -0.2 -14.7 0.0 -14.4 Q0.0 -13.9 -1.85 -13.05 L-4.45 -12.0 Q-6.75 -11.0 -8.45 -9.1 L-8.7 -9.1 Q-6.95 -10.85 -4.8 -12.1 L-2.4 -13.25 -1.25 -13.95 -3.2 -13.3 Q-4.75 -12.85 -6.3 -11.85 L-6.4 -11.9 Q-5.0 -13.05 -0.85 -14.5 L-1.1 -14.45 -4.3 -13.4 -6.0 -12.75 -7.4 -12.0 -11.05 -8.6 Q-11.3 -8.6 -11.3 -8.95 -11.3 -9.5 -9.7 -10.95 L-7.9 -12.4 -4.95 -13.85 Q-2.35 -14.9 -1.2 -14.9 L-0.75 -14.8 -0.45 -14.9 Q-0.2 -14.9 -0.25 -14.7 M-6.4 -11.3 Q-8.85 -10.25 -9.65 -8.8 L-9.85 -8.85 -8.7 -10.15 -8.45 -10.35 -8.45 -10.3 -6.6 -11.35 -6.4 -11.3 M-8.2 -10.7 L-7.85 -10.85 -8.15 -10.65 -8.2 -10.7" fill="#916602" fill-rule="evenodd" stroke="none"/>
    <path d="M-9.4 -8.4 Q-7.0 -8.8 -4.2 -10.35 -2.25 -11.4 -0.75 -13.1 3.65 -10.6 8.0 -10.35 L10.75 -10.5 Q15.0 -6.15 15.0 -0.05 15.0 3.85 13.2 7.05 L13.05 7.05 9.55 9.85 7.45 10.85 4.6 11.3 -0.05 11.8 Q-5.0 11.8 -7.85 7.9 L-7.2 8.05 -6.35 8.95 Q-4.6 10.4 -1.35 10.4 1.45 10.4 4.7 8.65 5.9 7.8 6.2 6.85 L7.75 6.6 7.75 6.65 7.8 6.6 8.3 6.2 8.25 6.05 8.25 6.0 8.15 6.0 8.55 5.9 Q12.8 4.75 14.65 -0.2 L12.6 0.8 12.5 0.85 11.9 1.1 11.7 1.1 10.55 1.05 Q9.25 0.8 7.55 -0.2 L6.75 -0.6 6.75 -0.65 Q6.75 -0.95 3.65 -1.55 L3.3 -1.4 1.4 -1.2 Q0.95 -1.1 0.65 -0.8 0.25 -0.5 0.15 0.05 -0.1 -0.95 -1.15 -1.2 L-2.0 -1.35 Q-2.1 -1.55 -2.45 -1.55 -6.55 -1.55 -6.65 -0.55 L-7.25 -0.2 Q-9.1 0.9 -10.45 1.1 L-10.8 1.1 -10.7 1.05 -10.7 0.9 Q-11.45 0.05 -11.45 -1.6 -11.45 -3.4 -11.05 -5.05 L-9.4 -8.4 M1.8 -2.35 L1.75 -2.35 2.9 -1.65 Q3.65 -1.65 7.15 -2.7 8.45 -2.7 9.9 -1.2 10.1 -1.2 10.1 -1.5 L10.1 -1.6 10.0 -1.7 9.2 -2.45 Q8.15 -3.2 7.3 -3.2 3.5 -2.1 2.9 -2.1 L2.5 -2.15 2.1 -2.35 1.9 -2.55 1.8 -2.5 1.8 -2.45 1.75 -2.4 1.8 -2.35 M-9.05 -2.05 L-8.95 -1.8 Q-8.0 -2.9 -5.5 -2.9 -2.3 -2.9 -1.1 -1.75 -0.1 -1.75 -0.1 -2.55 L-0.1 -2.65 -0.15 -2.7 -0.3 -2.75 Q-0.55 -2.35 -1.0 -2.3 L-1.1 -2.3 -2.45 -3.0 -3.95 -3.3 -4.25 -3.4 -5.35 -3.4 -6.4 -3.35 -7.65 -3.0 -9.0 -2.2 -9.0 -2.15 -9.05 -2.1 -9.05 -2.05 M-4.1 10.65 L-4.1 10.75 Q-3.5 11.35 -1.75 11.35 -0.8 11.35 -0.8 11.05 L-0.85 10.95 -1.75 11.05 -4.0 10.65 -4.1 10.65" fill="#f8c887" fill-rule="evenodd" stroke="none"/>
    <path d="M1.8 -2.45 L1.8 -2.5 1.9 -2.55 2.1 -2.35 2.5 -2.15 2.9 -2.1 Q3.5 -2.1 7.3 -3.2 8.15 -3.2 9.2 -2.45 L10.0 -1.7 10.1 -1.6 10.1 -1.5 Q10.1 -1.2 9.9 -1.2 8.45 -2.7 7.15 -2.7 3.65 -1.65 2.9 -1.65 L1.75 -2.35 1.8 -2.35 1.8 -2.45 M6.0 6.15 L6.05 5.9 Q6.25 5.9 6.3 6.2 L6.3 6.25 6.2 6.85 Q5.9 7.8 4.7 8.65 1.45 10.4 -1.35 10.4 -4.6 10.4 -6.35 8.95 L-7.2 8.05 Q-7.7 7.4 -7.7 6.75 L-7.65 6.1 -7.55 6.05 -7.45 6.0 -7.4 6.1 -7.3 6.1 -7.25 6.3 -7.25 6.35 -7.2 6.55 -6.4 6.45 -4.7 6.4 -4.4 6.35 -1.8 6.75 -1.6 6.85 2.45 7.15 3.95 7.45 4.55 7.75 4.6 7.6 4.65 7.6 4.95 7.8 5.7 6.9 6.0 6.15 M4.6 8.1 L4.55 7.95 -0.2 7.6 0.25 7.95 0.25 8.2 -0.3 7.6 -0.4 7.6 Q-1.1 7.15 -2.15 6.95 L-4.45 6.7 -7.1 6.8 -6.45 8.1 Q-5.1 9.9 -1.35 9.9 1.95 9.9 4.4 8.2 L4.6 8.1 M-9.0 -2.15 L-9.0 -2.2 -7.65 -3.0 -6.4 -3.35 -5.35 -3.4 -4.25 -3.4 -3.95 -3.3 -2.45 -3.0 -1.1 -2.3 -1.0 -2.3 Q-0.55 -2.35 -0.3 -2.75 L-0.15 -2.7 -0.1 -2.65 -0.1 -2.55 Q-0.1 -1.75 -1.1 -1.75 -2.3 -2.9 -5.5 -2.9 -8.0 -2.9 -8.95 -1.8 L-9.05 -2.05 -9.0 -2.1 -9.0 -2.15 M-4.1 10.65 L-4.0 10.65 -1.75 11.05 -0.85 10.95 -0.8 11.05 Q-0.8 11.35 -1.75 11.35 -3.5 11.35 -4.1 10.75 L-4.1 10.65" fill="#000000" fill-rule="evenodd" stroke="none"/>
    <path d="M0.15 0.05 Q0.25 -0.5 0.65 -0.8 0.95 -1.1 1.4 -1.2 L3.3 -1.4 3.25 -1.3 3.3 -1.25 Q0.5 -1.15 0.5 0.1 L0.75 0.6 0.95 0.5 1.1 0.65 1.1 0.75 1.45 0.75 1.6 0.65 2.9 0.35 2.95 0.35 3.0 0.4 3.35 0.4 3.35 0.3 Q4.8 0.4 6.45 1.6 L7.0 1.9 7.85 1.95 7.15 1.7 6.8 1.5 7.45 1.75 7.65 1.65 6.45 0.95 Q8.7 1.85 11.05 1.85 12.7 1.85 12.95 1.35 L13.1 1.3 14.2 0.5 14.05 0.3 12.6 0.8 14.65 -0.2 Q12.8 4.75 8.55 5.9 L8.15 6.0 7.9 6.0 7.9 6.05 6.3 6.2 Q6.25 5.9 6.05 5.9 L6.0 6.15 Q4.45 6.05 3.0 5.25 1.2 4.35 0.65 3.35 L0.4 2.85 0.15 1.65 0.15 0.05 0.15 1.65 -0.15 2.85 Q-0.55 4.15 -2.75 5.25 -4.2 6.05 -5.75 6.15 L-7.3 6.1 -7.4 6.1 -7.45 6.0 -7.55 6.05 -8.3 5.9 -9.2 5.65 -9.25 5.45 -9.3 5.6 Q-12.75 4.15 -14.4 -0.2 L-12.35 0.8 -10.85 1.1 -10.8 1.1 -10.45 1.1 Q-9.1 0.9 -7.25 -0.2 L-6.65 -0.55 -6.65 -0.5 -6.6 -0.35 -6.3 -0.35 -5.95 -0.4 -6.9 -0.05 Q-9.6 1.4 -10.6 1.4 -12.0 1.4 -12.6 0.9 L-13.8 0.4 -13.9 0.6 -13.6 1.0 -13.6 1.05 -12.5 1.9 Q-11.4 2.45 -10.65 2.45 L-7.75 1.9 -5.95 0.95 -4.0 0.1 -3.65 0.05 -4.25 0.45 -5.75 1.2 Q-9.05 2.95 -10.45 2.95 L-11.6 2.7 -11.75 2.75 -11.75 2.9 -9.8 3.4 Q-7.2 3.4 -2.45 0.55 L-1.8 0.45 -1.2 0.5 -1.1 0.55 Q-1.95 0.55 -2.95 1.4 L-3.55 2.05 -6.55 3.65 -6.5 3.7 Q-6.15 3.65 -3.85 2.3 L-3.8 2.35 -3.45 2.1 -3.1 1.85 Q-1.9 0.95 -0.65 0.85 L-0.65 0.75 -0.6 0.6 -0.65 0.35 -0.65 0.15 -0.25 0.75 -0.05 0.4 Q-0.05 -0.8 -2.7 -1.1 L-2.95 -1.1 -2.0 -1.25 -2.0 -1.35 -1.15 -1.2 Q-0.1 -0.95 0.15 0.05 M6.75 -0.6 L7.55 -0.2 Q9.25 0.8 10.55 1.05 L10.4 1.05 Q7.65 0.25 7.2 -0.15 L6.7 -0.55 6.75 -0.6 M11.7 1.1 L11.9 1.1 11.65 1.15 11.7 1.1 M4.05 0.0 L4.1 -0.05 Q4.4 -0.05 6.15 0.8 L5.5 0.55 4.05 0.0 M10.6 2.0 L10.45 2.0 8.85 2.05 9.45 2.15 10.6 2.0 M10.6 2.6 L10.45 2.55 9.3 2.85 Q7.15 2.85 6.0 1.95 4.85 1.0 2.95 1.0 L2.85 1.1 2.3 1.15 2.6 1.2 3.2 1.1 4.35 1.25 6.2 2.55 Q7.0 3.2 8.5 3.2 9.9 3.2 10.6 2.6 M11.3 1.9 L11.25 1.95 11.45 2.0 11.65 1.95 11.3 1.9 M5.15 3.2 L5.25 3.15 4.55 2.9 4.4 2.9 5.15 3.2 M-5.6 4.25 L-5.4 4.3 Q-4.55 4.3 -3.75 3.8 L-5.6 4.25" fill="#865f02" fill-rule="evenodd" stroke="none"/>
    <path d="M3.3 -1.25 L3.25 -1.3 3.3 -1.4 3.65 -1.55 Q6.75 -0.95 6.75 -0.65 L6.75 -0.6 6.7 -0.55 6.55 -0.4 4.6 -0.75 Q3.4 -1.05 3.3 -1.25 M-5.95 -0.4 L-6.3 -0.35 -6.6 -0.35 -6.65 -0.5 -6.65 -0.55 Q-6.55 -1.55 -2.45 -1.55 -2.1 -1.55 -2.0 -1.35 L-2.0 -1.25 -2.95 -1.1 -3.15 -1.05 -4.2 -0.8 -4.35 -0.75 -5.95 -0.4" fill="#453101" fill-rule="evenodd" stroke="none"/>
    <path d="M12.6 0.8 L14.05 0.3 14.2 0.5 13.1 1.3 12.95 1.35 Q12.0 1.75 11.5 1.75 L8.35 1.25 7.05 0.7 6.65 0.45 Q5.0 -0.55 3.35 -0.55 L2.65 -0.5 4.05 0.0 5.5 0.55 6.15 0.8 6.45 0.95 7.65 1.65 7.45 1.75 6.8 1.5 5.35 0.85 2.7 -0.2 1.2 0.2 0.95 0.5 0.75 0.6 0.5 0.1 Q0.5 -1.15 3.3 -1.25 3.4 -1.05 4.6 -0.75 L6.55 -0.4 6.7 -0.55 7.2 -0.15 Q7.65 0.25 10.4 1.05 L10.55 1.05 11.7 1.1 11.65 1.15 11.9 1.1 12.5 0.85 12.6 0.8 M-13.6 1.0 L-13.9 0.6 -13.8 0.4 -12.6 0.9 Q-12.0 1.4 -10.6 1.4 -9.6 1.4 -6.9 -0.05 L-5.95 -0.4 -4.35 -0.75 -4.2 -0.8 -3.15 -1.05 -2.95 -1.1 -2.7 -1.1 Q-0.05 -0.8 -0.05 0.4 L-0.25 0.75 -0.65 0.15 -0.85 0.0 -1.1 0.05 -2.2 -0.15 Q-3.0 -0.15 -5.1 1.2 L-5.15 1.15 -4.25 0.45 -3.65 0.05 -2.7 -0.45 -2.8 -0.45 Q-4.6 -0.45 -7.15 0.75 -9.75 1.95 -10.6 1.95 -12.7 1.95 -13.6 1.0" fill="#b07c02" fill-rule="evenodd" stroke="none"/>
    <path d="M12.95 1.35 Q12.7 1.85 11.05 1.85 8.7 1.85 6.45 0.95 L6.15 0.8 Q4.4 -0.05 4.1 -0.05 L4.05 0.0 2.65 -0.5 3.35 -0.55 Q5.0 -0.55 6.65 0.45 L7.05 0.7 8.35 1.25 11.5 1.75 Q12.0 1.75 12.95 1.35 M6.8 1.5 L7.15 1.7 7.85 1.95 7.0 1.9 6.45 1.6 Q4.8 0.4 3.35 0.3 L3.35 0.4 3.0 0.4 2.95 0.35 2.9 0.35 1.6 0.65 1.45 0.75 1.1 0.75 1.1 0.65 0.95 0.5 1.2 0.2 2.7 -0.2 5.35 0.85 6.8 1.5 M11.3 1.9 L11.65 1.95 11.45 2.0 11.25 1.95 11.3 1.9 M10.6 2.6 Q9.9 3.2 8.5 3.2 7.0 3.2 6.2 2.55 L4.35 1.25 3.2 1.1 2.6 1.2 2.3 1.15 2.85 1.1 2.95 1.0 Q4.85 1.0 6.0 1.95 7.15 2.85 9.3 2.85 L10.45 2.55 10.6 2.6 M10.6 2.0 L9.45 2.15 8.85 2.05 10.45 2.0 10.6 2.0 M5.15 3.2 L4.4 2.9 4.55 2.9 5.25 3.15 5.15 3.2 M-13.6 1.0 Q-12.7 1.95 -10.6 1.95 -9.75 1.95 -7.15 0.75 -4.6 -0.45 -2.8 -0.45 L-2.7 -0.45 -3.65 0.05 -4.0 0.1 -5.95 0.95 -7.75 1.9 -10.65 2.45 Q-11.4 2.45 -12.5 1.9 L-13.6 1.05 -13.6 1.0 M-4.25 0.45 L-5.15 1.15 -5.1 1.2 Q-3.0 -0.15 -2.2 -0.15 L-1.1 0.05 -0.85 0.0 -0.65 0.15 -0.65 0.35 -0.6 0.6 -0.65 0.75 -0.65 0.85 Q-1.9 0.95 -3.1 1.85 L-3.45 2.1 -3.8 2.35 -3.85 2.3 Q-6.15 3.65 -6.5 3.7 L-6.55 3.65 -3.55 2.05 -2.95 1.4 Q-1.95 0.55 -1.1 0.55 L-1.2 0.5 -1.8 0.45 -2.45 0.55 Q-7.2 3.4 -9.8 3.4 L-11.75 2.9 -11.75 2.75 -11.6 2.7 -10.45 2.95 Q-9.05 2.95 -5.75 1.2 L-4.25 0.45 M-5.6 4.25 L-3.75 3.8 Q-4.55 4.3 -5.4 4.3 L-5.6 4.25" fill="#956902" fill-rule="evenodd" stroke="none"/>
    <path d="M-12.45 -8.4 L-9.6 -8.35 -9.4 -8.45 -9.4 -8.4 -11.05 -5.05 Q-11.45 -3.4 -11.45 -1.6 -11.45 0.05 -10.7 0.9 L-10.7 1.05 -10.8 1.1 -10.85 1.1 -12.35 0.8 -14.4 -0.2 Q-12.75 4.15 -9.3 5.6 L-9.25 5.45 -9.2 5.65 -8.3 5.9 -7.55 6.05 -7.65 6.1 -7.7 6.75 Q-7.7 7.4 -7.2 8.05 L-7.85 7.9 Q-5.0 11.8 -0.05 11.8 L4.6 11.3 7.45 10.85 9.55 9.85 13.05 7.05 13.2 7.05 13.25 7.05 13.15 7.15 10.6 10.5 Q6.2 14.9 0.0 14.9 -6.2 14.9 -10.65 10.5 -15.0 6.15 -15.0 -0.05 -15.0 -4.7 -12.45 -8.4 M6.3 6.2 L7.9 6.05 7.9 6.0 8.15 6.0 8.25 6.0 8.25 6.05 8.3 6.2 7.8 6.6 7.75 6.65 7.75 6.6 6.2 6.85 6.3 6.25 6.3 6.2" fill="#f5b65f" fill-rule="evenodd" stroke="none"/>
    <path d="M0.15 1.65 L0.4 2.85 0.65 3.35 Q1.2 4.35 3.0 5.25 4.45 6.05 6.0 6.15 L5.7 6.9 4.95 7.8 4.65 7.6 4.6 7.6 4.55 7.75 3.95 7.45 2.45 7.15 -1.6 6.85 -1.8 6.75 -4.4 6.35 -4.7 6.4 -6.4 6.45 -7.2 6.55 -7.25 6.35 -7.25 6.3 -7.3 6.1 -5.75 6.15 Q-4.2 6.05 -2.75 5.25 -0.55 4.15 -0.15 2.85 L0.15 1.65" fill="#6d2201" fill-rule="evenodd" stroke="none"/>
    <path d="M4.6 8.1 L4.4 8.2 Q1.95 9.9 -1.35 9.9 -5.1 9.9 -6.45 8.1 L-7.1 6.8 -4.45 6.7 -2.15 6.95 Q-1.1 7.15 -0.4 7.6 L-0.3 7.6 0.25 8.2 0.25 7.95 -0.2 7.6 4.55 7.95 4.6 8.1" fill="#bf3a02" fill-rule="evenodd" stroke="none"/>
    <path d="M0.6 -15.0 L0.0 -15.0 Q-6.2 -15.0 -10.65 -10.65 L-12.45 -8.4 Q-15.0 -4.7 -15.0 -0.05 -15.0 6.15 -10.65 10.5 -6.2 14.9 0.0 14.9 6.2 14.9 10.6 10.5 L13.15 7.15 M0.6 -15.0 Q6.4 -14.8 10.6 -10.65 L10.75 -10.5 Q15.0 -6.15 15.0 -0.05 15.0 3.85 13.2 7.05" fill="none" stroke="#865204" stroke-linecap="round" stroke-linejoin="round" stroke-width="0.5"/>
    <path d="M-12.45 -8.4 L-9.6 -8.35 M-9.4 -8.4 Q-7.0 -8.8 -4.2 -10.35 -2.25 -11.4 -0.75 -13.1 L0.6 -15.0 M3.3 -1.4 L1.4 -1.2 Q0.95 -1.1 0.65 -0.8 0.25 -0.5 0.15 0.05 L0.15 1.65 0.4 2.85 0.65 3.35 Q1.2 4.35 3.0 5.25 4.45 6.05 6.0 6.15 M6.3 6.2 L7.9 6.05 M8.15 6.0 L8.55 5.9 Q12.8 4.75 14.65 -0.2 L12.6 0.8 12.5 0.85 11.9 1.1 11.7 1.1 10.55 1.05 Q9.25 0.8 7.55 -0.2 L6.75 -0.6 M10.75 -10.5 L8.0 -10.35 Q3.65 -10.6 -0.75 -13.1 M-7.55 6.05 L-8.3 5.9 -9.2 5.65 M-9.3 5.6 Q-12.75 4.15 -14.4 -0.2 L-12.35 0.8 -10.85 1.1 -10.8 1.1 -10.45 1.1 Q-9.1 0.9 -7.25 -0.2 L-6.65 -0.55 M-7.3 6.1 L-7.4 6.1 M0.15 0.05 Q-0.1 -0.95 -1.15 -1.2 L-2.0 -1.35 M-7.3 6.1 L-5.75 6.15 Q-4.2 6.05 -2.75 5.25 -0.55 4.15 -0.15 2.85 L0.15 1.65" fill="none" stroke="#453101" stroke-linecap="round" stroke-linejoin="round" stroke-width="0.5"/>
  </g>
</svg>
