<?xml version="1.0" encoding="UTF-8" standalone="no"?>
<svg xmlns:xlink="http://www.w3.org/1999/xlink" height="28.9px" width="30.5px" xmlns="http://www.w3.org/2000/svg">
  <g transform="matrix(1.0, 0.0, 0.0, 1.0, 15.25, 14.4)">
    <path d="M-12.45 -7.9 L-10.65 -10.0 Q-6.2 -14.15 0.0 -14.15 L0.6 -14.15 Q6.4 -13.95 10.6 -10.0 L10.75 -9.85 8.0 -9.7 Q3.65 -9.95 -0.75 -12.35 -2.25 -10.75 -4.2 -9.7 -7.0 -8.3 -9.4 -7.9 L-9.4 -7.95 -9.6 -7.85 -12.45 -7.9 M0.6 -14.15 L-0.75 -12.35 0.6 -14.15 M1.25 -13.4 L1.35 -13.4 4.15 -12.85 6.1 -11.95 9.2 -9.9 9.5 -10.2 8.45 -11.25 6.95 -12.1 Q3.25 -13.85 1.45 -13.75 L0.75 -13.7 1.15 -13.45 1.05 -13.3 3.6 -12.6 3.7 -12.65 1.25 -13.4 M-1.25 -13.1 L-2.4 -12.45 -4.8 -11.4 Q-6.95 -10.15 -8.7 -8.55 L-8.45 -8.55 Q-6.75 -10.3 -4.45 -11.3 L-1.85 -12.3 Q0.0 -13.05 0.0 -13.6 L-0.2 -13.85 -0.25 -13.8 -0.25 -13.85 Q-0.2 -14.05 -0.45 -14.05 L-0.75 -13.95 -1.2 -14.05 Q-2.35 -14.05 -4.95 -13.0 L-7.9 -11.7 -9.7 -10.25 Q-11.3 -8.9 -11.3 -8.4 L-11.05 -8.1 -7.4 -11.3 -6.0 -12.0 Q-5.6 -12.3 -4.3 -12.6 L-1.1 -13.65 -0.85 -13.7 Q-5.0 -12.3 -6.4 -11.2 L-6.3 -11.15 Q-4.75 -12.1 -3.2 -12.5 L-1.25 -13.1 M-8.15 -10.0 L-7.95 -10.15 -8.2 -10.05 -8.15 -10.0 M-6.4 -10.65 L-6.6 -10.7 -8.45 -9.65 -8.45 -9.7 -8.7 -9.5 -9.85 -8.35 -9.65 -8.3 Q-8.85 -9.6 -6.4 -10.65" fill="#775402" fill-rule="evenodd" stroke="none"/>
    <path d="M1.25 -13.4 L3.7 -12.65 3.6 -12.6 1.05 -13.3 1.15 -13.45 0.75 -13.7 1.45 -13.75 Q3.25 -13.85 6.95 -12.1 L8.45 -11.25 9.5 -10.2 9.2 -9.9 6.1 -11.95 4.15 -12.85 1.35 -13.4 1.25 -13.4 M-1.25 -13.1 L-3.2 -12.5 Q-4.75 -12.1 -6.3 -11.15 L-6.4 -11.2 Q-5.0 -12.3 -0.85 -13.7 L-1.1 -13.65 -4.3 -12.6 Q-5.6 -12.3 -6.0 -12.0 L-7.4 -11.3 -11.05 -8.1 -11.3 -8.4 Q-11.3 -8.9 -9.7 -10.25 L-7.9 -11.7 -4.95 -13.0 Q-2.35 -14.05 -1.2 -14.05 L-0.75 -13.95 -0.45 -14.05 Q-0.2 -14.05 -0.25 -13.85 L-0.25 -13.8 -0.2 -13.85 0.0 -13.6 Q0.0 -13.05 -1.85 -12.3 L-4.45 -11.3 Q-6.75 -10.3 -8.45 -8.55 L-8.7 -8.55 Q-6.95 -10.15 -4.8 -11.4 L-2.4 -12.45 -1.25 -13.1 M-6.4 -10.65 Q-8.85 -9.6 -9.65 -8.3 L-9.85 -8.35 -8.7 -9.5 -8.45 -9.7 -8.45 -9.65 -6.6 -10.7 -6.4 -10.65 M-8.15 -10.0 L-8.2 -10.05 -7.95 -10.15 -8.15 -10.0" fill="#916602" fill-rule="evenodd" stroke="none"/>
    <path d="M10.75 -9.85 Q15.0 -5.75 15.0 0.05 15.0 3.75 13.2 6.75 L13.05 6.75 Q11.7 8.05 9.55 9.4 L7.45 10.35 4.6 10.85 -0.05 11.3 Q-5.0 11.3 -7.85 7.6 L-6.95 7.8 -6.1 7.8 -6.05 8.0 Q-5.65 9.2 -4.95 9.2 -2.0 7.4 3.95 7.2 L4.0 7.25 4.2 7.2 5.75 7.15 7.25 7.3 7.55 6.95 7.45 6.45 7.75 6.35 7.75 6.4 7.8 6.35 8.3 5.95 8.25 5.8 8.25 5.75 8.15 5.75 8.55 5.7 Q12.8 4.65 14.65 -0.1 L12.6 0.85 12.5 0.9 11.9 1.15 11.7 1.15 10.55 1.1 Q9.25 0.85 7.55 -0.1 L7.0 -0.4 7.0 -0.45 7.55 -0.45 Q9.05 -0.45 10.0 -1.15 10.8 -1.75 10.8 -2.25 L10.7 -2.5 10.75 -2.55 11.0 -4.0 Q11.0 -5.45 9.4 -6.6 7.8 -7.75 5.85 -7.75 1.55 -7.75 1.55 -4.7 1.55 -3.9 2.1 -2.9 L2.05 -2.75 2.5 -2.05 3.05 -1.35 3.3 -1.25 1.4 -1.05 Q0.95 -0.95 0.65 -0.65 0.25 -0.4 0.15 0.15 -0.1 -0.8 -1.15 -1.05 L-1.7 -1.15 -1.55 -1.25 -1.7 -1.35 Q-1.35 -1.55 -0.85 -2.1 L-0.2 -2.95 -0.2 -3.0 Q0.05 -3.5 0.05 -4.05 0.05 -5.3 -0.75 -6.6 -1.75 -8.2 -3.1 -8.2 -9.65 -8.2 -9.65 -3.3 L-9.35 -2.05 -9.35 -1.9 -9.25 -1.35 -8.7 -1.0 -7.3 -0.45 -6.8 -0.6 -6.75 -0.6 -6.6 -0.55 -6.4 -0.5 -7.25 -0.1 Q-9.1 0.95 -10.45 1.15 L-10.8 1.15 -10.7 1.1 -10.7 0.95 Q-11.45 0.15 -11.45 -1.4 -11.45 -3.1 -11.05 -4.75 L-9.4 -7.9 Q-7.0 -8.3 -4.2 -9.7 -2.25 -10.75 -0.75 -12.35 3.65 -9.95 8.0 -9.7 L10.75 -9.85 M2.7 -3.1 L2.7 -3.15 2.9 -3.15 2.7 -3.1 M3.05 -3.1 L7.6 -3.1 9.5 -2.8 9.75 -2.7 9.0 -1.9 Q7.7 -1.25 6.4 -1.25 L5.4 -1.35 5.15 -1.25 5.1 -1.25 5.2 -1.35 3.05 -3.1 M0.3 9.0 L1.05 9.15 Q4.45 9.15 4.45 8.25 L4.4 8.15 0.25 8.95 0.3 9.0 M-1.05 -3.3 L-1.45 -3.0 -2.4 -1.95 -4.6 -1.4 -5.05 -1.2 -5.2 -1.2 -5.75 -1.2 -6.2 -1.35 -6.6 -1.25 -6.85 -1.55 -8.45 -2.5 -1.7 -3.35 -1.05 -3.3" fill="#f8c887" fill-rule="evenodd" stroke="none"/>
    <path d="M6.4 -7.0 L5.8 -7.2 Q3.6 -7.55 3.1 -6.65 L2.4 -5.8 2.15 -4.7 Q2.15 -4.15 2.45 -3.55 L4.7 -3.65 6.35 -3.5 10.25 -3.1 10.35 -4.0 Q10.35 -5.0 9.35 -5.85 8.3 -6.8 6.4 -7.0 M2.1 -2.9 Q1.55 -3.9 1.55 -4.7 1.55 -7.75 5.85 -7.75 7.8 -7.75 9.4 -6.6 11.0 -5.45 11.0 -4.0 L10.75 -2.55 10.7 -2.5 Q10.45 -2.8 9.8 -2.8 L9.75 -2.7 9.5 -2.8 7.6 -3.1 3.05 -3.1 3.0 -3.15 2.9 -3.15 2.7 -3.15 2.7 -3.1 Q2.25 -3.1 2.1 -2.9 M7.45 6.45 L7.55 6.95 7.25 7.3 5.75 7.15 4.2 7.2 4.0 7.25 3.95 7.2 Q-2.0 7.4 -4.95 9.2 -5.65 9.2 -6.05 8.0 L-6.1 7.8 -6.3 6.55 -6.15 5.95 -6.0 5.7 -5.8 5.9 -5.8 6.0 -5.9 6.55 -5.75 7.75 Q-5.55 8.65 -4.9 8.65 L-1.2 7.6 Q0.0 7.1 3.65 6.85 3.1 6.35 2.4 6.0 0.9 5.25 -0.5 5.25 L-0.55 5.35 -0.25 5.5 Q0.8 6.1 0.8 6.55 L0.55 6.7 -0.8 5.7 Q-2.5 5.45 -2.75 5.1 L-2.8 4.95 -2.35 4.9 -2.05 4.85 -1.1 5.05 -0.2 4.95 Q1.3 4.95 2.9 5.85 3.95 6.5 4.2 6.85 L6.9 6.7 6.85 6.55 6.6 5.95 6.6 5.9 6.8 5.7 7.25 5.9 7.45 6.45 M5.15 -3.75 Q4.6 -3.75 4.6 -4.4 4.6 -4.9 5.2 -4.9 5.65 -4.9 5.65 -4.35 5.65 -3.75 5.15 -3.75 M0.3 9.0 L0.25 8.95 4.4 8.15 4.45 8.25 Q4.45 9.15 1.05 9.15 L0.3 9.0 M-9.35 -2.05 L-9.65 -3.3 Q-9.65 -8.2 -3.1 -8.2 -1.75 -8.2 -0.75 -6.6 0.05 -5.3 0.05 -4.05 0.05 -3.5 -0.2 -3.0 L-0.2 -3.05 -0.35 -3.25 -0.25 -3.3 -1.05 -3.3 -1.7 -3.35 -8.45 -2.5 -8.55 -2.55 Q-9.25 -2.55 -9.35 -2.05 M-4.95 -7.55 L-5.15 -7.55 Q-6.35 -7.55 -7.35 -6.85 L-8.25 -5.9 Q-8.9 -5.15 -8.9 -4.65 L-9.05 -3.55 -8.95 -2.8 Q-6.75 -3.6 -1.35 -3.85 L-0.9 -3.85 -0.65 -3.65 -0.55 -4.05 Q-0.55 -4.55 -1.2 -6.1 -1.75 -7.6 -4.35 -7.6 L-4.95 -7.55 M-3.9 -4.9 Q-3.15 -4.9 -3.15 -4.3 -3.15 -3.8 -3.75 -3.8 -4.45 -3.8 -4.45 -4.35 -4.45 -4.9 -3.9 -4.9" fill="#000000" fill-rule="evenodd" stroke="none"/>
    <path d="M6.4 -7.0 Q8.3 -6.8 9.35 -5.85 10.35 -5.0 10.35 -4.0 L10.25 -3.1 6.35 -3.5 4.7 -3.65 2.45 -3.55 Q2.15 -4.15 2.15 -4.7 L2.4 -5.8 3.1 -6.65 Q3.6 -7.55 5.8 -7.2 L6.4 -7.0 M5.15 -3.75 Q5.65 -3.75 5.65 -4.35 5.65 -4.9 5.2 -4.9 4.6 -4.9 4.6 -4.4 4.6 -3.75 5.15 -3.75 M-4.95 -7.55 L-4.35 -7.6 Q-1.75 -7.6 -1.2 -6.1 -0.55 -4.55 -0.55 -4.05 L-0.65 -3.65 -0.9 -3.85 -1.35 -3.85 Q-6.75 -3.6 -8.95 -2.8 L-9.05 -3.55 -8.9 -4.65 Q-8.9 -5.15 -8.25 -5.9 L-7.35 -6.85 Q-6.35 -7.55 -5.15 -7.55 L-4.95 -7.55 M-3.9 -4.9 Q-4.45 -4.9 -4.45 -4.35 -4.45 -3.8 -3.75 -3.8 -3.15 -3.8 -3.15 -4.3 -3.15 -4.9 -3.9 -4.9" fill="#ffffff" fill-rule="evenodd" stroke="none"/>
    <path d="M13.2 6.75 L13.25 6.75 13.15 6.85 Q12.15 8.55 10.6 10.05 6.2 14.25 0.0 14.25 -6.2 14.25 -10.65 10.05 -12.85 7.95 -13.95 5.45 -15.0 2.95 -15.0 0.05 -15.0 -2.85 -13.95 -5.35 L-12.45 -7.9 -9.6 -7.85 -9.4 -7.95 -9.4 -7.9 -11.05 -4.75 Q-11.45 -3.1 -11.45 -1.4 -11.45 0.15 -10.7 0.95 L-10.7 1.1 -10.8 1.15 -10.85 1.15 -12.35 0.85 -14.4 -0.1 -13.95 0.95 Q-12.3 4.15 -9.3 5.4 L-9.25 5.3 -9.2 5.45 -8.3 5.7 -6.15 5.95 -6.3 6.55 -6.1 7.8 -6.95 7.8 -7.85 7.6 Q-5.0 11.3 -0.05 11.3 L4.6 10.85 7.45 10.35 9.55 9.4 Q11.7 8.05 13.05 6.75 L13.2 6.75 M2.1 -2.9 Q2.25 -3.1 2.7 -3.1 L2.9 -3.15 3.0 -3.15 3.05 -3.1 5.2 -1.35 5.1 -1.25 3.65 -1.45 Q3.4 -1.45 3.4 -1.25 L3.4 -1.2 3.3 -1.25 3.05 -1.35 2.5 -2.05 2.05 -2.75 2.1 -2.9 M9.75 -2.7 L9.8 -2.8 Q10.45 -2.8 10.7 -2.5 L10.8 -2.25 Q10.8 -1.75 10.0 -1.15 9.05 -0.45 7.55 -0.45 L7.0 -0.45 7.0 -0.5 5.9 -1.05 5.15 -1.25 5.4 -1.35 6.4 -1.25 Q7.7 -1.25 9.0 -1.9 L9.75 -2.7 M8.15 5.75 L8.25 5.75 8.25 5.8 8.3 5.95 7.8 6.35 7.75 6.4 7.75 6.35 7.45 6.45 7.25 5.9 7.9 5.8 7.9 5.75 8.15 5.75 M-6.4 -0.5 L-6.6 -0.55 -6.75 -0.6 -6.8 -0.6 -7.3 -0.45 -8.7 -1.0 -9.25 -1.35 -9.35 -1.9 -9.35 -2.05 Q-9.25 -2.55 -8.55 -2.55 L-8.45 -2.5 -6.85 -1.55 -6.6 -1.25 -6.2 -1.35 -5.75 -1.2 -5.2 -1.2 -5.05 -1.2 -4.6 -1.4 -2.4 -1.95 -1.45 -3.0 -1.05 -3.3 -0.25 -3.3 -0.35 -3.25 -0.2 -3.05 -0.2 -3.0 -0.2 -2.95 -0.85 -2.1 Q-1.35 -1.55 -1.7 -1.35 L-2.1 -1.4 -3.5 -1.2 Q-6.3 -1.1 -6.4 -0.5" fill="#f5b65f" fill-rule="evenodd" stroke="none"/>
    <path d="M7.0 -0.4 L7.55 -0.1 Q9.25 0.85 10.55 1.1 L10.4 1.1 Q7.65 0.35 7.2 -0.05 L6.95 -0.3 7.0 -0.4 M11.7 1.15 L11.9 1.15 11.65 1.2 11.7 1.15 M12.6 0.85 L14.65 -0.1 Q12.8 4.65 8.55 5.7 L8.15 5.75 7.9 5.75 7.9 5.8 7.25 5.9 6.8 5.7 6.6 5.9 6.6 5.95 Q4.8 5.95 3.0 5.1 1.2 4.2 0.65 3.25 L0.4 2.8 0.15 1.7 -0.15 2.8 Q-0.5 3.9 -2.35 4.9 L-2.8 4.95 -2.75 5.1 Q-4.2 5.8 -5.75 5.9 L-5.8 5.9 -6.0 5.7 -6.15 5.95 -8.3 5.7 -9.2 5.45 -9.25 5.3 -9.3 5.4 Q-12.3 4.15 -13.95 0.95 L-14.4 -0.1 -12.35 0.85 -10.85 1.15 -10.8 1.15 -10.45 1.15 Q-9.1 0.95 -7.25 -0.1 L-6.4 -0.5 -6.35 -0.3 -5.6 -0.4 -6.9 0.05 Q-9.6 1.4 -10.6 1.4 L-12.6 0.95 -13.8 0.45 -13.9 0.65 -13.6 1.05 -13.6 1.1 Q-13.6 1.3 -12.5 1.9 L-10.65 2.4 Q-8.9 2.4 -7.75 1.9 L-5.95 1.0 -4.0 0.2 -3.65 0.15 -4.25 0.5 -5.75 1.25 Q-9.05 2.9 -10.45 2.9 L-11.6 2.65 -11.75 2.7 -11.75 2.85 -9.8 3.3 Q-7.2 3.3 -2.45 0.6 L-1.8 0.5 -1.2 0.55 -1.1 0.6 Q-1.95 0.6 -2.95 1.4 L-3.55 2.05 -6.55 3.55 -6.5 3.6 -3.85 2.25 -3.8 2.3 -3.45 2.1 -3.1 1.85 Q-1.9 1.0 -0.65 0.9 L-0.65 0.8 -0.6 0.65 -0.65 0.4 -0.65 0.25 Q-0.4 0.45 -0.25 0.8 L-0.05 0.45 Q-0.05 -0.55 -2.25 -0.9 L-1.6 -0.95 -1.75 -1.1 -1.7 -1.15 -1.15 -1.05 Q-0.1 -0.8 0.15 0.15 0.25 -0.4 0.65 -0.65 0.95 -0.95 1.4 -1.05 L3.3 -1.25 3.4 -1.2 3.6 -1.1 Q0.5 -1.1 0.5 0.2 L0.75 0.65 0.95 0.55 1.1 0.7 1.1 0.8 1.45 0.8 1.6 0.7 2.9 0.4 2.95 0.4 3.0 0.45 3.35 0.45 3.35 0.4 Q4.8 0.45 6.45 1.65 L7.0 1.9 7.85 1.95 7.15 1.75 6.8 1.55 7.45 1.8 7.65 1.7 6.45 1.0 Q8.7 1.85 11.05 1.85 12.7 1.85 12.95 1.35 L13.1 1.3 Q14.2 0.85 14.2 0.55 L14.05 0.4 12.6 0.85 M4.05 0.1 L4.1 0.05 Q4.4 0.05 6.15 0.85 L5.5 0.6 4.05 0.1 M10.6 2.55 L10.45 2.5 9.3 2.8 Q7.15 2.8 6.0 1.95 4.85 1.05 2.95 1.05 L2.85 1.15 2.3 1.2 2.6 1.25 3.2 1.15 4.35 1.25 6.2 2.5 Q7.0 3.1 8.5 3.1 9.9 3.1 10.6 2.55 M10.6 2.0 L10.45 2.0 8.85 2.05 9.45 2.15 10.6 2.0 M11.3 1.9 L11.25 1.95 11.45 2.0 11.65 1.95 11.3 1.9 M5.15 3.1 L5.25 3.05 4.55 2.85 4.4 2.85 5.15 3.1 M0.15 1.7 L0.15 0.15 0.15 1.7 M-5.6 4.1 L-5.4 4.15 -3.75 3.7 -5.6 4.1" fill="#865f02" fill-rule="evenodd" stroke="none"/>
    <path d="M10.55 1.1 L11.7 1.15 11.65 1.2 11.9 1.15 12.5 0.9 12.6 0.85 14.05 0.4 14.2 0.55 Q14.2 0.85 13.1 1.3 L12.95 1.35 11.5 1.8 8.35 1.25 7.05 0.75 6.65 0.5 Q5.0 -0.45 3.35 -0.45 L2.65 -0.4 4.05 0.1 5.5 0.6 6.15 0.85 6.45 1.0 7.65 1.7 7.45 1.8 6.8 1.55 Q6.3 1.25 5.35 0.9 L2.7 -0.1 1.2 0.3 0.95 0.55 0.75 0.65 0.5 0.2 Q0.5 -1.1 3.6 -1.1 L4.05 -0.9 4.2 -0.85 4.8 -0.65 5.0 -0.6 6.8 -0.25 6.95 -0.3 7.2 -0.05 Q7.65 0.35 10.4 1.1 L10.55 1.1 M-2.25 -0.9 Q-0.05 -0.55 -0.05 0.45 L-0.25 0.8 Q-0.4 0.45 -0.65 0.25 L-0.85 0.1 -1.1 0.15 -2.2 -0.05 Q-3.0 -0.05 -5.1 1.25 L-5.15 1.2 -4.25 0.5 -3.65 0.15 -2.7 -0.35 -2.8 -0.35 Q-4.6 -0.35 -7.15 0.8 -9.75 1.95 -10.6 1.95 -12.7 1.95 -13.6 1.05 L-13.9 0.65 -13.8 0.45 -12.6 0.95 -10.6 1.4 Q-9.6 1.4 -6.9 0.05 L-5.6 -0.4 -5.1 -0.5 -2.7 -0.85 -2.25 -0.9" fill="#b07c02" fill-rule="evenodd" stroke="none"/>
    <path d="M4.05 0.1 L2.65 -0.4 3.35 -0.45 Q5.0 -0.45 6.65 0.5 L7.05 0.75 8.35 1.25 11.5 1.8 12.95 1.35 Q12.7 1.85 11.05 1.85 8.7 1.85 6.45 1.0 L6.15 0.85 Q4.4 0.05 4.1 0.05 L4.05 0.1 M11.3 1.9 L11.65 1.95 11.45 2.0 11.25 1.95 11.3 1.9 M10.6 2.0 L9.45 2.15 8.85 2.05 10.45 2.0 10.6 2.0 M10.6 2.55 Q9.9 3.1 8.5 3.1 7.0 3.1 6.2 2.5 L4.35 1.25 3.2 1.15 2.6 1.25 2.3 1.2 2.85 1.15 2.95 1.05 Q4.85 1.05 6.0 1.95 7.15 2.8 9.3 2.8 L10.45 2.5 10.6 2.55 M6.8 1.55 L7.15 1.75 7.85 1.95 7.0 1.9 6.45 1.65 Q4.8 0.45 3.35 0.4 L3.35 0.45 3.0 0.45 2.95 0.4 2.9 0.4 1.6 0.7 1.45 0.8 1.1 0.8 1.1 0.7 0.95 0.55 1.2 0.3 2.7 -0.1 5.35 0.9 Q6.3 1.25 6.8 1.55 M5.15 3.1 L4.4 2.85 4.55 2.85 5.25 3.05 5.15 3.1 M-0.65 0.25 L-0.65 0.4 -0.6 0.65 -0.65 0.8 -0.65 0.9 Q-1.9 1.0 -3.1 1.85 L-3.45 2.1 -3.8 2.3 -3.85 2.25 -6.5 3.6 -6.55 3.55 -3.55 2.05 -2.95 1.4 Q-1.95 0.6 -1.1 0.6 L-1.2 0.55 -1.8 0.5 -2.45 0.6 Q-7.2 3.3 -9.8 3.3 L-11.75 2.85 -11.75 2.7 -11.6 2.65 -10.45 2.9 Q-9.05 2.9 -5.75 1.25 L-4.25 0.5 -5.15 1.2 -5.1 1.25 Q-3.0 -0.05 -2.2 -0.05 L-1.1 0.15 -0.85 0.1 -0.65 0.25 M-3.65 0.15 L-4.0 0.2 -5.95 1.0 -7.75 1.9 Q-8.9 2.4 -10.65 2.4 L-12.5 1.9 Q-13.6 1.3 -13.6 1.1 L-13.6 1.05 Q-12.7 1.95 -10.6 1.95 -9.75 1.95 -7.15 0.8 -4.6 -0.35 -2.8 -0.35 L-2.7 -0.35 -3.65 0.15 M-5.6 4.1 L-3.75 3.7 -5.4 4.15 -5.6 4.1" fill="#956902" fill-rule="evenodd" stroke="none"/>
    <path d="M7.0 -0.45 L7.0 -0.4 6.95 -0.3 6.8 -0.25 5.0 -0.6 4.8 -0.65 4.2 -0.85 4.05 -0.9 3.6 -1.1 3.4 -1.2 3.4 -1.25 Q3.4 -1.45 3.65 -1.45 L5.1 -1.25 5.15 -1.25 5.9 -1.05 7.0 -0.5 7.0 -0.45 M-1.7 -1.35 L-1.55 -1.25 -1.7 -1.15 -1.75 -1.1 -1.6 -0.95 -2.25 -0.9 -2.7 -0.85 -5.1 -0.5 -5.6 -0.4 -6.35 -0.3 -6.4 -0.5 Q-6.3 -1.1 -3.5 -1.2 L-2.1 -1.4 -1.7 -1.35" fill="#453101" fill-rule="evenodd" stroke="none"/>
    <path d="M6.6 5.95 L6.85 6.55 6.9 6.7 4.2 6.85 Q3.95 6.5 2.9 5.85 1.3 4.95 -0.2 4.95 L-1.1 5.05 -2.05 4.85 -2.35 4.9 Q-0.5 3.9 -0.15 2.8 L0.15 1.7 0.4 2.8 0.65 3.25 Q1.2 4.2 3.0 5.1 4.8 5.95 6.6 5.95" fill="#6d2201" fill-rule="evenodd" stroke="none"/>
    <path d="M-2.75 5.1 Q-2.5 5.45 -0.8 5.7 L0.55 6.7 0.8 6.55 Q0.8 6.1 -0.25 5.5 L-0.55 5.35 -0.5 5.25 Q0.9 5.25 2.4 6.0 3.1 6.35 3.65 6.85 0.0 7.1 -1.2 7.6 L-4.9 8.65 Q-5.55 8.65 -5.75 7.75 L-5.9 6.55 -5.8 6.0 -5.8 5.9 -5.75 5.9 Q-4.2 5.8 -2.75 5.1" fill="#bf3a02" fill-rule="evenodd" stroke="none"/>
    <path d="M-12.45 -7.9 L-10.65 -10.0 Q-6.2 -14.15 0.0 -14.15 L0.6 -14.15 Q6.4 -13.95 10.6 -10.0 L10.75 -9.85 Q15.0 -5.75 15.0 0.05 15.0 3.75 13.2 6.75 M13.15 6.85 Q12.15 8.55 10.6 10.05 6.2 14.25 0.0 14.25 -6.2 14.25 -10.65 10.05 -12.85 7.95 -13.95 5.45 -15.0 2.95 -15.0 0.05 -15.0 -2.85 -13.95 -5.35 L-12.45 -7.9" fill="none" stroke="#865204" stroke-linecap="round" stroke-linejoin="round" stroke-width="0.5"/>
    <path d="M-12.45 -7.9 L-9.6 -7.85 M-9.4 -7.9 Q-7.0 -8.3 -4.2 -9.7 -2.25 -10.75 -0.75 -12.35 L0.6 -14.15 M7.0 -0.4 L7.55 -0.1 Q9.25 0.85 10.55 1.1 L11.7 1.15 11.9 1.15 12.5 0.9 12.6 0.85 14.65 -0.1 Q12.8 4.65 8.55 5.7 L8.15 5.75 M-1.7 -1.15 L-1.15 -1.05 Q-0.1 -0.8 0.15 0.15 0.25 -0.4 0.65 -0.65 0.95 -0.95 1.4 -1.05 L3.3 -1.25 M10.75 -9.85 L8.0 -9.7 Q3.65 -9.95 -0.75 -12.35 M7.9 5.8 L7.25 5.9 M6.6 5.95 Q4.8 5.95 3.0 5.1 1.2 4.2 0.65 3.25 L0.4 2.8 0.15 1.7 -0.15 2.8 Q-0.5 3.9 -2.35 4.9 M0.15 0.15 L0.15 1.7 M-10.8 1.15 L-10.45 1.15 Q-9.1 0.95 -7.25 -0.1 L-6.4 -0.5 M-9.2 5.45 L-8.3 5.7 -6.15 5.95 M-2.75 5.1 Q-4.2 5.8 -5.75 5.9 L-5.8 5.9 M-10.8 1.15 L-10.85 1.15 -12.35 0.85 -14.4 -0.1 -13.95 0.95 Q-12.3 4.15 -9.3 5.4" fill="none" stroke="#453101" stroke-linecap="round" stroke-linejoin="round" stroke-width="0.5"/>
  </g>
</svg>
