<?xml version="1.0" encoding="UTF-8" standalone="no"?>
<svg xmlns:xlink="http://www.w3.org/1999/xlink" height="28.5px" width="30.5px" xmlns="http://www.w3.org/2000/svg">
  <g transform="matrix(1.0, 0.0, 0.0, 1.0, 15.25, 14.3)">
    <path d="M-12.45 -7.9 L-10.65 -9.95 Q-6.2 -14.05 0.0 -14.05 L0.6 -14.05 Q6.4 -13.85 10.6 -9.95 L10.75 -9.85 8.0 -9.65 Q3.65 -9.9 -0.75 -12.3 -2.25 -10.75 -4.2 -9.65 -7.0 -8.3 -9.4 -7.9 L-9.4 -7.95 -9.6 -7.9 Q-11.15 -7.7 -12.45 -7.9 M0.6 -14.05 L-0.75 -12.3 0.6 -14.05 M0.75 -13.55 L1.15 -13.4 1.05 -13.25 3.6 -12.5 3.7 -12.55 1.25 -13.35 1.35 -13.35 4.15 -12.8 6.1 -11.9 9.2 -9.85 Q9.5 -9.85 9.5 -10.2 L8.45 -11.2 6.95 -12.05 Q3.25 -13.75 1.45 -13.65 L0.75 -13.55 M-0.45 -13.95 L-0.75 -13.85 -1.2 -13.95 Q-2.35 -13.95 -4.95 -12.95 -7.2 -12.1 -7.9 -11.6 L-9.7 -10.25 Q-11.3 -8.85 -11.3 -8.45 -11.3 -8.1 -11.05 -8.1 L-7.4 -11.25 -6.0 -11.95 -4.3 -12.5 -1.1 -13.55 -1.1 -13.45 Q-5.05 -12.2 -6.4 -11.15 L-6.3 -11.1 Q-4.75 -12.05 -3.2 -12.4 L-1.25 -13.05 -2.4 -12.35 -4.8 -11.35 Q-6.95 -10.15 -8.7 -8.55 L-8.45 -8.55 Q-6.75 -10.3 -4.45 -11.25 L-1.85 -12.25 Q0.0 -13.0 0.0 -13.45 L-0.2 -13.75 -0.25 -13.7 -0.25 -13.75 Q-0.2 -13.95 -0.45 -13.95 M-8.15 -9.95 L-7.85 -10.2 -8.2 -10.0 -8.15 -9.95 M-6.4 -10.6 L-6.6 -10.65 -8.45 -9.6 -8.45 -9.65 -8.7 -9.5 -9.85 -8.35 -9.65 -8.3 Q-8.85 -9.6 -6.4 -10.6" fill="#775402" fill-rule="evenodd" stroke="none"/>
    <path d="M0.75 -13.55 L1.45 -13.65 Q3.25 -13.75 6.95 -12.05 L8.45 -11.2 9.5 -10.2 Q9.5 -9.85 9.2 -9.85 L6.1 -11.9 4.15 -12.8 1.35 -13.35 1.25 -13.35 3.7 -12.55 3.6 -12.5 1.05 -13.25 1.15 -13.4 0.75 -13.55 M-0.45 -13.95 Q-0.2 -13.95 -0.25 -13.75 L-0.25 -13.7 -0.2 -13.75 0.0 -13.45 Q0.0 -13.0 -1.85 -12.25 L-4.45 -11.25 Q-6.75 -10.3 -8.45 -8.55 L-8.7 -8.55 Q-6.95 -10.15 -4.8 -11.35 L-2.4 -12.35 -1.25 -13.05 -3.2 -12.4 Q-4.75 -12.05 -6.3 -11.1 L-6.4 -11.15 Q-5.05 -12.2 -1.1 -13.45 L-1.1 -13.55 -4.3 -12.5 -6.0 -11.95 -7.4 -11.25 -11.05 -8.1 Q-11.3 -8.1 -11.3 -8.45 -11.3 -8.85 -9.7 -10.25 L-7.9 -11.6 Q-7.2 -12.1 -4.95 -12.95 -2.35 -13.95 -1.2 -13.95 L-0.75 -13.85 -0.45 -13.95 M-6.4 -10.6 Q-8.85 -9.6 -9.65 -8.3 L-9.85 -8.35 -8.7 -9.5 -8.45 -9.65 -8.45 -9.6 -6.6 -10.65 -6.4 -10.6 M-8.15 -9.95 L-8.2 -10.0 -7.85 -10.2 -8.15 -9.95" fill="#916602" fill-rule="evenodd" stroke="none"/>
    <path d="M10.75 -9.85 Q15.0 -5.8 15.0 -0.05 15.0 3.6 13.2 6.6 L13.05 6.6 Q11.7 7.8 9.55 9.2 L7.45 10.1 4.6 10.55 -0.05 11.05 Q-5.0 11.05 -7.85 7.3 L-6.95 7.6 -6.1 7.55 -6.05 7.75 Q-5.65 9.0 -4.95 9.0 -2.0 7.15 3.95 6.95 L4.0 7.0 4.2 6.95 5.75 6.9 7.25 7.05 7.55 6.7 7.45 6.25 7.75 6.15 7.75 6.2 7.8 6.15 8.3 5.75 8.25 5.65 8.25 5.6 8.15 5.6 8.55 5.5 Q12.8 4.4 14.65 -0.2 L12.6 0.75 12.5 0.8 11.9 1.0 11.7 1.0 10.55 0.95 7.55 -0.2 7.0 -0.5 7.0 -0.55 7.55 -0.55 Q9.05 -0.55 10.0 -1.2 10.8 -1.85 10.8 -2.35 L10.7 -2.6 10.75 -2.65 11.0 -4.05 Q11.0 -5.5 9.4 -6.6 7.8 -7.8 5.85 -7.75 1.55 -7.8 1.55 -4.75 1.55 -3.9 2.1 -3.0 L2.05 -2.85 2.5 -2.1 3.05 -1.45 3.3 -1.35 1.4 -1.1 0.65 -0.8 Q0.25 -0.5 0.15 0.0 -0.1 -0.9 -1.15 -1.1 L-1.7 -1.2 -1.55 -1.3 -1.7 -1.45 -0.85 -2.15 -0.2 -3.05 Q0.05 -3.55 0.05 -4.1 0.05 -5.35 -0.75 -6.6 -1.75 -8.2 -3.1 -8.2 -9.65 -8.2 -9.65 -3.4 L-9.35 -2.1 -9.35 -1.95 -9.25 -1.45 -8.7 -1.05 Q-8.1 -1.0 -7.3 -0.55 L-6.8 -0.75 -6.75 -0.75 -6.6 -0.7 -6.4 -0.65 -7.25 -0.2 Q-9.1 0.8 -10.45 1.0 L-10.8 1.0 -10.7 0.95 -10.7 0.85 Q-11.45 0.0 -11.45 -1.55 -11.45 -3.2 -11.05 -4.8 L-9.4 -7.9 Q-7.0 -8.3 -4.2 -9.65 -2.25 -10.75 -0.75 -12.3 3.65 -9.9 8.0 -9.65 L10.75 -9.85 M2.7 -3.25 L2.7 -3.3 2.9 -3.25 2.7 -3.25 M3.05 -3.25 L7.6 -3.15 9.5 -2.9 9.75 -2.8 9.0 -1.95 Q7.7 -1.3 6.4 -1.3 L5.4 -1.4 5.15 -1.3 5.1 -1.3 5.2 -1.45 3.05 -3.25 M4.4 7.9 L0.25 8.7 0.3 8.75 1.05 8.9 Q4.45 8.9 4.45 8.0 L4.4 7.9 M-8.45 -2.6 L-1.7 -3.4 -1.05 -3.4 -1.45 -3.05 -2.4 -2.0 -4.6 -1.55 -5.05 -1.25 -5.2 -1.25 -5.75 -1.25 -6.2 -1.4 -6.6 -1.3 Q-6.6 -1.65 -6.85 -1.65 L-8.45 -2.6" fill="#f8c887" fill-rule="evenodd" stroke="none"/>
    <path d="M6.4 -7.05 L5.8 -7.2 Q3.6 -7.55 3.1 -6.7 L2.4 -5.85 2.15 -4.75 Q2.15 -4.2 2.45 -3.6 L4.7 -3.7 6.35 -3.55 10.25 -3.2 10.35 -4.05 Q10.35 -5.05 9.35 -5.9 8.3 -6.8 6.4 -7.05 M2.1 -3.0 Q1.55 -3.9 1.55 -4.75 1.55 -7.8 5.85 -7.75 7.8 -7.8 9.4 -6.6 11.0 -5.5 11.0 -4.05 L10.75 -2.65 10.7 -2.6 Q10.45 -2.9 9.8 -2.9 L9.75 -2.8 9.5 -2.9 7.6 -3.15 3.05 -3.25 3.0 -3.25 2.9 -3.25 2.7 -3.3 2.7 -3.25 Q2.25 -3.2 2.1 -3.0 M7.45 6.25 L7.55 6.7 7.25 7.05 5.75 6.9 4.2 6.95 4.0 7.0 3.95 6.95 Q-2.0 7.15 -4.95 9.0 -5.65 9.0 -6.05 7.75 L-6.1 7.55 -6.3 6.4 -6.15 5.75 -6.0 5.5 Q-5.85 5.45 -5.8 5.7 L-5.8 5.8 -5.9 6.35 -5.75 7.55 Q-5.55 8.45 -4.9 8.45 L-1.2 7.35 Q0.0 6.85 3.65 6.65 3.1 6.1 2.4 5.8 0.9 5.05 -0.5 5.05 L-0.55 5.15 -0.25 5.3 Q0.8 5.9 0.8 6.35 L0.55 6.55 -0.8 5.55 Q-2.5 5.2 -2.75 4.9 L-2.8 4.75 -2.35 4.75 -2.05 4.7 -1.1 4.85 -0.2 4.75 Q1.3 4.75 2.9 5.7 3.95 6.3 4.2 6.65 L6.9 6.55 6.85 6.35 6.6 5.75 6.6 5.7 Q6.6 5.5 6.8 5.55 L7.25 5.7 7.45 6.25 M5.15 -3.8 Q4.6 -3.8 4.6 -4.45 4.6 -4.95 5.2 -4.9 5.65 -4.95 5.65 -4.4 5.65 -3.8 5.15 -3.8 M4.4 7.9 L4.45 8.0 Q4.45 8.9 1.05 8.9 L0.3 8.75 0.25 8.7 4.4 7.9 M-9.35 -2.1 L-9.65 -3.4 Q-9.65 -8.2 -3.1 -8.2 -1.75 -8.2 -0.75 -6.6 0.05 -5.35 0.05 -4.1 0.05 -3.55 -0.2 -3.05 L-0.2 -3.1 -0.35 -3.35 -0.25 -3.4 -1.05 -3.4 -1.7 -3.4 -8.45 -2.6 -8.55 -2.65 Q-9.25 -2.65 -9.35 -2.1 M-4.95 -7.55 L-5.15 -7.6 Q-6.35 -7.6 -7.35 -6.85 L-8.25 -5.95 Q-8.9 -5.2 -8.9 -4.7 L-9.05 -3.6 -8.95 -2.9 -1.35 -3.85 -0.9 -3.85 -0.65 -3.7 -0.55 -4.1 Q-0.55 -4.6 -1.2 -6.1 -1.75 -7.65 -4.35 -7.65 L-4.95 -7.55 M-3.15 -4.35 Q-3.15 -3.85 -3.75 -3.8 -4.45 -3.85 -4.45 -4.4 -4.45 -4.95 -3.9 -4.9 -3.15 -4.9 -3.15 -4.35" fill="#000000" fill-rule="evenodd" stroke="none"/>
    <path d="M6.4 -7.05 Q8.3 -6.8 9.35 -5.9 10.35 -5.05 10.35 -4.05 L10.25 -3.2 6.35 -3.55 4.7 -3.7 2.45 -3.6 Q2.15 -4.2 2.15 -4.75 L2.4 -5.85 3.1 -6.7 Q3.6 -7.55 5.8 -7.2 L6.4 -7.05 M5.15 -3.8 Q5.65 -3.8 5.65 -4.4 5.65 -4.95 5.2 -4.9 4.6 -4.95 4.6 -4.45 4.6 -3.8 5.15 -3.8 M-4.95 -7.55 L-4.35 -7.65 Q-1.75 -7.65 -1.2 -6.1 -0.55 -4.6 -0.55 -4.1 L-0.65 -3.7 -0.9 -3.85 -1.35 -3.85 -8.95 -2.9 -9.05 -3.6 -8.9 -4.7 Q-8.9 -5.2 -8.25 -5.95 L-7.35 -6.85 Q-6.35 -7.6 -5.15 -7.6 L-4.95 -7.55 M-3.15 -4.35 Q-3.15 -4.9 -3.9 -4.9 -4.45 -4.95 -4.45 -4.4 -4.45 -3.85 -3.75 -3.8 -3.15 -3.85 -3.15 -4.35" fill="#ffffff" fill-rule="evenodd" stroke="none"/>
    <path d="M13.2 6.6 L13.25 6.6 13.15 6.65 Q12.15 8.35 10.6 9.75 6.2 13.95 0.0 13.95 -6.2 13.95 -10.65 9.75 -12.85 7.75 -13.95 5.25 -15.0 2.8 -15.0 -0.05 -15.0 -2.95 -13.95 -5.4 L-12.45 -7.9 Q-11.15 -7.7 -9.6 -7.9 L-9.4 -7.95 -9.4 -7.9 -11.05 -4.8 Q-11.45 -3.2 -11.45 -1.55 -11.45 0.0 -10.7 0.85 L-10.7 0.95 -10.8 1.0 -10.85 1.0 -12.35 0.75 -14.4 -0.2 -13.95 0.8 Q-12.3 4.05 -9.3 5.2 L-9.25 5.1 -9.2 5.25 -8.3 5.5 -6.15 5.75 -6.3 6.4 -6.1 7.55 -6.95 7.6 -7.85 7.3 Q-5.0 11.05 -0.05 11.05 L4.6 10.55 7.45 10.1 9.55 9.2 Q11.7 7.8 13.05 6.6 L13.2 6.6 M10.7 -2.6 L10.8 -2.35 Q10.8 -1.85 10.0 -1.2 9.05 -0.55 7.55 -0.55 L7.0 -0.55 7.0 -0.6 5.9 -1.1 5.15 -1.3 5.4 -1.4 6.4 -1.3 Q7.7 -1.3 9.0 -1.95 L9.75 -2.8 9.8 -2.9 Q10.45 -2.9 10.7 -2.6 M8.15 5.6 L8.25 5.6 8.25 5.65 8.3 5.75 7.8 6.15 7.75 6.2 7.75 6.15 7.45 6.25 7.25 5.7 7.9 5.65 7.9 5.6 8.15 5.6 M2.7 -3.25 L2.9 -3.25 3.0 -3.25 3.05 -3.25 5.2 -1.45 5.1 -1.3 3.65 -1.6 3.4 -1.3 3.3 -1.35 3.05 -1.45 2.5 -2.1 2.05 -2.85 2.1 -3.0 Q2.25 -3.2 2.7 -3.25 M-6.4 -0.65 L-6.6 -0.7 -6.75 -0.75 -6.8 -0.75 -7.3 -0.55 Q-8.1 -1.0 -8.7 -1.05 L-9.25 -1.45 -9.35 -1.95 -9.35 -2.1 Q-9.25 -2.65 -8.55 -2.65 L-8.45 -2.6 -6.85 -1.65 Q-6.6 -1.65 -6.6 -1.3 L-6.2 -1.4 -5.75 -1.25 -5.2 -1.25 -5.05 -1.25 -4.6 -1.55 -2.4 -2.0 -1.45 -3.05 -1.05 -3.4 -0.25 -3.4 -0.35 -3.35 -0.2 -3.1 -0.2 -3.05 -0.85 -2.15 -1.7 -1.45 -2.1 -1.55 -3.5 -1.25 Q-6.3 -1.2 -6.4 -0.65" fill="#f5b65f" fill-rule="evenodd" stroke="none"/>
    <path d="M7.0 -0.5 L7.55 -0.2 10.55 0.95 10.4 0.95 Q7.65 0.2 7.2 -0.15 L6.95 -0.4 7.0 -0.5 M11.7 1.0 L11.9 1.0 11.65 1.05 11.7 1.0 M12.6 0.75 L14.65 -0.2 Q12.8 4.4 8.55 5.5 L8.15 5.6 7.9 5.6 7.9 5.65 7.25 5.7 6.8 5.55 Q6.6 5.5 6.6 5.7 L6.6 5.75 Q4.8 5.75 3.0 4.9 1.2 4.05 0.65 3.1 L0.4 2.65 0.15 1.6 0.15 0.0 0.15 1.6 -0.15 2.65 Q-0.5 3.75 -2.35 4.75 L-2.8 4.75 -2.75 4.9 Q-4.2 5.6 -5.75 5.7 L-5.8 5.7 Q-5.85 5.45 -6.0 5.5 L-6.15 5.75 -8.3 5.5 -9.2 5.25 -9.25 5.1 -9.3 5.2 Q-12.3 4.05 -13.95 0.8 L-14.4 -0.2 -12.35 0.75 -10.85 1.0 -10.8 1.0 -10.45 1.0 Q-9.1 0.8 -7.25 -0.2 L-6.4 -0.65 -6.35 -0.4 -5.6 -0.5 -6.9 -0.05 Q-9.6 1.3 -10.6 1.3 L-12.6 0.85 -13.8 0.35 -13.9 0.55 -13.6 0.95 Q-13.6 1.2 -12.5 1.75 L-10.65 2.25 Q-8.9 2.25 -7.75 1.75 L-5.95 0.9 -4.0 0.05 -3.65 0.0 -4.25 0.4 -5.75 1.1 Q-9.05 2.7 -10.45 2.75 L-11.6 2.5 -11.75 2.55 -11.75 2.7 -9.8 3.15 Q-7.2 3.15 -2.45 0.5 L-1.8 0.4 -1.2 0.45 -1.1 0.5 Q-1.95 0.5 -2.95 1.3 L-3.55 1.85 -6.55 3.4 -6.5 3.45 -3.85 2.1 -3.8 2.15 -3.45 1.9 -3.1 1.7 -3.1 1.65 Q-1.9 0.85 -0.65 0.8 L-0.65 0.7 -0.6 0.55 -0.65 0.3 -0.65 0.1 -0.25 0.7 -0.05 0.35 Q-0.05 -0.7 -2.25 -0.95 L-1.6 -1.0 Q-1.45 -1.15 -1.75 -1.2 L-1.7 -1.2 -1.15 -1.1 Q-0.1 -0.9 0.15 0.0 0.25 -0.5 0.65 -0.8 L1.4 -1.1 3.3 -1.35 3.4 -1.3 3.6 -1.15 Q0.5 -1.15 0.5 0.05 L0.75 0.55 0.95 0.45 1.1 0.55 1.1 0.7 1.45 0.7 1.6 0.55 2.9 0.3 2.95 0.3 3.0 0.35 3.35 0.35 3.35 0.25 Q4.8 0.35 6.45 1.55 L7.0 1.75 7.85 1.75 7.15 1.65 7.0 1.5 7.45 1.65 7.65 1.6 6.45 0.9 Q8.7 1.7 11.05 1.7 12.7 1.7 12.95 1.25 L13.1 1.2 Q14.2 0.75 14.2 0.45 L14.05 0.25 12.6 0.75 M4.05 -0.05 L4.1 -0.05 5.85 0.65 5.5 0.5 4.05 -0.05 M11.3 1.75 L11.25 1.8 11.45 1.85 11.65 1.8 11.3 1.75 M10.6 1.85 L10.45 1.85 9.0 1.9 9.45 1.95 10.6 1.85 M10.6 2.4 L10.45 2.35 9.3 2.65 Q7.15 2.65 6.0 1.8 4.85 0.9 2.95 0.95 L2.85 1.0 2.3 1.05 2.6 1.1 3.2 1.0 4.35 1.15 6.2 2.35 Q7.0 2.95 8.5 2.95 9.9 2.95 10.6 2.4 M5.15 2.95 L5.25 2.9 4.55 2.7 4.4 2.7 5.15 2.95 M-5.6 3.95 L-5.4 4.0 -3.75 3.55 -5.6 3.95" fill="#865f02" fill-rule="evenodd" stroke="none"/>
    <path d="M10.55 0.95 L11.7 1.0 11.65 1.05 11.9 1.0 12.5 0.8 12.6 0.75 14.05 0.25 14.2 0.45 Q14.2 0.75 13.1 1.2 L12.95 1.25 Q12.0 1.65 11.5 1.65 L8.35 1.15 7.05 0.65 6.65 0.4 Q5.0 -0.55 3.35 -0.55 L2.65 -0.5 4.05 -0.05 5.5 0.5 5.85 0.65 5.9 0.65 6.15 0.75 6.45 0.9 7.65 1.6 7.45 1.65 7.0 1.5 6.85 1.45 6.8 1.4 5.35 0.8 2.7 -0.2 1.2 0.15 0.95 0.45 0.75 0.55 0.5 0.05 Q0.5 -1.15 3.6 -1.15 L4.05 -0.95 4.2 -0.9 4.8 -0.8 5.0 -0.75 6.8 -0.35 6.95 -0.4 7.2 -0.15 Q7.65 0.2 10.4 0.95 L10.55 0.95 M-5.6 -0.5 L-5.1 -0.6 -2.7 -0.9 -2.25 -0.95 Q-0.05 -0.7 -0.05 0.35 L-0.25 0.7 -0.65 0.1 -0.85 -0.05 -1.1 0.0 -2.2 -0.15 Q-3.0 -0.2 -5.1 1.1 L-5.15 1.05 -4.25 0.4 -3.65 0.0 -2.7 -0.45 -2.8 -0.45 Q-4.6 -0.45 -7.15 0.7 -9.75 1.75 -10.6 1.8 -12.7 1.8 -13.6 0.95 L-13.9 0.55 -13.8 0.35 -12.6 0.85 -10.6 1.3 Q-9.6 1.3 -6.9 -0.05 L-5.6 -0.5" fill="#b07c02" fill-rule="evenodd" stroke="none"/>
    <path d="M4.05 -0.05 L2.65 -0.5 3.35 -0.55 Q5.0 -0.55 6.65 0.4 L7.05 0.65 8.35 1.15 11.5 1.65 Q12.0 1.65 12.95 1.25 12.7 1.7 11.05 1.7 8.7 1.7 6.45 0.9 L6.15 0.75 5.9 0.65 5.85 0.65 4.1 -0.05 4.05 -0.05 M10.6 2.4 Q9.9 2.95 8.5 2.95 7.0 2.95 6.2 2.35 L4.35 1.15 3.2 1.0 2.6 1.1 2.3 1.05 2.85 1.0 2.95 0.95 Q4.85 0.9 6.0 1.8 7.15 2.65 9.3 2.65 L10.45 2.35 10.6 2.4 M10.6 1.85 L9.45 1.95 9.0 1.9 10.45 1.85 10.6 1.85 M11.3 1.75 L11.65 1.8 11.45 1.85 11.25 1.8 11.3 1.75 M0.95 0.45 L1.2 0.15 2.7 -0.2 5.35 0.8 6.8 1.4 6.85 1.45 7.0 1.5 7.15 1.65 7.85 1.75 7.0 1.75 6.45 1.55 Q4.8 0.35 3.35 0.25 L3.35 0.35 3.0 0.35 2.95 0.3 2.9 0.3 1.6 0.55 1.45 0.7 1.1 0.7 1.1 0.55 0.95 0.45 M5.15 2.95 L4.4 2.7 4.55 2.7 5.25 2.9 5.15 2.95 M-13.6 0.95 Q-12.7 1.8 -10.6 1.8 -9.75 1.75 -7.15 0.7 -4.6 -0.45 -2.8 -0.45 L-2.7 -0.45 -3.65 0.0 -4.0 0.05 -5.95 0.9 -7.75 1.75 Q-8.9 2.25 -10.65 2.25 L-12.5 1.75 Q-13.6 1.2 -13.6 0.95 M-4.25 0.4 L-5.15 1.05 -5.1 1.1 Q-3.0 -0.2 -2.2 -0.15 L-1.1 0.0 -0.85 -0.05 -0.65 0.1 -0.65 0.3 -0.6 0.55 -0.65 0.7 -0.65 0.8 Q-1.9 0.85 -3.1 1.65 L-3.1 1.7 -3.45 1.9 -3.8 2.15 -3.85 2.1 -6.5 3.45 -6.55 3.4 -3.55 1.85 -2.95 1.3 Q-1.95 0.5 -1.1 0.5 L-1.2 0.45 -1.8 0.4 -2.45 0.5 Q-7.2 3.15 -9.8 3.15 L-11.75 2.7 -11.75 2.55 -11.6 2.5 -10.45 2.75 Q-9.05 2.7 -5.75 1.1 L-4.25 0.4 M-5.6 3.95 L-3.75 3.55 -5.4 4.0 -5.6 3.95" fill="#956902" fill-rule="evenodd" stroke="none"/>
    <path d="M7.0 -0.55 L7.0 -0.5 6.95 -0.4 6.8 -0.35 5.0 -0.75 4.8 -0.8 4.2 -0.9 4.05 -0.95 3.6 -1.15 3.4 -1.3 3.65 -1.6 5.1 -1.3 5.15 -1.3 5.9 -1.1 7.0 -0.6 7.0 -0.55 M-1.7 -1.45 L-1.55 -1.3 -1.7 -1.2 -1.75 -1.2 Q-1.45 -1.15 -1.6 -1.0 L-2.25 -0.95 -2.7 -0.9 -5.1 -0.6 -5.6 -0.5 -6.35 -0.4 -6.4 -0.65 Q-6.3 -1.2 -3.5 -1.25 L-2.1 -1.55 -1.7 -1.45" fill="#453101" fill-rule="evenodd" stroke="none"/>
    <path d="M0.15 1.6 L0.4 2.65 0.65 3.1 Q1.2 4.05 3.0 4.9 4.8 5.75 6.6 5.75 L6.85 6.35 6.9 6.55 4.2 6.65 Q3.95 6.3 2.9 5.7 1.3 4.75 -0.2 4.75 L-1.1 4.85 -2.05 4.7 -2.35 4.75 Q-0.5 3.75 -0.15 2.65 L0.15 1.6" fill="#6d2201" fill-rule="evenodd" stroke="none"/>
    <path d="M-2.75 4.9 Q-2.5 5.2 -0.8 5.55 L0.55 6.55 0.8 6.35 Q0.8 5.9 -0.25 5.3 L-0.55 5.15 -0.5 5.05 Q0.9 5.05 2.4 5.8 3.1 6.1 3.65 6.65 0.0 6.85 -1.2 7.35 L-4.9 8.45 Q-5.55 8.45 -5.75 7.55 L-5.9 6.35 -5.8 5.8 -5.8 5.7 -5.75 5.7 Q-4.2 5.6 -2.75 4.9" fill="#bf3a02" fill-rule="evenodd" stroke="none"/>
    <path d="M-12.45 -7.9 L-10.65 -9.95 Q-6.2 -14.05 0.0 -14.05 L0.6 -14.05 Q6.4 -13.85 10.6 -9.95 L10.75 -9.85 Q15.0 -5.8 15.0 -0.05 15.0 3.6 13.2 6.6 M13.15 6.65 Q12.15 8.35 10.6 9.75 6.2 13.95 0.0 13.95 -6.2 13.95 -10.65 9.75 -12.85 7.75 -13.95 5.25 -15.0 2.8 -15.0 -0.05 -15.0 -2.95 -13.95 -5.4 L-12.45 -7.9" fill="none" stroke="#865204" stroke-linecap="round" stroke-linejoin="round" stroke-width="0.5"/>
    <path d="M-12.45 -7.9 Q-11.15 -7.7 -9.6 -7.9 M-9.4 -7.9 Q-7.0 -8.3 -4.2 -9.65 -2.25 -10.75 -0.75 -12.3 L0.6 -14.05 M7.0 -0.5 L7.55 -0.2 10.55 0.95 11.7 1.0 11.9 1.0 12.5 0.8 12.6 0.75 14.65 -0.2 Q12.8 4.4 8.55 5.5 L8.15 5.6 M3.3 -1.35 L1.4 -1.1 0.65 -0.8 Q0.25 -0.5 0.15 0.0 L0.15 1.6 0.4 2.65 0.65 3.1 Q1.2 4.05 3.0 4.9 4.8 5.75 6.6 5.75 M7.25 5.7 L7.9 5.65 M10.75 -9.85 L8.0 -9.65 Q3.65 -9.9 -0.75 -12.3 M-2.75 4.9 Q-4.2 5.6 -5.75 5.7 L-5.8 5.7 M-10.8 1.0 L-10.45 1.0 Q-9.1 0.8 -7.25 -0.2 L-6.4 -0.65 M-1.7 -1.2 L-1.15 -1.1 Q-0.1 -0.9 0.15 0.0 M-2.35 4.75 Q-0.5 3.75 -0.15 2.65 L0.15 1.6 M-9.2 5.25 L-8.3 5.5 -6.15 5.75 M-10.8 1.0 L-10.85 1.0 -12.35 0.75 -14.4 -0.2 -13.95 0.8 Q-12.3 4.05 -9.3 5.2" fill="none" stroke="#453101" stroke-linecap="round" stroke-linejoin="round" stroke-width="0.5"/>
  </g>
</svg>
