<?xml version="1.0" encoding="UTF-8" standalone="no"?>
<svg xmlns:xlink="http://www.w3.org/1999/xlink" height="29.7px" width="30.5px" xmlns="http://www.w3.org/2000/svg">
  <g transform="matrix(1.0, 0.0, 0.0, 1.0, 15.25, 14.7)">
    <path d="M-12.45 -8.05 L-10.65 -10.15 Q-6.2 -14.45 0.0 -14.45 L0.6 -14.45 Q6.4 -14.25 10.6 -10.15 L10.75 -10.05 8.0 -9.85 Q3.65 -10.1 -0.75 -12.6 -2.25 -10.95 -4.2 -9.85 -7.0 -8.4 -9.4 -8.05 L-9.4 -8.1 -9.6 -8.0 -12.45 -8.05 M0.6 -14.45 Q0.0 -13.45 -0.75 -12.6 0.0 -13.45 0.6 -14.45 M1.25 -13.75 L1.35 -13.75 4.15 -13.1 6.1 -12.2 9.2 -10.05 9.5 -10.4 8.45 -11.45 6.95 -12.35 Q3.25 -14.15 1.45 -14.05 L0.75 -13.95 1.15 -13.8 1.05 -13.6 3.6 -12.85 3.7 -12.9 1.25 -13.75 M-1.25 -13.35 L-2.4 -12.65 -4.8 -11.6 Q-6.95 -10.35 -8.7 -8.7 L-8.45 -8.7 Q-6.75 -10.55 -4.45 -11.5 L-1.85 -12.55 Q0.0 -13.35 0.0 -13.85 L-0.2 -14.15 -0.25 -14.1 -0.25 -14.15 Q-0.2 -14.35 -0.45 -14.35 L-0.75 -14.25 -1.2 -14.35 Q-2.35 -14.35 -4.95 -13.25 -7.2 -12.4 -7.9 -11.9 L-9.7 -10.45 Q-11.3 -9.05 -11.3 -8.55 L-11.05 -8.2 -7.4 -11.5 -6.0 -12.25 Q-5.6 -12.55 -4.3 -12.85 L-1.1 -13.95 -1.1 -13.9 -0.85 -13.95 Q-5.0 -12.55 -6.4 -11.45 L-6.3 -11.4 Q-4.75 -12.35 -3.2 -12.75 L-1.25 -13.35 M-8.15 -10.15 L-7.85 -10.4 -8.2 -10.2 -8.15 -10.15 M-6.4 -10.8 L-6.6 -10.9 -8.45 -9.8 -8.45 -9.85 -8.7 -9.7 -9.85 -8.45 -9.65 -8.4 Q-8.85 -9.75 -6.4 -10.8" fill="#775402" fill-rule="evenodd" stroke="none"/>
    <path d="M1.25 -13.75 L3.7 -12.9 3.6 -12.85 1.05 -13.6 1.15 -13.8 0.75 -13.95 1.45 -14.05 Q3.25 -14.15 6.95 -12.35 L8.45 -11.45 9.5 -10.4 9.2 -10.05 6.1 -12.2 4.15 -13.1 1.35 -13.75 1.25 -13.75 M-1.25 -13.35 L-3.2 -12.75 Q-4.75 -12.35 -6.3 -11.4 L-6.4 -11.45 Q-5.0 -12.55 -0.85 -13.95 L-1.1 -13.9 -1.1 -13.95 -4.3 -12.85 Q-5.6 -12.55 -6.0 -12.25 L-7.4 -11.5 -11.05 -8.2 -11.3 -8.55 Q-11.3 -9.05 -9.7 -10.45 L-7.9 -11.9 Q-7.2 -12.4 -4.95 -13.25 -2.35 -14.35 -1.2 -14.35 L-0.75 -14.25 -0.45 -14.35 Q-0.2 -14.35 -0.25 -14.15 L-0.25 -14.1 -0.2 -14.15 0.0 -13.85 Q0.0 -13.35 -1.85 -12.55 L-4.45 -11.5 Q-6.75 -10.55 -8.45 -8.7 L-8.7 -8.7 Q-6.95 -10.35 -4.8 -11.6 L-2.4 -12.65 -1.25 -13.35 M-6.4 -10.8 Q-8.85 -9.75 -9.65 -8.4 L-9.85 -8.45 -8.7 -9.7 -8.45 -9.85 -8.45 -9.8 -6.6 -10.9 -6.4 -10.8 M-8.15 -10.15 L-8.2 -10.2 -7.85 -10.4 -8.15 -10.15" fill="#916602" fill-rule="evenodd" stroke="none"/>
    <path d="M10.75 -10.05 Q15.0 -5.8 15.0 0.15 15.0 3.95 13.2 7.05 L13.05 7.05 Q11.7 8.35 9.55 9.8 L7.45 10.8 4.6 11.25 -0.05 11.7 Q-5.0 11.7 -7.85 7.9 L-6.95 8.15 -6.1 8.15 -6.05 8.3 Q-5.65 9.6 -4.95 9.6 -2.0 7.75 3.95 7.45 L4.0 7.6 4.2 7.45 5.75 7.45 7.25 7.65 Q7.55 7.65 7.55 7.25 L7.45 6.7 7.75 6.6 7.75 6.65 7.8 6.6 Q8.3 6.55 8.3 6.25 L8.25 6.1 8.25 6.05 8.15 6.05 8.55 5.95 Q12.8 4.85 14.65 0.0 L12.6 1.0 12.5 1.05 11.9 1.25 11.7 1.25 10.55 1.2 10.25 1.15 10.1 1.15 9.75 1.05 Q8.75 0.7 7.55 0.0 L7.0 -0.25 7.0 -0.35 7.55 -0.3 Q9.05 -0.35 10.0 -1.05 10.8 -1.7 10.8 -2.25 L10.7 -2.5 10.75 -2.55 11.0 -4.05 11.0 -4.35 Q10.1 -4.35 9.85 -4.65 L8.05 -5.05 4.3 -5.5 4.1 -5.5 3.9 -5.5 2.55 -5.5 2.4 -5.5 2.4 -5.7 2.0 -7.4 Q1.65 -7.4 1.65 -5.75 1.65 -5.55 1.8 -5.45 L1.65 -5.45 1.55 -4.75 Q1.55 -3.9 2.1 -2.9 L2.05 -2.7 2.5 -2.0 3.05 -1.3 3.3 -1.2 1.4 -0.95 Q0.95 -0.85 0.65 -0.6 0.25 -0.3 0.15 0.25 -0.1 -0.75 -1.15 -0.95 L-1.7 -1.05 -1.55 -1.15 -1.7 -1.3 Q-1.35 -1.45 -0.85 -2.05 L-0.2 -2.95 Q0.05 -3.5 0.05 -4.05 L-0.15 -5.35 -0.55 -5.4 -0.05 -5.7 Q-0.05 -6.2 -0.3 -6.5 -0.25 -7.45 -0.65 -7.45 L-0.9 -7.15 -0.8 -6.65 -1.05 -5.45 -1.0 -5.35 -1.1 -5.35 -1.2 -5.45 -3.8 -5.55 -6.95 -5.45 Q-7.25 -5.1 -8.25 -5.05 L-9.45 -4.85 -9.65 -3.3 -9.35 -2.0 -9.35 -1.8 -9.25 -1.3 -8.7 -0.9 Q-8.1 -0.8 -7.3 -0.3 L-6.8 -0.55 -6.75 -0.55 -6.6 -0.5 -6.4 -0.45 -6.4 -0.4 -7.25 0.0 Q-9.1 1.05 -10.45 1.25 L-10.8 1.25 -10.7 1.2 -10.7 1.1 Q-11.45 0.25 -11.45 -1.35 -11.45 -3.1 -11.05 -4.8 L-9.4 -8.05 Q-7.0 -8.4 -4.2 -9.85 -2.25 -10.95 -0.75 -12.6 3.65 -10.1 8.0 -9.85 L10.75 -10.05 M2.9 -3.15 L2.7 -3.15 2.7 -3.2 2.9 -3.15 M5.1 -1.15 L5.2 -1.3 3.05 -3.15 7.6 -3.05 9.5 -2.75 9.75 -2.7 9.0 -1.8 Q7.7 -1.15 6.4 -1.15 L5.4 -1.25 5.15 -1.15 5.1 -1.15 M4.45 8.6 L4.4 8.45 0.25 9.3 0.3 9.35 1.05 9.5 Q4.45 9.5 4.45 8.6 M-8.45 -2.5 L-1.7 -3.35 -1.05 -3.3 -1.45 -2.95 -2.4 -1.85 -4.6 -1.35 -5.05 -1.1 -5.2 -1.1 -5.75 -1.1 -6.2 -1.25 -6.6 -1.15 -6.85 -1.45 -8.45 -2.5" fill="#f8c887" fill-rule="evenodd" stroke="none"/>
    <path d="M2.9 -3.15 L2.7 -3.2 2.7 -3.15 Q2.25 -3.1 2.1 -2.9 1.55 -3.9 1.55 -4.75 L1.65 -5.45 1.8 -5.45 2.2 -5.35 2.4 -5.5 2.55 -5.5 3.9 -5.5 4.1 -5.5 4.3 -5.5 8.05 -5.05 9.85 -4.65 Q10.1 -4.35 11.0 -4.35 L11.0 -4.05 10.75 -2.55 10.7 -2.5 9.8 -2.75 9.75 -2.7 9.5 -2.75 7.6 -3.05 3.05 -3.15 3.0 -3.15 2.9 -3.15 M2.15 -4.75 Q2.15 -4.2 2.45 -3.55 L4.7 -3.65 6.35 -3.5 10.25 -3.1 10.35 -3.9 7.35 -4.6 2.2 -5.1 2.15 -4.75 M6.6 6.2 L6.6 6.15 Q6.6 5.95 6.8 6.0 L7.25 6.15 7.45 6.7 7.55 7.25 Q7.55 7.65 7.25 7.65 L5.75 7.45 4.2 7.45 4.0 7.6 3.95 7.45 Q-2.0 7.75 -4.95 9.6 -5.65 9.6 -6.05 8.3 L-6.1 8.15 -6.3 6.85 -6.15 6.2 -6.0 5.95 Q-5.85 5.9 -5.8 6.15 L-5.8 6.3 -5.9 6.8 -5.75 8.1 Q-5.55 9.0 -4.9 9.05 L-1.2 7.95 Q0.0 7.4 3.65 7.15 3.1 6.6 2.4 6.3 0.9 5.5 -0.5 5.5 L-0.55 5.6 -0.25 5.75 Q0.8 6.35 0.8 6.8 L0.55 7.0 -0.8 6.0 Q-2.5 5.65 -2.75 5.35 L-2.8 5.2 -2.35 5.15 -2.05 5.1 -1.1 5.3 -0.2 5.2 Q1.3 5.2 2.9 6.15 3.95 6.75 4.2 7.15 L6.9 7.0 6.85 6.8 6.6 6.2 M5.65 -4.35 Q5.65 -3.75 5.15 -3.75 4.6 -3.75 4.6 -4.4 4.6 -4.9 5.2 -4.9 5.65 -4.9 5.65 -4.35 M4.45 8.6 Q4.45 9.5 1.05 9.5 L0.3 9.35 0.25 9.3 4.4 8.45 4.45 8.6 M-1.0 -5.35 L-0.9 -5.2 -0.55 -5.4 -0.15 -5.35 0.05 -4.05 Q0.05 -3.5 -0.2 -2.95 L-0.2 -3.0 -0.35 -3.25 -0.25 -3.3 -1.05 -3.3 -1.7 -3.35 -8.45 -2.5 -8.55 -2.5 Q-9.25 -2.55 -9.35 -2.0 L-9.65 -3.3 -9.45 -4.85 -8.25 -5.05 Q-7.25 -5.1 -6.95 -5.45 L-3.8 -5.55 -1.2 -5.45 -1.1 -5.35 -1.0 -5.35 M-9.05 -3.55 L-8.95 -2.75 Q-6.75 -3.55 -1.35 -3.85 L-0.9 -3.85 -0.65 -3.65 -0.55 -4.05 -0.7 -4.85 -0.95 -4.85 -5.2 -5.05 -8.9 -4.45 -9.05 -3.55 M-3.75 -3.8 Q-4.45 -3.8 -4.45 -4.35 -4.45 -4.9 -3.9 -4.9 -3.15 -4.9 -3.15 -4.3 -3.15 -3.8 -3.75 -3.8" fill="#000000" fill-rule="evenodd" stroke="none"/>
    <path d="M2.15 -4.75 L2.2 -5.1 7.35 -4.6 10.35 -3.9 10.25 -3.1 6.35 -3.5 4.7 -3.65 2.45 -3.55 Q2.15 -4.2 2.15 -4.75 M5.65 -4.35 Q5.65 -4.9 5.2 -4.9 4.6 -4.9 4.6 -4.4 4.6 -3.75 5.15 -3.75 5.65 -3.75 5.65 -4.35 M-9.05 -3.55 L-8.9 -4.45 -5.2 -5.05 -0.95 -4.85 -0.7 -4.85 -0.55 -4.05 -0.65 -3.65 -0.9 -3.85 -1.35 -3.85 Q-6.75 -3.55 -8.95 -2.75 L-9.05 -3.55 M-3.75 -3.8 Q-3.15 -3.8 -3.15 -4.3 -3.15 -4.9 -3.9 -4.9 -4.45 -4.9 -4.45 -4.35 -4.45 -3.8 -3.75 -3.8" fill="#ffffff" fill-rule="evenodd" stroke="none"/>
    <path d="M13.2 7.05 L13.25 7.05 13.15 7.15 Q12.15 8.95 10.6 10.45 6.2 14.75 0.0 14.75 -6.2 14.75 -10.65 10.45 -12.85 8.3 -13.95 5.7 -15.0 3.1 -15.0 0.15 -15.0 -2.85 -13.95 -5.4 L-12.45 -8.05 -9.6 -8.0 -9.4 -8.1 -9.4 -8.05 -11.05 -4.8 Q-11.45 -3.1 -11.45 -1.35 -11.45 0.25 -10.7 1.1 L-10.7 1.2 -10.8 1.25 -10.85 1.25 -12.35 1.0 -14.4 0.0 -13.95 1.05 Q-12.3 4.4 -9.3 5.65 L-9.25 5.55 -9.2 5.7 -8.3 5.95 -6.15 6.2 -6.3 6.85 -6.1 8.15 -6.95 8.15 -7.85 7.9 Q-5.0 11.7 -0.05 11.7 L4.6 11.25 7.45 10.8 9.55 9.8 Q11.7 8.35 13.05 7.05 L13.2 7.05 M2.7 -3.15 L2.9 -3.15 3.0 -3.15 3.05 -3.15 5.2 -1.3 5.1 -1.15 3.65 -1.4 3.4 -1.15 3.3 -1.2 3.05 -1.3 2.5 -2.0 2.05 -2.7 2.1 -2.9 Q2.25 -3.1 2.7 -3.15 M2.4 -5.5 L2.2 -5.35 1.8 -5.45 Q1.65 -5.55 1.65 -5.75 1.65 -7.4 2.0 -7.4 L2.4 -5.7 2.4 -5.5 M7.25 6.15 L7.9 6.1 7.9 6.05 8.15 6.05 8.25 6.05 8.25 6.1 8.3 6.25 Q8.3 6.55 7.8 6.6 L7.75 6.65 7.75 6.6 7.45 6.7 7.25 6.15 M7.0 -0.35 L5.9 -0.95 5.15 -1.15 5.4 -1.25 6.4 -1.15 Q7.7 -1.15 9.0 -1.8 L9.75 -2.7 9.8 -2.75 10.7 -2.5 10.8 -2.25 Q10.8 -1.7 10.0 -1.05 9.05 -0.35 7.55 -0.3 L7.0 -0.35 M-1.0 -5.35 L-1.05 -5.45 -0.8 -6.65 -0.9 -7.15 -0.65 -7.45 Q-0.25 -7.45 -0.3 -6.5 -0.05 -6.2 -0.05 -5.7 L-0.55 -5.4 -0.9 -5.2 -1.0 -5.35 M-0.2 -2.95 L-0.85 -2.05 Q-1.35 -1.45 -1.7 -1.3 L-2.1 -1.35 -3.5 -1.1 Q-6.3 -1.05 -6.4 -0.45 L-6.6 -0.5 -6.75 -0.55 -6.8 -0.55 -7.3 -0.3 Q-8.1 -0.8 -8.7 -0.9 L-9.25 -1.3 -9.35 -1.8 -9.35 -2.0 Q-9.25 -2.55 -8.55 -2.5 L-8.45 -2.5 -6.85 -1.45 -6.6 -1.15 -6.2 -1.25 -5.75 -1.1 -5.2 -1.1 -5.05 -1.1 -4.6 -1.35 -2.4 -1.85 -1.45 -2.95 -1.05 -3.3 -0.25 -3.3 -0.35 -3.25 -0.2 -3.0 -0.2 -2.95" fill="#f5b65f" fill-rule="evenodd" stroke="none"/>
    <path d="M3.3 -1.2 L3.4 -1.15 3.6 -1.0 Q0.5 -1.0 0.5 0.3 L0.75 0.8 0.95 0.7 1.1 0.8 1.1 0.9 1.45 0.9 1.6 0.8 2.9 0.55 2.95 0.55 3.0 0.6 3.35 0.6 3.35 0.5 Q4.8 0.6 6.45 1.8 L7.0 2.05 7.85 2.1 7.15 1.9 6.8 1.7 7.45 1.95 7.65 1.85 6.45 1.15 Q8.7 2.0 11.05 2.0 12.7 2.0 12.95 1.6 L13.1 1.55 Q14.2 1.0 14.2 0.7 L14.05 0.5 12.6 1.0 14.65 0.0 Q12.8 4.85 8.55 5.95 L8.15 6.05 7.9 6.05 7.9 6.1 7.25 6.15 6.8 6.0 Q6.6 5.95 6.6 6.15 L6.6 6.2 Q4.8 6.2 3.0 5.35 1.2 4.45 0.65 3.45 L0.4 3.0 0.15 1.85 0.15 0.25 0.15 1.85 -0.15 3.0 Q-0.5 4.1 -2.35 5.15 L-2.8 5.2 -2.75 5.35 Q-4.2 6.05 -5.75 6.15 L-5.8 6.15 Q-5.85 5.9 -6.0 5.95 L-6.15 6.2 -8.3 5.95 -9.2 5.7 -9.25 5.55 -9.3 5.65 Q-12.3 4.4 -13.95 1.05 L-14.4 0.0 -12.35 1.0 -10.85 1.25 -10.8 1.25 -10.45 1.25 Q-9.1 1.05 -7.25 0.0 L-6.4 -0.4 -6.35 -0.2 -5.6 -0.3 -6.9 0.15 Q-9.6 1.6 -10.6 1.65 -12.0 1.6 -12.6 1.1 L-13.8 0.6 -13.9 0.8 -13.6 1.2 -12.5 2.05 Q-11.4 2.6 -10.65 2.6 L-7.75 2.05 -5.95 1.15 -4.0 0.3 -3.65 0.25 -4.25 0.65 -5.75 1.35 Q-9.05 3.05 -10.45 3.1 L-11.6 2.8 -11.75 2.9 -11.75 3.05 -9.8 3.5 Q-7.2 3.5 -2.45 0.75 L-1.8 0.65 -1.2 0.7 -1.1 0.75 Q-1.95 0.75 -2.95 1.65 L-3.55 2.2 -6.55 3.75 -6.5 3.8 -3.85 2.45 -3.8 2.5 -3.45 2.2 -3.1 2.0 Q-1.9 1.1 -0.65 1.05 L-0.65 0.9 -0.6 0.8 -0.65 0.55 -0.65 0.3 -0.25 0.9 -0.05 0.6 Q-0.05 -0.45 -2.25 -0.8 L-1.6 -0.85 Q-1.45 -1.0 -1.75 -1.05 L-1.7 -1.05 -1.15 -0.95 Q-0.1 -0.75 0.15 0.25 0.25 -0.3 0.65 -0.6 0.95 -0.85 1.4 -0.95 L3.3 -1.2 M4.05 0.2 L4.1 0.15 6.05 0.95 5.5 0.75 4.05 0.2 M7.0 -0.25 L7.55 0.0 Q8.75 0.7 9.75 1.05 L7.2 0.05 6.95 -0.2 7.0 -0.25 M10.25 1.15 L10.55 1.2 10.4 1.2 10.25 1.15 M11.7 1.25 L11.9 1.25 11.65 1.3 11.7 1.25 M11.3 2.05 L11.25 2.1 11.45 2.15 11.65 2.1 11.3 2.05 M10.6 2.7 L10.45 2.7 9.3 3.0 Q7.15 3.0 6.0 2.1 4.85 1.2 2.95 1.2 L2.85 1.25 2.3 1.3 2.6 1.35 3.2 1.25 4.35 1.4 6.2 2.7 Q7.0 3.3 8.5 3.3 9.9 3.3 10.6 2.7 M10.6 2.15 L10.45 2.15 8.85 2.2 9.45 2.3 10.6 2.15 M5.15 3.3 L5.25 3.25 4.55 3.05 4.4 3.05 5.15 3.3 M-5.6 4.35 L-5.4 4.4 Q-4.55 4.4 -3.75 3.9 L-5.6 4.35" fill="#865f02" fill-rule="evenodd" stroke="none"/>
    <path d="M3.4 -1.15 L3.65 -1.4 5.1 -1.15 5.15 -1.15 5.9 -0.95 7.0 -0.35 7.0 -0.25 6.95 -0.2 7.2 0.05 9.75 1.05 10.1 1.15 10.25 1.15 10.4 1.2 10.55 1.2 11.7 1.25 11.65 1.3 11.9 1.25 12.5 1.05 12.6 1.0 14.05 0.5 14.2 0.7 Q14.2 1.0 13.1 1.55 L12.95 1.6 11.5 1.95 8.35 1.4 7.05 0.85 6.65 0.65 Q5.0 -0.3 3.35 -0.3 L2.65 -0.25 4.05 0.2 5.5 0.75 6.05 0.95 6.15 1.0 6.45 1.15 7.65 1.85 7.45 1.95 6.8 1.7 5.35 1.05 2.7 0.0 1.2 0.35 0.95 0.7 0.75 0.8 0.5 0.3 Q0.5 -1.0 3.6 -1.0 L3.4 -1.15 M-5.6 -0.3 L-5.1 -0.35 -2.7 -0.75 -2.25 -0.8 Q-0.05 -0.45 -0.05 0.6 L-0.25 0.9 -0.65 0.3 -0.85 0.2 -1.1 0.25 -2.2 0.05 Q-3.0 0.05 -5.1 1.35 L-5.15 1.3 -4.25 0.65 -3.65 0.25 -2.7 -0.25 -2.8 -0.25 Q-4.6 -0.25 -7.15 0.9 -9.75 2.1 -10.6 2.1 -12.7 2.1 -13.6 1.2 L-13.9 0.8 -13.8 0.6 -12.6 1.1 Q-12.0 1.6 -10.6 1.65 -9.6 1.6 -6.9 0.15 L-5.6 -0.3" fill="#b07c02" fill-rule="evenodd" stroke="none"/>
    <path d="M12.95 1.6 Q12.7 2.0 11.05 2.0 8.7 2.0 6.45 1.15 L6.15 1.0 6.05 0.95 4.1 0.15 4.05 0.2 2.65 -0.25 3.35 -0.3 Q5.0 -0.3 6.65 0.65 L7.05 0.85 8.35 1.4 11.5 1.95 12.95 1.6 M6.8 1.7 L7.15 1.9 7.85 2.1 7.0 2.05 6.45 1.8 Q4.8 0.6 3.35 0.5 L3.35 0.6 3.0 0.6 2.95 0.55 2.9 0.55 1.6 0.8 1.45 0.9 1.1 0.9 1.1 0.8 0.95 0.7 1.2 0.35 2.7 0.0 5.35 1.05 6.8 1.7 M10.6 2.15 L9.45 2.3 8.85 2.2 10.45 2.15 10.6 2.15 M10.6 2.7 Q9.9 3.3 8.5 3.3 7.0 3.3 6.2 2.7 L4.35 1.4 3.2 1.25 2.6 1.35 2.3 1.3 2.85 1.25 2.95 1.2 Q4.85 1.2 6.0 2.1 7.15 3.0 9.3 3.0 L10.45 2.7 10.6 2.7 M11.3 2.05 L11.65 2.1 11.45 2.15 11.25 2.1 11.3 2.05 M5.15 3.3 L4.4 3.05 4.55 3.05 5.25 3.25 5.15 3.3 M-13.6 1.2 Q-12.7 2.1 -10.6 2.1 -9.75 2.1 -7.15 0.9 -4.6 -0.25 -2.8 -0.25 L-2.7 -0.25 -3.65 0.25 -4.0 0.3 -5.95 1.15 -7.75 2.05 -10.65 2.6 Q-11.4 2.6 -12.5 2.05 L-13.6 1.2 M-4.25 0.65 L-5.15 1.3 -5.1 1.35 Q-3.0 0.05 -2.2 0.05 L-1.1 0.25 -0.85 0.2 -0.65 0.3 -0.65 0.55 -0.6 0.8 -0.65 0.9 -0.65 1.05 Q-1.9 1.1 -3.1 2.0 L-3.45 2.2 -3.8 2.5 -3.85 2.45 -6.5 3.8 -6.55 3.75 -3.55 2.2 -2.95 1.65 Q-1.95 0.75 -1.1 0.75 L-1.2 0.7 -1.8 0.65 -2.45 0.75 Q-7.2 3.5 -9.8 3.5 L-11.75 3.05 -11.75 2.9 -11.6 2.8 -10.45 3.1 Q-9.05 3.05 -5.75 1.35 L-4.25 0.65 M-5.6 4.35 L-3.75 3.9 Q-4.55 4.4 -5.4 4.4 L-5.6 4.35" fill="#956902" fill-rule="evenodd" stroke="none"/>
    <path d="M-1.7 -1.3 L-1.55 -1.15 -1.7 -1.05 -1.75 -1.05 Q-1.45 -1.0 -1.6 -0.85 L-2.25 -0.8 -2.7 -0.75 -5.1 -0.35 -5.6 -0.3 -6.35 -0.2 -6.4 -0.4 -6.4 -0.45 Q-6.3 -1.05 -3.5 -1.1 L-2.1 -1.35 -1.7 -1.3" fill="#453101" fill-rule="evenodd" stroke="none"/>
    <path d="M0.15 1.85 L0.4 3.0 0.65 3.45 Q1.2 4.45 3.0 5.35 4.8 6.2 6.6 6.2 L6.85 6.8 6.9 7.0 4.2 7.15 Q3.95 6.75 2.9 6.15 1.3 5.2 -0.2 5.2 L-1.1 5.3 -2.05 5.1 -2.35 5.15 Q-0.5 4.1 -0.15 3.0 L0.15 1.85" fill="#6d2201" fill-rule="evenodd" stroke="none"/>
    <path d="M-2.75 5.35 Q-2.5 5.65 -0.8 6.0 L0.55 7.0 0.8 6.8 Q0.8 6.35 -0.25 5.75 L-0.55 5.6 -0.5 5.5 Q0.9 5.5 2.4 6.3 3.1 6.6 3.65 7.15 0.0 7.4 -1.2 7.95 L-4.9 9.05 Q-5.55 9.0 -5.75 8.1 L-5.9 6.8 -5.8 6.3 -5.8 6.15 -5.75 6.15 Q-4.2 6.05 -2.75 5.35" fill="#bf3a02" fill-rule="evenodd" stroke="none"/>
    <path d="M-12.45 -8.05 L-10.65 -10.15 Q-6.2 -14.45 0.0 -14.45 L0.6 -14.45 Q6.4 -14.25 10.6 -10.15 L10.75 -10.05 Q15.0 -5.8 15.0 0.15 15.0 3.95 13.2 7.05 M13.15 7.15 Q12.15 8.95 10.6 10.45 6.2 14.75 0.0 14.75 -6.2 14.75 -10.65 10.45 -12.85 8.3 -13.95 5.7 -15.0 3.1 -15.0 0.15 -15.0 -2.85 -13.95 -5.4 L-12.45 -8.05" fill="none" stroke="#865204" stroke-linecap="round" stroke-linejoin="round" stroke-width="0.5"/>
    <path d="M-12.45 -8.05 L-9.6 -8.0 M-9.4 -8.05 Q-7.0 -8.4 -4.2 -9.85 -2.25 -10.95 -0.75 -12.6 0.0 -13.45 0.6 -14.45 M3.3 -1.2 L1.4 -0.95 Q0.95 -0.85 0.65 -0.6 0.25 -0.3 0.15 0.25 L0.15 1.85 0.4 3.0 0.65 3.45 Q1.2 4.45 3.0 5.35 4.8 6.2 6.6 6.2 M7.25 6.15 L7.9 6.1 M8.15 6.05 L8.55 5.95 Q12.8 4.85 14.65 0.0 L12.6 1.0 12.5 1.05 11.9 1.25 11.7 1.25 10.55 1.2 10.25 1.15 10.1 1.15 9.75 1.05 Q8.75 0.7 7.55 0.0 L7.0 -0.25 M-0.75 -12.6 Q3.65 -10.1 8.0 -9.85 L10.75 -10.05 M-6.15 6.2 L-8.3 5.95 -9.2 5.7 M-9.3 5.65 Q-12.3 4.4 -13.95 1.05 L-14.4 0.0 -12.35 1.0 -10.85 1.25 -10.8 1.25 -10.45 1.25 Q-9.1 1.05 -7.25 0.0 L-6.4 -0.4 M-1.7 -1.05 L-1.15 -0.95 Q-0.1 -0.75 0.15 0.25 M-2.35 5.15 Q-0.5 4.1 -0.15 3.0 L0.15 1.85 M-5.8 6.15 L-5.75 6.15 Q-4.2 6.05 -2.75 5.35" fill="none" stroke="#453101" stroke-linecap="round" stroke-linejoin="round" stroke-width="0.5"/>
  </g>
</svg>
