<?xml version="1.0" encoding="UTF-8" standalone="no"?>
<svg xmlns:xlink="http://www.w3.org/1999/xlink" height="30.05px" width="30.5px" xmlns="http://www.w3.org/2000/svg">
  <g transform="matrix(1.0, 0.0, 0.0, 1.0, 15.25, 15.05)">
    <path d="M0.75 -14.25 L1.15 -14.1 1.05 -13.95 3.6 -13.15 3.7 -13.2 1.25 -14.05 1.35 -14.05 4.15 -13.45 6.1 -12.5 9.2 -10.35 Q9.5 -10.4 9.5 -10.75 L8.45 -11.75 6.95 -12.65 Q3.25 -14.5 1.45 -14.4 L0.75 -14.25 M-12.45 -8.3 L-10.65 -10.45 Q-6.2 -14.8 0.0 -14.8 L0.6 -14.8 Q6.4 -14.6 10.6 -10.45 L10.75 -10.35 8.0 -10.15 Q3.65 -10.4 -0.75 -12.9 -2.25 -11.25 -4.2 -10.15 -7.0 -8.7 -9.4 -8.3 L-9.4 -8.35 -9.6 -8.25 -12.45 -8.3 M0.6 -14.8 L-0.75 -12.9 0.6 -14.8 M-0.25 -14.45 L-0.25 -14.5 Q-0.2 -14.7 -0.45 -14.7 L-0.75 -14.6 -1.2 -14.7 Q-2.35 -14.7 -4.95 -13.65 L-7.9 -12.25 -9.7 -10.8 Q-11.3 -9.35 -11.3 -8.85 -11.3 -8.5 -11.05 -8.5 L-7.4 -11.8 -6.0 -12.55 Q-5.6 -12.9 -4.3 -13.15 L-1.1 -14.25 -0.85 -14.25 Q-5.0 -12.85 -6.4 -11.75 L-6.3 -11.7 Q-4.75 -12.7 -3.2 -13.05 L-1.25 -13.75 -2.4 -13.0 -4.8 -11.9 Q-6.95 -10.7 -8.7 -9.0 L-8.45 -9.0 Q-6.75 -10.85 -4.45 -11.8 L-1.85 -12.85 Q0.0 -13.7 0.0 -14.2 L-0.2 -14.5 -0.25 -14.45 M-8.2 -10.55 L-8.15 -10.45 -7.85 -10.75 -8.2 -10.55 M-6.4 -11.1 L-6.6 -11.2 -8.45 -10.1 -8.45 -10.15 -8.7 -9.95 -9.85 -8.7 -9.65 -8.65 Q-8.85 -10.05 -6.4 -11.1" fill="#775402" fill-rule="evenodd" stroke="none"/>
    <path d="M0.75 -14.25 L1.45 -14.4 Q3.25 -14.5 6.95 -12.65 L8.45 -11.75 9.5 -10.75 Q9.5 -10.4 9.2 -10.35 L6.1 -12.5 4.15 -13.45 1.35 -14.05 1.25 -14.05 3.7 -13.2 3.6 -13.15 1.05 -13.95 1.15 -14.1 0.75 -14.25 M-0.25 -14.45 L-0.2 -14.5 0.0 -14.2 Q0.0 -13.7 -1.85 -12.85 L-4.45 -11.8 Q-6.75 -10.85 -8.45 -9.0 L-8.7 -9.0 Q-6.95 -10.7 -4.8 -11.9 L-2.4 -13.0 -1.25 -13.75 -3.2 -13.05 Q-4.75 -12.7 -6.3 -11.7 L-6.4 -11.75 Q-5.0 -12.85 -0.85 -14.25 L-1.1 -14.25 -4.3 -13.15 Q-5.6 -12.9 -6.0 -12.55 L-7.4 -11.8 -11.05 -8.5 Q-11.3 -8.5 -11.3 -8.85 -11.3 -9.35 -9.7 -10.8 L-7.9 -12.25 -4.95 -13.65 Q-2.35 -14.7 -1.2 -14.7 L-0.75 -14.6 -0.45 -14.7 Q-0.2 -14.7 -0.25 -14.5 L-0.25 -14.45 M-6.4 -11.1 Q-8.85 -10.05 -9.65 -8.65 L-9.85 -8.7 -8.7 -9.95 -8.45 -10.15 -8.45 -10.1 -6.6 -11.2 -6.4 -11.1 M-8.2 -10.55 L-7.85 -10.75 -8.15 -10.45 -8.2 -10.55" fill="#916602" fill-rule="evenodd" stroke="none"/>
    <path d="M10.75 -10.35 Q15.0 -6.05 15.0 0.0 15.0 3.85 13.2 7.0 L13.05 7.0 Q11.7 8.3 9.55 9.75 L7.45 10.75 4.6 11.2 -0.05 11.7 Q-5.0 11.7 -7.85 7.85 L-6.95 8.1 -6.1 8.05 -6.05 8.25 Q-5.65 9.55 -4.95 9.55 -2.0 7.7 3.95 7.4 L4.0 7.45 4.2 7.4 5.75 7.35 Q7.4 7.35 7.25 7.6 L7.55 7.2 7.45 6.6 7.75 6.5 7.75 6.55 7.8 6.5 Q8.3 6.45 8.3 6.15 L8.25 6.0 8.25 5.95 8.15 5.95 8.55 5.85 Q12.8 4.75 14.65 -0.15 L12.6 0.85 12.5 0.9 11.9 1.1 11.7 1.1 10.55 1.05 10.25 1.0 10.1 1.0 9.75 0.9 Q8.75 0.55 7.55 -0.15 L7.0 -0.45 7.0 -0.5 7.55 -0.5 Q9.05 -0.5 10.0 -1.25 10.8 -1.9 10.8 -2.45 L10.7 -2.7 10.75 -2.75 10.85 -3.0 10.75 -3.0 10.75 -3.05 Q10.75 -3.85 5.45 -3.85 L5.4 -3.85 5.3 -3.85 4.85 -3.85 4.35 -3.8 2.4 -3.7 1.9 -4.85 1.8 -4.65 2.1 -3.7 1.9 -3.7 1.9 -3.45 1.95 -3.45 2.1 -3.1 2.05 -2.9 2.5 -2.2 3.05 -1.45 3.3 -1.35 1.4 -1.15 Q0.95 -1.05 0.65 -0.8 0.25 -0.5 0.15 0.05 -0.1 -0.9 -1.15 -1.15 L-1.7 -1.25 -1.55 -1.35 -1.7 -1.45 -0.85 -2.25 -0.2 -3.15 -0.05 -3.6 0.0 -3.65 Q0.2 -3.6 0.2 -3.95 L0.25 -4.4 0.05 -5.2 0.05 -5.55 -0.15 -5.5 -0.25 -5.55 -0.3 -6.2 -0.05 -6.1 Q-0.1 -6.5 -0.3 -6.75 -0.25 -7.75 -0.65 -7.75 L-0.9 -7.4 -0.8 -6.9 -1.0 -5.95 -0.85 -6.0 -0.8 -5.45 -0.9 -4.55 -0.7 -4.2 Q-0.3 -4.2 -0.1 -4.45 L-0.2 -4.05 -0.9 -4.15 -1.2 -4.1 -1.55 -4.15 -3.05 -3.95 -3.15 -3.95 -6.7 -3.5 -9.05 -2.9 -9.05 -2.85 -9.3 -2.85 -9.55 -2.8 -9.35 -2.2 -9.35 -2.0 -9.25 -1.45 -8.7 -1.1 Q-8.1 -1.0 -7.3 -0.5 L-6.8 -0.7 -6.75 -0.7 -6.6 -0.7 -6.4 -0.65 -6.4 -0.6 -7.25 -0.15 Q-9.1 0.9 -10.45 1.1 L-10.8 1.1 -10.7 1.05 -10.7 0.95 Q-11.45 0.1 -11.45 -1.55 -11.45 -3.3 -11.05 -5.0 L-9.4 -8.3 Q-7.0 -8.7 -4.2 -10.15 -2.25 -11.25 -0.75 -12.9 3.65 -10.4 8.0 -10.15 L10.75 -10.35 M2.25 -6.65 L2.0 -7.7 Q1.65 -7.7 1.65 -6.0 L1.65 -5.95 1.85 -5.95 1.8 -5.55 2.15 -4.45 Q2.65 -4.45 2.65 -5.0 2.65 -6.2 2.25 -6.65 M2.7 -3.35 L2.7 -3.4 2.9 -3.35 2.7 -3.35 M3.05 -3.35 L7.25 -3.25 7.75 -3.2 9.25 -3.0 9.75 -2.85 9.0 -2.0 Q7.7 -1.35 6.4 -1.35 L5.4 -1.45 5.15 -1.35 5.1 -1.35 5.2 -1.45 3.05 -3.35 M4.45 8.5 L4.4 8.4 0.25 9.25 0.3 9.3 1.05 9.45 Q4.45 9.45 4.45 8.5 M-8.2 -2.55 L-6.35 -2.9 -5.8 -2.95 -5.5 -3.05 -5.2 -3.1 -5.15 -3.1 -3.6 -3.3 -2.45 -3.45 -1.05 -3.5 -1.45 -3.15 -2.4 -2.05 -4.6 -1.55 -5.05 -1.3 -5.2 -1.3 -5.75 -1.3 -6.2 -1.45 -6.6 -1.35 Q-6.6 -1.7 -6.85 -1.7 L-8.2 -2.55" fill="#f8c887" fill-rule="evenodd" stroke="none"/>
    <path d="M2.1 -3.1 L1.95 -3.45 1.9 -3.45 1.9 -3.7 2.1 -3.7 1.8 -4.65 1.9 -4.85 2.4 -3.7 4.35 -3.8 4.85 -3.85 5.3 -3.85 5.4 -3.85 5.45 -3.85 Q10.75 -3.85 10.75 -3.05 L10.75 -3.0 10.85 -3.0 10.75 -2.75 10.7 -2.7 10.45 -2.85 10.3 -2.85 9.75 -2.85 9.25 -3.0 7.75 -3.2 7.25 -3.25 3.05 -3.35 3.0 -3.35 2.9 -3.35 2.7 -3.4 2.7 -3.35 Q2.25 -3.3 2.1 -3.1 M7.45 6.6 L7.55 7.2 7.25 7.6 Q7.4 7.35 5.75 7.35 L4.2 7.4 4.0 7.45 3.95 7.4 Q-2.0 7.7 -4.95 9.55 -5.65 9.55 -6.05 8.25 L-6.1 8.05 -6.3 6.75 -6.15 6.1 -6.0 5.85 Q-5.85 5.8 -5.8 6.05 L-5.8 6.2 -5.9 6.7 -5.75 8.05 Q-5.55 8.95 -4.9 9.0 L-1.2 7.85 Q0.0 7.3 3.65 7.1 3.1 6.5 2.4 6.2 0.9 5.4 -0.5 5.4 L-0.55 5.5 -0.25 5.65 Q0.8 6.25 0.8 6.7 L0.55 6.95 -0.8 5.9 Q-2.5 5.55 -2.75 5.25 L-2.8 5.1 -2.35 5.05 -2.05 5.0 -1.1 5.2 -0.2 5.1 Q1.3 5.1 2.9 6.05 L4.2 7.1 6.9 6.95 6.85 6.7 6.6 6.1 6.6 6.05 Q6.6 5.85 6.8 5.9 L7.25 6.05 7.45 6.6 M-0.1 -4.45 L0.05 -5.2 0.25 -4.4 0.2 -3.95 Q0.2 -3.6 0.0 -3.65 L-0.05 -3.6 -0.2 -3.15 -0.2 -3.2 -0.35 -3.45 -0.25 -3.5 -0.35 -3.5 -0.85 -3.5 -1.05 -3.5 -2.45 -3.45 -3.6 -3.3 -5.15 -3.1 -5.2 -3.1 -5.5 -3.05 -5.8 -2.95 -6.35 -2.9 -8.2 -2.55 -9.0 -2.5 -9.2 -2.45 -9.25 -2.45 -9.35 -2.2 -9.55 -2.8 -9.3 -2.85 -9.05 -2.85 -9.05 -2.9 -6.7 -3.5 -3.15 -3.95 -3.05 -3.95 -1.55 -4.15 -1.2 -4.1 -0.9 -4.15 -0.2 -4.05 -0.1 -4.45 M4.45 8.5 Q4.45 9.45 1.05 9.45 L0.3 9.3 0.25 9.25 4.4 8.4 4.45 8.5" fill="#000000" fill-rule="evenodd" stroke="none"/>
    <path d="M13.2 7.0 L13.25 7.0 13.15 7.1 Q12.15 8.85 10.6 10.4 6.2 14.75 0.0 14.75 -6.2 14.75 -10.65 10.4 -12.85 8.2 -13.95 5.6 -15.0 3.0 -15.0 0.0 -15.0 -3.05 -13.95 -5.6 L-12.45 -8.3 -9.6 -8.25 -9.4 -8.35 -9.4 -8.3 -11.05 -5.0 Q-11.45 -3.3 -11.45 -1.55 -11.45 0.1 -10.7 0.95 L-10.7 1.05 -10.8 1.1 -10.85 1.1 -12.35 0.85 -14.4 -0.15 -13.95 0.9 Q-12.3 4.3 -9.3 5.55 L-9.25 5.45 -9.2 5.6 -8.3 5.85 -6.15 6.1 -6.3 6.75 -6.1 8.05 -6.95 8.1 -7.85 7.85 Q-5.0 11.7 -0.05 11.7 L4.6 11.2 7.45 10.75 9.55 9.75 Q11.7 8.3 13.05 7.0 L13.2 7.0 M2.25 -6.65 Q2.65 -6.2 2.65 -5.0 2.65 -4.45 2.15 -4.45 L1.8 -5.55 1.85 -5.95 1.65 -5.95 1.65 -6.0 Q1.65 -7.7 2.0 -7.7 L2.25 -6.65 M2.1 -3.1 Q2.25 -3.3 2.7 -3.35 L2.9 -3.35 3.0 -3.35 3.05 -3.35 5.2 -1.45 5.1 -1.35 3.65 -1.65 3.4 -1.35 3.4 -1.3 3.3 -1.35 3.05 -1.45 2.5 -2.2 2.05 -2.9 2.1 -3.1 M9.75 -2.85 L10.3 -2.85 10.45 -2.85 10.7 -2.7 10.8 -2.45 Q10.8 -1.9 10.0 -1.25 9.05 -0.5 7.55 -0.5 L7.0 -0.5 7.0 -0.55 5.9 -1.15 5.15 -1.35 5.4 -1.45 6.4 -1.35 Q7.7 -1.35 9.0 -2.0 L9.75 -2.85 M8.15 5.95 L8.25 5.95 8.25 6.0 8.3 6.15 Q8.3 6.45 7.8 6.5 L7.75 6.55 7.75 6.5 7.45 6.6 7.25 6.05 7.9 6.0 7.9 5.95 8.15 5.95 M-0.1 -4.45 Q-0.3 -4.2 -0.7 -4.2 L-0.9 -4.55 -0.8 -5.45 -0.85 -6.0 -1.0 -5.95 -0.8 -6.9 -0.9 -7.4 -0.65 -7.75 Q-0.25 -7.75 -0.3 -6.75 -0.1 -6.5 -0.05 -6.1 L-0.3 -6.2 -0.25 -5.55 -0.15 -5.5 0.05 -5.55 0.05 -5.2 -0.1 -4.45 M-0.2 -3.15 L-0.85 -2.25 -1.7 -1.45 -2.1 -1.55 -3.5 -1.3 Q-6.3 -1.2 -6.4 -0.65 L-6.6 -0.7 -6.75 -0.7 -6.8 -0.7 -7.3 -0.5 Q-8.1 -1.0 -8.7 -1.1 L-9.25 -1.45 -9.35 -2.0 -9.35 -2.2 -9.25 -2.45 -9.2 -2.45 -9.0 -2.5 -8.2 -2.55 -6.85 -1.7 Q-6.6 -1.7 -6.6 -1.35 L-6.2 -1.45 -5.75 -1.3 -5.2 -1.3 -5.05 -1.3 -4.6 -1.55 -2.4 -2.05 -1.45 -3.15 -1.05 -3.5 -0.85 -3.5 -0.35 -3.5 -0.25 -3.5 -0.35 -3.45 -0.2 -3.2 -0.2 -3.15" fill="#f5b65f" fill-rule="evenodd" stroke="none"/>
    <path d="M7.0 -0.45 L7.55 -0.15 Q8.75 0.55 9.75 0.9 L7.2 -0.1 6.95 -0.35 7.0 -0.45 M10.25 1.0 L10.55 1.05 10.4 1.05 10.25 1.0 M11.7 1.1 L11.9 1.1 11.65 1.15 11.7 1.1 M12.6 0.85 L14.65 -0.15 Q12.8 4.75 8.55 5.85 L8.15 5.95 7.9 5.95 7.9 6.0 7.25 6.05 6.8 5.9 Q6.6 5.85 6.6 6.05 L6.6 6.1 Q4.8 6.1 3.0 5.25 1.2 4.35 0.65 3.35 L0.4 2.85 0.15 1.7 0.15 0.05 0.15 1.7 -0.15 2.85 Q-0.5 4.0 -2.35 5.05 L-2.8 5.1 -2.75 5.25 Q-4.2 5.95 -5.75 6.05 L-5.8 6.05 Q-5.85 5.8 -6.0 5.85 L-6.15 6.1 -8.3 5.85 -9.2 5.6 -9.25 5.45 -9.3 5.55 Q-12.3 4.3 -13.95 0.9 L-14.4 -0.15 -12.35 0.85 -10.85 1.1 -10.8 1.1 -10.45 1.1 Q-9.1 0.9 -7.25 -0.15 L-6.4 -0.6 -6.35 -0.35 -5.6 -0.45 -6.9 0.0 Q-9.6 1.4 -10.6 1.45 -12.0 1.4 -12.6 0.95 L-13.8 0.45 -13.9 0.65 -13.6 1.05 -12.5 1.9 Q-11.4 2.45 -10.65 2.45 L-7.75 1.9 -5.95 1.0 -4.0 0.1 -3.65 0.05 -4.25 0.5 -5.75 1.2 Q-9.05 2.95 -10.45 2.95 L-11.6 2.7 -11.75 2.75 -11.75 2.9 -9.8 3.4 Q-7.2 3.4 -2.45 0.6 L-1.8 0.5 -1.2 0.55 -1.1 0.6 Q-1.95 0.6 -2.95 1.45 L-3.55 2.05 -6.55 3.6 -6.5 3.65 -3.85 2.3 -3.8 2.35 -3.45 2.05 -3.1 1.85 Q-1.9 0.95 -0.65 0.9 L-0.65 0.75 -0.6 0.65 -0.65 0.35 -0.65 0.15 -0.25 0.75 -0.05 0.45 Q-0.05 -0.65 -2.25 -0.95 L-1.6 -1.0 Q-1.45 -1.15 -1.75 -1.2 L-1.7 -1.25 -1.15 -1.15 Q-0.1 -0.9 0.15 0.05 0.25 -0.5 0.65 -0.8 0.95 -1.05 1.4 -1.15 L3.3 -1.35 3.4 -1.3 3.6 -1.2 Q0.5 -1.2 0.5 0.1 L0.75 0.65 0.95 0.55 1.1 0.65 1.1 0.75 1.45 0.75 1.6 0.65 2.95 0.35 2.9 0.4 3.0 0.45 3.35 0.45 3.35 0.35 Q4.8 0.45 6.45 1.65 L7.0 1.9 7.85 1.95 7.15 1.75 6.8 1.55 7.45 1.8 7.65 1.7 6.45 1.0 Q8.7 1.85 11.05 1.85 12.7 1.85 12.95 1.4 L13.1 1.35 14.2 0.55 14.05 0.35 12.6 0.85 M4.05 0.0 L4.1 0.0 6.05 0.8 5.5 0.6 4.05 0.0 M10.6 2.55 L10.45 2.55 9.3 2.85 Q7.15 2.85 6.0 1.95 4.85 1.0 2.95 1.05 L2.85 1.1 2.3 1.15 2.6 1.2 3.2 1.1 4.35 1.25 6.2 2.55 Q7.0 3.15 8.5 3.2 9.9 3.15 10.6 2.55 M10.6 2.0 L10.45 2.0 8.85 2.05 9.45 2.15 10.6 2.0 M11.3 1.9 L11.25 1.95 11.45 2.0 11.65 1.95 11.3 1.9 M5.15 3.2 L5.25 3.15 4.55 2.9 4.4 2.9 5.15 3.2 M-5.6 4.2 L-5.4 4.25 -3.75 3.8 -5.6 4.2" fill="#865f02" fill-rule="evenodd" stroke="none"/>
    <path d="M9.75 0.9 L10.1 1.0 10.25 1.0 10.4 1.05 10.55 1.05 11.7 1.1 11.65 1.15 11.9 1.1 12.5 0.9 12.6 0.85 14.05 0.35 14.2 0.55 13.1 1.35 12.95 1.4 Q12.0 1.8 11.5 1.8 L8.35 1.25 7.05 0.7 6.65 0.5 Q5.0 -0.5 3.35 -0.5 L2.65 -0.45 4.05 0.0 5.5 0.6 6.05 0.8 6.15 0.85 6.45 1.0 7.65 1.7 7.45 1.8 6.8 1.55 5.35 0.9 2.7 -0.15 1.2 0.2 0.95 0.55 0.75 0.65 0.5 0.1 Q0.5 -1.2 3.6 -1.2 3.75 -1.1 4.05 -0.95 L4.2 -0.9 4.8 -0.75 5.0 -0.7 6.8 -0.3 6.95 -0.35 7.2 -0.1 9.75 0.9 M-5.6 -0.45 L-5.1 -0.55 -2.7 -0.9 -2.25 -0.95 Q-0.05 -0.65 -0.05 0.45 L-0.25 0.75 -0.65 0.15 -0.85 0.0 -1.1 0.05 -2.2 -0.1 Q-3.0 -0.15 -5.1 1.2 L-5.15 1.15 -4.25 0.5 -3.65 0.05 -2.7 -0.4 -2.8 -0.4 Q-4.6 -0.45 -7.15 0.75 -9.75 1.95 -10.6 1.95 -12.7 1.95 -13.6 1.05 L-13.9 0.65 -13.8 0.45 -12.6 0.95 Q-12.0 1.4 -10.6 1.45 -9.6 1.4 -6.9 0.0 L-5.6 -0.45" fill="#b07c02" fill-rule="evenodd" stroke="none"/>
    <path d="M4.05 0.0 L2.65 -0.45 3.35 -0.5 Q5.0 -0.5 6.65 0.5 L7.05 0.7 8.35 1.25 11.5 1.8 Q12.0 1.8 12.95 1.4 12.7 1.85 11.05 1.85 8.7 1.85 6.45 1.0 L6.15 0.85 6.05 0.8 4.1 0.0 4.05 0.0 M11.3 1.9 L11.65 1.95 11.45 2.0 11.25 1.95 11.3 1.9 M10.6 2.0 L9.45 2.15 8.85 2.05 10.45 2.0 10.6 2.0 M10.6 2.55 Q9.9 3.15 8.5 3.2 7.0 3.15 6.2 2.55 L4.35 1.25 3.2 1.1 2.6 1.2 2.3 1.15 2.85 1.1 2.95 1.05 Q4.85 1.0 6.0 1.95 7.15 2.85 9.3 2.85 L10.45 2.55 10.6 2.55 M0.95 0.55 L1.2 0.2 2.7 -0.15 5.35 0.9 6.8 1.55 7.15 1.75 7.85 1.95 7.0 1.9 6.45 1.65 Q4.8 0.45 3.35 0.35 L3.35 0.45 3.0 0.45 2.9 0.4 2.95 0.35 1.6 0.65 1.45 0.75 1.1 0.75 1.1 0.65 0.95 0.55 M5.15 3.2 L4.4 2.9 4.55 2.9 5.25 3.15 5.15 3.2 M-13.6 1.05 Q-12.7 1.95 -10.6 1.95 -9.75 1.95 -7.15 0.75 -4.6 -0.45 -2.8 -0.4 L-2.7 -0.4 -3.65 0.05 -4.0 0.1 -5.95 1.0 -7.75 1.9 -10.65 2.45 Q-11.4 2.45 -12.5 1.9 L-13.6 1.05 M-4.25 0.5 L-5.15 1.15 -5.1 1.2 Q-3.0 -0.15 -2.2 -0.1 L-1.1 0.05 -0.85 0.0 -0.65 0.15 -0.65 0.35 -0.6 0.65 -0.65 0.75 -0.65 0.9 Q-1.9 0.95 -3.1 1.85 L-3.45 2.05 -3.8 2.35 -3.85 2.3 -6.5 3.65 -6.55 3.6 -3.55 2.05 -2.95 1.45 Q-1.95 0.6 -1.1 0.6 L-1.2 0.55 -1.8 0.5 -2.45 0.6 Q-7.2 3.4 -9.8 3.4 L-11.75 2.9 -11.75 2.75 -11.6 2.7 -10.45 2.95 Q-9.05 2.95 -5.75 1.2 L-4.25 0.5 M-5.6 4.2 L-3.75 3.8 -5.4 4.25 -5.6 4.2" fill="#956902" fill-rule="evenodd" stroke="none"/>
    <path d="M7.0 -0.5 L7.0 -0.45 6.95 -0.35 6.8 -0.3 5.0 -0.7 4.8 -0.75 4.2 -0.9 4.05 -0.95 Q3.75 -1.1 3.6 -1.2 L3.4 -1.3 3.4 -1.35 3.65 -1.65 5.1 -1.35 5.15 -1.35 5.9 -1.15 7.0 -0.55 7.0 -0.5 M-1.7 -1.45 L-1.55 -1.35 -1.7 -1.25 -1.75 -1.2 Q-1.45 -1.15 -1.6 -1.0 L-2.25 -0.95 -2.7 -0.9 -5.1 -0.55 -5.6 -0.45 -6.35 -0.35 -6.4 -0.6 -6.4 -0.65 Q-6.3 -1.2 -3.5 -1.3 L-2.1 -1.55 -1.7 -1.45" fill="#453101" fill-rule="evenodd" stroke="none"/>
    <path d="M0.15 1.7 L0.4 2.85 0.65 3.35 Q1.2 4.35 3.0 5.25 4.8 6.1 6.6 6.1 L6.85 6.7 6.9 6.95 4.2 7.1 2.9 6.05 Q1.3 5.1 -0.2 5.1 L-1.1 5.2 -2.05 5.0 -2.35 5.05 Q-0.5 4.0 -0.15 2.85 L0.15 1.7" fill="#6d2201" fill-rule="evenodd" stroke="none"/>
    <path d="M-2.75 5.25 Q-2.5 5.55 -0.8 5.9 L0.55 6.95 0.8 6.7 Q0.8 6.25 -0.25 5.65 L-0.55 5.5 -0.5 5.4 Q0.9 5.4 2.4 6.2 3.1 6.5 3.65 7.1 0.0 7.3 -1.2 7.85 L-4.9 9.0 Q-5.55 8.95 -5.75 8.05 L-5.9 6.7 -5.8 6.2 -5.8 6.05 -5.75 6.05 Q-4.2 5.95 -2.75 5.25" fill="#bf3a02" fill-rule="evenodd" stroke="none"/>
    <path d="M-12.45 -8.3 L-10.65 -10.45 Q-6.2 -14.8 0.0 -14.8 L0.6 -14.8 Q6.4 -14.6 10.6 -10.45 L10.75 -10.35 Q15.0 -6.05 15.0 0.0 15.0 3.85 13.2 7.0 M13.15 7.1 Q12.15 8.85 10.6 10.4 6.2 14.75 0.0 14.75 -6.2 14.75 -10.65 10.4 -12.85 8.2 -13.95 5.6 -15.0 3.0 -15.0 0.0 -15.0 -3.05 -13.95 -5.6 L-12.45 -8.3" fill="none" stroke="#865204" stroke-linecap="round" stroke-linejoin="round" stroke-width="0.5"/>
    <path d="M-12.45 -8.3 L-9.6 -8.25 M-9.4 -8.3 Q-7.0 -8.7 -4.2 -10.15 -2.25 -11.25 -0.75 -12.9 L0.6 -14.8 M7.0 -0.45 L7.55 -0.15 Q8.75 0.55 9.75 0.9 L10.1 1.0 10.25 1.0 10.55 1.05 11.7 1.1 11.9 1.1 12.5 0.9 12.6 0.85 14.65 -0.15 Q12.8 4.75 8.55 5.85 L8.15 5.95 M-1.7 -1.25 L-1.15 -1.15 Q-0.1 -0.9 0.15 0.05 0.25 -0.5 0.65 -0.8 0.95 -1.05 1.4 -1.15 L3.3 -1.35 M-0.75 -12.9 Q3.65 -10.4 8.0 -10.15 L10.75 -10.35 M7.25 6.05 L7.9 6.0 M0.15 1.7 L0.4 2.85 0.65 3.35 Q1.2 4.35 3.0 5.25 4.8 6.1 6.6 6.1 M0.15 0.05 L0.15 1.7 -0.15 2.85 Q-0.5 4.0 -2.35 5.05 M-6.4 -0.6 L-7.25 -0.15 Q-9.1 0.9 -10.45 1.1 L-10.8 1.1 -10.85 1.1 -12.35 0.85 -14.4 -0.15 -13.95 0.9 Q-12.3 4.3 -9.3 5.55 M-9.2 5.6 L-8.3 5.85 -6.15 6.1 M-5.8 6.05 L-5.75 6.05 Q-4.2 5.95 -2.75 5.25" fill="none" stroke="#453101" stroke-linecap="round" stroke-linejoin="round" stroke-width="0.5"/>
  </g>
</svg>
