<?xml version="1.0" encoding="UTF-8" standalone="no"?>
<svg xmlns:xlink="http://www.w3.org/1999/xlink" height="30.2px" width="30.5px" xmlns="http://www.w3.org/2000/svg">
  <g transform="matrix(1.0, 0.0, 0.0, 1.0, 15.25, 15.2)">
    <path d="M0.75 -14.4 L1.15 -14.25 1.05 -14.1 3.6 -13.3 3.7 -13.35 1.25 -14.2 1.35 -14.2 4.15 -13.65 6.1 -12.65 9.2 -10.55 Q9.5 -10.55 9.5 -10.9 L8.45 -11.9 6.95 -12.8 Q3.25 -14.65 1.45 -14.55 L0.75 -14.4 M-12.45 -8.45 L-10.65 -10.65 Q-6.2 -14.95 0.0 -14.95 L0.6 -14.95 Q6.4 -14.75 10.6 -10.65 L10.75 -10.45 8.0 -10.25 Q3.65 -10.6 -0.75 -13.05 -2.25 -11.4 -4.2 -10.25 -7.0 -8.8 -9.4 -8.45 L-9.4 -8.5 -9.6 -8.4 -12.45 -8.45 M0.6 -14.95 L-0.75 -13.05 0.6 -14.95 M-0.25 -14.65 Q-0.2 -14.85 -0.45 -14.85 L-0.75 -14.75 -1.2 -14.85 Q-2.35 -14.85 -4.95 -13.8 L-7.9 -12.35 -9.7 -10.95 Q-11.3 -9.45 -11.3 -8.95 L-11.05 -8.6 -7.4 -11.95 -6.0 -12.7 Q-5.6 -13.05 -4.3 -13.3 L-1.1 -14.4 -0.85 -14.4 Q-5.0 -13.0 -6.4 -11.85 L-6.3 -11.8 Q-4.75 -12.8 -3.2 -13.2 L-1.25 -13.9 -2.4 -13.15 -4.8 -12.05 Q-6.95 -10.85 -8.7 -9.1 L-8.45 -9.1 Q-6.75 -11.0 -4.45 -11.95 L-1.85 -13.0 Q0.0 -13.85 0.0 -14.35 L-0.2 -14.65 -0.25 -14.6 -0.25 -14.65 M-7.9 -10.85 L-8.2 -10.65 -8.15 -10.65 -7.9 -10.85 M-6.4 -11.25 L-6.6 -11.3 -8.45 -10.2 -8.45 -10.25 -8.7 -10.1 -9.85 -8.85 -9.65 -8.8 Q-8.85 -10.15 -6.4 -11.25" fill="#775402" fill-rule="evenodd" stroke="none"/>
    <path d="M0.75 -14.4 L1.45 -14.55 Q3.25 -14.65 6.95 -12.8 L8.45 -11.9 9.5 -10.9 Q9.5 -10.55 9.2 -10.55 L6.1 -12.65 4.15 -13.65 1.35 -14.2 1.25 -14.2 3.7 -13.35 3.6 -13.3 1.05 -14.1 1.15 -14.25 0.75 -14.4 M-0.25 -14.65 L-0.25 -14.6 -0.2 -14.65 0.0 -14.35 Q0.0 -13.85 -1.85 -13.0 L-4.45 -11.95 Q-6.75 -11.0 -8.45 -9.1 L-8.7 -9.1 Q-6.95 -10.85 -4.8 -12.05 L-2.4 -13.15 -1.25 -13.9 -3.2 -13.2 Q-4.75 -12.8 -6.3 -11.8 L-6.4 -11.85 Q-5.0 -13.0 -0.85 -14.4 L-1.1 -14.4 -4.3 -13.3 Q-5.6 -13.05 -6.0 -12.7 L-7.4 -11.95 -11.05 -8.6 -11.3 -8.95 Q-11.3 -9.45 -9.7 -10.95 L-7.9 -12.35 -4.95 -13.8 Q-2.35 -14.85 -1.2 -14.85 L-0.75 -14.75 -0.45 -14.85 Q-0.2 -14.85 -0.25 -14.65 M-6.4 -11.25 Q-8.85 -10.15 -9.65 -8.8 L-9.85 -8.85 -8.7 -10.1 -8.45 -10.25 -8.45 -10.2 -6.6 -11.3 -6.4 -11.25 M-7.9 -10.85 L-8.15 -10.65 -8.2 -10.65 -7.9 -10.85" fill="#916602" fill-rule="evenodd" stroke="none"/>
    <path d="M10.75 -10.45 Q15.0 -6.15 15.0 -0.1 15.0 3.75 13.2 6.95 L13.05 6.95 Q11.7 8.25 9.55 9.7 L7.45 10.7 4.6 11.2 -0.05 11.65 Q-5.0 11.65 -7.85 7.8 L-6.95 8.05 -6.1 8.05 -6.05 8.2 Q-5.65 9.5 -4.95 9.55 -2.0 7.65 3.95 7.35 L4.0 7.4 4.2 7.35 5.75 7.3 Q7.4 7.35 7.25 7.55 7.55 7.55 7.55 7.15 L7.45 6.55 7.75 6.45 7.75 6.5 7.8 6.45 Q8.3 6.4 8.3 6.1 L8.25 5.95 8.25 5.9 8.15 5.9 8.55 5.8 Q12.8 4.7 14.65 -0.25 L12.6 0.75 12.5 0.8 11.9 1.0 11.7 1.05 10.55 1.0 10.45 1.0 10.25 0.95 10.2 0.95 10.1 0.9 9.75 0.8 Q8.75 0.45 7.55 -0.25 L7.0 -0.5 7.0 -0.6 7.55 -0.55 Q9.05 -0.6 10.0 -1.3 10.8 -1.95 10.8 -2.5 L10.7 -2.8 10.75 -2.85 10.85 -3.1 10.75 -3.1 10.75 -3.15 Q10.75 -3.95 5.45 -3.95 L5.4 -3.95 5.3 -3.95 4.85 -3.95 4.35 -3.9 2.4 -3.8 1.9 -4.95 1.8 -4.75 2.1 -3.8 1.9 -3.8 1.9 -3.55 1.95 -3.55 2.1 -3.2 2.05 -3.0 2.5 -2.25 3.05 -1.6 Q3.2 -1.5 3.3 -1.45 L1.4 -1.2 Q0.95 -1.1 0.65 -0.85 0.25 -0.55 0.15 0.0 -0.1 -1.0 -1.15 -1.2 L-1.7 -1.3 -1.55 -1.4 -1.7 -1.6 -0.85 -2.3 -0.2 -3.25 -0.05 -3.7 0.0 -3.75 Q0.2 -3.7 0.2 -4.05 L0.25 -4.55 0.05 -5.3 0.05 -5.65 -0.15 -5.6 -0.25 -5.65 -0.3 -6.3 -0.05 -6.2 Q-0.1 -6.6 -0.3 -6.85 -0.25 -7.85 -0.65 -7.85 L-0.9 -7.55 -0.8 -7.0 -1.0 -6.05 -0.85 -6.1 -0.8 -5.55 -0.9 -4.65 -0.7 -4.3 Q-0.3 -4.3 -0.1 -4.6 L-0.2 -4.15 -0.9 -4.25 -1.2 -4.2 -1.55 -4.25 -3.05 -4.05 -3.15 -4.05 -6.7 -3.6 -9.05 -3.0 -9.05 -2.95 -9.3 -2.95 -9.55 -2.9 -9.35 -2.25 -9.35 -2.1 -9.25 -1.6 Q-8.9 -1.2 -8.7 -1.15 -8.1 -1.05 -7.3 -0.55 L-6.8 -0.8 -6.75 -0.8 -6.6 -0.75 -6.4 -0.7 -6.4 -0.65 -7.25 -0.25 Q-9.1 0.85 -10.45 1.0 L-10.8 1.05 -10.7 1.0 -10.7 0.85 Q-11.45 0.0 -11.45 -1.65 -11.45 -3.4 -11.05 -5.1 L-9.4 -8.45 Q-7.0 -8.8 -4.2 -10.25 -2.25 -11.4 -0.75 -13.05 3.65 -10.6 8.0 -10.25 L10.75 -10.45 M2.25 -6.75 L2.0 -7.8 Q1.65 -7.85 1.65 -6.1 L1.65 -6.05 1.85 -6.05 1.8 -5.65 2.15 -4.6 Q2.65 -4.6 2.65 -5.1 2.65 -6.3 2.25 -6.75 M2.9 -3.45 L2.7 -3.45 2.7 -3.5 2.9 -3.45 M5.1 -1.4 L5.2 -1.6 3.05 -3.45 7.25 -3.35 7.75 -3.3 9.25 -3.1 9.75 -2.95 9.0 -2.1 Q7.7 -1.4 6.4 -1.4 L5.4 -1.55 5.15 -1.4 5.1 -1.4 M0.3 9.25 L1.05 9.45 Q4.45 9.4 4.45 8.5 L4.4 8.35 0.25 9.2 0.3 9.25 M-8.2 -2.65 L-6.35 -3.0 -5.8 -3.05 -5.5 -3.15 -5.2 -3.2 -5.15 -3.2 -3.6 -3.4 -2.45 -3.55 -1.05 -3.6 -1.45 -3.25 -2.4 -2.15 -4.6 -1.65 -5.05 -1.35 -5.2 -1.35 -5.75 -1.35 Q-5.8 -1.55 -6.2 -1.55 L-6.6 -1.4 Q-6.6 -1.8 -6.85 -1.8 L-8.2 -2.65" fill="#f8c887" fill-rule="evenodd" stroke="none"/>
    <path d="M3.05 -3.45 L3.0 -3.45 2.9 -3.45 2.7 -3.5 2.7 -3.45 Q2.25 -3.4 2.1 -3.2 L1.95 -3.55 1.9 -3.55 1.9 -3.8 2.1 -3.8 1.8 -4.75 1.9 -4.95 2.4 -3.8 4.35 -3.9 4.85 -3.95 5.3 -3.95 5.4 -3.95 5.45 -3.95 Q10.75 -3.95 10.75 -3.15 L10.75 -3.1 10.85 -3.1 10.75 -2.85 10.7 -2.8 10.45 -2.95 10.3 -2.95 9.75 -2.95 9.25 -3.1 7.75 -3.3 7.25 -3.35 3.05 -3.45 M-0.1 -4.6 L0.05 -5.3 0.25 -4.55 0.2 -4.05 Q0.2 -3.7 0.0 -3.75 L-0.05 -3.7 -0.2 -3.25 -0.2 -3.3 -0.35 -3.55 -0.25 -3.6 -0.35 -3.6 -0.85 -3.6 -1.05 -3.6 -2.45 -3.55 -3.6 -3.4 -5.15 -3.2 -5.2 -3.2 -5.5 -3.15 -5.8 -3.05 -6.35 -3.0 -8.2 -2.65 -9.0 -2.55 -9.2 -2.5 -9.25 -2.5 -9.35 -2.25 -9.55 -2.9 -9.3 -2.95 -9.05 -2.95 -9.05 -3.0 -6.7 -3.6 -3.15 -4.05 -3.05 -4.05 -1.55 -4.25 -1.2 -4.2 -0.9 -4.25 -0.2 -4.15 -0.1 -4.6 M6.6 6.05 L6.6 6.0 Q6.6 5.8 6.8 5.85 L7.25 6.0 7.45 6.55 7.55 7.15 Q7.55 7.55 7.25 7.55 7.4 7.35 5.75 7.3 L4.2 7.35 4.0 7.4 3.95 7.35 Q-2.0 7.65 -4.95 9.55 -5.65 9.5 -6.05 8.2 L-6.1 8.05 -6.3 6.7 -6.15 6.05 -6.0 5.8 Q-5.85 5.75 -5.8 6.0 L-5.8 6.15 -5.9 6.65 -5.75 8.0 Q-5.55 8.95 -4.9 8.95 L-1.2 7.85 Q0.0 7.25 3.65 7.05 3.1 6.45 2.4 6.15 0.9 5.35 -0.5 5.35 L-0.55 5.45 -0.25 5.6 Q0.8 6.2 0.8 6.65 L0.55 6.9 -0.8 5.85 Q-2.5 5.5 -2.75 5.2 L-2.8 5.05 -2.35 5.0 -2.05 4.95 -1.1 5.15 -0.2 5.05 Q1.3 5.05 2.9 6.0 L4.2 7.05 6.9 6.9 6.85 6.65 6.6 6.05 M0.3 9.25 L0.25 9.2 4.4 8.35 4.45 8.5 Q4.45 9.4 1.05 9.45 L0.3 9.25" fill="#000000" fill-rule="evenodd" stroke="none"/>
    <path d="M13.2 6.95 L13.25 6.95 13.15 7.05 Q12.15 8.85 10.6 10.35 6.2 14.75 0.0 14.75 -6.2 14.75 -10.65 10.35 -12.85 8.2 -13.95 5.55 -15.0 2.9 -15.0 -0.1 -15.0 -3.1 -13.95 -5.7 L-12.45 -8.45 -9.6 -8.4 -9.4 -8.5 -9.4 -8.45 -11.05 -5.1 Q-11.45 -3.4 -11.45 -1.65 -11.45 0.0 -10.7 0.85 L-10.7 1.0 -10.8 1.05 -10.85 1.05 -12.35 0.75 -14.4 -0.25 -13.95 0.85 Q-12.3 4.25 -9.3 5.5 L-9.25 5.4 -9.2 5.55 -8.3 5.8 -6.15 6.05 -6.3 6.7 -6.1 8.05 -6.95 8.05 -7.85 7.8 Q-5.0 11.65 -0.05 11.65 L4.6 11.2 7.45 10.7 9.55 9.7 Q11.7 8.25 13.05 6.95 L13.2 6.95 M2.25 -6.75 Q2.65 -6.3 2.65 -5.1 2.65 -4.6 2.15 -4.6 L1.8 -5.65 1.85 -6.05 1.65 -6.05 1.65 -6.1 Q1.65 -7.85 2.0 -7.8 L2.25 -6.75 M2.9 -3.45 L3.0 -3.45 3.05 -3.45 5.2 -1.6 5.1 -1.4 3.65 -1.7 3.4 -1.4 3.3 -1.45 Q3.2 -1.5 3.05 -1.6 L2.5 -2.25 2.05 -3.0 2.1 -3.2 Q2.25 -3.4 2.7 -3.45 L2.9 -3.45 M9.75 -2.95 L10.3 -2.95 10.45 -2.95 10.7 -2.8 10.8 -2.5 Q10.8 -1.95 10.0 -1.3 9.05 -0.6 7.55 -0.55 L7.0 -0.6 5.9 -1.2 5.15 -1.4 5.4 -1.55 6.4 -1.4 Q7.7 -1.4 9.0 -2.1 L9.75 -2.95 M-0.1 -4.6 Q-0.3 -4.3 -0.7 -4.3 L-0.9 -4.65 -0.8 -5.55 -0.85 -6.1 -1.0 -6.05 -0.8 -7.0 -0.9 -7.55 -0.65 -7.85 Q-0.25 -7.85 -0.3 -6.85 -0.1 -6.6 -0.05 -6.2 L-0.3 -6.3 -0.25 -5.65 -0.15 -5.6 0.05 -5.65 0.05 -5.3 -0.1 -4.6 M-0.2 -3.25 L-0.85 -2.3 -1.7 -1.6 -2.1 -1.65 -3.5 -1.35 Q-6.3 -1.3 -6.4 -0.7 L-6.6 -0.75 -6.75 -0.8 -6.8 -0.8 -7.3 -0.55 Q-8.1 -1.05 -8.7 -1.15 -8.9 -1.2 -9.25 -1.6 L-9.35 -2.1 -9.35 -2.25 -9.25 -2.5 -9.2 -2.5 -9.0 -2.55 -8.2 -2.65 -6.85 -1.8 Q-6.6 -1.8 -6.6 -1.4 L-6.2 -1.55 Q-5.8 -1.55 -5.75 -1.35 L-5.2 -1.35 -5.05 -1.35 -4.6 -1.65 -2.4 -2.15 -1.45 -3.25 -1.05 -3.6 -0.85 -3.6 -0.35 -3.6 -0.25 -3.6 -0.35 -3.55 -0.2 -3.3 -0.2 -3.25 M7.45 6.55 L7.25 6.0 7.9 5.95 7.9 5.9 8.15 5.9 8.25 5.9 8.25 5.95 8.3 6.1 Q8.3 6.4 7.8 6.45 L7.75 6.5 7.75 6.45 7.45 6.55" fill="#f5b65f" fill-rule="evenodd" stroke="none"/>
    <path d="M3.3 -1.45 L3.4 -1.4 3.6 -1.25 Q0.5 -1.3 0.5 0.05 L0.75 0.55 0.95 0.45 1.1 0.6 1.1 0.7 1.45 0.7 1.6 0.6 2.95 0.3 3.0 0.35 3.35 0.35 3.35 0.25 Q4.8 0.35 6.45 1.55 L7.0 1.85 7.85 1.85 7.15 1.65 6.8 1.45 7.45 1.75 7.65 1.6 Q7.55 1.35 6.6 0.95 8.75 1.8 11.05 1.8 12.7 1.8 12.95 1.3 L13.1 1.25 Q14.2 0.75 14.2 0.5 L14.05 0.25 12.6 0.75 14.65 -0.25 Q12.8 4.7 8.55 5.8 L8.15 5.9 7.9 5.9 7.9 5.95 7.25 6.0 6.8 5.85 Q6.6 5.8 6.6 6.0 L6.6 6.05 Q4.8 6.05 3.0 5.2 1.2 4.3 0.65 3.3 L0.4 2.8 0.15 1.6 -0.15 2.8 Q-0.5 3.95 -2.35 5.0 L-2.8 5.05 -2.75 5.2 Q-4.2 5.9 -5.75 6.0 L-5.8 6.0 Q-5.85 5.75 -6.0 5.8 L-6.15 6.05 -8.3 5.8 -9.2 5.55 -9.25 5.4 -9.3 5.5 Q-12.3 4.25 -13.95 0.85 L-14.4 -0.25 -12.35 0.75 -10.85 1.05 -10.8 1.05 -10.45 1.0 Q-9.1 0.85 -7.25 -0.25 L-6.4 -0.65 -6.35 -0.45 -5.6 -0.55 -6.9 -0.1 Q-9.6 1.35 -10.6 1.35 -12.0 1.35 -12.6 0.85 L-13.8 0.35 -13.9 0.55 -13.6 0.95 -13.6 1.0 -12.5 1.85 -10.65 2.35 Q-8.9 2.35 -7.75 1.85 L-5.95 0.9 -4.0 0.05 -3.65 0.0 -4.25 0.45 -5.75 1.15 Q-9.05 2.9 -10.45 2.9 L-11.6 2.65 -11.75 2.7 -11.75 2.85 -9.8 3.35 Q-7.2 3.3 -2.45 0.5 L-1.8 0.45 -1.2 0.5 Q-2.0 0.55 -2.95 1.35 L-3.55 1.95 -6.55 3.55 -6.5 3.6 -3.85 2.25 -3.8 2.3 -3.45 2.0 -3.1 1.8 -3.1 1.75 Q-1.9 0.85 -0.65 0.8 L-0.65 0.7 -0.6 0.55 -0.65 0.3 -0.65 0.05 -0.25 0.7 -0.05 0.35 Q-0.05 -0.7 -2.25 -1.05 L-1.6 -1.1 Q-1.45 -1.25 -1.75 -1.3 L-1.7 -1.3 -1.15 -1.2 Q-0.1 -1.0 0.15 0.0 0.25 -0.55 0.65 -0.85 0.95 -1.1 1.4 -1.2 L3.3 -1.45 M6.15 0.75 L5.5 0.5 4.05 -0.05 4.1 -0.1 Q4.4 -0.1 6.15 0.75 M11.9 1.0 L11.65 1.1 11.7 1.05 11.9 1.0 M10.45 1.0 L10.4 1.0 10.25 0.95 10.45 1.0 M9.75 0.8 L7.2 -0.2 6.95 -0.45 7.0 -0.5 7.55 -0.25 Q8.75 0.45 9.75 0.8 M11.3 1.85 L11.25 1.9 11.45 1.95 11.65 1.9 11.3 1.85 M10.6 2.5 L10.45 2.5 9.3 2.8 Q7.15 2.8 6.0 1.9 4.85 0.95 2.95 0.95 L2.85 1.05 2.3 1.1 2.6 1.15 3.2 1.05 4.35 1.2 6.2 2.5 Q7.0 3.1 8.5 3.15 9.9 3.1 10.6 2.5 M10.6 1.95 L10.45 1.95 8.95 2.0 9.45 2.05 10.6 1.95 M5.15 3.15 L5.25 3.1 4.55 2.85 4.4 2.85 5.15 3.15 M0.15 0.0 L0.15 1.6 0.15 0.0 M-5.6 4.15 L-5.4 4.2 -3.75 3.75 -5.6 4.15" fill="#865f02" fill-rule="evenodd" stroke="none"/>
    <path d="M3.4 -1.4 L3.65 -1.7 5.1 -1.4 5.15 -1.4 5.9 -1.2 7.0 -0.6 7.0 -0.5 6.95 -0.45 7.2 -0.2 9.75 0.8 10.1 0.9 10.2 0.95 10.25 0.95 10.4 1.0 10.45 1.0 10.55 1.0 11.7 1.05 11.65 1.1 11.9 1.0 12.5 0.8 12.6 0.75 14.05 0.25 14.2 0.5 Q14.2 0.75 13.1 1.25 L12.95 1.3 11.5 1.75 8.35 1.2 7.05 0.65 6.65 0.45 Q5.0 -0.55 3.35 -0.55 L2.65 -0.5 4.05 -0.05 5.5 0.5 6.15 0.75 6.45 0.9 6.6 0.95 Q7.55 1.35 7.65 1.6 L7.45 1.75 6.8 1.45 5.35 0.8 2.7 -0.25 1.2 0.1 0.95 0.45 0.75 0.55 0.5 0.05 Q0.5 -1.3 3.6 -1.25 L3.4 -1.4 M-5.6 -0.55 L-5.1 -0.6 -2.7 -1.0 -2.25 -1.05 Q-0.05 -0.7 -0.05 0.35 L-0.25 0.7 -0.65 0.05 -0.85 -0.05 -1.1 0.0 -2.2 -0.2 Q-3.0 -0.2 -5.1 1.15 L-5.15 1.1 -4.25 0.45 -3.65 0.0 -2.7 -0.5 -2.8 -0.5 Q-4.6 -0.5 -7.15 0.7 -9.75 1.85 -10.6 1.9 -12.7 1.9 -13.6 0.95 L-13.9 0.55 -13.8 0.35 -12.6 0.85 Q-12.0 1.35 -10.6 1.35 -9.6 1.35 -6.9 -0.1 L-5.6 -0.55" fill="#b07c02" fill-rule="evenodd" stroke="none"/>
    <path d="M0.95 0.45 L1.2 0.1 2.7 -0.25 5.35 0.8 6.8 1.45 7.15 1.65 7.85 1.85 7.0 1.85 6.45 1.55 Q4.8 0.35 3.35 0.25 L3.35 0.35 3.0 0.35 2.95 0.3 1.6 0.6 1.45 0.7 1.1 0.7 1.1 0.6 0.95 0.45 M6.6 0.95 L6.45 0.9 6.15 0.75 Q4.4 -0.1 4.1 -0.1 L4.05 -0.05 2.65 -0.5 3.35 -0.55 Q5.0 -0.55 6.65 0.45 L7.05 0.65 8.35 1.2 11.5 1.75 12.95 1.3 Q12.7 1.8 11.05 1.8 8.75 1.8 6.6 0.95 M10.6 1.95 L9.45 2.05 8.95 2.0 10.45 1.95 10.6 1.95 M10.6 2.5 Q9.9 3.1 8.5 3.15 7.0 3.1 6.2 2.5 L4.35 1.2 3.2 1.05 2.6 1.15 2.3 1.1 2.85 1.05 2.95 0.95 Q4.85 0.95 6.0 1.9 7.15 2.8 9.3 2.8 L10.45 2.5 10.6 2.5 M11.3 1.85 L11.65 1.9 11.45 1.95 11.25 1.9 11.3 1.85 M5.15 3.15 L4.4 2.85 4.55 2.85 5.25 3.1 5.15 3.15 M-13.6 0.95 Q-12.7 1.9 -10.6 1.9 -9.75 1.85 -7.15 0.7 -4.6 -0.5 -2.8 -0.5 L-2.7 -0.5 -3.65 0.0 -4.0 0.05 -5.95 0.9 -7.75 1.85 Q-8.9 2.35 -10.65 2.35 L-12.5 1.85 -13.6 1.0 -13.6 0.95 M-4.25 0.45 L-5.15 1.1 -5.1 1.15 Q-3.0 -0.2 -2.2 -0.2 L-1.1 0.0 -0.85 -0.05 -0.65 0.05 -0.65 0.3 -0.6 0.55 -0.65 0.7 -0.65 0.8 Q-1.9 0.85 -3.1 1.75 L-3.1 1.8 -3.45 2.0 -3.8 2.3 -3.85 2.25 -6.5 3.6 -6.55 3.55 -3.55 1.95 -2.95 1.35 Q-2.0 0.55 -1.2 0.5 L-1.8 0.45 -2.45 0.5 Q-7.2 3.3 -9.8 3.35 L-11.75 2.85 -11.75 2.7 -11.6 2.65 -10.45 2.9 Q-9.05 2.9 -5.75 1.15 L-4.25 0.45 M-5.6 4.15 L-3.75 3.75 -5.4 4.2 -5.6 4.15" fill="#956902" fill-rule="evenodd" stroke="none"/>
    <path d="M-1.7 -1.6 L-1.55 -1.4 -1.7 -1.3 -1.75 -1.3 Q-1.45 -1.25 -1.6 -1.1 L-2.25 -1.05 -2.7 -1.0 -5.1 -0.6 -5.6 -0.55 -6.35 -0.45 -6.4 -0.65 -6.4 -0.7 Q-6.3 -1.3 -3.5 -1.35 L-2.1 -1.65 -1.7 -1.6" fill="#453101" fill-rule="evenodd" stroke="none"/>
    <path d="M6.6 6.05 L6.85 6.65 6.9 6.9 4.2 7.05 2.9 6.0 Q1.3 5.05 -0.2 5.05 L-1.1 5.15 -2.05 4.95 -2.35 5.0 Q-0.5 3.95 -0.15 2.8 L0.15 1.6 0.4 2.8 0.65 3.3 Q1.2 4.3 3.0 5.2 4.8 6.05 6.6 6.05" fill="#6d2201" fill-rule="evenodd" stroke="none"/>
    <path d="M-2.75 5.2 Q-2.5 5.5 -0.8 5.85 L0.55 6.9 0.8 6.65 Q0.8 6.2 -0.25 5.6 L-0.55 5.45 -0.5 5.35 Q0.9 5.35 2.4 6.15 3.1 6.45 3.65 7.05 0.0 7.25 -1.2 7.85 L-4.9 8.95 Q-5.55 8.95 -5.75 8.0 L-5.9 6.65 -5.8 6.15 -5.8 6.0 -5.75 6.0 Q-4.2 5.9 -2.75 5.2" fill="#bf3a02" fill-rule="evenodd" stroke="none"/>
    <path d="M-12.45 -8.45 L-10.65 -10.65 Q-6.2 -14.95 0.0 -14.95 L0.6 -14.95 Q6.4 -14.75 10.6 -10.65 L10.75 -10.45 Q15.0 -6.15 15.0 -0.1 15.0 3.75 13.2 6.95 M13.15 7.05 Q12.15 8.85 10.6 10.35 6.2 14.75 0.0 14.75 -6.2 14.75 -10.65 10.35 -12.85 8.2 -13.95 5.55 -15.0 2.9 -15.0 -0.1 -15.0 -3.1 -13.95 -5.7 L-12.45 -8.45" fill="none" stroke="#865204" stroke-linecap="round" stroke-linejoin="round" stroke-width="0.5"/>
    <path d="M-12.45 -8.45 L-9.6 -8.4 M-9.4 -8.45 Q-7.0 -8.8 -4.2 -10.25 -2.25 -11.4 -0.75 -13.05 L0.6 -14.95 M-1.7 -1.3 L-1.15 -1.2 Q-0.1 -1.0 0.15 0.0 0.25 -0.55 0.65 -0.85 0.95 -1.1 1.4 -1.2 L3.3 -1.45 M12.6 0.75 L12.5 0.8 11.9 1.0 11.7 1.05 10.55 1.0 10.45 1.0 10.25 0.95 10.2 0.95 10.1 0.9 9.75 0.8 Q8.75 0.45 7.55 -0.25 L7.0 -0.5 M-0.75 -13.05 Q3.65 -10.6 8.0 -10.25 L10.75 -10.45 M7.25 6.0 L7.9 5.95 M8.15 5.9 L8.55 5.8 Q12.8 4.7 14.65 -0.25 L12.6 0.75 M6.6 6.05 Q4.8 6.05 3.0 5.2 1.2 4.3 0.65 3.3 L0.4 2.8 0.15 1.6 -0.15 2.8 Q-0.5 3.95 -2.35 5.0 M0.15 1.6 L0.15 0.0 M-6.4 -0.65 L-7.25 -0.25 Q-9.1 0.85 -10.45 1.0 L-10.8 1.05 -10.85 1.05 -12.35 0.75 -14.4 -0.25 -13.95 0.85 Q-12.3 4.25 -9.3 5.5 M-9.2 5.55 L-8.3 5.8 -6.15 6.05 M-2.75 5.2 Q-4.2 5.9 -5.75 6.0 L-5.8 6.0" fill="none" stroke="#453101" stroke-linecap="round" stroke-linejoin="round" stroke-width="0.5"/>
  </g>
</svg>
