<?xml version="1.0" encoding="UTF-8" standalone="no"?>
<svg xmlns:xlink="http://www.w3.org/1999/xlink" height="30.5px" width="30.5px" xmlns="http://www.w3.org/2000/svg">
  <g transform="matrix(1.0, 0.0, 0.0, 1.0, 15.25, 15.25)">
    <path d="M1.15 -14.3 L1.05 -14.15 3.6 -13.35 3.7 -13.4 1.25 -14.25 1.35 -14.25 4.15 -13.7 6.1 -12.7 9.2 -10.55 Q9.5 -10.55 9.5 -10.9 L8.45 -11.95 6.95 -12.85 Q3.25 -14.7 1.45 -14.6 L0.75 -14.5 1.15 -14.3 M-12.45 -8.4 L-10.65 -10.65 Q-6.2 -15.0 0.0 -15.0 L0.6 -15.0 Q6.4 -14.8 10.6 -10.65 L10.75 -10.45 8.0 -10.3 Q3.65 -10.6 -0.75 -13.1 -2.25 -11.4 -4.2 -10.3 -7.0 -8.8 -9.4 -8.4 L-9.4 -8.45 -9.6 -8.35 -12.45 -8.4 M0.6 -15.0 L-0.75 -13.1 0.6 -15.0 M-0.25 -14.7 Q-0.2 -14.9 -0.45 -14.9 L-0.75 -14.8 -1.2 -14.9 Q-2.35 -14.9 -4.95 -13.85 L-7.9 -12.4 -9.7 -10.95 Q-11.3 -9.45 -11.3 -8.95 -11.3 -8.6 -11.05 -8.6 L-7.4 -12.0 -6.0 -12.75 Q-5.6 -13.05 -4.3 -13.35 L-1.1 -14.45 -0.85 -14.5 Q-5.0 -13.05 -6.4 -11.9 L-6.3 -11.85 Q-4.75 -12.85 -3.2 -13.25 L-1.25 -13.95 -2.4 -13.2 -4.8 -12.1 Q-6.95 -10.85 -8.7 -9.1 L-8.45 -9.1 Q-6.75 -11.0 -4.45 -12.0 L-1.85 -13.05 Q0.0 -13.9 0.0 -14.4 L-0.2 -14.7 -0.25 -14.65 -0.25 -14.7 M-8.2 -10.7 L-8.15 -10.65 -7.85 -10.85 -8.2 -10.7 M-6.4 -11.3 L-6.6 -11.35 -8.45 -10.25 -8.45 -10.3 -8.7 -10.1 -9.85 -8.85 -9.65 -8.8 Q-8.85 -10.2 -6.4 -11.3" fill="#775402" fill-rule="evenodd" stroke="none"/>
    <path d="M1.15 -14.3 L0.75 -14.5 1.45 -14.6 Q3.25 -14.7 6.95 -12.85 L8.45 -11.95 9.5 -10.9 Q9.5 -10.55 9.2 -10.55 L6.1 -12.7 4.15 -13.7 1.35 -14.25 1.25 -14.25 3.7 -13.4 3.6 -13.35 1.05 -14.15 1.15 -14.3 M-0.25 -14.7 L-0.25 -14.65 -0.2 -14.7 0.0 -14.4 Q0.0 -13.9 -1.85 -13.05 L-4.45 -12.0 Q-6.75 -11.0 -8.45 -9.1 L-8.7 -9.1 Q-6.95 -10.85 -4.8 -12.1 L-2.4 -13.2 -1.25 -13.95 -3.2 -13.25 Q-4.75 -12.85 -6.3 -11.85 L-6.4 -11.9 Q-5.0 -13.05 -0.85 -14.5 L-1.1 -14.45 -4.3 -13.35 Q-5.6 -13.05 -6.0 -12.75 L-7.4 -12.0 -11.05 -8.6 Q-11.3 -8.6 -11.3 -8.95 -11.3 -9.45 -9.7 -10.95 L-7.9 -12.4 -4.95 -13.85 Q-2.35 -14.9 -1.2 -14.9 L-0.75 -14.8 -0.45 -14.9 Q-0.2 -14.9 -0.25 -14.7 M-6.4 -11.3 Q-8.85 -10.2 -9.65 -8.8 L-9.85 -8.85 -8.7 -10.1 -8.45 -10.3 -8.45 -10.25 -6.6 -11.35 -6.4 -11.3 M-8.2 -10.7 L-7.85 -10.85 -8.15 -10.65 -8.2 -10.7" fill="#916602" fill-rule="evenodd" stroke="none"/>
    <path d="M10.75 -10.45 Q15.0 -6.1 15.0 0.0 15.0 3.9 13.2 7.1 L13.05 7.1 9.55 9.9 7.45 10.95 4.6 11.4 -0.05 11.9 Q-5.0 11.9 -7.85 8.0 L-6.95 8.2 Q-3.8 8.2 -1.55 6.6 L0.05 5.2 0.65 5.2 1.45 5.9 Q2.85 6.95 4.55 6.95 L7.75 6.65 7.75 6.7 7.8 6.65 8.3 6.25 8.25 6.1 8.25 6.05 8.15 6.05 8.55 5.95 Q12.8 4.85 14.65 -0.15 L12.6 0.85 12.5 0.9 11.9 1.15 11.7 1.15 10.55 1.1 Q9.25 0.85 7.55 -0.15 7.05 -0.4 6.6 -0.6 11.0 -0.85 11.0 -4.3 11.0 -5.8 9.4 -7.0 7.8 -8.25 5.85 -8.25 1.55 -8.25 1.55 -5.0 1.55 -3.9 2.45 -2.55 L3.5 -1.35 1.4 -1.15 Q0.95 -1.05 0.65 -0.75 0.25 -0.45 0.15 0.1 -0.1 -0.9 -1.15 -1.15 L-2.35 -1.3 -2.2 -1.4 Q0.05 -2.5 0.05 -4.35 0.05 -5.65 -0.75 -7.0 -1.75 -8.7 -3.1 -8.7 -9.65 -8.7 -9.65 -3.55 -9.65 -0.95 -6.3 -0.65 L-7.25 -0.15 Q-9.1 0.95 -10.45 1.15 L-10.8 1.15 -10.7 1.1 -10.7 0.95 Q-11.45 0.1 -11.45 -1.6 -11.45 -3.35 -11.05 -5.05 L-9.4 -8.4 Q-7.0 -8.8 -4.2 -10.3 -2.25 -11.4 -0.75 -13.1 3.65 -10.6 8.0 -10.3 L10.75 -10.45 M9.35 -6.25 L10.25 -4.95 8.05 -5.2 2.2 -5.45 2.4 -6.2 Q2.65 -6.85 3.1 -7.1 3.6 -8.0 5.8 -7.7 L6.4 -7.45 Q8.3 -7.25 9.35 -6.25 M0.8 6.45 L0.75 6.45 -0.3 6.85 -1.05 6.95 -0.95 7.1 -1.35 7.25 Q-1.2 7.7 -0.5 7.6 1.15 7.4 0.8 6.45 M-4.95 -8.0 L-4.35 -8.1 Q-1.75 -8.1 -1.2 -6.5 L-0.8 -5.4 -8.8 -5.45 -8.25 -6.3 -7.35 -7.3 Q-6.35 -8.05 -5.15 -8.05 L-4.95 -8.0" fill="#f8c887" fill-rule="evenodd" stroke="none"/>
    <path d="M9.35 -6.25 Q8.3 -7.25 6.4 -7.45 L5.8 -7.7 Q3.6 -8.0 3.1 -7.1 2.65 -6.85 2.4 -6.2 L2.2 -5.45 8.05 -5.2 10.25 -4.95 9.35 -6.25 M3.5 -1.35 L2.45 -2.55 Q1.55 -3.9 1.55 -5.0 1.55 -8.25 5.85 -8.25 7.8 -8.25 9.4 -7.0 11.0 -5.8 11.0 -4.3 11.0 -0.85 6.6 -0.6 L6.5 -0.6 5.9 -0.6 Q4.7 -0.6 3.75 -1.2 L3.5 -1.35 M0.65 5.2 L0.05 5.2 -2.1 5.25 -2.15 5.2 Q-2.0 4.9 -1.65 4.85 L-1.55 4.7 -1.45 4.65 -1.35 4.6 -0.8 4.3 1.1 4.35 1.35 4.45 1.25 4.5 1.55 4.6 1.6 4.65 1.7 4.75 1.65 4.75 1.65 4.8 1.95 4.8 2.15 4.85 2.35 5.0 2.45 5.15 0.65 5.2 M2.15 -5.15 L2.15 -5.0 Q2.15 -4.1 3.05 -2.85 4.2 -1.2 5.9 -1.2 10.35 -1.2 10.35 -4.3 L10.3 -4.7 Q7.85 -4.4 5.3 -4.6 3.65 -4.7 2.15 -5.15 M0.8 6.45 Q1.15 7.4 -0.5 7.6 -1.2 7.7 -1.35 7.25 L-0.95 7.1 -1.05 6.95 -0.3 6.85 0.75 6.45 0.8 6.45 M-4.95 -8.0 L-5.15 -8.05 Q-6.35 -8.05 -7.35 -7.3 L-8.25 -6.3 -8.8 -5.45 -0.8 -5.4 -1.2 -6.5 Q-1.75 -8.1 -4.35 -8.1 L-4.95 -8.0 M-6.3 -0.65 Q-9.65 -0.95 -9.65 -3.55 -9.65 -8.7 -3.1 -8.7 -1.75 -8.7 -0.75 -7.0 0.05 -5.65 0.05 -4.35 0.05 -2.5 -2.2 -1.4 L-2.35 -1.3 -3.05 -1.05 -5.2 -0.6 -5.45 -0.6 -5.7 -0.6 -6.3 -0.65 M-8.9 -4.95 L-9.05 -3.8 Q-9.05 -1.2 -5.7 -1.2 -3.35 -1.2 -1.8 -2.5 -0.55 -3.65 -0.55 -4.35 L-0.65 -5.05 Q-4.8 -4.95 -8.9 -5.0 L-8.9 -4.95" fill="#000000" fill-rule="evenodd" stroke="none"/>
    <path d="M2.15 -5.15 Q3.65 -4.7 5.3 -4.6 7.85 -4.4 10.3 -4.7 L10.35 -4.3 Q10.35 -1.2 5.9 -1.2 4.2 -1.2 3.05 -2.85 2.15 -4.1 2.15 -5.0 L2.15 -5.15 M-8.9 -4.95 L-8.9 -5.0 Q-4.8 -4.95 -0.65 -5.05 L-0.55 -4.35 Q-0.55 -3.65 -1.8 -2.5 -3.35 -1.2 -5.7 -1.2 -9.05 -1.2 -9.05 -3.8 L-8.9 -4.95" fill="#ffffff" fill-rule="evenodd" stroke="none"/>
    <path d="M10.55 1.1 L11.7 1.15 11.65 1.2 11.9 1.15 12.5 0.9 12.6 0.85 14.05 0.35 14.2 0.55 13.1 1.35 12.95 1.4 11.5 1.85 8.35 1.3 7.05 0.75 6.65 0.5 Q5.0 -0.5 3.35 -0.5 L2.65 -0.45 4.05 0.05 5.5 0.6 6.15 0.85 6.45 1.0 7.65 1.75 7.45 1.85 6.8 1.6 5.35 0.9 2.7 -0.15 1.2 0.25 0.95 0.55 0.75 0.65 0.5 0.15 Q0.5 -1.2 3.65 -1.2 L3.75 -1.2 Q4.7 -0.6 5.9 -0.6 L6.5 -0.6 7.2 -0.1 Q7.65 0.3 10.4 1.1 L10.55 1.1 M-5.2 -0.6 L-3.05 -1.05 -2.7 -1.05 Q-0.05 -0.75 -0.05 0.45 L-0.25 0.8 -0.65 0.2 -0.85 0.05 -1.1 0.1 -2.2 -0.1 Q-3.0 -0.1 -5.1 1.25 L-5.15 1.2 -4.25 0.5 -3.65 0.1 -2.7 -0.4 -2.8 -0.4 Q-4.6 -0.4 -7.15 0.8 -9.75 2.0 -10.6 2.0 -12.7 2.0 -13.6 1.05 L-13.9 0.65 -13.8 0.45 -12.6 0.95 Q-12.0 1.45 -10.6 1.45 -9.6 1.45 -6.9 0.0 L-5.2 -0.6" fill="#b07c02" fill-rule="evenodd" stroke="none"/>
    <path d="M4.05 0.05 L2.65 -0.45 3.35 -0.5 Q5.0 -0.5 6.65 0.5 L7.05 0.75 8.35 1.3 11.5 1.85 12.95 1.4 Q12.7 1.9 11.05 1.9 8.7 1.9 6.45 1.0 L6.15 0.85 Q4.4 0.0 4.1 0.0 L4.05 0.05 M0.95 0.55 L1.2 0.25 2.7 -0.15 5.35 0.9 6.8 1.6 7.15 1.8 7.85 2.0 7.0 1.95 6.45 1.7 Q4.8 0.45 3.35 0.35 L3.35 0.45 3.0 0.45 2.95 0.4 2.9 0.4 1.6 0.7 1.45 0.8 1.1 0.8 1.1 0.7 0.95 0.55 M11.3 1.95 L11.65 2.0 11.45 2.05 11.25 2.0 11.3 1.95 M10.6 2.65 Q9.9 3.25 8.5 3.25 7.0 3.25 6.2 2.6 L4.35 1.3 3.2 1.15 2.6 1.25 2.3 1.2 2.85 1.15 2.95 1.05 Q4.85 1.05 6.0 2.0 7.15 2.9 9.3 2.9 L10.45 2.6 10.6 2.65 M10.6 2.05 L9.45 2.2 8.85 2.1 10.45 2.05 10.6 2.05 M5.15 3.25 L4.4 2.95 4.55 2.95 5.25 3.2 5.15 3.25 M-13.6 1.05 Q-12.7 2.0 -10.6 2.0 -9.75 2.0 -7.15 0.8 -4.6 -0.4 -2.8 -0.4 L-2.7 -0.4 -3.65 0.1 -4.0 0.15 -5.95 1.0 -7.75 1.95 -10.65 2.5 Q-11.4 2.5 -12.5 1.95 L-13.6 1.1 -13.6 1.05 M-4.25 0.5 L-5.15 1.2 -5.1 1.25 Q-3.0 -0.1 -2.2 -0.1 L-1.1 0.1 -0.85 0.05 -0.65 0.2 -0.65 0.4 -0.6 0.65 -0.65 0.8 -0.65 0.9 Q-1.9 1.0 -3.1 1.9 L-3.45 2.15 -3.8 2.4 -3.85 2.35 Q-6.15 3.7 -6.5 3.75 L-6.55 3.7 -3.55 2.1 -2.95 1.45 Q-1.95 0.6 -1.1 0.6 L-1.2 0.55 -1.8 0.5 -2.45 0.6 Q-7.2 3.45 -9.8 3.45 L-11.75 2.95 -11.75 2.8 -11.6 2.75 -10.45 3.0 Q-9.05 3.0 -5.75 1.25 L-4.25 0.5 M-5.6 4.3 L-3.75 3.85 Q-4.55 4.35 -5.4 4.35 L-5.6 4.3" fill="#956902" fill-rule="evenodd" stroke="none"/>
    <path d="M6.6 -0.6 Q7.05 -0.4 7.55 -0.15 9.25 0.85 10.55 1.1 L10.4 1.1 Q7.65 0.3 7.2 -0.1 L6.5 -0.6 6.6 -0.6 M11.7 1.15 L11.9 1.15 11.65 1.2 11.7 1.15 M12.6 0.85 L14.65 -0.15 Q12.8 4.85 8.55 5.95 L8.15 6.05 7.9 6.05 7.9 6.1 Q5.4 6.55 3.0 5.35 L2.35 5.0 2.15 4.85 Q1.05 4.15 0.65 3.4 L0.4 2.9 0.15 1.75 0.15 0.1 0.15 1.75 -0.15 2.9 Q-0.55 4.2 -2.75 5.35 -4.2 6.1 -5.75 6.2 L-8.3 5.95 -9.2 5.7 -9.25 5.55 -9.3 5.65 Q-12.75 4.2 -14.4 -0.15 L-12.35 0.85 -10.85 1.15 -10.8 1.15 -10.45 1.15 Q-9.1 0.95 -7.25 -0.15 L-6.3 -0.65 -5.7 -0.6 -5.45 -0.6 -5.2 -0.6 -6.9 0.0 Q-9.6 1.45 -10.6 1.45 -12.0 1.45 -12.6 0.95 L-13.8 0.45 -13.9 0.65 -13.6 1.05 -13.6 1.1 -12.5 1.95 Q-11.4 2.5 -10.65 2.5 L-7.75 1.95 -5.95 1.0 -4.0 0.15 -3.65 0.1 -4.25 0.5 -5.75 1.25 Q-9.05 3.0 -10.45 3.0 L-11.6 2.75 -11.75 2.8 -11.75 2.95 -9.8 3.45 Q-7.2 3.45 -2.45 0.6 L-1.8 0.5 -1.2 0.55 -1.1 0.6 Q-1.95 0.6 -2.95 1.45 L-3.55 2.1 -6.55 3.7 -6.5 3.75 Q-6.15 3.7 -3.85 2.35 L-3.8 2.4 -3.45 2.15 -3.1 1.9 Q-1.9 1.0 -0.65 0.9 L-0.65 0.8 -0.6 0.65 -0.65 0.4 -0.65 0.2 -0.25 0.8 -0.05 0.45 Q-0.05 -0.75 -2.7 -1.05 L-3.05 -1.05 -2.35 -1.3 -1.15 -1.15 Q-0.1 -0.9 0.15 0.1 0.25 -0.45 0.65 -0.75 0.95 -1.05 1.4 -1.15 L3.5 -1.35 3.75 -1.2 3.65 -1.2 Q0.5 -1.2 0.5 0.15 L0.75 0.65 0.95 0.55 1.1 0.7 1.1 0.8 1.45 0.8 1.6 0.7 2.9 0.4 2.95 0.4 3.0 0.45 3.35 0.45 3.35 0.35 Q4.8 0.45 6.45 1.7 L7.0 1.95 7.85 2.0 7.15 1.8 6.8 1.6 7.45 1.85 7.65 1.75 6.45 1.0 Q8.7 1.9 11.05 1.9 12.7 1.9 12.95 1.4 L13.1 1.35 14.2 0.55 14.05 0.35 12.6 0.85 M4.05 0.05 L4.1 0.0 Q4.4 0.0 6.15 0.85 L5.5 0.6 4.05 0.05 M10.6 2.05 L10.45 2.05 8.85 2.1 9.45 2.2 10.6 2.05 M10.6 2.65 L10.45 2.6 9.3 2.9 Q7.15 2.9 6.0 2.0 4.85 1.05 2.95 1.05 L2.85 1.15 2.3 1.2 2.6 1.25 3.2 1.15 4.35 1.3 6.2 2.6 Q7.0 3.25 8.5 3.25 9.9 3.25 10.6 2.65 M11.3 1.95 L11.25 2.0 11.45 2.05 11.65 2.0 11.3 1.95 M5.15 3.25 L5.25 3.2 4.55 2.95 4.4 2.95 5.15 3.25 M-5.6 4.3 L-5.4 4.35 Q-4.55 4.35 -3.75 3.85 L-5.6 4.3" fill="#865f02" fill-rule="evenodd" stroke="none"/>
    <path d="M13.2 7.1 L13.25 7.1 13.15 7.2 Q12.15 9.0 10.6 10.6 6.2 15.0 0.0 15.0 -6.2 15.0 -10.65 10.6 -15.0 6.2 -15.0 0.0 -15.0 -4.7 -12.45 -8.4 L-9.6 -8.35 -9.4 -8.45 -9.4 -8.4 -11.05 -5.05 Q-11.45 -3.35 -11.45 -1.6 -11.45 0.1 -10.7 0.95 L-10.7 1.1 -10.8 1.15 -10.85 1.15 -12.35 0.85 -14.4 -0.15 Q-12.75 4.2 -9.3 5.65 L-9.25 5.55 -9.2 5.7 -8.3 5.95 -5.75 6.2 Q-4.2 6.1 -2.75 5.35 -0.55 4.2 -0.15 2.9 L0.15 1.75 0.4 2.9 0.65 3.4 Q1.05 4.15 2.15 4.85 L1.95 4.8 1.65 4.8 1.65 4.75 1.7 4.75 1.6 4.65 1.55 4.6 1.25 4.5 1.35 4.45 1.1 4.35 -0.8 4.3 -1.35 4.6 -1.45 4.65 -1.55 4.7 -1.65 4.85 Q-2.0 4.9 -2.15 5.2 L-2.1 5.25 0.05 5.2 -1.55 6.6 Q-3.8 8.2 -6.95 8.2 L-7.85 8.0 Q-5.0 11.9 -0.05 11.9 L4.6 11.4 7.45 10.95 9.55 9.9 13.05 7.1 13.2 7.1 M8.15 6.05 L8.25 6.05 8.25 6.1 8.3 6.25 7.8 6.65 7.75 6.7 7.75 6.65 4.55 6.95 Q2.85 6.95 1.45 5.9 L0.65 5.2 2.45 5.15 2.35 5.0 3.0 5.35 Q5.4 6.55 7.9 6.1 L7.9 6.05 8.15 6.05" fill="#f5b65f" fill-rule="evenodd" stroke="none"/>
    <path d="M-12.45 -8.4 L-10.65 -10.65 Q-6.2 -15.0 0.0 -15.0 L0.6 -15.0 Q6.4 -14.8 10.6 -10.65 L10.75 -10.45 Q15.0 -6.1 15.0 0.0 15.0 3.9 13.2 7.1 M13.15 7.2 Q12.15 9.0 10.6 10.6 6.2 15.0 0.0 15.0 -6.2 15.0 -10.65 10.6 -15.0 6.2 -15.0 0.0 -15.0 -4.7 -12.45 -8.4" fill="none" stroke="#865204" stroke-linecap="round" stroke-linejoin="round" stroke-width="0.5"/>
    <path d="M-12.45 -8.4 L-9.6 -8.35 M-9.4 -8.4 Q-7.0 -8.8 -4.2 -10.3 -2.25 -11.4 -0.75 -13.1 L0.6 -15.0 M6.6 -0.6 Q7.05 -0.4 7.55 -0.15 9.25 0.85 10.55 1.1 L11.7 1.15 11.9 1.15 12.5 0.9 12.6 0.85 14.65 -0.15 Q12.8 4.85 8.55 5.95 L8.15 6.05 M3.5 -1.35 L1.4 -1.15 Q0.95 -1.05 0.65 -0.75 0.25 -0.45 0.15 0.1 L0.15 1.75 0.4 2.9 0.65 3.4 Q1.05 4.15 2.15 4.85 L2.35 5.0 3.0 5.35 Q5.4 6.55 7.9 6.1 M-0.75 -13.1 Q3.65 -10.6 8.0 -10.3 L10.75 -10.45 M-2.35 -1.3 L-1.15 -1.15 Q-0.1 -0.9 0.15 0.1 M-6.3 -0.65 L-7.25 -0.15 Q-9.1 0.95 -10.45 1.15 L-10.8 1.15 -10.85 1.15 -12.35 0.85 -14.4 -0.15 Q-12.75 4.2 -9.3 5.65 M-9.2 5.7 L-8.3 5.95 -5.75 6.2 Q-4.2 6.1 -2.75 5.35 -0.55 4.2 -0.15 2.9 L0.15 1.75" fill="none" stroke="#453101" stroke-linecap="round" stroke-linejoin="round" stroke-width="0.5"/>
  </g>
</svg>
