<?xml version="1.0" encoding="UTF-8" standalone="no"?>
<svg xmlns:xlink="http://www.w3.org/1999/xlink" height="31.0px" width="43.4px" xmlns="http://www.w3.org/2000/svg">
  <g transform="matrix(1.0, 0.0, 0.0, 1.0, 22.05, 14.75)">
    <path d="M18.3 -3.2 Q17.05 -3.2 16.25 -3.95 15.4 -4.75 15.4 -6.0 15.4 -7.1 16.25 -7.95 17.05 -8.8 18.3 -8.8 19.4 -8.8 20.25 -7.95 21.1 -7.1 21.1 -6.0 21.1 -4.75 20.25 -3.95 19.4 -3.2 18.3 -3.2 M-20.85 -3.55 Q-21.8 -4.5 -21.8 -5.9 -21.8 -7.3 -20.85 -8.25 -19.85 -9.2 -18.5 -9.2 -17.1 -9.2 -16.2 -8.25 -15.25 -7.3 -15.25 -5.9 -15.25 -4.5 -16.2 -3.55 -17.1 -2.6 -18.5 -2.6 -19.85 -2.6 -20.85 -3.55" fill="#f8c887" fill-rule="evenodd" stroke="none"/>
    <path d="M18.3 -3.2 Q17.05 -3.2 16.25 -3.95 15.4 -4.75 15.4 -6.0 15.4 -7.1 16.25 -7.95 17.05 -8.8 18.3 -8.8 19.4 -8.8 20.25 -7.95 21.1 -7.1 21.1 -6.0 21.1 -4.75 20.25 -3.95 19.4 -3.2 18.3 -3.2 M-20.85 -3.55 Q-21.8 -4.5 -21.8 -5.9 -21.8 -7.3 -20.85 -8.25 -19.85 -9.2 -18.5 -9.2 -17.1 -9.2 -16.2 -8.25 -15.25 -7.3 -15.25 -5.9 -15.25 -4.5 -16.2 -3.55 -17.1 -2.6 -18.5 -2.6 -19.85 -2.6 -20.85 -3.55" fill="none" stroke="#865204" stroke-linecap="round" stroke-linejoin="round" stroke-width="0.5"/>
    <path d="M-12.6 -7.75 L-10.85 -10.1 Q-6.25 -14.5 0.0 -14.5 L0.7 -14.5 Q6.6 -14.35 10.8 -10.1 L11.0 -9.9 8.15 -9.75 Q3.75 -10.0 -0.75 -12.65 -2.2 -10.85 -4.3 -9.75 -7.1 -8.25 -9.55 -7.75 L-9.55 -7.85 -9.7 -7.75 Q-11.3 -7.6 -12.6 -7.75 M0.7 -14.5 L-0.75 -12.65 0.7 -14.5 M1.5 -14.15 L0.75 -14.05 1.25 -13.85 1.05 -13.65 3.7 -12.85 3.75 -12.9 1.35 -13.75 1.45 -13.75 4.25 -13.2 6.2 -12.15 9.4 -10.0 9.65 -10.4 8.65 -11.4 7.15 -12.35 Q3.3 -14.25 1.5 -14.15 M-0.75 -14.35 L-1.2 -14.4 Q-2.3 -14.4 -5.05 -13.4 L-8.05 -11.9 -9.8 -10.4 Q-11.5 -8.9 -11.5 -8.35 L-11.2 -8.05 -7.45 -11.5 -6.05 -12.25 -4.4 -12.85 -1.1 -13.95 Q-5.15 -12.55 -6.45 -11.4 L-6.35 -11.35 Q-4.85 -12.35 -3.25 -12.75 L-1.2 -13.5 -2.4 -12.75 -4.85 -11.6 Q-7.0 -10.3 -8.8 -8.5 L-8.6 -8.5 Q-6.8 -10.5 -4.45 -11.5 L-1.85 -12.55 Q0.0 -13.4 0.0 -13.95 0.0 -14.25 -0.15 -14.25 L-0.25 -14.15 -0.25 -14.25 -0.45 -14.4 -0.75 -14.35 M-8.2 -10.1 L-8.05 -10.2 -8.3 -10.1 -8.2 -10.1 M-6.45 -10.75 L-6.7 -10.85 -8.6 -9.75 -8.8 -9.55 -10.0 -8.25 -9.8 -8.25 Q-8.95 -9.65 -6.45 -10.75" fill="#775402" fill-rule="evenodd" stroke="none"/>
    <path d="M1.5 -14.15 Q3.3 -14.25 7.15 -12.35 L8.65 -11.4 9.65 -10.4 9.4 -10.0 6.2 -12.15 4.25 -13.2 1.45 -13.75 1.35 -13.75 3.75 -12.9 3.7 -12.85 1.05 -13.65 1.25 -13.85 0.75 -14.05 1.5 -14.15 M-0.75 -14.35 L-0.45 -14.4 -0.25 -14.25 -0.25 -14.15 -0.15 -14.25 Q0.0 -14.25 0.0 -13.95 0.0 -13.4 -1.85 -12.55 L-4.45 -11.5 Q-6.8 -10.5 -8.6 -8.5 L-8.8 -8.5 Q-7.0 -10.3 -4.85 -11.6 L-2.4 -12.75 -1.2 -13.5 -3.25 -12.75 Q-4.85 -12.35 -6.35 -11.35 L-6.45 -11.4 Q-5.15 -12.55 -1.1 -13.95 L-4.4 -12.85 -6.05 -12.25 -7.45 -11.5 -11.2 -8.05 -11.5 -8.35 Q-11.5 -8.9 -9.8 -10.4 L-8.05 -11.9 -5.05 -13.4 Q-2.3 -14.4 -1.2 -14.4 L-0.75 -14.35 M-6.45 -10.75 Q-8.95 -9.65 -9.8 -8.25 L-10.0 -8.25 -8.8 -9.55 -8.6 -9.75 -6.7 -10.85 -6.45 -10.75 M-8.2 -10.1 L-8.3 -10.1 -8.05 -10.2 -8.2 -10.1" fill="#916602" fill-rule="evenodd" stroke="none"/>
    <path d="M3.6 -0.65 Q3.0 -1.1 2.55 -1.85 1.6 -3.25 1.6 -4.4 1.6 -7.7 6.0 -7.7 8.0 -7.7 9.6 -6.35 11.25 -5.15 11.25 -3.65 11.25 -0.1 6.75 0.1 L6.65 0.1 6.0 0.1 Q4.8 0.1 3.85 -0.45 L3.6 -0.65 M6.3 7.8 Q6.0 8.7 4.8 9.55 1.5 11.35 -1.4 11.35 -4.65 11.35 -6.45 9.85 L-7.2 9.0 -7.3 8.9 Q-7.85 8.25 -7.85 7.6 L-7.75 6.95 -7.55 6.85 -7.45 6.95 -7.4 6.95 -7.4 7.2 -7.3 7.4 -6.45 7.3 -4.45 7.2 -1.75 7.6 -1.55 7.7 2.55 8.05 Q3.2 7.95 4.05 8.35 L4.7 8.6 4.7 8.45 4.8 8.45 5.1 8.7 5.85 7.8 6.1 7.05 6.2 6.75 6.5 7.05 6.5 7.1 6.3 7.7 6.3 7.8 M6.6 -6.85 L5.95 -7.1 Q3.7 -7.4 3.2 -6.45 2.75 -6.25 2.45 -5.6 L2.2 -4.4 Q2.2 -3.45 3.1 -2.15 4.35 -0.45 6.0 -0.45 10.6 -0.45 10.6 -3.65 10.6 -4.7 9.6 -5.6 8.45 -6.65 6.6 -6.85 M5.75 -4.0 Q5.75 -3.35 5.25 -3.35 4.7 -3.35 4.7 -4.1 4.7 -4.6 5.35 -4.6 5.75 -4.6 5.75 -4.0 M0.3 9.1 L-0.25 8.45 -0.35 8.45 Q-1.1 8.05 -2.15 7.8 L-4.45 7.6 -7.2 7.7 -6.55 9.0 -6.45 9.1 Q-5.05 10.8 -1.4 10.8 2.0 10.8 4.5 9.1 4.5 9.0 4.7 9.0 L4.7 8.8 -0.15 8.45 Q0.1 8.8 0.3 8.8 L0.3 9.1 M-6.35 0.1 Q-9.8 -0.2 -9.8 -2.9 -9.8 -8.15 -3.15 -8.15 -1.75 -8.15 -0.75 -6.35 0.1 -5.05 0.1 -3.65 0.1 -1.8 -2.2 -0.65 L-2.3 -0.55 -3.05 -0.35 -5.2 0.1 -5.5 0.1 -5.8 0.1 -6.35 0.1 M-5.05 -7.4 L-5.2 -7.5 Q-6.45 -7.5 -7.45 -6.75 L-8.4 -5.7 -9.05 -4.3 -9.15 -3.1 Q-9.15 -0.45 -5.8 -0.45 -3.35 -0.45 -1.75 -1.8 -0.55 -3.0 -0.55 -3.65 L-1.2 -5.9 Q-1.75 -7.5 -4.4 -7.5 L-5.05 -7.4 M-3.9 -4.6 Q-3.15 -4.6 -3.15 -4.0 -3.15 -3.35 -3.8 -3.35 -4.45 -3.35 -4.45 -4.0 -4.45 -4.6 -3.9 -4.6 M-4.1 11.6 L-4.0 11.6 -1.75 12.0 -0.8 11.9 -0.8 12.0 -1.75 12.25 Q-3.55 12.25 -4.1 11.7 L-4.1 11.6" fill="#000000" fill-rule="evenodd" stroke="none"/>
    <path d="M6.6 -6.85 Q8.45 -6.65 9.6 -5.6 10.6 -4.7 10.6 -3.65 10.6 -0.45 6.0 -0.45 4.35 -0.45 3.1 -2.15 2.2 -3.45 2.2 -4.4 L2.45 -5.6 Q2.75 -6.25 3.2 -6.45 3.7 -7.4 5.95 -7.1 L6.6 -6.85 M5.75 -4.0 Q5.75 -4.6 5.35 -4.6 4.7 -4.6 4.7 -4.1 4.7 -3.35 5.25 -3.35 5.75 -3.35 5.75 -4.0 M-5.05 -7.4 L-4.4 -7.5 Q-1.75 -7.5 -1.2 -5.9 L-0.55 -3.65 Q-0.55 -3.0 -1.75 -1.8 -3.35 -0.45 -5.8 -0.45 -9.15 -0.45 -9.15 -3.1 L-9.05 -4.3 -8.4 -5.7 -7.45 -6.75 Q-6.45 -7.5 -5.2 -7.5 L-5.05 -7.4 M-3.9 -4.6 Q-4.45 -4.6 -4.45 -4.0 -4.45 -3.35 -3.8 -3.35 -3.15 -3.35 -3.15 -4.0 -3.15 -4.6 -3.9 -4.6" fill="#ffffff" fill-rule="evenodd" stroke="none"/>
    <path d="M11.0 -9.9 Q15.3 -5.45 15.3 0.75 15.3 4.7 13.5 7.95 L13.3 7.95 9.75 10.8 7.6 11.9 4.7 12.35 0.0 12.85 Q-5.05 12.85 -7.95 8.9 L-7.2 9.0 -6.45 9.85 Q-4.65 11.35 -1.4 11.35 1.5 11.35 4.8 9.55 6.0 8.7 6.3 7.8 L7.9 7.5 7.9 7.6 8.0 7.5 8.45 7.1 8.45 6.95 8.35 6.95 8.75 6.75 Q13.05 5.7 14.9 0.55 13.9 1.1 12.85 1.6 L12.75 1.7 12.1 1.9 11.9 1.9 10.8 1.9 Q9.5 1.6 7.7 0.55 L6.75 0.1 Q11.25 -0.1 11.25 -3.65 11.25 -5.15 9.6 -6.35 8.0 -7.7 6.0 -7.7 1.6 -7.7 1.6 -4.4 1.6 -3.25 2.55 -1.85 3.0 -1.1 3.6 -0.65 L1.45 -0.45 0.7 0.0 Q0.3 0.3 0.2 0.85 -0.05 -0.2 -1.1 -0.45 L-2.3 -0.55 -2.2 -0.65 Q0.1 -1.8 0.1 -3.65 0.1 -5.05 -0.75 -6.35 -1.75 -8.15 -3.15 -8.15 -9.8 -8.15 -9.8 -2.9 -9.8 -0.2 -6.35 0.1 L-7.4 0.55 Q-9.25 1.7 -10.55 1.9 L-10.85 1.9 -10.85 1.7 Q-11.6 0.85 -11.6 -0.95 -11.6 -2.7 -11.2 -4.4 L-9.55 -7.75 Q-7.1 -8.25 -4.3 -9.75 -2.2 -10.85 -0.75 -12.65 3.75 -10.0 8.15 -9.75 L11.0 -9.9 M-4.1 11.6 L-4.1 11.7 Q-3.55 12.25 -1.75 12.25 L-0.8 12.0 -0.8 11.9 -1.75 12.0 -4.0 11.6 -4.1 11.6" fill="#f8c887" fill-rule="evenodd" stroke="none"/>
    <path d="M6.75 0.1 L7.7 0.55 Q9.5 1.6 10.8 1.9 L10.6 1.9 Q7.8 1.05 7.35 0.65 L6.65 0.1 6.75 0.1 M11.9 1.9 L12.1 1.9 11.9 1.95 11.9 1.9 M12.85 1.6 Q13.9 1.1 14.9 0.55 13.05 5.7 8.75 6.75 L8.35 6.95 8.1 6.95 6.5 7.1 6.5 7.05 6.2 6.75 6.1 7.05 Q4.5 6.95 3.1 6.1 1.25 5.15 0.7 4.15 L0.4 3.65 0.2 2.55 0.2 2.45 0.2 0.85 0.2 2.45 -0.15 3.65 Q-0.55 4.95 -2.8 6.1 -4.3 6.95 -5.8 7.05 L-7.4 6.95 -7.45 6.95 -7.55 6.85 -7.75 6.95 -8.4 6.75 -9.35 6.55 -9.35 6.35 -9.45 6.45 Q-12.9 4.95 -14.6 0.55 L-12.55 1.6 -11.05 1.9 -10.85 1.9 -10.55 1.9 Q-9.25 1.7 -7.4 0.55 L-6.35 0.1 -5.8 0.1 -5.5 0.1 -5.2 0.1 -7.0 0.75 Q-9.7 2.25 -10.75 2.25 -12.15 2.25 -12.8 1.7 L-14.05 1.2 -14.1 1.4 -13.85 1.8 -13.85 1.9 Q-13.85 2.15 -12.7 2.7 -11.6 3.3 -10.85 3.3 -9.05 3.3 -7.85 2.7 -7.2 2.45 -6.05 1.8 L-4.0 0.85 -3.7 0.85 -4.3 1.2 -5.8 1.95 Q-9.15 3.75 -10.55 3.75 L-11.8 3.55 -11.95 3.55 -11.95 3.75 -9.9 4.2 Q-7.3 4.2 -2.5 1.3 L-1.75 1.2 -1.2 1.3 Q-2.05 1.4 -2.95 2.25 L-3.55 2.9 -3.9 3.1 -3.8 3.2 -3.45 2.9 -3.15 2.65 Q-1.95 1.8 -0.65 1.7 L-0.65 1.6 -0.55 1.4 -0.65 1.15 -0.65 0.95 -0.25 1.6 Q0.0 1.6 0.0 1.2 0.0 0.0 -2.7 -0.35 L-3.05 -0.35 -2.3 -0.55 -1.1 -0.45 Q-0.05 -0.2 0.2 0.85 0.3 0.3 0.7 0.0 L1.45 -0.45 3.6 -0.65 3.85 -0.45 3.75 -0.45 Q0.6 -0.45 0.6 0.85 L0.75 1.4 0.95 1.3 1.15 1.4 1.15 1.6 1.5 1.6 1.6 1.4 3.0 1.15 3.1 1.2 3.4 1.2 3.4 1.15 Q4.9 1.2 6.6 2.45 L7.15 2.7 8.0 2.8 7.6 2.65 7.8 2.55 6.6 1.8 Q8.9 2.65 11.25 2.65 L11.55 2.65 11.75 2.65 13.25 2.15 13.3 2.15 14.45 1.3 14.35 1.15 12.85 1.6 M11.9 2.8 L11.55 2.7 11.45 2.8 11.9 2.8 M10.8 2.8 L10.7 2.8 9.15 2.9 9.65 3.0 10.8 2.8 M10.8 3.45 L10.7 3.4 9.5 3.65 Q7.35 3.65 6.1 2.8 5.0 1.8 3.0 1.8 L2.95 1.9 2.35 1.95 3.3 1.9 4.45 2.05 6.3 3.4 Q7.15 4.05 8.65 4.05 10.15 4.05 10.8 3.45 M6.95 2.35 L7.6 2.65 7.35 2.55 6.95 2.35 M5.65 1.3 L4.15 0.75 4.25 0.75 Q4.45 0.75 5.65 1.3 M5.25 4.05 L5.35 4.05 4.7 3.75 4.5 3.75 5.25 4.05 M-5.7 5.15 L-5.5 5.15 Q-4.55 5.15 -3.8 4.7 L-5.7 5.15 M-6.65 4.5 L-6.65 4.6 Q-6.25 4.5 -3.9 3.2 L-6.65 4.5" fill="#865f02" fill-rule="evenodd" stroke="none"/>
    <path d="M10.8 1.9 L11.9 1.9 11.9 1.95 12.1 1.9 12.75 1.7 12.85 1.6 14.35 1.15 14.45 1.3 13.3 2.15 13.25 2.15 11.75 2.65 11.55 2.65 11.25 2.65 Q9.85 2.55 8.55 2.05 L7.25 1.5 6.75 1.2 Q5.1 0.2 3.4 0.2 L2.75 0.3 4.15 0.75 5.65 1.3 6.3 1.6 6.6 1.8 7.8 2.55 7.6 2.65 6.95 2.35 Q6.5 2.05 5.45 1.7 2.95 0.55 2.75 0.55 L1.25 1.05 0.95 1.3 0.75 1.4 0.6 0.85 Q0.6 -0.45 3.75 -0.45 L3.85 -0.45 Q4.8 0.1 6.0 0.1 L6.65 0.1 7.35 0.65 Q7.8 1.05 10.6 1.9 L10.8 1.9 M-5.2 0.1 L-3.05 -0.35 -2.7 -0.35 Q0.0 0.0 0.0 1.2 0.0 1.6 -0.25 1.6 L-0.65 0.95 -0.8 0.75 -1.1 0.85 -2.2 0.65 Q-3.05 0.65 -5.15 1.95 L-5.2 1.95 -4.3 1.2 -3.7 0.85 -2.7 0.3 -2.8 0.3 Q-4.65 0.3 -7.3 1.6 -9.9 2.8 -10.75 2.8 -12.9 2.8 -13.85 1.8 L-14.1 1.4 -14.05 1.2 -12.8 1.7 Q-12.15 2.25 -10.75 2.25 -9.7 2.25 -7.0 0.75 L-5.2 0.1" fill="#b07c02" fill-rule="evenodd" stroke="none"/>
    <path d="M10.8 2.8 L9.65 3.0 9.15 2.9 10.7 2.8 10.8 2.8 M11.9 2.8 L11.45 2.8 11.55 2.7 11.9 2.8 M10.8 3.45 Q10.15 4.05 8.65 4.05 7.15 4.05 6.3 3.4 L4.45 2.05 3.3 1.9 2.35 1.95 2.95 1.9 3.0 1.8 Q5.0 1.8 6.1 2.8 7.35 3.65 9.5 3.65 L10.7 3.4 10.8 3.45 M7.6 2.65 L8.0 2.8 7.15 2.7 6.6 2.45 Q4.9 1.2 3.4 1.15 L3.4 1.2 3.1 1.2 3.0 1.15 1.6 1.4 1.5 1.6 1.15 1.6 1.15 1.4 0.95 1.3 1.25 1.05 2.75 0.55 Q2.95 0.55 5.45 1.7 6.5 2.05 6.95 2.35 L7.35 2.55 7.6 2.65 M4.15 0.75 L2.75 0.3 3.4 0.2 Q5.1 0.2 6.75 1.2 L7.25 1.5 8.55 2.05 Q9.85 2.55 11.25 2.65 8.9 2.65 6.6 1.8 L6.3 1.6 5.65 1.3 Q4.45 0.75 4.25 0.75 L4.15 0.75 M5.25 4.05 L4.5 3.75 4.7 3.75 5.35 4.05 5.25 4.05 M-0.65 0.95 L-0.65 1.15 -0.55 1.4 -0.65 1.6 -0.65 1.7 Q-1.95 1.8 -3.15 2.65 L-3.45 2.9 -3.8 3.2 -3.9 3.1 -3.55 2.9 -2.95 2.25 Q-2.05 1.4 -1.2 1.3 L-1.75 1.2 -2.5 1.3 Q-7.3 4.2 -9.9 4.2 L-11.95 3.75 -11.95 3.55 -11.8 3.55 -10.55 3.75 Q-9.15 3.75 -5.8 1.95 L-4.3 1.2 -5.2 1.95 -5.15 1.95 Q-3.05 0.65 -2.2 0.65 L-1.1 0.85 -0.8 0.75 -0.65 0.95 M-3.7 0.85 L-4.0 0.85 -6.05 1.8 Q-7.2 2.45 -7.85 2.7 -9.05 3.3 -10.85 3.3 -11.6 3.3 -12.7 2.7 -13.85 2.15 -13.85 1.9 L-13.85 1.8 Q-12.9 2.8 -10.75 2.8 -9.9 2.8 -7.3 1.6 -4.65 0.3 -2.8 0.3 L-2.7 0.3 -3.7 0.85 M-6.65 4.5 L-3.9 3.2 Q-6.25 4.5 -6.65 4.6 L-6.65 4.5 M-5.7 5.15 L-3.8 4.7 Q-4.55 5.15 -5.5 5.15 L-5.7 5.15" fill="#956902" fill-rule="evenodd" stroke="none"/>
    <path d="M13.5 7.95 L13.4 8.05 Q12.4 9.95 10.8 11.55 6.3 16.0 0.0 16.0 -6.25 16.0 -10.85 11.55 -15.25 7.05 -15.25 0.75 -15.25 -4.0 -12.6 -7.75 -11.3 -7.6 -9.7 -7.75 L-9.55 -7.85 -9.55 -7.75 -11.2 -4.4 Q-11.6 -2.7 -11.6 -0.95 -11.6 0.85 -10.85 1.7 L-10.85 1.9 -11.05 1.9 -12.55 1.6 -14.6 0.55 Q-12.9 4.95 -9.45 6.45 L-9.35 6.35 -9.35 6.55 -8.4 6.75 -7.75 6.95 -7.85 7.6 Q-7.85 8.25 -7.3 8.9 L-7.2 9.0 -7.95 8.9 Q-5.05 12.85 0.0 12.85 L4.7 12.35 7.6 11.9 9.75 10.8 13.3 7.95 13.5 7.95 M8.35 6.95 L8.45 6.95 8.45 7.1 8.0 7.5 7.9 7.6 7.9 7.5 6.3 7.8 6.3 7.7 6.5 7.1 8.1 6.95 8.35 6.95" fill="#f5b65f" fill-rule="evenodd" stroke="none"/>
    <path d="M0.2 2.45 L0.2 2.55 0.4 3.65 0.7 4.15 Q1.25 5.15 3.1 6.1 4.5 6.95 6.1 7.05 L5.85 7.8 5.1 8.7 4.8 8.45 4.7 8.45 4.7 8.6 4.05 8.35 Q3.2 7.95 2.55 8.05 L-1.55 7.7 -1.75 7.6 -4.45 7.2 -6.45 7.3 -7.3 7.4 -7.4 7.2 -7.4 6.95 -5.8 7.05 Q-4.3 6.95 -2.8 6.1 -0.55 4.95 -0.15 3.65 L0.2 2.45" fill="#6d2201" fill-rule="evenodd" stroke="none"/>
    <path d="M0.3 9.1 L0.3 8.8 Q0.1 8.8 -0.15 8.45 L4.7 8.8 4.7 9.0 Q4.5 9.0 4.5 9.1 2.0 10.8 -1.4 10.8 -5.05 10.8 -6.45 9.1 L-6.55 9.0 -7.2 7.7 -4.45 7.6 -2.15 7.8 Q-1.1 8.05 -0.35 8.45 L-0.25 8.45 0.3 9.1" fill="#bf3a02" fill-rule="evenodd" stroke="none"/>
    <path d="M-12.6 -7.75 L-10.85 -10.1 Q-6.25 -14.5 0.0 -14.5 L0.7 -14.5 Q6.6 -14.35 10.8 -10.1 L11.0 -9.9 Q15.3 -5.45 15.3 0.75 15.3 4.7 13.5 7.95 M13.4 8.05 Q12.4 9.95 10.8 11.55 6.3 16.0 0.0 16.0 -6.25 16.0 -10.85 11.55 -15.25 7.05 -15.25 0.75 -15.25 -4.0 -12.6 -7.75" fill="none" stroke="#865204" stroke-linecap="round" stroke-linejoin="round" stroke-width="0.5"/>
    <path d="M-12.6 -7.75 Q-11.3 -7.6 -9.7 -7.75 M-9.55 -7.75 Q-7.1 -8.25 -4.3 -9.75 -2.2 -10.85 -0.75 -12.65 L0.7 -14.5 M6.75 0.1 L7.7 0.55 Q9.5 1.6 10.8 1.9 L11.9 1.9 12.1 1.9 12.75 1.7 12.85 1.6 Q13.9 1.1 14.9 0.55 13.05 5.7 8.75 6.75 L8.35 6.95 M3.6 -0.65 L1.45 -0.45 0.7 0.0 Q0.3 0.3 0.2 0.85 L0.2 2.45 0.2 2.55 M6.5 7.1 L8.1 6.95 M-0.75 -12.65 Q3.75 -10.0 8.15 -9.75 L11.0 -9.9 M-2.3 -0.55 L-1.1 -0.45 Q-0.05 -0.2 0.2 0.85 M-6.35 0.1 L-7.4 0.55 Q-9.25 1.7 -10.55 1.9 L-10.85 1.9 -11.05 1.9 -12.55 1.6 -14.6 0.55 Q-12.9 4.95 -9.45 6.45 M-9.35 6.55 L-8.4 6.75 -7.75 6.95" fill="none" stroke="#453101" stroke-linecap="round" stroke-linejoin="round" stroke-width="0.5"/>
  </g>
</svg>
