<?xml version="1.0" encoding="UTF-8" standalone="no"?>
<svg xmlns:xlink="http://www.w3.org/1999/xlink" height="20.65px" width="17.8px" xmlns="http://www.w3.org/2000/svg">
  <g transform="matrix(1.0, 0.0, 0.0, 1.0, 8.5, 18.9)">
    <path d="M-4.0 0.6 Q-3.8 -1.6 -3.05 -2.9 -2.35 -4.25 -1.2 -4.6 -0.15 -5.0 0.85 -4.25 1.8 -3.5 2.35 -1.9 2.85 -0.3 2.8 1.05 0.9 1.3 -1.4 1.1 L-4.0 0.6" fill="#fee181" fill-rule="evenodd" stroke="none"/>
    <path d="M-4.0 0.6 Q-5.1 0.05 -5.9 -1.7 -6.5 -3.0 -6.5 -3.55 -6.5 -7.6 -1.75 -11.4 L4.1 -15.0 4.35 -14.9 Q2.45 -12.65 2.15 -11.75 2.1 -11.25 2.35 -10.45 2.35 -9.45 3.75 -7.65 6.15 -8.0 6.15 -3.1 6.15 -1.55 5.1 -0.5 4.45 0.2 2.8 1.05 2.85 -0.3 2.35 -1.9 1.8 -3.5 0.85 -4.25 -0.15 -5.0 -1.2 -4.6 -2.35 -4.25 -3.05 -2.9 -3.8 -1.6 -4.0 0.6" fill="#f7cf31" fill-rule="evenodd" stroke="none"/>
    <path d="M2.8 1.05 Q4.45 0.2 5.1 -0.5 6.15 -1.55 6.15 -3.1 6.15 -8.0 3.75 -7.65 2.35 -9.45 2.35 -10.45 2.1 -11.25 2.15 -11.75 2.45 -12.65 4.35 -14.9 L4.1 -15.0 -1.75 -11.4 Q-6.5 -7.6 -6.5 -3.55 -6.5 -3.0 -5.9 -1.7 -5.1 0.05 -4.0 0.6 L-1.4 1.1 Q0.9 1.3 2.8 1.05 M9.25 -18.9 Q9.6 -18.25 7.85 -16.05 L6.0 -13.85 6.0 -11.0 Q6.1 -8.9 7.2 -8.9 8.2 -8.9 8.2 -7.55 L7.85 -5.5 Q7.85 -2.25 6.15 -0.35 4.35 1.75 0.85 1.75 -2.6 1.75 -5.25 0.2 -8.5 -1.65 -8.5 -4.9 -8.5 -7.75 -5.4 -10.5 -2.35 -13.2 -2.35 -14.45 -2.35 -15.15 1.25 -16.15 6.5 -17.65 9.25 -18.9" fill="url(#gradient0)" fill-rule="evenodd" stroke="none"/>
  </g>
  <defs>
    <linearGradient gradientTransform="matrix(0.0, -0.0053, 0.0245, 0.0, -0.1, -10.15)" gradientUnits="userSpaceOnUse" id="gradient0" spreadMethod="pad" x1="-819.2" x2="819.2">
      <stop offset="0.0" stop-color="#ff0000"/>
      <stop offset="1.0" stop-color="#ff6600"/>
    </linearGradient>
  </defs>
</svg>
