<?xml version="1.0" encoding="UTF-8" standalone="no"?>
<svg xmlns:xlink="http://www.w3.org/1999/xlink" height="22.15px" width="16.2px" xmlns="http://www.w3.org/2000/svg">
  <g transform="matrix(1.0, 0.0, 0.0, 1.0, 8.35, 20.15)">
    <path d="M-3.75 0.75 L-5.25 -1.35 -6.15 -3.1 Q-6.15 -6.75 1.75 -15.6 L1.8 -15.6 2.15 -15.35 Q2.15 -14.45 3.95 -8.8 L5.8 -2.85 Q5.8 -1.35 4.75 -0.35 L2.7 1.05 Q2.8 -0.8 1.9 -2.4 1.05 -4.05 -0.25 -4.2 -1.55 -4.4 -2.6 -3.0 -3.6 -1.65 -3.75 0.75" fill="#f7cf31" fill-rule="evenodd" stroke="none"/>
    <path d="M-3.75 0.75 Q-3.6 -1.65 -2.6 -3.0 -1.55 -4.4 -0.25 -4.2 1.05 -4.05 1.9 -2.4 2.8 -0.8 2.7 1.05 -0.4 2.15 -3.75 0.75" fill="#fee181" fill-rule="evenodd" stroke="none"/>
    <path d="M2.7 1.05 L4.75 -0.35 Q5.8 -1.35 5.8 -2.85 L3.95 -8.8 Q2.15 -14.45 2.15 -15.35 L1.8 -15.6 1.75 -15.6 Q-6.15 -6.75 -6.15 -3.1 L-5.25 -1.35 -3.75 0.75 Q-0.4 2.15 2.7 1.05 M5.1 -17.85 L4.15 -14.95 7.1 -9.15 Q7.45 -9.45 7.75 -7.95 L7.85 -6.3 Q7.85 -4.65 6.5 -1.8 4.7 2.0 2.1 2.0 -3.8 2.0 -6.15 0.05 -8.35 -1.75 -8.35 -6.1 -8.35 -6.6 -6.2 -10.25 L-4.15 -13.95 Q-4.15 -16.1 -2.1 -16.9 3.25 -18.9 5.45 -20.15 5.6 -19.7 5.1 -17.85" fill="url(#gradient0)" fill-rule="evenodd" stroke="none"/>
  </g>
  <defs>
    <linearGradient gradientTransform="matrix(0.0, -0.0053, 0.0245, 0.0, -0.1, -10.15)" gradientUnits="userSpaceOnUse" id="gradient0" spreadMethod="pad" x1="-819.2" x2="819.2">
      <stop offset="0.0" stop-color="#ff0000"/>
      <stop offset="1.0" stop-color="#ff6600"/>
    </linearGradient>
  </defs>
</svg>
