<?xml version="1.0" encoding="UTF-8" standalone="no"?>
<svg xmlns:xlink="http://www.w3.org/1999/xlink" height="23.15px" width="14.8px" xmlns="http://www.w3.org/2000/svg">
  <g transform="matrix(1.0, 0.0, 0.0, 1.0, 7.35, 21.7)">
    <path d="M2.35 0.65 Q2.35 -0.95 1.75 -2.15 1.15 -3.35 0.25 -3.75 L-1.55 -3.65 Q-2.45 -3.1 -2.9 -1.8 -3.45 -0.55 -3.4 0.8 L-4.55 -0.15 Q-5.55 -1.2 -5.55 -2.5 -5.55 -5.05 -3.4 -9.1 L0.9 -16.45 Q1.2 -15.4 3.25 -10.55 5.2 -5.55 5.2 -3.1 L4.5 -1.65 Q3.55 -0.15 2.35 0.65" fill="#f7cf31" fill-rule="evenodd" stroke="none"/>
    <path d="M-3.4 0.8 Q-3.45 -0.55 -2.9 -1.8 -2.45 -3.1 -1.55 -3.65 L0.25 -3.75 Q1.15 -3.35 1.75 -2.15 2.35 -0.95 2.35 0.65 L-3.4 0.8" fill="#fee181" fill-rule="evenodd" stroke="none"/>
    <path d="M2.35 0.65 Q3.55 -0.15 4.5 -1.65 L5.2 -3.1 Q5.2 -5.55 3.25 -10.55 1.2 -15.4 0.9 -16.45 L-3.4 -9.1 Q-5.55 -5.05 -5.55 -2.5 -5.55 -1.2 -4.55 -0.15 L-3.4 0.8 2.35 0.65 M2.35 -21.7 L2.8 -21.45 Q2.85 -21.0 5.25 -15.2 7.45 -10.15 7.45 -6.7 7.45 -3.05 5.1 -0.8 2.85 1.45 -0.8 1.45 -3.9 1.45 -5.9 -0.4 -7.85 -2.25 -7.2 -7.1 -6.5 -11.95 -2.8 -14.75 -0.6 -18.8 2.35 -21.7" fill="url(#gradient0)" fill-rule="evenodd" stroke="none"/>
  </g>
  <defs>
    <linearGradient gradientTransform="matrix(0.0, -0.0053, 0.0245, 0.0, -0.1, -10.15)" gradientUnits="userSpaceOnUse" id="gradient0" spreadMethod="pad" x1="-819.2" x2="819.2">
      <stop offset="0.0" stop-color="#ff0000"/>
      <stop offset="1.0" stop-color="#ff6600"/>
    </linearGradient>
  </defs>
</svg>
