<?xml version="1.0" encoding="UTF-8" standalone="no"?>
<svg xmlns:xlink="http://www.w3.org/1999/xlink" height="23.15px" width="14.75px" xmlns="http://www.w3.org/2000/svg">
  <g transform="matrix(1.0, 0.0, 0.0, 1.0, 8.0, 21.7)">
    <path d="M2.85 0.8 Q2.9 -0.55 2.45 -1.8 1.9 -3.1 1.05 -3.65 L-0.7 -3.75 Q-1.6 -3.35 -2.25 -2.15 -2.85 -0.95 -2.85 0.65 L-4.8 -1.3 Q-5.75 -2.6 -5.75 -3.25 -5.75 -5.6 -3.8 -10.5 L-1.5 -16.45 3.05 -8.7 Q5.05 -5.35 5.05 -3.05 5.05 -1.05 4.2 -0.2 3.8 0.3 2.85 0.8" fill="#f7cf31" fill-rule="evenodd" stroke="none"/>
    <path d="M-2.85 0.65 Q-2.85 -0.95 -2.25 -2.15 -1.6 -3.35 -0.7 -3.75 L1.05 -3.65 Q1.9 -3.1 2.45 -1.8 2.9 -0.55 2.85 0.8 L-2.85 0.65" fill="#fee181" fill-rule="evenodd" stroke="none"/>
    <path d="M2.85 0.8 Q3.8 0.3 4.2 -0.2 5.05 -1.05 5.05 -3.05 5.05 -5.35 3.05 -8.7 L-1.5 -16.45 -3.8 -10.5 Q-5.75 -5.6 -5.75 -3.25 -5.75 -2.6 -4.8 -1.3 L-2.85 0.65 2.85 0.8 M6.4 -5.35 Q7.4 -2.1 5.55 -0.4 3.6 1.45 0.1 1.45 -3.25 1.45 -5.55 -0.8 -8.0 -3.15 -8.0 -7.1 -8.0 -10.65 -5.8 -14.6 -3.55 -18.6 -3.55 -20.75 L-2.85 -21.7 Q-0.15 -19.3 1.95 -14.75 5.4 -8.65 6.4 -5.35" fill="url(#gradient0)" fill-rule="evenodd" stroke="none"/>
  </g>
  <defs>
    <linearGradient gradientTransform="matrix(0.0, -0.0053, 0.0245, 0.0, -0.1, -10.15)" gradientUnits="userSpaceOnUse" id="gradient0" spreadMethod="pad" x1="-819.2" x2="819.2">
      <stop offset="0.0" stop-color="#ff0000"/>
      <stop offset="1.0" stop-color="#ff6600"/>
    </linearGradient>
  </defs>
</svg>
