<?xml version="1.0" encoding="UTF-8" standalone="no"?>
<svg xmlns:xlink="http://www.w3.org/1999/xlink" height="21.4px" width="15.3px" xmlns="http://www.w3.org/2000/svg">
  <g transform="matrix(1.0, 0.0, 0.0, 1.0, 7.8, 20.2)">
    <path d="M-2.7 0.6 L-4.9 -1.25 Q-5.55 -1.95 -5.55 -3.1 -5.55 -6.4 -4.0 -10.15 -2.45 -13.75 -2.5 -15.4 -2.35 -15.4 -2.45 -15.6 L-2.1 -15.65 Q5.2 -7.55 5.2 -3.7 5.2 -1.9 4.9 -1.45 L3.05 0.3 Q2.9 -1.9 2.1 -3.1 1.15 -4.35 -0.1 -4.15 -1.25 -4.0 -2.05 -2.5 -2.8 -1.05 -2.7 0.6" fill="#f7cf31" fill-rule="evenodd" stroke="none"/>
    <path d="M3.05 0.3 L-2.7 0.6 Q-2.8 -1.05 -2.05 -2.5 -1.25 -4.0 -0.1 -4.15 1.15 -4.35 2.1 -3.1 2.9 -1.9 3.05 0.3" fill="#fee181" fill-rule="evenodd" stroke="none"/>
    <path d="M3.05 0.3 L4.9 -1.45 Q5.2 -1.9 5.2 -3.7 5.2 -7.55 -2.1 -15.65 L-2.45 -15.6 Q-2.35 -15.4 -2.5 -15.4 -2.45 -13.75 -4.0 -10.15 -5.55 -6.4 -5.55 -3.1 -5.55 -1.95 -4.9 -1.25 L-2.7 0.6 3.05 0.3 M3.8 -14.0 Q3.8 -12.7 5.75 -9.65 7.5 -6.65 7.5 -5.8 7.5 -2.4 4.9 -0.5 2.7 1.2 -0.85 1.2 -3.9 1.2 -6.0 -1.45 -7.8 -3.85 -7.8 -6.8 -7.8 -9.05 -6.1 -11.7 -4.45 -14.3 -4.45 -15.15 -4.45 -15.75 -4.9 -17.0 L-6.1 -19.45 -5.8 -20.2 Q-4.35 -19.35 1.75 -17.0 3.8 -16.15 3.8 -14.0" fill="url(#gradient0)" fill-rule="evenodd" stroke="none"/>
  </g>
  <defs>
    <linearGradient gradientTransform="matrix(0.0, -0.0053, 0.0245, 0.0, -0.1, -10.15)" gradientUnits="userSpaceOnUse" id="gradient0" spreadMethod="pad" x1="-819.2" x2="819.2">
      <stop offset="0.0" stop-color="#ff0000"/>
      <stop offset="1.0" stop-color="#ff6600"/>
    </linearGradient>
  </defs>
</svg>
