<?xml version="1.0" encoding="UTF-8" standalone="no"?>
<svg xmlns:xlink="http://www.w3.org/1999/xlink" height="20.0px" width="17.65px" xmlns="http://www.w3.org/2000/svg">
  <g transform="matrix(1.0, 0.0, 0.0, 1.0, 9.8, 18.9)">
    <path d="M3.4 0.1 Q3.2 -2.2 2.35 -3.4 1.4 -4.6 0.25 -4.35 -0.95 -4.15 -1.6 -2.6 -2.45 -1.05 -2.35 0.5 -3.45 -0.25 -4.45 -1.55 -5.2 -2.7 -5.2 -3.15 L-4.9 -3.7 Q-4.35 -4.45 -3.25 -8.6 L-2.8 -9.5 Q-2.35 -9.9 -2.35 -10.45 -2.1 -11.25 -2.15 -11.75 -2.45 -12.65 -4.35 -14.9 L-4.1 -15.0 Q-1.25 -14.05 1.45 -11.65 5.55 -8.15 5.55 -3.95 5.55 -1.85 3.4 0.1" fill="#f7cf31" fill-rule="evenodd" stroke="none"/>
    <path d="M-2.35 0.5 Q-2.45 -1.05 -1.6 -2.6 -0.95 -4.15 0.25 -4.35 1.4 -4.6 2.35 -3.4 3.2 -2.2 3.4 0.1 L-2.35 0.5" fill="#fee181" fill-rule="evenodd" stroke="none"/>
    <path d="M3.4 0.1 Q5.55 -1.85 5.55 -3.95 5.55 -8.15 1.45 -11.65 -1.25 -14.05 -4.1 -15.0 L-4.35 -14.9 Q-2.45 -12.65 -2.15 -11.75 -2.1 -11.25 -2.35 -10.45 -2.35 -9.9 -2.8 -9.5 L-3.25 -8.6 Q-4.35 -4.45 -4.9 -3.7 L-5.2 -3.15 Q-5.2 -2.7 -4.45 -1.55 -3.45 -0.25 -2.35 0.5 L3.4 0.1 M5.1 -11.65 Q7.85 -9.1 7.85 -6.1 7.85 -2.1 4.55 -0.2 2.35 1.1 -0.5 1.1 -3.6 1.1 -5.65 -1.5 -7.45 -3.85 -7.45 -6.8 -6.0 -13.0 -6.0 -14.0 -8.5 -16.3 -9.8 -18.35 L-9.25 -18.9 Q-6.85 -17.8 -1.5 -16.25 2.35 -15.15 2.35 -14.45 L5.1 -11.65" fill="url(#gradient0)" fill-rule="evenodd" stroke="none"/>
  </g>
  <defs>
    <linearGradient gradientTransform="matrix(0.0, -0.0053, 0.0245, 0.0, -0.1, -10.15)" gradientUnits="userSpaceOnUse" id="gradient0" spreadMethod="pad" x1="-819.2" x2="819.2">
      <stop offset="0.0" stop-color="#ff0000"/>
      <stop offset="1.0" stop-color="#ff6600"/>
    </linearGradient>
  </defs>
</svg>
