<?xml version="1.0" encoding="UTF-8" standalone="no"?>
<svg xmlns:xlink="http://www.w3.org/1999/xlink" height="21.45px" width="15.4px" xmlns="http://www.w3.org/2000/svg">
  <g transform="matrix(1.0, 0.0, 0.0, 1.0, 8.0, 20.2)">
    <path d="M-2.85 0.65 L-5.05 -1.15 Q-5.75 -1.9 -5.75 -3.05 -5.75 -6.35 -4.15 -10.1 -2.6 -13.7 -2.7 -15.35 -2.5 -15.35 -2.6 -15.55 L-2.25 -15.6 Q5.05 -7.5 5.05 -3.65 5.05 -1.85 4.75 -1.4 L2.85 0.35 Q2.8 -1.85 1.9 -3.05 0.9 -4.3 -0.25 -4.1 -1.5 -3.95 -2.15 -2.45 -2.9 -1.0 -2.85 0.65" fill="#f7cf31" fill-rule="evenodd" stroke="none"/>
    <path d="M2.85 0.35 L-2.85 0.65 Q-2.9 -1.0 -2.15 -2.45 -1.5 -3.95 -0.25 -4.1 0.9 -4.3 1.9 -3.05 2.8 -1.85 2.85 0.35" fill="#fee181" fill-rule="evenodd" stroke="none"/>
    <path d="M2.85 0.35 L4.75 -1.4 Q5.05 -1.85 5.05 -3.65 5.05 -7.5 -2.25 -15.6 L-2.6 -15.55 Q-2.5 -15.35 -2.7 -15.35 -2.6 -13.7 -4.15 -10.1 -5.75 -6.35 -5.75 -3.05 -5.75 -1.9 -5.05 -1.15 L-2.85 0.65 2.85 0.35 M3.6 -13.95 Q3.6 -12.65 5.55 -9.6 7.4 -6.6 7.4 -5.75 7.4 -2.35 4.75 -0.45 2.45 1.25 -1.05 1.25 -4.15 1.25 -6.15 -1.4 -8.0 -3.75 -8.0 -6.75 -8.0 -9.05 -6.2 -11.65 -4.55 -14.25 -4.55 -15.1 -4.55 -15.7 -5.1 -16.95 L-6.2 -19.4 -6.0 -20.2 -5.55 -20.2 Q-4.0 -19.0 0.6 -16.85 3.6 -15.4 3.6 -13.95" fill="url(#gradient0)" fill-rule="evenodd" stroke="none"/>
  </g>
  <defs>
    <linearGradient gradientTransform="matrix(0.0, -0.0053, 0.0245, 0.0, -0.1, -10.15)" gradientUnits="userSpaceOnUse" id="gradient0" spreadMethod="pad" x1="-819.2" x2="819.2">
      <stop offset="0.0" stop-color="#ff0000"/>
      <stop offset="1.0" stop-color="#ff6600"/>
    </linearGradient>
  </defs>
</svg>
