<?xml version="1.0" encoding="UTF-8" standalone="no"?>
<svg xmlns:xlink="http://www.w3.org/1999/xlink" height="23.15px" width="14.25px" xmlns="http://www.w3.org/2000/svg">
  <g transform="matrix(1.0, 0.0, 0.0, 1.0, 7.4, 21.7)">
    <path d="M2.85 0.8 Q2.9 -0.55 2.45 -1.85 1.9 -3.15 1.05 -3.7 L-0.7 -3.8 Q-1.6 -3.4 -2.25 -2.2 -2.85 -1.0 -2.85 0.65 L-5.05 -1.9 Q-5.75 -2.7 -5.75 -3.25 L-4.35 -7.7 -1.5 -16.45 -1.2 -16.0 2.9 -9.3 Q5.05 -5.4 5.05 -2.6 5.05 -0.35 2.85 0.8" fill="#f7cf31" fill-rule="evenodd" stroke="none"/>
    <path d="M-2.85 0.65 Q-2.85 -1.0 -2.25 -2.2 -1.6 -3.4 -0.7 -3.8 L1.05 -3.7 Q1.9 -3.15 2.45 -1.85 2.9 -0.55 2.85 0.8 L-2.85 0.65" fill="#fee181" fill-rule="evenodd" stroke="none"/>
    <path d="M2.85 0.8 Q5.05 -0.35 5.05 -2.6 5.05 -5.4 2.9 -9.3 L-1.2 -16.0 -1.5 -16.45 -4.35 -7.7 -5.75 -3.25 Q-5.75 -2.7 -5.05 -1.9 L-2.85 0.65 2.85 0.8 M3.55 -13.45 Q5.85 -10.8 6.7 -6.2 7.4 -1.65 5.1 0.15 3.45 1.45 0.1 1.45 -3.25 1.45 -5.55 -0.8 -8.0 -3.15 -7.2 -7.55 -6.5 -12.0 -4.8 -15.35 -3.15 -18.75 -3.15 -21.7 L3.55 -13.45" fill="url(#gradient0)" fill-rule="evenodd" stroke="none"/>
  </g>
  <defs>
    <linearGradient gradientTransform="matrix(0.0, -0.0053, 0.0245, 0.0, -0.1, -10.15)" gradientUnits="userSpaceOnUse" id="gradient0" spreadMethod="pad" x1="-819.2" x2="819.2">
      <stop offset="0.0" stop-color="#ff0000"/>
      <stop offset="1.0" stop-color="#ff6600"/>
    </linearGradient>
  </defs>
</svg>
