<?xml version="1.0" encoding="UTF-8" standalone="no"?>
<svg xmlns:xlink="http://www.w3.org/1999/xlink" height="6.25px" width="4.45px" xmlns="http://www.w3.org/2000/svg">
  <g transform="matrix(1.0, 0.0, 0.0, 1.0, 2.0, 5.1)">
    <path d="M0.7 -2.2 L0.15 -2.1 -0.4 -0.8 -0.5 -0.35 -0.55 -0.25 -0.85 -0.5 -1.05 -0.8 -0.7 -1.7 Q-0.3 -2.65 0.5 -3.45 L1.6 -4.15 1.5 0.05 1.0 0.15 Q1.65 -0.85 0.7 -2.2" fill="#f29d6a" fill-rule="evenodd" stroke="none"/>
    <path d="M0.25 -0.9 L0.05 -0.75 Q-0.35 -0.1 -0.35 0.6 L0.5 0.75 0.6 0.7 0.65 -0.8 0.6 -0.85 0.25 -0.9 M0.7 -2.2 Q1.65 -0.85 1.0 0.15 L1.5 0.05 1.6 -4.15 0.5 -3.45 Q-0.3 -2.65 -0.7 -1.7 L-1.05 -0.8 -0.85 -0.5 -0.55 -0.25 -0.5 -0.35 -0.4 -0.8 0.15 -2.1 0.7 -2.2 M2.15 -5.0 Q2.65 -1.65 2.25 -0.3 L1.7 0.95 1.7 1.0 1.55 1.0 1.5 1.05 1.5 1.15 1.4 1.1 0.6 1.15 Q-0.85 1.15 -1.7 -0.05 L-1.8 -0.45 -2.0 -0.95 Q-1.6 -2.6 -0.2 -4.0 1.15 -5.4 2.15 -5.0" fill="#ff0000" fill-rule="evenodd" stroke="none"/>
    <path d="M0.25 -0.9 L0.6 -0.85 0.65 -0.8 0.6 0.7 0.5 0.75 -0.35 0.6 Q-0.35 -0.1 0.05 -0.75 L0.25 -0.9" fill="#b90000" fill-rule="evenodd" stroke="none"/>
  </g>
</svg>
