<?xml version="1.0" encoding="UTF-8" standalone="no"?>
<svg xmlns:xlink="http://www.w3.org/1999/xlink" height="6.15px" width="5.2px" xmlns="http://www.w3.org/2000/svg">
  <g transform="matrix(1.0, 0.0, 0.0, 1.0, 2.0, 5.0)">
    <path d="M0.05 -3.7 Q0.7 -4.45 2.9 -4.65 1.25 -2.95 1.5 0.05 L1.0 0.15 Q0.65 -2.8 1.35 -3.25 0.3 -2.75 0.0 -2.45 L-0.4 -1.35 -0.5 -0.35 -0.55 -0.25 -0.85 -0.5 -1.05 -0.8 -0.8 -2.1 Q-0.65 -3.0 0.05 -3.7" fill="#f29d6a" fill-rule="evenodd" stroke="none"/>
    <path d="M3.2 -4.95 L2.25 -0.3 1.7 0.95 1.7 1.0 1.55 1.0 1.5 1.05 1.5 1.15 1.4 1.1 0.6 1.15 Q-0.85 1.15 -1.7 -0.05 L-1.8 -0.45 -2.0 -0.95 -1.1 -3.45 Q-0.15 -5.25 3.2 -4.95 M0.05 -3.7 Q-0.65 -3.0 -0.8 -2.1 L-1.05 -0.8 -0.85 -0.5 -0.55 -0.25 -0.5 -0.35 -0.4 -1.35 0.0 -2.45 Q0.3 -2.75 1.35 -3.25 0.65 -2.8 1.0 0.15 L1.5 0.05 Q1.25 -2.95 2.9 -4.65 0.7 -4.45 0.05 -3.7 M0.25 -0.9 L0.05 -0.75 Q-0.35 -0.1 -0.35 0.6 L0.5 0.75 0.6 0.7 0.65 -0.8 0.6 -0.85 0.25 -0.9" fill="#ff0000" fill-rule="evenodd" stroke="none"/>
    <path d="M0.25 -0.9 L0.6 -0.85 0.65 -0.8 0.6 0.7 0.5 0.75 -0.35 0.6 Q-0.35 -0.1 0.05 -0.75 L0.25 -0.9" fill="#b90000" fill-rule="evenodd" stroke="none"/>
  </g>
</svg>
