<?xml version="1.0" encoding="UTF-8" standalone="no"?>
<svg xmlns:xlink="http://www.w3.org/1999/xlink" height="6.05px" width="5.7px" xmlns="http://www.w3.org/2000/svg">
  <g transform="matrix(1.0, 0.0, 0.0, 1.0, 1.9, 4.9)">
    <path d="M1.9 -3.7 Q0.5 -3.55 0.1 -2.85 L-0.4 -1.4 -0.5 -0.35 -0.55 -0.25 -0.85 -0.5 -1.05 -0.8 -0.8 -2.1 Q-0.65 -3.0 0.05 -3.7 0.7 -4.45 3.4 -4.6 1.45 -2.9 1.5 0.05 L1.0 0.15 Q0.65 -2.8 1.9 -3.7" fill="#f29d6a" fill-rule="evenodd" stroke="none"/>
    <path d="M1.9 -3.7 Q0.65 -2.8 1.0 0.15 L1.5 0.05 Q1.45 -2.9 3.4 -4.6 0.7 -4.45 0.05 -3.7 -0.65 -3.0 -0.8 -2.1 L-1.05 -0.8 -0.85 -0.5 -0.55 -0.25 -0.5 -0.35 -0.4 -1.4 0.1 -2.85 Q0.5 -3.55 1.9 -3.7 M3.8 -4.9 L2.25 -0.3 1.7 0.95 1.7 1.0 1.55 1.0 1.5 1.05 1.5 1.15 1.4 1.1 0.6 1.15 Q-0.85 1.15 -1.7 -0.05 L-1.8 -0.45 -1.85 -1.35 Q-1.8 -2.0 -1.15 -3.3 -0.55 -4.65 3.8 -4.9 M0.6 -1.1 L0.6 -0.85 Q0.5 -1.8 0.35 -1.3 L-0.1 -0.45 -0.35 0.6 0.5 0.75 0.6 0.7 0.6 -1.1" fill="#ff0000" fill-rule="evenodd" stroke="none"/>
    <path d="M0.6 -1.1 L0.6 0.7 0.5 0.75 -0.35 0.6 -0.1 -0.45 0.35 -1.3 Q0.5 -1.8 0.6 -0.85 L0.6 -1.1" fill="#b90000" fill-rule="evenodd" stroke="none"/>
  </g>
</svg>
