<?xml version="1.0" encoding="UTF-8" standalone="no"?>
<svg xmlns:xlink="http://www.w3.org/1999/xlink" height="6.45px" width="4.3px" xmlns="http://www.w3.org/2000/svg">
  <g transform="matrix(1.0, 0.0, 0.0, 1.0, 1.9, 5.45)">
    <path d="M0.65 -2.1 L0.1 -2.35 Q-1.15 -1.3 -0.75 -0.15 L-1.2 -0.35 -0.25 -4.5 0.65 -3.5 Q1.25 -2.55 1.35 -1.5 L1.45 -0.55 1.15 -0.3 0.8 -0.15 0.8 -0.25 0.85 -0.75 0.65 -2.1" fill="#f29d6a" fill-rule="evenodd" stroke="none"/>
    <path d="M0.65 -2.1 L0.85 -0.75 0.8 -0.25 0.8 -0.15 1.15 -0.3 1.45 -0.55 1.35 -1.5 Q1.25 -2.55 0.65 -3.5 L-0.25 -4.5 -1.2 -0.35 -0.75 -0.15 Q-1.15 -1.3 0.1 -2.35 L0.65 -2.1 M0.25 -1.0 L-0.15 -1.05 -0.2 -1.0 -0.55 0.45 -0.45 0.55 0.45 0.6 0.4 -0.8 0.25 -1.0 M2.4 -0.45 L2.1 0.0 1.9 0.35 Q0.75 1.3 -0.65 0.9 L-1.4 0.65 -1.5 0.7 -1.5 0.6 -1.5 0.5 -1.65 0.45 -1.65 0.4 -1.9 -0.9 Q-1.9 -2.3 -0.55 -5.45 1.75 -5.1 2.2 -3.1 L2.4 -0.45" fill="#ff0000" fill-rule="evenodd" stroke="none"/>
    <path d="M0.25 -1.0 L0.4 -0.8 0.45 0.6 -0.45 0.55 -0.55 0.45 -0.2 -1.0 -0.15 -1.05 0.25 -1.0" fill="#b90000" fill-rule="evenodd" stroke="none"/>
  </g>
</svg>
