<?xml version="1.0" encoding="UTF-8" standalone="no"?>
<svg xmlns:xlink="http://www.w3.org/1999/xlink" height="6.95px" width="4.65px" xmlns="http://www.w3.org/2000/svg">
  <g transform="matrix(1.0, 0.0, 0.0, 1.0, 1.8, 5.95)">
    <path d="M1.95 -3.3 Q1.8 -4.25 0.0 -5.55 0.6 -3.25 -1.15 -0.75 L-0.75 -0.45 Q1.0 -2.85 0.65 -3.6 L1.4 -2.25 Q1.55 -1.8 1.2 -1.1 L0.8 -0.15 0.85 -0.05 1.2 -0.1 1.55 -0.25 1.9 -1.55 Q2.25 -2.35 1.95 -3.3 M0.05 -1.1 L-0.65 0.25 -0.6 0.35 0.2 0.6 Q0.55 0.0 0.5 -0.75 L0.45 -1.0 0.1 -1.1 0.05 -1.1 M1.7 0.7 L-0.9 0.65 -1.55 0.2 -1.7 0.2 -1.65 0.1 -1.65 0.0 -1.75 -0.05 -1.75 -0.1 -1.6 -1.45 -0.1 -5.95 Q2.95 -4.55 2.85 -2.55 L2.4 0.05 2.0 0.4 1.7 0.7" fill="#ff0000" fill-rule="evenodd" stroke="none"/>
    <path d="M1.95 -3.3 Q2.25 -2.35 1.9 -1.55 L1.55 -0.25 1.2 -0.1 0.85 -0.05 0.8 -0.15 1.2 -1.1 Q1.55 -1.8 1.4 -2.25 L0.65 -3.6 Q1.0 -2.85 -0.75 -0.45 L-1.15 -0.75 Q0.6 -3.25 0.0 -5.55 1.8 -4.25 1.95 -3.3" fill="#f29d6a" fill-rule="evenodd" stroke="none"/>
    <path d="M0.05 -1.1 L0.1 -1.1 0.45 -1.0 0.5 -0.75 Q0.55 0.0 0.2 0.6 L-0.6 0.35 -0.65 0.25 0.05 -1.1" fill="#b90000" fill-rule="evenodd" stroke="none"/>
  </g>
</svg>
