<?xml version="1.0" encoding="UTF-8" standalone="no"?>
<svg xmlns:xlink="http://www.w3.org/1999/xlink" height="30.2px" width="15.5px" xmlns="http://www.w3.org/2000/svg">
  <g transform="matrix(1.0, 0.0, 0.0, 1.0, 7.65, 18.85)">
    <path d="M-3.65 10.5 L-4.9 9.25 Q-5.9 7.9 -5.9 6.2 -5.9 2.9 -3.65 -2.4 -0.55 -8.6 0.9 -12.0 1.2 -10.6 3.4 -4.3 5.45 2.25 5.45 5.4 L4.7 7.3 Q3.7 9.25 2.45 10.3 2.45 8.25 1.8 6.65 1.15 5.1 0.2 4.6 L-1.7 4.7 Q-2.65 5.4 -3.15 7.1 -3.75 8.75 -3.65 10.5" fill="#f7cf31" fill-rule="evenodd" stroke="none"/>
    <path d="M-3.65 10.5 Q-3.75 8.75 -3.15 7.1 -2.65 5.4 -1.7 4.7 L0.2 4.6 Q1.15 5.1 1.8 6.65 2.45 8.25 2.45 10.3 L-3.65 10.5" fill="#fee181" fill-rule="evenodd" stroke="none"/>
    <path d="M2.45 -18.85 L2.9 -18.5 Q2.95 -17.9 5.5 -10.35 7.85 -3.75 7.85 0.75 7.85 5.5 5.35 8.4 2.95 11.35 -0.9 11.35 -4.15 11.35 -6.3 8.95 -8.4 6.55 -7.2 1.15 -6.0 -4.25 -3.3 -9.8 -0.7 -15.05 2.45 -18.85 M2.45 10.3 Q3.7 9.25 4.7 7.3 L5.45 5.4 Q5.45 2.25 3.4 -4.3 1.2 -10.6 0.9 -12.0 -0.55 -8.6 -3.65 -2.4 -5.9 2.9 -5.9 6.2 -5.9 7.9 -4.9 9.25 L-3.65 10.5 2.45 10.3" fill="url(#gradient0)" fill-rule="evenodd" stroke="none"/>
  </g>
  <defs>
    <linearGradient gradientTransform="matrix(0.0, -0.0069, 0.0259, 0.0, -0.15, -3.75)" gradientUnits="userSpaceOnUse" id="gradient0" spreadMethod="pad" x1="-819.2" x2="819.2">
      <stop offset="0.0" stop-color="#ff0000"/>
      <stop offset="1.0" stop-color="#ff6600"/>
    </linearGradient>
  </defs>
</svg>
