<?xml version="1.0" encoding="UTF-8" standalone="no"?>
<svg xmlns:xlink="http://www.w3.org/1999/xlink" height="30.0px" width="20.0px" xmlns="http://www.w3.org/2000/svg">
  <g transform="matrix(1.0, 0.0, 0.0, 1.0, 10.0, 30.0)">
    <path d="M0.35 -24.05 L-0.1 -23.6 0.35 -24.65 0.35 -24.35 0.35 -24.05 M-3.9 -13.35 Q-2.85 -13.7 -2.35 -15.75 -0.5 -16.75 -0.25 -17.5 L0.55 -19.3 0.75 -18.3 Q1.05 -13.7 2.25 -12.15 L0.9 -10.1 -2.45 -4.2 -2.35 -3.7 -1.7 -3.45 Q0.05 -3.45 5.65 -15.45 6.15 -8.5 6.35 -7.6 6.65 -6.25 7.5 -3.7 L8.35 -1.95 7.2 -1.95 7.0 -1.95 Q6.5 -2.65 6.05 -4.0 L4.45 -8.8 2.1 -5.5 Q0.75 -3.45 -2.0 -3.3 L-2.7 -3.45 -2.85 -3.85 -1.3 -6.95 Q0.05 -9.8 0.05 -11.25 L-0.65 -14.0 -0.65 -14.1 -3.7 -6.75 Q-5.75 -2.25 -6.95 -1.65 L-9.1 -1.65 -8.15 -3.45 Q-6.55 -6.55 -5.05 -10.1 L-4.5 -11.75 -3.9 -13.35 M1.55 -11.95 L1.2 -12.65 1.4 -11.6 1.55 -11.95" fill="#585b61" fill-rule="evenodd" stroke="none"/>
    <path d="M7.0 -1.95 L-3.3 -1.4 -9.1 -1.65 -6.95 -1.65 Q-5.75 -2.25 -3.7 -6.75 L-0.65 -14.1 -0.65 -14.0 0.05 -11.25 Q0.05 -9.8 -1.3 -6.95 L-2.85 -3.85 -2.7 -3.45 -2.0 -3.3 Q0.75 -3.45 2.1 -5.5 L4.45 -8.8 6.05 -4.0 Q6.5 -2.65 7.0 -1.95 M1.55 -11.95 L1.4 -11.6 1.2 -12.65 1.55 -11.95" fill="#424448" fill-rule="evenodd" stroke="none"/>
    <path d="M0.35 -24.05 L0.55 -19.3 -0.25 -17.5 Q-0.5 -16.75 -2.35 -15.75 -2.85 -13.7 -3.9 -13.35 L-3.0 -15.55 -2.85 -15.9 -2.85 -16.05 -0.65 -21.95 -0.5 -22.6 -0.1 -23.6 0.35 -24.05" fill="#87817c" fill-rule="evenodd" stroke="none"/>
    <path d="M1.9 -28.65 L1.55 -27.5 1.9 -19.9 Q2.1 -17.8 2.95 -15.45 L3.45 -14.1 6.5 -20.05 Q7.2 -19.75 7.2 -19.0 L6.8 -16.75 Q6.8 -11.15 8.55 -5.95 L9.2 -4.2 10.0 -1.95 9.95 -1.7 9.95 -1.3 9.6 -1.0 9.2 -0.45 9.15 -0.35 7.2 -0.6 -3.5 0.0 -7.25 -0.2 -9.1 -0.75 -9.3 -0.8 -9.55 -1.1 -9.7 -1.2 -9.85 -1.45 -9.95 -1.65 -10.0 -1.7 -10.0 -1.8 -10.0 -2.05 -10.0 -2.45 -10.0 -2.75 -8.45 -6.25 Q-5.55 -12.8 -4.9 -14.85 L0.75 -30.0 Q1.9 -29.55 1.9 -28.65 M0.55 -19.3 L0.35 -24.05 0.35 -24.35 0.35 -24.65 -0.1 -23.6 -0.5 -22.6 -0.65 -21.95 -2.85 -16.05 -2.85 -15.9 -3.0 -15.55 -3.9 -13.35 -4.5 -11.75 -5.05 -10.1 Q-6.55 -6.55 -8.15 -3.45 L-9.1 -1.65 -3.3 -1.4 7.0 -1.95 7.2 -1.95 8.35 -1.95 7.5 -3.7 Q6.65 -6.25 6.35 -7.6 6.15 -8.5 5.65 -15.45 0.05 -3.45 -1.7 -3.45 L-2.35 -3.7 -2.45 -4.2 0.9 -10.1 2.25 -12.15 Q1.05 -13.7 0.75 -18.3 L0.55 -19.3" fill="#252629" fill-rule="evenodd" stroke="none"/>
  </g>
</svg>
