<?xml version="1.0" encoding="UTF-8" standalone="no"?>
<svg xmlns:xlink="http://www.w3.org/1999/xlink" height="30.0px" width="20.0px" xmlns="http://www.w3.org/2000/svg">
  <g transform="matrix(1.0, 0.0, 0.0, 1.0, 10.0, 30.0)">
    <path d="M0.4 -17.0 Q2.0 -16.7 2.5 -19.9 2.75 -17.35 3.5 -16.4 L3.7 -13.2 Q4.05 -10.2 5.0 -6.9 6.05 -2.35 7.05 -2.15 L7.2 -2.15 7.95 -1.25 6.15 -1.2 Q5.2 -2.55 4.95 -4.55 2.1 -12.35 2.35 -18.05 L0.5 -14.45 Q0.45 -14.05 0.75 -13.6 L-4.7 -1.65 -7.25 -1.55 -6.9 -1.9 -6.5 -2.6 -5.55 -4.4 -5.25 -5.05 -3.7 -7.8 Q-2.0 -11.1 -1.55 -12.6 L0.4 -17.0" fill="#585b61" fill-rule="evenodd" stroke="none"/>
    <path d="M3.5 -23.85 L3.15 -23.9 3.4 -24.7 3.5 -23.85 M-4.7 -1.65 L0.75 -13.6 Q0.45 -14.05 0.5 -14.45 L2.35 -18.05 Q2.1 -12.35 4.95 -4.55 5.2 -2.55 6.15 -1.2 L1.85 -1.5 -4.7 -1.65 M-5.25 -5.05 L-3.4 -8.6 -1.55 -12.6 Q-2.0 -11.1 -3.7 -7.8 L-5.25 -5.05" fill="#424448" fill-rule="evenodd" stroke="none"/>
    <path d="M3.15 -23.9 L3.5 -23.85 Q3.3 -19.95 3.5 -16.4 2.75 -17.35 2.5 -19.9 2.0 -16.7 0.4 -17.0 L3.15 -23.9" fill="#87817c" fill-rule="evenodd" stroke="none"/>
    <path d="M5.4 -27.25 L4.75 -18.3 5.4 -10.4 Q5.6 -8.45 7.25 -4.4 L8.65 -3.05 10.0 -1.5 10.0 -1.35 9.65 -1.05 9.5 -0.85 9.15 -0.6 9.05 -0.4 8.95 -0.05 -0.45 -0.6 -8.15 -0.1 -8.15 0.0 -10.0 -0.85 -9.95 -0.95 -9.8 -1.05 -9.85 -1.2 -9.8 -1.3 -9.75 -1.6 -7.5 -5.2 -2.9 -12.65 0.0 -20.2 Q1.75 -25.35 2.8 -27.45 5.7 -32.65 5.4 -27.25 M3.5 -23.85 L3.4 -24.7 3.15 -23.9 0.4 -17.0 -1.55 -12.6 -3.4 -8.6 -5.25 -5.05 -5.55 -4.4 -6.5 -2.6 -6.9 -1.9 -7.25 -1.55 -4.7 -1.65 1.85 -1.5 6.15 -1.2 7.95 -1.25 7.2 -2.15 7.05 -2.15 Q6.05 -2.35 5.0 -6.9 4.05 -10.2 3.7 -13.2 L3.5 -16.4 Q3.3 -19.95 3.5 -23.85" fill="#252629" fill-rule="evenodd" stroke="none"/>
  </g>
</svg>
