<?xml version="1.0" encoding="UTF-8" standalone="no"?>
<svg xmlns:xlink="http://www.w3.org/1999/xlink" height="25.0px" width="20.0px" xmlns="http://www.w3.org/2000/svg">
  <g transform="matrix(1.0, 0.0, 0.0, 1.0, 10.0, 25.0)">
    <path d="M6.65 -7.3 L7.4 -5.9 Q9.2 -2.85 9.2 -2.25 L9.2 -1.9 10.0 -1.9 10.0 -1.4 10.0 -0.6 10.0 -0.45 9.85 -0.35 9.85 -0.15 9.75 -0.1 6.25 0.0 -6.2 -0.75 -8.1 -0.6 Q-8.65 -1.3 -9.5 -1.7 L-10.0 -2.0 Q-5.3 -16.9 -4.9 -20.4 -4.15 -28.9 -1.7 -21.7 -0.4 -17.8 1.75 -10.35 L3.95 -12.75 4.85 -11.9 4.85 -11.7 6.0 -9.9 6.65 -7.45 6.65 -7.3 M6.25 -1.55 L8.2 -1.7 5.5 -6.65 Q4.65 -7.05 3.95 -8.95 L3.7 -10.2 Q2.15 -8.15 1.75 -8.15 0.35 -8.15 -1.2 -13.2 L-1.7 -14.85 -2.75 -19.5 -3.1 -20.25 -3.25 -19.15 -3.25 -18.95 -4.4 -14.85 Q-6.85 -5.4 -8.2 -2.05 L-6.45 -2.05 -6.05 -2.05 6.0 -1.55 6.25 -1.55" fill="#252629" fill-rule="evenodd" stroke="none"/>
    <path d="M-1.7 -14.85 L-1.2 -13.2 Q0.35 -8.15 1.75 -8.15 2.15 -8.15 3.7 -10.2 L3.95 -8.95 Q4.65 -7.05 5.5 -6.65 L8.2 -1.7 6.25 -1.55 Q4.65 -3.15 3.7 -6.85 0.35 -6.65 -1.0 -9.5 L-2.75 -13.9 Q-3.75 -9.25 -4.65 -6.55 -5.3 -3.15 -6.05 -2.05 L-6.45 -2.05 -8.2 -2.05 Q-6.85 -5.4 -4.4 -14.85 L-3.9 -14.85 -3.1 -15.45 -2.55 -15.0 -1.7 -14.85 M-3.25 -19.15 L-3.1 -20.25 -2.75 -19.5 -3.25 -19.15" fill="#585b61" fill-rule="evenodd" stroke="none"/>
    <path d="M6.25 -1.55 L6.0 -1.55 -6.05 -2.05 Q-5.3 -3.15 -4.65 -6.55 -3.75 -9.25 -2.75 -13.9 L-1.0 -9.5 Q0.35 -6.65 3.7 -6.85 4.65 -3.15 6.25 -1.55" fill="#424448" fill-rule="evenodd" stroke="none"/>
    <path d="M-4.4 -14.85 L-3.25 -18.95 -3.25 -19.15 -2.75 -19.5 -1.7 -14.85 -2.55 -15.0 -3.1 -15.45 -3.9 -14.85 -4.4 -14.85" fill="#87817c" fill-rule="evenodd" stroke="none"/>
  </g>
</svg>
