<?xml version="1.0" encoding="UTF-8" standalone="no"?>
<svg xmlns:xlink="http://www.w3.org/1999/xlink" height="25.0px" width="20.0px" xmlns="http://www.w3.org/2000/svg">
  <g transform="matrix(1.0, 0.0, 0.0, 1.0, 10.0, 25.0)">
    <path d="M0.1 -14.6 Q1.8 -17.5 2.75 -19.95 L2.75 -16.0 Q1.7 -14.4 1.25 -14.4 L0.1 -14.6" fill="#87817c" fill-rule="evenodd" stroke="none"/>
    <path d="M4.3 -18.95 Q4.25 -16.5 5.0 -13.05 5.25 -10.65 9.4 -1.55 L10.0 -1.1 Q9.85 -0.9 9.85 -0.55 L9.55 -0.3 7.65 -0.35 1.65 0.0 -7.7 0.0 -9.15 0.0 -10.0 -0.6 -9.8 -0.8 Q-4.5 -9.3 -2.8 -12.6 -1.6 -14.65 0.3 -18.95 2.05 -22.75 3.85 -25.0 5.0 -24.05 4.8 -22.05 L4.3 -18.95 M2.75 -16.0 L2.75 -19.95 Q1.8 -17.5 0.1 -14.6 -3.0 -8.8 -7.95 -1.25 L-5.75 -1.3 0.3 -1.3 6.1 -1.4 7.7 -1.65 7.9 -1.5 6.2 -4.6 4.0 -10.3 Q3.15 -13.1 2.75 -16.0" fill="#252629" fill-rule="evenodd" stroke="none"/>
    <path d="M0.1 -14.6 L1.25 -14.4 Q1.7 -14.4 2.75 -16.0 3.15 -13.1 4.0 -10.3 L6.2 -4.6 7.9 -1.5 7.7 -1.65 6.1 -1.4 5.75 -2.5 4.65 -4.55 Q2.2 -8.45 2.25 -8.85 2.25 -9.4 3.3 -9.35 L1.65 -13.65 Q-3.5 -4.7 -5.75 -1.3 L-7.95 -1.25 Q-3.0 -8.8 0.1 -14.6" fill="#585b61" fill-rule="evenodd" stroke="none"/>
    <path d="M6.1 -1.4 L0.3 -1.3 -5.75 -1.3 Q-3.5 -4.7 1.65 -13.65 L3.3 -9.35 Q2.25 -9.4 2.25 -8.85 2.2 -8.45 4.65 -4.55 L5.75 -2.5 6.1 -1.4" fill="#424448" fill-rule="evenodd" stroke="none"/>
  </g>
</svg>
