<?xml version="1.0" encoding="UTF-8" standalone="no"?>
<svg xmlns:xlink="http://www.w3.org/1999/xlink" height="30.0px" width="20.0px" xmlns="http://www.w3.org/2000/svg">
  <g transform="matrix(1.0, 0.0, 0.0, 1.0, 10.0, 15.0)">
    <path d="M0.55 -4.3 L0.75 -3.3 Q1.05 1.3 2.25 2.85 L0.9 4.9 Q-2.45 10.5 -2.45 10.8 L-2.35 11.3 -1.7 11.55 Q0.05 11.55 5.65 -0.45 6.15 6.5 6.35 7.4 6.65 8.75 7.5 11.3 L8.35 13.05 7.2 13.05 7.0 13.05 6.05 11.0 4.45 6.2 2.1 9.5 Q0.75 11.55 -2.0 11.7 L-2.7 11.55 -2.85 11.15 -1.3 8.05 Q0.05 5.2 0.05 3.75 L-0.65 1.0 -0.65 0.9 -3.7 8.25 Q-5.75 12.75 -6.95 13.35 L-9.1 13.35 -8.15 11.55 -5.05 4.9 -4.5 3.25 -3.9 1.65 Q-2.85 1.3 -2.35 -0.75 -0.5 -1.75 -0.25 -2.5 L0.55 -4.3 M-0.1 -8.6 L0.35 -9.65 0.35 -9.35 0.35 -9.05 -0.1 -8.6 M1.55 3.05 L1.2 2.35 1.4 3.4 1.55 3.05" fill="#585b61" fill-rule="evenodd" stroke="none"/>
    <path d="M7.0 13.05 L-3.3 13.6 -9.1 13.35 -6.95 13.35 Q-5.75 12.75 -3.7 8.25 L-0.65 0.9 -0.65 1.0 0.05 3.75 Q0.05 5.2 -1.3 8.05 L-2.85 11.15 -2.7 11.55 -2.0 11.7 Q0.75 11.55 2.1 9.5 L4.45 6.2 6.05 11.0 7.0 13.05 M1.55 3.05 L1.4 3.4 1.2 2.35 1.55 3.05" fill="#424448" fill-rule="evenodd" stroke="none"/>
    <path d="M1.9 -13.65 L1.55 -12.5 1.9 -4.9 Q2.1 -2.8 2.95 -0.45 L3.45 0.9 6.5 -5.05 Q7.2 -4.75 7.2 -4.0 L6.8 -1.75 Q6.8 3.85 8.55 9.05 L9.2 10.8 10.0 13.05 9.95 13.3 9.95 13.7 9.6 14.0 9.2 14.55 9.15 14.65 7.2 14.4 -3.5 15.0 -7.25 14.8 -9.1 14.25 -9.3 14.2 -9.55 13.9 -9.7 13.8 -9.85 13.55 -9.95 13.35 -10.0 13.3 -10.0 13.2 -10.0 12.95 -10.0 12.55 -10.0 12.25 -8.45 8.75 -4.9 0.15 0.75 -15.0 Q1.9 -14.55 1.9 -13.65 M7.0 13.05 L7.2 13.05 8.35 13.05 7.5 11.3 Q6.65 8.75 6.35 7.4 6.15 6.5 5.65 -0.45 0.05 11.55 -1.7 11.55 L-2.35 11.3 -2.45 10.8 Q-2.45 10.5 0.9 4.9 L2.25 2.85 Q1.05 1.3 0.75 -3.3 L0.55 -4.3 0.35 -9.05 0.35 -9.35 0.35 -9.65 -0.1 -8.6 -0.5 -7.6 -0.65 -6.95 -2.85 -1.05 -2.85 -0.9 -3.0 -0.55 -3.9 1.65 -4.5 3.25 -5.05 4.9 -8.15 11.55 -9.1 13.35 -3.3 13.6 7.0 13.05" fill="#252629" fill-rule="evenodd" stroke="none"/>
    <path d="M-3.9 1.65 L-3.0 -0.55 -2.85 -0.9 -2.85 -1.05 -0.65 -6.95 -0.5 -7.6 -0.1 -8.6 0.35 -9.05 0.55 -4.3 -0.25 -2.5 Q-0.5 -1.75 -2.35 -0.75 -2.85 1.3 -3.9 1.65" fill="#a7a39e" fill-rule="evenodd" stroke="none"/>
  </g>
</svg>
