<?xml version="1.0" encoding="UTF-8" standalone="no"?>
<svg xmlns:xlink="http://www.w3.org/1999/xlink" height="36.5px" width="36.5px" xmlns="http://www.w3.org/2000/svg">
  <g transform="matrix(1.0, 0.0, 0.0, 1.0, 18.25, 18.75)">
    <path d="M12.05 -10.65 L11.35 -13.6 11.2 -13.6 11.45 -12.3 10.8 -13.6 10.75 -13.6 11.5 -11.55 10.55 -12.9 10.45 -12.9 10.25 -13.3 10.15 -13.3 10.15 -13.0 10.0 -13.15 9.55 -11.85 Q9.25 -11.85 9.1 -11.65 L10.25 -14.3 9.1 -11.9 Q9.5 -13.45 9.5 -14.7 L9.35 -14.95 8.65 -11.7 8.8 -14.3 8.75 -15.0 8.65 -15.0 8.5 -13.15 8.1 -15.7 8.0 -15.7 8.1 -15.25 Q8.1 -14.35 8.4 -12.5 L8.5 -12.8 8.35 -11.4 7.7 -16.3 7.55 -16.3 7.55 -15.95 7.9 -13.2 7.4 -16.1 7.2 -16.1 7.2 -15.7 8.05 -11.95 8.1 -11.8 8.0 -11.95 7.85 -11.95 7.85 -11.5 7.7 -11.95 7.0 -14.85 6.95 -14.85 6.6 -16.75 6.5 -16.75 6.5 -16.4 6.9 -14.85 6.9 -14.4 7.5 -12.2 7.4 -12.1 7.4 -12.25 7.25 -12.85 7.25 -12.9 6.05 -16.85 6.0 -16.85 6.35 -15.35 Q6.35 -13.5 7.15 -12.8 L7.2 -12.85 7.3 -11.95 7.25 -11.9 7.45 -10.5 6.4 -12.85 6.4 -12.9 6.25 -13.35 7.15 -11.95 7.2 -12.1 6.3 -13.9 6.3 -14.25 6.05 -14.9 5.95 -15.25 6.25 -14.05 4.85 -16.3 4.8 -16.3 5.05 -15.65 4.5 -16.4 5.15 -17.2 5.1 -17.25 3.05 -15.15 3.2 -15.1 3.95 -15.85 2.7 -14.5 2.3 -15.1 2.15 -15.25 2.15 -15.2 1.7 -15.65 1.5 -15.55 1.5 -15.45 2.4 -14.35 2.35 -14.35 2.3 -14.2 2.35 -14.05 2.45 -14.1 Q2.3 -13.65 2.3 -12.55 L2.2 -12.15 2.05 -14.5 1.9 -14.5 2.1 -11.9 2.0 -11.35 2.05 -11.25 2.1 -11.25 1.9 -10.1 1.85 -12.3 Q1.85 -14.05 1.5 -14.95 L1.5 -15.15 1.45 -15.35 1.4 -15.35 1.3 -15.4 1.2 -15.4 1.3 -15.0 1.3 -14.95 1.45 -14.6 Q2.0 -12.7 1.75 -9.4 L1.2 -10.4 0.95 -11.25 1.25 -11.5 1.2 -11.55 1.25 -11.8 0.2 -14.3 0.1 -14.3 -0.3 -15.75 -0.3 -16.6 0.5 -14.35 0.55 -14.4 0.55 -14.85 0.4 -14.9 -0.35 -17.45 0.0 -17.5 0.8 -14.65 0.85 -14.4 0.9 -14.25 Q1.1 -13.0 1.55 -11.8 L1.6 -11.85 Q0.95 -16.6 0.5 -17.5 L0.8 -17.55 Q1.15 -16.85 2.05 -15.85 L1.9 -15.85 Q2.1 -15.2 2.65 -14.9 L2.65 -14.85 2.4 -15.0 2.65 -14.8 2.8 -14.65 2.75 -14.8 2.8 -14.85 2.9 -15.0 2.9 -15.1 3.3 -16.0 3.35 -15.95 3.85 -17.3 3.65 -17.5 3.55 -17.5 3.55 -17.55 3.5 -17.75 3.35 -17.75 3.35 -17.55 2.7 -17.75 2.6 -17.8 2.45 -17.8 2.45 -17.75 2.15 -17.8 2.05 -18.25 1.9 -18.25 1.9 -17.85 0.8 -18.05 0.7 -18.1 0.65 -18.1 0.65 -18.05 0.2 -18.1 0.1 -18.05 0.35 -17.85 0.1 -17.9 0.05 -18.2 0.2 -18.25 -0.05 -18.25 -0.05 -17.9 -0.55 -17.9 -0.7 -17.9 -0.9 -18.05 -1.0 -17.9 -2.4 -17.8 -2.5 -17.95 -2.8 -17.9 -2.65 -17.8 -4.75 -17.45 -4.85 -17.45 -5.0 -17.45 -5.0 -17.3 -6.3 -16.85 -6.65 -16.85 -6.6 -16.6 -9.65 -14.85 -9.9 -14.65 -9.75 -14.8 -10.45 -14.3 -10.5 -14.25 Q-12.8 -12.7 -14.05 -10.8 L-14.65 -9.9 -14.7 -9.85 -14.95 -9.3 -14.95 -9.25 -15.0 -9.2 Q-16.4 -7.15 -16.8 -5.85 -17.35 -4.3 -17.35 -1.0 -17.35 4.2 -16.45 6.2 L-16.15 6.2 -16.1 6.4 -16.35 7.2 Q-18.0 3.7 -18.0 -0.5 -18.0 -6.15 -14.95 -10.6 L-12.8 -13.3 Q-10.8 -15.2 -8.45 -16.4 -4.7 -18.5 0.0 -18.5 L0.7 -18.5 Q4.25 -18.4 7.3 -17.0 L7.45 -17.0 7.9 -16.75 Q8.15 -16.6 8.45 -16.4 10.75 -15.2 12.7 -13.3 L12.9 -13.05 14.1 -11.7 13.55 -11.25 13.5 -11.4 13.5 -11.5 13.2 -12.0 13.1 -11.8 13.3 -11.3 13.45 -11.35 12.3 -10.65 12.5 -11.25 12.65 -11.2 12.8 -11.5 12.65 -11.85 12.85 -12.45 12.55 -12.1 12.25 -13.4 12.1 -13.4 12.05 -12.6 Q12.05 -11.9 12.3 -11.5 L12.2 -10.65 12.05 -10.65 M12.0 -10.15 L12.05 -9.85 12.0 -9.85 11.9 -10.0 11.8 -10.2 11.1 -11.5 11.9 -10.35 11.8 -10.35 11.8 -10.2 12.0 -10.15 M12.1 -10.0 L12.1 -10.05 13.0 -10.7 12.1 -10.0 M10.15 -12.8 L10.55 -11.95 9.2 -10.95 8.95 -10.75 8.9 -10.75 10.25 -11.85 10.15 -11.95 9.95 -11.95 10.15 -12.8 M8.3 -10.15 L8.15 -10.1 8.1 -10.65 8.3 -10.65 8.2 -10.35 8.3 -10.15 M2.8 -17.45 L3.25 -17.45 3.35 -17.45 Q3.25 -16.6 2.75 -15.45 L2.5 -16.35 2.65 -16.05 2.95 -16.1 2.95 -16.75 2.8 -17.45 M3.5 -16.85 L3.55 -17.45 3.55 -17.5 3.5 -16.85 M3.8 -15.4 L4.1 -15.8 3.95 -15.85 4.45 -16.35 5.2 -14.35 5.1 -14.25 5.35 -12.75 4.85 -13.75 3.8 -15.4 M4.85 -13.75 L5.05 -13.8 5.05 -14.2 4.5 -15.5 4.4 -15.2 4.85 -13.75 M2.3 -17.45 L2.4 -17.45 2.45 -16.65 2.3 -17.45 M1.6 -17.5 L2.05 -17.5 2.2 -16.55 1.6 -17.5 M0.95 -17.6 L1.15 -17.6 Q1.85 -16.25 2.35 -15.8 L2.15 -15.85 1.25 -17.15 0.95 -17.6 M2.65 -14.05 L2.7 -14.05 3.0 -14.35 4.1 -13.3 4.0 -13.3 3.05 -13.5 2.9 -13.45 2.9 -13.35 3.35 -13.0 3.3 -12.7 Q3.1 -12.7 3.05 -12.55 L3.2 -12.45 2.95 -11.85 2.95 -12.45 2.75 -12.85 2.5 -12.4 2.65 -13.5 2.65 -14.05 M3.05 -14.4 L3.65 -15.2 4.2 -14.35 3.7 -14.6 3.55 -14.6 Q3.65 -14.0 4.6 -13.05 L4.4 -13.2 3.05 -14.4 M0.05 -14.25 L0.0 -14.0 0.7 -12.15 0.55 -12.2 -0.1 -13.5 -1.2 -14.85 -1.3 -14.85 -0.35 -13.45 0.4 -12.25 0.0 -12.5 0.05 -12.55 -1.1 -14.05 -1.15 -14.05 -0.35 -12.75 -1.15 -13.2 -2.2 -14.7 Q-0.8 -14.9 -0.8 -15.45 L-1.7 -17.3 -1.85 -17.05 -1.85 -17.0 -2.05 -17.25 -1.7 -17.3 -0.9 -17.45 0.05 -14.25 M0.8 -11.9 L0.9 -11.7 0.7 -11.8 0.8 -11.8 0.8 -11.9 M-1.85 -12.1 L-2.35 -12.15 -1.75 -12.4 -1.75 -12.2 -1.5 -12.1 -1.85 -12.1 M-1.55 -12.5 L-1.1 -12.9 -0.8 -12.55 -1.1 -12.45 -1.55 -12.5 M-1.75 -16.85 L-1.6 -16.55 -1.2 -15.55 -1.6 -15.45 -1.6 -15.5 -1.5 -15.85 -2.05 -16.85 -2.05 -16.75 -2.15 -16.65 -1.9 -15.95 -2.1 -15.85 -3.35 -16.85 -2.2 -17.2 -2.15 -17.2 -1.9 -16.75 -1.75 -16.85 M-3.7 -14.9 L-3.9 -14.85 -3.85 -14.8 -3.5 -14.7 -2.8 -14.7 -2.2 -13.75 -2.15 -13.65 Q-4.3 -12.55 -5.0 -11.9 L-5.95 -11.95 Q-6.35 -11.95 -6.35 -11.7 L-8.75 -12.75 -8.7 -12.75 -8.7 -12.8 -7.7 -12.5 -6.5 -12.0 -6.5 -12.1 -7.4 -12.5 -5.3 -12.4 Q-4.3 -12.4 -4.0 -12.7 L-4.1 -12.75 -8.8 -13.45 -8.8 -13.5 -8.95 -13.45 -9.45 -13.5 -9.6 -13.5 -9.55 -13.45 -9.6 -13.45 -10.0 -13.7 -10.1 -13.7 -9.35 -14.25 -8.5 -14.65 -6.2 -14.1 -2.7 -13.65 -2.2 -13.75 -3.35 -14.05 -3.35 -14.35 -7.4 -15.2 -7.15 -15.35 -6.2 -15.2 -3.7 -14.9 M-1.9 -13.4 L-1.55 -13.05 Q-3.3 -12.4 -4.3 -11.8 L-4.1 -11.95 -3.25 -12.45 Q-1.9 -13.2 -1.9 -13.4 M-4.9 -11.4 L-5.2 -11.25 -5.7 -11.4 -5.35 -11.4 -4.9 -11.4 M-5.1 -11.2 L-3.4 -11.7 -2.1 -9.75 -5.1 -11.2 M-2.0 -9.45 L-1.55 -8.95 -2.2 -8.95 -2.05 -9.15 -2.05 -9.3 -2.0 -9.45 M-7.25 -8.8 L-8.35 -8.7 -8.65 -8.8 -9.95 -8.65 -7.25 -8.8 M-12.3 -8.35 L-12.4 -8.35 -12.4 -8.55 -12.5 -8.9 Q-12.35 -9.15 -12.35 -9.7 L-6.55 -9.25 -5.45 -9.25 -8.6 -9.15 -12.0 -8.8 Q-12.4 -8.8 -12.4 -8.55 L-12.35 -8.4 -12.3 -8.35 M-12.9 -9.0 L-12.95 -8.8 -12.85 -8.3 -13.0 -8.25 -12.9 -8.1 -12.85 -8.1 Q-13.0 -7.1 -14.5 -3.4 L-14.6 -3.4 -14.75 -5.8 -14.6 -5.3 -14.5 -4.9 -14.5 -4.2 -14.4 -4.2 -14.4 -4.0 -14.35 -4.05 -14.35 -4.2 -14.3 -4.2 -14.3 -4.5 -13.6 -7.1 -13.6 -6.9 -13.5 -6.9 -13.2 -8.65 Q-13.25 -10.15 -13.7 -10.15 L-13.85 -10.1 -13.85 -10.15 -13.15 -11.05 -13.2 -10.95 -12.95 -9.85 -12.9 -9.0 M-15.0 -6.55 L-15.25 -6.55 Q-16.1 -5.6 -16.1 -3.4 L-15.85 -0.85 -15.85 -0.55 -16.15 -0.55 -16.7 -1.6 -16.75 -1.5 Q-16.7 -4.35 -16.35 -5.6 L-15.3 -7.65 -15.0 -6.55 M-16.35 -0.4 L-16.35 -0.1 Q-15.85 1.0 -15.85 3.65 L-15.95 5.75 -16.55 2.45 -16.75 -1.0 -16.75 -1.15 -16.7 -1.15 -16.35 -0.4 M3.55 -12.85 L3.65 -12.8 3.65 -12.75 3.7 -12.75 3.8 -12.7 3.5 -12.75 3.55 -12.85 M4.25 -12.55 L4.5 -12.55 4.85 -12.3 4.55 -12.45 4.5 -12.45 4.25 -12.55 M5.0 -12.15 L4.9 -12.25 5.05 -12.2 5.3 -12.5 4.9 -12.8 5.1 -12.85 5.1 -12.9 5.3 -12.7 5.35 -12.75 5.5 -12.1 5.05 -12.1 5.0 -12.15 M3.35 -12.3 L3.9 -11.9 2.5 -9.85 2.5 -10.0 3.35 -12.3 M1.75 -8.6 L1.7 -8.55 1.6 -8.6 1.75 -8.6 M0.6 -10.35 L-0.05 -11.25 0.65 -11.25 0.8 -11.25 0.8 -11.0 0.65 -11.25 0.5 -11.2 0.6 -10.35 M5.6 -17.2 L5.45 -17.2 5.45 -16.85 5.8 -15.95 5.6 -17.2 M8.8 -15.55 L8.75 -15.7 8.6 -15.75 8.5 -15.7 8.7 -15.55 8.65 -15.4 8.7 -15.15 8.75 -15.2 8.8 -15.5 8.8 -15.55 M6.1 -12.45 L6.0 -12.45 6.85 -10.5 6.95 -10.5 7.0 -10.6 6.1 -12.45 M6.0 -13.75 L5.95 -13.65 6.95 -11.5 7.5 -10.2 7.75 -8.8 6.0 -11.7 6.0 -11.8 5.75 -12.9 5.75 -13.2 5.6 -14.6 6.0 -13.75 M8.65 -11.7 L8.65 -11.25 8.75 -11.25 8.5 -10.75 8.65 -11.7 M8.45 -10.4 L8.75 -10.6 8.65 -10.5 8.45 -10.35 8.45 -10.4 M15.6 -9.55 L15.55 -9.55 14.3 -8.25 13.25 -10.15 14.35 -11.35 15.6 -9.55 M5.95 -11.6 L7.7 -8.85 7.25 -9.0 7.3 -9.0 7.0 -9.55 5.9 -11.55 5.95 -11.6 M5.05 -11.35 L4.85 -11.3 5.7 -10.4 5.05 -10.65 Q4.7 -10.85 4.3 -11.1 L4.0 -10.95 3.9 -11.05 4.3 -11.7 4.85 -11.6 5.05 -11.35 M6.2 -10.4 L5.2 -11.35 5.05 -11.55 5.65 -11.55 6.6 -9.9 6.4 -10.05 6.2 -10.4 M2.0 -9.15 L2.1 -9.75 2.1 -9.7 2.0 -9.1 2.0 -9.15 M14.2 -9.7 L14.05 -10.35 Q13.85 -10.3 13.85 -9.6 13.85 -9.15 14.15 -9.0 L14.2 -9.7 M-5.45 -16.05 L-3.2 -15.55 -4.1 -15.35 -4.25 -15.4 -4.25 -15.25 -6.3 -15.7 -5.7 -16.0 -5.45 -16.05 M-7.75 -15.0 L-6.3 -14.55 -7.45 -14.65 -7.45 -14.8 -8.0 -14.9 -7.75 -15.0 M-9.45 -13.35 L-9.2 -13.15 -9.1 -12.85 -9.35 -12.9 -9.3 -13.15 -9.45 -13.35 M-10.15 -13.65 L-10.15 -13.6 -9.5 -13.0 -9.6 -12.85 Q-8.8 -12.3 -6.4 -11.25 L-3.4 -9.85 -3.55 -9.85 -3.85 -9.8 -4.55 -10.0 -4.45 -10.05 -4.5 -10.1 -10.15 -11.7 -10.25 -11.7 -9.1 -11.05 -9.5 -11.1 -10.9 -11.65 -11.1 -11.8 -11.2 -11.65 -11.2 -11.6 -11.4 -11.5 Q-10.75 -11.05 -8.15 -10.2 L-5.95 -10.0 -5.6 -10.0 -5.2 -9.9 -5.15 -9.9 -4.75 -9.8 -4.7 -9.75 -7.4 -9.6 -7.4 -9.75 -8.5 -9.75 -10.9 -10.35 -11.35 -10.3 -8.6 -9.6 -9.35 -9.6 -12.1 -9.85 -12.35 -9.8 -12.4 -10.6 -12.2 -10.6 -12.0 -10.65 -12.0 -11.0 Q-12.2 -11.25 -12.2 -11.85 L-12.1 -12.0 -10.15 -13.65 M-12.55 -11.1 L-12.65 -11.2 -12.55 -11.2 -12.55 -11.1 M-8.95 -13.75 L-9.55 -13.7 -4.25 -13.05 -3.6 -13.15 -3.6 -13.3 -7.55 -13.45 -8.95 -13.75 M-4.8 -16.3 L-4.4 -16.1 -4.0 -16.1 -4.0 -16.3 -4.1 -16.35 -4.5 -16.35 -3.9 -16.6 -2.5 -15.8 -4.6 -16.1 -4.85 -16.25 -4.8 -16.3 M-0.95 -12.0 L-1.25 -12.0 -1.1 -12.15 -0.95 -12.0 M-14.3 -5.0 L-14.3 -5.8 -14.2 -6.15 Q-14.4 -8.1 -14.9 -8.35 L-14.15 -9.7 -14.0 -9.9 -14.0 -9.85 -13.9 -9.75 -14.15 -9.7 -13.8 -8.0 -14.3 -5.0 M-13.75 -9.6 L-13.75 -9.8 -13.7 -9.45 -13.75 -9.6 M-11.1 -8.4 L-10.9 -8.5 -10.85 -8.5 -11.1 -8.4" fill="#3f3c38" fill-rule="evenodd" stroke="none"/>
    <path d="M11.45 -12.3 L11.2 -13.6 11.35 -13.6 12.05 -10.65 12.1 -10.35 12.2 -10.65 12.3 -11.5 12.5 -11.25 12.3 -10.65 12.2 -10.15 12.1 -10.3 12.1 -10.05 12.1 -10.0 12.1 -9.85 12.05 -9.8 12.05 -9.85 12.0 -10.15 11.95 -10.35 11.75 -11.1 11.75 -11.2 11.45 -12.3 M12.55 -12.1 L12.85 -12.45 12.65 -11.85 12.55 -12.1 M-6.6 -16.6 L-6.65 -16.85 -6.3 -16.85 -6.1 -16.75 -5.95 -16.65 -4.85 -16.25 -4.6 -16.1 -2.5 -15.8 -3.9 -16.6 -5.0 -17.3 -5.0 -17.45 -4.85 -17.45 -4.75 -17.45 Q-4.2 -17.35 -3.35 -16.85 L-2.1 -15.85 -1.7 -15.55 -1.6 -15.55 -1.7 -15.5 -1.7 -15.45 -1.85 -15.4 -2.0 -15.45 -2.1 -15.45 -2.6 -15.45 -3.2 -15.55 -5.45 -16.05 -6.6 -16.4 -6.6 -16.45 -6.6 -16.6 M-2.65 -17.8 L-2.8 -17.9 -2.5 -17.95 -2.4 -17.8 -2.05 -17.25 -1.85 -17.0 -1.75 -16.9 -1.75 -16.85 -1.9 -16.75 -2.15 -17.2 -2.65 -17.8 M-1.0 -17.9 L-0.9 -18.05 -0.7 -17.9 -0.55 -17.55 -0.65 -17.55 -0.65 -17.35 -0.3 -16.6 -0.3 -15.75 0.1 -14.3 0.35 -13.7 0.3 -13.65 0.05 -14.25 -0.9 -17.45 -1.0 -17.9 M-0.05 -17.9 L-0.05 -18.25 0.2 -18.25 0.05 -18.2 0.1 -17.9 0.2 -17.75 0.1 -17.75 0.05 -17.55 0.8 -14.65 0.0 -17.5 -0.05 -17.65 -0.05 -17.9 M0.65 -18.05 L0.65 -18.1 0.7 -18.1 0.8 -18.05 0.95 -17.6 1.25 -17.15 2.15 -15.85 2.4 -15.55 2.35 -15.5 2.05 -15.85 Q1.15 -16.85 0.8 -17.55 L0.65 -17.8 0.65 -18.05 M1.9 -17.85 L1.9 -18.25 2.05 -18.25 2.15 -17.8 2.3 -17.45 2.45 -16.65 2.5 -16.35 2.75 -15.45 Q3.25 -16.6 3.35 -17.45 L3.35 -17.55 3.35 -17.75 3.5 -17.75 3.55 -17.55 3.55 -17.5 3.55 -17.45 3.5 -16.85 3.2 -16.15 3.3 -16.0 2.9 -15.1 2.9 -15.0 2.8 -14.85 2.75 -14.8 2.65 -14.8 2.65 -14.85 2.65 -14.9 2.6 -15.1 2.45 -15.7 2.5 -15.7 2.6 -15.85 2.2 -16.55 2.05 -17.5 1.9 -17.8 1.9 -17.85 M0.95 -11.25 L1.2 -10.4 1.7 -8.9 1.6 -8.85 1.55 -8.95 0.8 -10.95 0.8 -11.0 0.8 -11.25 0.8 -11.5 0.9 -11.5 0.95 -11.25 M1.75 -9.4 Q2.0 -12.7 1.45 -14.6 L1.3 -14.95 1.3 -15.0 1.2 -15.4 1.3 -15.4 1.4 -15.35 1.45 -15.35 1.5 -15.15 1.5 -14.95 Q1.85 -14.05 1.85 -12.3 L1.9 -10.1 2.1 -11.25 2.2 -11.95 2.2 -12.15 2.3 -12.55 Q2.3 -13.65 2.45 -14.1 L2.35 -14.05 2.3 -14.2 2.35 -14.35 2.4 -14.35 2.45 -14.35 2.65 -14.05 2.65 -13.5 2.5 -12.4 Q2.1 -11.5 2.1 -10.2 L2.15 -10.0 Q2.8 -10.45 2.95 -11.85 L3.2 -12.45 3.3 -12.7 3.35 -13.0 3.55 -12.85 3.5 -12.75 3.35 -12.3 2.5 -10.0 2.5 -9.85 2.05 -9.0 1.9 -8.85 1.85 -8.65 1.7 -8.65 1.7 -8.9 1.7 -9.1 1.75 -9.4 M3.95 -15.85 L3.2 -15.1 3.05 -15.15 5.1 -17.25 5.15 -17.2 4.5 -16.4 5.05 -15.65 5.6 -14.6 5.75 -13.2 5.75 -12.9 5.7 -12.9 5.2 -14.35 4.45 -16.35 3.95 -15.85 M6.25 -14.05 L5.95 -15.25 6.05 -14.9 6.3 -14.25 6.3 -13.9 6.25 -14.05 M6.25 -13.35 L6.4 -12.9 6.4 -12.85 7.45 -10.5 7.85 -9.4 7.8 -9.25 7.5 -10.2 6.95 -11.5 5.95 -13.65 6.0 -13.75 6.25 -13.35 M7.3 -11.95 L7.2 -12.85 7.25 -12.85 7.4 -12.25 7.4 -12.1 7.4 -11.85 7.3 -11.8 7.3 -11.95 M7.5 -12.2 L6.9 -14.4 6.9 -14.85 6.5 -16.4 6.5 -16.75 6.6 -16.75 6.95 -14.85 7.0 -14.85 7.7 -11.95 7.8 -11.5 7.75 -11.4 7.5 -12.2 M8.1 -11.8 L8.05 -11.95 8.1 -12.1 7.9 -13.2 7.55 -15.95 7.55 -16.3 7.7 -16.3 8.35 -11.4 8.5 -12.8 8.5 -13.0 8.5 -13.15 8.65 -15.0 8.75 -15.0 8.8 -14.3 8.65 -11.7 8.5 -10.75 8.5 -10.7 8.45 -10.4 8.4 -10.2 8.35 -9.85 8.3 -10.15 8.2 -10.35 8.3 -10.65 8.3 -10.75 8.3 -10.9 8.2 -10.7 8.15 -11.2 8.15 -11.35 8.1 -11.8 M9.1 -11.9 L10.25 -14.3 9.1 -11.65 9.05 -11.6 9.1 -11.9 M3.8 -15.4 L4.85 -13.75 5.35 -12.75 5.3 -12.7 5.1 -12.9 4.2 -14.35 3.65 -15.2 3.6 -15.25 3.6 -15.4 3.8 -15.4 M3.0 -14.35 L2.9 -14.5 3.0 -14.5 3.05 -14.4 4.4 -13.2 5.0 -12.55 4.4 -13.0 4.2 -13.15 4.1 -13.3 3.0 -14.35 M0.7 -12.15 L0.85 -12.0 0.8 -11.9 0.7 -11.9 0.2 -11.95 Q-0.35 -12.1 -0.8 -12.55 L-1.1 -12.9 -1.3 -13.3 -1.25 -13.3 -1.15 -13.2 -0.35 -12.75 -0.2 -12.45 0.0 -12.5 0.4 -12.25 -0.35 -13.45 -1.3 -14.85 -1.2 -14.85 -0.1 -13.5 0.55 -12.2 0.7 -12.15 M-3.25 -15.1 L-3.2 -15.1 -3.2 -14.9 -3.55 -14.9 -3.7 -14.9 -6.2 -15.2 -7.15 -15.35 -8.3 -15.5 -8.3 -15.65 -7.75 -15.7 -7.1 -15.65 -4.6 -15.0 -4.0 -15.0 -4.0 -15.2 -3.25 -15.1 M-4.45 -11.65 Q-4.5 -11.5 -4.9 -11.4 L-5.35 -11.4 -5.7 -11.4 -5.2 -11.25 -5.1 -11.2 -2.1 -9.75 -2.0 -9.55 -2.0 -9.45 -2.05 -9.3 -2.3 -9.25 -2.6 -9.2 -3.65 -9.4 -5.45 -9.25 -6.55 -9.25 -12.35 -9.7 Q-12.35 -9.15 -12.5 -8.9 -12.65 -8.7 -12.9 -8.7 L-12.9 -9.0 -12.95 -9.85 -13.2 -10.95 -13.15 -11.05 -13.1 -11.3 -12.9 -11.3 -12.65 -11.2 -12.55 -11.1 Q-12.85 -10.7 -12.4 -10.6 L-12.35 -9.8 -12.1 -9.85 -9.35 -9.6 -8.6 -9.6 -7.4 -9.6 -4.7 -9.75 -4.75 -9.8 -5.15 -9.9 -4.75 -9.9 -4.55 -10.0 -3.85 -9.8 -3.55 -9.85 -3.4 -9.85 -6.4 -11.25 Q-8.8 -12.3 -9.6 -12.85 L-9.5 -13.0 -10.15 -13.6 -10.15 -13.65 -10.2 -13.65 -10.3 -13.7 -10.25 -13.75 -10.1 -13.7 -10.0 -13.7 -9.6 -13.45 -9.55 -13.45 -9.6 -13.5 -9.45 -13.5 -8.95 -13.45 -8.8 -13.5 -8.8 -13.45 -4.1 -12.75 -4.0 -12.7 Q-4.3 -12.4 -5.3 -12.4 L-7.4 -12.5 -9.1 -13.3 -9.2 -13.2 -7.7 -12.5 -8.7 -12.8 -8.7 -12.75 -8.75 -12.75 -6.35 -11.7 Q-6.35 -11.95 -5.95 -11.95 L-5.0 -11.9 -4.5 -11.9 -4.45 -11.7 -4.45 -11.65 M8.8 -15.55 L8.8 -15.5 8.75 -15.2 8.7 -15.15 8.65 -15.4 8.7 -15.55 8.5 -15.7 8.6 -15.75 8.75 -15.7 8.8 -15.55 M5.6 -17.2 L5.8 -15.95 5.45 -16.85 5.45 -17.2 5.6 -17.2 M6.0 -11.7 L7.75 -8.8 7.75 -8.65 7.7 -8.85 5.95 -11.6 5.75 -11.85 5.8 -11.9 6.0 -11.7 M8.75 -11.25 L8.8 -11.25 8.8 -11.1 8.75 -11.0 8.6 -10.7 8.5 -10.75 8.75 -11.25 M5.2 -11.35 L5.1 -11.35 5.05 -11.35 4.85 -11.6 4.7 -11.8 4.8 -11.8 5.05 -11.55 5.2 -11.35 M6.3 -9.9 L6.2 -10.4 6.4 -10.05 6.95 -9.3 7.0 -9.2 7.1 -9.2 7.2 -8.95 7.3 -8.9 7.55 -8.55 7.5 -8.5 7.15 -8.9 7.0 -9.0 6.3 -9.9 M2.0 -9.1 L2.1 -9.7 2.1 -9.75 2.0 -9.15 1.9 -8.95 2.0 -9.1 M-6.3 -14.55 Q-4.45 -14.0 -3.5 -14.0 L-3.35 -14.05 -2.2 -13.75 -2.7 -13.65 -6.2 -14.1 -8.5 -14.65 Q-9.1 -14.85 -9.1 -14.95 -9.1 -15.15 -8.8 -15.15 L-8.0 -14.9 -7.45 -14.8 -7.45 -14.65 -6.3 -14.55 M-9.45 -13.35 L-9.3 -13.15 -9.35 -12.9 -9.1 -12.85 -9.2 -13.15 -9.45 -13.35 M-5.6 -10.0 L-5.95 -10.0 -8.15 -10.2 Q-10.75 -11.05 -11.4 -11.5 L-11.2 -11.6 -11.2 -11.65 -11.1 -11.8 -10.9 -11.65 -9.5 -11.1 -9.1 -11.05 Q-7.25 -10.15 -5.6 -10.0 M-13.9 -9.75 L-13.85 -9.45 -13.75 -9.6 -13.7 -9.45 -13.5 -8.2 -13.5 -8.1 -13.6 -8.05 -13.6 -7.1 -14.3 -4.5 -14.35 -4.7 -14.3 -5.0 -13.8 -8.0 -14.15 -9.7 -13.9 -9.75" fill="#322f2c" fill-rule="evenodd" stroke="none"/>
    <path d="M13.55 -11.25 L14.1 -11.7 14.35 -11.4 14.35 -11.35 13.25 -10.15 14.3 -8.25 15.55 -9.55 15.6 -9.55 15.9 -9.55 15.95 -9.25 15.85 -9.1 14.15 -7.65 12.85 -9.85 11.8 -9.2 10.6 -11.7 8.3 -9.55 8.2 -9.55 8.3 -8.3 Q8.3 -8.0 7.9 -8.0 7.4 -8.0 5.45 -9.45 L3.85 -10.9 1.7 -7.95 Q1.5 -7.95 0.55 -9.3 L-0.55 -11.3 Q-2.15 -11.4 -3.0 -11.8 L-0.85 -8.8 -0.85 -8.65 -0.9 -8.55 -1.1 -8.5 -1.2 -8.6 -6.55 -8.25 -10.45 -8.0 -11.35 -8.1 -12.3 -8.05 -12.4 -8.05 Q-12.55 -7.1 -13.4 -5.05 L-13.7 -4.4 Q-14.45 -2.8 -14.75 -2.6 -15.15 -4.5 -15.15 -5.85 -15.75 -5.2 -15.75 -3.4 L-15.55 -1.15 -14.95 0.9 -15.0 1.1 -15.3 1.1 -15.5 0.75 Q-15.5 7.05 -15.95 7.85 L-16.15 7.9 -16.45 7.85 -16.45 7.4 -16.35 7.2 -16.1 6.4 -15.85 6.95 -15.8 6.9 -15.95 6.05 -15.95 5.8 -15.95 5.75 -15.85 3.65 Q-15.85 1.0 -16.35 -0.1 L-16.35 -0.4 -16.15 -0.25 -16.1 -0.3 -16.15 -0.55 -15.85 -0.55 -15.85 -0.85 -16.1 -3.4 Q-16.1 -5.6 -15.25 -6.55 L-15.0 -6.55 -14.75 -5.8 -14.6 -3.4 -14.5 -3.4 Q-13.0 -7.1 -12.85 -8.1 L-12.9 -8.1 -13.0 -8.25 -12.85 -8.3 -12.95 -8.8 -12.9 -9.0 -12.9 -8.7 Q-12.65 -8.7 -12.5 -8.9 L-12.4 -8.55 -12.4 -8.35 -12.3 -8.35 -11.6 -8.4 -11.2 -8.35 -11.15 -8.35 -10.2 -8.5 -8.35 -8.7 -7.25 -8.8 -6.95 -8.8 -3.6 -8.85 -2.2 -8.95 -1.55 -8.95 -2.0 -9.45 -2.0 -9.55 -2.1 -9.75 -3.4 -11.7 -5.1 -11.2 -5.2 -11.25 -4.9 -11.4 Q-4.5 -11.5 -4.45 -11.65 L-4.3 -11.8 Q-3.3 -12.4 -1.55 -13.05 L-1.9 -13.4 -2.1 -13.7 -2.15 -13.65 -2.2 -13.75 -2.8 -14.7 -3.5 -14.7 -3.85 -14.8 -3.9 -14.85 -3.7 -14.9 -3.55 -14.9 -3.2 -14.9 -3.2 -15.1 -3.25 -15.1 -3.0 -15.2 -2.95 -15.15 -1.85 -15.4 -1.7 -15.45 -1.6 -15.45 -1.2 -15.55 -1.6 -16.55 -1.75 -16.85 -1.75 -16.9 -1.85 -17.0 -1.85 -17.05 -1.7 -17.3 -0.8 -15.45 Q-0.8 -14.9 -2.2 -14.7 L-1.15 -13.2 -1.25 -13.3 -1.3 -13.3 -1.1 -12.9 -1.55 -12.5 -1.6 -12.5 -1.75 -12.45 -1.75 -12.4 -2.35 -12.15 -1.85 -12.1 -1.9 -12.0 -1.3 -11.85 -0.55 -11.85 0.55 -11.7 0.7 -11.8 0.9 -11.7 0.8 -11.9 0.85 -12.0 0.7 -12.15 0.0 -14.0 0.05 -14.25 0.3 -13.65 0.35 -13.7 0.1 -14.3 0.2 -14.3 1.25 -11.8 1.2 -11.55 1.25 -11.5 0.95 -11.25 0.9 -11.5 0.8 -11.5 0.8 -11.25 0.65 -11.25 -0.05 -11.25 0.6 -10.35 0.65 -10.05 Q0.95 -8.85 1.6 -8.6 L1.7 -8.55 1.75 -8.6 1.9 -8.6 2.1 -8.6 2.15 -8.8 2.05 -9.0 2.5 -9.85 3.9 -11.9 3.35 -12.3 3.5 -12.75 3.8 -12.7 4.0 -12.55 4.25 -12.55 4.5 -12.45 4.25 -12.4 5.0 -12.0 5.0 -12.15 5.05 -12.1 5.5 -12.1 5.35 -12.75 5.1 -14.25 5.2 -14.35 5.7 -12.9 5.75 -12.9 6.0 -11.8 6.0 -11.7 5.8 -11.9 5.75 -11.85 5.95 -11.6 5.9 -11.55 5.7 -11.8 5.6 -11.65 5.65 -11.55 5.05 -11.55 4.8 -11.8 4.7 -11.8 4.85 -11.6 4.3 -11.7 3.9 -11.05 4.0 -10.95 Q5.45 -9.9 6.25 -9.4 L6.2 -9.3 Q6.55 -8.95 7.15 -8.9 L7.5 -8.5 7.55 -8.55 7.3 -8.9 7.3 -8.95 7.2 -8.95 7.25 -9.0 7.7 -8.85 7.75 -8.65 7.75 -8.8 7.5 -10.2 7.8 -9.25 7.85 -9.4 7.45 -10.5 7.25 -11.9 7.3 -11.95 7.3 -11.8 7.4 -11.85 7.4 -12.1 7.5 -12.2 7.75 -11.4 7.8 -11.5 7.7 -11.95 7.85 -11.5 8.05 -10.8 8.05 -10.65 8.1 -10.65 8.15 -10.1 8.3 -10.15 8.35 -9.85 8.4 -10.2 Q8.95 -10.2 8.95 -10.7 L8.95 -10.75 9.2 -10.95 10.55 -11.95 10.15 -12.8 10.15 -12.85 10.15 -13.0 10.15 -13.3 10.25 -13.3 10.45 -12.9 10.3 -12.9 10.3 -12.75 11.1 -11.5 11.8 -10.2 11.9 -10.0 12.0 -9.85 12.05 -9.85 12.05 -9.8 12.1 -9.85 12.1 -10.0 13.0 -10.7 13.55 -11.2 13.55 -11.25 M2.4 -14.35 L1.5 -15.45 1.5 -15.55 1.7 -15.65 2.15 -15.2 2.1 -15.2 2.3 -15.1 2.7 -14.5 3.95 -15.85 4.1 -15.8 3.8 -15.4 3.6 -15.4 3.6 -15.25 3.65 -15.2 3.05 -14.4 3.0 -14.5 2.9 -14.5 3.0 -14.35 2.7 -14.05 2.65 -14.05 2.45 -14.35 2.4 -14.35 M3.2 -12.45 L3.05 -12.55 Q3.1 -12.7 3.3 -12.7 L3.2 -12.45" fill="#171615" fill-rule="evenodd" stroke="none"/>
    <path d="M12.3 -11.5 Q12.05 -11.9 12.05 -12.6 L12.1 -13.4 12.25 -13.4 12.55 -12.1 12.65 -11.85 12.8 -11.5 12.65 -11.2 12.5 -11.25 12.3 -11.5 M13.45 -11.35 L13.3 -11.3 13.1 -11.8 13.2 -12.0 13.5 -11.5 13.5 -11.4 13.45 -11.35 M2.45 -17.75 L2.45 -17.8 2.6 -17.8 2.7 -17.75 2.8 -17.45 2.95 -16.75 2.95 -16.1 2.65 -16.05 2.5 -16.35 2.45 -16.65 2.4 -17.45 2.4 -17.55 2.45 -17.75 M3.55 -17.5 L3.65 -17.5 3.85 -17.3 3.35 -15.95 3.3 -16.0 3.2 -16.15 3.5 -16.85 3.55 -17.5 M0.5 -17.5 Q0.95 -16.6 1.6 -11.85 L1.55 -11.8 Q1.1 -13.0 0.9 -14.25 L0.85 -14.4 0.8 -14.65 0.05 -17.55 0.1 -17.75 0.2 -17.75 0.25 -17.75 0.5 -17.5 M-0.35 -17.45 L0.4 -14.9 0.55 -14.85 0.55 -14.4 0.5 -14.35 -0.3 -16.6 -0.65 -17.35 -0.65 -17.55 -0.55 -17.55 -0.35 -17.55 -0.35 -17.45 M2.1 -11.25 L2.05 -11.25 2.0 -11.35 2.1 -11.9 1.9 -14.5 2.05 -14.5 2.2 -12.15 2.2 -11.95 2.1 -11.25 M5.05 -15.65 L4.8 -16.3 4.85 -16.3 6.25 -14.05 6.3 -13.9 7.2 -12.1 7.15 -11.95 6.25 -13.35 6.0 -13.75 5.6 -14.6 5.05 -15.65 M7.2 -12.85 L7.15 -12.8 Q6.35 -13.5 6.35 -15.35 L6.0 -16.85 6.05 -16.85 7.25 -12.9 7.25 -12.85 7.2 -12.85 M8.05 -11.95 L7.2 -15.7 7.2 -16.1 7.4 -16.1 7.9 -13.2 8.1 -12.1 8.05 -11.95 M8.5 -12.8 L8.4 -12.5 Q8.1 -14.35 8.1 -15.25 L8.0 -15.7 8.1 -15.7 8.5 -13.15 8.5 -13.0 8.5 -12.8 M8.65 -11.7 L9.35 -14.95 9.5 -14.7 Q9.5 -13.45 9.1 -11.9 L9.05 -11.6 8.9 -11.3 8.8 -11.25 8.75 -11.25 8.65 -11.25 8.65 -11.7 M9.55 -11.85 L10.0 -13.15 10.15 -13.0 10.15 -12.85 10.15 -12.8 9.95 -11.95 9.5 -11.5 9.4 -11.65 9.55 -11.85 M11.5 -11.55 L10.75 -13.6 10.8 -13.6 11.45 -12.3 11.75 -11.2 11.75 -11.1 11.7 -11.1 11.5 -11.55 M4.85 -13.75 L4.4 -15.2 4.5 -15.5 5.05 -14.2 5.05 -13.8 4.85 -13.75 M1.15 -17.6 L1.1 -17.75 1.3 -17.8 1.6 -17.5 2.2 -16.55 2.6 -15.85 2.5 -15.7 2.45 -15.7 2.45 -15.75 2.35 -15.8 Q1.85 -16.25 1.15 -17.6 M-0.35 -12.75 L-1.15 -14.05 -1.1 -14.05 0.05 -12.55 0.0 -12.5 -0.2 -12.45 -0.35 -12.75 M4.6 -13.05 Q3.65 -14.0 3.55 -14.6 L3.7 -14.6 4.2 -14.35 5.1 -12.9 5.1 -12.85 4.9 -12.8 4.85 -12.8 4.6 -13.05 M3.35 -13.0 L2.9 -13.35 2.9 -13.45 3.05 -13.5 4.0 -13.3 4.2 -13.15 4.4 -13.0 4.5 -12.85 4.5 -12.55 4.25 -12.55 4.0 -12.55 3.8 -12.7 3.7 -12.75 3.65 -12.8 3.55 -12.85 3.35 -13.0 M2.5 -12.4 L2.75 -12.85 2.95 -12.45 2.95 -11.85 Q2.8 -10.45 2.15 -10.0 L2.1 -10.2 Q2.1 -11.5 2.5 -12.4 M6.1 -12.45 L7.0 -10.6 6.95 -10.5 6.85 -10.5 6.0 -12.45 6.1 -12.45 M5.05 -11.35 L5.1 -11.35 5.2 -11.35 6.2 -10.4 6.3 -9.9 6.25 -9.85 5.7 -10.4 4.85 -11.3 5.05 -11.35 M5.65 -11.55 L5.6 -11.65 5.7 -11.8 5.9 -11.55 7.0 -9.55 7.15 -9.25 7.1 -9.2 7.0 -9.2 6.95 -9.3 6.6 -9.9 5.65 -11.55 M14.2 -9.7 L14.15 -9.0 Q13.85 -9.15 13.85 -9.6 13.85 -10.3 14.05 -10.35 L14.2 -9.7 M-7.1 -15.65 L-7.2 -15.75 -6.85 -15.8 -6.3 -15.7 -4.25 -15.25 -4.1 -15.25 -4.0 -15.2 -4.0 -15.0 -4.6 -15.0 -7.1 -15.65 M-7.75 -15.0 L-7.9 -15.1 -8.0 -15.2 -7.85 -15.35 -7.4 -15.2 -3.35 -14.35 -3.35 -14.05 -3.5 -14.0 Q-4.45 -14.0 -6.3 -14.55 L-7.75 -15.0 M-7.7 -12.5 L-9.2 -13.2 -9.1 -13.3 -7.4 -12.5 -6.5 -12.1 -6.5 -12.0 -7.7 -12.5 M-4.55 -10.0 L-4.75 -9.9 -5.15 -9.9 -5.2 -9.9 -5.6 -10.0 Q-7.25 -10.15 -9.1 -11.05 L-10.25 -11.7 -10.15 -11.7 -4.5 -10.1 -4.45 -10.05 -4.55 -10.0 M-7.4 -9.6 L-8.6 -9.6 -11.35 -10.3 -10.9 -10.35 -8.5 -9.75 -7.4 -9.75 -7.4 -9.6 M-8.95 -13.75 L-7.55 -13.45 -3.6 -13.3 -3.6 -13.15 -4.25 -13.05 -9.55 -13.7 -8.95 -13.75 M-4.5 -16.35 L-4.1 -16.35 -4.0 -16.3 -4.0 -16.1 -4.4 -16.1 -4.8 -16.3 -5.1 -16.4 -4.5 -16.35 M-14.0 -9.9 L-13.9 -10.0 -13.9 -10.05 -13.85 -10.1 -13.7 -10.15 Q-13.25 -10.15 -13.2 -8.65 L-13.5 -6.9 -13.6 -6.9 -13.6 -7.1 -13.6 -8.05 -13.5 -8.1 -13.5 -8.2 -13.7 -9.45 -13.75 -9.8 -13.75 -9.6 -13.85 -9.45 -13.9 -9.75 -14.0 -9.85 -14.0 -9.9" fill="#504b47" fill-rule="evenodd" stroke="none"/>
    <path d="M12.05 -10.65 L12.2 -10.65 12.1 -10.35 12.05 -10.65 M12.3 -10.65 L13.45 -11.35 13.5 -11.4 13.55 -11.25 13.55 -11.2 13.0 -10.7 12.1 -10.05 12.1 -10.3 12.2 -10.15 12.3 -10.65 M-16.15 6.2 L-16.45 6.2 Q-17.35 4.2 -17.35 -1.0 -17.35 -4.3 -16.8 -5.85 -16.4 -7.15 -15.0 -9.2 L-14.95 -9.25 -14.05 -10.5 -15.25 -8.65 Q-17.05 -5.7 -17.05 -3.85 L-17.0 -3.75 -17.3 -0.55 Q-17.3 3.3 -16.15 6.2 M-14.65 -9.9 L-14.05 -10.8 Q-12.8 -12.7 -10.5 -14.25 L-11.05 -13.75 -12.7 -11.85 -14.05 -10.5 -14.65 -9.9 M-9.9 -14.65 L-9.65 -14.85 -6.6 -16.6 -6.6 -16.45 -7.25 -16.15 -6.6 -16.4 -5.45 -16.05 -5.7 -16.0 -6.3 -15.7 -6.85 -15.8 -7.2 -15.75 -7.1 -15.65 -7.75 -15.7 -8.3 -15.65 -8.3 -15.5 -7.15 -15.35 -7.4 -15.2 -7.85 -15.35 -8.0 -15.2 -7.9 -15.1 -7.75 -15.0 -8.0 -14.9 -8.8 -15.15 Q-9.1 -15.15 -9.1 -14.95 -9.1 -14.85 -8.5 -14.65 L-9.35 -14.25 -10.1 -13.7 -10.25 -13.75 -10.3 -13.7 -10.2 -13.65 -10.15 -13.65 -12.1 -12.0 -12.2 -11.85 Q-12.2 -11.25 -12.0 -11.0 L-12.0 -10.65 -12.2 -10.6 -12.4 -10.6 Q-12.85 -10.7 -12.55 -11.1 L-12.55 -11.2 -12.65 -11.2 -12.9 -11.3 -13.1 -11.3 -13.15 -11.05 -13.85 -10.15 -13.85 -10.1 -13.9 -10.05 -13.9 -10.0 -14.0 -9.9 -14.15 -9.7 -14.9 -8.35 Q-14.4 -8.1 -14.2 -6.15 L-14.3 -5.8 -14.3 -5.0 -14.35 -4.7 -14.3 -4.5 -14.3 -4.2 -14.35 -4.2 -14.35 -4.7 -14.35 -5.55 -14.75 -7.35 -14.9 -7.35 -14.6 -5.3 -14.75 -5.8 -15.0 -6.55 -15.3 -7.65 -16.35 -5.6 Q-16.7 -4.35 -16.75 -1.5 L-16.7 -1.6 -16.15 -0.55 -16.1 -0.3 -16.15 -0.25 -16.35 -0.4 -16.7 -1.15 -16.75 -1.15 -16.75 -1.0 -16.55 2.45 -15.95 5.75 -15.95 5.8 -15.95 6.05 -17.1 1.35 -17.15 -0.85 -16.85 -3.45 -16.8 -4.05 Q-16.2 -8.2 -13.1 -11.3 L-11.8 -12.45 -12.4 -12.0 -10.25 -14.35 -9.9 -14.65 M-6.3 -16.85 L-5.0 -17.3 -3.9 -16.6 -4.5 -16.35 -5.1 -16.4 -4.8 -16.3 -4.85 -16.25 -5.95 -16.65 -5.75 -16.85 -5.9 -16.9 -6.1 -16.75 -6.3 -16.85 M-4.75 -17.45 L-2.65 -17.8 -2.15 -17.2 -2.2 -17.2 -3.35 -16.85 Q-4.2 -17.35 -4.75 -17.45 M-2.4 -17.8 L-1.0 -17.9 -0.9 -17.45 -1.7 -17.3 -2.05 -17.25 -2.4 -17.8 M-0.7 -17.9 L-0.55 -17.9 -0.05 -17.9 -0.05 -17.65 0.0 -17.5 -0.35 -17.45 -0.35 -17.55 -0.55 -17.55 -0.7 -17.9 M0.1 -17.9 L0.35 -17.85 0.1 -18.05 0.2 -18.1 0.65 -18.05 0.65 -17.8 0.8 -17.55 0.5 -17.5 0.25 -17.75 0.2 -17.75 0.1 -17.9 M0.8 -18.05 L1.9 -17.85 1.9 -17.8 2.05 -17.5 1.6 -17.5 1.3 -17.8 1.1 -17.75 1.15 -17.6 0.95 -17.6 0.8 -18.05 M2.15 -17.8 L2.45 -17.75 2.4 -17.55 2.4 -17.45 2.3 -17.45 2.15 -17.8 M2.7 -17.75 L3.35 -17.55 3.35 -17.45 3.25 -17.45 2.8 -17.45 2.7 -17.75 M2.65 -14.9 Q2.1 -15.2 1.9 -15.85 L2.05 -15.85 2.35 -15.5 2.4 -15.55 2.15 -15.85 2.35 -15.8 2.45 -15.75 2.45 -15.7 2.6 -15.1 2.65 -14.9 M1.2 -10.4 L1.75 -9.4 1.7 -9.1 1.7 -8.9 1.7 -8.65 1.85 -8.65 1.9 -8.85 2.05 -9.0 2.15 -8.8 2.1 -8.6 1.9 -8.6 1.75 -8.6 1.6 -8.6 Q0.95 -8.85 0.65 -10.05 L0.6 -10.35 0.5 -11.2 0.65 -11.25 0.8 -11.0 0.8 -10.95 1.55 -8.95 0.7 -10.1 0.65 -10.05 1.6 -8.7 1.6 -8.85 1.7 -8.9 1.2 -10.4 M7.85 -11.5 L7.85 -11.95 8.0 -11.95 8.1 -11.8 8.15 -11.35 8.1 -11.35 8.15 -11.2 8.2 -10.7 8.3 -10.9 8.3 -10.75 8.3 -10.65 8.1 -10.65 8.05 -10.65 8.05 -10.8 7.85 -11.5 M9.1 -11.65 Q9.25 -11.85 9.55 -11.85 L9.4 -11.65 9.5 -11.5 9.95 -11.95 10.15 -11.95 10.25 -11.85 8.9 -10.75 8.9 -10.8 8.8 -10.7 8.8 -10.65 8.75 -10.6 8.45 -10.4 8.5 -10.7 8.5 -10.75 8.6 -10.7 8.75 -11.0 8.8 -11.1 8.8 -11.25 8.9 -11.3 9.05 -11.6 9.1 -11.65 M10.45 -12.9 L10.55 -12.9 11.5 -11.55 11.7 -11.1 11.75 -11.1 11.95 -10.35 11.9 -10.35 11.1 -11.5 10.3 -12.75 10.3 -12.9 10.45 -12.9 M0.7 -11.8 L0.55 -11.7 -0.55 -11.85 0.2 -11.85 0.2 -11.95 0.7 -11.9 0.8 -11.9 0.8 -11.8 0.7 -11.8 M-1.75 -12.4 L-1.75 -12.45 -1.6 -12.5 -1.55 -12.5 -1.1 -12.45 -0.8 -12.55 Q-0.35 -12.1 0.2 -11.95 L-0.95 -12.0 -1.1 -12.15 -1.25 -12.0 -1.5 -12.1 -1.75 -12.2 -1.75 -12.4 M-3.0 -15.2 L-3.25 -15.1 -4.0 -15.2 -4.1 -15.25 -4.25 -15.25 -4.25 -15.4 -4.1 -15.35 -3.2 -15.55 -2.6 -15.45 -3.0 -15.2 M-2.15 -13.65 L-2.1 -13.7 -1.9 -13.4 Q-1.9 -13.2 -3.25 -12.45 L-4.1 -11.95 -2.15 -13.3 Q-4.3 -12.45 -4.5 -11.9 L-5.0 -11.9 Q-4.3 -12.55 -2.15 -13.65 M-2.2 -8.95 L-3.6 -8.85 -6.95 -8.8 -7.25 -8.8 -9.95 -8.65 -10.85 -8.65 -10.85 -8.5 -10.9 -8.5 -11.1 -8.4 -11.5 -8.4 -11.6 -8.4 -12.3 -8.35 -12.35 -8.4 -12.4 -8.55 Q-12.4 -8.8 -12.0 -8.8 L-8.6 -9.15 -5.45 -9.25 -3.65 -9.4 -2.6 -9.2 -2.3 -9.25 -2.05 -9.3 -2.05 -9.15 -2.2 -8.95 M4.0 -13.3 L4.1 -13.3 4.2 -13.15 4.0 -13.3 M3.65 -12.8 L3.7 -12.75 3.65 -12.75 3.65 -12.8 M4.5 -12.55 L4.5 -12.85 4.4 -13.0 5.0 -12.55 4.4 -13.2 4.6 -13.05 4.85 -12.8 4.9 -12.8 5.3 -12.5 5.05 -12.2 4.9 -12.25 4.9 -12.3 4.85 -12.3 4.5 -12.55 M5.7 -10.4 L6.25 -9.85 6.3 -9.9 7.0 -9.0 6.25 -9.4 Q5.45 -9.9 4.0 -10.95 L4.3 -11.1 Q4.7 -10.85 5.05 -10.65 L5.7 -10.4 M6.6 -9.9 L6.95 -9.3 6.4 -10.05 6.6 -9.9 M7.1 -9.2 L7.15 -9.25 7.0 -9.55 7.3 -9.0 7.25 -9.0 7.2 -8.95 7.1 -9.2 M2.0 -9.15 L2.0 -9.1 1.9 -8.95 2.0 -9.15 M-2.1 -15.85 L-1.9 -15.95 -2.15 -16.65 -2.05 -16.75 -2.05 -16.85 -1.5 -15.85 -1.6 -15.5 -1.7 -15.5 -1.6 -15.55 -1.7 -15.55 -2.1 -15.85 M-14.5 -4.9 L-14.4 -4.2 -14.5 -4.2 -14.5 -4.9" fill="#504d47" fill-rule="evenodd" stroke="none"/>
    <path d="M-16.1 6.4 L-16.15 6.2 Q-17.3 3.3 -17.3 -0.55 L-17.0 -3.75 -17.05 -3.85 Q-17.05 -5.7 -15.25 -8.65 L-14.05 -10.5 -14.95 -9.25 -14.95 -9.3 -14.7 -9.85 -14.65 -9.9 -14.05 -10.5 -12.7 -11.85 -11.05 -13.75 -10.5 -14.25 -10.45 -14.3 -9.75 -14.8 -9.9 -14.65 -10.25 -14.35 -12.4 -12.0 -11.8 -12.45 -13.1 -11.3 Q-16.2 -8.2 -16.8 -4.05 L-16.85 -3.45 -17.15 -0.85 -17.1 1.35 -15.95 6.05 -15.8 6.9 -15.85 6.95 -16.1 6.4 M2.75 -14.8 L2.8 -14.65 2.65 -14.8 2.4 -15.0 2.65 -14.85 2.65 -14.8 2.75 -14.8 M2.15 -15.2 L2.15 -15.25 2.3 -15.1 2.1 -15.2 2.15 -15.2 M11.95 -10.35 L12.0 -10.15 11.8 -10.2 11.8 -10.35 11.9 -10.35 11.95 -10.35 M8.95 -10.75 L8.95 -10.7 Q8.95 -10.2 8.4 -10.2 L8.45 -10.4 8.45 -10.35 8.65 -10.5 8.75 -10.6 8.8 -10.65 8.8 -10.7 8.9 -10.8 8.9 -10.75 8.95 -10.75 M-0.55 -11.85 L-1.3 -11.85 -1.9 -12.0 -1.85 -12.1 -1.5 -12.1 -1.25 -12.0 -0.95 -12.0 0.2 -11.95 0.2 -11.85 -0.55 -11.85 M-1.6 -15.45 L-1.7 -15.45 -1.7 -15.5 -1.6 -15.5 -1.6 -15.45 M-1.85 -15.4 L-2.95 -15.15 -3.0 -15.2 -2.6 -15.45 -2.1 -15.45 -2.0 -15.45 -1.85 -15.4 M-4.3 -11.8 L-4.45 -11.65 -4.45 -11.7 -4.5 -11.9 Q-4.3 -12.45 -2.15 -13.3 L-4.1 -11.95 -4.3 -11.8 M-8.35 -8.7 L-10.2 -8.5 -11.15 -8.35 -11.2 -8.35 -11.6 -8.4 -11.5 -8.4 -11.1 -8.4 -10.85 -8.5 -10.85 -8.65 -9.95 -8.65 -8.65 -8.8 -8.35 -8.7 M4.5 -12.45 L4.55 -12.45 4.85 -12.3 4.9 -12.3 4.9 -12.25 5.0 -12.15 5.0 -12.0 4.25 -12.4 4.5 -12.45 M8.15 -11.35 L8.15 -11.2 8.1 -11.35 8.15 -11.35 M7.15 -8.9 Q6.55 -8.95 6.2 -9.3 L6.25 -9.4 7.0 -9.0 7.15 -8.9 M7.2 -8.95 L7.3 -8.95 7.3 -8.9 7.2 -8.95 M0.65 -10.05 L0.7 -10.1 1.55 -8.95 1.6 -8.85 1.6 -8.7 0.65 -10.05 M-6.6 -16.45 L-6.6 -16.4 -7.25 -16.15 -6.6 -16.45 M-5.95 -16.65 L-6.1 -16.75 -5.9 -16.9 -5.75 -16.85 -5.95 -16.65 M-14.6 -5.3 L-14.9 -7.35 -14.75 -7.35 -14.35 -5.55 -14.35 -4.7 -14.35 -4.2 -14.35 -4.05 -14.4 -4.0 -14.4 -4.2 -14.5 -4.9 -14.6 -5.3" fill="#928d85" fill-rule="evenodd" stroke="none"/>
    <path d="M-13.7 -4.4 L-13.4 -5.05 Q-12.55 -7.1 -12.4 -8.05 L-12.3 -8.05 -11.35 -8.1 -10.45 -8.0 -6.55 -8.25 -1.2 -8.6 -1.1 -8.5 -0.9 -8.55 -0.85 -8.65 -0.85 -8.8 -3.0 -11.8 Q-2.15 -11.4 -0.55 -11.3 L0.55 -9.3 Q1.5 -7.95 1.7 -7.95 L3.85 -10.9 5.45 -9.45 Q7.4 -8.0 7.9 -8.0 8.3 -8.0 8.3 -8.3 L8.2 -9.55 8.3 -9.55 10.6 -11.7 11.8 -9.2 12.85 -9.85 14.15 -7.65 15.85 -9.1 Q18.0 -5.25 18.0 -0.5 18.0 4.2 15.85 8.0 14.6 10.3 12.7 12.2 7.45 17.5 0.0 17.5 L-4.4 17.05 -4.4 16.95 -4.2 16.9 -4.4 16.8 -4.4 16.75 Q-5.1 16.0 -5.45 16.0 L-7.25 14.65 Q-9.25 13.2 -10.0 11.4 -11.35 9.35 -11.7 8.2 L-12.25 6.6 -13.5 5.1 -13.9 2.7 -13.15 0.05 -13.4 -1.5 -13.3 -1.6 -13.25 -1.75 -13.7 -4.2 -13.7 -4.4 M8.6 -6.4 L7.7 -6.25 Q6.25 -6.1 5.05 -4.9 3.95 -3.8 3.7 -2.35 L0.1 -2.35 Q0.05 -4.4 -1.45 -5.95 -3.05 -7.5 -5.2 -7.5 L-6.2 -7.45 Q-7.8 -7.15 -9.05 -5.95 -10.6 -4.35 -10.6 -2.1 -10.6 0.05 -9.05 1.65 -7.8 2.85 -6.2 3.15 L-5.2 3.2 Q-3.05 3.2 -1.45 1.65 -0.4 0.6 -0.05 -0.75 L3.65 -0.75 Q3.85 0.95 5.05 2.2 6.25 3.35 7.7 3.6 L8.6 3.65 Q10.7 3.65 12.1 2.2 13.6 0.7 13.6 -1.35 13.6 -3.45 12.1 -4.9 10.7 -6.4 8.6 -6.4 M10.5 8.75 Q11.7 7.1 11.7 6.4 11.7 6.0 10.85 5.8 L9.85 5.75 8.45 5.85 1.1 5.0 Q-1.4 4.2 -7.55 4.05 L-7.7 4.05 -9.4 4.05 Q-9.7 4.05 -9.8 4.25 L-10.3 4.6 -10.25 4.7 -10.55 5.4 -10.3 5.4 -9.8 4.7 -8.7 6.9 -7.3 9.35 -5.35 11.15 Q-2.65 12.6 3.6 12.6 L3.65 12.6 4.2 12.6 Q7.6 12.4 9.4 9.9 L10.15 9.1 10.2 9.1 Q10.2 8.9 10.5 8.75 M9.35 8.9 L9.25 9.0 8.35 9.1 8.6 8.9 8.75 8.75 9.85 8.25 9.9 8.3 9.35 8.9 M-3.6 13.9 Q-3.6 15.0 -1.1 15.0 0.95 15.0 0.95 14.2 0.95 13.3 -2.05 13.3 -3.6 13.3 -3.6 13.9" fill="#fbc87b" fill-rule="evenodd" stroke="none"/>
    <path d="M8.6 -6.4 Q10.7 -6.4 12.1 -4.9 13.6 -3.45 13.6 -1.35 13.6 0.7 12.1 2.2 10.7 3.65 8.6 3.65 L7.7 3.6 Q6.25 3.35 5.05 2.2 3.85 0.95 3.65 -0.75 L-0.05 -0.75 Q-0.4 0.6 -1.45 1.65 -3.05 3.2 -5.2 3.2 L-6.2 3.15 Q-7.8 2.85 -9.05 1.65 -10.6 0.05 -10.6 -2.1 -10.6 -4.35 -9.05 -5.95 -7.8 -7.15 -6.2 -7.45 L-5.2 -7.5 Q-3.05 -7.5 -1.45 -5.95 0.05 -4.4 0.1 -2.35 L3.7 -2.35 Q3.95 -3.8 5.05 -4.9 6.25 -6.1 7.7 -6.25 L8.6 -6.4 M4.85 -4.45 Q4.1 -3.45 4.1 -2.6 L4.2 -2.35 Q5.2 -5.5 8.2 -5.5 L8.4 -5.35 8.65 -5.4 Q8.5 -5.85 7.75 -5.85 5.95 -5.85 4.85 -4.45 M0.2 -1.8 L3.3 -1.8 3.3 -2.1 3.25 -2.2 -0.1 -2.1 -0.1 -1.95 0.2 -1.8 M8.5 -5.05 Q6.95 -5.05 5.9 -4.0 4.75 -2.9 4.75 -1.3 4.75 0.3 5.9 1.4 6.95 2.5 8.5 2.5 9.65 2.5 10.55 1.95 L11.2 1.4 Q12.3 0.3 12.3 -1.3 12.3 -2.9 11.2 -4.0 L10.8 -4.35 Q9.85 -5.05 8.5 -5.05 M-4.55 -6.9 L-4.4 -7.0 -5.15 -7.15 -5.95 -7.2 Q-6.95 -7.2 -8.3 -6.2 L-9.6 -4.95 Q-10.25 -4.2 -10.25 -1.95 -10.2 1.5 -8.6 1.5 L-8.45 1.5 Q-8.15 2.5 -7.2 2.5 L-7.0 2.4 -7.1 2.3 -8.3 1.25 Q-9.9 -0.5 -9.9 -2.0 -9.9 -4.45 -8.95 -5.05 L-7.5 -6.2 -4.55 -6.9 M-5.3 -5.85 Q-6.9 -5.85 -8.0 -4.75 -9.1 -3.7 -9.1 -2.05 -9.1 -0.5 -8.0 0.6 -6.9 1.7 -5.3 1.7 -3.7 1.7 -2.65 0.6 L-2.2 0.1 -1.75 -0.75 Q-1.5 -1.35 -1.5 -2.05 L-1.5 -2.35 Q-1.55 -3.25 -2.05 -4.05 L-2.65 -4.75 Q-3.7 -5.85 -5.3 -5.85" fill="#58503a" fill-rule="evenodd" stroke="none"/>
    <path d="M0.2 -1.8 L-0.1 -1.95 -0.1 -2.1 3.25 -2.2 3.3 -2.1 3.3 -1.8 0.2 -1.8 M4.85 -4.45 Q5.95 -5.85 7.75 -5.85 8.5 -5.85 8.65 -5.4 L8.4 -5.35 8.2 -5.5 Q5.2 -5.5 4.2 -2.35 L4.1 -2.6 Q4.1 -3.45 4.85 -4.45 M-4.55 -6.9 L-7.5 -6.2 -8.95 -5.05 Q-9.9 -4.45 -9.9 -2.0 -9.9 -0.5 -8.3 1.25 L-7.1 2.3 -7.0 2.4 -7.2 2.5 Q-8.15 2.5 -8.45 1.5 L-8.6 1.5 Q-10.2 1.5 -10.25 -1.95 -10.25 -4.2 -9.6 -4.95 L-8.3 -6.2 Q-6.95 -7.2 -5.95 -7.2 L-5.15 -7.15 -4.4 -7.0 -4.55 -6.9" fill="#796f51" fill-rule="evenodd" stroke="none"/>
    <path d="M7.3 -1.15 L7.4 -0.6 7.5 -0.4 7.25 -0.25 Q7.25 0.2 8.15 0.2 9.25 0.2 9.25 -0.2 9.25 -0.5 8.8 -0.5 L8.7 -0.5 8.8 -1.1 Q8.8 -2.0 8.0 -2.0 7.3 -2.0 7.3 -1.15 M8.5 -5.05 Q9.85 -5.05 10.8 -4.35 L11.2 -4.0 Q12.3 -2.9 12.3 -1.3 12.3 0.3 11.2 1.4 L10.55 1.95 Q9.65 2.5 8.5 2.5 6.95 2.5 5.9 1.4 4.75 0.3 4.75 -1.3 4.75 -2.9 5.9 -4.0 6.95 -5.05 8.5 -5.05 M11.3 -0.15 L11.6 -1.95 11.3 -2.25 10.7 -1.6 Q10.3 -1.0 10.4 -0.6 10.4 0.75 8.3 0.75 L7.3 0.65 Q6.9 0.65 7.0 0.95 L6.35 0.45 6.3 0.75 Q6.3 1.9 8.9 1.9 9.8 1.9 10.6 1.0 11.3 0.3 11.3 -0.15 M-5.65 -1.9 L-5.6 -1.35 -5.65 -1.3 -5.8 -1.35 -5.9 -1.35 -6.0 -1.1 Q-5.5 -0.75 -4.55 -0.75 -3.8 -0.75 -3.8 -1.0 L-4.0 -1.3 -4.1 -1.35 -4.0 -2.0 Q-4.1 -3.0 -4.8 -3.0 -5.35 -3.0 -5.45 -2.4 L-5.65 -1.9 M-5.15 -4.05 L-5.6 -3.9 -5.5 -3.85 -5.15 -4.05 M-5.2 -0.2 L-6.25 -0.45 Q-6.3 0.0 -6.6 0.15 -7.0 0.0 -7.0 0.35 -7.0 0.9 -5.9 0.8 L-4.5 0.75 Q-3.25 0.4 -2.7 -0.15 -2.1 -0.8 -2.1 -1.75 -2.1 -3.45 -2.7 -3.45 L-3.0 -3.1 -2.9 -2.25 Q-3.4 -0.2 -5.2 -0.2 M-5.3 -5.85 Q-3.7 -5.85 -2.65 -4.75 L-2.05 -4.05 Q-1.55 -3.25 -1.5 -2.35 L-1.5 -2.05 Q-1.5 -1.35 -1.75 -0.75 L-2.2 0.1 -2.65 0.6 Q-3.7 1.7 -5.3 1.7 -6.9 1.7 -8.0 0.6 -9.1 -0.5 -9.1 -2.05 -9.1 -3.7 -8.0 -4.75 -6.9 -5.85 -5.3 -5.85" fill="#d2cdbd" fill-rule="evenodd" stroke="none"/>
    <path d="M7.3 -1.15 Q7.3 -2.0 8.0 -2.0 8.8 -2.0 8.8 -1.1 L8.7 -0.5 8.8 -0.5 Q9.25 -0.5 9.25 -0.2 9.25 0.2 8.15 0.2 7.25 0.2 7.25 -0.25 L7.5 -0.4 7.4 -0.6 7.3 -1.15 M-5.15 -4.05 L-5.5 -3.85 -5.6 -3.9 -5.15 -4.05 M-5.65 -1.9 L-5.45 -2.4 Q-5.35 -3.0 -4.8 -3.0 -4.1 -3.0 -4.0 -2.0 L-4.1 -1.35 -4.0 -1.3 -3.8 -1.0 Q-3.8 -0.75 -4.55 -0.75 -5.5 -0.75 -6.0 -1.1 L-5.9 -1.35 -5.8 -1.35 -5.65 -1.3 -5.6 -1.35 -5.65 -1.9" fill="#070605" fill-rule="evenodd" stroke="none"/>
    <path d="M11.3 -0.15 Q11.3 0.3 10.6 1.0 9.8 1.9 8.9 1.9 6.3 1.9 6.3 0.75 L6.35 0.45 7.0 0.95 Q6.9 0.65 7.3 0.65 L8.3 0.75 Q10.4 0.75 10.4 -0.6 10.3 -1.0 10.7 -1.6 L11.3 -2.25 11.6 -1.95 11.3 -0.15 M-5.2 -0.2 Q-3.4 -0.2 -2.9 -2.25 L-3.0 -3.1 -2.7 -3.45 Q-2.1 -3.45 -2.1 -1.75 -2.1 -0.8 -2.7 -0.15 -3.25 0.4 -4.5 0.75 L-5.9 0.8 Q-7.0 0.9 -7.0 0.35 -7.0 0.0 -6.6 0.15 -6.3 0.0 -6.25 -0.45 L-5.2 -0.2" fill="#c8c1ae" fill-rule="evenodd" stroke="none"/>
    <path d="M10.5 8.75 Q10.2 8.9 10.2 9.1 L10.15 9.1 9.4 9.9 Q7.6 12.4 4.2 12.6 L3.65 12.6 3.6 12.6 Q-2.65 12.6 -5.35 11.15 L-7.3 9.35 -8.7 6.9 -9.8 4.7 -10.3 5.4 -10.55 5.4 -10.25 4.7 -10.3 4.6 -9.8 4.25 Q-9.7 4.05 -9.4 4.05 L-7.7 4.05 -7.55 4.05 Q-1.4 4.2 1.1 5.0 L8.45 5.85 9.85 5.75 10.85 5.8 Q11.7 6.0 11.7 6.4 11.7 7.1 10.5 8.75 M9.85 8.25 L11.05 6.5 9.8 6.35 8.6 6.45 1.4 5.7 0.9 5.55 0.0 5.4 -7.85 4.8 -8.0 4.8 -8.2 4.8 -8.8 4.85 -8.9 4.8 -9.2 5.1 -7.55 7.95 -7.25 8.3 -7.1 8.75 -7.0 8.7 -6.35 9.45 -4.9 10.7 -4.85 10.7 -3.25 11.25 3.6 11.9 6.0 11.55 Q7.7 11.0 8.9 9.5 L9.35 8.9 9.9 8.3 9.85 8.25" fill="#865204" fill-rule="evenodd" stroke="none"/>
    <path d="M-8.8 4.85 L-8.2 4.8 -8.0 4.8 -7.85 4.8 0.0 5.4 0.9 5.55 1.4 5.7 8.6 6.45 9.8 6.35 11.05 6.5 9.85 8.25 8.75 8.75 7.85 9.0 8.2 9.1 8.35 9.1 9.25 9.0 9.35 8.9 8.9 9.5 Q7.7 11.0 6.0 11.55 L3.6 11.9 -3.25 11.25 -4.85 10.7 -4.8 10.6 -6.0 9.4 -6.8 8.2 -6.55 8.25 -6.2 8.25 -5.9 8.15 -5.7 8.15 -5.35 8.1 -5.3 8.15 -4.7 7.95 -3.1 8.55 -2.75 8.55 -2.4 8.55 -1.85 8.3 -2.0 8.2 -2.65 8.2 -4.4 7.6 -4.5 7.6 -4.5 7.55 -4.8 7.5 -5.35 7.7 -5.45 7.65 -5.5 7.7 -5.75 7.7 -5.8 7.65 -6.6 7.5 -6.65 7.4 -7.7 6.7 -8.45 5.4 -8.65 5.2 -8.8 4.85" fill="#ffffff" fill-rule="evenodd" stroke="none"/>
    <path d="M-4.4 17.05 L-4.55 17.1 -4.7 16.95 Q-9.25 15.75 -12.8 12.2 -14.75 10.2 -15.95 7.85 -15.5 7.05 -15.5 0.75 L-15.3 1.1 -15.0 1.1 -14.95 0.9 -15.55 -1.15 -15.75 -3.4 Q-15.75 -5.2 -15.15 -5.85 -15.15 -4.5 -14.75 -2.6 -14.45 -2.8 -13.7 -4.4 L-13.7 -4.2 -13.25 -1.75 -13.3 -1.6 -13.4 -1.5 -13.15 0.05 -13.9 2.7 -13.5 5.1 -12.25 6.6 -11.7 8.2 Q-11.35 9.35 -10.0 11.4 -9.25 13.2 -7.25 14.65 L-5.45 16.0 Q-5.1 16.0 -4.4 16.75 L-4.4 16.8 -4.2 16.9 -4.4 16.95 -4.4 17.05 M-3.6 13.9 Q-3.6 13.3 -2.05 13.3 0.95 13.3 0.95 14.2 0.95 15.0 -1.1 15.0 -3.6 15.0 -3.6 13.9" fill="#fbba59" fill-rule="evenodd" stroke="none"/>
    <path d="M-8.8 4.85 L-8.65 5.2 -8.45 5.4 -7.7 6.7 -6.65 7.4 -6.6 7.5 -5.8 7.65 -5.75 7.7 -5.5 7.7 -5.45 7.65 -5.35 7.7 -4.8 7.5 -4.5 7.55 -4.5 7.6 -4.4 7.6 -2.65 8.2 -2.0 8.2 -1.85 8.3 -2.4 8.55 -2.75 8.55 -3.1 8.55 -4.7 7.95 -5.3 8.15 -5.35 8.1 -5.7 8.15 -5.9 8.15 -6.2 8.25 -6.55 8.25 -6.8 8.2 -6.0 9.4 -4.8 10.6 -4.85 10.7 -4.9 10.7 -6.35 9.45 -7.0 8.7 -7.1 8.75 -7.25 8.3 -7.55 7.95 -9.2 5.1 -8.9 4.8 -8.8 4.85" fill="#000000" fill-rule="evenodd" stroke="none"/>
    <path d="M14.1 -11.7 L12.9 -13.05 12.7 -13.3 Q10.75 -15.2 8.45 -16.4 8.15 -16.6 7.9 -16.75 M7.3 -17.0 Q4.25 -18.4 0.7 -18.5 L0.0 -18.5 Q-4.7 -18.5 -8.45 -16.4 -10.8 -15.2 -12.8 -13.3 L-14.95 -10.6 Q-18.0 -6.15 -18.0 -0.5 -18.0 3.7 -16.35 7.2 M14.35 -11.35 L15.6 -9.55 M15.85 -9.1 Q18.0 -5.25 18.0 -0.5 18.0 4.2 15.85 8.0 14.6 10.3 12.7 12.2 7.45 17.5 0.0 17.5 L-4.4 17.05 M-4.7 16.95 Q-9.25 15.75 -12.8 12.2 -14.75 10.2 -15.95 7.85" fill="none" stroke="#865204" stroke-linecap="round" stroke-linejoin="round" stroke-width="0.5"/>
    <path d="M8.6 -6.4 Q10.7 -6.4 12.1 -4.9 13.6 -3.45 13.6 -1.35 13.6 0.7 12.1 2.2 10.7 3.65 8.6 3.65 L7.7 3.6 Q6.25 3.35 5.05 2.2 3.85 0.95 3.65 -0.75 L-0.05 -0.75 Q-0.4 0.6 -1.45 1.65 -3.05 3.2 -5.2 3.2 L-6.2 3.15 Q-7.8 2.85 -9.05 1.65 -10.6 0.05 -10.6 -2.1 -10.6 -4.35 -9.05 -5.95 -7.8 -7.15 -6.2 -7.45 L-5.2 -7.5 Q-3.05 -7.5 -1.45 -5.95 0.05 -4.4 0.1 -2.35 L3.7 -2.35 Q3.95 -3.8 5.05 -4.9 6.25 -6.1 7.7 -6.25 L8.6 -6.4 M8.5 -5.05 Q9.85 -5.05 10.8 -4.35 L11.2 -4.0 Q12.3 -2.9 12.3 -1.3 12.3 0.3 11.2 1.4 L10.55 1.95 Q9.65 2.5 8.5 2.5 6.95 2.5 5.9 1.4 4.75 0.3 4.75 -1.3 4.75 -2.9 5.9 -4.0 6.95 -5.05 8.5 -5.05 M-5.3 -5.85 Q-3.7 -5.85 -2.65 -4.75 L-2.05 -4.05 Q-1.55 -3.25 -1.5 -2.35 L-1.5 -2.05 Q-1.5 -1.35 -1.75 -0.75 L-2.2 0.1 -2.65 0.6 Q-3.7 1.7 -5.3 1.7 -6.9 1.7 -8.0 0.6 -9.1 -0.5 -9.1 -2.05 -9.1 -3.7 -8.0 -4.75 -6.9 -5.85 -5.3 -5.85" fill="none" stroke="#000000" stroke-linecap="round" stroke-linejoin="round" stroke-width="0.5"/>
  </g>
</svg>
