<?xml version="1.0" encoding="UTF-8" standalone="no"?>
<svg xmlns:xlink="http://www.w3.org/1999/xlink" height="30.5px" width="30.5px" xmlns="http://www.w3.org/2000/svg">
  <g transform="matrix(1.0, 0.0, 0.0, 1.0, 15.25, 15.25)">
    <path d="M1.8 -14.4 L1.7 -14.8 1.6 -14.8 1.6 -14.45 0.65 -14.6 0.6 -14.65 0.55 -14.65 0.55 -14.6 0.15 -14.65 0.1 -14.6 0.3 -14.45 0.1 -14.5 0.05 -14.75 0.15 -14.8 -0.05 -14.8 -0.05 -14.5 -0.45 -14.5 -0.6 -14.5 -0.75 -14.6 -0.85 -14.5 -2.0 -14.4 -2.1 -14.55 -2.35 -14.5 -2.2 -14.4 -3.95 -14.1 -4.05 -14.1 -4.15 -14.1 -4.15 -14.0 -5.25 -13.6 -5.55 -13.6 -5.5 -13.4 -8.05 -11.95 -8.25 -11.8 -8.05 -12.0 -8.7 -11.5 -8.75 -11.45 Q-10.65 -10.15 -11.7 -8.6 L-12.2 -7.85 -12.25 -7.8 -12.45 -7.35 -12.5 -7.25 Q-13.65 -5.55 -14.0 -4.45 -14.45 -3.15 -14.45 -0.4 -14.45 3.9 -13.7 5.6 L-13.45 5.6 -13.4 5.75 -13.6 6.4 Q-15.0 3.5 -15.0 0.0 -15.0 -4.7 -12.45 -8.4 L-10.65 -10.65 Q-9.0 -12.25 -7.05 -13.25 -3.9 -15.0 0.0 -15.0 L0.6 -15.0 Q3.55 -14.9 6.1 -13.75 L6.2 -13.75 6.6 -13.55 7.05 -13.25 Q8.95 -12.25 10.6 -10.65 L10.75 -10.45 11.75 -9.35 11.3 -8.95 11.25 -9.1 11.25 -9.15 11.0 -9.6 10.9 -9.4 11.1 -9.0 11.2 -9.05 Q10.7 -8.6 10.25 -8.45 L10.4 -8.95 10.55 -8.9 10.65 -9.15 10.55 -9.45 10.7 -9.95 10.45 -9.65 10.2 -10.75 10.1 -10.75 10.05 -10.1 10.25 -9.15 10.15 -8.45 10.05 -8.45 9.45 -10.9 9.35 -10.9 9.55 -9.85 9.0 -10.9 8.95 -10.9 9.6 -9.2 8.8 -10.35 8.7 -10.35 8.55 -10.65 8.45 -10.65 8.45 -10.4 8.35 -10.55 7.95 -9.45 7.6 -9.3 8.55 -11.5 7.6 -9.5 7.9 -11.85 7.8 -12.05 7.2 -9.35 7.35 -11.5 7.3 -12.1 7.2 -12.1 7.1 -10.55 6.75 -12.65 6.65 -12.65 6.75 -12.3 7.0 -10.0 7.1 -10.25 6.95 -9.1 6.4 -13.15 6.3 -13.15 6.3 -12.85 6.6 -10.6 6.15 -13.0 6.0 -13.0 6.0 -12.65 6.7 -9.55 6.75 -9.4 6.65 -9.55 6.55 -9.55 6.55 -9.15 6.4 -9.55 5.85 -11.95 5.8 -11.95 5.5 -13.55 5.4 -13.55 5.4 -13.25 5.75 -11.95 5.75 -11.6 6.25 -9.75 6.15 -9.65 6.15 -9.8 6.05 -10.3 6.05 -10.35 5.05 -13.6 5.0 -13.6 5.3 -12.35 Q5.3 -10.85 5.95 -10.25 L6.0 -10.3 6.1 -9.55 6.05 -9.5 6.2 -8.35 5.35 -10.3 5.35 -10.35 5.2 -10.7 5.95 -9.55 6.0 -9.65 5.25 -11.15 5.25 -11.45 5.05 -12.0 4.95 -12.3 5.2 -11.3 4.05 -13.15 4.0 -13.15 4.2 -12.6 3.75 -13.25 4.3 -13.9 4.25 -13.95 2.55 -12.2 2.65 -12.15 3.3 -12.8 2.25 -11.65 1.9 -12.15 2.2 -11.9 2.35 -11.8 2.3 -11.9 2.35 -11.95 2.4 -12.1 2.4 -12.15 2.75 -12.9 2.8 -12.85 3.2 -14.0 3.05 -14.15 2.95 -14.15 2.95 -14.2 2.9 -14.35 2.8 -14.35 2.8 -14.2 2.25 -14.35 2.15 -14.4 2.05 -14.4 2.05 -14.35 1.8 -14.4 M1.7 -14.15 L1.85 -13.35 1.35 -14.15 1.7 -14.15 M2.2 -12.0 L2.2 -11.95 1.8 -12.3 1.8 -12.25 1.4 -12.6 1.25 -12.55 1.25 -12.45 2.0 -11.55 1.95 -11.55 1.9 -11.4 1.95 -11.3 2.05 -11.35 Q1.9 -10.95 1.9 -10.05 L1.85 -9.7 1.7 -11.65 1.6 -11.65 1.75 -9.5 1.65 -9.05 1.7 -8.95 1.75 -8.95 1.6 -8.0 1.55 -9.85 1.25 -12.05 1.25 -12.2 1.2 -12.35 1.15 -12.35 1.1 -12.4 1.0 -12.4 1.1 -12.1 1.1 -12.05 1.2 -11.75 Q1.65 -10.15 1.45 -7.4 L1.0 -8.25 0.8 -8.95 1.05 -9.15 1.0 -9.2 1.05 -9.4 0.15 -11.5 0.1 -11.5 -0.25 -12.7 -0.25 -13.4 0.4 -11.55 0.45 -11.6 0.45 -11.95 Q0.35 -11.95 0.35 -12.0 L-0.3 -14.1 0.0 -14.15 0.65 -11.8 0.7 -11.6 0.75 -11.45 Q0.9 -10.4 1.3 -9.4 L1.35 -9.45 Q0.8 -13.4 0.4 -14.15 L0.65 -14.2 1.7 -12.8 1.6 -12.8 Q1.75 -12.25 2.2 -12.0 M1.9 -14.1 L2.0 -14.1 2.05 -13.45 1.9 -14.1 M2.1 -13.2 L2.2 -12.95 2.45 -13.0 2.45 -13.55 2.35 -14.1 2.7 -14.1 2.8 -14.1 2.3 -12.45 2.1 -13.2 M1.8 -12.8 Q1.05 -13.65 1.05 -13.85 L0.8 -14.25 0.95 -14.25 1.95 -12.75 1.8 -12.8 M2.2 -11.3 L2.25 -11.3 2.5 -11.55 3.4 -10.65 3.35 -10.65 2.55 -10.85 2.4 -10.8 2.4 -10.7 2.8 -10.4 2.75 -10.15 2.55 -10.05 2.65 -9.95 2.45 -9.45 2.45 -9.95 2.3 -10.3 2.1 -9.9 2.2 -10.85 2.2 -11.3 M2.55 -11.6 L3.05 -12.25 3.5 -11.55 3.1 -11.75 2.95 -11.75 Q3.05 -11.25 3.85 -10.45 L3.65 -10.6 2.55 -11.6 M3.15 -12.4 L3.4 -12.75 3.3 -12.8 3.7 -13.2 4.35 -11.55 4.25 -11.45 4.45 -10.2 4.05 -11.05 4.2 -11.1 4.2 -11.4 Q4.05 -12.25 3.75 -12.5 L3.65 -12.25 4.05 -11.05 3.15 -12.4 M4.8 -10.35 L4.8 -10.6 4.65 -11.75 5.0 -11.05 4.95 -10.95 5.8 -9.15 6.25 -8.1 6.45 -6.9 5.0 -9.35 5.0 -9.4 4.8 -10.35 M2.9 -13.6 L2.95 -14.1 2.95 -14.15 2.9 -13.6 M7.25 -12.55 L7.2 -12.4 7.25 -12.2 7.3 -12.25 7.35 -12.5 7.35 -12.55 7.3 -12.65 7.15 -12.7 7.1 -12.65 7.25 -12.55 M4.65 -13.9 L4.55 -13.9 4.55 -13.6 4.85 -12.85 4.65 -13.9 M8.45 -10.25 L8.8 -9.55 7.65 -8.7 7.45 -8.55 7.4 -8.55 8.55 -9.45 8.45 -9.55 8.3 -9.55 8.45 -10.25 M6.9 -8.05 L6.8 -8.0 6.75 -8.45 6.9 -8.45 6.85 -8.2 6.9 -8.05 M7.05 -8.25 L7.35 -8.45 7.2 -8.35 7.05 -8.2 7.05 -8.25 M7.3 -8.95 L7.1 -8.55 7.2 -9.35 7.2 -8.95 7.3 -8.95 M5.8 -8.35 L5.85 -8.4 5.1 -9.95 5.0 -9.95 5.7 -8.35 5.8 -8.35 M4.75 -8.25 L4.2 -8.45 3.6 -8.85 3.35 -8.7 3.25 -8.8 3.6 -9.35 4.05 -9.25 4.2 -9.05 4.05 -9.0 4.75 -8.25 M5.15 -8.25 L4.35 -9.05 4.2 -9.2 4.7 -9.2 5.5 -7.85 5.35 -7.95 5.15 -8.25 M5.85 -7.55 L4.9 -9.2 4.95 -9.25 6.4 -6.95 6.05 -7.1 6.1 -7.1 5.85 -7.55 M13.0 -7.55 L12.95 -7.55 11.9 -6.45 11.05 -8.05 11.95 -9.05 13.0 -7.55 M10.0 -8.05 L10.05 -7.8 10.0 -7.8 9.9 -7.9 9.25 -9.15 9.9 -8.2 9.85 -8.2 9.85 -8.1 10.0 -8.05 M10.1 -7.9 L10.1 -7.95 10.85 -8.5 10.1 -7.9 M4.25 -10.35 L4.4 -10.15 4.45 -10.2 4.6 -9.65 4.2 -9.65 4.15 -9.7 4.1 -9.8 4.2 -9.75 4.4 -10.0 4.1 -10.25 4.25 -10.3 4.25 -10.35 M3.75 -9.95 L3.55 -10.05 3.75 -10.05 4.05 -9.85 3.8 -9.95 3.75 -9.95 M3.15 -10.15 L2.9 -10.2 2.95 -10.3 3.05 -10.25 3.05 -10.2 3.1 -10.2 3.15 -10.15 M2.8 -9.85 L3.25 -9.5 2.1 -7.8 2.1 -7.9 2.8 -9.85 M1.45 -6.75 L1.4 -6.7 1.35 -6.75 1.45 -6.75 M0.5 -8.2 L-0.05 -8.95 0.55 -8.95 0.65 -8.95 0.65 -8.75 0.55 -8.95 0.4 -8.9 0.5 -8.2 M0.05 -11.45 L0.0 -11.25 0.6 -9.7 0.45 -9.75 -0.1 -10.85 -1.0 -11.95 -1.1 -11.95 -0.3 -10.8 0.35 -9.8 0.0 -10.0 0.05 -10.05 -0.9 -11.3 -0.95 -11.3 -0.3 -10.2 -0.95 -10.6 -1.85 -11.85 Q-0.65 -12.0 -0.65 -12.45 L-1.4 -14.0 -1.55 -13.8 -1.45 -13.65 -1.7 -13.95 -1.4 -14.0 -0.75 -14.1 0.05 -11.45 M0.65 -9.5 L0.75 -9.35 0.6 -9.4 0.65 -9.4 0.65 -9.5 M-1.55 -9.65 L-1.95 -9.7 -1.45 -9.9 -1.45 -9.75 Q-1.35 -9.65 -1.25 -9.65 L-1.55 -9.65 M-1.3 -10.0 L-0.9 -10.35 -0.65 -10.05 -0.9 -9.95 -1.3 -10.0 M-1.45 -13.6 L-1.35 -13.35 -1.0 -12.55 -1.35 -12.45 -1.35 -12.5 -1.25 -12.8 -1.7 -13.6 -1.7 -13.55 -1.8 -13.45 -1.6 -12.85 -1.75 -12.8 -2.8 -13.6 -1.85 -13.9 -1.8 -13.9 -1.6 -13.55 -1.45 -13.6 M-3.1 -12.0 L-3.25 -11.95 -3.2 -11.9 -2.9 -11.85 -2.35 -11.85 -1.85 -11.05 -1.8 -10.95 -4.15 -9.5 -4.95 -9.55 Q-5.3 -9.55 -5.3 -9.35 L-7.3 -10.2 -7.25 -10.2 -7.25 -10.25 -6.4 -10.0 -5.4 -9.6 -5.4 -9.65 -6.15 -10.0 -4.4 -9.9 Q-3.6 -9.9 -3.35 -10.15 L-3.4 -10.2 -7.35 -10.8 -7.35 -10.85 -7.45 -10.8 -7.9 -10.85 -7.85 -10.85 -7.95 -10.85 -8.0 -10.85 -7.95 -10.8 -7.65 -10.55 -7.6 -10.3 -7.8 -10.35 -7.75 -10.55 -7.95 -10.8 -8.0 -10.8 -8.35 -11.0 -8.4 -11.0 -7.8 -11.45 -7.1 -11.8 -5.15 -11.35 -2.25 -10.95 -1.85 -11.05 -2.8 -11.3 -2.8 -11.55 -6.15 -12.25 -5.95 -12.35 -5.15 -12.25 -3.1 -12.0 M-1.6 -10.75 L-1.3 -10.45 -3.6 -9.4 -3.4 -9.55 -2.7 -9.95 -1.6 -10.75 M-4.1 -9.1 L-4.35 -8.95 -4.75 -9.1 -4.45 -9.1 -4.1 -9.1 M-4.25 -8.9 L-2.85 -9.35 -1.75 -7.7 -4.25 -8.9 M-1.65 -7.45 L-1.3 -7.05 -1.85 -7.05 -1.7 -7.2 -1.7 -7.35 -1.65 -7.45 M-6.05 -6.9 L-6.95 -6.85 -7.2 -6.9 -8.3 -6.8 -6.05 -6.9 M-10.25 -6.55 L-10.35 -6.55 -10.35 -6.7 -10.4 -7.0 -10.3 -7.65 -5.45 -7.3 -4.55 -7.3 -7.15 -7.2 -10.0 -6.9 Q-10.35 -6.9 -10.35 -6.7 L-10.3 -6.6 -10.25 -6.55 M-10.75 -7.1 L-10.8 -6.9 -10.7 -6.5 -10.85 -6.45 -10.75 -6.35 -10.7 -6.35 Q-10.85 -5.5 -12.1 -2.4 L-12.15 -2.4 -12.3 -4.4 -12.15 -4.0 -12.1 -3.65 -12.1 -3.1 -12.0 -3.1 -12.0 -2.9 -11.95 -2.95 -11.95 -3.1 -11.9 -3.1 -11.9 -3.35 -11.35 -5.5 -11.35 -5.35 -11.25 -5.35 -11.0 -6.8 Q-11.05 -8.05 -11.4 -8.05 L-11.55 -8.0 -11.55 -8.05 -10.95 -8.8 -11.0 -8.7 -10.8 -7.8 -10.75 -7.1 M-12.5 -5.05 L-12.7 -5.05 Q-13.4 -4.25 -13.4 -2.4 -13.4 -0.8 -13.2 -0.3 L-13.2 -0.05 -13.45 -0.05 -13.9 -0.9 -13.95 -0.85 -13.6 -4.25 -12.75 -5.95 -12.5 -5.05 M-13.6 0.1 L-13.6 0.35 Q-13.2 1.25 -13.2 3.45 L-13.3 5.2 -13.8 2.45 -13.95 -0.4 -13.95 -0.55 -13.9 -0.55 -13.6 0.1 M-0.8 -9.6 L-1.05 -9.6 -0.9 -9.7 -0.8 -9.6 M1.65 -7.15 L1.65 -7.2 1.75 -7.7 1.75 -7.65 1.65 -7.15 M11.8 -7.1 L11.85 -7.65 11.7 -8.2 Q11.55 -8.15 11.55 -7.6 11.55 -7.2 11.8 -7.1 M-4.05 -13.1 L-4.0 -13.15 -3.65 -13.0 -3.35 -13.0 -3.35 -13.15 -3.4 -13.2 -3.75 -13.2 -3.25 -13.4 -2.1 -12.75 -3.85 -13.0 -4.05 -13.1 M-4.55 -12.95 L-2.65 -12.55 -3.4 -12.35 -3.55 -12.4 -3.55 -12.3 -5.25 -12.65 -4.75 -12.9 -4.55 -12.95 M-10.55 -8.9 L-10.45 -8.9 -10.45 -8.85 -10.55 -8.9 M-10.35 -8.4 L-10.15 -8.4 -10.0 -8.45 -10.0 -8.75 -10.15 -9.45 -10.1 -9.6 -8.45 -10.95 -8.45 -10.9 -7.9 -10.4 -8.0 -10.3 -5.35 -8.95 Q-5.1 -8.8 -2.85 -7.8 L-2.95 -7.8 -3.2 -7.75 -3.8 -7.9 -3.7 -7.95 -3.75 -8.0 -8.45 -9.35 -8.55 -9.35 -7.6 -8.8 -7.9 -8.85 -9.1 -9.3 -9.25 -9.4 -9.35 -9.3 -9.35 -9.25 -9.5 -9.15 -6.8 -8.1 -4.95 -7.9 -4.65 -7.9 -4.35 -7.85 -4.3 -7.85 -3.95 -7.75 -3.9 -7.7 -6.15 -7.6 -6.15 -7.7 -7.1 -7.7 -9.1 -8.2 -9.45 -8.15 -7.15 -7.6 -7.8 -7.6 -10.1 -7.8 -10.3 -7.75 -10.35 -8.4 M-6.65 -12.0 L-6.45 -12.1 -5.25 -11.7 -6.2 -11.8 -6.2 -11.9 -6.65 -12.0 M-11.65 -7.85 L-11.65 -7.8 -11.6 -7.7 -11.8 -7.65 -11.5 -6.25 -11.9 -3.75 -11.9 -4.4 -11.85 -4.7 Q-12.0 -6.35 -12.4 -6.55 L-11.8 -7.65 -11.65 -7.85 M-11.45 -7.6 L-11.45 -7.75 -11.4 -7.45 -11.45 -7.6 M-3.55 -10.45 L-3.0 -10.55 -3.0 -10.65 -6.3 -10.8 -7.45 -11.05 -7.95 -11.0 -3.55 -10.45 M-9.25 -6.6 L-9.1 -6.65 -9.05 -6.65 -9.25 -6.6" fill="#3f3c38" fill-rule="evenodd" stroke="none"/>
    <path d="M1.6 -14.45 L1.6 -14.8 1.7 -14.8 1.8 -14.4 1.9 -14.1 2.05 -13.45 2.1 -13.2 2.3 -12.45 2.8 -14.1 2.8 -14.2 2.8 -14.35 2.9 -14.35 2.95 -14.2 2.95 -14.15 2.95 -14.1 2.9 -13.6 2.65 -13.05 2.75 -12.9 2.4 -12.15 2.4 -12.1 2.35 -11.95 2.3 -11.9 2.2 -11.9 2.2 -11.95 2.2 -12.0 2.15 -12.15 2.05 -12.65 2.1 -12.65 2.15 -12.8 1.85 -13.35 1.7 -14.15 1.6 -14.4 1.6 -14.45 M3.3 -12.8 L2.65 -12.15 2.55 -12.2 4.25 -13.95 4.3 -13.9 3.75 -13.25 4.2 -12.6 4.65 -11.75 4.8 -10.6 4.8 -10.35 4.75 -10.35 4.35 -11.55 3.7 -13.2 3.3 -12.8 M5.2 -11.3 L4.95 -12.3 5.05 -12.0 5.25 -11.45 5.25 -11.15 5.2 -11.3 M5.2 -10.7 L5.35 -10.35 5.35 -10.3 6.2 -8.35 6.55 -7.4 6.5 -7.3 6.25 -8.1 5.8 -9.15 4.95 -10.95 5.0 -11.05 5.2 -10.7 M6.1 -9.55 L6.0 -10.3 6.05 -10.3 6.15 -9.8 6.15 -9.65 6.15 -9.45 6.1 -9.4 6.1 -9.55 M6.25 -9.75 L5.75 -11.6 5.75 -11.95 5.4 -13.25 5.4 -13.55 5.5 -13.55 5.8 -11.95 5.85 -11.95 6.4 -9.55 6.5 -9.15 6.45 -9.1 6.25 -9.75 M6.75 -9.4 L6.7 -9.55 6.75 -9.65 6.6 -10.6 6.3 -12.85 6.3 -13.15 6.4 -13.15 6.95 -9.1 7.1 -10.25 7.1 -10.4 7.1 -10.55 7.2 -12.1 7.3 -12.1 7.35 -11.5 7.2 -9.35 7.1 -8.55 7.3 -8.95 7.35 -8.95 7.35 -8.85 7.3 -8.75 7.15 -8.5 7.1 -8.55 7.1 -8.5 7.05 -8.25 7.0 -8.1 6.95 -7.8 6.9 -8.05 6.85 -8.2 6.9 -8.45 6.9 -8.55 6.9 -8.65 6.85 -8.5 6.8 -8.9 6.8 -9.05 6.75 -9.4 M7.6 -9.5 L8.55 -11.5 7.6 -9.3 7.55 -9.25 7.6 -9.5 M9.55 -9.85 L9.35 -10.9 9.45 -10.9 10.05 -8.45 10.1 -8.2 10.15 -8.45 10.25 -9.15 10.4 -8.95 10.25 -8.45 10.15 -8.05 10.1 -8.15 10.1 -7.95 10.1 -7.9 10.1 -7.8 10.05 -7.75 10.05 -7.8 10.0 -8.05 9.95 -8.2 9.8 -8.85 9.8 -8.9 9.55 -9.85 M10.45 -9.65 L10.7 -9.95 10.55 -9.45 10.45 -9.65 M-5.5 -13.4 L-5.55 -13.6 -5.25 -13.6 -5.1 -13.55 -4.95 -13.45 -4.05 -13.1 -3.85 -13.0 -2.1 -12.75 -3.25 -13.4 -4.15 -14.0 -4.15 -14.1 -4.05 -14.1 -3.95 -14.1 -2.8 -13.6 -1.75 -12.8 -1.4 -12.55 -1.35 -12.55 -1.4 -12.5 -1.4 -12.45 -1.55 -12.4 -1.65 -12.45 -1.75 -12.45 -2.15 -12.45 -2.65 -12.55 -4.55 -12.95 -5.5 -13.25 -5.5 -13.3 -5.5 -13.4 M-2.2 -14.4 L-2.35 -14.5 -2.1 -14.55 -2.0 -14.4 -1.7 -13.95 -1.45 -13.65 -1.45 -13.6 -1.6 -13.55 -1.8 -13.9 -2.2 -14.4 M-0.85 -14.5 L-0.75 -14.6 -0.6 -14.5 -0.45 -14.2 -0.55 -14.2 -0.55 -14.05 -0.25 -13.4 -0.25 -12.7 0.1 -11.5 0.3 -11.0 0.25 -10.95 0.05 -11.45 -0.75 -14.1 -0.85 -14.5 M-0.05 -14.5 L-0.05 -14.8 0.15 -14.8 0.05 -14.75 0.1 -14.5 0.15 -14.35 0.1 -14.35 0.05 -14.2 0.65 -11.8 0.0 -14.15 -0.05 -14.3 -0.05 -14.5 M0.55 -14.6 L0.55 -14.65 0.6 -14.65 0.65 -14.6 0.8 -14.25 1.05 -13.85 Q1.05 -13.65 1.8 -12.8 L2.0 -12.55 1.95 -12.5 1.7 -12.8 0.65 -14.2 0.55 -14.4 0.55 -14.6 M1.45 -7.4 Q1.65 -10.15 1.2 -11.75 L1.1 -12.05 1.1 -12.1 1.0 -12.4 1.1 -12.4 1.15 -12.35 1.2 -12.35 1.25 -12.2 1.25 -12.05 1.55 -9.85 1.6 -8.0 1.75 -8.95 1.85 -9.55 1.85 -9.7 1.9 -10.05 Q1.9 -10.95 2.05 -11.35 L1.95 -11.3 1.9 -11.4 1.95 -11.55 2.0 -11.55 2.05 -11.55 2.2 -11.3 2.2 -10.85 2.1 -9.9 Q1.75 -9.15 1.75 -8.1 L1.8 -7.9 Q2.35 -8.3 2.45 -9.45 L2.65 -9.95 2.75 -10.15 2.8 -10.4 2.95 -10.3 2.9 -10.2 2.8 -9.85 2.1 -7.9 2.1 -7.8 1.7 -7.1 1.6 -6.95 1.55 -6.8 1.4 -6.8 1.4 -7.0 1.4 -7.15 1.45 -7.4 M2.5 -11.55 L2.4 -11.65 2.5 -11.65 2.55 -11.6 3.65 -10.6 4.15 -10.05 3.65 -10.4 3.5 -10.55 3.4 -10.65 2.5 -11.55 M3.05 -12.25 L3.0 -12.3 3.0 -12.4 3.15 -12.4 4.05 -11.05 4.45 -10.2 4.4 -10.15 4.25 -10.35 3.5 -11.55 3.05 -12.25 M4.65 -13.9 L4.85 -12.85 4.55 -13.6 4.55 -13.9 4.65 -13.9 M7.25 -12.55 L7.1 -12.65 7.15 -12.7 7.3 -12.65 7.35 -12.55 7.35 -12.5 7.3 -12.25 7.25 -12.2 7.2 -12.4 7.25 -12.55 M5.85 -7.1 L5.25 -7.85 5.15 -8.25 5.35 -7.95 5.8 -7.35 5.85 -7.25 5.9 -7.25 6.0 -7.05 6.1 -7.0 6.3 -6.7 6.25 -6.65 5.95 -7.0 5.85 -7.1 M4.35 -9.05 L4.25 -9.05 4.2 -9.05 4.05 -9.25 3.9 -9.4 4.0 -9.4 4.2 -9.2 4.35 -9.05 M6.45 -6.9 L6.45 -6.8 6.4 -6.95 4.95 -9.25 4.8 -9.45 4.85 -9.5 5.0 -9.35 6.45 -6.9 M0.65 -8.95 L0.65 -9.15 0.75 -9.15 0.8 -8.95 1.0 -8.25 1.4 -7.0 1.35 -6.95 1.3 -7.05 0.65 -8.7 0.65 -8.75 0.65 -8.95 M0.6 -9.7 L0.7 -9.6 0.65 -9.5 0.6 -9.5 0.15 -9.55 Q-0.3 -9.65 -0.65 -10.05 L-0.9 -10.35 -1.1 -10.65 -1.05 -10.65 -0.95 -10.6 -0.3 -10.2 -0.15 -9.95 0.0 -10.0 0.35 -9.8 -0.3 -10.8 -1.1 -11.95 -1.0 -11.95 -0.1 -10.85 0.45 -9.75 0.6 -9.7 M-2.7 -12.15 L-2.65 -12.15 -2.65 -12.0 -2.95 -12.0 -3.1 -12.0 -5.15 -12.25 -5.95 -12.35 -6.9 -12.5 -6.9 -12.6 -6.45 -12.65 -5.9 -12.6 -3.85 -12.1 -3.35 -12.1 -3.35 -12.25 -2.7 -12.15 M-3.7 -9.3 Q-3.75 -9.15 -4.1 -9.1 L-4.45 -9.1 -4.75 -9.1 -4.35 -8.95 -4.25 -8.9 -1.75 -7.7 -1.65 -7.55 -1.65 -7.45 -1.7 -7.35 -1.9 -7.3 -2.15 -7.25 -3.05 -7.4 -4.55 -7.3 -5.45 -7.3 -10.3 -7.65 -10.4 -7.0 -10.75 -6.85 -10.75 -7.1 -10.8 -7.8 -11.0 -8.7 -10.95 -8.8 -10.9 -9.0 -10.75 -9.0 -10.55 -8.9 -10.45 -8.85 Q-10.7 -8.5 -10.35 -8.4 L-10.3 -7.75 -10.1 -7.8 -7.8 -7.6 -7.15 -7.6 -6.15 -7.6 -3.9 -7.7 -3.95 -7.75 -4.3 -7.85 -3.95 -7.85 -3.8 -7.9 -3.2 -7.75 -2.95 -7.8 -2.85 -7.8 Q-5.1 -8.8 -5.35 -8.95 L-8.0 -10.3 -7.9 -10.4 -8.45 -10.9 -8.45 -10.95 -8.5 -10.95 -8.6 -11.0 -8.55 -11.05 -8.4 -11.0 -8.35 -11.0 -8.0 -10.8 -7.95 -10.8 -7.75 -10.55 -7.8 -10.35 -7.6 -10.3 -7.65 -10.55 -7.95 -10.8 -8.0 -10.85 -7.95 -10.85 -7.9 -10.85 -7.45 -10.8 -7.35 -10.85 -7.35 -10.8 -3.4 -10.2 -3.35 -10.15 Q-3.6 -9.9 -4.4 -9.9 L-6.15 -10.0 -7.6 -10.65 -7.65 -10.6 -6.4 -10.0 -7.25 -10.25 -7.25 -10.2 -7.3 -10.2 -5.3 -9.35 Q-5.3 -9.55 -4.95 -9.55 L-4.15 -9.5 -3.75 -9.5 -3.7 -9.35 -3.7 -9.3 M1.65 -7.15 L1.75 -7.65 1.75 -7.7 1.65 -7.2 1.6 -7.05 1.65 -7.15 M-7.1 -11.8 Q-7.6 -11.95 -7.6 -12.05 L-7.35 -12.2 -6.65 -12.0 -6.2 -11.9 -6.2 -11.8 -5.25 -11.7 -2.9 -11.25 -2.8 -11.3 -1.85 -11.05 -2.25 -10.95 -5.15 -11.35 -7.1 -11.8 M-4.65 -7.9 L-4.95 -7.9 -6.8 -8.1 -9.5 -9.15 -9.35 -9.25 -9.35 -9.3 -9.25 -9.4 -9.1 -9.3 -7.9 -8.85 -7.6 -8.8 Q-6.05 -8.05 -4.65 -7.9 M-11.35 -5.5 L-11.9 -3.35 -11.95 -3.5 -11.9 -3.75 -11.5 -6.25 -11.8 -7.65 -11.6 -7.7 -11.55 -7.45 -11.45 -7.6 -11.4 -7.45 -11.25 -6.4 -11.25 -6.35 Q-11.25 -6.3 -11.35 -6.3 L-11.35 -5.5" fill="#322f2c" fill-rule="evenodd" stroke="none"/>
    <path d="M1.8 -14.4 L2.05 -14.35 2.0 -14.2 2.0 -14.1 1.9 -14.1 1.8 -14.4 M2.25 -14.35 L2.8 -14.2 2.8 -14.1 2.7 -14.1 2.35 -14.1 2.25 -14.35 M6.55 -9.15 L6.55 -9.55 6.65 -9.55 6.75 -9.4 6.8 -9.05 6.75 -9.05 6.8 -8.9 6.85 -8.5 6.9 -8.65 6.9 -8.55 6.9 -8.45 6.75 -8.45 6.7 -8.45 6.7 -8.6 6.55 -9.15 M7.6 -9.3 L7.95 -9.45 7.85 -9.3 7.9 -9.15 8.3 -9.55 8.45 -9.55 8.55 -9.45 7.4 -8.55 7.4 -8.6 7.35 -8.5 7.35 -8.45 7.05 -8.25 7.1 -8.5 7.1 -8.55 7.15 -8.5 7.3 -8.75 7.35 -8.85 7.35 -8.95 7.4 -9.0 7.55 -9.25 7.6 -9.3 M8.7 -10.35 L8.8 -10.35 9.6 -9.2 9.75 -8.85 9.8 -8.85 9.95 -8.2 9.9 -8.2 9.25 -9.15 8.6 -10.2 8.6 -10.35 8.7 -10.35 M10.05 -8.45 L10.15 -8.45 10.1 -8.2 10.05 -8.45 M10.25 -8.45 Q10.7 -8.6 11.2 -9.05 L11.25 -9.1 11.3 -8.95 11.3 -8.9 10.85 -8.5 10.1 -7.95 10.1 -8.15 10.15 -8.05 10.25 -8.45 M-13.45 5.6 L-13.7 5.6 Q-14.45 3.9 -14.45 -0.4 -14.45 -3.15 -14.0 -4.45 -13.65 -5.55 -12.5 -7.25 L-11.7 -8.35 -12.7 -6.8 Q-14.2 -4.35 -14.2 -2.8 L-14.15 -2.7 -14.4 -0.05 Q-14.4 3.15 -13.45 5.6 M-12.2 -7.85 L-11.7 -8.6 Q-10.65 -10.15 -8.75 -11.45 L-9.2 -11.05 -10.6 -9.45 -11.7 -8.35 -12.2 -7.85 M-8.25 -11.8 L-8.05 -11.95 -5.5 -13.4 -5.5 -13.3 -6.05 -13.05 -5.5 -13.25 -4.55 -12.95 -4.75 -12.9 -5.25 -12.65 -5.7 -12.75 -6.0 -12.7 -5.9 -12.6 -6.45 -12.65 -6.9 -12.6 -6.9 -12.5 -5.95 -12.35 -6.15 -12.25 -6.55 -12.35 -6.65 -12.25 -6.6 -12.15 -6.45 -12.1 -6.65 -12.0 -7.35 -12.2 -7.6 -12.05 Q-7.6 -11.95 -7.1 -11.8 L-7.8 -11.45 -8.4 -11.0 -8.55 -11.05 -8.6 -11.0 -8.5 -10.95 -8.45 -10.95 -10.1 -9.6 -10.15 -9.45 -10.0 -8.75 -10.0 -8.45 -10.15 -8.4 -10.35 -8.4 Q-10.7 -8.5 -10.45 -8.85 L-10.45 -8.9 -10.55 -8.9 -10.75 -9.0 -10.9 -9.0 -10.95 -8.8 -11.55 -8.05 -11.55 -8.0 -11.6 -7.95 -11.6 -7.9 -11.65 -7.85 -11.8 -7.65 -12.4 -6.55 Q-12.0 -6.35 -11.85 -4.7 L-11.9 -4.4 -11.9 -3.75 -11.95 -3.5 -11.95 -4.2 -12.3 -5.7 -12.4 -5.7 -12.15 -4.0 -12.3 -4.4 -12.5 -5.05 -12.75 -5.95 -13.6 -4.25 -13.95 -0.85 -13.9 -0.9 -13.45 -0.05 -13.4 0.15 -13.45 0.2 -13.6 0.1 -13.9 -0.55 -13.95 -0.55 -13.95 -0.4 -13.8 2.45 -13.3 5.2 -13.3 5.25 -13.3 5.45 -14.25 1.55 -14.3 -0.3 -14.05 -2.45 -14.0 -2.95 Q-13.5 -6.4 -10.9 -9.0 L-9.85 -9.95 -10.35 -9.6 -8.55 -11.55 -8.25 -11.8 M-5.25 -13.6 L-4.15 -14.0 -3.25 -13.4 -3.75 -13.2 -4.25 -13.25 -4.0 -13.15 -4.05 -13.1 -4.95 -13.45 -4.8 -13.6 -4.9 -13.65 -5.1 -13.55 -5.25 -13.6 M-3.95 -14.1 L-2.2 -14.4 -1.8 -13.9 -1.85 -13.9 -2.8 -13.6 -3.95 -14.1 M-2.0 -14.4 L-0.85 -14.5 -0.75 -14.1 -1.4 -14.0 -1.7 -13.95 -2.0 -14.4 M-0.6 -14.5 L-0.45 -14.5 -0.05 -14.5 -0.05 -14.3 0.0 -14.15 -0.3 -14.1 -0.3 -14.2 -0.45 -14.2 -0.6 -14.5 M0.1 -14.5 L0.3 -14.45 0.1 -14.6 0.15 -14.65 0.55 -14.6 0.55 -14.4 0.65 -14.2 0.4 -14.15 0.2 -14.35 0.15 -14.35 0.1 -14.5 M0.65 -14.6 L1.6 -14.45 1.6 -14.4 1.7 -14.15 1.35 -14.15 1.1 -14.4 0.9 -14.35 0.95 -14.25 0.8 -14.25 0.65 -14.6 M2.05 -12.65 L2.15 -12.15 2.2 -12.0 Q1.75 -12.25 1.6 -12.8 L1.7 -12.8 1.95 -12.5 2.0 -12.55 1.8 -12.8 1.95 -12.75 2.05 -12.7 2.05 -12.65 M4.75 -8.25 L5.2 -7.8 5.25 -7.85 5.85 -7.1 5.2 -7.4 3.35 -8.7 3.6 -8.85 4.2 -8.45 4.75 -8.25 M5.35 -7.95 L5.5 -7.85 5.8 -7.35 5.35 -7.95 M6.0 -7.05 L5.9 -7.25 5.95 -7.3 5.85 -7.55 6.1 -7.1 6.05 -7.1 6.0 -7.05 M1.7 -7.1 L1.8 -6.9 1.75 -6.75 1.6 -6.75 1.45 -6.75 1.35 -6.75 Q0.8 -6.95 0.55 -7.95 L0.5 -8.2 0.4 -8.9 0.55 -8.95 0.65 -8.75 0.65 -8.7 1.3 -7.05 0.6 -8.0 0.55 -7.95 1.35 -6.85 1.35 -6.95 1.4 -7.0 1.0 -8.25 1.45 -7.4 1.4 -7.15 1.4 -7.0 1.4 -6.8 1.55 -6.8 1.6 -6.95 1.7 -7.1 M0.6 -9.4 L0.45 -9.35 -0.45 -9.45 0.15 -9.45 0.15 -9.55 0.6 -9.5 0.65 -9.5 0.65 -9.4 0.6 -9.4 M-1.45 -9.9 L-1.45 -9.95 -1.35 -10.0 -1.3 -10.0 -0.9 -9.95 -0.65 -10.05 Q-0.3 -9.65 0.15 -9.55 L-0.8 -9.6 -0.9 -9.7 -1.05 -9.6 -1.25 -9.65 Q-1.35 -9.65 -1.45 -9.75 L-1.45 -9.9 M-2.5 -12.25 L-2.7 -12.15 -3.35 -12.25 -3.4 -12.3 -3.55 -12.3 -3.55 -12.4 -3.4 -12.35 -2.65 -12.55 -2.15 -12.45 -2.5 -12.25 M-1.8 -10.95 L-1.75 -11.0 -1.6 -10.75 -2.7 -9.95 -3.4 -9.55 -1.8 -10.65 Q-3.6 -9.95 -3.75 -9.5 L-4.15 -9.5 -1.8 -10.95 M-1.85 -7.05 L-3.0 -6.95 -5.8 -6.9 -6.05 -6.9 -8.3 -6.8 -9.05 -6.8 -9.05 -6.65 -9.1 -6.65 -9.25 -6.6 -9.6 -6.6 -9.65 -6.6 -10.2 -6.55 -10.25 -6.55 -10.3 -6.6 -10.35 -6.7 Q-10.35 -6.9 -10.0 -6.9 L-7.15 -7.2 -4.55 -7.3 -3.05 -7.4 -2.15 -7.25 -1.9 -7.3 -1.7 -7.35 -1.7 -7.2 -1.85 -7.05 M3.75 -10.05 L3.75 -10.3 3.65 -10.4 4.15 -10.05 3.65 -10.6 3.85 -10.45 4.05 -10.25 4.1 -10.25 4.4 -10.0 4.2 -9.75 4.1 -9.8 4.1 -9.85 4.05 -9.85 3.75 -10.05 M3.5 -10.55 L3.35 -10.65 3.4 -10.65 3.5 -10.55 M3.05 -10.25 L3.1 -10.2 3.05 -10.2 3.05 -10.25 M1.65 -7.2 L1.65 -7.15 1.6 -7.05 1.65 -7.2 M-1.75 -12.8 L-1.6 -12.85 -1.8 -13.45 -1.7 -13.55 -1.7 -13.6 -1.25 -12.8 -1.35 -12.5 -1.4 -12.5 -1.35 -12.55 -1.4 -12.55 -1.75 -12.8 M-11.9 -3.35 L-11.9 -3.1 -11.95 -3.1 -11.95 -3.5 -11.9 -3.35 M-12.0 -3.1 L-12.1 -3.1 -12.1 -3.65 -12.0 -3.1" fill="#504d47" fill-rule="evenodd" stroke="none"/>
    <path d="M2.05 -14.35 L2.05 -14.4 2.15 -14.4 2.25 -14.35 2.35 -14.1 2.45 -13.55 2.45 -13.0 2.2 -12.95 2.1 -13.2 2.05 -13.45 2.0 -14.1 2.0 -14.2 2.05 -14.35 M2.95 -14.15 L3.05 -14.15 3.2 -14.0 2.8 -12.85 2.75 -12.9 2.65 -13.05 2.9 -13.6 2.95 -14.15 M4.2 -12.6 L4.0 -13.15 4.05 -13.15 5.2 -11.3 5.25 -11.15 6.0 -9.65 5.95 -9.55 5.2 -10.7 5.0 -11.05 4.65 -11.75 4.2 -12.6 M6.0 -10.3 L5.95 -10.25 Q5.3 -10.85 5.3 -12.35 L5.0 -13.6 5.05 -13.6 6.05 -10.35 6.05 -10.3 6.0 -10.3 M6.7 -9.55 L6.0 -12.65 6.0 -13.0 6.15 -13.0 6.6 -10.6 6.75 -9.65 6.7 -9.55 M7.1 -10.25 L7.0 -10.0 6.75 -12.3 6.65 -12.65 6.75 -12.65 7.1 -10.55 7.1 -10.4 7.1 -10.25 M7.2 -9.35 L7.8 -12.05 7.9 -11.85 7.6 -9.5 7.55 -9.25 7.4 -9.0 7.35 -8.95 7.3 -8.95 7.2 -8.95 7.2 -9.35 M7.95 -9.45 L8.35 -10.55 8.45 -10.4 8.45 -10.3 8.45 -10.25 8.3 -9.55 7.9 -9.15 7.85 -9.3 7.95 -9.45 M9.6 -9.2 L8.95 -10.9 9.0 -10.9 9.55 -9.85 9.8 -8.9 9.8 -8.85 9.75 -8.85 9.6 -9.2 M10.25 -9.15 L10.05 -10.1 10.1 -10.75 10.2 -10.75 10.45 -9.65 10.55 -9.45 10.65 -9.15 10.55 -8.9 10.4 -8.95 10.25 -9.15 M11.2 -9.05 L11.1 -9.0 10.9 -9.4 11.0 -9.6 11.25 -9.15 11.25 -9.1 11.2 -9.05 M1.85 -13.35 L2.15 -12.8 2.1 -12.65 2.05 -12.65 2.05 -12.7 1.95 -12.75 0.95 -14.25 0.9 -14.35 1.1 -14.4 1.35 -14.15 1.85 -13.35 M0.15 -14.35 L0.2 -14.35 0.4 -14.15 Q0.8 -13.4 1.35 -9.45 L1.3 -9.4 Q0.9 -10.4 0.75 -11.45 L0.7 -11.6 0.65 -11.8 0.05 -14.2 0.1 -14.35 0.15 -14.35 M1.75 -8.95 L1.7 -8.95 1.65 -9.05 1.75 -9.5 1.6 -11.65 1.7 -11.65 1.85 -9.7 1.85 -9.55 1.75 -8.95 M5.8 -8.35 L5.7 -8.35 5.0 -9.95 5.1 -9.95 5.85 -8.4 5.8 -8.35 M5.25 -7.85 L5.2 -7.8 4.75 -8.25 4.05 -9.0 4.2 -9.05 4.25 -9.05 4.35 -9.05 5.15 -8.25 5.25 -7.85 M5.5 -7.85 L4.7 -9.2 4.65 -9.3 4.75 -9.4 4.9 -9.2 5.85 -7.55 5.95 -7.3 5.9 -7.25 5.85 -7.25 5.8 -7.35 5.5 -7.85 M4.05 -11.05 L3.65 -12.25 3.75 -12.5 Q4.05 -12.25 4.2 -11.4 L4.2 -11.1 4.05 -11.05 M3.85 -10.45 Q3.05 -11.25 2.95 -11.75 L3.1 -11.75 3.5 -11.55 4.25 -10.35 4.25 -10.3 4.1 -10.25 4.05 -10.25 3.85 -10.45 M3.55 -10.05 L3.35 -10.05 3.15 -10.15 3.1 -10.2 3.05 -10.25 2.95 -10.3 2.8 -10.4 2.4 -10.7 2.4 -10.8 2.55 -10.85 3.35 -10.65 3.5 -10.55 3.65 -10.4 3.75 -10.3 3.75 -10.05 3.55 -10.05 M2.45 -9.45 Q2.35 -8.3 1.8 -7.9 L1.75 -8.1 Q1.75 -9.15 2.1 -9.9 L2.3 -10.3 2.45 -9.95 2.45 -9.45 M-0.3 -14.1 L0.35 -12.0 Q0.35 -11.95 0.45 -11.95 L0.45 -11.6 0.4 -11.55 -0.25 -13.4 -0.55 -14.05 -0.55 -14.2 -0.45 -14.2 -0.3 -14.2 -0.3 -14.1 M-0.3 -10.2 L-0.95 -11.3 -0.9 -11.3 0.05 -10.05 0.0 -10.0 -0.15 -9.95 -0.3 -10.2 M11.8 -7.1 Q11.55 -7.2 11.55 -7.6 11.55 -8.15 11.7 -8.2 L11.85 -7.65 11.8 -7.1 M-4.0 -13.15 L-4.25 -13.25 -3.75 -13.2 -3.4 -13.2 -3.35 -13.15 -3.35 -13.0 -3.65 -13.0 -4.0 -13.15 M-5.9 -12.6 L-6.0 -12.7 -5.7 -12.75 -5.25 -12.65 -3.55 -12.3 -3.4 -12.3 -3.35 -12.25 -3.35 -12.1 -3.85 -12.1 -5.9 -12.6 M-6.45 -12.1 L-6.6 -12.15 -6.65 -12.25 -6.55 -12.35 -6.15 -12.25 -2.8 -11.55 -2.8 -11.3 -2.9 -11.25 -5.25 -11.7 -6.45 -12.1 M-7.15 -7.6 L-9.45 -8.15 -9.1 -8.2 -7.1 -7.7 -6.15 -7.7 -6.15 -7.6 -7.15 -7.6 M-4.3 -7.85 L-4.35 -7.85 -4.65 -7.9 Q-6.05 -8.05 -7.6 -8.8 L-8.55 -9.35 -8.45 -9.35 -3.75 -8.0 -3.7 -7.95 -3.8 -7.9 -3.95 -7.85 -4.3 -7.85 M-11.55 -8.0 L-11.4 -8.05 Q-11.05 -8.05 -11.0 -6.8 L-11.25 -5.35 -11.35 -5.35 -11.35 -5.5 -11.35 -6.3 Q-11.25 -6.3 -11.25 -6.35 L-11.25 -6.4 -11.4 -7.45 -11.45 -7.75 -11.45 -7.6 -11.55 -7.45 -11.6 -7.7 -11.65 -7.8 -11.65 -7.85 -11.6 -7.9 -11.6 -7.95 -11.55 -8.0 M-6.4 -10.0 L-7.65 -10.6 -7.6 -10.65 -6.15 -10.0 -5.4 -9.65 -5.4 -9.6 -6.4 -10.0 M-3.55 -10.45 L-7.95 -11.0 -7.45 -11.05 -6.3 -10.8 -3.0 -10.65 -3.0 -10.55 -3.55 -10.45" fill="#504b47" fill-rule="evenodd" stroke="none"/>
    <path d="M1.9 -12.15 L2.25 -11.65 3.3 -12.8 3.4 -12.75 3.15 -12.4 3.0 -12.4 3.0 -12.3 3.05 -12.25 2.55 -11.6 2.5 -11.65 2.4 -11.65 2.5 -11.55 2.25 -11.3 2.2 -11.3 2.05 -11.55 2.0 -11.55 1.25 -12.45 1.25 -12.55 1.4 -12.6 1.8 -12.25 1.75 -12.25 1.9 -12.15 M6.2 -8.35 L6.05 -9.5 6.1 -9.55 6.1 -9.4 6.15 -9.45 6.15 -9.65 6.25 -9.75 6.45 -9.1 6.5 -9.15 6.4 -9.55 6.55 -9.15 6.7 -8.6 6.7 -8.45 6.75 -8.45 6.8 -8.0 6.9 -8.05 6.95 -7.8 7.0 -8.1 Q7.45 -8.1 7.45 -8.5 L7.45 -8.55 7.65 -8.7 8.8 -9.55 8.45 -10.25 8.45 -10.3 8.45 -10.4 8.45 -10.65 8.55 -10.65 8.7 -10.35 8.6 -10.35 8.6 -10.2 9.25 -9.15 9.9 -7.9 10.0 -7.8 10.05 -7.8 10.05 -7.75 10.1 -7.8 10.1 -7.9 10.85 -8.5 11.3 -8.9 11.3 -8.95 11.75 -9.35 11.95 -9.1 11.95 -9.05 11.05 -8.05 11.9 -6.45 12.95 -7.55 13.0 -7.55 13.25 -7.55 13.3 -7.3 13.2 -7.15 11.8 -5.95 10.7 -7.8 9.85 -7.25 8.85 -9.35 6.9 -7.55 6.85 -7.55 6.9 -6.5 6.6 -6.25 Q6.15 -6.25 4.55 -7.45 L3.2 -8.65 1.4 -6.2 Q1.25 -6.2 0.45 -7.35 L-0.45 -9.0 -2.5 -9.4 -0.7 -6.9 -0.7 -6.8 -0.75 -6.7 -0.9 -6.65 -1.0 -6.75 -5.45 -6.45 -8.7 -6.25 -9.45 -6.35 -10.25 -6.3 -10.35 -6.3 Q-10.45 -5.5 -11.15 -3.8 L-11.4 -3.25 -12.3 -1.75 -12.6 -4.45 Q-13.1 -3.9 -13.1 -2.4 L-12.95 -0.55 -12.45 1.15 -12.5 1.35 -12.75 1.35 -12.9 1.05 Q-12.9 6.3 -13.3 6.95 L-13.45 7.0 -13.7 6.95 -13.7 6.6 -13.6 6.4 -13.4 5.75 -13.2 6.2 -13.15 6.15 -13.3 5.45 -13.3 5.25 -13.3 5.2 -13.2 3.45 Q-13.2 1.25 -13.6 0.35 L-13.6 0.1 -13.45 0.2 -13.4 0.15 -13.45 -0.05 -13.2 -0.05 -13.2 -0.3 Q-13.4 -0.8 -13.4 -2.4 -13.4 -4.25 -12.7 -5.05 L-12.5 -5.05 -12.3 -4.4 -12.15 -2.4 -12.1 -2.4 Q-10.85 -5.5 -10.7 -6.35 L-10.75 -6.35 -10.85 -6.45 -10.7 -6.5 -10.8 -6.9 -10.75 -7.1 -10.75 -6.85 -10.4 -7.0 -10.35 -6.7 -10.35 -6.55 -10.25 -6.55 -10.2 -6.55 -9.65 -6.6 -9.35 -6.55 -9.3 -6.55 -8.5 -6.65 -6.95 -6.85 -6.05 -6.9 -5.8 -6.9 -3.0 -6.95 -1.85 -7.05 -1.3 -7.05 -1.65 -7.45 -1.65 -7.55 -1.75 -7.7 -2.85 -9.35 -4.25 -8.9 -4.35 -8.95 -4.1 -9.1 Q-3.75 -9.15 -3.7 -9.3 L-3.6 -9.4 -1.3 -10.45 -1.6 -10.75 -1.75 -11.0 -1.8 -10.95 -1.85 -11.05 -2.35 -11.85 -2.9 -11.85 -3.2 -11.9 -3.25 -11.95 -3.1 -12.0 -2.95 -12.0 -2.65 -12.0 -2.65 -12.15 -2.7 -12.15 -2.5 -12.25 -2.45 -12.2 -1.55 -12.4 -1.4 -12.45 -1.35 -12.45 -1.0 -12.55 -1.35 -13.35 -1.45 -13.6 -1.45 -13.65 -1.55 -13.8 -1.4 -14.0 -0.65 -12.45 Q-0.65 -12.0 -1.85 -11.85 L-0.95 -10.6 -1.05 -10.65 -1.1 -10.65 -0.9 -10.35 -1.3 -10.0 -1.35 -10.0 -1.45 -9.95 -1.45 -9.9 -1.95 -9.7 -1.55 -9.65 -1.6 -9.6 -1.1 -9.45 -0.45 -9.45 0.45 -9.35 0.6 -9.4 0.75 -9.35 0.65 -9.5 0.7 -9.6 0.6 -9.7 0.0 -11.25 0.05 -11.45 0.25 -10.95 0.3 -11.0 0.1 -11.5 0.15 -11.5 1.05 -9.4 1.0 -9.2 1.05 -9.15 0.8 -8.95 0.75 -9.15 0.65 -9.15 0.65 -8.95 0.55 -8.95 -0.05 -8.95 0.5 -8.2 0.55 -7.95 Q0.8 -6.95 1.35 -6.75 L1.4 -6.7 1.45 -6.75 1.6 -6.75 1.75 -6.75 1.8 -6.9 1.7 -7.1 2.1 -7.8 3.25 -9.5 2.8 -9.85 2.9 -10.2 3.15 -10.15 3.35 -10.05 3.55 -10.05 3.75 -9.95 3.55 -9.9 4.15 -9.6 4.15 -9.7 4.2 -9.65 4.6 -9.65 4.45 -10.2 4.25 -11.45 4.35 -11.55 4.75 -10.35 4.8 -10.35 5.0 -9.4 5.0 -9.35 4.85 -9.5 4.8 -9.45 4.95 -9.25 4.9 -9.2 4.75 -9.4 4.65 -9.3 4.7 -9.2 4.2 -9.2 4.0 -9.4 3.9 -9.4 4.05 -9.25 3.6 -9.35 3.25 -8.8 3.35 -8.7 5.2 -7.4 5.15 -7.35 Q5.45 -7.05 5.95 -7.0 L6.25 -6.65 6.3 -6.7 6.1 -7.0 6.1 -7.05 6.0 -7.05 6.05 -7.1 6.4 -6.95 6.45 -6.8 6.45 -6.9 6.25 -8.1 6.5 -7.3 6.55 -7.4 6.2 -8.35 M2.65 -9.95 L2.55 -10.05 2.75 -10.15 2.65 -9.95" fill="#171615" fill-rule="evenodd" stroke="none"/>
    <path d="M2.3 -11.9 L2.35 -11.8 2.2 -11.9 1.9 -12.15 1.75 -12.25 1.8 -12.25 1.8 -12.3 2.2 -11.95 2.2 -11.9 2.3 -11.9 M-13.4 5.75 L-13.45 5.6 Q-14.4 3.15 -14.4 -0.05 L-14.15 -2.7 -14.2 -2.8 Q-14.2 -4.35 -12.7 -6.8 L-11.7 -8.35 -12.5 -7.25 -12.45 -7.35 -12.25 -7.8 -12.2 -7.85 -11.7 -8.35 -10.6 -9.45 -9.2 -11.05 -8.75 -11.45 -8.7 -11.5 -8.05 -12.0 -8.25 -11.8 -8.55 -11.55 -10.35 -9.6 -9.85 -9.95 -10.9 -9.0 Q-13.5 -6.4 -14.0 -2.95 L-14.05 -2.45 -14.3 -0.3 -14.25 1.55 -13.3 5.45 -13.15 6.15 -13.2 6.2 -13.4 5.75 M7.45 -8.55 L7.45 -8.5 Q7.45 -8.1 7.0 -8.1 L7.05 -8.25 7.05 -8.2 7.2 -8.35 7.35 -8.45 7.35 -8.5 7.4 -8.6 7.4 -8.55 7.45 -8.55 M6.8 -9.05 L6.8 -8.9 6.75 -9.05 6.8 -9.05 M5.2 -7.4 L5.85 -7.1 5.95 -7.0 Q5.45 -7.05 5.15 -7.35 L5.2 -7.4 M6.1 -7.0 L6.0 -7.05 6.1 -7.05 6.1 -7.0 M9.95 -8.2 L10.0 -8.05 9.85 -8.1 9.85 -8.2 9.9 -8.2 9.95 -8.2 M4.15 -9.7 L4.15 -9.6 3.55 -9.9 3.75 -9.95 3.8 -9.95 4.05 -9.85 4.1 -9.85 4.1 -9.8 4.15 -9.7 M-0.45 -9.45 L-1.1 -9.45 -1.6 -9.6 -1.55 -9.65 -1.25 -9.65 -1.05 -9.6 -0.8 -9.6 0.15 -9.55 0.15 -9.45 -0.45 -9.45 M-1.35 -12.45 L-1.4 -12.45 -1.4 -12.5 -1.35 -12.5 -1.35 -12.45 M-1.55 -12.4 L-2.45 -12.2 -2.5 -12.25 -2.15 -12.45 -1.75 -12.45 -1.65 -12.45 -1.55 -12.4 M-3.6 -9.4 L-3.7 -9.3 -3.7 -9.35 -3.75 -9.5 Q-3.6 -9.95 -1.8 -10.65 L-3.4 -9.55 -3.6 -9.4 M-6.95 -6.85 L-8.5 -6.65 -9.3 -6.55 -9.35 -6.55 -9.65 -6.6 -9.6 -6.6 -9.25 -6.6 -9.05 -6.65 -9.05 -6.8 -8.3 -6.8 -7.2 -6.9 -6.95 -6.85 M1.3 -7.05 L1.35 -6.95 1.35 -6.85 0.55 -7.95 0.6 -8.0 1.3 -7.05 M-5.1 -13.55 L-4.9 -13.65 -4.8 -13.6 -4.95 -13.45 -5.1 -13.55 M-5.5 -13.3 L-5.5 -13.25 -6.05 -13.05 -5.5 -13.3 M-11.95 -3.1 L-11.95 -2.95 -12.0 -2.9 -12.0 -3.1 -12.1 -3.65 -12.15 -4.0 -12.4 -5.7 -12.3 -5.7 -11.95 -4.2 -11.95 -3.5 -11.95 -3.1" fill="#928d85" fill-rule="evenodd" stroke="none"/>
    <path d="M-11.4 -3.25 L-11.15 -3.8 Q-10.45 -5.5 -10.35 -6.3 L-10.25 -6.3 -9.45 -6.35 -8.7 -6.25 -5.45 -6.45 -1.0 -6.75 -0.9 -6.65 -0.75 -6.7 -0.7 -6.8 -0.7 -6.9 -2.5 -9.4 -0.45 -9.0 0.45 -7.35 Q1.25 -6.2 1.4 -6.2 L3.2 -8.65 4.55 -7.45 Q6.15 -6.25 6.6 -6.25 L6.9 -6.5 6.85 -7.55 6.9 -7.55 8.85 -9.35 9.85 -7.25 10.7 -7.8 11.8 -5.95 13.2 -7.15 Q15.0 -3.95 15.0 0.0 15.0 3.9 13.2 7.1 12.15 9.0 10.6 10.6 6.2 15.0 0.0 15.0 L-3.65 14.6 -3.65 14.55 -3.5 14.5 -3.65 14.4 -3.65 14.35 Q-4.25 13.75 -4.55 13.75 L-6.05 12.6 Q-7.7 11.4 -8.35 9.9 L-9.75 7.25 -10.2 5.9 -11.25 4.65 -11.6 2.65 -10.95 0.45 -11.15 -0.85 -11.1 -0.9 -11.05 -1.05 -11.4 -3.1 -11.4 -3.25 M4.2 -3.65 Q3.3 -2.75 3.1 -1.55 L0.1 -1.55 Q0.05 -3.25 -1.2 -4.55 -2.55 -5.85 -4.35 -5.85 L-5.15 -5.8 Q-6.5 -5.55 -7.55 -4.55 -8.85 -3.2 -8.85 -1.35 -8.85 0.45 -7.55 1.8 -6.5 2.8 -5.15 3.05 L-4.35 3.1 Q-2.55 3.1 -1.2 1.8 -0.35 0.9 -0.05 -0.2 L3.05 -0.2 Q3.2 1.2 4.2 2.25 5.2 3.2 6.4 3.4 L7.15 3.45 Q8.9 3.45 10.1 2.25 11.35 1.0 11.35 -0.7 11.35 -2.45 10.1 -3.65 8.9 -4.9 7.15 -4.9 L6.4 -4.8 Q5.2 -4.65 4.2 -3.65 M2.3 6.45 L1.75 6.45 Q0.15 6.6 -1.3 7.9 -2.0 8.6 -1.3 9.4 0.1 11.0 1.5 11.0 L1.7 11.0 Q3.0 10.9 4.3 9.6 L4.4 9.2 Q3.95 6.5 2.3 6.45 M-1.7 11.5 Q-3.0 11.5 -3.0 12.0 -3.0 12.9 -0.9 12.9 0.8 12.9 0.8 12.25 0.8 11.5 -1.7 11.5" fill="#fbc87b" fill-rule="evenodd" stroke="none"/>
    <path d="M4.05 -3.3 Q3.4 -2.45 3.4 -1.75 L3.5 -1.55 Q4.35 -4.15 6.85 -4.15 L7.0 -4.05 7.2 -4.1 Q7.1 -4.45 6.45 -4.45 4.95 -4.45 4.05 -3.3 M2.75 -1.1 L2.75 -1.35 2.7 -1.4 -0.1 -1.35 -0.1 -1.2 0.15 -1.1 2.75 -1.1 M4.2 -3.65 Q5.2 -4.65 6.4 -4.8 L7.15 -4.9 Q8.9 -4.9 10.1 -3.65 11.35 -2.45 11.35 -0.7 11.35 1.0 10.1 2.25 8.9 3.45 7.15 3.45 L6.4 3.4 Q5.2 3.2 4.2 2.25 3.2 1.2 3.05 -0.2 L-0.05 -0.2 Q-0.35 0.9 -1.2 1.8 -2.55 3.1 -4.35 3.1 L-5.15 3.05 Q-6.5 2.8 -7.55 1.8 -8.85 0.45 -8.85 -1.35 -8.85 -3.2 -7.55 -4.55 -6.5 -5.55 -5.15 -5.8 L-4.35 -5.85 Q-2.55 -5.85 -1.2 -4.55 0.05 -3.25 0.1 -1.55 L3.1 -1.55 Q3.3 -2.75 4.2 -3.65 M4.9 -2.9 Q3.95 -2.0 3.95 -0.65 3.95 0.65 4.9 1.6 5.8 2.5 7.1 2.5 L8.8 2.05 9.35 1.6 Q10.25 0.65 10.25 -0.65 10.25 -2.0 9.35 -2.9 L9.0 -3.2 Q8.2 -3.8 7.1 -3.8 5.8 -3.8 4.9 -2.9 M-7.45 -3.8 Q-6.6 -4.35 -6.25 -4.75 L-3.8 -5.35 -3.65 -5.4 -4.3 -5.55 -4.95 -5.6 Q-5.8 -5.6 -6.9 -4.75 L-8.0 -3.7 Q-8.55 -3.1 -8.55 -1.2 -8.5 1.65 -7.15 1.65 L-7.05 1.65 Q-6.8 2.5 -6.0 2.5 L-5.85 2.4 -5.9 2.35 -6.9 1.45 Q-8.25 0.0 -8.25 -1.25 -8.25 -3.3 -7.45 -3.8 M-6.65 -3.55 Q-7.6 -2.65 -7.6 -1.3 -7.6 0.0 -6.65 0.9 -5.75 1.85 -4.4 1.85 -3.1 1.85 -2.2 0.9 L-1.85 0.5 -1.45 -0.2 -1.25 -1.3 -1.25 -1.55 Q-1.3 -2.3 -1.7 -2.95 L-2.2 -3.55 Q-3.1 -4.45 -4.4 -4.45 -5.75 -4.45 -6.65 -3.55" fill="#58503a" fill-rule="evenodd" stroke="none"/>
    <path d="M4.9 -2.9 Q5.8 -3.8 7.1 -3.8 8.2 -3.8 9.0 -3.2 L9.35 -2.9 Q10.25 -2.0 10.25 -0.65 10.25 0.65 9.35 1.6 L8.8 2.05 7.1 2.5 Q5.8 2.5 4.9 1.6 3.95 0.65 3.95 -0.65 3.95 -2.0 4.9 -2.9 M7.4 -3.2 L7.0 -3.35 6.7 -3.25 6.6 -3.25 6.5 -3.2 6.35 -2.7 6.35 -2.55 6.6 -2.4 Q6.75 -2.25 7.0 -2.25 L7.05 -2.25 7.6 -2.25 7.65 -2.45 7.55 -2.85 7.4 -3.2 M8.9 -0.9 Q8.6 -0.4 8.65 -0.1 8.65 1.05 6.9 1.05 L6.1 0.95 Q5.75 0.95 5.85 1.2 L5.3 0.8 5.25 1.05 Q5.25 2.0 7.4 2.0 8.15 2.0 8.85 1.25 L9.4 0.3 9.65 -1.2 9.4 -1.45 8.9 -0.9 M-6.65 -3.55 Q-5.75 -4.45 -4.4 -4.45 -3.1 -4.45 -2.2 -3.55 L-1.7 -2.95 Q-1.3 -2.3 -1.25 -1.55 L-1.25 -1.3 -1.45 -0.2 -1.85 0.5 -2.2 0.9 Q-3.1 1.85 -4.4 1.85 -5.75 1.85 -6.65 0.9 -7.6 0.0 -7.6 -1.3 -7.6 -2.65 -6.65 -3.55 M-4.65 -3.65 L-4.75 -3.45 -4.85 -3.05 -4.8 -2.85 -4.7 -2.8 -4.35 -2.7 -4.25 -2.7 Q-4.0 -2.7 -3.85 -2.85 -3.7 -3.0 -3.7 -3.25 L-3.85 -3.65 -4.25 -3.8 -4.65 -3.65 M-2.25 -2.45 L-2.5 -2.15 -2.4 -1.45 Q-2.85 0.25 -4.35 0.25 L-5.2 0.05 -5.5 0.55 Q-5.85 0.4 -5.85 0.7 -5.85 1.15 -4.9 1.1 L-3.75 1.05 Q-2.7 0.75 -2.25 0.3 -1.75 -0.25 -1.75 -1.05 -1.75 -2.45 -2.25 -2.45" fill="#d2cdbd" fill-rule="evenodd" stroke="none"/>
    <path d="M2.75 -1.1 L0.15 -1.1 -0.1 -1.2 -0.1 -1.35 2.7 -1.4 2.75 -1.35 2.75 -1.1 M4.05 -3.3 Q4.95 -4.45 6.45 -4.45 7.1 -4.45 7.2 -4.1 L7.0 -4.05 6.85 -4.15 Q4.35 -4.15 3.5 -1.55 L3.4 -1.75 Q3.4 -2.45 4.05 -3.3 M-7.45 -3.8 Q-8.25 -3.3 -8.25 -1.25 -8.25 0.0 -6.9 1.45 L-5.9 2.35 -5.85 2.4 -6.0 2.5 Q-6.8 2.5 -7.05 1.65 L-7.15 1.65 Q-8.5 1.65 -8.55 -1.2 -8.55 -3.1 -8.0 -3.7 L-6.9 -4.75 Q-5.8 -5.6 -4.95 -5.6 L-4.3 -5.55 -3.65 -5.4 -3.8 -5.35 -6.25 -4.75 Q-6.6 -4.35 -7.45 -3.8" fill="#796f51" fill-rule="evenodd" stroke="none"/>
    <path d="M7.4 -3.2 L7.55 -2.85 7.65 -2.45 7.6 -2.25 7.05 -2.25 7.0 -2.25 Q6.75 -2.25 6.6 -2.4 L6.35 -2.55 6.35 -2.7 6.5 -3.2 6.6 -3.25 6.7 -3.25 7.0 -3.35 7.4 -3.2 M6.8 -2.6 L6.75 -2.55 Q7.3 -2.4 6.8 -2.6 M-1.35 8.6 L-0.65 8.45 -0.6 8.4 -0.15 8.3 0.65 8.2 2.4 8.45 2.4 8.5 2.25 8.55 1.45 8.5 -0.7 8.7 -1.1 8.75 -1.0 8.65 -1.3 8.7 -1.45 8.65 -1.35 8.6 M-4.65 -3.65 L-4.25 -3.8 -3.85 -3.65 -3.7 -3.25 Q-3.7 -3.0 -3.85 -2.85 -4.0 -2.7 -4.25 -2.7 L-4.35 -2.7 -4.7 -2.8 -4.8 -2.85 -4.85 -3.05 -4.75 -3.45 -4.65 -3.65 M-4.5 -2.95 L-4.15 -2.9 -4.45 -3.0 -4.5 -2.95" fill="#000000" fill-rule="evenodd" stroke="none"/>
    <path d="M6.8 -2.6 Q7.3 -2.4 6.75 -2.55 L6.8 -2.6 M-1.35 8.6 Q0.0 7.05 1.65 7.05 L2.7 7.1 Q3.55 7.35 3.95 8.5 4.35 9.7 3.25 10.15 2.0 10.65 0.65 10.6 -0.75 10.5 -1.3 8.7 L-1.0 8.65 -1.1 8.75 -0.7 8.7 1.45 8.5 2.25 8.55 2.4 8.5 2.4 8.45 0.65 8.2 -0.15 8.3 -0.6 8.4 -0.65 8.45 -1.35 8.6 M-4.5 -2.95 L-4.45 -3.0 -4.15 -2.9 -4.5 -2.95" fill="#ffffff" fill-rule="evenodd" stroke="none"/>
    <path d="M8.9 -0.9 L9.4 -1.45 9.65 -1.2 9.4 0.3 8.85 1.25 Q8.15 2.0 7.4 2.0 5.25 2.0 5.25 1.05 L5.3 0.8 5.85 1.2 Q5.75 0.95 6.1 0.95 L6.9 1.05 Q8.65 1.05 8.65 -0.1 8.6 -0.4 8.9 -0.9 M-2.25 -2.45 Q-1.75 -2.45 -1.75 -1.05 -1.75 -0.25 -2.25 0.3 -2.7 0.75 -3.75 1.05 L-4.9 1.1 Q-5.85 1.15 -5.85 0.7 -5.85 0.4 -5.5 0.55 L-5.2 0.05 -4.35 0.25 Q-2.85 0.25 -2.4 -1.45 L-2.5 -2.15 -2.25 -2.45" fill="#c8c1ae" fill-rule="evenodd" stroke="none"/>
    <path d="M-1.3 8.7 Q-0.75 10.5 0.65 10.6 2.0 10.65 3.25 10.15 4.35 9.7 3.95 8.5 3.55 7.35 2.7 7.1 L1.65 7.05 Q0.0 7.05 -1.35 8.6 L-1.45 8.65 -1.3 8.7 M2.3 6.45 Q3.95 6.5 4.4 9.2 L4.3 9.6 Q3.0 10.9 1.7 11.0 L1.5 11.0 Q0.1 11.0 -1.3 9.4 -2.0 8.6 -1.3 7.9 0.15 6.6 1.75 6.45 L2.3 6.45" fill="#865204" fill-rule="evenodd" stroke="none"/>
    <path d="M-3.65 14.6 L-3.8 14.65 -3.9 14.55 Q-7.7 13.55 -10.65 10.6 -12.3 8.9 -13.3 6.95 -12.9 6.3 -12.9 1.05 L-12.75 1.35 -12.5 1.35 -12.45 1.15 -12.95 -0.55 -13.1 -2.4 Q-13.1 -3.9 -12.6 -4.45 L-12.3 -1.75 -11.4 -3.25 -11.4 -3.1 -11.05 -1.05 -11.1 -0.9 -11.15 -0.85 -10.95 0.45 -11.6 2.65 -11.25 4.65 -10.2 5.9 -9.75 7.25 -8.35 9.9 Q-7.7 11.4 -6.05 12.6 L-4.55 13.75 Q-4.25 13.75 -3.65 14.35 L-3.65 14.4 -3.5 14.5 -3.65 14.55 -3.65 14.6 M-1.7 11.5 Q0.8 11.5 0.8 12.25 0.8 12.9 -0.9 12.9 -3.0 12.9 -3.0 12.0 -3.0 11.5 -1.7 11.5" fill="#fbba59" fill-rule="evenodd" stroke="none"/>
    <path d="M-7.9 -10.85 L-7.95 -10.85 -7.85 -10.85 -7.9 -10.85" fill="#916602" fill-rule="evenodd" stroke="none"/>
    <path d="M11.75 -9.35 L10.75 -10.45 10.6 -10.65 Q8.95 -12.25 7.05 -13.25 L6.6 -13.55 M6.1 -13.75 Q3.55 -14.9 0.6 -15.0 L0.0 -15.0 Q-3.9 -15.0 -7.05 -13.25 -9.0 -12.25 -10.65 -10.65 L-12.45 -8.4 Q-15.0 -4.7 -15.0 0.0 -15.0 3.5 -13.6 6.4 M13.0 -7.55 L11.95 -9.05 M13.2 -7.15 Q15.0 -3.95 15.0 0.0 15.0 3.9 13.2 7.1 12.15 9.0 10.6 10.6 6.2 15.0 0.0 15.0 L-3.65 14.6 M-3.9 14.55 Q-7.7 13.55 -10.65 10.6 -12.3 8.9 -13.3 6.95" fill="none" stroke="#865204" stroke-linecap="round" stroke-linejoin="round" stroke-width="0.5"/>
    <path d="M4.2 -3.65 Q5.2 -4.65 6.4 -4.8 L7.15 -4.9 Q8.9 -4.9 10.1 -3.65 11.35 -2.45 11.35 -0.7 11.35 1.0 10.1 2.25 8.9 3.45 7.15 3.45 L6.4 3.4 Q5.2 3.2 4.2 2.25 3.2 1.2 3.05 -0.2 L-0.05 -0.2 Q-0.35 0.9 -1.2 1.8 -2.55 3.1 -4.35 3.1 L-5.15 3.05 Q-6.5 2.8 -7.55 1.8 -8.85 0.45 -8.85 -1.35 -8.85 -3.2 -7.55 -4.55 -6.5 -5.55 -5.15 -5.8 L-4.35 -5.85 Q-2.55 -5.85 -1.2 -4.55 0.05 -3.25 0.1 -1.55 L3.1 -1.55 Q3.3 -2.75 4.2 -3.65 M4.9 -2.9 Q5.8 -3.8 7.1 -3.8 8.2 -3.8 9.0 -3.2 L9.35 -2.9 Q10.25 -2.0 10.25 -0.65 10.25 0.65 9.35 1.6 L8.8 2.05 7.1 2.5 Q5.8 2.5 4.9 1.6 3.95 0.65 3.95 -0.65 3.95 -2.0 4.9 -2.9 M-6.65 -3.55 Q-5.75 -4.45 -4.4 -4.45 -3.1 -4.45 -2.2 -3.55 L-1.7 -2.95 Q-1.3 -2.3 -1.25 -1.55 L-1.25 -1.3 -1.45 -0.2 -1.85 0.5 -2.2 0.9 Q-3.1 1.85 -4.4 1.85 -5.75 1.85 -6.65 0.9 -7.6 0.0 -7.6 -1.3 -7.6 -2.65 -6.65 -3.55" fill="none" stroke="#000000" stroke-linecap="round" stroke-linejoin="round" stroke-width="0.5"/>
  </g>
</svg>
