<?xml version="1.0" encoding="UTF-8" standalone="no"?>
<svg xmlns:xlink="http://www.w3.org/1999/xlink" height="29.9px" width="30.0px" xmlns="http://www.w3.org/2000/svg">
  <g transform="matrix(1.0, 0.0, 0.0, 1.0, 15.25, 14.25)">
    <path d="M2.45 -12.05 L2.45 -12.1 Q1.25 -13.3 -1.55 -13.3 L-2.4 -13.25 Q-4.35 -13.0 -4.35 -12.2 -4.35 -11.1 -1.95 -11.1 1.7 -11.1 2.45 -12.05 M4.45 -10.7 L4.4 -10.9 1.35 -10.9 -3.5 -10.0 -3.25 -9.85 4.4 -10.5 4.45 -10.7 M6.8 -9.5 L6.25 -9.8 -3.55 -9.15 Q-4.55 -8.6 -5.75 -8.4 L-5.7 -8.3 Q-2.75 -9.2 -0.4 -9.2 L6.5 -9.15 6.8 -9.5 M9.0 -5.3 L9.25 -5.2 Q10.6 -4.8 11.05 -4.2 L11.15 -4.25 11.2 -4.4 Q11.2 -5.3 8.85 -6.6 6.15 -8.2 3.3 -8.2 1.55 -8.2 1.55 -6.7 L1.65 -6.15 Q1.85 -5.75 2.45 -5.65 L1.45 -5.05 Q1.45 -4.7 2.0 -4.65 L3.6 -5.0 6.5 -5.35 Q7.9 -5.35 8.5 -4.4 9.65 -2.6 10.55 -1.85 L10.95 -2.4 10.05 -3.7 10.35 -3.75 10.35 -4.0 9.9 -4.0 9.6 -4.45 9.0 -5.3 M2.45 -3.55 L2.5 -3.5 Q3.2 -4.1 4.6 -4.5 L5.65 -4.75 7.2 -4.95 6.65 -5.0 6.65 -4.95 4.35 -4.55 Q2.65 -4.05 2.45 -3.55 M2.05 -3.35 L1.95 -3.35 1.95 -3.05 2.1 -2.4 2.15 -2.45 2.05 -3.35 M4.15 -4.75 L3.95 -4.8 Q2.7 -4.15 2.45 -3.75 L2.5 -3.7 Q3.05 -4.35 4.15 -4.75 M-7.5 -5.55 L-7.6 -5.45 -7.65 -5.45 -9.65 -4.2 -9.65 -3.8 -9.45 -3.75 -7.4 -4.85 -4.5 -5.55 Q-3.65 -5.55 -2.55 -4.8 L-1.65 -4.6 -1.0 -4.2 Q0.1 -4.25 0.85 -4.95 L0.55 -5.0 0.05 -4.9 -0.85 -5.4 -0.3 -5.2 Q0.5 -5.25 0.5 -6.0 L-0.15 -7.3 Q-1.0 -8.45 -2.0 -8.45 -6.3 -8.45 -10.5 -4.65 L-10.3 -4.6 -7.65 -5.5 -7.5 -5.55 M2.2 -1.75 L2.1 -1.75 2.05 -1.3 2.7 -0.65 Q3.6 -0.65 5.9 -1.35 8.95 -1.35 9.15 -0.8 L9.3 -0.85 Q9.1 -1.7 5.95 -1.7 L2.75 -0.95 Q2.2 -0.95 2.2 -1.75 M2.15 -0.65 L2.25 -0.9 2.1 -0.95 2.05 -0.65 Q2.05 -0.1 3.25 1.45 L3.3 1.4 2.15 -0.65 M1.7 -1.2 L1.65 -1.2 2.25 0.45 2.3 0.4 Q2.1 -0.6 1.7 -1.2 M1.55 -0.3 L1.15 -1.5 Q0.75 -3.65 0.3 -3.6 -0.35 -3.65 -0.35 -2.85 L-0.15 -1.5 -0.05 -0.15 -0.05 -0.1 Q-1.65 1.2 -1.75 1.85 L-1.75 1.95 -2.45 2.1 -2.9 2.15 -2.9 2.35 -2.7 2.4 -2.65 2.55 -2.5 2.6 Q-2.0 2.6 -1.8 2.3 L-0.15 2.25 0.05 2.15 0.15 2.15 1.7 1.95 Q2.25 1.95 2.25 1.65 2.25 1.25 1.7 1.4 L1.7 1.35 2.0 0.95 1.45 0.1 1.55 -0.3 M9.75 -1.15 L9.8 -1.1 10.05 -1.35 Q9.8 -1.35 9.75 -1.15 M9.85 -0.2 L9.7 -0.1 10.7 -0.1 10.75 -0.15 10.1 -0.25 9.85 -0.2 M9.7 -0.6 L9.9 -0.6 10.75 -0.9 10.7 -0.95 9.9 -0.8 9.7 -0.6 M-14.1 -4.4 Q-13.55 -6.05 -12.5 -7.5 L-10.7 -9.7 Q-6.35 -14.0 -0.25 -14.0 L0.35 -14.0 Q6.05 -13.8 10.15 -9.7 L10.3 -9.6 Q12.35 -7.5 13.4 -4.95 11.95 -4.2 11.95 -3.25 L12.35 -1.1 11.85 1.45 11.9 1.8 11.8 1.75 Q11.65 1.75 11.65 1.85 L12.15 2.7 12.4 3.4 Q12.45 3.85 12.85 3.85 L13.4 3.65 14.1 4.25 12.75 7.7 12.75 7.75 12.15 8.7 10.95 10.25 10.8 10.4 10.25 11.0 10.15 11.1 Q5.85 15.4 -0.25 15.4 -6.35 15.4 -10.7 11.1 -13.55 8.25 -14.5 4.65 L-14.45 4.65 Q-14.2 4.15 -13.85 4.15 L-13.2 4.25 -12.7 3.95 -12.8 3.7 -12.55 3.15 -12.4 3.45 -12.0 2.3 -11.85 2.05 -11.95 1.75 Q-11.7 1.55 -11.75 0.9 L-11.0 0.3 -10.55 -0.1 -10.65 -0.2 -10.7 -0.15 -10.7 -0.3 -9.85 -0.65 -10.05 -0.9 -11.6 -0.5 -12.35 -0.25 -12.65 -1.55 -12.2 -1.55 -12.05 -1.4 -11.5 -1.5 -12.35 -0.9 -12.15 -0.75 -11.7 -0.9 -11.7 -0.85 -11.65 -0.85 -11.4 -0.9 -11.4 -1.0 -11.05 -1.15 -10.7 -1.2 -10.5 -1.0 Q-10.2 -1.0 -10.2 -1.4 L-10.2 -1.65 -10.1 -1.8 -10.0 -2.0 -9.95 -2.1 -10.0 -2.2 -10.05 -2.25 -10.3 -2.35 -10.5 -2.2 -12.0 -2.25 -12.05 -2.5 -12.1 -2.5 -12.1 -2.2 -11.45 -2.05 -11.7 -2.0 -11.85 -1.95 -12.6 -1.9 -12.55 -2.75 -13.15 -3.5 -13.95 -4.35 -14.1 -4.35 -14.1 -4.4 M11.45 -2.3 Q11.6 -2.3 11.75 -2.45 L11.5 -2.7 Q11.15 -2.7 11.15 -2.5 L11.45 -2.3 M10.4 -1.25 L10.35 -1.2 10.4 -1.1 10.5 -1.2 10.4 -1.25 M11.5 -0.1 L11.45 -0.35 11.35 -0.35 11.45 -0.05 11.5 -0.1 M-10.35 -3.3 Q-11.7 -3.6 -11.65 -3.85 L-11.85 -3.7 Q-11.85 -3.4 -10.75 -3.0 L-10.35 -3.0 -10.3 -3.15 -10.35 -3.3 M-1.9 -12.6 L-2.0 -12.5 -3.4 -12.1 -3.55 -12.2 Q-3.25 -12.6 -2.55 -12.6 L-1.9 -12.6 M-10.0 0.7 L-10.05 0.85 Q-10.05 1.45 -9.4 1.45 L-9.2 1.4 Q-8.55 2.1 -7.8 2.1 L-7.65 2.05 -7.6 1.85 -9.0 0.9 -10.15 -0.3 -10.3 -0.2 -10.0 0.35 -10.05 0.35 -10.05 0.6 -10.0 0.7 M-10.0 0.35 L-9.7 0.8 -9.8 0.75 -10.0 0.35 M-8.15 -1.55 L-8.3 -1.6 Q-9.2 -1.6 -9.55 -1.1 L-9.5 -1.05 -8.55 -1.4 -8.65 -1.35 -5.15 -1.5 Q-2.2 -1.5 -1.6 -1.0 -1.2 -1.0 -1.2 -1.55 L-1.25 -1.85 Q-1.55 -1.85 -1.55 -1.35 L-4.85 -1.8 -8.15 -1.55 M-7.75 -3.7 L-7.7 -3.65 -4.65 -4.3 -3.45 -4.1 -4.6 -4.4 Q-7.05 -4.4 -7.75 -3.7 M-5.25 -4.8 L-7.4 -4.2 -7.35 -4.15 -5.05 -4.7 -4.2 -4.6 -4.1 -4.65 -5.25 -4.8 M-9.25 -0.6 L-8.8 -0.05 -9.05 -0.45 -9.25 -0.6 M-4.6 2.25 Q-3.6 2.05 -3.25 1.65 -1.9 0.5 -1.85 -0.25 L-1.95 -0.25 Q-2.0 0.45 -3.15 1.45 L-3.15 1.3 -3.15 1.25 -3.45 1.45 -4.35 1.95 -7.65 2.3 Q-8.1 2.3 -9.05 1.75 L-9.1 1.8 Q-8.6 2.4 -7.65 2.45 L-9.0 2.45 -10.65 1.1 -10.7 1.1 Q-10.7 1.6 -10.2 1.9 L-9.0 2.45 -7.7 2.65 -6.4 2.5 -6.55 2.45 -5.8 2.4 Q-8.5 3.0 -8.65 3.35 L-8.85 3.3 Q-9.85 3.3 -9.85 4.55 L-9.75 5.45 Q-9.75 6.2 -10.85 7.75 L-10.65 7.95 -10.95 8.5 -10.9 8.6 -10.95 9.0 -10.4 10.25 -10.1 10.0 -10.45 8.95 -10.3 8.3 -10.3 8.25 Q-9.65 8.05 -8.85 5.45 L-9.0 4.55 -8.5 3.75 -8.0 3.85 -7.9 3.8 -8.1 3.55 Q-4.45 2.75 -4.45 2.5 L-4.6 2.25 M-2.75 -4.15 L-2.8 -4.1 -2.45 -4.0 -2.75 -4.15 M-1.75 -3.2 L-1.7 -3.25 -1.45 -1.85 -1.35 -2.4 Q-1.35 -3.15 -1.8 -3.55 L-1.85 -3.55 -1.75 -3.3 -2.6 -3.9 -2.7 -3.9 -1.75 -3.2 M-1.05 7.3 Q-0.1 7.1 -0.1 6.2 -0.1 5.85 -0.25 5.85 L-0.55 5.95 Q-0.35 6.4 -1.05 7.3 L-1.2 7.3 -3.35 7.1 -3.95 6.55 -4.05 6.55 -4.05 6.75 -4.1 6.75 -4.1 6.95 Q-6.1 6.5 -8.05 5.5 -7.85 4.65 -7.0 3.9 -8.45 4.4 -8.35 6.25 -8.35 6.85 -9.95 8.7 -8.1 7.35 -8.15 6.4 L-8.1 5.6 Q-8.1 5.85 -5.6 6.75 L-2.05 7.65 -1.95 7.85 -1.75 7.65 -1.5 7.7 -1.0 8.55 -0.95 8.5 -0.95 8.55 -0.7 9.45 Q-0.7 9.9 -1.15 10.6 L-0.95 10.85 Q-0.3 10.25 -0.3 9.45 -0.45 8.1 -0.8 8.1 L-0.95 8.2 -1.2 7.7 -0.75 7.7 Q-0.35 7.9 -0.45 8.35 L-0.4 8.3 -0.5 7.65 0.9 7.55 0.9 7.6 0.95 7.65 1.0 7.6 1.1 7.7 1.3 7.65 1.0 7.55 5.55 7.1 7.4 6.75 8.35 6.3 8.35 6.75 8.25 7.95 8.6 9.15 8.8 9.1 Q8.45 8.75 8.45 7.9 L8.55 6.75 8.5 6.1 Q8.3 4.7 7.1 4.7 L7.05 4.7 Q8.0 5.05 8.25 5.95 L8.1 5.95 6.25 6.6 2.1 7.15 2.6 6.55 2.0 7.15 1.65 7.2 Q2.6 6.5 2.6 5.95 L2.55 5.85 2.5 5.85 1.45 7.2 0.45 7.25 -1.05 7.3 M-5.9 6.8 Q-6.2 6.8 -6.2 7.05 L-4.9 7.95 -4.2 8.35 -3.7 8.45 -2.85 8.65 Q-2.45 9.15 -1.9 10.6 L-1.35 9.55 Q-2.0 7.85 -2.6 7.85 -3.75 7.8 -4.7 7.35 -5.7 6.8 -5.9 6.8 M-3.7 7.05 L-4.0 7.0 -4.05 6.85 -3.7 7.05 M-11.8 4.15 Q-11.6 5.55 -10.55 6.6 L-10.6 6.9 -10.5 6.85 -10.45 6.8 -10.45 6.5 -11.75 3.4 -11.45 2.35 -11.55 2.3 Q-11.85 2.6 -11.85 3.4 L-11.8 4.15 -12.3 3.5 -12.35 3.5 -12.4 3.65 -11.9 4.4 -11.8 4.15 M-10.7 4.1 Q-10.4 4.1 -10.4 3.3 -10.3 2.5 -10.8 2.5 -11.25 2.5 -11.25 3.25 L-10.7 4.1 M9.2 1.9 L9.9 1.5 10.65 0.7 10.65 0.65 10.8 0.75 11.15 0.5 Q10.75 0.1 10.45 0.1 L10.35 0.5 Q10.05 0.6 9.35 1.2 L8.45 1.55 7.85 1.85 7.8 1.9 7.85 2.05 8.4 2.1 9.05 2.0 Q8.5 2.4 7.15 2.4 L6.3 2.35 7.5 2.6 Q8.2 2.6 8.95 2.2 L9.2 1.9 M10.5 2.25 L10.25 2.2 8.75 2.8 7.65 2.7 6.35 2.4 6.3 2.4 5.9 2.25 5.45 2.1 5.4 2.1 5.45 2.25 6.35 2.45 6.35 2.55 8.2 2.9 Q9.4 2.9 10.5 2.25 M10.8 2.3 L10.75 2.3 11.0 3.4 10.8 4.5 11.1 3.35 10.8 2.3 M5.8 2.85 L5.55 2.9 Q5.55 3.3 7.1 3.8 L8.6 4.85 8.65 4.85 8.9 5.65 8.8 8.05 8.85 9.05 8.85 9.35 Q9.05 10.5 9.75 10.55 L10.35 10.15 Q9.7 9.15 9.7 8.05 L9.8 6.05 Q9.7 4.3 8.9 4.3 L8.8 4.35 Q8.55 3.95 7.75 3.5 6.6 2.85 5.8 2.85 M10.25 6.95 L10.3 7.95 Q10.45 8.85 11.05 8.9 L11.3 8.65 Q10.75 8.55 10.75 6.95 10.75 5.7 10.55 5.2 10.25 5.65 10.25 6.95 M11.55 6.05 L11.8 5.8 11.55 5.35 11.25 5.6 Q11.25 6.0 11.55 6.05 M10.45 1.55 L10.3 1.4 Q9.95 1.5 9.25 2.05 L9.6 2.25 Q10.45 2.25 10.45 1.55 M4.75 2.05 L3.9 1.75 3.75 1.7 3.7 1.7 3.7 1.85 4.35 1.95 4.75 2.1 4.75 2.05 M2.2 8.25 L2.3 8.2 2.3 8.1 1.95 7.9 1.85 8.15 2.2 8.25 M0.65 9.05 L0.15 7.9 Q-0.15 7.9 -0.15 8.1 -0.15 8.9 0.45 9.55 L0.65 9.05 M3.6 6.7 Q3.35 6.7 3.35 6.85 L3.45 6.9 3.6 6.85 3.6 6.7 M1.1 5.2 Q1.05 5.2 0.95 5.3 L1.05 5.5 -0.35 7.2 0.05 7.2 0.1 7.15 0.45 7.2 2.0 6.4 2.5 5.4 Q2.5 5.05 2.3 5.05 L1.6 6.15 0.75 6.7 1.4 5.65 1.35 5.25 1.1 5.2" fill="#fbc87b" fill-rule="evenodd" stroke="none"/>
    <path d="M6.8 -9.5 L6.5 -9.15 -0.4 -9.2 Q-2.75 -9.2 -5.7 -8.3 L-5.75 -8.4 Q-4.55 -8.6 -3.55 -9.15 L6.25 -9.8 6.8 -9.5 M4.45 -10.7 L4.4 -10.5 -3.25 -9.85 -3.5 -10.0 1.35 -10.9 4.4 -10.9 4.45 -10.7 M2.45 -12.05 Q1.7 -11.1 -1.95 -11.1 -4.35 -11.1 -4.35 -12.2 -4.35 -13.0 -2.4 -13.25 L-1.55 -13.3 Q1.25 -13.3 2.45 -12.1 L2.45 -12.05 M3.6 -6.0 L6.8 -6.3 7.9 -6.05 6.0 -6.2 3.6 -6.0 M9.0 -5.3 L9.6 -4.45 9.9 -4.0 10.35 -4.0 10.35 -3.75 10.05 -3.7 10.95 -2.4 10.55 -1.85 Q9.65 -2.6 8.5 -4.4 7.9 -5.35 6.5 -5.35 L3.6 -5.0 2.0 -4.65 Q1.45 -4.7 1.45 -5.05 L2.45 -5.65 2.65 -5.65 6.0 -5.85 9.0 -5.3 M-0.85 -5.4 L0.05 -4.9 0.55 -5.0 0.85 -4.95 Q0.1 -4.25 -1.0 -4.2 L-1.65 -4.6 -2.55 -4.8 Q-3.65 -5.55 -4.5 -5.55 L-7.4 -4.85 -9.45 -3.75 -9.65 -3.8 -9.65 -4.2 -7.65 -5.45 -7.6 -5.45 -7.5 -5.55 -3.9 -5.95 -0.85 -5.4 M1.55 -0.3 L1.45 0.1 2.0 0.95 1.7 1.35 1.7 1.4 Q2.25 1.25 2.25 1.65 2.25 1.95 1.7 1.95 L0.15 2.15 0.05 2.15 -0.15 2.25 -1.8 2.3 Q-2.0 2.6 -2.5 2.6 L-2.65 2.55 -2.7 2.4 -2.9 2.35 -2.9 2.15 -2.45 2.1 -1.75 1.95 -1.75 1.85 Q-1.65 1.2 -0.05 -0.1 L-0.05 -0.15 -0.15 -1.5 -0.35 -2.85 Q-0.35 -3.65 0.3 -3.6 0.75 -3.65 1.15 -1.5 L1.55 -0.3 M-12.6 -1.9 L-11.85 -1.95 -11.7 -2.0 -11.45 -2.05 -11.4 -2.1 -11.35 -2.05 -11.0 -2.05 -10.8 -2.0 -10.5 -2.2 -10.3 -2.35 -10.05 -2.25 -10.0 -2.2 -10.0 -2.1 -10.0 -2.0 -10.1 -1.8 -10.2 -1.65 -10.2 -1.4 Q-10.2 -1.0 -10.5 -1.0 L-10.7 -1.2 -10.7 -1.3 -11.05 -1.15 -11.4 -1.0 -11.4 -0.9 -11.65 -0.85 -11.7 -0.85 -11.7 -0.9 -12.15 -0.75 -12.35 -0.9 -11.5 -1.5 -12.05 -1.4 -12.2 -1.55 -12.65 -1.55 -12.65 -1.65 -12.6 -1.9 M-12.35 -0.25 L-11.6 -0.5 -10.05 -0.9 -9.85 -0.65 -10.7 -0.3 -10.7 -0.15 -10.65 -0.2 -10.55 -0.1 -11.0 0.3 -11.75 0.9 Q-11.7 1.55 -11.95 1.75 L-11.85 2.05 -12.0 2.3 -12.4 3.45 -12.55 3.15 Q-11.85 1.65 -11.85 1.05 L-12.35 -0.25 M11.45 -2.3 L11.15 -2.5 Q11.15 -2.7 11.5 -2.7 L11.75 -2.45 Q11.6 -2.3 11.45 -2.3 M-1.9 -12.6 L-2.55 -12.6 Q-3.25 -12.6 -3.55 -12.2 L-3.4 -12.1 -2.0 -12.5 -1.9 -12.6 M-10.35 -3.3 L-10.3 -3.15 -10.35 -3.0 -10.75 -3.0 Q-11.85 -3.4 -11.85 -3.7 L-11.65 -3.85 Q-11.7 -3.6 -10.35 -3.3 M-10.0 0.35 L-10.3 -0.2 -10.15 -0.3 -9.0 0.9 -7.6 1.85 -7.65 2.05 -7.8 2.1 Q-8.55 2.1 -9.2 1.4 L-9.4 1.45 Q-10.05 1.45 -10.05 0.85 L-10.0 0.7 -9.95 0.55 -9.8 0.75 -9.7 0.8 -10.0 0.35 M-5.3 -6.25 L-3.9 -6.4 -1.45 -5.95 -3.6 -6.35 -5.3 -6.25 M-4.6 2.25 L-4.45 2.5 Q-4.45 2.75 -8.1 3.55 L-7.9 3.8 -8.0 3.85 -8.5 3.75 -9.0 4.55 -8.85 5.45 Q-9.65 8.05 -10.3 8.25 L-10.3 8.3 -10.45 8.95 -10.1 10.0 -10.4 10.25 -10.95 9.0 -10.9 8.6 -10.95 8.5 -10.65 7.95 -10.85 7.75 Q-9.75 6.2 -9.75 5.45 L-9.85 4.55 Q-9.85 3.3 -8.85 3.3 L-8.65 3.35 Q-8.5 3.0 -5.8 2.4 L-5.15 2.25 -4.95 2.2 -4.6 2.25 M-1.05 7.3 Q-0.35 6.4 -0.55 5.95 L-0.25 5.85 Q-0.1 5.85 -0.1 6.2 -0.1 7.1 -1.05 7.3 M-0.95 8.2 L-0.8 8.1 Q-0.45 8.1 -0.3 9.45 -0.3 10.25 -0.95 10.85 L-1.15 10.6 Q-0.7 9.9 -0.7 9.45 L-0.95 8.55 -0.95 8.5 -1.0 8.3 -0.95 8.2 M-4.05 6.75 L-4.05 6.55 -3.95 6.55 -3.35 7.1 -3.2 7.3 -3.3 7.4 -3.7 7.05 -4.05 6.85 -4.05 6.75 M-5.9 6.8 Q-5.7 6.8 -4.7 7.35 -3.75 7.8 -2.6 7.85 -2.0 7.85 -1.35 9.55 L-1.9 10.6 Q-2.45 9.15 -2.85 8.65 L-3.7 8.45 -4.2 8.35 -4.9 7.95 -6.2 7.05 Q-6.2 6.8 -5.9 6.8 M-11.8 4.15 L-11.9 4.4 -12.4 3.65 -12.35 3.5 -12.3 3.5 -11.8 4.15 M-10.7 4.1 L-11.25 3.25 Q-11.25 2.5 -10.8 2.5 -10.3 2.5 -10.4 3.3 -10.4 4.1 -10.7 4.1 M9.05 2.0 L8.4 2.1 7.85 2.05 7.8 1.9 7.85 1.85 8.45 1.55 9.35 1.2 Q10.05 0.6 10.35 0.5 L10.45 0.1 Q10.75 0.1 11.15 0.5 L10.8 0.75 10.65 0.65 10.65 0.7 9.9 1.5 9.2 1.9 9.05 2.0 M10.45 1.55 Q10.45 2.25 9.6 2.25 L9.25 2.05 Q9.95 1.5 10.3 1.4 L10.45 1.55 M11.55 6.05 Q11.25 6.0 11.25 5.6 L11.55 5.35 11.8 5.8 11.55 6.05 M10.25 6.95 Q10.25 5.65 10.55 5.2 10.75 5.7 10.75 6.95 10.75 8.55 11.3 8.65 L11.05 8.9 Q10.45 8.85 10.3 7.95 L10.25 6.95 M5.8 2.85 Q6.6 2.85 7.75 3.5 8.55 3.95 8.8 4.35 L8.9 4.3 Q9.7 4.3 9.8 6.05 L9.7 8.05 Q9.7 9.15 10.35 10.15 L9.75 10.55 Q9.05 10.5 8.85 9.35 L8.85 9.05 8.8 8.05 8.9 5.65 8.65 4.85 8.6 4.85 7.1 3.8 Q5.55 3.3 5.55 2.9 L5.8 2.85 M1.1 5.2 L1.35 5.25 1.4 5.65 0.75 6.7 1.6 6.15 2.3 5.05 Q2.5 5.05 2.5 5.4 L2.0 6.4 0.45 7.2 0.1 7.15 0.05 7.2 -0.35 7.2 1.05 5.5 0.95 5.3 Q1.05 5.2 1.1 5.2 M3.6 6.7 L3.6 6.85 3.45 6.9 3.35 6.85 Q3.35 6.7 3.6 6.7 M0.65 9.05 L0.45 9.55 Q-0.15 8.9 -0.15 8.1 -0.15 7.9 0.15 7.9 L0.65 9.05 M2.2 8.25 L1.85 8.15 1.95 7.9 2.3 8.1 2.3 8.2 2.2 8.25" fill="#fcd79e" fill-rule="evenodd" stroke="none"/>
    <path d="M7.9 -6.05 L9.85 -5.35 Q7.1 -7.8 2.95 -7.8 2.25 -7.8 2.0 -7.25 L1.85 -6.7 Q1.85 -6.0 2.8 -5.95 L3.6 -6.0 6.0 -6.2 7.9 -6.05 M2.45 -5.65 Q1.85 -5.75 1.65 -6.15 L1.55 -6.7 Q1.55 -8.2 3.3 -8.2 6.15 -8.2 8.85 -6.6 11.2 -5.3 11.2 -4.4 L11.15 -4.25 11.05 -4.2 Q10.6 -4.8 9.25 -5.2 L9.0 -5.3 6.0 -5.85 2.65 -5.65 2.45 -5.65 M-7.5 -5.55 L-7.65 -5.5 -10.3 -4.6 -10.5 -4.65 Q-6.3 -8.45 -2.0 -8.45 -1.0 -8.45 -0.15 -7.3 L0.5 -6.0 Q0.5 -5.25 -0.3 -5.2 L-0.85 -5.4 -3.9 -5.95 -7.5 -5.55 M2.2 -1.75 Q2.2 -0.95 2.75 -0.95 L5.95 -1.7 Q9.1 -1.7 9.3 -0.85 L9.15 -0.8 Q8.95 -1.35 5.9 -1.35 3.6 -0.65 2.7 -0.65 L2.05 -1.3 2.1 -1.75 2.2 -1.75 M-14.1 -4.35 L-13.95 -4.35 -13.15 -3.5 -12.55 -2.75 -12.6 -1.9 -12.65 -1.65 -12.65 -1.55 -12.35 -0.25 -11.85 1.05 Q-11.85 1.65 -12.55 3.15 L-12.8 3.7 -12.7 3.95 -13.2 4.25 -13.85 4.15 Q-14.2 4.15 -14.45 4.65 L-14.5 4.65 -14.65 4.65 -14.55 4.45 Q-14.25 3.75 -13.55 4.0 L-12.9 4.0 -13.0 3.7 -12.4 2.45 -12.3 2.2 -12.3 2.15 -12.05 1.05 -12.5 -0.1 -12.85 -1.55 -12.85 -1.65 -12.75 -2.75 Q-14.1 -3.95 -14.1 -4.35 M14.1 4.25 L13.4 3.65 12.85 3.85 Q12.45 3.85 12.4 3.4 L12.15 2.7 11.65 1.85 Q11.65 1.75 11.8 1.75 L11.9 1.8 11.85 1.45 12.35 -1.1 11.95 -3.25 Q11.95 -4.2 13.4 -4.95 L13.55 -4.9 13.6 -4.85 13.5 -4.8 Q12.15 -3.9 12.15 -3.2 L12.55 -1.1 12.5 -0.5 12.45 -0.45 12.5 -0.45 12.05 1.45 12.1 1.95 12.6 3.05 12.6 3.35 12.7 3.55 12.9 3.6 13.5 3.45 14.2 3.9 14.35 4.05 14.1 4.25 M-8.15 -1.55 L-4.85 -1.8 -1.55 -1.35 Q-1.55 -1.85 -1.25 -1.85 L-1.2 -1.55 Q-1.2 -1.0 -1.6 -1.0 -2.2 -1.5 -5.15 -1.5 L-8.65 -1.35 -8.55 -1.4 -8.5 -1.4 -8.1 -1.45 -8.1 -1.5 -8.15 -1.55 M-1.45 -5.95 L-0.3 -5.6 Q0.2 -5.65 0.2 -6.05 0.2 -8.15 -3.2 -8.15 -3.85 -8.15 -6.55 -7.0 L-9.45 -5.25 Q-7.35 -6.05 -5.3 -6.25 L-3.6 -6.35 -1.45 -5.95" fill="#000000" fill-rule="evenodd" stroke="none"/>
    <path d="M3.6 -6.0 L2.8 -5.95 Q1.85 -6.0 1.85 -6.7 L2.0 -7.25 Q2.25 -7.8 2.95 -7.8 7.1 -7.8 9.85 -5.35 L7.9 -6.05 6.8 -6.3 3.6 -6.0 M3.3 -6.55 L3.55 -6.5 Q4.95 -7.05 4.95 -7.25 L4.7 -7.45 Q3.4 -7.45 3.3 -6.55 M-14.1 -4.4 L-14.1 -4.35 Q-14.1 -3.95 -12.75 -2.75 L-12.85 -1.65 -12.85 -1.55 -12.5 -0.1 -12.05 1.05 -12.3 2.15 -12.3 2.2 -12.4 2.45 -13.0 3.7 -12.9 4.0 -13.55 4.0 Q-14.25 3.75 -14.55 4.45 L-15.0 0.7 Q-15.0 -2.0 -14.1 -4.4 M13.5 -4.8 Q14.5 -2.25 14.5 0.7 L14.2 3.9 13.5 3.45 12.9 3.6 12.7 3.55 12.6 3.35 12.6 3.05 12.1 1.95 12.05 1.45 12.5 -0.45 13.15 -0.8 13.15 -0.7 Q13.15 0.25 13.4 0.3 13.8 -1.0 13.8 -2.25 L13.75 -2.4 13.7 -2.4 12.5 -0.5 12.55 -1.1 12.15 -3.2 Q12.15 -3.9 13.5 -4.8 M-13.4 -1.9 L-13.4 -2.35 Q-13.95 -1.6 -14.05 1.3 -14.05 3.2 -13.7 3.2 -13.2 3.2 -13.0 -1.9 -13.0 -2.3 -13.25 -2.25 L-13.4 -1.35 -13.55 -1.35 -13.4 -1.9 M-1.05 -6.95 L-1.0 -7.2 -1.05 -7.4 -1.15 -7.5 -4.3 -7.55 -6.15 -6.85 -6.15 -6.55 -5.85 -6.55 -3.65 -6.95 -1.4 -6.75 -1.05 -6.95 M-5.3 -6.25 Q-7.35 -6.05 -9.45 -5.25 L-6.55 -7.0 Q-3.85 -8.15 -3.2 -8.15 0.2 -8.15 0.2 -6.05 0.2 -5.65 -0.3 -5.6 L-1.45 -5.95 -3.9 -6.4 -5.3 -6.25" fill="#c8c8c8" fill-rule="evenodd" stroke="none"/>
    <path d="M4.15 -4.75 Q3.05 -4.35 2.5 -3.7 L2.45 -3.75 Q2.7 -4.15 3.95 -4.8 L4.15 -4.75 M2.05 -3.35 L2.15 -2.45 2.1 -2.4 1.95 -3.05 1.95 -3.35 2.05 -3.35 M2.45 -3.55 Q2.65 -4.05 4.35 -4.55 L6.65 -4.95 6.65 -5.0 7.2 -4.95 5.65 -4.75 4.6 -4.5 Q3.2 -4.1 2.5 -3.5 L2.45 -3.55 M1.7 -1.2 Q2.1 -0.6 2.3 0.4 L2.25 0.45 1.65 -1.2 1.7 -1.2 M2.15 -0.65 L3.3 1.4 3.25 1.45 Q2.05 -0.1 2.05 -0.65 L2.1 -0.95 2.25 -0.9 2.15 -0.65 M9.7 -0.6 L9.9 -0.8 10.7 -0.95 10.75 -0.9 9.9 -0.6 9.7 -0.6 M9.85 -0.2 L10.1 -0.25 10.75 -0.15 10.7 -0.1 9.7 -0.1 9.85 -0.2 M9.75 -1.15 Q9.8 -1.35 10.05 -1.35 L9.8 -1.1 9.75 -1.15 M-11.45 -2.05 L-12.1 -2.2 -12.1 -2.5 -12.05 -2.5 -12.0 -2.25 -10.5 -2.2 -10.8 -2.0 -11.0 -2.05 -11.35 -2.05 -11.4 -2.1 -11.45 -2.05 M-10.0 -2.2 L-9.95 -2.1 -10.0 -2.0 -10.0 -2.1 -10.0 -2.2 M-10.7 -1.2 L-11.05 -1.15 -10.7 -1.3 -10.7 -1.2 M10.4 -1.25 L10.5 -1.2 10.4 -1.1 10.35 -1.2 10.4 -1.25 M11.5 -0.1 L11.45 -0.05 11.35 -0.35 11.45 -0.35 11.5 -0.1 M-10.0 0.7 L-10.05 0.6 -10.05 0.35 -10.0 0.35 -9.8 0.75 -9.95 0.55 -10.0 0.7 M-5.25 -4.8 L-4.1 -4.65 -4.2 -4.6 -5.05 -4.7 -7.35 -4.15 -7.4 -4.2 -5.25 -4.8 M-7.75 -3.7 Q-7.05 -4.4 -4.6 -4.4 L-3.45 -4.1 -4.65 -4.3 -7.7 -3.65 -7.75 -3.7 M-8.55 -1.4 L-9.5 -1.05 -9.55 -1.1 Q-9.2 -1.6 -8.3 -1.6 L-8.15 -1.55 -8.1 -1.5 -8.1 -1.45 -8.5 -1.4 -8.55 -1.4 M-1.75 -3.2 L-2.7 -3.9 -2.6 -3.9 -1.75 -3.3 -1.85 -3.55 -1.8 -3.55 Q-1.35 -3.15 -1.35 -2.4 L-1.45 -1.85 -1.7 -3.25 -1.75 -3.2 M-2.75 -4.15 L-2.45 -4.0 -2.8 -4.1 -2.75 -4.15 M-5.8 2.4 L-6.55 2.45 -6.4 2.5 -7.7 2.65 -9.0 2.45 -10.2 1.9 Q-10.7 1.6 -10.7 1.1 L-10.65 1.1 -9.0 2.45 -7.65 2.45 Q-8.6 2.4 -9.1 1.8 L-9.05 1.75 Q-8.1 2.3 -7.65 2.3 L-4.35 1.95 -3.45 1.45 -3.15 1.25 -3.15 1.3 -3.15 1.45 Q-2.0 0.45 -1.95 -0.25 L-1.85 -0.25 Q-1.9 0.5 -3.25 1.65 -3.6 2.05 -4.6 2.25 L-4.95 2.2 -5.15 2.25 -5.8 2.4 M-1.05 7.3 L0.45 7.25 1.45 7.2 2.5 5.85 2.55 5.85 2.6 5.95 Q2.6 6.5 1.65 7.2 L2.0 7.15 2.6 6.55 2.1 7.15 6.25 6.6 8.1 5.95 8.25 5.95 Q8.0 5.05 7.05 4.7 L7.1 4.7 Q8.3 4.7 8.5 6.1 L8.55 6.75 8.45 7.9 Q8.45 8.75 8.8 9.1 L8.6 9.15 8.25 7.95 8.35 6.75 8.35 6.3 7.4 6.75 5.55 7.1 1.0 7.55 1.3 7.65 1.1 7.7 1.0 7.6 0.95 7.65 0.9 7.6 0.9 7.55 -0.5 7.65 -0.4 8.3 -0.45 8.35 Q-0.35 7.9 -0.75 7.7 L-1.2 7.7 -0.95 8.2 -1.0 8.3 -0.95 8.5 -1.0 8.55 -1.5 7.7 -1.75 7.65 -1.95 7.85 -2.05 7.65 -5.6 6.75 Q-8.1 5.85 -8.1 5.6 L-8.15 6.4 Q-8.1 7.35 -9.95 8.7 -8.35 6.85 -8.35 6.25 -8.45 4.4 -7.0 3.9 -7.85 4.65 -8.05 5.5 -6.1 6.5 -4.1 6.95 L-4.1 6.75 -4.05 6.75 -4.05 6.85 -4.0 7.0 -3.7 7.05 -3.3 7.4 -3.2 7.3 -3.35 7.1 -1.2 7.3 -1.05 7.3 M-11.8 4.15 L-11.85 3.4 Q-11.85 2.6 -11.55 2.3 L-11.45 2.35 -11.75 3.4 -10.45 6.5 -10.45 6.8 -10.5 6.85 -10.6 6.9 -10.55 6.6 Q-11.6 5.55 -11.8 4.15 M9.2 1.9 L8.95 2.2 Q8.2 2.6 7.5 2.6 L6.3 2.35 7.15 2.4 Q8.5 2.4 9.05 2.0 L9.2 1.9 M10.8 2.3 L11.1 3.35 10.8 4.5 11.0 3.4 10.75 2.3 10.8 2.3 M10.5 2.25 Q9.4 2.9 8.2 2.9 L6.35 2.55 6.35 2.45 5.45 2.25 5.4 2.1 5.45 2.1 5.9 2.25 6.3 2.4 6.35 2.4 7.65 2.7 8.75 2.8 10.25 2.2 10.5 2.25 M4.35 1.95 L3.7 1.85 3.7 1.7 3.75 1.7 3.9 1.75 4.75 2.05 4.35 1.95" fill="#865204" fill-rule="evenodd" stroke="none"/>
    <path d="M3.3 -6.55 Q3.4 -7.45 4.7 -7.45 L4.95 -7.25 Q4.95 -7.05 3.55 -6.5 L3.3 -6.55 M12.5 -0.5 L13.7 -2.4 13.75 -2.4 13.8 -2.25 Q13.8 -1.0 13.4 0.3 13.15 0.25 13.15 -0.7 L13.15 -0.8 12.5 -0.45 12.45 -0.45 12.5 -0.5 M-13.4 -1.9 L-13.55 -1.35 -13.4 -1.35 -13.25 -2.25 Q-13.0 -2.3 -13.0 -1.9 -13.2 3.2 -13.7 3.2 -14.05 3.2 -14.05 1.3 -13.95 -1.6 -13.4 -2.35 L-13.4 -1.9 M-1.05 -6.95 L-1.4 -6.75 -3.65 -6.95 -5.85 -6.55 -6.15 -6.55 -6.15 -6.85 -4.3 -7.55 -1.15 -7.5 -1.05 -7.4 -1.0 -7.2 -1.05 -6.95" fill="#d8d8d8" fill-rule="evenodd" stroke="none"/>
    <path d="M-9.25 -0.6 L-9.05 -0.45 -8.8 -0.05 -9.25 -0.6" fill="#ffffff" fill-rule="evenodd" stroke="none"/>
    <path d="M13.4 -4.95 Q12.35 -7.5 10.3 -9.6 L10.15 -9.7 Q6.05 -13.8 0.35 -14.0 L-0.25 -14.0 Q-6.35 -14.0 -10.7 -9.7 L-12.5 -7.5 Q-13.55 -6.05 -14.1 -4.4 -15.0 -2.0 -15.0 0.7 L-14.55 4.45 M-14.5 4.65 Q-13.55 8.25 -10.7 11.1 -6.35 15.4 -0.25 15.4 5.85 15.4 10.15 11.1 L10.25 11.0 10.8 10.4 10.95 10.25 12.15 8.7 12.75 7.75 12.75 7.7 14.1 4.25 M13.5 -4.8 Q14.5 -2.25 14.5 0.7 L14.2 3.9" fill="none" stroke="#865204" stroke-linecap="round" stroke-linejoin="round" stroke-width="0.5"/>
  </g>
</svg>
