<?xml version="1.0" encoding="UTF-8" standalone="no"?>
<svg xmlns:xlink="http://www.w3.org/1999/xlink" height="30.2px" width="30.0px" xmlns="http://www.w3.org/2000/svg">
  <g transform="matrix(1.0, 0.0, 0.0, 1.0, 15.25, 14.35)">
    <path d="M2.45 -12.15 L2.45 -12.2 Q1.25 -13.4 -1.55 -13.4 L-2.4 -13.35 Q-4.35 -13.1 -4.35 -12.3 -4.35 -11.2 -1.95 -11.2 1.7 -11.2 2.45 -12.15 M4.4 -10.6 L4.45 -10.8 4.4 -11.0 1.35 -11.0 -3.5 -10.05 -3.25 -9.9 Q-0.65 -10.8 4.4 -10.6 M6.5 -9.2 L6.8 -9.55 6.25 -9.85 -3.55 -9.2 Q-4.55 -8.6 -5.75 -8.45 L-5.7 -8.35 Q-2.75 -9.25 -0.4 -9.25 L6.5 -9.2 M9.0 -5.3 L9.25 -5.25 Q10.6 -4.85 11.05 -4.25 L11.15 -4.3 11.2 -4.45 Q11.2 -5.3 8.85 -6.65 6.15 -8.25 3.3 -8.25 1.55 -8.25 1.55 -6.75 L1.65 -6.2 Q1.85 -5.75 2.45 -5.7 L1.45 -5.1 Q1.45 -4.7 2.0 -4.7 L3.6 -5.05 6.5 -5.4 Q7.9 -5.4 8.5 -4.45 9.65 -2.55 10.55 -1.8 L10.95 -2.35 10.05 -3.75 10.35 -3.8 10.35 -4.05 9.9 -4.05 9.6 -4.5 9.0 -5.3 M-7.5 -5.55 L-7.65 -5.5 -9.65 -4.25 -9.65 -3.85 -9.45 -3.8 -7.4 -4.9 -4.5 -5.6 Q-3.65 -5.6 -2.55 -4.85 L-1.65 -4.65 -1.0 -4.25 Q0.1 -4.25 0.85 -5.0 L0.55 -5.05 0.05 -4.95 Q-0.4 -4.95 -0.85 -5.4 L-0.3 -5.25 Q0.5 -5.25 0.5 -6.05 L-0.15 -7.35 Q-1.0 -8.5 -2.0 -8.5 -6.3 -8.5 -10.5 -4.7 L-10.3 -4.65 -7.65 -5.55 -7.5 -5.55 M1.55 -0.25 L1.15 -1.45 Q0.75 -3.65 0.3 -3.65 -0.35 -3.65 -0.35 -2.8 L-0.15 -1.45 -0.05 -0.1 -0.05 -0.05 Q-1.65 1.25 -1.75 1.9 L-1.75 2.0 -2.45 2.15 -2.9 2.2 -2.9 2.4 -2.7 2.45 -2.65 2.6 -2.5 2.65 Q-2.0 2.65 -1.8 2.35 L-0.15 2.3 0.05 2.2 0.15 2.2 1.7 2.0 Q2.25 2.0 2.25 1.7 2.25 1.3 1.7 1.45 L1.7 1.4 2.0 1.0 1.45 0.15 1.55 -0.25 M9.9 -0.75 Q9.85 -1.8 8.9 -3.0 L7.4 -4.1 6.55 -4.65 4.3 -4.8 Q3.1 -4.8 1.85 -3.55 1.6 -3.35 1.6 -1.75 1.6 -0.25 1.95 0.4 L3.2 1.4 3.9 1.8 3.75 1.75 3.7 1.75 3.7 1.9 4.35 2.0 5.45 2.3 6.35 2.5 6.35 2.6 8.2 2.95 Q9.4 2.95 10.5 2.3 L10.25 2.25 8.75 2.85 6.35 2.45 5.9 2.3 7.85 1.9 7.8 1.95 7.85 2.1 8.4 2.15 9.05 2.05 Q8.5 2.45 7.15 2.45 L6.3 2.4 7.5 2.65 Q8.2 2.65 8.95 2.25 L9.2 1.95 9.9 1.55 10.65 0.75 10.65 0.7 10.8 0.8 11.15 0.55 Q10.75 0.15 10.45 0.15 L10.35 0.55 Q10.05 0.65 9.35 1.25 L8.45 1.6 8.95 1.15 9.85 -0.05 10.7 -0.05 10.75 -0.1 10.1 -0.2 9.85 -0.15 9.9 -0.55 10.75 -0.85 10.7 -0.9 9.9 -0.75 M-14.1 -4.4 Q-13.55 -6.05 -12.5 -7.55 L-10.7 -9.75 Q-6.35 -14.1 -0.25 -14.1 L0.35 -14.1 Q6.05 -13.9 10.15 -9.75 L10.3 -9.6 Q12.35 -7.5 13.4 -5.0 11.95 -4.25 11.95 -3.3 L12.35 -1.05 11.85 1.5 11.9 1.85 11.8 1.8 Q11.65 1.8 11.65 1.9 L12.15 2.75 12.4 3.45 Q12.45 3.9 12.85 3.9 L13.4 3.7 14.1 4.3 Q13.65 6.15 12.75 7.8 L12.75 7.9 12.15 8.85 10.95 10.35 10.8 10.55 10.25 11.1 10.15 11.2 Q5.85 15.6 -0.25 15.6 -6.35 15.6 -10.7 11.2 -13.55 8.35 -14.5 4.8 L-14.5 4.75 -14.45 4.75 Q-14.2 4.2 -13.85 4.2 L-13.2 4.3 -12.7 4.0 -12.8 3.75 -12.55 3.2 -12.4 3.5 -12.0 2.35 -11.85 2.1 -11.95 1.8 Q-11.7 1.6 -11.75 0.95 L-11.0 0.35 -10.55 -0.05 -10.65 -0.15 -10.7 -0.1 -10.7 -0.25 -9.85 -0.6 -10.05 -0.85 -11.6 -0.45 -12.35 -0.2 -12.65 -1.5 -12.2 -1.5 -12.05 -1.35 -11.5 -1.45 -12.35 -0.85 -12.15 -0.7 -11.7 -0.85 -11.7 -0.8 -11.65 -0.8 -11.4 -0.85 -11.4 -0.95 -11.05 -1.1 -10.7 -1.15 -10.5 -0.95 Q-10.2 -0.95 -10.2 -1.35 L-10.2 -1.6 -10.1 -1.75 Q-10.1 -0.65 -9.0 0.2 L-8.15 1.2 Q-7.35 1.8 -5.3 1.8 L-3.45 1.5 -4.35 2.0 -7.65 2.35 Q-8.1 2.35 -9.05 1.8 L-9.1 1.85 Q-8.6 2.45 -7.65 2.5 L-9.0 2.5 -10.65 1.15 -10.7 1.15 Q-10.7 1.65 -10.2 1.95 L-9.0 2.5 -7.7 2.7 -6.4 2.55 -6.55 2.5 -5.8 2.45 Q-8.5 3.05 -8.65 3.4 L-8.85 3.35 Q-9.85 3.35 -9.85 4.65 L-9.75 5.55 Q-9.75 6.3 -10.85 7.85 L-10.65 8.05 -10.95 8.6 -10.9 8.7 -10.95 9.1 -10.4 10.35 -10.1 10.1 -10.45 9.05 -10.3 8.4 -10.3 8.35 Q-9.65 8.2 -8.85 5.55 L-9.0 4.65 -8.5 3.8 -8.0 3.9 -7.9 3.85 -8.1 3.6 Q-4.45 2.8 -4.45 2.55 L-4.6 2.3 Q-3.15 2.0 -3.15 1.35 L-1.9 0.45 Q-0.65 -0.7 -0.65 -1.7 -0.65 -3.85 -3.7 -5.05 -9.6 -4.55 -10.05 -2.2 L-10.3 -2.3 -10.5 -2.15 -12.0 -2.2 -12.05 -2.45 -12.1 -2.45 -12.1 -2.15 -11.45 -2.0 -11.7 -1.95 -11.85 -1.9 -12.6 -1.85 -12.55 -2.7 -13.15 -3.55 -13.95 -4.4 -14.1 -4.4 M11.75 -2.4 L11.5 -2.65 Q11.15 -2.65 11.15 -2.45 L11.45 -2.25 Q11.6 -2.25 11.75 -2.4 M10.8 2.35 L10.75 2.35 11.0 3.45 10.8 4.6 11.1 3.4 10.8 2.35 M10.25 7.05 L10.3 8.05 Q10.45 9.0 11.05 9.0 L11.3 8.75 Q10.75 8.7 10.75 7.05 10.75 5.8 10.55 5.3 10.25 5.75 10.25 7.05 M11.55 6.15 L11.8 5.9 11.55 5.45 11.25 5.7 Q11.25 6.15 11.55 6.15 M10.45 1.6 L10.3 1.45 Q9.95 1.55 9.25 2.1 L9.6 2.3 Q10.45 2.3 10.45 1.6 M5.8 2.9 L5.55 2.95 Q5.55 3.35 7.1 3.85 L8.6 4.95 8.65 4.95 8.9 5.75 8.8 8.15 8.85 9.15 8.85 9.45 Q9.05 10.65 9.75 10.65 10.35 10.65 10.35 10.25 9.7 9.3 9.7 8.15 L9.8 6.15 Q9.7 4.35 8.9 4.35 L8.8 4.4 Q8.55 4.0 7.75 3.55 6.6 2.9 5.8 2.9 M3.75 10.85 L5.2 10.35 6.25 9.55 8.3 7.9 8.25 8.05 8.6 9.25 8.8 9.2 Q8.45 8.9 8.45 8.0 L8.55 6.85 8.5 6.2 8.4 5.65 8.45 5.55 8.4 5.45 8.3 5.45 Q7.9 4.8 7.1 4.8 L7.05 4.8 7.95 5.45 7.9 5.45 7.25 5.6 6.2 5.45 -0.3 5.9 -0.8 5.9 -0.3 5.6 -0.4 5.55 -1.0 5.85 -0.95 5.9 -2.05 5.85 Q-1.1 5.55 -1.2 5.1 L-2.2 5.75 -2.2 5.85 -8.2 5.6 -7.95 5.3 -7.0 3.95 Q-8.45 4.45 -8.35 6.35 -8.35 6.95 -9.95 8.8 L-8.6 7.6 Q-8.6 8.4 -7.8 8.65 L-8.5 7.55 -8.5 7.5 -8.4 7.3 -8.4 7.35 Q-8.4 7.75 -7.2 8.5 -6.05 9.25 -5.3 9.45 L-2.55 10.3 -2.3 10.4 Q-1.85 10.95 -1.6 11.95 L-1.5 11.95 -1.45 11.7 -1.9 10.5 -1.45 10.6 -1.0 11.6 -0.95 11.55 -1.35 10.6 0.15 10.85 0.15 10.95 0.2 10.9 0.2 10.85 2.1 11.0 3.5 10.9 3.55 11.0 3.75 10.85 M-3.0 9.75 L-2.85 9.85 -3.0 9.8 -3.0 9.75 M0.5 11.45 L0.4 11.45 0.4 11.75 0.5 11.95 0.55 11.85 0.5 11.45 M1.5 5.75 L1.8 5.75 1.9 5.6 1.5 5.65 1.5 5.75 M7.9 8.75 L8.05 8.8 8.25 8.4 7.9 8.75 M-10.35 -3.35 Q-11.7 -3.65 -11.65 -3.9 L-11.85 -3.75 Q-11.85 -3.45 -10.75 -3.05 L-10.35 -3.05 -10.3 -3.2 -10.35 -3.35 M-2.55 -12.7 L-1.9 -12.7 -2.0 -12.6 -3.4 -12.2 -3.55 -12.3 Q-3.25 -12.7 -2.55 -12.7 M-10.0 0.75 L-10.05 0.9 Q-10.05 1.5 -9.4 1.5 L-9.2 1.45 Q-8.55 2.15 -7.8 2.15 L-7.65 2.1 -7.6 1.9 -9.0 0.95 -10.15 -0.25 -10.3 -0.15 -10.0 0.4 -10.05 0.4 -10.05 0.65 -10.0 0.75 M-10.0 0.4 L-9.7 0.85 -9.8 0.8 -10.0 0.4 M-8.7 8.8 L-8.75 8.8 -8.25 9.35 -8.25 9.3 -8.7 8.8 M-11.8 4.2 Q-11.6 5.65 -10.55 6.7 L-10.6 7.0 -10.5 6.95 -10.45 6.9 -10.45 6.6 -11.75 3.45 -11.45 2.4 -11.55 2.35 Q-11.85 2.65 -11.85 3.45 L-11.8 4.2 -12.3 3.55 -12.35 3.55 -12.4 3.7 -11.9 4.45 -11.8 4.2 M-0.8 11.3 L-0.75 11.5 -0.7 11.45 -0.8 11.3 M-11.25 3.3 L-10.7 4.15 Q-10.4 4.15 -10.4 3.35 -10.3 2.55 -10.8 2.55 -11.25 2.55 -11.25 3.3 M-10.45 8.25 L-10.45 8.3 -10.5 8.3 -10.45 8.25" fill="#fbc87b" fill-rule="evenodd" stroke="none"/>
    <path d="M6.5 -9.2 L-0.4 -9.25 Q-2.75 -9.25 -5.7 -8.35 L-5.75 -8.45 Q-4.55 -8.6 -3.55 -9.2 L6.25 -9.85 6.8 -9.55 6.5 -9.2 M4.4 -10.6 Q-0.65 -10.8 -3.25 -9.9 L-3.5 -10.05 1.35 -11.0 4.4 -11.0 4.45 -10.8 4.4 -10.6 M2.45 -12.15 Q1.7 -11.2 -1.95 -11.2 -4.35 -11.2 -4.35 -12.3 -4.35 -13.1 -2.4 -13.35 L-1.55 -13.4 Q1.25 -13.4 2.45 -12.2 L2.45 -12.15 M9.0 -5.3 L9.6 -4.5 9.9 -4.05 10.35 -4.05 10.35 -3.8 10.05 -3.75 10.95 -2.35 10.55 -1.8 Q9.65 -2.55 8.5 -4.45 7.9 -5.4 6.5 -5.4 L3.6 -5.05 2.0 -4.7 Q1.45 -4.7 1.45 -5.1 L2.45 -5.7 2.65 -5.7 6.0 -5.9 9.0 -5.3 M3.6 -6.0 L6.8 -6.35 7.9 -6.1 6.0 -6.25 3.6 -6.0 M-0.85 -5.4 Q-0.4 -4.95 0.05 -4.95 L0.55 -5.05 0.85 -5.0 Q0.1 -4.25 -1.0 -4.25 L-1.65 -4.65 -2.55 -4.85 Q-3.65 -5.6 -4.5 -5.6 L-7.4 -4.9 -9.45 -3.8 -9.65 -3.85 -9.65 -4.25 -7.65 -5.5 -7.5 -5.55 -3.9 -6.0 -0.85 -5.4 M1.55 -0.25 L1.45 0.15 2.0 1.0 1.7 1.4 1.7 1.45 Q2.25 1.3 2.25 1.7 2.25 2.0 1.7 2.0 L0.15 2.2 0.05 2.2 -0.15 2.3 -1.8 2.35 Q-2.0 2.65 -2.5 2.65 L-2.65 2.6 -2.7 2.45 -2.9 2.4 -2.9 2.2 -2.45 2.15 -1.75 2.0 -1.75 1.9 Q-1.65 1.25 -0.05 -0.05 L-0.05 -0.1 -0.15 -1.45 -0.35 -2.8 Q-0.35 -3.65 0.3 -3.65 0.75 -3.65 1.15 -1.45 L1.55 -0.25 M8.45 1.6 L9.35 1.25 Q10.05 0.65 10.35 0.55 L10.45 0.15 Q10.75 0.15 11.15 0.55 L10.8 0.8 10.65 0.7 10.65 0.75 9.9 1.55 9.2 1.95 9.05 2.05 8.4 2.15 7.85 2.1 7.8 1.95 7.85 1.9 8.45 1.6 M-12.6 -1.85 L-11.85 -1.9 -11.7 -1.95 -11.45 -2.0 -11.4 -2.05 -11.35 -2.0 -11.0 -2.0 -10.8 -1.95 -10.5 -2.15 -10.3 -2.3 -10.05 -2.2 -10.0 -2.15 -10.0 -2.05 -10.0 -1.95 -10.1 -1.75 -10.2 -1.6 -10.2 -1.35 Q-10.2 -0.95 -10.5 -0.95 L-10.7 -1.15 -10.7 -1.25 -11.05 -1.1 -11.4 -0.95 -11.4 -0.85 -11.65 -0.8 -11.7 -0.8 -11.7 -0.85 -12.15 -0.7 -12.35 -0.85 -11.5 -1.45 -12.05 -1.35 -12.2 -1.5 -12.65 -1.5 -12.65 -1.6 -12.6 -1.85 M-4.6 2.3 L-4.45 2.55 Q-4.45 2.8 -8.1 3.6 L-7.9 3.85 -8.0 3.9 -8.5 3.8 -9.0 4.65 -8.85 5.55 Q-9.65 8.2 -10.3 8.35 L-10.3 8.4 -10.45 9.05 -10.1 10.1 -10.4 10.35 -10.95 9.1 -10.9 8.7 -10.95 8.6 -10.65 8.05 -10.85 7.85 Q-9.75 6.3 -9.75 5.55 L-9.85 4.65 Q-9.85 3.35 -8.85 3.35 L-8.65 3.4 Q-8.5 3.05 -5.8 2.45 L-5.15 2.3 -4.95 2.25 -4.6 2.3 M-12.35 -0.2 L-11.6 -0.45 -10.05 -0.85 -9.85 -0.6 -10.7 -0.25 -10.7 -0.1 -10.65 -0.15 -10.55 -0.05 -11.0 0.35 -11.75 0.95 Q-11.7 1.6 -11.95 1.8 L-11.85 2.1 -12.0 2.35 -12.4 3.5 -12.55 3.2 Q-11.85 1.7 -11.85 1.1 L-12.35 -0.2 M11.75 -2.4 Q11.6 -2.25 11.45 -2.25 L11.15 -2.45 Q11.15 -2.65 11.5 -2.65 L11.75 -2.4 M10.45 1.6 Q10.45 2.3 9.6 2.3 L9.25 2.1 Q9.95 1.55 10.3 1.45 L10.45 1.6 M11.55 6.15 Q11.25 6.15 11.25 5.7 L11.55 5.45 11.8 5.9 11.55 6.15 M10.25 7.05 Q10.25 5.75 10.55 5.3 10.75 5.8 10.75 7.05 10.75 8.7 11.3 8.75 L11.05 9.0 Q10.45 9.0 10.3 8.05 L10.25 7.05 M5.8 2.9 Q6.6 2.9 7.75 3.55 8.55 4.0 8.8 4.4 L8.9 4.35 Q9.7 4.35 9.8 6.15 L9.7 8.15 Q9.7 9.3 10.35 10.25 10.35 10.65 9.75 10.65 9.05 10.65 8.85 9.45 L8.85 9.15 8.8 8.15 8.9 5.75 8.65 4.95 8.6 4.95 7.1 3.85 Q5.55 3.35 5.55 2.95 L5.8 2.9 M-2.55 -12.7 Q-3.25 -12.7 -3.55 -12.3 L-3.4 -12.2 -2.0 -12.6 -1.9 -12.7 -2.55 -12.7 M-10.35 -3.35 L-10.3 -3.2 -10.35 -3.05 -10.75 -3.05 Q-11.85 -3.45 -11.85 -3.75 L-11.65 -3.9 Q-11.7 -3.65 -10.35 -3.35 M-10.0 0.4 L-10.3 -0.15 -10.15 -0.25 -9.0 0.95 -7.6 1.9 -7.65 2.1 -7.8 2.15 Q-8.55 2.15 -9.2 1.45 L-9.4 1.5 Q-10.05 1.5 -10.05 0.9 L-10.0 0.75 -9.95 0.6 -9.8 0.8 -9.7 0.85 -10.0 0.4 M-5.3 -6.3 L-3.9 -6.45 -1.45 -6.0 -3.6 -6.4 -5.3 -6.3 M-6.2 7.1 L-6.15 7.2 -6.2 7.15 -6.2 7.1 M-11.8 4.2 L-11.9 4.45 -12.4 3.7 -12.35 3.55 -12.3 3.55 -11.8 4.2 M-11.25 3.3 Q-11.25 2.55 -10.8 2.55 -10.3 2.55 -10.4 3.35 -10.4 4.15 -10.7 4.15 L-11.25 3.3 M-10.45 8.25 L-10.5 8.3 -10.45 8.3 -10.45 8.25" fill="#fcd79e" fill-rule="evenodd" stroke="none"/>
    <path d="M2.45 -5.7 Q1.85 -5.75 1.65 -6.2 L1.55 -6.75 Q1.55 -8.25 3.3 -8.25 6.15 -8.25 8.85 -6.65 11.2 -5.3 11.2 -4.45 L11.15 -4.3 11.05 -4.25 Q10.6 -4.85 9.25 -5.25 L9.0 -5.3 6.0 -5.9 2.65 -5.7 2.45 -5.7 M7.9 -6.1 L9.85 -5.4 Q7.1 -7.85 2.95 -7.85 2.25 -7.85 2.0 -7.3 L1.85 -6.75 Q1.85 -6.0 2.8 -6.0 L3.6 -6.0 6.0 -6.25 7.9 -6.1 M-7.5 -5.55 L-7.65 -5.55 -10.3 -4.65 -10.5 -4.7 Q-6.3 -8.5 -2.0 -8.5 -1.0 -8.5 -0.15 -7.35 L0.5 -6.05 Q0.5 -5.25 -0.3 -5.25 L-0.85 -5.4 -3.9 -6.0 -7.5 -5.55 M4.25 -1.15 L3.7 -1.7 Q3.7 -2.1 4.1 -2.1 4.6 -2.1 4.6 -1.55 4.6 -1.15 4.25 -1.15 M3.9 1.8 L3.2 1.4 1.95 0.4 Q1.6 -0.25 1.6 -1.75 1.6 -3.35 1.85 -3.55 3.1 -4.8 4.3 -4.8 L6.55 -4.65 7.4 -4.1 8.9 -3.0 Q9.85 -1.8 9.9 -0.75 L9.7 -0.55 9.9 -0.55 9.85 -0.15 9.7 -0.05 9.85 -0.05 8.95 1.15 8.45 1.6 7.85 1.9 5.9 2.3 5.45 2.15 5.4 2.15 5.45 2.3 4.35 2.0 4.75 2.1 3.9 1.8 M9.0 0.65 Q9.6 -0.05 9.6 -0.65 9.6 -2.2 7.85 -3.45 6.3 -4.55 4.95 -4.55 1.9 -4.55 1.9 -1.75 1.9 0.1 2.3 0.35 4.45 1.9 5.75 1.9 L6.1 1.9 6.5 1.95 Q7.8 1.95 9.0 0.65 M-14.1 -4.4 L-13.95 -4.4 -13.15 -3.55 -12.55 -2.7 -12.6 -1.85 -12.65 -1.6 -12.65 -1.5 -12.35 -0.2 -11.85 1.1 Q-11.85 1.7 -12.55 3.2 L-12.8 3.75 -12.7 4.0 -13.2 4.3 -13.85 4.2 Q-14.2 4.2 -14.45 4.75 L-14.5 4.75 -14.65 4.75 -14.55 4.55 Q-14.25 3.8 -13.55 4.05 L-12.9 4.05 -13.0 3.75 -12.4 2.5 -12.3 2.25 -12.3 2.2 -12.05 1.1 -12.5 -0.05 -12.85 -1.5 -12.85 -1.6 -12.75 -2.7 Q-14.1 -3.95 -14.1 -4.4 M-10.05 -2.2 Q-9.6 -4.55 -3.7 -5.05 -0.65 -3.85 -0.65 -1.7 -0.65 -0.7 -1.9 0.45 L-3.15 1.35 -3.15 1.3 -3.45 1.5 -5.3 1.8 Q-7.35 1.8 -8.15 1.2 L-9.0 0.2 Q-10.1 -0.65 -10.1 -1.75 L-10.0 -1.95 -9.95 -2.05 -10.0 -2.15 -10.05 -2.2 M14.1 4.3 L13.4 3.7 12.85 3.9 Q12.45 3.9 12.4 3.45 L12.15 2.75 11.65 1.9 Q11.65 1.8 11.8 1.8 L11.9 1.85 11.85 1.5 12.35 -1.05 11.95 -3.3 Q11.95 -4.25 13.4 -5.0 L13.55 -4.95 13.6 -4.9 13.5 -4.8 Q12.15 -3.9 12.15 -3.25 L12.55 -1.05 12.5 -0.45 12.45 -0.4 12.5 -0.4 12.05 1.5 12.1 2.0 12.6 3.1 12.6 3.4 12.7 3.6 12.9 3.65 13.5 3.5 14.2 3.95 14.35 4.1 14.1 4.3 M-9.8 -2.2 L-9.8 -2.35 -9.85 -2.35 -9.85 -1.95 -9.85 -1.85 -9.8 -1.65 -9.25 -0.55 -8.8 0.0 -7.75 1.15 -7.7 1.15 -7.55 1.2 -7.6 1.3 -7.55 1.45 -7.25 1.45 -7.2 1.4 -7.3 1.3 -5.75 1.45 -5.75 1.5 -5.7 1.45 -5.65 1.45 Q-3.55 1.45 -2.1 0.15 -0.95 -0.9 -0.95 -1.7 -0.95 -2.3 -1.75 -3.35 -2.8 -4.65 -4.15 -4.65 -6.9 -4.65 -8.55 -3.55 -9.55 -2.85 -9.8 -2.2 M-1.45 -6.0 L-0.3 -5.65 Q0.2 -5.65 0.2 -6.1 0.2 -8.2 -3.2 -8.2 -3.85 -8.2 -6.55 -7.05 L-9.45 -5.3 -5.3 -6.3 -3.6 -6.4 -1.45 -6.0 M-2.9 -2.05 Q-2.9 -1.3 -3.5 -1.3 L-3.95 -1.85 Q-3.95 -2.55 -3.4 -2.55 -2.9 -2.55 -2.9 -2.05" fill="#000000" fill-rule="evenodd" stroke="none"/>
    <path d="M3.6 -6.0 L2.8 -6.0 Q1.85 -6.0 1.85 -6.75 L2.0 -7.3 Q2.25 -7.85 2.95 -7.85 7.1 -7.85 9.85 -5.4 L7.9 -6.1 6.8 -6.35 3.6 -6.0 M3.3 -6.6 L3.55 -6.55 Q4.95 -7.1 4.95 -7.3 L4.7 -7.5 Q3.4 -7.5 3.3 -6.6 M13.5 -4.8 Q14.5 -2.2 14.5 0.75 L14.2 3.95 13.5 3.5 12.9 3.65 12.7 3.6 12.6 3.4 12.6 3.1 12.1 2.0 12.05 1.5 12.5 -0.4 13.15 -0.75 13.15 -0.65 Q13.15 0.3 13.4 0.35 13.8 -0.95 13.8 -2.2 L13.75 -2.35 13.7 -2.35 12.5 -0.45 12.55 -1.05 12.15 -3.25 Q12.15 -3.9 13.5 -4.8 M-13.55 -1.3 L-13.4 -1.85 -13.4 -2.3 Q-13.95 -1.55 -14.05 1.35 -14.05 3.25 -13.7 3.25 -13.2 3.25 -13.0 -1.85 -13.0 -2.25 -13.25 -2.2 L-13.4 -1.3 -13.55 -1.3 M-14.1 -4.4 Q-14.1 -3.95 -12.75 -2.7 L-12.85 -1.6 -12.85 -1.5 -12.5 -0.05 -12.05 1.1 -12.3 2.2 -12.3 2.25 -12.4 2.5 -13.0 3.75 -12.9 4.05 -13.55 4.05 Q-14.25 3.8 -14.55 4.55 -15.0 2.7 -15.0 0.75 -15.0 -2.0 -14.1 -4.4 M-1.4 -6.8 L-1.05 -7.0 -1.0 -7.25 -1.05 -7.45 -1.15 -7.55 -4.3 -7.6 -6.15 -6.9 -6.15 -6.6 -5.85 -6.6 -3.65 -7.0 -1.4 -6.8 M-5.3 -6.3 L-9.45 -5.3 -6.55 -7.05 Q-3.85 -8.2 -3.2 -8.2 0.2 -8.2 0.2 -6.1 0.2 -5.65 -0.3 -5.65 L-1.45 -6.0 -3.9 -6.45 -5.3 -6.3" fill="#c8c8c8" fill-rule="evenodd" stroke="none"/>
    <path d="M3.3 -6.6 Q3.4 -7.5 4.7 -7.5 L4.95 -7.3 Q4.95 -7.1 3.55 -6.55 L3.3 -6.6 M12.5 -0.45 L13.7 -2.35 13.75 -2.35 13.8 -2.2 Q13.8 -0.95 13.4 0.35 13.15 0.3 13.15 -0.65 L13.15 -0.75 12.5 -0.4 12.45 -0.4 12.5 -0.45 M-13.55 -1.3 L-13.4 -1.3 -13.25 -2.2 Q-13.0 -2.25 -13.0 -1.85 -13.2 3.25 -13.7 3.25 -14.05 3.25 -14.05 1.35 -13.95 -1.55 -13.4 -2.3 L-13.4 -1.85 -13.55 -1.3 M-1.4 -6.8 L-3.65 -7.0 -5.85 -6.6 -6.15 -6.6 -6.15 -6.9 -4.3 -7.6 -1.15 -7.55 -1.05 -7.45 -1.0 -7.25 -1.05 -7.0 -1.4 -6.8" fill="#d8d8d8" fill-rule="evenodd" stroke="none"/>
    <path d="M9.9 -0.75 L10.7 -0.9 10.75 -0.85 9.9 -0.55 9.7 -0.55 9.9 -0.75 M9.85 -0.15 L10.1 -0.2 10.75 -0.1 10.7 -0.05 9.85 -0.05 9.7 -0.05 9.85 -0.15 M9.2 1.95 L8.95 2.25 Q8.2 2.65 7.5 2.65 L6.3 2.4 7.15 2.45 Q8.5 2.45 9.05 2.05 L9.2 1.95 M5.9 2.3 L6.35 2.45 8.75 2.85 10.25 2.25 10.5 2.3 Q9.4 2.95 8.2 2.95 L6.35 2.6 6.35 2.5 5.45 2.3 5.4 2.15 5.45 2.15 5.9 2.3 M4.35 2.0 L3.7 1.9 3.7 1.75 3.75 1.75 3.9 1.8 4.75 2.1 4.35 2.0 M-11.45 -2.0 L-12.1 -2.15 -12.1 -2.45 -12.05 -2.45 -12.0 -2.2 -10.5 -2.15 -10.8 -1.95 -11.0 -2.0 -11.35 -2.0 -11.4 -2.05 -11.45 -2.0 M-3.15 1.35 Q-3.15 2.0 -4.6 2.3 L-4.95 2.25 -5.15 2.3 -5.8 2.45 -6.55 2.5 -6.4 2.55 -7.7 2.7 -9.0 2.5 -10.2 1.95 Q-10.7 1.65 -10.7 1.15 L-10.65 1.15 -9.0 2.5 -7.65 2.5 Q-8.6 2.45 -9.1 1.85 L-9.05 1.8 Q-8.1 2.35 -7.65 2.35 L-4.35 2.0 -3.45 1.5 -3.15 1.3 -3.15 1.35 M-10.7 -1.15 L-11.05 -1.1 -10.7 -1.25 -10.7 -1.15 M10.8 2.35 L11.1 3.4 10.8 4.6 11.0 3.45 10.75 2.35 10.8 2.35 M3.75 10.55 L5.15 10.0 6.15 9.2 8.1 7.45 8.3 7.45 8.35 6.85 8.35 6.45 8.15 6.55 8.15 6.5 8.25 6.3 8.2 6.05 8.25 6.05 8.15 5.8 7.25 5.9 6.35 5.8 1.1 6.25 0.9 6.5 0.85 6.45 Q0.85 6.25 1.1 6.25 L0.7 6.25 -6.4 5.95 -8.2 5.75 -8.25 5.95 -8.15 6.7 -8.4 7.05 -8.35 7.2 -8.25 7.15 Q-8.1 8.0 -5.35 9.1 L-3.0 9.8 -2.85 9.85 -3.0 9.75 -3.0 9.65 -2.85 9.65 Q-2.55 9.65 -2.25 9.95 L-2.2 9.95 2.1 10.7 3.4 10.6 3.5 10.9 2.1 11.0 0.2 10.85 0.2 10.9 0.15 10.95 0.15 10.85 -1.35 10.6 -0.95 11.55 -1.0 11.6 -1.45 10.6 -1.9 10.5 -1.45 11.7 -1.5 11.95 -1.6 11.95 Q-1.85 10.95 -2.3 10.4 L-2.55 10.3 -5.3 9.45 Q-6.05 9.25 -7.2 8.5 -8.4 7.75 -8.4 7.35 L-8.4 7.3 -8.5 7.5 -8.5 7.55 -7.8 8.65 Q-8.6 8.4 -8.6 7.6 L-9.95 8.8 Q-8.35 6.95 -8.35 6.35 -8.45 4.45 -7.0 3.95 L-7.95 5.3 -8.2 5.6 -2.2 5.85 -2.2 5.75 -1.2 5.1 Q-1.1 5.55 -2.05 5.85 L-0.95 5.9 -1.0 5.85 -0.4 5.55 -0.3 5.6 -0.8 5.9 -0.3 5.9 6.2 5.45 7.25 5.6 7.9 5.45 7.95 5.45 7.05 4.8 7.1 4.8 Q7.9 4.8 8.3 5.45 L8.4 5.45 8.45 5.55 8.4 5.65 8.5 6.2 8.55 6.85 8.45 8.0 Q8.45 8.9 8.8 9.2 L8.6 9.25 8.25 8.05 8.3 7.9 6.25 9.55 5.2 10.35 3.75 10.85 3.75 10.75 3.75 10.55 M1.5 5.75 L1.5 5.65 1.9 5.6 1.8 5.75 1.5 5.75 M0.5 11.45 L0.55 11.85 0.5 11.95 0.4 11.75 0.4 11.45 0.5 11.45 M7.9 8.75 L8.25 8.4 8.05 8.8 7.9 8.75 M-10.0 0.75 L-10.05 0.65 -10.05 0.4 -10.0 0.4 -9.8 0.8 -9.95 0.6 -10.0 0.75 M-10.0 -1.95 L-10.0 -2.05 -10.0 -2.15 -9.95 -2.05 -10.0 -1.95 M-8.7 8.8 L-8.25 9.3 -8.25 9.35 -8.75 8.8 -8.7 8.8 M-4.65 6.95 L-4.55 7.0 -4.65 7.0 -4.65 6.95 M-0.8 11.3 L-0.7 11.45 -0.75 11.5 -0.8 11.3 M-11.8 4.2 L-11.85 3.45 Q-11.85 2.65 -11.55 2.35 L-11.45 2.4 -11.75 3.45 -10.45 6.6 -10.45 6.9 -10.5 6.95 -10.6 7.0 -10.55 6.7 Q-11.6 5.65 -11.8 4.2" fill="#865204" fill-rule="evenodd" stroke="none"/>
    <path d="M4.25 -1.15 Q4.6 -1.15 4.6 -1.55 4.6 -2.1 4.1 -2.1 3.7 -2.1 3.7 -1.7 L4.25 -1.15 M6.1 1.9 L5.75 1.9 Q4.45 1.9 2.3 0.35 1.9 0.1 1.9 -1.75 1.9 -4.55 4.95 -4.55 6.3 -4.55 7.85 -3.45 9.6 -2.2 9.6 -0.65 9.6 -0.05 9.0 0.65 L9.05 0.55 9.0 0.45 Q7.55 1.65 5.8 1.75 L6.1 1.9 M9.1 -0.2 L9.05 -0.2 9.05 0.05 9.25 0.1 9.1 -0.2 M9.35 -0.65 L9.3 -0.7 9.0 -0.55 9.3 -0.35 9.4 -0.45 9.35 -0.45 9.35 -0.65 M8.65 -0.3 L8.75 -0.25 9.0 -0.35 8.85 -0.45 8.65 -0.45 8.65 -0.3 M7.75 -0.5 L7.6 -0.5 7.65 -0.15 7.7 -0.15 8.4 0.5 8.4 0.55 8.45 0.6 8.5 0.55 8.55 0.6 8.65 0.5 8.65 0.4 7.85 -0.2 7.75 -0.2 7.85 -0.45 7.75 -0.5 M7.65 0.4 L8.05 0.3 7.5 0.1 7.3 0.15 Q6.75 0.15 6.75 0.4 6.9 0.25 7.35 0.25 L7.65 0.4 M8.55 0.15 L8.7 0.15 8.8 0.05 8.6 -0.05 8.5 0.05 8.55 0.15 M-9.8 -2.2 Q-9.55 -2.85 -8.55 -3.55 -6.9 -4.65 -4.15 -4.65 -2.8 -4.65 -1.75 -3.35 -0.95 -2.3 -0.95 -1.7 -0.95 -0.9 -2.1 0.15 -3.55 1.45 -5.65 1.45 L-5.7 1.45 -5.65 1.4 -5.7 1.2 -5.85 1.25 -5.75 1.45 -7.3 1.3 -7.45 1.1 -7.55 1.1 -7.55 1.2 -7.7 1.15 -7.65 1.1 -7.7 1.0 -7.95 0.7 -7.65 0.7 -7.65 0.65 Q-7.8 0.5 -8.1 0.5 L-8.4 0.15 Q-8.05 0.0 -7.95 -0.35 L-8.15 -0.55 -7.65 -0.9 -8.2 -0.6 -8.5 -0.9 -8.55 -0.9 -8.15 -0.3 -8.5 0.1 Q-9.7 -1.45 -9.8 -2.2 M-8.8 0.0 L-9.25 -0.55 -9.05 -0.4 -8.8 0.0 M-2.9 -2.05 Q-2.9 -2.55 -3.4 -2.55 -3.95 -2.55 -3.95 -1.85 L-3.5 -1.3 Q-2.9 -1.3 -2.9 -2.05" fill="#ffffff" fill-rule="evenodd" stroke="none"/>
    <path d="M6.1 1.9 L5.8 1.75 Q7.55 1.65 9.0 0.45 L9.05 0.55 9.0 0.65 Q7.8 1.95 6.5 1.95 L6.1 1.9 M7.75 -0.5 L7.85 -0.45 7.75 -0.2 7.85 -0.2 8.65 0.4 8.65 0.5 8.55 0.6 8.5 0.55 8.45 0.6 8.4 0.55 8.4 0.5 7.7 -0.15 7.65 -0.15 7.6 -0.5 7.75 -0.5 M8.65 -0.3 L8.65 -0.45 8.85 -0.45 9.0 -0.35 8.75 -0.25 8.65 -0.3 M9.35 -0.65 L9.35 -0.45 9.4 -0.45 9.3 -0.35 9.0 -0.55 9.3 -0.7 9.35 -0.65 M9.1 -0.2 L9.25 0.1 9.05 0.05 9.05 -0.2 9.1 -0.2 M8.55 0.15 L8.5 0.05 8.6 -0.05 8.8 0.05 8.7 0.15 8.55 0.15 M7.65 0.4 L7.35 0.25 Q6.9 0.25 6.75 0.4 6.75 0.15 7.3 0.15 L7.5 0.1 8.05 0.3 7.65 0.4 M-9.25 -0.55 L-9.8 -1.65 -9.85 -1.85 -9.85 -1.95 -9.85 -2.35 -9.8 -2.35 -9.8 -2.2 Q-9.7 -1.45 -8.5 0.1 L-8.15 -0.3 -8.55 -0.9 -8.5 -0.9 -8.2 -0.6 -7.65 -0.9 -8.15 -0.55 -7.95 -0.35 Q-8.05 0.0 -8.4 0.15 L-8.1 0.5 Q-7.8 0.5 -7.65 0.65 L-7.65 0.7 -7.95 0.7 -7.7 1.0 -7.65 1.1 -7.7 1.15 -7.75 1.15 -8.8 0.0 -9.05 -0.4 -9.25 -0.55 M-5.7 1.45 L-5.75 1.5 -5.75 1.45 -5.85 1.25 -5.7 1.2 -5.65 1.4 -5.7 1.45 M-7.3 1.3 L-7.2 1.4 -7.25 1.45 -7.55 1.45 -7.6 1.3 -7.55 1.2 -7.55 1.1 -7.45 1.1 -7.3 1.3" fill="#fe503d" fill-rule="evenodd" stroke="none"/>
    <path d="M-8.15 6.7 L-8.25 5.95 -8.2 5.75 -6.4 5.95 0.7 6.25 1.1 6.25 Q0.85 6.25 0.85 6.45 L0.9 6.5 1.1 6.25 6.35 5.8 7.25 5.9 8.15 5.8 8.25 6.05 8.2 6.05 8.25 6.3 8.15 6.5 8.15 6.55 8.35 6.45 8.35 6.85 8.3 7.45 8.1 7.45 6.15 9.2 5.15 10.0 3.75 10.55 Q3.7 9.25 2.75 8.6 0.75 7.1 -1.4 7.1 L-2.2 7.25 Q-3.35 6.3 -5.35 6.3 L-8.15 6.7" fill="#6a0300" fill-rule="evenodd" stroke="none"/>
    <path d="M3.4 10.6 L2.1 10.7 -2.2 9.95 -2.25 9.95 Q-2.55 9.65 -2.85 9.65 L-3.0 9.65 -3.0 9.75 -3.0 9.8 -5.35 9.1 Q-8.1 8.0 -8.25 7.15 L-5.55 6.65 Q-3.45 6.65 -2.45 7.45 L-2.55 7.6 -2.45 7.65 -2.3 7.6 -2.0 8.0 -1.25 9.3 -1.1 9.25 -1.05 9.05 Q-1.05 8.35 -1.85 7.55 L-1.9 7.5 -1.45 7.4 Q1.15 7.4 2.5 8.9 L3.4 10.6 M-6.2 7.1 L-6.2 7.15 -6.15 7.2 -6.2 7.1 M-4.65 6.95 L-4.65 7.0 -4.55 7.0 -4.65 6.95" fill="#aa0400" fill-rule="evenodd" stroke="none"/>
    <path d="M3.75 10.55 L3.75 10.75 3.75 10.85 3.55 11.0 3.5 10.9 3.4 10.6 2.5 8.9 Q1.15 7.4 -1.45 7.4 L-1.9 7.5 -1.85 7.55 Q-1.05 8.35 -1.05 9.05 L-1.1 9.25 -1.25 9.3 -2.0 8.0 -2.3 7.6 -2.45 7.65 -2.55 7.6 -2.45 7.45 Q-3.45 6.65 -5.55 6.65 L-8.25 7.15 -8.35 7.2 -8.4 7.05 -8.15 6.7 -5.35 6.3 Q-3.35 6.3 -2.2 7.25 L-1.4 7.1 Q0.75 7.1 2.75 8.6 3.7 9.25 3.75 10.55" fill="#420200" fill-rule="evenodd" stroke="none"/>
    <path d="M13.4 -5.0 Q12.35 -7.5 10.3 -9.6 L10.15 -9.75 Q6.05 -13.9 0.35 -14.1 L-0.25 -14.1 Q-6.35 -14.1 -10.7 -9.75 L-12.5 -7.55 Q-13.55 -6.05 -14.1 -4.4 -15.0 -2.0 -15.0 0.75 -15.0 2.7 -14.55 4.55 M-14.5 4.75 L-14.5 4.8 Q-13.55 8.35 -10.7 11.2 -6.35 15.6 -0.25 15.6 5.85 15.6 10.15 11.2 L10.25 11.1 10.8 10.55 10.95 10.35 12.15 8.85 12.75 7.9 12.75 7.8 Q13.65 6.15 14.1 4.3 M13.5 -4.8 Q14.5 -2.2 14.5 0.75 L14.2 3.95" fill="none" stroke="#865204" stroke-linecap="round" stroke-linejoin="round" stroke-width="0.5"/>
  </g>
</svg>
