<?xml version="1.0" encoding="UTF-8" standalone="no"?>
<svg xmlns:xlink="http://www.w3.org/1999/xlink" height="30.5px" width="30.0px" xmlns="http://www.w3.org/2000/svg">
  <g transform="matrix(1.0, 0.0, 0.0, 1.0, 15.25, 14.35)">
    <path d="M2.45 -12.1 L2.45 -12.15 Q1.25 -13.4 -1.55 -13.4 L-2.4 -13.35 Q-4.35 -13.1 -4.35 -12.3 -4.35 -11.15 -1.95 -11.1 1.7 -11.1 2.45 -12.1 M4.4 -10.5 L4.45 -10.7 4.4 -10.9 1.35 -10.9 -3.5 -10.0 -3.25 -9.85 Q-0.65 -10.75 4.4 -10.5 M6.8 -9.5 L6.25 -9.8 -3.55 -9.15 Q-4.55 -8.55 -5.75 -8.4 L-5.7 -8.3 Q-2.75 -9.2 -0.4 -9.2 L6.5 -9.15 6.8 -9.5 M9.0 -5.2 L9.25 -5.15 Q10.6 -4.75 11.05 -4.1 L11.15 -4.15 11.2 -4.3 Q11.2 -5.2 8.85 -6.55 6.15 -8.2 3.3 -8.2 1.55 -8.2 1.55 -6.7 L1.65 -6.1 Q1.85 -5.65 2.45 -5.6 L1.45 -5.0 Q1.45 -4.6 2.0 -4.55 2.9 -4.6 3.6 -4.95 L6.5 -5.3 Q7.9 -5.3 8.5 -4.3 9.65 -2.45 10.55 -1.7 L10.95 -2.25 10.05 -3.6 10.35 -3.65 10.35 -3.9 9.9 -3.9 9.6 -4.35 9.0 -5.2 M-7.5 -5.45 L-7.65 -5.4 Q-9.3 -4.65 -9.65 -4.1 L-9.65 -3.7 -9.45 -3.65 -7.4 -4.8 -4.5 -5.5 Q-3.65 -5.5 -2.55 -4.75 L-1.65 -4.5 -1.0 -4.1 Q0.1 -4.15 0.85 -4.9 L0.55 -4.95 0.05 -4.85 Q-0.4 -4.85 -0.85 -5.3 L-0.3 -5.15 Q0.5 -5.15 0.5 -5.95 L-0.15 -7.3 Q-1.0 -8.45 -2.0 -8.45 -6.3 -8.45 -10.5 -4.55 L-10.3 -4.5 -7.65 -5.45 -7.5 -5.45 M1.55 -0.1 L1.15 -1.35 Q0.75 -3.55 0.3 -3.5 -0.35 -3.55 -0.35 -2.7 L-0.15 -1.3 -0.05 0.05 -0.05 0.1 Q-1.65 1.4 -1.75 2.05 L-1.75 2.15 -2.45 2.3 -2.9 2.35 -2.9 2.55 -2.7 2.6 -2.65 2.8 -2.5 2.85 Q-2.0 2.8 -1.8 2.5 L-0.15 2.45 0.05 2.35 0.15 2.35 1.7 2.15 Q2.25 2.15 2.25 1.85 2.25 1.45 1.7 1.6 L1.7 1.55 2.0 1.15 1.45 0.3 1.55 -0.1 M9.9 -0.6 Q9.85 -1.75 8.9 -2.85 L7.4 -3.95 6.55 -4.5 4.3 -4.65 Q3.1 -4.7 1.85 -3.4 1.6 -3.25 1.6 -1.65 1.6 -0.1 1.95 0.55 L3.2 1.55 3.9 1.95 3.75 1.9 3.7 1.9 3.7 2.05 4.35 2.15 5.45 2.45 6.35 2.65 6.35 2.8 8.2 3.15 Q9.4 3.1 10.5 2.45 L10.25 2.4 8.75 3.05 6.35 2.6 5.9 2.45 7.85 2.05 7.8 2.1 7.85 2.25 8.4 2.3 9.05 2.2 Q8.5 2.6 7.15 2.6 L6.3 2.55 7.5 2.85 8.95 2.4 9.2 2.1 9.9 1.7 10.65 0.9 10.65 0.85 10.8 0.95 11.15 0.7 Q10.75 0.3 10.45 0.3 L10.35 0.7 Q10.05 0.8 9.35 1.4 L8.45 1.75 8.95 1.3 9.85 0.1 10.7 0.1 10.75 0.05 10.1 -0.05 9.85 0.0 9.9 -0.4 10.75 -0.7 10.7 -0.75 9.9 -0.6 M-14.1 -4.3 Q-13.55 -5.95 -12.5 -7.5 L-10.7 -9.7 Q-6.35 -14.1 -0.25 -14.1 L0.35 -14.1 Q6.05 -13.9 10.15 -9.7 L10.3 -9.6 Q12.35 -7.5 13.4 -4.9 11.95 -4.15 11.95 -3.15 L12.35 -0.9 11.85 1.65 11.9 2.0 11.8 1.95 Q11.65 1.95 11.65 2.05 L12.15 2.95 12.4 3.7 Q12.45 4.15 12.85 4.15 L13.4 3.95 14.1 4.55 12.75 8.0 12.75 8.1 12.15 9.1 10.95 10.65 10.8 10.8 10.25 11.4 10.15 11.5 Q5.85 15.9 -0.25 15.9 -6.35 15.9 -10.7 11.5 -13.55 8.65 -14.5 4.95 L-14.45 4.95 Q-14.2 4.4 -13.85 4.45 L-13.2 4.55 -12.7 4.25 -12.8 4.0 -12.55 3.45 -12.4 3.75 -12.0 2.5 -11.85 2.25 -11.95 1.95 Q-11.7 1.75 -11.75 1.1 L-11.0 0.5 -10.55 0.1 -10.65 0.0 -10.7 0.05 -10.7 -0.1 -9.85 -0.45 -10.05 -0.7 -11.6 -0.3 -12.35 -0.05 -12.65 -1.35 -12.2 -1.35 -12.05 -1.2 -11.5 -1.35 -12.35 -0.7 -12.15 -0.55 -11.7 -0.7 -11.7 -0.65 -11.65 -0.65 -11.4 -0.7 -11.4 -0.8 -11.05 -0.95 -10.7 -1.05 -10.5 -0.8 Q-10.2 -0.8 -10.2 -1.2 L-10.2 -1.45 -10.1 -1.7 Q-10.1 -0.5 -9.0 0.35 L-8.15 1.35 Q-7.35 1.95 -5.3 1.95 L-3.45 1.65 -4.35 2.15 -7.65 2.5 Q-8.1 2.5 -9.05 1.95 L-9.1 2.0 Q-8.6 2.6 -7.65 2.65 L-9.0 2.65 -10.65 1.3 -10.7 1.3 Q-10.7 1.8 -10.2 2.1 L-9.0 2.65 -7.7 2.9 -6.4 2.7 -6.55 2.65 -5.8 2.6 Q-8.5 3.2 -8.65 3.65 L-8.85 3.6 Q-9.85 3.55 -9.85 4.85 L-9.75 5.75 Q-9.75 6.5 -10.85 8.05 L-10.65 8.25 -10.95 8.85 -10.9 8.95 -10.95 9.35 -10.4 10.65 -10.1 10.4 -10.45 9.3 -10.3 8.65 -10.3 8.6 Q-9.65 8.45 -8.85 5.75 L-9.0 4.85 -8.5 4.0 -8.0 4.15 -7.9 4.1 -8.1 3.85 Q-4.45 2.95 -4.45 2.7 L-4.6 2.45 Q-3.15 2.15 -3.15 1.5 L-1.9 0.6 Q-0.65 -0.55 -0.65 -1.55 -0.65 -3.75 -3.7 -4.95 -9.6 -4.45 -10.05 -2.15 L-10.3 -2.2 -10.5 -2.05 -12.0 -2.1 -12.05 -2.35 -12.1 -2.35 -12.1 -2.05 -11.45 -1.95 -11.7 -1.9 -11.85 -1.85 -12.6 -1.75 -12.55 -2.6 -13.15 -3.4 -13.95 -4.25 -14.1 -4.25 -14.1 -4.3 M11.45 -2.15 Q11.6 -2.15 11.75 -2.3 L11.5 -2.55 Q11.15 -2.6 11.15 -2.35 L11.45 -2.15 M-10.35 -3.2 Q-11.7 -3.55 -11.65 -3.75 L-11.85 -3.6 Q-11.85 -3.35 -10.75 -2.9 L-10.35 -2.9 -10.3 -3.05 -10.35 -3.2 M-2.55 -12.7 L-1.9 -12.7 -2.0 -12.6 -3.4 -12.15 -3.55 -12.3 Q-3.25 -12.7 -2.55 -12.7 M-11.0 -1.9 L-11.2 -1.9 -11.35 -1.9 -11.35 -1.95 -11.0 -1.9 M3.75 11.15 L5.2 10.65 6.25 9.8 8.3 8.1 8.25 8.25 8.6 9.5 8.8 9.45 Q8.45 9.15 8.45 8.2 L8.55 7.05 8.5 6.4 8.4 5.85 8.45 5.75 8.4 5.65 8.3 5.65 Q7.9 4.95 7.1 5.0 L7.05 5.0 7.95 5.65 7.9 5.65 7.25 5.8 6.2 5.65 -0.3 6.1 0.05 6.1 -0.8 6.05 -0.3 5.8 -0.4 5.75 -1.0 6.05 -2.05 6.0 Q-1.1 5.7 -1.2 5.3 L-2.2 5.95 -2.2 6.0 -8.2 5.8 -7.95 5.45 -7.0 4.2 Q-8.45 4.7 -8.35 6.55 -8.35 7.15 -9.95 9.05 L-8.6 7.8 Q-8.6 8.65 -7.8 8.9 L-8.5 7.75 -8.5 7.7 -8.4 7.5 -8.4 7.55 Q-8.4 7.95 -7.2 8.75 -6.05 9.5 -5.3 9.7 L-2.55 10.6 -2.3 10.65 Q-1.85 11.2 -1.6 12.2 L-1.5 12.2 -1.45 12.0 -1.9 10.75 -1.45 10.85 -1.0 11.9 -0.95 11.85 -1.35 10.9 0.15 11.15 0.15 11.25 0.2 11.2 0.2 11.15 2.1 11.3 3.5 11.2 3.55 11.3 3.75 11.15 M-3.0 10.0 L-2.85 10.1 -3.0 10.05 -3.0 10.0 M8.25 6.2 L8.25 6.25 8.2 6.25 8.25 6.2 M-10.0 0.55 L-10.05 0.55 -10.05 0.8 -10.0 0.9 -10.05 1.05 Q-10.05 1.65 -9.4 1.65 L-9.2 1.6 Q-8.55 2.3 -7.8 2.3 L-7.65 2.25 -7.6 2.05 -9.0 1.1 -10.15 -0.1 -10.3 0.0 -10.0 0.55 -9.7 1.0 -9.8 0.95 -10.0 0.55 M-8.7 9.05 L-8.75 9.05 -8.25 9.6 -8.25 9.55 -8.7 9.05 M-11.8 4.45 Q-11.6 5.85 -10.55 6.9 L-10.6 7.2 -10.5 7.15 -10.45 7.1 -10.45 6.8 -11.75 3.7 Q-11.75 2.85 -11.45 2.55 L-11.55 2.5 Q-11.85 2.8 -11.85 3.7 L-11.8 4.45 Q-12.2 3.75 -12.3 3.8 L-12.35 3.8 -12.4 3.95 -11.9 4.7 -11.8 4.45 M-0.8 11.55 L-0.75 11.8 -0.7 11.75 -0.8 11.55 M-11.25 3.55 L-10.7 4.4 Q-10.4 4.4 -10.4 3.6 -10.3 2.7 -10.8 2.7 -11.25 2.7 -11.25 3.55 M10.45 1.75 L10.3 1.6 Q9.95 1.7 9.25 2.25 L9.6 2.45 Q10.45 2.45 10.45 1.75 M-10.5 8.55 L-10.45 8.5 -10.45 8.55 -10.5 8.55 M10.8 2.5 L10.75 2.5 11.0 3.7 10.8 4.8 11.1 3.65 10.8 2.5 M10.25 7.25 L10.3 8.25 Q10.45 9.25 11.05 9.25 L11.3 9.0 Q10.75 8.95 10.75 7.25 10.75 6.0 10.55 5.5 10.25 5.95 10.25 7.25 M11.8 6.1 Q11.8 5.6 11.55 5.65 11.25 5.6 11.25 5.9 11.25 6.35 11.55 6.35 L11.8 6.1 M5.55 3.15 Q5.55 3.55 7.1 4.1 L8.6 5.15 8.65 5.15 8.9 5.95 8.8 8.35 8.85 9.4 8.85 9.7 Q9.05 10.9 9.75 10.95 10.35 10.95 10.35 10.55 9.7 9.55 9.7 8.35 L9.8 6.35 Q9.7 4.55 8.9 4.6 L8.8 4.6 Q8.55 4.25 7.75 3.8 6.6 3.05 5.8 3.1 L5.55 3.15 M0.5 12.2 L0.55 12.15 0.5 11.75 0.4 11.75 0.4 12.05 0.5 12.2 M1.5 5.95 L1.8 5.95 1.9 5.8 1.5 5.85 1.5 5.95 M8.05 9.05 L8.25 8.65 7.9 9.0 8.05 9.05" fill="#fbc87b" fill-rule="evenodd" stroke="none"/>
    <path d="M6.8 -9.5 L6.5 -9.15 -0.4 -9.2 Q-2.75 -9.2 -5.7 -8.3 L-5.75 -8.4 Q-4.55 -8.55 -3.55 -9.15 L6.25 -9.8 6.8 -9.5 M4.4 -10.5 Q-0.65 -10.75 -3.25 -9.85 L-3.5 -10.0 1.35 -10.9 4.4 -10.9 4.45 -10.7 4.4 -10.5 M2.45 -12.1 Q1.7 -11.1 -1.95 -11.1 -4.35 -11.15 -4.35 -12.3 -4.35 -13.1 -2.4 -13.35 L-1.55 -13.4 Q1.25 -13.4 2.45 -12.15 L2.45 -12.1 M3.6 -5.9 L6.8 -6.25 7.9 -6.0 6.0 -6.15 3.6 -5.9 M9.0 -5.2 L9.6 -4.35 9.9 -3.9 10.35 -3.9 10.35 -3.65 10.05 -3.6 10.95 -2.25 10.55 -1.7 Q9.65 -2.45 8.5 -4.3 7.9 -5.3 6.5 -5.3 L3.6 -4.95 Q2.9 -4.6 2.0 -4.55 1.45 -4.6 1.45 -5.0 L2.45 -5.6 2.65 -5.6 6.0 -5.8 9.0 -5.2 M-0.85 -5.3 Q-0.4 -4.85 0.05 -4.85 L0.55 -4.95 0.85 -4.9 Q0.1 -4.15 -1.0 -4.1 L-1.65 -4.5 -2.55 -4.75 Q-3.65 -5.5 -4.5 -5.5 L-7.4 -4.8 -9.45 -3.65 -9.65 -3.7 -9.65 -4.1 Q-9.3 -4.65 -7.65 -5.4 L-7.5 -5.45 -3.9 -5.9 -0.85 -5.3 M1.55 -0.1 L1.45 0.3 2.0 1.15 1.7 1.55 1.7 1.6 Q2.25 1.45 2.25 1.85 2.25 2.15 1.7 2.15 L0.15 2.35 0.05 2.35 -0.15 2.45 -1.8 2.5 Q-2.0 2.8 -2.5 2.85 L-2.65 2.8 -2.7 2.6 -2.9 2.55 -2.9 2.35 -2.45 2.3 -1.75 2.15 -1.75 2.05 Q-1.65 1.4 -0.05 0.1 L-0.05 0.05 -0.15 -1.3 -0.35 -2.7 Q-0.35 -3.55 0.3 -3.5 0.75 -3.55 1.15 -1.35 L1.55 -0.1 M8.45 1.75 L9.35 1.4 Q10.05 0.8 10.35 0.7 L10.45 0.3 Q10.75 0.3 11.15 0.7 L10.8 0.95 10.65 0.85 10.65 0.9 9.9 1.7 9.2 2.1 9.05 2.2 8.4 2.3 7.85 2.25 7.8 2.1 7.85 2.05 8.45 1.75 M-12.6 -1.75 L-11.85 -1.85 -11.7 -1.9 -11.45 -1.95 -11.35 -1.95 -11.35 -1.9 -11.2 -1.9 -11.0 -1.9 -10.8 -1.9 -10.5 -2.05 -10.3 -2.2 -10.05 -2.15 -10.0 -2.05 -10.0 -1.9 -10.1 -1.7 -10.2 -1.45 -10.2 -1.2 Q-10.2 -0.8 -10.5 -0.8 L-10.7 -1.05 -10.7 -1.15 -11.05 -0.95 -11.4 -0.8 -11.4 -0.7 -11.65 -0.65 -11.7 -0.65 -11.7 -0.7 -12.15 -0.55 -12.35 -0.7 -11.5 -1.35 -12.05 -1.2 -12.2 -1.35 -12.65 -1.35 -12.65 -1.45 -12.6 -1.75 M-4.6 2.45 L-4.45 2.7 Q-4.45 2.95 -8.1 3.85 L-7.9 4.1 -8.0 4.15 -8.5 4.0 -9.0 4.85 -8.85 5.75 Q-9.65 8.45 -10.3 8.6 L-10.3 8.65 -10.45 9.3 -10.1 10.4 -10.4 10.65 -10.95 9.35 -10.9 8.95 -10.95 8.85 -10.65 8.25 -10.85 8.05 Q-9.75 6.5 -9.75 5.75 L-9.85 4.85 Q-9.85 3.55 -8.85 3.6 L-8.65 3.65 Q-8.5 3.2 -5.8 2.6 L-5.15 2.45 -4.95 2.4 -4.6 2.45 M-12.35 -0.05 L-11.6 -0.3 -10.05 -0.7 -9.85 -0.45 -10.7 -0.1 -10.7 0.05 -10.65 0.0 -10.55 0.1 -11.0 0.5 -11.75 1.1 Q-11.7 1.75 -11.95 1.95 L-11.85 2.25 -12.0 2.5 -12.4 3.75 -12.55 3.45 Q-11.85 1.85 -11.85 1.25 L-12.35 -0.05 M11.45 -2.15 L11.15 -2.35 Q11.15 -2.6 11.5 -2.55 L11.75 -2.3 Q11.6 -2.15 11.45 -2.15 M-2.55 -12.7 Q-3.25 -12.7 -3.55 -12.3 L-3.4 -12.15 -2.0 -12.6 -1.9 -12.7 -2.55 -12.7 M-10.35 -3.2 L-10.3 -3.05 -10.35 -2.9 -10.75 -2.9 Q-11.85 -3.35 -11.85 -3.6 L-11.65 -3.75 Q-11.7 -3.55 -10.35 -3.2 M-5.3 -6.2 L-3.9 -6.35 -1.45 -5.9 -3.6 -6.3 -5.3 -6.2 M-10.0 0.55 L-10.3 0.0 -10.15 -0.1 -9.0 1.1 -7.6 2.05 -7.65 2.25 -7.8 2.3 Q-8.55 2.3 -9.2 1.6 L-9.4 1.65 Q-10.05 1.65 -10.05 1.05 L-10.0 0.9 -9.95 0.75 -9.8 0.95 -9.7 1.0 -10.0 0.55 M-6.2 7.3 L-6.15 7.4 -6.2 7.35 -6.2 7.3 M-11.8 4.45 L-11.9 4.7 -12.4 3.95 -12.35 3.8 -12.3 3.8 Q-12.2 3.75 -11.8 4.45 M-11.25 3.55 Q-11.25 2.7 -10.8 2.7 -10.3 2.7 -10.4 3.6 -10.4 4.4 -10.7 4.4 L-11.25 3.55 M-10.5 8.55 L-10.45 8.55 -10.45 8.5 -10.5 8.55 M10.45 1.75 Q10.45 2.45 9.6 2.45 L9.25 2.25 Q9.95 1.7 10.3 1.6 L10.45 1.75 M11.8 6.1 L11.55 6.35 Q11.25 6.35 11.25 5.9 11.25 5.6 11.55 5.65 11.8 5.6 11.8 6.1 M10.25 7.25 Q10.25 5.95 10.55 5.5 10.75 6.0 10.75 7.25 10.75 8.95 11.3 9.0 L11.05 9.25 Q10.45 9.25 10.3 8.25 L10.25 7.25 M5.55 3.15 L5.8 3.1 Q6.6 3.05 7.75 3.8 8.55 4.25 8.8 4.6 L8.9 4.6 Q9.7 4.55 9.8 6.35 L9.7 8.35 Q9.7 9.55 10.35 10.55 10.35 10.95 9.75 10.95 9.05 10.9 8.85 9.7 L8.85 9.4 8.8 8.35 8.9 5.95 8.65 5.15 8.6 5.15 7.1 4.1 Q5.55 3.55 5.55 3.15" fill="#fcd79e" fill-rule="evenodd" stroke="none"/>
    <path d="M7.9 -6.0 L9.85 -5.3 Q7.1 -7.8 2.95 -7.8 2.25 -7.8 2.0 -7.25 L1.85 -6.7 Q1.85 -5.9 2.8 -5.9 L3.6 -5.9 6.0 -6.15 7.9 -6.0 M2.45 -5.6 Q1.85 -5.65 1.65 -6.1 L1.55 -6.7 Q1.55 -8.2 3.3 -8.2 6.15 -8.2 8.85 -6.55 11.2 -5.2 11.2 -4.3 L11.15 -4.15 11.05 -4.1 Q10.6 -4.75 9.25 -5.15 L9.0 -5.2 6.0 -5.8 2.65 -5.6 2.45 -5.6 M-7.5 -5.45 L-7.65 -5.45 -10.3 -4.5 -10.5 -4.55 Q-6.3 -8.45 -2.0 -8.45 -1.0 -8.45 -0.15 -7.3 L0.5 -5.95 Q0.5 -5.15 -0.3 -5.15 L-0.85 -5.3 -3.9 -5.9 -7.5 -5.45 M4.25 -1.0 L3.7 -1.55 Q3.7 -2.05 4.1 -2.0 4.6 -2.05 4.6 -1.4 4.6 -1.0 4.25 -1.0 M3.9 1.95 L3.2 1.55 1.95 0.55 Q1.6 -0.1 1.6 -1.65 1.6 -3.25 1.85 -3.4 3.1 -4.7 4.3 -4.65 L6.55 -4.5 7.4 -3.95 8.9 -2.85 Q9.85 -1.75 9.9 -0.6 L9.7 -0.4 9.9 -0.4 9.85 0.0 9.7 0.1 9.85 0.1 8.95 1.3 8.45 1.75 7.85 2.05 5.9 2.45 5.45 2.3 5.4 2.3 5.45 2.45 4.35 2.15 4.75 2.25 3.9 1.95 M9.0 0.8 Q9.6 0.1 9.6 -0.5 9.6 -2.1 7.85 -3.3 6.3 -4.45 4.95 -4.4 1.9 -4.45 1.9 -1.65 1.9 0.25 2.3 0.5 4.45 2.05 5.75 2.05 L6.1 2.05 6.5 2.1 Q7.8 2.1 9.0 0.8 M-14.1 -4.25 L-13.95 -4.25 -13.15 -3.4 -12.55 -2.6 -12.6 -1.75 -12.65 -1.45 -12.65 -1.35 -12.35 -0.05 -11.85 1.25 Q-11.85 1.85 -12.55 3.45 L-12.8 4.0 -12.7 4.25 -13.2 4.55 -13.85 4.45 Q-14.2 4.4 -14.45 4.95 L-14.5 4.95 -14.65 4.95 -14.55 4.7 Q-14.25 4.0 -13.55 4.3 L-12.9 4.3 -13.0 4.0 -12.4 2.65 -12.3 2.4 -12.3 2.35 -12.05 1.25 -12.5 0.1 -12.85 -1.4 -12.85 -1.45 -12.75 -2.6 Q-14.1 -3.85 -14.1 -4.25 M-10.05 -2.15 Q-9.6 -4.45 -3.7 -4.95 -0.65 -3.75 -0.65 -1.55 -0.65 -0.55 -1.9 0.6 L-3.15 1.5 -3.15 1.45 -3.45 1.65 -5.3 1.95 Q-7.35 1.95 -8.15 1.35 L-9.0 0.35 Q-10.1 -0.5 -10.1 -1.7 L-10.0 -1.9 -9.95 -1.95 -10.0 -2.05 -10.05 -2.15 M14.1 4.55 L13.4 3.95 12.85 4.15 Q12.45 4.15 12.4 3.7 L12.15 2.95 11.65 2.05 Q11.65 1.95 11.8 1.95 L11.9 2.0 11.85 1.65 12.35 -0.9 11.95 -3.15 Q11.95 -4.15 13.4 -4.9 L13.55 -4.85 13.6 -4.8 13.5 -4.7 Q12.15 -3.8 12.15 -3.1 L12.55 -0.9 12.5 -0.3 12.45 -0.25 12.5 -0.25 12.05 1.65 12.1 2.15 12.6 3.3 12.6 3.65 12.7 3.85 12.9 3.9 13.5 3.75 Q13.7 3.7 14.2 4.15 L14.35 4.35 14.1 4.55 M-9.8 -2.1 L-9.8 -2.25 -9.85 -2.25 -9.85 -1.85 -9.85 -1.75 -9.8 -1.55 -9.25 -0.4 -8.8 0.15 -7.75 1.3 -7.7 1.3 -7.55 1.35 -7.6 1.45 -7.55 1.6 -7.25 1.6 -7.2 1.55 -7.3 1.45 -5.75 1.6 -5.75 1.65 -5.7 1.6 -5.65 1.6 Q-3.55 1.6 -2.1 0.3 -0.95 -0.75 -0.95 -1.55 -0.95 -2.2 -1.75 -3.2 -2.8 -4.55 -4.15 -4.5 -6.9 -4.55 -8.55 -3.4 -9.55 -2.75 -9.8 -2.1 M-1.45 -5.9 L-0.3 -5.55 Q0.2 -5.55 0.2 -6.0 0.2 -8.15 -3.2 -8.15 -3.85 -8.15 -6.55 -7.0 -6.9 -6.9 -9.45 -5.2 -7.35 -6.0 -5.3 -6.2 L-3.6 -6.3 -1.45 -5.9 M-2.9 -1.95 Q-2.9 -1.15 -3.5 -1.15 L-3.95 -1.75 Q-3.95 -2.5 -3.4 -2.45 -2.9 -2.5 -2.9 -1.95" fill="#000000" fill-rule="evenodd" stroke="none"/>
    <path d="M3.6 -5.9 L2.8 -5.9 Q1.85 -5.9 1.85 -6.7 L2.0 -7.25 Q2.25 -7.8 2.95 -7.8 7.1 -7.8 9.85 -5.3 L7.9 -6.0 6.8 -6.25 3.6 -5.9 M4.7 -7.45 Q3.4 -7.45 3.3 -6.5 L3.55 -6.45 Q4.95 -7.05 4.95 -7.25 L4.7 -7.45 M-14.1 -4.3 L-14.1 -4.25 Q-14.1 -3.85 -12.75 -2.6 L-12.85 -1.45 -12.85 -1.4 -12.5 0.1 -12.05 1.25 -12.3 2.35 -12.3 2.4 -12.4 2.65 -13.0 4.0 -12.9 4.3 -13.55 4.3 Q-14.25 4.0 -14.55 4.7 -15.0 2.85 -15.0 0.9 -15.0 -1.9 -14.1 -4.3 M13.5 -4.7 Q14.5 -2.15 14.5 0.9 L14.2 4.15 Q13.7 3.7 13.5 3.75 L12.9 3.9 12.7 3.85 12.6 3.65 12.6 3.3 12.1 2.15 12.05 1.65 12.5 -0.25 13.15 -0.6 13.15 -0.5 Q13.15 0.45 13.4 0.5 13.8 -0.8 13.8 -2.1 L13.75 -2.25 13.7 -2.25 12.5 -0.3 12.55 -0.9 12.15 -3.1 Q12.15 -3.8 13.5 -4.7 M-13.55 -1.15 L-13.4 -1.75 -13.4 -2.2 Q-13.95 -1.4 -14.05 1.5 -14.05 3.45 -13.7 3.5 -13.2 3.45 -13.0 -1.75 -13.0 -2.2 -13.25 -2.1 L-13.4 -1.15 -13.55 -1.15 M-1.4 -6.75 L-1.05 -6.95 -1.0 -7.2 -1.05 -7.4 -1.15 -7.5 -4.3 -7.55 -6.15 -6.85 -6.15 -6.5 -5.85 -6.5 Q-4.95 -7.0 -3.65 -6.95 L-1.4 -6.75 M-5.3 -6.2 Q-7.35 -6.0 -9.45 -5.2 -6.9 -6.9 -6.55 -7.0 -3.85 -8.15 -3.2 -8.15 0.2 -8.15 0.2 -6.0 0.2 -5.55 -0.3 -5.55 L-1.45 -5.9 -3.9 -6.35 -5.3 -6.2" fill="#c8c8c8" fill-rule="evenodd" stroke="none"/>
    <path d="M4.7 -7.45 L4.95 -7.25 Q4.95 -7.05 3.55 -6.45 L3.3 -6.5 Q3.4 -7.45 4.7 -7.45 M12.5 -0.3 L13.7 -2.25 13.75 -2.25 13.8 -2.1 Q13.8 -0.8 13.4 0.5 13.15 0.45 13.15 -0.5 L13.15 -0.6 12.5 -0.25 12.45 -0.25 12.5 -0.3 M-13.55 -1.15 L-13.4 -1.15 -13.25 -2.1 Q-13.0 -2.2 -13.0 -1.75 -13.2 3.45 -13.7 3.5 -14.05 3.45 -14.05 1.5 -13.95 -1.4 -13.4 -2.2 L-13.4 -1.75 -13.55 -1.15 M-1.4 -6.75 L-3.65 -6.95 Q-4.95 -7.0 -5.85 -6.5 L-6.15 -6.5 -6.15 -6.85 -4.3 -7.55 -1.15 -7.5 -1.05 -7.4 -1.0 -7.2 -1.05 -6.95 -1.4 -6.75" fill="#d8d8d8" fill-rule="evenodd" stroke="none"/>
    <path d="M9.9 -0.6 L10.7 -0.75 10.75 -0.7 9.9 -0.4 9.7 -0.4 9.9 -0.6 M9.85 0.0 L10.1 -0.05 10.75 0.05 10.7 0.1 9.85 0.1 9.7 0.1 9.85 0.0 M9.2 2.1 L8.95 2.4 7.5 2.85 6.3 2.55 7.15 2.6 Q8.5 2.6 9.05 2.2 L9.2 2.1 M5.9 2.45 L6.35 2.6 8.75 3.05 10.25 2.4 10.5 2.45 Q9.4 3.1 8.2 3.15 L6.35 2.8 6.35 2.65 5.45 2.45 5.4 2.3 5.45 2.3 5.9 2.45 M4.35 2.15 L3.7 2.05 3.7 1.9 3.75 1.9 3.9 1.95 4.75 2.25 4.35 2.15 M-11.45 -1.95 L-12.1 -2.05 -12.1 -2.35 -12.05 -2.35 -12.0 -2.1 -10.5 -2.05 -10.8 -1.9 -11.0 -1.9 -11.35 -1.95 -11.45 -1.95 M-3.15 1.5 Q-3.15 2.15 -4.6 2.45 L-4.95 2.4 -5.15 2.45 -5.8 2.6 -6.55 2.65 -6.4 2.7 -7.7 2.9 -9.0 2.65 -10.2 2.1 Q-10.7 1.8 -10.7 1.3 L-10.65 1.3 -9.0 2.65 -7.65 2.65 Q-8.6 2.6 -9.1 2.0 L-9.05 1.95 Q-8.1 2.5 -7.65 2.5 L-4.35 2.15 -3.45 1.65 -3.15 1.45 -3.15 1.5 M-10.7 -1.05 L-11.05 -0.95 -10.7 -1.15 -10.7 -1.05 M-10.0 -2.05 L-9.95 -1.95 -10.0 -1.9 -10.0 -2.05 M3.5 11.2 L2.1 11.3 0.2 11.15 0.2 11.2 0.15 11.25 0.15 11.15 -1.35 10.9 -0.95 11.85 -1.0 11.9 -1.45 10.85 -1.9 10.75 -1.45 12.0 -1.5 12.2 -1.6 12.2 Q-1.85 11.2 -2.3 10.65 L-2.55 10.6 -5.3 9.7 Q-6.05 9.5 -7.2 8.75 -8.4 7.95 -8.4 7.55 L-8.4 7.5 -8.5 7.7 -8.5 7.75 -7.8 8.9 Q-8.6 8.65 -8.6 7.8 L-9.95 9.05 Q-8.35 7.15 -8.35 6.55 -8.45 4.7 -7.0 4.2 L-7.95 5.45 -8.2 5.8 -2.2 6.0 -2.2 5.95 -1.2 5.3 Q-1.1 5.7 -2.05 6.0 L-1.0 6.05 -0.4 5.75 -0.3 5.8 -0.8 6.05 0.05 6.1 -0.3 6.1 6.2 5.65 7.25 5.8 7.9 5.65 7.95 5.65 7.05 5.0 7.1 5.0 Q7.9 4.95 8.3 5.65 L8.4 5.65 8.45 5.75 8.4 5.85 8.5 6.4 8.55 7.05 8.45 8.2 Q8.45 9.15 8.8 9.45 L8.6 9.5 8.25 8.25 8.3 8.1 6.25 9.8 5.2 10.65 3.75 11.15 3.75 11.05 3.75 10.8 5.15 10.25 6.15 9.45 8.1 7.65 8.3 7.65 8.35 7.05 8.35 6.65 8.15 6.75 8.15 6.7 8.25 6.5 8.2 6.25 8.25 6.25 8.25 6.2 8.15 5.95 7.25 6.1 6.35 6.0 1.1 6.45 0.9 6.7 0.85 6.65 Q0.85 6.45 1.1 6.45 L0.7 6.45 -6.4 6.15 -8.2 5.9 -8.25 6.15 -8.15 6.9 -8.4 7.25 -8.35 7.4 -8.25 7.35 Q-8.1 8.2 -5.35 9.35 L-3.0 10.05 -2.85 10.1 -3.0 10.0 -3.0 9.9 -2.85 9.9 Q-2.55 9.9 -2.25 10.2 L-2.2 10.2 2.1 11.0 3.4 10.9 3.5 11.2 M-10.0 0.9 L-10.05 0.8 -10.05 0.55 -10.0 0.55 -9.8 0.95 -9.95 0.75 -10.0 0.9 M-8.7 9.05 L-8.25 9.55 -8.25 9.6 -8.75 9.05 -8.7 9.05 M-4.55 7.2 L-4.65 7.2 -4.65 7.15 -4.55 7.2 M-0.8 11.55 L-0.7 11.75 -0.75 11.8 -0.8 11.55 M-11.8 4.45 L-11.85 3.7 Q-11.85 2.8 -11.55 2.5 L-11.45 2.55 Q-11.75 2.85 -11.75 3.7 L-10.45 6.8 -10.45 7.1 -10.5 7.15 -10.6 7.2 -10.55 6.9 Q-11.6 5.85 -11.8 4.45 M10.8 2.5 L11.1 3.65 10.8 4.8 11.0 3.7 10.75 2.5 10.8 2.5 M1.5 5.95 L1.5 5.85 1.9 5.8 1.8 5.95 1.5 5.95 M0.5 12.2 L0.4 12.05 0.4 11.75 0.5 11.75 0.55 12.15 0.5 12.2 M8.05 9.05 L7.9 9.0 8.25 8.65 8.05 9.05" fill="#865204" fill-rule="evenodd" stroke="none"/>
    <path d="M4.25 -1.0 Q4.6 -1.0 4.6 -1.4 4.6 -2.05 4.1 -2.0 3.7 -2.05 3.7 -1.55 L4.25 -1.0 M6.1 2.05 L5.75 2.05 Q4.45 2.05 2.3 0.5 1.9 0.25 1.9 -1.65 1.9 -4.45 4.95 -4.4 6.3 -4.45 7.85 -3.3 9.6 -2.1 9.6 -0.5 9.6 0.1 9.0 0.8 L9.05 0.7 9.0 0.6 Q7.55 1.8 5.8 1.9 L6.1 2.05 M9.1 -0.05 L9.05 -0.05 9.05 0.2 9.25 0.25 9.1 -0.05 M9.35 -0.3 L9.35 -0.5 9.3 -0.55 9.0 -0.4 9.3 -0.2 9.4 -0.3 9.35 -0.3 M8.65 -0.3 L8.65 -0.15 8.75 -0.1 9.0 -0.2 8.85 -0.3 8.65 -0.3 M7.85 -0.05 L7.75 -0.05 7.85 -0.3 7.75 -0.35 7.6 -0.35 7.65 0.0 7.7 0.0 8.4 0.65 8.4 0.7 8.45 0.75 8.5 0.7 8.55 0.75 8.65 0.65 8.65 0.55 7.85 -0.05 M-9.8 -2.1 Q-9.55 -2.75 -8.55 -3.4 -6.9 -4.55 -4.15 -4.5 -2.8 -4.55 -1.75 -3.2 -0.95 -2.2 -0.95 -1.55 -0.95 -0.75 -2.1 0.3 -3.55 1.6 -5.65 1.6 L-5.7 1.6 -5.65 1.55 -5.7 1.35 -5.85 1.4 -5.75 1.6 -7.3 1.45 -7.45 1.25 -7.55 1.25 -7.55 1.35 -7.7 1.3 -7.65 1.25 -7.7 1.15 -7.95 0.85 -7.65 0.85 -7.65 0.8 Q-7.8 0.65 -8.1 0.65 L-8.4 0.3 Q-8.05 0.15 -7.95 -0.2 L-8.15 -0.4 -7.65 -0.75 -8.2 -0.45 -8.5 -0.75 -8.55 -0.75 -8.15 -0.15 -8.5 0.25 Q-9.7 -1.3 -9.8 -2.1 M-8.8 0.15 L-9.25 -0.4 -9.05 -0.25 -8.8 0.15 M-2.9 -1.95 Q-2.9 -2.5 -3.4 -2.45 -3.95 -2.5 -3.95 -1.75 L-3.5 -1.15 Q-2.9 -1.15 -2.9 -1.95 M7.65 0.55 L8.05 0.45 7.5 0.25 7.3 0.3 Q6.75 0.3 6.75 0.55 6.9 0.4 7.35 0.4 L7.65 0.55 M8.55 0.3 L8.7 0.3 8.8 0.2 8.6 0.1 8.5 0.2 8.55 0.3" fill="#ffffff" fill-rule="evenodd" stroke="none"/>
    <path d="M6.1 2.05 L5.8 1.9 Q7.55 1.8 9.0 0.6 L9.05 0.7 9.0 0.8 Q7.8 2.1 6.5 2.1 L6.1 2.05 M7.85 -0.05 L8.65 0.55 8.65 0.65 8.55 0.75 8.5 0.7 8.45 0.75 8.4 0.7 8.4 0.65 7.7 0.0 7.65 0.0 7.6 -0.35 7.75 -0.35 7.85 -0.3 7.75 -0.05 7.85 -0.05 M8.65 -0.3 L8.85 -0.3 9.0 -0.2 8.75 -0.1 8.65 -0.15 8.65 -0.3 M9.35 -0.3 L9.4 -0.3 9.3 -0.2 9.0 -0.4 9.3 -0.55 9.35 -0.5 9.35 -0.3 M9.1 -0.05 L9.25 0.25 9.05 0.2 9.05 -0.05 9.1 -0.05 M-9.25 -0.4 L-9.8 -1.55 -9.85 -1.75 -9.85 -1.85 -9.85 -2.25 -9.8 -2.25 -9.8 -2.1 Q-9.7 -1.3 -8.5 0.25 L-8.15 -0.15 -8.55 -0.75 -8.5 -0.75 -8.2 -0.45 -7.65 -0.75 -8.15 -0.4 -7.95 -0.2 Q-8.05 0.15 -8.4 0.3 L-8.1 0.65 Q-7.8 0.65 -7.65 0.8 L-7.65 0.85 -7.95 0.85 -7.7 1.15 -7.65 1.25 -7.7 1.3 -7.75 1.3 -8.8 0.15 -9.05 -0.25 -9.25 -0.4 M-5.7 1.6 L-5.75 1.65 -5.75 1.6 -5.85 1.4 -5.7 1.35 -5.65 1.55 -5.7 1.6 M-7.3 1.45 L-7.2 1.55 -7.25 1.6 -7.55 1.6 -7.6 1.45 -7.55 1.35 -7.55 1.25 -7.45 1.25 -7.3 1.45 M8.55 0.3 L8.5 0.2 8.6 0.1 8.8 0.2 8.7 0.3 8.55 0.3 M7.65 0.55 L7.35 0.4 Q6.9 0.4 6.75 0.55 6.75 0.3 7.3 0.3 L7.5 0.25 8.05 0.45 7.65 0.55" fill="#fe503d" fill-rule="evenodd" stroke="none"/>
    <path d="M-8.15 6.9 L-8.25 6.15 -8.2 5.9 -6.4 6.15 0.7 6.45 1.1 6.45 Q0.85 6.45 0.85 6.65 L0.9 6.7 1.1 6.45 6.35 6.0 7.25 6.1 8.15 5.95 8.25 6.2 8.2 6.25 8.25 6.5 8.15 6.7 8.15 6.75 8.35 6.65 8.35 7.05 8.3 7.65 8.1 7.65 6.15 9.45 5.15 10.25 3.75 10.8 Q3.7 9.5 2.75 8.85 0.75 7.3 -1.4 7.3 L-2.2 7.45 Q-3.35 6.5 -5.35 6.5 L-8.15 6.9" fill="#6a0300" fill-rule="evenodd" stroke="none"/>
    <path d="M3.4 10.9 L2.1 11.0 -2.2 10.2 -2.25 10.2 Q-2.55 9.9 -2.85 9.9 L-3.0 9.9 -3.0 10.0 -3.0 10.05 -5.35 9.35 Q-8.1 8.2 -8.25 7.35 L-5.55 6.85 Q-3.45 6.85 -2.45 7.65 L-2.55 7.8 -2.45 7.85 -2.3 7.8 -2.0 8.2 -1.25 9.55 -1.1 9.5 -1.05 9.3 Q-1.05 8.6 -1.85 7.75 L-1.9 7.7 -1.45 7.6 Q1.15 7.6 2.5 9.15 L3.4 10.9 M-6.2 7.3 L-6.2 7.35 -6.15 7.4 -6.2 7.3 M-4.55 7.2 L-4.65 7.15 -4.65 7.2 -4.55 7.2" fill="#aa0400" fill-rule="evenodd" stroke="none"/>
    <path d="M3.5 11.2 L3.4 10.9 2.5 9.15 Q1.15 7.6 -1.45 7.6 L-1.9 7.7 -1.85 7.75 Q-1.05 8.6 -1.05 9.3 L-1.1 9.5 -1.25 9.55 -2.0 8.2 -2.3 7.8 -2.45 7.85 -2.55 7.8 -2.45 7.65 Q-3.45 6.85 -5.55 6.85 L-8.25 7.35 -8.35 7.4 -8.4 7.25 -8.15 6.9 -5.35 6.5 Q-3.35 6.5 -2.2 7.45 L-1.4 7.3 Q0.75 7.3 2.75 8.85 3.7 9.5 3.75 10.8 L3.75 11.05 3.75 11.15 3.55 11.3 3.5 11.2" fill="#420200" fill-rule="evenodd" stroke="none"/>
    <path d="M13.4 -4.9 Q12.35 -7.5 10.3 -9.6 L10.15 -9.7 Q6.05 -13.9 0.35 -14.1 L-0.25 -14.1 Q-6.35 -14.1 -10.7 -9.7 L-12.5 -7.5 Q-13.55 -5.95 -14.1 -4.3 -15.0 -1.9 -15.0 0.9 -15.0 2.85 -14.55 4.7 M-14.5 4.95 Q-13.55 8.65 -10.7 11.5 -6.35 15.9 -0.25 15.9 5.85 15.9 10.15 11.5 L10.25 11.4 10.8 10.8 10.95 10.65 12.15 9.1 12.75 8.1 12.75 8.0 14.1 4.55 M13.5 -4.7 Q14.5 -2.15 14.5 0.9 L14.2 4.15" fill="none" stroke="#865204" stroke-linecap="round" stroke-linejoin="round" stroke-width="0.5"/>
  </g>
</svg>
