<?xml version="1.0" encoding="UTF-8" standalone="no"?>
<svg xmlns:xlink="http://www.w3.org/1999/xlink" height="30.6px" width="30.0px" xmlns="http://www.w3.org/2000/svg">
  <g transform="matrix(1.0, 0.0, 0.0, 1.0, 15.25, 14.35)">
    <path d="M2.45 -12.1 L2.45 -12.15 Q1.25 -13.4 -1.55 -13.4 L-2.4 -13.35 Q-4.35 -13.1 -4.35 -12.25 -4.35 -11.15 -1.95 -11.15 1.7 -11.15 2.45 -12.1 M4.45 -10.75 L4.4 -10.95 1.35 -10.95 -3.5 -10.0 -3.25 -9.85 Q-0.65 -10.75 4.4 -10.55 L4.45 -10.75 M6.8 -9.5 L6.25 -9.8 -3.55 -9.15 Q-4.55 -8.55 -5.75 -8.35 L-5.7 -8.25 Q-2.75 -9.2 -0.4 -9.2 L6.5 -9.15 6.8 -9.5 M9.0 -5.2 L9.25 -5.1 Q10.6 -4.7 11.05 -4.1 L11.15 -4.15 11.2 -4.3 Q11.2 -5.15 8.85 -6.55 6.15 -8.2 3.3 -8.15 1.55 -8.2 1.55 -6.65 L1.65 -6.1 Q1.85 -5.65 2.45 -5.6 1.45 -5.3 1.45 -4.95 1.45 -4.55 2.0 -4.55 L3.6 -4.9 6.5 -5.25 Q7.9 -5.25 8.5 -4.3 9.65 -2.4 10.55 -1.65 L10.95 -2.2 10.05 -3.6 10.35 -3.65 10.35 -3.9 9.9 -3.9 9.6 -4.35 9.0 -5.2 M-7.5 -5.45 L-7.65 -5.4 -9.65 -4.1 -9.65 -3.7 -9.45 -3.65 -7.4 -4.75 Q-5.65 -5.5 -4.5 -5.5 -3.65 -5.5 -2.55 -4.7 L-1.65 -4.5 -1.0 -4.1 Q0.1 -4.1 0.85 -4.85 L0.55 -4.9 0.05 -4.8 Q-0.4 -4.8 -0.85 -5.3 L-0.3 -5.1 Q0.5 -5.15 0.5 -5.95 L-0.15 -7.25 Q-1.0 -8.4 -2.0 -8.4 -6.3 -8.45 -10.5 -4.55 L-10.3 -4.5 -7.65 -5.45 -7.5 -5.45 M1.55 -0.05 L1.15 -1.3 Q0.75 -3.5 0.3 -3.5 -0.35 -3.5 -0.35 -2.65 L-0.15 -1.3 -0.05 0.1 -0.05 0.15 Q-1.65 1.45 -1.75 2.1 L-1.75 2.2 -2.45 2.35 -2.9 2.45 -2.9 2.65 -2.7 2.65 -2.7 2.7 -2.65 2.85 -2.5 2.9 Q-2.0 2.9 -1.8 2.6 L-0.15 2.55 0.05 2.4 0.15 2.45 1.7 2.25 Q2.25 2.2 2.25 1.9 2.25 1.5 1.7 1.65 L1.7 1.6 2.0 1.2 1.45 0.35 1.55 -0.05 M9.9 -0.55 Q9.85 -1.7 8.9 -2.85 L7.4 -3.95 6.55 -4.5 4.3 -4.65 Q3.1 -4.65 1.85 -3.4 1.6 -3.2 1.6 -1.6 1.6 -0.05 1.95 0.6 L3.2 1.6 3.9 2.0 3.75 1.95 3.7 1.95 3.7 2.1 4.35 2.25 5.45 2.5 6.35 2.75 6.35 2.85 8.2 3.2 Q9.4 3.2 10.5 2.55 L10.25 2.5 8.75 3.1 6.45 2.7 7.5 2.9 Q8.2 2.9 8.95 2.5 L9.2 2.15 9.9 1.75 10.65 0.95 10.65 0.9 10.8 1.0 11.15 0.75 Q10.75 0.35 10.45 0.35 L10.35 0.75 Q10.05 0.85 9.35 1.45 L8.45 1.8 8.95 1.35 9.85 0.15 10.7 0.15 10.75 0.1 10.1 0.0 9.85 0.05 9.9 -0.35 10.75 -0.65 10.7 -0.7 9.9 -0.55 M-14.1 -4.25 Q-13.55 -5.95 -12.5 -7.45 L-10.7 -9.7 Q-6.35 -14.1 -0.25 -14.1 L0.35 -14.1 Q6.05 -13.85 10.15 -9.7 L10.3 -9.55 Q12.35 -7.45 13.4 -4.85 11.95 -4.1 11.95 -3.15 L12.35 -0.85 11.85 1.7 11.9 2.05 11.8 2.0 Q11.65 2.0 11.65 2.1 L12.15 3.0 12.4 3.7 Q12.45 4.15 12.85 4.15 L13.4 3.95 14.1 4.55 12.75 8.1 12.75 8.2 12.15 9.15 10.95 10.7 10.8 10.9 10.25 11.45 10.15 11.55 Q7.15 14.65 3.25 15.6 L-0.25 16.0 -3.75 15.6 Q-7.65 14.65 -10.7 11.55 -13.55 8.7 -14.5 5.05 L-14.5 5.0 -14.45 5.0 Q-14.2 4.45 -13.85 4.45 L-13.2 4.55 -12.7 4.25 -12.8 4.0 -12.55 3.45 -12.4 3.75 -12.0 2.6 -11.85 2.35 -11.95 2.0 Q-11.7 1.8 -11.75 1.15 L-11.0 0.55 -10.55 0.15 -10.65 0.05 -10.7 0.1 -10.7 -0.05 -9.85 -0.4 -10.05 -0.65 -11.6 -0.25 -12.35 0.0 -12.65 -1.35 -12.2 -1.35 -12.05 -1.2 -11.5 -1.3 -12.35 -0.65 -12.15 -0.5 -11.7 -0.65 -11.7 -0.6 -11.65 -0.6 -11.4 -0.65 -11.4 -0.75 -11.05 -0.95 -10.7 -1.0 -10.5 -0.75 Q-10.2 -0.8 -10.2 -1.2 L-10.2 -1.45 -10.1 -1.6 Q-10.1 -0.45 -9.0 0.4 L-8.15 1.4 Q-7.35 2.0 -5.3 2.0 L-3.45 1.7 -4.35 2.25 -7.65 2.6 -9.05 2.0 -9.1 2.05 Q-8.6 2.7 -7.65 2.75 L-9.0 2.75 -7.7 2.95 -6.4 2.8 -6.55 2.75 -6.85 2.75 -5.8 2.7 Q-8.5 3.3 -8.65 3.65 L-8.85 3.6 Q-9.85 3.6 -9.85 4.9 L-9.75 5.8 Q-9.75 6.55 -10.85 8.15 L-10.65 8.35 -10.95 8.9 -10.9 9.0 -10.95 9.4 -10.4 10.7 -10.1 10.45 -10.45 9.35 -10.3 8.7 -10.3 8.65 Q-9.65 8.5 -8.85 5.8 L-9.0 4.9 -8.5 4.05 -8.0 4.15 -7.9 4.1 -8.1 3.85 Q-4.45 3.05 -4.45 2.8 L-4.6 2.55 Q-3.15 2.2 -3.15 1.55 L-1.9 0.65 Q-0.65 -0.55 -0.65 -1.55 -0.65 -3.7 -3.7 -4.9 -9.6 -4.4 -10.05 -2.05 L-10.3 -2.15 -10.5 -2.0 -12.0 -2.05 -12.05 -2.3 -12.1 -2.3 -12.1 -2.0 -11.45 -1.85 -11.7 -1.8 -11.85 -1.75 -12.6 -1.7 -12.55 -2.55 -13.15 -3.4 -13.95 -4.25 -14.1 -4.25 M11.45 -2.1 Q11.6 -2.1 11.75 -2.25 L11.5 -2.5 Q11.15 -2.5 11.15 -2.3 L11.45 -2.1 M-10.35 -3.2 Q-11.7 -3.5 -11.65 -3.75 L-11.85 -3.6 Q-11.85 -3.3 -10.75 -2.9 L-10.35 -2.9 -10.3 -3.05 -10.35 -3.2 M-2.55 -12.65 L-1.9 -12.65 -2.0 -12.55 -3.4 -12.15 -3.55 -12.25 Q-3.25 -12.7 -2.55 -12.65 M3.75 11.2 L5.2 10.7 6.25 9.9 8.3 8.2 8.25 8.35 8.6 9.55 8.8 9.5 Q8.45 9.2 8.45 8.3 L8.55 7.15 8.5 6.45 8.4 5.9 8.45 5.8 8.4 5.7 8.3 5.7 Q7.9 5.05 7.1 5.05 L7.05 5.05 7.95 5.7 7.9 5.7 7.25 5.85 6.2 5.7 -0.3 6.15 -0.8 6.15 -0.3 5.85 -0.4 5.8 -1.0 6.1 -0.95 6.15 -2.05 6.1 Q-1.1 5.8 -1.2 5.35 L-2.2 6.0 -2.2 6.1 -8.2 5.85 -7.95 5.55 -7.0 4.2 Q-8.45 4.7 -8.35 6.65 -8.35 7.2 -9.95 9.1 L-8.6 7.9 Q-8.6 8.7 -7.8 8.95 L-8.5 7.85 -8.5 7.8 -8.4 7.6 -8.4 7.65 Q-8.4 8.05 -7.2 8.8 L-5.3 9.8 -2.55 10.65 -2.3 10.75 Q-1.85 11.3 -1.6 12.3 L-1.5 12.3 -1.45 12.05 -1.9 10.85 -1.45 10.95 -1.0 11.95 -0.95 11.9 -1.35 10.95 0.15 11.2 0.15 11.3 0.2 11.25 0.2 11.2 2.1 11.35 3.5 11.25 3.55 11.35 3.75 11.2 M-3.0 10.1 L-2.85 10.15 -3.0 10.15 -3.0 10.1 M-10.0 0.6 L-10.05 0.6 -10.05 0.85 -10.0 0.95 -10.05 1.1 Q-10.05 1.7 -9.4 1.7 L-9.2 1.65 Q-8.55 2.35 -7.8 2.4 L-7.65 2.35 -7.6 2.1 -9.0 1.15 -10.15 -0.05 -10.3 0.05 -10.0 0.6 -9.7 1.05 -9.8 1.0 -10.0 0.6 M-8.7 9.1 L-8.75 9.1 -8.25 9.65 -8.25 9.6 -8.7 9.1 M-10.65 1.35 L-10.7 1.35 Q-10.7 1.85 -10.2 2.15 L-9.0 2.75 -10.65 1.35 M-0.8 11.65 L-0.75 11.85 -0.7 11.8 -0.8 11.65 M-11.8 4.45 Q-11.6 5.9 -10.55 7.0 L-10.6 7.3 -10.5 7.25 -10.45 7.2 -10.45 6.9 -11.75 3.7 -11.45 2.65 -11.55 2.6 Q-11.85 2.9 -11.85 3.7 L-11.8 4.45 -12.3 3.8 -12.35 3.8 -12.4 3.95 -11.9 4.75 -11.8 4.45 M10.45 1.8 L10.3 1.65 Q9.95 1.75 9.25 2.35 L9.6 2.55 Q10.45 2.5 10.45 1.8 M-10.5 8.6 L-10.45 8.55 -10.45 8.6 -10.5 8.6 M-11.25 3.55 L-10.7 4.4 Q-10.4 4.4 -10.4 3.6 -10.3 2.8 -10.8 2.8 -11.25 2.8 -11.25 3.55 M10.8 2.6 L10.75 2.6 11.0 3.7 10.8 4.85 11.1 3.65 10.8 2.6 M10.25 7.35 L10.3 8.35 Q10.45 9.3 11.05 9.3 L11.3 9.05 Q10.75 9.0 10.75 7.35 L10.55 5.55 Q10.25 6.0 10.25 7.35 M11.8 6.15 L11.55 5.7 11.25 5.95 Q11.25 6.4 11.55 6.4 L11.8 6.15 M7.85 2.1 L7.8 2.15 7.85 2.35 8.4 2.4 9.05 2.25 7.15 2.7 6.35 2.65 5.9 2.55 7.85 2.1 M5.55 3.2 Q5.55 3.6 7.1 4.1 L8.6 5.2 8.65 5.2 8.9 6.0 8.8 8.45 8.85 9.45 8.85 9.8 Q9.05 11.0 9.75 11.0 10.35 11.0 10.35 10.6 9.7 9.65 9.7 8.45 L9.8 6.4 Q9.7 4.6 8.9 4.6 L8.8 4.65 Q8.55 4.25 7.75 3.8 6.6 3.15 5.8 3.15 L5.55 3.2 M8.25 8.7 L7.9 9.05 8.05 9.1 8.25 8.7 M0.5 12.3 L0.55 12.2 0.5 11.8 0.4 11.8 0.4 12.1 0.5 12.3 M1.9 5.85 L1.5 5.9 1.5 6.0 1.8 6.0 1.9 5.85" fill="#fbc87b" fill-rule="evenodd" stroke="none"/>
    <path d="M6.8 -9.5 L6.5 -9.15 -0.4 -9.2 Q-2.75 -9.2 -5.7 -8.25 L-5.75 -8.35 Q-4.55 -8.55 -3.55 -9.15 L6.25 -9.8 6.8 -9.5 M4.45 -10.75 L4.4 -10.55 Q-0.65 -10.75 -3.25 -9.85 L-3.5 -10.0 1.35 -10.95 4.4 -10.95 4.45 -10.75 M2.45 -12.1 Q1.7 -11.15 -1.95 -11.15 -4.35 -11.15 -4.35 -12.25 -4.35 -13.1 -2.4 -13.35 L-1.55 -13.4 Q1.25 -13.4 2.45 -12.15 L2.45 -12.1 M3.6 -5.9 L6.8 -6.25 7.9 -6.0 6.0 -6.15 3.6 -5.9 M9.0 -5.2 L9.6 -4.35 9.9 -3.9 10.35 -3.9 10.35 -3.65 10.05 -3.6 10.95 -2.2 10.55 -1.65 Q9.65 -2.4 8.5 -4.3 7.9 -5.25 6.5 -5.25 L3.6 -4.9 2.0 -4.55 Q1.45 -4.55 1.45 -4.95 1.45 -5.3 2.45 -5.6 L2.65 -5.6 6.0 -5.8 9.0 -5.2 M-0.85 -5.3 Q-0.4 -4.8 0.05 -4.8 L0.55 -4.9 0.85 -4.85 Q0.1 -4.1 -1.0 -4.1 L-1.65 -4.5 -2.55 -4.7 Q-3.65 -5.5 -4.5 -5.5 -5.65 -5.5 -7.4 -4.75 L-9.45 -3.65 -9.65 -3.7 -9.65 -4.1 -7.65 -5.4 -7.5 -5.45 -3.9 -5.9 -0.85 -5.3 M1.55 -0.05 L1.45 0.35 2.0 1.2 1.7 1.6 1.7 1.65 Q2.25 1.5 2.25 1.9 2.25 2.2 1.7 2.25 L0.15 2.45 0.05 2.4 -0.15 2.55 -1.8 2.6 Q-2.0 2.9 -2.5 2.9 L-2.65 2.85 -2.7 2.7 -2.7 2.65 -2.9 2.65 -2.9 2.45 -2.45 2.35 -1.75 2.2 -1.75 2.1 Q-1.65 1.45 -0.05 0.15 L-0.05 0.1 -0.15 -1.3 -0.35 -2.65 Q-0.35 -3.5 0.3 -3.5 0.75 -3.5 1.15 -1.3 L1.55 -0.05 M8.45 1.8 L9.35 1.45 Q10.05 0.85 10.35 0.75 L10.45 0.35 Q10.75 0.35 11.15 0.75 L10.8 1.0 10.65 0.9 10.65 0.95 9.9 1.75 9.2 2.15 9.05 2.25 8.4 2.4 7.85 2.35 7.8 2.15 7.85 2.1 8.45 1.8 M-12.6 -1.7 L-11.85 -1.75 -11.7 -1.8 -11.45 -1.85 -11.4 -1.9 -11.35 -1.85 -11.2 -1.85 -11.0 -1.85 -10.8 -1.8 -10.5 -2.0 -10.3 -2.15 -10.05 -2.05 -10.0 -2.0 -10.0 -1.9 -10.0 -1.8 -10.1 -1.6 -10.2 -1.45 -10.2 -1.2 Q-10.2 -0.8 -10.5 -0.75 L-10.7 -1.0 -10.7 -1.1 -11.05 -0.95 -11.4 -0.75 -11.4 -0.65 -11.65 -0.6 -11.7 -0.6 -11.7 -0.65 -12.15 -0.5 -12.35 -0.65 -11.5 -1.3 -12.05 -1.2 -12.2 -1.35 -12.65 -1.35 -12.65 -1.45 -12.6 -1.7 M-4.6 2.55 L-4.45 2.8 Q-4.45 3.05 -8.1 3.85 L-7.9 4.1 -8.0 4.15 -8.5 4.05 -9.0 4.9 -8.85 5.8 Q-9.65 8.5 -10.3 8.65 L-10.3 8.7 -10.45 9.35 -10.1 10.45 -10.4 10.7 -10.95 9.4 -10.9 9.0 -10.95 8.9 -10.65 8.35 -10.85 8.15 Q-9.75 6.55 -9.75 5.8 L-9.85 4.9 Q-9.85 3.6 -8.85 3.6 L-8.65 3.65 Q-8.5 3.3 -5.8 2.7 L-5.15 2.55 -4.95 2.5 -4.6 2.55 M-12.35 0.0 L-11.6 -0.25 -10.05 -0.65 -9.85 -0.4 -10.7 -0.05 -10.7 0.1 -10.65 0.05 -10.55 0.15 -11.0 0.55 -11.75 1.15 Q-11.7 1.8 -11.95 2.0 L-11.85 2.35 -12.0 2.6 -12.4 3.75 -12.55 3.45 -11.95 2.0 -11.85 1.3 -12.35 0.0 M11.45 -2.1 L11.15 -2.3 Q11.15 -2.5 11.5 -2.5 L11.75 -2.25 Q11.6 -2.1 11.45 -2.1 M-2.55 -12.65 Q-3.25 -12.7 -3.55 -12.25 L-3.4 -12.15 -2.0 -12.55 -1.9 -12.65 -2.55 -12.65 M-10.35 -3.2 L-10.3 -3.05 -10.35 -2.9 -10.75 -2.9 Q-11.85 -3.3 -11.85 -3.6 L-11.65 -3.75 Q-11.7 -3.5 -10.35 -3.2 M-5.3 -6.2 L-3.9 -6.35 -1.45 -5.9 -3.6 -6.3 -5.3 -6.2 M-10.0 0.6 L-10.3 0.05 -10.15 -0.05 -9.0 1.15 -7.6 2.1 -7.65 2.35 -7.8 2.4 Q-8.55 2.35 -9.2 1.65 L-9.4 1.7 Q-10.05 1.7 -10.05 1.1 L-10.0 0.95 -9.95 0.8 -9.8 1.0 -9.7 1.05 -10.0 0.6 M-6.2 7.4 L-6.15 7.5 -6.2 7.45 -6.2 7.4 M-11.8 4.45 L-11.9 4.75 -12.4 3.95 -12.35 3.8 -12.3 3.8 -11.8 4.45 M-11.25 3.55 Q-11.25 2.8 -10.8 2.8 -10.3 2.8 -10.4 3.6 -10.4 4.4 -10.7 4.4 L-11.25 3.55 M-10.5 8.6 L-10.45 8.6 -10.45 8.55 -10.5 8.6 M10.45 1.8 Q10.45 2.5 9.6 2.55 L9.25 2.35 Q9.95 1.75 10.3 1.65 L10.45 1.8 M11.8 6.15 L11.55 6.4 Q11.25 6.4 11.25 5.95 L11.55 5.7 11.8 6.15 M10.25 7.35 Q10.25 6.0 10.55 5.55 L10.75 7.35 Q10.75 9.0 11.3 9.05 L11.05 9.3 Q10.45 9.3 10.3 8.35 L10.25 7.35 M5.55 3.2 L5.8 3.15 Q6.6 3.15 7.75 3.8 8.55 4.25 8.8 4.65 L8.9 4.6 Q9.7 4.6 9.8 6.4 L9.7 8.45 Q9.7 9.65 10.35 10.6 10.35 11.0 9.75 11.0 9.05 11.0 8.85 9.8 L8.85 9.45 8.8 8.45 8.9 6.0 8.65 5.2 8.6 5.2 7.1 4.1 Q5.55 3.6 5.55 3.2" fill="#fcd79e" fill-rule="evenodd" stroke="none"/>
    <path d="M7.9 -6.0 Q9.05 -5.8 9.85 -5.25 7.1 -7.75 2.95 -7.75 2.25 -7.75 2.0 -7.2 L1.85 -6.65 Q1.85 -5.9 2.8 -5.9 L3.6 -5.9 6.0 -6.15 7.9 -6.0 M2.45 -5.6 Q1.85 -5.65 1.65 -6.1 L1.55 -6.65 Q1.55 -8.2 3.3 -8.15 6.15 -8.2 8.85 -6.55 11.2 -5.15 11.2 -4.3 L11.15 -4.15 11.05 -4.1 Q10.6 -4.7 9.25 -5.1 L9.0 -5.2 6.0 -5.8 2.65 -5.6 2.45 -5.6 M-7.5 -5.45 L-7.65 -5.45 -10.3 -4.5 -10.5 -4.55 Q-6.3 -8.45 -2.0 -8.4 -1.0 -8.4 -0.15 -7.25 L0.5 -5.95 Q0.5 -5.15 -0.3 -5.1 L-0.85 -5.3 -3.9 -5.9 -7.5 -5.45 M4.25 -1.0 L3.7 -1.55 Q3.7 -1.95 4.1 -1.95 4.6 -1.95 4.6 -1.4 4.6 -1.0 4.25 -1.0 M3.9 2.0 L3.2 1.6 1.95 0.6 Q1.6 -0.05 1.6 -1.6 1.6 -3.2 1.85 -3.4 3.1 -4.65 4.3 -4.65 L6.55 -4.5 7.4 -3.95 8.9 -2.85 Q9.85 -1.7 9.9 -0.55 L9.7 -0.35 9.9 -0.35 9.85 0.05 9.7 0.15 9.85 0.15 8.95 1.35 8.45 1.8 7.85 2.1 5.9 2.55 5.45 2.4 5.4 2.4 5.45 2.5 4.35 2.25 4.75 2.3 3.9 2.0 M9.0 0.85 Q9.6 0.15 9.6 -0.45 9.6 -2.05 7.85 -3.3 6.3 -4.4 4.95 -4.4 1.9 -4.4 1.9 -1.6 1.9 0.3 2.3 0.55 4.45 2.1 5.75 2.1 L6.1 2.1 6.5 2.15 Q7.8 2.15 9.0 0.85 M-14.1 -4.25 L-13.95 -4.25 -13.15 -3.4 -12.55 -2.55 -12.6 -1.7 -12.65 -1.45 -12.65 -1.35 -12.35 0.0 -11.85 1.3 -11.95 2.0 -12.55 3.45 -12.8 4.0 -12.7 4.25 -13.2 4.55 -13.85 4.45 Q-14.2 4.45 -14.45 5.0 L-14.5 5.0 -14.65 5.0 -14.55 4.8 Q-14.25 4.05 -13.55 4.3 L-12.9 4.3 -13.0 4.0 -12.4 2.7 -12.3 2.5 -12.3 2.45 -12.05 1.3 -12.5 0.15 -12.85 -1.35 -12.85 -1.45 -12.75 -2.55 Q-14.1 -3.8 -14.1 -4.25 M-10.05 -2.05 Q-9.6 -4.4 -3.7 -4.9 -0.65 -3.7 -0.65 -1.55 -0.65 -0.55 -1.9 0.65 L-3.15 1.55 -3.15 1.5 -3.45 1.7 -5.3 2.0 Q-7.35 2.0 -8.15 1.4 L-9.0 0.4 Q-10.1 -0.45 -10.1 -1.6 L-10.0 -1.8 -9.95 -1.9 -10.0 -2.0 -10.05 -2.05 M14.1 4.55 L13.4 3.95 12.85 4.15 Q12.45 4.15 12.4 3.7 L12.15 3.0 11.65 2.1 Q11.65 2.0 11.8 2.0 L11.9 2.05 11.85 1.7 12.35 -0.85 11.95 -3.15 Q11.95 -4.1 13.4 -4.85 L13.55 -4.8 13.6 -4.75 13.5 -4.65 Q12.15 -3.75 12.15 -3.1 L12.55 -0.85 12.5 -0.25 12.45 -0.2 12.5 -0.2 12.05 1.7 12.1 2.25 12.6 3.35 12.6 3.65 12.7 3.85 12.9 3.9 13.5 3.75 14.2 4.2 14.35 4.35 14.1 4.55 M-9.8 -2.05 L-9.8 -2.2 -9.85 -2.2 -9.85 -1.8 -9.85 -1.7 -9.8 -1.5 -9.25 -0.4 -8.8 0.2 -7.75 1.35 -7.7 1.35 -7.55 1.4 -7.6 1.5 -7.55 1.65 -7.25 1.65 -7.2 1.6 -7.3 1.5 -5.75 1.65 -5.75 1.7 -5.7 1.65 -5.65 1.65 Q-3.55 1.65 -2.1 0.35 -0.95 -0.75 -0.95 -1.55 -0.95 -2.15 -1.75 -3.2 -2.8 -4.5 -4.15 -4.5 -6.9 -4.5 -8.55 -3.4 -9.55 -2.7 -9.8 -2.05 M-1.45 -5.9 L-0.3 -5.55 Q0.2 -5.55 0.2 -6.0 0.2 -8.15 -3.2 -8.1 -3.85 -8.1 -6.55 -6.95 -6.9 -6.85 -9.45 -5.15 -7.35 -5.95 -5.3 -6.2 L-3.6 -6.3 -1.45 -5.9 M-2.9 -1.9 Q-2.9 -1.15 -3.5 -1.15 L-3.95 -1.7 Q-3.95 -2.4 -3.4 -2.4 -2.9 -2.4 -2.9 -1.9" fill="#000000" fill-rule="evenodd" stroke="none"/>
    <path d="M3.6 -5.9 L2.8 -5.9 Q1.85 -5.9 1.85 -6.65 L2.0 -7.2 Q2.25 -7.75 2.95 -7.75 7.1 -7.75 9.85 -5.25 9.05 -5.8 7.9 -6.0 L6.8 -6.25 3.6 -5.9 M4.7 -7.4 Q3.4 -7.4 3.3 -6.5 L3.55 -6.45 Q4.95 -7.0 4.95 -7.2 L4.7 -7.4 M13.5 -4.65 Q14.5 -2.05 14.5 0.95 L14.2 4.2 13.5 3.75 12.9 3.9 12.7 3.85 12.6 3.65 12.6 3.35 12.1 2.25 12.05 1.7 12.5 -0.2 13.15 -0.55 13.15 -0.45 Q13.15 0.5 13.4 0.55 13.8 -0.8 13.8 -2.05 L13.75 -2.2 13.7 -2.2 12.5 -0.25 12.55 -0.85 12.15 -3.1 Q12.15 -3.75 13.5 -4.65 M-13.4 -1.7 L-13.4 -2.15 Q-13.95 -1.4 -14.05 1.55 -14.05 3.5 -13.7 3.5 -13.2 3.5 -13.0 -1.7 -13.0 -2.1 -13.25 -2.05 L-13.4 -1.15 -13.55 -1.15 -13.4 -1.7 M-14.1 -4.25 Q-14.1 -3.8 -12.75 -2.55 L-12.85 -1.45 -12.85 -1.35 -12.5 0.15 -12.05 1.3 -12.3 2.45 -12.3 2.5 -12.4 2.7 -13.0 4.0 -12.9 4.3 -13.55 4.3 Q-14.25 4.05 -14.55 4.8 L-15.0 0.95 Q-15.0 -1.85 -14.1 -4.25 M-1.05 -7.35 L-1.15 -7.45 -4.3 -7.5 -6.15 -6.8 -6.15 -6.5 -5.85 -6.5 -3.65 -6.9 -1.4 -6.7 -1.05 -6.9 -1.0 -7.15 -1.05 -7.35 M-5.3 -6.2 Q-7.35 -5.95 -9.45 -5.15 -6.9 -6.85 -6.55 -6.95 -3.85 -8.1 -3.2 -8.1 0.2 -8.15 0.2 -6.0 0.2 -5.55 -0.3 -5.55 L-1.45 -5.9 -3.9 -6.35 -5.3 -6.2" fill="#c8c8c8" fill-rule="evenodd" stroke="none"/>
    <path d="M4.7 -7.4 L4.95 -7.2 Q4.95 -7.0 3.55 -6.45 L3.3 -6.5 Q3.4 -7.4 4.7 -7.4 M12.5 -0.25 L13.7 -2.2 13.75 -2.2 13.8 -2.05 Q13.8 -0.8 13.4 0.55 13.15 0.5 13.15 -0.45 L13.15 -0.55 12.5 -0.2 12.45 -0.2 12.5 -0.25 M-13.4 -1.7 L-13.55 -1.15 -13.4 -1.15 -13.25 -2.05 Q-13.0 -2.1 -13.0 -1.7 -13.2 3.5 -13.7 3.5 -14.05 3.5 -14.05 1.55 -13.95 -1.4 -13.4 -2.15 L-13.4 -1.7 M-1.05 -7.35 L-1.0 -7.15 -1.05 -6.9 -1.4 -6.7 -3.65 -6.9 -5.85 -6.5 -6.15 -6.5 -6.15 -6.8 -4.3 -7.5 -1.15 -7.45 -1.05 -7.35" fill="#d8d8d8" fill-rule="evenodd" stroke="none"/>
    <path d="M9.9 -0.55 L10.7 -0.7 10.75 -0.65 9.9 -0.35 9.7 -0.35 9.9 -0.55 M9.85 0.05 L10.1 0.0 10.75 0.1 10.7 0.15 9.85 0.15 9.7 0.15 9.85 0.05 M9.2 2.15 L8.95 2.5 Q8.2 2.9 7.5 2.9 L6.45 2.7 8.75 3.1 10.25 2.5 10.5 2.55 Q9.4 3.2 8.2 3.2 L6.35 2.85 6.35 2.75 5.45 2.5 5.4 2.4 5.45 2.4 5.9 2.55 6.35 2.65 7.15 2.7 9.05 2.25 9.2 2.15 M4.35 2.25 L3.7 2.1 3.7 1.95 3.75 1.95 3.9 2.0 4.75 2.3 4.35 2.25 M-11.45 -1.85 L-12.1 -2.0 -12.1 -2.3 -12.05 -2.3 -12.0 -2.05 -10.5 -2.0 -10.8 -1.8 -11.0 -1.85 -11.2 -1.85 -11.35 -1.85 -11.4 -1.9 -11.45 -1.85 M-3.15 1.55 Q-3.15 2.2 -4.6 2.55 L-4.95 2.5 -5.15 2.55 -5.8 2.7 -6.85 2.75 -6.55 2.75 -6.4 2.8 -7.7 2.95 -9.0 2.75 -7.65 2.75 Q-8.6 2.7 -9.1 2.05 L-9.05 2.0 -7.65 2.6 -4.35 2.25 -3.45 1.7 -3.15 1.5 -3.15 1.55 M-10.7 -1.0 L-11.05 -0.95 -10.7 -1.1 -10.7 -1.0 M-10.0 -2.0 L-9.95 -1.9 -10.0 -1.8 -10.0 -1.9 -10.0 -2.0 M3.5 11.25 L2.1 11.35 0.2 11.2 0.2 11.25 0.15 11.3 0.15 11.2 -1.35 10.95 -0.95 11.9 -1.0 11.95 -1.45 10.95 -1.9 10.85 -1.45 12.05 -1.5 12.3 -1.6 12.3 Q-1.85 11.3 -2.3 10.75 L-2.55 10.65 -5.3 9.8 -7.2 8.8 Q-8.4 8.05 -8.4 7.65 L-8.4 7.6 -8.5 7.8 -8.5 7.85 -7.8 8.95 Q-8.6 8.7 -8.6 7.9 L-9.95 9.1 Q-8.35 7.2 -8.35 6.65 -8.45 4.7 -7.0 4.2 L-7.95 5.55 -8.2 5.85 -2.2 6.1 -2.2 6.0 -1.2 5.35 Q-1.1 5.8 -2.05 6.1 L-0.95 6.15 -1.0 6.1 -0.4 5.8 -0.3 5.85 -0.8 6.15 -0.3 6.15 6.2 5.7 7.25 5.85 7.9 5.7 7.95 5.7 7.05 5.05 7.1 5.05 Q7.9 5.05 8.3 5.7 L8.4 5.7 8.45 5.8 8.4 5.9 8.5 6.45 8.55 7.15 8.45 8.3 Q8.45 9.2 8.8 9.5 L8.6 9.55 8.25 8.35 8.3 8.2 6.25 9.9 5.2 10.7 3.75 11.2 3.75 11.1 3.75 10.9 5.15 10.35 6.15 9.5 8.1 7.75 8.3 7.75 8.35 7.15 8.35 6.7 8.15 6.85 8.15 6.8 8.25 6.55 8.2 6.3 8.25 6.3 8.15 6.05 7.25 6.15 6.35 6.05 1.1 6.5 0.9 6.8 0.85 6.75 Q0.85 6.5 1.1 6.5 L0.7 6.5 -6.4 6.2 -8.2 6.0 -8.25 6.2 -8.15 6.95 -8.4 7.35 -8.35 7.5 -8.25 7.45 Q-8.1 8.3 -5.35 9.4 L-3.0 10.15 -2.85 10.15 -3.0 10.1 -3.0 10.0 -2.85 10.0 Q-2.55 9.95 -2.25 10.3 L-2.2 10.3 2.1 11.05 3.4 10.95 3.5 11.25 M-10.0 0.95 L-10.05 0.85 -10.05 0.6 -10.0 0.6 -9.8 1.0 -9.95 0.8 -10.0 0.95 M-8.7 9.1 L-8.25 9.6 -8.25 9.65 -8.75 9.1 -8.7 9.1 M-4.65 7.3 L-4.65 7.25 -4.55 7.3 -4.65 7.3 M-0.8 11.65 L-0.7 11.8 -0.75 11.85 -0.8 11.65 M-10.65 1.35 L-9.0 2.75 -10.2 2.15 Q-10.7 1.85 -10.7 1.35 L-10.65 1.35 M-11.8 4.45 L-11.85 3.7 Q-11.85 2.9 -11.55 2.6 L-11.45 2.65 -11.75 3.7 -10.45 6.9 -10.45 7.2 -10.5 7.25 -10.6 7.3 -10.55 7.0 Q-11.6 5.9 -11.8 4.45 M10.8 2.6 L11.1 3.65 10.8 4.85 11.0 3.7 10.75 2.6 10.8 2.6 M1.9 5.85 L1.8 6.0 1.5 6.0 1.5 5.9 1.9 5.85 M0.5 12.3 L0.4 12.1 0.4 11.8 0.5 11.8 0.55 12.2 0.5 12.3 M8.25 8.7 L8.05 9.1 7.9 9.05 8.25 8.7" fill="#865204" fill-rule="evenodd" stroke="none"/>
    <path d="M4.25 -1.0 Q4.6 -1.0 4.6 -1.4 4.6 -1.95 4.1 -1.95 3.7 -1.95 3.7 -1.55 L4.25 -1.0 M6.1 2.1 L5.75 2.1 Q4.45 2.1 2.3 0.55 1.9 0.3 1.9 -1.6 1.9 -4.4 4.95 -4.4 6.3 -4.4 7.85 -3.3 9.6 -2.05 9.6 -0.45 9.6 0.15 9.0 0.85 L9.05 0.75 9.0 0.65 Q7.55 1.85 5.8 1.95 L6.1 2.1 M9.3 -0.5 L9.0 -0.35 9.3 -0.15 9.4 -0.25 9.35 -0.25 9.35 -0.45 9.3 -0.5 M7.75 -0.3 L7.6 -0.3 7.65 0.05 7.7 0.05 8.4 0.7 8.4 0.75 8.45 0.8 8.5 0.75 8.55 0.8 8.65 0.7 8.65 0.6 7.85 0.0 7.75 0.0 7.85 -0.25 7.75 -0.3 M8.65 -0.25 L8.65 -0.1 8.75 -0.05 9.0 -0.15 8.85 -0.25 8.65 -0.25 M-9.8 -2.05 Q-9.55 -2.7 -8.55 -3.4 -6.9 -4.5 -4.15 -4.5 -2.8 -4.5 -1.75 -3.2 -0.95 -2.15 -0.95 -1.55 -0.95 -0.75 -2.1 0.35 -3.55 1.65 -5.65 1.65 L-5.7 1.65 -5.65 1.6 -5.7 1.4 -5.85 1.45 -5.75 1.65 -7.3 1.5 -7.45 1.3 -7.55 1.3 -7.55 1.4 -7.7 1.35 -7.65 1.3 -7.7 1.2 -7.95 0.9 -7.65 0.9 -7.65 0.85 Q-7.8 0.7 -8.1 0.7 L-8.4 0.35 Q-8.05 0.2 -7.95 -0.15 L-8.15 -0.4 Q-7.75 -0.6 -7.65 -0.7 -7.9 -0.55 -8.2 -0.45 L-8.5 -0.7 -8.55 -0.7 -8.15 -0.1 -8.5 0.3 Q-9.7 -1.25 -9.8 -2.05 M-8.8 0.2 L-9.25 -0.4 -9.05 -0.2 -8.8 0.2 M-2.9 -1.9 Q-2.9 -2.4 -3.4 -2.4 -3.95 -2.4 -3.95 -1.7 L-3.5 -1.15 Q-2.9 -1.15 -2.9 -1.9 M7.65 0.6 L8.05 0.5 7.5 0.3 7.3 0.35 Q6.75 0.35 6.75 0.6 6.9 0.45 7.35 0.45 L7.65 0.6 M8.55 0.35 L8.7 0.35 8.8 0.25 8.6 0.15 8.5 0.25 8.55 0.35 M9.05 0.25 L9.25 0.3 9.1 0.0 9.05 0.0 9.05 0.25" fill="#ffffff" fill-rule="evenodd" stroke="none"/>
    <path d="M6.1 2.1 L5.8 1.95 Q7.55 1.85 9.0 0.65 L9.05 0.75 9.0 0.85 Q7.8 2.15 6.5 2.15 L6.1 2.1 M8.65 -0.25 L8.85 -0.25 9.0 -0.15 8.75 -0.05 8.65 -0.1 8.65 -0.25 M7.75 -0.3 L7.85 -0.25 7.75 0.0 7.85 0.0 8.65 0.6 8.65 0.7 8.55 0.8 8.5 0.75 8.45 0.8 8.4 0.75 8.4 0.7 7.7 0.05 7.65 0.05 7.6 -0.3 7.75 -0.3 M9.3 -0.5 L9.35 -0.45 9.35 -0.25 9.4 -0.25 9.3 -0.15 9.0 -0.35 9.3 -0.5 M-9.25 -0.4 L-9.8 -1.5 -9.85 -1.7 -9.85 -1.8 -9.85 -2.2 -9.8 -2.2 -9.8 -2.05 Q-9.7 -1.25 -8.5 0.3 L-8.15 -0.1 -8.55 -0.7 -8.5 -0.7 -8.2 -0.45 Q-7.9 -0.55 -7.65 -0.7 -7.75 -0.6 -8.15 -0.4 L-7.95 -0.15 Q-8.05 0.2 -8.4 0.35 L-8.1 0.7 Q-7.8 0.7 -7.65 0.85 L-7.65 0.9 -7.95 0.9 -7.7 1.2 -7.65 1.3 -7.7 1.35 -7.75 1.35 -8.8 0.2 -9.05 -0.2 -9.25 -0.4 M-5.7 1.65 L-5.75 1.7 -5.75 1.65 -5.85 1.45 -5.7 1.4 -5.65 1.6 -5.7 1.65 M-7.3 1.5 L-7.2 1.6 -7.25 1.65 -7.55 1.65 -7.6 1.5 -7.55 1.4 -7.55 1.3 -7.45 1.3 -7.3 1.5 M9.05 0.25 L9.05 0.0 9.1 0.0 9.25 0.3 9.05 0.25 M8.55 0.35 L8.5 0.25 8.6 0.15 8.8 0.25 8.7 0.35 8.55 0.35 M7.65 0.6 L7.35 0.45 Q6.9 0.45 6.75 0.6 6.75 0.35 7.3 0.35 L7.5 0.3 8.05 0.5 7.65 0.6" fill="#fe503d" fill-rule="evenodd" stroke="none"/>
    <path d="M-8.15 6.95 L-8.25 6.2 -8.2 6.0 -6.4 6.2 0.7 6.5 1.1 6.5 Q0.85 6.5 0.85 6.75 L0.9 6.8 1.1 6.5 6.35 6.05 7.25 6.15 8.15 6.05 8.25 6.3 8.2 6.3 8.25 6.55 8.15 6.8 8.15 6.85 8.35 6.7 8.35 7.15 8.3 7.75 8.1 7.75 6.15 9.5 5.15 10.35 3.75 10.9 Q3.7 9.55 2.75 8.9 0.75 7.4 -1.4 7.4 L-2.2 7.55 Q-3.35 6.55 -5.35 6.55 L-8.15 6.95" fill="#6a0300" fill-rule="evenodd" stroke="none"/>
    <path d="M3.4 10.95 L2.1 11.05 -2.2 10.3 -2.25 10.3 Q-2.55 9.95 -2.85 10.0 L-3.0 10.0 -3.0 10.1 -3.0 10.15 -5.35 9.4 Q-8.1 8.3 -8.25 7.45 L-5.55 6.95 Q-3.45 6.95 -2.45 7.75 L-2.55 7.9 -2.45 7.95 -2.3 7.9 -2.0 8.3 -1.25 9.6 -1.1 9.55 -1.05 9.35 Q-1.05 8.65 -1.85 7.85 L-1.9 7.8 -1.45 7.7 Q1.15 7.7 2.5 9.2 L3.4 10.95 M-6.2 7.4 L-6.2 7.45 -6.15 7.5 -6.2 7.4 M-4.65 7.3 L-4.55 7.3 -4.65 7.25 -4.65 7.3" fill="#aa0400" fill-rule="evenodd" stroke="none"/>
    <path d="M3.5 11.25 L3.4 10.95 2.5 9.2 Q1.15 7.7 -1.45 7.7 L-1.9 7.8 -1.85 7.85 Q-1.05 8.65 -1.05 9.35 L-1.1 9.55 -1.25 9.6 -2.0 8.3 -2.3 7.9 -2.45 7.95 -2.55 7.9 -2.45 7.75 Q-3.45 6.95 -5.55 6.95 L-8.25 7.45 -8.35 7.5 -8.4 7.35 -8.15 6.95 -5.35 6.55 Q-3.35 6.55 -2.2 7.55 L-1.4 7.4 Q0.75 7.4 2.75 8.9 3.7 9.55 3.75 10.9 L3.75 11.1 3.75 11.2 3.55 11.35 3.5 11.25" fill="#420200" fill-rule="evenodd" stroke="none"/>
    <path d="M13.4 -4.85 Q12.35 -7.45 10.3 -9.55 L10.15 -9.7 Q6.05 -13.85 0.35 -14.1 L-0.25 -14.1 Q-6.35 -14.1 -10.7 -9.7 L-12.5 -7.45 Q-13.55 -5.95 -14.1 -4.25 -15.0 -1.85 -15.0 0.95 L-14.55 4.8 M-14.5 5.0 L-14.5 5.05 Q-13.55 8.7 -10.7 11.55 -7.65 14.65 -3.75 15.6 L-0.25 16.0 3.25 15.6 Q7.15 14.65 10.15 11.55 L10.25 11.45 10.8 10.9 10.95 10.7 12.15 9.15 12.75 8.2 12.75 8.1 14.1 4.55 M13.5 -4.65 Q14.5 -2.05 14.5 0.95 L14.2 4.2" fill="none" stroke="#865204" stroke-linecap="round" stroke-linejoin="round" stroke-width="0.5"/>
  </g>
</svg>
