<?xml version="1.0" encoding="UTF-8" standalone="no"?>
<svg xmlns:xlink="http://www.w3.org/1999/xlink" height="30.4px" width="30.0px" xmlns="http://www.w3.org/2000/svg">
  <g transform="matrix(1.0, 0.0, 0.0, 1.0, 15.25, 14.35)">
    <path d="M2.45 -12.1 L2.45 -12.15 Q1.25 -13.4 -1.55 -13.4 L-2.4 -13.35 Q-4.35 -13.1 -4.35 -12.25 -4.35 -11.15 -1.95 -11.15 1.7 -11.15 2.45 -12.1 M4.45 -10.75 L4.4 -10.95 1.35 -10.95 -3.5 -10.05 -3.25 -9.9 4.4 -10.55 4.45 -10.75 M6.5 -9.2 L6.8 -9.55 6.25 -9.85 -3.55 -9.2 Q-4.55 -8.6 -5.75 -8.4 L-5.7 -8.3 Q-2.75 -9.25 -0.4 -9.25 L6.5 -9.2 M9.0 -5.25 L9.25 -5.15 Q10.6 -4.75 11.05 -4.15 L11.15 -4.2 11.2 -4.35 Q11.2 -5.2 8.85 -6.6 6.15 -8.25 3.3 -8.2 1.55 -8.25 1.55 -6.7 L1.65 -6.15 Q1.85 -5.7 2.45 -5.65 1.45 -5.35 1.45 -5.0 1.45 -4.6 2.0 -4.6 L3.6 -4.95 6.5 -5.3 Q7.9 -5.3 8.5 -4.35 9.65 -2.5 10.55 -1.75 L10.95 -2.3 10.05 -3.65 10.35 -3.7 10.35 -3.95 9.9 -3.95 9.6 -4.4 9.0 -5.25 M-7.5 -5.5 L-7.65 -5.45 -9.65 -4.15 -9.65 -3.75 -9.45 -3.7 -7.4 -4.8 Q-5.65 -5.55 -4.5 -5.55 -3.65 -5.55 -2.55 -4.75 L-1.65 -4.55 -1.0 -4.15 Q0.1 -4.15 0.85 -4.9 L0.55 -4.95 0.05 -4.85 Q-0.4 -4.85 -0.85 -5.35 L-0.3 -5.15 Q0.5 -5.2 0.5 -6.0 L-0.15 -7.3 Q-1.0 -8.45 -2.0 -8.45 -6.3 -8.5 -10.5 -4.6 L-10.3 -4.55 -7.65 -5.5 -7.5 -5.5 M1.55 -0.15 L1.15 -1.4 Q0.75 -3.55 0.3 -3.55 -0.35 -3.55 -0.35 -2.75 L-0.15 -1.4 -0.05 0.0 -0.05 0.05 Q-1.65 1.35 -1.75 2.0 L-1.75 2.1 -2.45 2.25 -2.9 2.35 -2.9 2.55 -2.7 2.55 -2.7 2.6 -2.65 2.75 -2.5 2.8 Q-2.0 2.8 -1.8 2.5 L-0.15 2.45 0.05 2.3 0.15 2.35 1.7 2.15 Q2.25 2.1 2.25 1.8 2.25 1.4 1.7 1.55 L1.7 1.5 2.0 1.1 1.45 0.25 1.55 -0.15 M9.9 -0.65 Q9.85 -1.8 8.9 -2.9 L7.4 -4.0 6.55 -4.55 4.3 -4.7 Q3.1 -4.7 1.85 -3.45 1.6 -3.25 1.6 -1.7 1.6 -0.15 1.95 0.5 L3.2 1.5 3.9 1.9 3.75 1.85 3.7 1.85 3.7 2.0 4.35 2.15 5.45 2.4 6.35 2.65 6.35 2.75 8.2 3.1 Q9.4 3.1 10.5 2.45 L10.25 2.4 8.75 3.0 6.45 2.6 7.5 2.8 Q8.2 2.8 8.95 2.4 L9.2 2.05 9.9 1.65 10.65 0.85 10.65 0.8 10.8 0.9 11.15 0.65 Q10.75 0.25 10.45 0.25 L10.35 0.65 Q10.05 0.75 9.35 1.35 L8.45 1.7 8.95 1.25 9.85 0.05 10.7 0.05 10.75 0.0 10.1 -0.1 9.85 -0.05 9.9 -0.45 10.75 -0.75 10.7 -0.8 9.9 -0.65 M-14.1 -4.3 Q-13.55 -6.0 -12.5 -7.5 L-10.7 -9.75 Q-6.35 -14.1 -0.25 -14.1 L0.35 -14.1 Q6.05 -13.85 10.15 -9.75 L10.3 -9.6 Q12.35 -7.5 13.4 -4.9 11.95 -4.15 11.95 -3.2 L12.35 -0.95 11.85 1.6 11.9 1.95 11.8 1.9 Q11.65 1.9 11.65 2.0 L12.15 2.9 12.4 3.6 Q12.45 4.05 12.85 4.05 L13.4 3.85 14.1 4.45 12.75 7.95 12.75 8.05 12.15 9.0 10.95 10.55 10.8 10.75 10.25 11.3 10.15 11.4 Q7.15 14.45 3.25 15.4 L-0.25 15.8 -3.75 15.4 Q-7.65 14.45 -10.7 11.4 -13.55 8.55 -14.5 4.9 L-14.5 4.85 -14.45 4.85 Q-14.2 4.35 -13.85 4.35 L-13.2 4.45 -12.7 4.15 -12.8 3.9 -12.55 3.35 -12.4 3.65 -12.0 2.5 -11.85 2.25 -11.95 1.9 Q-11.7 1.7 -11.75 1.05 L-11.0 0.45 -10.55 0.05 -10.65 -0.05 -10.7 0.0 -10.7 -0.15 -9.85 -0.5 -10.05 -0.75 -11.6 -0.35 -12.35 -0.1 -12.65 -1.45 -12.2 -1.45 -12.05 -1.3 -11.5 -1.4 -12.35 -0.75 -12.15 -0.6 -11.7 -0.75 -11.7 -0.7 -11.65 -0.7 -11.4 -0.75 -11.4 -0.85 -11.05 -1.05 -10.7 -1.1 -10.5 -0.85 Q-10.2 -0.9 -10.2 -1.3 L-10.2 -1.55 -10.1 -1.7 Q-10.1 -0.55 -9.0 0.3 L-8.15 1.3 Q-7.35 1.9 -5.3 1.9 L-3.45 1.6 -4.35 2.15 -7.65 2.5 -9.05 1.9 -9.1 1.95 Q-8.6 2.6 -7.65 2.65 L-9.0 2.65 -10.65 1.25 -10.7 1.25 Q-10.7 1.75 -10.2 2.05 L-9.0 2.65 -7.7 2.85 -6.4 2.7 -6.55 2.65 -6.85 2.65 -5.8 2.6 Q-8.5 3.2 -8.65 3.55 L-8.85 3.5 Q-9.85 3.5 -9.85 4.75 L-9.75 5.65 Q-9.75 6.4 -10.85 8.0 L-10.65 8.2 -10.95 8.75 -10.9 8.85 -10.95 9.25 -10.4 10.55 -10.1 10.3 -10.45 9.2 -10.3 8.55 -10.3 8.5 Q-9.65 8.35 -8.85 5.65 L-9.0 4.75 -8.5 3.95 -8.0 4.05 -7.9 4.0 -8.1 3.75 Q-4.45 2.95 -4.45 2.7 L-4.6 2.45 Q-3.15 2.1 -3.15 1.45 L-1.9 0.55 Q-0.65 -0.65 -0.65 -1.65 -0.65 -3.75 -3.7 -4.95 -9.6 -4.45 -10.05 -2.15 L-10.3 -2.25 -10.5 -2.1 -12.0 -2.15 -12.05 -2.4 -12.1 -2.4 -12.1 -2.1 -11.45 -1.95 -11.7 -1.9 -11.85 -1.85 -12.6 -1.8 -12.55 -2.65 -13.15 -3.45 -13.95 -4.3 -14.1 -4.3 M11.45 -2.2 Q11.6 -2.2 11.75 -2.35 L11.5 -2.6 Q11.15 -2.6 11.15 -2.4 L11.45 -2.2 M10.45 1.7 L10.3 1.55 Q9.95 1.65 9.25 2.25 L9.6 2.45 Q10.45 2.4 10.45 1.7 M10.8 2.5 L10.75 2.5 11.0 3.6 10.8 4.7 11.1 3.55 10.8 2.5 M10.25 7.2 L10.3 8.2 Q10.45 9.15 11.05 9.15 L11.3 8.9 Q10.75 8.85 10.75 7.2 L10.55 5.4 Q10.25 5.85 10.25 7.2 M11.8 6.0 L11.55 5.55 11.25 5.8 Q11.25 6.25 11.55 6.25 L11.8 6.0 M7.85 2.0 L7.8 2.05 7.85 2.25 8.4 2.3 9.05 2.15 7.15 2.6 6.35 2.55 5.9 2.45 7.85 2.0 M5.55 3.1 Q5.55 3.5 7.1 4.0 L8.6 5.05 8.65 5.05 8.9 5.85 8.8 8.3 8.85 9.3 8.85 9.65 Q9.05 10.85 9.75 10.85 10.35 10.85 10.35 10.45 9.7 9.5 9.7 8.3 L9.8 6.25 Q9.7 4.5 8.9 4.5 L8.8 4.55 Q8.55 4.15 7.75 3.7 6.6 3.05 5.8 3.05 L5.55 3.1 M3.75 11.05 L5.2 10.55 6.25 9.75 8.3 8.05 8.25 8.2 8.6 9.4 8.8 9.35 Q8.45 9.05 8.45 8.15 L8.55 7.0 8.5 6.3 8.4 5.75 8.45 5.65 8.4 5.55 8.3 5.55 Q7.9 4.9 7.1 4.9 L7.05 4.9 7.95 5.55 7.9 5.55 7.25 5.7 6.2 5.55 -0.3 6.0 -0.8 6.0 -0.3 5.7 -0.4 5.65 -1.0 5.95 -0.95 6.0 -2.05 5.95 Q-1.1 5.65 -1.2 5.2 L-2.2 5.85 -2.2 5.95 -8.2 5.7 -7.95 5.4 -7.0 4.1 Q-8.45 4.6 -8.35 6.5 -8.35 7.05 -9.95 8.95 L-8.6 7.75 Q-8.6 8.55 -7.8 8.8 L-8.5 7.7 -8.5 7.65 -8.4 7.45 -8.4 7.5 Q-8.4 7.9 -7.2 8.65 L-5.3 9.65 -2.55 10.5 -2.3 10.6 Q-1.85 11.15 -1.6 12.1 L-1.5 12.1 -1.45 11.9 -1.9 10.7 -1.45 10.8 -1.0 11.8 -0.95 11.75 -1.35 10.8 0.15 11.05 0.15 11.15 0.2 11.1 0.2 11.05 2.1 11.2 3.5 11.1 3.55 11.2 3.75 11.05 M-3.0 9.95 L-2.85 10.0 -3.0 10.0 -3.0 9.95 M0.5 12.1 L0.55 12.05 0.5 11.65 0.4 11.65 0.4 11.95 0.5 12.1 M1.9 5.7 L1.5 5.75 1.5 5.85 1.8 5.85 1.9 5.7 M8.25 8.55 L7.9 8.9 8.05 8.95 8.25 8.55 M-10.35 -3.25 Q-11.7 -3.55 -11.65 -3.8 L-11.85 -3.65 Q-11.85 -3.35 -10.75 -2.95 L-10.35 -2.95 -10.3 -3.1 -10.35 -3.25 M-2.55 -12.65 L-1.9 -12.65 -2.0 -12.55 -3.4 -12.15 -3.55 -12.25 Q-3.25 -12.7 -2.55 -12.65 M-10.0 0.85 L-10.05 1.0 Q-10.05 1.6 -9.4 1.6 L-9.2 1.55 Q-8.55 2.25 -7.8 2.3 L-7.65 2.25 -7.6 2.0 -9.0 1.05 -10.15 -0.15 -10.3 -0.05 -10.0 0.5 -10.05 0.5 -10.05 0.75 -10.0 0.85 M-10.0 0.5 L-9.7 0.95 -9.8 0.9 -10.0 0.5 M-8.7 8.95 L-8.75 8.95 -8.25 9.5 -8.25 9.45 -8.7 8.95 M-11.8 4.35 Q-11.6 5.75 -10.55 6.85 L-10.6 7.15 -10.5 7.1 -10.45 7.05 -10.45 6.75 -11.75 3.6 -11.45 2.55 -11.55 2.5 Q-11.85 2.8 -11.85 3.6 L-11.8 4.35 -12.3 3.7 -12.35 3.7 -12.4 3.85 -11.9 4.6 -11.8 4.35 M-0.7 11.65 L-0.8 11.5 -0.75 11.7 -0.7 11.65 M-10.45 8.4 L-10.45 8.45 -10.5 8.45 -10.45 8.4 M-11.25 3.45 L-10.7 4.3 Q-10.4 4.3 -10.4 3.5 -10.3 2.7 -10.8 2.7 -11.25 2.7 -11.25 3.45" fill="#fbc87b" fill-rule="evenodd" stroke="none"/>
    <path d="M6.5 -9.2 L-0.4 -9.25 Q-2.75 -9.25 -5.7 -8.3 L-5.75 -8.4 Q-4.55 -8.6 -3.55 -9.2 L6.25 -9.85 6.8 -9.55 6.5 -9.2 M4.45 -10.75 L4.4 -10.55 -3.25 -9.9 -3.5 -10.05 1.35 -10.95 4.4 -10.95 4.45 -10.75 M2.45 -12.1 Q1.7 -11.15 -1.95 -11.15 -4.35 -11.15 -4.35 -12.25 -4.35 -13.1 -2.4 -13.35 L-1.55 -13.4 Q1.25 -13.4 2.45 -12.15 L2.45 -12.1 M3.6 -5.95 L6.8 -6.3 7.9 -6.05 6.0 -6.2 3.6 -5.95 M9.0 -5.25 L9.6 -4.4 9.9 -3.95 10.35 -3.95 10.35 -3.7 10.05 -3.65 10.95 -2.3 10.55 -1.75 Q9.65 -2.5 8.5 -4.35 7.9 -5.3 6.5 -5.3 L3.6 -4.95 2.0 -4.6 Q1.45 -4.6 1.45 -5.0 1.45 -5.35 2.45 -5.65 L2.65 -5.65 6.0 -5.85 9.0 -5.25 M-0.85 -5.35 Q-0.4 -4.85 0.05 -4.85 L0.55 -4.95 0.85 -4.9 Q0.1 -4.15 -1.0 -4.15 L-1.65 -4.55 -2.55 -4.75 Q-3.65 -5.55 -4.5 -5.55 -5.65 -5.55 -7.4 -4.8 L-9.45 -3.7 -9.65 -3.75 -9.65 -4.15 -7.65 -5.45 -7.5 -5.5 -3.9 -5.95 -0.85 -5.35 M1.55 -0.15 L1.45 0.25 2.0 1.1 1.7 1.5 1.7 1.55 Q2.25 1.4 2.25 1.8 2.25 2.1 1.7 2.15 L0.15 2.35 0.05 2.3 -0.15 2.45 -1.8 2.5 Q-2.0 2.8 -2.5 2.8 L-2.65 2.75 -2.7 2.6 -2.7 2.55 -2.9 2.55 -2.9 2.35 -2.45 2.25 -1.75 2.1 -1.75 2.0 Q-1.65 1.35 -0.05 0.05 L-0.05 0.0 -0.15 -1.4 -0.35 -2.75 Q-0.35 -3.55 0.3 -3.55 0.75 -3.55 1.15 -1.4 L1.55 -0.15 M8.45 1.7 L9.35 1.35 Q10.05 0.75 10.35 0.65 L10.45 0.25 Q10.75 0.25 11.15 0.65 L10.8 0.9 10.65 0.8 10.65 0.85 9.9 1.65 9.2 2.05 9.05 2.15 8.4 2.3 7.85 2.25 7.8 2.05 7.85 2.0 8.45 1.7 M-12.6 -1.8 L-11.85 -1.85 -11.7 -1.9 -11.45 -1.95 -11.4 -2.0 -11.35 -1.95 -11.0 -1.95 -10.8 -1.9 -10.5 -2.1 -10.3 -2.25 -10.05 -2.15 -10.0 -2.1 -10.0 -2.0 -10.0 -1.9 -10.1 -1.7 -10.2 -1.55 -10.2 -1.3 Q-10.2 -0.9 -10.5 -0.85 L-10.7 -1.1 -10.7 -1.2 -11.05 -1.05 -11.4 -0.85 -11.4 -0.75 -11.65 -0.7 -11.7 -0.7 -11.7 -0.75 -12.15 -0.6 -12.35 -0.75 -11.5 -1.4 -12.05 -1.3 -12.2 -1.45 -12.65 -1.45 -12.65 -1.55 -12.6 -1.8 M-4.6 2.45 L-4.45 2.7 Q-4.45 2.95 -8.1 3.75 L-7.9 4.0 -8.0 4.05 -8.5 3.95 -9.0 4.75 -8.85 5.65 Q-9.65 8.35 -10.3 8.5 L-10.3 8.55 -10.45 9.2 -10.1 10.3 -10.4 10.55 -10.95 9.25 -10.9 8.85 -10.95 8.75 -10.65 8.2 -10.85 8.0 Q-9.75 6.4 -9.75 5.65 L-9.85 4.75 Q-9.85 3.5 -8.85 3.5 L-8.65 3.55 Q-8.5 3.2 -5.8 2.6 L-5.15 2.45 -4.95 2.4 -4.6 2.45 M-12.35 -0.1 L-11.6 -0.35 -10.05 -0.75 -9.85 -0.5 -10.7 -0.15 -10.7 0.0 -10.65 -0.05 -10.55 0.05 -11.0 0.45 -11.75 1.05 Q-11.7 1.7 -11.95 1.9 L-11.85 2.25 -12.0 2.5 -12.4 3.65 -12.55 3.35 -11.95 1.9 -11.85 1.2 -12.35 -0.1 M11.45 -2.2 L11.15 -2.4 Q11.15 -2.6 11.5 -2.6 L11.75 -2.35 Q11.6 -2.2 11.45 -2.2 M10.45 1.7 Q10.45 2.4 9.6 2.45 L9.25 2.25 Q9.95 1.65 10.3 1.55 L10.45 1.7 M11.8 6.0 L11.55 6.25 Q11.25 6.25 11.25 5.8 L11.55 5.55 11.8 6.0 M10.25 7.2 Q10.25 5.85 10.55 5.4 L10.75 7.2 Q10.75 8.85 11.3 8.9 L11.05 9.15 Q10.45 9.15 10.3 8.2 L10.25 7.2 M5.55 3.1 L5.8 3.05 Q6.6 3.05 7.75 3.7 8.55 4.15 8.8 4.55 L8.9 4.5 Q9.7 4.5 9.8 6.25 L9.7 8.3 Q9.7 9.5 10.35 10.45 10.35 10.85 9.75 10.85 9.05 10.85 8.85 9.65 L8.85 9.3 8.8 8.3 8.9 5.85 8.65 5.05 8.6 5.05 7.1 4.0 Q5.55 3.5 5.55 3.1 M-2.55 -12.65 Q-3.25 -12.7 -3.55 -12.25 L-3.4 -12.15 -2.0 -12.55 -1.9 -12.65 -2.55 -12.65 M-10.35 -3.25 L-10.3 -3.1 -10.35 -2.95 -10.75 -2.95 Q-11.85 -3.35 -11.85 -3.65 L-11.65 -3.8 Q-11.7 -3.55 -10.35 -3.25 M-10.0 0.5 L-10.3 -0.05 -10.15 -0.15 -9.0 1.05 -7.6 2.0 -7.65 2.25 -7.8 2.3 Q-8.55 2.25 -9.2 1.55 L-9.4 1.6 Q-10.05 1.6 -10.05 1.0 L-10.0 0.85 -9.95 0.7 -9.8 0.9 -9.7 0.95 -10.0 0.5 M-5.3 -6.25 L-3.9 -6.4 -1.45 -5.95 -3.6 -6.35 -5.3 -6.25 M-6.2 7.25 L-6.15 7.35 -6.2 7.3 -6.2 7.25 M-11.8 4.35 L-11.9 4.6 -12.4 3.85 -12.35 3.7 -12.3 3.7 -11.8 4.35 M-11.25 3.45 Q-11.25 2.7 -10.8 2.7 -10.3 2.7 -10.4 3.5 -10.4 4.3 -10.7 4.3 L-11.25 3.45 M-10.45 8.4 L-10.5 8.45 -10.45 8.45 -10.45 8.4" fill="#fcd79e" fill-rule="evenodd" stroke="none"/>
    <path d="M3.6 -5.95 L2.8 -5.95 Q1.85 -5.95 1.85 -6.7 L2.0 -7.25 Q2.25 -7.8 2.95 -7.8 7.1 -7.8 9.85 -5.3 9.05 -5.85 7.9 -6.05 L6.8 -6.3 3.6 -5.95 M4.7 -7.45 Q3.4 -7.45 3.3 -6.55 L3.55 -6.5 Q4.95 -7.05 4.95 -7.25 L4.7 -7.45 M13.5 -4.7 Q14.5 -2.15 14.5 0.85 L14.2 4.1 13.5 3.65 12.9 3.8 12.7 3.75 12.6 3.55 12.6 3.25 12.1 2.15 12.05 1.6 12.5 -0.3 13.15 -0.65 13.15 -0.55 Q13.15 0.4 13.4 0.45 13.8 -0.9 13.8 -2.15 L13.75 -2.3 13.7 -2.3 12.5 -0.35 12.55 -0.95 12.15 -3.15 Q12.15 -3.8 13.5 -4.7 M-13.25 -2.15 L-13.4 -1.25 -13.55 -1.25 -13.4 -1.8 -13.4 -2.25 Q-13.95 -1.5 -14.05 1.45 -14.05 3.4 -13.7 3.4 -13.2 3.4 -13.0 -1.8 -13.0 -2.2 -13.25 -2.15 M-14.1 -4.3 Q-14.1 -3.85 -12.75 -2.65 L-12.85 -1.55 -12.85 -1.45 -12.5 0.05 -12.05 1.2 -12.3 2.35 -12.3 2.4 -12.4 2.6 -13.0 3.9 -12.9 4.2 -13.55 4.2 Q-14.25 3.95 -14.55 4.65 -15.0 2.85 -15.0 0.85 -15.0 -1.95 -14.1 -4.3 M-1.0 -7.2 L-1.05 -7.4 -1.15 -7.5 -4.3 -7.55 -6.15 -6.85 -6.15 -6.55 -5.85 -6.55 -3.65 -6.95 -1.4 -6.75 -1.05 -6.95 -1.0 -7.2 M-5.3 -6.25 Q-7.35 -6.0 -9.45 -5.2 -6.9 -6.9 -6.55 -7.0 -3.85 -8.15 -3.2 -8.15 0.2 -8.2 0.2 -6.05 0.2 -5.6 -0.3 -5.6 L-1.45 -5.95 -3.9 -6.4 -5.3 -6.25" fill="#c8c8c8" fill-rule="evenodd" stroke="none"/>
    <path d="M7.9 -6.05 Q9.05 -5.85 9.85 -5.3 7.1 -7.8 2.95 -7.8 2.25 -7.8 2.0 -7.25 L1.85 -6.7 Q1.85 -5.95 2.8 -5.95 L3.6 -5.95 6.0 -6.2 7.9 -6.05 M2.45 -5.65 Q1.85 -5.7 1.65 -6.15 L1.55 -6.7 Q1.55 -8.25 3.3 -8.2 6.15 -8.25 8.85 -6.6 11.2 -5.2 11.2 -4.35 L11.15 -4.2 11.05 -4.15 Q10.6 -4.75 9.25 -5.15 L9.0 -5.25 6.0 -5.85 2.65 -5.65 2.45 -5.65 M-7.5 -5.5 L-7.65 -5.5 -10.3 -4.55 -10.5 -4.6 Q-6.3 -8.5 -2.0 -8.45 -1.0 -8.45 -0.15 -7.3 L0.5 -6.0 Q0.5 -5.2 -0.3 -5.15 L-0.85 -5.35 -3.9 -5.95 -7.5 -5.5 M3.7 -1.65 Q3.7 -2.05 4.1 -2.05 4.6 -2.05 4.6 -1.5 4.6 -1.1 4.25 -1.1 L3.7 -1.65 M9.0 0.75 Q9.6 0.05 9.6 -0.55 9.6 -2.15 7.85 -3.35 6.3 -4.45 4.95 -4.45 1.9 -4.45 1.9 -1.7 1.9 0.2 2.3 0.45 4.45 2.0 5.75 2.0 L6.1 2.0 6.5 2.05 Q7.8 2.05 9.0 0.75 M3.9 1.9 L3.2 1.5 1.95 0.5 Q1.6 -0.15 1.6 -1.7 1.6 -3.25 1.85 -3.45 3.1 -4.7 4.3 -4.7 L6.55 -4.55 7.4 -4.0 8.9 -2.9 Q9.85 -1.8 9.9 -0.65 L9.7 -0.45 9.9 -0.45 9.85 -0.05 9.7 0.05 9.85 0.05 8.95 1.25 8.45 1.7 7.85 2.0 5.9 2.45 5.45 2.3 5.4 2.3 5.45 2.4 4.35 2.15 4.75 2.2 3.9 1.9 M-14.1 -4.3 L-13.95 -4.3 -13.15 -3.45 -12.55 -2.65 -12.6 -1.8 -12.65 -1.55 -12.65 -1.45 -12.35 -0.1 -11.85 1.2 -11.95 1.9 -12.55 3.35 -12.8 3.9 -12.7 4.15 -13.2 4.45 -13.85 4.35 Q-14.2 4.35 -14.45 4.85 L-14.5 4.85 -14.65 4.85 -14.55 4.65 Q-14.25 3.95 -13.55 4.2 L-12.9 4.2 -13.0 3.9 -12.4 2.6 -12.3 2.4 -12.3 2.35 -12.05 1.2 -12.5 0.05 -12.85 -1.45 -12.85 -1.55 -12.75 -2.65 Q-14.1 -3.85 -14.1 -4.3 M-10.05 -2.15 Q-9.6 -4.45 -3.7 -4.95 -0.65 -3.75 -0.65 -1.65 -0.65 -0.65 -1.9 0.55 L-3.15 1.45 -3.15 1.4 -3.45 1.6 -5.3 1.9 Q-7.35 1.9 -8.15 1.3 L-9.0 0.3 Q-10.1 -0.55 -10.1 -1.7 L-10.0 -1.9 -9.95 -2.0 -10.0 -2.1 -10.05 -2.15 M14.1 4.45 L13.4 3.85 12.85 4.05 Q12.45 4.05 12.4 3.6 L12.15 2.9 11.65 2.0 Q11.65 1.9 11.8 1.9 L11.9 1.95 11.85 1.6 12.35 -0.95 11.95 -3.2 Q11.95 -4.15 13.4 -4.9 L13.55 -4.85 13.6 -4.8 13.5 -4.7 Q12.15 -3.8 12.15 -3.15 L12.55 -0.95 12.5 -0.35 12.45 -0.3 12.5 -0.3 12.05 1.6 12.1 2.15 12.6 3.25 12.6 3.55 12.7 3.75 12.9 3.8 13.5 3.65 14.2 4.1 14.35 4.25 14.1 4.45 M-9.8 -2.15 L-9.8 -2.3 -9.85 -2.3 -9.85 -1.9 -9.85 -1.8 -9.8 -1.6 -9.25 -0.5 -8.8 0.1 -7.75 1.25 -7.7 1.25 -7.55 1.3 -7.6 1.4 -7.55 1.55 -7.25 1.55 -7.2 1.5 -7.3 1.4 -5.75 1.55 -5.75 1.6 -5.7 1.55 -5.65 1.55 Q-3.55 1.55 -2.1 0.25 -0.95 -0.85 -0.95 -1.65 -0.95 -2.25 -1.75 -3.25 -2.8 -4.55 -4.15 -4.55 -6.9 -4.55 -8.55 -3.45 -9.55 -2.8 -9.8 -2.15 M-1.45 -5.95 L-0.3 -5.6 Q0.2 -5.6 0.2 -6.05 0.2 -8.2 -3.2 -8.15 -3.85 -8.15 -6.55 -7.0 -6.9 -6.9 -9.45 -5.2 -7.35 -6.0 -5.3 -6.25 L-3.6 -6.35 -1.45 -5.95 M-2.9 -2.0 Q-2.9 -1.25 -3.5 -1.25 L-3.95 -1.8 Q-3.95 -2.5 -3.4 -2.5 -2.9 -2.5 -2.9 -2.0" fill="#000000" fill-rule="evenodd" stroke="none"/>
    <path d="M4.7 -7.45 L4.95 -7.25 Q4.95 -7.05 3.55 -6.5 L3.3 -6.55 Q3.4 -7.45 4.7 -7.45 M12.5 -0.35 L13.7 -2.3 13.75 -2.3 13.8 -2.15 Q13.8 -0.9 13.4 0.45 13.15 0.4 13.15 -0.55 L13.15 -0.65 12.5 -0.3 12.45 -0.3 12.5 -0.35 M-13.25 -2.15 Q-13.0 -2.2 -13.0 -1.8 -13.2 3.4 -13.7 3.4 -14.05 3.4 -14.05 1.45 -13.95 -1.5 -13.4 -2.25 L-13.4 -1.8 -13.55 -1.25 -13.4 -1.25 -13.25 -2.15 M-1.0 -7.2 L-1.05 -6.95 -1.4 -6.75 -3.65 -6.95 -5.85 -6.55 -6.15 -6.55 -6.15 -6.85 -4.3 -7.55 -1.15 -7.5 -1.05 -7.4 -1.0 -7.2" fill="#d8d8d8" fill-rule="evenodd" stroke="none"/>
    <path d="M9.9 -0.65 L10.7 -0.8 10.75 -0.75 9.9 -0.45 9.7 -0.45 9.9 -0.65 M9.85 -0.05 L10.1 -0.1 10.75 0.0 10.7 0.05 9.85 0.05 9.7 0.05 9.85 -0.05 M9.2 2.05 L8.95 2.4 Q8.2 2.8 7.5 2.8 L6.45 2.6 8.75 3.0 10.25 2.4 10.5 2.45 Q9.4 3.1 8.2 3.1 L6.35 2.75 6.35 2.65 5.45 2.4 5.4 2.3 5.45 2.3 5.9 2.45 6.35 2.55 7.15 2.6 9.05 2.15 9.2 2.05 M4.35 2.15 L3.7 2.0 3.7 1.85 3.75 1.85 3.9 1.9 4.75 2.2 4.35 2.15 M-11.45 -1.95 L-12.1 -2.1 -12.1 -2.4 -12.05 -2.4 -12.0 -2.15 -10.5 -2.1 -10.8 -1.9 -11.0 -1.95 -11.35 -1.95 -11.4 -2.0 -11.45 -1.95 M-3.15 1.45 Q-3.15 2.1 -4.6 2.45 L-4.95 2.4 -5.15 2.45 -5.8 2.6 -6.85 2.65 -6.55 2.65 -6.4 2.7 -7.7 2.85 -9.0 2.65 -10.2 2.05 Q-10.7 1.75 -10.7 1.25 L-10.65 1.25 -9.0 2.65 -7.65 2.65 Q-8.6 2.6 -9.1 1.95 L-9.05 1.9 -7.65 2.5 -4.35 2.15 -3.45 1.6 -3.15 1.4 -3.15 1.45 M-10.7 -1.1 L-11.05 -1.05 -10.7 -1.2 -10.7 -1.1 M10.8 2.5 L11.1 3.55 10.8 4.7 11.0 3.6 10.75 2.5 10.8 2.5 M3.75 10.75 L5.15 10.2 6.15 9.35 8.1 7.6 8.3 7.6 8.35 7.0 8.35 6.55 8.15 6.7 8.15 6.65 8.25 6.4 8.2 6.15 8.25 6.15 8.15 5.9 7.25 6.0 6.35 5.9 1.1 6.35 0.9 6.65 0.85 6.6 Q0.85 6.35 1.1 6.35 L0.7 6.35 -6.4 6.05 -8.2 5.85 -8.25 6.05 -8.15 6.8 -8.4 7.2 -8.35 7.35 -8.25 7.3 Q-8.1 8.15 -5.35 9.25 L-3.0 10.0 -2.85 10.0 -3.0 9.95 -3.0 9.85 -2.85 9.85 Q-2.55 9.8 -2.25 10.15 L-2.2 10.15 2.1 10.9 3.4 10.8 3.5 11.1 2.1 11.2 0.2 11.05 0.2 11.1 0.15 11.15 0.15 11.05 -1.35 10.8 -0.95 11.75 -1.0 11.8 -1.45 10.8 -1.9 10.7 -1.45 11.9 -1.5 12.1 -1.6 12.1 Q-1.85 11.15 -2.3 10.6 L-2.55 10.5 -5.3 9.65 -7.2 8.65 Q-8.4 7.9 -8.4 7.5 L-8.4 7.45 -8.5 7.65 -8.5 7.7 -7.8 8.8 Q-8.6 8.55 -8.6 7.75 L-9.95 8.95 Q-8.35 7.05 -8.35 6.5 -8.45 4.6 -7.0 4.1 L-7.95 5.4 -8.2 5.7 -2.2 5.95 -2.2 5.85 -1.2 5.2 Q-1.1 5.65 -2.05 5.95 L-0.95 6.0 -1.0 5.95 -0.4 5.65 -0.3 5.7 -0.8 6.0 -0.3 6.0 6.2 5.55 7.25 5.7 7.9 5.55 7.95 5.55 7.05 4.9 7.1 4.9 Q7.9 4.9 8.3 5.55 L8.4 5.55 8.45 5.65 8.4 5.75 8.5 6.3 8.55 7.0 8.45 8.15 Q8.45 9.05 8.8 9.35 L8.6 9.4 8.25 8.2 8.3 8.05 6.25 9.75 5.2 10.55 3.75 11.05 3.75 10.95 3.75 10.75 M1.9 5.7 L1.8 5.85 1.5 5.85 1.5 5.75 1.9 5.7 M0.5 12.1 L0.4 11.95 0.4 11.65 0.5 11.65 0.55 12.05 0.5 12.1 M8.25 8.55 L8.05 8.95 7.9 8.9 8.25 8.55 M-10.0 0.85 L-10.05 0.75 -10.05 0.5 -10.0 0.5 -9.8 0.9 -9.95 0.7 -10.0 0.85 M-10.0 -2.1 L-9.95 -2.0 -10.0 -1.9 -10.0 -2.0 -10.0 -2.1 M-8.7 8.95 L-8.25 9.45 -8.25 9.5 -8.75 8.95 -8.7 8.95 M-4.65 7.1 L-4.55 7.15 -4.65 7.15 -4.65 7.1 M-0.7 11.65 L-0.75 11.7 -0.8 11.5 -0.7 11.65 M-11.8 4.35 L-11.85 3.6 Q-11.85 2.8 -11.55 2.5 L-11.45 2.55 -11.75 3.6 -10.45 6.75 -10.45 7.05 -10.5 7.1 -10.6 7.15 -10.55 6.85 Q-11.6 5.75 -11.8 4.35" fill="#865204" fill-rule="evenodd" stroke="none"/>
    <path d="M6.1 2.0 L5.75 2.0 Q4.45 2.0 2.3 0.45 1.9 0.2 1.9 -1.7 1.9 -4.45 4.95 -4.45 6.3 -4.45 7.85 -3.35 9.6 -2.15 9.6 -0.55 9.6 0.05 9.0 0.75 L9.05 0.65 9.0 0.55 Q7.55 1.75 5.8 1.85 L6.1 2.0 M3.7 -1.65 L4.25 -1.1 Q4.6 -1.1 4.6 -1.5 4.6 -2.05 4.1 -2.05 3.7 -2.05 3.7 -1.65 M9.3 -0.6 L9.0 -0.45 9.3 -0.25 9.4 -0.35 9.35 -0.35 9.35 -0.55 9.3 -0.6 M9.1 -0.1 L9.05 -0.1 9.05 0.15 9.25 0.2 9.1 -0.1 M8.65 -0.35 L8.65 -0.2 8.75 -0.15 9.0 -0.25 8.85 -0.35 8.65 -0.35 M7.85 -0.1 L7.75 -0.1 7.85 -0.35 7.75 -0.4 7.6 -0.4 7.65 -0.05 7.7 -0.05 8.4 0.6 8.4 0.65 8.45 0.7 8.5 0.65 8.55 0.7 8.65 0.6 8.65 0.5 7.85 -0.1 M7.65 0.5 L8.05 0.4 7.5 0.2 7.3 0.25 Q6.75 0.25 6.75 0.5 6.9 0.35 7.35 0.35 L7.65 0.5 M8.7 0.25 L8.8 0.15 8.6 0.05 8.5 0.15 8.55 0.25 8.7 0.25 M-9.8 -2.15 Q-9.55 -2.8 -8.55 -3.45 -6.9 -4.55 -4.15 -4.55 -2.8 -4.55 -1.75 -3.25 -0.95 -2.25 -0.95 -1.65 -0.95 -0.85 -2.1 0.25 -3.55 1.55 -5.65 1.55 L-5.7 1.55 -5.65 1.5 -5.7 1.3 -5.85 1.35 -5.75 1.55 -7.3 1.4 -7.45 1.2 -7.55 1.2 -7.55 1.3 -7.7 1.25 -7.65 1.2 -7.7 1.1 -7.95 0.8 -7.65 0.8 -7.65 0.75 Q-7.8 0.6 -8.1 0.6 L-8.4 0.25 Q-8.05 0.1 -7.95 -0.25 L-8.15 -0.5 Q-7.75 -0.7 -7.65 -0.8 -7.9 -0.65 -8.2 -0.55 L-8.5 -0.8 -8.55 -0.8 -8.15 -0.2 -8.5 0.2 Q-9.7 -1.35 -9.8 -2.15 M-8.8 0.1 L-9.25 -0.5 -9.05 -0.3 -8.8 0.1 M-2.9 -2.0 Q-2.9 -2.5 -3.4 -2.5 -3.95 -2.5 -3.95 -1.8 L-3.5 -1.25 Q-2.9 -1.25 -2.9 -2.0" fill="#ffffff" fill-rule="evenodd" stroke="none"/>
    <path d="M6.1 2.0 L5.8 1.85 Q7.55 1.75 9.0 0.55 L9.05 0.65 9.0 0.75 Q7.8 2.05 6.5 2.05 L6.1 2.0 M7.85 -0.1 L8.65 0.5 8.65 0.6 8.55 0.7 8.5 0.65 8.45 0.7 8.4 0.65 8.4 0.6 7.7 -0.05 7.65 -0.05 7.6 -0.4 7.75 -0.4 7.85 -0.35 7.75 -0.1 7.85 -0.1 M8.65 -0.35 L8.85 -0.35 9.0 -0.25 8.75 -0.15 8.65 -0.2 8.65 -0.35 M9.1 -0.1 L9.25 0.2 9.05 0.15 9.05 -0.1 9.1 -0.1 M9.3 -0.6 L9.35 -0.55 9.35 -0.35 9.4 -0.35 9.3 -0.25 9.0 -0.45 9.3 -0.6 M8.7 0.25 L8.55 0.25 8.5 0.15 8.6 0.05 8.8 0.15 8.7 0.25 M7.65 0.5 L7.35 0.35 Q6.9 0.35 6.75 0.5 6.75 0.25 7.3 0.25 L7.5 0.2 8.05 0.4 7.65 0.5 M-9.25 -0.5 L-9.8 -1.6 -9.85 -1.8 -9.85 -1.9 -9.85 -2.3 -9.8 -2.3 -9.8 -2.15 Q-9.7 -1.35 -8.5 0.2 L-8.15 -0.2 -8.55 -0.8 -8.5 -0.8 -8.2 -0.55 Q-7.9 -0.65 -7.65 -0.8 -7.75 -0.7 -8.15 -0.5 L-7.95 -0.25 Q-8.05 0.1 -8.4 0.25 L-8.1 0.6 Q-7.8 0.6 -7.65 0.75 L-7.65 0.8 -7.95 0.8 -7.7 1.1 -7.65 1.2 -7.7 1.25 -7.75 1.25 -8.8 0.1 -9.05 -0.3 -9.25 -0.5 M-5.7 1.55 L-5.75 1.6 -5.75 1.55 -5.85 1.35 -5.7 1.3 -5.65 1.5 -5.7 1.55 M-7.3 1.4 L-7.2 1.5 -7.25 1.55 -7.55 1.55 -7.6 1.4 -7.55 1.3 -7.55 1.2 -7.45 1.2 -7.3 1.4" fill="#fe503d" fill-rule="evenodd" stroke="none"/>
    <path d="M-8.15 6.8 L-8.25 6.05 -8.2 5.85 -6.4 6.05 0.7 6.35 1.1 6.35 Q0.85 6.35 0.85 6.6 L0.9 6.65 1.1 6.35 6.35 5.9 7.25 6.0 8.15 5.9 8.25 6.15 8.2 6.15 8.25 6.4 8.15 6.65 8.15 6.7 8.35 6.55 8.35 7.0 8.3 7.6 8.1 7.6 6.15 9.35 5.15 10.2 3.75 10.75 Q3.7 9.4 2.75 8.75 0.75 7.25 -1.4 7.25 L-2.2 7.4 Q-3.35 6.4 -5.35 6.4 L-8.15 6.8" fill="#6a0300" fill-rule="evenodd" stroke="none"/>
    <path d="M3.4 10.8 L2.1 10.9 -2.2 10.15 -2.25 10.15 Q-2.55 9.8 -2.85 9.85 L-3.0 9.85 -3.0 9.95 -3.0 10.0 -5.35 9.25 Q-8.1 8.15 -8.25 7.3 L-5.55 6.8 Q-3.45 6.8 -2.45 7.6 L-2.55 7.75 -2.45 7.8 -2.3 7.75 -2.0 8.15 -1.25 9.45 -1.1 9.4 -1.05 9.2 Q-1.05 8.5 -1.85 7.7 L-1.9 7.65 -1.45 7.55 Q1.15 7.55 2.5 9.05 L3.4 10.8 M-6.2 7.25 L-6.2 7.3 -6.15 7.35 -6.2 7.25 M-4.65 7.1 L-4.65 7.15 -4.55 7.15 -4.65 7.1" fill="#aa0400" fill-rule="evenodd" stroke="none"/>
    <path d="M3.75 10.75 L3.75 10.95 3.75 11.05 3.55 11.2 3.5 11.1 3.4 10.8 2.5 9.05 Q1.15 7.55 -1.45 7.55 L-1.9 7.65 -1.85 7.7 Q-1.05 8.5 -1.05 9.2 L-1.1 9.4 -1.25 9.45 -2.0 8.15 -2.3 7.75 -2.45 7.8 -2.55 7.75 -2.45 7.6 Q-3.45 6.8 -5.55 6.8 L-8.25 7.3 -8.35 7.35 -8.4 7.2 -8.15 6.8 -5.35 6.4 Q-3.35 6.4 -2.2 7.4 L-1.4 7.25 Q0.75 7.25 2.75 8.75 3.7 9.4 3.75 10.75" fill="#420200" fill-rule="evenodd" stroke="none"/>
    <path d="M13.4 -4.9 Q12.35 -7.5 10.3 -9.6 L10.15 -9.75 Q6.05 -13.85 0.35 -14.1 L-0.25 -14.1 Q-6.35 -14.1 -10.7 -9.75 L-12.5 -7.5 Q-13.55 -6.0 -14.1 -4.3 -15.0 -1.95 -15.0 0.85 -15.0 2.85 -14.55 4.65 M-14.5 4.85 L-14.5 4.9 Q-13.55 8.55 -10.7 11.4 -7.65 14.45 -3.75 15.4 L-0.25 15.8 3.25 15.4 Q7.15 14.45 10.15 11.4 L10.25 11.3 10.8 10.75 10.95 10.55 12.15 9.0 12.75 8.05 12.75 7.95 14.1 4.45 M13.5 -4.7 Q14.5 -2.15 14.5 0.85 L14.2 4.1" fill="none" stroke="#865204" stroke-linecap="round" stroke-linejoin="round" stroke-width="0.5"/>
  </g>
</svg>
