<?xml version="1.0" encoding="UTF-8" standalone="no"?>
<svg xmlns:xlink="http://www.w3.org/1999/xlink" height="30.0px" width="30.0px" xmlns="http://www.w3.org/2000/svg">
  <g transform="matrix(1.0, 0.0, 0.0, 1.0, 15.25, 14.35)">
    <path d="M2.45 -12.15 L2.45 -12.2 Q1.25 -13.4 -1.55 -13.4 L-2.4 -13.35 Q-4.35 -13.1 -4.35 -12.25 -4.35 -11.2 -1.95 -11.2 1.7 -11.2 2.45 -12.15 M4.45 -10.8 L4.4 -11.0 1.35 -11.0 -3.5 -10.05 -3.25 -9.9 Q-0.65 -10.8 4.4 -10.6 L4.45 -10.8 M6.8 -9.55 L6.25 -9.85 -3.55 -9.2 Q-4.55 -8.6 -5.75 -8.5 L-5.7 -8.4 Q-2.75 -9.3 -0.4 -9.25 L6.5 -9.2 6.8 -9.55 M9.0 -5.35 L9.25 -5.25 Q10.6 -4.9 11.05 -4.3 L11.15 -4.35 11.2 -4.5 Q11.2 -5.35 8.85 -6.7 6.15 -8.3 3.3 -8.3 1.55 -8.3 1.55 -6.8 L1.65 -6.25 Q1.85 -5.8 2.45 -5.75 1.45 -5.45 1.45 -5.1 1.45 -4.75 2.0 -4.75 L3.6 -5.05 6.5 -5.4 Q7.9 -5.45 8.5 -4.5 9.65 -2.65 10.55 -1.85 L10.95 -2.4 10.05 -3.8 10.35 -3.85 10.35 -4.1 9.9 -4.1 9.6 -4.55 9.0 -5.35 M-7.5 -5.6 L-7.65 -5.55 -9.65 -4.3 -9.65 -3.9 -9.45 -3.85 -7.4 -4.9 Q-5.65 -5.65 -4.5 -5.65 -3.65 -5.65 -2.55 -4.9 L-1.65 -4.7 -1.0 -4.3 Q0.1 -4.3 0.85 -5.0 L0.55 -5.05 0.05 -4.95 Q-0.4 -4.95 -0.85 -5.45 L-0.3 -5.25 Q0.5 -5.3 0.5 -6.1 L-0.15 -7.4 Q-1.0 -8.55 -2.0 -8.55 -6.3 -8.55 -10.5 -4.75 L-10.3 -4.7 -7.65 -5.6 -7.5 -5.6 M1.55 -0.35 L1.15 -1.55 Q0.75 -3.7 0.3 -3.7 -0.35 -3.7 -0.35 -2.85 L-0.15 -1.5 -0.05 -0.2 -0.05 -0.15 Q-1.65 1.15 -1.75 1.8 L-1.75 1.9 -2.45 2.05 -2.9 2.15 -2.9 2.35 -2.7 2.35 -2.7 2.4 -2.65 2.5 -2.5 2.55 -1.8 2.3 -0.15 2.25 0.05 2.1 0.15 2.15 1.7 1.95 Q2.25 1.9 2.25 1.6 2.25 1.2 1.7 1.35 L1.7 1.3 2.0 0.9 1.45 0.05 1.55 -0.35 M9.9 -0.85 Q9.85 -1.9 8.9 -3.05 L7.4 -4.15 6.55 -4.7 4.3 -4.85 Q3.1 -4.9 1.85 -3.6 1.6 -3.4 1.6 -1.8 1.6 -0.35 1.95 0.3 L3.2 1.3 3.9 1.7 3.75 1.65 3.7 1.65 3.7 1.8 4.35 1.95 5.45 2.2 6.35 2.45 6.35 2.5 8.2 2.85 Q9.4 2.85 10.5 2.25 L10.25 2.2 8.75 2.75 6.45 2.4 7.5 2.55 8.95 2.2 9.2 1.85 9.9 1.45 10.65 0.65 10.65 0.6 10.8 0.7 11.15 0.45 Q10.75 0.05 10.45 0.05 L10.35 0.45 Q10.05 0.55 9.35 1.15 L8.45 1.5 8.95 1.05 9.85 -0.15 10.7 -0.15 10.75 -0.2 10.1 -0.3 9.85 -0.25 9.9 -0.65 10.75 -0.95 10.7 -1.0 9.9 -0.85 M-14.1 -4.5 Q-13.55 -6.1 -12.5 -7.6 L-10.7 -9.75 Q-6.35 -14.1 -0.25 -14.1 L0.35 -14.1 Q6.05 -13.85 10.15 -9.75 L10.3 -9.65 Q12.35 -7.55 13.4 -5.0 11.95 -4.35 11.95 -3.35 L12.35 -1.15 11.85 1.4 11.9 1.75 11.8 1.7 Q11.65 1.7 11.65 1.8 L12.15 2.65 12.4 3.35 Q12.45 3.8 12.85 3.8 L13.4 3.6 14.1 4.2 12.75 7.65 12.75 7.75 12.15 8.7 10.95 10.2 10.8 10.35 10.25 10.95 10.15 11.05 Q7.15 14.05 3.25 15.0 L-0.25 15.4 -3.75 15.0 Q-7.65 14.05 -10.7 11.05 -13.55 8.25 -14.5 4.65 L-14.45 4.65 Q-14.2 4.1 -13.85 4.1 L-13.2 4.2 -12.7 3.9 -12.8 3.65 -12.55 3.1 -12.4 3.4 -12.0 2.3 -11.85 2.05 -11.95 1.7 Q-11.7 1.5 -11.75 0.85 L-11.0 0.25 -10.55 -0.15 -10.65 -0.25 -10.7 -0.2 -10.7 -0.35 -9.85 -0.7 -10.05 -0.95 -11.6 -0.55 -12.35 -0.3 -12.65 -1.55 -12.2 -1.55 -12.05 -1.4 -11.5 -1.55 -12.35 -0.95 -12.15 -0.8 -11.7 -0.95 -11.7 -0.9 -11.65 -0.9 -11.4 -0.95 -11.4 -1.05 -11.05 -1.2 -10.7 -1.25 -10.5 -1.05 Q-10.2 -1.05 -10.2 -1.4 L-10.2 -1.65 -10.1 -1.85 Q-10.1 -0.75 -9.0 0.1 L-8.15 1.1 Q-7.35 1.7 -5.3 1.7 L-3.45 1.4 -4.35 1.95 -7.65 2.3 -9.05 1.7 -9.1 1.75 Q-8.6 2.4 -7.65 2.45 L-9.0 2.45 -10.65 1.05 -10.7 1.05 Q-10.7 1.55 -10.2 1.85 L-9.0 2.45 -7.7 2.6 -6.4 2.5 -6.55 2.45 -6.85 2.45 -5.8 2.4 Q-8.5 2.95 -8.65 3.3 L-8.85 3.25 Q-9.85 3.25 -9.85 4.55 L-9.75 5.45 Q-9.75 6.2 -10.85 7.7 L-10.65 7.9 -10.95 8.45 -10.9 8.55 -10.95 8.95 -10.4 10.2 -10.1 9.95 -10.45 8.9 -10.3 8.25 -10.3 8.2 Q-9.65 8.05 -8.85 5.45 L-9.0 4.55 -8.5 3.65 -8.0 3.8 -7.9 3.75 -8.1 3.5 -4.45 2.5 -4.6 2.25 Q-3.15 1.9 -3.15 1.25 L-1.9 0.35 Q-0.65 -0.8 -0.65 -1.75 -0.65 -3.9 -3.7 -5.05 -9.6 -4.6 -10.05 -2.3 L-10.3 -2.35 -10.5 -2.2 -12.0 -2.25 -12.05 -2.5 -12.1 -2.5 -12.1 -2.2 -11.45 -2.1 -11.7 -2.05 -11.85 -2.0 -12.6 -1.9 -12.55 -2.75 -13.15 -3.6 -13.95 -4.45 -14.1 -4.45 -14.1 -4.5 M11.75 -2.45 L11.5 -2.7 Q11.15 -2.75 11.15 -2.5 L11.45 -2.3 Q11.6 -2.3 11.75 -2.45 M-10.35 -3.4 Q-11.7 -3.75 -11.65 -3.95 L-11.85 -3.8 Q-11.85 -3.55 -10.75 -3.1 L-10.35 -3.1 -10.3 -3.25 -10.35 -3.4 M-2.55 -12.65 L-1.9 -12.65 -2.0 -12.55 -3.4 -12.2 -3.55 -12.25 Q-3.25 -12.7 -2.55 -12.65 M-11.0 -2.05 L-11.2 -2.05 -11.35 -2.05 -11.35 -2.1 -11.0 -2.05 M-10.0 0.65 L-10.05 0.8 Q-10.05 1.4 -9.4 1.4 L-9.2 1.35 Q-8.55 2.05 -7.8 2.1 L-7.65 2.05 -7.6 1.8 -9.0 0.85 -10.15 -0.35 -10.3 -0.25 -10.0 0.3 -10.05 0.3 -10.05 0.55 -10.0 0.65 M-10.0 0.3 L-9.7 0.75 -9.8 0.7 -10.0 0.3 M3.75 10.7 L5.2 10.2 6.25 9.45 8.3 7.75 8.25 7.9 8.6 9.1 8.8 9.05 Q8.45 8.75 8.45 7.85 L8.55 6.7 8.5 6.1 8.4 5.55 8.45 5.45 8.4 5.35 8.3 5.35 Q7.9 4.65 7.1 4.7 L7.05 4.7 7.95 5.35 7.9 5.35 7.25 5.5 6.2 5.35 -0.3 5.8 0.05 5.8 -0.8 5.75 -0.3 5.5 -0.4 5.45 -1.0 5.75 -2.05 5.7 Q-1.1 5.4 -1.2 5.0 L-2.2 5.65 -2.2 5.7 -8.2 5.5 -7.95 5.15 -7.0 3.85 Q-8.45 4.35 -8.35 6.2 -8.35 6.8 -9.95 8.65 L-8.6 7.45 Q-8.6 8.25 -7.8 8.5 L-8.5 7.4 -8.5 7.35 -8.4 7.15 -8.4 7.2 Q-8.4 7.6 -7.2 8.35 L-5.3 9.35 -2.55 10.15 -2.3 10.2 Q-1.85 10.8 -1.6 11.8 L-1.5 11.8 -1.45 11.55 -1.9 10.3 -1.45 10.4 -1.0 11.45 -0.95 11.4 -1.35 10.45 0.15 10.7 0.15 10.8 0.2 10.75 0.2 10.7 2.1 10.85 3.5 10.75 3.55 10.85 3.75 10.7 M-3.0 9.65 L-2.85 9.7 -3.0 9.7 -3.0 9.65 M8.25 5.9 L8.25 5.95 8.2 5.95 8.25 5.9 M-8.7 8.65 L-8.75 8.65 -8.25 9.2 -8.25 9.15 -8.7 8.65 M-11.8 4.1 Q-11.6 5.5 -10.55 6.55 L-10.6 6.85 -10.5 6.8 -10.45 6.75 -10.45 6.45 -11.75 3.35 Q-11.75 2.55 -11.45 2.35 L-11.55 2.3 Q-11.85 2.5 -11.85 3.35 L-11.8 4.1 Q-12.2 3.4 -12.3 3.45 L-12.35 3.45 -12.4 3.6 -11.9 4.4 -11.8 4.1 M-0.7 11.3 L-0.8 11.1 -0.75 11.35 -0.7 11.3 M-11.25 3.2 L-10.7 4.05 Q-10.4 4.05 -10.4 3.25 -10.3 2.45 -10.8 2.5 -11.25 2.45 -11.25 3.2 M10.45 1.5 L10.3 1.35 Q9.95 1.45 9.25 2.05 L9.6 2.25 Q10.45 2.2 10.45 1.5 M-10.45 8.1 L-10.45 8.15 -10.5 8.15 -10.45 8.1 M10.8 4.5 L11.1 3.3 10.95 2.75 11.0 3.35 10.8 4.5 M10.8 2.3 L10.75 2.3 10.9 2.6 10.8 2.3 M10.25 6.9 L10.3 7.9 Q10.45 8.85 11.05 8.85 L11.3 8.6 Q10.75 8.55 10.75 6.9 L10.55 5.2 Q10.25 5.65 10.25 6.9 M11.25 5.6 Q11.25 6.05 11.55 6.05 L11.8 5.8 Q11.8 5.3 11.55 5.35 11.25 5.3 11.25 5.6 M7.85 1.8 L7.8 1.85 7.85 2.05 8.4 2.1 9.05 1.95 7.15 2.4 6.35 2.35 5.9 2.25 7.85 1.8 M5.8 2.8 L5.55 2.85 Q5.55 3.2 7.1 3.75 L8.6 4.85 8.65 4.85 8.9 5.65 8.8 8.0 8.85 9.0 8.85 9.35 Q9.05 10.5 9.75 10.5 10.35 10.5 10.35 10.1 9.7 9.15 9.7 8.0 L9.8 6.05 Q9.7 4.25 8.9 4.25 L8.8 4.25 Q8.55 3.9 7.75 3.45 6.6 2.75 5.8 2.8 M8.25 8.25 L7.9 8.6 8.05 8.65 8.25 8.25 M0.5 11.3 L0.4 11.3 0.4 11.6 0.5 11.8 0.55 11.7 0.5 11.3 M1.9 5.5 L1.5 5.55 1.5 5.65 1.8 5.65 1.9 5.5" fill="#fbc87b" fill-rule="evenodd" stroke="none"/>
    <path d="M6.8 -9.55 L6.5 -9.2 -0.4 -9.25 Q-2.75 -9.3 -5.7 -8.4 L-5.75 -8.5 Q-4.55 -8.6 -3.55 -9.2 L6.25 -9.85 6.8 -9.55 M4.45 -10.8 L4.4 -10.6 Q-0.65 -10.8 -3.25 -9.9 L-3.5 -10.05 1.35 -11.0 4.4 -11.0 4.45 -10.8 M2.45 -12.15 Q1.7 -11.2 -1.95 -11.2 -4.35 -11.2 -4.35 -12.25 -4.35 -13.1 -2.4 -13.35 L-1.55 -13.4 Q1.25 -13.4 2.45 -12.2 L2.45 -12.15 M9.0 -5.35 L9.6 -4.55 9.9 -4.1 10.35 -4.1 10.35 -3.85 10.05 -3.8 10.95 -2.4 10.55 -1.85 Q9.65 -2.65 8.5 -4.5 7.9 -5.45 6.5 -5.4 L3.6 -5.05 2.0 -4.75 Q1.45 -4.75 1.45 -5.1 1.45 -5.45 2.45 -5.75 L2.65 -5.75 6.0 -5.95 9.0 -5.35 M3.6 -6.05 L6.8 -6.4 7.9 -6.15 6.0 -6.3 3.6 -6.05 M-0.85 -5.45 Q-0.4 -4.95 0.05 -4.95 L0.55 -5.05 0.85 -5.0 Q0.1 -4.3 -1.0 -4.3 L-1.65 -4.7 -2.55 -4.9 Q-3.65 -5.65 -4.5 -5.65 -5.65 -5.65 -7.4 -4.9 L-9.45 -3.85 -9.65 -3.9 -9.65 -4.3 -7.65 -5.55 -7.5 -5.6 -3.9 -6.05 -0.85 -5.45 M1.55 -0.35 L1.45 0.05 2.0 0.9 1.7 1.3 1.7 1.35 Q2.25 1.2 2.25 1.6 2.25 1.9 1.7 1.95 L0.15 2.15 0.05 2.1 -0.15 2.25 -1.8 2.3 -2.5 2.55 -2.65 2.5 -2.7 2.4 -2.7 2.35 -2.9 2.35 -2.9 2.15 -2.45 2.05 -1.75 1.9 -1.75 1.8 Q-1.65 1.15 -0.05 -0.15 L-0.05 -0.2 -0.15 -1.5 -0.35 -2.85 Q-0.35 -3.7 0.3 -3.7 0.75 -3.7 1.15 -1.55 L1.55 -0.35 M8.45 1.5 L9.35 1.15 Q10.05 0.55 10.35 0.45 L10.45 0.05 Q10.75 0.05 11.15 0.45 L10.8 0.7 10.65 0.6 10.65 0.65 9.9 1.45 9.2 1.85 9.05 1.95 8.4 2.1 7.85 2.05 7.8 1.85 7.85 1.8 8.45 1.5 M-12.6 -1.9 L-11.85 -2.0 -11.7 -2.05 -11.45 -2.1 -11.35 -2.1 -11.35 -2.05 -11.2 -2.05 -11.0 -2.05 -10.8 -2.05 -10.5 -2.2 -10.3 -2.35 -10.05 -2.3 -10.0 -2.2 -10.0 -2.05 -10.1 -1.85 -10.2 -1.65 -10.2 -1.4 Q-10.2 -1.05 -10.5 -1.05 L-10.7 -1.25 -10.7 -1.35 -11.05 -1.2 -11.4 -1.05 -11.4 -0.95 -11.65 -0.9 -11.7 -0.9 -11.7 -0.95 -12.15 -0.8 -12.35 -0.95 -11.5 -1.55 -12.05 -1.4 -12.2 -1.55 -12.65 -1.55 -12.65 -1.65 -12.6 -1.9 M-4.6 2.25 L-4.45 2.5 -8.1 3.5 -7.9 3.75 -8.0 3.8 -8.5 3.65 -9.0 4.55 -8.85 5.45 Q-9.65 8.05 -10.3 8.2 L-10.3 8.25 -10.45 8.9 -10.1 9.95 -10.4 10.2 -10.95 8.95 -10.9 8.55 -10.95 8.45 -10.65 7.9 -10.85 7.7 Q-9.75 6.2 -9.75 5.45 L-9.85 4.55 Q-9.85 3.25 -8.85 3.25 L-8.65 3.3 Q-8.5 2.95 -5.8 2.4 L-5.15 2.25 -4.95 2.2 -4.6 2.25 M-12.35 -0.3 L-11.6 -0.55 -10.05 -0.95 -9.85 -0.7 -10.7 -0.35 -10.7 -0.2 -10.65 -0.25 -10.55 -0.15 -11.0 0.25 -11.75 0.85 Q-11.7 1.5 -11.95 1.7 L-11.85 2.05 -12.0 2.3 -12.4 3.4 -12.55 3.1 -11.95 1.7 -11.85 1.0 -12.35 -0.3 M11.75 -2.45 Q11.6 -2.3 11.45 -2.3 L11.15 -2.5 Q11.15 -2.75 11.5 -2.7 L11.75 -2.45 M-2.55 -12.65 Q-3.25 -12.7 -3.55 -12.25 L-3.4 -12.2 -2.0 -12.55 -1.9 -12.65 -2.55 -12.65 M-10.35 -3.4 L-10.3 -3.25 -10.35 -3.1 -10.75 -3.1 Q-11.85 -3.55 -11.85 -3.8 L-11.65 -3.95 Q-11.7 -3.75 -10.35 -3.4 M-10.0 0.3 L-10.3 -0.25 -10.15 -0.35 -9.0 0.85 -7.6 1.8 -7.65 2.05 -7.8 2.1 Q-8.55 2.05 -9.2 1.35 L-9.4 1.4 Q-10.05 1.4 -10.05 0.8 L-10.0 0.65 -9.95 0.5 -9.8 0.7 -9.7 0.75 -10.0 0.3 M-5.3 -6.35 L-3.9 -6.5 -1.45 -6.05 -3.6 -6.45 -5.3 -6.35 M-6.2 6.95 L-6.15 7.05 -6.2 7.0 -6.2 6.95 M-11.8 4.1 L-11.9 4.4 -12.4 3.6 -12.35 3.45 -12.3 3.45 Q-12.2 3.4 -11.8 4.1 M-11.25 3.2 Q-11.25 2.45 -10.8 2.5 -10.3 2.45 -10.4 3.25 -10.4 4.05 -10.7 4.05 L-11.25 3.2 M-10.45 8.1 L-10.5 8.15 -10.45 8.15 -10.45 8.1 M10.45 1.5 Q10.45 2.2 9.6 2.25 L9.25 2.05 Q9.95 1.45 10.3 1.35 L10.45 1.5 M11.25 5.6 Q11.25 5.3 11.55 5.35 11.8 5.3 11.8 5.8 L11.55 6.05 Q11.25 6.05 11.25 5.6 M10.25 6.9 Q10.25 5.65 10.55 5.2 L10.75 6.9 Q10.75 8.55 11.3 8.6 L11.05 8.85 Q10.45 8.85 10.3 7.9 L10.25 6.9 M5.8 2.8 Q6.6 2.75 7.75 3.45 8.55 3.9 8.8 4.25 L8.9 4.25 Q9.7 4.25 9.8 6.05 L9.7 8.0 Q9.7 9.15 10.35 10.1 10.35 10.5 9.75 10.5 9.05 10.5 8.85 9.35 L8.85 9.0 8.8 8.0 8.9 5.65 8.65 4.85 8.6 4.85 7.1 3.75 Q5.55 3.2 5.55 2.85 L5.8 2.8" fill="#fcd79e" fill-rule="evenodd" stroke="none"/>
    <path d="M3.6 -6.05 L2.8 -6.05 Q1.85 -6.05 1.85 -6.8 L2.0 -7.35 Q2.25 -7.9 2.95 -7.9 7.1 -7.9 9.85 -5.4 9.05 -5.95 7.9 -6.15 L6.8 -6.4 3.6 -6.05 M3.3 -6.65 L3.55 -6.6 Q4.95 -7.15 4.95 -7.35 L4.7 -7.55 Q3.4 -7.55 3.3 -6.65 M-14.1 -4.5 L-14.1 -4.45 Q-14.1 -4.0 -12.75 -2.75 L-12.85 -1.65 -12.85 -1.6 -12.5 -0.15 -12.05 1.0 -12.3 2.15 -12.3 2.2 -12.4 2.4 -13.0 3.65 -12.9 3.95 -13.55 3.95 Q-14.25 3.7 -14.55 4.4 L-15.0 0.65 Q-15.0 -2.1 -14.1 -4.5 M13.5 -4.85 Q14.5 -2.3 14.5 0.65 L14.2 3.8 Q13.7 3.35 13.5 3.4 L12.9 3.55 12.7 3.5 12.6 3.3 12.6 3.0 12.1 1.95 12.05 1.4 12.5 -0.5 13.15 -0.85 13.15 -0.75 Q13.15 0.2 13.4 0.25 13.8 -1.05 13.8 -2.25 L13.75 -2.4 13.7 -2.4 12.5 -0.55 12.55 -1.15 12.15 -3.3 Q12.15 -4.0 13.5 -4.85 M-13.55 -1.35 L-13.4 -1.9 -13.4 -2.35 Q-13.95 -1.65 -14.05 1.25 -14.05 3.15 -13.7 3.15 -13.2 3.15 -13.0 -1.9 -13.0 -2.35 -13.25 -2.25 L-13.4 -1.35 -13.55 -1.35 M-1.05 -7.05 L-1.0 -7.3 -1.05 -7.5 -1.15 -7.6 -4.3 -7.65 -6.15 -6.95 -6.15 -6.65 -5.85 -6.65 -3.65 -7.05 -1.4 -6.85 -1.05 -7.05 M-5.3 -6.35 Q-7.35 -6.1 -9.45 -5.3 -6.9 -7.0 -6.55 -7.1 -3.85 -8.25 -3.2 -8.25 0.2 -8.3 0.2 -6.15 0.2 -5.7 -0.3 -5.7 L-1.45 -6.05 -3.9 -6.5 -5.3 -6.35" fill="#c8c8c8" fill-rule="evenodd" stroke="none"/>
    <path d="M2.45 -5.75 Q1.85 -5.8 1.65 -6.25 L1.55 -6.8 Q1.55 -8.3 3.3 -8.3 6.15 -8.3 8.85 -6.7 11.2 -5.35 11.2 -4.5 L11.15 -4.35 11.05 -4.3 Q10.6 -4.9 9.25 -5.25 L9.0 -5.35 6.0 -5.95 2.65 -5.75 2.45 -5.75 M7.9 -6.15 Q9.05 -5.95 9.85 -5.4 7.1 -7.9 2.95 -7.9 2.25 -7.9 2.0 -7.35 L1.85 -6.8 Q1.85 -6.05 2.8 -6.05 L3.6 -6.05 6.0 -6.3 7.9 -6.15 M-7.5 -5.6 L-7.65 -5.6 -10.3 -4.7 -10.5 -4.75 Q-6.3 -8.55 -2.0 -8.55 -1.0 -8.55 -0.15 -7.4 L0.5 -6.1 Q0.5 -5.3 -0.3 -5.25 L-0.85 -5.45 -3.9 -6.05 -7.5 -5.6 M4.25 -1.2 L3.7 -1.75 Q3.7 -2.2 4.1 -2.15 4.6 -2.2 4.6 -1.6 4.6 -1.2 4.25 -1.2 M9.0 0.55 Q9.6 -0.15 9.6 -0.75 9.6 -2.3 7.85 -3.5 6.3 -4.65 4.95 -4.6 1.9 -4.6 1.9 -1.8 1.9 0.0 2.3 0.25 4.45 1.8 5.75 1.8 L6.1 1.8 6.5 1.85 Q7.8 1.85 9.0 0.55 M3.9 1.7 L3.2 1.3 1.95 0.3 Q1.6 -0.35 1.6 -1.8 1.6 -3.4 1.85 -3.6 3.1 -4.9 4.3 -4.85 L6.55 -4.7 7.4 -4.15 8.9 -3.05 Q9.85 -1.9 9.9 -0.85 L9.7 -0.65 9.9 -0.65 9.85 -0.25 9.7 -0.15 9.85 -0.15 8.95 1.05 8.45 1.5 7.85 1.8 5.9 2.25 5.45 2.1 5.4 2.1 5.45 2.2 4.35 1.95 4.75 2.0 3.9 1.7 M-14.1 -4.45 L-13.95 -4.45 -13.15 -3.6 -12.55 -2.75 -12.6 -1.9 -12.65 -1.65 -12.65 -1.55 -12.35 -0.3 -11.85 1.0 -11.95 1.7 -12.55 3.1 -12.8 3.65 -12.7 3.9 -13.2 4.2 -13.85 4.1 Q-14.2 4.1 -14.45 4.65 L-14.5 4.65 -14.65 4.65 -14.55 4.4 Q-14.25 3.7 -13.55 3.95 L-12.9 3.95 -13.0 3.65 -12.4 2.4 -12.3 2.2 -12.3 2.15 -12.05 1.0 -12.5 -0.15 -12.85 -1.6 -12.85 -1.65 -12.75 -2.75 Q-14.1 -4.0 -14.1 -4.45 M-10.05 -2.3 Q-9.6 -4.6 -3.7 -5.05 -0.65 -3.9 -0.65 -1.75 -0.65 -0.8 -1.9 0.35 L-3.15 1.25 -3.15 1.2 -3.45 1.4 -5.3 1.7 Q-7.35 1.7 -8.15 1.1 L-9.0 0.1 Q-10.1 -0.75 -10.1 -1.85 L-10.0 -2.05 -9.95 -2.1 -10.0 -2.2 -10.05 -2.3 M14.1 4.2 L13.4 3.6 12.85 3.8 Q12.45 3.8 12.4 3.35 L12.15 2.65 11.65 1.8 Q11.65 1.7 11.8 1.7 L11.9 1.75 11.85 1.4 12.35 -1.15 11.95 -3.35 Q11.95 -4.35 13.4 -5.0 L13.55 -4.95 13.6 -4.9 13.5 -4.85 Q12.15 -4.0 12.15 -3.3 L12.55 -1.15 12.5 -0.55 12.45 -0.5 12.5 -0.5 12.05 1.4 12.1 1.95 12.6 3.0 12.6 3.3 12.7 3.5 12.9 3.55 13.5 3.4 Q13.7 3.35 14.2 3.8 L14.35 4.0 14.1 4.2 M-9.8 -2.25 L-9.8 -2.4 -9.85 -2.4 -9.85 -1.9 -9.8 -1.75 -9.25 -0.7 -8.8 -0.1 -7.75 1.05 -7.7 1.05 -7.55 1.1 -7.6 1.2 -7.55 1.35 -7.25 1.35 -7.2 1.3 -7.3 1.2 -5.75 1.35 -5.75 1.4 -5.7 1.35 -5.65 1.35 Q-3.55 1.35 -2.1 0.05 -0.95 -1.0 -0.95 -1.75 -0.95 -2.4 -1.75 -3.4 -2.8 -4.75 -4.15 -4.7 -6.9 -4.75 -8.55 -3.6 -9.55 -2.95 -9.8 -2.25 M-1.45 -6.05 L-0.3 -5.7 Q0.2 -5.7 0.2 -6.15 0.2 -8.3 -3.2 -8.25 -3.85 -8.25 -6.55 -7.1 -6.9 -7.0 -9.45 -5.3 -7.35 -6.1 -5.3 -6.35 L-3.6 -6.45 -1.45 -6.05 M-2.9 -2.1 Q-2.9 -1.35 -3.5 -1.35 L-3.95 -1.9 Q-3.95 -2.65 -3.4 -2.6 -2.9 -2.65 -2.9 -2.1" fill="#000000" fill-rule="evenodd" stroke="none"/>
    <path d="M3.3 -6.65 Q3.4 -7.55 4.7 -7.55 L4.95 -7.35 Q4.95 -7.15 3.55 -6.6 L3.3 -6.65 M12.5 -0.55 L13.7 -2.4 13.75 -2.4 13.8 -2.25 Q13.8 -1.05 13.4 0.25 13.15 0.2 13.15 -0.75 L13.15 -0.85 12.5 -0.5 12.45 -0.5 12.5 -0.55 M-13.55 -1.35 L-13.4 -1.35 -13.25 -2.25 Q-13.0 -2.35 -13.0 -1.9 -13.2 3.15 -13.7 3.15 -14.05 3.15 -14.05 1.25 -13.95 -1.65 -13.4 -2.35 L-13.4 -1.9 -13.55 -1.35 M-1.05 -7.05 L-1.4 -6.85 -3.65 -7.05 -5.85 -6.65 -6.15 -6.65 -6.15 -6.95 -4.3 -7.65 -1.15 -7.6 -1.05 -7.5 -1.0 -7.3 -1.05 -7.05" fill="#d8d8d8" fill-rule="evenodd" stroke="none"/>
    <path d="M9.9 -0.85 L10.7 -1.0 10.75 -0.95 9.9 -0.65 9.7 -0.65 9.9 -0.85 M9.85 -0.25 L10.1 -0.3 10.75 -0.2 10.7 -0.15 9.85 -0.15 9.7 -0.15 9.85 -0.25 M9.2 1.85 L8.95 2.2 7.5 2.55 6.45 2.4 8.75 2.75 10.25 2.2 10.5 2.25 Q9.4 2.85 8.2 2.85 L6.35 2.5 6.35 2.45 5.45 2.2 5.4 2.1 5.45 2.1 5.9 2.25 6.35 2.35 7.15 2.4 9.05 1.95 9.2 1.85 M4.35 1.95 L3.7 1.8 3.7 1.65 3.75 1.65 3.9 1.7 4.75 2.0 4.35 1.95 M-11.45 -2.1 L-12.1 -2.2 -12.1 -2.5 -12.05 -2.5 -12.0 -2.25 -10.5 -2.2 -10.8 -2.05 -11.0 -2.05 -11.35 -2.1 -11.45 -2.1 M-3.15 1.25 Q-3.15 1.9 -4.6 2.25 L-4.95 2.2 -5.15 2.25 -5.8 2.4 -6.85 2.45 -6.55 2.45 -6.4 2.5 -7.7 2.6 -9.0 2.45 -10.2 1.85 Q-10.7 1.55 -10.7 1.05 L-10.65 1.05 -9.0 2.45 -7.65 2.45 Q-8.6 2.4 -9.1 1.75 L-9.05 1.7 -7.65 2.3 -4.35 1.95 -3.45 1.4 -3.15 1.2 -3.15 1.25 M-10.7 -1.25 L-11.05 -1.2 -10.7 -1.35 -10.7 -1.25 M-10.0 0.65 L-10.05 0.55 -10.05 0.3 -10.0 0.3 -9.8 0.7 -9.95 0.5 -10.0 0.65 M-10.0 -2.2 L-9.95 -2.1 -10.0 -2.05 -10.0 -2.2 M3.5 10.75 L2.1 10.85 0.2 10.7 0.2 10.75 0.15 10.8 0.15 10.7 -1.35 10.45 -0.95 11.4 -1.0 11.45 -1.45 10.4 -1.9 10.3 -1.45 11.55 -1.5 11.8 -1.6 11.8 Q-1.85 10.8 -2.3 10.2 L-2.55 10.15 -5.3 9.35 -7.2 8.35 Q-8.4 7.6 -8.4 7.2 L-8.4 7.15 -8.5 7.35 -8.5 7.4 -7.8 8.5 Q-8.6 8.25 -8.6 7.45 L-9.95 8.65 Q-8.35 6.8 -8.35 6.2 -8.45 4.35 -7.0 3.85 L-7.95 5.15 -8.2 5.5 -2.2 5.7 -2.2 5.65 -1.2 5.0 Q-1.1 5.4 -2.05 5.7 L-1.0 5.75 -0.4 5.45 -0.3 5.5 -0.8 5.75 0.05 5.8 -0.3 5.8 6.2 5.35 7.25 5.5 7.9 5.35 7.95 5.35 7.05 4.7 7.1 4.7 Q7.9 4.65 8.3 5.35 L8.4 5.35 8.45 5.45 8.4 5.55 8.5 6.1 8.55 6.7 8.45 7.85 Q8.45 8.75 8.8 9.05 L8.6 9.1 8.25 7.9 8.3 7.75 6.25 9.45 5.2 10.2 3.75 10.7 3.75 10.6 3.75 10.35 5.15 9.85 6.15 9.05 8.1 7.3 8.3 7.3 8.35 6.7 8.35 6.25 8.15 6.4 8.15 6.35 8.25 6.2 8.2 5.95 8.25 5.95 8.25 5.9 8.15 5.65 7.25 5.8 6.35 5.7 1.1 6.15 0.9 6.35 0.85 6.3 Q0.85 6.15 1.1 6.15 L0.7 6.15 -6.4 5.85 -8.2 5.6 -8.25 5.85 -8.15 6.5 -8.4 6.9 -8.35 7.05 -8.25 7.0 Q-8.1 7.85 -5.35 8.95 L-3.0 9.7 -2.85 9.7 -3.0 9.65 -3.0 9.55 -2.85 9.55 Q-2.55 9.5 -2.25 9.85 L-2.2 9.85 2.1 10.55 3.4 10.45 3.5 10.75 M-8.7 8.65 L-8.25 9.15 -8.25 9.2 -8.75 8.65 -8.7 8.65 M-4.65 6.85 L-4.65 6.8 -4.55 6.85 -4.65 6.85 M-0.7 11.3 L-0.75 11.35 -0.8 11.1 -0.7 11.3 M-11.8 4.1 L-11.85 3.35 Q-11.85 2.5 -11.55 2.3 L-11.45 2.35 Q-11.75 2.55 -11.75 3.35 L-10.45 6.45 -10.45 6.75 -10.5 6.8 -10.6 6.85 -10.55 6.55 Q-11.6 5.5 -11.8 4.1 M10.8 2.3 L10.9 2.6 10.75 2.3 10.8 2.3 M10.8 4.5 L11.0 3.35 10.95 2.75 11.1 3.3 10.8 4.5 M1.9 5.5 L1.8 5.65 1.5 5.65 1.5 5.55 1.9 5.5 M0.5 11.3 L0.55 11.7 0.5 11.8 0.4 11.6 0.4 11.3 0.5 11.3 M8.25 8.25 L8.05 8.65 7.9 8.6 8.25 8.25" fill="#865204" fill-rule="evenodd" stroke="none"/>
    <path d="M6.1 1.8 L5.75 1.8 Q4.45 1.8 2.3 0.25 1.9 0.0 1.9 -1.8 1.9 -4.6 4.95 -4.6 6.3 -4.65 7.85 -3.5 9.6 -2.3 9.6 -0.75 9.6 -0.15 9.0 0.55 L9.05 0.45 9.0 0.35 Q7.55 1.55 5.8 1.65 L6.1 1.8 M4.25 -1.2 Q4.6 -1.2 4.6 -1.6 4.6 -2.2 4.1 -2.15 3.7 -2.2 3.7 -1.75 L4.25 -1.2 M9.0 -0.65 L9.3 -0.45 9.4 -0.55 9.35 -0.55 9.35 -0.75 9.3 -0.8 9.0 -0.65 M9.1 -0.3 L9.05 -0.3 9.05 -0.05 9.25 0.0 9.1 -0.3 M8.6 -0.15 L8.5 -0.05 8.55 0.05 8.7 0.05 8.8 -0.05 8.6 -0.15 M8.65 -0.55 L8.65 -0.4 8.75 -0.35 9.0 -0.45 8.85 -0.55 8.65 -0.55 M7.85 -0.3 L7.75 -0.3 7.85 -0.55 7.75 -0.6 7.6 -0.6 7.65 -0.25 7.7 -0.25 8.4 0.4 8.4 0.45 8.45 0.5 8.5 0.45 8.55 0.5 8.65 0.4 8.65 0.3 7.85 -0.3 M-9.8 -2.25 Q-9.55 -2.95 -8.55 -3.6 -6.9 -4.75 -4.15 -4.7 -2.8 -4.75 -1.75 -3.4 -0.95 -2.4 -0.95 -1.75 -0.95 -1.0 -2.1 0.05 -3.55 1.35 -5.65 1.35 L-5.7 1.35 -5.65 1.3 -5.7 1.1 -5.85 1.15 -5.75 1.35 -7.3 1.2 -7.45 1.0 -7.55 1.0 -7.55 1.1 -7.7 1.05 -7.65 1.0 -7.7 0.9 -7.95 0.6 -7.65 0.6 -7.65 0.55 Q-7.8 0.4 -8.1 0.4 L-8.4 0.05 Q-8.05 -0.1 -7.95 -0.45 L-8.15 -0.7 Q-7.75 -0.9 -7.65 -1.0 -7.9 -0.85 -8.2 -0.75 L-8.5 -1.0 -8.55 -1.0 -8.15 -0.4 -8.5 0.0 Q-9.7 -1.5 -9.8 -2.25 M-8.8 -0.1 L-9.25 -0.7 -9.05 -0.5 -8.8 -0.1 M-2.9 -2.1 Q-2.9 -2.65 -3.4 -2.6 -3.95 -2.65 -3.95 -1.9 L-3.5 -1.35 Q-2.9 -1.35 -2.9 -2.1 M7.65 0.3 L8.05 0.2 7.5 0.0 7.3 0.05 Q6.75 0.05 6.75 0.3 6.9 0.15 7.35 0.15 L7.65 0.3" fill="#ffffff" fill-rule="evenodd" stroke="none"/>
    <path d="M6.1 1.8 L5.8 1.65 Q7.55 1.55 9.0 0.35 L9.05 0.45 9.0 0.55 Q7.8 1.85 6.5 1.85 L6.1 1.8 M7.85 -0.3 L8.65 0.3 8.65 0.4 8.55 0.5 8.5 0.45 8.45 0.5 8.4 0.45 8.4 0.4 7.7 -0.25 7.65 -0.25 7.6 -0.6 7.75 -0.6 7.85 -0.55 7.75 -0.3 7.85 -0.3 M8.65 -0.55 L8.85 -0.55 9.0 -0.45 8.75 -0.35 8.65 -0.4 8.65 -0.55 M8.6 -0.15 L8.8 -0.05 8.7 0.05 8.55 0.05 8.5 -0.05 8.6 -0.15 M9.1 -0.3 L9.25 0.0 9.05 -0.05 9.05 -0.3 9.1 -0.3 M9.0 -0.65 L9.3 -0.8 9.35 -0.75 9.35 -0.55 9.4 -0.55 9.3 -0.45 9.0 -0.65 M-9.25 -0.7 L-9.8 -1.75 -9.85 -1.9 -9.85 -2.4 -9.8 -2.4 -9.8 -2.25 Q-9.7 -1.5 -8.5 0.0 L-8.15 -0.4 -8.55 -1.0 -8.5 -1.0 -8.2 -0.75 Q-7.9 -0.85 -7.65 -1.0 -7.75 -0.9 -8.15 -0.7 L-7.95 -0.45 Q-8.05 -0.1 -8.4 0.05 L-8.1 0.4 Q-7.8 0.4 -7.65 0.55 L-7.65 0.6 -7.95 0.6 -7.7 0.9 -7.65 1.0 -7.7 1.05 -7.75 1.05 -8.8 -0.1 -9.05 -0.5 -9.25 -0.7 M-5.7 1.35 L-5.75 1.4 -5.75 1.35 -5.85 1.15 -5.7 1.1 -5.65 1.3 -5.7 1.35 M-7.3 1.2 L-7.2 1.3 -7.25 1.35 -7.55 1.35 -7.6 1.2 -7.55 1.1 -7.55 1.0 -7.45 1.0 -7.3 1.2 M7.65 0.3 L7.35 0.15 Q6.9 0.15 6.75 0.3 6.75 0.05 7.3 0.05 L7.5 0.0 8.05 0.2 7.65 0.3" fill="#fe503d" fill-rule="evenodd" stroke="none"/>
    <path d="M-8.15 6.5 L-8.25 5.85 -8.2 5.6 -6.4 5.85 0.7 6.15 1.1 6.15 Q0.85 6.15 0.85 6.3 L0.9 6.35 1.1 6.15 6.35 5.7 7.25 5.8 8.15 5.65 8.25 5.9 8.2 5.95 8.25 6.2 8.15 6.35 8.15 6.4 8.35 6.25 8.35 6.7 8.3 7.3 8.1 7.3 6.15 9.05 5.15 9.85 3.75 10.35 Q3.7 9.1 2.75 8.45 0.75 6.95 -1.4 6.95 L-2.2 7.1 Q-3.35 6.2 -5.35 6.2 L-8.15 6.5" fill="#6a0300" fill-rule="evenodd" stroke="none"/>
    <path d="M3.4 10.45 L2.1 10.55 -2.2 9.85 -2.25 9.85 Q-2.55 9.5 -2.85 9.55 L-3.0 9.55 -3.0 9.65 -3.0 9.7 -5.35 8.95 Q-8.1 7.85 -8.25 7.0 L-5.55 6.5 Q-3.45 6.5 -2.45 7.3 L-2.55 7.45 -2.45 7.5 -2.3 7.45 -2.0 7.85 -1.25 9.15 -1.1 9.1 -1.05 8.9 Q-1.05 8.2 -1.85 7.4 L-1.9 7.35 -1.45 7.25 Q1.15 7.25 2.5 8.75 L3.4 10.45 M-6.2 6.95 L-6.2 7.0 -6.15 7.05 -6.2 6.95 M-4.65 6.85 L-4.55 6.85 -4.65 6.8 -4.65 6.85" fill="#aa0400" fill-rule="evenodd" stroke="none"/>
    <path d="M3.5 10.75 L3.4 10.45 2.5 8.75 Q1.15 7.25 -1.45 7.25 L-1.9 7.35 -1.85 7.4 Q-1.05 8.2 -1.05 8.9 L-1.1 9.1 -1.25 9.15 -2.0 7.85 -2.3 7.45 -2.45 7.5 -2.55 7.45 -2.45 7.3 Q-3.45 6.5 -5.55 6.5 L-8.25 7.0 -8.35 7.05 -8.4 6.9 -8.15 6.5 -5.35 6.2 Q-3.35 6.2 -2.2 7.1 L-1.4 6.95 Q0.75 6.95 2.75 8.45 3.7 9.1 3.75 10.35 L3.75 10.6 3.75 10.7 3.55 10.85 3.5 10.75" fill="#420200" fill-rule="evenodd" stroke="none"/>
    <path d="M13.4 -5.0 Q12.35 -7.55 10.3 -9.65 L10.15 -9.75 Q6.05 -13.85 0.35 -14.1 L-0.25 -14.1 Q-6.35 -14.1 -10.7 -9.75 L-12.5 -7.6 Q-13.55 -6.1 -14.1 -4.5 -15.0 -2.1 -15.0 0.65 L-14.55 4.4 M-14.5 4.65 Q-13.55 8.25 -10.7 11.05 -7.65 14.05 -3.75 15.0 L-0.25 15.4 3.25 15.0 Q7.15 14.05 10.15 11.05 L10.25 10.95 10.8 10.35 10.95 10.2 12.15 8.7 12.75 7.75 12.75 7.65 14.1 4.2 M13.5 -4.85 Q14.5 -2.3 14.5 0.65 L14.2 3.8" fill="none" stroke="#865204" stroke-linecap="round" stroke-linejoin="round" stroke-width="0.5"/>
  </g>
</svg>
