<?xml version="1.0" encoding="UTF-8" standalone="no"?>
<svg xmlns:xlink="http://www.w3.org/1999/xlink" height="30.1px" width="30.0px" xmlns="http://www.w3.org/2000/svg">
  <g transform="matrix(1.0, 0.0, 0.0, 1.0, 15.25, 14.35)">
    <path d="M2.45 -12.15 L2.45 -12.2 Q1.25 -13.4 -1.55 -13.4 L-2.4 -13.35 Q-4.35 -13.1 -4.35 -12.3 -4.35 -11.2 -1.95 -11.2 1.7 -11.2 2.45 -12.15 M4.45 -10.8 L4.4 -11.0 1.35 -11.0 -3.5 -10.05 -3.25 -9.9 Q-0.65 -10.75 4.4 -10.6 L4.45 -10.8 M6.5 -9.2 L6.8 -9.55 6.25 -9.85 -3.55 -9.2 Q-4.55 -8.65 -5.75 -8.5 L-5.7 -8.4 Q-2.75 -9.3 -0.4 -9.25 L6.5 -9.2 M9.0 -5.3 L9.25 -5.25 Q10.6 -4.85 11.05 -4.25 L11.15 -4.3 11.2 -4.45 Q11.2 -5.3 8.85 -6.65 6.15 -8.3 3.3 -8.3 1.55 -8.3 1.55 -6.8 L1.65 -6.2 Q1.85 -5.8 2.45 -5.7 L1.45 -5.1 Q1.45 -4.7 2.0 -4.7 L3.6 -5.05 6.5 -5.4 Q7.9 -5.4 8.5 -4.45 9.65 -2.65 10.55 -1.85 L10.95 -2.4 10.05 -3.8 10.35 -3.85 10.35 -4.05 9.9 -4.05 9.6 -4.5 9.0 -5.3 M-7.5 -5.6 L-7.65 -5.5 -9.65 -4.25 -9.65 -3.9 -9.45 -3.85 -7.4 -4.9 -4.5 -5.6 Q-3.65 -5.6 -2.55 -4.85 L-1.65 -4.65 -1.0 -4.25 Q0.1 -4.25 0.85 -5.0 L0.55 -5.05 0.05 -4.95 Q-0.4 -4.95 -0.85 -5.4 L-0.3 -5.25 Q0.5 -5.25 0.5 -6.05 L-0.15 -7.4 Q-1.0 -8.55 -2.0 -8.55 -6.3 -8.55 -10.5 -4.7 L-10.3 -4.65 -7.65 -5.55 -7.5 -5.6 M1.55 -0.25 L1.15 -1.5 Q0.75 -3.7 0.3 -3.7 -0.35 -3.65 -0.35 -2.85 L-0.15 -1.45 -0.05 -0.15 -0.05 -0.1 Q-1.65 1.2 -1.75 1.85 L-1.75 1.9 -2.45 2.1 -2.9 2.15 -2.9 2.35 -2.7 2.4 -2.65 2.55 -2.5 2.6 Q-2.0 2.6 -1.8 2.3 L-0.15 2.25 0.05 2.15 0.15 2.15 1.7 1.95 Q2.25 1.95 2.25 1.65 2.25 1.25 1.7 1.4 L1.7 1.35 2.0 0.95 1.45 0.1 1.55 -0.25 M9.9 -0.8 Q9.85 -1.9 8.9 -3.05 8.15 -3.9 7.4 -4.1 L6.55 -4.65 4.3 -4.8 Q3.1 -4.85 1.85 -3.6 1.6 -3.4 1.6 -1.8 1.6 -0.3 1.95 0.35 L3.2 1.35 3.9 1.75 3.75 1.7 3.7 1.7 3.7 1.85 4.35 1.95 5.45 2.25 6.35 2.45 6.35 2.55 8.2 2.9 Q9.4 2.9 10.5 2.25 L10.25 2.2 8.75 2.8 6.35 2.4 5.9 2.25 7.8 1.9 7.85 2.05 8.4 2.1 9.05 2.0 Q8.5 2.4 7.15 2.4 L6.3 2.35 7.5 2.6 Q8.2 2.6 8.95 2.2 L9.2 1.9 9.9 1.5 10.65 0.7 10.65 0.65 10.8 0.75 11.15 0.5 Q10.75 0.1 10.45 0.1 L10.35 0.5 Q10.05 0.6 9.35 1.2 L8.45 1.55 8.95 1.1 9.85 -0.1 10.7 -0.1 10.75 -0.15 10.1 -0.2 9.85 -0.2 9.9 -0.6 10.75 -0.9 10.7 -0.95 9.9 -0.8 M-14.1 -4.45 Q-13.55 -6.1 -12.5 -7.6 L-10.7 -9.75 Q-6.35 -14.1 -0.25 -14.1 L0.35 -14.1 Q6.05 -13.85 10.15 -9.75 L10.3 -9.6 Q12.35 -7.55 13.4 -5.0 11.95 -4.25 11.95 -3.35 L12.35 -1.1 11.85 1.45 11.9 1.75 11.8 1.75 Q11.65 1.75 11.65 1.85 L12.15 2.7 12.4 3.45 Q12.45 3.85 12.85 3.85 L13.4 3.65 14.1 4.25 12.75 7.7 12.75 7.8 12.15 8.8 10.95 10.3 10.8 10.45 10.25 11.0 10.15 11.1 Q7.15 14.2 3.25 15.1 L-0.25 15.5 -3.75 15.1 Q-7.65 14.2 -10.7 11.1 -13.55 8.3 -14.5 4.75 L-14.5 4.7 -14.45 4.7 -13.85 4.15 -13.2 4.25 -12.7 3.95 -12.8 3.7 -12.55 3.2 -12.4 3.5 -12.0 2.3 -11.85 2.05 -11.95 1.75 Q-11.7 1.55 -11.75 0.9 L-11.0 0.3 -10.55 -0.1 -10.65 -0.2 -10.7 -0.15 -10.7 -0.25 Q-9.85 -0.5 -9.85 -0.65 L-10.05 -0.9 -11.6 -0.45 -12.35 -0.2 -12.65 -1.5 -12.2 -1.5 -12.05 -1.35 -11.5 -1.5 -12.35 -0.9 -12.15 -0.75 -11.7 -0.9 -11.7 -0.85 -11.65 -0.85 -11.4 -0.9 -11.4 -1.0 -11.05 -1.1 -10.7 -1.2 -10.5 -1.0 Q-10.2 -1.0 -10.2 -1.35 L-10.2 -1.6 -10.1 -1.85 Q-10.1 -0.7 -9.0 0.15 L-8.15 1.15 Q-7.35 1.75 -5.3 1.75 L-3.45 1.45 -4.35 1.95 -7.65 2.3 Q-8.1 2.3 -9.05 1.75 L-9.1 1.8 Q-8.6 2.4 -7.65 2.45 L-9.0 2.45 -10.65 1.1 -10.7 1.1 Q-10.7 1.6 -10.2 1.9 L-9.0 2.45 -7.7 2.65 -6.4 2.5 -6.55 2.45 -5.8 2.4 Q-8.5 3.0 -8.65 3.4 L-8.85 3.35 Q-9.85 3.35 -9.85 4.6 L-9.75 5.5 Q-9.75 6.2 -10.85 7.75 L-10.65 7.95 -10.95 8.55 -10.9 8.65 -10.95 9.05 -10.4 10.3 -10.1 10.05 -10.45 9.0 -10.3 8.35 -10.3 8.3 Q-9.65 8.15 -8.85 5.5 L-9.0 4.6 -8.5 3.75 -8.0 3.85 -7.9 3.8 -8.1 3.55 Q-4.45 2.75 -4.45 2.5 L-4.6 2.25 Q-3.15 1.95 -3.15 1.3 L-1.9 0.4 Q-0.65 -0.75 -0.65 -1.7 -0.65 -3.85 -3.7 -5.05 -9.6 -4.55 -10.05 -2.25 L-10.3 -2.35 -10.5 -2.2 -12.0 -2.25 -12.05 -2.5 -12.1 -2.5 -12.1 -2.2 -11.45 -2.05 -11.7 -2.05 -11.85 -2.0 -12.6 -1.9 -12.55 -2.75 -13.15 -3.6 Q-13.65 -4.45 -13.95 -4.4 L-14.1 -4.4 -14.1 -4.45 M11.15 -2.5 L11.45 -2.3 Q11.6 -2.3 11.75 -2.45 L11.5 -2.7 Q11.15 -2.7 11.15 -2.5 M10.8 2.3 L10.75 2.3 11.0 3.45 10.8 4.55 11.1 3.4 10.8 2.3 M10.25 7.0 L10.3 7.95 Q10.45 8.95 11.05 8.95 L11.3 8.7 Q10.75 8.65 10.75 7.0 10.75 5.75 10.55 5.25 10.25 5.7 10.25 7.0 M11.55 6.1 L11.8 5.85 11.55 5.4 11.25 5.65 Q11.25 6.05 11.55 6.1 M10.45 1.55 L10.3 1.4 Q9.95 1.5 9.25 2.05 L9.6 2.25 Q10.45 2.25 10.45 1.55 M5.8 2.85 L5.55 2.9 Q5.55 3.3 7.1 3.8 L8.6 4.9 8.65 4.9 8.9 5.7 8.8 8.05 8.85 9.1 8.85 9.4 Q9.05 10.6 9.75 10.6 L10.35 10.2 Q9.7 9.25 9.7 8.05 L9.8 6.1 Q9.7 4.3 8.9 4.3 L8.8 4.35 Q8.55 3.95 7.75 3.5 6.6 2.8 5.8 2.85 M8.2 6.0 L8.25 5.95 8.25 6.0 8.2 6.0 M3.75 10.8 L5.2 10.3 6.25 9.5 8.3 7.8 8.25 7.95 8.6 9.2 8.8 9.15 Q8.45 8.85 8.45 7.9 L8.55 6.75 8.5 6.15 8.4 5.6 8.45 5.5 8.4 5.4 8.3 5.4 Q7.9 4.75 7.1 4.75 L7.05 4.75 7.95 5.4 7.9 5.4 7.25 5.55 6.2 5.4 -0.3 5.85 0.05 5.85 -0.8 5.8 -0.3 5.55 -0.4 5.5 -1.0 5.8 -2.05 5.75 Q-1.1 5.45 -1.2 5.05 L-2.2 5.7 -2.2 5.75 -8.2 5.55 -7.95 5.25 -7.0 3.9 Q-8.45 4.4 -8.35 6.3 -8.35 6.85 -9.95 8.75 L-8.6 7.5 Q-8.6 8.35 -7.8 8.6 L-8.5 7.45 -8.5 7.4 -8.4 7.2 -8.4 7.25 Q-8.4 7.65 -7.2 8.45 -6.05 9.2 -5.3 9.4 L-2.55 10.25 -2.3 10.3 Q-1.85 10.9 -1.6 11.85 L-1.5 11.85 -1.45 11.6 -1.9 10.4 -1.45 10.5 -1.0 11.5 -0.95 11.45 -1.35 10.55 0.15 10.8 0.15 10.9 0.2 10.85 0.2 10.8 2.1 10.9 3.5 10.85 3.55 10.9 3.75 10.8 M-3.0 9.7 L-2.85 9.8 -3.0 9.75 -3.0 9.7 M0.5 11.35 L0.4 11.35 0.4 11.65 0.5 11.85 0.55 11.75 0.5 11.35 M1.5 5.6 L1.5 5.7 1.8 5.7 1.9 5.55 1.5 5.6 M7.9 8.7 L8.05 8.75 8.25 8.35 7.9 8.7 M-11.85 -3.8 Q-11.85 -3.5 -10.75 -3.1 L-10.35 -3.1 -10.3 -3.25 -10.35 -3.4 Q-11.7 -3.7 -11.65 -3.9 L-11.85 -3.8 M-2.55 -12.7 L-1.9 -12.7 -2.0 -12.6 -3.4 -12.2 -3.55 -12.3 Q-3.25 -12.7 -2.55 -12.7 M-10.0 0.7 L-10.05 0.85 Q-10.05 1.45 -9.4 1.45 L-9.2 1.4 Q-8.55 2.1 -7.8 2.1 L-7.65 2.05 -7.6 1.85 -9.0 0.9 -10.15 -0.25 -10.3 -0.2 -10.0 0.35 -10.05 0.35 -10.05 0.6 -10.0 0.7 M-10.0 0.35 L-9.7 0.8 -9.8 0.75 -10.0 0.35 M-8.25 9.25 L-8.7 8.75 -8.75 8.75 -8.25 9.3 -8.25 9.25 M-11.8 4.15 Q-11.6 5.55 -10.55 6.6 L-10.6 6.95 -10.5 6.9 -10.45 6.8 -10.45 6.5 -11.75 3.45 -11.45 2.35 -11.55 2.3 Q-11.85 2.6 -11.85 3.45 L-11.8 4.15 -12.3 3.5 -12.35 3.5 -12.4 3.65 -11.9 4.45 -11.8 4.15 M-0.7 11.35 L-0.8 11.2 -0.75 11.4 -0.7 11.35 M-11.25 3.3 L-10.7 4.1 Q-10.4 4.1 -10.4 3.35 -10.3 2.5 -10.8 2.5 -11.25 2.5 -11.25 3.3 M-10.45 8.25 L-10.5 8.25 -10.45 8.2 -10.45 8.25" fill="#fbc87b" fill-rule="evenodd" stroke="none"/>
    <path d="M6.5 -9.2 L-0.4 -9.25 Q-2.75 -9.3 -5.7 -8.4 L-5.75 -8.5 Q-4.55 -8.65 -3.55 -9.2 L6.25 -9.85 6.8 -9.55 6.5 -9.2 M4.45 -10.8 L4.4 -10.6 Q-0.65 -10.75 -3.25 -9.9 L-3.5 -10.05 1.35 -11.0 4.4 -11.0 4.45 -10.8 M2.45 -12.15 Q1.7 -11.2 -1.95 -11.2 -4.35 -11.2 -4.35 -12.3 -4.35 -13.1 -2.4 -13.35 L-1.55 -13.4 Q1.25 -13.4 2.45 -12.2 L2.45 -12.15 M9.0 -5.3 L9.6 -4.5 9.9 -4.05 10.35 -4.05 10.35 -3.85 10.05 -3.8 10.95 -2.4 10.55 -1.85 Q9.65 -2.65 8.5 -4.45 7.9 -5.4 6.5 -5.4 L3.6 -5.05 2.0 -4.7 Q1.45 -4.7 1.45 -5.1 L2.45 -5.7 2.65 -5.7 6.0 -5.9 9.0 -5.3 M3.6 -6.0 L6.8 -6.35 7.9 -6.1 6.0 -6.25 3.6 -6.0 M-0.85 -5.4 Q-0.4 -4.95 0.05 -4.95 L0.55 -5.05 0.85 -5.0 Q0.1 -4.25 -1.0 -4.25 L-1.65 -4.65 -2.55 -4.85 Q-3.65 -5.6 -4.5 -5.6 L-7.4 -4.9 -9.45 -3.85 -9.65 -3.9 -9.65 -4.25 -7.65 -5.5 -7.5 -5.6 -3.9 -6.0 -0.85 -5.4 M1.55 -0.25 L1.45 0.1 2.0 0.95 1.7 1.35 1.7 1.4 Q2.25 1.25 2.25 1.65 2.25 1.95 1.7 1.95 L0.15 2.15 0.05 2.15 -0.15 2.25 -1.8 2.3 Q-2.0 2.6 -2.5 2.6 L-2.65 2.55 -2.7 2.4 -2.9 2.35 -2.9 2.15 -2.45 2.1 -1.75 1.9 -1.75 1.85 Q-1.65 1.2 -0.05 -0.1 L-0.05 -0.15 -0.15 -1.45 -0.35 -2.85 Q-0.35 -3.65 0.3 -3.7 0.75 -3.7 1.15 -1.5 L1.55 -0.25 M8.45 1.55 L9.35 1.2 Q10.05 0.6 10.35 0.5 L10.45 0.1 Q10.75 0.1 11.15 0.5 L10.8 0.75 10.65 0.65 10.65 0.7 9.9 1.5 9.2 1.9 9.05 2.0 8.4 2.1 7.85 2.05 7.8 1.9 7.8 1.85 7.85 1.85 8.45 1.55 M-12.6 -1.9 L-11.85 -2.0 -11.7 -2.05 -11.45 -2.05 -11.4 -2.1 -11.35 -2.05 -11.2 -2.05 -11.0 -2.05 -10.8 -2.05 -10.5 -2.2 -10.3 -2.35 -10.05 -2.25 -10.0 -2.2 -10.0 -2.1 -10.0 -2.05 -10.1 -1.85 -10.2 -1.6 -10.2 -1.35 Q-10.2 -1.0 -10.5 -1.0 L-10.7 -1.2 -10.7 -1.3 -11.05 -1.1 -11.4 -1.0 -11.4 -0.9 -11.65 -0.85 -11.7 -0.85 -11.7 -0.9 -12.15 -0.75 -12.35 -0.9 -11.5 -1.5 -12.05 -1.35 -12.2 -1.5 -12.65 -1.5 -12.65 -1.6 -12.6 -1.9 M-4.6 2.25 L-4.45 2.5 Q-4.45 2.75 -8.1 3.55 L-7.9 3.8 -8.0 3.85 -8.5 3.75 -9.0 4.6 -8.85 5.5 Q-9.65 8.15 -10.3 8.3 L-10.3 8.35 -10.45 9.0 -10.1 10.05 -10.4 10.3 -10.95 9.05 -10.9 8.65 -10.95 8.55 -10.65 7.95 -10.85 7.75 Q-9.75 6.2 -9.75 5.5 L-9.85 4.6 Q-9.85 3.35 -8.85 3.35 L-8.65 3.4 Q-8.5 3.0 -5.8 2.4 L-5.15 2.25 -4.95 2.2 -4.6 2.25 M-12.35 -0.2 L-11.6 -0.45 -10.05 -0.9 -9.85 -0.65 Q-9.85 -0.5 -10.7 -0.25 L-10.7 -0.15 -10.65 -0.2 -10.55 -0.1 -11.0 0.3 -11.75 0.9 Q-11.7 1.55 -11.95 1.75 L-11.85 2.05 -12.0 2.3 -12.4 3.5 -12.55 3.2 -11.95 1.75 -11.85 1.05 -12.35 -0.2 M11.15 -2.5 Q11.15 -2.7 11.5 -2.7 L11.75 -2.45 Q11.6 -2.3 11.45 -2.3 L11.15 -2.5 M10.45 1.55 Q10.45 2.25 9.6 2.25 L9.25 2.05 Q9.95 1.5 10.3 1.4 L10.45 1.55 M11.55 6.1 Q11.25 6.05 11.25 5.65 L11.55 5.4 11.8 5.85 11.55 6.1 M10.25 7.0 Q10.25 5.7 10.55 5.25 10.75 5.75 10.75 7.0 10.75 8.65 11.3 8.7 L11.05 8.95 Q10.45 8.95 10.3 7.95 L10.25 7.0 M5.8 2.85 Q6.6 2.8 7.75 3.5 8.55 3.95 8.8 4.35 L8.9 4.3 Q9.7 4.3 9.8 6.1 L9.7 8.05 Q9.7 9.25 10.35 10.2 L9.75 10.6 Q9.05 10.6 8.85 9.4 L8.85 9.1 8.8 8.05 8.9 5.7 8.65 4.9 8.6 4.9 7.1 3.8 Q5.55 3.3 5.55 2.9 L5.8 2.85 M-2.55 -12.7 Q-3.25 -12.7 -3.55 -12.3 L-3.4 -12.2 -2.0 -12.6 -1.9 -12.7 -2.55 -12.7 M-11.85 -3.8 L-11.65 -3.9 Q-11.7 -3.7 -10.35 -3.4 L-10.3 -3.25 -10.35 -3.1 -10.75 -3.1 Q-11.85 -3.5 -11.85 -3.8 M-10.0 0.35 L-10.3 -0.2 -10.15 -0.25 -9.0 0.9 -7.6 1.85 -7.65 2.05 -7.8 2.1 Q-8.55 2.1 -9.2 1.4 L-9.4 1.45 Q-10.05 1.45 -10.05 0.85 L-10.0 0.7 -9.95 0.55 -9.8 0.75 -9.7 0.8 -10.0 0.35 M-5.3 -6.3 L-3.9 -6.45 -1.45 -6.0 -3.6 -6.4 -5.3 -6.3 M-6.15 7.1 L-6.2 7.1 -6.2 7.0 -6.15 7.1 M-11.8 4.15 L-11.9 4.45 -12.4 3.65 -12.35 3.5 -12.3 3.5 -11.8 4.15 M-11.25 3.3 Q-11.25 2.5 -10.8 2.5 -10.3 2.5 -10.4 3.35 -10.4 4.1 -10.7 4.1 L-11.25 3.3 M-10.45 8.25 L-10.45 8.2 -10.5 8.25 -10.45 8.25" fill="#fcd79e" fill-rule="evenodd" stroke="none"/>
    <path d="M3.6 -6.0 L2.8 -6.0 Q1.85 -6.0 1.85 -6.8 L2.0 -7.35 Q2.25 -7.9 2.95 -7.85 7.1 -7.9 9.85 -5.4 L7.9 -6.1 6.8 -6.35 3.6 -6.0 M3.3 -6.6 L3.55 -6.55 Q4.95 -7.15 4.95 -7.35 L4.7 -7.55 Q3.4 -7.55 3.3 -6.6 M-14.1 -4.45 L-14.1 -4.4 Q-14.1 -3.95 -12.75 -2.75 L-12.85 -1.6 -12.85 -1.55 -12.5 -0.1 -12.05 1.05 -12.3 2.15 -12.3 2.2 -12.4 2.45 -13.0 3.7 -12.9 4.0 -13.55 4.0 Q-14.25 3.75 -14.55 4.5 -15.0 2.65 -15.0 0.7 -15.0 -2.05 -14.1 -4.45 M13.5 -4.8 Q14.5 -2.3 14.5 0.7 L14.2 3.9 Q13.7 3.45 13.5 3.5 L12.9 3.6 12.7 3.55 12.6 3.4 12.6 3.05 12.1 1.95 12.05 1.45 12.5 -0.45 12.55 -1.1 12.15 -3.3 Q12.15 -3.95 13.5 -4.8 M12.5 -0.45 L13.15 -0.8 13.15 -0.7 Q13.15 0.25 13.4 0.3 13.8 -1.0 13.8 -2.25 L13.75 -2.4 13.7 -2.4 12.5 -0.45 M-13.55 -1.3 L-13.4 -1.9 -13.4 -2.35 Q-13.95 -1.55 -14.05 1.3 -14.05 3.25 -13.7 3.25 -13.2 3.25 -13.0 -1.9 -13.0 -2.3 -13.25 -2.25 L-13.4 -1.3 -13.55 -1.3 M-1.4 -6.85 L-1.05 -7.05 -1.0 -7.3 -1.05 -7.5 -1.15 -7.6 -4.3 -7.65 -6.15 -6.95 -6.15 -6.6 -5.85 -6.6 Q-4.95 -7.1 -3.65 -7.05 L-1.4 -6.85 M-5.3 -6.3 L-9.45 -5.3 Q-6.9 -7.0 -6.55 -7.1 -3.85 -8.25 -3.2 -8.25 0.2 -8.25 0.2 -6.1 0.2 -5.65 -0.3 -5.65 L-1.45 -6.0 -3.9 -6.45 -5.3 -6.3" fill="#c8c8c8" fill-rule="evenodd" stroke="none"/>
    <path d="M2.45 -5.7 Q1.85 -5.8 1.65 -6.2 L1.55 -6.8 Q1.55 -8.3 3.3 -8.3 6.15 -8.3 8.85 -6.65 11.2 -5.3 11.2 -4.45 L11.15 -4.3 11.05 -4.25 Q10.6 -4.85 9.25 -5.25 L9.0 -5.3 6.0 -5.9 2.65 -5.7 2.45 -5.7 M7.9 -6.1 L9.85 -5.4 Q7.1 -7.9 2.95 -7.85 2.25 -7.9 2.0 -7.35 L1.85 -6.8 Q1.85 -6.0 2.8 -6.0 L3.6 -6.0 6.0 -6.25 7.9 -6.1 M-7.5 -5.6 L-7.65 -5.55 -10.3 -4.65 -10.5 -4.7 Q-6.3 -8.55 -2.0 -8.55 -1.0 -8.55 -0.15 -7.4 L0.5 -6.05 Q0.5 -5.25 -0.3 -5.25 L-0.85 -5.4 -3.9 -6.0 -7.5 -5.6 M4.25 -1.15 L3.7 -1.7 Q3.7 -2.15 4.1 -2.15 4.6 -2.15 4.6 -1.55 4.6 -1.2 4.25 -1.15 M3.9 1.75 L3.2 1.35 1.95 0.35 Q1.6 -0.3 1.6 -1.8 1.6 -3.4 1.85 -3.6 3.1 -4.85 4.3 -4.8 L6.55 -4.65 7.4 -4.1 Q8.15 -3.9 8.9 -3.05 9.85 -1.9 9.9 -0.8 L9.7 -0.6 9.9 -0.6 9.85 -0.2 9.7 -0.1 9.85 -0.1 8.95 1.1 8.45 1.55 7.85 1.85 7.8 1.85 7.8 1.9 5.9 2.25 5.45 2.1 5.4 2.1 5.45 2.25 4.35 1.95 4.75 2.05 3.9 1.75 M9.0 0.6 Q9.6 -0.1 9.6 -0.7 9.6 -2.3 7.85 -3.5 6.3 -4.6 4.95 -4.55 1.9 -4.55 1.9 -1.8 1.9 0.05 2.3 0.3 4.45 1.85 5.75 1.85 L6.1 1.85 6.5 1.9 Q7.8 1.9 9.0 0.6 M-14.1 -4.4 L-13.95 -4.4 Q-13.65 -4.45 -13.15 -3.6 L-12.55 -2.75 -12.6 -1.9 -12.65 -1.6 -12.65 -1.5 -12.35 -0.2 -11.85 1.05 -11.95 1.75 -12.55 3.2 -12.8 3.7 -12.7 3.95 -13.2 4.25 -13.85 4.15 -14.45 4.7 -14.5 4.7 -14.65 4.7 -14.55 4.5 Q-14.25 3.75 -13.55 4.0 L-12.9 4.0 -13.0 3.7 -12.4 2.45 -12.3 2.2 -12.3 2.15 -12.05 1.05 -12.5 -0.1 -12.85 -1.55 -12.85 -1.6 -12.75 -2.75 Q-14.1 -3.95 -14.1 -4.4 M-10.05 -2.25 Q-9.6 -4.55 -3.7 -5.05 -0.65 -3.85 -0.65 -1.7 -0.65 -0.75 -1.9 0.4 L-3.15 1.3 -3.15 1.25 -3.45 1.45 -5.3 1.75 Q-7.35 1.75 -8.15 1.15 L-9.0 0.15 Q-10.1 -0.7 -10.1 -1.85 L-10.0 -2.05 -9.95 -2.1 -10.0 -2.2 -10.05 -2.25 M14.1 4.25 L13.4 3.65 12.85 3.85 Q12.45 3.85 12.4 3.45 L12.15 2.7 11.65 1.85 Q11.65 1.75 11.8 1.75 L11.9 1.75 11.85 1.45 12.35 -1.1 11.95 -3.35 Q11.95 -4.25 13.4 -5.0 L13.55 -4.95 13.6 -4.9 13.5 -4.8 Q12.15 -3.95 12.15 -3.3 L12.55 -1.1 12.5 -0.45 12.05 1.45 12.1 1.95 12.6 3.05 12.6 3.4 12.7 3.55 12.9 3.6 13.5 3.5 Q13.7 3.45 14.2 3.9 L14.35 4.05 14.1 4.25 M-9.8 -2.25 L-9.8 -2.4 -9.85 -2.4 -9.85 -1.9 -9.8 -1.7 -9.25 -0.6 -8.8 -0.05 -7.75 1.1 -7.7 1.1 -7.55 1.15 -7.6 1.25 -7.55 1.4 -7.25 1.4 -7.2 1.35 -7.3 1.25 -5.75 1.4 -5.75 1.45 -5.7 1.4 -5.65 1.4 Q-3.55 1.4 -2.1 0.1 -0.95 -0.95 -0.95 -1.7 -0.95 -2.4 -1.75 -3.4 -2.8 -4.7 -4.15 -4.65 -6.9 -4.7 -8.55 -3.6 -9.55 -2.9 -9.8 -2.25 M-1.45 -6.0 L-0.3 -5.65 Q0.2 -5.65 0.2 -6.1 0.2 -8.25 -3.2 -8.25 -3.85 -8.25 -6.55 -7.1 -6.9 -7.0 -9.45 -5.3 L-5.3 -6.3 -3.6 -6.4 -1.45 -6.0 M-2.9 -2.1 Q-2.9 -1.3 -3.5 -1.3 L-3.95 -1.9 Q-3.95 -2.6 -3.4 -2.6 -2.9 -2.6 -2.9 -2.1" fill="#000000" fill-rule="evenodd" stroke="none"/>
    <path d="M3.3 -6.6 Q3.4 -7.55 4.7 -7.55 L4.95 -7.35 Q4.95 -7.15 3.55 -6.55 L3.3 -6.6 M12.5 -0.45 L13.7 -2.4 13.75 -2.4 13.8 -2.25 Q13.8 -1.0 13.4 0.3 13.15 0.25 13.15 -0.7 L13.15 -0.8 12.5 -0.45 M-13.55 -1.3 L-13.4 -1.3 -13.25 -2.25 Q-13.0 -2.3 -13.0 -1.9 -13.2 3.25 -13.7 3.25 -14.05 3.25 -14.05 1.3 -13.95 -1.55 -13.4 -2.35 L-13.4 -1.9 -13.55 -1.3 M-1.4 -6.85 L-3.65 -7.05 Q-4.95 -7.1 -5.85 -6.6 L-6.15 -6.6 -6.15 -6.95 -4.3 -7.65 -1.15 -7.6 -1.05 -7.5 -1.0 -7.3 -1.05 -7.05 -1.4 -6.85" fill="#d8d8d8" fill-rule="evenodd" stroke="none"/>
    <path d="M9.9 -0.8 L10.7 -0.95 10.75 -0.9 9.9 -0.6 9.7 -0.6 9.9 -0.8 M9.85 -0.2 L10.1 -0.2 10.75 -0.15 10.7 -0.1 9.85 -0.1 9.7 -0.1 9.85 -0.2 M9.2 1.9 L8.95 2.2 Q8.2 2.6 7.5 2.6 L6.3 2.35 7.15 2.4 Q8.5 2.4 9.05 2.0 L9.2 1.9 M5.9 2.25 L6.35 2.4 8.75 2.8 10.25 2.2 10.5 2.25 Q9.4 2.9 8.2 2.9 L6.35 2.55 6.35 2.45 5.45 2.25 5.4 2.1 5.45 2.1 5.9 2.25 M4.35 1.95 L3.7 1.85 3.7 1.7 3.75 1.7 3.9 1.75 4.75 2.05 4.35 1.95 M-11.45 -2.05 L-12.1 -2.2 -12.1 -2.5 -12.05 -2.5 -12.0 -2.25 -10.5 -2.2 -10.8 -2.05 -11.0 -2.05 -11.2 -2.05 -11.35 -2.05 -11.4 -2.1 -11.45 -2.05 M-3.15 1.3 Q-3.15 1.95 -4.6 2.25 L-4.95 2.2 -5.15 2.25 -5.8 2.4 -6.55 2.45 -6.4 2.5 -7.7 2.65 -9.0 2.45 -10.2 1.9 Q-10.7 1.6 -10.7 1.1 L-10.65 1.1 -9.0 2.45 -7.65 2.45 Q-8.6 2.4 -9.1 1.8 L-9.05 1.75 Q-8.1 2.3 -7.65 2.3 L-4.35 1.95 -3.45 1.45 -3.15 1.25 -3.15 1.3 M-10.7 -1.2 L-11.05 -1.1 -10.7 -1.3 -10.7 -1.2 M10.8 2.3 L11.1 3.4 10.8 4.55 11.0 3.45 10.75 2.3 10.8 2.3 M8.25 5.95 L8.15 5.7 7.25 5.85 6.35 5.75 1.1 6.2 0.9 6.4 0.85 6.35 1.05 6.2 0.7 6.2 -6.4 5.9 -8.2 5.65 -8.25 5.9 -8.15 6.6 -8.4 7.0 -8.35 7.15 -8.25 7.1 Q-8.1 7.95 -5.35 9.05 L-3.0 9.75 -2.85 9.8 -3.0 9.7 -3.0 9.6 -2.85 9.6 Q-2.55 9.6 -2.25 9.9 L-2.2 9.9 2.1 10.65 3.4 10.55 3.5 10.85 2.1 10.9 0.2 10.8 0.2 10.85 0.15 10.9 0.15 10.8 -1.35 10.55 -0.95 11.45 -1.0 11.5 -1.45 10.5 -1.9 10.4 -1.45 11.6 -1.5 11.85 -1.6 11.85 Q-1.85 10.9 -2.3 10.3 L-2.55 10.25 -5.3 9.4 Q-6.05 9.2 -7.2 8.45 -8.4 7.65 -8.4 7.25 L-8.4 7.2 -8.5 7.4 -8.5 7.45 -7.8 8.6 Q-8.6 8.35 -8.6 7.5 L-9.95 8.75 Q-8.35 6.85 -8.35 6.3 -8.45 4.4 -7.0 3.9 L-7.95 5.25 -8.2 5.55 -2.2 5.75 -2.2 5.7 -1.2 5.05 Q-1.1 5.45 -2.05 5.75 L-1.0 5.8 -0.4 5.5 -0.3 5.55 -0.8 5.8 0.05 5.85 -0.3 5.85 6.2 5.4 7.25 5.55 7.9 5.4 7.95 5.4 7.05 4.75 7.1 4.75 Q7.9 4.75 8.3 5.4 L8.4 5.4 8.45 5.5 8.4 5.6 8.5 6.15 8.55 6.75 8.45 7.9 Q8.45 8.85 8.8 9.15 L8.6 9.2 8.25 7.95 8.3 7.8 6.25 9.5 5.2 10.3 3.75 10.8 3.75 10.7 3.75 10.45 5.15 9.95 6.15 9.15 8.1 7.35 8.3 7.35 8.35 6.75 8.35 6.35 8.15 6.45 8.15 6.4 8.25 6.25 8.2 6.0 8.25 6.0 8.25 5.95 M1.5 5.6 L1.9 5.55 1.8 5.7 1.5 5.7 1.5 5.6 M0.5 11.35 L0.55 11.75 0.5 11.85 0.4 11.65 0.4 11.35 0.5 11.35 M7.9 8.7 L8.25 8.35 8.05 8.75 7.9 8.7 M-10.0 0.7 L-10.05 0.6 -10.05 0.35 -10.0 0.35 -9.8 0.75 -9.95 0.55 -10.0 0.7 M-10.0 -2.05 L-10.0 -2.1 -10.0 -2.2 -9.95 -2.1 -10.0 -2.05 M-8.25 9.25 L-8.25 9.3 -8.75 8.75 -8.7 8.75 -8.25 9.25 M-4.65 6.95 L-4.65 6.9 -4.55 6.9 -4.65 6.95 M-0.7 11.35 L-0.75 11.4 -0.8 11.2 -0.7 11.35 M-11.8 4.15 L-11.85 3.45 Q-11.85 2.6 -11.55 2.3 L-11.45 2.35 -11.75 3.45 -10.45 6.5 -10.45 6.8 -10.5 6.9 -10.6 6.95 -10.55 6.6 Q-11.6 5.55 -11.8 4.15" fill="#865204" fill-rule="evenodd" stroke="none"/>
    <path d="M4.25 -1.15 Q4.6 -1.2 4.6 -1.55 4.6 -2.15 4.1 -2.15 3.7 -2.15 3.7 -1.7 L4.25 -1.15 M6.1 1.85 L5.75 1.85 Q4.45 1.85 2.3 0.3 1.9 0.05 1.9 -1.8 1.9 -4.55 4.95 -4.55 6.3 -4.6 7.85 -3.5 9.6 -2.3 9.6 -0.7 9.6 -0.1 9.0 0.6 L9.05 0.5 9.0 0.4 Q7.55 1.6 5.8 1.7 L6.1 1.85 M9.35 -0.5 L9.35 -0.7 9.3 -0.75 9.0 -0.6 9.3 -0.35 9.4 -0.45 9.35 -0.5 M9.1 -0.2 L9.05 -0.2 9.05 0.0 9.25 0.05 9.1 -0.2 M8.65 -0.45 L8.65 -0.3 8.75 -0.25 9.0 -0.35 8.85 -0.45 8.65 -0.45 M7.85 -0.2 L7.75 -0.2 7.85 -0.45 7.75 -0.55 7.6 -0.55 7.65 -0.2 7.7 -0.2 8.4 0.45 8.4 0.5 8.45 0.55 8.5 0.5 8.55 0.55 8.65 0.45 8.65 0.35 7.85 -0.2 M7.65 0.35 L8.05 0.25 7.5 0.05 7.3 0.1 Q6.75 0.1 6.75 0.35 6.9 0.2 7.35 0.2 L7.65 0.35 M8.55 0.1 L8.7 0.1 8.8 0.0 8.6 -0.1 8.5 0.0 8.55 0.1 M-9.8 -2.25 Q-9.55 -2.9 -8.55 -3.6 -6.9 -4.7 -4.15 -4.65 -2.8 -4.7 -1.75 -3.4 -0.95 -2.4 -0.95 -1.7 -0.95 -0.95 -2.1 0.1 -3.55 1.4 -5.65 1.4 L-5.7 1.4 -5.65 1.35 -5.7 1.15 -5.85 1.2 -5.75 1.4 -7.3 1.25 -7.45 1.05 -7.55 1.05 -7.55 1.15 -7.7 1.1 -7.65 1.05 -7.7 0.95 -7.95 0.65 -7.65 0.65 -7.65 0.6 Q-7.8 0.45 -8.1 0.45 L-8.4 0.1 Q-8.05 -0.05 -7.95 -0.35 L-8.15 -0.6 -7.65 -0.95 -8.2 -0.65 -8.5 -0.95 -8.55 -0.95 -8.15 -0.3 -8.5 0.05 Q-9.7 -1.45 -9.8 -2.25 M-8.8 -0.05 L-9.25 -0.6 -9.05 -0.4 -8.8 -0.05 M-2.9 -2.1 Q-2.9 -2.6 -3.4 -2.6 -3.95 -2.6 -3.95 -1.9 L-3.5 -1.3 Q-2.9 -1.3 -2.9 -2.1" fill="#ffffff" fill-rule="evenodd" stroke="none"/>
    <path d="M6.1 1.85 L5.8 1.7 Q7.55 1.6 9.0 0.4 L9.05 0.5 9.0 0.6 Q7.8 1.9 6.5 1.9 L6.1 1.85 M7.85 -0.2 L8.65 0.35 8.65 0.45 8.55 0.55 8.5 0.5 8.45 0.55 8.4 0.5 8.4 0.45 7.7 -0.2 7.65 -0.2 7.6 -0.55 7.75 -0.55 7.85 -0.45 7.75 -0.2 7.85 -0.2 M8.65 -0.45 L8.85 -0.45 9.0 -0.35 8.75 -0.25 8.65 -0.3 8.65 -0.45 M9.1 -0.2 L9.25 0.05 9.05 0.0 9.05 -0.2 9.1 -0.2 M9.35 -0.5 L9.4 -0.45 9.3 -0.35 9.0 -0.6 9.3 -0.75 9.35 -0.7 9.35 -0.5 M8.55 0.1 L8.5 0.0 8.6 -0.1 8.8 0.0 8.7 0.1 8.55 0.1 M7.65 0.35 L7.35 0.2 Q6.9 0.2 6.75 0.35 6.75 0.1 7.3 0.1 L7.5 0.05 8.05 0.25 7.65 0.35 M-9.25 -0.6 L-9.8 -1.7 -9.85 -1.9 -9.85 -2.4 -9.8 -2.4 -9.8 -2.25 Q-9.7 -1.45 -8.5 0.05 L-8.15 -0.3 -8.55 -0.95 -8.5 -0.95 -8.2 -0.65 -7.65 -0.95 -8.15 -0.6 -7.95 -0.35 Q-8.05 -0.05 -8.4 0.1 L-8.1 0.45 Q-7.8 0.45 -7.65 0.6 L-7.65 0.65 -7.95 0.65 -7.7 0.95 -7.65 1.05 -7.7 1.1 -7.75 1.1 -8.8 -0.05 -9.05 -0.4 -9.25 -0.6 M-5.7 1.4 L-5.75 1.45 -5.75 1.4 -5.85 1.2 -5.7 1.15 -5.65 1.35 -5.7 1.4 M-7.3 1.25 L-7.2 1.35 -7.25 1.4 -7.55 1.4 -7.6 1.25 -7.55 1.15 -7.55 1.05 -7.45 1.05 -7.3 1.25" fill="#fe503d" fill-rule="evenodd" stroke="none"/>
    <path d="M-8.15 6.6 L-8.25 5.9 -8.2 5.65 -6.4 5.9 0.7 6.2 1.05 6.2 0.85 6.35 0.9 6.4 1.1 6.2 6.35 5.75 7.25 5.85 8.15 5.7 8.25 5.95 8.2 6.0 8.25 6.25 8.15 6.4 8.15 6.45 8.35 6.35 8.35 6.75 8.3 7.35 8.1 7.35 6.15 9.15 5.15 9.95 3.75 10.45 Q3.7 9.2 2.75 8.55 0.75 7.0 -1.4 7.05 L-2.2 7.15 Q-3.35 6.25 -5.35 6.25 L-8.15 6.6" fill="#6a0300" fill-rule="evenodd" stroke="none"/>
    <path d="M3.4 10.55 L2.1 10.65 -2.2 9.9 -2.25 9.9 Q-2.55 9.6 -2.85 9.6 L-3.0 9.6 -3.0 9.7 -3.0 9.75 -5.35 9.05 Q-8.1 7.95 -8.25 7.1 L-5.55 6.55 Q-3.45 6.55 -2.45 7.35 L-2.55 7.5 -2.45 7.55 -2.3 7.5 -2.0 7.9 -1.25 9.25 -1.1 9.2 -1.05 9.0 Q-1.05 8.3 -1.85 7.45 L-1.9 7.4 -1.45 7.3 Q1.15 7.3 2.5 8.85 L3.4 10.55 M-6.15 7.1 L-6.2 7.0 -6.2 7.1 -6.15 7.1 M-4.65 6.95 L-4.55 6.9 -4.65 6.9 -4.65 6.95" fill="#aa0400" fill-rule="evenodd" stroke="none"/>
    <path d="M-8.15 6.6 L-5.35 6.25 Q-3.35 6.25 -2.2 7.15 L-1.4 7.05 Q0.75 7.0 2.75 8.55 3.7 9.2 3.75 10.45 L3.75 10.7 3.75 10.8 3.55 10.9 3.5 10.85 3.4 10.55 2.5 8.85 Q1.15 7.3 -1.45 7.3 L-1.9 7.4 -1.85 7.45 Q-1.05 8.3 -1.05 9.0 L-1.1 9.2 -1.25 9.25 -2.0 7.9 -2.3 7.5 -2.45 7.55 -2.55 7.5 -2.45 7.35 Q-3.45 6.55 -5.55 6.55 L-8.25 7.1 -8.35 7.15 -8.4 7.0 -8.15 6.6" fill="#420200" fill-rule="evenodd" stroke="none"/>
    <path d="M13.4 -5.0 Q12.35 -7.55 10.3 -9.6 L10.15 -9.75 Q6.05 -13.85 0.35 -14.1 L-0.25 -14.1 Q-6.35 -14.1 -10.7 -9.75 L-12.5 -7.6 Q-13.55 -6.1 -14.1 -4.45 -15.0 -2.05 -15.0 0.7 -15.0 2.65 -14.55 4.5 M-14.5 4.7 L-14.5 4.75 Q-13.55 8.3 -10.7 11.1 -7.65 14.2 -3.75 15.1 L-0.25 15.5 3.25 15.1 Q7.15 14.2 10.15 11.1 L10.25 11.0 10.8 10.45 10.95 10.3 12.15 8.8 12.75 7.8 12.75 7.7 14.1 4.25 M13.5 -4.8 Q14.5 -2.3 14.5 0.7 L14.2 3.9" fill="none" stroke="#865204" stroke-linecap="round" stroke-linejoin="round" stroke-width="0.5"/>
  </g>
</svg>
