<?xml version="1.0" encoding="UTF-8" standalone="no"?>
<svg xmlns:xlink="http://www.w3.org/1999/xlink" height="30.0px" width="30.0px" xmlns="http://www.w3.org/2000/svg">
  <g transform="matrix(1.0, 0.0, 0.0, 1.0, 15.25, 14.35)">
    <path d="M2.45 -12.15 L2.45 -12.2 Q1.25 -13.4 -1.55 -13.4 L-2.4 -13.35 Q-4.35 -13.1 -4.35 -12.3 -4.35 -11.2 -1.95 -11.2 1.7 -11.2 2.45 -12.15 M4.4 -10.6 L4.45 -10.8 4.4 -11.0 1.35 -11.0 -3.5 -10.1 -3.25 -9.95 4.4 -10.6 M6.8 -9.6 L6.25 -9.9 -3.55 -9.25 Q-4.55 -8.65 -5.75 -8.5 L-5.7 -8.4 Q-2.75 -9.3 -0.4 -9.3 L6.5 -9.25 6.8 -9.6 M9.0 -5.35 L9.25 -5.3 Q10.6 -4.9 11.05 -4.3 L11.15 -4.35 11.2 -4.5 Q11.2 -5.35 8.85 -6.7 6.15 -8.3 3.3 -8.3 1.55 -8.3 1.55 -6.8 L1.65 -6.25 Q1.85 -5.8 2.45 -5.75 L1.45 -5.15 Q1.45 -4.75 2.0 -4.75 L3.6 -5.1 6.5 -5.45 Q7.9 -5.45 8.5 -4.5 9.65 -2.65 10.55 -1.9 L10.95 -2.45 10.05 -3.8 10.35 -3.85 10.35 -4.1 9.9 -4.1 9.6 -4.55 9.0 -5.35 M3.25 -4.7 L3.7 -4.6 Q2.25 -4.3 2.25 -3.0 L2.3 -2.7 2.35 -2.75 Q2.25 -3.25 2.5 -3.75 3.0 -4.65 4.9 -4.65 L7.35 -4.15 7.4 -4.25 4.9 -4.75 3.9 -4.65 3.0 -4.8 Q2.4 -4.8 2.15 -4.3 L2.2 -4.25 Q2.6 -4.7 3.25 -4.7 M-7.5 -5.6 L-7.6 -5.55 -7.65 -5.55 -9.65 -4.3 -9.65 -4.05 -9.0 -4.2 -8.65 -4.25 -7.4 -4.95 -4.5 -5.65 Q-3.8 -5.65 -2.95 -5.15 L-1.85 -4.7 -1.65 -4.7 -1.0 -4.3 Q0.1 -4.3 0.85 -5.05 L0.55 -5.1 0.05 -5.0 Q-0.4 -5.0 -0.85 -5.45 L-0.3 -5.3 Q0.5 -5.3 0.5 -6.1 L-0.15 -7.4 Q-1.0 -8.55 -2.0 -8.55 -6.3 -8.55 -10.5 -4.75 L-10.3 -4.7 -7.65 -5.6 -7.5 -5.6 M8.25 -0.9 L9.7 -0.45 9.8 -0.65 Q9.8 -1.05 8.9 -1.25 L7.85 -1.35 7.35 -1.35 5.0 -1.05 4.35 -1.0 2.8 -0.85 2.75 -0.9 2.35 -1.45 2.2 -1.45 2.2 -0.95 Q2.35 -0.65 2.9 -0.65 L4.65 -0.75 4.75 -0.75 7.35 -1.0 8.0 -0.95 8.0 -0.85 8.25 -0.9 M1.55 -0.35 L1.15 -1.55 Q0.75 -3.7 0.3 -3.7 -0.35 -3.7 -0.35 -2.9 L-0.15 -1.55 -0.05 -0.2 -0.05 -0.15 Q-1.65 1.15 -1.75 1.8 L-1.75 1.9 -2.45 2.05 -2.9 2.1 -2.9 2.3 -2.7 2.35 -2.7 2.4 -2.15 2.3 0.5 1.7 1.7 1.9 Q2.25 1.9 2.25 1.6 2.25 1.2 1.7 1.35 L1.7 1.3 2.0 0.9 1.45 0.05 1.55 -0.35 M10.0 -0.25 L10.0 -0.35 9.85 0.0 10.0 -0.15 10.0 -0.25 10.1 -0.15 10.7 -0.15 10.75 -0.2 10.1 -0.3 10.0 -0.25 M10.05 -0.65 Q10.45 -0.75 10.75 -0.95 L10.7 -1.0 10.05 -0.9 10.05 -0.65 M-14.1 -4.45 Q-13.55 -6.1 -12.5 -7.6 L-10.7 -9.8 Q-6.35 -14.1 -0.25 -14.1 L0.35 -14.1 Q6.05 -13.9 10.15 -9.8 L10.3 -9.65 Q12.35 -7.55 13.4 -5.05 11.95 -4.3 11.95 -3.35 L12.35 -1.15 11.85 1.4 11.9 1.75 11.8 1.7 Q11.65 1.7 11.65 1.8 L12.15 2.65 12.4 3.35 Q12.45 3.8 12.85 3.8 L13.4 3.6 14.1 4.2 12.75 7.65 12.75 7.75 12.15 8.7 10.95 10.2 10.8 10.4 10.25 10.95 10.15 11.05 Q5.85 15.4 -0.25 15.4 -6.35 15.4 -10.7 11.05 -13.55 8.2 -14.5 4.65 L-14.5 4.6 -14.45 4.6 Q-14.2 4.1 -13.85 4.1 L-13.2 4.2 -12.7 3.9 -12.8 3.65 -12.55 3.1 -12.4 3.4 -12.0 2.25 -11.85 2.0 -11.95 1.7 Q-11.7 1.5 -11.75 0.85 L-11.0 0.25 -10.55 -0.15 -10.65 -0.25 -10.7 -0.2 -10.7 -0.35 -9.85 -0.7 -10.05 -0.95 -11.6 -0.55 -12.35 -0.3 -12.65 -1.6 -12.2 -1.6 -12.05 -1.45 -11.5 -1.55 -12.35 -0.95 -12.15 -0.8 -11.7 -0.95 -11.7 -0.9 -11.65 -0.9 -11.4 -0.95 -11.4 -1.05 -11.05 -1.2 -10.7 -1.25 -10.5 -1.05 Q-10.3 -1.05 -10.25 -1.2 L-10.5 -2.15 -10.4 -2.3 -10.5 -2.25 -12.0 -2.3 -12.05 -2.55 -12.1 -2.55 -12.1 -2.25 -11.45 -2.1 -11.7 -2.05 -11.85 -2.0 -12.6 -1.95 -12.55 -2.8 -13.15 -3.6 -13.95 -4.45 -14.1 -4.45 M11.75 -2.5 L11.5 -2.75 Q11.15 -2.75 11.15 -2.55 L11.45 -2.35 Q11.6 -2.35 11.75 -2.5 M-11.85 -3.8 Q-11.85 -3.5 -10.75 -3.1 L-10.35 -3.1 -10.3 -3.25 -10.35 -3.4 Q-11.7 -3.7 -11.65 -3.95 L-11.85 -3.8 M-2.55 -12.7 L-1.9 -12.7 -2.0 -12.6 -3.4 -12.2 -3.55 -12.3 Q-3.25 -12.7 -2.55 -12.7 M-10.0 0.65 L-10.05 0.8 Q-10.05 1.4 -9.4 1.4 L-9.2 1.35 Q-8.55 2.05 -7.8 2.05 L-7.65 2.0 -7.6 1.8 -8.3 1.35 -8.8 1.0 -9.0 0.85 -10.15 -0.35 -10.3 -0.25 -10.0 0.3 -10.05 0.3 -10.05 0.55 -10.0 0.65 M-10.0 0.3 L-9.7 0.75 -9.8 0.7 -10.0 0.3 M-9.1 -2.0 L-9.05 -1.85 -8.85 -2.0 -8.95 -2.1 -9.1 -2.1 -9.1 -2.0 M-6.3 -4.9 L-5.2 -5.05 -5.4 -4.95 -5.35 -4.9 -4.8 -5.05 -3.85 -4.95 Q-3.85 -4.5 -3.25 -4.5 L-3.1 -4.65 -2.75 -4.5 -2.7 -4.55 -3.1 -4.8 Q-3.2 -5.0 -3.6 -5.0 L-4.45 -5.15 Q-1.95 -5.05 -1.35 -2.85 L-1.3 -2.9 -1.3 -3.25 Q-2.3 -5.25 -4.55 -5.25 L-4.75 -5.25 -5.3 -5.35 -5.3 -5.3 Q-6.85 -5.1 -7.4 -4.35 L-7.35 -4.3 -6.3 -4.9 M-9.45 -0.55 L-9.35 -0.5 Q-8.2 -1.25 -6.15 -1.25 L-1.8 -0.6 Q-0.85 -0.6 -0.85 -0.95 L-0.85 -1.5 -1.0 -1.6 -1.1 -1.45 -1.05 -1.2 -1.0 -1.0 -1.85 -0.9 -5.05 -1.45 Q-9.3 -1.2 -9.45 -0.55 M-4.6 2.2 Q-3.2 1.9 -3.15 1.3 L-3.55 1.45 -4.35 1.9 -7.65 2.25 Q-8.1 2.25 -9.05 1.7 L-9.1 1.75 Q-8.6 2.35 -7.65 2.4 L-9.0 2.4 -10.65 1.05 -10.7 1.05 Q-10.7 1.55 -10.2 1.85 L-9.0 2.4 -7.7 2.6 -6.4 2.45 -6.55 2.4 -5.8 2.35 Q-8.5 2.95 -8.65 3.3 L-8.85 3.25 Q-9.85 3.25 -9.85 4.5 L-9.75 5.4 Q-9.75 6.15 -10.85 7.7 L-10.65 7.9 -10.95 8.45 -10.9 8.55 -10.95 8.95 -10.4 10.2 -10.1 9.95 -10.45 8.9 -10.3 8.25 -10.3 8.2 Q-9.65 8.05 -8.85 5.4 L-9.0 4.5 -8.5 3.7 -8.0 3.8 -7.9 3.75 -8.1 3.5 Q-4.45 2.7 -4.45 2.45 L-4.6 2.2 M-5.05 -5.25 L-4.75 -5.25 -6.2 -4.95 -5.05 -5.25 M-3.9 4.25 L-4.05 4.05 -4.1 4.05 -3.9 4.25 M-3.35 1.05 L-3.3 1.1 -1.85 0.2 Q-2.85 0.45 -3.35 1.05 M-1.55 6.3 L-1.5 6.35 -1.55 6.35 -1.55 6.3 M-6.65 3.7 L-6.6 3.75 -3.5 2.35 -6.65 3.7 M-5.4 3.45 L-5.2 3.4 -5.15 3.3 -5.25 3.25 -5.45 3.4 -5.4 3.45 M-6.65 1.85 L-7.4 1.6 -7.45 1.65 -6.65 1.95 Q-4.9 1.95 -2.25 0.1 -5.3 1.85 -6.65 1.85 M-0.4 4.45 L-2.65 4.35 Q-5.95 4.35 -8.05 5.4 L-8.0 5.25 Q-7.75 4.5 -7.0 3.85 -8.1 4.2 -8.3 5.35 L-8.4 5.7 -8.35 5.7 -8.35 6.2 Q-8.35 6.8 -9.95 8.65 L-8.45 7.3 -5.8 6.7 -4.05 6.8 -3.75 6.8 -3.9 7.35 -3.85 7.55 -3.8 7.5 -3.6 6.8 -2.25 6.55 -1.35 6.6 -1.0 7.25 -0.95 7.2 Q-0.95 6.85 -1.1 6.65 L-0.95 6.65 -0.95 6.7 -0.8 7.35 -0.75 7.3 -0.85 6.7 -0.15 6.85 -0.1 6.85 -0.05 7.25 -0.25 8.0 -0.2 8.05 Q0.05 7.75 0.05 7.3 L0.3 7.7 0.35 7.65 0.05 7.15 0.05 6.85 1.45 6.6 Q2.8 6.6 4.05 7.3 L4.2 7.35 4.95 7.25 Q5.9 7.25 8.15 8.3 L8.3 8.2 8.25 8.2 Q8.05 6.15 6.7 5.75 L3.3 4.9 2.85 4.35 2.8 4.35 3.2 4.85 0.45 4.5 1.15 3.95 Q0.95 3.9 0.8 4.15 0.6 4.4 0.05 4.45 L-0.35 4.45 0.25 3.65 0.25 3.35 0.15 3.35 Q0.0 4.05 -0.4 4.45 M-0.55 7.5 Q-0.55 7.2 -0.7 7.05 -0.6 7.3 -1.35 8.75 L-1.3 8.9 -1.15 8.9 Q-0.55 8.3 -0.55 7.5 M-5.35 7.55 L-5.5 7.5 -4.9 7.9 -5.35 7.55 M-5.8 10.8 L-5.6 11.05 -5.05 10.75 Q-5.35 10.5 -5.5 10.5 L-5.8 10.8 M-2.05 9.8 L-1.55 9.75 1.5 10.0 Q2.45 10.0 2.45 9.65 2.45 9.3 1.9 9.3 -1.2 9.3 -2.05 9.8 M-4.2 11.95 L-4.2 11.8 -4.15 11.9 -4.2 11.95 M-3.35 10.7 L-3.6 10.65 -4.1 10.85 -4.45 10.7 -4.95 10.85 -4.9 10.95 -4.6 11.25 -4.7 11.55 -4.5 11.8 -4.5 11.95 -4.35 12.35 -4.1 12.3 -4.05 12.15 Q-4.05 11.35 -3.0 10.9 L-3.0 10.8 -3.3 10.8 -3.35 10.85 -3.35 10.7 M-1.45 8.2 L-1.25 7.95 Q-1.25 6.85 -2.15 6.85 -2.75 6.85 -2.95 7.2 L-2.75 7.25 -2.35 7.15 Q-1.7 7.15 -1.45 8.2 M-11.8 4.1 Q-11.6 5.5 -10.55 6.55 L-10.6 6.85 -10.5 6.8 -10.45 6.75 -10.45 6.45 -11.75 3.35 -11.45 2.3 -11.55 2.25 Q-11.85 2.55 -11.85 3.35 L-11.8 4.1 -12.3 3.45 -12.35 3.45 -12.4 3.6 -11.9 4.35 -11.8 4.1 M-11.25 3.2 L-10.7 4.05 Q-10.4 4.05 -10.4 3.25 -10.3 2.45 -10.8 2.45 -11.25 2.45 -11.25 3.2 M9.2 1.85 L9.9 1.45 10.65 0.65 10.65 0.6 10.8 0.7 11.15 0.45 Q10.75 0.05 10.45 0.05 L10.35 0.45 Q10.05 0.55 9.35 1.15 L9.05 1.25 8.8 1.4 7.85 1.95 7.85 2.0 8.4 2.05 9.05 1.95 Q8.5 2.35 7.15 2.35 L6.3 2.3 7.5 2.55 Q8.2 2.55 8.95 2.15 L9.2 1.85 M-3.9 12.1 Q-3.9 13.8 -0.95 13.8 0.55 13.8 1.7 13.15 2.75 12.5 2.75 11.8 2.75 10.45 0.4 10.45 -3.9 10.45 -3.9 12.1 M-10.45 8.15 L-10.5 8.15 -10.45 8.1 -10.45 8.15 M10.45 1.5 L10.3 1.35 Q9.95 1.45 9.25 2.0 L9.6 2.2 Q10.45 2.2 10.45 1.5 M10.8 2.25 L10.75 2.25 11.0 3.35 10.8 4.45 11.1 3.3 10.8 2.25 M10.5 2.2 L10.25 2.15 8.75 2.75 7.65 2.65 6.35 2.35 6.3 2.35 6.05 2.25 5.45 2.2 6.35 2.4 6.35 2.5 8.2 2.85 Q9.4 2.85 10.5 2.2 M10.25 6.9 L10.3 7.9 Q10.45 8.85 11.05 8.85 L11.3 8.6 Q10.75 8.55 10.75 6.9 10.75 5.65 10.55 5.15 10.25 5.6 10.25 6.9 M11.8 5.75 L11.55 5.3 11.25 5.55 Q11.25 6.0 11.55 6.0 L11.8 5.75 M10.35 10.25 L10.4 10.3 Q10.4 9.6 10.1 9.6 L10.05 9.6 Q9.7 8.85 9.7 8.0 L9.8 6.0 Q9.7 4.25 8.9 4.25 L8.8 4.3 Q8.55 3.9 7.75 3.45 6.6 2.8 5.8 2.8 L5.55 2.85 Q5.55 3.25 7.1 3.75 L8.6 4.8 8.65 4.8 8.9 5.6 8.8 8.0 8.85 9.0 8.85 9.3 Q9.05 10.5 9.75 10.5 10.25 10.5 10.35 10.25 M0.85 4.5 L1.75 3.9 1.65 3.85 0.85 4.5 M3.7 1.8 L4.35 1.9 3.7 1.65 3.7 1.8 M7.1 4.65 L7.05 4.65 Q7.85 4.95 8.2 5.7 L8.45 6.3 8.35 6.65 8.35 6.7 8.25 7.9 8.6 9.1 8.8 9.05 Q8.45 8.75 8.45 7.85 L8.55 6.7 8.5 6.05 Q8.3 4.65 7.1 4.65 M5.65 3.35 L5.7 3.3 4.75 2.55 4.7 2.6 5.65 3.35 M5.9 3.6 L5.85 3.6 6.35 3.8 Q6.2 3.6 5.9 3.6 M5.15 3.4 L5.1 3.4 5.65 4.05 5.7 4.0 5.15 3.4 M4.6 10.25 Q4.2 10.25 4.2 10.6 L3.7 10.5 Q3.4 10.5 3.4 10.8 3.4 11.15 3.7 11.15 L4.15 10.8 4.25 10.8 4.5 10.95 Q5.0 10.95 5.0 10.6 5.0 10.25 4.6 10.25 M0.95 7.65 L0.9 7.0 Q0.65 7.15 0.65 7.85 L0.9 8.3 1.1 8.15 Q0.95 8.1 0.95 7.65 M2.5 7.2 L2.3 6.95 1.7 7.45 1.55 6.95 Q1.4 7.0 1.4 7.35 L1.65 7.85 Q2.5 7.85 2.5 7.2" fill="#fbc87b" fill-rule="evenodd" stroke="none"/>
    <path d="M6.8 -9.6 L6.5 -9.25 -0.4 -9.3 Q-2.75 -9.3 -5.7 -8.4 L-5.75 -8.5 Q-4.55 -8.65 -3.55 -9.25 L6.25 -9.9 6.8 -9.6 M4.4 -10.6 L-3.25 -9.95 -3.5 -10.1 1.35 -11.0 4.4 -11.0 4.45 -10.8 4.4 -10.6 M2.45 -12.15 Q1.7 -11.2 -1.95 -11.2 -4.35 -11.2 -4.35 -12.3 -4.35 -13.1 -2.4 -13.35 L-1.55 -13.4 Q1.25 -13.4 2.45 -12.2 L2.45 -12.15 M3.6 -6.05 L6.8 -6.4 7.9 -6.15 6.0 -6.3 3.6 -6.05 M9.0 -5.35 L9.6 -4.55 9.9 -4.1 10.35 -4.1 10.35 -3.85 10.05 -3.8 10.95 -2.45 10.55 -1.9 Q9.65 -2.65 8.5 -4.5 7.9 -5.45 6.5 -5.45 L3.6 -5.1 2.0 -4.75 Q1.45 -4.75 1.45 -5.15 L2.45 -5.75 2.65 -5.75 6.0 -5.95 9.0 -5.35 M-0.85 -5.45 Q-0.4 -5.0 0.05 -5.0 L0.55 -5.1 0.85 -5.05 Q0.1 -4.3 -1.0 -4.3 L-1.65 -4.7 -1.85 -4.7 -2.95 -5.15 Q-3.8 -5.65 -4.5 -5.65 L-7.4 -4.95 -8.65 -4.25 -9.0 -4.2 -9.65 -4.05 -9.65 -4.3 -7.65 -5.55 -7.6 -5.55 -7.5 -5.6 -3.9 -6.05 -0.85 -5.45 M1.55 -0.35 L1.45 0.05 2.0 0.9 1.7 1.3 1.7 1.35 Q2.25 1.2 2.25 1.6 2.25 1.9 1.7 1.9 L0.5 1.7 -2.15 2.3 -2.7 2.4 -2.7 2.35 -2.9 2.3 -2.9 2.1 -2.45 2.05 -1.75 1.9 -1.75 1.8 Q-1.65 1.15 -0.05 -0.15 L-0.05 -0.2 -0.15 -1.55 -0.35 -2.9 Q-0.35 -3.7 0.3 -3.7 0.75 -3.7 1.15 -1.55 L1.55 -0.35 M-12.6 -1.95 L-11.85 -2.0 -11.7 -2.05 -11.45 -2.1 -11.4 -2.15 -11.35 -2.1 -11.0 -2.1 -10.8 -2.05 -10.5 -2.25 -10.4 -2.3 -10.5 -2.15 -10.25 -1.2 Q-10.3 -1.05 -10.5 -1.05 L-10.7 -1.25 -10.7 -1.35 -11.05 -1.2 -11.4 -1.05 -11.4 -0.95 -11.65 -0.9 -11.7 -0.9 -11.7 -0.95 -12.15 -0.8 -12.35 -0.95 -11.5 -1.55 -12.05 -1.45 -12.2 -1.6 -12.65 -1.6 -12.65 -1.7 -12.6 -1.95 M-12.35 -0.3 L-11.6 -0.55 -10.05 -0.95 -9.85 -0.7 -10.7 -0.35 -10.7 -0.2 -10.65 -0.25 -10.55 -0.15 -11.0 0.25 -11.75 0.85 Q-11.7 1.5 -11.95 1.7 L-11.85 2.0 -12.0 2.25 -12.4 3.4 -12.55 3.1 Q-11.85 1.6 -11.85 1.0 L-12.35 -0.3 M11.75 -2.5 Q11.6 -2.35 11.45 -2.35 L11.15 -2.55 Q11.15 -2.75 11.5 -2.75 L11.75 -2.5 M-2.55 -12.7 Q-3.25 -12.7 -3.55 -12.3 L-3.4 -12.2 -2.0 -12.6 -1.9 -12.7 -2.55 -12.7 M-11.85 -3.8 L-11.65 -3.95 Q-11.7 -3.7 -10.35 -3.4 L-10.3 -3.25 -10.35 -3.1 -10.75 -3.1 Q-11.85 -3.5 -11.85 -3.8 M-10.0 0.3 L-10.3 -0.25 -10.15 -0.35 -9.0 0.85 -8.8 1.0 -8.3 1.35 -7.6 1.8 -7.65 2.0 -7.8 2.05 Q-8.55 2.05 -9.2 1.35 L-9.4 1.4 Q-10.05 1.4 -10.05 0.8 L-10.0 0.65 -9.95 0.5 -9.8 0.7 -9.7 0.75 -10.0 0.3 M-5.3 -6.35 L-3.9 -6.5 -1.45 -6.05 -3.6 -6.45 -5.3 -6.35 M-4.6 2.2 L-4.45 2.45 Q-4.45 2.7 -8.1 3.5 L-7.9 3.75 -8.0 3.8 -8.5 3.7 -9.0 4.5 -8.85 5.4 Q-9.65 8.05 -10.3 8.2 L-10.3 8.25 -10.45 8.9 -10.1 9.95 -10.4 10.2 -10.95 8.95 -10.9 8.55 -10.95 8.45 -10.65 7.9 -10.85 7.7 Q-9.75 6.15 -9.75 5.4 L-9.85 4.5 Q-9.85 3.25 -8.85 3.25 L-8.65 3.3 Q-8.5 2.95 -5.8 2.35 L-5.15 2.2 -4.95 2.15 -4.6 2.2 M-5.8 10.8 L-5.5 10.5 Q-5.35 10.5 -5.05 10.75 L-5.6 11.05 -5.8 10.8 M-5.35 7.55 L-4.9 7.9 -5.5 7.5 -5.35 7.55 M-0.55 7.5 Q-0.55 8.3 -1.15 8.9 L-1.3 8.9 -1.35 8.75 Q-0.6 7.3 -0.7 7.05 -0.55 7.2 -0.55 7.5 M-1.45 8.2 Q-1.7 7.15 -2.35 7.15 L-2.75 7.25 -2.95 7.2 Q-2.75 6.85 -2.15 6.85 -1.25 6.85 -1.25 7.95 L-1.45 8.2 M-3.35 10.7 L-3.35 10.85 -3.3 10.8 -3.0 10.8 -3.0 10.9 Q-4.05 11.35 -4.05 12.15 L-4.1 12.3 -4.35 12.35 -4.5 11.95 -4.5 11.8 -4.7 11.55 -4.6 11.25 -4.9 10.95 -4.95 10.85 -4.45 10.7 -4.1 10.85 -3.6 10.65 -3.35 10.7 M-4.2 11.95 L-4.15 11.9 -4.2 11.8 -4.2 11.95 M-2.05 9.8 Q-1.2 9.3 1.9 9.3 2.45 9.3 2.45 9.65 2.45 10.0 1.5 10.0 L-1.55 9.75 -2.05 9.8 M-11.8 4.1 L-11.9 4.35 -12.4 3.6 -12.35 3.45 -12.3 3.45 -11.8 4.1 M-11.25 3.2 Q-11.25 2.45 -10.8 2.45 -10.3 2.45 -10.4 3.25 -10.4 4.05 -10.7 4.05 L-11.25 3.2 M-10.45 8.15 L-10.45 8.1 -10.5 8.15 -10.45 8.15 M-3.9 12.1 Q-3.9 10.45 0.4 10.45 2.75 10.45 2.75 11.8 2.75 12.5 1.7 13.15 0.55 13.8 -0.95 13.8 -3.9 13.8 -3.9 12.1 M9.05 1.95 L8.4 2.05 7.85 2.0 7.85 1.95 8.8 1.4 9.05 1.25 9.35 1.15 Q10.05 0.55 10.35 0.45 L10.45 0.05 Q10.75 0.05 11.15 0.45 L10.8 0.7 10.65 0.6 10.65 0.65 9.9 1.45 9.2 1.85 9.05 1.95 M10.45 1.5 Q10.45 2.2 9.6 2.2 L9.25 2.0 Q9.95 1.45 10.3 1.35 L10.45 1.5 M11.8 5.75 L11.55 6.0 Q11.25 6.0 11.25 5.55 L11.55 5.3 11.8 5.75 M10.25 6.9 Q10.25 5.6 10.55 5.15 10.75 5.65 10.75 6.9 10.75 8.55 11.3 8.6 L11.05 8.85 Q10.45 8.85 10.3 7.9 L10.25 6.9 M10.35 10.25 Q10.25 10.5 9.75 10.5 9.05 10.5 8.85 9.3 L8.85 9.0 8.8 8.0 8.9 5.6 8.65 4.8 8.6 4.8 7.1 3.75 Q5.55 3.25 5.55 2.85 L5.8 2.8 Q6.6 2.8 7.75 3.45 8.55 3.9 8.8 4.3 L8.9 4.25 Q9.7 4.25 9.8 6.0 L9.7 8.0 Q9.7 8.85 10.05 9.6 9.8 9.6 9.8 9.9 L9.85 10.1 Q10.05 10.0 10.35 10.25 M2.5 7.2 Q2.5 7.85 1.65 7.85 L1.4 7.35 Q1.4 7.0 1.55 6.95 L1.7 7.45 2.3 6.95 2.5 7.2 M0.95 7.65 Q0.95 8.1 1.1 8.15 L0.9 8.3 0.65 7.85 Q0.65 7.15 0.9 7.0 L0.95 7.65 M4.6 10.25 Q5.0 10.25 5.0 10.6 5.0 10.95 4.5 10.95 L4.25 10.8 4.15 10.8 3.7 11.15 Q3.4 11.15 3.4 10.8 3.4 10.5 3.7 10.5 L4.2 10.6 Q4.2 10.25 4.6 10.25" fill="#fcd79e" fill-rule="evenodd" stroke="none"/>
    <path d="M7.9 -6.15 L9.85 -5.45 Q7.1 -7.9 2.95 -7.9 2.25 -7.9 2.0 -7.35 L1.85 -6.8 Q1.85 -6.05 2.8 -6.05 L3.6 -6.05 6.0 -6.3 7.9 -6.15 M2.45 -5.75 Q1.85 -5.8 1.65 -6.25 L1.55 -6.8 Q1.55 -8.3 3.3 -8.3 6.15 -8.3 8.85 -6.7 11.2 -5.35 11.2 -4.5 L11.15 -4.35 11.05 -4.3 Q10.6 -4.9 9.25 -5.3 L9.0 -5.35 6.0 -5.95 2.65 -5.75 2.45 -5.75 M-7.5 -5.6 L-7.65 -5.6 -10.3 -4.7 -10.5 -4.75 Q-6.3 -8.55 -2.0 -8.55 -1.0 -8.55 -0.15 -7.4 L0.5 -6.1 Q0.5 -5.3 -0.3 -5.3 L-0.85 -5.45 -3.9 -6.05 -7.5 -5.6 M8.0 -0.95 L7.35 -1.0 4.75 -0.75 4.65 -0.75 2.9 -0.65 Q2.35 -0.65 2.2 -0.95 L2.2 -1.45 2.35 -1.45 2.75 -0.9 2.8 -0.85 4.35 -1.0 5.0 -1.05 7.35 -1.35 7.85 -1.35 8.9 -1.25 Q9.8 -1.05 9.8 -0.65 L9.7 -0.45 8.25 -0.9 8.0 -0.95 M10.0 -0.25 L10.0 -0.15 9.85 0.0 10.0 -0.35 10.0 -0.25 M13.4 -5.05 L13.55 -5.0 13.6 -4.95 13.5 -4.85 Q12.15 -3.95 12.15 -3.3 L12.55 -1.15 12.5 -0.55 12.45 -0.5 12.5 -0.5 12.05 1.4 12.1 1.9 12.6 3.0 12.6 3.3 12.7 3.5 12.9 3.55 13.5 3.4 14.2 3.85 14.35 4.0 14.1 4.2 13.4 3.6 12.85 3.8 Q12.45 3.8 12.4 3.35 L12.15 2.65 11.65 1.8 Q11.65 1.7 11.8 1.7 L11.9 1.75 11.85 1.4 12.35 -1.15 11.95 -3.35 Q11.95 -4.3 13.4 -5.05 M-14.5 4.6 L-14.65 4.6 -14.55 4.4 Q-14.25 3.7 -13.55 3.95 L-12.9 3.95 -13.0 3.65 -12.4 2.4 -12.3 2.15 -12.3 2.1 -12.05 1.0 -12.5 -0.15 -12.85 -1.6 -12.85 -1.7 -12.75 -2.8 Q-14.1 -4.0 -14.1 -4.45 L-13.95 -4.45 -13.15 -3.6 -12.55 -2.8 -12.6 -1.95 -12.65 -1.7 -12.65 -1.6 -12.35 -0.3 -11.85 1.0 Q-11.85 1.6 -12.55 3.1 L-12.8 3.65 -12.7 3.9 -13.2 4.2 -13.85 4.1 Q-14.2 4.1 -14.45 4.6 L-14.5 4.6 M-9.45 -0.55 Q-9.3 -1.2 -5.05 -1.45 L-1.85 -0.9 -1.0 -1.0 -1.05 -1.2 -1.1 -1.45 -1.0 -1.6 -0.85 -1.5 -0.85 -0.95 Q-0.85 -0.6 -1.8 -0.6 L-6.15 -1.25 Q-8.2 -1.25 -9.35 -0.5 L-9.45 -0.55 M-1.45 -6.05 L-0.3 -5.7 Q0.2 -5.7 0.2 -6.15 0.2 -8.25 -3.2 -8.25 -3.85 -8.25 -6.55 -7.1 L-9.45 -5.35 -5.3 -6.35 -3.6 -6.45 -1.45 -6.05" fill="#000000" fill-rule="evenodd" stroke="none"/>
    <path d="M3.6 -6.05 L2.8 -6.05 Q1.85 -6.05 1.85 -6.8 L2.0 -7.35 Q2.25 -7.9 2.95 -7.9 7.1 -7.9 9.85 -5.45 L7.9 -6.15 6.8 -6.4 3.6 -6.05 M3.3 -6.65 L3.55 -6.6 Q4.95 -7.15 4.95 -7.35 L4.7 -7.55 Q3.4 -7.55 3.3 -6.65 M13.5 -4.85 Q14.5 -2.3 14.5 0.65 L14.2 3.85 13.5 3.4 12.9 3.55 12.7 3.5 12.6 3.3 12.6 3.0 12.1 1.9 12.05 1.4 12.5 -0.5 13.15 -0.85 13.15 -0.75 Q13.15 0.2 13.4 0.25 13.8 -1.05 13.8 -2.3 L13.75 -2.45 13.7 -2.45 12.5 -0.55 12.55 -1.15 12.15 -3.3 Q12.15 -3.95 13.5 -4.85 M-14.55 4.4 L-15.0 0.65 Q-15.0 -2.1 -14.1 -4.45 -14.1 -4.0 -12.75 -2.8 L-12.85 -1.7 -12.85 -1.6 -12.5 -0.15 -12.05 1.0 -12.3 2.1 -12.3 2.15 -12.4 2.4 -13.0 3.65 -12.9 3.95 -13.55 3.95 Q-14.25 3.7 -14.55 4.4 M-13.25 -2.3 L-13.4 -1.4 -13.55 -1.4 -13.4 -1.95 -13.4 -2.4 Q-13.95 -1.65 -14.05 1.25 -14.05 3.15 -13.7 3.15 -13.2 3.15 -13.0 -1.95 -13.0 -2.35 -13.25 -2.3 M-1.0 -7.3 L-1.05 -7.5 -1.15 -7.6 -4.3 -7.65 -6.15 -6.95 -6.15 -6.65 -5.85 -6.65 -3.65 -7.05 -1.4 -6.85 -1.05 -7.05 -1.0 -7.3 M-5.3 -6.35 L-9.45 -5.35 -6.55 -7.1 Q-3.85 -8.25 -3.2 -8.25 0.2 -8.25 0.2 -6.15 0.2 -5.7 -0.3 -5.7 L-1.45 -6.05 -3.9 -6.5 -5.3 -6.35" fill="#c8c8c8" fill-rule="evenodd" stroke="none"/>
    <path d="M3.25 -4.7 Q2.6 -4.7 2.2 -4.25 L2.15 -4.3 Q2.4 -4.8 3.0 -4.8 L3.9 -4.65 4.9 -4.75 7.4 -4.25 7.35 -4.15 4.9 -4.65 Q3.0 -4.65 2.5 -3.75 2.25 -3.25 2.35 -2.75 L2.3 -2.7 2.25 -3.0 Q2.25 -4.3 3.7 -4.6 L3.25 -4.7 M10.0 -0.25 L10.1 -0.3 10.75 -0.2 10.7 -0.15 10.1 -0.15 10.0 -0.25 M10.05 -0.65 L10.05 -0.9 10.7 -1.0 10.75 -0.95 Q10.45 -0.75 10.05 -0.65 M-11.45 -2.1 L-12.1 -2.25 -12.1 -2.55 -12.05 -2.55 -12.0 -2.3 -10.5 -2.25 -10.8 -2.05 -11.0 -2.1 -11.35 -2.1 -11.4 -2.15 -11.45 -2.1 M-10.7 -1.25 L-11.05 -1.2 -10.7 -1.35 -10.7 -1.25 M-10.0 0.65 L-10.05 0.55 -10.05 0.3 -10.0 0.3 -9.8 0.7 -9.95 0.5 -10.0 0.65 M-6.3 -4.9 L-7.35 -4.3 -7.4 -4.35 Q-6.85 -5.1 -5.3 -5.3 L-5.3 -5.35 -4.75 -5.25 -4.55 -5.25 Q-2.3 -5.25 -1.3 -3.25 L-1.3 -2.9 -1.35 -2.85 Q-1.95 -5.05 -4.45 -5.15 L-3.6 -5.0 Q-3.2 -5.0 -3.1 -4.8 L-2.7 -4.55 -2.75 -4.5 -3.1 -4.65 -3.25 -4.5 Q-3.85 -4.5 -3.85 -4.95 L-4.8 -5.05 -5.35 -4.9 -5.4 -4.95 -5.2 -5.05 -6.3 -4.9 M-9.1 -2.0 L-9.1 -2.1 -8.95 -2.1 -8.85 -2.0 -9.05 -1.85 -9.1 -2.0 M-5.05 -5.25 L-6.2 -4.95 -4.75 -5.25 -5.05 -5.25 M-5.8 2.35 L-6.55 2.4 -6.4 2.45 -7.7 2.6 -9.0 2.4 -10.2 1.85 Q-10.7 1.55 -10.7 1.05 L-10.65 1.05 -9.0 2.4 -7.65 2.4 Q-8.6 2.35 -9.1 1.75 L-9.05 1.7 Q-8.1 2.25 -7.65 2.25 L-4.35 1.9 -3.55 1.45 -3.15 1.3 Q-3.2 1.9 -4.6 2.2 L-4.95 2.15 -5.15 2.2 -5.8 2.35 M-3.35 1.05 Q-2.85 0.45 -1.85 0.2 L-3.3 1.1 -3.35 1.05 M-3.9 4.25 L-4.1 4.05 -4.05 4.05 -3.9 4.25 M-3.75 4.7 L-4.3 4.55 Q-4.5 4.55 -4.6 4.7 L-4.5 4.75 Q-6.75 4.95 -8.1 5.7 L-8.15 5.7 -8.15 5.8 -8.15 6.35 -8.15 6.65 -6.15 6.4 -4.1 6.5 -2.25 6.3 -1.55 6.35 -1.5 6.35 -1.55 6.3 -1.5 6.25 -1.35 6.35 -0.15 6.55 -0.1 6.55 0.55 6.55 0.8 6.75 0.85 6.55 0.85 6.5 1.45 6.35 Q3.35 6.35 4.1 7.2 L5.3 6.95 Q6.4 6.95 8.15 8.1 L7.85 6.9 Q7.55 6.35 6.35 5.95 3.55 4.9 -0.65 4.7 L-0.85 4.75 -0.9 4.7 -2.65 4.65 -3.75 4.7 M-0.4 4.45 Q0.0 4.05 0.15 3.35 L0.25 3.35 0.25 3.65 -0.35 4.45 0.05 4.45 Q0.6 4.4 0.8 4.15 0.95 3.9 1.15 3.95 L0.45 4.5 3.2 4.85 2.8 4.35 2.85 4.35 3.3 4.9 6.7 5.75 Q8.05 6.15 8.25 8.2 L8.3 8.2 8.15 8.3 Q5.9 7.25 4.95 7.25 L4.2 7.35 4.05 7.3 Q2.8 6.6 1.45 6.6 L0.05 6.85 0.05 7.15 0.35 7.65 0.3 7.7 0.05 7.3 Q0.05 7.75 -0.2 8.05 L-0.25 8.0 -0.05 7.25 -0.1 6.85 -0.15 6.85 -0.85 6.7 -0.75 7.3 -0.8 7.35 -0.95 6.7 -0.95 6.65 -1.1 6.65 Q-0.95 6.85 -0.95 7.2 L-1.0 7.25 -1.35 6.6 -2.25 6.55 -3.6 6.8 -3.8 7.5 -3.85 7.55 -3.9 7.35 -3.75 6.8 -4.05 6.8 -5.8 6.7 -8.45 7.3 -9.95 8.65 Q-8.35 6.8 -8.35 6.2 L-8.35 5.7 -8.4 5.7 -8.3 5.35 Q-8.1 4.2 -7.0 3.85 -7.75 4.5 -8.0 5.25 L-8.05 5.4 Q-5.95 4.35 -2.65 4.35 L-0.4 4.45 M-6.65 1.85 Q-5.3 1.85 -2.25 0.1 -4.9 1.95 -6.65 1.95 L-7.45 1.65 -7.4 1.6 -6.65 1.85 M-5.4 3.45 L-5.45 3.4 -5.25 3.25 -5.15 3.3 -5.2 3.4 -5.4 3.45 M-6.65 3.7 L-3.5 2.35 -6.6 3.75 -6.65 3.7 M-11.8 4.1 L-11.85 3.35 Q-11.85 2.55 -11.55 2.25 L-11.45 2.3 -11.75 3.35 -10.45 6.45 -10.45 6.75 -10.5 6.8 -10.6 6.85 -10.55 6.55 Q-11.6 5.5 -11.8 4.1 M9.2 1.85 L8.95 2.15 Q8.2 2.55 7.5 2.55 L6.3 2.3 7.15 2.35 Q8.5 2.35 9.05 1.95 L9.2 1.85 M10.5 2.2 Q9.4 2.85 8.2 2.85 L6.35 2.5 6.35 2.4 5.45 2.2 6.05 2.25 6.3 2.35 6.35 2.35 7.65 2.65 8.75 2.75 10.25 2.15 10.5 2.2 M10.8 2.25 L11.1 3.3 10.8 4.45 11.0 3.35 10.75 2.25 10.8 2.25 M10.05 9.6 L10.1 9.6 Q10.4 9.6 10.4 10.3 L10.35 10.25 Q10.05 10.0 9.85 10.1 L9.8 9.9 Q9.8 9.6 10.05 9.6 M5.15 3.4 L5.7 4.0 5.65 4.05 5.1 3.4 5.15 3.4 M5.9 3.6 Q6.2 3.6 6.35 3.8 L5.85 3.6 5.9 3.6 M5.65 3.35 L4.7 2.6 4.75 2.55 5.7 3.3 5.65 3.35 M7.1 4.65 Q8.3 4.65 8.5 6.05 L8.55 6.7 8.45 7.85 Q8.45 8.75 8.8 9.05 L8.6 9.1 8.25 7.9 8.35 6.7 8.35 6.65 8.45 6.3 8.2 5.7 Q7.85 4.95 7.05 4.65 L7.1 4.65 M3.7 1.8 L3.7 1.65 4.35 1.9 3.7 1.8 M0.85 4.5 L1.65 3.85 1.75 3.9 0.85 4.5" fill="#865204" fill-rule="evenodd" stroke="none"/>
    <path d="M3.3 -6.65 Q3.4 -7.55 4.7 -7.55 L4.95 -7.35 Q4.95 -7.15 3.55 -6.6 L3.3 -6.65 M12.5 -0.55 L13.7 -2.45 13.75 -2.45 13.8 -2.3 Q13.8 -1.05 13.4 0.25 13.15 0.2 13.15 -0.75 L13.15 -0.85 12.5 -0.5 12.45 -0.5 12.5 -0.55 M-13.25 -2.3 Q-13.0 -2.35 -13.0 -1.95 -13.2 3.15 -13.7 3.15 -14.05 3.15 -14.05 1.25 -13.95 -1.65 -13.4 -2.4 L-13.4 -1.95 -13.55 -1.4 -13.4 -1.4 -13.25 -2.3 M-1.0 -7.3 L-1.05 -7.05 -1.4 -6.85 -3.65 -7.05 -5.85 -6.65 -6.15 -6.65 -6.15 -6.95 -4.3 -7.65 -1.15 -7.6 -1.05 -7.5 -1.0 -7.3" fill="#d8d8d8" fill-rule="evenodd" stroke="none"/>
    <path d="M8.25 -0.9 L8.0 -0.85 8.0 -0.95 8.25 -0.9" fill="#ffffff" fill-rule="evenodd" stroke="none"/>
    <path d="M-3.75 4.7 L-2.65 4.65 -0.9 4.7 -0.85 4.75 -0.65 4.7 Q3.55 4.9 6.35 5.95 7.55 6.35 7.85 6.9 L8.15 8.1 Q6.4 6.95 5.3 6.95 L4.1 7.2 Q3.35 6.35 1.45 6.35 L0.85 6.5 Q0.8 6.0 -0.15 5.5 -1.3 4.85 -2.6 4.85 L-3.25 5.0 -3.75 4.7" fill="#620500" fill-rule="evenodd" stroke="none"/>
    <path d="M0.55 6.55 L-0.1 6.55 -0.15 6.55 -1.35 6.35 -1.5 6.25 -1.55 6.3 -1.55 6.35 -2.25 6.3 -4.1 6.5 -6.15 6.4 -8.15 6.65 -8.15 6.35 -8.15 5.8 -8.15 5.7 -8.1 5.7 Q-6.75 4.95 -4.5 4.75 -3.65 5.05 -2.6 5.75 L-2.5 5.7 -2.5 5.6 -3.05 5.1 Q-1.15 5.25 -0.35 5.8 L0.55 6.55" fill="#930700" fill-rule="evenodd" stroke="none"/>
    <path d="M-4.5 4.75 L-4.6 4.7 Q-4.5 4.55 -4.3 4.55 L-3.75 4.7 -3.25 5.0 -2.6 4.85 Q-1.3 4.85 -0.15 5.5 0.8 6.0 0.85 6.5 L0.85 6.55 0.8 6.75 0.55 6.55 -0.35 5.8 Q-1.15 5.25 -3.05 5.1 L-2.5 5.6 -2.5 5.7 -2.6 5.75 Q-3.65 5.05 -4.5 4.75" fill="#350300" fill-rule="evenodd" stroke="none"/>
    <path d="M-14.1 -4.45 Q-13.55 -6.1 -12.5 -7.6 L-10.7 -9.8 Q-6.35 -14.1 -0.25 -14.1 L0.35 -14.1 Q6.05 -13.9 10.15 -9.8 L10.3 -9.65 Q12.35 -7.55 13.4 -5.05 M13.5 -4.85 Q14.5 -2.3 14.5 0.65 L14.2 3.85 M14.1 4.2 L12.75 7.65 12.75 7.75 12.15 8.7 10.95 10.2 10.8 10.4 10.25 10.95 10.15 11.05 Q5.85 15.4 -0.25 15.4 -6.35 15.4 -10.7 11.05 -13.55 8.2 -14.5 4.65 L-14.5 4.6 M-14.55 4.4 L-15.0 0.65 Q-15.0 -2.1 -14.1 -4.45 Z" fill="none" stroke="#865204" stroke-linecap="round" stroke-linejoin="round" stroke-width="0.5"/>
  </g>
</svg>
