<?xml version="1.0" encoding="UTF-8" standalone="no"?>
<svg xmlns:xlink="http://www.w3.org/1999/xlink" height="30.9px" width="30.0px" xmlns="http://www.w3.org/2000/svg">
  <g transform="matrix(1.0, 0.0, 0.0, 1.0, 15.25, 15.25)">
    <path d="M6.8 -10.35 L6.25 -10.65 -3.55 -10.0 Q-4.55 -9.4 -5.75 -9.25 L-5.7 -9.15 Q-2.75 -10.05 -0.4 -10.05 L6.5 -10.0 6.8 -10.35 M2.45 -13.0 L2.45 -13.05 Q1.25 -14.3 -1.55 -14.3 L-2.4 -14.25 Q-4.35 -13.95 -4.35 -13.15 -4.35 -12.0 -1.95 -12.0 1.7 -12.0 2.45 -13.0 M4.4 -11.4 L4.45 -11.6 4.4 -11.8 1.35 -11.8 -3.5 -10.9 -3.25 -10.7 Q-0.65 -11.6 4.4 -11.4 M9.0 -6.0 L9.25 -5.95 Q10.6 -5.5 11.05 -4.9 L11.15 -4.95 11.2 -5.1 Q11.2 -6.0 8.85 -7.35 6.15 -9.0 3.3 -9.0 1.55 -9.0 1.55 -7.5 L1.65 -6.9 Q1.85 -6.45 2.45 -6.4 L1.45 -5.8 Q1.45 -5.35 2.0 -5.35 2.9 -5.35 3.6 -5.75 L6.5 -6.1 Q7.9 -6.1 8.5 -5.1 9.65 -3.2 10.55 -2.45 L10.95 -3.0 10.05 -4.4 10.35 -4.45 10.35 -4.7 9.9 -4.7 9.6 -5.15 9.0 -6.0 M4.9 -5.35 L3.9 -5.25 3.0 -5.4 Q2.4 -5.4 2.15 -4.9 L2.2 -4.85 Q2.6 -5.3 3.25 -5.3 L3.7 -5.2 Q2.25 -4.9 2.25 -3.55 L2.3 -3.25 2.35 -3.3 Q2.25 -3.8 2.5 -4.35 3.0 -5.25 4.9 -5.25 L7.35 -4.75 7.4 -4.85 4.9 -5.35 M-7.5 -6.25 L-7.6 -6.2 -7.65 -6.2 -9.65 -4.9 -9.65 -4.65 -9.0 -4.8 -8.65 -4.85 -7.4 -5.55 Q-5.65 -6.3 -4.5 -6.3 -3.8 -6.3 -2.95 -5.8 L-1.85 -5.3 -1.65 -5.3 -1.0 -4.9 Q0.1 -4.9 0.85 -5.65 L0.55 -5.75 0.05 -5.6 Q-0.4 -5.6 -0.85 -6.1 L-0.3 -5.95 Q0.5 -5.95 0.5 -6.75 L-0.15 -8.1 Q-1.0 -9.3 -2.0 -9.3 -6.3 -9.3 -10.5 -5.35 L-10.3 -5.3 -7.65 -6.25 -7.5 -6.25 M1.45 -0.4 L1.55 -0.85 1.15 -2.05 Q0.75 -4.3 0.3 -4.3 -0.35 -4.3 -0.35 -3.45 L-0.15 -2.05 -0.05 -0.7 -0.05 -0.6 Q-1.65 0.7 -1.75 1.4 L-1.75 1.5 -2.45 1.65 -2.9 1.7 -2.9 1.9 -2.7 1.95 -2.7 2.0 -2.15 1.9 0.5 1.3 1.7 1.5 Q2.25 1.5 2.25 1.2 2.25 0.75 1.7 0.9 L1.7 0.85 2.0 0.45 Q1.45 -0.2 1.45 -0.4 M8.25 -1.4 L9.7 -0.95 9.8 -1.15 Q9.8 -1.55 8.9 -1.75 L7.85 -1.85 7.35 -1.85 5.0 -1.55 4.35 -1.5 2.8 -1.35 2.75 -1.4 2.35 -1.95 2.2 -1.95 2.2 -1.45 Q2.35 -1.15 2.9 -1.15 L4.65 -1.25 4.75 -1.25 7.35 -1.5 8.0 -1.45 8.0 -1.35 8.25 -1.4 M10.0 -0.75 L10.0 -0.85 9.85 -0.45 10.0 -0.6 10.0 -0.75 10.1 -0.6 10.7 -0.6 10.75 -0.7 10.1 -0.8 10.0 -0.75 M10.05 -1.15 Q10.45 -1.25 10.75 -1.45 L10.7 -1.5 10.05 -1.4 10.05 -1.15 M-14.1 -5.05 Q-13.55 -6.75 -12.5 -8.3 L-10.7 -10.55 Q-6.35 -15.0 -0.25 -15.0 L0.35 -15.0 Q6.05 -14.8 10.15 -10.55 L10.3 -10.4 Q12.35 -8.25 13.4 -5.65 11.95 -4.9 11.95 -3.9 L12.35 -1.65 11.85 0.95 11.9 1.35 11.8 1.3 Q11.65 1.3 11.65 1.4 L12.15 2.25 12.4 3.0 Q12.45 3.45 12.85 3.45 L13.4 3.25 14.1 3.85 12.75 7.4 12.75 7.5 12.15 8.5 10.95 10.05 10.8 10.25 10.25 10.8 10.15 10.9 Q5.85 15.4 -0.25 15.4 -6.35 15.4 -10.7 10.9 -13.55 8.0 -14.5 4.3 L-14.5 4.25 -14.45 4.25 Q-14.2 3.75 -13.85 3.75 L-13.2 3.85 -12.7 3.55 -12.8 3.3 -12.55 2.7 -12.4 3.05 -12.0 1.85 -11.85 1.6 -11.95 1.3 Q-11.7 1.1 -11.75 0.4 L-11.0 -0.2 -10.55 -0.6 -10.65 -0.75 -10.7 -0.7 -10.7 -0.85 -9.85 -1.2 -10.05 -1.45 -11.6 -1.05 -12.35 -0.8 -12.65 -2.1 -12.2 -2.1 -12.05 -1.95 -11.5 -2.05 -12.35 -1.45 -12.15 -1.3 -11.7 -1.45 -11.7 -1.4 -11.65 -1.4 -11.4 -1.45 -11.4 -1.55 -11.05 -1.7 -10.7 -1.75 -10.5 -1.55 Q-10.3 -1.55 -10.25 -1.7 L-10.5 -2.7 -10.4 -2.85 -10.5 -2.8 -12.0 -2.85 -12.05 -3.1 -12.1 -3.1 -12.1 -2.8 -11.45 -2.65 -11.7 -2.6 -11.85 -2.55 -12.6 -2.5 -12.55 -3.35 -13.15 -4.2 -13.95 -5.05 -14.1 -5.05 M11.5 -3.3 Q11.15 -3.3 11.15 -3.1 L11.45 -2.9 Q11.6 -2.9 11.75 -3.05 L11.5 -3.3 M-10.35 -3.95 Q-11.7 -4.3 -11.65 -4.55 L-11.85 -4.4 Q-11.85 -4.1 -10.75 -3.65 L-10.35 -3.65 -10.3 -3.8 -10.35 -3.95 M-2.0 -13.45 L-3.4 -13.05 -3.55 -13.15 Q-3.25 -13.55 -2.55 -13.55 L-1.9 -13.55 -2.0 -13.45 M-10.0 0.2 L-10.05 0.35 Q-10.05 0.95 -9.4 0.95 L-9.2 0.9 Q-8.55 1.65 -7.8 1.65 L-7.65 1.6 -7.6 1.4 -8.3 0.9 -8.8 0.55 -9.0 0.4 -10.15 -0.85 -10.3 -0.75 -10.0 -0.15 -10.05 -0.15 -10.05 0.1 -10.0 0.2 M-10.0 -0.15 L-9.7 0.3 -9.8 0.25 -10.0 -0.15 M-9.1 -2.55 L-9.05 -2.4 -8.85 -2.55 -8.95 -2.65 -9.1 -2.65 -9.1 -2.55 M-7.4 -4.95 L-7.35 -4.9 -6.3 -5.5 -5.25 -5.7 -5.4 -5.55 -5.35 -5.5 -4.8 -5.65 -3.85 -5.55 Q-3.85 -5.1 -3.25 -5.1 L-3.1 -5.25 -2.75 -5.1 -2.7 -5.15 -3.1 -5.4 Q-3.2 -5.6 -3.6 -5.6 L-4.5 -5.8 Q-2.0 -5.75 -1.35 -3.4 L-1.3 -3.45 -1.3 -3.8 Q-2.3 -5.9 -4.55 -5.9 L-4.75 -5.9 -5.3 -6.0 -5.3 -5.95 Q-6.85 -5.75 -7.4 -4.95 M-9.45 -1.05 L-9.35 -1.0 Q-8.2 -1.75 -6.15 -1.75 L-1.8 -1.1 Q-0.85 -1.1 -0.85 -1.45 L-0.85 -2.0 -1.0 -2.1 -1.1 -1.95 -1.05 -1.7 -1.0 -1.5 -1.85 -1.4 -5.05 -1.95 Q-9.3 -1.7 -9.45 -1.05 M-4.6 1.8 Q-3.2 1.5 -3.15 0.85 L-3.55 1.0 -4.35 1.5 -7.65 1.85 Q-8.1 1.85 -9.05 1.3 L-9.1 1.35 Q-8.6 1.95 -7.65 2.0 L-9.0 2.0 -10.65 0.6 -10.7 0.6 Q-10.7 1.15 -10.2 1.45 L-9.0 2.0 -7.7 2.2 -6.4 2.05 -6.55 2.0 -5.8 1.95 Q-8.5 2.55 -8.65 2.95 L-8.85 2.9 Q-9.85 2.9 -9.85 4.15 L-9.75 5.1 Q-9.75 5.85 -10.85 7.45 L-10.65 7.65 -10.95 8.25 -10.9 8.35 -10.95 8.75 -10.4 10.05 -10.1 9.8 -10.45 8.7 -10.3 8.05 -10.3 8.0 Q-9.65 7.85 -8.85 5.1 L-9.0 4.15 -8.5 3.35 -8.0 3.45 -7.9 3.4 -8.1 3.15 Q-4.45 2.3 -4.45 2.05 L-4.6 1.8 M-5.05 -5.9 L-4.75 -5.9 -6.2 -5.55 -5.05 -5.9 M-3.35 0.6 L-3.3 0.65 -1.85 -0.25 Q-2.85 0.0 -3.35 0.6 M-1.55 6.0 L-1.5 6.05 -1.55 6.05 -1.55 6.0 M-4.05 3.7 L-4.1 3.7 -3.9 3.9 -4.05 3.7 M-6.65 3.35 L-6.6 3.4 -3.5 1.95 -6.65 3.35 M-5.15 2.95 L-5.25 2.9 -5.45 3.05 -5.4 3.1 -5.2 3.05 -5.15 2.95 M-6.65 1.45 L-7.4 1.2 -7.45 1.25 -6.65 1.55 Q-4.9 1.55 -2.25 -0.35 -5.3 1.45 -6.65 1.45 M-0.4 4.1 L-2.65 4.0 Q-5.95 4.0 -8.05 5.1 L-8.0 4.95 Q-7.75 4.15 -7.0 3.5 -8.1 3.85 -8.3 5.05 L-8.4 5.4 -8.35 5.4 -8.35 5.9 Q-8.35 6.55 -9.95 8.45 L-8.45 7.05 -5.8 6.45 -4.05 6.55 -3.75 6.55 -3.9 7.1 -3.85 7.3 -3.8 7.25 -3.6 6.55 -2.25 6.3 -1.35 6.35 -1.0 7.0 -0.95 6.95 Q-0.95 6.6 -1.1 6.4 L-0.95 6.4 -0.95 6.45 -0.8 7.1 -0.75 7.05 -0.85 6.45 -0.15 6.6 -0.1 6.6 -0.05 7.0 -0.25 7.75 -0.2 7.85 0.05 7.05 0.3 7.45 0.35 7.4 0.05 6.9 0.05 6.6 1.45 6.35 Q2.8 6.35 4.05 7.05 L4.2 7.1 4.95 7.0 Q5.9 7.0 8.15 8.1 L8.3 8.0 8.25 8.0 Q8.05 5.85 6.7 5.45 L3.3 4.6 2.85 4.0 2.8 4.0 3.2 4.55 0.45 4.15 1.15 3.6 Q0.95 3.55 0.8 3.8 0.6 4.05 0.05 4.1 L-0.35 4.1 0.25 3.3 0.25 3.0 0.15 3.0 Q0.0 3.7 -0.4 4.1 M-2.05 9.65 L-1.55 9.6 1.5 9.85 Q2.45 9.85 2.45 9.45 2.45 9.1 1.9 9.1 -1.2 9.1 -2.05 9.65 M-4.2 11.7 L-4.15 11.8 -4.2 11.85 -4.2 11.7 M-3.35 10.55 L-3.6 10.5 -4.1 10.7 -4.45 10.55 -4.95 10.7 -4.9 10.8 -4.6 11.1 -4.7 11.45 -4.5 11.7 -4.5 11.85 -4.35 12.25 -4.1 12.2 -4.05 12.05 Q-4.05 11.25 -3.0 10.75 L-3.0 10.65 -3.3 10.65 -3.35 10.7 -3.35 10.55 M-1.45 8.0 L-1.25 7.7 Q-1.25 6.6 -2.15 6.6 -2.75 6.6 -2.95 6.95 L-2.75 7.0 -2.35 6.9 Q-1.7 6.9 -1.45 8.0 M-0.55 7.25 Q-0.55 6.95 -0.7 6.8 -0.6 7.05 -1.35 8.55 L-1.3 8.7 -1.15 8.7 Q-0.55 8.1 -0.55 7.25 M-5.35 7.3 L-5.5 7.25 -4.9 7.65 -5.35 7.3 M-5.8 10.65 L-5.6 10.9 -5.05 10.6 Q-5.35 10.35 -5.5 10.35 L-5.8 10.65 M-11.8 3.75 Q-11.6 5.2 -10.55 6.3 L-10.6 6.6 -10.5 6.55 -10.45 6.5 -10.45 6.2 -11.75 3.0 -11.45 1.9 -11.55 1.85 Q-11.85 2.15 -11.85 3.0 L-11.8 3.75 -12.3 3.1 -12.35 3.1 -12.4 3.25 -11.9 4.0 -11.8 3.75 M-10.8 2.05 Q-11.25 2.05 -11.25 2.85 L-10.7 3.7 Q-10.4 3.7 -10.4 2.9 -10.3 2.05 -10.8 2.05 M-3.9 12.0 Q-3.9 13.75 -0.95 13.75 0.55 13.75 1.7 13.1 2.75 12.4 2.75 11.7 2.75 10.3 0.4 10.3 -3.9 10.3 -3.9 12.0 M-10.5 7.95 L-10.45 7.9 -10.45 7.95 -10.5 7.95 M9.2 1.45 L9.9 1.0 10.65 0.2 10.65 0.15 10.8 0.25 11.15 0.0 Q10.75 -0.4 10.45 -0.4 L10.35 0.0 Q10.05 0.1 9.35 0.7 L9.05 0.8 8.8 0.95 7.85 1.55 7.85 1.6 8.4 1.65 9.05 1.55 Q8.5 1.95 7.15 1.95 L6.3 1.9 7.5 2.15 Q8.2 2.15 8.95 1.75 L9.2 1.45 M10.45 1.1 L10.3 0.9 Q9.95 1.0 9.25 1.6 L9.6 1.8 Q10.45 1.8 10.45 1.1 M10.5 1.8 L10.25 1.75 8.75 2.35 7.65 2.25 6.35 1.95 6.3 1.95 6.05 1.85 5.45 1.8 6.35 2.0 6.35 2.1 8.2 2.45 Q9.4 2.45 10.5 1.8 M10.8 1.85 L10.75 1.85 11.0 3.0 10.8 4.1 11.1 2.95 10.8 1.85 M10.25 6.65 L10.3 7.65 Q10.45 8.65 11.05 8.65 L11.3 8.4 Q10.75 8.35 10.75 6.65 L10.55 4.85 Q10.25 5.3 10.25 6.65 M11.8 5.45 L11.55 5.0 11.25 5.25 Q11.25 5.7 11.55 5.7 L11.8 5.45 M10.35 10.1 L10.4 10.15 Q10.4 9.4 10.1 9.4 L10.05 9.4 Q9.7 8.65 9.7 7.75 L9.8 5.7 Q9.7 3.9 8.9 3.9 L8.8 3.95 Q8.55 3.55 7.75 3.1 6.6 2.4 5.8 2.4 L5.55 2.45 Q5.55 2.9 7.1 3.4 L8.6 4.5 8.65 4.5 8.9 5.3 8.8 7.75 8.85 8.8 8.85 9.1 Q9.05 10.35 9.75 10.35 10.25 10.35 10.35 10.1 M0.85 4.15 L1.75 3.55 1.65 3.5 0.85 4.15 M3.7 1.25 L3.7 1.4 4.35 1.5 3.7 1.25 M6.35 3.45 Q6.2 3.25 5.9 3.25 L5.85 3.25 6.35 3.45 M7.1 4.3 L7.05 4.3 Q7.85 4.65 8.2 5.4 L8.45 6.0 8.35 6.4 8.35 6.45 8.25 7.65 8.6 8.9 8.8 8.85 Q8.45 8.55 8.45 7.6 L8.55 6.45 8.5 5.75 Q8.3 4.3 7.1 4.3 M5.65 3.0 L5.7 2.95 4.75 2.15 4.7 2.2 5.65 3.0 M5.15 3.05 L5.1 3.05 5.65 3.7 5.7 3.65 5.15 3.05 M4.15 10.65 L4.25 10.65 4.5 10.8 Q5.0 10.8 5.0 10.45 5.0 10.1 4.6 10.1 4.2 10.1 4.2 10.45 L3.7 10.35 Q3.4 10.35 3.4 10.65 3.4 11.0 3.7 11.0 L4.15 10.65 M0.9 6.75 Q0.65 6.9 0.65 7.6 L0.9 8.1 1.1 7.95 Q0.95 7.9 0.95 7.4 L0.9 6.75 M1.4 7.1 L1.65 7.6 Q2.5 7.6 2.5 6.95 L2.3 6.7 1.7 7.2 1.55 6.7 Q1.4 6.75 1.4 7.1" fill="#fbc87b" fill-rule="evenodd" stroke="none"/>
    <path d="M2.45 -13.0 Q1.7 -12.0 -1.95 -12.0 -4.35 -12.0 -4.35 -13.15 -4.35 -13.95 -2.4 -14.25 L-1.55 -14.3 Q1.25 -14.3 2.45 -13.05 L2.45 -13.0 M6.8 -10.35 L6.5 -10.0 -0.4 -10.05 Q-2.75 -10.05 -5.7 -9.15 L-5.75 -9.25 Q-4.55 -9.4 -3.55 -10.0 L6.25 -10.65 6.8 -10.35 M3.6 -6.7 L6.8 -7.05 7.9 -6.8 6.0 -6.95 3.6 -6.7 M4.4 -11.4 Q-0.65 -11.6 -3.25 -10.7 L-3.5 -10.9 1.35 -11.8 4.4 -11.8 4.45 -11.6 4.4 -11.4 M9.0 -6.0 L9.6 -5.15 9.9 -4.7 10.35 -4.7 10.35 -4.45 10.05 -4.4 10.95 -3.0 10.55 -2.45 Q9.65 -3.2 8.5 -5.1 7.9 -6.1 6.5 -6.1 L3.6 -5.75 Q2.9 -5.35 2.0 -5.35 1.45 -5.35 1.45 -5.8 L2.45 -6.4 2.65 -6.4 6.0 -6.6 9.0 -6.0 M-0.85 -6.1 Q-0.4 -5.6 0.05 -5.6 L0.55 -5.75 0.85 -5.65 Q0.1 -4.9 -1.0 -4.9 L-1.65 -5.3 -1.85 -5.3 -2.95 -5.8 Q-3.8 -6.3 -4.5 -6.3 -5.65 -6.3 -7.4 -5.55 L-8.65 -4.85 -9.0 -4.8 -9.65 -4.65 -9.65 -4.9 -7.65 -6.2 -7.6 -6.2 -7.5 -6.25 -3.9 -6.7 -0.85 -6.1 M1.45 -0.4 Q1.45 -0.2 2.0 0.45 L1.7 0.85 1.7 0.9 Q2.25 0.75 2.25 1.2 2.25 1.5 1.7 1.5 L0.5 1.3 -2.15 1.9 -2.7 2.0 -2.7 1.95 -2.9 1.9 -2.9 1.7 -2.45 1.65 -1.75 1.5 -1.75 1.4 Q-1.65 0.7 -0.05 -0.6 L-0.05 -0.7 -0.15 -2.05 -0.35 -3.45 Q-0.35 -4.3 0.3 -4.3 0.75 -4.3 1.15 -2.05 L1.55 -0.85 1.45 -0.4 M-12.6 -2.5 L-11.85 -2.55 -11.7 -2.6 -11.45 -2.65 -11.4 -2.7 -11.35 -2.65 -11.0 -2.65 -10.8 -2.6 -10.5 -2.8 -10.4 -2.85 -10.5 -2.7 -10.25 -1.7 Q-10.3 -1.55 -10.5 -1.55 L-10.7 -1.75 -10.7 -1.85 -11.05 -1.7 -11.4 -1.55 -11.4 -1.45 -11.65 -1.4 -11.7 -1.4 -11.7 -1.45 -12.15 -1.3 -12.35 -1.45 -11.5 -2.05 -12.05 -1.95 -12.2 -2.1 -12.65 -2.1 -12.65 -2.2 -12.6 -2.5 M-12.35 -0.8 L-11.6 -1.05 -10.05 -1.45 -9.85 -1.2 -10.7 -0.85 -10.7 -0.7 -10.65 -0.75 -10.55 -0.6 -11.0 -0.2 -11.75 0.4 Q-11.7 1.1 -11.95 1.3 L-11.85 1.6 -12.0 1.85 -12.4 3.05 -12.55 2.7 Q-11.85 1.2 -11.85 0.55 L-12.35 -0.8 M11.5 -3.3 L11.75 -3.05 Q11.6 -2.9 11.45 -2.9 L11.15 -3.1 Q11.15 -3.3 11.5 -3.3 M-2.0 -13.45 L-1.9 -13.55 -2.55 -13.55 Q-3.25 -13.55 -3.55 -13.15 L-3.4 -13.05 -2.0 -13.45 M-10.35 -3.95 L-10.3 -3.8 -10.35 -3.65 -10.75 -3.65 Q-11.85 -4.1 -11.85 -4.4 L-11.65 -4.55 Q-11.7 -4.3 -10.35 -3.95 M-10.0 -0.15 L-10.3 -0.75 -10.15 -0.85 -9.0 0.4 -8.8 0.55 -8.3 0.9 -7.6 1.4 -7.65 1.6 -7.8 1.65 Q-8.55 1.65 -9.2 0.9 L-9.4 0.95 Q-10.05 0.95 -10.05 0.35 L-10.0 0.2 -9.95 0.05 -9.8 0.25 -9.7 0.3 -10.0 -0.15 M-5.3 -7.0 L-3.9 -7.15 -1.45 -6.7 -3.6 -7.1 -5.3 -7.0 M-4.6 1.8 L-4.45 2.05 Q-4.45 2.3 -8.1 3.15 L-7.9 3.4 -8.0 3.45 -8.5 3.35 -9.0 4.15 -8.85 5.1 Q-9.65 7.85 -10.3 8.0 L-10.3 8.05 -10.45 8.7 -10.1 9.8 -10.4 10.05 -10.95 8.75 -10.9 8.35 -10.95 8.25 -10.65 7.65 -10.85 7.45 Q-9.75 5.85 -9.75 5.1 L-9.85 4.15 Q-9.85 2.9 -8.85 2.9 L-8.65 2.95 Q-8.5 2.55 -5.8 1.95 L-5.15 1.8 -4.95 1.75 -4.6 1.8 M-5.8 10.65 L-5.5 10.35 Q-5.35 10.35 -5.05 10.6 L-5.6 10.9 -5.8 10.65 M-5.35 7.3 L-4.9 7.65 -5.5 7.25 -5.35 7.3 M-0.55 7.25 Q-0.55 8.1 -1.15 8.7 L-1.3 8.7 -1.35 8.55 Q-0.6 7.05 -0.7 6.8 -0.55 6.95 -0.55 7.25 M-1.45 8.0 Q-1.7 6.9 -2.35 6.9 L-2.75 7.0 -2.95 6.95 Q-2.75 6.6 -2.15 6.6 -1.25 6.6 -1.25 7.7 L-1.45 8.0 M-3.35 10.55 L-3.35 10.7 -3.3 10.65 -3.0 10.65 -3.0 10.75 Q-4.05 11.25 -4.05 12.05 L-4.1 12.2 -4.35 12.25 -4.5 11.85 -4.5 11.7 -4.7 11.45 -4.6 11.1 -4.9 10.8 -4.95 10.7 -4.45 10.55 -4.1 10.7 -3.6 10.5 -3.35 10.55 M-4.2 11.7 L-4.2 11.85 -4.15 11.8 -4.2 11.7 M-2.05 9.65 Q-1.2 9.1 1.9 9.1 2.45 9.1 2.45 9.45 2.45 9.85 1.5 9.85 L-1.55 9.6 -2.05 9.65 M-11.8 3.75 L-11.9 4.0 -12.4 3.25 -12.35 3.1 -12.3 3.1 -11.8 3.75 M-10.8 2.05 Q-10.3 2.05 -10.4 2.9 -10.4 3.7 -10.7 3.7 L-11.25 2.85 Q-11.25 2.05 -10.8 2.05 M-10.5 7.95 L-10.45 7.95 -10.45 7.9 -10.5 7.95 M-3.9 12.0 Q-3.9 10.3 0.4 10.3 2.75 10.3 2.75 11.7 2.75 12.4 1.7 13.1 0.55 13.75 -0.95 13.75 -3.9 13.75 -3.9 12.0 M9.05 1.55 L8.4 1.65 7.85 1.6 7.85 1.55 8.8 0.95 9.05 0.8 9.35 0.7 Q10.05 0.1 10.35 0.0 L10.45 -0.4 Q10.75 -0.4 11.15 0.0 L10.8 0.25 10.65 0.15 10.65 0.2 9.9 1.0 9.2 1.45 9.05 1.55 M10.45 1.1 Q10.45 1.8 9.6 1.8 L9.25 1.6 Q9.95 1.0 10.3 0.9 L10.45 1.1 M11.8 5.45 L11.55 5.7 Q11.25 5.7 11.25 5.25 L11.55 5.0 11.8 5.45 M10.25 6.65 Q10.25 5.3 10.55 4.85 L10.75 6.65 Q10.75 8.35 11.3 8.4 L11.05 8.65 Q10.45 8.65 10.3 7.65 L10.25 6.65 M10.35 10.1 Q10.25 10.35 9.75 10.35 9.05 10.35 8.85 9.1 L8.85 8.8 8.8 7.75 8.9 5.3 8.65 4.5 8.6 4.5 7.1 3.4 Q5.55 2.9 5.55 2.45 L5.8 2.4 Q6.6 2.4 7.75 3.1 8.55 3.55 8.8 3.95 L8.9 3.9 Q9.7 3.9 9.8 5.7 L9.7 7.75 Q9.7 8.65 10.05 9.4 9.8 9.4 9.8 9.75 L9.85 9.95 Q10.05 9.85 10.35 10.1 M1.4 7.1 Q1.4 6.75 1.55 6.7 L1.7 7.2 2.3 6.7 2.5 6.95 Q2.5 7.6 1.65 7.6 L1.4 7.1 M0.9 6.75 L0.95 7.4 Q0.95 7.9 1.1 7.95 L0.9 8.1 0.65 7.6 Q0.65 6.9 0.9 6.75 M4.15 10.65 L3.7 11.0 Q3.4 11.0 3.4 10.65 3.4 10.35 3.7 10.35 L4.2 10.45 Q4.2 10.1 4.6 10.1 5.0 10.1 5.0 10.45 5.0 10.8 4.5 10.8 L4.25 10.65 4.15 10.65" fill="#fcd79e" fill-rule="evenodd" stroke="none"/>
    <path d="M7.9 -6.8 L9.85 -6.1 Q7.1 -8.6 2.95 -8.6 2.25 -8.6 2.0 -8.05 L1.85 -7.5 Q1.85 -6.7 2.8 -6.7 L3.6 -6.7 6.0 -6.95 7.9 -6.8 M2.45 -6.4 Q1.85 -6.45 1.65 -6.9 L1.55 -7.5 Q1.55 -9.0 3.3 -9.0 6.15 -9.0 8.85 -7.35 11.2 -6.0 11.2 -5.1 L11.15 -4.95 11.05 -4.9 Q10.6 -5.5 9.25 -5.95 L9.0 -6.0 6.0 -6.6 2.65 -6.4 2.45 -6.4 M-7.5 -6.25 L-7.65 -6.25 -10.3 -5.3 -10.5 -5.35 Q-6.3 -9.3 -2.0 -9.3 -1.0 -9.3 -0.15 -8.1 L0.5 -6.75 Q0.5 -5.95 -0.3 -5.95 L-0.85 -6.1 -3.9 -6.7 -7.5 -6.25 M8.0 -1.45 L7.35 -1.5 4.75 -1.25 4.65 -1.25 2.9 -1.15 Q2.35 -1.15 2.2 -1.45 L2.2 -1.95 2.35 -1.95 2.75 -1.4 2.8 -1.35 4.35 -1.5 5.0 -1.55 7.35 -1.85 7.85 -1.85 8.9 -1.75 Q9.8 -1.55 9.8 -1.15 L9.7 -0.95 8.25 -1.4 8.0 -1.45 M10.0 -0.75 L10.0 -0.6 9.85 -0.45 10.0 -0.85 10.0 -0.75 M13.4 -5.65 L13.55 -5.6 13.6 -5.55 13.5 -5.45 Q12.15 -4.55 12.15 -3.85 L12.55 -1.65 12.5 -1.05 12.45 -1.0 12.5 -1.0 12.05 0.95 12.1 1.5 12.6 2.6 12.6 2.95 12.7 3.15 12.9 3.2 13.5 3.05 14.2 3.5 14.35 3.65 14.1 3.85 13.4 3.25 12.85 3.45 Q12.45 3.45 12.4 3.0 L12.15 2.25 11.65 1.4 Q11.65 1.3 11.8 1.3 L11.9 1.35 11.85 0.95 12.35 -1.65 11.95 -3.9 Q11.95 -4.9 13.4 -5.65 M-14.5 4.25 L-14.65 4.25 -14.55 4.05 Q-14.25 3.35 -13.55 3.6 L-12.9 3.6 -13.0 3.3 -12.4 2.0 -12.3 1.75 -12.3 1.7 -12.05 0.55 -12.5 -0.6 -12.85 -2.1 -12.85 -2.2 -12.75 -3.35 Q-14.1 -4.6 -14.1 -5.05 L-13.95 -5.05 -13.15 -4.2 -12.55 -3.35 -12.6 -2.5 -12.65 -2.2 -12.65 -2.1 -12.35 -0.8 -11.85 0.55 Q-11.85 1.2 -12.55 2.7 L-12.8 3.3 -12.7 3.55 -13.2 3.85 -13.85 3.75 Q-14.2 3.75 -14.45 4.25 L-14.5 4.25 M-1.45 -6.7 L-0.3 -6.35 Q0.2 -6.35 0.2 -6.8 0.2 -8.95 -3.2 -8.95 -3.85 -8.95 -6.55 -7.8 -6.9 -7.7 -9.45 -6.0 L-5.3 -7.0 -3.6 -7.1 -1.45 -6.7 M-9.45 -1.05 Q-9.3 -1.7 -5.05 -1.95 L-1.85 -1.4 -1.0 -1.5 -1.05 -1.7 -1.1 -1.95 -1.0 -2.1 -0.85 -2.0 -0.85 -1.45 Q-0.85 -1.1 -1.8 -1.1 L-6.15 -1.75 Q-8.2 -1.75 -9.35 -1.0 L-9.45 -1.05" fill="#000000" fill-rule="evenodd" stroke="none"/>
    <path d="M7.9 -6.8 L6.8 -7.05 3.6 -6.7 2.8 -6.7 Q1.85 -6.7 1.85 -7.5 L2.0 -8.05 Q2.25 -8.6 2.95 -8.6 7.1 -8.6 9.85 -6.1 L7.9 -6.8 M4.95 -8.05 L4.7 -8.25 Q3.4 -8.25 3.3 -7.3 L3.55 -7.25 Q4.95 -7.85 4.95 -8.05 M13.5 -5.45 Q14.5 -2.85 14.5 0.2 L14.2 3.5 13.5 3.05 12.9 3.2 12.7 3.15 12.6 2.95 12.6 2.6 12.1 1.5 12.05 0.95 12.5 -1.0 13.15 -1.35 13.15 -1.25 Q13.15 -0.25 13.4 -0.2 13.8 -1.55 13.8 -2.85 L13.75 -3.0 13.7 -3.0 12.5 -1.05 12.55 -1.65 12.15 -3.85 Q12.15 -4.55 13.5 -5.45 M-14.55 4.05 L-15.0 0.2 Q-15.0 -2.65 -14.1 -5.05 -14.1 -4.6 -12.75 -3.35 L-12.85 -2.2 -12.85 -2.1 -12.5 -0.6 -12.05 0.55 -12.3 1.7 -12.3 1.75 -12.4 2.0 -13.0 3.3 -12.9 3.6 -13.55 3.6 Q-14.25 3.35 -14.55 4.05 M-13.55 -1.9 L-13.4 -2.5 -13.4 -2.95 Q-13.95 -2.15 -14.05 0.8 -14.05 2.8 -13.7 2.8 -13.2 2.8 -13.0 -2.5 -13.0 -2.9 -13.25 -2.85 L-13.4 -1.9 -13.55 -1.9 M-1.05 -8.2 L-1.15 -8.3 -4.3 -8.35 -6.15 -7.65 -6.15 -7.3 -5.85 -7.3 Q-4.95 -7.8 -3.65 -7.75 L-1.4 -7.55 -1.05 -7.75 -1.0 -8.0 -1.05 -8.2 M-5.3 -7.0 L-9.45 -6.0 Q-6.9 -7.7 -6.55 -7.8 -3.85 -8.95 -3.2 -8.95 0.2 -8.95 0.2 -6.8 0.2 -6.35 -0.3 -6.35 L-1.45 -6.7 -3.9 -7.15 -5.3 -7.0" fill="#c8c8c8" fill-rule="evenodd" stroke="none"/>
    <path d="M4.9 -5.35 L7.4 -4.85 7.35 -4.75 4.9 -5.25 Q3.0 -5.25 2.5 -4.35 2.25 -3.8 2.35 -3.3 L2.3 -3.25 2.25 -3.55 Q2.25 -4.9 3.7 -5.2 L3.25 -5.3 Q2.6 -5.3 2.2 -4.85 L2.15 -4.9 Q2.4 -5.4 3.0 -5.4 L3.9 -5.25 4.9 -5.35 M10.0 -0.75 L10.1 -0.8 10.75 -0.7 10.7 -0.6 10.1 -0.6 10.0 -0.75 M10.05 -1.15 L10.05 -1.4 10.7 -1.5 10.75 -1.45 Q10.45 -1.25 10.05 -1.15 M-11.45 -2.65 L-12.1 -2.8 -12.1 -3.1 -12.05 -3.1 -12.0 -2.85 -10.5 -2.8 -10.8 -2.6 -11.0 -2.65 -11.35 -2.65 -11.4 -2.7 -11.45 -2.65 M-10.7 -1.75 L-11.05 -1.7 -10.7 -1.85 -10.7 -1.75 M-10.0 0.2 L-10.05 0.1 -10.05 -0.15 -10.0 -0.15 -9.8 0.25 -9.95 0.05 -10.0 0.2 M-7.4 -4.95 Q-6.85 -5.75 -5.3 -5.95 L-5.3 -6.0 -4.75 -5.9 -4.55 -5.9 Q-2.3 -5.9 -1.3 -3.8 L-1.3 -3.45 -1.35 -3.4 Q-2.0 -5.75 -4.5 -5.8 L-3.6 -5.6 Q-3.2 -5.6 -3.1 -5.4 L-2.7 -5.15 -2.75 -5.1 -3.1 -5.25 -3.25 -5.1 Q-3.85 -5.1 -3.85 -5.55 L-4.8 -5.65 -5.35 -5.5 -5.4 -5.55 -5.25 -5.7 -6.3 -5.5 -7.35 -4.9 -7.4 -4.95 M-9.1 -2.55 L-9.1 -2.65 -8.95 -2.65 -8.85 -2.55 -9.05 -2.4 -9.1 -2.55 M-5.05 -5.9 L-6.2 -5.55 -4.75 -5.9 -5.05 -5.9 M-5.8 1.95 L-6.55 2.0 -6.4 2.05 -7.7 2.2 -9.0 2.0 -10.2 1.45 Q-10.7 1.15 -10.7 0.6 L-10.65 0.6 -9.0 2.0 -7.65 2.0 Q-8.6 1.95 -9.1 1.35 L-9.05 1.3 Q-8.1 1.85 -7.65 1.85 L-4.35 1.5 -3.55 1.0 -3.15 0.85 Q-3.2 1.5 -4.6 1.8 L-4.95 1.75 -5.15 1.8 -5.8 1.95 M-3.35 0.6 Q-2.85 0.0 -1.85 -0.25 L-3.3 0.65 -3.35 0.6 M0.85 6.25 L1.45 6.05 Q3.35 6.05 4.1 6.95 L5.3 6.7 Q6.4 6.7 8.15 7.9 L7.85 6.65 Q7.55 6.05 6.35 5.65 3.55 4.6 -0.65 4.35 L-0.85 4.4 -0.9 4.35 -2.65 4.3 -3.75 4.35 -4.3 4.2 Q-4.5 4.2 -4.6 4.35 L-4.5 4.4 Q-6.75 4.65 -8.1 5.4 L-8.15 5.4 -8.15 5.5 -8.15 6.05 -8.15 6.4 -6.15 6.15 -4.1 6.25 -2.25 6.0 -1.55 6.05 -1.5 6.05 -1.55 6.0 -1.5 5.95 -1.35 6.05 -0.15 6.3 -0.1 6.3 0.55 6.3 0.8 6.5 0.85 6.3 0.85 6.25 M-4.05 3.7 L-3.9 3.9 -4.1 3.7 -4.05 3.7 M-0.4 4.1 Q0.0 3.7 0.15 3.0 L0.25 3.0 0.25 3.3 -0.35 4.1 0.05 4.1 Q0.6 4.05 0.8 3.8 0.95 3.55 1.15 3.6 L0.45 4.15 3.2 4.55 2.8 4.0 2.85 4.0 3.3 4.6 6.7 5.45 Q8.05 5.85 8.25 8.0 L8.3 8.0 8.15 8.1 Q5.9 7.0 4.95 7.0 L4.2 7.1 4.05 7.05 Q2.8 6.35 1.45 6.35 L0.05 6.6 0.05 6.9 0.35 7.4 0.3 7.45 0.05 7.05 -0.2 7.85 -0.25 7.75 -0.05 7.0 -0.1 6.6 -0.15 6.6 -0.85 6.45 -0.75 7.05 -0.8 7.1 -0.95 6.45 -0.95 6.4 -1.1 6.4 Q-0.95 6.6 -0.95 6.95 L-1.0 7.0 -1.35 6.35 -2.25 6.3 -3.6 6.55 -3.8 7.25 -3.85 7.3 -3.9 7.1 -3.75 6.55 -4.05 6.55 -5.8 6.45 -8.45 7.05 -9.95 8.45 Q-8.35 6.55 -8.35 5.9 L-8.35 5.4 -8.4 5.4 -8.3 5.05 Q-8.1 3.85 -7.0 3.5 -7.75 4.15 -8.0 4.95 L-8.05 5.1 Q-5.95 4.0 -2.65 4.0 L-0.4 4.1 M-6.65 1.45 Q-5.3 1.45 -2.25 -0.35 -4.9 1.55 -6.65 1.55 L-7.45 1.25 -7.4 1.2 -6.65 1.45 M-5.15 2.95 L-5.2 3.05 -5.4 3.1 -5.45 3.05 -5.25 2.9 -5.15 2.95 M-6.65 3.35 L-3.5 1.95 -6.6 3.4 -6.65 3.35 M-11.8 3.75 L-11.85 3.0 Q-11.85 2.15 -11.55 1.85 L-11.45 1.9 -11.75 3.0 -10.45 6.2 -10.45 6.5 -10.5 6.55 -10.6 6.6 -10.55 6.3 Q-11.6 5.2 -11.8 3.75 M9.2 1.45 L8.95 1.75 Q8.2 2.15 7.5 2.15 L6.3 1.9 7.15 1.95 Q8.5 1.95 9.05 1.55 L9.2 1.45 M10.8 1.85 L11.1 2.95 10.8 4.1 11.0 3.0 10.75 1.85 10.8 1.85 M10.5 1.8 Q9.4 2.45 8.2 2.45 L6.35 2.1 6.35 2.0 5.45 1.8 6.05 1.85 6.3 1.95 6.35 1.95 7.65 2.25 8.75 2.35 10.25 1.75 10.5 1.8 M10.05 9.4 L10.1 9.4 Q10.4 9.4 10.4 10.15 L10.35 10.1 Q10.05 9.85 9.85 9.95 L9.8 9.75 Q9.8 9.4 10.05 9.4 M5.15 3.05 L5.7 3.65 5.65 3.7 5.1 3.05 5.15 3.05 M5.65 3.0 L4.7 2.2 4.75 2.15 5.7 2.95 5.65 3.0 M7.1 4.3 Q8.3 4.3 8.5 5.75 L8.55 6.45 8.45 7.6 Q8.45 8.55 8.8 8.85 L8.6 8.9 8.25 7.65 8.35 6.45 8.35 6.4 8.45 6.0 8.2 5.4 Q7.85 4.65 7.05 4.3 L7.1 4.3 M6.35 3.45 L5.85 3.25 5.9 3.25 Q6.2 3.25 6.35 3.45 M3.7 1.25 L4.35 1.5 3.7 1.4 3.7 1.25 M0.85 4.15 L1.65 3.5 1.75 3.55 0.85 4.15" fill="#865204" fill-rule="evenodd" stroke="none"/>
    <path d="M4.95 -8.05 Q4.95 -7.85 3.55 -7.25 L3.3 -7.3 Q3.4 -8.25 4.7 -8.25 L4.95 -8.05 M12.5 -1.0 L12.45 -1.0 12.5 -1.05 13.7 -3.0 13.75 -3.0 13.8 -2.85 Q13.8 -1.55 13.4 -0.2 13.15 -0.25 13.15 -1.25 L13.15 -1.35 12.5 -1.0 M-13.55 -1.9 L-13.4 -1.9 -13.25 -2.85 Q-13.0 -2.9 -13.0 -2.5 -13.2 2.8 -13.7 2.8 -14.05 2.8 -14.05 0.8 -13.95 -2.15 -13.4 -2.95 L-13.4 -2.5 -13.55 -1.9 M-1.05 -8.2 L-1.0 -8.0 -1.05 -7.75 -1.4 -7.55 -3.65 -7.75 Q-4.95 -7.8 -5.85 -7.3 L-6.15 -7.3 -6.15 -7.65 -4.3 -8.35 -1.15 -8.3 -1.05 -8.2" fill="#d8d8d8" fill-rule="evenodd" stroke="none"/>
    <path d="M8.25 -1.4 L8.0 -1.35 8.0 -1.45 8.25 -1.4" fill="#ffffff" fill-rule="evenodd" stroke="none"/>
    <path d="M-3.75 4.35 L-2.65 4.3 -0.9 4.35 -0.85 4.4 -0.65 4.35 Q3.55 4.6 6.35 5.65 7.55 6.05 7.85 6.65 L8.15 7.9 Q6.4 6.7 5.3 6.7 L4.1 6.95 Q3.35 6.05 1.45 6.05 L0.85 6.25 Q0.8 5.7 -0.15 5.2 -1.3 4.55 -2.6 4.55 L-3.25 4.7 -3.75 4.35" fill="#620500" fill-rule="evenodd" stroke="none"/>
    <path d="M0.55 6.3 L-0.1 6.3 -0.15 6.3 -1.35 6.05 -1.5 5.95 -1.55 6.0 -1.55 6.05 -2.25 6.0 -4.1 6.25 -6.15 6.15 -8.15 6.4 -8.15 6.05 -8.15 5.5 -8.15 5.4 -8.1 5.4 Q-6.75 4.65 -4.5 4.4 -3.65 4.75 -2.6 5.45 L-2.5 5.4 -2.5 5.3 -3.05 4.8 Q-1.15 4.95 -0.35 5.5 L0.55 6.3" fill="#930700" fill-rule="evenodd" stroke="none"/>
    <path d="M0.85 6.25 L0.85 6.3 0.8 6.5 0.55 6.3 -0.35 5.5 Q-1.15 4.95 -3.05 4.8 L-2.5 5.3 -2.5 5.4 -2.6 5.45 Q-3.65 4.75 -4.5 4.4 L-4.6 4.35 Q-4.5 4.2 -4.3 4.2 L-3.75 4.35 -3.25 4.7 -2.6 4.55 Q-1.3 4.55 -0.15 5.2 0.8 5.7 0.85 6.25" fill="#350300" fill-rule="evenodd" stroke="none"/>
    <path d="M-14.1 -5.05 Q-13.55 -6.75 -12.5 -8.3 L-10.7 -10.55 Q-6.35 -15.0 -0.25 -15.0 L0.35 -15.0 Q6.05 -14.8 10.15 -10.55 L10.3 -10.4 Q12.35 -8.25 13.4 -5.65 M13.5 -5.45 Q14.5 -2.85 14.5 0.2 L14.2 3.5 M14.1 3.85 L12.75 7.4 12.75 7.5 12.15 8.5 10.95 10.05 10.8 10.25 10.25 10.8 10.15 10.9 Q5.85 15.4 -0.25 15.4 -6.35 15.4 -10.7 10.9 -13.55 8.0 -14.5 4.3 L-14.5 4.25 M-14.55 4.05 L-15.0 0.2 Q-15.0 -2.65 -14.1 -5.05 Z" fill="none" stroke="#865204" stroke-linecap="round" stroke-linejoin="round" stroke-width="0.5"/>
  </g>
</svg>
