<?xml version="1.0" encoding="UTF-8" standalone="no"?>
<svg xmlns:xlink="http://www.w3.org/1999/xlink" height="30.15px" width="34.4px" xmlns="http://www.w3.org/2000/svg">
  <g transform="matrix(1.0, 0.0, 0.0, 1.0, 16.7, 15.35)">
    <path d="M12.4 -11.55 L13.4 -11.65 Q15.7 -11.65 16.9 -9.9 17.7 -8.75 17.7 -7.8 17.7 -4.1 15.2 -3.75 15.8 -1.85 15.8 -0.2 15.8 5.9 13.7 6.3 L13.65 6.45 13.3 7.25 13.35 6.5 Q13.25 1.95 12.35 0.8 L12.55 0.4 12.55 0.25 Q13.9 -0.55 13.9 -2.5 13.9 -5.75 10.35 -5.75 8.6 -5.75 7.65 -4.25 7.0 -3.25 7.0 -2.25 7.0 -1.5 7.5 -0.65 7.75 -0.15 8.15 0.15 L7.5 0.3 Q5.95 0.3 5.55 -1.75 5.15 -3.8 4.55 -3.8 L4.15 -3.75 2.55 -4.1 1.3 -3.8 1.25 -3.8 0.25 -2.9 -0.1 -3.3 -0.05 -3.85 Q0.0 -5.0 -1.05 -5.0 -1.9 -5.0 -2.35 -3.6 -2.8 -2.25 -3.6 -2.25 L-4.2 -2.45 -4.35 -2.35 Q-3.7 -3.05 -3.7 -4.45 -3.6 -6.75 -6.0 -6.75 -8.5 -6.75 -8.5 -4.45 -8.45 -2.95 -7.6 -2.3 -7.9 -1.95 -7.85 -1.2 L-7.9 -1.15 Q-9.55 -0.95 -10.4 0.35 L-11.2 0.45 -12.5 0.1 Q-13.1 0.1 -13.1 0.65 -12.85 2.1 -11.15 2.15 L-11.4 3.95 Q-10.95 13.35 -6.4 13.35 L-5.95 13.3 -4.25 13.75 -3.85 13.7 -2.65 14.45 -2.7 14.45 -3.05 14.4 -3.2 14.4 -3.55 14.4 -2.85 14.5 -3.25 14.6 -4.05 14.8 -4.4 14.5 Q-6.75 14.45 -9.25 12.15 -11.05 10.5 -11.8 9.1 L-12.5 8.15 Q-13.65 5.95 -13.7 4.35 L-14.1 2.95 Q-16.75 2.45 -16.7 -1.3 -16.7 -2.55 -16.15 -3.6 -15.6 -1.85 -13.65 -1.85 -12.0 -1.85 -11.15 -3.7 -10.7 -4.7 -10.6 -5.5 -8.9 -5.6 -8.9 -7.75 -9.05 -10.0 -11.3 -10.0 -13.1 -10.0 -13.25 -8.1 L-13.8 -8.15 -15.1 -7.85 -15.2 -8.95 Q-15.2 -9.75 -14.6 -10.65 -13.9 -11.65 -12.85 -11.9 L-13.0 -12.75 Q-13.0 -14.75 -11.35 -14.75 -9.75 -14.75 -9.5 -13.5 -8.65 -15.35 -6.05 -15.35 -4.25 -15.35 -3.15 -14.55 L0.4 -14.95 2.7 -15.15 Q5.8 -15.15 8.3 -13.6 6.8 -13.0 6.8 -11.05 6.8 -10.25 7.1 -9.65 7.65 -8.45 9.25 -8.45 12.4 -8.45 12.4 -11.35 L12.4 -11.55 M12.05 8.8 L10.0 11.15 9.65 11.15 9.15 11.75 7.2 13.25 Q5.65 14.25 5.3 14.25 L5.2 14.15 7.65 11.6 8.3 10.75 8.5 10.85 Q9.6 10.85 10.9 8.2 11.55 6.55 11.55 5.3 L11.55 5.1 11.5 7.3 Q11.5 8.55 12.05 8.8 M1.3 -9.4 L1.25 -8.7 1.55 -7.4 Q2.15 -6.2 3.75 -6.2 6.3 -6.2 6.3 -9.15 5.6 -11.45 4.0 -11.45 L2.5 -11.15 2.6 -11.8 Q2.5 -13.8 0.4 -13.8 -0.85 -13.8 -1.55 -13.2 -2.3 -13.65 -3.6 -13.65 -5.65 -13.65 -6.7 -12.1 -7.4 -11.1 -7.4 -10.2 -7.5 -7.65 -4.4 -7.65 -2.15 -7.65 -1.2 -8.95 L-0.35 -8.85 Q0.6 -8.85 1.3 -9.4 M-2.45 -0.5 L-1.45 -1.35 -1.1 -1.65 -1.0 -1.6 -0.85 -1.6 Q-1.65 -0.75 -2.45 -0.5 M-10.0 -11.6 L-10.15 -11.45 -10.0 -11.35 -10.0 -11.6" fill="#b0a895" fill-rule="evenodd" stroke="none"/>
    <path d="M8.3 -13.6 L9.8 -13.85 Q12.3 -13.85 12.4 -11.55 L12.4 -11.35 Q12.4 -8.45 9.25 -8.45 7.65 -8.45 7.1 -9.65 6.8 -10.25 6.8 -11.05 6.8 -13.0 8.3 -13.6 M-16.15 -3.6 L-16.35 -5.05 Q-16.35 -7.25 -15.1 -7.85 L-13.8 -8.15 -13.25 -8.1 -13.3 -7.7 Q-13.3 -5.5 -10.8 -5.5 L-10.6 -5.5 Q-10.7 -4.7 -11.15 -3.7 -12.0 -1.85 -13.65 -1.85 -15.6 -1.85 -16.15 -3.6 M1.3 -9.4 Q0.6 -8.85 -0.35 -8.85 L-1.2 -8.95 Q-2.15 -7.65 -4.4 -7.65 -7.5 -7.65 -7.4 -10.2 -7.4 -11.1 -6.7 -12.1 -5.65 -13.65 -3.6 -13.65 -2.3 -13.65 -1.55 -13.2 -0.85 -13.8 0.4 -13.8 2.5 -13.8 2.6 -11.8 L2.5 -11.15 4.0 -11.45 Q5.6 -11.45 6.3 -9.15 6.3 -6.2 3.75 -6.2 2.15 -6.2 1.55 -7.4 L1.25 -8.7 1.3 -9.4 M-4.35 -2.35 L-5.65 -1.95 Q-5.85 -2.7 -6.6 -2.7 -7.3 -2.7 -7.6 -2.3 -8.45 -2.95 -8.5 -4.45 -8.5 -6.75 -6.0 -6.75 -3.6 -6.75 -3.7 -4.45 -3.7 -3.05 -4.35 -2.35" fill="#c1bbac" fill-rule="evenodd" stroke="none"/>
    <path d="M8.3 10.75 L8.2 10.65 9.1 9.35 9.55 8.45 9.55 8.4 9.9 6.1 10.0 3.7 8.1 4.2 Q3.4 4.2 2.6 -1.45 L2.65 -2.2 1.7 -2.35 Q0.15 1.05 -3.0 1.05 L-5.15 0.7 -5.4 0.9 Q-6.65 1.85 -6.9 2.7 -7.7 4.9 -7.7 6.0 -7.7 9.6 -5.65 11.45 L-3.65 13.3 -3.85 13.7 -4.25 13.75 -5.95 13.3 Q-5.55 13.15 -5.55 12.6 L-7.25 10.35 Q-9.0 7.75 -9.0 4.4 -9.0 2.55 -7.45 1.6 -5.95 0.65 -5.95 0.05 L-6.0 -0.2 -4.7 -0.75 -3.4 -0.2 -2.45 -0.5 Q-1.65 -0.75 -0.85 -1.6 0.25 -1.65 0.25 -2.7 L0.25 -2.9 1.25 -3.8 1.3 -3.8 2.55 -4.1 4.15 -3.75 Q3.4 -3.5 3.4 -2.45 2.9 2.9 8.0 2.9 9.4 2.9 11.0 1.95 L11.55 5.0 11.55 5.1 11.55 5.3 Q11.55 6.55 10.9 8.2 9.6 10.85 8.5 10.85 L8.3 10.75" fill="#9e947c" fill-rule="evenodd" stroke="none"/>
    <path d="M13.3 7.25 Q13.15 8.85 12.3 8.85 L12.05 8.8 Q11.5 8.55 11.5 7.3 L11.55 5.1 11.55 5.0 11.0 1.95 Q9.4 2.9 8.0 2.9 2.9 2.9 3.4 -2.45 3.4 -3.5 4.15 -3.75 L4.55 -3.8 Q5.15 -3.8 5.55 -1.75 5.95 0.3 7.5 0.3 L8.15 0.15 Q8.85 0.8 10.0 0.8 11.6 0.8 12.55 0.25 L12.55 0.4 12.35 0.8 Q13.25 1.95 13.35 6.5 L13.3 7.25 M0.25 -2.9 L0.25 -2.7 Q0.25 -1.65 -0.85 -1.6 L-1.0 -1.6 -1.1 -1.65 -1.45 -1.35 -2.45 -0.5 -3.4 -0.2 -4.7 -0.75 -6.0 -0.2 -5.95 0.05 Q-5.95 0.65 -7.45 1.6 -9.0 2.55 -9.0 4.4 -9.0 7.75 -7.25 10.35 L-5.55 12.6 Q-5.55 13.15 -5.95 13.3 L-6.4 13.35 Q-10.95 13.35 -11.4 3.95 L-11.15 2.15 Q-12.85 2.1 -13.1 0.65 -13.1 0.1 -12.5 0.1 L-11.2 0.45 -10.4 0.35 Q-9.55 -0.95 -7.9 -1.15 L-7.85 -1.2 Q-7.9 -1.95 -7.6 -2.3 -7.3 -2.7 -6.6 -2.7 -5.85 -2.7 -5.65 -1.95 L-4.35 -2.35 -4.2 -2.45 -3.6 -2.25 Q-2.8 -2.25 -2.35 -3.6 -1.9 -5.0 -1.05 -5.0 0.0 -5.0 -0.05 -3.85 L-0.1 -3.3 0.25 -2.9" fill="#a79d87" fill-rule="evenodd" stroke="none"/>
    <path d="M8.15 0.15 Q7.75 -0.15 7.5 -0.65 7.0 -1.5 7.0 -2.25 7.0 -3.25 7.65 -4.25 8.6 -5.75 10.35 -5.75 13.9 -5.75 13.9 -2.5 13.9 -0.55 12.55 0.25 11.6 0.8 10.0 0.8 8.85 0.8 8.15 0.15 M-10.6 -5.5 L-10.8 -5.5 Q-13.3 -5.5 -13.3 -7.7 L-13.25 -8.1 Q-13.1 -10.0 -11.3 -10.0 -9.05 -10.0 -8.9 -7.75 -8.9 -5.6 -10.6 -5.5" fill="#b6ae9c" fill-rule="evenodd" stroke="none"/>
  </g>
</svg>
