<?xml version="1.0" encoding="UTF-8" standalone="no"?>
<svg xmlns:xlink="http://www.w3.org/1999/xlink" height="33.5px" width="30.5px" xmlns="http://www.w3.org/2000/svg">
  <g transform="matrix(1.0, 0.0, 0.0, 1.0, 15.25, 16.6)">
    <path d="M-8.8 -5.8 L-8.55 -5.8 Q-7.15 -5.8 -6.0 -3.65 L-5.65 -3.05 -5.65 -3.0 Q-5.15 -1.45 -3.3 -1.45 -1.9 -1.45 -1.4 -2.05 L-1.9 -1.6 -2.1 -1.45 -2.05 -1.35 Q-2.05 -0.25 -3.2 1.15 -4.25 2.4 -5.6 2.8 L-5.6 2.7 -5.75 2.6 -6.65 2.9 -6.7 2.9 -8.45 2.6 -11.0 0.4 -11.5 -0.85 -11.85 -1.95 Q-11.85 -5.4 -10.1 -5.55 L-8.8 -5.8 M0.85 -0.3 Q0.9 -1.85 1.95 -1.85 L2.05 -1.8 2.1 -1.8 2.1 -1.75 2.05 -1.8 Q1.55 -1.8 1.35 -0.9 L1.25 -0.65 1.15 -0.3 1.3 0.5 Q1.7 1.5 3.25 1.75 L4.25 1.8 Q5.65 1.2 7.45 1.2 8.45 1.2 9.45 2.1 L10.3 3.1 Q10.95 3.75 10.95 5.65 10.95 8.4 8.45 9.25 L8.35 9.2 7.75 9.45 6.6 9.6 5.75 9.6 Q4.4 9.6 2.65 8.45 L2.05 7.95 2.05 8.05 1.65 7.75 0.9 6.35 0.8 6.35 0.75 6.6 0.9 6.95 0.9 7.0 Q0.35 6.15 0.35 4.6 0.35 2.35 1.3 1.0 L0.85 -0.25 0.85 -0.3 M9.55 8.2 Q10.8 7.75 10.8 5.55 10.8 3.15 8.5 1.65 L8.4 1.7 8.6 1.9 7.4 1.6 Q5.85 1.6 4.3 2.2 L2.3 1.8 1.6 1.35 1.45 1.15 1.3 1.5 1.3 1.55 Q0.8 2.3 0.7 3.4 L0.65 4.0 0.65 4.1 0.65 4.2 0.7 4.75 Q0.8 6.95 1.6 7.15 L2.2 7.7 2.3 7.7 2.95 8.35 5.15 9.35 5.25 9.3 5.25 9.2 5.2 9.15 5.75 9.2 9.05 8.55 8.85 8.65 9.15 8.7 9.7 8.15 9.35 8.35 9.55 8.2 M-10.55 0.4 L-10.4 0.7 Q-9.15 2.5 -6.65 2.5 -4.3 2.5 -3.1 0.5 L-2.4 -1.25 -3.2 -1.1 Q-4.95 -1.1 -6.15 -3.35 -7.2 -5.35 -9.05 -5.55 L-9.55 -5.6 -9.6 -5.6 -9.65 -5.7 -9.75 -5.6 -9.85 -5.55 -9.8 -5.55 -9.85 -5.5 -10.8 -4.65 -10.9 -4.55 -11.25 -4.3 -11.55 -2.4 Q-11.55 -0.6 -10.65 0.55 L-10.55 0.4" fill="#020202" fill-rule="evenodd" stroke="none"/>
    <path d="M8.6 1.9 L8.4 1.7 8.5 1.65 Q10.8 3.15 10.8 5.55 10.8 7.75 9.55 8.2 L9.4 8.2 9.25 8.1 10.1 7.05 10.45 5.8 Q10.45 4.05 8.6 1.9 M9.35 8.35 L9.7 8.15 9.15 8.7 8.85 8.65 9.05 8.55 9.15 8.5 9.25 8.45 9.25 8.4 9.35 8.35 M5.2 9.15 L5.25 9.2 5.25 9.3 5.15 9.35 2.95 8.35 2.3 7.7 2.2 7.7 1.6 7.15 Q0.8 6.95 0.7 4.75 L0.65 4.2 0.65 4.1 0.65 4.0 0.7 3.4 Q0.8 2.3 1.3 1.55 L1.3 1.5 1.45 1.15 1.6 1.35 1.6 1.5 1.55 1.8 1.0 4.3 Q1.1 5.65 1.85 6.8 L2.4 7.4 2.55 7.5 2.55 7.55 2.9 7.85 2.9 7.9 3.1 8.05 5.15 9.15 5.2 9.15 M-10.8 -4.65 L-10.75 -4.7 Q-11.25 -3.95 -11.25 -2.4 L-10.55 0.4 -10.65 0.55 Q-11.55 -0.6 -11.55 -2.4 L-11.25 -4.3 -10.9 -4.55 -10.8 -4.65 M-9.6 -5.6 L-9.55 -5.45 -10.05 -5.3 -9.85 -5.5 -9.8 -5.55 -9.75 -5.6 -9.65 -5.7 -9.6 -5.6" fill="#580101" fill-rule="evenodd" stroke="none"/>
    <path d="M9.55 8.2 L9.35 8.35 9.25 8.4 9.25 8.45 9.15 8.5 9.05 8.55 5.75 9.2 5.2 9.15 5.15 9.15 3.1 8.05 2.9 7.9 2.9 7.85 2.55 7.55 2.55 7.5 2.4 7.4 1.85 6.8 Q1.1 5.65 1.0 4.3 L1.55 1.8 1.6 1.5 1.6 1.35 2.3 1.8 4.3 2.2 Q5.85 1.6 7.4 1.6 L8.6 1.9 Q10.45 4.05 10.45 5.8 L10.1 7.05 9.25 8.1 9.4 8.2 9.55 8.2 M2.45 3.9 Q1.4 3.9 1.4 5.1 1.45 6.2 2.55 6.2 3.5 6.2 3.5 5.15 3.5 3.9 2.45 3.9 M2.15 4.2 L2.1 4.25 2.1 4.2 2.15 4.2 M-8.75 10.7 L-8.4 9.7 -7.85 8.55 -7.45 8.7 -7.35 8.7 -6.85 8.85 -6.7 8.8 -6.7 8.7 Q-7.0 8.45 -7.25 8.4 L-8.1 7.6 Q-8.1 7.3 -6.7 5.75 L-3.6 6.5 -1.7 7.45 Q-1.0 7.8 -0.05 8.3 4.65 10.6 4.65 13.1 L4.65 13.15 3.4 13.6 2.4 13.35 2.1 12.7 Q1.55 12.05 1.05 12.55 L0.75 12.35 Q0.45 12.05 0.25 12.05 L0.2 12.05 0.15 12.15 0.95 12.85 Q1.65 12.55 1.95 13.0 L2.2 13.25 2.0 13.15 2.05 13.2 2.4 13.75 Q2.65 14.1 3.65 14.1 L4.5 14.0 4.05 14.65 Q3.45 15.1 2.7 15.35 L0.55 15.65 Q-1.75 15.65 -6.7 13.0 -7.95 12.35 -8.65 10.95 L-8.75 10.8 -8.7 10.75 -8.75 10.7 M-10.55 0.4 L-11.25 -2.4 Q-11.25 -3.95 -10.75 -4.7 L-10.8 -4.65 -9.85 -5.5 -10.05 -5.3 -9.55 -5.45 -9.6 -5.6 -9.55 -5.6 -9.05 -5.55 Q-7.2 -5.35 -6.15 -3.35 -4.95 -1.1 -3.2 -1.1 L-2.4 -1.25 -3.1 0.5 Q-4.3 2.5 -6.65 2.5 -9.15 2.5 -10.4 0.7 L-10.55 0.4 M-5.1 -0.05 Q-5.1 -1.35 -6.05 -1.35 -7.4 -1.35 -7.4 0.1 -7.45 1.15 -6.35 1.15 -5.1 1.15 -5.1 -0.05 M-5.9 8.95 L-6.0 9.1 Q-4.95 10.6 -3.5 10.6 L-3.25 10.45 -4.95 9.8 -5.9 8.95" fill="#ffffff" fill-rule="evenodd" stroke="none"/>
    <path d="M10.35 -12.7 L11.1 -12.25 9.45 -10.0 10.6 -8.95 Q15.0 -4.55 15.0 1.65 15.0 7.85 10.6 12.25 6.2 16.65 0.0 16.65 -6.2 16.65 -10.6 12.25 -15.0 7.85 -15.0 1.65 -15.0 -4.55 -10.6 -8.95 -6.2 -13.35 0.0 -13.35 2.9 -13.35 5.4 -12.4 L7.4 -14.55 8.1 -14.1 8.0 -14.0 8.1 -13.95 8.2 -14.05 9.95 -12.95 Q9.95 -12.7 10.1 -12.65 L10.35 -12.7 M8.2 -13.75 L8.1 -13.85 Q7.25 -13.85 6.85 -12.65 L6.9 -12.45 6.85 -12.35 Q6.65 -11.8 7.4 -11.75 L8.1 -11.65 Q8.85 -11.65 8.85 -13.1 L8.8 -13.15 8.8 -13.45 Q8.7 -13.75 8.25 -13.75 L8.2 -13.75 M-8.8 -5.8 Q-4.5 -9.6 0.1 -9.6 4.35 -9.6 6.3 -8.45 8.25 -7.3 8.6 -7.3 L8.85 -7.3 10.15 -6.4 11.3 -5.5 12.0 -4.85 12.05 -4.95 11.55 -5.75 10.9 -6.8 10.85 -6.85 10.05 -7.65 9.35 -8.25 Q9.05 -9.2 6.2 -10.6 2.8 -12.25 -0.15 -12.25 -4.85 -12.25 -8.0 -10.05 L-12.2 -6.35 Q-14.3 -4.7 -14.3 0.9 L-13.75 5.2 Q-13.1 8.45 -12.55 9.2 -9.65 12.6 -8.55 13.3 L-7.85 13.65 -6.75 14.5 -6.6 14.45 -6.0 14.85 Q-4.6 15.7 -4.0 15.7 L-3.75 15.65 Q-3.0 16.4 -1.2 16.4 L-0.1 16.25 -0.1 16.15 0.55 16.15 1.6 16.1 3.25 15.8 3.4 15.85 Q4.3 15.85 5.05 14.8 L5.65 13.55 5.7 13.55 Q8.6 13.55 11.25 8.8 13.4 5.0 13.4 3.65 13.4 1.95 11.85 0.2 9.7 -2.3 5.7 -2.3 3.85 -2.3 2.35 -1.45 L2.35 -1.5 2.1 -1.75 2.1 -1.8 2.05 -1.8 1.95 -1.85 Q0.9 -1.85 0.85 -0.3 -1.05 1.55 -2.05 5.25 L-2.0 6.1 Q-3.85 5.2 -5.4 5.0 L-10.0 4.7 -10.65 4.6 -10.95 4.0 -10.85 3.75 -10.65 2.45 -10.4 2.55 -10.25 2.55 Q-9.85 3.5 -7.45 3.5 -5.8 3.5 -5.6 2.8 -4.25 2.4 -3.2 1.15 -2.05 -0.25 -2.05 -1.35 L-2.1 -1.45 -1.9 -1.6 -1.4 -2.05 -1.35 -2.1 -1.15 -2.95 -1.5 -3.3 -2.0 -2.6 Q-2.65 -1.95 -3.35 -1.95 -4.5 -1.95 -5.55 -3.3 L-5.65 -3.3 -5.65 -3.05 -6.0 -3.65 Q-7.15 -5.8 -8.55 -5.8 L-8.8 -5.8 M-0.4 16.1 L-0.6 16.15 -0.5 16.1 -0.4 16.1 M-9.45 9.75 L-10.1 8.9 -10.85 7.5 -10.75 7.3 -10.9 6.4 -10.55 5.25 -10.25 5.2 -10.05 5.25 -10.45 5.35 -7.2 5.7 -8.65 7.8 -8.2 8.3 -8.65 9.2 -9.1 10.25 -9.45 9.75 M-6.2 5.3 Q-4.85 5.3 -2.1 6.6 L-1.9 6.7 -1.9 6.8 -2.4 6.55 Q-4.5 5.65 -6.2 5.3 M5.25 13.55 L4.8 14.6 5.15 13.55 5.25 13.55 M1.3 -0.7 L1.25 -0.65 1.35 -0.9 1.3 -0.7 M9.45 -10.0 Q7.55 -11.55 5.4 -12.4 7.55 -11.55 9.45 -10.0 M-11.0 0.4 L-11.35 -0.3 -11.45 -0.45 -11.55 -0.4 -11.5 -0.85 -11.0 0.4 M-8.45 2.6 L-6.7 2.9 -6.65 2.9 -7.45 3.2 Q-9.25 3.2 -10.1 2.4 L-10.05 2.1 -11.3 0.75 -11.25 0.7 -10.7 1.35 Q-9.25 2.75 -8.65 2.75 L-8.45 2.6 M-4.25 15.15 L-3.95 15.25 -4.0 15.3 -4.25 15.15 M-11.4 5.15 L-11.35 5.2 -11.4 5.25 -11.4 5.15" fill="#414347" fill-rule="evenodd" stroke="none"/>
    <path d="M6.9 -12.45 L7.4 -13.2 8.2 -13.75 8.25 -13.75 Q8.7 -13.75 8.8 -13.45 L8.8 -13.15 8.4 -12.35 7.65 -11.75 7.4 -11.75 Q6.65 -11.8 6.85 -12.35 L6.9 -12.45 M-0.1 16.15 L-0.1 16.25 -1.2 16.4 Q-3.0 16.4 -3.75 15.65 L-4.0 15.7 Q-4.6 15.7 -6.0 14.85 L-6.6 14.45 -6.75 14.5 -7.85 13.65 -8.55 13.3 Q-9.65 12.6 -12.55 9.2 -13.1 8.45 -13.75 5.2 L-14.3 0.9 Q-14.3 -4.7 -12.2 -6.35 L-8.0 -10.05 Q-4.85 -12.25 -0.15 -12.25 2.8 -12.25 6.2 -10.6 9.05 -9.2 9.35 -8.25 L10.05 -7.65 10.85 -6.85 10.9 -6.8 11.55 -5.75 12.05 -4.95 12.0 -4.85 11.3 -5.5 10.15 -6.4 8.85 -7.3 8.6 -7.3 Q8.25 -7.3 6.3 -8.45 4.35 -9.6 0.1 -9.6 -4.5 -9.6 -8.8 -5.8 L-10.1 -5.55 Q-11.85 -5.4 -11.85 -1.95 L-11.5 -0.85 -11.55 -0.4 -11.45 -0.45 -11.35 -0.3 -11.0 0.4 -8.45 2.6 -8.65 2.75 Q-9.25 2.75 -10.7 1.35 L-11.25 0.7 -11.3 0.75 -10.05 2.1 -10.1 2.4 -10.25 2.55 -10.4 2.55 -10.65 2.45 -10.85 3.75 -10.95 4.0 -10.65 4.6 -10.0 4.7 -5.4 5.0 Q-3.85 5.2 -2.0 6.1 L-1.9 6.15 Q-0.35 6.7 0.15 7.1 L1.05 7.8 1.8 8.3 2.15 8.5 1.95 8.1 2.05 8.05 2.05 7.95 2.65 8.45 3.55 9.15 4.6 9.6 6.65 9.7 6.65 9.65 6.7 9.7 6.8 9.7 7.75 9.45 8.35 9.2 8.45 9.25 8.5 9.35 Q8.5 9.85 7.1 9.9 L7.1 10.1 6.75 10.15 Q4.45 10.15 3.0 9.25 L4.35 10.75 Q5.65 12.15 5.65 13.35 L5.65 13.55 5.05 14.8 Q4.3 15.85 3.4 15.85 L3.25 15.8 3.15 15.65 Q4.25 15.25 4.8 14.6 L5.25 13.55 5.25 13.3 5.15 12.7 Q4.8 11.1 1.65 8.85 L1.55 8.75 Q0.5 7.8 -1.9 6.7 L-2.1 6.6 Q-4.85 5.3 -6.2 5.3 L-7.2 5.4 -10.05 5.25 -10.25 5.2 -10.55 5.25 -10.9 6.4 -10.75 7.3 -10.85 7.5 -10.1 8.9 -9.45 9.75 Q-9.7 9.75 -9.7 9.9 L-8.7 11.8 -7.05 13.4 Q-3.35 15.7 -0.5 16.1 L-0.6 16.15 -0.4 16.1 -0.15 16.05 -0.1 16.15 M-5.65 -3.05 L-5.65 -3.3 -5.55 -3.3 Q-4.5 -1.95 -3.35 -1.95 -2.65 -1.95 -2.0 -2.6 L-1.5 -3.3 -1.15 -2.95 -1.35 -2.1 -1.4 -2.05 Q-1.9 -1.45 -3.3 -1.45 -5.15 -1.45 -5.65 -3.0 L-5.65 -3.05 M2.1 -1.75 L2.35 -1.5 2.35 -1.45 Q2.35 -1.05 1.95 -0.55 L1.9 0.5 Q1.9 0.9 4.2 1.5 4.2 1.75 3.7 1.75 L3.25 1.75 Q1.7 1.5 1.3 0.5 L1.2 -0.15 1.3 -0.7 1.35 -0.9 Q1.55 -1.8 2.05 -1.8 L2.1 -1.75 M-8.75 10.7 L-8.7 10.75 -8.75 10.8 -8.75 10.7 M-9.8 -5.55 L-9.85 -5.55 -9.75 -5.6 -9.8 -5.55 M-11.4 5.15 L-11.4 5.25 -11.35 5.2 -11.4 5.15 M-4.25 15.15 L-4.0 15.3 -3.95 15.25 -4.25 15.15" fill="#515359" fill-rule="evenodd" stroke="none"/>
    <path d="M-5.6 2.8 Q-5.8 3.5 -7.45 3.5 -9.85 3.5 -10.25 2.55 L-10.1 2.4 Q-9.25 3.2 -7.45 3.2 L-6.65 2.9 -5.75 2.6 -5.6 2.7 -5.6 2.8 M3.25 15.8 L1.6 16.1 0.55 16.15 -0.1 16.15 -0.15 16.05 -0.4 16.1 -0.5 16.1 Q-3.35 15.7 -7.05 13.4 L-8.7 11.8 -9.7 9.9 Q-9.7 9.75 -9.45 9.75 L-9.1 10.25 -8.65 9.2 -8.2 8.3 -8.65 7.8 -7.2 5.7 -10.45 5.35 -10.05 5.25 -7.2 5.4 -6.2 5.3 Q-4.5 5.65 -2.4 6.55 L-1.9 6.8 Q0.05 7.65 0.8 8.25 L1.65 8.85 Q4.8 11.1 5.15 12.7 L5.15 13.05 5.15 13.55 4.8 14.6 Q4.25 15.25 3.15 15.65 L3.25 15.8 M2.15 4.2 L2.1 4.2 2.1 4.25 2.15 4.2 M2.45 3.9 Q3.5 3.9 3.5 5.15 3.5 6.2 2.55 6.2 1.45 6.2 1.4 5.1 1.4 3.9 2.45 3.9 M1.8 8.3 L1.05 7.8 0.9 7.0 0.9 6.95 0.75 6.6 0.8 6.35 0.9 6.35 1.65 7.75 1.9 8.0 1.9 8.25 1.8 8.3 M-8.75 10.8 L-8.65 10.95 Q-7.95 12.35 -6.7 13.0 -1.75 15.65 0.55 15.65 L2.7 15.35 Q3.45 15.1 4.05 14.65 L4.5 14.0 3.65 14.1 Q2.65 14.1 2.4 13.75 L2.05 13.2 2.0 13.15 2.2 13.25 1.95 13.0 Q1.65 12.55 0.95 12.85 L0.15 12.15 0.2 12.05 0.25 12.05 Q0.45 12.05 0.75 12.35 L1.05 12.55 Q1.55 12.05 2.1 12.7 L2.4 13.35 3.4 13.6 4.65 13.15 4.65 13.1 Q4.65 10.6 -0.05 8.3 -1.0 7.8 -1.7 7.45 L-3.6 6.5 -6.7 5.75 Q-8.1 7.3 -8.1 7.6 L-7.25 8.4 Q-7.0 8.45 -6.7 8.7 L-6.7 8.8 -6.85 8.85 -7.35 8.7 -7.45 8.7 -7.85 8.55 -8.4 9.7 -8.75 10.7 -8.75 10.8 M-5.1 -0.05 Q-5.1 1.15 -6.35 1.15 -7.45 1.15 -7.4 0.1 -7.4 -1.35 -6.05 -1.35 -5.1 -1.35 -5.1 -0.05 M-5.9 8.95 L-4.95 9.8 -3.25 10.45 -3.5 10.6 Q-4.95 10.6 -6.0 9.1 L-5.9 8.95" fill="#000000" fill-rule="evenodd" stroke="none"/>
    <path d="M12.85 -15.8 Q13.35 -16.0 13.5 -16.25 L13.55 -16.15 13.55 -14.8 11.95 -14.15 12.1 -14.25 11.8 -15.5 12.5 -15.65 11.9 -15.45 12.25 -15.35 12.85 -15.8 M11.6 -15.45 L11.6 -14.85 11.85 -14.15 11.95 -14.15 11.3 -13.9 10.5 -13.5 9.9 -15.25 11.6 -15.45 M10.5 -14.75 L10.9 -14.95 10.7 -15.05 10.15 -14.8 10.5 -14.75 M8.2 -14.05 L9.35 -15.2 9.7 -15.2 Q9.7 -14.2 10.3 -13.4 9.95 -13.2 9.95 -12.95 L8.2 -14.05 M8.95 -14.3 L9.25 -14.25 9.6 -14.85 9.55 -15.0 Q9.1 -14.8 8.95 -14.3" fill="#7a6b5f" fill-rule="evenodd" stroke="none"/>
    <path d="M12.5 -15.65 L11.8 -15.5 12.1 -14.25 11.95 -14.15 13.55 -14.8 13.55 -16.15 13.5 -16.25 Q13.35 -16.0 12.85 -15.8 L12.6 -15.8 12.5 -15.65 M11.6 -15.45 L9.9 -15.25 10.5 -13.5 11.3 -13.9 11.95 -14.15 11.85 -14.15 11.6 -14.85 11.6 -15.45 M8.1 -14.1 Q8.5 -15.0 9.2 -15.5 L13.85 -16.6 13.9 -15.45 Q13.9 -13.7 10.35 -12.7 L10.1 -12.65 Q9.95 -12.7 9.95 -12.95 9.95 -13.2 10.3 -13.4 9.7 -14.2 9.7 -15.2 L9.35 -15.2 8.2 -14.05 8.1 -13.95 8.0 -14.0 8.1 -14.1" fill="#4d443c" fill-rule="evenodd" stroke="none"/>
    <path d="M12.85 -15.8 L12.25 -15.35 11.9 -15.45 12.5 -15.65 12.6 -15.8 12.85 -15.8 M10.5 -14.75 L10.15 -14.8 10.7 -15.05 10.9 -14.95 10.5 -14.75 M8.95 -14.3 Q9.1 -14.8 9.55 -15.0 L9.6 -14.85 9.25 -14.25 8.95 -14.3" fill="#a89a8e" fill-rule="evenodd" stroke="none"/>
    <path d="M8.2 -13.75 L7.4 -13.2 6.9 -12.45 6.85 -12.65 Q7.25 -13.85 8.1 -13.85 L8.2 -13.75 M7.4 -11.75 L7.65 -11.75 8.4 -12.35 8.8 -13.15 8.85 -13.1 Q8.85 -11.65 8.1 -11.65 L7.4 -11.75" fill="#484a4f" fill-rule="evenodd" stroke="none"/>
    <path d="M-2.0 6.1 L-2.05 5.25 Q-1.05 1.55 0.85 -0.3 L0.85 -0.25 1.3 1.0 Q0.35 2.35 0.35 4.6 0.35 6.15 0.9 7.0 L1.05 7.8 0.15 7.1 Q-0.35 6.7 -1.9 6.15 L-2.0 6.1 M2.35 -1.45 Q3.85 -2.3 5.7 -2.3 9.7 -2.3 11.85 0.2 13.4 1.95 13.4 3.65 13.4 5.0 11.25 8.8 8.6 13.55 5.7 13.55 L5.65 13.55 5.65 13.35 Q5.65 12.15 4.35 10.75 L3.0 9.25 Q4.45 10.15 6.75 10.15 L7.1 10.1 7.1 9.9 Q8.5 9.85 8.5 9.35 L8.45 9.25 Q10.95 8.4 10.95 5.65 10.95 3.75 10.3 3.1 L9.45 2.1 Q8.45 1.2 7.45 1.2 5.65 1.2 4.25 1.8 L3.25 1.75 3.7 1.75 Q4.2 1.75 4.2 1.5 1.9 0.9 1.9 0.5 L1.95 -0.55 Q2.35 -1.05 2.35 -1.45 M-1.9 6.7 Q0.5 7.8 1.55 8.75 L1.65 8.85 0.8 8.25 Q0.05 7.65 -1.9 6.8 L-1.9 6.7 M5.15 12.7 L5.25 13.3 5.25 13.55 5.15 13.55 5.15 13.05 5.15 12.7 M1.3 0.5 L1.15 -0.3 1.25 -0.65 1.3 -0.7 1.2 -0.15 1.3 0.5 M7.75 9.45 L6.8 9.7 6.7 9.7 6.65 9.65 6.65 9.7 4.6 9.6 3.55 9.15 2.65 8.45 Q4.4 9.6 5.75 9.6 L6.6 9.6 7.75 9.45 M2.05 8.05 L1.95 8.1 2.15 8.5 1.8 8.3 1.9 8.25 1.9 8.0 1.65 7.75 2.05 8.05" fill="#3d3f43" fill-rule="evenodd" stroke="none"/>
    <path d="M10.35 -12.7 L11.1 -12.25 9.45 -10.0 10.6 -8.95 Q15.0 -4.55 15.0 1.65 15.0 7.85 10.6 12.25 6.2 16.65 0.0 16.65 -6.2 16.65 -10.6 12.25 -15.0 7.85 -15.0 1.65 -15.0 -4.55 -10.6 -8.95 -6.2 -13.35 0.0 -13.35 2.9 -13.35 5.4 -12.4 L7.4 -14.55 8.1 -14.1 M8.2 -14.05 L9.95 -12.95 M5.4 -12.4 Q7.55 -11.55 9.45 -10.0" fill="none" stroke="#151517" stroke-linecap="round" stroke-linejoin="round" stroke-width="0.5"/>
  </g>
</svg>
