<?xml version="1.0" encoding="UTF-8" standalone="no"?>
<svg xmlns:xlink="http://www.w3.org/1999/xlink" height="26.0px" width="26.0px" xmlns="http://www.w3.org/2000/svg">
  <g transform="matrix(1.0, 0.0, 0.0, 1.0, 13.0, 13.0)">
    <path d="M6.75 -6.8 Q9.55 -4.0 9.55 -0.05 9.55 3.85 6.75 6.7 3.95 9.55 0.0 9.55 -4.0 9.55 -6.8 6.7 -9.55 3.85 -9.55 -0.05 -9.55 -4.0 -6.8 -6.8 -4.0 -9.6 0.0 -9.6 3.95 -9.6 6.75 -6.8" fill="#b6ed7e" fill-rule="evenodd" stroke="none"/>
    <path d="M7.35 -7.4 Q4.3 -10.45 0.0 -10.45 -4.35 -10.45 -7.4 -7.4 -10.4 -4.35 -10.4 -0.05 -10.4 4.2 -7.4 7.3 -4.35 10.4 0.0 10.4 4.3 10.4 7.35 7.3 10.4 4.2 10.4 -0.05 10.4 -4.35 7.35 -7.4 M8.85 -8.8 Q12.5 -5.15 12.5 0.0 12.5 2.7 11.55 4.95 L10.25 7.2 8.85 8.85 Q5.15 12.5 0.0 12.5 -5.15 12.5 -8.85 8.85 -12.5 5.2 -12.5 0.0 -12.5 -5.15 -8.85 -8.8 -5.15 -12.5 0.0 -12.5 5.15 -12.5 8.85 -8.8" fill="#589b15" fill-rule="evenodd" stroke="none"/>
    <path d="M6.75 -6.8 Q3.95 -9.6 0.0 -9.6 -4.0 -9.6 -6.8 -6.8 -9.55 -4.0 -9.55 -0.05 -9.55 3.85 -6.8 6.7 -4.0 9.55 0.0 9.55 3.95 9.55 6.75 6.7 9.55 3.85 9.55 -0.05 9.55 -4.0 6.75 -6.8 M7.35 -7.4 Q10.4 -4.35 10.4 -0.05 10.4 4.2 7.35 7.3 4.3 10.4 0.0 10.4 -4.35 10.4 -7.4 7.3 -10.4 4.2 -10.4 -0.05 -10.4 -4.35 -7.4 -7.4 -4.35 -10.45 0.0 -10.45 4.3 -10.45 7.35 -7.4" fill="#c6f19a" fill-rule="evenodd" stroke="none"/>
    <path d="M8.85 -8.8 Q12.5 -5.15 12.5 0.0 12.5 2.7 11.55 4.95 L10.25 7.2 8.85 8.85 Q5.15 12.5 0.0 12.5 -5.15 12.5 -8.85 8.85 -12.5 5.2 -12.5 0.0 -12.5 -5.15 -8.85 -8.8 -5.15 -12.5 0.0 -12.5 5.15 -12.5 8.85 -8.8 Z" fill="none" stroke="#000000" stroke-linecap="round" stroke-linejoin="round" stroke-width="1.0"/>
    <path d="M-4.4 -3.5 L-4.4 -5.3 Q-5.4 -5.9 -5.7 -7.6 2.8 -6.4 6.25 -3.1 6.75 0.35 5.6 4.4 L5.8 7.0 Q5.25 7.45 4.7 7.0 L1.55 3.95 Q-4.15 4.05 -4.7 1.05 -6.9 0.15 -6.85 -1.55 -8.3 -2.4 -8.3 -3.8 L-4.4 -3.5 -1.6 -3.15 -4.4 -5.3 -1.6 -3.15 -4.4 -3.5 M5.6 4.4 L5.2 -1.2 Q3.35 -2.45 -1.6 -3.15 3.35 -2.45 5.2 -1.2 L5.6 4.4 M-2.15 1.75 L-4.7 1.05 -2.15 1.75 M-2.4 -0.55 Q-5.35 -0.8 -6.85 -1.55 -5.35 -0.8 -2.4 -0.55" fill="#ffffff" fill-rule="evenodd" stroke="none"/>
    <path d="M-4.4 -3.5 L-4.4 -5.3 Q-5.4 -5.9 -5.7 -7.6 2.8 -6.4 6.25 -3.1 6.75 0.35 5.6 4.4 L5.8 7.0 Q5.25 7.45 4.7 7.0 L1.55 3.95 Q-4.15 4.05 -4.7 1.05 -6.9 0.15 -6.85 -1.55 -8.3 -2.4 -8.3 -3.8 L-4.4 -3.5 -1.6 -3.15 -4.4 -5.3 M-6.85 -1.55 Q-5.35 -0.8 -2.4 -0.55 M-4.7 1.05 L-2.15 1.75 M-1.6 -3.15 Q3.35 -2.45 5.2 -1.2 L5.6 4.4" fill="none" stroke="#000000" stroke-linecap="round" stroke-linejoin="round" stroke-width="1.0"/>
  </g>
</svg>
