<?xml version="1.0" encoding="UTF-8" standalone="no"?>
<svg xmlns:xlink="http://www.w3.org/1999/xlink" height="38.0px" width="30.55px" xmlns="http://www.w3.org/2000/svg">
  <g transform="matrix(1.0, 0.0, 0.0, 1.0, 0.25, 0.0)">
    <path d="M3.7 20.7 Q5.5 15.25 9.5 12.95 13.15 10.8 15.45 10.85 L18.0 10.7 18.2 10.55 19.8 10.65 21.25 10.9 22.2 11.1 22.15 11.0 21.3 10.55 Q20.95 10.2 20.25 9.95 L20.2 9.95 19.1 9.65 18.15 9.5 Q17.45 8.8 14.3 9.05 10.5 9.3 7.95 10.8 3.9 13.1 2.25 16.6 1.35 18.5 0.45 21.9 -0.55 24.4 2.3 29.25 L4.9 32.7 Q7.1 35.15 7.95 35.55 12.15 37.05 13.45 37.1 L14.2 37.05 15.6 37.25 15.7 37.15 16.45 37.15 18.6 36.9 18.75 36.75 Q19.75 37.0 21.35 36.1 L22.25 35.45 22.15 35.35 22.75 35.0 23.65 34.45 24.95 33.35 25.1 33.35 Q25.85 32.9 26.0 31.6 L25.85 30.25 25.9 30.2 Q28.4 28.75 28.35 23.3 28.3 18.95 27.65 17.75 26.8 16.3 24.6 15.55 21.45 14.45 18.0 16.45 16.35 17.4 15.5 18.85 L15.1 18.75 15.15 18.7 15.1 18.75 15.0 18.75 Q14.05 19.25 14.8 20.6 14.1 23.2 15.05 26.9 L15.55 27.6 Q13.45 27.7 12.05 28.35 10.95 28.8 7.9 30.4 L7.3 30.6 6.75 30.25 6.7 30.0 6.2 28.75 6.5 28.7 6.6 28.6 Q7.4 29.25 9.5 28.05 10.9 27.25 10.75 26.55 11.75 25.55 12.0 23.9 12.3 22.1 11.75 21.15 L11.65 21.1 11.75 20.9 11.95 20.15 11.75 19.35 11.25 19.2 11.2 20.05 Q10.95 20.95 10.35 21.3 L7.75 21.25 7.65 21.3 7.8 21.5 7.2 21.15 Q5.1 19.85 3.9 20.55 L3.7 20.7 M21.9 35.45 L21.75 35.6 21.8 35.5 21.9 35.45 M10.9 34.5 L9.9 34.05 8.55 33.2 8.55 33.0 7.95 32.3 7.65 31.15 7.95 30.95 8.1 30.85 7.85 31.15 10.8 29.85 Q10.4 32.0 10.6 32.4 L11.25 32.6 11.3 33.6 11.45 34.7 10.9 34.5 M11.5 29.0 Q12.65 28.3 15.7 28.1 L15.9 28.05 15.95 28.15 15.4 28.2 Q13.15 28.45 11.5 29.0 M25.5 30.4 Q25.75 30.95 25.65 31.55 L25.4 30.45 25.5 30.4 M16.8 5.1 L17.7 5.15 17.35 7.9 18.9 8.25 Q24.9 9.85 28.05 15.25 31.1 20.6 29.5 26.6 27.9 32.6 22.55 35.75 17.15 38.8 11.15 37.2 5.15 35.6 2.05 30.25 -1.05 24.85 0.55 18.85 2.15 12.85 7.55 9.75 10.05 8.3 12.7 7.85 L13.35 5.0 14.15 5.05 14.15 5.2 14.25 5.2 14.25 5.05 16.35 5.1 16.65 5.3 16.8 5.1 M14.75 7.45 L15.4 7.15 Q16.05 6.8 15.35 5.55 L15.25 5.5 15.1 5.25 14.5 5.3 14.45 5.3 14.3 5.25 Q13.55 5.7 13.8 6.95 L13.95 7.1 13.95 7.2 Q14.0 7.75 14.75 7.45 M17.35 7.9 Q14.95 7.5 12.7 7.85 14.95 7.5 17.35 7.9 M14.9 19.85 L14.95 20.05 14.95 20.1 14.9 19.85 M18.1 36.55 L18.4 36.5 18.4 36.55 18.1 36.55 M9.9 27.15 L9.35 27.8 Q7.8 28.7 6.65 28.45 L6.55 28.15 4.8 27.6 4.8 27.5 5.6 27.85 8.1 28.0 8.2 27.8 9.85 27.15 9.9 27.15 M3.8 26.3 L4.85 27.15 4.25 26.75 4.05 26.65 4.0 26.75 3.8 26.3 M6.95 31.55 L6.9 31.5 6.95 31.5 6.95 31.55 M6.6 31.05 L6.6 31.1 6.6 31.05" fill="#414347" fill-rule="evenodd" stroke="none"/>
    <path d="M22.15 35.35 L22.25 35.45 21.35 36.1 Q19.75 37.0 18.75 36.75 L18.6 36.9 16.45 37.15 15.7 37.15 15.6 37.25 14.2 37.05 13.45 37.1 Q12.15 37.05 7.95 35.55 7.1 35.15 4.9 32.7 L2.3 29.25 Q-0.55 24.4 0.45 21.9 1.35 18.5 2.25 16.6 3.9 13.1 7.95 10.8 10.5 9.3 14.3 9.05 17.45 8.8 18.15 9.5 L19.1 9.65 20.2 9.95 20.25 9.95 Q20.95 10.2 21.3 10.55 L22.15 11.0 22.2 11.1 21.25 10.9 19.8 10.65 18.2 10.55 18.0 10.7 15.45 10.85 Q13.15 10.8 9.5 12.95 5.5 15.25 3.7 20.7 L2.65 21.55 Q1.25 22.55 3.0 25.55 L3.8 26.3 4.0 26.75 4.05 26.65 4.25 26.75 4.85 27.15 8.2 27.8 8.1 28.0 5.6 27.85 4.8 27.5 4.8 27.6 6.55 28.15 6.65 28.45 6.6 28.6 6.5 28.7 6.2 28.75 6.7 30.0 6.75 30.25 7.3 30.6 7.9 30.4 Q10.95 28.8 12.05 28.35 13.45 27.7 15.55 27.6 L15.65 27.6 17.9 27.4 19.0 27.55 19.9 27.6 20.3 27.6 19.95 27.35 20.0 27.25 19.95 27.15 20.7 27.3 21.85 27.45 23.0 27.35 24.8 26.4 24.75 26.35 24.85 26.35 24.95 26.3 25.65 25.6 26.05 25.1 26.15 25.1 26.25 25.15 Q26.5 25.6 25.3 26.35 L25.4 26.5 25.15 26.75 Q23.15 27.85 21.45 27.8 L23.35 28.45 Q25.2 29.0 25.8 30.05 L25.85 30.25 26.0 31.6 Q25.85 32.9 25.1 33.35 L24.95 33.35 24.75 33.3 Q25.5 32.35 25.65 31.55 25.75 30.95 25.5 30.4 L25.4 30.2 25.0 29.75 Q23.9 28.5 20.05 28.15 L19.95 28.1 Q18.5 27.8 15.9 28.05 L15.7 28.1 Q12.65 28.3 11.5 29.0 L10.7 29.6 8.1 30.85 7.95 30.95 7.65 31.15 7.95 32.3 8.55 33.0 8.55 33.2 9.9 34.05 10.9 34.5 10.75 34.75 12.6 35.9 14.8 36.45 Q19.15 36.55 21.8 35.5 L21.75 35.6 21.9 35.45 22.1 35.3 22.15 35.35 M7.8 21.5 L7.65 21.3 7.75 21.25 10.35 21.3 Q10.95 20.95 11.2 20.05 L11.25 19.2 11.75 19.35 11.95 20.15 Q11.85 21.0 10.65 21.7 L7.8 21.55 7.8 21.5 M15.1 18.75 L15.5 18.85 15.65 19.85 16.1 20.8 18.6 20.5 18.3 21.0 18.05 21.1 17.85 21.2 15.55 21.1 15.2 20.6 14.95 20.05 14.9 19.85 Q14.65 19.0 15.1 18.75 M15.25 5.5 L15.3 6.4 14.95 7.3 14.75 7.45 Q14.0 7.75 13.95 7.2 L13.95 7.1 14.0 6.2 Q14.2 5.45 14.45 5.3 L14.5 5.3 15.1 5.25 15.25 5.5 M2.95 21.4 L2.9 21.4 2.95 21.35 2.95 21.4 M11.95 34.95 L12.05 34.95 12.0 35.0 11.95 34.95 M18.1 36.55 L18.4 36.55 18.4 36.5 18.1 36.55 M6.6 31.05 L6.6 31.1 6.6 31.05 M6.95 31.55 L6.95 31.5 6.9 31.5 6.95 31.55" fill="#515359" fill-rule="evenodd" stroke="none"/>
    <path d="M3.7 20.7 L3.9 20.55 Q5.1 19.85 7.2 21.15 L7.8 21.5 7.8 21.55 10.65 21.7 Q11.85 21.0 11.95 20.15 L11.75 20.9 11.65 21.1 11.75 21.15 Q12.3 22.1 12.0 23.9 11.75 25.55 10.75 26.55 L10.7 26.45 10.55 26.45 9.9 27.15 9.85 27.15 8.2 27.8 4.85 27.15 3.8 26.3 3.0 25.55 Q1.25 22.55 2.65 21.55 L3.7 20.7 M14.8 20.6 Q14.05 19.25 15.0 18.75 L15.1 18.75 15.15 18.7 15.1 18.75 Q14.65 19.0 14.9 19.85 L14.95 20.1 15.05 20.5 15.55 21.1 17.85 21.2 18.05 21.1 18.8 20.75 Q19.7 19.5 21.25 18.65 L23.45 18.4 24.7 18.85 Q25.55 19.05 26.5 20.75 27.9 23.1 26.15 25.1 L26.05 25.1 25.65 25.6 24.7 26.3 24.0 26.75 Q22.8 27.4 20.7 27.3 L19.95 27.15 20.0 27.25 19.5 27.2 18.15 26.35 18.1 26.4 18.15 26.65 18.45 26.9 18.5 26.9 Q17.6 26.45 16.8 25.1 15.7 23.15 15.85 21.55 L14.8 20.65 14.8 20.6 M26.55 23.65 Q27.4 22.6 26.35 20.7 25.1 18.6 22.4 18.5 L22.35 18.6 22.6 18.65 Q21.95 18.65 21.4 19.0 20.05 19.75 19.05 21.05 L17.1 21.7 16.25 21.65 16.05 21.6 16.1 21.95 16.1 22.0 Q16.0 22.9 16.5 23.9 L16.8 24.45 16.85 24.55 16.9 24.6 17.15 25.1 Q18.35 26.9 19.15 26.7 L19.95 26.9 20.05 26.85 20.95 27.05 23.35 26.85 23.4 26.75 23.35 26.65 23.25 26.65 23.8 26.4 Q26.0 25.1 26.55 23.65 M26.2 24.4 L26.5 24.25 26.7 23.5 26.2 24.4 M2.95 21.35 L2.9 21.4 2.95 21.4 2.95 21.45 Q2.45 22.15 2.45 22.8 L2.3 23.2 3.0 25.0 Q3.9 26.55 5.25 27.1 L5.3 26.95 5.55 27.1 Q7.55 28.05 9.7 26.8 11.75 25.6 11.8 23.3 L11.5 21.4 10.9 21.95 Q9.35 22.8 7.2 21.5 5.3 20.3 3.6 21.0 L3.15 21.25 3.1 21.25 3.0 21.2 2.95 21.35" fill="#020202" fill-rule="evenodd" stroke="none"/>
    <path d="M26.55 23.65 Q26.0 25.1 23.8 26.4 L23.25 26.65 20.9 26.75 20.65 26.7 20.65 26.65 20.2 26.55 20.15 26.55 20.0 26.5 19.2 26.25 Q17.95 25.65 17.2 24.55 L17.25 24.55 16.4 22.1 16.35 21.8 16.25 21.65 17.1 21.7 19.05 21.05 Q20.05 19.75 21.4 19.0 21.95 18.65 22.6 18.65 25.25 19.55 26.15 21.1 L26.5 22.35 26.25 23.7 26.45 23.7 26.55 23.65 M3.1 21.25 L3.15 21.25 3.6 21.0 Q5.3 20.3 7.2 21.5 9.35 22.8 10.9 21.95 L11.5 21.4 11.8 23.3 Q11.75 25.6 9.7 26.8 7.55 28.05 5.55 27.1 L5.3 26.95 3.25 24.85 Q2.5 23.5 2.55 22.65 L2.45 22.8 Q2.45 22.15 2.95 21.45 L2.85 21.75 3.2 21.35 3.1 21.25 M9.75 23.8 Q9.1 22.65 8.3 23.15 7.1 23.8 7.85 25.1 8.35 26.0 9.3 25.5 10.35 24.85 9.75 23.8 M18.15 23.95 L18.15 23.9 18.15 23.95 M19.8 24.0 Q19.2 22.9 18.3 23.45 17.35 24.0 18.0 25.05 18.55 25.95 19.5 25.4 20.3 24.9 19.8 24.0 M11.95 34.95 L11.8 33.9 11.65 32.65 12.1 32.55 12.2 32.5 12.7 32.4 12.8 32.3 12.75 32.2 12.1 32.2 11.0 31.95 Q10.85 31.7 11.25 29.65 L14.35 28.75 16.45 28.6 18.3 28.55 Q23.5 28.15 24.8 30.35 L24.8 30.4 23.95 31.4 22.95 31.65 22.4 31.25 Q21.55 30.95 21.4 31.65 L21.05 31.65 20.45 31.6 20.4 31.65 20.4 31.75 21.45 31.95 Q21.9 31.35 22.4 31.6 L22.7 31.7 22.5 31.7 22.6 31.7 23.15 32.0 Q23.55 32.2 24.4 31.7 L25.1 31.2 25.05 31.95 24.25 33.25 22.5 34.6 Q20.5 35.7 14.9 35.9 13.5 35.95 12.2 35.1 L12.0 35.0 12.05 34.95 11.95 34.95 M13.6 32.0 L13.55 32.2 16.5 32.25 16.6 32.0 14.85 32.25 13.6 32.0" fill="#ffffff" fill-rule="evenodd" stroke="none"/>
    <path d="M22.6 18.65 L22.35 18.6 22.4 18.5 Q25.1 18.6 26.35 20.7 27.4 22.6 26.55 23.65 L26.45 23.7 26.25 23.7 26.5 22.35 26.15 21.1 Q25.25 19.55 22.6 18.65 M23.25 26.65 L23.35 26.65 23.4 26.75 23.35 26.85 20.95 27.05 20.05 26.85 19.95 26.9 19.15 26.7 Q18.35 26.9 17.15 25.1 L16.9 24.6 16.85 24.55 16.8 24.45 16.5 23.9 Q16.0 22.9 16.1 22.0 L16.1 21.95 16.05 21.6 16.25 21.65 16.35 21.8 16.4 22.1 17.25 24.55 17.2 24.55 Q17.95 25.65 19.2 26.25 L20.0 26.5 20.15 26.55 20.2 26.55 20.65 26.65 20.65 26.7 20.9 26.75 23.25 26.65 M26.2 24.4 L26.7 23.5 26.5 24.25 26.2 24.4 M2.95 21.4 L2.95 21.35 3.0 21.2 3.1 21.25 3.2 21.35 2.85 21.75 2.95 21.45 2.95 21.4 M5.3 26.95 L5.25 27.1 Q3.9 26.55 3.0 25.0 L2.3 23.2 2.45 22.8 2.55 22.65 Q2.5 23.5 3.25 24.85 L5.3 26.95" fill="#580101" fill-rule="evenodd" stroke="none"/>
    <path d="M15.55 27.6 L15.05 26.9 Q14.1 23.2 14.8 20.6 L14.8 20.65 15.85 21.55 Q15.7 23.15 16.8 25.1 17.6 26.45 18.5 26.9 L19.0 27.55 17.9 27.4 15.65 27.6 15.55 27.6 M15.5 18.85 Q16.35 17.4 18.0 16.45 21.45 14.45 24.6 15.55 26.8 16.3 27.65 17.75 28.3 18.95 28.35 23.3 28.4 28.75 25.9 30.2 L25.85 30.25 25.8 30.05 Q25.2 29.0 23.35 28.45 L21.45 27.8 Q23.15 27.85 25.15 26.75 L25.4 26.5 25.3 26.35 Q26.5 25.6 26.25 25.15 L26.15 25.1 Q27.9 23.1 26.5 20.75 25.55 19.05 24.7 18.85 L23.45 18.4 21.25 18.65 Q19.7 19.5 18.8 20.75 L18.05 21.1 18.3 21.0 18.6 20.5 16.1 20.8 15.65 19.85 15.5 18.85 M15.9 28.05 Q18.5 27.8 19.95 28.1 L20.05 28.15 19.05 28.05 15.95 28.15 15.9 28.05 M25.0 29.75 L25.4 30.2 25.5 30.4 25.4 30.45 25.2 30.05 25.0 29.75 M14.95 20.1 L14.95 20.05 15.2 20.6 15.55 21.1 15.05 20.5 14.95 20.1 M19.5 27.2 L20.0 27.25 19.95 27.35 20.3 27.6 19.9 27.6 20.0 27.5 19.85 27.3 19.5 27.2 M20.7 27.3 Q22.8 27.4 24.0 26.75 L24.7 26.3 25.65 25.6 24.95 26.3 24.85 26.35 24.75 26.35 24.8 26.4 23.0 27.35 21.85 27.45 20.7 27.3" fill="#3d3f43" fill-rule="evenodd" stroke="none"/>
    <path d="M14.25 5.05 Q14.4 4.05 14.7 3.45 L15.0 3.3 Q15.5 4.15 16.4 4.55 L16.35 5.1 14.25 5.05 M17.45 1.2 L17.8 0.5 17.85 0.55 18.55 1.7 17.5 3.1 17.45 3.05 17.55 2.9 16.65 1.95 17.2 1.5 16.8 2.0 17.15 1.9 17.45 1.2 M17.5 3.1 L17.05 3.6 16.5 4.35 15.15 3.15 16.5 2.1 16.85 2.65 17.4 3.15 17.5 3.1 M16.2 2.9 L15.95 2.95 15.6 3.4 15.95 3.3 16.2 2.9 M14.8 4.45 L15.1 4.35 15.1 3.65 15.0 3.55 Q14.7 3.95 14.8 4.45" fill="#7a6b5f" fill-rule="evenodd" stroke="none"/>
    <path d="M14.15 5.05 Q14.05 4.05 14.45 3.3 L17.9 0.0 18.55 1.0 Q19.4 2.5 16.8 5.1 L16.65 5.3 16.35 5.1 16.4 4.55 Q15.5 4.15 15.0 3.3 L14.7 3.45 Q14.4 4.05 14.25 5.05 L14.25 5.2 14.15 5.2 14.15 5.05 M17.5 3.1 L18.55 1.7 17.85 0.55 17.8 0.5 17.45 1.2 17.2 1.35 17.2 1.5 16.65 1.95 17.55 2.9 17.45 3.05 17.4 3.15 16.85 2.65 16.5 2.1 15.15 3.15 16.5 4.35 17.05 3.6 17.5 3.1" fill="#4d443c" fill-rule="evenodd" stroke="none"/>
    <path d="M17.45 1.2 L17.15 1.9 16.8 2.0 17.2 1.5 17.2 1.35 17.45 1.2 M16.2 2.9 L15.95 3.3 15.6 3.4 15.95 2.95 16.2 2.9 M14.8 4.45 Q14.7 3.95 15.0 3.55 L15.1 3.65 15.1 4.35 14.8 4.45" fill="#a89a8e" fill-rule="evenodd" stroke="none"/>
    <path d="M15.25 5.5 L15.35 5.55 Q16.05 6.8 15.4 7.15 L14.75 7.45 14.95 7.3 15.3 6.4 15.25 5.5 M13.95 7.1 L13.8 6.95 Q13.55 5.7 14.3 5.25 L14.45 5.3 Q14.2 5.45 14.0 6.2 L13.95 7.1" fill="#484a4f" fill-rule="evenodd" stroke="none"/>
    <path d="M10.75 26.55 Q10.9 27.25 9.5 28.05 7.4 29.25 6.6 28.6 L6.65 28.45 Q7.8 28.7 9.35 27.8 L9.9 27.15 10.55 26.45 10.7 26.45 10.75 26.55 M24.95 33.35 L23.65 34.45 22.75 35.0 22.15 35.35 22.1 35.3 21.9 35.45 21.8 35.5 Q19.15 36.55 14.8 36.45 L12.6 35.9 10.75 34.75 10.9 34.5 11.45 34.7 11.3 33.6 11.25 32.6 10.6 32.4 Q10.4 32.0 10.8 29.85 L7.85 31.15 8.1 30.85 10.7 29.6 11.5 29.0 Q13.15 28.45 15.4 28.2 L15.95 28.15 19.05 28.05 20.05 28.15 Q23.9 28.5 25.0 29.75 L25.2 30.05 25.4 30.45 25.65 31.55 Q25.5 32.35 24.75 33.3 L24.95 33.35 M9.75 23.8 Q10.35 24.85 9.3 25.5 8.35 26.0 7.85 25.1 7.1 23.8 8.3 23.15 9.1 22.65 9.75 23.8 M19.8 24.0 Q20.3 24.9 19.5 25.4 18.55 25.95 18.0 25.05 17.35 24.0 18.3 23.45 19.2 22.9 19.8 24.0 M18.15 23.95 L18.15 23.9 18.15 23.95 M19.0 27.55 L18.5 26.9 18.45 26.9 18.15 26.65 18.1 26.4 18.15 26.35 19.5 27.2 19.85 27.3 20.0 27.5 19.9 27.6 19.0 27.55 M12.0 35.0 L12.2 35.1 Q13.5 35.95 14.9 35.9 20.5 35.7 22.5 34.6 L24.25 33.25 25.05 31.95 25.1 31.2 24.4 31.7 Q23.55 32.2 23.15 32.0 L22.6 31.7 22.5 31.7 22.7 31.7 22.4 31.6 Q21.9 31.35 21.45 31.95 L20.4 31.75 20.4 31.65 20.45 31.6 21.05 31.65 21.4 31.65 Q21.55 30.95 22.4 31.25 L22.95 31.65 23.95 31.4 24.8 30.4 24.8 30.35 Q23.5 28.15 18.3 28.55 L16.45 28.6 14.35 28.75 11.25 29.65 Q10.85 31.7 11.0 31.95 L12.1 32.2 12.75 32.2 12.8 32.3 12.7 32.4 12.2 32.5 12.1 32.55 11.65 32.65 11.8 33.9 11.95 34.95 12.0 35.0 M13.6 32.0 L14.85 32.25 16.6 32.0 16.5 32.25 13.55 32.2 13.6 32.0" fill="#000000" fill-rule="evenodd" stroke="none"/>
    <path d="M16.8 5.1 L17.7 5.15 17.35 7.9 18.9 8.25 Q24.9 9.85 28.05 15.25 31.1 20.6 29.5 26.6 27.9 32.6 22.55 35.75 17.15 38.8 11.15 37.2 5.15 35.6 2.05 30.25 -1.05 24.85 0.55 18.85 2.15 12.85 7.55 9.75 10.05 8.3 12.7 7.85 L13.35 5.0 14.15 5.05 M12.7 7.85 Q14.95 7.5 17.35 7.9 M16.35 5.1 L14.25 5.05" fill="none" stroke="#151517" stroke-linecap="round" stroke-linejoin="round" stroke-width="0.5"/>
  </g>
</svg>
