<?xml version="1.0" encoding="UTF-8" standalone="no"?>
<svg xmlns:xlink="http://www.w3.org/1999/xlink" height="32.2px" width="31.0px" xmlns="http://www.w3.org/2000/svg">
  <g transform="matrix(1.0, 0.0, 0.0, 1.0, 14.5, 17.35)">
    <path d="M8.65 -14.05 L9.0 -14.45 Q9.85 -15.45 11.35 -15.45 14.3 -15.45 14.3 -13.8 14.3 -12.95 13.4 -12.2 12.3 -11.25 10.6 -11.25 L10.2 -11.25 8.05 -11.6 8.5 -11.6 9.2 -11.55 8.6 -12.1 8.5 -12.4 8.6 -13.2 8.65 -14.05 M11.5 -9.0 L11.5 -8.7 13.1 -9.0 Q16.5 -9.0 16.5 -7.5 16.5 -5.55 15.0 -4.8 L13.65 -4.9 12.6 -4.85 Q12.35 -6.45 9.35 -6.45 7.6 -6.45 6.7 -5.35 6.05 -4.65 6.05 -3.9 6.05 -1.9 9.1 -1.9 L10.05 -1.95 Q10.6 -0.8 13.35 -0.75 L13.55 0.4 Q11.55 0.45 11.55 1.75 11.55 3.25 13.45 3.45 L13.45 3.55 12.85 6.2 12.0 8.85 10.25 11.45 Q7.8 13.8 6.7 13.8 L6.45 13.95 6.1 13.85 6.05 13.6 Q6.05 12.8 7.55 11.05 L9.3 8.85 9.55 7.95 Q9.15 7.15 9.15 5.35 9.15 3.1 8.7 2.2 6.6 -1.95 4.55 -3.05 3.4 -3.7 0.15 -3.7 -6.55 -3.7 -8.85 1.05 L-10.0 4.3 -10.15 4.9 Q-9.6 6.8 -8.3 8.7 -5.7 12.45 -1.1 14.55 L-1.1 14.8 -1.3 14.85 Q-3.45 14.85 -6.75 12.6 L-10.75 9.2 Q-13.2 6.25 -13.2 2.35 -13.2 0.45 -11.65 -2.4 -10.9 -2.6 -10.25 -3.0 -11.8 -0.85 -11.8 0.9 L-11.95 2.2 Q-11.95 3.85 -9.6 8.3 L-9.6 8.25 -10.7 5.6 -10.85 5.05 -11.0 3.5 Q-11.0 0.05 -6.85 -3.6 L-3.3 -6.75 -2.4 -6.7 Q0.95 -6.7 1.5 -8.35 L1.55 -7.9 Q1.95 -7.25 3.1 -7.25 4.25 -7.25 5.35 -8.0 L5.85 -8.45 Q6.5 -7.65 7.9 -7.65 11.0 -7.65 11.5 -9.0 M-9.8 -5.45 L-8.95 -6.55 Q-8.05 -6.8 -7.7 -7.3 L-6.7 -7.25 -6.1 -7.3 -8.25 -5.3 -9.2 -4.3 -9.2 -4.55 Q-9.2 -5.25 -9.8 -5.45 M-11.15 -8.85 L-11.25 -9.55 Q-11.25 -12.4 -7.05 -12.95 L-6.45 -14.25 Q-5.65 -15.65 -4.35 -16.1 L-4.6 -15.5 Q-4.6 -13.9 -2.45 -13.9 -0.3 -13.9 0.45 -14.55 L0.7 -14.2 0.7 -14.05 Q0.7 -12.2 3.25 -11.95 3.25 -11.45 2.45 -10.45 L2.45 -10.4 3.5 -10.2 Q1.95 -10.0 1.55 -9.2 1.5 -10.95 -1.1 -10.95 L-3.0 -10.75 -3.05 -10.85 Q-2.2 -10.95 -1.6 -11.45 -0.9 -11.95 -0.9 -12.45 -0.9 -13.65 -3.25 -13.65 -5.1 -13.65 -5.1 -12.1 L-5.1 -11.85 -6.75 -11.95 Q-9.75 -11.95 -9.75 -9.5 L-9.65 -9.1 -11.15 -8.85 M5.55 -11.15 L5.9 -11.1 Q5.5 -10.75 5.45 -10.1 L4.5 -10.25 Q4.8 -10.85 5.55 -11.15 M14.05 -7.55 L13.65 -6.75 Q13.65 -5.8 14.95 -5.8 16.25 -5.8 16.25 -7.1 16.15 -8.2 15.05 -8.2 14.5 -8.2 14.05 -7.55" fill="#e15a00" fill-rule="evenodd" stroke="none"/>
    <path d="M10.2 -11.25 Q11.55 -10.8 11.55 -9.6 L11.5 -9.0 Q11.0 -7.65 7.9 -7.65 6.5 -7.65 5.85 -8.45 L5.7 -8.65 5.4 -9.75 5.45 -10.1 Q5.5 -10.75 5.9 -11.1 L5.55 -11.15 Q4.7 -11.3 4.15 -11.95 L4.05 -12.05 3.4 -13.05 4.35 -14.25 Q5.5 -15.45 6.7 -15.45 L7.45 -15.35 Q8.5 -15.1 8.65 -14.05 L8.6 -13.2 8.5 -12.4 7.95 -11.6 8.05 -11.6 10.2 -11.25 M-4.35 -16.1 L-3.65 -16.75 Q-2.75 -17.35 -1.65 -17.35 -0.75 -17.35 0.05 -16.5 L0.75 -15.45 0.45 -14.55 Q-0.3 -13.9 -2.45 -13.9 -4.6 -13.9 -4.6 -15.5 L-4.35 -16.1 M10.05 -1.95 L9.1 -1.9 Q6.05 -1.9 6.05 -3.9 6.05 -4.65 6.7 -5.35 7.6 -6.45 9.35 -6.45 12.35 -6.45 12.6 -4.85 L12.6 -4.5 Q12.6 -2.3 10.05 -1.95 M14.05 -7.55 Q14.5 -8.2 15.05 -8.2 16.15 -8.2 16.25 -7.1 16.25 -5.8 14.95 -5.8 13.65 -5.8 13.65 -6.75 L14.05 -7.55" fill="#feb010" fill-rule="evenodd" stroke="none"/>
    <path d="M0.7 -14.2 Q0.9 -16.35 5.65 -16.35 7.05 -16.35 7.45 -15.35 L6.7 -15.45 Q5.5 -15.45 4.35 -14.25 L3.4 -13.05 4.05 -12.05 4.15 -11.95 3.85 -11.95 3.25 -11.95 Q0.7 -12.2 0.7 -14.05 L0.7 -14.2 M4.5 -10.25 L5.45 -10.1 5.4 -9.75 5.7 -8.65 5.85 -8.45 5.35 -8.0 Q4.25 -7.25 3.1 -7.25 1.95 -7.25 1.55 -7.9 L1.5 -8.35 Q0.95 -6.7 -2.4 -6.7 L-3.3 -6.75 -6.85 -3.6 Q-11.0 0.05 -11.0 3.5 L-10.85 5.05 -10.7 5.6 -9.6 8.25 -9.6 8.3 Q-11.95 3.85 -11.95 2.2 L-11.8 0.9 Q-11.8 -0.85 -10.25 -3.0 L-9.2 -4.3 -8.25 -5.3 -6.1 -7.3 -6.7 -7.25 -7.7 -7.3 Q-7.45 -7.7 -7.45 -8.2 -7.45 -9.15 -8.55 -9.15 L-9.65 -9.1 -9.75 -9.5 Q-9.75 -11.95 -6.75 -11.95 L-5.1 -11.85 -5.1 -12.1 Q-5.1 -13.65 -3.25 -13.65 -0.9 -13.65 -0.9 -12.45 -0.9 -11.95 -1.6 -11.45 -2.2 -10.95 -3.05 -10.85 L-3.0 -10.75 -1.1 -10.95 Q1.5 -10.95 1.55 -9.2 1.95 -10.0 3.5 -10.2 L4.3 -10.25 4.5 -10.25" fill="#fc9e12" fill-rule="evenodd" stroke="none"/>
    <path d="M15.0 -4.8 Q16.5 -4.35 16.5 -2.85 16.5 -0.75 13.5 -0.75 L13.35 -0.75 Q10.6 -0.8 10.05 -1.95 12.6 -2.3 12.6 -4.5 L12.6 -4.85 13.65 -4.9 15.0 -4.8 M13.55 0.4 L13.6 0.4 Q16.0 0.4 16.0 2.0 16.0 3.5 14.1 3.5 L13.45 3.45 Q11.55 3.25 11.55 1.75 11.55 0.45 13.55 0.4 M-11.65 -2.4 L-12.8 -2.35 Q-14.6 -2.35 -14.5 -3.95 -14.5 -5.55 -10.55 -5.55 L-9.8 -5.45 Q-9.2 -5.25 -9.2 -4.55 L-9.2 -4.3 -10.25 -3.0 Q-10.9 -2.6 -11.65 -2.4 M-8.95 -6.55 L-10.2 -6.45 Q-12.35 -6.45 -12.35 -7.65 -12.35 -8.5 -11.15 -8.85 L-9.65 -9.1 -8.55 -9.15 Q-7.45 -9.15 -7.45 -8.2 -7.45 -7.7 -7.7 -7.3 -8.05 -6.8 -8.95 -6.55" fill="#fc5812" fill-rule="evenodd" stroke="none"/>
  </g>
</svg>
