<?xml version="1.0" encoding="UTF-8" standalone="no"?>
<svg xmlns:xlink="http://www.w3.org/1999/xlink" height="97.85px" width="94.55px" xmlns="http://www.w3.org/2000/svg">
  <g transform="matrix(1.0, 0.0, 0.0, 1.0, 45.6, 55.95)">
    <path d="M24.05 -45.65 Q25.6 -46.65 28.2 -47.05 L28.2 -47.15 Q38.95 -47.6 38.95 -42.85 38.95 -41.3 35.85 -39.8 32.25 -38.0 27.25 -38.0 L24.5 -38.4 Q26.0 -39.8 26.0 -42.4 26.0 -44.55 24.05 -45.65 M31.7 -33.1 Q29.75 -33.95 26.85 -33.95 20.25 -33.95 20.25 -28.95 20.25 -27.6 20.85 -26.6 L23.9 -24.2 29.2 -19.2 30.85 -17.6 29.3 -17.6 Q20.75 -17.6 18.8 -14.65 10.15 -21.3 -4.05 -21.3 -13.1 -21.3 -23.6 -15.65 -26.55 -12.85 -28.75 -8.95 -35.7 2.55 -35.7 16.6 -35.7 26.35 -18.95 41.65 L-18.95 41.9 Q-28.5 37.75 -35.85 25.95 -42.65 15.1 -42.65 6.75 L-42.4 0.25 Q-42.4 -4.65 -36.0 -13.55 L-34.85 -14.05 -33.1 -15.2 -32.65 -14.65 Q-28.35 -19.9 -23.95 -22.15 -12.6 -28.35 -5.55 -28.35 L-1.85 -28.85 7.65 -27.25 Q10.15 -27.25 10.15 -29.35 10.15 -30.2 6.8 -31.6 2.9 -33.25 -1.0 -33.25 -9.7 -32.0 -16.15 -30.05 -9.3 -32.85 -0.65 -33.4 L0.85 -33.55 Q7.1 -33.55 13.05 -30.9 13.3 -35.35 24.3 -35.35 30.4 -35.35 31.7 -33.1 M33.2 -22.0 L32.7 -23.95 Q32.7 -27.25 41.85 -27.25 47.5 -27.25 48.95 -23.0 48.95 -21.6 45.9 -21.6 44.8 -20.2 39.3 -20.2 34.65 -20.2 33.2 -22.0 M40.05 -3.65 L40.9 -0.15 40.05 -0.35 Q35.15 -0.35 35.15 3.55 35.15 8.15 39.9 8.15 L40.75 8.15 Q40.75 15.1 38.65 16.95 L37.0 22.9 Q31.85 39.15 25.15 39.45 L24.3 38.45 Q31.4 30.65 32.7 22.6 L33.8 14.65 33.1 11.2 Q31.85 2.45 28.05 -2.55 L25.45 -7.55 28.35 -7.25 32.55 -7.7 Q32.95 -3.65 39.75 -3.65 L40.05 -3.65 M-40.2 -26.5 Q-40.85 -27.85 -40.55 -29.95 -40.55 -37.0 -30.8 -37.0 -22.25 -37.0 -20.15 -34.2 -22.0 -35.05 -24.7 -35.05 -34.45 -35.05 -34.45 -30.05 -34.45 -29.1 -34.05 -28.25 L-39.45 -27.7 Q-40.05 -27.6 -40.2 -26.5 M-18.2 -37.3 L-22.75 -36.5 Q-24.7 -36.5 -25.3 -37.75 L-25.45 -39.1 Q-25.45 -41.45 -20.15 -45.8 -13.9 -50.95 -7.25 -50.95 -3.9 -50.95 -0.85 -43.0 -0.85 -41.75 -2.2 -40.8 L-2.95 -41.2 -4.55 -43.15 Q-7.25 -45.2 -10.85 -45.2 -14.45 -45.2 -17.0 -43.15 -19.05 -41.3 -19.05 -39.7 -19.3 -38.1 -18.2 -37.3" fill="#e15a00" fill-rule="evenodd" stroke="none"/>
    <path d="M7.8 -53.6 Q7.8 -52.6 5.0 -51.3 2.4 -50.2 1.25 -50.2 -0.55 -50.2 -1.1 -51.45 L-1.4 -52.75 Q-1.4 -55.95 3.65 -55.95 7.8 -55.95 7.8 -53.6 M9.3 -41.45 Q4.15 -41.45 2.2 -43.95 1.25 -45.2 1.25 -46.75 1.25 -52.05 12.55 -52.05 19.05 -52.05 19.05 -49.35 L18.8 -46.9 17.2 -47.05 Q8.9 -47.05 8.9 -42.75 L9.3 -41.45 M-16.15 -30.05 Q-9.7 -32.0 -1.0 -33.25 2.9 -33.25 6.8 -31.6 10.15 -30.2 10.15 -29.35 10.15 -27.25 7.65 -27.25 L-1.85 -28.85 -5.55 -28.35 Q-12.6 -28.35 -23.95 -22.15 -28.35 -19.9 -32.65 -14.65 L-33.1 -15.2 Q-32.0 -16.15 -32.0 -17.0 -31.8 -18.45 -32.75 -18.95 -32.25 -20.75 -30.7 -22.45 -27.1 -23.25 -27.1 -26.05 -26.55 -28.25 -31.3 -28.25 L-34.05 -28.25 Q-34.45 -29.1 -34.45 -30.05 -34.45 -35.05 -24.7 -35.05 -22.0 -35.05 -20.15 -34.2 -17.25 -33.1 -17.1 -29.8 L-16.15 -30.05 M-18.2 -37.3 Q-19.3 -38.1 -19.05 -39.7 -19.05 -41.3 -17.0 -43.15 -14.45 -45.2 -10.85 -45.2 -7.25 -45.2 -4.55 -43.15 L-2.95 -41.2 Q-2.6 -40.9 -2.6 -40.55 -2.6 -38.95 -5.65 -37.6 -9.05 -36.05 -13.1 -36.05 -16.85 -36.05 -18.2 -37.3" fill="#fc9e12" fill-rule="evenodd" stroke="none"/>
    <path d="M-33.1 -15.2 L-34.85 -14.05 -36.0 -13.55 Q-38.6 -12.25 -41.3 -12.25 -45.6 -12.25 -45.6 -15.05 -45.6 -18.95 -38.75 -18.95 L-35.2 -19.55 Q-33.6 -19.55 -32.75 -18.95 -31.8 -18.45 -32.0 -17.0 -32.0 -16.15 -33.1 -15.2 M37.55 -11.85 L41.4 -12.1 Q46.75 -12.1 46.75 -9.05 46.75 -7.55 44.8 -5.75 42.7 -3.8 40.05 -3.65 L39.75 -3.65 Q32.95 -3.65 32.55 -7.7 37.0 -8.7 37.55 -11.85 M40.9 -0.15 Q45.45 0.1 45.45 4.85 45.45 7.9 40.75 8.15 L39.9 8.15 Q35.15 8.15 35.15 3.55 35.15 -0.35 40.05 -0.35 L40.9 -0.15 M-30.7 -22.45 L-34.2 -22.15 Q-40.3 -22.15 -40.3 -25.65 L-40.2 -26.5 Q-40.05 -27.6 -39.45 -27.7 L-34.05 -28.25 -31.3 -28.25 Q-26.55 -28.25 -27.1 -26.05 -27.1 -23.25 -30.7 -22.45" fill="#fc5812" fill-rule="evenodd" stroke="none"/>
    <path d="M24.5 -38.4 Q22.8 -37.15 19.6 -37.15 L12.65 -38.7 Q10.45 -38.7 9.5 -40.65 L9.3 -41.45 8.9 -42.75 Q8.9 -47.05 17.2 -47.05 L18.8 -46.9 Q22.2 -46.75 24.05 -45.65 26.0 -44.55 26.0 -42.4 26.0 -39.8 24.5 -38.4 M23.9 -24.2 L20.85 -26.6 Q20.25 -27.6 20.25 -28.95 20.25 -33.95 26.85 -33.95 29.75 -33.95 31.7 -33.1 34.3 -32.0 34.3 -29.1 34.3 -23.95 26.6 -23.95 L23.9 -24.2 M18.8 -14.65 Q20.75 -17.6 29.3 -17.6 L30.85 -17.6 Q38.2 -17.15 37.55 -12.85 L37.55 -11.85 Q37.0 -8.7 32.55 -7.7 L28.35 -7.25 25.45 -7.55 Q22.7 -7.95 20.6 -9.5 18.2 -11.3 18.2 -12.7 18.2 -13.8 18.8 -14.65" fill="#feb010" fill-rule="evenodd" stroke="none"/>
  </g>
</svg>
