<?xml version="1.0" encoding="UTF-8" standalone="no"?>
<svg xmlns:xlink="http://www.w3.org/1999/xlink" height="77.7px" width="88.85px" xmlns="http://www.w3.org/2000/svg">
  <g transform="matrix(1.0, 0.0, 0.0, 1.0, 44.05, 55.2)">
    <path d="M24.5 -47.15 Q26.0 -48.7 30.05 -48.7 36.85 -48.7 36.85 -44.8 36.85 -41.6 31.7 -41.6 L25.9 -42.15 26.15 -44.1 Q26.15 -46.45 24.5 -47.15 M30.2 -35.75 L29.65 -35.75 21.3 -35.2 Q19.6 -34.65 19.6 -32.3 17.8 -33.0 17.8 -34.35 17.8 -38.15 23.5 -38.15 29.5 -38.15 30.2 -35.75 M20.75 -29.1 Q21.55 -28.4 22.95 -28.0 29.5 -24.25 31.0 -21.7 L32.25 -19.9 Q30.2 -20.75 26.7 -20.75 24.35 -20.75 22.4 -19.65 12.55 -26.85 -1.35 -26.85 -12.05 -26.85 -22.75 -18.55 -30.15 -12.85 -32.65 -8.25 -38.35 1.05 -39.3 3.55 -40.55 6.9 -40.55 13.45 -40.55 15.25 -38.2 22.35 L-38.5 22.5 Q-42.8 13.85 -42.8 6.35 -42.8 -4.65 -35.55 -15.75 L-35.0 -16.45 Q-32.2 -17.4 -32.2 -20.05 L-32.2 -20.2 -30.95 -21.6 Q-30.85 -21.45 -30.7 -21.45 -28.6 -22.0 -21.95 -25.75 -15.7 -29.25 -12.2 -29.8 L-2.2 -32.45 6.15 -32.7 9.2 -33.1 Q15.05 -32.0 20.75 -29.1 M35.2 -15.75 L36.15 -14.5 36.7 -13.65 Q33.8 -13.25 33.8 -10.45 33.8 -7.25 37.95 -7.25 L39.1 -7.25 Q39.8 -5.05 40.35 -1.7 38.4 -1.7 37.7 -0.75 L36.7 -3.65 34.2 -6.55 30.45 -11.6 Q35.05 -12.15 35.2 -15.75 M41.15 3.15 L41.3 5.1 Q41.3 12.6 38.25 15.95 37.0 15.55 37.0 13.15 38.65 7.2 38.65 4.25 L38.55 2.6 41.15 3.15 M33.4 -27.7 Q33.4 -30.35 38.4 -30.35 43.65 -30.35 43.65 -27.15 43.65 -25.05 38.4 -25.05 33.4 -25.05 33.4 -27.7 M-18.2 -41.9 Q-22.2 -42.7 -22.2 -46.6 -22.2 -48.15 -19.15 -49.8 -15.7 -51.75 -10.95 -51.75 -1.8 -51.75 -3.45 -47.45 -3.45 -44.65 -4.55 -43.7 -4.85 -43.4 -5.25 -43.15 -5.0 -43.95 -5.0 -44.95 -5.0 -47.6 -9.0 -47.6 -18.3 -47.6 -18.3 -42.85 L-18.2 -41.9 M-27.5 -31.75 L-33.05 -31.05 Q-40.3 -31.05 -40.3 -34.1 -40.3 -38.95 -28.9 -38.95 -22.2 -38.95 -22.1 -36.45 -24.0 -37.15 -27.65 -37.15 -30.4 -37.15 -30.4 -34.5 -30.7 -32.15 -27.5 -31.75" fill="#e15a00" fill-rule="evenodd" stroke="none"/>
    <path d="M3.8 -53.4 Q0.7 -50.9 -0.95 -50.9 -2.2 -50.9 -2.6 -51.9 L-2.75 -52.85 Q-2.75 -55.2 0.7 -55.2 2.4 -55.2 3.8 -53.4 M7.65 -50.35 L7.55 -51.2 8.35 -51.2 7.65 -50.35 M-30.95 -21.6 L-31.25 -22.3 Q-31.25 -26.85 -18.2 -32.45 -5.65 -37.85 2.95 -37.85 11.3 -37.85 11.3 -35.5 11.3 -33.95 9.2 -33.1 L6.15 -32.7 -2.2 -32.45 -12.2 -29.8 Q-15.7 -29.25 -21.95 -25.75 -28.6 -22.0 -30.7 -21.45 -30.85 -21.45 -30.95 -21.6 M12.65 -42.7 Q9.6 -40.9 5.6 -40.9 0.85 -40.9 0.85 -44.5 0.85 -46.35 1.85 -47.45 3.65 -49.95 8.35 -49.1 L8.5 -49.1 Q15.3 -49.25 15.3 -46.05 15.3 -44.4 12.65 -42.7 M-18.2 -41.9 L-18.3 -42.85 Q-18.3 -47.6 -9.0 -47.6 -5.0 -47.6 -5.0 -44.95 -5.0 -43.95 -5.25 -43.15 -6.65 -39.8 -14.0 -39.8 -16.8 -39.8 -17.75 -41.2 L-18.2 -41.9 M-27.5 -31.75 Q-30.7 -32.15 -30.4 -34.5 -30.4 -37.15 -27.65 -37.15 -24.0 -37.15 -22.1 -36.45 -20.15 -35.9 -20.15 -34.65 -20.15 -31.75 -25.95 -31.75 L-27.5 -31.75" fill="#fc9e12" fill-rule="evenodd" stroke="none"/>
    <path d="M36.7 -13.65 L38.1 -13.8 Q43.1 -13.8 43.1 -9.9 43.1 -7.55 39.1 -7.25 L37.95 -7.25 Q33.8 -7.25 33.8 -10.45 33.8 -13.25 36.7 -13.65 M40.35 -1.7 Q44.8 -1.7 44.8 1.35 43.55 3.15 41.6 3.15 L41.15 3.15 38.55 2.6 Q37.3 2.05 37.3 0.65 37.3 -0.2 37.7 -0.75 38.4 -1.7 40.35 -1.7 M-35.0 -16.45 Q-36.8 -15.9 -39.45 -15.9 -44.05 -15.9 -44.05 -18.25 -44.05 -18.95 -40.7 -20.45 -37.35 -22.0 -35.7 -22.0 -32.35 -22.0 -32.2 -20.2 L-32.2 -20.05 Q-32.2 -17.4 -35.0 -16.45 M-37.35 -25.35 Q-40.55 -25.35 -40.55 -27.15 -40.55 -30.05 -34.15 -30.05 -29.15 -30.05 -29.15 -27.55 -29.15 -25.35 -37.35 -25.35" fill="#fc5812" fill-rule="evenodd" stroke="none"/>
    <path d="M25.9 -42.15 Q25.05 -39.8 21.55 -39.8 16.7 -39.8 16.7 -43.0 16.7 -47.45 22.7 -47.45 L24.5 -47.15 Q26.15 -46.45 26.15 -44.1 L25.9 -42.15 M30.2 -35.75 Q32.85 -35.5 32.95 -32.85 32.95 -27.7 25.45 -27.7 L22.95 -28.0 Q21.55 -28.4 20.75 -29.1 19.6 -30.35 19.6 -32.3 19.6 -34.65 21.3 -35.2 L29.65 -35.75 30.2 -35.75 M32.25 -19.9 Q35.2 -18.95 35.2 -16.15 L35.2 -15.75 Q35.05 -12.15 30.45 -11.6 L28.95 -11.6 Q19.2 -11.6 19.2 -16.0 19.2 -17.3 21.15 -18.8 21.7 -19.35 22.4 -19.65 24.35 -20.75 26.7 -20.75 30.2 -20.75 32.25 -19.9" fill="#feb010" fill-rule="evenodd" stroke="none"/>
  </g>
</svg>
