<?xml version="1.0" encoding="UTF-8" standalone="no"?>
<svg xmlns:xlink="http://www.w3.org/1999/xlink" height="56.05px" width="83.1px" xmlns="http://www.w3.org/2000/svg">
  <g transform="matrix(1.0, 0.0, 0.0, 1.0, 40.15, 55.1)">
    <path d="M30.9 -43.8 Q24.9 -43.8 24.9 -46.35 24.9 -48.85 31.15 -48.85 37.55 -48.85 36.6 -46.6 36.6 -43.8 30.9 -43.8 M26.7 -37.0 Q23.1 -36.6 22.95 -33.25 18.65 -33.4 18.65 -36.2 18.65 -37.55 21.3 -37.55 L26.7 -37.0 M31.7 -31.45 Q32.55 -32.3 32.55 -33.55 L32.55 -33.8 Q33.4 -34.35 34.75 -34.35 42.55 -34.35 42.55 -32.0 42.55 -29.25 36.7 -29.25 32.25 -29.25 31.7 -31.45 M-7.35 -34.65 L-11.25 -33.4 Q-22.1 -29.8 -22.1 -27.55 L-21.95 -26.6 -21.25 -26.45 -17.65 -27.3 Q-24.7 -24.35 -30.3 -18.8 -34.45 -14.9 -39.85 -5.05 -40.15 -5.3 -40.15 -6.0 -40.15 -13.65 -30.15 -23.4 -20.0 -33.25 -7.35 -34.65 M-12.9 -28.8 L-8.2 -30.75 -0.25 -32.45 Q5.05 -33.55 5.05 -34.95 14.9 -34.25 21.3 -30.05 25.45 -27.4 28.95 -23.25 L29.65 -22.7 26.7 -23.1 24.35 -22.95 Q14.05 -30.75 1.25 -30.75 -6.35 -30.75 -12.9 -28.8 M31.45 -21.15 Q36.15 -17.15 37.4 -15.45 L38.4 -13.25 Q36.7 -13.1 36.7 -11.3 36.7 -10.05 38.25 -10.05 L39.1 -10.05 39.1 -8.25 39.65 -5.2 39.35 -5.05 Q35.35 -12.0 30.9 -17.0 31.7 -17.95 31.7 -19.8 L31.45 -21.15 M-13.9 -46.45 Q-19.85 -46.9 -19.85 -49.4 -19.85 -52.6 -9.0 -52.6 -3.75 -52.6 -4.4 -50.2 -4.4 -47.15 -9.15 -46.6 -7.75 -47.15 -7.75 -48.55 -7.75 -50.35 -10.55 -50.35 -15.15 -50.35 -15.15 -48.4 L-14.85 -47.3 -13.9 -46.45 M-26.1 -39.4 L-26.4 -38.15 -26.4 -37.15 Q-26.1 -36.3 -24.85 -36.3 L-23.2 -36.45 Q-24.6 -34.5 -31.25 -34.5 -38.05 -34.5 -38.05 -37.7 -38.05 -39.65 -30.4 -39.65 L-26.1 -39.4" fill="#e15a00" fill-rule="evenodd" stroke="none"/>
    <path d="M-7.35 -34.65 Q-0.4 -36.85 2.55 -36.85 5.45 -36.85 5.05 -34.95 5.05 -33.55 -0.25 -32.45 L-8.2 -30.75 -12.9 -28.8 Q-15.4 -28.25 -17.65 -27.3 L-21.25 -26.45 -21.95 -26.6 -22.1 -27.55 Q-22.1 -29.8 -11.25 -33.4 L-7.35 -34.65 M5.45 -45.1 Q2.8 -45.1 2.8 -47.45 2.8 -50.75 7.55 -50.75 12.25 -50.75 12.25 -48.55 12.25 -45.1 5.45 -45.1 M-9.15 -46.6 L-11.95 -46.2 -13.9 -46.45 -14.85 -47.3 -15.15 -48.4 Q-15.15 -50.35 -10.55 -50.35 -7.75 -50.35 -7.75 -48.55 -7.75 -47.15 -9.15 -46.6 M-1.8 -55.1 Q0.15 -55.1 0.3 -53.0 0.3 -50.65 -1.65 -50.65 L-3.85 -53.0 Q-3.85 -55.1 -1.8 -55.1 M-23.2 -36.45 L-24.85 -36.3 Q-26.1 -36.3 -26.4 -37.15 L-26.4 -38.15 -26.1 -39.4 Q-25.4 -41.05 -22.65 -41.05 -21.65 -41.05 -20.4 -40.05 L-20.4 -39.65 Q-20.7 -39.4 -20.95 -39.95 -22.35 -39.4 -22.35 -37.55 -22.35 -36.85 -23.2 -36.45" fill="#fc9e12" fill-rule="evenodd" stroke="none"/>
    <path d="M38.4 -13.25 L38.95 -13.4 Q40.6 -13.4 40.6 -12.15 40.6 -10.45 39.1 -10.05 L38.25 -10.05 Q36.7 -10.05 36.7 -11.3 36.7 -13.1 38.4 -13.25 M42.95 -1.0 Q42.95 0.95 39.5 0.95 37.4 0.95 37.0 0.1 L37.0 -0.75 Q37.0 -2.55 40.6 -2.55 42.95 -2.55 42.95 -1.0 M-36.4 -30.5 Q-30.3 -30.5 -30.3 -28.8 -30.3 -26.85 -36.65 -26.85 -38.75 -26.85 -38.5 -28.65 -38.5 -30.5 -36.4 -30.5 M-39.85 -21.3 Q-39.85 -23.4 -36.8 -23.4 -33.05 -23.4 -33.05 -21.85 -33.05 -19.8 -38.2 -19.8 -39.75 -19.8 -39.85 -21.3" fill="#fc5812" fill-rule="evenodd" stroke="none"/>
    <path d="M24.05 -47.7 Q24.05 -44.1 20.85 -44.1 18.35 -44.1 18.35 -46.35 18.35 -49.4 22.1 -49.4 23.95 -49.4 24.05 -47.7 M26.7 -37.0 L27.55 -37.0 Q32.25 -37.0 32.55 -33.8 L32.55 -33.55 Q32.55 -32.3 31.7 -31.45 30.35 -30.35 27.15 -30.35 22.95 -30.35 22.95 -33.0 L22.95 -33.25 Q23.1 -36.6 26.7 -37.0 M29.65 -22.7 L31.45 -21.15 31.7 -19.8 Q31.7 -17.95 30.9 -17.0 29.9 -16.15 28.25 -16.15 19.2 -16.15 19.2 -20.45 19.2 -22.7 24.35 -22.95 L26.7 -23.1 29.65 -22.7" fill="#feb010" fill-rule="evenodd" stroke="none"/>
  </g>
</svg>
