<?xml version="1.0" encoding="UTF-8" standalone="no"?>
<svg xmlns:xlink="http://www.w3.org/1999/xlink" height="52.3px" width="80.9px" xmlns="http://www.w3.org/2000/svg">
  <g transform="matrix(1.0, 0.0, 0.0, 1.0, 39.15, 53.3)">
    <path d="M34.9 -45.5 Q34.9 -44.1 32.0 -44.1 26.45 -44.1 26.45 -46.9 26.45 -48.7 32.0 -48.7 32.85 -48.7 34.9 -45.5 M23.5 -36.6 Q23.5 -35.35 24.2 -34.65 L24.05 -34.65 Q23.1 -35.05 22.1 -35.5 L23.5 -36.6 M33.5 -32.7 Q34.1 -34.8 37.7 -34.8 41.15 -34.8 41.15 -33.8 41.15 -31.75 36.3 -31.75 35.45 -31.75 33.5 -32.7 M-14.45 -31.3 L-18.6 -29.9 Q-26.5 -24.9 -27.65 -24.9 L-28.6 -25.05 Q-16.4 -36.2 -2.6 -36.2 7.8 -36.2 14.5 -33.55 20.05 -31.3 20.05 -28.8 20.05 -27.55 18.65 -27.55 7.4 -34.1 -2.35 -34.1 L-2.9 -34.1 Q-3.15 -35.05 -5.95 -35.05 -9.3 -35.05 -12.05 -33.7 -14.45 -32.55 -14.45 -31.6 L-14.45 -31.3 M-12.6 -53.3 Q-5.1 -53.3 -5.1 -51.6 -5.1 -49.1 -10.4 -49.1 -16.8 -49.1 -16.8 -51.2 -16.8 -53.3 -12.6 -53.3 M-31.95 -39.95 Q-25.55 -39.95 -25.55 -38.0 -25.55 -36.75 -30.85 -36.75 -35.0 -36.75 -35.0 -38.7 -35.0 -39.95 -31.95 -39.95" fill="#e15a00" fill-rule="evenodd" stroke="none"/>
    <path d="M3.65 -46.35 L3.5 -47.15 Q3.5 -49.4 6.55 -49.4 9.9 -49.4 9.9 -47.7 9.9 -45.5 5.6 -45.5 4.05 -45.5 3.65 -46.35 M-2.9 -34.1 L-2.9 -33.8 Q-2.9 -32.85 -5.8 -32.85 -10.4 -32.7 -14.3 -31.2 L-14.45 -31.3 -14.45 -31.6 Q-14.45 -32.55 -12.05 -33.7 -9.3 -35.05 -5.95 -35.05 -3.15 -35.05 -2.9 -34.1" fill="#fc9e12" fill-rule="evenodd" stroke="none"/>
    <path d="M39.65 -4.2 Q42.0 -4.2 41.7 -2.7 41.7 -1.0 39.1 -1.0 L37.55 -2.7 Q37.55 -4.2 39.65 -4.2 M36.7 -11.7 Q36.7 -12.85 37.95 -12.85 40.05 -12.85 40.05 -11.45 40.05 -10.35 38.65 -10.35 36.7 -10.35 36.7 -11.7 M-35.4 -29.5 Q-35.4 -30.6 -33.35 -30.6 -32.8 -30.6 -31.8 -29.65 -32.2 -28.1 -34.05 -28.1 -35.4 -28.1 -35.4 -29.5 M-37.1 -24.25 Q-34.05 -24.25 -34.05 -22.7 -34.05 -21.15 -36.95 -21.15 -39.15 -21.15 -39.15 -22.7 -39.15 -24.25 -37.1 -24.25" fill="#fc5812" fill-rule="evenodd" stroke="none"/>
    <path d="M20.75 -44.4 Q18.5 -44.4 18.5 -47.15 18.5 -49.65 21.15 -49.65 22.8 -49.65 23.25 -47.3 23.25 -44.4 20.75 -44.4 M24.2 -34.65 Q23.5 -35.35 23.5 -36.6 23.5 -39.25 26.85 -39.25 28.8 -39.25 30.05 -36.3 30.05 -33.8 26.7 -33.8 24.9 -33.8 24.2 -34.65 M23.1 -22.15 Q23.1 -24.25 26.0 -24.25 31.7 -24.25 31.7 -21.05 31.7 -18.65 29.2 -18.65 23.1 -18.65 23.1 -22.15" fill="#feb010" fill-rule="evenodd" stroke="none"/>
  </g>
</svg>
