<?xml version="1.0" encoding="UTF-8" standalone="no"?>
<svg xmlns:xlink="http://www.w3.org/1999/xlink" height="50.9px" width="78.6px" xmlns="http://www.w3.org/2000/svg">
  <g transform="matrix(1.0, 0.0, 0.0, 1.0, 37.3, 53.0)">
    <path d="M32.4 -46.05 Q31.45 -44.25 30.05 -44.25 28.8 -44.25 28.8 -45.5 28.8 -47.15 30.75 -47.15 31.3 -47.15 32.4 -46.05 M38.4 -30.2 Q38.25 -29.9 37.55 -29.9 L36.45 -30.2 36.3 -31.2 Q36.3 -32.15 37.4 -32.15 38.55 -32.15 38.55 -31.05 L38.4 -30.2 M1.55 -35.6 Q1.55 -34.1 -5.55 -33.55 -13.6 -32.85 -14.85 -31.85 -15.25 -31.45 -15.25 -32.15 -15.25 -32.85 -9.55 -34.5 -3.6 -36.3 -0.1 -36.3 L1.4 -36.2 1.55 -35.6 M-8.75 -51.35 Q-8.75 -50.1 -10.1 -50.1 L-12.35 -51.9 Q-12.35 -53.0 -10.55 -53.0 -8.6 -53.0 -8.75 -51.35 M-29.7 -37.3 Q-32.65 -37.3 -32.65 -38.95 -32.65 -39.95 -30.55 -39.95 -28.05 -39.95 -28.05 -38.7 -28.05 -37.3 -29.7 -37.3" fill="#e15a00" fill-rule="evenodd" stroke="none"/>
    <path d="M9.05 -48.15 Q9.05 -46.6 7.1 -46.6 L5.3 -48.0 Q5.3 -49.25 7.25 -49.25 9.05 -49.25 9.05 -48.15" fill="#fc9e12" fill-rule="evenodd" stroke="none"/>
    <path d="M37.15 -12.25 Q37.15 -13.25 38.25 -13.25 39.35 -13.25 39.35 -12.15 39.35 -11.0 38.4 -11.0 L37.3 -11.3 37.15 -12.25 M39.2 -2.95 Q39.2 -4.2 40.2 -4.2 L41.3 -3.5 Q41.3 -2.1 40.05 -2.1 L39.5 -2.25 39.2 -2.95 M-34.75 -29.65 L-34.05 -30.05 -33.05 -29.65 -32.9 -29.25 -34.05 -28.65 Q-34.75 -28.95 -34.75 -29.65 M-37.25 -23.55 L-36.55 -23.65 Q-35.3 -23.65 -35.3 -22.15 -35.55 -21.45 -36.0 -21.45 -37.5 -21.45 -37.25 -23.55" fill="#fc5812" fill-rule="evenodd" stroke="none"/>
    <path d="M26.85 -33.95 L25.3 -36.2 26.85 -37.85 Q28.65 -37.85 28.5 -36.2 28.5 -33.95 26.85 -33.95 M28.1 -18.55 Q28.1 -17.15 26.55 -17.15 L25.2 -18.65 26.55 -20.45 Q27.8 -20.45 28.1 -18.55" fill="#feb010" fill-rule="evenodd" stroke="none"/>
  </g>
</svg>
