<?xml version="1.0" encoding="UTF-8" standalone="no"?>
<svg xmlns:xlink="http://www.w3.org/1999/xlink" height="26.0px" width="26.0px" xmlns="http://www.w3.org/2000/svg">
  <g transform="matrix(1.0, 0.0, 0.0, 1.0, 13.0, 13.0)">
    <path d="M6.75 -6.8 Q9.55 -4.0 9.55 -0.05 9.55 3.85 6.75 6.7 3.95 9.55 0.0 9.55 -4.0 9.55 -6.8 6.7 -9.55 3.85 -9.55 -0.05 -9.55 -4.0 -6.8 -6.8 -4.0 -9.6 0.0 -9.6 3.95 -9.6 6.75 -6.8" fill="#b6ed7e" fill-rule="evenodd" stroke="none"/>
    <path d="M10.4 -0.05 Q10.4 -4.35 7.35 -7.4 4.3 -10.45 0.0 -10.45 -4.35 -10.45 -7.4 -7.4 -10.4 -4.35 -10.4 -0.05 -10.4 4.2 -7.4 7.3 -4.35 10.4 0.0 10.4 4.3 10.4 7.35 7.3 10.4 4.2 10.4 -0.05 M8.85 -8.8 Q12.5 -5.15 12.5 0.0 12.5 2.7 11.55 4.95 L10.25 7.2 8.85 8.85 Q5.15 12.5 0.0 12.5 -5.15 12.5 -8.85 8.85 -12.5 5.2 -12.5 0.0 -12.5 -5.15 -8.85 -8.8 -5.15 -12.5 0.0 -12.5 5.15 -12.5 8.85 -8.8" fill="#589b15" fill-rule="evenodd" stroke="none"/>
    <path d="M6.75 -6.8 Q3.95 -9.6 0.0 -9.6 -4.0 -9.6 -6.8 -6.8 -9.55 -4.0 -9.55 -0.05 -9.55 3.85 -6.8 6.7 -4.0 9.55 0.0 9.55 3.95 9.55 6.75 6.7 9.55 3.85 9.55 -0.05 9.55 -4.0 6.75 -6.8 M10.4 -0.05 Q10.4 4.2 7.35 7.3 4.3 10.4 0.0 10.4 -4.35 10.4 -7.4 7.3 -10.4 4.2 -10.4 -0.05 -10.4 -4.35 -7.4 -7.4 -4.35 -10.45 0.0 -10.45 4.3 -10.45 7.35 -7.4 10.4 -4.35 10.4 -0.05" fill="#c6f19a" fill-rule="evenodd" stroke="none"/>
    <path d="M8.85 -8.8 Q12.5 -5.15 12.5 0.0 12.5 2.7 11.55 4.95 L10.25 7.2 8.85 8.85 Q5.15 12.5 0.0 12.5 -5.15 12.5 -8.85 8.85 -12.5 5.2 -12.5 0.0 -12.5 -5.15 -8.85 -8.8 -5.15 -12.5 0.0 -12.5 5.15 -12.5 8.85 -8.8 Z" fill="none" stroke="#000000" stroke-linecap="round" stroke-linejoin="round" stroke-width="1.0"/>
    <path d="M0.6 -0.2 L1.0 -0.2 2.05 -0.6 3.2 -1.65 3.7 -1.75 3.8 -1.75 3.85 -1.75 Q5.25 -1.3 5.7 -0.55 L5.85 0.2 5.75 0.85 5.8 0.85 5.9 0.85 5.8 1.05 4.5 2.25 4.2 2.4 3.0 2.45 2.8 2.4 2.65 2.3 2.55 2.3 2.1 2.2 Q1.5 1.85 1.1 1.3 L0.65 0.0 0.6 -0.2 M-6.2 -0.5 L-5.95 -0.6 Q-5.05 -0.9 -4.1 -0.3 -3.0 0.35 -2.15 -0.1 L-1.9 -0.3 -1.7 0.55 Q-1.7 1.8 -2.8 2.45 L-4.9 2.55 -5.05 2.5 -6.15 1.4 Q-6.55 0.75 -6.45 0.3 L-6.55 0.35 -6.35 -0.2 -6.2 -0.35 -6.2 -0.5 M-2.8 0.9 Q-3.1 0.3 -3.55 0.55 -4.15 0.9 -3.75 1.55 -3.5 2.05 -3.0 1.8 -2.45 1.4 -2.8 0.9 M-1.65 6.6 L-1.7 6.1 -1.75 5.45 -1.55 5.45 -1.5 5.4 -1.25 5.35 -1.2 5.35 -1.25 5.2 -1.55 5.2 -2.1 5.05 -2.05 3.95 Q-1.1 3.55 -0.4 3.45 L0.7 3.35 1.65 3.35 Q4.3 3.15 5.05 4.3 L4.6 4.8 4.05 4.95 3.75 4.7 Q3.3 4.6 3.2 4.95 L3.1 4.95 2.75 4.95 2.75 5.0 3.25 5.05 3.75 4.95 3.95 5.0 3.85 5.0 4.15 5.1 4.75 5.0 5.15 4.65 5.15 5.05 4.7 5.75 3.8 6.5 -0.1 7.15 Q-0.9 7.15 -1.5 6.75 L-1.65 6.65 -1.6 6.6 -1.65 6.6 M-0.75 5.1 L-0.85 5.2 0.7 5.3 0.75 5.1 -0.15 5.3 -0.75 5.1 M2.45 0.95 Q2.1 0.45 1.65 0.75 1.15 0.95 1.5 1.5 1.75 2.0 2.25 1.7 2.7 1.45 2.45 0.95" fill="#ffffff" fill-rule="evenodd" stroke="none"/>
    <path d="M-2.25 2.3 Q-2.15 2.7 -2.9 3.1 -4.0 3.75 -4.35 3.35 L-4.35 3.3 Q-3.75 3.45 -3.0 2.95 L-2.7 2.6 -2.4 2.3 -2.25 2.3 M5.05 5.85 L4.35 6.4 3.95 6.65 3.6 6.9 3.55 6.95 3.5 6.95 3.45 7.0 -0.15 7.4 -1.35 7.15 -2.25 6.55 -2.15 6.45 -1.9 6.55 -2.0 5.95 -2.05 5.45 -2.3 5.35 Q-2.45 5.1 -2.2 4.0 L-3.7 4.65 -3.7 4.6 -3.6 4.55 -2.3 3.9 -1.9 3.55 0.15 3.15 0.45 3.15 2.05 3.1 2.55 3.15 Q4.55 3.35 5.1 3.95 L5.2 4.1 5.3 4.3 5.4 4.95 5.0 5.75 5.05 5.85 M1.85 2.4 L2.25 2.7 2.3 2.7 2.45 2.75 2.55 2.8 2.45 2.85 2.05 2.8 1.75 2.45 1.65 2.45 1.6 2.4 1.55 2.25 1.6 2.2 1.7 2.3 1.85 2.4 M-2.8 0.9 Q-2.45 1.4 -3.0 1.8 -3.5 2.05 -3.75 1.55 -4.15 0.9 -3.55 0.55 -3.1 0.3 -2.8 0.9 M-1.65 6.65 L-1.5 6.75 Q-0.9 7.15 -0.1 7.15 L3.8 6.5 4.7 5.75 5.15 5.05 5.15 4.65 4.75 5.0 4.15 5.1 3.85 5.0 3.95 5.0 3.75 4.95 3.25 5.05 2.75 5.0 2.75 4.95 3.1 4.95 3.2 4.95 Q3.3 4.6 3.75 4.7 L4.05 4.95 4.6 4.8 5.05 4.3 Q4.3 3.15 1.65 3.35 L0.7 3.35 -0.4 3.45 Q-1.1 3.55 -2.05 3.95 L-2.1 5.05 -1.55 5.2 -1.25 5.2 -1.2 5.35 -1.25 5.35 -1.5 5.4 -1.55 5.45 -1.75 5.45 -1.7 6.1 -1.65 6.6 -1.65 6.65 M-0.75 5.1 L-0.15 5.3 0.75 5.1 0.7 5.3 -0.85 5.2 -0.75 5.1 M2.45 0.95 Q2.7 1.45 2.25 1.7 1.75 2.0 1.5 1.5 1.15 0.95 1.65 0.75 2.1 0.45 2.45 0.95" fill="#000000" fill-rule="evenodd" stroke="none"/>
    <path d="M0.9 -8.85 L1.35 -8.8 1.15 -7.3 2.0 -7.1 Q5.05 -6.35 6.7 -3.6 8.3 -0.75 7.4 2.35 6.6 5.45 3.85 7.05 1.05 8.65 -2.05 7.75 -5.15 7.0 -6.75 4.2 -8.35 1.4 -7.5 -1.7 -6.7 -4.75 -3.95 -6.35 -2.6 -7.1 -1.25 -7.35 L-0.95 -8.85 -0.5 -8.85 0.6 -8.85 Q0.7 -8.7 0.85 -8.7 L0.9 -8.85 M-0.15 -7.55 L0.15 -7.7 Q0.5 -7.9 0.1 -8.55 L0.05 -8.55 0.0 -8.7 -0.35 -8.7 -0.45 -8.7 Q-0.85 -8.45 -0.65 -7.8 L-0.55 -7.7 -0.55 -7.65 Q-0.55 -7.4 -0.15 -7.55 M-5.9 -0.7 Q-5.0 -3.6 -2.9 -4.7 -1.0 -5.8 0.15 -5.8 L1.5 -5.85 1.6 -5.95 2.45 -5.9 3.2 -5.8 3.65 -5.7 3.6 -5.75 3.2 -5.95 Q3.05 -6.2 2.65 -6.25 L2.05 -6.45 1.6 -6.5 -0.45 -6.75 Q-2.45 -6.55 -3.7 -5.8 -5.8 -4.7 -6.65 -2.8 L-7.6 -0.1 Q-8.1 1.25 -6.6 3.75 L-5.3 5.45 -3.7 6.95 -0.9 7.75 -0.5 7.7 0.2 7.8 0.35 7.75 0.7 7.75 1.75 7.65 1.9 7.6 Q2.45 7.7 3.2 7.25 L3.7 6.95 3.6 6.9 3.95 6.65 4.35 6.4 5.05 5.85 5.15 5.85 5.65 4.95 5.55 4.2 Q6.45 3.65 6.75 2.3 L6.75 2.05 6.85 0.55 Q6.8 -1.65 6.45 -2.25 6.05 -2.95 4.9 -3.35 3.25 -3.95 1.5 -2.9 0.6 -2.4 0.15 -1.7 L-0.05 -1.7 Q-0.55 -1.45 -0.15 -0.75 -0.55 0.55 -0.05 2.45 L0.15 2.85 Q-0.9 2.9 -1.6 3.25 L-3.7 4.3 -4.05 4.4 -4.3 4.2 -4.3 4.1 -4.65 3.45 -4.45 3.45 -4.35 3.35 Q-4.0 3.75 -2.9 3.1 -2.15 2.7 -2.25 2.3 -1.7 1.8 -1.65 0.9 -1.45 0.0 -1.7 -0.5 L-1.75 -0.55 -1.7 -0.6 -1.65 -0.9 -1.65 -1.0 -1.7 -1.35 -2.05 -1.45 -2.05 -1.05 Q-2.15 -0.6 -2.45 -0.4 L-3.8 -0.5 -3.85 -0.4 -3.75 -0.3 -4.1 -0.5 Q-5.15 -1.15 -5.8 -0.8 L-5.9 -0.7 M-2.15 6.45 L-2.7 6.15 -3.35 5.75 -3.35 5.65 -3.7 5.35 -3.85 4.65 -3.75 4.65 -3.7 4.65 -2.2 4.0 Q-2.45 5.1 -2.3 5.35 L-2.05 5.45 -2.0 5.95 -1.9 6.55 -2.15 6.45 M-1.9 3.55 Q-1.25 3.15 0.35 3.1 L0.45 3.1 0.45 3.15 0.15 3.15 -1.9 3.55 M5.35 4.3 L5.4 4.95 5.3 4.3 5.35 4.3 M-5.8 2.2 L-5.3 2.6 -5.6 2.45 -5.7 2.4 -5.75 2.45 -5.8 2.2 M-3.55 2.95 L-2.7 2.6 -3.0 2.95 Q-3.75 3.45 -4.35 3.3 L-4.45 3.15 -4.75 3.0 -3.6 3.05 -3.55 2.95 M-0.05 -1.0 L-0.1 -1.15 -0.05 -1.05 -0.05 -1.0 M-5.3 2.85 L-5.3 2.8 -5.05 2.95 -5.3 2.85 M1.65 7.5 L1.6 7.5 1.65 7.45 1.65 7.5 M1.15 -7.3 L-1.25 -7.35 1.15 -7.3" fill="#414347" fill-rule="evenodd" stroke="none"/>
    <path d="M-0.5 -8.85 L-0.35 -9.7 1.45 -11.45 1.75 -10.95 Q2.2 -10.15 0.9 -8.85 L0.85 -8.7 Q0.7 -8.7 0.6 -8.85 L0.65 -9.1 Q0.15 -9.25 -0.05 -9.7 L-0.15 -9.6 -0.5 -8.85 M1.1 -10.65 L0.85 -10.4 1.25 -9.95 1.2 -9.9 1.2 -9.75 0.9 -10.05 0.7 -10.3 0.05 -9.75 0.7 -9.15 0.95 -9.55 1.2 -9.75 1.25 -9.85 1.75 -10.55 1.4 -11.1 1.2 -10.75 1.1 -10.7 1.1 -10.65" fill="#4d443c" fill-rule="evenodd" stroke="none"/>
    <path d="M0.05 -8.55 L0.1 -8.1 -0.05 -7.65 -0.15 -7.55 Q-0.55 -7.4 -0.55 -7.65 L-0.55 -7.7 -0.55 -8.15 -0.35 -8.7 0.0 -8.7 0.05 -8.55 M3.6 6.9 L3.7 6.95 3.2 7.25 Q2.45 7.7 1.9 7.6 L1.75 7.65 0.7 7.75 0.35 7.75 0.2 7.8 -0.5 7.7 -0.9 7.75 -3.7 6.95 -5.3 5.45 -6.6 3.75 Q-8.1 1.25 -7.6 -0.1 L-6.65 -2.8 Q-5.8 -4.7 -3.7 -5.8 -2.45 -6.55 -0.45 -6.75 L1.6 -6.5 2.05 -6.45 2.65 -6.25 Q3.05 -6.2 3.2 -5.95 L3.6 -5.75 3.65 -5.7 3.2 -5.8 2.45 -5.9 1.6 -5.95 1.5 -5.85 0.15 -5.8 Q-1.0 -5.8 -2.9 -4.7 -5.0 -3.6 -5.9 -0.7 L-6.25 -0.5 -6.45 -0.25 Q-7.15 0.2 -6.25 1.8 L-5.8 2.2 -5.75 2.45 -5.7 2.4 -5.6 2.45 -5.3 2.6 -3.55 2.95 -3.6 3.05 -4.75 3.0 -4.45 3.15 -4.35 3.3 -4.35 3.35 -4.45 3.45 -4.65 3.45 -4.3 4.1 -4.3 4.2 -4.05 4.4 -3.7 4.3 -1.6 3.25 Q-0.9 2.9 0.15 2.85 L0.3 2.85 1.45 2.8 2.05 2.8 2.45 2.85 2.7 2.85 2.5 2.75 2.55 2.7 2.5 2.6 2.9 2.75 3.5 2.8 4.1 2.75 5.05 2.25 5.0 2.2 5.05 2.2 5.4 1.8 5.65 1.55 5.7 1.55 5.75 1.6 5.25 2.2 5.3 2.3 5.15 2.45 Q4.15 2.95 3.25 2.95 L4.25 3.3 Q5.2 3.55 5.55 4.1 L5.55 4.2 5.65 4.95 5.15 5.85 5.05 5.85 5.0 5.75 5.4 4.95 5.35 4.3 5.3 4.2 5.1 3.95 Q4.55 3.35 2.55 3.15 L2.5 3.1 Q1.75 2.95 0.45 3.1 L0.35 3.1 Q-1.25 3.15 -1.9 3.55 L-2.3 3.9 -3.6 4.55 -3.7 4.6 -3.7 4.65 -3.75 4.65 -3.85 4.65 -3.7 5.35 -3.35 5.65 -3.35 5.75 -2.7 6.15 -2.15 6.45 -2.25 6.55 -1.35 7.15 -0.15 7.4 3.45 7.0 3.5 6.95 3.55 6.95 3.6 6.9 M-3.75 -0.3 L-3.85 -0.4 -3.8 -0.5 -2.45 -0.4 Q-2.15 -0.6 -2.05 -1.05 L-2.05 -1.45 -1.7 -1.35 -1.65 -1.0 -1.65 -0.9 Q-1.7 -0.55 -2.3 -0.2 L-3.75 -0.25 -3.75 -0.3 M-1.65 6.6 L-1.6 6.6 -1.65 6.65 -1.65 6.6 M-5.3 2.85 L-5.05 2.95 -5.3 2.8 -5.3 2.85 M1.65 7.5 L1.65 7.45 1.6 7.5 1.65 7.5" fill="#515359" fill-rule="evenodd" stroke="none"/>
    <path d="M0.05 -8.55 L0.1 -8.55 Q0.5 -7.9 0.15 -7.7 L-0.15 -7.55 -0.05 -7.65 0.1 -8.1 0.05 -8.55 M-0.55 -7.7 L-0.65 -7.8 Q-0.85 -8.45 -0.45 -8.7 L-0.35 -8.7 -0.55 -8.15 -0.55 -7.7" fill="#484a4f" fill-rule="evenodd" stroke="none"/>
    <path d="M-5.9 -0.7 L-5.8 -0.8 Q-5.15 -1.15 -4.1 -0.5 L-3.75 -0.3 -3.75 -0.25 -2.3 -0.2 Q-1.7 -0.55 -1.65 -0.9 L-1.7 -0.6 -1.75 -0.55 -1.7 -0.5 Q-1.45 0.0 -1.65 0.9 -1.7 1.8 -2.25 2.3 L-2.4 2.3 -2.7 2.6 -3.55 2.95 -5.3 2.6 -5.8 2.2 -6.25 1.8 Q-7.15 0.2 -6.45 -0.25 L-6.25 -0.5 -5.9 -0.7 M-0.15 -0.75 Q-0.55 -1.45 -0.05 -1.7 L0.15 -1.7 0.3 -1.15 0.5 -0.65 1.75 -0.85 Q1.9 -0.7 1.65 -0.6 1.75 -0.6 1.9 -0.7 L3.2 -1.75 4.3 -1.9 5.0 -1.7 5.85 -0.7 Q6.6 0.55 5.7 1.55 L5.65 1.55 5.4 1.8 5.0 2.2 4.6 2.45 Q4.0 2.8 2.9 2.75 L2.5 2.6 2.55 2.7 2.3 2.7 2.25 2.7 1.85 2.4 2.05 2.4 2.5 2.45 2.55 2.45 3.05 2.55 4.25 2.45 4.3 2.45 4.25 2.4 4.2 2.4 4.5 2.25 5.8 1.05 5.75 1.25 5.85 1.15 5.95 0.8 5.95 0.75 Q6.3 0.2 5.8 -0.7 5.15 -1.75 3.75 -1.85 L3.7 -1.75 3.2 -1.65 2.05 -0.6 1.0 -0.2 0.6 -0.2 0.55 -0.2 0.5 -0.2 0.5 -0.1 0.7 0.9 0.9 1.25 0.9 1.3 0.95 1.3 1.05 1.55 1.6 2.2 1.55 2.25 1.6 2.4 1.65 2.45 Q1.25 2.2 0.9 1.55 0.35 0.55 0.4 -0.25 L-0.15 -0.7 -0.15 -0.75 M0.05 -0.75 L-0.05 -1.0 -0.05 -0.85 0.15 -0.55 0.05 -0.75 M-6.2 -0.5 L-6.25 -0.5 -6.3 -0.35 -6.3 -0.3 -6.35 -0.2 -6.55 0.35 -6.6 0.55 -6.25 1.5 -5.1 2.55 -5.05 2.5 -4.9 2.55 -2.8 2.45 Q-1.7 1.8 -1.7 0.55 L-1.9 -0.3 -2.15 -0.1 Q-3.0 0.35 -4.1 -0.3 -5.05 -0.9 -5.95 -0.6 L-6.2 -0.5 M-0.05 -1.0 L-0.05 -1.05 -0.1 -1.15 -0.05 -1.0" fill="#020202" fill-rule="evenodd" stroke="none"/>
    <path d="M1.6 2.2 L1.05 1.55 0.95 1.3 0.9 1.3 0.9 1.25 0.7 0.9 0.5 -0.1 0.5 -0.2 0.55 -0.2 0.6 -0.2 0.65 0.0 1.1 1.3 Q1.5 1.85 2.1 2.2 L2.55 2.3 2.65 2.3 2.8 2.4 3.0 2.45 4.2 2.4 4.25 2.4 4.3 2.45 4.25 2.45 3.05 2.55 2.55 2.45 2.5 2.45 2.05 2.4 1.85 2.4 1.7 2.3 1.6 2.2 M3.7 -1.75 L3.75 -1.85 Q5.15 -1.75 5.8 -0.7 6.3 0.2 5.95 0.75 L5.95 0.8 5.85 1.15 5.75 1.25 5.8 1.05 5.9 0.85 5.8 0.85 5.75 0.85 5.85 0.2 5.7 -0.55 Q5.25 -1.3 3.85 -1.75 L3.8 -1.75 3.7 -1.75 M-6.25 -0.5 L-6.2 -0.5 -6.2 -0.35 -6.35 -0.2 -6.3 -0.3 -6.3 -0.35 -6.25 -0.5 M-5.05 2.5 L-5.1 2.55 -6.25 1.5 -6.6 0.55 -6.55 0.35 -6.45 0.3 Q-6.55 0.75 -6.15 1.4 L-5.05 2.5" fill="#580101" fill-rule="evenodd" stroke="none"/>
    <path d="M-0.5 -8.85 L-0.15 -9.6 -0.05 -9.7 Q0.15 -9.25 0.65 -9.1 L0.6 -8.85 -0.5 -8.85 M1.1 -10.65 L0.9 -10.4 1.05 -10.45 1.2 -10.75 1.4 -11.1 1.75 -10.55 1.25 -9.85 1.2 -9.9 1.25 -9.95 0.85 -10.4 1.1 -10.65 M0.45 -9.9 L0.2 -9.65 0.45 -9.7 0.55 -9.95 0.45 -9.9 M1.2 -9.75 L0.95 -9.55 0.7 -9.15 0.05 -9.75 0.7 -10.3 0.9 -10.05 1.2 -9.75 M0.0 -9.15 L0.0 -9.55 -0.05 -9.55 -0.15 -9.1 0.0 -9.15" fill="#7a6b5f" fill-rule="evenodd" stroke="none"/>
    <path d="M1.2 -10.75 L1.05 -10.45 0.9 -10.4 1.1 -10.65 1.1 -10.7 1.2 -10.75 M0.45 -9.9 L0.55 -9.95 0.45 -9.7 0.2 -9.65 0.45 -9.9 M0.0 -9.15 L-0.15 -9.1 -0.05 -9.55 0.0 -9.55 0.0 -9.15" fill="#a89a8e" fill-rule="evenodd" stroke="none"/>
    <path d="M0.15 2.85 L-0.05 2.45 Q-0.55 0.55 -0.15 -0.75 L-0.15 -0.7 0.4 -0.25 Q0.35 0.55 0.9 1.55 1.25 2.2 1.65 2.45 L1.75 2.45 2.05 2.8 1.45 2.8 0.3 2.85 0.15 2.85 M0.15 -1.7 Q0.6 -2.4 1.5 -2.9 3.25 -3.95 4.9 -3.35 6.05 -2.95 6.45 -2.25 6.8 -1.65 6.85 0.55 L6.75 2.05 6.75 2.3 Q6.45 3.65 5.55 4.2 L5.55 4.1 Q5.2 3.55 4.25 3.3 L3.25 2.95 Q4.15 2.95 5.15 2.45 L5.3 2.3 5.25 2.2 5.75 1.6 5.7 1.55 Q6.6 0.55 5.85 -0.7 L5.0 -1.7 4.3 -1.9 3.2 -1.75 1.9 -0.7 Q1.75 -0.6 1.65 -0.6 1.9 -0.7 1.75 -0.85 L0.5 -0.65 0.3 -1.15 0.15 -1.7 M0.45 3.1 Q1.75 2.95 2.5 3.1 L2.55 3.15 2.05 3.1 0.45 3.15 0.45 3.1 M5.1 3.95 L5.3 4.2 5.35 4.3 5.3 4.3 5.2 4.1 5.1 3.95 M0.05 -0.75 L0.15 -0.55 -0.05 -0.85 -0.05 -1.0 0.05 -0.75 M2.3 2.7 L2.55 2.7 2.5 2.75 2.7 2.85 2.45 2.85 2.55 2.8 2.45 2.75 2.3 2.7 M2.9 2.75 Q4.0 2.8 4.6 2.45 L5.0 2.2 5.4 1.8 5.05 2.2 5.0 2.2 5.05 2.25 4.1 2.75 3.5 2.8 2.9 2.75" fill="#3d3f43" fill-rule="evenodd" stroke="none"/>
    <path d="M0.9 -8.85 L1.35 -8.8 1.15 -7.3 2.0 -7.1 Q5.05 -6.35 6.7 -3.6 8.3 -0.75 7.4 2.35 6.6 5.45 3.85 7.05 1.05 8.65 -2.05 7.75 -5.15 7.0 -6.75 4.2 -8.35 1.4 -7.5 -1.7 -6.7 -4.75 -3.95 -6.35 -2.6 -7.1 -1.25 -7.35 L-0.95 -8.85 -0.5 -8.85 0.6 -8.85 M-1.25 -7.35 L1.15 -7.3" fill="none" stroke="#151517" stroke-linecap="round" stroke-linejoin="round" stroke-width="0.5"/>
  </g>
</svg>
