<?xml version="1.0" encoding="UTF-8" standalone="no"?>
<svg xmlns:xlink="http://www.w3.org/1999/xlink" height="20.0px" width="103.6px" xmlns="http://www.w3.org/2000/svg">
  <g transform="matrix(1.0, 0.0, 0.0, 1.0, 43.55, 15.05)">
    <path d="M37.8 -14.95 Q40.4 -15.65 47.4 -12.3 51.45 -10.35 53.4 -7.8 58.95 -0.3 59.7 2.5 60.15 4.45 60.05 4.95 58.3 2.05 56.3 0.5 52.45 -2.6 45.1 -0.6 43.15 -0.1 41.3 1.6 L39.4 3.15 Q38.55 2.05 36.9 1.15 33.6 -0.75 27.85 0.8 20.0 2.9 19.5 3.45 19.15 3.0 18.55 2.7 21.15 -0.35 28.2 -6.15 36.55 -14.6 37.8 -14.95 M20.25 1.9 Q38.85 -4.25 39.15 1.85 L44.85 -1.65 Q49.95 -3.05 54.0 -1.5 56.05 -0.7 57.7 0.65 54.55 -5.3 51.65 -8.05 L46.35 -11.85 Q42.6 -14.25 36.85 -13.95 25.85 -3.15 20.25 1.7 L20.15 1.95 20.25 1.9 M-43.55 -5.25 Q-43.75 -5.9 -41.6 -7.55 -39.05 -9.7 -35.6 -10.6 -27.85 -12.7 -23.7 -11.45 -21.85 -11.0 -21.3 -8.95 L-19.5 -3.2 -18.55 -0.35 Q-18.3 0.6 -16.9 2.0 -16.8 2.35 -17.45 3.5 -22.55 -2.2 -28.2 -0.7 -29.55 -0.35 -29.7 0.7 -32.55 -2.3 -34.3 -3.35 -36.95 -4.95 -40.55 -5.0 L-43.55 -5.25 M-21.75 -7.3 Q-22.5 -10.1 -23.55 -10.45 -27.05 -11.9 -36.1 -9.45 -40.0 -8.4 -41.9 -6.1 -31.15 -3.7 -30.05 -0.9 L-28.1 -1.75 Q-24.55 -2.7 -19.35 0.0 L-19.4 -0.7 -21.75 -7.3" fill="#000000" fill-rule="evenodd" stroke="none"/>
    <path d="M20.25 1.7 Q25.85 -3.15 36.85 -13.95 42.6 -14.25 46.35 -11.85 L51.65 -8.05 Q54.55 -5.3 57.7 0.65 56.05 -0.7 54.0 -1.5 49.95 -3.05 44.85 -1.65 L39.15 1.85 Q38.85 -4.25 20.25 1.9 L20.25 1.7 M-21.75 -7.3 L-19.4 -0.7 -19.35 0.0 Q-24.55 -2.7 -28.1 -1.75 L-30.05 -0.9 Q-31.15 -3.7 -41.9 -6.1 -40.0 -8.4 -36.1 -9.45 -27.05 -11.9 -23.55 -10.45 -22.5 -10.1 -21.75 -7.3" fill="#ffffff" fill-rule="evenodd" stroke="none"/>
  </g>
</svg>
