<?xml version="1.0" encoding="UTF-8" standalone="no"?>
<svg xmlns:xlink="http://www.w3.org/1999/xlink" height="26.35px" width="101.05px" xmlns="http://www.w3.org/2000/svg">
  <g transform="matrix(1.0, 0.0, 0.0, 1.0, 42.2, 22.65)">
    <path d="M29.15 -19.8 Q30.1 -20.45 34.9 -21.75 49.8 -25.7 58.75 -12.65 59.0 -11.7 58.55 -11.55 51.65 -15.65 45.1 -13.9 43.2 -13.4 41.6 -11.55 40.0 -9.8 40.25 -8.95 L40.0 -8.75 Q39.7 -8.65 39.25 -9.2 38.85 -9.85 36.35 -9.2 31.75 -7.95 27.85 -4.95 L24.65 -1.9 19.7 3.65 19.2 3.55 19.15 3.15 19.45 3.3 19.7 3.15 Q19.6 2.15 20.9 0.2 L22.55 -2.8 Q23.1 -4.85 24.9 -8.8 L26.65 -14.75 Q26.7 -18.4 29.15 -19.8 M22.65 -1.2 Q29.6 -8.3 36.25 -10.1 40.05 -11.1 39.5 -10.4 39.75 -10.5 41.2 -12.35 42.65 -14.15 44.85 -14.75 50.7 -16.3 56.3 -14.1 54.9 -16.75 50.0 -19.2 46.5 -21.05 44.2 -21.0 L41.35 -21.3 31.3 -19.8 Q29.05 -19.2 28.5 -18.3 L28.1 -17.15 Q27.5 -16.2 27.35 -15.05 L26.15 -10.5 Q25.15 -6.8 22.55 -1.25 L22.55 -1.15 22.65 -1.2 M-40.55 -13.6 L-40.8 -13.55 -40.5 -13.4 Q-35.55 -12.4 -33.15 -11.05 -32.1 -10.5 -30.95 -8.75 -29.9 -7.3 -28.15 -7.2 -23.5 -6.8 -21.2 -3.85 L-17.75 1.05 Q-18.7 -0.95 -19.1 -2.45 -19.95 -8.0 -20.7 -10.8 -22.4 -17.05 -28.75 -17.1 -30.85 -17.15 -37.4 -15.4 -39.85 -14.75 -40.55 -13.6 M-33.7 -9.95 L-37.25 -12.05 Q-38.75 -13.0 -42.15 -12.95 -42.7 -15.05 -37.2 -16.5 -26.25 -19.45 -23.2 -16.05 -20.3 -12.9 -20.05 -11.95 -19.3 -9.1 -18.35 -2.75 -17.9 -1.15 -16.45 1.9 L-17.15 3.35 Q-17.8 3.55 -20.05 -0.1 -22.6 -4.5 -27.75 -5.8 L-29.6 -5.9 Q-30.65 -6.05 -31.55 -7.45 -32.55 -9.4 -33.7 -9.95" fill="#000000" fill-rule="evenodd" stroke="none"/>
    <path d="M22.55 -1.25 Q25.15 -6.8 26.15 -10.5 L27.35 -15.05 Q27.5 -16.2 28.1 -17.15 L28.5 -18.3 Q29.05 -19.2 31.3 -19.8 L41.35 -21.3 44.2 -21.0 Q46.5 -21.05 50.0 -19.2 54.9 -16.75 56.3 -14.1 50.7 -16.3 44.85 -14.75 42.65 -14.15 41.2 -12.35 39.75 -10.5 39.5 -10.4 40.05 -11.1 36.25 -10.1 29.6 -8.3 22.65 -1.2 L22.55 -1.25 M-40.5 -13.4 L-40.55 -13.6 Q-39.85 -14.75 -37.4 -15.4 -30.85 -17.15 -28.75 -17.1 -22.4 -17.05 -20.7 -10.8 -19.95 -8.0 -19.1 -2.45 -18.7 -0.95 -17.75 1.05 L-21.2 -3.85 Q-23.5 -6.8 -28.15 -7.2 -29.9 -7.3 -30.95 -8.75 -32.1 -10.5 -33.15 -11.05 -35.55 -12.4 -40.5 -13.4" fill="#ffffff" fill-rule="evenodd" stroke="none"/>
  </g>
</svg>
