<?xml version="1.0" encoding="UTF-8" standalone="no"?>
<svg xmlns:xlink="http://www.w3.org/1999/xlink" height="29.1px" width="91.3px" xmlns="http://www.w3.org/2000/svg">
  <g transform="matrix(1.0, 0.0, 0.0, 1.0, 38.2, 25.8)">
    <path d="M38.0 -14.1 L39.2 -15.6 Q41.1 -17.2 46.1 -19.2 48.0 -20.1 49.5 -21.85 L51.9 -24.95 Q42.25 -22.15 38.25 -22.2 L31.45 -21.45 Q27.95 -20.5 26.85 -16.35 L25.4 -11.15 Q23.4 -4.1 21.65 -0.5 23.6 -3.8 34.2 -12.35 34.75 -12.9 36.15 -12.9 37.3 -13.0 38.0 -14.1 M40.2 -23.35 Q41.0 -22.95 44.95 -24.0 52.95 -26.15 53.05 -25.75 53.35 -24.65 50.85 -22.05 48.8 -19.95 47.45 -19.1 40.65 -16.15 39.9 -15.05 38.4 -12.1 37.7 -11.9 38.1 -12.6 36.05 -12.05 34.65 -11.7 26.0 -3.8 24.15 -2.2 22.45 0.55 L20.65 2.75 20.0 2.8 19.85 2.4 Q23.5 -5.75 24.15 -10.05 25.8 -20.95 32.6 -22.75 L36.05 -23.65 36.75 -23.15 Q38.1 -23.0 38.7 -23.6 39.2 -23.95 40.2 -23.35 M-22.65 -16.8 Q-19.3 -14.1 -19.15 -13.5 -18.1 -9.65 -16.7 1.2 L-16.0 1.6 Q-15.95 1.75 -16.65 3.3 L-19.95 -0.6 Q-23.9 -5.7 -28.6 -9.05 -31.75 -10.4 -32.5 -11.55 L-34.05 -14.95 -38.0 -21.5 Q-38.7 -24.1 -37.2 -24.5 L-26.45 -19.65 -22.65 -16.8 M-33.0 -15.65 Q-32.4 -13.25 -31.85 -12.35 L-28.1 -10.0 Q-21.25 -5.45 -17.6 0.95 -18.85 -8.95 -19.5 -11.5 -21.0 -17.1 -36.9 -23.45 -37.2 -22.3 -37.0 -21.65 -33.2 -16.25 -33.0 -15.65" fill="#000000" fill-rule="evenodd" stroke="none"/>
    <path d="M38.0 -14.1 Q37.3 -13.0 36.15 -12.9 34.75 -12.9 34.2 -12.35 23.6 -3.8 21.65 -0.5 23.4 -4.1 25.4 -11.15 L26.85 -16.35 Q27.95 -20.5 31.45 -21.45 L38.25 -22.2 Q42.25 -22.15 51.9 -24.95 L49.5 -21.85 Q48.0 -20.1 46.1 -19.2 41.1 -17.2 39.2 -15.6 L38.0 -14.1 M-33.0 -15.65 Q-33.2 -16.25 -37.0 -21.65 -37.2 -22.3 -36.9 -23.45 -21.0 -17.1 -19.5 -11.5 -18.85 -8.95 -17.6 0.95 -21.25 -5.45 -28.1 -10.0 L-31.85 -12.35 Q-32.4 -13.25 -33.0 -15.65" fill="#ffffff" fill-rule="evenodd" stroke="none"/>
  </g>
</svg>
