<?xml version="1.0" encoding="UTF-8" standalone="no"?>
<svg xmlns:xlink="http://www.w3.org/1999/xlink" height="35.9px" width="79.7px" xmlns="http://www.w3.org/2000/svg">
  <g transform="matrix(1.0, 0.0, 0.0, 1.0, 32.55, 31.6)">
    <path d="M38.7 -20.15 Q40.45 -24.45 45.5 -28.6 L45.65 -28.75 43.55 -29.2 Q26.65 -24.65 26.7 -18.95 24.8 -14.1 24.05 -11.4 L20.55 3.0 24.45 -4.45 29.6 -12.6 Q32.05 -15.9 38.7 -20.15 M35.5 -16.3 L31.05 -12.5 Q28.25 -9.3 24.9 -3.75 21.6 3.95 20.9 4.15 L20.2 4.3 20.05 3.9 20.45 3.2 20.0 3.05 Q20.65 -1.4 23.5 -12.35 24.65 -16.85 26.0 -20.2 27.95 -25.9 40.8 -29.35 45.85 -30.7 47.15 -28.95 47.35 -28.3 43.1 -24.95 41.6 -23.55 39.85 -20.6 38.85 -19.0 35.5 -16.3 M-17.45 -0.6 L-18.5 -5.65 -21.95 -15.15 Q-22.65 -19.65 -22.9 -20.55 -25.1 -28.75 -31.75 -30.35 L-31.1 -26.6 -29.8 -23.15 Q-29.15 -20.7 -28.85 -15.8 L-22.5 -8.4 Q-20.4 -5.85 -17.55 -0.6 L-17.45 -0.5 -17.45 -0.6 M-24.75 -26.85 Q-22.75 -23.7 -21.9 -20.7 L-20.8 -14.7 -19.45 -11.3 -18.25 -8.2 -16.0 1.95 -16.4 2.3 Q-16.95 2.45 -19.25 -1.2 L-22.75 -6.85 Q-29.55 -14.6 -29.8 -15.5 L-30.75 -22.9 -32.05 -26.35 Q-32.8 -31.4 -32.4 -31.5 -30.55 -32.0 -27.8 -29.85 -25.6 -28.25 -24.75 -26.85" fill="#000000" fill-rule="evenodd" stroke="none"/>
    <path d="M38.7 -20.15 Q32.05 -15.9 29.6 -12.6 L24.45 -4.45 20.55 3.0 24.05 -11.4 Q24.8 -14.1 26.7 -18.95 26.65 -24.65 43.55 -29.2 L45.65 -28.75 45.5 -28.6 Q40.45 -24.45 38.7 -20.15 M-17.55 -0.6 Q-20.4 -5.85 -22.5 -8.4 L-28.85 -15.8 Q-29.15 -20.7 -29.8 -23.15 L-31.1 -26.6 -31.75 -30.35 Q-25.1 -28.75 -22.9 -20.55 -22.65 -19.65 -21.95 -15.15 L-18.5 -5.65 -17.45 -0.6 -17.55 -0.6" fill="#ffffff" fill-rule="evenodd" stroke="none"/>
  </g>
</svg>
