<?xml version="1.0" encoding="UTF-8" standalone="no"?>
<svg xmlns:xlink="http://www.w3.org/1999/xlink" height="23.7px" width="112.1px" xmlns="http://www.w3.org/2000/svg">
  <g transform="matrix(1.0, 0.0, 0.0, 1.0, 53.7, 19.15)">
    <path d="M35.75 -4.8 Q29.75 -3.2 25.4 0.75 22.1 4.35 21.4 4.55 L21.0 4.55 20.8 4.2 Q19.9 0.9 24.05 -5.95 L29.2 -15.05 Q30.2 -16.5 33.2 -17.3 43.8 -20.15 51.85 -18.55 57.9 -17.4 58.35 -15.75 58.55 -15.05 57.6 -14.8 L53.8 -14.6 Q45.75 -12.45 42.55 -8.45 40.9 -6.4 40.85 -4.45 41.05 -4.45 40.65 -4.35 L39.85 -4.95 35.75 -4.8 M40.05 -6.2 L42.25 -9.65 Q46.0 -13.6 53.55 -15.65 L55.65 -16.05 49.8 -18.0 Q45.4 -19.4 31.45 -15.65 29.35 -15.1 21.95 1.85 L21.95 2.05 25.55 -1.05 Q29.7 -4.1 35.5 -5.65 L38.75 -6.2 40.05 -6.2 M-51.1 -10.95 Q-41.65 -9.15 -37.2 -3.25 -36.15 -2.05 -34.35 -2.15 L-31.65 -2.4 -26.65 -1.7 Q-19.55 -0.8 -17.35 0.2 L-17.25 0.2 Q-18.75 -2.3 -25.8 -8.85 -29.15 -12.1 -31.1 -13.0 L-34.05 -14.55 Q-36.35 -14.8 -47.2 -12.75 -47.55 -12.35 -51.1 -11.0 L-51.15 -10.95 -51.1 -10.95 M-50.4 -9.45 Q-53.6 -10.3 -53.7 -10.75 -54.05 -12.0 -46.35 -14.05 -36.5 -16.7 -33.4 -15.45 -30.85 -14.45 -29.7 -13.55 L-24.2 -8.8 Q-16.2 -2.45 -15.25 1.1 -15.05 1.7 -15.7 1.85 -17.1 2.25 -19.95 0.2 L-26.35 -0.6 Q-36.85 -1.5 -38.3 -2.7 -43.5 -7.25 -44.4 -7.65 -46.15 -8.35 -50.4 -9.45" fill="#000000" fill-rule="evenodd" stroke="none"/>
    <path d="M40.05 -6.2 L38.75 -6.2 35.5 -5.65 Q29.7 -4.1 25.55 -1.05 L21.95 2.05 21.95 1.85 Q29.35 -15.1 31.45 -15.65 45.4 -19.4 49.8 -18.0 L55.65 -16.05 53.55 -15.65 Q46.0 -13.6 42.25 -9.65 L40.05 -6.2 M-51.1 -10.95 L-51.1 -11.0 Q-47.55 -12.35 -47.2 -12.75 -36.35 -14.8 -34.05 -14.55 L-31.1 -13.0 Q-29.15 -12.1 -25.8 -8.85 -18.75 -2.3 -17.25 0.2 L-17.35 0.2 Q-19.55 -0.8 -26.65 -1.7 L-31.65 -2.4 -34.35 -2.15 Q-36.15 -2.05 -37.2 -3.25 -41.65 -9.15 -51.1 -10.95" fill="#ffffff" fill-rule="evenodd" stroke="none"/>
  </g>
</svg>
