<?xml version="1.0" encoding="UTF-8" standalone="no"?>
<svg xmlns:xlink="http://www.w3.org/1999/xlink" height="19.95px" width="114.65px" xmlns="http://www.w3.org/2000/svg">
  <g transform="matrix(1.0, 0.0, 0.0, 1.0, 52.7, 2.6)">
    <path d="M59.8 14.8 L59.9 14.75 Q51.35 1.85 41.4 -0.65 35.5 -2.1 26.2 0.4 23.2 1.2 20.65 2.7 23.8 4.65 31.6 8.5 38.1 12.1 39.55 15.5 40.3 13.1 43.85 12.15 54.1 9.4 59.8 14.8 M61.8 15.85 Q62.15 17.1 61.6 17.25 L56.75 14.25 Q51.4 11.3 44.1 13.25 41.5 13.95 40.55 15.7 L39.8 17.35 Q36.95 12.55 31.35 9.4 19.9 4.7 19.45 3.1 20.15 2.0 20.05 1.6 19.6 1.5 19.6 1.4 L19.95 1.05 20.45 1.0 20.65 1.55 Q23.55 0.0 26.75 -0.85 43.9 -5.45 52.35 4.65 L61.8 15.85 M-32.5 -1.05 Q-44.45 2.0 -47.85 4.55 -49.85 6.25 -51.1 9.25 -43.25 7.45 -43.35 7.05 L-43.85 7.05 -35.35 6.8 -30.85 8.7 -29.25 7.45 Q-27.75 6.35 -27.0 6.35 -26.15 6.35 -24.6 5.35 -22.65 4.1 -19.0 2.95 -16.45 2.05 -16.6 1.6 -17.05 -0.15 -21.75 -1.25 -27.0 -2.45 -32.5 -1.05 M-21.7 -1.85 Q-15.9 -0.5 -15.5 1.05 -14.95 3.1 -23.05 5.8 L-28.75 8.4 Q-30.2 9.05 -30.5 10.15 -32.35 9.3 -34.65 8.5 -39.15 6.9 -40.95 7.35 L-42.65 8.15 -49.3 9.85 Q-52.5 10.7 -52.65 10.25 -53.15 8.3 -49.5 4.9 -44.9 0.7 -36.95 -1.4 -28.9 -3.55 -21.7 -1.85" fill="#000000" fill-rule="evenodd" stroke="none"/>
    <path d="M59.8 14.8 Q54.1 9.4 43.85 12.15 40.3 13.1 39.55 15.5 38.1 12.1 31.6 8.5 23.8 4.65 20.65 2.7 23.2 1.2 26.2 0.4 35.5 -2.1 41.4 -0.65 51.35 1.85 59.9 14.75 L59.8 14.8 M-32.5 -1.05 Q-27.0 -2.45 -21.75 -1.25 -17.05 -0.15 -16.6 1.6 -16.45 2.05 -19.0 2.95 -22.65 4.1 -24.6 5.35 -26.15 6.35 -27.0 6.35 -27.75 6.35 -29.25 7.45 L-30.85 8.7 -35.35 6.8 -43.85 7.05 -43.35 7.05 Q-43.25 7.45 -51.1 9.25 -49.85 6.25 -47.85 4.55 -44.45 2.0 -32.5 -1.05" fill="#ffffff" fill-rule="evenodd" stroke="none"/>
  </g>
</svg>
