<?xml version="1.0" encoding="UTF-8" standalone="no"?>
<svg xmlns:xlink="http://www.w3.org/1999/xlink" height="33.5px" width="115.6px" xmlns="http://www.w3.org/2000/svg">
  <g transform="matrix(1.0, 0.0, 0.0, 1.0, 53.85, 0.9)">
    <path d="M-15.6 -0.55 Q-15.1 1.3 -21.85 13.9 L-26.65 21.95 -30.9 28.45 -32.65 25.85 Q-34.65 22.85 -37.6 21.7 -39.4 20.9 -44.9 20.35 L-53.85 19.7 Q-53.95 19.3 -49.9 18.2 -42.2 16.15 -35.45 12.05 -30.15 10.65 -28.2 8.95 L-24.85 6.85 -16.3 -0.85 Q-15.75 -1.0 -15.6 -0.55 M-17.9 2.1 L-26.6 9.1 Q-29.2 10.8 -47.55 18.6 L-48.05 18.9 Q-34.25 18.05 -31.1 26.95 -23.8 17.15 -17.6 2.05 L-17.9 2.1 M21.95 5.0 Q22.3 5.75 22.5 7.05 22.95 10.15 23.6 11.05 L27.25 17.95 31.25 24.7 Q33.85 28.6 36.9 30.9 37.85 28.5 40.15 25.95 44.4 21.3 50.7 19.6 L50.8 19.55 58.5 18.4 Q39.55 18.45 32.65 13.75 24.65 8.15 22.0 4.9 21.0 3.65 20.75 2.7 L20.95 1.9 Q21.55 1.9 21.75 2.7 22.7 6.25 34.7 13.6 39.65 16.55 45.7 16.85 L61.7 17.5 Q62.0 18.65 58.7 19.55 53.15 20.0 50.95 20.6 40.45 23.4 37.55 32.6 34.1 30.45 31.45 26.6 L27.25 19.7 Q22.9 12.85 20.95 5.7 20.65 4.5 20.9 4.0 21.6 4.25 21.95 5.0" fill="#000000" fill-rule="evenodd" stroke="none"/>
    <path d="M-17.9 2.1 L-17.6 2.05 Q-23.8 17.15 -31.1 26.95 -34.25 18.05 -48.05 18.9 L-47.55 18.6 Q-29.2 10.8 -26.6 9.1 L-17.9 2.1 M22.0 4.9 Q24.65 8.15 32.65 13.75 39.55 18.45 58.5 18.4 L50.8 19.55 50.7 19.6 Q44.4 21.3 40.15 25.95 37.85 28.5 36.9 30.9 33.85 28.6 31.25 24.7 L27.25 17.95 23.6 11.05 Q22.95 10.15 22.5 7.05 22.3 5.75 21.95 5.0 L22.0 4.9" fill="#ffffff" fill-rule="evenodd" stroke="none"/>
  </g>
</svg>
