<?xml version="1.0" encoding="UTF-8" standalone="no"?>
<svg xmlns:xlink="http://www.w3.org/1999/xlink" height="28.8px" width="107.75px" xmlns="http://www.w3.org/2000/svg">
  <g transform="matrix(1.0, 0.0, 0.0, 1.0, 52.1, 0.1)">
    <path d="M49.8 20.75 L49.9 20.7 34.6 12.2 Q26.5 7.6 22.0 3.05 21.7 2.85 21.75 3.1 22.7 4.7 24.05 9.75 L26.2 18.95 Q27.1 22.4 29.4 27.2 L29.45 27.3 Q29.45 26.15 30.4 24.45 31.85 21.6 35.15 20.7 42.95 18.6 49.8 20.75 M55.4 24.25 Q53.2 22.9 49.95 21.85 43.5 19.6 35.45 21.75 31.85 22.7 30.95 25.75 L29.9 28.7 Q28.05 29.2 25.25 19.25 L23.15 10.1 Q21.3 5.15 20.95 3.7 20.45 2.0 21.5 1.75 L28.85 7.45 Q31.5 8.6 38.05 12.75 39.45 13.7 47.75 18.1 55.35 22.3 55.6 23.35 55.8 24.1 55.4 24.25 M-16.75 1.35 Q-16.1 1.15 -15.95 1.75 -15.65 2.85 -21.75 6.1 -23.0 7.6 -24.4 10.6 L-29.55 19.75 -34.1 18.3 Q-38.7 16.9 -42.5 17.8 L-42.75 17.9 Q-44.85 18.45 -50.5 20.5 L-51.95 20.8 -52.1 20.4 Q-52.6 18.6 -39.05 10.5 -25.05 2.1 -16.55 -0.1 -16.15 -0.1 -16.05 0.3 L-16.5 0.85 -16.5 0.7 Q-16.8 0.3 -17.3 0.45 -17.6 0.55 -17.4 1.15 L-17.25 1.2 -22.75 3.25 Q-24.15 3.75 -28.0 5.85 -37.65 10.35 -38.75 11.1 L-49.15 18.85 -49.6 19.15 -49.6 19.25 Q-47.75 19.05 -46.35 17.95 -42.8 17.3 -42.75 16.95 -35.55 15.95 -30.15 18.6 -29.25 16.25 -25.25 9.65 -23.05 5.85 -22.3 5.25 L-16.75 1.35" fill="#000000" fill-rule="evenodd" stroke="none"/>
    <path d="M49.8 20.75 Q42.95 18.6 35.15 20.7 31.85 21.6 30.4 24.45 29.45 26.15 29.45 27.3 L29.4 27.2 Q27.1 22.4 26.2 18.95 L24.05 9.75 Q22.7 4.7 21.75 3.1 21.7 2.85 22.0 3.05 26.5 7.6 34.6 12.2 L49.9 20.7 49.8 20.75 M-16.5 0.85 L-16.45 0.9 -16.7 1.2 -16.75 1.35 -22.3 5.25 Q-23.05 5.85 -25.25 9.65 -29.25 16.25 -30.15 18.6 -35.55 15.95 -42.75 16.95 -42.8 17.3 -46.35 17.95 -47.75 19.05 -49.6 19.25 L-49.6 19.15 -49.15 18.85 -38.75 11.1 Q-37.65 10.35 -28.0 5.85 -24.15 3.75 -22.75 3.25 L-17.25 1.2 -17.4 1.15 Q-17.6 0.55 -17.3 0.45 -16.8 0.3 -16.5 0.7 L-16.5 0.85" fill="#ffffff" fill-rule="evenodd" stroke="none"/>
  </g>
</svg>
