<?xml version="1.0" encoding="UTF-8" standalone="no"?>
<svg xmlns:xlink="http://www.w3.org/1999/xlink" height="27.1px" width="112.25px" xmlns="http://www.w3.org/2000/svg">
  <g transform="matrix(1.0, 0.0, 0.0, 1.0, 56.1, 10.5)">
    <path d="M55.9 14.65 L52.25 12.15 Q48.3 9.7 43.25 11.05 39.0 12.15 36.85 14.4 L34.65 16.6 Q34.3 16.7 32.6 13.95 30.55 10.3 28.1 8.15 21.2 2.0 18.4 0.85 19.1 -1.35 28.95 -4.0 42.75 -7.7 50.1 0.0 53.5 3.55 55.05 9.35 L56.1 14.5 55.9 14.65 M34.7 15.1 L36.45 13.1 Q38.6 11.15 42.95 10.0 48.0 8.65 51.25 10.15 53.0 10.9 54.65 12.55 L54.75 12.5 54.1 9.55 Q49.3 -8.35 26.65 -2.25 L20.55 0.65 28.6 7.45 Q33.25 11.6 34.6 14.95 L34.65 15.1 34.7 15.1 M-16.65 -0.1 Q-16.55 0.3 -16.8 0.75 L-15.7 0.95 Q-15.7 1.65 -16.35 1.8 -20.05 0.6 -29.45 3.15 -31.5 3.7 -35.95 6.95 -37.7 7.4 -42.9 3.8 -44.65 3.4 -46.55 2.45 L-55.9 3.1 -56.1 2.7 Q-50.9 -7.25 -41.6 -9.75 -32.55 -12.2 -23.75 -6.55 -17.25 -2.35 -16.65 -0.1 M-43.45 -8.1 Q-49.85 -6.35 -54.6 1.95 L-46.75 1.65 -42.95 2.55 Q-41.05 3.45 -36.35 6.0 -33.45 3.05 -28.35 1.7 -21.0 -0.25 -17.35 0.35 -26.35 -8.05 -32.65 -9.3 -36.1 -10.05 -43.45 -8.1" fill="#000000" fill-rule="evenodd" stroke="none"/>
    <path d="M34.6 14.95 Q33.25 11.6 28.6 7.45 L20.55 0.65 26.65 -2.25 Q49.3 -8.35 54.1 9.55 L54.75 12.5 54.65 12.55 Q53.0 10.9 51.25 10.15 48.0 8.65 42.95 10.0 38.6 11.15 36.45 13.1 L34.7 15.1 34.6 14.95 M-43.45 -8.1 Q-36.1 -10.05 -32.65 -9.3 -26.35 -8.05 -17.35 0.35 -21.0 -0.25 -28.35 1.7 -33.45 3.05 -36.35 6.0 -41.05 3.45 -42.95 2.55 L-46.75 1.65 -54.6 1.95 Q-49.85 -6.35 -43.45 -8.1" fill="#ffffff" fill-rule="evenodd" stroke="none"/>
  </g>
</svg>
