<?xml version="1.0" encoding="UTF-8" standalone="no"?>
<svg xmlns:xlink="http://www.w3.org/1999/xlink" height="16.05px" width="118.05px" xmlns="http://www.w3.org/2000/svg">
  <g transform="matrix(1.0, 0.0, 0.0, 1.0, 57.2, 12.3)">
    <path d="M20.85 -0.9 L20.9 -0.85 Q30.8 -2.3 41.35 2.25 42.9 1.2 44.05 0.9 47.55 -0.05 50.3 -0.25 55.65 -0.65 58.4 1.45 L58.5 1.4 Q55.05 -3.95 52.35 -5.85 49.95 -7.5 48.15 -8.2 L46.4 -8.85 Q44.6 -10.0 43.6 -10.35 42.7 -11.25 41.85 -11.25 L31.7 -8.7 Q30.15 -8.3 25.55 -4.7 L20.85 -0.9 M39.7 -11.9 Q43.95 -11.55 47.75 -9.8 51.1 -8.3 54.0 -5.7 L57.85 -1.25 Q60.7 2.3 60.8 2.8 61.0 3.55 60.3 3.75 56.35 0.75 50.65 1.0 47.75 1.15 44.45 2.0 43.1 2.95 41.65 3.35 28.1 -1.65 21.15 0.2 L18.4 1.4 Q17.95 1.5 17.8 0.85 17.5 -0.35 23.65 -4.4 L26.85 -7.05 Q29.3 -8.85 33.85 -10.35 L39.7 -11.9 M-40.65 -2.05 Q-38.2 -0.5 -34.4 -0.55 L-29.05 -0.9 -17.6 -0.15 -17.35 -0.25 Q-23.75 -5.6 -27.55 -7.95 -34.5 -14.1 -49.25 -10.15 -51.05 -9.7 -55.5 -7.05 -44.4 -4.6 -40.65 -2.05 M-52.25 -5.7 L-57.2 -6.45 Q-51.75 -10.5 -48.85 -11.3 -42.7 -12.95 -35.8 -11.9 -29.3 -10.95 -26.1 -8.35 L-15.05 0.2 -15.0 0.55 -15.25 0.7 Q-15.85 0.4 -16.3 0.35 L-17.2 1.0 Q-19.5 1.65 -29.15 0.15 L-36.2 0.1 -39.7 0.0 -41.05 -1.1 Q-46.35 -5.05 -52.25 -5.7" fill="#000000" fill-rule="evenodd" stroke="none"/>
    <path d="M20.85 -0.9 L25.55 -4.7 Q30.15 -8.3 31.7 -8.7 L41.85 -11.25 Q42.7 -11.25 43.6 -10.35 44.6 -10.0 46.4 -8.85 L48.15 -8.2 Q49.95 -7.5 52.35 -5.85 55.05 -3.95 58.5 1.4 L58.4 1.45 Q55.65 -0.65 50.3 -0.25 47.55 -0.05 44.05 0.9 42.9 1.2 41.35 2.25 30.8 -2.3 20.9 -0.85 L20.85 -0.9 M-40.65 -2.05 Q-44.4 -4.6 -55.5 -7.05 -51.05 -9.7 -49.25 -10.15 -34.5 -14.1 -27.55 -7.95 -23.75 -5.6 -17.35 -0.25 L-17.6 -0.15 -29.05 -0.9 -34.4 -0.55 Q-38.2 -0.5 -40.65 -2.05" fill="#ffffff" fill-rule="evenodd" stroke="none"/>
  </g>
</svg>
