<?xml version="1.0" encoding="UTF-8" standalone="no"?>
<svg xmlns:xlink="http://www.w3.org/1999/xlink" height="27.45px" width="29.6px" xmlns="http://www.w3.org/2000/svg">
  <g transform="matrix(1.0, 0.0, 0.0, 1.0, 14.8, 13.75)">
    <path d="M12.3 -7.0 Q14.05 -4.05 12.6 -0.85 10.85 3.35 6.65 2.7 L6.55 2.45 6.4 2.3 6.35 2.1 Q6.1 1.9 5.75 1.85 L5.0 1.8 4.85 1.85 4.75 2.05 4.6 2.2 4.6 2.35 4.6 2.65 4.6 2.8 4.6 3.0 4.6 3.2 4.6 3.4 4.75 3.6 4.95 3.8 5.2 3.9 5.5 4.15 5.7 4.25 Q6.55 7.25 4.3 9.55 1.6 12.25 -2.0 12.9 -9.1 14.1 -11.6 8.15 -12.7 5.55 -12.0 2.8 -11.45 2.8 -11.0 3.15 L-10.3 3.6 -9.35 3.95 Q-8.65 4.3 -8.25 3.6 L-8.35 3.4 -8.5 3.1 -9.35 2.7 -10.55 2.1 -11.3 1.4 -10.85 1.45 -10.55 1.4 -10.45 1.35 -10.25 1.2 -10.25 1.05 -10.2 0.85 -10.1 0.6 -10.2 0.45 -10.25 0.25 -10.5 0.05 -10.85 0.0 -11.55 0.0 -12.05 0.3 -12.35 0.6 Q-13.25 -0.15 -13.25 -1.15 -13.35 -2.35 -12.55 -3.25 L-10.85 -5.15 Q-9.5 -6.55 -7.75 -6.2 L-7.75 -6.1 -7.35 -5.65 -6.75 -5.3 -5.5 -4.85 Q-5.05 -4.75 -4.75 -5.2 L-4.6 -5.4 -4.7 -6.15 -4.95 -6.55 -5.25 -7.0 Q-5.55 -7.35 -6.1 -7.35 -6.75 -7.3 -6.6 -7.7 L-6.4 -8.15 Q-5.55 -9.55 -4.05 -10.3 L-0.95 -11.6 2.3 -12.45 Q9.05 -12.75 12.3 -7.0" fill="#ffffff" fill-rule="evenodd" stroke="none"/>
    <path d="M12.3 -7.0 Q9.05 -12.75 2.3 -12.45 L-0.95 -11.6 -4.05 -10.3 Q-5.55 -9.55 -6.4 -8.15 L-6.6 -7.7 Q-6.75 -7.3 -6.1 -7.35 -5.55 -7.35 -5.25 -7.0 L-4.95 -6.55 -4.7 -6.15 -4.6 -5.4 -4.75 -5.2 Q-5.05 -4.75 -5.5 -4.85 L-6.75 -5.3 -7.35 -5.65 -7.75 -6.1 -7.75 -6.2 Q-9.5 -6.55 -10.85 -5.15 L-12.55 -3.25 Q-13.35 -2.35 -13.25 -1.15 -13.25 -0.15 -12.35 0.6 L-12.05 0.3 -11.55 0.0 -10.85 0.0 -10.5 0.05 -10.25 0.25 -10.2 0.45 -10.1 0.6 -10.2 0.85 -10.25 1.05 -10.25 1.2 -10.45 1.35 -10.55 1.4 -10.85 1.45 -11.3 1.4 -10.55 2.1 -9.35 2.7 -8.5 3.1 -8.35 3.4 -8.25 3.6 Q-8.65 4.3 -9.35 3.95 L-10.3 3.6 -11.0 3.15 Q-11.45 2.8 -12.0 2.8 -12.7 5.55 -11.6 8.15 -9.1 14.1 -2.0 12.9 1.6 12.25 4.3 9.55 6.55 7.25 5.7 4.25 L5.5 4.15 5.2 3.9 4.95 3.8 4.75 3.6 4.6 3.4 4.6 3.2 4.6 3.0 4.6 2.8 4.6 2.65 4.6 2.35 4.6 2.2 4.75 2.05 4.85 1.85 5.0 1.8 5.75 1.85 Q6.1 1.9 6.35 2.1 L6.4 2.3 6.55 2.45 6.65 2.7 Q10.85 3.35 12.6 -0.85 14.05 -4.05 12.3 -7.0 M14.35 -1.45 Q12.9 3.2 8.15 4.4 L7.2 4.75 Q7.55 7.5 5.55 9.55 -1.15 16.25 -10.1 12.1 -12.45 11.0 -13.2 8.65 -14.2 5.3 -13.15 2.05 L-13.9 0.9 Q-14.85 0.0 -14.8 -1.35 -14.75 -3.25 -13.45 -4.7 -11.2 -7.1 -8.0 -7.9 L-7.35 -9.05 Q-6.65 -10.4 -5.25 -11.1 -2.9 -12.45 -0.25 -13.15 L2.65 -13.75 Q7.8 -14.05 11.8 -10.45 15.9 -6.8 14.35 -1.45" fill="#000000" fill-rule="evenodd" stroke="none"/>
  </g>
</svg>
