<?xml version="1.0" encoding="UTF-8" standalone="no"?>
<svg xmlns:xlink="http://www.w3.org/1999/xlink" height="24.25px" width="21.4px" xmlns="http://www.w3.org/2000/svg">
  <g transform="matrix(1.0, 0.0, 0.0, 1.0, 9.95, 15.05)">
    <path d="M7.35 -13.2 L7.55 -13.55 7.7 -13.75 7.85 -13.8 8.25 -13.95 8.6 -14.15 8.95 -14.4 9.3 -14.35 9.4 -13.95 9.45 -13.75 9.4 -13.4 Q9.4 -13.2 9.55 -13.1 L9.65 -13.0 9.85 -12.95 10.0 -12.95 10.25 -12.9 10.7 -12.35 10.75 -11.6 10.5 -11.05 10.1 -10.4 9.8 -10.4 Q9.35 -11.05 8.6 -10.75 8.05 -10.5 7.55 -10.75 7.2 -10.95 7.1 -11.3 L7.1 -11.4 7.15 -11.5 7.25 -11.6 7.3 -11.7 7.3 -11.9 7.3 -12.0 7.35 -12.25 7.35 -12.45 7.2 -12.65 7.2 -12.8 7.25 -13.0 7.35 -13.2 M8.25 -4.7 Q9.4 -2.7 8.5 -0.55 7.25 2.25 4.5 1.8 L4.4 1.65 4.3 1.55 4.25 1.4 3.85 1.25 3.35 1.2 3.25 1.25 3.2 1.4 3.1 1.45 3.1 1.6 3.1 1.75 3.1 1.9 3.1 2.0 3.1 2.15 3.1 2.3 3.2 2.4 3.3 2.55 3.5 2.6 3.7 2.8 3.85 2.85 Q4.4 4.85 2.9 6.4 1.1 8.2 -1.35 8.65 -6.1 9.45 -7.8 5.45 -8.5 3.75 -8.05 1.9 L-7.4 2.1 -6.95 2.4 -6.3 2.65 Q-5.8 2.9 -5.55 2.4 L-5.6 2.3 -5.7 2.05 -6.3 1.8 -7.1 1.4 -7.55 0.95 -7.25 1.0 -7.1 0.95 -7.0 0.9 -6.9 0.8 -6.9 0.7 -6.85 0.55 -6.8 0.4 -6.85 0.3 -6.9 0.15 -7.05 0.05 -7.25 0.0 -7.75 0.0 -8.1 0.2 -8.3 0.4 Q-8.9 -0.1 -8.9 -0.75 -8.95 -1.6 -8.45 -2.2 L-7.25 -3.45 Q-6.35 -4.4 -5.2 -4.15 L-5.2 -4.1 -4.95 -3.8 -4.5 -3.55 -3.7 -3.25 Q-3.4 -3.2 -3.2 -3.5 L-3.1 -3.6 -3.15 -4.15 -3.3 -4.4 -3.55 -4.7 -4.1 -4.95 -4.45 -5.15 -4.3 -5.45 Q-3.75 -6.4 -2.7 -6.95 L-0.65 -7.8 1.55 -8.35 Q6.05 -8.55 8.25 -4.7" fill="#ffffff" fill-rule="evenodd" stroke="none"/>
    <path d="M7.35 -13.2 L7.25 -13.0 7.2 -12.8 7.2 -12.65 7.35 -12.45 7.35 -12.25 7.3 -12.0 7.3 -11.9 7.3 -11.7 7.25 -11.6 7.15 -11.5 7.1 -11.4 7.1 -11.3 Q7.2 -10.95 7.55 -10.75 8.05 -10.5 8.6 -10.75 9.35 -11.05 9.8 -10.4 L10.1 -10.4 10.5 -11.05 10.75 -11.6 10.7 -12.35 10.25 -12.9 10.0 -12.95 9.85 -12.95 9.65 -13.0 9.55 -13.1 Q9.4 -13.2 9.4 -13.4 L9.45 -13.75 9.4 -13.95 9.3 -14.35 8.95 -14.4 8.6 -14.15 8.25 -13.95 7.85 -13.8 7.7 -13.75 7.55 -13.55 7.35 -13.2 M9.95 -14.5 L10.05 -13.9 10.05 -13.7 Q10.95 -13.35 11.25 -12.55 11.55 -11.85 11.35 -11.15 10.9 -9.6 9.4 -9.75 L9.3 -9.85 9.3 -9.95 9.25 -10.05 9.1 -10.15 Q7.5 -9.55 6.8 -10.95 6.3 -12.1 6.75 -13.25 7.15 -14.5 8.5 -14.95 L8.85 -15.05 9.45 -14.9 9.95 -14.5 M8.25 -4.7 Q6.05 -8.55 1.55 -8.35 L-0.65 -7.8 -2.7 -6.95 Q-3.75 -6.4 -4.3 -5.45 L-4.45 -5.15 -4.1 -4.95 -3.55 -4.7 -3.3 -4.4 -3.15 -4.15 -3.1 -3.6 -3.2 -3.5 Q-3.4 -3.2 -3.7 -3.25 L-4.5 -3.55 -4.95 -3.8 -5.2 -4.1 -5.2 -4.15 Q-6.35 -4.4 -7.25 -3.45 L-8.45 -2.2 Q-8.95 -1.6 -8.9 -0.75 -8.9 -0.1 -8.3 0.4 L-8.1 0.2 -7.75 0.0 -7.25 0.0 -7.05 0.05 -6.9 0.15 -6.85 0.3 -6.8 0.4 -6.85 0.55 -6.9 0.7 -6.9 0.8 -7.0 0.9 -7.1 0.95 -7.25 1.0 -7.55 0.95 -7.1 1.4 -6.3 1.8 -5.7 2.05 -5.6 2.3 -5.55 2.4 Q-5.8 2.9 -6.3 2.65 L-6.95 2.4 -7.4 2.1 -8.05 1.9 Q-8.5 3.75 -7.8 5.45 -6.1 9.45 -1.35 8.65 1.1 8.2 2.9 6.4 4.4 4.85 3.85 2.85 L3.7 2.8 3.5 2.6 3.3 2.55 3.2 2.4 3.1 2.3 3.1 2.15 3.1 2.0 3.1 1.9 3.1 1.75 3.1 1.6 3.1 1.45 3.2 1.4 3.25 1.25 3.35 1.2 3.85 1.25 4.25 1.4 4.3 1.55 4.4 1.65 4.5 1.8 Q7.25 2.25 8.5 -0.55 9.4 -2.7 8.25 -4.7 M7.9 -7.0 Q10.65 -4.55 9.65 -1.0 8.65 2.15 5.45 2.95 L4.8 3.2 Q5.1 5.05 3.75 6.4 -0.75 10.95 -6.8 8.15 -8.35 7.4 -8.85 5.8 -9.55 3.55 -8.8 1.4 L-9.35 0.6 Q-10.0 0.0 -9.95 -0.9 -9.9 -2.2 -9.05 -3.15 -7.55 -4.8 -5.4 -5.3 L-4.95 -6.05 Q-4.5 -6.95 -3.55 -7.45 -1.95 -8.35 -0.15 -8.8 L1.75 -9.25 Q5.25 -9.4 7.9 -7.0" fill="#000000" fill-rule="evenodd" stroke="none"/>
  </g>
</svg>
