<?xml version="1.0" encoding="UTF-8" standalone="no"?>
<svg xmlns:xlink="http://www.w3.org/1999/xlink" height="19.5px" width="19.2px" xmlns="http://www.w3.org/2000/svg">
  <g transform="matrix(1.0, 0.0, 0.0, 1.0, 8.85, 10.55)">
    <path d="M9.9 -9.75 Q10.8 -8.8 9.9 -7.8 9.2 -7.0 8.0 -7.1 L7.5 -7.05 Q6.9 -7.15 6.7 -7.65 6.45 -8.1 6.55 -8.7 6.7 -9.45 7.2 -10.1 7.45 -10.45 7.85 -10.55 9.15 -10.65 9.9 -9.75 M9.05 -9.65 L9.0 -9.75 8.75 -9.7 8.05 -9.8 7.9 -9.85 7.7 -9.65 7.6 -9.3 7.5 -9.1 7.3 -9.0 7.3 -8.9 7.3 -8.85 7.2 -8.65 7.15 -8.45 7.15 -8.35 7.2 -8.25 7.3 -8.05 7.35 -7.9 8.1 -7.75 9.5 -8.0 9.6 -8.15 9.7 -8.45 9.7 -8.75 9.65 -8.9 9.65 -9.0 9.55 -9.1 9.25 -9.4 9.05 -9.65 M7.95 -2.35 Q7.95 -4.75 5.65 -6.2 3.75 -7.45 1.4 -7.45 -0.2 -7.45 -1.95 -6.3 L-3.95 -4.6 -2.75 -3.2 -3.05 -2.9 -3.95 -3.4 -4.85 -3.7 -5.6 -3.6 -6.0 -3.4 Q-6.95 -3.1 -7.5 -2.1 L-7.95 -0.65 Q-7.95 0.2 -7.4 0.35 L-7.3 0.3 -7.3 0.4 -6.8 0.75 -6.65 0.85 -6.75 0.85 Q-5.7 1.5 -4.95 2.15 L-5.4 2.5 -7.2 1.7 -7.3 3.35 Q-7.3 5.05 -6.0 6.4 -4.45 7.85 -2.2 7.85 -0.05 7.85 1.8 6.45 3.6 5.1 3.6 3.45 3.6 3.0 3.2 2.55 2.75 2.1 2.75 1.65 L2.8 1.1 3.0 1.05 5.65 1.4 Q7.95 0.95 7.95 -2.35 M1.55 -8.25 Q4.95 -8.25 7.05 -6.25 8.85 -4.5 8.85 -2.35 8.85 -0.05 7.25 1.25 L4.3 2.85 3.9 4.35 3.35 5.7 Q2.3 7.3 0.1 7.95 L-2.15 8.25 Q-5.1 8.25 -6.65 6.9 -8.15 5.55 -8.15 3.2 -8.15 1.85 -8.5 0.55 L-8.85 -0.8 -8.2 -2.7 Q-7.55 -4.25 -5.7 -4.4 L-3.0 -6.75 Q-0.95 -8.25 1.55 -8.25 M7.05 6.0 L7.15 5.9 7.25 5.8 7.3 5.75 7.35 5.7 7.5 5.7 Q8.25 5.6 8.7 6.25 9.15 6.85 9.05 7.6 8.95 8.3 8.3 8.75 L8.2 8.9 8.1 8.9 7.25 8.95 7.05 8.9 6.95 8.8 6.8 8.6 6.6 8.45 6.35 8.15 6.25 7.95 6.15 7.95 6.0 7.95 5.8 7.9 5.7 7.8 5.6 7.7 5.55 7.6 5.45 7.5 5.45 7.15 Q5.45 6.8 5.7 6.55 L6.6 6.0 7.05 6.0 M8.5 7.5 L8.55 7.45 8.45 7.15 8.4 7.05 8.2 6.7 7.85 6.4 7.55 6.45 7.25 6.7 6.85 6.65 6.45 6.75 6.35 6.8 6.65 6.9 6.75 7.0 6.8 7.1 6.8 7.25 6.8 7.45 6.8 7.65 7.05 7.95 7.1 8.0 7.5 8.2 7.85 8.25 8.05 8.1 8.15 8.0 8.25 7.9 8.4 7.7 8.5 7.5" fill="#000000" fill-rule="evenodd" stroke="none"/>
    <path d="M9.05 -9.65 L9.25 -9.4 9.55 -9.1 9.65 -9.0 9.65 -8.9 9.7 -8.75 9.7 -8.45 9.6 -8.15 9.5 -8.0 8.1 -7.75 7.35 -7.9 7.3 -8.05 7.2 -8.25 7.15 -8.35 7.15 -8.45 7.2 -8.65 7.3 -8.85 7.3 -8.9 7.3 -9.0 7.5 -9.1 7.6 -9.3 7.7 -9.65 7.9 -9.85 8.05 -9.8 8.75 -9.7 9.0 -9.75 9.05 -9.65 M7.95 -2.35 Q7.95 0.95 5.65 1.4 L3.0 1.05 2.8 1.1 2.75 1.65 Q2.75 2.1 3.2 2.55 3.6 3.0 3.6 3.45 3.6 5.1 1.8 6.45 -0.05 7.85 -2.2 7.85 -4.45 7.85 -6.0 6.4 -7.3 5.05 -7.3 3.35 L-7.2 1.7 -5.4 2.5 -4.95 2.15 Q-5.7 1.5 -6.75 0.85 L-6.65 0.85 -6.8 0.75 -7.3 0.4 -7.3 0.3 -7.4 0.35 Q-7.95 0.2 -7.95 -0.65 L-7.5 -2.1 Q-6.95 -3.1 -6.0 -3.4 L-5.6 -3.6 -4.85 -3.7 -3.95 -3.4 -3.05 -2.9 -2.75 -3.2 -3.95 -4.6 -1.95 -6.3 Q-0.2 -7.45 1.4 -7.45 3.75 -7.45 5.65 -6.2 7.95 -4.75 7.95 -2.35 M8.5 7.5 L8.4 7.7 8.25 7.9 8.15 8.0 8.05 8.1 7.85 8.25 7.5 8.2 7.1 8.0 7.05 7.95 6.8 7.65 6.8 7.45 6.8 7.25 6.8 7.1 6.75 7.0 6.65 6.9 6.35 6.8 6.45 6.75 6.85 6.65 7.25 6.7 7.55 6.45 7.85 6.4 8.2 6.7 8.4 7.05 8.45 7.15 8.55 7.45 8.5 7.5" fill="#ffffff" fill-rule="evenodd" stroke="none"/>
  </g>
</svg>
