<?xml version="1.0" encoding="UTF-8" standalone="no"?>
<svg xmlns:xlink="http://www.w3.org/1999/xlink" height="21.25px" width="24.6px" xmlns="http://www.w3.org/2000/svg">
  <g transform="matrix(1.0, 0.0, 0.0, 1.0, 7.7, 7.3)">
    <path d="M7.7 -2.05 Q7.7 0.0 6.1 1.25 L3.55 3.4 Q3.45 4.35 2.75 5.3 1.3 7.15 -1.85 7.15 -7.7 7.15 -7.7 -0.7 -7.7 -1.85 -6.6 -2.85 L-2.6 -5.85 Q0.75 -8.2 4.3 -6.7 7.7 -5.15 7.7 -2.05 M6.05 -4.2 Q4.4 -6.45 1.2 -6.45 L-1.15 -5.85 Q-3.45 -5.05 -3.45 -4.0 -3.45 -3.45 -3.1 -3.3 L-2.4 -2.8 -3.1 -2.9 -4.2 -3.2 Q-5.05 -3.2 -5.9 -2.5 -6.9 -1.75 -6.9 -0.55 -6.9 0.3 -6.15 0.75 L-4.3 1.85 -4.7 2.15 -6.25 1.45 -6.35 2.9 Q-6.35 4.4 -5.2 5.55 -3.95 6.8 -1.9 6.8 0.85 6.8 2.25 5.05 3.1 3.9 3.1 3.0 L2.8 2.05 2.4 1.45 2.45 0.95 4.65 0.8 Q6.3 0.6 6.7 -0.15 7.65 -2.15 6.05 -4.2 M14.5 -3.5 L14.6 -3.7 14.9 -3.95 Q15.05 -4.15 15.25 -4.15 L15.75 -4.05 16.25 -3.8 16.75 -3.5 16.85 -3.4 16.9 -3.2 16.9 -2.95 16.9 -2.75 16.9 -2.4 16.9 -1.8 16.85 -1.75 16.0 -1.2 Q14.9 -1.0 14.5 -1.85 14.2 -2.4 14.2 -3.05 L14.3 -3.2 14.5 -3.5 M14.9 -2.35 L15.0 -2.15 15.05 -2.0 15.45 -1.85 Q15.9 -1.75 16.25 -2.05 L16.25 -2.15 16.3 -2.35 16.3 -2.55 16.3 -2.75 16.3 -2.9 16.25 -2.95 16.2 -2.95 16.1 -2.95 16.0 -2.95 15.8 -3.0 15.75 -3.1 15.65 -3.2 15.5 -3.4 15.4 -3.5 15.35 -3.5 15.2 -3.25 15.1 -3.0 15.0 -2.7 14.9 -2.55 14.9 -2.45 14.9 -2.35 M11.1 8.85 L11.0 8.35 11.1 7.95 11.1 7.6 11.0 7.55 10.1 7.5 9.9 7.8 9.7 8.05 9.55 8.35 9.5 8.55 9.4 8.65 9.2 8.75 9.15 8.8 9.55 9.5 10.65 9.65 11.2 9.2 11.1 8.85 M11.55 7.1 L11.8 7.25 11.9 8.5 Q12.05 10.15 10.25 10.2 9.0 10.2 8.65 9.05 8.4 8.3 8.8 7.65 L8.85 7.6 9.0 7.6 9.2 7.55 9.3 7.5 9.35 7.4 9.45 7.35 9.55 7.15 9.7 6.95 10.0 6.85 11.1 6.9 11.55 7.1 M0.5 10.95 L0.65 11.0 1.25 12.05 Q1.5 12.7 1.0 13.35 0.35 14.1 -0.6 13.9 L-0.85 13.55 -1.05 12.95 -1.1 12.3 -1.05 11.85 -0.85 11.65 -0.45 11.3 0.05 11.0 0.25 10.95 0.5 10.95 M0.25 11.7 L0.05 11.8 -0.15 11.9 -0.3 12.0 -0.45 12.2 -0.45 12.35 -0.45 12.55 -0.4 12.85 -0.2 13.2 -0.2 13.25 0.15 13.15 0.35 12.85 0.65 12.4 0.7 12.35 0.65 12.25 0.55 12.05 0.5 11.95 0.3 11.75 0.25 11.7" fill="#000000" fill-rule="evenodd" stroke="none"/>
    <path d="M6.05 -4.2 Q7.65 -2.15 6.7 -0.15 6.3 0.6 4.65 0.8 L2.45 0.95 2.4 1.45 2.8 2.05 3.1 3.0 Q3.1 3.9 2.25 5.05 0.85 6.8 -1.9 6.8 -3.95 6.8 -5.2 5.55 -6.35 4.4 -6.35 2.9 L-6.25 1.45 -4.7 2.15 -4.3 1.85 -6.15 0.75 Q-6.9 0.3 -6.9 -0.55 -6.9 -1.75 -5.9 -2.5 -5.05 -3.2 -4.2 -3.2 L-3.1 -2.9 -2.4 -2.8 -3.1 -3.3 Q-3.45 -3.45 -3.45 -4.0 -3.45 -5.05 -1.15 -5.85 L1.2 -6.45 Q4.4 -6.45 6.05 -4.2 M11.1 8.85 L11.2 9.2 10.65 9.65 9.55 9.5 9.15 8.8 9.2 8.75 9.4 8.65 9.5 8.55 9.55 8.35 9.7 8.05 9.9 7.8 10.1 7.5 11.0 7.55 11.1 7.6 11.1 7.95 11.0 8.35 11.1 8.85 M0.25 11.7 L0.3 11.75 0.5 11.95 0.55 12.05 0.65 12.25 0.7 12.35 0.65 12.4 0.35 12.85 0.15 13.15 -0.2 13.25 -0.2 13.2 -0.4 12.85 -0.45 12.55 -0.45 12.35 -0.45 12.2 -0.3 12.0 -0.15 11.9 0.05 11.8 0.25 11.7" fill="#ffffff" fill-rule="evenodd" stroke="none"/>
  </g>
</svg>
