<?xml version="1.0" encoding="UTF-8" standalone="no"?>
<svg xmlns:xlink="http://www.w3.org/1999/xlink" height="20.75px" width="31.15px" xmlns="http://www.w3.org/2000/svg">
  <g transform="matrix(1.0, 0.0, 0.0, 1.0, 12.7, 7.05)">
    <path d="M7.4 -6.95 L7.75 -7.05 8.25 -7.05 8.95 -6.9 9.5 -6.4 9.55 -6.0 9.4 -5.65 Q8.85 -4.85 7.85 -5.05 7.1 -5.2 6.7 -5.8 L6.7 -6.0 6.7 -6.05 6.85 -6.45 7.4 -6.95 M8.45 -6.4 L8.25 -6.3 8.0 -6.3 7.75 -6.25 7.55 -6.1 7.55 -5.95 7.8 -5.65 Q8.25 -5.45 8.65 -5.8 8.9 -6.0 8.7 -6.25 L8.5 -6.4 8.45 -6.4 M4.75 -1.15 Q4.75 -4.9 0.05 -3.85 -4.65 -2.8 -4.65 -0.4 L-4.5 0.75 Q-4.4 1.15 -3.75 1.15 L-3.05 2.85 Q-2.3 4.5 -1.3 4.5 1.6 4.5 1.85 2.85 2.0 1.95 1.65 0.6 L3.9 0.4 Q4.75 0.15 4.75 -1.15 M1.15 -4.9 Q3.7 -4.9 4.75 -2.85 5.9 -0.85 4.1 0.8 2.85 1.9 2.0 3.6 1.2 4.75 -1.25 4.75 -5.15 4.75 -5.15 -0.5 L-3.5 -2.7 Q-1.3 -4.9 1.15 -4.9 M18.35 0.65 Q18.55 1.1 18.4 1.6 18.2 2.35 17.6 2.9 L17.0 3.2 16.25 2.95 15.75 2.3 Q15.6 2.0 15.75 1.85 L15.65 1.7 15.6 0.95 Q15.75 0.35 16.35 0.2 L16.85 0.2 17.1 0.25 17.5 0.2 17.85 0.2 Q18.2 0.3 18.35 0.65 M17.75 1.1 L17.75 0.95 17.7 0.95 17.0 0.95 16.8 0.9 16.3 0.95 16.25 1.05 16.25 1.25 16.3 1.35 16.35 1.65 16.4 1.9 16.45 1.95 16.6 2.2 16.65 2.4 16.8 2.4 17.05 2.4 17.25 2.3 17.45 2.1 17.55 2.05 17.75 1.75 17.85 1.55 17.9 1.45 17.85 1.35 17.8 1.25 17.8 1.2 17.75 1.1 M4.85 12.3 L5.1 12.6 5.15 12.85 5.1 12.95 5.9 12.9 6.25 12.6 6.85 12.0 7.3 11.25 7.25 11.15 7.2 10.95 7.1 10.85 7.05 10.8 6.95 10.75 6.25 11.0 5.45 11.2 Q5.1 11.3 4.8 11.55 L4.7 11.75 4.7 12.05 4.8 12.2 4.85 12.3 M7.0 10.1 Q8.05 10.4 7.75 11.5 7.5 12.45 6.85 13.1 6.1 13.85 5.0 13.7 L4.8 13.65 4.7 13.55 4.6 13.45 4.55 13.35 4.35 13.15 4.3 13.1 Q4.1 12.45 4.2 11.8 4.35 10.8 5.4 10.55 L7.0 10.1 M-9.45 5.55 L-9.55 5.8 -10.05 6.45 Q-10.35 7.3 -11.3 7.3 -12.2 7.3 -12.3 6.4 L-12.3 6.35 -12.25 6.3 -12.5 6.1 -12.65 5.85 -12.7 5.5 Q-12.65 5.05 -12.25 4.8 L-11.9 4.7 -11.0 4.75 -10.2 4.85 Q-9.75 4.95 -9.5 5.4 L-9.45 5.55 M-11.95 5.85 L-11.95 6.1 -11.9 6.1 -11.7 6.25 -11.6 6.4 -11.55 6.5 -11.25 6.6 Q-10.85 6.65 -10.7 6.35 L-10.75 6.15 -10.55 5.85 -10.3 5.6 -11.3 5.25 -11.8 5.35 -11.9 5.5 -11.95 5.65 -11.95 5.85" fill="#000000" fill-rule="evenodd" stroke="none"/>
    <path d="M8.45 -6.4 L8.5 -6.4 8.7 -6.25 Q8.9 -6.0 8.65 -5.8 8.25 -5.45 7.8 -5.65 L7.55 -5.95 7.55 -6.1 7.75 -6.25 8.0 -6.3 8.25 -6.3 8.45 -6.4 M4.75 -1.15 Q4.75 0.15 3.9 0.4 L1.65 0.6 Q2.0 1.95 1.85 2.85 1.6 4.5 -1.3 4.5 -2.3 4.5 -3.05 2.85 L-3.75 1.15 Q-4.4 1.15 -4.5 0.75 L-4.65 -0.4 Q-4.65 -2.8 0.05 -3.85 4.75 -4.9 4.75 -1.15 M4.85 12.3 L4.8 12.2 4.7 12.05 4.7 11.75 4.8 11.55 Q5.1 11.3 5.45 11.2 L6.25 11.0 6.95 10.75 7.05 10.8 7.1 10.85 7.2 10.95 7.25 11.15 7.3 11.25 6.85 12.0 6.25 12.6 5.9 12.9 5.1 12.95 5.15 12.85 5.1 12.6 4.85 12.3 M-11.95 5.85 L-11.95 5.65 -11.9 5.5 -11.8 5.35 -11.3 5.25 -10.3 5.6 -10.55 5.85 -10.75 6.15 -10.7 6.35 Q-10.85 6.65 -11.25 6.6 L-11.55 6.5 -11.6 6.4 -11.7 6.25 -11.9 6.1 -11.95 6.1 -11.95 5.85" fill="#ffffff" fill-rule="evenodd" stroke="none"/>
  </g>
</svg>
