<?xml version="1.0" encoding="UTF-8" standalone="no"?>
<svg xmlns:xlink="http://www.w3.org/1999/xlink" height="3.5px" width="3.8px" xmlns="http://www.w3.org/2000/svg">
  <g transform="matrix(1.0, 0.0, 0.0, 1.0, 1.9, 1.85)">
    <path d="M0.4 -1.85 Q1.35 -1.85 1.7 -1.15 2.15 -0.4 1.5 0.2 1.05 0.6 0.75 1.25 0.45 1.65 -0.45 1.65 -1.9 1.65 -1.9 -0.25 L-1.3 -1.05 Q-0.5 -1.85 0.4 -1.85 M1.7 -0.5 Q1.7 -1.85 0.05 -1.5 -1.7 -1.1 -1.7 -0.2 L-1.65 0.2 Q-1.6 0.35 -1.35 0.35 L-1.1 0.95 -0.45 1.6 Q0.6 1.6 0.65 0.95 L0.6 0.1 1.45 0.05 1.7 -0.5" fill="#000000" fill-rule="evenodd" stroke="none"/>
    <path d="M1.7 -0.5 L1.45 0.05 0.6 0.1 0.65 0.95 Q0.6 1.6 -0.45 1.6 L-1.1 0.95 -1.35 0.35 Q-1.6 0.35 -1.65 0.2 L-1.7 -0.2 Q-1.7 -1.1 0.05 -1.5 1.7 -1.85 1.7 -0.5" fill="#ffffff" fill-rule="evenodd" stroke="none"/>
  </g>
</svg>
