<?xml version="1.0" encoding="UTF-8" standalone="no"?>
<svg xmlns:xlink="http://www.w3.org/1999/xlink" height="13.8px" width="15.7px" xmlns="http://www.w3.org/2000/svg">
  <g transform="matrix(1.0, 0.0, 0.0, 1.0, 7.85, 6.9)">
    <path d="M1.7 -6.75 L2.35 -6.9 Q5.1 -7.05 6.65 -4.8 8.2 -2.65 7.75 -0.2 7.4 2.15 5.2 3.05 L4.5 3.25 3.15 5.2 Q1.1 7.4 -2.05 6.75 -3.4 6.45 -4.95 5.6 -8.8 3.45 -7.55 -0.8 -6.55 -4.3 -2.95 -5.3 L-1.1 -5.2 -0.85 -5.4 -0.35 -5.85 0.55 -6.4 1.7 -6.75 M1.3 -5.65 L0.7 -5.4 0.1 -4.95 -0.15 -4.6 Q0.2 -4.25 0.2 -3.7 0.2 -3.1 -0.15 -2.65 -1.05 -1.5 -2.45 -1.9 L-2.65 -2.05 -2.7 -2.2 -2.75 -2.35 -2.9 -2.5 -2.9 -2.65 -2.9 -2.8 -2.85 -3.1 -2.65 -3.45 -2.55 -3.6 -2.45 -3.75 -2.25 -4.05 -2.2 -4.2 Q-3.6 -4.6 -5.05 -3.35 L-6.65 -1.55 Q-7.0 -1.05 -6.85 -0.65 -6.4 -0.15 -6.7 0.45 -7.1 1.3 -6.55 2.05 -5.95 2.8 -5.0 3.15 -4.5 3.3 -4.6 3.85 L-4.75 4.05 -5.05 4.1 -5.35 4.05 -5.7 4.0 -6.1 3.85 Q-4.35 5.6 -2.05 5.95 L0.1 5.9 Q1.2 5.75 2.0 5.2 2.8 4.6 3.25 3.6 L3.75 2.4 Q6.45 2.05 6.8 -0.6 7.05 -2.0 6.25 -3.35 L4.25 -5.55 Q3.35 -6.2 2.15 -5.85 L1.3 -5.65 M-1.05 -3.25 L-1.0 -3.35 -0.95 -3.55 -1.0 -3.8 -1.1 -3.85 -1.15 -3.8 -1.45 -3.35 -1.6 -2.9 -1.5 -2.95 -1.15 -3.1 -1.05 -3.25" fill="#000000" fill-rule="evenodd" stroke="none"/>
    <path d="M-1.05 -3.25 L-1.15 -3.1 -1.5 -2.95 -1.6 -2.9 -1.45 -3.35 -1.15 -3.8 -1.1 -3.85 -1.0 -3.8 -0.95 -3.55 -1.0 -3.35 -1.05 -3.25 M1.3 -5.65 L2.15 -5.85 Q3.35 -6.2 4.25 -5.55 L6.25 -3.35 Q7.05 -2.0 6.8 -0.6 6.45 2.05 3.75 2.4 L3.25 3.6 Q2.8 4.6 2.0 5.2 1.2 5.75 0.1 5.9 L-2.05 5.95 Q-4.35 5.6 -6.1 3.85 L-5.7 4.0 -5.35 4.05 -5.05 4.1 -4.75 4.05 -4.6 3.85 Q-4.5 3.3 -5.0 3.15 -5.95 2.8 -6.55 2.05 -7.1 1.3 -6.7 0.45 -6.4 -0.15 -6.85 -0.65 -7.0 -1.05 -6.65 -1.55 L-5.05 -3.35 Q-3.6 -4.6 -2.2 -4.2 L-2.25 -4.05 -2.45 -3.75 -2.55 -3.6 -2.65 -3.45 -2.85 -3.1 -2.9 -2.8 -2.9 -2.65 -2.9 -2.5 -2.75 -2.35 -2.7 -2.2 -2.65 -2.05 -2.45 -1.9 Q-1.05 -1.5 -0.15 -2.65 0.2 -3.1 0.2 -3.7 0.2 -4.25 -0.15 -4.6 L0.1 -4.95 0.7 -5.4 1.3 -5.65" fill="#ffffff" fill-rule="evenodd" stroke="none"/>
  </g>
</svg>
