<?xml version="1.0" encoding="UTF-8" standalone="no"?>
<svg xmlns:xlink="http://www.w3.org/1999/xlink" height="16.6px" width="18.9px" xmlns="http://www.w3.org/2000/svg">
  <g transform="matrix(1.0, 0.0, 0.0, 1.0, 9.45, 8.3)">
    <path d="M0.85 -6.5 L0.1 -5.95 -0.2 -5.55 Q0.25 -5.1 0.25 -4.45 0.25 -3.75 -0.2 -3.2 -1.25 -1.8 -2.95 -2.3 L-3.2 -2.45 -3.25 -2.65 -3.3 -2.85 -3.5 -3.0 -3.5 -3.2 -3.5 -3.35 -3.45 -3.75 -3.2 -4.15 -3.05 -4.35 -2.95 -4.5 -2.7 -4.9 -2.65 -5.05 Q-4.35 -5.55 -6.1 -4.05 L-8.0 -1.85 Q-8.45 -1.25 -8.25 -0.8 -7.7 -0.2 -8.05 0.55 -8.55 1.55 -7.9 2.45 -7.15 3.35 -6.0 3.8 -5.4 3.95 -5.55 4.65 L-5.7 4.9 -6.1 4.95 -6.45 4.9 -6.85 4.8 -7.35 4.65 Q-5.25 6.75 -2.45 7.15 L0.1 7.1 Q1.45 6.9 2.4 6.25 3.35 5.55 3.9 4.35 L4.5 2.9 Q7.75 2.45 8.2 -0.7 8.5 -2.4 7.5 -4.05 6.55 -5.55 5.1 -6.7 4.05 -7.45 2.6 -7.05 L1.55 -6.8 0.85 -6.5 M2.05 -8.15 L2.85 -8.3 Q6.15 -8.5 8.0 -5.8 9.85 -3.2 9.35 -0.25 8.9 2.6 6.25 3.65 L5.4 3.9 3.8 6.25 Q1.3 8.9 -2.45 8.15 -4.1 7.75 -5.95 6.75 -10.6 4.15 -9.1 -0.95 -7.9 -5.2 -3.55 -6.4 L-1.3 -6.25 -1.0 -6.5 -0.4 -7.05 0.65 -7.7 2.05 -8.15 M-1.75 -4.05 L-1.95 -3.5 -1.8 -3.55 Q-1.55 -3.6 -1.4 -3.75 L-1.25 -3.9 -1.2 -4.05 -1.15 -4.25 Q-1.1 -4.45 -1.2 -4.55 L-1.3 -4.65 -1.4 -4.55 -1.75 -4.05" fill="#000000" fill-rule="evenodd" stroke="none"/>
    <path d="M0.85 -6.5 L1.55 -6.8 2.6 -7.05 Q4.05 -7.45 5.1 -6.7 6.55 -5.55 7.5 -4.05 8.5 -2.4 8.2 -0.7 7.75 2.45 4.5 2.9 L3.9 4.35 Q3.35 5.55 2.4 6.25 1.45 6.9 0.1 7.1 L-2.45 7.15 Q-5.25 6.75 -7.35 4.65 L-6.85 4.8 -6.45 4.9 -6.1 4.95 -5.7 4.9 -5.55 4.65 Q-5.4 3.95 -6.0 3.8 -7.15 3.35 -7.9 2.45 -8.55 1.55 -8.05 0.55 -7.7 -0.2 -8.25 -0.8 -8.45 -1.25 -8.0 -1.85 L-6.1 -4.05 Q-4.35 -5.55 -2.65 -5.05 L-2.7 -4.9 -2.95 -4.5 -3.05 -4.35 -3.2 -4.15 -3.45 -3.75 -3.5 -3.35 -3.5 -3.2 -3.5 -3.0 -3.3 -2.85 -3.25 -2.65 -3.2 -2.45 -2.95 -2.3 Q-1.25 -1.8 -0.2 -3.2 0.25 -3.75 0.25 -4.45 0.25 -5.1 -0.2 -5.55 L0.1 -5.95 0.85 -6.5 M-1.75 -4.05 L-1.4 -4.55 -1.3 -4.65 -1.2 -4.55 Q-1.1 -4.45 -1.15 -4.25 L-1.2 -4.05 -1.25 -3.9 -1.4 -3.75 Q-1.55 -3.6 -1.8 -3.55 L-1.95 -3.5 -1.75 -4.05" fill="#ffffff" fill-rule="evenodd" stroke="none"/>
  </g>
</svg>
