<?xml version="1.0" encoding="UTF-8" standalone="no"?>
<svg xmlns:xlink="http://www.w3.org/1999/xlink" height="13.35px" width="13.1px" xmlns="http://www.w3.org/2000/svg">
  <g transform="matrix(1.0, 0.0, 0.0, 1.0, 4.75, 6.7)">
    <path d="M0.75 -3.4 L1.3 -3.55 2.55 -3.35 3.75 -2.0 Q4.25 -1.2 4.1 -0.35 3.85 1.25 2.25 1.45 L1.95 2.15 1.2 3.15 Q0.7 3.45 0.05 3.55 L-1.25 3.55 Q-2.65 3.4 -3.7 2.3 L-3.45 2.4 -3.2 2.45 -3.05 2.5 -2.85 2.45 -2.8 2.3 Q-2.7 2.0 -3.0 1.9 L-3.95 1.25 Q-4.25 0.75 -4.05 0.3 -3.85 -0.1 -4.1 -0.4 L-4.0 -0.95 -3.05 -2.0 Q-2.15 -2.8 -1.35 -2.55 L-1.35 -2.45 -1.5 -2.25 -1.5 -2.15 -1.6 -2.05 -1.75 -1.9 -1.75 -1.65 -1.75 -1.5 -1.65 -1.4 -1.6 -1.35 -1.6 -1.25 -1.5 -1.15 Q-0.6 -0.9 -0.1 -1.6 L0.1 -2.25 -0.1 -2.8 0.05 -2.95 0.45 -3.25 0.75 -3.4 M6.8 -2.9 L6.95 -2.8 7.3 -2.6 7.9 -2.7 7.95 -2.55 8.05 -2.2 7.95 -1.8 Q7.7 -1.4 7.3 -1.65 L7.55 -1.65 7.65 -1.7 7.7 -1.75 7.6 -1.85 7.4 -2.0 7.35 -2.1 7.3 -2.15 7.2 -2.15 7.1 -2.1 7.0 -2.05 6.75 -2.15 6.55 -2.25 6.45 -2.35 6.5 -2.55 6.6 -2.75 6.8 -2.9 M-3.0 -6.25 L-2.9 -6.35 -2.8 -6.4 -1.9 -6.2 -1.6 -5.9 -1.95 -5.45 -2.95 -5.55 -2.95 -5.8 -2.9 -5.9 -2.9 -6.0 -3.0 -6.05 -3.0 -6.1 -3.0 -6.25 M4.35 3.35 L4.55 3.5 4.45 3.8 Q4.25 4.1 3.95 4.0 L3.6 4.05 3.55 4.0 3.5 3.95 3.45 3.9 3.35 3.9 3.3 3.95 3.25 4.0 3.25 4.05 3.1 4.05 3.1 4.0 3.05 3.9 3.05 3.6 3.25 3.35 3.55 3.25 4.35 3.35 M-0.95 -1.75 L-0.85 -2.0 -0.7 -2.25 -0.65 -2.3 -0.6 -2.25 -0.6 -2.15 -0.6 -2.0 -0.6 -1.95 -0.7 -1.9 -0.9 -1.75 -0.95 -1.75 M-4.35 5.9 L-4.3 5.85 -4.3 5.6 -4.2 5.35 -3.95 5.2 -3.5 5.25 Q-3.1 5.35 -3.0 5.75 -2.85 6.1 -3.25 6.3 -4.0 6.65 -4.35 5.9" fill="#ffffff" fill-rule="evenodd" stroke="none"/>
    <path d="M1.0 -4.1 L1.4 -4.15 Q3.05 -4.25 4.0 -2.9 4.9 -1.6 4.7 -0.1 4.45 1.3 3.15 1.85 L2.7 1.95 1.9 3.15 Q0.65 4.45 -1.25 4.1 L-2.95 3.4 Q-5.3 2.05 -4.55 -0.45 -3.95 -2.6 -1.75 -3.2 L-0.65 -3.15 -0.5 -3.25 -0.2 -3.55 0.3 -3.85 1.0 -4.1 M0.75 -3.4 L0.45 -3.25 0.05 -2.95 -0.1 -2.8 0.1 -2.25 -0.1 -1.6 Q-0.6 -0.9 -1.5 -1.15 L-1.6 -1.25 -1.6 -1.35 -1.65 -1.4 -1.75 -1.5 -1.75 -1.65 -1.75 -1.9 -1.6 -2.05 -1.5 -2.15 -1.5 -2.25 -1.35 -2.45 -1.35 -2.55 Q-2.15 -2.8 -3.05 -2.0 L-4.0 -0.95 -4.1 -0.4 Q-3.85 -0.1 -4.05 0.3 -4.25 0.75 -3.95 1.25 L-3.0 1.9 Q-2.7 2.0 -2.8 2.3 L-2.85 2.45 -3.05 2.5 -3.2 2.45 -3.45 2.4 -3.7 2.3 Q-2.65 3.4 -1.25 3.55 L0.05 3.55 Q0.7 3.45 1.2 3.15 L1.95 2.15 2.25 1.45 Q3.85 1.25 4.1 -0.35 4.25 -1.2 3.75 -2.0 L2.55 -3.35 1.3 -3.55 0.75 -3.4 M6.95 -3.15 L7.1 -3.05 7.25 -2.85 7.35 -2.8 7.5 -2.85 7.7 -2.95 7.95 -2.95 8.35 -2.35 Q8.4 -1.95 8.1 -1.6 7.45 -0.9 6.95 -1.75 L6.9 -1.8 6.3 -2.15 6.2 -2.45 6.55 -3.05 6.8 -3.15 6.95 -3.15 M6.8 -2.9 L6.6 -2.75 6.5 -2.55 6.45 -2.35 6.55 -2.25 6.75 -2.15 7.0 -2.05 7.1 -2.1 7.2 -2.15 7.3 -2.15 7.35 -2.1 7.4 -2.0 7.6 -1.85 7.7 -1.75 7.65 -1.7 7.55 -1.65 7.3 -1.65 Q7.7 -1.4 7.95 -1.8 L8.05 -2.2 7.95 -2.55 7.9 -2.7 7.3 -2.6 6.95 -2.8 6.8 -2.9 M4.05 3.0 L4.45 3.1 Q4.6 3.15 4.75 3.3 L4.75 3.45 Q4.75 3.85 4.4 4.1 L3.0 4.25 2.85 4.15 2.85 4.1 2.8 3.9 2.8 3.55 Q2.9 3.25 3.15 3.1 L3.55 3.0 4.05 3.0 M4.35 3.35 L3.55 3.25 3.25 3.35 3.05 3.6 3.05 3.9 3.1 4.0 3.1 4.05 3.25 4.05 3.25 4.0 3.3 3.95 3.35 3.9 3.45 3.9 3.5 3.95 3.55 4.0 3.6 4.05 3.95 4.0 Q4.25 4.1 4.45 3.8 L4.55 3.5 4.35 3.35 M-3.0 -6.25 L-3.0 -6.1 -3.0 -6.05 -2.9 -6.0 -2.9 -5.9 -2.95 -5.8 -2.95 -5.55 -1.95 -5.45 -1.6 -5.9 -1.9 -6.2 -2.8 -6.4 -2.9 -6.35 -3.0 -6.25 M-1.75 -5.3 Q-2.75 -4.65 -3.2 -5.7 -3.5 -6.45 -2.75 -6.7 -1.55 -6.7 -1.5 -5.7 L-1.75 -5.3 M-0.95 -1.75 L-0.9 -1.75 -0.7 -1.9 -0.6 -1.95 -0.6 -2.0 -0.6 -2.15 -0.6 -2.25 -0.65 -2.3 -0.7 -2.25 -0.85 -2.0 -0.95 -1.75 M-3.95 4.95 Q-2.7 4.95 -2.8 6.0 -2.8 6.4 -3.15 6.5 -4.3 6.95 -4.5 5.85 -4.65 5.15 -3.95 4.95 M-4.35 5.9 Q-4.0 6.65 -3.25 6.3 -2.85 6.1 -3.0 5.75 -3.1 5.35 -3.5 5.25 L-3.95 5.2 -4.2 5.35 -4.3 5.6 -4.3 5.85 -4.35 5.9" fill="#000000" fill-rule="evenodd" stroke="none"/>
  </g>
</svg>
