<?xml version="1.0" encoding="UTF-8" standalone="no"?>
<svg xmlns:xlink="http://www.w3.org/1999/xlink" height="13.5px" width="14.95px" xmlns="http://www.w3.org/2000/svg">
  <g transform="matrix(1.0, 0.0, 0.0, 1.0, 5.5, 7.1)">
    <path d="M3.4 -7.1 Q4.0 -7.1 4.0 -6.5 L3.65 -6.0 Q3.1 -5.75 2.7 -6.2 L2.6 -6.55 2.6 -6.6 2.75 -6.85 3.3 -7.1 3.4 -7.1 M2.9 -6.65 L2.9 -6.4 2.95 -6.4 3.05 -6.45 3.2 -6.6 3.45 -6.55 3.45 -6.4 3.35 -6.4 3.25 -6.25 3.25 -6.2 3.5 -6.2 3.8 -6.4 3.85 -6.5 3.8 -6.55 3.8 -6.6 3.7 -6.7 3.6 -6.85 3.55 -6.85 3.45 -6.85 3.35 -6.85 3.15 -6.8 3.0 -6.75 2.95 -6.7 2.95 -6.65 2.9 -6.65 M-2.65 -2.65 Q-1.45 -3.6 0.05 -4.05 5.05 -5.55 5.05 -0.85 2.05 4.4 -0.1 4.4 -2.35 4.4 -3.7 3.25 -4.95 2.2 -4.95 0.8 -4.95 -0.1 -4.35 -1.0 L-4.35 0.05 Q-4.35 0.7 -2.95 2.3 L-3.0 2.6 -3.9 2.45 Q-2.0 3.75 -0.65 3.75 0.1 3.75 2.05 2.3 4.35 0.55 4.35 -1.2 4.35 -1.95 3.4 -2.85 2.45 -3.75 1.7 -3.75 L0.05 -3.45 Q-0.5 -1.55 -1.1 -1.1 L-1.7 -1.3 Q-1.85 -0.8 -1.85 -1.8 L-1.7 -2.5 -1.4 -2.7 -2.65 -2.65 M8.7 -3.1 L8.65 -3.1 8.65 -3.05 8.6 -3.0 8.65 -2.85 8.75 -2.75 8.75 -2.7 8.7 -2.7 8.7 -2.6 8.65 -2.55 8.65 -2.5 8.85 -2.55 9.1 -2.75 9.2 -3.0 9.2 -3.1 9.2 -3.15 9.15 -3.2 9.0 -3.2 8.9 -3.2 8.75 -3.15 8.7 -3.1 M8.65 -3.45 L9.3 -3.3 Q9.6 -3.05 9.35 -2.7 L8.8 -2.2 8.75 -2.2 8.45 -2.3 8.3 -2.75 8.4 -3.25 8.65 -3.45 M5.55 2.25 L5.6 2.2 5.5 2.0 5.3 1.85 5.05 1.8 4.85 1.8 4.8 1.85 4.75 1.9 4.75 2.15 4.8 2.15 4.9 2.2 5.0 2.3 5.0 2.45 4.9 2.55 5.0 2.55 5.4 2.45 5.55 2.25 M5.75 2.25 Q5.55 2.8 5.0 2.8 4.65 2.8 4.6 2.5 L4.5 2.35 4.5 2.25 4.5 2.2 4.5 2.1 4.5 2.0 4.5 1.95 4.5 1.8 4.55 1.7 4.7 1.6 4.85 1.55 5.1 1.5 5.25 1.55 5.45 1.65 5.65 1.75 5.7 1.8 5.75 2.25 M1.1 5.5 L1.45 5.55 1.6 5.95 1.6 6.35 1.55 6.4 1.45 6.4 1.2 6.4 1.15 6.35 1.1 6.3 1.05 6.25 1.05 6.2 0.9 6.2 0.85 6.15 0.8 6.1 0.8 6.0 0.8 5.9 0.8 5.8 0.8 5.7 0.9 5.65 0.95 5.55 1.05 5.5 1.1 5.5 M1.15 5.75 L1.1 5.8 1.05 5.8 1.05 5.9 1.1 5.95 1.25 6.0 1.3 6.05 1.3 6.15 1.4 6.05 1.35 5.9 1.25 5.8 1.15 5.75 M-3.9 -6.7 L-3.6 -6.85 -3.55 -6.85 Q-3.2 -6.85 -3.05 -6.55 -2.9 -6.2 -3.15 -5.95 -3.4 -5.7 -3.7 -5.7 L-3.75 -5.7 -3.85 -5.8 -3.95 -5.95 -4.05 -6.15 -4.1 -6.3 -4.05 -6.45 -3.9 -6.7 M-3.8 -6.25 L-3.75 -6.2 -3.75 -6.15 -3.7 -6.1 -3.6 -6.05 -3.55 -6.05 -3.5 -6.0 -3.45 -6.0 -3.4 -6.05 -3.35 -6.05 -3.3 -6.1 -3.3 -6.15 -3.25 -6.15 -3.3 -6.25 -3.35 -6.35 -3.4 -6.5 -3.5 -6.6 -3.55 -6.6 -3.65 -6.5 -3.7 -6.45 -3.8 -6.35 -3.8 -6.25 M-0.6 -2.1 L-0.6 -2.4 -0.7 -2.45 -1.0 -1.85 -0.95 -1.85 -0.6 -2.1 M-4.75 5.3 L-4.65 5.5 -4.65 5.85 -4.85 6.05 -4.95 6.1 -5.0 6.1 -5.15 6.05 -5.35 5.9 -5.4 5.85 -5.4 5.75 -5.45 5.65 -5.5 5.5 -5.45 5.35 -5.4 5.3 -5.4 5.25 -5.35 5.25 -5.3 5.2 -5.25 5.2 -4.9 5.2 -4.8 5.25 -4.75 5.3 M-4.95 5.55 L-5.0 5.65 -5.05 5.8 -5.0 5.8 -4.9 5.75 -4.9 5.6 -4.95 5.45 -5.0 5.45 -4.95 5.55" fill="#000000" fill-rule="evenodd" stroke="none"/>
    <path d="M2.9 -6.65 L2.95 -6.65 2.95 -6.7 3.0 -6.75 3.15 -6.8 3.35 -6.85 3.45 -6.85 3.55 -6.85 3.6 -6.85 3.7 -6.7 3.8 -6.6 3.8 -6.55 3.85 -6.5 3.8 -6.4 3.5 -6.2 3.25 -6.2 3.25 -6.25 3.35 -6.4 3.45 -6.4 3.45 -6.55 3.2 -6.6 3.05 -6.45 2.95 -6.4 2.9 -6.4 2.9 -6.65 M-2.65 -2.65 L-1.4 -2.7 -1.7 -2.5 -1.85 -1.8 Q-1.85 -0.8 -1.7 -1.3 L-1.1 -1.1 Q-0.5 -1.55 0.05 -3.45 L1.7 -3.75 Q2.45 -3.75 3.4 -2.85 4.35 -1.95 4.35 -1.2 4.35 0.55 2.05 2.3 0.1 3.75 -0.65 3.75 -2.0 3.75 -3.9 2.45 L-3.0 2.6 -2.95 2.3 Q-4.35 0.7 -4.35 0.05 L-4.35 -1.0 -3.4 -2.1 -2.65 -2.65 M8.7 -3.1 L8.75 -3.15 8.9 -3.2 9.0 -3.2 9.15 -3.2 9.2 -3.15 9.2 -3.1 9.2 -3.0 9.1 -2.75 8.85 -2.55 8.65 -2.5 8.65 -2.55 8.7 -2.6 8.7 -2.7 8.75 -2.7 8.75 -2.75 8.65 -2.85 8.6 -3.0 8.65 -3.05 8.65 -3.1 8.7 -3.1 M5.55 2.25 L5.4 2.45 5.0 2.55 4.9 2.55 5.0 2.45 5.0 2.3 4.9 2.2 4.8 2.15 4.75 2.15 4.75 1.9 4.8 1.85 4.85 1.8 5.05 1.8 5.3 1.85 5.5 2.0 5.6 2.2 5.55 2.25 M1.15 5.75 L1.25 5.8 1.35 5.9 1.4 6.05 1.3 6.15 1.3 6.05 1.25 6.0 1.1 5.95 1.05 5.9 1.05 5.8 1.1 5.8 1.15 5.75 M-3.8 -6.25 L-3.8 -6.35 -3.7 -6.45 -3.65 -6.5 -3.55 -6.6 -3.5 -6.6 -3.4 -6.5 -3.35 -6.35 -3.3 -6.25 -3.25 -6.15 -3.3 -6.15 -3.3 -6.1 -3.35 -6.05 -3.4 -6.05 -3.45 -6.0 -3.5 -6.0 -3.55 -6.05 -3.6 -6.05 -3.7 -6.1 -3.75 -6.15 -3.75 -6.2 -3.8 -6.25 M-0.6 -2.1 L-0.95 -1.85 -1.0 -1.85 -0.7 -2.45 -0.6 -2.4 -0.6 -2.1 M-4.95 5.55 L-5.0 5.45 -4.95 5.45 -4.9 5.6 -4.9 5.75 -5.0 5.8 -5.05 5.8 -5.0 5.65 -4.95 5.55" fill="#ffffff" fill-rule="evenodd" stroke="none"/>
  </g>
</svg>
