<?xml version="1.0" encoding="UTF-8" standalone="no"?>
<svg xmlns:xlink="http://www.w3.org/1999/xlink" height="12.15px" width="15.8px" xmlns="http://www.w3.org/2000/svg">
  <g transform="matrix(1.0, 0.0, 0.0, 1.0, 6.95, 7.4)">
    <path d="M5.25 -7.05 L5.2 -7.05 5.2 -7.0 5.15 -6.95 5.15 -6.85 5.2 -6.75 5.25 -6.7 5.3 -6.65 5.4 -6.75 5.45 -6.9 5.4 -7.1 5.3 -7.1 5.25 -7.05 M5.35 -7.4 L5.4 -7.4 5.5 -7.35 5.55 -7.35 5.7 -6.95 5.5 -6.45 Q5.25 -6.2 5.0 -6.45 L4.9 -6.55 4.9 -6.6 4.9 -6.7 4.85 -6.8 4.85 -6.9 4.85 -7.05 5.05 -7.2 5.25 -7.4 5.35 -7.4 M1.6 -4.85 L1.8 -4.75 1.95 -4.55 2.0 -4.45 1.75 -4.15 Q1.3 -3.9 1.05 -4.35 L1.1 -4.7 1.4 -4.85 1.6 -4.85 M1.6 -4.55 L1.45 -4.6 1.4 -4.55 1.4 -4.45 1.4 -4.35 1.45 -4.35 1.6 -4.35 1.65 -4.4 1.65 -4.5 1.6 -4.55 M-2.6 -0.6 L-2.6 0.05 Q-2.6 0.4 -1.8 1.4 L-1.8 1.55 -2.35 1.5 Q-1.2 2.25 -0.4 2.25 L1.25 1.4 Q2.6 0.35 2.6 -0.7 L2.05 -1.7 Q1.5 -2.25 1.0 -2.25 L0.05 -2.1 Q-0.3 -0.95 -0.65 -0.65 L-1.0 -0.8 -1.1 -1.1 -1.0 -1.5 -0.85 -1.65 -1.6 -1.6 Q-0.85 -2.15 0.05 -2.45 3.05 -3.35 3.05 -0.5 1.25 2.65 -0.05 2.65 -1.4 2.65 -2.25 1.95 -3.0 1.35 -3.0 0.5 -3.0 -0.05 -2.6 -0.6 M6.3 -0.45 L6.55 -0.55 6.8 -0.55 6.9 -0.6 7.3 -0.8 7.8 -0.95 7.95 -0.95 Q8.85 -0.95 8.85 -0.1 L8.65 0.1 7.9 0.3 6.45 0.15 6.2 -0.1 6.2 -0.15 6.2 -0.3 6.3 -0.45 M6.5 -0.1 L6.6 -0.05 8.25 0.0 8.7 -0.2 8.65 -0.35 8.6 -0.45 8.5 -0.55 7.95 -0.7 7.9 -0.7 7.5 -0.6 7.05 -0.4 6.7 -0.15 Q6.6 -0.1 6.55 -0.2 L6.5 -0.2 6.5 -0.1 M0.7 3.8 L0.65 3.8 0.45 3.8 0.4 3.8 0.35 3.85 0.25 3.9 0.2 3.95 0.1 4.05 0.1 4.15 0.05 4.3 0.0 4.45 0.0 4.5 0.3 4.5 0.7 4.15 0.75 3.9 0.7 3.85 0.7 3.8 M0.8 4.35 Q0.3 5.05 -0.15 4.5 -0.45 4.1 -0.05 3.8 L0.4 3.55 Q1.3 3.65 0.8 4.35 M-6.75 -6.3 L-6.7 -6.4 -6.6 -6.55 -6.4 -6.8 -6.3 -6.8 -6.0 -6.8 -5.75 -6.75 -5.55 -6.55 -5.5 -6.5 -5.55 -6.35 -5.95 -6.0 -6.6 -6.05 -6.7 -6.25 -6.75 -6.3 M-6.3 -6.45 L-6.25 -6.4 -6.1 -6.3 -6.05 -6.25 -6.0 -6.3 -5.85 -6.4 -5.85 -6.45 -5.9 -6.5 -6.25 -6.55 -6.3 -6.45 M-3.85 -4.35 L-3.85 -4.2 -4.0 -4.2 -4.1 -4.25 -4.1 -4.35 -4.05 -4.4 -4.0 -4.4 -3.85 -4.35 M-0.4 -1.5 L-0.6 -1.1 -0.55 -1.1 -0.35 -1.25 -0.35 -1.45 -0.4 -1.5 M-5.7 3.05 L-5.4 3.15 -5.25 3.3 -5.25 3.35 -5.2 3.4 -5.2 3.55 -5.15 3.6 -5.45 4.0 -6.85 3.9 Q-7.05 3.7 -6.85 3.45 -6.6 3.1 -6.2 3.05 L-5.7 3.05 M-5.65 3.35 L-6.25 3.3 -6.35 3.35 -6.4 3.4 -6.45 3.45 -6.4 3.55 -6.45 3.6 -6.45 3.65 -6.5 3.65 -6.55 3.75 -6.55 3.85 -6.55 3.95 -6.45 4.05 -5.6 3.85 -5.45 3.5 -5.45 3.45 -5.65 3.35" fill="#000000" fill-rule="evenodd" stroke="none"/>
    <path d="M5.25 -7.05 L5.3 -7.1 5.4 -7.1 5.45 -6.9 5.4 -6.75 5.3 -6.65 5.25 -6.7 5.2 -6.75 5.15 -6.85 5.15 -6.95 5.2 -7.0 5.2 -7.05 5.25 -7.05 M1.6 -4.55 L1.65 -4.5 1.65 -4.4 1.6 -4.35 1.45 -4.35 1.4 -4.35 1.4 -4.45 1.4 -4.55 1.45 -4.6 1.6 -4.55 M-1.6 -1.6 L-0.85 -1.65 -1.0 -1.5 -1.1 -1.1 -1.0 -0.8 -0.65 -0.65 Q-0.3 -0.95 0.05 -2.1 L1.0 -2.25 Q1.5 -2.25 2.05 -1.7 L2.6 -0.7 Q2.6 0.35 1.25 1.4 L-0.4 2.25 Q-1.2 2.25 -2.35 1.5 L-1.8 1.55 -1.8 1.4 Q-2.6 0.4 -2.6 0.05 L-2.6 -0.6 -2.05 -1.25 -1.6 -1.6 M0.7 3.8 L0.7 3.85 0.75 3.9 0.7 4.15 0.3 4.5 0.0 4.5 0.0 4.45 0.05 4.3 0.1 4.15 0.1 4.05 0.2 3.95 0.25 3.9 0.35 3.85 0.4 3.8 0.45 3.8 0.65 3.8 0.7 3.8 M6.5 -0.1 L6.5 -0.2 6.55 -0.2 Q6.6 -0.1 6.7 -0.15 L7.05 -0.4 7.5 -0.6 7.9 -0.7 7.95 -0.7 8.5 -0.55 8.6 -0.45 8.65 -0.35 8.7 -0.2 8.25 0.0 6.6 -0.05 6.5 -0.1 M-6.3 -6.45 L-6.25 -6.55 -5.9 -6.5 -5.85 -6.45 -5.85 -6.4 -6.0 -6.3 -6.05 -6.25 -6.1 -6.3 -6.25 -6.4 -6.3 -6.45 M-0.4 -1.5 L-0.35 -1.45 -0.35 -1.25 -0.55 -1.1 -0.6 -1.1 -0.4 -1.5 M-5.65 3.35 L-5.45 3.45 -5.45 3.5 -5.6 3.85 -6.45 4.05 -6.55 3.95 -6.55 3.85 -6.55 3.75 -6.5 3.65 -6.45 3.65 -6.45 3.6 -6.4 3.55 -6.45 3.45 -6.4 3.4 -6.35 3.35 -6.25 3.3 -5.65 3.35" fill="#ffffff" fill-rule="evenodd" stroke="none"/>
  </g>
</svg>
