<?xml version="1.0" encoding="UTF-8" standalone="no"?>
<svg xmlns:xlink="http://www.w3.org/1999/xlink" height="10.3px" width="11.35px" xmlns="http://www.w3.org/2000/svg">
  <g transform="matrix(1.0, 0.0, 0.0, 1.0, 7.0, 5.45)">
    <path d="M3.0 -5.45 L3.1 -5.4 3.25 -5.35 3.35 -5.3 3.4 -5.3 3.4 -5.15 3.45 -5.1 3.35 -4.95 2.9 -4.65 2.4 -4.8 2.4 -5.05 2.4 -5.15 2.45 -5.2 2.5 -5.3 2.7 -5.4 2.9 -5.45 3.0 -5.45 M2.9 -5.2 L2.8 -5.15 2.75 -5.05 2.7 -4.95 2.65 -4.9 2.9 -4.9 3.0 -4.95 3.05 -5.0 3.1 -5.0 3.1 -5.1 3.15 -5.1 3.1 -5.15 3.0 -5.2 2.9 -5.2 M1.7 -3.95 L2.15 -3.95 2.5 -3.7 2.65 -3.5 2.4 -3.15 1.3 -3.1 1.1 -3.55 1.45 -4.0 1.7 -3.95 M1.65 -3.1 Q2.0 -3.0 2.2 -3.25 L2.3 -3.45 2.35 -3.5 2.25 -3.65 1.7 -3.7 1.55 -3.6 1.5 -3.5 1.4 -3.4 1.4 -3.35 Q1.45 -3.15 1.65 -3.1 M-0.75 -0.75 L0.0 -1.15 Q1.45 -1.6 1.45 -0.25 0.6 1.25 0.0 1.25 L-1.05 0.9 -1.4 0.25 -1.25 -0.3 -1.25 0.0 -0.85 0.65 -0.85 0.75 -1.1 0.7 -0.2 1.05 0.6 0.65 Q1.25 0.15 1.25 -0.35 L0.95 -0.8 0.45 -1.05 0.0 -1.0 -0.3 -0.3 -0.45 -0.4 -0.5 -0.5 -0.45 -0.7 -0.4 -0.8 -0.75 -0.75 M3.5 -0.35 L3.85 -0.4 3.95 -0.4 4.05 -0.35 4.2 -0.3 4.3 -0.15 4.35 -0.1 4.25 0.1 Q4.0 0.45 3.55 0.4 L3.25 0.3 3.25 0.1 3.25 0.0 3.25 -0.1 3.3 -0.2 3.5 -0.35 M3.6 -0.05 L3.5 0.05 3.5 0.1 3.75 0.15 4.0 0.0 4.05 -0.05 4.0 -0.1 3.95 -0.1 3.85 -0.15 3.8 -0.15 3.7 -0.1 3.6 -0.05 M1.95 3.0 L2.0 2.95 2.05 2.9 2.15 2.85 2.2 2.85 Q2.9 2.75 2.8 3.35 2.75 3.95 2.2 3.85 L1.85 3.5 1.85 3.0 1.95 3.0 M2.15 3.35 L2.1 3.5 2.15 3.55 2.15 3.6 2.2 3.65 2.25 3.65 2.3 3.7 2.5 3.6 2.6 3.4 2.6 3.2 2.6 3.15 2.5 3.1 2.2 3.1 2.2 3.25 2.15 3.35 M-0.3 -0.5 L-0.25 -0.5 -0.15 -0.6 -0.15 -0.7 -0.2 -0.7 -0.3 -0.5 M-1.1 4.6 L-1.1 4.7 -1.25 4.8 -1.5 4.85 -1.8 4.75 -1.85 4.7 -1.85 4.65 -1.9 4.6 -1.9 4.4 -1.85 4.35 -1.85 4.25 -1.8 4.2 -1.8 4.15 -1.7 4.15 -1.4 4.15 Q-1.2 4.2 -1.15 4.3 -1.05 4.45 -1.1 4.6 M-1.6 4.55 L-1.5 4.6 -1.4 4.55 -1.3 4.5 -1.4 4.4 -1.6 4.4 -1.6 4.55 M-6.25 4.1 L-6.3 4.05 -6.4 3.95 -6.55 3.95 -6.6 4.0 -6.65 4.05 -6.65 4.15 -6.55 4.25 -6.3 4.15 -6.25 4.1 M-6.75 3.6 Q-6.15 3.6 -6.15 4.1 -6.1 4.6 -6.65 4.4 -7.15 4.2 -6.9 3.7 L-6.75 3.6" fill="#000000" fill-rule="evenodd" stroke="none"/>
    <path d="M2.9 -5.2 L3.0 -5.2 3.1 -5.15 3.15 -5.1 3.1 -5.1 3.1 -5.0 3.05 -5.0 3.0 -4.95 2.9 -4.9 2.65 -4.9 2.7 -4.95 2.75 -5.05 2.8 -5.15 2.9 -5.2 M1.65 -3.1 Q1.45 -3.15 1.4 -3.35 L1.4 -3.4 1.5 -3.5 1.55 -3.6 1.7 -3.7 2.25 -3.65 2.35 -3.5 2.3 -3.45 2.2 -3.25 Q2.0 -3.0 1.65 -3.1 M-0.75 -0.75 L-0.4 -0.8 -0.45 -0.7 -0.5 -0.5 -0.45 -0.4 -0.3 -0.3 0.0 -1.0 0.45 -1.05 0.95 -0.8 1.25 -0.35 Q1.25 0.15 0.6 0.65 L-0.2 1.05 -1.1 0.7 -0.85 0.75 -0.85 0.65 -1.25 0.0 -1.25 -0.3 -0.95 -0.6 -0.75 -0.75 M3.6 -0.05 L3.7 -0.1 3.8 -0.15 3.85 -0.15 3.95 -0.1 4.0 -0.1 4.05 -0.05 4.0 0.0 3.75 0.15 3.5 0.1 3.5 0.05 3.6 -0.05 M2.15 3.35 L2.2 3.25 2.2 3.1 2.5 3.1 2.6 3.15 2.6 3.2 2.6 3.4 2.5 3.6 2.3 3.7 2.25 3.65 2.2 3.65 2.15 3.6 2.15 3.55 2.1 3.5 2.15 3.35 M-0.3 -0.5 L-0.2 -0.7 -0.15 -0.7 -0.15 -0.6 -0.25 -0.5 -0.3 -0.5 M-6.25 4.1 L-6.3 4.15 -6.55 4.25 -6.65 4.15 -6.65 4.05 -6.6 4.0 -6.55 3.95 -6.4 3.95 -6.3 4.05 -6.25 4.1 M-1.6 4.55 L-1.6 4.4 -1.4 4.4 -1.3 4.5 -1.4 4.55 -1.5 4.6 -1.6 4.55" fill="#ffffff" fill-rule="evenodd" stroke="none"/>
  </g>
</svg>
