<?xml version="1.0" encoding="UTF-8" standalone="no"?>
<svg xmlns:xlink="http://www.w3.org/1999/xlink" height="17.55px" width="18.4px" xmlns="http://www.w3.org/2000/svg">
  <g transform="matrix(1.0, 0.0, 0.0, 1.0, 9.2, 8.75)">
    <path d="M0.4 -7.65 Q-0.75 -7.65 -1.7 -6.95 L-3.4 -5.45 Q-4.25 -4.55 -4.25 -3.45 L-4.3 -3.35 -4.45 -3.3 -4.65 -3.25 -5.15 -3.4 -5.3 -3.5 -5.4 -3.6 -5.75 -3.75 Q-7.2 -3.5 -7.85 -2.2 -8.6 -0.75 -7.65 0.6 -6.35 2.4 -4.0 2.6 -3.55 2.65 -3.5 3.1 L-3.55 3.25 -3.7 3.35 -5.2 3.5 -5.9 3.4 Q-6.45 4.25 -6.05 5.15 -4.35 8.85 -0.25 7.0 0.95 6.45 1.95 5.45 L2.15 5.4 2.55 5.4 2.8 5.5 2.95 5.65 3.05 5.85 3.25 6.1 3.6 6.45 4.05 6.8 4.35 6.95 5.5 6.6 6.55 5.65 Q7.65 4.2 8.1 2.5 8.5 1.15 7.35 0.3 6.4 -0.5 5.5 -0.85 L5.25 -0.65 5.05 -0.6 4.8 -0.6 4.55 -0.7 4.35 -0.85 4.35 -0.95 4.85 -2.2 Q5.4 -3.35 4.85 -4.55 4.2 -6.15 2.7 -7.1 1.65 -7.75 0.4 -7.65 M3.45 -7.85 Q4.7 -7.0 5.5 -5.75 L5.7 -5.45 Q6.5 -4.1 6.15 -2.45 L6.05 -2.15 8.4 0.5 Q10.05 2.85 8.35 5.5 7.05 7.5 5.5 7.75 4.3 7.9 2.95 7.05 L1.95 6.9 1.05 7.85 Q0.0 8.6 -1.35 8.75 -3.85 8.95 -5.35 7.85 -6.55 6.95 -7.05 5.1 -7.4 3.8 -6.9 2.75 L-8.45 1.05 Q-9.35 -0.1 -9.15 -1.55 -8.9 -3.9 -6.55 -4.75 -5.85 -5.0 -5.15 -4.75 L-4.65 -5.6 -3.55 -6.85 Q-2.45 -8.0 -0.9 -8.35 L0.5 -8.75 Q2.15 -8.7 3.45 -7.85" fill="#000000" fill-rule="evenodd" stroke="none"/>
    <path d="M0.4 -7.65 Q1.65 -7.75 2.7 -7.1 4.2 -6.15 4.85 -4.55 5.4 -3.35 4.85 -2.2 L4.35 -0.95 4.35 -0.85 4.55 -0.7 4.8 -0.6 5.05 -0.6 5.25 -0.65 5.5 -0.85 Q6.4 -0.5 7.35 0.3 8.5 1.15 8.1 2.5 7.65 4.2 6.55 5.65 L5.5 6.6 4.35 6.95 4.05 6.8 3.6 6.45 3.25 6.1 3.05 5.85 2.95 5.65 2.8 5.5 2.55 5.4 2.15 5.4 1.95 5.45 Q0.95 6.45 -0.25 7.0 -4.35 8.85 -6.05 5.15 -6.45 4.25 -5.9 3.4 L-5.2 3.5 -3.7 3.35 -3.55 3.25 -3.5 3.1 Q-3.55 2.65 -4.0 2.6 -6.35 2.4 -7.65 0.6 -8.6 -0.75 -7.85 -2.2 -7.2 -3.5 -5.75 -3.75 L-5.4 -3.6 -5.3 -3.5 -5.15 -3.4 -4.65 -3.25 -4.45 -3.3 -4.3 -3.35 -4.25 -3.45 Q-4.25 -4.55 -3.4 -5.45 L-1.7 -6.95 Q-0.75 -7.65 0.4 -7.65" fill="#ffffff" fill-rule="evenodd" stroke="none"/>
  </g>
</svg>
