<?xml version="1.0" encoding="UTF-8" standalone="no"?>
<svg xmlns:xlink="http://www.w3.org/1999/xlink" height="17.55px" width="18.05px" xmlns="http://www.w3.org/2000/svg">
  <g transform="matrix(1.0, 0.0, 0.0, 1.0, 6.85, 6.5)">
    <path d="M7.6 -5.35 Q7.75 -5.55 8.0 -5.55 L8.15 -5.5 8.4 -5.15 8.4 -4.9 8.5 -4.55 8.6 -4.4 8.45 -4.0 8.05 -3.55 7.6 -3.35 Q7.4 -3.35 7.45 -3.55 7.65 -3.7 7.45 -3.9 L7.2 -4.2 7.0 -4.5 6.95 -4.65 7.05 -4.85 7.35 -5.15 7.6 -5.35 M0.3 -5.7 Q1.25 -5.75 2.0 -5.3 3.15 -4.6 3.6 -3.4 4.0 -2.5 3.6 -1.65 L3.25 -0.7 3.25 -0.65 3.4 -0.5 3.55 -0.45 3.75 -0.45 3.9 -0.5 4.1 -0.65 5.45 0.2 Q6.35 0.85 6.05 1.85 5.7 3.15 4.9 4.2 L4.1 4.9 3.25 5.15 3.0 5.05 2.7 4.8 2.4 4.55 2.25 4.35 2.2 4.2 2.1 4.1 1.9 4.0 1.6 4.0 1.45 4.05 Q0.7 4.8 -0.2 5.2 -3.25 6.6 -4.5 3.85 -4.8 3.15 -4.4 2.55 L-3.85 2.6 -2.75 2.5 -2.65 2.4 -2.6 2.3 Q-2.65 1.95 -3.0 1.95 -4.75 1.8 -5.7 0.45 -6.4 -0.55 -5.85 -1.65 -5.35 -2.6 -4.3 -2.8 L-4.0 -2.7 -3.95 -2.6 -3.85 -2.55 -3.45 -2.4 -3.3 -2.45 -3.2 -2.5 -3.15 -2.55 Q-3.15 -3.4 -2.55 -4.05 L-1.25 -5.15 Q-0.55 -5.7 0.3 -5.7 M10.25 2.05 L10.15 2.15 10.0 2.2 9.95 2.25 9.8 2.25 9.4 2.0 9.1 1.75 9.05 1.6 9.15 1.5 9.35 1.4 9.55 1.3 9.75 1.2 9.9 1.25 10.05 1.4 10.25 1.6 10.35 1.75 10.4 1.85 10.35 1.95 10.25 2.05 M-0.35 10.05 L-0.85 10.2 -1.45 10.1 -1.45 9.95 -1.3 9.75 -1.2 9.55 -1.05 9.45 -0.45 9.5 -0.1 9.65 Q0.1 9.7 -0.05 9.85 L-0.05 9.95 -0.1 10.0 -0.35 10.05" fill="#ffffff" fill-rule="evenodd" stroke="none"/>
    <path d="M4.25 -4.05 Q4.85 -3.05 4.6 -1.8 L4.5 -1.6 6.25 0.35 Q7.5 2.1 6.2 4.1 5.25 5.6 4.1 5.75 3.2 5.9 2.2 5.25 L1.45 5.15 0.8 5.85 Q0.0 6.4 -1.0 6.5 -2.85 6.65 -4.0 5.85 -4.9 5.15 -5.25 3.8 -5.5 2.85 -5.15 2.05 L-6.3 0.8 Q-6.95 -0.05 -6.8 -1.15 -6.65 -2.9 -4.9 -3.55 L-3.85 -3.55 -3.45 -4.15 -2.65 -5.1 Q-1.8 -5.95 -0.65 -6.2 L0.35 -6.5 Q1.6 -6.5 2.55 -5.85 L4.1 -4.3 4.25 -4.05 M0.3 -5.7 Q-0.55 -5.7 -1.25 -5.15 L-2.55 -4.05 Q-3.15 -3.4 -3.15 -2.55 L-3.2 -2.5 -3.3 -2.45 -3.45 -2.4 -3.85 -2.55 -3.95 -2.6 -4.0 -2.7 -4.3 -2.8 Q-5.35 -2.6 -5.85 -1.65 -6.4 -0.55 -5.7 0.45 -4.75 1.8 -3.0 1.95 -2.65 1.95 -2.6 2.3 L-2.65 2.4 -2.75 2.5 -3.85 2.6 -4.4 2.55 Q-4.8 3.15 -4.5 3.85 -3.25 6.6 -0.2 5.2 0.7 4.8 1.45 4.05 L1.6 4.0 1.9 4.0 2.1 4.1 2.2 4.2 2.25 4.35 2.4 4.55 2.7 4.8 3.0 5.05 3.25 5.15 4.1 4.9 4.9 4.2 Q5.7 3.15 6.05 1.85 6.35 0.85 5.45 0.2 L4.1 -0.65 3.9 -0.5 3.75 -0.45 3.55 -0.45 3.4 -0.5 3.25 -0.65 3.25 -0.7 3.6 -1.65 Q4.0 -2.5 3.6 -3.4 3.15 -4.6 2.0 -5.3 1.25 -5.75 0.3 -5.7 M7.6 -5.35 L7.35 -5.15 7.05 -4.85 6.95 -4.65 7.0 -4.5 7.2 -4.2 7.45 -3.9 Q7.65 -3.7 7.45 -3.55 7.4 -3.35 7.6 -3.35 L8.05 -3.55 8.45 -4.0 8.6 -4.4 8.5 -4.55 8.4 -4.9 8.4 -5.15 8.15 -5.5 8.0 -5.55 Q7.75 -5.55 7.6 -5.35 M8.5 -3.1 L6.65 -3.05 6.45 -3.25 6.4 -3.55 6.35 -3.8 6.3 -4.15 6.2 -4.55 6.2 -4.65 6.3 -5.1 7.1 -5.9 8.0 -6.3 Q9.0 -6.0 9.15 -4.85 9.3 -3.8 8.5 -3.1 M10.25 2.05 L10.35 1.95 10.4 1.85 10.35 1.75 10.25 1.6 10.05 1.4 9.9 1.25 9.75 1.2 9.55 1.3 9.35 1.4 9.15 1.5 9.05 1.6 9.1 1.75 9.4 2.0 9.8 2.25 9.95 2.25 10.0 2.2 10.15 2.15 10.25 2.05 M10.75 1.2 L11.1 1.75 11.2 1.95 Q10.9 2.65 10.1 2.8 9.0 3.0 8.5 2.0 L8.35 1.25 8.35 1.1 8.75 0.8 9.35 0.55 9.9 0.45 10.35 0.8 10.75 1.2 M0.3 10.7 L0.0 10.95 -0.6 11.05 Q-1.3 11.15 -1.8 10.65 L-2.3 9.95 -2.25 9.65 -2.15 9.5 -1.9 9.2 -1.15 8.8 -1.0 8.7 -0.1 8.9 Q0.5 9.1 0.6 9.65 0.65 10.25 0.3 10.7 M-0.35 10.05 L-0.1 10.0 -0.05 9.95 -0.05 9.85 Q0.1 9.7 -0.1 9.65 L-0.45 9.5 -1.05 9.45 -1.2 9.55 -1.3 9.75 -1.45 9.95 -1.45 10.1 -0.85 10.2 -0.35 10.05" fill="#000000" fill-rule="evenodd" stroke="none"/>
  </g>
</svg>
