<?xml version="1.0" encoding="UTF-8" standalone="no"?>
<svg xmlns:xlink="http://www.w3.org/1999/xlink" height="18.85px" width="20.2px" xmlns="http://www.w3.org/2000/svg">
  <g transform="matrix(1.0, 0.0, 0.0, 1.0, 6.45, 6.2)">
    <path d="M4.45 -1.85 Q4.45 -4.55 2.1 -5.35 -0.4 -6.15 -2.4 -3.25 L-4.2 -3.35 Q-5.7 -3.35 -5.7 -1.85 -5.7 -1.0 -4.6 0.15 L-3.1 1.55 -3.15 1.6 -3.2 1.7 -3.85 1.75 Q-4.85 1.75 -4.9 1.3 L-5.35 2.55 Q-4.2 5.1 -2.3 5.1 L-0.9 4.7 Q0.0 4.25 0.5 4.25 L1.15 4.05 1.05 4.6 Q1.05 4.95 1.35 5.35 1.7 5.85 2.25 5.85 3.0 5.85 4.2 4.95 5.65 3.85 5.65 2.5 5.65 1.15 4.85 0.95 3.6 0.6 3.3 0.2 4.45 -0.9 4.45 -1.85 M7.3 -5.6 L6.85 -5.7 6.6 -5.75 6.5 -5.7 6.4 -5.65 6.25 -5.6 6.25 -5.55 6.25 -5.4 Q6.25 -5.15 6.4 -5.0 L6.8 -4.65 6.9 -4.55 7.15 -4.75 7.4 -5.1 7.4 -5.45 7.35 -5.55 7.3 -5.6 M7.4 -5.95 L7.5 -5.95 7.75 -5.4 Q7.75 -4.8 7.25 -4.35 6.65 -3.9 6.0 -4.35 L5.85 -4.6 5.85 -4.75 5.95 -4.8 6.0 -4.8 6.05 -4.85 6.0 -4.95 5.95 -5.1 5.95 -5.15 5.95 -5.3 5.95 -5.55 5.95 -5.8 6.0 -5.85 6.35 -6.0 6.4 -6.0 6.6 -6.05 6.75 -6.05 7.0 -6.0 7.4 -5.95 M5.55 -1.0 L5.55 -1.1 5.6 -1.15 7.4 -1.6 8.65 -2.1 9.55 -2.35 9.7 -2.4 Q9.9 -2.0 9.05 -1.8 L7.5 -1.4 6.05 -0.8 5.55 -0.85 5.55 -1.0 M5.15 -3.35 Q5.25 -1.9 4.75 -0.4 L6.2 3.0 Q6.2 4.0 5.4 5.2 4.45 6.65 3.1 6.65 L2.8 6.6 3.05 7.1 3.4 7.8 3.8 8.5 3.8 8.55 Q3.35 8.55 3.05 8.0 L2.65 7.2 Q2.45 6.8 2.6 6.55 L1.4 6.0 0.05 5.35 Q-0.45 5.35 -0.8 5.75 -1.15 6.1 -1.65 6.1 -3.65 6.1 -4.8 5.15 -6.05 4.15 -6.05 2.3 L-5.85 1.0 Q-5.75 0.35 -5.95 -0.05 L-6.35 -0.85 -6.45 -1.85 Q-6.45 -3.2 -5.25 -3.9 L-3.25 -4.6 -0.35 -5.55 2.05 -6.2 Q5.0 -6.2 5.15 -3.35 M12.85 -3.2 L13.1 -3.1 13.3 -3.0 13.6 -2.8 Q14.0 -2.1 13.35 -1.65 12.25 -0.9 11.5 -2.15 11.1 -2.8 11.6 -3.35 L12.25 -3.8 12.4 -3.8 12.65 -3.65 12.75 -3.45 12.85 -3.2 M12.3 -2.3 L12.45 -2.1 12.75 -2.05 13.05 -2.15 12.8 -2.5 12.3 -2.6 12.2 -2.65 12.3 -2.3 M2.35 10.2 L2.7 10.05 2.9 9.95 3.25 9.85 4.15 10.0 Q4.5 10.15 4.75 10.45 L5.15 11.2 5.2 11.4 4.8 12.05 Q3.75 13.3 2.5 12.05 2.1 11.65 2.05 11.05 L2.15 10.4 2.25 10.3 2.35 10.2 M3.85 10.6 L3.35 10.5 3.15 10.55 2.95 10.6 2.75 10.8 2.7 10.95 2.7 11.1 2.75 11.15 2.9 11.2 3.05 11.25 3.2 11.35 3.25 11.5 3.3 11.6 3.3 11.7 3.45 11.9 3.55 12.0 4.0 11.95 4.3 11.8 4.35 11.75 4.45 11.35 4.2 10.8 3.85 10.6 M-5.2 10.7 L-5.15 10.9 -5.05 11.2 -4.85 11.45 -4.75 11.55 -4.45 11.45 -4.25 11.2 -4.15 10.95 -4.15 10.85 -4.2 10.65 -4.5 10.35 -4.85 10.35 -4.95 10.45 -5.05 10.55 -5.15 10.6 -5.2 10.7 M-5.8 10.45 L-5.2 9.8 -4.75 9.6 Q-4.2 9.65 -3.85 10.05 -3.5 10.45 -3.5 10.95 L-3.75 11.9 -3.85 12.1 -4.35 12.25 -5.0 12.1 -5.55 11.75 -5.75 11.2 -5.8 10.45 M-1.65 7.1 L-2.25 7.6 -2.85 8.05 -2.9 8.05 Q-3.0 7.8 -2.7 7.55 L-2.1 7.05 -1.6 6.55 -1.5 6.5 Q-1.2 6.75 -1.65 7.1" fill="#000000" fill-rule="evenodd" stroke="none"/>
    <path d="M4.45 -1.85 Q4.45 -0.9 3.3 0.2 3.6 0.6 4.85 0.95 5.65 1.15 5.65 2.5 5.65 3.85 4.2 4.95 3.0 5.85 2.25 5.85 1.7 5.85 1.35 5.35 1.05 4.95 1.05 4.6 L1.15 4.05 0.5 4.25 Q0.0 4.25 -0.9 4.7 L-2.3 5.1 Q-4.2 5.1 -5.35 2.55 L-4.9 1.3 Q-4.85 1.75 -3.85 1.75 L-3.2 1.7 -3.15 1.6 -3.1 1.55 -4.6 0.15 Q-5.7 -1.0 -5.7 -1.85 -5.7 -3.35 -4.2 -3.35 L-2.4 -3.25 Q-0.4 -6.15 2.1 -5.35 4.45 -4.55 4.45 -1.85 M7.3 -5.6 L7.35 -5.55 7.4 -5.45 7.4 -5.1 7.15 -4.75 6.9 -4.55 6.8 -4.65 6.4 -5.0 Q6.25 -5.15 6.25 -5.4 L6.25 -5.55 6.25 -5.6 6.4 -5.65 6.5 -5.7 6.6 -5.75 6.85 -5.7 7.3 -5.6 M12.3 -2.3 L12.2 -2.65 12.3 -2.6 12.8 -2.5 13.05 -2.15 12.75 -2.05 12.45 -2.1 12.3 -2.3 M-5.2 10.7 L-5.15 10.6 -5.05 10.55 -4.95 10.45 -4.85 10.35 -4.5 10.35 -4.2 10.65 -4.15 10.85 -4.15 10.95 -4.25 11.2 -4.45 11.45 -4.75 11.55 -4.85 11.45 -5.05 11.2 -5.15 10.9 -5.2 10.7 M3.85 10.6 L4.2 10.8 4.45 11.35 4.35 11.75 4.3 11.8 4.0 11.95 3.55 12.0 3.45 11.9 3.3 11.7 3.3 11.6 3.25 11.5 3.2 11.35 3.05 11.25 2.9 11.2 2.75 11.15 2.7 11.1 2.7 10.95 2.75 10.8 2.95 10.6 3.15 10.55 3.35 10.5 3.85 10.6" fill="#ffffff" fill-rule="evenodd" stroke="none"/>
  </g>
</svg>
