<?xml version="1.0" encoding="UTF-8" standalone="no"?>
<svg xmlns:xlink="http://www.w3.org/1999/xlink" height="22.5px" width="24.55px" xmlns="http://www.w3.org/2000/svg">
  <g transform="matrix(1.0, 0.0, 0.0, 1.0, 6.5, 7.9)">
    <path d="M1.0 -3.1 Q2.55 -3.1 2.6 -1.65 L2.4 -0.1 3.15 1.65 2.75 2.8 Q2.25 3.55 1.55 3.55 L0.65 3.2 0.0 2.85 Q-0.3 2.85 -0.45 3.05 L-0.9 3.25 Q-1.95 3.25 -2.5 2.75 -3.15 2.25 -3.15 1.3 L-3.05 0.6 -3.1 0.05 -3.3 -0.35 -3.4 -0.85 Q-3.4 -1.55 -2.75 -1.9 L-1.75 -2.25 -0.25 -2.75 1.0 -3.1 M2.25 -0.85 Q2.25 -2.25 1.05 -2.65 -0.25 -3.05 -1.3 -1.6 L-2.2 -1.65 Q-3.0 -1.65 -3.0 -0.85 -3.0 -0.4 -2.4 0.2 L-1.65 0.9 -1.65 0.95 -1.7 1.0 -2.05 1.0 -2.6 0.75 -2.8 1.4 Q-2.2 2.75 -1.25 2.75 L-0.5 2.5 0.2 2.3 0.55 2.2 0.5 2.45 Q0.5 2.65 0.65 2.85 L1.1 3.1 2.1 2.65 Q2.85 2.1 2.85 1.4 2.85 0.7 2.45 0.6 1.8 0.4 1.65 0.2 2.25 -0.35 2.25 -0.85 M15.6 -6.85 Q15.2 -6.35 14.55 -6.1 L14.25 -6.0 14.1 -6.05 14.0 -6.1 Q13.8 -6.15 13.65 -6.3 13.45 -6.6 13.6 -6.9 L13.8 -7.45 13.85 -7.7 14.0 -7.75 14.05 -7.8 14.1 -7.85 14.15 -7.9 14.2 -7.9 15.45 -7.6 Q16.05 -7.4 15.6 -6.85 M15.5 -7.3 L14.25 -7.5 14.2 -7.5 14.15 -7.4 14.15 -7.25 14.1 -7.1 14.1 -7.0 14.05 -7.0 13.95 -6.9 13.85 -6.85 13.85 -6.8 13.85 -6.7 13.9 -6.6 13.9 -6.55 14.7 -6.5 15.0 -6.8 15.05 -6.85 15.1 -6.9 15.2 -6.9 15.3 -6.95 15.35 -7.0 15.45 -7.1 15.5 -7.2 15.5 -7.3 M16.9 -2.4 L16.8 -2.35 16.75 -2.25 16.65 -2.15 16.65 -1.95 16.6 -1.9 16.5 -1.8 16.45 -1.75 16.45 -1.7 16.45 -1.6 16.5 -1.45 16.5 -1.35 16.6 -1.25 16.6 -1.2 Q16.9 -1.05 17.2 -1.2 L17.75 -1.7 17.8 -2.2 17.55 -2.35 17.0 -2.5 16.9 -2.4 M16.95 -2.8 Q18.4 -2.75 17.9 -1.55 17.6 -0.7 16.75 -0.95 15.95 -1.2 16.15 -1.95 16.25 -2.3 16.5 -2.5 16.7 -2.75 16.95 -2.8 M6.75 12.35 L6.85 12.3 6.95 12.3 7.2 12.2 7.25 12.2 Q8.85 12.05 9.0 13.4 L8.7 14.05 Q7.55 15.15 6.65 13.95 6.05 13.15 6.65 12.35 L6.75 12.35 M8.65 12.95 Q8.1 12.4 7.25 12.5 7.0 12.6 6.9 12.8 6.8 13.0 6.85 13.25 L6.85 13.7 6.85 13.75 Q7.7 14.8 8.65 13.6 8.95 13.25 8.65 12.95 M-5.55 -4.25 L-5.7 -4.35 -5.75 -4.35 -5.95 -4.35 -6.1 -4.25 -6.25 -4.1 -6.25 -4.0 -6.3 -3.9 -6.2 -3.8 -5.95 -3.85 -5.9 -3.85 -5.8 -3.9 -5.65 -3.85 -5.5 -3.8 -5.45 -3.8 -5.4 -3.75 -5.35 -3.65 -5.4 -3.55 -5.45 -3.55 -5.55 -3.45 -5.55 -3.4 -5.2 -3.3 -5.1 -3.35 -4.85 -3.5 -4.75 -3.75 -4.7 -3.9 -4.65 -4.1 -4.65 -4.3 -4.9 -4.55 -4.95 -4.55 -5.05 -4.5 -5.25 -4.45 -5.45 -4.35 -5.55 -4.25 M-5.95 -3.35 Q-6.6 -3.4 -6.5 -4.0 -6.35 -4.7 -5.65 -4.7 -5.3 -4.7 -5.0 -4.9 L-4.8 -4.9 -4.75 -4.9 Q-4.35 -4.6 -4.35 -4.1 -4.3 -3.45 -4.8 -3.15 L-5.85 -3.2 -5.95 -3.35 M-3.9 12.15 L-3.95 12.25 -3.95 12.35 -3.95 12.45 -3.95 12.6 -4.1 12.9 -4.2 13.0 -3.7 13.35 -2.3 13.25 -2.2 13.1 -2.05 12.9 -1.95 12.6 -1.9 12.35 -1.95 12.25 -2.05 12.15 -2.15 12.05 -2.2 11.95 -2.35 11.8 -2.55 11.75 -3.4 11.75 -3.55 11.85 -3.65 11.95 -3.8 12.05 -3.9 12.15 M-4.1 11.45 L-3.25 11.1 -2.5 11.1 -2.0 11.3 -1.5 11.7 -1.35 11.8 -1.35 11.9 Q-1.25 12.15 -1.3 12.35 L-1.35 12.85 -1.65 13.5 -1.9 13.85 -2.4 14.0 -4.25 13.7 -5.05 12.9 -5.05 12.75 -4.75 12.2 -4.1 11.45" fill="#000000" fill-rule="evenodd" stroke="none"/>
    <path d="M2.25 -0.85 Q2.25 -0.35 1.65 0.2 1.8 0.4 2.45 0.6 2.85 0.7 2.85 1.4 2.85 2.1 2.1 2.65 L1.1 3.1 0.65 2.85 Q0.5 2.65 0.5 2.45 L0.55 2.2 0.2 2.3 -0.5 2.5 -1.25 2.75 Q-2.2 2.75 -2.8 1.4 L-2.6 0.75 -2.05 1.0 -1.7 1.0 -1.65 0.95 -1.65 0.9 -2.4 0.2 Q-3.0 -0.4 -3.0 -0.85 -3.0 -1.65 -2.2 -1.65 L-1.3 -1.6 Q-0.25 -3.05 1.05 -2.65 2.25 -2.25 2.25 -0.85 M16.9 -2.4 L17.0 -2.5 17.55 -2.35 17.8 -2.2 17.75 -1.7 17.2 -1.2 Q16.9 -1.05 16.6 -1.2 L16.6 -1.25 16.5 -1.35 16.5 -1.45 16.45 -1.6 16.45 -1.7 16.45 -1.75 16.5 -1.8 16.6 -1.9 16.65 -1.95 16.65 -2.15 16.75 -2.25 16.8 -2.35 16.9 -2.4 M15.5 -7.3 L15.5 -7.2 15.45 -7.1 15.35 -7.0 15.3 -6.95 15.2 -6.9 15.1 -6.9 15.05 -6.85 15.0 -6.8 14.7 -6.5 13.9 -6.55 13.9 -6.6 13.85 -6.7 13.85 -6.8 13.85 -6.85 13.95 -6.9 14.05 -7.0 14.1 -7.0 14.1 -7.1 14.15 -7.25 14.15 -7.4 14.2 -7.5 14.25 -7.5 15.5 -7.3 M-5.55 -4.25 L-5.45 -4.35 -5.25 -4.45 -5.05 -4.5 -4.95 -4.55 -4.9 -4.55 -4.65 -4.3 -4.65 -4.1 -4.7 -3.9 -4.75 -3.75 -4.85 -3.5 -5.1 -3.35 -5.2 -3.3 -5.55 -3.4 -5.55 -3.45 -5.45 -3.55 -5.4 -3.55 -5.35 -3.65 -5.4 -3.75 -5.45 -3.8 -5.5 -3.8 -5.65 -3.85 -5.8 -3.9 -5.9 -3.85 -5.95 -3.85 -6.2 -3.8 -6.3 -3.9 -6.25 -4.0 -6.25 -4.1 -6.1 -4.25 -5.95 -4.35 -5.75 -4.35 -5.7 -4.35 -5.55 -4.25 M8.65 12.95 Q8.95 13.25 8.65 13.6 7.7 14.8 6.85 13.75 L6.85 13.7 6.85 13.25 Q6.8 13.0 6.9 12.8 7.0 12.6 7.25 12.5 8.1 12.4 8.65 12.95 M-3.9 12.15 L-3.8 12.05 -3.65 11.95 -3.55 11.85 -3.4 11.75 -2.55 11.75 -2.35 11.8 -2.2 11.95 -2.15 12.05 -2.05 12.15 -1.95 12.25 -1.9 12.35 -1.95 12.6 -2.05 12.9 -2.2 13.1 -2.3 13.25 -3.7 13.35 -4.2 13.0 -4.1 12.9 -3.95 12.6 -3.95 12.45 -3.95 12.35 -3.95 12.25 -3.9 12.15" fill="#ffffff" fill-rule="evenodd" stroke="none"/>
  </g>
</svg>
