<?xml version="1.0" encoding="UTF-8" standalone="no"?>
<svg xmlns:xlink="http://www.w3.org/1999/xlink" height="12.8px" width="20.15px" xmlns="http://www.w3.org/2000/svg">
  <g transform="matrix(1.0, 0.0, 0.0, 1.0, 6.95, 4.5)">
    <path d="M0.25 -1.0 Q0.85 -1.0 0.85 -0.45 L0.75 0.1 1.05 0.75 0.9 1.15 0.45 1.45 0.15 1.3 -0.1 1.2 -0.25 1.25 -0.45 1.35 Q-0.8 1.35 -1.0 1.15 L-1.25 0.6 -1.2 0.35 -1.25 0.15 -1.3 0.0 -1.35 -0.15 -1.1 -0.55 -0.75 -0.65 -0.2 -0.85 0.25 -1.0 M0.7 -0.15 Q0.7 -0.65 0.3 -0.8 -0.2 -0.95 -0.55 -0.45 L-0.9 -0.45 -1.2 -0.15 -0.95 0.2 -0.7 0.5 -0.85 0.5 -1.05 0.4 -1.1 0.65 -0.55 1.15 -0.3 1.05 -0.05 1.0 0.1 0.95 0.1 1.05 0.15 1.2 0.3 1.3 0.65 1.1 0.95 0.65 0.8 0.35 0.5 0.2 0.7 -0.15 M11.15 -3.9 L11.15 -3.8 11.2 -3.65 11.2 -3.6 11.35 -3.65 11.45 -3.8 11.4 -3.95 11.25 -4.0 11.15 -3.9 M11.15 -4.25 L11.25 -4.25 11.6 -4.05 11.6 -3.55 Q11.45 -3.35 11.2 -3.3 L11.15 -3.25 11.1 -3.3 11.0 -3.35 10.9 -3.45 10.85 -3.55 10.85 -3.6 10.85 -3.75 10.9 -3.95 11.15 -4.25 M12.9 2.85 L12.75 2.85 12.55 3.0 12.45 3.25 12.45 3.5 12.45 3.55 12.8 3.5 12.95 3.15 12.95 2.9 12.9 2.85 M12.7 3.7 Q12.0 3.9 12.25 3.1 L12.7 2.6 Q13.4 2.65 13.1 3.4 L12.7 3.7 M6.75 1.5 L6.5 1.85 6.1 1.85 6.0 1.75 6.0 1.6 5.95 1.45 5.95 1.35 6.05 1.3 6.3 1.2 6.5 1.1 6.65 1.1 6.7 1.15 6.75 1.2 6.75 1.5 M6.5 1.4 L6.5 1.35 6.4 1.4 6.3 1.5 6.25 1.55 6.3 1.6 6.35 1.6 6.4 1.55 6.5 1.5 6.5 1.4 M-6.5 -4.4 L-6.3 -4.4 -6.15 -4.35 -6.1 -4.3 -6.05 -4.1 -6.1 -4.0 Q-6.3 -3.7 -6.6 -3.9 L-6.65 -4.0 -6.7 -4.05 -6.75 -4.05 -6.85 -4.05 -6.9 -4.1 -6.9 -4.25 -6.8 -4.3 -6.8 -4.35 -6.75 -4.45 -6.65 -4.5 -6.6 -4.5 -6.55 -4.45 -6.5 -4.45 -6.5 -4.4 M-6.4 -4.1 L-6.35 -4.15 -6.45 -4.15 -6.4 -4.1 M-1.45 7.7 L-1.35 7.75 -1.25 7.85 -1.2 7.9 -1.25 7.9 -1.25 8.0 -1.3 8.1 -1.45 8.25 -1.5 8.3 -1.6 8.3 -1.85 8.15 -1.9 7.95 -1.85 7.8 -1.8 7.75 -1.75 7.75 -1.65 7.7 -1.6 7.7 -1.45 7.7" fill="#000000" fill-rule="evenodd" stroke="none"/>
    <path d="M0.7 -0.15 L0.5 0.2 0.8 0.35 0.95 0.65 0.65 1.1 0.3 1.3 0.15 1.2 0.1 1.05 0.1 0.95 -0.05 1.0 -0.3 1.05 -0.55 1.15 -1.1 0.65 -1.05 0.4 -0.85 0.5 -0.7 0.5 -0.95 0.2 -1.2 -0.15 -0.9 -0.45 -0.55 -0.45 Q-0.2 -0.95 0.3 -0.8 0.7 -0.65 0.7 -0.15 M11.15 -3.9 L11.25 -4.0 11.4 -3.95 11.45 -3.8 11.35 -3.65 11.2 -3.6 11.2 -3.65 11.15 -3.8 11.15 -3.9 M12.9 2.85 L12.95 2.9 12.95 3.15 12.8 3.5 12.45 3.55 12.45 3.5 12.45 3.25 12.55 3.0 12.75 2.85 12.9 2.85" fill="#ffffff" fill-rule="evenodd" stroke="none"/>
  </g>
</svg>
