<?xml version="1.0" encoding="UTF-8" standalone="no"?>
<svg xmlns:xlink="http://www.w3.org/1999/xlink" height="18.25px" width="22.8px" xmlns="http://www.w3.org/2000/svg">
  <g transform="matrix(1.0, 0.0, 0.0, 1.0, 11.4, 9.15)">
    <path d="M2.1 -7.65 L3.2 -7.5 Q5.15 -7.35 6.85 -6.45 L7.2 -6.1 7.5 -5.45 7.4 -5.2 7.2 -4.35 6.9 -3.4 6.7 -3.0 6.5 -2.8 6.15 -2.65 5.7 -2.2 5.7 -1.95 5.7 -1.75 5.7 -1.55 5.8 -1.35 6.1 -1.05 6.45 -1.0 6.7 -1.0 7.05 -1.05 7.35 -1.35 7.5 -1.5 7.75 -1.95 9.15 -1.95 9.55 -1.8 Q10.4 0.25 9.15 2.25 7.65 5.25 4.65 6.85 -1.45 9.9 -5.9 5.35 L-3.35 5.6 -2.4 5.8 -2.1 5.7 -1.55 5.15 -1.85 4.85 Q-3.3 3.85 -5.15 3.75 L-6.55 3.4 Q-6.85 3.3 -6.8 2.9 -6.55 2.55 -6.7 2.25 L-7.0 1.9 -7.35 1.75 -7.65 1.8 -7.8 1.9 -8.3 2.55 Q-8.95 2.25 -9.25 1.35 -9.8 0.25 -9.5 -1.0 L-8.6 -2.5 Q-7.7 -3.6 -6.25 -3.4 L-6.1 -3.2 -5.95 -3.0 -5.9 -2.8 -5.7 -2.65 -5.0 -2.4 -4.6 -2.7 -2.9 -5.2 Q-2.1 -6.5 -0.7 -6.9 L2.1 -7.65" fill="#ffffff" fill-rule="evenodd" stroke="none"/>
    <path d="M2.1 -7.65 L-0.7 -6.9 Q-2.1 -6.5 -2.9 -5.2 L-4.6 -2.7 -5.0 -2.4 -5.7 -2.65 -5.9 -2.8 -5.95 -3.0 -6.1 -3.2 -6.25 -3.4 Q-7.7 -3.6 -8.6 -2.5 L-9.5 -1.0 Q-9.8 0.25 -9.25 1.35 -8.95 2.25 -8.3 2.55 L-7.8 1.9 -7.65 1.8 -7.35 1.75 -7.0 1.9 -6.7 2.25 Q-6.55 2.55 -6.8 2.9 -6.85 3.3 -6.55 3.4 L-5.15 3.75 Q-3.3 3.85 -1.85 4.85 L-1.55 5.15 -2.1 5.7 -2.4 5.8 -3.35 5.6 -5.9 5.35 Q-1.45 9.9 4.65 6.85 7.65 5.25 9.15 2.25 10.4 0.25 9.55 -1.8 L9.15 -1.95 7.75 -1.95 7.5 -1.5 7.35 -1.35 7.05 -1.05 6.7 -1.0 6.45 -1.0 6.1 -1.05 5.8 -1.35 5.7 -1.55 5.7 -1.75 5.7 -1.95 5.7 -2.2 6.15 -2.65 6.5 -2.8 6.7 -3.0 6.9 -3.4 7.2 -4.35 7.4 -5.2 7.5 -5.45 7.2 -6.1 6.85 -6.45 Q5.15 -7.35 3.2 -7.5 L2.1 -7.65 M4.85 -8.65 Q6.45 -8.3 7.7 -7.35 9.15 -6.45 8.75 -4.75 L8.7 -3.85 Q12.75 -2.2 10.7 2.25 6.4 11.8 -3.75 8.0 -6.85 6.8 -8.95 4.4 L-11.0 1.85 Q-11.0 1.45 -11.15 1.0 -11.5 0.25 -11.35 -0.65 -10.85 -2.7 -9.15 -4.05 -7.3 -5.5 -5.2 -4.7 L-4.85 -5.35 -4.25 -6.25 Q-2.7 -8.05 -0.4 -8.65 L2.4 -9.15 4.85 -8.65" fill="#000000" fill-rule="evenodd" stroke="none"/>
  </g>
</svg>
