<?xml version="1.0" encoding="UTF-8" standalone="no"?>
<svg xmlns:xlink="http://www.w3.org/1999/xlink" height="17.3px" width="19.25px" xmlns="http://www.w3.org/2000/svg">
  <g transform="matrix(1.0, 0.0, 0.0, 1.0, 8.8, 7.4)">
    <path d="M4.65 -4.45 Q5.55 -3.9 5.3 -2.85 L5.25 -2.3 Q7.7 -1.35 6.5 1.35 3.85 7.15 -2.3 4.85 -4.15 4.1 -5.4 2.65 L-6.65 1.1 -6.75 0.6 -6.85 -0.4 Q-6.55 -1.65 -5.55 -2.45 -4.4 -3.35 -3.15 -2.85 L-2.95 -3.2 -2.55 -3.8 Q-1.65 -4.85 -0.25 -5.2 L1.45 -5.55 2.95 -5.2 Q3.9 -5.0 4.65 -4.45 M4.5 -3.3 L4.35 -3.7 4.15 -3.9 1.95 -4.5 1.25 -4.6 -0.4 -4.15 -1.75 -3.15 -2.75 -1.65 -3.0 -1.45 -3.45 -1.6 -3.55 -1.7 -3.6 -1.8 -3.7 -1.95 -3.8 -2.05 Q-4.65 -2.15 -5.2 -1.5 L-5.75 -0.6 Q-5.9 0.15 -5.6 0.8 L-5.0 1.55 -4.75 1.15 -4.6 1.1 -4.45 1.05 -4.25 1.15 -4.05 1.35 -4.1 1.75 -3.95 2.05 -3.1 2.3 Q-2.0 2.3 -1.1 2.95 L-0.95 3.1 -1.25 3.45 -1.45 3.5 -2.05 3.4 -3.55 3.2 Q-0.9 6.0 2.8 4.15 4.6 3.2 5.55 1.35 6.25 0.15 5.8 -1.1 L5.55 -1.2 4.7 -1.2 4.5 -0.9 4.45 -0.8 4.25 -0.65 4.05 -0.6 3.9 -0.6 3.7 -0.65 3.5 -0.8 3.45 -0.95 3.45 -1.05 3.45 -1.2 3.45 -1.35 3.7 -1.6 3.9 -1.7 4.05 -1.8 4.15 -2.05 4.35 -2.65 4.5 -3.15 4.5 -3.3 M9.2 -5.3 Q9.45 -5.6 9.8 -5.7 10.8 -5.6 10.3 -4.75 9.85 -3.9 9.2 -4.6 8.85 -4.95 9.2 -5.3 M9.45 -4.95 L9.5 -4.65 9.5 -4.55 10.0 -4.6 10.2 -4.95 10.25 -5.1 10.25 -5.2 10.2 -5.25 10.2 -5.35 10.15 -5.35 10.05 -5.4 9.8 -5.45 9.55 -5.2 9.45 -4.95 M7.45 4.4 L7.65 4.1 8.05 3.85 8.2 3.85 8.45 3.9 8.65 4.05 8.75 4.25 8.8 4.3 8.6 4.65 Q8.25 5.1 7.7 4.85 L7.45 4.65 7.45 4.4 M8.0 4.15 L7.95 4.2 7.9 4.25 7.95 4.3 8.0 4.35 7.95 4.4 7.95 4.45 7.9 4.5 7.9 4.65 8.15 4.7 8.45 4.45 8.45 4.25 8.45 4.2 8.4 4.15 8.3 4.15 8.25 4.1 8.2 4.1 8.15 4.15 8.05 4.15 8.0 4.15 M0.55 9.5 Q0.15 9.9 -0.45 9.9 L-0.95 9.8 -1.0 9.75 -1.0 9.8 -1.05 9.8 -1.1 9.85 -1.45 9.6 Q-1.65 9.15 -1.2 8.8 L-0.5 8.55 -0.05 8.45 Q0.6 8.35 0.75 8.95 0.85 9.25 0.55 9.5 M0.45 9.25 L0.6 8.95 0.55 8.85 0.5 8.8 0.4 8.75 -0.1 8.7 -0.35 8.75 -0.6 8.85 -0.85 8.95 -0.95 9.05 -0.95 9.25 Q-0.65 9.9 0.1 9.5 L0.45 9.25 M-6.4 -6.85 L-6.35 -6.8 -6.3 -6.75 -6.25 -6.7 -6.25 -6.6 -6.3 -6.55 -6.35 -6.55 -6.5 -6.5 -6.55 -6.45 -6.6 -6.4 -6.6 -6.3 -6.4 -6.3 -6.1 -6.35 -6.0 -6.25 -6.05 -6.25 -6.05 -6.15 -6.15 -6.15 -6.15 -6.1 -6.2 -6.1 Q-5.9 -5.95 -5.45 -6.35 -5.05 -6.65 -5.45 -7.0 L-5.95 -7.15 -6.0 -7.15 -6.15 -7.1 -6.25 -7.0 -6.35 -6.9 -6.4 -6.85 M-5.25 -6.3 L-5.85 -5.9 Q-7.1 -5.75 -6.7 -6.8 -6.5 -7.3 -5.95 -7.4 -4.7 -7.25 -5.25 -6.3 M-8.1 5.9 Q-7.25 5.9 -7.2 6.65 L-7.35 6.9 -8.5 7.0 Q-9.0 6.65 -8.65 6.1 L-8.5 6.05 -8.4 5.95 -8.35 5.95 -8.2 5.9 -8.1 5.9 M-7.55 6.35 Q-7.75 6.2 -7.95 6.2 L-8.0 6.2 -8.2 6.3 -8.4 6.45 -8.5 6.7 -8.45 6.8 -8.3 6.9 -7.85 6.9 -7.7 6.9 -7.6 6.85 -7.5 6.75 -7.45 6.7 -7.4 6.6 -7.35 6.55 -7.45 6.45 -7.55 6.35 M-1.25 9.3 L-1.25 9.45 -1.2 9.5 -1.2 9.35 -1.25 9.3" fill="#000000" fill-rule="evenodd" stroke="none"/>
    <path d="M4.5 -3.3 L4.5 -3.15 4.35 -2.65 4.15 -2.05 4.05 -1.8 3.9 -1.7 3.7 -1.6 3.45 -1.35 3.45 -1.2 3.45 -1.05 3.45 -0.95 3.5 -0.8 3.7 -0.65 3.9 -0.6 4.05 -0.6 4.25 -0.65 4.45 -0.8 4.5 -0.9 4.7 -1.2 5.55 -1.2 5.8 -1.1 Q6.25 0.15 5.55 1.35 4.6 3.2 2.8 4.15 -0.9 6.0 -3.55 3.2 L-2.05 3.4 -1.45 3.5 -1.25 3.45 -0.95 3.1 -1.1 2.95 Q-2.0 2.3 -3.1 2.3 L-3.95 2.05 -4.1 1.75 -4.05 1.35 -4.25 1.15 -4.45 1.05 -4.6 1.1 -4.75 1.15 -5.0 1.55 -5.6 0.8 Q-5.9 0.15 -5.75 -0.6 L-5.2 -1.5 Q-4.65 -2.15 -3.8 -2.05 L-3.7 -1.95 -3.6 -1.8 -3.55 -1.7 -3.45 -1.6 -3.0 -1.45 -2.75 -1.65 -1.75 -3.15 -0.4 -4.15 1.25 -4.6 1.95 -4.5 4.15 -3.9 4.35 -3.7 4.5 -3.3 M9.45 -4.95 L9.55 -5.2 9.8 -5.45 10.05 -5.4 10.15 -5.35 10.2 -5.35 10.2 -5.25 10.25 -5.2 10.25 -5.1 10.2 -4.95 10.0 -4.6 9.5 -4.55 9.5 -4.65 9.45 -4.95 M8.0 4.15 L8.05 4.15 8.15 4.15 8.2 4.1 8.25 4.1 8.3 4.15 8.4 4.15 8.45 4.2 8.45 4.25 8.45 4.45 8.15 4.7 7.9 4.65 7.9 4.5 7.95 4.45 7.95 4.4 8.0 4.35 7.95 4.3 7.9 4.25 7.95 4.2 8.0 4.15 M-6.4 -6.85 L-6.35 -6.9 -6.25 -7.0 -6.15 -7.1 -6.0 -7.15 -5.95 -7.15 -5.45 -7.0 Q-5.05 -6.65 -5.45 -6.35 -5.9 -5.95 -6.2 -6.1 L-6.15 -6.1 -6.15 -6.15 -6.05 -6.15 -6.05 -6.25 -6.0 -6.25 -6.1 -6.35 -6.4 -6.3 -6.6 -6.3 -6.6 -6.4 -6.55 -6.45 -6.5 -6.5 -6.35 -6.55 -6.3 -6.55 -6.25 -6.6 -6.25 -6.7 -6.3 -6.75 -6.35 -6.8 -6.4 -6.85 M0.45 9.25 L0.1 9.5 Q-0.65 9.9 -0.95 9.25 L-0.95 9.05 -0.85 8.95 -0.6 8.85 -0.35 8.75 -0.1 8.7 0.4 8.75 0.5 8.8 0.55 8.85 0.6 8.95 0.45 9.25 M-7.55 6.35 L-7.45 6.45 -7.35 6.55 -7.4 6.6 -7.45 6.7 -7.5 6.75 -7.6 6.85 -7.7 6.9 -7.85 6.9 -8.3 6.9 -8.45 6.8 -8.5 6.7 -8.4 6.45 -8.2 6.3 -8.0 6.2 -7.95 6.2 Q-7.75 6.2 -7.55 6.35" fill="#ffffff" fill-rule="evenodd" stroke="none"/>
  </g>
</svg>
