<?xml version="1.0" encoding="UTF-8" standalone="no"?>
<svg xmlns:xlink="http://www.w3.org/1999/xlink" height="17.55px" width="19.2px" xmlns="http://www.w3.org/2000/svg">
  <g transform="matrix(1.0, 0.0, 0.0, 1.0, 9.6, 8.3)">
    <path d="M2.85 -0.95 L2.85 -0.55 Q3.45 -0.45 3.85 -1.0 L4.55 -1.0 4.8 -0.8 4.9 -0.1 Q4.9 1.7 3.0 3.0 1.45 4.05 0.2 4.05 L-1.7 3.85 Q-1.7 3.55 -2.3 3.15 L-2.9 2.6 -1.2 2.85 -0.85 2.75 -0.8 2.55 -2.7 1.55 Q-3.75 0.95 -4.1 1.25 -4.7 0.8 -4.7 -0.2 -4.7 -1.95 -4.25 -1.9 L-2.45 -1.2 -1.4 -2.6 Q-0.35 -3.75 1.0 -3.75 3.7 -3.75 3.7 -2.65 3.7 -1.8 3.3 -1.5 L2.85 -0.95 M6.95 -4.8 L6.8 -4.65 Q6.45 -4.45 6.2 -4.65 L6.2 -4.7 6.3 -4.85 6.3 -4.95 6.25 -5.05 6.05 -5.0 6.1 -5.05 6.15 -5.1 6.7 -5.1 6.95 -4.8 M8.0 2.2 L8.3 2.05 Q8.85 1.95 9.2 2.4 9.6 2.95 9.1 3.5 8.35 4.3 7.45 3.8 L7.45 3.7 7.5 3.7 7.55 3.65 7.55 3.5 7.45 3.45 7.4 3.4 7.35 3.4 7.35 3.1 7.4 3.05 7.5 3.0 7.6 3.0 7.6 2.95 7.65 2.9 7.6 2.9 7.6 2.85 7.55 2.8 7.5 2.75 7.45 2.75 7.5 2.6 7.75 2.35 8.0 2.2 M-3.0 -7.5 L-2.95 -7.6 -2.8 -7.8 -2.65 -7.95 -2.4 -8.05 -2.0 -8.0 -1.8 -7.65 Q-1.75 -7.05 -2.45 -7.0 -3.15 -6.9 -3.0 -7.2 L-3.0 -7.3 -3.0 -7.35 -3.0 -7.5 M-8.95 7.9 L-9.0 7.85 -9.05 7.85 -9.05 7.75 -8.9 7.7 -8.8 7.65 Q-8.2 7.6 -8.2 8.25 -8.2 8.65 -8.55 8.9 -8.95 9.25 -9.2 8.8 -9.5 8.35 -8.95 8.05 L-8.95 7.9 M-0.85 7.25 L-1.05 7.55 -1.4 7.6 -1.45 7.55 -1.5 7.3 -1.45 7.05 -1.2 6.9 -0.95 6.9 -0.9 6.95 -0.9 7.0 -0.85 7.25" fill="#ffffff" fill-rule="evenodd" stroke="none"/>
    <path d="M2.85 -0.95 L3.3 -1.5 Q3.7 -1.8 3.7 -2.65 3.7 -3.75 1.0 -3.75 -0.35 -3.75 -1.4 -2.6 L-2.45 -1.2 -4.25 -1.9 Q-4.7 -1.95 -4.7 -0.2 -4.7 0.8 -4.1 1.25 -3.75 0.95 -2.7 1.55 L-0.8 2.55 -0.85 2.75 -1.2 2.85 -2.9 2.6 -2.3 3.15 Q-1.7 3.55 -1.7 3.85 L0.2 4.05 Q1.45 4.05 3.0 3.0 4.9 1.7 4.9 -0.1 L4.8 -0.8 4.55 -1.0 3.85 -1.0 Q3.45 -0.45 2.85 -0.55 L2.85 -0.95 M1.2 -4.55 Q2.7 -4.55 3.55 -3.65 L4.35 -2.35 5.2 -1.35 5.7 -0.35 Q5.7 1.5 4.1 3.05 2.6 4.6 1.0 4.6 -1.05 4.6 -3.25 3.25 -5.6 1.75 -5.6 -0.1 L-5.2 -1.35 Q-4.55 -2.45 -3.3 -2.45 L-2.0 -3.5 Q-0.7 -4.55 1.2 -4.55 M6.95 -4.8 L6.7 -5.1 6.15 -5.1 6.1 -5.05 6.05 -5.0 6.25 -5.05 6.3 -4.95 6.3 -4.85 6.2 -4.7 6.2 -4.65 Q6.45 -4.45 6.8 -4.65 L6.95 -4.8 M6.85 -5.25 L7.1 -5.1 7.15 -5.05 7.2 -5.0 7.2 -4.9 7.2 -4.8 7.2 -4.75 7.15 -4.6 6.8 -4.4 Q6.15 -4.1 5.8 -4.65 L5.75 -4.95 Q5.8 -5.3 6.15 -5.35 L6.55 -5.35 6.85 -5.25 M6.0 -4.9 L6.05 -5.0 6.0 -4.95 6.0 -4.9 M8.0 2.2 L7.75 2.35 7.5 2.6 7.45 2.75 7.5 2.75 7.55 2.8 7.6 2.85 7.6 2.9 7.65 2.9 7.6 2.95 7.6 3.0 7.5 3.0 7.4 3.05 7.35 3.1 7.35 3.4 7.4 3.4 7.45 3.45 7.55 3.5 7.55 3.65 7.5 3.7 7.45 3.7 7.45 3.8 Q8.35 4.3 9.1 3.5 9.6 2.95 9.2 2.4 8.85 1.95 8.3 2.05 L8.0 2.2 M7.6 4.05 Q6.9 3.8 7.05 3.05 7.25 2.05 8.35 1.8 10.2 2.0 9.3 3.45 8.7 4.5 7.6 4.05 M-3.0 -7.5 L-3.0 -7.35 -3.0 -7.3 -3.0 -7.2 Q-3.15 -6.9 -2.45 -7.0 -1.75 -7.05 -1.8 -7.65 L-2.0 -8.0 -2.4 -8.05 -2.65 -7.95 -2.8 -7.8 -2.95 -7.6 -3.0 -7.5 M-3.1 -7.95 L-2.4 -8.3 Q-1.2 -8.15 -1.75 -7.1 L-2.2 -6.8 Q-3.45 -6.5 -3.35 -7.55 L-3.1 -7.95 M-4.6 4.15 Q-4.45 4.6 -5.1 5.15 L-6.4 6.25 -7.6 7.5 -8.05 7.6 -7.0 6.45 -5.8 5.35 -4.7 4.2 -4.6 4.15 M-8.95 7.9 L-8.95 8.05 Q-9.5 8.35 -9.2 8.8 -8.95 9.25 -8.55 8.9 -8.2 8.65 -8.2 8.25 -8.2 7.6 -8.8 7.65 L-8.9 7.7 -9.05 7.75 -9.05 7.85 -9.0 7.85 -8.95 7.9 M-9.6 8.5 Q-9.6 7.6 -8.75 7.4 -7.5 7.65 -8.15 8.7 -8.8 9.75 -9.5 8.85 L-9.6 8.5 M-0.8 7.7 L-1.45 7.85 -1.5 7.85 -1.6 7.85 -1.7 7.85 -1.85 7.65 -1.8 7.2 -1.45 6.7 -1.2 6.65 Q-0.75 6.55 -0.6 7.0 -0.5 7.35 -0.8 7.7 M-0.85 7.25 L-0.9 7.0 -0.9 6.95 -0.95 6.9 -1.2 6.9 -1.45 7.05 -1.5 7.3 -1.45 7.55 -1.4 7.6 -1.05 7.55 -0.85 7.25" fill="#000000" fill-rule="evenodd" stroke="none"/>
  </g>
</svg>
