<?xml version="1.0" encoding="UTF-8" standalone="no"?>
<svg xmlns:xlink="http://www.w3.org/1999/xlink" height="14.95px" width="13.3px" xmlns="http://www.w3.org/2000/svg">
  <g transform="matrix(1.0, 0.0, 0.0, 1.0, 5.05, 5.55)">
    <path d="M4.2 -5.2 L4.15 -5.25 4.05 -5.3 4.05 -5.2 4.0 -5.1 3.85 -5.05 3.8 -5.05 3.85 -4.95 3.95 -4.9 4.1 -4.95 4.2 -5.1 4.2 -5.2 M4.2 -4.7 L3.6 -4.8 3.55 -4.9 3.5 -5.0 3.55 -5.2 3.75 -5.45 3.95 -5.55 Q4.35 -5.6 4.4 -5.25 4.5 -4.9 4.2 -4.7 M2.05 -0.65 Q2.15 -1.15 0.9 -1.5 L-0.35 -1.3 -0.95 -0.75 -1.7 -1.3 -2.1 -0.6 Q-2.25 -0.1 -2.05 0.2 -1.85 0.05 -1.4 0.45 L-0.7 1.2 -0.75 1.25 -0.9 1.25 -1.65 0.95 -1.45 1.25 -1.25 1.65 -0.4 1.95 1.0 1.85 Q2.05 1.5 2.25 0.7 L2.25 0.3 2.2 0.2 1.85 0.1 1.35 0.2 1.4 0.0 1.7 -0.2 2.05 -0.65 M1.1 -1.85 Q1.8 -1.65 2.1 -1.15 L2.25 -0.45 2.5 0.15 2.65 0.65 Q2.45 1.5 1.5 1.95 0.65 2.5 -0.1 2.3 -1.05 2.05 -1.85 1.2 -2.75 0.2 -2.55 -0.6 L-2.2 -1.15 Q-1.8 -1.55 -1.2 -1.4 L-0.5 -1.75 1.1 -1.85 M6.7 -1.75 L6.7 -2.0 6.75 -2.05 6.85 -2.15 7.0 -2.25 7.15 -2.35 Q7.55 -2.45 7.6 -2.1 7.7 -1.75 7.35 -1.6 L6.75 -1.7 6.7 -1.75 M7.3 -2.05 L7.25 -1.95 7.2 -1.9 7.35 -1.9 7.4 -2.05 7.35 -2.1 7.3 -2.1 7.3 -2.05 M7.8 2.85 L7.9 2.85 8.0 2.85 8.1 2.9 8.2 2.95 8.25 3.25 Q8.2 3.75 7.7 3.6 L7.45 3.4 7.4 3.15 7.4 3.05 7.65 2.9 7.8 2.85 M7.8 3.15 L7.85 3.3 7.9 3.35 7.95 3.35 8.0 3.25 8.0 3.15 7.8 3.1 7.8 3.15 M3.65 3.05 L3.6 3.0 3.55 3.0 3.65 3.15 4.35 3.25 4.4 3.2 4.45 3.15 4.45 3.1 4.5 3.05 4.5 3.0 4.5 2.9 4.5 2.85 4.45 2.8 4.45 2.75 4.4 2.7 4.4 2.65 4.2 2.6 4.1 2.6 4.0 2.65 3.95 2.65 3.85 2.7 3.8 2.75 3.75 2.8 3.8 2.85 3.8 2.95 3.8 3.05 3.7 3.05 3.65 3.05 M4.05 2.35 Q4.95 2.45 4.6 3.2 4.35 3.7 3.75 3.45 2.9 3.1 3.65 2.5 3.8 2.35 4.05 2.35 M2.7 8.95 L2.5 9.2 2.25 9.35 2.2 9.4 2.15 9.35 2.05 9.25 1.9 9.05 1.85 8.95 1.85 8.85 2.0 8.7 2.15 8.65 2.55 8.65 2.65 8.7 2.7 8.75 2.7 8.95 M2.2 8.9 L2.25 8.95 2.35 9.0 2.4 9.0 2.4 8.95 2.2 8.9 M-3.55 -4.9 L-3.6 -5.0 -3.65 -5.15 -4.15 -5.3 -4.35 -5.25 -4.55 -5.15 -4.7 -5.0 -4.7 -4.9 -4.7 -4.7 -4.1 -4.6 -3.6 -4.9 -3.55 -4.9 M-4.15 -5.55 Q-3.05 -5.45 -3.6 -4.65 -3.85 -4.3 -4.3 -4.35 -5.45 -4.45 -4.8 -5.2 L-4.15 -5.55 M-3.05 6.1 L-2.9 6.35 -2.85 6.45 -2.95 6.6 Q-3.15 6.9 -3.55 6.85 L-4.0 6.75 -4.05 6.7 -4.1 6.65 -4.15 6.55 -4.25 6.45 -4.25 6.35 -4.25 6.3 -4.05 6.15 -3.8 6.0 -3.55 5.9 -3.3 5.9 -3.05 6.1 M-3.35 6.15 L-3.55 6.15 -3.65 6.2 -3.75 6.25 -3.85 6.3 -3.85 6.45 -3.75 6.6 -3.2 6.5 -3.15 6.5 -3.15 6.4 -3.2 6.35 -3.25 6.25 -3.3 6.15 -3.35 6.15" fill="#000000" fill-rule="evenodd" stroke="none"/>
    <path d="M4.2 -5.2 L4.2 -5.1 4.1 -4.95 3.95 -4.9 3.85 -4.95 3.8 -5.05 3.85 -5.05 4.0 -5.1 4.05 -5.2 4.05 -5.3 4.15 -5.25 4.2 -5.2 M2.05 -0.65 L1.7 -0.2 1.4 0.0 1.35 0.2 1.85 0.1 2.2 0.2 2.25 0.3 2.25 0.7 Q2.05 1.5 1.0 1.85 L-0.4 1.95 -1.25 1.65 -1.45 1.25 -1.65 0.95 -0.9 1.25 -0.75 1.25 -0.7 1.2 -1.4 0.45 Q-1.85 0.05 -2.05 0.2 -2.25 -0.1 -2.1 -0.6 L-1.7 -1.3 -0.95 -0.75 -0.35 -1.3 0.9 -1.5 Q2.15 -1.15 2.05 -0.65 M3.65 3.05 L3.7 3.05 3.8 3.05 3.8 2.95 3.8 2.85 3.75 2.8 3.8 2.75 3.85 2.7 3.95 2.65 4.0 2.65 4.1 2.6 4.2 2.6 4.4 2.65 4.4 2.7 4.45 2.75 4.45 2.8 4.5 2.85 4.5 2.9 4.5 3.0 4.5 3.05 4.45 3.1 4.45 3.15 4.4 3.2 4.35 3.25 3.65 3.15 3.55 3.0 3.6 3.0 3.65 3.05 M7.8 3.15 L7.8 3.1 8.0 3.15 8.0 3.25 7.95 3.35 7.9 3.35 7.85 3.3 7.8 3.15 M-3.55 -4.9 L-3.6 -4.9 -4.1 -4.6 -4.7 -4.7 -4.7 -4.9 -4.7 -5.0 -4.55 -5.15 -4.35 -5.25 -4.15 -5.3 -3.65 -5.15 -3.6 -5.0 -3.55 -4.9 M-3.35 6.15 L-3.3 6.15 -3.25 6.25 -3.2 6.35 -3.15 6.4 -3.15 6.5 -3.2 6.5 -3.75 6.6 -3.85 6.45 -3.85 6.3 -3.75 6.25 -3.65 6.2 -3.55 6.15 -3.35 6.15" fill="#ffffff" fill-rule="evenodd" stroke="none"/>
  </g>
</svg>
