<?xml version="1.0" encoding="UTF-8" standalone="no"?>
<svg xmlns:xlink="http://www.w3.org/1999/xlink" height="10.0px" width="14.0px" xmlns="http://www.w3.org/2000/svg">
  <g transform="matrix(1.0, 0.0, 0.0, 1.0, 4.75, 5.1)">
    <path d="M0.8 -0.15 L0.35 -0.5 -0.15 -0.4 -0.4 -0.2 -0.65 -0.4 -0.85 -0.15 -0.8 0.2 -0.55 0.3 -0.3 0.6 -0.35 0.6 -0.65 0.5 -0.55 0.6 -0.5 0.75 -0.15 0.85 0.4 0.85 Q0.8 0.7 0.9 0.4 L0.9 0.2 0.85 0.2 0.75 0.15 0.55 0.2 0.55 0.1 0.65 0.0 0.8 -0.15 M0.8 -0.85 L1.4 -1.3 1.9 -1.45 2.15 -1.5 Q2.4 -1.25 1.95 -1.15 L1.4 -0.95 0.9 -0.8 0.8 -0.85 M0.85 -0.35 L0.9 -0.1 1.0 0.15 1.05 0.35 0.6 0.85 -0.05 1.0 -0.75 0.6 -1.0 -0.15 -0.85 -0.35 -0.5 -0.45 -0.2 -0.6 0.45 -0.65 0.85 -0.35 M8.5 -4.3 L8.4 -4.3 8.25 -4.3 8.2 -4.25 8.2 -4.2 8.15 -4.15 8.15 -4.1 8.2 -4.1 8.35 -4.15 8.5 -4.25 8.5 -4.3 M8.6 -4.0 L8.2 -3.8 8.15 -3.75 8.1 -3.8 7.95 -3.9 7.9 -4.05 7.85 -4.2 7.85 -4.3 7.9 -4.35 8.0 -4.45 8.2 -4.45 8.3 -4.55 8.35 -4.55 8.7 -4.4 8.6 -4.0 M8.75 -0.4 L8.95 -0.35 9.15 -0.25 9.2 -0.1 9.25 -0.05 9.15 0.05 8.85 0.25 8.35 0.1 8.35 -0.05 8.35 -0.15 8.35 -0.2 8.4 -0.2 8.45 -0.25 8.55 -0.35 8.65 -0.4 8.75 -0.4 M8.6 -0.05 L8.85 -0.05 8.95 -0.1 8.65 -0.1 8.6 -0.05 M-2.15 -3.15 L-1.9 -2.85 -1.7 -2.5 -1.55 -2.15 Q-1.8 -2.05 -2.0 -2.4 L-2.2 -2.75 -2.2 -3.15 -2.15 -3.15 M-3.6 -5.05 L-3.55 -5.0 -3.5 -4.95 -3.5 -4.7 Q-3.55 -4.45 -3.85 -4.5 L-4.1 -4.7 -4.1 -4.75 -4.05 -4.85 -3.95 -4.95 -3.8 -5.1 -3.65 -5.1 -3.6 -5.05 M-3.1 3.35 L-2.85 3.1 -2.8 3.05 Q-2.6 3.1 -2.75 3.3 L-3.0 3.65 -3.25 3.85 -3.3 3.85 -3.3 3.55 -3.1 3.35 M-4.75 4.3 L-4.75 4.2 -4.7 4.15 -4.55 4.0 -4.4 4.0 Q-4.05 3.9 -3.85 4.15 -3.7 4.45 -3.9 4.7 -4.1 4.95 -4.45 4.85 L-4.5 4.85 -4.55 4.8 -4.65 4.7 -4.7 4.5 -4.75 4.3 M-4.45 4.5 L-4.4 4.55 -4.4 4.6 -4.1 4.55 -4.1 4.5 -4.05 4.4 -4.05 4.3 -4.4 4.25 -4.45 4.35 -4.45 4.4 -4.45 4.5" fill="#000000" fill-rule="evenodd" stroke="none"/>
    <path d="M0.8 -0.15 L0.65 0.0 0.55 0.1 0.55 0.2 0.75 0.15 0.85 0.2 0.9 0.2 0.9 0.4 Q0.8 0.7 0.4 0.85 L-0.15 0.85 -0.5 0.75 -0.55 0.6 -0.65 0.5 -0.35 0.6 -0.3 0.6 -0.55 0.3 -0.8 0.2 -0.85 -0.15 -0.65 -0.4 -0.4 -0.2 -0.15 -0.4 0.35 -0.5 0.8 -0.15 M8.5 -4.3 L8.5 -4.25 8.35 -4.15 8.2 -4.1 8.15 -4.1 8.15 -4.15 8.2 -4.2 8.2 -4.25 8.25 -4.3 8.4 -4.3 8.5 -4.3 M-4.45 4.5 L-4.45 4.4 -4.45 4.35 -4.4 4.25 -4.05 4.3 -4.05 4.4 -4.1 4.5 -4.1 4.55 -4.4 4.6 -4.4 4.55 -4.45 4.5" fill="#ffffff" fill-rule="evenodd" stroke="none"/>
  </g>
</svg>
