<?xml version="1.0" encoding="UTF-8" standalone="no"?>
<svg xmlns:xlink="http://www.w3.org/1999/xlink" height="25.95px" width="65.8px" xmlns="http://www.w3.org/2000/svg">
  <g transform="matrix(1.0, 0.0, 0.0, 1.0, 27.9, 17.8)">
    <path d="M14.65 0.05 Q26.6 -0.65 25.85 3.0 L29.75 1.85 Q33.0 1.85 35.15 3.4 L37.0 5.25 Q36.05 1.25 34.8 -0.85 L32.25 -3.95 Q30.4 -5.95 27.0 -6.7 18.75 -2.05 14.65 -0.05 L14.6 0.05 14.65 0.05 M35.8 -0.45 Q37.9 4.9 37.9 6.65 L37.7 8.15 Q37.15 6.2 36.2 4.95 34.4 2.5 29.75 2.5 28.5 2.5 27.15 3.2 L25.75 3.85 24.6 2.25 Q22.95 0.6 19.3 0.6 L13.95 0.85 13.5 0.25 20.6 -3.45 Q26.9 -7.15 27.7 -7.15 29.35 -7.15 32.95 -4.05 35.05 -2.25 35.8 -0.45 M-27.9 -15.9 Q-27.9 -16.3 -26.4 -16.95 -24.55 -17.8 -22.35 -17.8 -17.45 -17.8 -15.15 -16.4 -14.15 -15.85 -14.15 -14.55 L-14.0 -10.85 -13.9 -9.0 Q-13.9 -8.4 -13.3 -7.35 L-13.85 -6.55 Q-15.95 -10.75 -19.55 -10.75 -20.4 -10.75 -20.65 -10.15 -21.85 -12.4 -22.75 -13.3 -24.05 -14.65 -26.15 -15.25 -27.9 -15.8 -27.9 -15.9 M-26.8 -16.1 Q-20.8 -13.0 -20.6 -11.15 L-19.3 -11.35 Q-17.05 -11.35 -14.4 -8.95 L-14.35 -9.35 -14.7 -13.65 Q-14.7 -15.4 -15.25 -15.8 -17.1 -17.2 -22.85 -17.2 -25.3 -17.2 -26.8 -16.1" fill="#000000" fill-rule="evenodd" stroke="none"/>
    <path d="M14.65 -0.05 Q18.75 -2.05 27.0 -6.7 30.4 -5.95 32.25 -3.95 L34.8 -0.85 Q36.05 1.25 37.0 5.25 L35.15 3.4 Q33.0 1.85 29.75 1.85 L25.85 3.0 Q26.6 -0.65 14.65 0.05 L14.65 -0.05 M-26.8 -16.1 Q-25.3 -17.2 -22.85 -17.2 -17.1 -17.2 -15.25 -15.8 -14.7 -15.4 -14.7 -13.65 L-14.35 -9.35 -14.4 -8.95 Q-17.05 -11.35 -19.3 -11.35 L-20.6 -11.15 Q-20.8 -13.0 -26.8 -16.1" fill="#b7b0aa" fill-rule="evenodd" stroke="none"/>
  </g>
</svg>
