<?xml version="1.0" encoding="UTF-8" standalone="no"?>
<svg xmlns:xlink="http://www.w3.org/1999/xlink" height="22.55px" width="65.6px" xmlns="http://www.w3.org/2000/svg">
  <g transform="matrix(1.0, 0.0, 0.0, 1.0, 25.85, 21.55)">
    <path d="M19.1 -5.55 L21.05 -8.8 Q21.7 -10.95 23.35 -11.4 L27.05 -11.6 Q36.5 -11.6 39.75 -2.45 39.75 -1.85 39.45 -1.85 36.0 -5.35 31.85 -5.35 30.65 -5.35 29.4 -4.55 28.2 -3.75 28.2 -3.2 28.25 -3.1 28.0 -3.1 27.8 -3.1 27.65 -3.5 27.5 -3.95 25.9 -3.95 23.0 -3.95 20.25 -2.8 L17.85 -1.5 14.05 1.0 Q13.85 1.0 13.75 0.85 L13.8 0.65 13.95 0.75 14.1 0.7 Q14.2 0.1 15.3 -0.85 L16.75 -2.35 19.1 -5.55 M16.5 -1.45 L16.5 -1.4 16.55 -1.4 Q21.8 -4.5 26.0 -4.5 L27.95 -4.2 29.3 -5.05 Q30.45 -5.9 31.85 -5.9 35.55 -5.9 38.5 -3.7 38.1 -5.5 35.6 -7.7 33.8 -9.35 32.45 -9.7 L30.8 -10.35 24.6 -11.05 Q23.2 -11.05 22.75 -10.6 L22.3 -10.0 21.55 -8.85 20.1 -6.35 Q18.9 -4.3 16.5 -1.45 M-24.8 -20.35 L-24.95 -20.35 -24.8 -20.25 Q-22.05 -18.85 -20.85 -17.65 -20.3 -17.15 -19.9 -15.95 -19.5 -14.95 -18.5 -14.6 -15.8 -13.6 -14.9 -11.5 L-13.65 -8.05 -13.9 -10.35 -13.5 -15.55 Q-13.5 -19.5 -17.25 -20.55 L-22.65 -20.9 Q-24.2 -20.9 -24.8 -20.35 M-21.35 -17.1 L-23.1 -18.9 Q-23.85 -19.7 -25.85 -20.2 -25.85 -21.55 -22.35 -21.55 -15.4 -21.55 -14.15 -19.05 -12.95 -16.7 -12.95 -16.1 -12.95 -14.3 -13.4 -10.4 L-13.0 -7.35 -13.65 -6.6 Q-14.05 -6.6 -14.8 -9.1 -15.65 -12.1 -18.45 -13.7 L-19.55 -14.05 Q-20.15 -14.3 -20.45 -15.3 -20.75 -16.6 -21.35 -17.1" fill="#000000" fill-rule="evenodd" stroke="none"/>
    <path d="M16.5 -1.45 Q18.9 -4.3 20.1 -6.35 L21.55 -8.85 22.3 -10.0 22.75 -10.6 Q23.2 -11.05 24.6 -11.05 L30.8 -10.35 32.45 -9.7 Q33.8 -9.35 35.6 -7.7 38.1 -5.5 38.5 -3.7 35.55 -5.9 31.85 -5.9 30.45 -5.9 29.3 -5.05 L27.95 -4.2 26.0 -4.5 Q21.8 -4.5 16.55 -1.4 L16.5 -1.45 M-24.8 -20.25 L-24.8 -20.35 Q-24.2 -20.9 -22.65 -20.9 L-17.25 -20.55 Q-13.5 -19.5 -13.5 -15.55 L-13.9 -10.35 -13.65 -8.05 -14.9 -11.5 Q-15.8 -13.6 -18.5 -14.6 -19.5 -14.95 -19.9 -15.95 -20.3 -17.15 -20.85 -17.65 -22.05 -18.85 -24.8 -20.25" fill="#b7b0aa" fill-rule="evenodd" stroke="none"/>
  </g>
</svg>
