<?xml version="1.0" encoding="UTF-8" standalone="no"?>
<svg xmlns:xlink="http://www.w3.org/1999/xlink" height="26.9px" width="60.5px" xmlns="http://www.w3.org/2000/svg">
  <g transform="matrix(1.0, 0.0, 0.0, 1.0, 22.05, 26.25)">
    <path d="M16.15 -0.4 L14.75 0.65 14.35 0.55 14.3 0.3 Q17.75 -3.95 18.85 -6.4 21.55 -12.6 25.85 -12.6 L28.05 -12.55 28.4 -12.15 29.6 -12.1 30.45 -11.75 Q30.85 -11.35 33.35 -11.35 L38.45 -11.1 Q38.45 -10.4 36.55 -9.25 L34.05 -8.05 Q29.6 -7.4 28.95 -6.85 27.6 -5.35 27.15 -5.35 27.5 -5.7 26.2 -5.7 25.3 -5.7 18.95 -2.4 17.6 -1.75 16.15 -0.4 M15.85 -1.15 Q17.55 -2.8 25.15 -6.2 25.55 -6.4 26.4 -6.2 27.1 -6.05 27.7 -6.6 L28.65 -7.3 Q30.0 -7.95 33.3 -8.35 34.55 -8.55 35.7 -9.35 L37.6 -10.8 29.1 -11.35 24.95 -12.0 Q22.75 -12.0 21.45 -9.7 L19.75 -6.85 Q17.45 -3.0 15.85 -1.15 M-20.75 -20.1 L-22.05 -24.6 Q-22.05 -26.25 -21.1 -26.25 L-15.5 -21.7 -13.7 -19.4 Q-12.15 -17.3 -12.15 -16.9 -12.15 -14.45 -13.05 -7.8 L-12.7 -7.45 -13.35 -6.55 -14.7 -9.4 Q-16.2 -13.05 -18.45 -15.75 -20.1 -17.05 -20.35 -17.85 L-20.75 -20.1 M-19.85 -18.25 L-18.0 -16.25 Q-14.7 -12.45 -13.55 -8.1 L-13.55 -8.05 Q-12.7 -14.15 -12.7 -15.75 -12.7 -19.3 -21.1 -25.6 L-21.45 -24.55 Q-20.05 -20.75 -20.0 -20.35 L-19.85 -18.25" fill="#000000" fill-rule="evenodd" stroke="none"/>
    <path d="M15.85 -1.15 Q17.45 -3.0 19.75 -6.85 L21.45 -9.7 Q22.75 -12.0 24.95 -12.0 L29.1 -11.35 37.6 -10.8 35.7 -9.35 Q34.55 -8.55 33.3 -8.35 30.0 -7.95 28.65 -7.3 L27.7 -6.6 Q27.1 -6.05 26.4 -6.2 25.55 -6.4 25.15 -6.2 17.55 -2.8 15.85 -1.15 M-19.85 -18.25 L-20.0 -20.35 Q-20.05 -20.75 -21.45 -24.55 L-21.1 -25.6 Q-12.7 -19.3 -12.7 -15.75 -12.7 -14.15 -13.55 -8.05 L-13.55 -8.1 Q-14.7 -12.45 -18.0 -16.25 L-19.85 -18.25" fill="#b7b0aa" fill-rule="evenodd" stroke="none"/>
  </g>
</svg>
