<?xml version="1.0" encoding="UTF-8" standalone="no"?>
<svg xmlns:xlink="http://www.w3.org/1999/xlink" height="31.15px" width="53.6px" xmlns="http://www.w3.org/2000/svg">
  <g transform="matrix(1.0, 0.0, 0.0, 1.0, 18.15, 29.65)">
    <path d="M35.45 -13.95 Q35.45 -13.55 32.4 -12.2 31.3 -11.65 29.8 -10.15 28.95 -9.35 26.55 -8.3 L23.3 -6.75 Q21.15 -5.3 18.3 -2.55 15.1 1.5 14.65 1.5 L14.25 1.45 14.2 1.2 14.55 0.85 14.3 0.7 Q15.4 -1.85 18.8 -7.85 20.2 -10.35 21.55 -12.1 23.6 -15.2 31.75 -15.2 34.95 -15.2 35.45 -13.95 M33.35 -14.65 Q22.65 -14.65 21.75 -11.25 L19.0 -7.2 14.65 0.75 18.15 -3.05 22.5 -7.05 Q24.45 -8.6 29.05 -10.1 30.75 -12.35 34.4 -14.0 L34.55 -14.05 33.35 -14.65 M-14.7 -27.95 Q-13.65 -26.65 -13.35 -25.7 -12.65 -23.5 -12.65 -21.6 L-12.95 -17.85 -12.7 -15.65 -12.45 -13.6 -12.75 -7.25 Q-12.8 -7.1 -13.05 -7.1 -13.4 -7.1 -14.15 -9.65 L-15.35 -13.55 Q-18.15 -19.2 -18.15 -19.75 L-17.55 -24.3 -17.75 -26.55 Q-17.4 -29.65 -17.15 -29.65 -16.0 -29.65 -14.7 -27.95 M-13.2 -9.0 L-13.0 -12.15 -13.55 -18.3 -13.25 -21.65 Q-13.25 -26.85 -16.95 -28.85 L-17.15 -26.55 -16.95 -24.3 Q-16.95 -22.75 -17.55 -19.8 L-14.95 -14.4 Q-14.1 -12.55 -13.25 -9.0 L-13.2 -8.95 -13.2 -9.0" fill="#000000" fill-rule="evenodd" stroke="none"/>
    <path d="M33.35 -14.65 L34.55 -14.05 34.4 -14.0 Q30.75 -12.35 29.05 -10.1 24.45 -8.6 22.5 -7.05 L18.15 -3.05 14.65 0.75 19.0 -7.2 21.75 -11.25 Q22.65 -14.65 33.35 -14.65 M-13.25 -9.0 Q-14.1 -12.55 -14.95 -14.4 L-17.55 -19.8 Q-16.95 -22.75 -16.95 -24.3 L-17.15 -26.55 -16.95 -28.85 Q-13.25 -26.85 -13.25 -21.65 L-13.55 -18.3 -13.0 -12.15 -13.2 -9.0 -13.25 -9.0" fill="#b7b0aa" fill-rule="evenodd" stroke="none"/>
  </g>
</svg>
