<?xml version="1.0" encoding="UTF-8" standalone="no"?>
<svg xmlns:xlink="http://www.w3.org/1999/xlink" height="23.35px" width="73.05px" xmlns="http://www.w3.org/2000/svg">
  <g transform="matrix(1.0, 0.0, 0.0, 1.0, 33.05, 21.55)">
    <path d="M27.85 -0.45 L27.7 -0.4 27.35 -0.9 Q27.05 -1.45 24.85 -1.45 21.05 -1.45 17.85 0.2 L14.9 1.8 14.65 1.75 14.6 1.5 Q14.6 -0.6 18.15 -4.0 L22.6 -8.55 Q23.45 -9.25 25.35 -9.25 32.05 -9.25 36.6 -7.05 40.0 -5.4 40.0 -4.35 40.0 -3.9 39.4 -3.9 L37.1 -4.4 Q32.0 -4.4 29.5 -2.55 28.2 -1.6 27.85 -0.45 M29.5 -3.3 Q32.35 -5.05 37.15 -5.05 L38.45 -4.95 35.3 -7.05 Q32.9 -8.55 24.05 -8.55 22.7 -8.55 15.65 0.3 L15.65 0.4 18.25 -0.85 Q21.2 -2.0 24.85 -2.0 L26.85 -1.8 27.65 -1.6 29.5 -3.3 M-28.05 -17.45 Q-28.95 -18.15 -31.3 -19.45 -33.05 -20.45 -33.05 -20.75 -33.05 -21.55 -28.15 -21.55 -21.9 -21.55 -20.3 -20.3 L-18.4 -18.6 -15.9 -14.9 Q-12.15 -9.9 -12.15 -7.65 -12.15 -7.25 -12.55 -7.25 -13.45 -7.25 -14.8 -8.9 -17.95 -10.25 -18.45 -10.4 -24.55 -12.6 -25.2 -13.55 -27.55 -17.05 -28.05 -17.45 M-31.45 -20.45 Q-26.15 -17.9 -24.45 -13.7 -24.05 -12.8 -22.95 -12.6 L-21.3 -12.3 -18.45 -11.1 Q-14.4 -9.45 -13.25 -8.5 L-13.2 -8.5 Q-13.7 -10.2 -16.85 -15.2 -18.3 -17.65 -19.3 -18.5 L-20.8 -19.9 -28.85 -20.9 -31.45 -20.5 -31.5 -20.45 -31.45 -20.45" fill="#000000" fill-rule="evenodd" stroke="none"/>
    <path d="M29.5 -3.3 L27.65 -1.6 26.85 -1.8 24.85 -2.0 Q21.2 -2.0 18.25 -0.85 L15.65 0.4 15.65 0.3 Q22.7 -8.55 24.05 -8.55 32.9 -8.55 35.3 -7.05 L38.45 -4.95 37.15 -5.05 Q32.35 -5.05 29.5 -3.3 M-31.45 -20.5 L-28.85 -20.9 -20.8 -19.9 -19.3 -18.5 Q-18.3 -17.65 -16.85 -15.2 -13.7 -10.2 -13.2 -8.5 L-13.25 -8.5 Q-14.4 -9.45 -18.45 -11.1 L-21.3 -12.3 -22.95 -12.6 Q-24.05 -12.8 -24.45 -13.7 -26.15 -17.9 -31.45 -20.45 L-31.45 -20.5" fill="#b7b0aa" fill-rule="evenodd" stroke="none"/>
  </g>
</svg>
