<?xml version="1.0" encoding="UTF-8" standalone="no"?>
<svg xmlns:xlink="http://www.w3.org/1999/xlink" height="28.25px" width="72.75px" xmlns="http://www.w3.org/2000/svg">
  <g transform="matrix(1.0, 0.0, 0.0, 1.0, 35.75, 12.55)">
    <path d="M14.6 -0.5 L14.9 -0.45 14.95 -0.1 18.95 -0.55 Q29.8 -0.55 33.2 6.75 L37.0 14.9 Q37.0 15.7 36.65 15.7 L34.3 13.15 Q31.6 10.55 26.95 10.55 25.3 10.55 24.45 11.45 L23.75 12.3 Q22.85 9.0 20.0 6.25 14.0 1.65 14.0 0.65 L14.55 -0.15 14.35 -0.35 14.6 -0.5 M27.0 9.85 Q33.5 9.85 36.0 13.95 L36.05 13.95 Q33.05 4.95 27.55 1.9 24.3 0.1 18.4 0.1 L14.75 0.6 20.3 5.75 Q23.6 8.9 23.9 11.15 24.75 9.85 27.0 9.85 M-33.05 -10.8 Q-29.65 -12.55 -24.6 -12.55 -19.5 -12.55 -15.5 -10.4 -12.3 -8.7 -12.3 -7.7 -12.3 -6.4 -17.5 -6.1 L-21.3 -5.45 Q-22.25 -5.3 -22.6 -4.7 L-24.8 -6.35 Q-27.2 -8.0 -28.35 -8.0 L-29.5 -7.8 -33.7 -7.85 -35.75 -8.15 Q-35.75 -9.4 -33.05 -10.8 M-34.65 -8.5 Q-29.75 -8.3 -29.75 -8.55 L-30.05 -8.65 Q-27.6 -8.7 -24.95 -7.45 L-22.6 -5.6 -21.45 -6.1 -19.95 -6.4 -18.35 -6.6 -14.7 -7.15 Q-13.05 -7.25 -13.05 -7.55 -13.05 -8.65 -15.65 -10.05 -18.55 -11.6 -22.05 -11.65 -29.6 -11.75 -32.0 -10.75 -33.45 -10.1 -34.65 -8.5" fill="#000000" fill-rule="evenodd" stroke="none"/>
    <path d="M27.0 9.85 Q24.75 9.85 23.9 11.15 23.6 8.9 20.3 5.75 L14.75 0.6 18.4 0.1 Q24.3 0.1 27.55 1.9 33.05 4.95 36.05 13.95 L36.0 13.95 Q33.5 9.85 27.0 9.85 M-34.65 -8.5 Q-33.45 -10.1 -32.0 -10.75 -29.6 -11.75 -22.05 -11.65 -18.55 -11.6 -15.65 -10.05 -13.05 -8.65 -13.05 -7.55 -13.05 -7.25 -14.7 -7.15 L-18.35 -6.6 -19.95 -6.4 -21.45 -6.1 -22.6 -5.6 -24.95 -7.45 Q-27.6 -8.7 -30.05 -8.65 L-29.75 -8.55 Q-29.75 -8.3 -34.65 -8.5" fill="#b7b0aa" fill-rule="evenodd" stroke="none"/>
  </g>
</svg>
