<?xml version="1.0" encoding="UTF-8" standalone="no"?>
<svg xmlns:xlink="http://www.w3.org/1999/xlink" height="29.9px" width="74.65px" xmlns="http://www.w3.org/2000/svg">
  <g transform="matrix(1.0, 0.0, 0.0, 1.0, 37.95, 8.95)">
    <path d="M-21.05 -5.05 L-18.75 -5.75 -12.45 -8.95 Q-12.1 -8.95 -12.1 -8.65 -12.1 -7.5 -18.1 -1.1 L-22.2 2.9 -25.75 6.05 -26.4 4.25 Q-27.1 2.15 -28.65 1.0 -29.6 0.25 -32.75 -0.95 -36.55 -2.5 -37.95 -2.75 L-35.4 -3.0 Q-30.5 -3.0 -25.85 -4.35 -22.5 -4.35 -21.05 -5.05 M-34.4 -2.3 Q-26.1 -0.6 -25.65 5.15 -19.75 0.5 -13.7 -7.45 L-13.9 -7.45 Q-18.85 -5.15 -20.15 -4.7 -21.95 -4.1 -34.05 -2.4 L-34.4 -2.3 M15.15 2.15 L15.15 3.45 Q14.95 5.35 15.15 6.0 L16.25 10.65 17.55 15.3 Q18.45 18.0 19.9 19.85 20.85 18.6 22.6 17.45 25.85 15.35 29.85 15.35 L29.9 15.35 34.65 15.9 Q23.45 12.9 20.1 9.05 16.25 4.45 15.2 2.1 L14.8 0.6 15.05 0.15 Q15.4 0.25 15.4 0.75 15.4 3.0 21.35 9.25 23.8 11.8 27.35 12.95 L36.7 15.85 Q36.7 16.6 34.6 16.6 L29.85 16.0 Q23.2 16.0 20.0 20.95 18.3 19.15 17.35 16.45 L15.95 11.7 Q14.45 6.95 14.45 2.4 14.45 1.65 14.7 1.4 L15.15 2.15" fill="#000000" fill-rule="evenodd" stroke="none"/>
    <path d="M-34.4 -2.3 L-34.05 -2.4 Q-21.95 -4.1 -20.15 -4.7 -18.85 -5.15 -13.9 -7.45 L-13.7 -7.45 Q-19.75 0.5 -25.65 5.15 -26.1 -0.6 -34.4 -2.3 M15.2 2.1 Q16.25 4.45 20.1 9.05 23.45 12.9 34.65 15.9 L29.9 15.35 29.85 15.35 Q25.85 15.35 22.6 17.45 20.85 18.6 19.9 19.85 18.45 18.0 17.55 15.3 L16.25 10.65 15.15 6.0 Q14.95 5.35 15.15 3.45 L15.15 2.15 15.2 2.1" fill="#b7b0aa" fill-rule="evenodd" stroke="none"/>
  </g>
</svg>
