<?xml version="1.0" encoding="UTF-8" standalone="no"?>
<svg xmlns:xlink="http://www.w3.org/1999/xlink" height="27.4px" width="69.2px" xmlns="http://www.w3.org/2000/svg">
  <g transform="matrix(1.0, 0.0, 0.0, 1.0, 37.05, 8.55)">
    <path d="M-12.85 -8.0 L-12.85 -8.1 Q-12.95 -8.35 -13.25 -8.35 -13.45 -8.35 -13.45 -7.95 L-13.35 -7.9 -16.95 -7.55 -20.45 -6.85 -27.65 -5.45 -35.05 -2.5 -35.35 -2.4 -35.35 -2.35 -33.25 -2.6 Q-31.05 -2.4 -30.95 -2.6 -26.55 -2.05 -23.75 0.35 L-19.45 -4.15 -17.0 -6.3 -13.1 -7.75 Q-12.7 -7.75 -12.7 -7.35 -12.7 -6.65 -16.8 -5.7 L-19.1 -3.45 -23.6 1.15 -26.05 -0.45 Q-28.55 -2.0 -30.95 -2.05 L-31.1 -2.05 -36.1 -1.75 -37.0 -1.8 -37.05 -2.05 Q-37.05 -3.2 -27.75 -5.85 -18.1 -8.6 -12.75 -8.55 L-12.5 -8.25 Q-12.5 -8.1 -12.85 -8.0 M29.15 15.9 L29.2 15.9 21.5 8.45 Q17.45 4.4 15.5 1.0 15.35 0.85 15.35 1.0 15.65 2.1 15.65 5.3 L15.45 11.1 Q15.45 13.3 16.05 16.5 L16.05 16.55 Q16.25 15.85 17.05 15.0 18.4 13.55 20.5 13.55 25.45 13.55 29.15 15.9 M20.5 14.2 Q18.2 14.2 17.2 15.85 L16.1 17.45 Q14.95 17.45 14.85 11.1 L15.05 5.35 14.75 1.25 Q14.75 0.15 15.4 0.15 L18.85 4.7 23.45 9.3 28.35 14.0 Q32.15 17.7 32.15 18.35 L31.9 18.85 29.05 16.55 Q25.6 14.2 20.5 14.2" fill="#000000" fill-rule="evenodd" stroke="none"/>
    <path d="M-13.1 -7.75 L-17.0 -6.3 -19.45 -4.15 -23.75 0.35 Q-26.55 -2.05 -30.95 -2.6 -31.05 -2.4 -33.25 -2.6 L-35.35 -2.35 -35.35 -2.4 -35.05 -2.5 -27.65 -5.45 -20.45 -6.85 -16.95 -7.55 -13.35 -7.9 -13.45 -7.95 Q-13.45 -8.35 -13.25 -8.35 -12.95 -8.35 -12.85 -8.1 L-12.85 -8.0 -12.85 -7.95 Q-13.0 -7.8 -13.05 -7.8 L-13.1 -7.75 M29.15 15.9 Q25.45 13.55 20.5 13.55 18.4 13.55 17.05 15.0 16.25 15.85 16.05 16.55 L16.05 16.5 Q15.45 13.3 15.45 11.1 L15.65 5.3 Q15.65 2.1 15.35 1.0 15.35 0.85 15.5 1.0 17.45 4.4 21.5 8.45 L29.2 15.9 29.15 15.9" fill="#b7b0aa" fill-rule="evenodd" stroke="none"/>
  </g>
</svg>
