<?xml version="1.0" encoding="UTF-8" standalone="no"?>
<svg xmlns:xlink="http://www.w3.org/1999/xlink" height="31.5px" width="70.65px" xmlns="http://www.w3.org/2000/svg">
  <g transform="matrix(1.0, 0.0, 0.0, 1.0, 36.6, 18.25)">
    <path d="M20.7 -2.05 Q29.45 -2.05 32.6 3.65 34.05 6.3 34.05 10.0 L33.85 13.2 33.7 13.25 31.95 11.2 Q30.0 9.1 26.8 9.1 24.1 9.1 22.5 10.1 L20.85 11.05 Q20.6 11.05 20.05 9.15 19.4 6.65 18.3 5.0 15.2 0.25 13.7 -0.85 14.45 -2.05 20.7 -2.05 M21.1 10.15 L22.45 9.25 Q24.05 8.45 26.8 8.45 30.0 8.45 31.7 9.85 32.6 10.55 33.3 11.8 L33.35 11.8 33.45 9.95 Q33.45 -1.4 19.1 -1.4 L15.0 -0.65 18.7 4.65 Q20.8 7.85 21.05 10.05 L21.05 10.15 21.1 10.15 M-27.4 -17.55 Q-31.45 -17.55 -35.6 -13.4 -31.55 -12.65 -30.9 -12.3 L-28.8 -11.15 -25.45 -8.1 Q-23.25 -9.35 -20.0 -9.35 -15.35 -9.35 -13.3 -8.4 -17.3 -14.8 -20.8 -16.55 -22.75 -17.55 -27.4 -17.55 M-36.6 -13.15 Q-31.95 -18.25 -26.05 -18.25 -20.3 -18.25 -16.0 -13.5 -12.8 -10.0 -12.8 -8.55 -12.8 -8.3 -13.05 -8.1 L-12.4 -7.8 Q-12.5 -7.4 -12.9 -7.4 -14.95 -8.7 -20.9 -8.7 -22.2 -8.7 -25.35 -7.45 -26.45 -7.45 -28.95 -10.45 -29.9 -10.95 -30.9 -11.8 -32.25 -12.45 -36.55 -12.9 L-36.6 -13.15" fill="#000000" fill-rule="evenodd" stroke="none"/>
    <path d="M21.05 10.05 Q20.8 7.85 18.7 4.65 L15.0 -0.65 19.1 -1.4 Q33.45 -1.4 33.45 9.95 L33.35 11.8 33.3 11.8 Q32.6 10.55 31.7 9.85 30.0 8.45 26.8 8.45 24.05 8.45 22.45 9.25 L21.1 10.15 21.05 10.05 M-27.4 -17.55 Q-22.75 -17.55 -20.8 -16.55 -17.3 -14.8 -13.3 -8.4 -15.35 -9.35 -20.0 -9.35 -23.25 -9.35 -25.45 -8.1 L-28.8 -11.15 -30.9 -12.3 Q-31.55 -12.65 -35.6 -13.4 -31.45 -17.55 -27.4 -17.55" fill="#b7b0aa" fill-rule="evenodd" stroke="none"/>
  </g>
</svg>
