<?xml version="1.0" encoding="UTF-8" standalone="no"?>
<svg xmlns:xlink="http://www.w3.org/1999/xlink" height="27.8px" width="74.3px" xmlns="http://www.w3.org/2000/svg">
  <g transform="matrix(1.0, 0.0, 0.0, 1.0, 35.8, 20.3)">
    <path d="M13.35 -0.95 Q13.35 -1.7 17.65 -3.15 18.4 -3.4 19.95 -4.2 21.7 -4.9 24.65 -5.05 L28.35 -5.05 Q30.8 -4.15 32.75 -2.5 34.5 -1.1 35.8 0.9 L37.4 4.15 38.5 7.0 Q38.5 7.5 38.05 7.5 36.2 5.1 32.75 4.35 L28.95 3.95 27.1 4.3 Q19.85 -0.8 15.45 -0.8 L13.65 -0.55 Q13.35 -0.55 13.35 -0.95 M15.45 -1.5 L15.45 -1.45 Q21.55 -0.75 27.1 3.6 L28.9 3.25 32.75 3.55 Q36.0 4.15 37.3 5.85 L37.35 5.85 Q36.15 2.1 34.85 0.55 L32.75 -1.5 31.8 -2.15 30.4 -3.5 Q30.0 -4.2 29.5 -4.3 L23.1 -4.4 Q22.1 -4.4 18.8 -3.0 L15.45 -1.5 M-22.25 -18.6 Q-18.55 -17.0 -17.1 -14.95 L-11.9 -8.15 -11.95 -7.95 -12.1 -7.85 -12.65 -8.25 Q-12.9 -8.0 -13.3 -8.0 -14.75 -8.0 -20.25 -10.4 L-24.4 -11.55 Q-25.95 -11.75 -26.45 -12.15 L-27.1 -13.05 Q-29.6 -16.2 -33.0 -17.55 L-35.8 -18.75 Q-31.95 -20.3 -30.1 -20.3 -26.2 -20.3 -22.25 -18.6 M-34.7 -18.85 Q-28.5 -15.65 -26.7 -13.55 -25.5 -12.2 -23.25 -11.65 L-20.0 -11.0 Q-17.1 -10.3 -13.35 -8.75 L-13.2 -8.8 Q-16.15 -12.95 -18.0 -14.95 -21.15 -19.7 -30.5 -19.7 L-34.7 -18.85" fill="#000000" fill-rule="evenodd" stroke="none"/>
    <path d="M15.45 -1.5 L18.8 -3.0 Q22.1 -4.4 23.1 -4.4 L29.5 -4.3 Q30.0 -4.2 30.4 -3.5 L31.8 -2.15 32.75 -1.5 34.85 0.55 Q36.15 2.1 37.35 5.85 L37.3 5.85 Q36.0 4.15 32.75 3.55 L28.9 3.25 27.1 3.6 Q21.55 -0.75 15.45 -1.45 L15.45 -1.5 M-34.7 -18.85 L-30.5 -19.7 Q-21.15 -19.7 -18.0 -14.95 -16.15 -12.95 -13.2 -8.8 L-13.35 -8.75 Q-17.1 -10.3 -20.0 -11.0 L-23.25 -11.65 Q-25.5 -12.2 -26.7 -13.55 -28.5 -15.65 -34.7 -18.85" fill="#b7b0aa" fill-rule="evenodd" stroke="none"/>
  </g>
</svg>
