<?xml version="1.0" encoding="UTF-8" standalone="no"?>
<svg xmlns:xlink="http://www.w3.org/1999/xlink" height="37.0px" width="37.9px" xmlns="http://www.w3.org/2000/svg">
  <g transform="matrix(1.0, 0.0, 0.0, 1.0, 17.1, 22.1)">
    <path d="M5.75 -2.9 L6.1 -2.6 6.8 -2.1 6.0 -1.15 Q6.0 -0.9 6.15 -0.75 6.45 -0.4 7.4 -0.4 7.95 -0.4 8.9 -1.05 L10.0 -1.65 Q10.5 -1.25 11.5 -1.25 L12.15 -1.25 12.6 -0.9 Q13.0 -0.9 13.3 -1.35 14.45 -1.35 14.55 -1.85 L14.75 -1.95 15.0 -2.05 15.1 -0.25 Q13.8 10.55 10.2 11.05 L9.35 12.15 Q8.6 13.05 5.25 14.05 L1.45 14.9 Q0.7 14.9 0.5 14.6 L0.25 14.5 -2.95 14.65 Q-4.55 14.65 -7.15 13.6 L-9.6 12.5 Q-11.0 11.4 -11.05 10.85 L-11.0 10.7 -11.45 10.55 Q-12.15 10.1 -13.1 7.85 L-15.05 2.45 -14.85 0.9 -14.95 -0.5 -14.65 -2.8 -14.7 -3.2 Q-14.7 -5.65 -13.15 -8.2 L-13.25 -7.5 -13.05 -6.55 -13.0 -6.4 -13.65 -5.7 Q-13.65 -5.15 -13.2 -4.85 -14.45 -4.15 -14.45 -3.5 -14.45 -2.45 -12.4 -2.2 L-12.85 -1.6 -13.2 -1.7 Q-14.25 -1.7 -14.25 0.95 -14.25 2.3 -13.4 4.2 -12.05 7.3 -11.45 7.5 -10.2 10.5 -8.95 10.5 L-8.8 10.5 -8.5 11.05 Q-8.5 11.6 -6.95 12.4 -5.15 13.3 -3.05 13.3 -0.35 13.3 -0.25 12.15 1.6 12.0 1.6 11.45 L1.55 11.1 Q2.95 10.85 2.95 10.25 2.8 9.7 2.5 9.7 L-0.25 9.9 -1.55 9.85 -1.55 9.75 -2.45 9.55 -2.25 9.35 Q-7.4 7.45 -8.5 4.05 L-10.9 -1.7 -10.95 -1.7 -11.05 -2.15 Q-9.3 -2.15 -9.3 -2.9 -9.3 -3.4 -11.0 -3.9 -9.5 -4.2 -9.5 -4.65 L-10.6 -5.5 -9.5 -5.2 -9.05 -5.3 -8.6 -5.15 -7.95 -4.65 Q-8.65 -4.1 -8.65 -3.45 -8.65 -2.55 -8.1 -2.0 L-8.2 -1.45 -6.85 0.5 Q-6.3 0.5 -5.75 -0.2 -5.2 -0.95 -4.1 -0.95 L-2.6 -0.7 Q-1.15 -0.7 -1.15 -1.75 L-1.3 -2.15 Q-1.05 -2.55 -1.05 -3.1 -1.05 -4.2 -1.7 -4.8 -1.05 -5.25 -1.05 -6.1 -1.05 -7.0 -2.0 -7.4 L-2.0 -7.55 Q-1.9 -8.45 -2.3 -8.95 L-1.15 -10.0 -0.85 -10.3 -1.0 -9.25 Q-1.0 -6.85 1.2 -4.7 3.15 -2.85 4.65 -2.85 L5.75 -2.9 M14.95 -4.7 L12.6 -5.4 12.6 -5.55 Q13.7 -6.05 14.4 -7.05 L14.4 -7.0 14.7 -6.05 14.7 -5.95 14.85 -5.25 14.95 -4.7 M0.55 -12.85 L-0.2 -11.55 -0.6 -10.95 -0.6 -11.3 Q-0.6 -12.5 -1.55 -13.1 L-1.5 -13.15 -0.25 -12.75 0.55 -12.85 M-5.5 9.8 L-5.4 9.85 -5.4 9.9 -5.5 9.8" fill="#e78603" fill-rule="evenodd" stroke="none"/>
    <path d="M5.05 -16.85 L5.35 -16.6 Q5.55 -16.6 6.55 -17.35 7.5 -18.1 8.65 -18.1 L10.55 -17.8 Q11.45 -17.8 11.45 -18.6 L11.25 -18.9 Q13.7 -18.6 13.7 -17.15 13.7 -16.2 11.75 -15.05 L11.4 -14.85 Q11.8 -14.45 11.8 -13.85 11.8 -12.65 10.6 -12.25 L11.4 -11.8 Q11.75 -12.8 13.4 -13.3 16.4 -14.3 18.05 -14.3 19.3 -14.3 19.4 -12.85 19.4 -11.95 17.95 -11.05 L18.2 -11.0 18.85 -11.0 Q20.9 -11.0 20.8 -9.4 20.8 -7.5 17.4 -7.5 14.85 -7.5 14.85 -8.8 14.85 -9.35 15.45 -10.0 L13.2 -9.75 12.85 -9.75 Q14.1 -9.15 14.65 -7.5 L14.4 -7.05 Q13.7 -6.05 12.6 -5.55 L12.6 -5.4 14.95 -4.7 15.05 -4.65 Q15.95 -4.35 15.95 -3.35 15.95 -2.65 15.0 -2.05 L14.75 -1.95 14.55 -1.85 14.55 -1.95 Q14.05 -3.9 11.95 -3.9 9.85 -3.9 7.8 -2.75 L6.8 -2.1 6.1 -2.6 5.75 -2.9 Q4.95 -3.65 4.95 -4.25 L5.1 -4.9 6.8 -5.95 8.35 -5.5 Q9.65 -5.5 9.65 -6.25 9.65 -7.8 6.1 -7.8 3.65 -7.8 3.6 -6.5 3.0 -6.75 3.0 -7.3 3.0 -8.3 4.35 -8.55 1.3 -8.75 1.3 -10.75 1.3 -11.95 2.3 -12.25 L5.85 -12.5 6.3 -12.6 Q5.55 -13.05 5.55 -13.85 L5.55 -14.05 Q4.7 -14.55 4.7 -15.75 4.7 -16.3 5.05 -16.85 M-13.15 -8.2 L-12.1 -10.85 -10.65 -13.3 -8.3 -16.2 Q-6.2 -17.95 -1.2 -18.4 L-0.75 -18.45 Q1.15 -18.45 1.7 -15.2 1.7 -13.3 0.55 -12.85 L-0.25 -12.75 -1.5 -13.15 -1.55 -13.1 Q-0.6 -12.5 -0.6 -11.3 L-0.6 -10.95 -0.85 -10.3 -1.15 -10.0 -2.3 -8.95 Q-2.9 -9.7 -4.45 -9.7 -6.05 -9.7 -6.95 -8.55 -7.55 -7.8 -7.55 -7.25 L-7.55 -6.7 -7.65 -6.75 -7.8 -7.65 Q-7.9 -8.2 -9.45 -8.2 -10.3 -8.2 -12.0 -7.1 L-13.0 -6.4 -13.05 -6.55 -13.25 -7.5 -13.15 -8.2 M7.4 -8.55 L8.05 -8.5 Q9.05 -8.5 9.65 -9.4 10.45 -9.4 11.7 -8.8 12.5 -8.8 12.5 -9.45 11.1 -11.1 9.4 -11.1 5.6 -11.1 5.6 -9.75 5.6 -9.15 6.8 -9.35 L7.05 -8.8 7.3 -8.6 7.25 -8.6 7.4 -8.45 7.4 -8.55 M10.0 -1.65 L10.45 -1.75 Q11.35 -1.75 12.15 -1.25 L11.5 -1.25 Q10.5 -1.25 10.0 -1.65 M-12.4 -2.2 Q-14.45 -2.45 -14.45 -3.5 -14.45 -4.15 -13.2 -4.85 -12.75 -4.5 -11.7 -4.5 -10.85 -4.5 -10.7 -5.5 L-10.6 -5.5 -9.5 -4.65 Q-9.5 -4.2 -11.0 -3.9 -9.3 -3.4 -9.3 -2.9 -9.3 -2.15 -11.05 -2.15 -11.25 -2.5 -11.7 -2.5 -12.1 -2.5 -12.4 -2.2 M-1.95 -14.05 Q-2.95 -15.6 -5.0 -15.6 -9.65 -15.6 -9.65 -12.55 -9.65 -11.85 -8.9 -11.85 -8.65 -11.85 -7.9 -12.9 -7.2 -13.95 -3.75 -13.95 L-2.4 -13.6 Q-1.95 -13.6 -1.95 -14.05 M-9.05 -5.3 L-8.8 -5.4 -8.6 -5.15 -9.05 -5.3 M-7.95 -4.65 L-7.55 -4.3 Q-7.15 -4.3 -6.95 -4.55 L-6.8 -4.55 Q-6.2 -4.55 -5.6 -5.9 -5.0 -7.25 -3.55 -7.25 L-2.7 -6.65 Q-2.05 -6.65 -2.0 -7.4 -1.05 -7.0 -1.05 -6.1 -1.05 -5.25 -1.7 -4.8 -1.05 -4.2 -1.05 -3.1 -1.05 -2.55 -1.3 -2.15 -1.95 -3.0 -5.6 -3.0 -7.7 -3.0 -8.1 -2.0 -8.65 -2.55 -8.65 -3.45 -8.65 -4.1 -7.95 -4.65 M-3.0 -10.1 Q-2.75 -10.1 -2.7 -10.25 L-2.6 -10.95 Q-2.6 -11.5 -3.55 -12.1 -4.7 -12.85 -6.35 -12.85 -7.65 -12.85 -8.7 -11.8 L-9.55 -10.4 -9.05 -9.5 Q-8.45 -9.5 -7.65 -10.35 L-6.35 -11.2 -4.95 -10.65 -4.25 -10.9 -3.0 -10.1" fill="#e44805" fill-rule="evenodd" stroke="none"/>
    <path d="M3.6 -6.5 Q3.65 -7.8 6.1 -7.8 9.65 -7.8 9.65 -6.25 9.65 -5.5 8.35 -5.5 L6.8 -5.95 5.1 -4.9 4.55 -4.8 Q3.85 -4.8 3.65 -5.6 L3.6 -6.45 3.6 -6.5 M6.8 -2.1 L7.8 -2.75 Q9.85 -3.9 11.95 -3.9 14.05 -3.9 14.55 -1.95 L14.55 -1.85 Q14.45 -1.35 13.3 -1.35 13.0 -0.9 12.6 -0.9 L12.15 -1.25 Q11.35 -1.75 10.45 -1.75 L10.0 -1.65 8.9 -1.05 Q7.95 -0.4 7.4 -0.4 6.45 -0.4 6.15 -0.75 6.0 -0.9 6.0 -1.15 L6.8 -2.1 M7.3 -8.6 L7.05 -8.8 6.8 -9.35 Q5.6 -9.15 5.6 -9.75 5.6 -11.1 9.4 -11.1 11.1 -11.1 12.5 -9.45 12.5 -8.8 11.7 -8.8 10.45 -9.4 9.65 -9.4 9.05 -8.5 8.05 -8.5 L7.4 -8.55 7.3 -8.6 M-13.2 -4.85 Q-13.65 -5.15 -13.65 -5.7 L-13.0 -6.4 -12.0 -7.1 Q-10.3 -8.2 -9.45 -8.2 -7.9 -8.2 -7.8 -7.65 L-7.65 -6.75 -7.55 -6.7 -7.55 -7.25 Q-7.55 -7.8 -6.95 -8.55 -6.05 -9.7 -4.45 -9.7 -2.9 -9.7 -2.3 -8.95 -1.9 -8.45 -2.0 -7.55 L-2.0 -7.4 Q-2.05 -6.65 -2.7 -6.65 L-3.55 -7.25 Q-5.0 -7.25 -5.6 -5.9 -6.2 -4.55 -6.8 -4.55 L-6.95 -4.55 Q-7.15 -4.3 -7.55 -4.3 L-7.95 -4.65 -8.6 -5.15 -8.8 -5.4 -9.05 -5.3 -9.5 -5.2 -10.6 -5.5 -10.7 -5.5 Q-10.85 -4.5 -11.7 -4.5 -12.75 -4.5 -13.2 -4.85 M-2.75 -19.95 L-3.85 -20.05 Q-7.15 -20.05 -7.95 -18.8 -8.7 -17.6 -9.05 -17.6 -9.75 -17.6 -9.75 -18.4 -9.75 -19.15 -8.6 -20.45 -7.1 -22.1 -4.95 -22.1 -2.45 -22.1 -2.35 -20.55 -2.35 -19.95 -2.75 -19.95 M-17.1 -14.75 Q-17.1 -15.8 -16.2 -16.75 -15.05 -17.95 -12.95 -17.95 -10.8 -17.95 -10.8 -16.7 -10.8 -16.25 -11.25 -16.25 -11.8 -16.8 -12.45 -16.8 -13.8 -16.8 -15.05 -15.15 L-16.4 -13.55 Q-16.9 -13.55 -17.05 -14.15 L-17.1 -14.75 M-3.0 -10.1 L-4.25 -10.9 -4.95 -10.65 -6.35 -11.2 -7.65 -10.35 Q-8.45 -9.5 -9.05 -9.5 L-9.55 -10.4 -8.7 -11.8 Q-7.65 -12.85 -6.35 -12.85 -4.7 -12.85 -3.55 -12.1 -2.6 -11.5 -2.6 -10.95 L-2.7 -10.25 Q-2.75 -10.1 -3.0 -10.1 M-1.3 -2.15 L-1.15 -1.75 Q-1.15 -0.7 -2.6 -0.7 L-4.1 -0.95 Q-5.2 -0.95 -5.75 -0.2 -6.3 0.5 -6.85 0.5 L-8.2 -1.45 -8.1 -2.0 Q-7.7 -3.0 -5.6 -3.0 -1.95 -3.0 -1.3 -2.15" fill="#e77003" fill-rule="evenodd" stroke="none"/>
    <path d="M11.25 -18.9 L11.45 -18.6 Q11.45 -17.8 10.55 -17.8 L8.65 -18.1 Q7.5 -18.1 6.55 -17.35 5.55 -16.6 5.35 -16.6 L5.05 -16.85 4.7 -17.25 Q4.7 -17.75 5.9 -18.8 7.2 -19.9 8.0 -19.8 L8.75 -19.85 Q10.55 -19.85 11.25 -18.9 M-11.05 -2.15 L-10.95 -1.7 -10.9 -1.7 -8.5 4.05 Q-7.4 7.45 -2.25 9.35 L-2.45 9.55 -1.55 9.75 -1.55 9.85 -0.25 9.9 2.5 9.7 Q2.8 9.7 2.95 10.25 2.95 10.85 1.55 11.1 L1.6 11.45 Q1.6 12.0 -0.25 12.15 -0.35 13.3 -3.05 13.3 -5.15 13.3 -6.95 12.4 -8.5 11.6 -8.5 11.05 L-8.8 10.5 -8.95 10.5 Q-10.2 10.5 -11.45 7.5 -12.05 7.3 -13.4 4.2 -14.25 2.3 -14.25 0.95 -14.25 -1.7 -13.2 -1.7 L-12.85 -1.6 -12.4 -2.2 Q-12.1 -2.5 -11.7 -2.5 -11.25 -2.5 -11.05 -2.15 M-1.95 -14.05 Q-1.95 -13.6 -2.4 -13.6 L-3.75 -13.95 Q-7.2 -13.95 -7.9 -12.9 -8.65 -11.85 -8.9 -11.85 -9.65 -11.85 -9.65 -12.55 -9.65 -15.6 -5.0 -15.6 -2.95 -15.6 -1.95 -14.05 M-5.5 9.8 L-5.4 9.9 -5.4 9.85 -5.5 9.8" fill="#fece10" fill-rule="evenodd" stroke="none"/>
  </g>
</svg>
