<?xml version="1.0" encoding="UTF-8" standalone="no"?>
<svg xmlns:xlink="http://www.w3.org/1999/xlink" height="39.1px" width="37.75px" xmlns="http://www.w3.org/2000/svg">
  <g transform="matrix(1.0, 0.0, 0.0, 1.0, 17.75, 23.45)">
    <path d="M-6.85 -15.05 L-5.75 -15.15 Q-4.7 -15.15 -4.6 -14.5 L-4.1 -14.4 Q-3.6 -14.35 -3.6 -13.95 L-3.5 -13.4 Q-3.5 -12.5 -4.95 -11.85 L-6.5 -11.05 -7.2 -10.9 -7.15 -11.25 -7.5 -11.55 Q-6.45 -12.1 -6.45 -12.8 -6.45 -13.4 -7.6 -13.95 L-8.05 -14.15 -7.8 -14.35 -6.9 -15.05 -6.85 -15.05 M-7.9 -9.3 L-9.05 -6.8 -10.55 -0.15 Q-10.55 1.2 -8.2 5.55 -6.45 10.55 0.1 10.55 5.85 10.55 8.75 8.0 10.2 6.75 10.65 5.25 13.05 1.7 13.05 -0.75 13.05 -4.3 11.5 -7.55 9.95 -10.75 9.95 -10.95 9.95 -11.8 10.6 -11.8 11.9 -11.8 13.1 -9.5 L14.55 -6.2 Q15.8 -3.25 15.8 -0.65 L15.75 0.35 16.0 1.55 Q14.6 7.95 13.65 9.3 11.5 12.15 10.1 13.1 6.2 15.65 -0.9 15.65 -10.35 15.65 -14.8 8.8 -17.5 4.65 -17.5 1.15 -17.5 -4.7 -15.65 -7.55 L-14.1 -10.05 -12.15 -9.9 -7.85 -10.4 -8.0 -9.8 -7.9 -9.3 M0.5 13.45 Q0.5 12.95 0.0 12.95 L-2.7 13.25 Q-6.4 13.25 -10.3 8.25 -14.45 2.95 -14.45 -2.9 L-14.25 -3.55 -13.7 -5.65 -13.5 -6.25 -13.55 -6.6 -13.8 -6.4 -12.55 -7.45 -12.8 -7.55 Q-15.8 -6.5 -15.8 0.35 L-15.25 3.6 -14.55 6.35 -12.75 9.35 Q-11.9 10.4 -9.45 11.6 L-7.8 13.0 Q-5.15 14.8 -2.6 14.8 0.5 14.8 0.5 13.45 M-11.35 -9.45 L-11.25 -9.5 -11.2 -9.6 -11.35 -9.45" fill="#e78603" fill-rule="evenodd" stroke="none"/>
    <path d="M6.6 -18.85 Q7.4 -18.3 9.6 -18.3 12.75 -18.3 12.75 -19.8 12.75 -20.35 12.1 -20.65 12.1 -21.65 10.05 -21.65 8.8 -21.65 7.75 -21.0 6.05 -20.85 6.05 -19.75 L6.05 -19.6 5.7 -18.85 Q5.7 -18.1 6.2 -18.1 L6.35 -18.2 6.4 -18.4 6.6 -18.85 M1.15 -13.55 Q0.0 -13.9 0.0 -14.95 0.0 -16.2 4.1 -16.2 L6.3 -15.85 Q6.7 -16.8 10.1 -16.8 11.4 -16.8 11.45 -16.0 L12.3 -16.1 14.25 -15.85 16.85 -16.1 Q18.8 -16.1 18.8 -14.6 18.8 -13.9 16.55 -13.1 L18.75 -12.55 Q20.0 -11.95 20.0 -11.25 20.0 -9.55 17.05 -9.55 15.35 -9.55 14.75 -10.25 L14.5 -11.0 14.65 -11.45 Q16.5 -11.75 16.5 -12.75 16.5 -13.2 15.95 -13.4 L14.05 -13.95 Q12.15 -13.95 12.15 -12.8 L12.6 -12.2 11.5 -12.15 Q10.2 -12.15 9.75 -12.95 L9.75 -13.1 10.7 -13.4 Q12.0 -13.85 12.0 -14.65 12.0 -15.6 9.1 -15.6 7.55 -15.6 7.4 -14.6 L6.85 -14.75 Q6.55 -14.35 5.6 -14.0 L5.1 -13.8 5.2 -14.3 Q5.2 -15.5 2.85 -15.5 1.0 -15.5 1.0 -14.2 1.0 -13.85 1.15 -13.55 M12.2 -18.55 Q10.4 -17.75 8.0 -17.75 4.1 -17.75 4.1 -19.85 4.1 -20.85 5.9 -21.7 7.75 -22.55 9.95 -22.55 13.9 -22.55 13.9 -20.25 13.9 -19.3 12.2 -18.55 M-2.5 -23.15 L-2.15 -23.2 Q2.85 -23.2 2.85 -20.7 2.85 -19.55 0.85 -18.7 L-1.5 -18.0 -1.5 -17.85 Q-1.5 -17.35 -2.45 -16.8 -3.05 -17.2 -4.15 -17.2 -5.7 -17.2 -7.35 -16.15 L-10.2 -16.6 -11.4 -16.55 -15.45 -16.2 Q-16.05 -16.1 -16.05 -15.5 L-16.0 -15.25 Q-16.55 -15.75 -16.55 -16.5 -16.55 -17.25 -15.55 -17.9 L-14.2 -18.5 Q-11.1 -18.5 -11.55 -17.9 -11.15 -17.9 -11.15 -18.35 L-11.45 -18.7 -7.5 -18.3 -7.15 -18.45 -7.6 -18.75 Q-8.6 -19.45 -8.65 -20.2 L-7.8 -20.95 Q-6.1 -22.2 -4.7 -22.2 -3.35 -22.2 -2.4 -21.5 -1.95 -21.5 -1.85 -22.05 -1.85 -22.8 -2.5 -23.15 M-14.85 -10.9 Q-15.35 -11.3 -15.35 -12.05 -15.35 -13.65 -13.05 -14.2 L-10.15 -14.1 -9.45 -14.1 -8.95 -13.45 -8.05 -14.15 -7.6 -13.95 Q-6.45 -13.4 -6.45 -12.8 -6.45 -12.1 -7.5 -11.55 L-9.45 -12.25 -12.6 -12.9 Q-14.85 -12.9 -14.85 -11.15 L-14.85 -10.9 M0.95 -19.35 Q2.15 -20.0 2.15 -20.5 2.3 -21.6 0.45 -21.6 -4.15 -21.6 -4.15 -19.8 -4.15 -18.6 -2.15 -18.6 -0.45 -18.6 0.95 -19.35 M5.4 -9.35 Q4.2 -9.65 4.2 -10.65 4.2 -12.4 6.8 -12.4 8.05 -12.4 9.95 -10.7 9.95 -10.2 8.65 -9.7 L7.7 -9.35 Q9.0 -9.2 9.0 -8.5 L8.25 -7.7 Q7.45 -7.15 7.1 -7.15 6.5 -7.15 6.1 -7.8 7.6 -7.95 7.6 -8.85 L7.25 -9.4 Q8.8 -9.5 8.8 -10.45 8.8 -11.65 6.7 -11.65 5.5 -11.65 5.5 -10.55 5.5 -9.8 6.1 -9.5 L5.4 -9.35" fill="#e44805" fill-rule="evenodd" stroke="none"/>
    <path d="M6.6 -18.85 L7.25 -19.6 Q8.3 -20.6 9.7 -20.6 L11.35 -20.1 Q12.1 -20.1 12.1 -20.65 12.75 -20.35 12.75 -19.8 12.75 -18.3 9.6 -18.3 7.4 -18.3 6.6 -18.85 M7.75 -21.0 L6.85 -20.4 6.05 -19.6 6.05 -19.75 Q6.05 -20.85 7.75 -21.0 M1.15 -13.55 Q1.0 -13.85 1.0 -14.2 1.0 -15.5 2.85 -15.5 5.2 -15.5 5.2 -14.3 L5.1 -13.8 Q4.6 -13.05 2.5 -13.05 1.5 -13.05 1.15 -13.55 M7.4 -14.6 Q7.55 -15.6 9.1 -15.6 12.0 -15.6 12.0 -14.65 12.0 -13.85 10.7 -13.4 L9.75 -13.1 8.45 -12.75 7.4 -14.45 7.4 -14.6 M12.6 -12.2 L12.15 -12.8 Q12.15 -13.95 14.05 -13.95 L15.95 -13.4 Q16.5 -13.2 16.5 -12.75 16.5 -11.75 14.65 -11.45 L13.2 -11.4 12.6 -12.2 M-6.5 -11.05 L-6.4 -11.05 Q-4.05 -11.05 -4.05 -9.85 L-4.1 -9.65 Q-6.3 -8.8 -6.95 -8.8 -7.7 -8.8 -7.9 -9.3 L-8.0 -9.8 -7.85 -10.4 -12.15 -9.9 -14.1 -10.05 Q-14.55 -10.15 -14.75 -10.35 L-14.85 -10.9 -14.85 -11.15 Q-14.85 -12.9 -12.6 -12.9 L-9.45 -12.25 -7.5 -11.55 -7.15 -11.25 -7.2 -10.9 -6.5 -11.05 M-13.05 -14.2 Q-15.7 -14.45 -16.0 -15.25 L-16.05 -15.5 Q-16.05 -16.1 -15.45 -16.2 L-11.4 -16.55 -10.2 -16.6 -7.35 -16.15 Q-7.6 -16.05 -7.8 -15.9 -9.5 -14.75 -9.5 -14.15 L-9.45 -14.1 -10.15 -14.1 -13.05 -14.2 M-14.2 -18.5 L-14.45 -18.5 -16.25 -17.4 -17.35 -16.3 Q-17.75 -16.3 -17.75 -16.65 -17.75 -17.1 -16.7 -18.15 -15.35 -19.5 -13.7 -19.5 -12.3 -19.5 -11.45 -18.7 L-11.15 -18.35 Q-11.15 -17.9 -11.55 -17.9 -11.1 -18.5 -14.2 -18.5 M-8.65 -20.2 L-9.45 -19.65 -9.6 -20.25 Q-9.6 -21.25 -8.5 -22.15 -6.95 -23.45 -3.95 -23.45 L-2.5 -23.15 Q-1.85 -22.8 -1.85 -22.05 -1.95 -21.5 -2.4 -21.5 -3.35 -22.2 -4.7 -22.2 -6.1 -22.2 -7.8 -20.95 L-8.65 -20.2 M0.95 -19.35 Q-0.45 -18.6 -2.15 -18.6 -4.15 -18.6 -4.15 -19.8 -4.15 -21.6 0.45 -21.6 2.3 -21.6 2.15 -20.5 2.15 -20.0 0.95 -19.35 M6.1 -7.8 L5.6 -7.8 Q5.1 -7.8 4.95 -8.2 L4.9 -8.6 Q4.9 -9.15 5.4 -9.35 L6.1 -9.5 Q5.5 -9.8 5.5 -10.55 5.5 -11.65 6.7 -11.65 8.8 -11.65 8.8 -10.45 8.8 -9.5 7.25 -9.4 L7.6 -8.85 Q7.6 -7.95 6.1 -7.8 M8.0 -1.2 Q9.95 -0.35 9.95 0.25 L9.5 1.05 8.6 1.7 5.65 0.85 4.25 1.2 4.45 1.55 3.0 2.75 Q2.5 4.05 1.1 4.05 0.6 4.05 0.45 3.55 L0.4 3.05 Q0.4 -0.9 6.5 -1.2 L8.0 -1.2 M-7.8 -14.35 L-7.5 -14.65 -6.9 -15.05 -7.8 -14.35 M-4.05 -10.45 Q-4.05 -10.95 -2.8 -11.45 L-0.8 -11.95 Q0.1 -11.95 0.1 -11.15 0.1 -9.6 -3.3 -9.6 -3.75 -9.6 -3.95 -10.0 L-4.05 -10.45 M-7.3 -3.75 L-7.55 -4.1 Q-7.55 -4.5 -6.8 -5.0 -5.9 -5.6 -4.8 -5.6 -3.0 -5.6 -2.05 -2.95 L-2.1 -2.7 -2.45 -2.6 Q-2.7 -2.6 -3.35 -3.75 -4.05 -4.9 -5.1 -4.9 L-7.3 -3.75" fill="#e77003" fill-rule="evenodd" stroke="none"/>
    <path d="M12.1 -20.65 Q12.1 -20.1 11.35 -20.1 L9.7 -20.6 Q8.3 -20.6 7.25 -19.6 L6.6 -18.85 6.4 -18.4 6.35 -18.2 6.2 -18.1 Q5.7 -18.1 5.7 -18.85 L6.05 -19.6 6.85 -20.4 7.75 -21.0 Q8.8 -21.65 10.05 -21.65 12.1 -21.65 12.1 -20.65 M-2.45 -16.8 Q-1.9 -16.5 -1.75 -15.8 -1.75 -15.55 -2.65 -15.0 -3.9 -15.85 -4.85 -15.85 L-5.0 -15.85 -5.65 -15.7 -6.85 -15.05 -6.9 -15.05 -7.5 -14.65 -7.8 -14.35 -8.05 -14.15 -8.95 -13.45 -9.45 -14.1 -9.5 -14.15 Q-9.5 -14.75 -7.8 -15.9 -7.6 -16.05 -7.35 -16.15 -5.7 -17.2 -4.15 -17.2 -3.05 -17.2 -2.45 -16.8 M0.5 13.45 Q0.5 14.8 -2.6 14.8 -5.15 14.8 -7.8 13.0 L-9.45 11.6 Q-11.9 10.4 -12.75 9.35 L-14.55 6.35 -15.25 3.6 -15.8 0.35 Q-15.8 -6.5 -12.8 -7.55 L-12.55 -7.45 -13.8 -6.4 -13.55 -6.6 -13.5 -6.25 -13.7 -5.65 -14.25 -3.55 -14.45 -2.9 Q-14.45 2.95 -10.3 8.25 -6.4 13.25 -2.7 13.25 L0.0 12.95 Q0.5 12.95 0.5 13.45" fill="#fece10" fill-rule="evenodd" stroke="none"/>
  </g>
</svg>
