<?xml version="1.0" encoding="UTF-8" standalone="no"?>
<svg xmlns:xlink="http://www.w3.org/1999/xlink" height="41.85px" width="37.65px" xmlns="http://www.w3.org/2000/svg">
  <g transform="matrix(1.0, 0.0, 0.0, 1.0, 18.05, 24.55)">
    <path d="M12.25 -20.05 L12.25 -20.4 Q12.25 -21.05 11.35 -21.25 11.15 -21.6 10.0 -21.6 8.55 -21.6 7.3 -21.05 L7.2 -21.0 Q5.55 -20.75 5.55 -19.95 5.5 -19.7 5.6 -19.5 L5.85 -19.25 5.0 -18.65 Q3.75 -18.65 3.75 -20.0 3.75 -20.85 4.9 -21.9 6.4 -23.25 8.6 -23.25 10.5 -23.25 12.25 -22.2 13.8 -21.25 13.8 -20.65 13.8 -19.85 12.7 -19.85 L12.25 -20.05 M14.25 -14.7 L13.25 -14.25 Q11.75 -13.45 11.2 -13.45 10.3 -13.45 10.1 -14.0 L10.05 -14.55 Q10.05 -15.25 10.75 -15.7 L9.7 -15.8 Q8.75 -15.35 8.25 -15.35 7.6 -15.35 7.4 -15.8 L7.3 -16.25 Q7.3 -17.4 10.05 -17.4 12.6 -17.4 12.25 -16.3 L12.25 -16.15 17.1 -16.8 19.1 -16.15 Q19.6 -16.0 19.6 -15.55 19.6 -14.45 17.7 -14.45 L16.2 -14.8 15.8 -15.0 15.85 -15.25 Q15.85 -15.9 14.95 -15.9 13.75 -15.9 13.75 -15.15 L14.25 -14.7 M-6.05 -20.35 Q-6.5 -19.65 -7.55 -19.65 -8.35 -19.65 -8.65 -20.25 L-8.8 -20.85 -8.75 -21.7 -7.8 -22.6 -6.75 -23.05 Q-5.3 -23.75 -4.95 -22.9 -4.65 -22.3 -3.45 -23.3 L-3.2 -23.6 Q-3.2 -24.0 -4.95 -24.0 L-1.95 -24.55 1.5 -23.95 Q3.95 -23.25 3.95 -22.55 3.95 -21.55 3.1 -21.5 L3.15 -21.0 Q3.15 -20.0 2.2 -20.0 1.85 -20.0 1.1 -20.55 L0.4 -20.9 Q1.9 -21.15 1.9 -21.9 1.9 -22.75 -2.45 -22.75 -6.6 -22.75 -6.6 -20.85 -6.6 -20.5 -6.05 -20.35 M-8.25 -23.0 L-7.7 -23.5 -7.15 -23.6 -8.25 -23.0 M1.05 -14.8 L0.95 -14.8 0.0 -14.6 -0.3 -14.95 Q-0.3 -15.4 1.1 -16.1 2.7 -16.9 4.45 -16.9 7.05 -16.9 6.7 -15.25 6.7 -14.7 6.0 -14.7 5.65 -15.2 5.25 -15.2 L5.2 -15.2 Q5.15 -15.75 3.65 -15.75 1.05 -15.75 1.05 -14.85 L1.05 -14.8 M8.9 -12.25 L9.5 -11.25 Q9.5 -10.65 8.7 -10.65 L7.5 -11.2 Q5.45 -10.3 4.8 -10.3 L4.35 -10.75 Q4.35 -11.15 5.6 -11.9 L6.15 -12.2 7.45 -11.25 Q7.75 -11.25 8.5 -11.9 L8.9 -12.25 M18.9 -11.35 L17.4 -11.85 17.45 -11.8 15.9 -11.65 15.3 -12.25 Q15.3 -13.2 17.5 -13.2 19.5 -13.2 19.5 -11.95 19.5 -11.35 18.9 -11.35 M-10.9 -13.35 L-11.4 -13.35 -10.55 -14.0 -10.55 -14.15 -10.3 -13.8 -10.3 -13.75 -10.9 -13.35 M-14.15 -12.75 L-14.2 -12.7 Q-14.3 -11.2 -15.0 -11.2 -15.55 -11.2 -15.7 -11.8 L-15.75 -12.4 Q-15.75 -13.35 -15.3 -13.9 L-16.0 -14.3 Q-17.0 -14.95 -17.0 -15.45 -17.0 -16.45 -15.75 -17.75 -14.75 -18.85 -13.35 -19.25 L-13.2 -19.1 -12.95 -19.35 -11.4 -19.55 Q-5.65 -19.55 -5.6 -17.65 -6.95 -17.45 -7.9 -16.8 L-9.85 -16.45 Q-8.4 -17.15 -8.4 -17.45 -8.05 -18.25 -10.25 -18.25 -15.35 -18.25 -15.35 -16.55 L-15.25 -16.0 Q-15.0 -15.5 -14.1 -15.5 L-11.25 -15.95 -11.85 -15.65 Q-11.55 -15.5 -11.2 -14.75 L-12.75 -14.95 Q-15.05 -14.95 -15.3 -13.9 L-15.35 -13.65 Q-15.35 -12.8 -14.15 -12.75" fill="#e44805" fill-rule="evenodd" stroke="none"/>
    <path d="M11.35 -21.25 Q12.25 -21.05 12.25 -20.4 L12.25 -20.05 11.95 -19.8 10.35 -19.85 6.5 -19.1 5.85 -19.25 5.6 -19.5 Q5.5 -19.7 5.55 -19.95 5.55 -20.75 7.2 -21.0 L7.15 -21.0 Q5.85 -20.45 5.85 -19.95 L5.95 -19.55 7.15 -20.25 Q8.4 -20.85 9.4 -20.85 L11.4 -21.1 11.35 -21.25 M15.8 -15.0 Q15.6 -14.5 14.55 -14.5 L14.25 -14.7 13.75 -15.15 Q13.75 -15.9 14.95 -15.9 15.85 -15.9 15.85 -15.25 L15.8 -15.0 M0.4 -20.9 L0.15 -20.85 -4.25 -20.15 -6.05 -20.35 Q-6.6 -20.5 -6.6 -20.85 -6.6 -22.75 -2.45 -22.75 1.9 -22.75 1.9 -21.9 1.9 -21.15 0.4 -20.9 M-8.75 -21.7 Q-8.95 -21.5 -9.1 -21.45 L-9.35 -21.8 Q-9.35 -22.2 -8.25 -23.0 L-7.15 -23.6 -5.0 -24.0 -4.95 -24.0 Q-3.2 -24.0 -3.2 -23.6 L-3.45 -23.3 Q-4.65 -22.3 -4.95 -22.9 -5.3 -23.75 -6.75 -23.05 L-7.8 -22.6 -8.75 -21.7 M5.2 -15.2 L5.2 -15.15 Q5.2 -14.05 2.45 -14.05 1.1 -14.05 1.05 -14.8 L1.05 -14.85 Q1.05 -15.75 3.65 -15.75 5.15 -15.75 5.2 -15.2 M6.15 -12.2 L5.6 -12.55 Q5.6 -13.45 7.25 -13.45 9.25 -13.45 9.25 -12.75 L8.9 -12.25 8.5 -11.9 Q7.75 -11.25 7.45 -11.25 L6.15 -12.2 M8.3 -0.95 Q8.15 -1.35 5.75 -1.35 3.75 -1.35 2.3 0.0 1.35 0.85 1.15 1.45 0.8 1.1 0.8 0.75 0.8 -0.1 2.2 -1.1 3.7 -2.15 5.7 -2.4 L6.7 -2.45 Q9.1 -2.45 8.7 -1.6 8.7 -0.95 8.3 -0.95 M-11.4 -13.35 L-11.65 -13.25 Q-12.9 -12.75 -14.05 -12.75 L-14.15 -12.75 Q-15.35 -12.8 -15.35 -13.65 L-15.3 -13.9 Q-15.05 -14.95 -12.75 -14.95 L-11.2 -14.75 Q-10.65 -14.55 -10.55 -14.15 L-10.55 -14.0 -11.4 -13.35 M-13.35 -19.25 L-15.0 -19.4 -17.3 -18.6 -17.55 -18.65 -17.65 -18.85 Q-17.65 -20.1 -14.95 -20.1 -13.35 -20.1 -12.85 -19.5 L-12.95 -19.35 -13.2 -19.1 -13.35 -19.25 M-9.85 -16.45 L-10.2 -16.35 Q-10.75 -16.1 -11.25 -15.95 L-14.1 -15.5 Q-15.0 -15.5 -15.25 -16.0 L-15.35 -16.55 Q-15.35 -18.25 -10.25 -18.25 -8.05 -18.25 -8.4 -17.45 -8.4 -17.15 -9.85 -16.45 M-5.05 -5.9 Q-4.7 -5.9 -3.85 -5.5 L-3.0 -4.9 Q-3.0 -4.45 -3.3 -4.45 L-5.1 -5.3 -6.65 -4.55 -6.75 -4.85 Q-6.75 -5.9 -5.05 -5.9" fill="#e77003" fill-rule="evenodd" stroke="none"/>
    <path d="M7.2 -21.0 L7.3 -21.05 Q8.55 -21.6 10.0 -21.6 11.15 -21.6 11.35 -21.25 L11.4 -21.1 9.4 -20.85 Q8.4 -20.85 7.15 -20.25 L5.95 -19.55 5.85 -19.95 Q5.85 -20.45 7.15 -21.0 L7.2 -21.0 M-5.6 -17.65 L-4.1 -17.8 Q-2.8 -17.8 -2.4 -16.7 -2.4 -16.05 -3.0 -16.05 -3.05 -16.7 -5.4 -16.7 -6.5 -16.7 -8.0 -15.7 L-9.3 -14.65 -9.45 -14.9 Q-9.45 -15.55 -8.4 -16.45 L-7.9 -16.8 Q-6.95 -17.45 -5.6 -17.65 M-15.2 4.5 L-13.6 8.0 -13.45 8.25 Q-9.75 15.3 -4.9 15.5 L-4.85 15.75 Q-4.85 16.3 -5.85 16.3 -7.2 16.3 -9.7 14.25 L-12.1 11.95 Q-13.1 10.45 -14.5 7.4 L-16.0 3.1 Q-17.0 -0.35 -17.0 -1.8 L-16.5 -4.1 -15.65 -6.3 Q-16.6 -4.4 -16.6 -1.8 -16.6 0.9 -15.2 4.5" fill="#fece10" fill-rule="evenodd" stroke="none"/>
    <path d="M13.15 -7.8 Q13.2 -7.25 14.1 -6.25 13.8 -6.35 12.85 -7.8 L13.15 -7.8 M-13.45 8.25 Q-7.95 15.0 -3.05 15.0 7.7 15.0 12.15 8.5 14.7 4.75 14.7 0.0 14.15 -3.2 14.15 -4.2 13.9 -4.5 13.9 -4.75 13.9 -5.4 14.3 -5.4 16.15 -5.4 16.5 3.55 16.5 6.95 12.5 11.3 7.0 17.3 -2.0 17.3 -7.8 17.3 -11.7 13.4 -14.55 10.55 -15.7 8.65 L-16.95 4.25 -18.05 -0.8 Q-18.05 -3.85 -16.0 -7.75 -14.75 -10.4 -13.75 -11.3 L-11.2 -13.2 -10.9 -13.35 -10.3 -13.75 -10.3 -13.8 Q-9.1 -14.6 -8.7 -14.6 -7.95 -14.6 -7.85 -14.05 -12.35 -11.65 -14.25 -7.4 -16.1 -3.3 -16.1 -0.8 -16.1 0.45 -15.5 3.25 L-15.2 4.5 Q-16.6 0.9 -16.6 -1.8 -16.6 -4.4 -15.65 -6.3 L-16.5 -4.1 -17.0 -1.8 Q-17.0 -0.35 -16.0 3.1 L-14.5 7.4 Q-13.1 10.45 -12.1 11.95 L-9.7 14.25 Q-7.2 16.3 -5.85 16.3 -4.85 16.3 -4.85 15.75 L-4.9 15.5 Q-9.75 15.3 -13.45 8.25" fill="#e78603" fill-rule="evenodd" stroke="none"/>
  </g>
</svg>
