<?xml version="1.0" encoding="UTF-8" standalone="no"?>
<svg xmlns:xlink="http://www.w3.org/1999/xlink" height="42.3px" width="38.4px" xmlns="http://www.w3.org/2000/svg">
  <g transform="matrix(1.0, 0.0, 0.0, 1.0, 17.95, 24.75)">
    <path d="M-6.65 -23.85 Q-5.0 -24.7 -1.6 -24.75 L-0.3 -24.75 3.0 -23.75 3.85 -23.45 Q4.4 -23.45 4.45 -22.35 L4.4 -22.1 4.95 -22.55 Q6.55 -23.65 8.95 -23.65 10.95 -23.65 12.35 -22.7 13.35 -21.95 13.35 -21.5 13.35 -20.65 12.6 -20.65 10.35 -22.15 8.8 -22.15 L7.95 -22.1 9.1 -22.3 10.5 -22.0 10.85 -22.4 10.3 -22.85 8.5 -23.15 Q5.25 -23.15 5.25 -22.3 5.25 -21.9 5.6 -21.9 L7.15 -22.0 Q5.95 -21.8 5.25 -21.2 4.6 -20.25 4.25 -20.25 L3.8 -20.7 3.2 -20.3 2.6 -20.95 2.9 -21.6 Q2.0 -22.25 0.9 -22.65 L1.25 -22.85 2.4 -22.55 Q2.85 -22.55 2.85 -23.0 2.85 -24.05 -2.6 -24.05 -4.85 -24.05 -5.2 -22.9 -6.8 -22.55 -7.05 -21.7 L-7.1 -20.7 Q-7.1 -20.25 -7.6 -20.25 L-8.3 -21.3 Q-8.3 -22.5 -7.5 -23.25 L-6.5 -23.6 -6.65 -23.85 M13.25 -16.3 Q14.8 -17.05 16.4 -17.1 L17.9 -17.1 Q20.45 -16.8 20.45 -16.05 20.45 -15.3 19.45 -15.3 L15.9 -15.6 12.25 -14.4 11.7 -14.95 Q11.7 -15.6 13.25 -16.3 M1.7 -16.3 L1.35 -16.4 Q2.1 -17.45 5.8 -17.45 6.5 -17.45 7.4 -16.9 L8.05 -16.45 8.0 -16.6 Q8.0 -17.45 9.7 -17.45 11.9 -17.45 11.9 -16.7 11.9 -16.15 11.15 -16.15 L9.9 -16.45 8.45 -16.05 8.25 -16.1 Q8.2 -15.6 7.6 -15.6 6.6 -16.15 5.6 -16.3 L5.6 -16.35 Q5.05 -16.9 3.8 -16.9 1.7 -16.9 1.7 -16.4 L1.7 -16.3 M17.5 -13.7 Q18.85 -13.7 18.85 -12.8 18.85 -12.2 18.05 -12.2 L15.35 -12.9 Q15.35 -13.7 17.5 -13.7 M0.6 -22.75 L-1.35 -23.1 -0.9 -23.15 0.65 -22.8 0.6 -22.75 M6.05 -11.55 L5.25 -12.15 Q5.25 -13.55 9.0 -13.55 10.2 -13.55 10.2 -12.75 L8.3 -12.05 6.05 -11.55 M-13.4 -17.75 L-13.6 -17.6 -14.65 -16.4 Q-14.65 -15.9 -14.05 -15.7 -13.45 -15.55 -13.45 -15.1 -13.4 -14.35 -14.1 -14.35 L-14.5 -14.4 -16.0 -12.6 -16.55 -13.4 -16.0 -14.45 -15.35 -14.95 -15.75 -15.45 -16.2 -16.7 Q-16.2 -17.4 -14.7 -18.65 -12.85 -20.2 -10.65 -20.2 -7.85 -20.2 -6.75 -19.05 L-6.5 -18.75 Q-6.5 -18.1 -7.1 -18.1 -7.15 -18.6 -8.65 -18.75 L-6.75 -19.05 -8.75 -19.45 -12.15 -18.9 Q-13.5 -18.4 -13.5 -18.05 L-13.4 -17.75" fill="#e44805" fill-rule="evenodd" stroke="none"/>
    <path d="M-6.65 -23.85 L-6.5 -23.6 -7.5 -23.25 Q-9.25 -22.65 -9.6 -22.35 L-9.7 -22.45 Q-9.7 -23.25 -6.7 -23.85 L-6.65 -23.85 M-5.2 -22.9 Q-4.85 -24.05 -2.6 -24.05 2.85 -24.05 2.85 -23.0 2.85 -22.55 2.4 -22.55 L1.25 -22.85 0.9 -22.65 0.2 -22.4 0.15 -22.45 0.6 -22.75 0.65 -22.8 -0.9 -23.15 -1.35 -23.1 -1.95 -23.05 Q-3.2 -23.05 -3.85 -22.45 -4.55 -21.85 -4.8 -21.85 -5.3 -21.85 -5.3 -22.4 L-5.2 -22.9 M7.15 -22.0 L5.6 -21.9 Q5.25 -21.9 5.25 -22.3 5.25 -23.15 8.5 -23.15 L10.3 -22.85 10.85 -22.4 10.5 -22.0 9.1 -22.3 7.95 -22.1 7.15 -22.0 M5.6 -16.3 Q5.05 -15.85 2.7 -15.85 1.75 -15.85 1.7 -16.3 L1.7 -16.4 Q1.7 -16.9 3.8 -16.9 5.05 -16.9 5.6 -16.35 L5.6 -16.3 M4.8 -2.9 L6.0 -2.95 7.5 -2.7 6.5 -2.75 Q5.0 -3.0 2.95 -1.75 1.5 -0.65 1.1 -0.45 0.95 -0.5 0.95 -0.75 0.95 -1.2 2.55 -2.1 4.15 -3.05 4.8 -2.9 M-8.65 -18.75 Q-12.9 -18.05 -12.9 -17.65 L-13.2 -17.45 -13.4 -17.75 -13.5 -18.05 Q-13.5 -18.4 -12.15 -18.9 L-8.75 -19.45 -6.75 -19.05 -8.65 -18.75 M-4.3 -5.55 L-4.35 -5.4 -4.55 -5.35 Q-4.55 -5.75 -5.75 -5.6 L-5.85 -5.9 -5.2 -6.05 Q-4.55 -6.05 -4.3 -5.55" fill="#e77003" fill-rule="evenodd" stroke="none"/>
    <path d="M6.75 -21.15 Q7.55 -21.75 8.7 -21.75 L9.9 -21.45 6.15 -20.5 6.75 -21.15 M-9.4 13.9 L-11.45 11.7 Q-13.5 9.1 -14.25 7.4 L-15.2 5.35 Q-17.0 1.4 -17.0 0.4 L-16.85 -2.1 -16.85 -2.3 -16.75 -2.3 -16.75 -0.8 -16.8 -0.4 Q-16.8 1.7 -15.55 4.35 L-12.9 8.8 Q-9.55 13.4 -7.95 14.05 -8.25 14.35 -8.6 14.35 L-9.4 13.9 M-8.75 -16.0 L-7.95 -16.9 Q-7.05 -17.65 -6.15 -17.65 -4.95 -17.65 -5.05 -17.05 -5.05 -16.55 -5.5 -16.55 L-6.05 -16.8 -7.0 -16.65 -8.5 -15.95 -8.75 -16.0" fill="#fece10" fill-rule="evenodd" stroke="none"/>
    <path d="M-8.6 14.35 Q-4.9 16.15 -0.5 16.15 5.25 16.15 9.95 11.95 L11.55 10.55 12.55 9.2 Q14.2 6.3 14.7 6.3 15.1 6.3 15.1 6.65 15.1 8.3 13.45 9.75 10.9 12.05 10.25 13.0 9.15 14.55 6.4 15.9 3.05 17.55 -0.6 17.55 -9.15 17.55 -12.95 11.75 -12.4 11.9 -9.4 13.9 L-8.6 14.35 M-15.2 5.35 L-14.9 6.15 -13.0 10.9 Q-13.0 11.2 -13.3 11.35 -14.75 10.15 -16.4 5.75 -17.95 1.5 -17.95 -0.8 -17.95 -7.75 -14.75 -10.1 -16.85 -5.4 -16.85 -2.3 L-16.85 -2.1 -17.0 0.4 Q-17.0 1.4 -15.2 5.35 M-16.75 -0.8 Q-16.55 1.55 -15.55 4.35 -16.8 1.7 -16.8 -0.4 L-16.75 -0.8" fill="#e78603" fill-rule="evenodd" stroke="none"/>
  </g>
</svg>
