<?xml version="1.0" encoding="UTF-8" standalone="no"?>
<svg xmlns:xlink="http://www.w3.org/1999/xlink" height="42.4px" width="38.0px" xmlns="http://www.w3.org/2000/svg">
  <g transform="matrix(1.0, 0.0, 0.0, 1.0, 17.7, 24.35)">
    <path d="M-15.4 6.1 L-14.0 9.35 -12.15 11.7 Q-11.3 12.3 -10.0 13.85 -5.3 17.3 -1.55 17.3 L2.9 16.55 3.4 16.65 3.45 16.85 Q3.45 17.05 2.0 17.55 L-0.35 18.05 -3.75 17.65 Q-5.3 17.1 -5.5 17.1 -6.2 17.1 -8.25 15.8 -10.15 14.55 -10.7 13.9 L-14.2 9.75 Q-15.35 8.4 -16.5 5.75 -17.7 2.95 -17.7 1.4 L-17.55 -0.2 -17.45 -0.2 -16.35 3.4 -16.35 3.85 -15.4 6.1" fill="#e78603" fill-rule="evenodd" stroke="none"/>
    <path d="M11.7 -22.85 L11.4 -22.7 Q11.0 -23.25 9.5 -23.25 7.8 -23.25 5.0 -21.65 4.7 -21.8 4.7 -22.1 4.7 -22.45 6.3 -23.2 8.05 -24.0 9.55 -24.0 11.75 -24.0 11.75 -23.05 L11.7 -22.85 M13.9 -16.55 Q14.9 -17.2 18.3 -17.1 L18.75 -17.1 Q20.3 -16.6 20.3 -16.15 20.2 -15.55 19.7 -15.55 L17.1 -15.8 14.85 -16.0 13.95 -15.85 13.35 -15.7 12.85 -15.5 13.9 -16.55 M10.4 -16.5 L8.35 -16.7 8.1 -16.7 3.1 -17.3 2.5 -17.7 Q2.5 -17.9 2.8 -17.9 L6.6 -18.4 Q8.0 -18.4 8.5 -17.65 L9.7 -17.8 Q11.5 -17.8 11.5 -17.05 11.5 -16.5 10.4 -16.5 M2.65 -22.2 L1.7 -22.85 Q0.85 -23.5 -3.45 -23.5 -5.2 -23.5 -6.65 -22.4 L-7.75 -21.35 -8.0 -21.85 Q-8.0 -22.55 -6.8 -23.3 -5.1 -24.35 -2.0 -24.35 3.15 -24.35 3.15 -22.6 3.15 -22.2 2.65 -22.2 M-10.55 -20.5 L-8.15 -20.0 Q-8.6 -19.55 -10.9 -19.55 L-13.2 -18.9 Q-14.85 -18.0 -14.85 -16.85 -14.85 -15.85 -14.25 -15.55 L-14.2 -15.4 Q-14.45 -15.15 -14.95 -15.15 -15.45 -15.15 -15.65 -15.85 L-15.75 -16.55 Q-15.75 -17.55 -14.8 -18.7 -13.35 -20.5 -10.55 -20.5" fill="#e44805" fill-rule="evenodd" stroke="none"/>
    <path d="M4.15 -2.9 Q5.0 -2.9 5.0 -2.65 L1.75 -1.75 Q2.35 -2.9 4.15 -2.9 M-5.45 -6.4 L-4.85 -5.95 -5.15 -5.7 Q-5.8 -5.7 -5.8 -6.35 L-5.45 -6.4" fill="#e77003" fill-rule="evenodd" stroke="none"/>
    <path d="M7.1 -20.65 Q6.85 -20.65 6.55 -20.8 L7.65 -21.45 8.05 -21.4 8.1 -21.15 Q8.1 -20.65 7.1 -20.65 M-16.35 3.4 L-16.35 3.35 -15.95 3.35 -16.05 3.55 Q-16.05 5.15 -12.05 9.95 L-12.1 10.1 -12.3 10.2 Q-13.05 10.2 -14.55 7.7 L-15.4 6.1 -16.35 3.85 -16.35 3.4" fill="#fece10" fill-rule="evenodd" stroke="none"/>
  </g>
</svg>
