<?xml version="1.0" encoding="UTF-8" standalone="no"?>
<svg xmlns:xlink="http://www.w3.org/1999/xlink" height="41.9px" width="34.7px" xmlns="http://www.w3.org/2000/svg">
  <g transform="matrix(1.0, 0.0, 0.0, 1.0, 15.65, 24.25)">
    <path d="M15.65 -16.6 Q16.2 -16.45 16.2 -16.9 L17.6 -16.7 17.6 -16.6 19.05 -16.45 18.2 -16.3 14.65 -16.6 Q14.95 -16.8 15.65 -16.6 M9.25 -24.1 L9.35 -24.0 9.4 -23.85 3.75 -22.1 Q6.25 -23.8 8.7 -24.1 L9.25 -24.1 M4.7 -18.05 L5.8 -18.1 7.65 -18.3 Q8.95 -18.3 10.15 -17.7 10.15 -17.45 9.6 -17.45 L6.45 -17.8 4.7 -18.05 4.5 -17.85 4.15 -17.9 4.7 -18.05 M-0.3 -23.75 L-1.05 -23.85 -1.05 -24.0 Q-8.5 -23.3 -7.55 -21.5 L-7.6 -21.45 -7.85 -21.5 -7.85 -22.1 Q-6.0 -24.25 -2.15 -24.25 L-0.15 -23.95 -0.3 -23.75 M-11.75 -20.1 Q-14.3 -19.15 -14.75 -18.3 -15.6 -16.75 -15.35 -16.35 L-15.65 -16.75 Q-15.65 -17.55 -14.65 -18.75 -13.4 -20.3 -11.75 -20.1" fill="#e44805" fill-rule="evenodd" stroke="none"/>
    <path d="M-15.05 7.2 Q-14.1 12.0 -4.9 17.35 L-5.3 17.65 Q-7.0 17.65 -12.0 12.65 -15.2 9.45 -15.2 7.55 L-15.15 7.2 -15.05 7.2" fill="#e78603" fill-rule="evenodd" stroke="none"/>
  </g>
</svg>
