<?xml version="1.0" encoding="UTF-8" standalone="no"?>
<svg xmlns:xlink="http://www.w3.org/1999/xlink" height="38.9px" width="22.35px" xmlns="http://www.w3.org/2000/svg">
  <g transform="matrix(1.0, 0.0, 0.0, 1.0, 14.45, 23.95)">
    <path d="M7.35 -17.9 L7.5 -18.05 7.9 -17.95 7.85 -17.85 7.35 -17.9 M5.25 -23.35 Q5.8 -23.35 6.3 -23.65 L6.6 -23.55 Q6.35 -23.0 5.25 -23.0 L5.25 -23.35 M-6.1 -23.05 Q-4.95 -23.95 -4.25 -23.95 L-3.6 -23.85 -5.7 -22.95 -6.1 -23.05 M-14.35 -18.7 L-14.45 -18.7 -13.3 -20.0 -12.95 -20.0 -14.35 -18.7" fill="#e44805" fill-rule="evenodd" stroke="none"/>
    <path d="M-11.25 13.55 L-12.6 12.05 -12.45 11.6 -12.35 11.6 -8.8 14.6 -9.2 14.95 Q-9.8 14.95 -11.25 13.55" fill="#e78603" fill-rule="evenodd" stroke="none"/>
  </g>
</svg>
