<?xml version="1.0" encoding="UTF-8" standalone="no"?>
<svg xmlns:xlink="http://www.w3.org/1999/xlink" height="22.95px" width="20.6px" xmlns="http://www.w3.org/2000/svg">
  <g transform="matrix(1.0, 0.0, 0.0, 1.0, 10.3, 11.45)">
    <path d="M7.35 -9.4 L7.0 -9.3 6.9 -9.65 Q6.8 -10.2 6.95 -10.65 L7.25 -10.7 7.45 -10.75 Q7.2 -10.05 7.35 -9.4 M4.85 -8.55 L4.5 -8.4 4.35 -8.85 4.4 -9.85 4.95 -10.05 4.8 -9.1 Q4.75 -8.8 4.85 -8.55 M2.45 -7.3 L2.15 -7.1 1.9 -7.7 Q1.75 -8.25 1.85 -8.7 L1.85 -8.75 2.05 -8.8 2.4 -9.0 Q2.0 -8.05 2.45 -7.3 L2.15 -7.1 2.45 -7.3 M0.35 -5.85 L0.0 -5.6 -0.25 -5.9 Q-0.65 -6.5 -0.7 -7.0 L-0.3 -7.3 0.1 -6.3 0.35 -5.85 M-1.55 -4.1 L-1.75 -3.7 -2.5 -4.2 -2.95 -4.65 -2.7 -5.0 -1.55 -4.1 M-1.75 -2.55 L-1.65 -2.35 -1.5 -2.1 -3.7 -2.2 -3.7 -2.25 -3.7 -2.45 -2.55 -2.5 -1.75 -2.55 M-0.9 -1.5 L-0.6 -1.25 -1.95 -0.2 -2.1 -0.3 -2.15 -0.3 -2.3 -0.35 -0.9 -1.5 M0.55 -0.5 L0.6 -0.45 0.85 -0.3 0.85 -0.25 0.6 -0.45 0.85 -0.25 -0.4 0.85 -0.45 0.8 -0.6 0.65 0.55 -0.5 M1.85 1.35 L1.9 1.35 1.95 1.75 1.95 1.8 Q1.15 2.35 0.15 2.25 L0.2 1.95 Q1.1 1.9 1.85 1.35 L1.95 1.75 1.85 1.35 M0.95 3.7 L0.9 3.8 0.85 3.8 0.6 4.1 0.55 4.1 0.85 3.8 0.55 4.1 Q-0.15 4.0 -0.9 3.4 L-0.6 3.15 Q0.1 3.7 0.95 3.7 M-1.1 5.6 L-1.4 5.85 -1.1 5.6 -1.4 5.85 -2.6 4.8 -2.35 4.6 -1.1 5.6 M-3.35 7.4 L-3.3 7.4 -3.6 7.6 -3.35 7.4 -3.6 7.6 -4.35 6.7 -4.4 6.15 -4.2 5.95 -4.05 6.05 Q-4.0 6.9 -3.35 7.4 M-5.55 9.05 L-5.8 9.25 Q-6.55 8.7 -6.5 7.65 L-6.15 7.4 -6.1 7.45 Q-6.1 8.35 -5.55 9.05 M-7.1 10.15 L-7.55 10.45 -7.9 10.05 Q-8.55 9.3 -8.05 8.65 L-8.0 8.65 Q-7.9 9.45 -7.1 10.15 M1.85 -8.7 L2.05 -8.8 1.85 -8.7" fill="#4d443c" fill-rule="evenodd" stroke="none"/>
    <path d="M7.45 -10.75 L9.9 -11.2 9.9 -11.1 10.05 -10.05 10.05 -9.8 7.35 -9.4 Q7.2 -10.05 7.45 -10.75 M7.0 -9.3 L4.85 -8.55 Q4.75 -8.8 4.8 -9.1 L4.95 -10.05 6.95 -10.65 Q6.8 -10.2 6.9 -9.65 L7.0 -9.3 M4.5 -8.4 L2.45 -7.3 Q2.0 -8.05 2.4 -9.0 L4.4 -9.85 4.35 -8.85 4.5 -8.4 M2.15 -7.1 L1.95 -7.0 0.35 -5.85 0.1 -6.3 -0.3 -7.3 1.1 -8.3 1.85 -8.7 Q1.75 -8.25 1.9 -7.7 L2.15 -7.1 M0.0 -5.6 L-1.55 -4.1 -2.7 -5.0 -0.7 -7.0 Q-0.65 -6.5 -0.25 -5.9 L0.0 -5.6 M-1.75 -3.7 L-1.9 -3.25 -1.75 -2.55 -2.55 -2.5 -3.7 -2.45 -3.45 -3.7 -2.95 -4.65 -2.5 -4.2 -1.75 -3.7 M-1.5 -2.1 L-0.9 -1.5 -2.3 -0.35 Q-3.6 -1.05 -3.7 -2.2 L-1.5 -2.1 M-0.6 -1.25 L0.1 -0.8 0.55 -0.5 -0.6 0.65 Q-1.15 0.2 -1.95 -0.2 L-0.6 -1.25 M0.85 -0.25 Q1.65 0.4 1.85 1.35 1.1 1.9 0.2 1.95 0.1 1.35 -0.4 0.85 L0.85 -0.25 M1.95 1.8 L1.9 2.25 0.95 3.7 Q0.1 3.7 -0.6 3.15 L0.15 2.25 Q1.15 2.35 1.95 1.8 M0.55 4.1 L-1.1 5.6 -2.35 4.6 -0.9 3.4 Q-0.15 4.0 0.55 4.1 M-1.4 5.85 L-3.35 7.4 Q-4.0 6.9 -4.05 6.05 L-4.2 5.95 -2.6 4.8 -1.4 5.85 M-3.6 7.6 L-5.55 9.05 Q-6.1 8.35 -6.1 7.45 L-6.15 7.4 -6.5 7.65 Q-6.55 8.7 -5.8 9.25 L-7.1 10.15 Q-7.9 9.45 -8.0 8.65 L-8.05 8.65 Q-8.55 9.3 -7.9 10.05 L-7.55 10.45 -8.5 11.1 -8.9 11.25 Q-10.55 11.25 -9.85 9.85 L-8.05 8.65 -4.4 6.15 -4.35 6.7 -3.6 7.6 M5.15 -9.7 Q6.25 -9.4 6.05 -9.95 L5.15 -9.75 5.15 -9.7 M8.7 -10.7 L7.6 -10.45 7.6 -10.4 Q8.75 -10.1 8.7 -10.7 M3.3 -8.8 Q2.85 -8.75 2.8 -8.45 L2.85 -8.4 Q3.5 -8.45 3.3 -8.8 M0.9 -7.75 L0.85 -7.75 0.35 -7.2 0.35 -7.15 Q1.05 -7.3 0.9 -7.75 M0.7 2.55 L0.65 2.55 0.2 3.3 0.2 3.35 Q0.85 3.1 0.7 2.55 M0.25 0.45 L0.2 0.45 Q0.05 1.15 0.65 1.4 L0.65 1.35 0.25 0.45 M-2.65 -0.95 Q-2.55 -1.35 -2.85 -1.6 L-2.9 -1.6 Q-3.1 -1.15 -2.65 -0.95 M-3.05 -3.75 L-3.1 -3.75 Q-3.4 -3.2 -3.15 -2.7 L-3.1 -2.75 Q-2.8 -3.3 -3.05 -3.75 M-2.0 -4.7 Q-1.55 -5.1 -1.65 -5.5 -2.25 -5.15 -2.05 -4.65 L-2.0 -4.7 M-1.35 -0.55 L-1.4 -0.5 Q-1.25 0.2 -0.55 -0.1 L-0.6 -0.1 -1.35 -0.55 M-3.7 5.95 L-3.7 6.0 Q-2.85 6.0 -2.95 5.35 L-3.0 5.35 -3.7 5.95 M-0.7 3.65 L-0.75 3.65 -1.5 4.6 -1.5 4.65 Q-0.7 4.3 -0.7 3.65 M-6.7 8.55 L-6.7 8.5 -6.9 8.2 -7.2 8.65 -6.7 8.55 M-4.9 7.3 L-4.9 7.35 Q-4.2 7.25 -4.4 6.75 L-4.45 6.75 -4.9 7.3 M-9.15 9.7 L-9.2 9.85 -8.7 9.75 -8.75 9.75 Q-8.8 9.6 -9.0 9.65 L-9.15 9.7" fill="#7a6b5f" fill-rule="evenodd" stroke="none"/>
    <path d="M8.7 -10.7 Q8.75 -10.1 7.6 -10.4 L7.6 -10.45 8.7 -10.7 M5.15 -9.7 L5.15 -9.75 6.05 -9.95 Q6.25 -9.4 5.15 -9.7 M0.9 -7.75 Q1.05 -7.3 0.35 -7.15 L0.35 -7.2 0.85 -7.75 0.9 -7.75 M3.3 -8.8 Q3.5 -8.45 2.85 -8.4 L2.8 -8.45 Q2.85 -8.75 3.3 -8.8 M0.25 0.45 L0.65 1.35 0.65 1.4 Q0.05 1.15 0.2 0.45 L0.25 0.45 M0.7 2.55 Q0.85 3.1 0.2 3.35 L0.2 3.3 0.65 2.55 0.7 2.55 M-2.0 -4.7 L-2.05 -4.65 Q-2.25 -5.15 -1.65 -5.5 -1.55 -5.1 -2.0 -4.7 M-3.05 -3.75 Q-2.8 -3.3 -3.1 -2.75 L-3.15 -2.7 Q-3.4 -3.2 -3.1 -3.75 L-3.05 -3.75 M-2.65 -0.95 Q-3.1 -1.15 -2.9 -1.6 L-2.85 -1.6 Q-2.55 -1.35 -2.65 -0.95 M-1.35 -0.55 L-0.6 -0.1 -0.55 -0.1 Q-1.25 0.2 -1.4 -0.5 L-1.35 -0.55 M-3.7 5.95 L-3.0 5.35 -2.95 5.35 Q-2.85 6.0 -3.7 6.0 L-3.7 5.95 M-0.7 3.65 Q-0.7 4.3 -1.5 4.65 L-1.5 4.6 -0.75 3.65 -0.7 3.65 M-6.7 8.55 L-7.2 8.65 -6.9 8.2 -6.7 8.5 -6.7 8.55 M-9.15 9.7 L-9.0 9.65 Q-8.8 9.6 -8.75 9.75 L-8.7 9.75 -9.2 9.85 -9.15 9.7 M-4.9 7.3 L-4.45 6.75 -4.4 6.75 Q-4.2 7.25 -4.9 7.35 L-4.9 7.3" fill="#c7beb6" fill-rule="evenodd" stroke="none"/>
    <path d="M7.45 -10.75 L9.9 -11.2 9.9 -11.1 10.05 -10.05 10.05 -9.8 7.35 -9.4 7.0 -9.3 4.85 -8.55 4.5 -8.4 2.45 -7.3 2.15 -7.1 1.95 -7.0 0.35 -5.85 0.0 -5.6 -1.55 -4.1 -1.75 -3.7 -1.9 -3.25 -1.75 -2.55 -1.65 -2.35 M-1.5 -2.1 L-0.9 -1.5 -0.6 -1.25 0.1 -0.8 0.55 -0.5 0.6 -0.45 0.85 -0.25 Q1.65 0.4 1.85 1.35 L1.95 1.75 1.95 1.8 1.9 2.25 0.95 3.7 0.9 3.8 0.85 3.8 0.55 4.1 -1.1 5.6 -1.4 5.85 -3.35 7.4 -3.6 7.6 -5.55 9.05 -5.8 9.25 -7.1 10.15 -7.55 10.45 -8.5 11.1 -8.9 11.25 Q-10.55 11.25 -9.85 9.85 L-8.05 8.65 -4.4 6.15 M-4.2 5.95 L-2.6 4.8 -2.35 4.6 -0.9 3.4 -0.6 3.15 0.15 2.25 0.2 1.95 Q0.1 1.35 -0.4 0.85 L-0.45 0.8 M-0.6 0.65 Q-1.15 0.2 -1.95 -0.2 M-2.1 -0.3 L-2.15 -0.3 -2.3 -0.35 Q-3.6 -1.05 -3.7 -2.2 M-3.7 -2.25 L-3.7 -2.45 -3.45 -3.7 -2.95 -4.65 -2.7 -5.0 -0.7 -7.0 -0.3 -7.3 1.1 -8.3 1.85 -8.7 2.05 -8.8 2.4 -9.0 4.4 -9.85 4.95 -10.05 6.95 -10.65 7.25 -10.7 7.45 -10.75 Z" fill="none" stroke="#4d443c" stroke-linecap="round" stroke-linejoin="round" stroke-width="0.5"/>
  </g>
</svg>
