<?xml version="1.0" encoding="UTF-8" standalone="no"?>
<svg xmlns:xlink="http://www.w3.org/1999/xlink" height="11.9px" width="14.3px" xmlns="http://www.w3.org/2000/svg">
  <g transform="matrix(1.0, 0.0, 0.0, 1.0, 15.25, -1.1)">
    <path d="M-4.0 1.85 L-1.35 1.35 -1.35 1.45 -1.2 2.5 -1.2 2.75 -3.9 3.15 Q-4.05 2.5 -3.8 1.8 L-4.0 1.85 M-4.25 3.25 L-6.4 4.0 -6.45 3.45 -6.3 2.5 -4.3 1.9 -4.35 2.9 -4.25 3.25 M-6.75 4.15 L-9.3 5.55 -10.9 6.7 -11.15 6.25 -11.55 5.25 -11.95 5.55 -11.5 6.65 -11.25 6.95 -12.8 8.45 -13.95 7.55 -14.2 7.9 -13.75 8.35 -13.0 8.85 -13.15 9.3 -13.0 10.0 -13.8 10.05 -14.95 10.1 -14.7 8.85 -13.95 7.55 Q-13.1 6.4 -11.55 5.25 L-10.15 4.25 -9.4 3.85 -9.35 4.85 -9.1 5.45 -8.8 5.25 Q-9.25 4.5 -8.85 3.55 -7.9 3.05 -6.85 2.7 L-6.9 3.7 -6.75 4.15 M-12.75 10.45 L-12.15 11.05 -13.55 12.2 Q-14.85 11.5 -14.95 10.35 L-12.75 10.45 M-11.85 11.3 L-11.15 11.75 -10.7 12.05 -11.35 12.75 -12.45 12.75 -13.2 12.35 -11.85 11.3 M-10.4 12.3 L-9.9 12.75 -10.85 12.75 -10.4 12.3 M-8.4 4.15 Q-7.75 4.1 -7.95 3.75 -8.4 3.8 -8.45 4.1 L-8.4 4.15 M-6.1 2.85 Q-5.0 3.15 -5.2 2.6 L-6.1 2.8 -6.1 2.85 M-2.55 1.85 L-3.65 2.1 -3.65 2.15 Q-2.5 2.45 -2.55 1.85 M-14.3 8.8 L-14.35 8.8 Q-14.65 9.35 -14.4 9.85 L-14.35 9.8 Q-14.05 9.25 -14.3 8.8 M-10.9 5.4 Q-10.2 5.25 -10.35 4.8 L-10.4 4.8 -10.9 5.35 -10.9 5.4 M-13.3 7.9 L-13.25 7.85 Q-12.8 7.45 -12.9 7.05 -13.5 7.4 -13.3 7.9 M-14.1 10.95 L-14.15 10.95 Q-14.35 11.4 -13.9 11.6 -13.8 11.2 -14.1 10.95 M-12.6 12.0 L-12.65 12.05 Q-12.5 12.75 -11.8 12.45 L-11.85 12.45 -12.6 12.0" fill="#7a6b5f" fill-rule="evenodd" stroke="none"/>
    <path d="M-3.9 3.15 L-4.25 3.25 -4.35 2.9 -4.3 1.9 -4.0 1.85 -3.8 1.8 Q-4.05 2.5 -3.9 3.15 M-6.4 4.0 L-6.75 4.15 -6.9 3.7 -6.85 2.7 -6.3 2.5 -6.45 3.45 -6.4 4.0 M-10.9 6.7 L-11.25 6.95 -11.5 6.65 -11.95 5.55 -11.55 5.25 -11.15 6.25 -10.9 6.7 M-12.8 8.45 L-13.0 8.85 -13.75 8.35 -14.2 7.9 -13.95 7.55 -12.8 8.45 M-13.0 10.0 L-12.9 10.2 -12.75 10.45 -14.95 10.35 -14.95 10.3 -14.95 10.1 -13.8 10.05 -13.0 10.0 M-12.15 11.05 L-11.85 11.3 -13.2 12.35 -13.35 12.25 -13.4 12.25 -13.55 12.2 -12.15 11.05 M-10.7 12.05 L-10.4 12.25 -10.4 12.3 -10.7 12.05 -10.4 12.3 -10.85 12.75 -11.35 12.75 -10.7 12.05 M-9.4 3.85 L-9.4 3.8 -9.2 3.75 -8.85 3.55 Q-9.25 4.5 -8.8 5.25 L-9.1 5.45 -9.35 4.85 -9.4 3.85 -9.2 3.75 -9.4 3.85" fill="#4d443c" fill-rule="evenodd" stroke="none"/>
    <path d="M-2.55 1.85 Q-2.5 2.45 -3.65 2.15 L-3.65 2.1 -2.55 1.85 M-6.1 2.85 L-6.1 2.8 -5.2 2.6 Q-5.0 3.15 -6.1 2.85 M-8.4 4.15 L-8.45 4.1 Q-8.4 3.8 -7.95 3.75 -7.75 4.1 -8.4 4.15 M-10.9 5.4 L-10.9 5.35 -10.4 4.8 -10.35 4.8 Q-10.2 5.25 -10.9 5.4 M-14.3 8.8 Q-14.05 9.25 -14.35 9.8 L-14.4 9.85 Q-14.65 9.35 -14.35 8.8 L-14.3 8.8 M-13.3 7.9 Q-13.5 7.4 -12.9 7.05 -12.8 7.45 -13.25 7.85 L-13.3 7.9 M-14.1 10.95 Q-13.8 11.2 -13.9 11.6 -14.35 11.4 -14.15 10.95 L-14.1 10.95 M-12.6 12.0 L-11.85 12.45 -11.8 12.45 Q-12.5 12.75 -12.65 12.05 L-12.6 12.0" fill="#c7beb6" fill-rule="evenodd" stroke="none"/>
    <path d="M-4.0 1.85 L-1.35 1.35 -1.35 1.45 -1.2 2.5 -1.2 2.75 -3.9 3.15 -4.25 3.25 -6.4 4.0 -6.75 4.15 -9.3 5.55 -10.9 6.7 -11.25 6.95 -12.8 8.45 -13.0 8.85 -13.15 9.3 -13.0 10.0 -12.9 10.2 M-12.75 10.45 L-12.15 11.05 -11.85 11.3 -11.15 11.75 -10.7 12.05 -10.4 12.3 -9.9 12.75 M-12.45 12.75 L-13.2 12.35 M-13.35 12.25 L-13.4 12.25 -13.55 12.2 Q-14.85 11.5 -14.95 10.35 M-14.95 10.3 L-14.95 10.1 -14.7 8.85 -13.95 7.55 Q-13.1 6.4 -11.55 5.25 L-10.15 4.25 -9.4 3.85 -9.2 3.75 -8.85 3.55 Q-7.9 3.05 -6.85 2.7 L-6.3 2.5 -4.3 1.9 -4.0 1.85 Z" fill="none" stroke="#4d443c" stroke-linecap="round" stroke-linejoin="round" stroke-width="0.5"/>
  </g>
</svg>
