<?xml version="1.0" encoding="UTF-8" standalone="no"?>
<svg xmlns:xlink="http://www.w3.org/1999/xlink" height="5.95px" width="12.35px" xmlns="http://www.w3.org/2000/svg">
  <g transform="matrix(1.0, 0.0, 0.0, 1.0, 13.3, -1.1)">
    <path d="M-4.0 1.85 L-1.35 1.35 -1.35 1.45 -1.2 2.5 -1.2 2.75 -3.9 3.15 Q-4.05 2.5 -3.8 1.8 L-4.0 1.85 M-4.25 3.25 L-6.4 4.0 -6.45 3.45 -6.3 2.5 -4.3 1.9 -4.35 2.9 -4.25 3.25 M-6.75 4.15 L-9.3 5.55 -10.9 6.7 -11.15 6.25 -11.55 5.25 -11.95 5.55 -11.6 6.5 -13.05 6.5 -11.55 5.25 -10.15 4.25 -9.4 3.85 -9.35 4.85 -9.1 5.45 -8.8 5.25 Q-9.25 4.5 -8.85 3.55 -7.9 3.05 -6.85 2.7 L-6.9 3.7 -6.75 4.15 M-8.4 4.15 Q-7.75 4.1 -7.95 3.75 -8.4 3.8 -8.45 4.1 L-8.4 4.15 M-5.2 2.6 L-6.1 2.8 -6.1 2.85 Q-5.0 3.15 -5.2 2.6 M-2.55 1.85 L-3.65 2.1 -3.65 2.15 Q-2.5 2.45 -2.55 1.85 M-10.35 4.8 L-10.4 4.8 -10.9 5.35 -10.9 5.4 Q-10.2 5.25 -10.35 4.8" fill="#7a6b5f" fill-rule="evenodd" stroke="none"/>
    <path d="M-3.9 3.15 L-4.25 3.25 -4.35 2.9 -4.3 1.9 -4.0 1.85 -3.8 1.8 Q-4.05 2.5 -3.9 3.15 M-6.4 4.0 L-6.75 4.15 -6.9 3.7 -6.85 2.7 -6.3 2.5 -6.45 3.45 -6.4 4.0 M-10.9 6.7 L-11.1 6.8 -11.1 6.5 -11.6 6.5 -11.95 5.55 -11.55 5.25 -11.15 6.25 -10.9 6.7 M-9.4 3.85 L-9.4 3.8 -9.2 3.75 -8.85 3.55 Q-9.25 4.5 -8.8 5.25 L-9.1 5.45 -9.35 4.85 -9.4 3.85 -9.2 3.75 -9.4 3.85" fill="#4d443c" fill-rule="evenodd" stroke="none"/>
    <path d="M-2.55 1.85 Q-2.5 2.45 -3.65 2.15 L-3.65 2.1 -2.55 1.85 M-5.2 2.6 Q-5.0 3.15 -6.1 2.85 L-6.1 2.8 -5.2 2.6 M-8.4 4.15 L-8.45 4.1 Q-8.4 3.8 -7.95 3.75 -7.75 4.1 -8.4 4.15 M-10.35 4.8 Q-10.2 5.25 -10.9 5.4 L-10.9 5.35 -10.4 4.8 -10.35 4.8" fill="#c7beb6" fill-rule="evenodd" stroke="none"/>
    <path d="M-4.0 1.85 L-1.35 1.35 -1.35 1.45 -1.2 2.5 -1.2 2.75 -3.9 3.15 -4.25 3.25 -6.4 4.0 -6.75 4.15 -9.3 5.55 -10.9 6.7 -11.1 6.8 M-13.05 6.5 L-11.55 5.25 -10.15 4.25 -9.4 3.85 -9.2 3.75 -8.85 3.55 Q-7.9 3.05 -6.85 2.7 L-6.3 2.5 -4.3 1.9 -4.0 1.85 Z" fill="none" stroke="#4d443c" stroke-linecap="round" stroke-linejoin="round" stroke-width="0.5"/>
  </g>
</svg>
