<?xml version="1.0" encoding="UTF-8" standalone="no"?>
<svg xmlns:xlink="http://www.w3.org/1999/xlink" height="3.15px" width="5.75px" xmlns="http://www.w3.org/2000/svg">
  <g transform="matrix(1.0, 0.0, 0.0, 1.0, 6.7, -1.1)">
    <path d="M-4.0 1.85 L-1.35 1.35 -1.35 1.45 -1.2 2.5 -1.2 2.75 -3.9 3.15 Q-4.05 2.5 -3.8 1.8 L-4.0 1.85 M-4.25 3.25 L-6.4 4.0 -6.45 3.9 -6.45 3.45 -6.3 2.5 -4.3 1.9 -4.35 2.9 -4.25 3.25 M-2.55 1.85 L-3.65 2.1 -3.65 2.15 Q-2.5 2.45 -2.55 1.85 M-6.1 2.85 Q-5.0 3.15 -5.2 2.6 L-6.1 2.8 -6.1 2.85" fill="#7a6b5f" fill-rule="evenodd" stroke="none"/>
    <path d="M-3.9 3.15 L-4.25 3.25 -4.35 2.9 -4.3 1.9 -4.0 1.85 -3.8 1.8 Q-4.05 2.5 -3.9 3.15 M-6.45 3.45 L-6.45 2.55 -6.3 2.5 -6.45 3.45" fill="#4d443c" fill-rule="evenodd" stroke="none"/>
    <path d="M-2.55 1.85 Q-2.5 2.45 -3.65 2.15 L-3.65 2.1 -2.55 1.85 M-6.1 2.85 L-6.1 2.8 -5.2 2.6 Q-5.0 3.15 -6.1 2.85" fill="#c7beb6" fill-rule="evenodd" stroke="none"/>
    <path d="M-4.0 1.85 L-1.35 1.35 -1.35 1.45 -1.2 2.5 -1.2 2.75 -3.9 3.15 -4.25 3.25 -6.4 4.0 M-6.45 2.55 L-6.3 2.5 -4.3 1.9 -4.0 1.85 Z" fill="none" stroke="#4d443c" stroke-linecap="round" stroke-linejoin="round" stroke-width="0.5"/>
  </g>
</svg>
