<?xml version="1.0" encoding="UTF-8" standalone="no"?>
<svg xmlns:xlink="http://www.w3.org/1999/xlink" height="2.4px" width="3.55px" xmlns="http://www.w3.org/2000/svg">
  <g transform="matrix(1.0, 0.0, 0.0, 1.0, 4.5, -1.1)">
    <path d="M-4.0 1.85 L-1.35 1.35 -1.35 1.45 -1.2 2.5 -1.2 2.75 -3.9 3.15 Q-4.05 2.5 -3.8 1.8 L-4.0 1.85 M-3.65 2.1 L-3.65 2.15 Q-2.5 2.45 -2.55 1.85 L-3.65 2.1" fill="#7a6b5f" fill-rule="evenodd" stroke="none"/>
    <path d="M-3.9 3.15 L-4.25 3.25 -4.25 1.9 -4.0 1.85 -3.8 1.8 Q-4.05 2.5 -3.9 3.15" fill="#4d443c" fill-rule="evenodd" stroke="none"/>
    <path d="M-3.65 2.1 L-2.55 1.85 Q-2.5 2.45 -3.65 2.15 L-3.65 2.1" fill="#c7beb6" fill-rule="evenodd" stroke="none"/>
    <path d="M-4.0 1.85 L-1.35 1.35 -1.35 1.45 -1.2 2.5 -1.2 2.75 -3.9 3.15 -4.25 3.25 M-4.25 1.9 L-4.0 1.85 Z" fill="none" stroke="#4d443c" stroke-linecap="round" stroke-linejoin="round" stroke-width="0.5"/>
  </g>
</svg>
