<?xml version="1.0" encoding="UTF-8" standalone="no"?>
<svg xmlns:xlink="http://www.w3.org/1999/xlink" height="80.0px" width="80.0px" xmlns="http://www.w3.org/2000/svg">
  <g transform="matrix(1.0, 0.0, 0.0, 1.0, 40.0, 40.0)">
    <path d="M17.35 -30.0 Q9.65 -34.6 0.0 -34.6 -9.65 -34.6 -17.4 -30.0 -21.15 -27.8 -24.45 -24.5 -27.85 -21.1 -30.1 -17.2 -34.55 -9.55 -34.55 -0.05 -34.55 9.65 -29.9 17.45 -27.7 21.15 -24.45 24.4 -21.05 27.8 -17.2 30.05 L-17.5 30.55 -17.2 30.05 Q-9.55 34.55 0.0 34.55 9.6 34.55 17.3 30.0 21.1 27.75 24.4 24.4 27.75 21.1 30.0 17.35 34.55 9.6 34.55 -0.05 34.55 -9.6 30.05 -17.25 27.8 -21.1 24.4 -24.5 21.1 -27.8 17.35 -30.0 L17.55 -30.35 17.35 -30.0 M30.4 -17.5 L30.05 -17.25 30.4 -17.5 M30.45 17.6 L30.0 17.35 30.45 17.6 M28.25 -28.35 Q40.0 -16.6 40.0 0.0 40.0 16.55 28.25 28.25 16.55 40.0 0.0 40.0 -16.6 40.0 -28.35 28.25 -38.0 18.6 -39.65 5.6 L-40.0 0.0 Q-40.0 -2.9 -39.65 -5.6 -38.0 -18.65 -28.35 -28.35 -16.6 -40.0 0.0 -40.0 16.55 -40.0 28.25 -28.35 M-30.45 -17.4 L-30.1 -17.2 -30.45 -17.4 M-17.6 -30.35 L-17.4 -30.0 -17.6 -30.35 M-30.4 17.7 L-29.9 17.45 -30.4 17.7 M17.6 30.5 L17.3 30.0 17.6 30.5" fill="#4e5a43" fill-rule="evenodd" stroke="none"/>
    <path d="M-17.4 -30.0 Q-9.65 -34.6 0.0 -34.6 9.65 -34.6 17.35 -30.0 L16.05 -27.75 17.35 -30.0 Q21.1 -27.8 24.4 -24.5 27.8 -21.1 30.05 -17.25 34.55 -9.6 34.55 -0.05 34.55 9.6 30.0 17.35 L27.85 16.1 30.0 17.35 Q27.75 21.1 24.4 24.4 21.1 27.75 17.3 30.0 9.6 34.55 0.0 34.55 -9.55 34.55 -17.2 30.05 -21.05 27.8 -24.45 24.4 -27.7 21.15 -29.9 17.45 -34.55 9.65 -34.55 -0.05 -34.55 -9.55 -30.1 -17.2 -27.85 -21.1 -24.45 -24.5 -21.15 -27.8 -17.4 -30.0 L-16.1 -27.75 -17.4 -30.0 M27.8 -16.0 L30.05 -17.25 27.8 -16.0 M-27.85 -15.9 L-30.1 -17.2 -27.85 -15.9 M-16.0 27.95 L-17.2 30.05 -16.0 27.95 M-27.8 16.2 L-29.9 17.45 -27.8 16.2 M16.1 27.9 L17.3 30.0 16.1 27.9" fill="url(#gradient0)" fill-rule="evenodd" stroke="none"/>
    <path d="M17.35 -30.0 L17.55 -30.35 M17.35 -30.0 L16.05 -27.75 M30.05 -17.25 L30.4 -17.5 M30.0 17.35 L30.45 17.6 M30.05 -17.25 L27.8 -16.0 M-30.1 -17.2 L-30.45 -17.4 M-17.4 -30.0 L-17.6 -30.35 M-17.4 -30.0 L-16.1 -27.75 M-30.1 -17.2 L-27.85 -15.9 M-17.2 30.05 L-17.5 30.55 M-29.9 17.45 L-30.4 17.7 M-29.9 17.45 L-27.8 16.2 M-17.2 30.05 L-16.0 27.95 M30.0 17.35 L27.85 16.1 M17.3 30.0 L17.6 30.5 M17.3 30.0 L16.1 27.9" fill="none" stroke="#333333" stroke-linecap="round" stroke-linejoin="round" stroke-width="1.0"/>
    <path d="M6.25 -31.85 L6.0 -31.85 5.4 -31.6 5.3 -30.85 5.3 -26.55 5.3 -26.2 5.35 -25.95 5.4 -25.8 5.55 -25.7 6.0 -25.6 6.25 -25.6 6.25 -25.4 3.4 -25.4 3.4 -25.6 3.65 -25.6 4.25 -25.8 4.35 -26.55 4.35 -30.85 4.35 -31.25 4.3 -31.45 4.2 -31.6 4.1 -31.7 3.65 -31.85 3.4 -31.85 3.4 -32.0 6.25 -32.0 6.25 -31.85 M0.05 -32.0 L2.9 -32.0 2.9 -31.85 2.65 -31.85 2.05 -31.6 1.95 -30.85 1.95 -26.55 1.95 -26.2 2.0 -25.95 2.05 -25.8 2.2 -25.7 2.65 -25.6 2.9 -25.6 2.9 -25.4 0.05 -25.4 0.05 -25.6 0.3 -25.6 0.9 -25.8 1.0 -26.55 1.0 -30.85 1.0 -31.25 0.95 -31.45 0.85 -31.6 0.75 -31.7 0.3 -31.85 0.05 -31.85 0.05 -32.0 M24.75 -4.4 L27.6 -4.4 27.6 -4.25 27.35 -4.25 26.75 -4.0 26.65 -3.25 26.65 1.05 26.65 1.4 26.7 1.65 26.75 1.8 26.9 1.9 27.35 2.0 27.6 2.0 27.6 2.2 24.75 2.2 24.75 2.0 25.0 2.0 25.6 1.8 25.7 1.05 25.7 -3.25 25.7 -3.65 25.65 -3.85 25.55 -4.0 25.45 -4.1 25.0 -4.25 24.75 -4.25 24.75 -4.4 M30.0 -3.25 L30.0 1.05 30.0 1.4 30.05 1.65 30.1 1.8 30.25 1.9 30.7 2.0 30.95 2.0 30.95 2.2 28.1 2.2 28.1 2.0 28.35 2.0 28.95 1.8 29.05 1.05 29.05 -3.25 29.05 -3.65 29.0 -3.85 28.9 -4.0 28.8 -4.1 28.35 -4.25 28.1 -4.25 28.1 -4.4 30.95 -4.4 30.95 -4.25 30.7 -4.25 30.1 -4.0 30.0 -3.25 M33.35 -3.25 L33.35 1.05 33.35 1.4 33.4 1.65 33.45 1.8 33.6 1.9 34.05 2.0 34.3 2.0 34.3 2.2 31.45 2.2 31.45 2.0 31.7 2.0 32.3 1.8 32.4 1.05 32.4 -3.25 32.4 -3.65 32.35 -3.85 32.25 -4.0 32.15 -4.1 31.7 -4.25 31.45 -4.25 31.45 -4.4 34.3 -4.4 34.3 -4.25 34.05 -4.25 Q33.65 -4.25 33.45 -4.0 L33.35 -3.25 M5.3 26.25 L5.05 26.25 Q4.65 26.25 4.45 26.5 L4.35 27.25 4.35 31.55 4.35 31.9 4.4 32.15 4.45 32.3 4.6 32.4 5.05 32.5 5.3 32.5 5.3 32.7 2.45 32.7 2.45 32.5 2.7 32.5 3.3 32.3 3.4 31.55 3.4 27.25 3.4 26.85 3.35 26.65 3.25 26.5 3.15 26.4 2.7 26.25 2.45 26.25 2.45 26.1 5.3 26.1 5.3 26.25 M2.1 26.25 L1.75 26.35 1.5 26.55 1.3 26.85 1.1 27.2 -1.2 32.85 -1.4 32.85 -3.85 27.15 -4.15 26.6 -4.45 26.35 -4.9 26.25 -4.9 26.1 -2.2 26.1 -2.2 26.25 -2.6 26.3 -2.8 26.4 -2.9 26.55 -2.95 26.7 -2.7 27.45 -1.05 31.35 0.55 27.5 0.75 26.75 0.6 26.45 Q0.45 26.3 0.05 26.25 L0.05 26.1 2.1 26.1 2.1 26.25 M-2.8 -32.0 L-0.45 -32.0 -0.45 -31.85 -0.75 -31.8 -1.0 -31.7 -1.2 -31.6 -1.4 -31.45 -2.0 -30.75 -3.3 -29.05 -1.9 -26.95 -1.4 -26.25 -1.0 -25.85 Q-0.75 -25.6 -0.3 -25.6 L-0.3 -25.4 -3.15 -25.4 -3.15 -25.6 -2.65 -25.7 -2.5 -25.95 -2.5 -26.05 -2.5 -26.15 -2.6 -26.3 -2.8 -26.6 -3.9 -28.3 -5.3 -26.55 -5.5 -26.3 -5.55 -26.15 -5.6 -26.05 -5.6 -25.95 -5.6 -25.8 -5.5 -25.7 -5.3 -25.6 -5.0 -25.6 -5.0 -25.4 -7.35 -25.4 -7.35 -25.6 -6.8 -25.75 -6.3 -26.0 -5.7 -26.7 -4.15 -28.65 -5.45 -30.55 -6.35 -31.6 -7.2 -31.85 -7.2 -32.0 -4.15 -32.0 -4.15 -31.85 -4.45 -31.8 -4.65 -31.7 -4.8 -31.6 -4.8 -31.45 -4.6 -30.95 -3.55 -29.4 -2.4 -30.9 -2.2 -31.15 -2.15 -31.25 -2.1 -31.35 -2.1 -31.45 -2.15 -31.65 -2.35 -31.8 -2.5 -31.8 -2.8 -31.85 -2.8 -32.0 M-33.5 -3.0 L-33.5 -3.15 -30.65 -3.15 -30.65 -3.0 -30.9 -3.0 -31.5 -2.75 -31.6 -2.0 -31.6 2.3 -31.6 2.65 -31.55 2.9 -31.5 3.05 -31.35 3.15 -30.9 3.25 -30.65 3.25 -30.65 3.45 -33.5 3.45 -33.5 3.25 -33.25 3.25 Q-32.85 3.25 -32.65 3.05 L-32.55 2.3 -32.55 -2.0 -32.55 -2.4 -32.6 -2.6 -32.7 -2.75 -32.8 -2.85 -33.25 -3.0 -33.5 -3.0 M-30.2 -3.0 L-30.2 -3.15 -27.15 -3.15 -27.15 -3.0 -27.45 -2.95 -27.65 -2.85 -27.8 -2.75 -27.8 -2.6 -27.6 -2.1 -26.55 -0.55 -25.4 -2.05 -25.2 -2.3 -25.15 -2.4 -25.1 -2.5 -25.1 -2.6 -25.15 -2.8 -25.35 -2.95 -25.5 -2.95 -25.8 -3.0 -25.8 -3.15 -23.45 -3.15 -23.45 -3.0 -23.75 -2.95 -24.0 -2.85 -24.2 -2.75 -24.4 -2.6 -25.0 -1.9 -26.3 -0.2 -24.9 1.9 -24.4 2.6 -24.0 3.0 -23.3 3.25 -23.3 3.45 -26.15 3.45 -26.15 3.25 -25.65 3.15 -25.5 2.9 -25.5 2.8 -25.5 2.7 -25.6 2.55 -25.8 2.25 -26.9 0.55 -28.3 2.3 -28.5 2.55 -28.55 2.7 -28.6 2.8 -28.6 2.9 -28.6 3.05 -28.5 3.15 -28.3 3.25 -28.0 3.25 -28.0 3.45 -30.35 3.45 -30.35 3.25 -29.8 3.1 -29.3 2.85 -28.7 2.15 -27.15 0.2 -28.45 -1.7 -29.35 -2.75 -30.2 -3.0" fill="#333333" fill-rule="evenodd" stroke="none"/>
  </g>
  <defs>
    <radialGradient cx="0" cy="0" gradientTransform="matrix(0.0426, 0.0, 0.0, 0.0426, 1.0, 1.0)" gradientUnits="userSpaceOnUse" id="gradient0" r="819.2" spreadMethod="pad">
      <stop offset="0.0" stop-color="#6a7b5b"/>
      <stop offset="0.9686274509803922" stop-color="#adbba2"/>
    </radialGradient>
  </defs>
</svg>
