<?xml version="1.0" encoding="UTF-8" standalone="no"?>
<svg xmlns:xlink="http://www.w3.org/1999/xlink" height="28.0px" width="9.0px" xmlns="http://www.w3.org/2000/svg">
  <g transform="matrix(1.0, 0.0, 0.0, 1.0, 4.5, 23.5)">
    <path d="M2.0 -3.45 L2.8 -2.8 Q4.0 -1.65 4.0 0.0 4.0 1.65 2.8 2.8 1.65 4.0 -0.05 4.0 -1.65 4.0 -2.8 2.8 -4.0 1.65 -4.0 -0.05 -4.0 -1.65 -2.8 -2.8 L-2.0 -3.45 0.1 -23.0 2.0 -3.45 -0.05 -4.0 Q-1.15 -4.0 -2.0 -3.45 -1.15 -4.0 -0.05 -4.0 L2.0 -3.45 M1.05 1.05 L1.5 0.0 Q1.5 -0.65 1.05 -1.1 0.6 -1.5 -0.05 -1.5 -0.65 -1.5 -1.1 -1.1 -1.5 -0.65 -1.5 0.0 -1.5 0.65 -1.1 1.05 -0.65 1.5 -0.05 1.5 L1.05 1.05" fill="#666666" fill-rule="evenodd" stroke="none"/>
    <path d="M2.0 -3.45 L2.8 -2.8 Q4.0 -1.65 4.0 0.0 4.0 1.65 2.8 2.8 1.65 4.0 -0.05 4.0 -1.65 4.0 -2.8 2.8 -4.0 1.65 -4.0 -0.05 -4.0 -1.65 -2.8 -2.8 L-2.0 -3.45 0.1 -23.0 2.0 -3.45 -0.05 -4.0 Q-1.15 -4.0 -2.0 -3.45" fill="none" stroke="#333333" stroke-linecap="round" stroke-linejoin="round" stroke-width="1.0"/>
  </g>
</svg>
