<?xml version="1.0" encoding="UTF-8" standalone="no"?>
<svg xmlns:xlink="http://www.w3.org/1999/xlink" height="38.75px" width="9.0px" xmlns="http://www.w3.org/2000/svg">
  <g transform="matrix(1.0, 0.0, 0.0, 1.0, 4.5, 34.25)">
    <path d="M3.85 -1.05 Q4.25 0.55 3.4 2.0 2.55 3.45 1.0 3.9 -0.55 4.25 -2.0 3.4 -3.45 2.6 -3.85 1.05 -4.3 -0.5 -3.45 -1.95 L-2.95 -2.6 -2.0 -3.45 0.35 -33.75 2.0 -3.45 Q3.4 -2.6 3.85 -1.05 M1.1 -1.1 Q0.65 -1.5 0.0 -1.5 -0.6 -1.5 -1.05 -1.1 L-1.5 0.0 -1.05 1.05 0.0 1.5 Q0.65 1.5 1.1 1.05 1.5 0.6 1.5 0.0 1.5 -0.6 1.1 -1.1 M2.0 -3.45 Q0.55 -4.25 -1.05 -3.85 L-2.0 -3.45 -1.05 -3.85 Q0.55 -4.25 2.0 -3.45" fill="#666666" fill-rule="evenodd" stroke="none"/>
    <path d="M3.85 -1.05 Q4.25 0.55 3.4 2.0 2.55 3.45 1.0 3.9 -0.55 4.25 -2.0 3.4 -3.45 2.6 -3.85 1.05 -4.3 -0.5 -3.45 -1.95 L-2.95 -2.6 -2.0 -3.45 0.35 -33.75 2.0 -3.45 Q3.4 -2.6 3.85 -1.05 M-2.0 -3.45 L-1.05 -3.85 Q0.55 -4.25 2.0 -3.45" fill="none" stroke="#333333" stroke-linecap="round" stroke-linejoin="round" stroke-width="1.0"/>
  </g>
</svg>
