<?xml version="1.0" encoding="UTF-8" standalone="no"?>
<svg xmlns:xlink="http://www.w3.org/1999/xlink" height="35.95px" width="36.05px" xmlns="http://www.w3.org/2000/svg">
  <g transform="matrix(1.0, 0.0, 0.0, 1.0, 18.15, 18.95)">
    <path d="M-6.05 -16.9 L-5.85 -18.5 3.75 -18.5 3.75 -17.5 3.4 -17.6 1.8 -17.85 -0.1 -17.95 -3.25 -17.7 -3.65 -17.55 -6.05 -16.9" fill="#ffffff" fill-rule="evenodd" stroke="none"/>
    <path d="M12.1 -1.65 Q11.35 -1.0 11.95 -1.65 L12.1 -1.65 M11.45 -0.95 Q11.35 -0.1 11.35 -1.05 L11.45 -0.95" fill="#68f0ba" fill-rule="evenodd" stroke="none"/>
    <path d="M11.45 -0.95 L11.35 -1.05 Q11.35 -0.1 11.45 -0.95 M12.1 -1.65 L11.95 -1.65 Q11.35 -1.0 12.1 -1.65 M11.85 -2.3 Q14.2 -1.05 11.55 0.15 L10.8 0.05 Q10.35 -1.05 11.2 -1.9 L11.85 -2.3 M-0.75 -13.35 L-0.5 -13.25 Q-0.6 -12.8 -0.25 -12.6 L0.15 -12.05 -1.85 -12.1 Q-2.25 -12.1 -2.55 -12.35 L-2.5 -13.0 -2.0 -13.55 -0.75 -13.35 M-13.2 -0.95 Q-13.15 -1.8 -12.2 -2.3 L-11.9 -2.4 -11.5 -2.0 -11.45 -1.95 -10.4 -2.15 -10.35 -2.05 Q-10.5 -1.5 -11.1 -1.3 L-11.45 -1.15 -11.25 -0.45 Q-11.1 -0.2 -11.25 0.05 -12.0 0.3 -12.05 -0.6 L-12.05 -1.0 -13.1 -0.9 -13.2 -0.95 M0.6 9.3 L0.55 9.5 Q1.25 9.65 0.9 10.2 L1.55 10.9 1.55 10.95 Q0.9 11.4 0.25 10.65 -0.35 11.2 -0.95 10.9 0.0 9.75 0.1 8.1 0.1 7.95 0.25 7.95 0.75 8.45 0.6 9.3" fill="#333333" fill-rule="evenodd" stroke="none"/>
    <path d="M11.85 -2.3 L11.2 -1.9 Q10.35 -1.05 10.8 0.05 L11.55 0.15 Q14.2 -1.05 11.85 -2.3 M13.7 -0.85 Q13.7 4.9 9.6 8.95 5.6 12.95 -0.1 12.95 -5.8 12.95 -9.85 8.95 -13.9 4.9 -13.9 -0.85 -13.9 -6.55 -9.85 -10.6 -5.8 -14.65 -0.1 -14.65 5.6 -14.65 9.6 -10.6 13.7 -6.55 13.7 -0.85 M0.6 9.3 Q0.75 8.45 0.25 7.95 0.1 7.95 0.1 8.1 0.0 9.75 -0.95 10.9 -0.35 11.2 0.25 10.65 0.9 11.4 1.55 10.95 L1.55 10.9 0.9 10.2 Q1.25 9.65 0.55 9.5 L0.6 9.3 M-13.2 -0.95 L-13.1 -0.9 -12.05 -1.0 -12.05 -0.6 Q-12.0 0.3 -11.25 0.05 -11.1 -0.2 -11.25 -0.45 L-11.45 -1.15 -11.1 -1.3 Q-10.5 -1.5 -10.35 -2.05 L-10.4 -2.15 -11.45 -1.95 -11.5 -2.0 -11.9 -2.4 -12.2 -2.3 Q-13.15 -1.8 -13.2 -0.95 M-0.75 -13.35 L-2.0 -13.55 -2.5 -13.0 -2.55 -12.35 Q-2.25 -12.1 -1.85 -12.1 L0.15 -12.05 -0.25 -12.6 Q-0.6 -12.8 -0.5 -13.25 L-0.75 -13.35 M-1.05 -7.4 L-1.05 0.0 9.85 -7.4 -1.05 0.0 -1.05 -7.4" fill="#cccccc" fill-rule="evenodd" stroke="none"/>
    <path d="M-6.05 -16.9 L-3.65 -17.55 -3.25 -17.7 -0.1 -17.95 1.8 -17.85 3.4 -17.6 3.75 -17.5 Q8.35 -16.55 11.85 -13.0 16.9 -8.05 16.9 -1.0 16.9 6.05 11.85 11.05 6.9 16.0 -0.1 16.0 -7.15 16.0 -12.15 11.05 -17.15 6.05 -17.15 -1.0 -17.15 -8.05 -12.15 -13.0 -9.45 -15.7 -6.05 -16.9 M13.7 -0.85 Q13.7 -6.55 9.6 -10.6 5.6 -14.65 -0.1 -14.65 -5.8 -14.65 -9.85 -10.6 -13.9 -6.55 -13.9 -0.85 -13.9 4.9 -9.85 8.95 -5.8 12.95 -0.1 12.95 5.6 12.95 9.6 8.95 13.7 4.9 13.7 -0.85" fill="#666666" fill-rule="evenodd" stroke="none"/>
    <path d="M-6.05 -16.9 L-3.65 -17.55 -3.25 -17.7 -0.1 -17.95 1.8 -17.85 3.4 -17.6 3.75 -17.5 Q8.35 -16.55 11.85 -13.0 16.9 -8.05 16.9 -1.0 16.9 6.05 11.85 11.05 6.9 16.0 -0.1 16.0 -7.15 16.0 -12.15 11.05 -17.15 6.05 -17.15 -1.0 -17.15 -8.05 -12.15 -13.0 -9.45 -15.7 -6.05 -16.9" fill="none" stroke="#333333" stroke-linecap="round" stroke-linejoin="round" stroke-width="2.0"/>
    <path d="M13.7 -0.85 Q13.7 4.9 9.6 8.95 5.6 12.95 -0.1 12.95 -5.8 12.95 -9.85 8.95 -13.9 4.9 -13.9 -0.85 -13.9 -6.55 -9.85 -10.6 -5.8 -14.65 -0.1 -14.65 5.6 -14.65 9.6 -10.6 13.7 -6.55 13.7 -0.85" fill="none" stroke="#333333" stroke-linecap="butt" stroke-linejoin="miter-clip" stroke-miterlimit="3.0" stroke-width="1.0"/>
    <path d="M9.85 -7.4 L-1.05 0.0 -1.05 -7.4" fill="none" stroke="#333333" stroke-linecap="butt" stroke-linejoin="miter-clip" stroke-miterlimit="3.0" stroke-width="3.0"/>
  </g>
</svg>
