<?xml version="1.0" encoding="UTF-8" standalone="no"?>
<svg xmlns:xlink="http://www.w3.org/1999/xlink" height="25.0px" width="30.0px" xmlns="http://www.w3.org/2000/svg">
  <g transform="matrix(1.0, 0.0, 0.0, 1.0, 15.0, 12.5)">
    <path d="M12.9 -6.8 L13.05 -6.5 Q14.3 -2.55 11.55 0.45 L-0.2 9.4 -8.55 2.8 Q-3.7 2.6 1.1 -1.25 6.95 -5.95 12.9 -6.8" fill="#e00000" fill-rule="evenodd" stroke="none"/>
    <path d="M14.75 -6.1 Q15.75 -2.2 12.75 1.0 L0.1 12.5 -12.65 1.15 Q-16.05 -1.8 -14.55 -6.55 -10.65 -15.25 0.0 -10.9 10.5 -15.75 14.75 -6.1 M12.9 -6.8 Q9.05 -14.05 0.0 -9.2 -9.15 -14.15 -13.0 -6.4 -14.2 -2.5 -11.5 0.45 L-8.55 2.8 -0.2 9.4 11.55 0.45 Q14.3 -2.55 13.05 -6.5 L12.9 -6.8" fill="#ff4645" fill-rule="evenodd" stroke="none"/>
    <path d="M-8.55 2.8 L-11.5 0.45 Q-14.2 -2.5 -13.0 -6.4 -9.15 -14.15 0.0 -9.2 9.05 -14.05 12.9 -6.8 6.95 -5.95 1.1 -1.25 -3.7 2.6 -8.55 2.8" fill="url(#gradient0)" fill-rule="evenodd" stroke="none"/>
  </g>
  <defs>
    <linearGradient gradientTransform="matrix(-0.0012, -0.0091, 0.0086, -0.0011, 0.0, -5.75)" gradientUnits="userSpaceOnUse" id="gradient0" spreadMethod="pad" x1="-819.2" x2="819.2">
      <stop offset="0.0" stop-color="#e00000"/>
      <stop offset="1.0" stop-color="#ffbfbf"/>
    </linearGradient>
  </defs>
</svg>
