<?xml version="1.0" encoding="UTF-8" standalone="no"?>
<svg xmlns:xlink="http://www.w3.org/1999/xlink" height="28.5px" width="29.45px" xmlns="http://www.w3.org/2000/svg">
  <g transform="matrix(1.0, 0.0, 0.0, 1.0, 17.65, 14.5)">
    <path d="M11.8 -9.7 L-8.35 -9.7 -8.35 -11.65 11.8 -11.65 11.8 -9.7 M-14.4 -14.5 Q-13.1 -14.5 -12.1 -13.6 -11.1 -12.6 -11.1 -11.25 -11.1 -9.9 -12.1 -8.95 -13.1 -7.95 -14.4 -7.95 -15.75 -7.95 -16.75 -8.95 -17.65 -9.9 -17.65 -11.25 -17.65 -12.6 -16.75 -13.6 -15.75 -14.5 -14.4 -14.5 M-16.75 -2.65 Q-15.75 -3.55 -14.4 -3.55 -13.1 -3.55 -12.1 -2.65 -11.1 -1.65 -11.1 -0.3 -11.1 1.0 -12.1 2.0 -13.1 3.0 -14.4 3.0 -15.75 3.0 -16.75 2.0 -17.65 1.0 -17.65 -0.3 -17.65 -1.65 -16.75 -2.65 M-8.35 10.3 L11.8 10.3 11.8 12.25 -8.35 12.25 -8.35 10.3 M-14.4 7.45 Q-13.1 7.45 -12.1 8.35 -11.1 9.35 -11.1 10.7 -11.1 12.0 -12.1 13.0 -13.1 14.0 -14.4 14.0 -15.75 14.0 -16.75 13.0 -17.65 12.0 -17.65 10.7 -17.65 9.35 -16.75 8.35 -15.75 7.45 -14.4 7.45 M11.8 1.45 L-8.35 1.45 -8.35 -0.5 11.8 -0.5 11.8 1.45" fill="#ffffff" fill-rule="evenodd" stroke="none"/>
  </g>
</svg>
