<?xml version="1.0" encoding="UTF-8" standalone="no"?>
<svg xmlns:xlink="http://www.w3.org/1999/xlink" height="6.75px" width="11.25px" xmlns="http://www.w3.org/2000/svg">
  <g transform="matrix(1.0, 0.0, 0.0, 1.0, 5.6, 3.35)">
    <path d="M-4.9 -2.2 L-4.9 -2.25 Q-4.0 -3.4 -2.85 -3.35 -1.65 -3.4 -0.75 -2.25 L-0.75 -2.2 -0.25 -1.25 5.65 -1.25 5.65 1.0 5.2 1.0 5.2 2.85 3.85 2.85 3.85 1.0 3.5 1.0 3.5 2.85 2.15 2.85 2.15 1.0 -0.15 1.0 -0.5 1.9 -0.75 2.3 Q-1.6 3.45 -2.85 3.4 -4.0 3.45 -4.9 2.3 L-5.15 1.9 Q-5.6 1.1 -5.6 0.05 L-5.55 -0.35 Q-5.45 -1.4 -4.9 -2.2 M-2.85 -1.1 L-3.1 -0.9 -3.3 -0.35 -3.35 0.05 -3.05 0.95 -2.85 1.15 -2.55 0.95 -2.3 0.05 -2.3 0.0 -2.35 -0.35 -2.55 -0.9 -2.85 -1.1" fill="#990000" fill-rule="evenodd" stroke="none"/>
  </g>
</svg>
