<?xml version="1.0" encoding="UTF-8" standalone="no"?>
<svg xmlns:xlink="http://www.w3.org/1999/xlink" height="25.0px" width="25.0px" xmlns="http://www.w3.org/2000/svg">
  <g transform="matrix(1.0, 0.0, 0.0, 1.0, 12.5, 12.5)">
    <path d="M8.75 -8.8 Q11.25 -6.35 11.25 -2.9 L11.25 2.9 Q11.25 6.4 8.75 8.8 6.35 11.25 2.9 11.25 L-2.9 11.25 Q-6.4 11.25 -8.85 8.8 -11.25 6.4 -11.25 2.9 L-11.25 -2.9 Q-11.25 -6.35 -8.85 -8.8 -6.4 -11.25 -2.9 -11.25 L2.9 -11.25 Q6.35 -11.25 8.75 -8.8" fill="#804831" fill-rule="evenodd" stroke="none"/>
    <path d="M9.75 -9.8 Q12.5 -7.05 12.5 -3.2 L12.5 3.25 Q12.5 7.1 9.75 9.8 7.05 12.5 3.25 12.5 L-3.25 12.5 Q-7.1 12.5 -9.85 9.8 -12.5 7.1 -12.5 3.25 L-12.5 -3.2 Q-12.5 -7.05 -9.85 -9.8 -7.1 -12.5 -3.25 -12.5 L3.25 -12.5 Q7.05 -12.5 9.75 -9.8 M8.75 -8.8 Q6.35 -11.25 2.9 -11.25 L-2.9 -11.25 Q-6.4 -11.25 -8.85 -8.8 -11.25 -6.35 -11.25 -2.9 L-11.25 2.9 Q-11.25 6.4 -8.85 8.8 -6.4 11.25 -2.9 11.25 L2.9 11.25 Q6.35 11.25 8.75 8.8 11.25 6.4 11.25 2.9 L11.25 -2.9 Q11.25 -6.35 8.75 -8.8" fill="#c17d60" fill-rule="evenodd" stroke="none"/>
    <path d="M6.0 -0.9 L2.35 -0.9 2.35 8.0 -2.3 8.0 -2.3 -0.9 -6.0 -0.9 0.0 -8.0 6.0 -0.9" fill="url(#gradient0)" fill-rule="evenodd" stroke="none"/>
    <path d="M8.65 5.85 Q9.1 6.3 9.1 6.9 L8.65 7.95 Q8.2 8.4 7.6 8.4 6.95 8.4 6.55 7.95 6.1 7.55 6.1 6.9 6.1 6.3 6.55 5.85 6.95 5.4 7.6 5.4 8.2 5.4 8.65 5.85" fill="url(#gradient1)" fill-rule="evenodd" stroke="none"/>
  </g>
  <defs>
    <radialGradient cx="0" cy="0" gradientTransform="matrix(0.0141, 0.0, 0.0, 0.0156, 0.05, 0.0)" gradientUnits="userSpaceOnUse" id="gradient0" r="819.2" spreadMethod="pad">
      <stop offset="0.0" stop-color="#cccccc"/>
      <stop offset="1.0" stop-color="#804831"/>
    </radialGradient>
    <radialGradient cx="0" cy="0" gradientTransform="matrix(0.0041, 0.0011, -0.0011, 0.0041, 7.6, 6.9)" gradientUnits="userSpaceOnUse" id="gradient1" r="819.2" spreadMethod="pad">
      <stop offset="0.0" stop-color="#cccccc"/>
      <stop offset="1.0" stop-color="#804831"/>
    </radialGradient>
  </defs>
</svg>
