<?xml version="1.0" encoding="UTF-8" standalone="no"?>
<svg xmlns:xlink="http://www.w3.org/1999/xlink" height="26.0px" width="26.0px" xmlns="http://www.w3.org/2000/svg">
  <g transform="matrix(1.0, 0.0, 0.0, 1.0, 13.0, 13.0)">
    <path d="M6.75 -6.8 Q9.55 -4.0 9.55 -0.05 9.55 3.85 6.75 6.7 3.95 9.55 0.0 9.55 -4.0 9.55 -6.8 6.7 -9.55 3.85 -9.55 -0.05 -9.55 -4.0 -6.8 -6.8 -4.0 -9.6 0.0 -9.6 3.95 -9.6 6.75 -6.8" fill="#ed957e" fill-rule="evenodd" stroke="none"/>
    <path d="M7.35 -7.4 Q4.3 -10.45 0.0 -10.45 -4.35 -10.45 -7.4 -7.4 -10.4 -4.35 -10.4 -0.05 -10.4 4.2 -7.4 7.3 -4.35 10.4 0.0 10.4 4.3 10.4 7.35 7.3 10.4 4.2 10.4 -0.05 10.4 -4.35 7.35 -7.4 M8.85 -8.8 Q12.5 -5.15 12.5 0.0 12.5 2.7 11.55 4.95 L10.25 7.2 8.85 8.85 Q5.15 12.5 0.0 12.5 -5.15 12.5 -8.85 8.85 -12.5 5.2 -12.5 0.0 -12.5 -5.15 -8.85 -8.8 -5.15 -12.5 0.0 -12.5 5.15 -12.5 8.85 -8.8" fill="#990000" fill-rule="evenodd" stroke="none"/>
    <path d="M8.85 -8.8 Q12.5 -5.15 12.5 0.0 12.5 2.7 11.55 4.95 L10.25 7.2 8.85 8.85 Q5.15 12.5 0.0 12.5 -5.15 12.5 -8.85 8.85 -12.5 5.2 -12.5 0.0 -12.5 -5.15 -8.85 -8.8 -5.15 -12.5 0.0 -12.5 5.15 -12.5 8.85 -8.8 Z" fill="none" stroke="#000000" stroke-linecap="round" stroke-linejoin="round" stroke-width="1.0"/>
    <path d="M-1.3 -1.45 Q-0.3 -3.75 2.55 -5.35 5.4 -5.95 8.35 -2.8 9.2 -0.6 8.05 2.75 3.9 4.25 -1.3 4.05 -0.6 3.1 -1.05 1.75 L-1.6 0.05 -1.3 -1.45 M3.1 0.35 Q2.9 -1.85 5.15 -1.35 7.35 -0.8 4.85 1.4 2.0 2.65 1.0 0.2 1.0 -3.25 5.6 -2.95 1.0 -3.25 1.0 0.2 2.0 2.65 4.85 1.4 7.35 -0.8 5.15 -1.35 2.9 -1.85 3.1 0.35" fill="#006600" fill-rule="evenodd" stroke="none"/>
    <path d="M-1.3 4.05 L-1.9 4.0 -7.45 3.1 Q-8.55 0.35 -5.85 -1.1 L-6.0 -1.5 -1.3 -1.45 -1.6 0.05 -1.05 1.75 Q-0.6 3.1 -1.3 4.05 M-4.8 1.45 Q-4.55 1.45 -4.4 1.15 L-4.2 0.7 Q-4.2 0.35 -4.7 0.2 -5.2 0.15 -5.2 0.8 -5.35 1.45 -4.8 1.45" fill="#ffff99" fill-rule="evenodd" stroke="none"/>
    <path d="M-4.8 1.45 Q-5.35 1.45 -5.2 0.8 -5.2 0.15 -4.7 0.2 -4.2 0.35 -4.2 0.7 L-4.4 1.15 Q-4.55 1.45 -4.8 1.45" fill="#000000" fill-rule="evenodd" stroke="none"/>
    <path d="M-1.3 -1.45 Q-0.3 -3.75 2.55 -5.35 5.4 -5.95 8.35 -2.8 9.2 -0.6 8.05 2.75 3.9 4.25 -1.3 4.05 L-1.9 4.0 -7.45 3.1 Q-8.55 0.35 -5.85 -1.1 L-6.0 -1.5 -1.3 -1.45 -1.6 0.05" fill="none" stroke="#000000" stroke-linecap="round" stroke-linejoin="round" stroke-width="1.0"/>
    <path d="M-6.0 -1.5 L-6.9 -5.6 M-8.4 -4.85 L-6.35 -1.25 M5.6 -2.95 Q1.0 -3.25 1.0 0.2 2.0 2.65 4.85 1.4 7.35 -0.8 5.15 -1.35 2.9 -1.85 3.1 0.35" fill="none" stroke="#000000" stroke-linecap="round" stroke-linejoin="round" stroke-width="0.5"/>
  </g>
</svg>
