<?xml version="1.0" encoding="UTF-8" standalone="no"?>
<svg xmlns:xlink="http://www.w3.org/1999/xlink" height="24.25px" width="26.5px" xmlns="http://www.w3.org/2000/svg">
  <g transform="matrix(1.0, 0.0, 0.0, 1.0, 10.9, 12.35)">
    <path d="M2.65 -10.1 L5.75 -6.95 6.7 -7.35 Q7.65 -7.6 8.15 -7.1 8.65 -6.6 8.4 -5.65 L8.05 -4.75 11.1 -5.75 14.85 -2.05 6.35 6.5 3.3 3.45 3.75 1.3 3.7 1.3 -0.85 5.35 -1.25 4.95 -7.4 11.15 -10.15 8.4 -4.0 2.2 -4.35 1.8 -0.25 -2.65 -1.8 -4.2 Q-0.25 -5.5 -0.65 -7.75 -1.95 -10.2 -6.1 -8.6 L-5.85 -8.8 Q-2.0 -13.6 2.65 -10.1" fill="#ffffcc" fill-rule="evenodd" stroke="none"/>
    <path d="M2.65 -10.1 Q-2.0 -13.6 -5.85 -8.8 L-6.1 -8.6 Q-1.95 -10.2 -0.65 -7.75 -0.25 -5.5 -1.8 -4.2 L-0.25 -2.65 -4.35 1.8 -4.0 2.2 -10.15 8.4 -7.4 11.15 -1.25 4.95 -0.85 5.35 3.7 1.3 3.75 1.3 3.3 3.45 6.35 6.5 14.85 -2.05 11.1 -5.75 8.05 -4.75 8.4 -5.65 Q8.65 -6.6 8.15 -7.1 7.65 -7.6 6.7 -7.35 L5.75 -6.95 2.65 -10.1 Z" fill="none" stroke="#f95239" stroke-linecap="round" stroke-linejoin="round" stroke-width="1.5"/>
  </g>
</svg>
