<?xml version="1.0" encoding="UTF-8" standalone="no"?>
<svg xmlns:xlink="http://www.w3.org/1999/xlink" height="34.75px" width="35.6px" xmlns="http://www.w3.org/2000/svg">
  <g transform="matrix(1.0, 0.0, 0.0, 1.0, 17.0, 18.15)">
    <path d="M0.55 -13.5 L3.05 -11.45 6.7 -14.2 Q7.6 -15.1 7.2 -16.25 L7.2 -16.35 Q5.9 -18.6 3.2 -17.1 0.45 -18.6 -0.85 -16.25 -1.2 -15.1 -0.35 -14.2 L0.55 -13.5 M7.7 -16.25 Q7.95 -14.95 7.05 -13.95 L3.3 -10.55 -0.7 -13.95 Q-1.75 -14.85 -1.2 -16.25 -0.05 -18.95 3.2 -17.65 6.45 -19.1 7.7 -16.25 M3.9 -4.1 Q4.6 -5.7 6.7 -4.95 8.45 -5.85 9.3 -4.0 9.55 -3.2 9.0 -2.7 L6.7 -0.55 4.25 -2.65 Q3.7 -3.2 3.9 -4.1 M9.0 -4.1 Q8.3 -5.5 6.7 -4.55 4.95 -5.5 4.15 -4.0 3.9 -3.3 4.45 -2.7 L5.05 -2.4 6.55 -1.1 8.75 -2.7 Q9.3 -3.3 9.0 -4.1 M14.9 -6.6 L16.2 -5.6 18.05 -7.0 Q18.5 -7.45 18.3 -8.0 L18.3 -8.05 Q17.65 -9.2 16.25 -8.45 14.85 -9.2 14.2 -8.0 14.0 -7.45 14.45 -7.0 L14.9 -6.6 M18.25 -6.85 L16.3 -5.15 14.3 -6.85 Q13.75 -7.3 14.0 -8.0 14.6 -9.4 16.25 -8.7 17.9 -9.45 18.55 -8.0 18.7 -7.35 18.25 -6.85 M-14.95 -8.15 L-12.45 -6.1 -8.75 -8.9 Q-7.9 -9.85 -8.3 -11.15 -9.5 -13.4 -12.3 -11.9 -15.2 -13.4 -16.4 -11.0 -16.8 -9.85 -15.95 -8.9 L-14.95 -8.15 M-16.2 -8.65 Q-17.3 -9.6 -16.85 -11.15 -15.55 -13.8 -12.3 -12.4 -9.05 -14.0 -7.75 -10.95 -7.4 -9.65 -8.35 -8.75 L-12.25 -5.15 -16.2 -8.65 M-12.15 9.6 L-6.6 14.2 1.65 7.9 Q3.5 5.8 2.65 2.9 -0.05 -2.2 -6.35 1.25 -12.7 -2.2 -15.4 3.2 -16.3 5.8 -14.45 7.9 L-12.15 9.6 M-16.4 2.9 Q-13.55 -3.05 -6.35 0.1 0.95 -3.45 3.95 3.35 4.65 6.2 2.5 8.2 L-6.2 16.3 -15.0 8.45 Q-17.4 6.35 -16.4 2.9 M7.7 12.8 L10.85 15.4 15.6 11.75 Q16.65 10.55 16.2 8.95 14.6 6.05 11.05 7.95 7.35 6.05 5.8 9.1 5.3 10.55 6.35 11.75 L7.7 12.8 M16.9 9.15 Q17.3 10.8 16.05 11.95 L11.1 16.6 6.05 12.15 Q4.65 10.9 5.2 8.95 6.9 5.5 11.05 7.3 15.15 5.25 16.9 9.15" fill="#ff4645" fill-rule="evenodd" stroke="none"/>
    <path d="M0.55 -13.5 Q2.05 -13.5 3.55 -14.7 5.3 -16.1 7.2 -16.35 L7.2 -16.25 Q7.6 -15.1 6.7 -14.2 L3.05 -11.45 0.55 -13.5 M9.0 -4.1 Q9.3 -3.3 8.75 -2.7 L6.55 -1.1 5.05 -2.4 Q6.0 -2.4 6.75 -3.2 7.9 -3.85 9.0 -4.1 M14.9 -6.6 Q15.7 -6.6 16.45 -7.25 17.35 -7.95 18.3 -8.05 L18.3 -8.0 Q18.5 -7.45 18.05 -7.0 L16.2 -5.6 14.9 -6.6 M-14.95 -8.15 Q-13.55 -8.25 -11.95 -9.45 -10.15 -10.85 -8.3 -11.15 -7.9 -9.85 -8.75 -8.9 L-12.45 -6.1 -14.95 -8.15 M-12.15 9.6 Q-9.0 9.35 -5.45 6.6 -1.5 3.5 2.65 2.9 3.5 5.8 1.65 7.9 L-6.6 14.2 -12.15 9.6 M7.7 12.8 Q9.5 12.6 11.55 11.05 13.75 9.3 16.2 8.95 16.65 10.55 15.6 11.75 L10.85 15.4 7.7 12.8" fill="#e00000" fill-rule="evenodd" stroke="none"/>
    <path d="M7.2 -16.35 Q5.3 -16.1 3.55 -14.7 2.05 -13.5 0.55 -13.5 L-0.35 -14.2 Q-1.2 -15.1 -0.85 -16.25 0.45 -18.6 3.2 -17.1 5.9 -18.6 7.2 -16.35" fill="url(#gradient0)" fill-rule="evenodd" stroke="none"/>
    <path d="M5.05 -2.4 L4.45 -2.7 Q3.9 -3.3 4.15 -4.0 4.95 -5.5 6.7 -4.55 8.3 -5.5 9.0 -4.1 7.9 -3.85 6.75 -3.2 6.0 -2.4 5.05 -2.4" fill="url(#gradient1)" fill-rule="evenodd" stroke="none"/>
    <path d="M18.3 -8.05 Q17.35 -7.95 16.45 -7.25 15.7 -6.6 14.9 -6.6 L14.45 -7.0 Q14.0 -7.45 14.2 -8.0 14.85 -9.2 16.25 -8.45 17.65 -9.2 18.3 -8.05" fill="url(#gradient2)" fill-rule="evenodd" stroke="none"/>
    <path d="M16.2 8.95 Q13.75 9.3 11.55 11.05 9.5 12.6 7.7 12.8 L6.35 11.75 Q5.3 10.55 5.8 9.1 7.35 6.05 11.05 7.95 14.6 6.05 16.2 8.95" fill="url(#gradient3)" fill-rule="evenodd" stroke="none"/>
    <path d="M-8.3 -11.15 Q-10.15 -10.85 -11.95 -9.45 -13.55 -8.25 -14.95 -8.15 L-15.95 -8.9 Q-16.8 -9.85 -16.4 -11.0 -15.2 -13.4 -12.3 -11.9 -9.5 -13.4 -8.3 -11.15" fill="url(#gradient4)" fill-rule="evenodd" stroke="none"/>
    <path d="M2.65 2.9 Q-1.5 3.5 -5.45 6.6 -9.0 9.35 -12.15 9.6 L-14.45 7.9 Q-16.3 5.8 -15.4 3.2 -12.7 -2.2 -6.35 1.25 -0.05 -2.2 2.65 2.9" fill="url(#gradient5)" fill-rule="evenodd" stroke="none"/>
  </g>
  <defs>
    <linearGradient gradientTransform="matrix(-4.0E-4, -0.0028, 0.0027, -3.0E-4, 3.2, -16.1)" gradientUnits="userSpaceOnUse" id="gradient0" spreadMethod="pad" x1="-819.2" x2="819.2">
      <stop offset="0.0" stop-color="#e00000"/>
      <stop offset="1.0" stop-color="#ffbfbf"/>
    </linearGradient>
    <linearGradient gradientTransform="matrix(-2.0E-4, -0.0017, 0.0016, -2.0E-4, 6.7, -3.85)" gradientUnits="userSpaceOnUse" id="gradient1" spreadMethod="pad" x1="-819.2" x2="819.2">
      <stop offset="0.0" stop-color="#e00000"/>
      <stop offset="1.0" stop-color="#ffbfbf"/>
    </linearGradient>
    <linearGradient gradientTransform="matrix(-2.0E-4, -0.0014, 0.0013, -2.0E-4, 16.25, -7.95)" gradientUnits="userSpaceOnUse" id="gradient2" spreadMethod="pad" x1="-819.2" x2="819.2">
      <stop offset="0.0" stop-color="#e00000"/>
      <stop offset="1.0" stop-color="#ffbfbf"/>
    </linearGradient>
    <linearGradient gradientTransform="matrix(-4.0E-4, -0.0036, 0.0034, -4.0E-4, 11.05, 9.3)" gradientUnits="userSpaceOnUse" id="gradient3" spreadMethod="pad" x1="-819.2" x2="819.2">
      <stop offset="0.0" stop-color="#e00000"/>
      <stop offset="1.0" stop-color="#ffbfbf"/>
    </linearGradient>
    <linearGradient gradientTransform="matrix(-4.0E-4, -0.0028, 0.0027, -3.0E-4, -12.3, -10.85)" gradientUnits="userSpaceOnUse" id="gradient4" spreadMethod="pad" x1="-819.2" x2="819.2">
      <stop offset="0.0" stop-color="#e00000"/>
      <stop offset="1.0" stop-color="#ffbfbf"/>
    </linearGradient>
    <linearGradient gradientTransform="matrix(-8.0E-4, -0.0063, 0.006, -7.0E-4, -6.35, 3.5)" gradientUnits="userSpaceOnUse" id="gradient5" spreadMethod="pad" x1="-819.2" x2="819.2">
      <stop offset="0.0" stop-color="#e00000"/>
      <stop offset="1.0" stop-color="#ffbfbf"/>
    </linearGradient>
  </defs>
</svg>
