<?xml version="1.0" encoding="UTF-8" standalone="no"?>
<svg xmlns:xlink="http://www.w3.org/1999/xlink" height="27.0px" width="27.0px" xmlns="http://www.w3.org/2000/svg">
  <g transform="matrix(1.0, 0.0, 0.0, 1.0, 13.5, 13.5)">
    <path d="M12.5 -12.5 L12.5 12.5 -12.5 12.5 -12.5 -12.5 12.5 -12.5" fill="#ffffff" fill-rule="evenodd" stroke="none"/>
    <path d="M12.5 -12.5 L12.5 12.5 -12.5 12.5 -12.5 -12.5 12.5 -12.5 Z" fill="none" stroke="#ff6600" stroke-linecap="butt" stroke-linejoin="miter-clip" stroke-miterlimit="3.0" stroke-width="2.0"/>
    <path d="M2.35 -7.7 L2.55 -7.85 2.9 -7.9 3.5 -7.95 4.1 -7.9 4.5 -7.85 4.7 -7.7 4.75 -7.5 4.75 0.1 7.3 -3.35 7.5 -3.55 7.75 -3.7 8.15 -3.75 8.75 -3.8 9.4 -3.75 9.8 -3.7 10.0 -3.55 10.05 -3.4 10.0 -3.05 9.75 -2.7 7.2 0.15 10.15 4.75 10.35 5.05 10.4 5.35 10.35 5.5 10.15 5.6 9.75 5.7 9.1 5.7 8.45 5.7 8.05 5.65 7.8 5.5 7.65 5.3 4.75 0.7 4.75 5.3 4.7 5.5 4.5 5.6 4.1 5.7 3.5 5.7 2.9 5.7 2.55 5.6 2.35 5.5 2.3 5.3 2.3 -7.5 2.35 -7.7 M0.05 2.9 Q-0.25 3.8 -0.85 4.5 L-2.35 5.5 -4.45 5.85 -6.45 5.55 Q-7.3 5.25 -7.9 4.6 L-8.7 3.1 -9.0 1.05 -8.7 -1.0 -7.8 -2.55 Q-7.2 -3.25 -6.3 -3.6 L-4.2 -3.95 -2.2 -3.65 -0.75 -2.7 Q-0.2 -2.1 0.05 -1.2 L0.35 0.85 0.05 2.9 M-5.95 -1.2 L-6.35 -0.3 -6.45 0.95 -6.35 2.15 -6.0 3.05 -5.35 3.7 -4.35 3.9 -3.4 3.7 -2.7 3.15 -2.3 2.2 -2.2 0.95 -2.3 -0.2 Q-2.4 -0.75 -2.65 -1.15 L-3.3 -1.8 -4.3 -2.0 -5.25 -1.8 -5.95 -1.2" fill="#f16000" fill-rule="evenodd" stroke="none"/>
  </g>
</svg>
