<?xml version="1.0" encoding="UTF-8" standalone="no"?>
<svg xmlns:xlink="http://www.w3.org/1999/xlink" height="32.65px" width="37.35px" xmlns="http://www.w3.org/2000/svg">
  <g transform="matrix(1.0, 0.0, 0.0, 1.0, 18.05, 14.15)">
    <path d="M5.0 -12.55 Q2.4 -12.1 -0.7 -10.45 -11.25 -16.2 -15.7 -7.25 -17.15 -2.7 -14.0 0.7 L-10.55 3.4 -4.9 7.85 -5.1 10.6 -15.35 1.5 Q-19.25 -1.9 -17.5 -7.4 -13.0 -17.45 -0.7 -12.4 2.4 -13.8 5.0 -14.15 L5.0 -12.55 M7.6 -8.7 L7.6 -10.35 Q15.3 -11.35 19.0 -3.05 20.15 1.5 16.65 5.2 L2.05 18.5 -2.5 14.45 -2.3 11.7 1.7 14.9 15.3 4.55 Q18.45 1.1 17.0 -3.5 L16.85 -3.85 Q13.7 -9.75 7.6 -8.7" fill="#ff4645" fill-rule="evenodd" stroke="none"/>
    <path d="M-10.55 3.4 Q-7.55 3.3 -4.55 2.0 L-4.9 7.85 -10.55 3.4 M0.8 -1.45 L5.0 -4.3 5.0 2.75 0.8 -1.45 M16.85 -3.85 L17.0 -3.5 Q18.45 1.1 15.3 4.55 L1.7 14.9 -2.3 11.7 -1.9 5.8 Q0.6 4.65 3.2 2.6 L3.4 2.4 7.6 6.6 7.6 -0.45 Q12.2 -3.15 16.85 -3.85" fill="#e00000" fill-rule="evenodd" stroke="none"/>
    <path d="M7.6 -8.7 Q13.7 -9.75 16.85 -3.85 12.2 -3.15 7.6 -0.45 L7.6 -8.7" fill="url(#gradient0)" fill-rule="evenodd" stroke="none"/>
    <path d="M-10.55 3.4 L-14.0 0.7 Q-17.15 -2.7 -15.7 -7.25 -11.25 -16.2 -0.7 -10.45 2.4 -12.1 5.0 -12.55 L5.0 -4.3 0.8 -1.45 0.6 -1.25 Q-2.0 0.8 -4.55 2.0 -7.55 3.3 -10.55 3.4" fill="url(#gradient1)" fill-rule="evenodd" stroke="none"/>
  </g>
  <defs>
    <linearGradient gradientTransform="matrix(-0.0014, -0.0105, 0.01, -0.0012, 1.9, -2.6)" gradientUnits="userSpaceOnUse" id="gradient0" spreadMethod="pad" x1="-819.2" x2="819.2">
      <stop offset="0.0" stop-color="#e00000"/>
      <stop offset="1.0" stop-color="#ffbfbf"/>
    </linearGradient>
    <linearGradient gradientTransform="matrix(-0.0014, -0.0105, 0.01, -0.0012, -0.7, -6.45)" gradientUnits="userSpaceOnUse" id="gradient1" spreadMethod="pad" x1="-819.2" x2="819.2">
      <stop offset="0.0" stop-color="#e00000"/>
      <stop offset="1.0" stop-color="#ffbfbf"/>
    </linearGradient>
  </defs>
</svg>
