<?xml version="1.0" encoding="UTF-8" standalone="no"?>
<svg xmlns:xlink="http://www.w3.org/1999/xlink" height="19.95px" width="20.0px" xmlns="http://www.w3.org/2000/svg">
  <g transform="matrix(1.0, 0.0, 0.0, 1.0, 10.1, 10.0)">
    <path d="M-2.15 -1.55 L-2.15 -6.05 8.9 -9.0 8.9 -4.35 -2.15 -1.55 M8.55 5.15 L8.55 5.25 Q8.75 6.2 7.9 7.1 7.2 7.95 5.85 8.15 4.55 8.45 3.5 7.85 2.45 7.4 2.3 6.4 2.15 5.5 2.9 4.6 3.7 3.8 4.95 3.55 L7.3 3.75 Q8.35 4.25 8.55 5.15 M-2.4 5.85 L-2.4 5.95 Q-2.3 6.85 -3.05 7.75 -3.9 8.6 -5.25 8.9 -6.65 9.15 -7.8 8.55 -8.85 8.1 -9.05 7.15 -9.25 6.2 -8.4 5.3 -7.55 4.5 -6.15 4.25 L-3.75 4.45 Q-2.6 4.95 -2.4 5.85" fill="#ffff00" fill-rule="evenodd" stroke="none"/>
    <path d="M-2.15 -1.55 L-2.15 -6.05 8.9 -9.0 8.9 -4.35 8.55 5.15 8.55 5.25 Q8.75 6.2 7.9 7.1 7.2 7.95 5.85 8.15 4.55 8.45 3.5 7.85 2.45 7.4 2.3 6.4 2.15 5.5 2.9 4.6 3.7 3.8 4.95 3.55 L7.3 3.75 Q8.35 4.25 8.55 5.15 M-2.4 5.85 L-2.4 5.95 Q-2.3 6.85 -3.05 7.75 -3.9 8.6 -5.25 8.9 -6.65 9.15 -7.8 8.55 -8.85 8.1 -9.05 7.15 -9.25 6.2 -8.4 5.3 -7.55 4.5 -6.15 4.25 L-3.75 4.45 Q-2.6 4.95 -2.4 5.85 L-2.15 -1.55 8.9 -4.35" fill="none" stroke="#f95239" stroke-linecap="round" stroke-linejoin="round" stroke-width="2.0"/>
  </g>
</svg>
