<?xml version="1.0" encoding="UTF-8" standalone="no"?>
<svg xmlns:xlink="http://www.w3.org/1999/xlink" height="31.5px" width="31.55px" xmlns="http://www.w3.org/2000/svg">
  <g transform="matrix(1.0, 0.0, 0.0, 1.0, 18.5, 15.75)">
    <path d="M-5.75 -0.7 Q-11.85 -1.2 -14.95 -2.8 -11.85 -1.2 -5.75 -0.7 M-18.0 -7.4 L-9.9 -6.75 -4.0 -6.1 Q-7.75 -8.55 -9.9 -10.45 -11.9 -11.75 -12.55 -15.25 5.1 -12.75 12.25 -5.95 13.25 1.15 10.9 9.5 L11.3 14.8 Q10.15 15.7 9.0 14.8 L2.5 8.55 Q-9.35 8.7 -10.5 2.6 -15.0 0.7 -14.95 -2.8 -18.0 -4.5 -18.0 -7.4 M10.9 9.5 L10.1 -2.05 Q6.2 -4.65 -4.0 -6.1 6.2 -4.65 10.1 -2.05 L10.9 9.5 M-5.15 4.05 L-10.5 2.6 -5.15 4.05" fill="url(#gradient0)" fill-rule="evenodd" stroke="none"/>
    <path d="M-14.95 -2.8 Q-11.85 -1.2 -5.75 -0.7 M-18.0 -7.4 L-9.9 -6.75 -4.0 -6.1 Q-7.75 -8.55 -9.9 -10.45 -11.9 -11.75 -12.55 -15.25 5.1 -12.75 12.25 -5.95 13.25 1.15 10.9 9.5 L11.3 14.8 Q10.15 15.7 9.0 14.8 L2.5 8.55 Q-9.35 8.7 -10.5 2.6 -15.0 0.7 -14.95 -2.8 -18.0 -4.5 -18.0 -7.4 M-10.5 2.6 L-5.15 4.05 M-4.0 -6.1 Q6.2 -4.65 10.1 -2.05 L10.9 9.5" fill="none" stroke="#000000" stroke-linecap="round" stroke-linejoin="round" stroke-width="1.0"/>
  </g>
  <defs>
    <linearGradient gradientTransform="matrix(0.0, 0.0081, -0.0138, 0.0, -3.2, 2.35)" gradientUnits="userSpaceOnUse" id="gradient0" spreadMethod="pad" x1="-819.2" x2="819.2">
      <stop offset="0.0" stop-color="#ffcccc"/>
      <stop offset="1.0" stop-color="#ffffff"/>
    </linearGradient>
  </defs>
</svg>
