<?xml version="1.0" encoding="UTF-8" standalone="no"?>
<svg xmlns:xlink="http://www.w3.org/1999/xlink" height="29.75px" width="25.0px" xmlns="http://www.w3.org/2000/svg">
  <g transform="matrix(1.0, 0.0, 0.0, 1.0, 12.5, 17.2)">
    <path d="M-6.1 -1.55 Q-6.6 0.6 -5.7 2.6 -4.8 4.6 -2.85 5.55 -0.8 6.55 1.35 6.05 3.45 5.6 4.85 3.85 6.25 2.15 6.25 0.0 L12.5 0.0 Q12.5 4.35 9.65 7.8 6.9 11.25 2.6 12.25 -1.6 13.15 -5.6 11.15 -9.55 9.2 -11.35 5.15 -13.2 1.15 -12.1 -3.1 -11.0 -7.35 -7.45 -10.05 -4.25 -12.35 -0.55 -12.5 L-0.55 -17.2 7.4 -9.25 -0.55 -1.2 -0.55 -6.2 Q-2.25 -6.1 -3.75 -5.05 -5.5 -3.7 -6.1 -1.55" fill="#ffffff" fill-rule="evenodd" stroke="none"/>
  </g>
</svg>
