<?xml version="1.0" encoding="UTF-8" standalone="no"?>
<svg xmlns:xlink="http://www.w3.org/1999/xlink" height="22.55px" width="32.7px" xmlns="http://www.w3.org/2000/svg">
  <g transform="matrix(1.0, 0.0, 0.0, 1.0, 16.75, 16.7)">
    <path d="M12.4 -12.7 L12.8 -12.7 15.2 1.6 Q10.7 1.15 6.2 1.6 3.05 2.0 0.9 3.1 0.55 1.75 0.3 1.75 2.45 0.35 12.4 0.2 11.95 -4.9 11.9 -9.0 11.85 -12.0 12.4 -12.7 M-15.9 3.95 Q-13.55 -4.4 -12.0 -12.9 L-10.6 -12.75 -14.3 3.0 Q-7.35 1.1 -2.45 1.85 -2.9 2.3 -2.95 3.0 -6.65 2.55 -10.55 3.15 L-15.9 3.95" fill="#7a0200" fill-rule="evenodd" stroke="none"/>
    <path d="M-10.6 -12.75 L-10.45 -13.45 -9.95 -13.45 -9.4 -13.5 -9.4 -14.55 Q-8.35 -14.1 -7.3 -14.1 L-6.35 -16.2 Q-5.7 -13.75 -2.6 -13.0 0.55 -12.2 0.95 -10.65 2.8 -13.0 5.55 -13.6 8.3 -14.2 9.25 -15.75 L9.1 -13.35 11.55 -14.65 11.1 -13.15 11.45 -13.2 12.4 -13.6 12.4 -12.7 Q11.85 -12.0 11.9 -9.0 11.95 -4.9 12.4 0.2 2.45 0.35 0.3 1.75 0.15 1.2 -0.8 0.95 1.95 0.2 5.35 0.1 10.0 0.0 11.45 -1.8 10.8 -7.25 11.45 -13.2 10.8 -7.25 11.45 -1.8 10.0 0.0 5.35 0.1 1.95 0.2 -0.8 0.95 0.45 -4.5 0.95 -10.65 0.45 -4.5 -0.8 0.95 0.15 -1.35 1.85 -2.4 L8.45 -4.1 Q8.2 -8.95 9.1 -13.35 8.2 -8.95 8.45 -4.1 L1.85 -2.4 Q0.15 -1.35 -0.8 0.95 1.5 -1.35 7.05 -1.55 9.15 -2.05 10.4 -3.85 9.7 -8.35 11.1 -13.15 9.7 -8.35 10.4 -3.85 9.15 -2.05 7.05 -1.55 1.5 -1.35 -0.8 0.95 -5.9 -5.05 -11.85 -0.05 -9.75 -6.3 -9.4 -13.5 -9.75 -6.3 -11.85 -0.05 -5.9 -5.05 -0.8 0.95 -0.7 -3.9 -8.15 -4.2 -8.2 -8.8 -7.3 -14.1 -8.2 -8.8 -8.15 -4.2 -0.7 -3.9 -0.8 0.95 L-5.4 0.25 Q-7.3 0.1 -12.9 1.5 -10.65 -7.9 -9.95 -13.45 -10.65 -7.9 -12.9 1.5 -7.3 0.1 -5.4 0.25 L-0.8 0.95 Q-2.3 1.15 -2.45 1.85 -7.35 1.1 -14.3 3.0 L-10.6 -12.75 M3.0 -5.05 L1.85 -4.65 Q2.5 -4.45 3.35 -4.65 L7.3 -5.2 7.2 -5.3 5.55 -5.35 3.0 -5.05 M7.0 -7.8 L6.35 -7.6 3.55 -7.2 1.6 -7.2 2.05 -6.9 2.25 -6.9 4.85 -6.85 Q6.95 -6.8 7.0 -7.8 M6.9 -9.75 L6.85 -9.85 3.75 -9.9 3.15 -9.8 2.85 -9.75 1.9 -9.5 1.9 -9.45 2.4 -9.25 2.1 -9.25 Q4.45 -8.85 6.8 -9.6 L6.5 -9.7 4.7 -9.5 6.9 -9.75 M-5.75 -7.65 Q-6.0 -7.35 -5.25 -7.05 L-3.3 -6.4 0.0 -5.75 -0.05 -5.8 -3.55 -6.8 -5.75 -7.65 M-0.75 -9.2 L-1.4 -9.5 0.0 -9.15 -0.05 -9.2 Q-2.8 -10.5 -5.7 -11.35 L-5.75 -11.35 -4.9 -10.85 -5.4 -11.05 -5.45 -11.05 Q-4.35 -10.0 -2.5 -9.6 -1.05 -9.3 -0.1 -8.35 -0.05 -8.7 -0.35 -8.9 L-0.75 -9.2 M-1.8 -7.45 L-0.55 -7.2 Q-3.0 -8.4 -5.85 -8.9 L-5.9 -8.9 -4.8 -8.45 -5.55 -8.7 -5.6 -8.6 Q-3.75 -7.6 -1.8 -7.45" fill="#e9eebc" fill-rule="evenodd" stroke="none"/>
    <path d="M6.9 -9.75 L4.7 -9.5 6.5 -9.7 6.8 -9.6 Q4.45 -8.85 2.1 -9.25 L2.4 -9.25 1.9 -9.45 1.9 -9.5 2.85 -9.75 3.15 -9.8 3.75 -9.9 6.85 -9.85 6.9 -9.75 M7.0 -7.8 Q6.95 -6.8 4.85 -6.85 L2.25 -6.9 2.05 -6.9 1.6 -7.2 3.55 -7.2 6.35 -7.6 7.0 -7.8 M3.0 -5.05 L5.55 -5.35 7.2 -5.3 7.3 -5.2 3.35 -4.65 Q2.5 -4.45 1.85 -4.65 L3.0 -5.05 M-1.8 -7.45 Q-3.75 -7.6 -5.6 -8.6 L-5.55 -8.7 -4.8 -8.45 -5.9 -8.9 -5.85 -8.9 Q-3.0 -8.4 -0.55 -7.2 L-1.8 -7.45 M-0.75 -9.2 L-0.35 -8.9 Q-0.05 -8.7 -0.1 -8.35 -1.05 -9.3 -2.5 -9.6 -4.35 -10.0 -5.45 -11.05 L-5.4 -11.05 -4.9 -10.85 -5.75 -11.35 -5.7 -11.35 Q-2.8 -10.5 -0.05 -9.2 L0.0 -9.15 -1.4 -9.5 -0.75 -9.2 M-5.75 -7.65 L-3.55 -6.8 -0.05 -5.8 0.0 -5.75 -3.3 -6.4 -5.25 -7.05 Q-6.0 -7.35 -5.75 -7.65" fill="#000000" fill-rule="evenodd" stroke="none"/>
    <path d="M1.2 4.4 Q0.65 5.3 -0.2 5.35 -1.75 5.45 -2.8 4.35 L-2.95 3.0 Q-2.9 2.3 -2.45 1.85 -2.3 1.15 -0.8 0.95 0.15 1.2 0.3 1.75 0.55 1.75 0.9 3.1 L1.2 4.4" fill="#330000" fill-rule="evenodd" stroke="none"/>
    <path d="M15.2 1.6 L15.45 3.05 Q8.45 2.4 5.8 2.85 3.2 3.3 1.2 4.4 L0.9 3.1 Q3.05 2.0 6.2 1.6 10.7 1.15 15.2 1.6 M-2.8 4.35 Q-10.85 3.75 -16.25 5.2 L-15.9 3.95 -10.55 3.15 Q-6.65 2.55 -2.95 3.0 L-2.8 4.35" fill="#590200" fill-rule="evenodd" stroke="none"/>
    <path d="M12.4 -12.7 L12.8 -12.7 15.2 1.6 15.45 3.05 Q8.45 2.4 5.8 2.85 3.2 3.3 1.2 4.4 0.65 5.3 -0.2 5.35 -1.75 5.45 -2.8 4.35 -10.85 3.75 -16.25 5.2 L-15.9 3.95 Q-13.55 -4.4 -12.0 -12.9 L-10.6 -12.75 -10.45 -13.45 -9.95 -13.45 -9.4 -13.5 -9.4 -14.55 Q-8.35 -14.1 -7.3 -14.1 L-6.35 -16.2 Q-5.7 -13.75 -2.6 -13.0 0.55 -12.2 0.95 -10.65 2.8 -13.0 5.55 -13.6 8.3 -14.2 9.25 -15.75 L9.1 -13.35 11.55 -14.65 11.1 -13.15 11.45 -13.2 12.4 -13.6 12.4 -12.7 Q11.85 -12.0 11.9 -9.0 11.95 -4.9 12.4 0.2 2.45 0.35 0.3 1.75 0.55 1.75 0.9 3.1 L1.2 4.4 M0.95 -10.65 Q0.45 -4.5 -0.8 0.95 0.15 -1.35 1.85 -2.4 L8.45 -4.1 Q8.2 -8.95 9.1 -13.35 M11.45 -13.2 Q10.8 -7.25 11.45 -1.8 10.0 0.0 5.35 0.1 1.95 0.2 -0.8 0.95 0.15 1.2 0.3 1.75 M-0.8 0.95 Q1.5 -1.35 7.05 -1.55 9.15 -2.05 10.4 -3.85 9.7 -8.35 11.1 -13.15 M-9.4 -13.5 Q-9.75 -6.3 -11.85 -0.05 -5.9 -5.05 -0.8 0.95 -0.7 -3.9 -8.15 -4.2 -8.2 -8.8 -7.3 -14.1 M-2.95 3.0 Q-2.9 2.3 -2.45 1.85 -7.35 1.1 -14.3 3.0 L-10.6 -12.75 M-2.8 4.35 L-2.95 3.0 M-0.8 0.95 L-5.4 0.25 Q-7.3 0.1 -12.9 1.5 -10.65 -7.9 -9.95 -13.45 M-2.45 1.85 Q-2.3 1.15 -0.8 0.95" fill="none" stroke="#000000" stroke-linecap="round" stroke-linejoin="round" stroke-width="1.0"/>
  </g>
</svg>
