<?xml version="1.0" encoding="UTF-8" standalone="no"?>
<svg xmlns:xlink="http://www.w3.org/1999/xlink" height="26.8px" width="19.7px" xmlns="http://www.w3.org/2000/svg">
  <g transform="matrix(1.0, 0.0, 0.0, 1.0, 10.5, 13.7)">
    <path d="M-3.15 9.4 L-3.55 9.3 -3.7 8.95 -3.7 8.6 -2.55 5.45 Q-3.2 4.75 -3.2 3.8 -3.2 2.85 -2.55 2.15 -2.0 1.6 -1.25 1.5 L-0.9 1.45 Q0.05 1.45 0.75 2.15 1.45 2.85 1.45 3.8 L1.25 4.8 0.8 5.35 2.45 8.55 2.5 8.9 2.35 9.3 2.25 9.35 1.9 9.4 -3.15 9.4" fill="#000000" fill-rule="evenodd" stroke="none"/>
    <path d="M-0.65 -10.1 Q-5.4 -9.7 -5.95 -0.9 -0.9 -1.75 4.75 -0.9 4.1 -10.55 -0.65 -10.1 M7.15 -0.65 L8.7 -0.65 8.7 12.6 Q-1.05 11.7 -10.0 12.5 L-10.0 -0.8 -8.35 -0.8 Q-7.95 -12.7 -0.6 -13.2 6.75 -13.7 7.15 -0.65 M-3.15 9.4 L1.9 9.4 2.25 9.35 2.35 9.3 2.5 8.9 2.45 8.55 0.8 5.35 1.25 4.8 1.45 3.8 Q1.45 2.85 0.75 2.15 0.05 1.45 -0.9 1.45 L-1.25 1.5 Q-2.0 1.6 -2.55 2.15 -3.2 2.85 -3.2 3.8 -3.2 4.75 -2.55 5.45 L-3.7 8.6 -3.7 8.95 -3.55 9.3 -3.15 9.4" fill="#999999" fill-rule="evenodd" stroke="none"/>
    <path d="M7.15 -0.65 Q6.75 -13.7 -0.6 -13.2 -7.95 -12.7 -8.35 -0.8 L-10.0 -0.8 -10.0 12.5 Q-1.05 11.7 8.7 12.6 L8.7 -0.65 7.15 -0.65 M-0.65 -10.1 Q4.1 -10.55 4.75 -0.9 -0.9 -1.75 -5.95 -0.9 -5.4 -9.7 -0.65 -10.1" fill="none" stroke="#333333" stroke-linecap="round" stroke-linejoin="round" stroke-width="1.0"/>
  </g>
</svg>
