<?xml version="1.0" encoding="UTF-8" standalone="no"?>
<svg xmlns:xlink="http://www.w3.org/1999/xlink" height="31.0px" width="121.0px" xmlns="http://www.w3.org/2000/svg">
  <g transform="matrix(1.0, 0.0, 0.0, 1.0, 36.45, 11.0)">
    <path d="M-18.95 1.95 L-18.9 1.95 Q-4.0 -0.3 18.7 0.35 L22.85 0.6 17.6 0.75 Q-1.15 -0.95 -16.85 3.1 L-17.05 3.15 Q-22.3 4.45 -27.2 6.45 L-28.0 6.35 Q-29.1 5.1 -28.25 3.75 -24.05 2.65 -18.95 1.95" fill="#c9aa7e" fill-rule="evenodd" stroke="none"/>
    <path d="M4.15 -8.85 L4.35 -8.6 4.4 -8.3 4.25 -8.05 Q2.7 -6.5 1.9 -5.0 8.7 -12.75 19.4 -10.45 L19.7 -10.25 19.8 -9.9 19.7 -9.6 Q16.75 -6.45 15.7 -3.8 18.6 -7.45 22.8 -10.05 L23.0 -10.15 Q30.95 -10.85 41.6 -6.55 L41.85 -6.3 41.9 -6.0 41.7 -5.7 41.25 -5.3 Q42.9 -6.0 44.4 -5.75 L44.45 -5.7 Q55.65 -1.9 69.0 6.35 L69.15 6.55 69.2 6.85 69.05 7.1 68.85 7.35 Q73.25 7.85 84.4 19.15 L84.55 19.5 84.45 19.8 84.15 20.0 83.8 19.95 Q65.6 9.4 55.05 10.95 L54.8 10.95 54.65 10.85 Q51.2 7.8 47.75 7.05 49.4 8.55 52.15 9.5 52.35 9.55 52.45 9.7 L52.5 10.05 52.3 10.35 51.95 10.45 Q41.4 9.3 31.3 10.35 L31.05 10.3 30.85 10.15 Q29.3 7.9 26.75 6.65 27.75 8.3 29.5 9.55 L29.7 9.8 29.7 10.1 29.5 10.35 29.2 10.45 Q23.75 10.35 18.35 11.65 L18.25 11.65 Q11.15 12.4 9.55 9.15 L9.6 9.15 7.8 5.95 Q7.9 7.1 8.5 8.2 L8.55 8.55 8.4 8.85 8.1 8.95 Q-4.75 9.35 -16.9 4.15 L-17.0 4.15 Q-22.15 5.45 -26.95 7.45 L-27.2 7.45 -28.3 7.3 -36.0 6.35 -36.3 6.2 -36.45 5.95 -36.35 5.6 -36.15 5.4 Q-32.9 4.0 -28.8 2.9 L-28.7 2.85 -28.55 2.85 Q-24.35 1.7 -19.2 1.0 -10.75 -7.1 3.85 -8.9 L4.15 -8.85 M0.9 -2.15 L0.65 -1.95 0.35 -1.95 0.1 -2.15 0.0 -2.5 Q0.25 -5.0 2.6 -7.7 -9.8 -5.9 -17.45 0.75 -2.9 -1.25 18.75 -0.65 33.7 0.0 47.9 2.6 L48.2 2.85 48.3 3.2 48.1 3.5 47.75 3.6 47.7 3.6 Q30.45 0.95 17.6 1.75 L17.5 1.75 Q-0.3 0.15 -15.35 3.75 -4.35 8.2 7.25 8.0 6.5 6.15 6.9 4.1 L7.05 3.85 7.35 3.7 7.65 3.75 7.85 3.95 10.45 8.65 10.45 8.7 Q11.95 11.3 18.15 10.65 L18.1 10.7 Q22.95 9.5 27.8 9.45 26.1 7.9 25.25 5.85 L25.25 5.5 Q25.3 5.3 25.5 5.2 L25.9 5.2 Q29.4 6.5 31.5 9.35 40.05 8.45 49.0 9.2 47.15 8.1 46.0 6.6 L45.9 6.25 46.1 5.9 46.45 5.8 Q50.8 6.2 55.1 9.95 64.95 8.55 81.15 17.3 70.2 6.65 67.6 8.55 L67.25 8.65 Q67.05 8.65 66.95 8.5 L66.8 8.15 66.95 7.8 67.9 6.85 Q55.05 -1.05 44.25 -4.75 41.75 -5.15 38.55 -2.4 L38.2 -2.3 Q38.0 -2.3 37.9 -2.4 L37.7 -2.7 37.8 -3.05 Q38.55 -4.4 40.45 -5.95 30.65 -9.75 23.25 -9.15 18.2 -5.95 15.05 -1.25 L14.75 -1.05 14.45 -1.05 14.2 -1.25 14.1 -1.55 Q14.3 -5.1 18.3 -9.6 7.4 -11.55 0.9 -2.15 M-18.95 1.95 Q-24.05 2.65 -28.25 3.75 -29.1 5.1 -28.0 6.35 L-27.2 6.45 Q-22.3 4.45 -17.05 3.15 L-16.85 3.1 Q-1.15 -0.95 17.6 0.75 L22.85 0.6 18.7 0.35 Q-4.0 -0.3 -18.9 1.95 L-18.95 1.95" fill="#000000" fill-rule="evenodd" stroke="none"/>
    <path d="M0.9 -2.15 Q7.4 -11.55 18.3 -9.6 14.3 -5.1 14.1 -1.55 L14.2 -1.25 14.45 -1.05 14.75 -1.05 15.05 -1.25 Q18.2 -5.95 23.25 -9.15 30.65 -9.75 40.45 -5.95 38.55 -4.4 37.8 -3.05 L37.7 -2.7 37.9 -2.4 Q38.0 -2.3 38.2 -2.3 L38.55 -2.4 Q41.75 -5.15 44.25 -4.75 55.05 -1.05 67.9 6.85 L66.95 7.8 66.8 8.15 66.95 8.5 Q67.05 8.65 67.25 8.65 L67.6 8.55 Q70.2 6.65 81.15 17.3 64.95 8.55 55.1 9.95 50.8 6.2 46.45 5.8 L46.1 5.9 45.9 6.25 46.0 6.6 Q47.15 8.1 49.0 9.2 40.05 8.45 31.5 9.35 29.4 6.5 25.9 5.2 L25.5 5.2 Q25.3 5.3 25.25 5.5 L25.25 5.85 Q26.1 7.9 27.8 9.45 22.95 9.5 18.1 10.7 L18.15 10.65 Q11.95 11.3 10.45 8.7 L10.45 8.65 7.85 3.95 7.65 3.75 7.35 3.7 7.05 3.85 6.9 4.1 Q6.5 6.15 7.25 8.0 -4.35 8.2 -15.35 3.75 -0.3 0.15 17.5 1.75 L17.6 1.75 Q30.45 0.95 47.7 3.6 L47.75 3.6 48.1 3.5 48.3 3.2 48.2 2.85 47.9 2.6 Q33.7 0.0 18.75 -0.65 -2.9 -1.25 -17.45 0.75 -9.8 -5.9 2.6 -7.7 0.25 -5.0 0.0 -2.5 L0.1 -2.15 0.35 -1.95 0.65 -1.95 0.9 -2.15" fill="url(#gradient0)" fill-rule="evenodd" stroke="none"/>
  </g>
  <defs>
    <radialGradient cx="0" cy="0" gradientTransform="matrix(-6.0E-4, 0.0134, -0.0729, -0.0078, 30.6, 3.15)" gradientUnits="userSpaceOnUse" id="gradient0" r="819.2" spreadMethod="pad">
      <stop offset="0.5372549019607843" stop-color="#ecf5fa"/>
      <stop offset="1.0" stop-color="#9ed6ef"/>
    </radialGradient>
  </defs>
</svg>
