<?xml version="1.0" encoding="UTF-8" standalone="no"?>
<svg xmlns:xlink="http://www.w3.org/1999/xlink" height="33.15px" width="34.05px" xmlns="http://www.w3.org/2000/svg">
  <g transform="matrix(1.0, 0.0, 0.0, 1.0, 16.2, 13.35)">
    <path d="M-8.3 -9.9 L-8.3 5.9 -8.3 7.95 -15.2 7.95 -15.2 -11.85 -8.3 -11.85 -8.3 -9.9" fill="#003399" fill-rule="evenodd" stroke="none"/>
    <path d="M-8.3 -9.9 L-1.85 -11.0 Q5.95 -12.9 11.45 -12.15 16.9 -11.4 15.75 -7.25 L9.85 -7.25 15.75 -7.25 Q17.55 -4.0 15.7 -2.5 L9.75 -2.5 15.7 -2.5 Q17.35 -0.1 16.4 2.25 17.65 5.15 15.45 7.55 L3.45 7.55 3.45 18.15 Q1.85 19.5 -0.8 18.15 L-1.4 16.1 Q-3.95 6.7 -8.3 5.9 L-8.3 -9.9 M10.5 2.25 L16.4 2.25 10.5 2.25" fill="url(#gradient0)" fill-rule="evenodd" stroke="none"/>
    <path d="M15.75 -7.25 Q16.9 -11.4 11.45 -12.15 5.95 -12.9 -1.85 -11.0 L-8.3 -9.9 -8.3 5.9 Q-3.95 6.7 -1.4 16.1 L-0.8 18.15 Q1.85 19.5 3.45 18.15 L3.45 7.55 15.45 7.55 Q17.65 5.15 16.4 2.25 L10.5 2.25 M15.75 -7.25 L9.85 -7.25 M15.7 -2.5 Q17.55 -4.0 15.75 -7.25 M9.75 -2.5 L15.7 -2.5 Q17.35 -0.1 16.4 2.25 M-8.3 5.9 L-8.3 7.95 -15.2 7.95 -15.2 -11.85 -8.3 -11.85 -8.3 -9.9" fill="none" stroke="#292721" stroke-linecap="round" stroke-linejoin="round" stroke-width="2.0"/>
  </g>
  <defs>
    <linearGradient gradientTransform="matrix(0.0, 0.0294, -0.0193, 0.0, 3.15, 4.7)" gradientUnits="userSpaceOnUse" id="gradient0" spreadMethod="pad" x1="-819.2" x2="819.2">
      <stop offset="0.37254901960784315" stop-color="#ffffff"/>
      <stop offset="1.0" stop-color="#8cd1ff"/>
    </linearGradient>
  </defs>
</svg>
