<?xml version="1.0" encoding="UTF-8" standalone="no"?>
<svg xmlns:xlink="http://www.w3.org/1999/xlink" height="32.6px" width="25.85px" xmlns="http://www.w3.org/2000/svg">
  <g transform="matrix(1.0, 0.0, 0.0, 1.0, 12.5, 16.0)">
    <path d="M0.55 -1.35 L0.65 -1.45 0.65 -1.7 0.65 -1.8 -1.35 -4.15 6.75 -7.45 4.55 -2.5 -0.95 -0.35 -1.1 -0.2 -1.15 0.0 Q-0.75 5.55 2.7 7.25 L1.85 13.9 Q-4.35 10.15 -6.5 6.4 L-9.2 -3.3 -6.15 -2.5 -5.8 0.8 -5.7 1.0 -5.55 1.05 -5.35 1.05 -5.15 1.0 -3.2 -1.95 0.3 -1.25 0.55 -1.35 M9.7 -11.75 L-3.4 -6.5 -5.65 -8.85 -5.8 -8.95 -6.0 -8.9 -6.15 -8.75 -6.2 -8.6 -6.2 -5.4 -9.4 -3.9 -10.45 -7.55 4.6 -14.1 9.7 -11.75" fill="#000000" fill-rule="evenodd" stroke="none"/>
    <path d="M4.45 -14.7 Q-3.25 -11.35 -10.95 -8.05 L-11.1 -7.9 -11.1 -7.65 -7.05 6.6 -7.05 6.65 Q-4.8 10.75 1.95 14.65 L2.15 14.75 2.35 14.6 2.45 14.45 3.35 7.1 3.35 6.9 3.2 6.75 Q-0.05 5.25 -0.45 0.15 L4.9 -2.05 5.0 -2.15 7.75 -7.9 7.75 -8.15 7.7 -8.35 7.45 -8.4 7.35 -8.4 -2.05 -4.55 -2.2 -4.4 -2.25 -4.25 -2.15 -4.05 -0.45 -2.1 -3.3 -2.65 -3.45 -2.6 -3.6 -2.5 -5.2 -0.15 -5.5 -2.85 -5.55 -3.0 -5.8 -3.15 -8.3 -3.8 -5.7 -4.9 -5.55 -4.95 -5.55 -5.2 -5.55 -7.8 -3.75 -5.9 Q-3.65 -5.8 -3.55 -5.8 L-3.4 -5.8 10.7 -11.5 10.9 -11.65 10.9 -11.9 10.7 -12.05 4.65 -14.7 4.6 -14.7 4.45 -14.7 M13.35 -11.85 L10.4 -10.65 6.05 -1.4 0.75 0.8 Q0.9 4.2 4.6 5.9 L3.0 16.6 Q-7.4 10.5 -8.65 5.25 L-12.5 -8.6 4.75 -16.0 13.35 -11.85" fill="#ffffff" fill-rule="evenodd" stroke="none"/>
    <path d="M4.45 -14.7 L4.6 -14.7 4.65 -14.7 10.7 -12.05 10.9 -11.9 10.9 -11.65 10.7 -11.5 -3.4 -5.8 -3.55 -5.8 Q-3.65 -5.8 -3.75 -5.9 L-5.55 -7.8 -5.55 -5.2 -5.55 -4.95 -5.7 -4.9 -8.3 -3.8 -5.8 -3.15 -5.55 -3.0 -5.5 -2.85 -5.2 -0.15 -3.6 -2.5 -3.45 -2.6 -3.3 -2.65 -0.45 -2.1 -2.15 -4.05 -2.25 -4.25 -2.2 -4.4 -2.05 -4.55 7.35 -8.4 7.45 -8.4 7.7 -8.35 7.75 -8.15 7.75 -7.9 5.0 -2.15 4.9 -2.05 -0.45 0.15 Q-0.05 5.25 3.2 6.75 L3.35 6.9 3.35 7.1 2.45 14.45 2.35 14.6 2.15 14.75 1.95 14.65 Q-4.8 10.75 -7.05 6.65 L-7.05 6.6 -11.1 -7.65 -11.1 -7.9 -10.95 -8.05 Q-3.25 -11.35 4.45 -14.7 M0.55 -1.35 L0.3 -1.25 -3.2 -1.95 -5.15 1.0 -5.35 1.05 -5.55 1.05 -5.7 1.0 -5.8 0.8 -6.15 -2.5 -9.2 -3.3 -6.5 6.4 Q-4.35 10.15 1.85 13.9 L2.7 7.25 Q-0.75 5.55 -1.15 0.0 L-1.1 -0.2 -0.95 -0.35 4.55 -2.5 6.75 -7.45 -1.35 -4.15 0.65 -1.8 0.65 -1.7 0.65 -1.45 0.55 -1.35 M9.7 -11.75 L4.6 -14.1 -10.45 -7.55 -9.4 -3.9 -6.2 -5.4 -6.2 -8.6 -6.15 -8.75 -6.0 -8.9 -5.8 -8.95 -5.65 -8.85 -3.4 -6.5 9.7 -11.75" fill="#990000" fill-rule="evenodd" stroke="none"/>
  </g>
</svg>
