<?xml version="1.0" encoding="UTF-8" standalone="no"?>
<svg xmlns:xlink="http://www.w3.org/1999/xlink" height="15.55px" width="13.55px" xmlns="http://www.w3.org/2000/svg">
  <g transform="matrix(1.0, 0.0, 0.0, 1.0, 0.1, 0.0)">
    <path d="M12.35 6.85 L12.1 7.8 Q10.5 12.8 7.65 15.45 L7.5 15.55 6.6 15.55 6.6 6.85 12.35 6.85 M0.95 6.85 L0.85 6.4 0.9 6.45 Q0.2 3.75 -0.05 0.55 L-0.1 0.0 6.6 0.0 6.6 6.85 0.95 6.85" fill="#ffffff" fill-rule="evenodd" stroke="none"/>
    <path d="M12.35 6.85 L6.6 6.85 6.6 15.55 5.75 15.55 5.65 15.45 Q2.75 12.8 1.25 7.8 L1.25 7.9 0.95 6.85 6.6 6.85 6.6 0.0 13.45 0.0 13.4 0.55 12.5 6.45 12.35 6.85" fill="#990000" fill-rule="evenodd" stroke="none"/>
  </g>
</svg>
