<?xml version="1.0" encoding="UTF-8" standalone="no"?>
<svg xmlns:xlink="http://www.w3.org/1999/xlink" height="28.5px" width="33.0px" xmlns="http://www.w3.org/2000/svg">
  <g transform="matrix(1.0, 0.0, 0.0, 1.0, 16.5, 14.0)">
    <path d="M-9.35 -4.1 Q-9.85 -4.9 -9.0 -6.7 L-7.25 -9.45 Q-4.3 -13.0 -0.05 -13.0 4.15 -13.0 7.15 -9.45 L8.1 -8.1 8.6 -7.25 Q9.65 -5.25 9.65 -4.1 L-0.05 -4.1 -9.35 -4.1" fill="#000000" fill-rule="evenodd" stroke="none"/>
    <path d="M9.65 -4.1 L10.1 -0.8 Q10.1 4.25 7.15 7.8 4.15 11.4 -0.05 11.4 -4.3 11.4 -7.25 7.8 -10.2 4.3 -10.25 -0.6 L-10.25 -0.8 Q-10.25 -1.85 -9.35 -4.1 L-0.05 -4.1 9.65 -4.1 M-0.05 11.4 L-0.05 -4.1 -0.05 11.4" fill="#ffffff" fill-rule="evenodd" stroke="none"/>
    <path d="M-9.35 -4.1 Q-9.85 -4.9 -9.0 -6.7 L-7.25 -9.45 Q-4.3 -13.0 -0.05 -13.0 4.15 -13.0 7.15 -9.45 L8.1 -8.1 8.6 -7.25 Q9.65 -5.25 9.65 -4.1 L10.1 -0.8 Q10.1 4.25 7.15 7.8 4.15 11.4 -0.05 11.4 -4.3 11.4 -7.25 7.8 -10.2 4.3 -10.25 -0.6 L-10.25 -0.8 Q-10.25 -1.85 -9.35 -4.1 L-0.05 -4.1 9.65 -4.1 M-0.05 -4.1 L-0.05 11.4" fill="none" stroke="#000000" stroke-linecap="round" stroke-linejoin="round" stroke-width="2.0"/>
    <path d="M11.45 -0.5 L15.0 -0.5 M8.6 -8.45 L12.85 -12.4 M9.75 13.0 L7.3 9.3 M-9.0 -8.15 L-11.9 -12.4 M-15.0 -0.5 L-11.45 -0.5 M-11.25 12.85 L-7.8 9.3" fill="none" stroke="#000000" stroke-linecap="round" stroke-linejoin="round" stroke-width="3.0"/>
  </g>
</svg>
