<?xml version="1.0" encoding="UTF-8" standalone="no"?>
<svg xmlns:xlink="http://www.w3.org/1999/xlink" height="10.35px" width="11.05px" xmlns="http://www.w3.org/2000/svg">
  <g transform="matrix(1.0, 0.0, 0.0, 1.0, 5.5, 5.15)">
    <path d="M1.15 -0.3 L1.15 -0.25 Q1.95 2.65 2.5 2.65 2.7 2.65 2.95 2.45 L3.55 1.75 4.0 2.15 Q3.15 3.45 2.3 4.2 1.5 4.95 0.85 4.95 0.3 4.95 -0.1 4.3 L-0.95 1.2 Q-2.2 3.55 -2.9 4.35 -3.65 5.2 -4.4 5.2 -4.9 5.2 -5.2 4.85 L-5.5 3.8 -5.5 3.35 -5.0 3.4 -4.7 3.4 Q-3.75 3.4 -2.95 2.75 -2.1 2.1 -1.15 0.4 L-1.85 -1.95 Q-2.1 -2.6 -2.4 -2.6 L-2.85 -2.35 -3.4 -1.7 -3.85 -2.1 -2.1 -4.3 -0.75 -5.15 Q0.15 -5.15 0.8 -1.95 L0.95 -1.15 3.25 -4.45 4.5 -5.15 Q4.95 -5.15 5.25 -4.75 L5.55 -3.75 5.55 -3.55 5.55 -3.3 5.25 -3.35 5.1 -3.35 Q3.95 -3.35 3.0 -2.6 2.05 -1.9 1.15 -0.3" fill="#ffffff" fill-rule="evenodd" stroke="none"/>
  </g>
</svg>
