<?xml version="1.0" encoding="UTF-8" standalone="no"?>
<svg xmlns:xlink="http://www.w3.org/1999/xlink" height="24.0px" width="35.95px" xmlns="http://www.w3.org/2000/svg">
  <g transform="matrix(1.0, 0.0, 0.0, 1.0, 17.95, 12.0)">
    <path d="M-9.95 -4.8 L-3.65 2.05 3.75 2.05 8.05 -2.6 8.05 -2.65 10.05 -4.8 14.85 -10.05 -14.8 -10.05 -9.95 -4.8 M17.75 -11.7 L17.95 -11.4 18.0 -11.05 18.0 11.05 17.75 11.75 17.2 12.0 -17.0 12.0 -17.65 11.75 -17.95 11.05 -17.95 -11.05 -17.9 -11.4 -17.65 -11.7 -17.55 -11.8 -17.15 -11.95 -17.0 -12.0 17.05 -12.0 17.2 -11.95 17.65 -11.8 17.7 -11.7 17.75 -11.7 M16.1 -4.8 L16.1 -8.55 12.65 -4.8 9.95 -1.85 16.1 7.8 16.1 -4.8 M4.55 3.9 L4.15 4.0 -4.1 4.0 -4.45 3.9 -4.8 3.7 -8.05 0.15 -15.5 10.1 15.3 10.1 8.6 -0.4 4.85 3.65 4.55 3.9 M-12.6 -4.8 L-16.05 -8.55 -16.05 -4.8 -16.05 7.55 -9.4 -1.3 -12.6 -4.8" fill="#000000" fill-rule="evenodd" stroke="none"/>
    <path d="M10.05 -4.8 L8.05 -2.65 8.05 -2.6 3.75 2.05 -3.65 2.05 -9.95 -4.8 10.05 -4.8 M12.65 -4.8 L16.1 -4.8 16.1 7.8 9.95 -1.85 12.65 -4.8 M4.55 3.9 L4.85 3.65 8.6 -0.4 15.3 10.1 -15.5 10.1 -8.05 0.15 -4.8 3.7 -4.45 3.9 -4.1 4.0 4.15 4.0 4.55 3.9 M-16.05 -4.8 L-12.6 -4.8 -9.4 -1.3 -16.05 7.55 -16.05 -4.8" fill="#ffcf3e" fill-rule="evenodd" stroke="none"/>
    <path d="M-9.95 -4.8 L-14.8 -10.05 14.85 -10.05 10.05 -4.8 -9.95 -4.8 M16.1 -4.8 L12.65 -4.8 16.1 -8.55 16.1 -4.8 M-12.6 -4.8 L-16.05 -4.8 -16.05 -8.55 -12.6 -4.8" fill="#ffe680" fill-rule="evenodd" stroke="none"/>
  </g>
</svg>
