<?xml version="1.0" encoding="UTF-8" standalone="no"?>
<svg xmlns:xlink="http://www.w3.org/1999/xlink" height="31.0px" width="24.0px" xmlns="http://www.w3.org/2000/svg">
  <g transform="matrix(1.0, 0.0, 0.0, 1.0, 12.0, 15.5)">
    <path d="M-9.6 -10.2 L9.65 -10.2 4.3 6.35 -4.3 6.35 -9.6 -10.2" fill="#ffcf3e" fill-rule="evenodd" stroke="none"/>
    <path d="M-9.6 -10.2 L-11.0 -14.5 11.0 -14.5 9.65 -10.2 -9.6 -10.2" fill="#ffe680" fill-rule="evenodd" stroke="none"/>
    <path d="M4.6 10.0 L4.6 14.5 -4.15 14.5 -4.15 10.0 4.6 10.0" fill="#ffca28" fill-rule="evenodd" stroke="none"/>
    <path d="M9.65 -10.2 L11.0 -14.5 -11.0 -14.5 -9.6 -10.2 -4.3 6.35 4.3 6.35 9.65 -10.2 M4.6 10.0 L-4.15 10.0 -4.15 14.5 4.6 14.5 4.6 10.0" fill="none" stroke="#000000" stroke-linecap="round" stroke-linejoin="round" stroke-width="2.0"/>
  </g>
</svg>
