<?xml version="1.0" encoding="UTF-8" standalone="no"?>
<svg xmlns:xlink="http://www.w3.org/1999/xlink" height="31.2px" width="35.9px" xmlns="http://www.w3.org/2000/svg">
  <g transform="matrix(1.0, 0.0, 0.0, 1.0, 17.9, 15.35)">
    <path d="M-10.2 3.95 Q-7.1 3.85 -4.05 2.5 L-4.4 8.55 -10.2 3.95 M1.5 -1.05 L5.8 -3.95 5.8 3.3 1.5 -1.05 M-4.25 8.85 L-3.8 2.75 Q-1.25 1.6 1.45 -0.5 L1.65 -0.75 5.95 3.6 5.95 -3.65 Q10.7 -6.45 15.45 -7.15 L15.6 -6.8 Q17.1 -2.05 13.85 1.5 L-4.25 8.85" fill="#e00000" fill-rule="evenodd" stroke="none"/>
    <path d="M5.8 -12.45 Q3.1 -12.0 -0.05 -10.3 -10.9 -16.2 -15.5 -7.0 -17.0 -2.3 -13.75 1.2 L-10.2 3.95 -4.4 8.55 -4.6 11.35 -15.15 2.0 Q-19.15 -1.5 -17.35 -7.15 -12.7 -17.5 -0.05 -12.3 3.1 -13.75 5.8 -14.1 L5.8 -12.45 M5.95 -12.15 L5.95 -13.85 Q13.85 -14.85 17.7 -6.35 18.85 -1.65 15.25 2.15 L0.25 15.85 -4.45 11.65 -4.25 8.85 13.85 1.5 Q17.1 -2.05 15.6 -6.8 L15.45 -7.15 Q12.25 -13.25 5.95 -12.15" fill="#ff4645" fill-rule="evenodd" stroke="none"/>
    <path d="M-10.2 3.95 L-13.75 1.2 Q-17.0 -2.3 -15.5 -7.0 -10.9 -16.2 -0.05 -10.3 3.1 -12.0 5.8 -12.45 L5.8 -3.95 1.5 -1.05 1.25 -0.85 Q-1.4 1.3 -4.05 2.5 -7.1 3.85 -10.2 3.95" fill="url(#gradient0)" fill-rule="evenodd" stroke="none"/>
    <path d="M5.95 -3.65 L5.95 -12.15 Q12.25 -13.25 15.45 -7.15 10.7 -6.45 5.95 -3.65" fill="url(#gradient1)" fill-rule="evenodd" stroke="none"/>
    <path d="M-1.7 -1.3 L-0.3 0.65 0.6 1.95 M3.6 -8.6 L5.8 -8.6 7.7 -8.6 M-4.7 13.45 L-4.35 8.6" fill="none" stroke="#fdc7c4" stroke-linecap="butt" stroke-linejoin="miter-clip" stroke-miterlimit="3.0" stroke-width="1.0"/>
    <path d="M-0.3 0.65 L1.25 -0.5 1.5 -2.0 5.8 3.6 5.8 -1.65 5.8 -8.6 M-0.3 0.65 Q-2.15 1.95 -3.95 2.75 L-4.35 8.6" fill="none" stroke="#fdc7c4" stroke-linecap="round" stroke-linejoin="miter-clip" stroke-miterlimit="3.0" stroke-width="1.0"/>
    <path d="M5.8 -1.65 L3.6 -1.65 M5.8 -8.6 L5.8 -14.85 M5.8 -1.65 L7.45 -1.65 M-4.35 8.6 L-6.2 7.7 M-4.35 8.6 L-2.5 9.5" fill="none" stroke="#fdc7c4" stroke-linecap="round" stroke-linejoin="miter-clip" stroke-miterlimit="3.0" stroke-width="1.0"/>
  </g>
  <defs>
    <linearGradient gradientTransform="matrix(-0.0014, -0.0108, 0.0103, -0.0013, -0.05, -6.2)" gradientUnits="userSpaceOnUse" id="gradient0" spreadMethod="pad" x1="-819.2" x2="819.2">
      <stop offset="0.0" stop-color="#e00000"/>
      <stop offset="1.0" stop-color="#ffbfbf"/>
    </linearGradient>
    <linearGradient gradientTransform="matrix(-0.0014, -0.0108, 0.0103, -0.0013, 0.1, -5.85)" gradientUnits="userSpaceOnUse" id="gradient1" spreadMethod="pad" x1="-819.2" x2="819.2">
      <stop offset="0.0" stop-color="#e00000"/>
      <stop offset="1.0" stop-color="#ffbfbf"/>
    </linearGradient>
  </defs>
</svg>
