<?xml version="1.0" encoding="UTF-8" standalone="no"?>
<svg xmlns:xlink="http://www.w3.org/1999/xlink" height="19.0px" width="19.3px" xmlns="http://www.w3.org/2000/svg">
  <g transform="matrix(1.0, 0.0, 0.0, 1.0, 1.2, 4.2)">
    <path d="M8.3 -2.95 L10.5 -4.2 12.7 -0.4 10.4 0.85 8.3 -2.95 M13.65 6.45 L15.8 5.15 18.1 9.25 15.9 10.5 13.65 6.45" fill="#ffffff" fill-rule="evenodd" stroke="none"/>
    <path d="M8.3 -2.95 L10.4 0.85 4.45 4.25 Q3.4 4.85 3.1 6.0 2.9 7.25 3.65 8.55 4.3 9.65 5.3 10.05 L7.6 9.85 13.65 6.45 15.9 10.5 10.6 13.45 10.2 13.65 9.65 14.0 Q7.2 15.35 4.25 14.4 1.45 13.35 -0.15 10.65 -1.6 7.9 -1.0 5.0 -0.35 1.95 2.0 0.6 L2.6 0.35 3.0 0.0 8.3 -2.95" fill="#cc0000" fill-rule="evenodd" stroke="none"/>
  </g>
</svg>
