<?xml version="1.0" encoding="UTF-8" standalone="no"?>
<svg xmlns:xlink="http://www.w3.org/1999/xlink" height="31.0px" width="14.5px" xmlns="http://www.w3.org/2000/svg">
  <g transform="matrix(1.0, 0.0, 0.0, 1.0, 5.65, 23.5)">
    <path d="M-0.3 -3.0 Q-2.2 -3.0 -3.65 -4.5 -5.15 -5.95 -5.15 -8.0 -5.15 -10.1 -3.65 -11.55 -2.2 -13.0 -0.3 -13.0 -2.2 -13.0 -3.65 -14.5 -5.15 -15.95 -5.15 -18.0 -5.15 -20.1 -3.65 -21.55 -2.2 -23.0 -0.15 -23.0 1.95 -23.0 3.4 -21.55 4.85 -20.1 4.85 -18.0 4.85 -15.95 3.4 -14.5 1.95 -13.0 0.05 -13.0 1.95 -13.0 3.4 -11.55 4.85 -10.1 4.85 -8.0 4.85 -5.95 3.4 -4.5 1.95 -3.0 0.05 -3.0 L-0.3 -3.0 M1.7 -16.25 Q2.45 -16.95 2.45 -18.0 2.45 -19.05 1.7 -19.8 1.0 -20.5 -0.05 -20.5 -1.1 -20.5 -1.85 -19.8 -2.55 -19.05 -2.55 -18.0 -2.55 -16.95 -1.85 -16.25 -1.1 -15.5 -0.05 -15.5 1.0 -15.5 1.7 -16.25 M3.25 7.0 Q1.3 7.0 -0.15 5.5 -1.65 4.05 -1.65 2.0 -1.65 -0.1 -0.15 -1.55 1.3 -3.0 3.2 -3.0 L3.55 -3.0 Q5.45 -3.0 6.9 -1.55 8.35 -0.1 8.35 2.0 8.35 4.05 6.9 5.5 5.45 7.0 3.5 7.0 L3.25 7.0 M5.2 3.75 Q5.95 3.05 5.95 2.0 5.95 0.95 5.2 0.2 4.5 -0.5 3.45 -0.5 2.4 -0.5 1.65 0.2 0.95 0.95 0.95 2.0 0.95 3.05 1.65 3.75 2.4 4.5 3.45 4.5 4.5 4.5 5.2 3.75 M2.45 -8.0 Q2.45 -9.05 1.7 -9.8 1.0 -10.5 -0.05 -10.5 -1.1 -10.5 -1.85 -9.8 -2.55 -9.05 -2.55 -8.0 -2.55 -6.95 -1.85 -6.25 -1.1 -5.5 -0.05 -5.5 1.0 -5.5 1.7 -6.25 2.45 -6.95 2.45 -8.0 M-0.3 -13.0 L0.05 -13.0 -0.3 -13.0" fill="#aaaaaa" fill-rule="evenodd" stroke="none"/>
    <path d="M1.7 -16.25 Q1.0 -15.5 -0.05 -15.5 -1.1 -15.5 -1.85 -16.25 -2.55 -16.95 -2.55 -18.0 -2.55 -19.05 -1.85 -19.8 -1.1 -20.5 -0.05 -20.5 1.0 -20.5 1.7 -19.8 2.45 -19.05 2.45 -18.0 2.45 -16.95 1.7 -16.25 M2.45 -8.0 Q2.45 -6.95 1.7 -6.25 1.0 -5.5 -0.05 -5.5 -1.1 -5.5 -1.85 -6.25 -2.55 -6.95 -2.55 -8.0 -2.55 -9.05 -1.85 -9.8 -1.1 -10.5 -0.05 -10.5 1.0 -10.5 1.7 -9.8 2.45 -9.05 2.45 -8.0 M5.2 3.75 Q4.5 4.5 3.45 4.5 2.4 4.5 1.65 3.75 0.95 3.05 0.95 2.0 0.95 0.95 1.65 0.2 2.4 -0.5 3.45 -0.5 4.5 -0.5 5.2 0.2 5.95 0.95 5.95 2.0 5.95 3.05 5.2 3.75" fill="#ffffff" fill-opacity="0.0" fill-rule="evenodd" stroke="none"/>
    <path d="M-0.3 -3.0 Q-2.2 -3.0 -3.65 -4.5 -5.15 -5.95 -5.15 -8.0 -5.15 -10.1 -3.65 -11.55 -2.2 -13.0 -0.3 -13.0 -2.2 -13.0 -3.65 -14.5 -5.15 -15.95 -5.15 -18.0 -5.15 -20.1 -3.65 -21.55 -2.2 -23.0 -0.15 -23.0 1.95 -23.0 3.4 -21.55 4.85 -20.1 4.85 -18.0 4.85 -15.95 3.4 -14.5 1.95 -13.0 0.05 -13.0 1.95 -13.0 3.4 -11.55 4.85 -10.1 4.85 -8.0 4.85 -5.95 3.4 -4.5 1.95 -3.0 0.05 -3.0 M1.7 -16.25 Q1.0 -15.5 -0.05 -15.5 -1.1 -15.5 -1.85 -16.25 -2.55 -16.95 -2.55 -18.0 -2.55 -19.05 -1.85 -19.8 -1.1 -20.5 -0.05 -20.5 1.0 -20.5 1.7 -19.8 2.45 -19.05 2.45 -18.0 2.45 -16.95 1.7 -16.25 M3.25 7.0 Q1.3 7.0 -0.15 5.5 -1.65 4.05 -1.65 2.0 -1.65 -0.1 -0.15 -1.55 1.3 -3.0 3.2 -3.0 L3.55 -3.0 Q5.45 -3.0 6.9 -1.55 8.35 -0.1 8.35 2.0 8.35 4.05 6.9 5.5 5.45 7.0 3.5 7.0 M2.45 -8.0 Q2.45 -6.95 1.7 -6.25 1.0 -5.5 -0.05 -5.5 -1.1 -5.5 -1.85 -6.25 -2.55 -6.95 -2.55 -8.0 -2.55 -9.05 -1.85 -9.8 -1.1 -10.5 -0.05 -10.5 1.0 -10.5 1.7 -9.8 2.45 -9.05 2.45 -8.0 M5.2 3.75 Q4.5 4.5 3.45 4.5 2.4 4.5 1.65 3.75 0.95 3.05 0.95 2.0 0.95 0.95 1.65 0.2 2.4 -0.5 3.45 -0.5 4.5 -0.5 5.2 0.2 5.95 0.95 5.95 2.0 5.95 3.05 5.2 3.75 M0.05 -13.0 L-0.3 -13.0" fill="none" stroke="#000000" stroke-linecap="round" stroke-linejoin="round" stroke-width="1.0"/>
  </g>
</svg>
