<?xml version="1.0" encoding="UTF-8" standalone="no"?>
<svg xmlns:xlink="http://www.w3.org/1999/xlink" height="43.25px" width="30.35px" xmlns="http://www.w3.org/2000/svg">
  <g transform="matrix(1.0, 0.0, 0.0, 1.0, 15.0, 21.7)">
    <path d="M10.75 -15.2 Q15.1 -8.95 15.1 -0.1 15.1 8.8 10.75 15.0 6.35 21.3 0.2 21.3 L-1.45 21.2 -1.55 21.15 -1.7 21.15 -1.8 21.1 -1.9 21.1 -2.0 21.05 -2.1 21.05 Q-6.85 20.05 -10.35 15.0 -14.75 8.8 -14.75 -0.1 -14.75 -8.95 -10.35 -15.2 -6.0 -21.45 0.2 -21.45 6.35 -21.45 10.75 -15.2" fill="#48288a" fill-rule="evenodd" stroke="none"/>
    <path d="M10.75 -15.2 Q15.1 -8.95 15.1 -0.1 15.1 8.8 10.75 15.0 6.35 21.3 0.2 21.3 L-1.45 21.2 -1.55 21.15 -1.7 21.15 -1.8 21.1 -1.9 21.1 -2.0 21.05 -2.1 21.05 Q-6.85 20.05 -10.35 15.0 -14.75 8.8 -14.75 -0.1 -14.75 -8.95 -10.35 -15.2 -6.0 -21.45 0.2 -21.45 6.35 -21.45 10.75 -15.2 Z" fill="none" stroke="#261746" stroke-linecap="round" stroke-linejoin="round" stroke-width="0.5"/>
    <path d="M2.35 -1.85 L-1.55 1.25 Q-2.0 1.25 -2.15 0.95 L-2.2 0.65 -1.7 -0.2 -1.8 -0.35 Q-1.8 -2.25 0.8 -4.75 4.9 -8.7 12.95 -8.7 14.1 -8.7 13.95 -8.3 L13.85 -8.25 Q14.65 -7.85 14.65 -5.75 L15.1 -3.0 15.0 -2.55 15.1 -2.4 Q15.0 -1.75 14.4 -1.75 12.15 -4.3 10.6 -4.3 8.8 -4.3 5.6 -3.2 L2.35 -1.85" fill="#48288a" fill-rule="evenodd" stroke="none"/>
  </g>
</svg>
