<?xml version="1.0" encoding="UTF-8" standalone="no"?>
<svg xmlns:xlink="http://www.w3.org/1999/xlink" height="43.25px" width="30.35px" xmlns="http://www.w3.org/2000/svg">
  <g transform="matrix(1.0, 0.0, 0.0, 1.0, 15.0, 21.7)">
    <path d="M15.1 -0.1 Q15.1 8.8 10.75 15.0 6.35 21.3 0.2 21.3 -6.0 21.3 -10.35 15.0 -14.75 8.8 -14.75 -0.1 -14.75 -8.95 -10.35 -15.2 -6.0 -21.45 0.2 -21.45 6.35 -21.45 10.75 -15.2 15.1 -8.95 15.1 -0.1 M-2.55 0.7 L-2.45 1.0 Q-2.25 1.35 -1.35 1.35 -0.2 1.35 -0.2 0.7 -0.3 -0.1 -1.35 -0.1 -2.55 -0.1 -2.55 0.7 M-7.4 17.7 Q-4.7 20.25 -2.95 20.25 L-2.45 20.05 Q-4.1 19.3 -6.95 17.15 -9.3 14.25 -10.05 14.25 L-10.15 14.25 Q-9.8 15.4 -7.4 17.7" fill="#48288a" fill-rule="evenodd" stroke="none"/>
    <path d="M-2.55 0.7 Q-2.55 -0.1 -1.35 -0.1 -0.3 -0.1 -0.2 0.7 -0.2 1.35 -1.35 1.35 -2.25 1.35 -2.45 1.0 L-2.55 0.7" fill="#5731a8" fill-rule="evenodd" stroke="none"/>
    <path d="M-7.4 17.7 Q-9.8 15.4 -10.15 14.25 L-10.05 14.25 Q-9.3 14.25 -6.95 17.15 -4.1 19.3 -2.45 20.05 L-2.95 20.25 Q-4.7 20.25 -7.4 17.7" fill="#7045c9" fill-rule="evenodd" stroke="none"/>
    <path d="M15.1 -0.1 Q15.1 8.8 10.75 15.0 6.35 21.3 0.2 21.3 -6.0 21.3 -10.35 15.0 -14.75 8.8 -14.75 -0.1 -14.75 -8.95 -10.35 -15.2 -6.0 -21.45 0.2 -21.45 6.35 -21.45 10.75 -15.2 15.1 -8.95 15.1 -0.1 Z" fill="none" stroke="#261746" stroke-linecap="round" stroke-linejoin="round" stroke-width="0.5"/>
    <path d="M14.3 -6.85 L14.2 -6.25 14.3 -6.0 Q14.3 -5.5 13.6 -5.5 L11.75 -6.0 Q7.35 -6.0 2.65 -2.65 1.35 -1.85 -1.0 1.1 L-1.55 0.85 -1.65 1.0 -2.0 0.9 -2.2 -0.45 Q-2.2 -3.0 1.75 -6.75 7.7 -12.65 12.0 -12.65 L12.65 -12.2 12.55 -12.15 Q13.75 -11.3 14.3 -6.85" fill="#5731a8" fill-rule="evenodd" stroke="none"/>
  </g>
</svg>
