<?xml version="1.0" encoding="UTF-8" standalone="no"?>
<svg xmlns:xlink="http://www.w3.org/1999/xlink" height="43.25px" width="30.35px" xmlns="http://www.w3.org/2000/svg">
  <g transform="matrix(1.0, 0.0, 0.0, 1.0, 15.0, 21.7)">
    <path d="M-13.6 8.2 Q-14.75 4.4 -14.75 -0.1 -14.75 -8.95 -10.35 -15.2 -6.0 -21.45 0.2 -21.45 6.35 -21.45 10.75 -15.2 15.1 -8.95 15.1 -0.1 15.1 8.8 10.75 15.0 6.35 21.3 0.2 21.3 -6.0 21.3 -10.35 15.0 L-12.1 12.15 Q-10.5 14.35 -7.35 17.55 L-7.25 17.45 -10.95 12.85 Q-12.15 11.1 -12.75 9.35 -13.1 8.1 -13.3 8.1 L-13.6 8.2 M-2.45 1.0 Q-2.25 1.35 -1.35 1.35 -0.2 1.35 -0.2 0.7 -0.3 -0.1 -1.35 -0.1 -2.55 -0.1 -2.55 0.7 L-2.45 1.0" fill="#48288a" fill-rule="evenodd" stroke="none"/>
    <path d="M-2.45 1.0 L-2.55 0.7 Q-2.55 -0.1 -1.35 -0.1 -0.3 -0.1 -0.2 0.7 -0.2 1.35 -1.35 1.35 -2.25 1.35 -2.45 1.0" fill="#5731a8" fill-rule="evenodd" stroke="none"/>
    <path d="M-12.1 12.15 Q-13.7 9.85 -13.7 8.55 L-13.6 8.2 -13.3 8.1 Q-13.1 8.1 -12.75 9.35 -12.15 11.1 -10.95 12.85 L-7.25 17.45 -7.35 17.55 Q-10.5 14.35 -12.1 12.15" fill="#7045c9" fill-rule="evenodd" stroke="none"/>
    <path d="M-13.6 8.2 Q-14.75 4.4 -14.75 -0.1 -14.75 -8.95 -10.35 -15.2 -6.0 -21.45 0.2 -21.45 6.35 -21.45 10.75 -15.2 15.1 -8.95 15.1 -0.1 15.1 8.8 10.75 15.0 6.35 21.3 0.2 21.3 -6.0 21.3 -10.35 15.0 L-12.1 12.15" fill="none" stroke="#261746" stroke-linecap="round" stroke-linejoin="round" stroke-width="0.5"/>
    <path d="M8.05 -18.15 Q8.8 -18.15 8.8 -17.8 L8.2 -17.6 Q9.6 -16.9 12.4 -11.95 L12.4 -11.8 Q12.8 -11.55 12.8 -11.2 12.8 -10.7 12.1 -10.7 L10.75 -11.1 Q9.15 -11.1 7.15 -9.85 L5.4 -8.45 2.7 -5.5 Q1.15 -3.85 0.2 -1.55 -0.55 0.3 -0.9 0.3 L-1.25 -0.3 -1.2 0.15 -1.0 0.85 -1.35 0.95 Q-1.9 0.95 -2.2 -0.3 L-2.35 -1.6 Q-2.35 -3.65 -1.75 -5.75 L-1.05 -7.85 0.55 -9.95 Q2.8 -12.75 3.1 -14.1 L4.85 -16.55 Q6.25 -18.15 8.05 -18.15" fill="#5731a8" fill-rule="evenodd" stroke="none"/>
  </g>
</svg>
