<?xml version="1.0" encoding="UTF-8" standalone="no"?>
<svg xmlns:xlink="http://www.w3.org/1999/xlink" height="43.25px" width="30.35px" xmlns="http://www.w3.org/2000/svg">
  <g transform="matrix(1.0, 0.0, 0.0, 1.0, 15.0, 21.7)">
    <path d="M15.1 -0.1 Q15.1 8.8 10.75 15.0 6.35 21.3 0.2 21.3 -6.0 21.3 -10.35 15.0 -14.75 8.8 -14.75 -0.1 -14.75 -8.95 -10.35 -15.2 -6.0 -21.45 0.2 -21.45 6.35 -21.45 10.75 -15.2 15.1 -8.95 15.1 -0.1 M-2.45 1.0 Q-2.25 1.35 -1.35 1.35 -0.2 1.35 -0.2 0.7 -0.3 -0.1 -1.35 -0.1 -2.55 -0.1 -2.55 0.7 L-2.45 1.0 M-13.95 6.3 Q-13.2 10.2 -12.25 10.2 -11.75 10.2 -11.7 10.0 L-11.95 9.6 Q-13.4 5.85 -13.4 5.0 L-13.75 0.45 -14.1 2.85 -14.15 5.3 -13.95 6.3" fill="#48288a" fill-rule="evenodd" stroke="none"/>
    <path d="M-2.45 1.0 L-2.55 0.7 Q-2.55 -0.1 -1.35 -0.1 -0.3 -0.1 -0.2 0.7 -0.2 1.35 -1.35 1.35 -2.25 1.35 -2.45 1.0" fill="#5731a8" fill-rule="evenodd" stroke="none"/>
    <path d="M-13.95 6.3 L-14.15 5.3 -14.1 2.85 -13.75 0.45 -13.4 5.0 Q-13.4 5.85 -11.95 9.6 L-11.7 10.0 Q-11.75 10.2 -12.25 10.2 -13.2 10.2 -13.95 6.3" fill="#7045c9" fill-rule="evenodd" stroke="none"/>
    <path d="M15.1 -0.1 Q15.1 8.8 10.75 15.0 6.35 21.3 0.2 21.3 -6.0 21.3 -10.35 15.0 -14.75 8.8 -14.75 -0.1 -14.75 -8.95 -10.35 -15.2 -6.0 -21.45 0.2 -21.45 6.35 -21.45 10.75 -15.2 15.1 -8.95 15.1 -0.1 Z" fill="none" stroke="#261746" stroke-linecap="round" stroke-linejoin="round" stroke-width="0.5"/>
    <path d="M7.9 -18.05 L8.1 -18.1 Q8.8 -18.1 8.75 -17.6 5.25 -15.5 3.5 -13.15 1.25 -10.2 0.75 -8.55 -0.35 -5.25 -0.45 -3.95 L-0.9 -0.75 -0.35 0.55 Q-0.45 0.95 -0.9 0.95 -1.85 0.95 -2.35 -2.45 L-2.8 -6.95 Q-3.15 -8.3 -3.15 -10.7 -3.15 -13.65 -2.15 -16.15 L-0.45 -19.25 0.85 -21.15 0.8 -21.3 Q0.8 -21.65 1.35 -21.65 4.05 -21.65 7.9 -18.05" fill="#5731a8" fill-rule="evenodd" stroke="none"/>
  </g>
</svg>
