<?xml version="1.0" encoding="UTF-8" standalone="no"?>
<svg xmlns:xlink="http://www.w3.org/1999/xlink" height="43.25px" width="30.35px" xmlns="http://www.w3.org/2000/svg">
  <g transform="matrix(1.0, 0.0, 0.0, 1.0, 15.0, 21.7)">
    <path d="M15.1 -0.1 Q15.1 8.8 10.75 15.0 6.35 21.3 0.2 21.3 -6.0 21.3 -10.35 15.0 -14.75 8.8 -14.75 -0.1 -14.75 -8.95 -10.35 -15.2 -6.0 -21.45 0.2 -21.45 6.35 -21.45 10.75 -15.2 15.1 -8.95 15.1 -0.1 M-12.6 -7.55 Q-13.3 -7.55 -13.5 -3.7 L-14.15 0.15 -13.55 2.85 -13.3 2.75 -13.3 2.6 -12.15 -7.25 Q-12.15 -7.55 -12.6 -7.55 M-1.35 1.35 Q-0.2 1.35 -0.2 0.7 -0.3 -0.1 -1.35 -0.1 -2.55 -0.1 -2.55 0.7 L-2.45 1.0 Q-2.25 1.35 -1.35 1.35" fill="#48288a" fill-rule="evenodd" stroke="none"/>
    <path d="M-1.35 1.35 Q-2.25 1.35 -2.45 1.0 L-2.55 0.7 Q-2.55 -0.1 -1.35 -0.1 -0.3 -0.1 -0.2 0.7 -0.2 1.35 -1.35 1.35" fill="#5731a8" fill-rule="evenodd" stroke="none"/>
    <path d="M-12.6 -7.55 Q-12.15 -7.55 -12.15 -7.25 L-13.3 2.6 -13.3 2.75 -13.55 2.85 -14.15 0.15 -13.5 -3.7 Q-13.3 -7.55 -12.6 -7.55" fill="#7045c9" fill-rule="evenodd" stroke="none"/>
    <path d="M15.1 -0.1 Q15.1 8.8 10.75 15.0 6.35 21.3 0.2 21.3 -6.0 21.3 -10.35 15.0 -14.75 8.8 -14.75 -0.1 -14.75 -8.95 -10.35 -15.2 -6.0 -21.45 0.2 -21.45 6.35 -21.45 10.75 -15.2 15.1 -8.95 15.1 -0.1 Z" fill="none" stroke="#261746" stroke-linecap="round" stroke-linejoin="round" stroke-width="0.5"/>
    <path d="M2.25 -21.2 Q0.55 -19.55 -0.2 -17.45 -1.0 -15.3 -1.2 -13.8 -1.65 -11.9 -1.65 -6.45 L-1.15 -3.1 Q-0.9 -1.0 -0.25 0.2 L-0.3 0.3 -0.55 0.45 -0.75 0.45 -1.35 0.7 Q-4.7 0.7 -7.0 -13.3 L-6.6 -16.85 Q-6.05 -20.3 -4.9 -20.3 L-4.55 -20.3 -3.9 -20.6 Q-2.2 -21.5 0.4 -21.5 L0.95 -21.5 1.6 -21.65 Q2.3 -21.65 2.25 -21.2" fill="#5731a8" fill-rule="evenodd" stroke="none"/>
  </g>
</svg>
