<?xml version="1.0" encoding="UTF-8" standalone="no"?>
<svg xmlns:xlink="http://www.w3.org/1999/xlink" height="43.25px" width="30.35px" xmlns="http://www.w3.org/2000/svg">
  <g transform="matrix(1.0, 0.0, 0.0, 1.0, 15.0, 21.7)">
    <path d="M15.1 -0.1 Q15.1 8.8 10.75 15.0 6.35 21.3 0.2 21.3 -6.0 21.3 -10.35 15.0 -14.75 8.8 -14.75 -0.1 -14.75 -8.95 -10.35 -15.2 -6.0 -21.45 0.2 -21.45 6.35 -21.45 10.75 -15.2 15.1 -8.95 15.1 -0.1 M-6.5 -18.0 Q-7.85 -18.0 -10.6 -12.1 L-13.0 -6.15 Q-13.0 -4.7 -12.5 -4.4 L-9.95 -11.0 -8.35 -14.4 Q-6.05 -16.8 -6.05 -17.75 -6.05 -18.0 -6.5 -18.0 M-2.55 0.7 L-2.45 1.0 Q-2.25 1.35 -1.35 1.35 -0.2 1.35 -0.2 0.7 -0.3 -0.1 -1.35 -0.1 -2.55 -0.1 -2.55 0.7" fill="#48288a" fill-rule="evenodd" stroke="none"/>
    <path d="M-2.55 0.7 Q-2.55 -0.1 -1.35 -0.1 -0.3 -0.1 -0.2 0.7 -0.2 1.35 -1.35 1.35 -2.25 1.35 -2.45 1.0 L-2.55 0.7" fill="#5731a8" fill-rule="evenodd" stroke="none"/>
    <path d="M-6.5 -18.0 Q-6.05 -18.0 -6.05 -17.75 -6.05 -16.8 -8.35 -14.4 L-9.95 -11.0 -12.5 -4.4 Q-13.0 -4.7 -13.0 -6.15 L-10.6 -12.1 Q-7.85 -18.0 -6.5 -18.0" fill="#7045c9" fill-rule="evenodd" stroke="none"/>
    <path d="M15.1 -0.1 Q15.1 8.8 10.75 15.0 6.35 21.3 0.2 21.3 -6.0 21.3 -10.35 15.0 -14.75 8.8 -14.75 -0.1 -14.75 -8.95 -10.35 -15.2 -6.0 -21.45 0.2 -21.45 6.35 -21.45 10.75 -15.2 15.1 -8.95 15.1 -0.1 Z" fill="none" stroke="#261746" stroke-linecap="round" stroke-linejoin="round" stroke-width="0.5"/>
    <path d="M-5.9 -19.35 L-5.65 -19.3 Q-5.15 -20.45 -4.55 -20.45 -4.0 -20.45 -4.0 -20.1 -4.0 -19.7 -5.45 -16.15 L-6.15 -12.35 -6.0 -10.95 Q-6.0 -7.75 -3.35 -3.5 L-0.8 0.6 -0.9 0.8 -1.2 0.85 -1.9 0.65 -2.25 0.65 Q-3.15 0.65 -5.05 -0.35 L-7.55 -1.95 -9.95 -4.7 Q-11.45 -6.75 -12.6 -9.55 L-12.8 -10.15 -12.85 -10.2 -12.8 -10.2 -12.8 -10.35 Q-12.8 -11.95 -9.95 -14.85 L-8.05 -17.55 Q-6.7 -19.35 -5.9 -19.35" fill="#5731a8" fill-rule="evenodd" stroke="none"/>
  </g>
</svg>
