<?xml version="1.0" encoding="UTF-8" standalone="no"?>
<svg xmlns:xlink="http://www.w3.org/1999/xlink" height="43.25px" width="30.35px" xmlns="http://www.w3.org/2000/svg">
  <g transform="matrix(1.0, 0.0, 0.0, 1.0, 15.0, 21.7)">
    <path d="M15.1 -0.1 Q15.1 8.8 10.75 15.0 6.35 21.3 0.2 21.3 -6.0 21.3 -10.35 15.0 -14.75 8.8 -14.75 -0.1 -14.75 -8.95 -10.35 -15.2 -6.0 -21.45 0.2 -21.45 6.35 -21.45 10.75 -15.2 15.1 -8.95 15.1 -0.1 M1.55 -19.65 Q2.6 -19.65 2.6 -19.95 2.65 -20.5 1.55 -20.5 -6.0 -20.5 -9.95 -12.55 L-9.4 -12.05 -6.4 -15.95 Q-4.5 -19.65 1.55 -19.65 M-2.55 0.7 L-2.45 1.0 Q-2.25 1.35 -1.35 1.35 -0.2 1.35 -0.2 0.7 -0.3 -0.1 -1.35 -0.1 -2.55 -0.1 -2.55 0.7" fill="#48288a" fill-rule="evenodd" stroke="none"/>
    <path d="M-2.55 0.7 Q-2.55 -0.1 -1.35 -0.1 -0.3 -0.1 -0.2 0.7 -0.2 1.35 -1.35 1.35 -2.25 1.35 -2.45 1.0 L-2.55 0.7" fill="#5731a8" fill-rule="evenodd" stroke="none"/>
    <path d="M1.55 -19.65 Q-4.5 -19.65 -6.4 -15.95 L-9.4 -12.05 -9.95 -12.55 Q-6.0 -20.5 1.55 -20.5 2.65 -20.5 2.6 -19.95 2.6 -19.65 1.55 -19.65" fill="#7045c9" fill-rule="evenodd" stroke="none"/>
    <path d="M15.1 -0.1 Q15.1 8.8 10.75 15.0 6.35 21.3 0.2 21.3 -6.0 21.3 -10.35 15.0 -14.75 8.8 -14.75 -0.1 -14.75 -8.95 -10.35 -15.2 -6.0 -21.45 0.2 -21.45 6.35 -21.45 10.75 -15.2 15.1 -8.95 15.1 -0.1 Z" fill="none" stroke="#261746" stroke-linecap="round" stroke-linejoin="round" stroke-width="0.5"/>
    <path d="M-8.85 -4.8 Q-8.05 -3.7 -5.9 -1.75 -5.0 -0.95 -1.0 1.0 -0.65 1.1 -0.65 1.4 -0.65 2.2 -4.5 2.2 -7.15 2.2 -10.6 0.45 -13.2 -0.9 -14.4 -2.0 L-14.1 -2.1 -14.25 -3.6 -13.6 -6.6 -12.75 -9.15 -13.05 -10.45 -12.6 -10.9 Q-12.3 -10.9 -8.85 -4.8" fill="#5731a8" fill-rule="evenodd" stroke="none"/>
  </g>
</svg>
