<?xml version="1.0" encoding="UTF-8" standalone="no"?>
<svg xmlns:xlink="http://www.w3.org/1999/xlink" height="43.25px" width="30.35px" xmlns="http://www.w3.org/2000/svg">
  <g transform="matrix(1.0, 0.0, 0.0, 1.0, 15.0, 21.7)">
    <path d="M15.1 -0.1 Q15.1 8.8 10.75 15.0 6.35 21.3 0.2 21.3 -6.0 21.3 -10.35 15.0 -14.75 8.8 -14.75 -0.1 -14.75 -8.95 -10.35 -15.2 -6.0 -21.45 0.2 -21.45 6.35 -21.45 10.75 -15.2 15.1 -8.95 15.1 -0.1 M1.15 -19.8 Q4.35 -19.8 7.95 -15.55 L11.65 -11.3 Q12.1 -11.3 12.1 -11.6 6.7 -20.45 1.35 -20.45 -1.45 -20.45 -1.45 -19.55 L-1.15 -19.3 Q-0.9 -19.8 1.15 -19.8 M-2.45 1.0 Q-2.25 1.35 -1.35 1.35 -0.2 1.35 -0.2 0.7 -0.3 -0.1 -1.35 -0.1 -2.55 -0.1 -2.55 0.7 L-2.45 1.0" fill="#48288a" fill-rule="evenodd" stroke="none"/>
    <path d="M-2.45 1.0 L-2.55 0.7 Q-2.55 -0.1 -1.35 -0.1 -0.3 -0.1 -0.2 0.7 -0.2 1.35 -1.35 1.35 -2.25 1.35 -2.45 1.0" fill="#5731a8" fill-rule="evenodd" stroke="none"/>
    <path d="M1.15 -19.8 Q-0.9 -19.8 -1.15 -19.3 L-1.45 -19.55 Q-1.45 -20.45 1.35 -20.45 6.7 -20.45 12.1 -11.6 12.1 -11.3 11.65 -11.3 L7.95 -15.55 Q4.35 -19.8 1.15 -19.8" fill="#7045c9" fill-rule="evenodd" stroke="none"/>
    <path d="M15.1 -0.1 Q15.1 8.8 10.75 15.0 6.35 21.3 0.2 21.3 -6.0 21.3 -10.35 15.0 -14.75 8.8 -14.75 -0.1 -14.75 -8.95 -10.35 -15.2 -6.0 -21.45 0.2 -21.45 6.35 -21.45 10.75 -15.2 15.1 -8.95 15.1 -0.1 Z" fill="none" stroke="#261746" stroke-linecap="round" stroke-linejoin="round" stroke-width="0.5"/>
    <path d="M-10.4 -0.85 Q-9.25 -0.55 -8.35 0.05 L-2.1 0.45 -2.0 0.45 -1.55 0.3 Q-0.95 0.3 -0.8 0.7 -0.8 1.5 -4.0 2.45 -7.4 3.5 -10.6 3.5 L-12.9 3.25 -12.95 3.25 -13.0 3.4 -13.05 3.45 -13.2 3.5 Q-13.7 3.5 -14.0 3.0 L-14.2 2.85 -14.1 2.75 Q-14.6 1.65 -14.4 -1.15 L-14.4 -1.75 -14.75 -2.25 Q-14.75 -2.65 -14.2 -2.65 -11.45 -1.1 -10.4 -0.85" fill="#5731a8" fill-rule="evenodd" stroke="none"/>
  </g>
</svg>
