<?xml version="1.0" encoding="UTF-8" standalone="no"?>
<svg xmlns:xlink="http://www.w3.org/1999/xlink" height="43.25px" width="30.35px" xmlns="http://www.w3.org/2000/svg">
  <g transform="matrix(1.0, 0.0, 0.0, 1.0, 15.0, 21.7)">
    <path d="M9.85 -14.5 Q9.35 -14.5 9.35 -14.2 10.5 -13.0 11.2 -11.3 L12.15 -8.35 Q12.65 -7.1 13.15 -2.5 L12.95 -1.7 13.4 -1.05 Q13.95 -1.05 14.15 -2.5 13.75 -7.1 13.15 -8.5 L11.75 -12.15 Q10.75 -14.5 9.85 -14.5 M15.1 -0.1 Q15.1 8.8 10.75 15.0 6.35 21.3 0.2 21.3 -6.0 21.3 -10.35 15.0 -14.75 8.8 -14.75 -0.1 -14.75 -8.95 -10.35 -15.2 -6.0 -21.45 0.2 -21.45 6.35 -21.45 10.75 -15.2 15.1 -8.95 15.1 -0.1 M-2.55 0.7 L-2.45 1.0 Q-2.25 1.35 -1.35 1.35 -0.2 1.35 -0.2 0.7 -0.3 -0.1 -1.35 -0.1 -2.55 -0.1 -2.55 0.7" fill="#48288a" fill-rule="evenodd" stroke="none"/>
    <path d="M-2.55 0.7 Q-2.55 -0.1 -1.35 -0.1 -0.3 -0.1 -0.2 0.7 -0.2 1.35 -1.35 1.35 -2.25 1.35 -2.45 1.0 L-2.55 0.7" fill="#5731a8" fill-rule="evenodd" stroke="none"/>
    <path d="M9.85 -14.5 Q10.75 -14.5 11.75 -12.15 L13.15 -8.5 Q13.75 -7.1 14.15 -2.5 13.95 -1.05 13.4 -1.05 L12.95 -1.7 13.15 -2.5 Q12.65 -7.1 12.15 -8.35 L11.2 -11.3 Q10.5 -13.0 9.35 -14.2 9.35 -14.5 9.85 -14.5" fill="#7045c9" fill-rule="evenodd" stroke="none"/>
    <path d="M15.1 -0.1 Q15.1 8.8 10.75 15.0 6.35 21.3 0.2 21.3 -6.0 21.3 -10.35 15.0 -14.75 8.8 -14.75 -0.1 -14.75 -8.95 -10.35 -15.2 -6.0 -21.45 0.2 -21.45 6.35 -21.45 10.75 -15.2 15.1 -8.95 15.1 -0.1 Z" fill="none" stroke="#261746" stroke-linecap="round" stroke-linejoin="round" stroke-width="0.5"/>
    <path d="M-4.95 5.1 Q-11.3 8.35 -13.55 8.35 L-14.05 8.1 -12.95 7.7 Q-13.65 6.8 -14.3 3.0 L-14.3 2.85 -14.75 2.45 Q-14.75 2.05 -14.3 2.05 -11.25 3.0 -11.15 2.5 -7.15 3.0 -1.25 0.75 L-1.2 0.7 -1.1 0.7 -0.8 0.6 -0.55 0.8 -0.55 0.95 -0.55 1.2 Q-0.55 2.15 -4.95 5.1" fill="#5731a8" fill-rule="evenodd" stroke="none"/>
  </g>
</svg>
