<?xml version="1.0" encoding="UTF-8" standalone="no"?>
<svg xmlns:xlink="http://www.w3.org/1999/xlink" height="43.25px" width="30.35px" xmlns="http://www.w3.org/2000/svg">
  <g transform="matrix(1.0, 0.0, 0.0, 1.0, 15.0, 21.7)">
    <path d="M15.1 -0.1 Q15.1 8.8 10.75 15.0 6.35 21.3 0.2 21.3 -6.0 21.3 -10.35 15.0 -14.75 8.8 -14.75 -0.1 -14.75 -8.95 -10.35 -15.2 -6.0 -21.45 0.2 -21.45 6.35 -21.45 10.75 -15.2 15.1 -8.95 15.1 -0.1 M14.45 -0.2 Q14.15 -7.1 13.1 -7.1 L12.85 -7.1 13.35 -4.95 13.5 -1.05 Q13.5 2.1 12.3 6.25 L12.3 6.45 12.7 6.5 Q13.55 6.5 14.45 -0.2 M-2.55 0.7 L-2.45 1.0 Q-2.25 1.35 -1.35 1.35 -0.2 1.35 -0.2 0.7 -0.3 -0.1 -1.35 -0.1 -2.55 -0.1 -2.55 0.7" fill="#48288a" fill-rule="evenodd" stroke="none"/>
    <path d="M-2.55 0.7 Q-2.55 -0.1 -1.35 -0.1 -0.3 -0.1 -0.2 0.7 -0.2 1.35 -1.35 1.35 -2.25 1.35 -2.45 1.0 L-2.55 0.7" fill="#5731a8" fill-rule="evenodd" stroke="none"/>
    <path d="M14.45 -0.2 Q13.55 6.5 12.7 6.5 L12.3 6.45 12.3 6.25 Q13.5 2.1 13.5 -1.05 L13.35 -4.95 12.85 -7.1 13.1 -7.1 Q14.15 -7.1 14.45 -0.2" fill="#7045c9" fill-rule="evenodd" stroke="none"/>
    <path d="M15.1 -0.1 Q15.1 8.8 10.75 15.0 6.35 21.3 0.2 21.3 -6.0 21.3 -10.35 15.0 -14.75 8.8 -14.75 -0.1 -14.75 -8.95 -10.35 -15.2 -6.0 -21.45 0.2 -21.45 6.35 -21.45 10.75 -15.2 15.1 -8.95 15.1 -0.1 Z" fill="none" stroke="#261746" stroke-linecap="round" stroke-linejoin="round" stroke-width="0.5"/>
    <path d="M-1.25 0.8 Q-0.8 0.8 -0.8 1.0 L-1.1 1.3 -1.0 1.5 Q-1.0 2.2 -4.3 7.75 -4.8 9.25 -7.15 11.6 -9.6 13.95 -10.75 13.95 -11.3 13.95 -11.3 13.5 L-10.85 13.25 Q-11.95 12.8 -13.3 8.0 -13.85 7.9 -13.85 7.65 L-13.2 7.5 Q-13.1 7.35 -12.85 7.35 L-12.75 7.35 Q-10.5 6.75 -9.15 6.15 L-5.9 4.3 -3.6 2.35 -2.55 1.5 Q-2.15 0.6 -1.85 0.6 L-1.45 0.85 -1.25 0.8" fill="#5731a8" fill-rule="evenodd" stroke="none"/>
  </g>
</svg>
