<?xml version="1.0" encoding="UTF-8" standalone="no"?>
<svg xmlns:xlink="http://www.w3.org/1999/xlink" height="43.25px" width="30.35px" xmlns="http://www.w3.org/2000/svg">
  <g transform="matrix(1.0, 0.0, 0.0, 1.0, 15.0, 21.7)">
    <path d="M15.1 -0.1 Q15.1 8.8 10.75 15.0 6.35 21.3 0.2 21.3 -6.0 21.3 -10.35 15.0 -14.75 8.8 -14.75 -0.1 -14.75 -8.95 -10.35 -15.2 -6.0 -21.45 0.2 -21.45 6.35 -21.45 10.75 -15.2 15.1 -8.95 15.1 -0.1 M12.6 7.2 L11.05 10.4 Q10.95 11.45 9.45 13.65 L8.4 15.2 7.15 16.85 Q7.15 17.15 7.7 17.15 8.3 17.15 10.95 12.9 L14.4 4.8 14.05 4.05 12.6 7.2 M-2.55 0.7 L-2.45 1.0 Q-2.25 1.35 -1.35 1.35 -0.2 1.35 -0.2 0.7 -0.3 -0.1 -1.35 -0.1 -2.55 -0.1 -2.55 0.7" fill="#48288a" fill-rule="evenodd" stroke="none"/>
    <path d="M-2.55 0.7 Q-2.55 -0.1 -1.35 -0.1 -0.3 -0.1 -0.2 0.7 -0.2 1.35 -1.35 1.35 -2.25 1.35 -2.45 1.0 L-2.55 0.7" fill="#5731a8" fill-rule="evenodd" stroke="none"/>
    <path d="M12.6 7.2 L14.05 4.05 14.4 4.8 10.95 12.9 Q8.3 17.15 7.7 17.15 7.15 17.15 7.15 16.85 L8.4 15.2 9.45 13.65 Q10.95 11.45 11.05 10.4 L12.6 7.2" fill="#7045c9" fill-rule="evenodd" stroke="none"/>
    <path d="M15.1 -0.1 Q15.1 8.8 10.75 15.0 6.35 21.3 0.2 21.3 -6.0 21.3 -10.35 15.0 -14.75 8.8 -14.75 -0.1 -14.75 -8.95 -10.35 -15.2 -6.0 -21.45 0.2 -21.45 6.35 -21.45 10.75 -15.2 15.1 -8.95 15.1 -0.1 Z" fill="none" stroke="#261746" stroke-linecap="round" stroke-linejoin="round" stroke-width="0.5"/>
    <path d="M-4.85 6.85 L-2.9 3.4 Q-2.2 0.0 -1.55 0.0 -1.15 0.0 -1.0 0.65 L-0.9 0.65 Q0.25 0.65 0.1 4.7 0.1 7.6 -1.25 12.1 -1.9 14.1 -3.35 16.6 -4.85 19.35 -5.55 19.35 L-6.3 18.75 Q-8.8 18.2 -10.6 14.3 L-10.5 14.0 -11.05 14.05 Q-11.65 14.05 -11.6 13.65 -11.6 13.1 -11.05 12.95 -10.05 12.8 -9.25 12.05 L-7.45 10.25 Q-5.65 8.75 -4.85 6.85" fill="#5731a8" fill-rule="evenodd" stroke="none"/>
  </g>
</svg>
