<?xml version="1.0" encoding="UTF-8" standalone="no"?>
<svg xmlns:xlink="http://www.w3.org/1999/xlink" height="43.25px" width="30.35px" xmlns="http://www.w3.org/2000/svg">
  <g transform="matrix(1.0, 0.0, 0.0, 1.0, 15.0, 21.7)">
    <path d="M15.1 -0.1 Q15.1 8.8 10.75 15.0 6.35 21.3 0.2 21.3 -6.0 21.3 -10.35 15.0 -14.75 8.8 -14.75 -0.1 -14.75 -8.95 -10.35 -15.2 -6.0 -21.45 0.2 -21.45 6.35 -21.45 10.75 -15.2 15.1 -8.95 15.1 -0.1 M0.65 20.5 Q5.45 20.5 10.1 14.05 10.1 13.65 9.7 13.5 5.7 19.7 0.55 19.7 -3.35 19.7 -7.65 14.7 -8.25 14.0 -9.3 11.4 -10.15 9.3 -10.6 9.3 -11.15 9.3 -11.15 9.8 L-10.1 12.35 -8.45 15.25 -5.7 17.95 Q-5.15 18.75 -3.65 19.5 -1.6 20.5 0.65 20.5 M-2.55 0.7 L-2.45 1.0 Q-2.25 1.35 -1.35 1.35 -0.2 1.35 -0.2 0.7 -0.3 -0.1 -1.35 -0.1 -2.55 -0.1 -2.55 0.7" fill="#48288a" fill-rule="evenodd" stroke="none"/>
    <path d="M-2.55 0.7 Q-2.55 -0.1 -1.35 -0.1 -0.3 -0.1 -0.2 0.7 -0.2 1.35 -1.35 1.35 -2.25 1.35 -2.45 1.0 L-2.55 0.7" fill="#5731a8" fill-rule="evenodd" stroke="none"/>
    <path d="M0.65 20.5 Q-1.6 20.5 -3.65 19.5 -5.15 18.75 -5.7 17.95 L-8.45 15.25 -10.1 12.35 -11.15 9.8 Q-11.15 9.3 -10.6 9.3 -10.15 9.3 -9.3 11.4 -8.25 14.0 -7.65 14.7 -3.35 19.7 0.55 19.7 5.7 19.7 9.7 13.5 10.1 13.65 10.1 14.05 5.45 20.5 0.65 20.5" fill="#7045c9" fill-rule="evenodd" stroke="none"/>
    <path d="M15.1 -0.1 Q15.1 8.8 10.75 15.0 6.35 21.3 0.2 21.3 -6.0 21.3 -10.35 15.0 -14.75 8.8 -14.75 -0.1 -14.75 -8.95 -10.35 -15.2 -6.0 -21.45 0.2 -21.45 6.35 -21.45 10.75 -15.2 15.1 -8.95 15.1 -0.1 Z" fill="none" stroke="#261746" stroke-linecap="round" stroke-linejoin="round" stroke-width="0.5"/>
    <path d="M3.35 15.2 Q2.7 21.3 0.75 21.3 L0.25 21.2 -0.1 21.2 Q-1.65 21.2 -3.5 20.45 L-5.0 19.7 -5.55 19.85 Q-6.3 19.85 -6.3 19.35 -4.5 18.0 -3.75 15.55 L-2.25 11.75 Q-1.35 9.2 -1.35 4.1 L-1.7 1.05 -1.55 0.95 Q-1.55 0.7 -1.0 0.7 -0.4 0.7 0.8 3.45 1.9 6.1 2.25 7.95 L3.35 15.2" fill="#5731a8" fill-rule="evenodd" stroke="none"/>
  </g>
</svg>
