<?xml version="1.0" encoding="UTF-8" standalone="no"?>
<svg xmlns:xlink="http://www.w3.org/1999/xlink" height="43.25px" width="30.35px" xmlns="http://www.w3.org/2000/svg">
  <g transform="matrix(1.0, 0.0, 0.0, 1.0, 15.0, 21.7)">
    <path d="M15.1 -0.1 Q15.1 8.8 10.75 15.0 6.35 21.3 0.2 21.3 -6.0 21.3 -10.35 15.0 -14.75 8.8 -14.75 -0.1 -14.75 -8.95 -10.35 -15.2 -6.0 -21.45 0.2 -21.45 6.35 -21.45 10.75 -15.2 15.1 -8.95 15.1 -0.1 M0.55 -19.4 Q1.9 -19.4 3.55 -18.8 L5.15 -17.75 Q5.6 -17.75 5.7 -18.25 5.7 -18.75 4.35 -19.35 2.45 -20.1 -0.45 -20.1 -7.05 -20.1 -11.05 -10.2 L-11.15 -9.8 -10.95 -8.85 -10.85 -8.9 Q-10.9 -10.35 -8.05 -14.2 L-5.8 -16.8 -3.25 -18.75 Q-1.9 -19.4 0.55 -19.4 M-2.55 0.7 L-2.45 1.0 Q-2.25 1.35 -1.35 1.35 -0.2 1.35 -0.2 0.7 -0.3 -0.1 -1.35 -0.1 -2.55 -0.1 -2.55 0.7" fill="#48288a" fill-rule="evenodd" stroke="none"/>
    <path d="M-2.55 0.7 Q-2.55 -0.1 -1.35 -0.1 -0.3 -0.1 -0.2 0.7 -0.2 1.35 -1.35 1.35 -2.25 1.35 -2.45 1.0 L-2.55 0.7" fill="#5731a8" fill-rule="evenodd" stroke="none"/>
    <path d="M0.55 -19.4 Q-1.9 -19.4 -3.25 -18.75 L-5.8 -16.8 -8.05 -14.2 Q-10.9 -10.35 -10.85 -8.9 L-10.95 -8.85 -11.15 -9.8 -11.05 -10.2 Q-7.05 -20.1 -0.45 -20.1 2.45 -20.1 4.35 -19.35 5.7 -18.75 5.7 -18.25 5.6 -17.75 5.15 -17.75 L3.55 -18.8 Q1.9 -19.4 0.55 -19.4" fill="#7045c9" fill-rule="evenodd" stroke="none"/>
    <path d="M15.1 -0.1 Q15.1 8.8 10.75 15.0 6.35 21.3 0.2 21.3 -6.0 21.3 -10.35 15.0 -14.75 8.8 -14.75 -0.1 -14.75 -8.95 -10.35 -15.2 -6.0 -21.45 0.2 -21.45 6.35 -21.45 10.75 -15.2 15.1 -8.95 15.1 -0.1 Z" fill="none" stroke="#261746" stroke-linecap="round" stroke-linejoin="round" stroke-width="0.5"/>
    <path d="M13.95 9.55 Q13.95 9.9 13.4 9.9 13.1 11.05 11.65 13.35 10.1 15.95 9.6 16.2 L9.6 16.3 Q9.6 16.75 9.05 16.75 8.35 16.75 7.8 15.1 L7.0 12.75 Q5.25 9.95 4.75 8.65 L2.45 4.55 Q1.5 3.0 -0.35 1.65 L-2.0 0.45 -1.45 0.25 1.25 -0.05 2.05 0.15 3.25 0.0 Q4.8 0.0 6.35 1.1 L8.5 2.25 10.95 4.75 Q13.95 7.45 13.95 9.55" fill="#5731a8" fill-rule="evenodd" stroke="none"/>
  </g>
</svg>
