<?xml version="1.0" encoding="UTF-8" standalone="no"?>
<svg xmlns:xlink="http://www.w3.org/1999/xlink" height="43.25px" width="30.35px" xmlns="http://www.w3.org/2000/svg">
  <g transform="matrix(1.0, 0.0, 0.0, 1.0, 15.0, 21.7)">
    <path d="M3.9 -19.7 L6.85 -15.85 Q8.75 -13.45 9.3 -11.95 L12.1 -4.25 12.5 -0.75 Q12.5 0.15 11.55 2.25 10.65 4.35 10.65 5.3 L11.15 5.85 Q11.75 5.85 13.65 -0.7 13.65 -5.15 11.3 -10.2 L8.9 -14.95 6.6 -17.35 4.5 -19.75 3.9 -19.7 M10.75 -15.2 Q15.1 -8.95 15.1 -0.1 15.1 8.8 10.75 15.0 6.35 21.3 0.2 21.3 -6.0 21.3 -10.35 15.0 -14.75 8.8 -14.75 -0.1 -14.75 -8.95 -10.35 -15.2 -6.0 -21.45 0.2 -21.45 6.35 -21.45 10.75 -15.2 M-2.55 0.7 L-2.45 1.0 Q-2.25 1.35 -1.35 1.35 -0.2 1.35 -0.2 0.7 -0.3 -0.1 -1.35 -0.1 -2.55 -0.1 -2.55 0.7" fill="#48288a" fill-rule="evenodd" stroke="none"/>
    <path d="M-2.55 0.7 Q-2.55 -0.1 -1.35 -0.1 -0.3 -0.1 -0.2 0.7 -0.2 1.35 -1.35 1.35 -2.25 1.35 -2.45 1.0 L-2.55 0.7" fill="#5731a8" fill-rule="evenodd" stroke="none"/>
    <path d="M3.9 -19.7 L4.5 -19.75 6.6 -17.35 8.9 -14.95 11.3 -10.2 Q13.65 -5.15 13.65 -0.7 11.75 5.85 11.15 5.85 L10.65 5.3 Q10.65 4.35 11.55 2.25 12.5 0.15 12.5 -0.75 L12.1 -4.25 9.3 -11.95 Q8.75 -13.45 6.85 -15.85 L3.9 -19.7" fill="#7045c9" fill-rule="evenodd" stroke="none"/>
    <path d="M10.75 -15.2 Q15.1 -8.95 15.1 -0.1 15.1 8.8 10.75 15.0 6.35 21.3 0.2 21.3 -6.0 21.3 -10.35 15.0 -14.75 8.8 -14.75 -0.1 -14.75 -8.95 -10.35 -15.2 -6.0 -21.45 0.2 -21.45 6.35 -21.45 10.75 -15.2 Z" fill="none" stroke="#261746" stroke-linecap="round" stroke-linejoin="round" stroke-width="0.5"/>
    <path d="M6.15 -1.8 L7.25 -1.8 Q9.3 -1.85 12.4 -0.5 15.35 0.75 15.35 1.45 L14.85 1.9 14.85 3.6 Q14.1 8.1 13.75 8.55 L13.9 9.2 Q13.9 9.6 13.2 9.6 10.5 5.65 9.2 4.6 6.6 2.6 5.6 2.05 3.4 1.0 -0.35 0.35 L-1.05 0.5 -1.45 0.45 -1.55 0.3 -1.45 0.15 -1.8 0.15 Q-1.8 -0.1 -0.9 -0.2 L1.6 -0.95 6.15 -1.8" fill="#5731a8" fill-rule="evenodd" stroke="none"/>
  </g>
</svg>
