<?xml version="1.0" encoding="UTF-8" standalone="no"?>
<svg xmlns:xlink="http://www.w3.org/1999/xlink" height="43.25px" width="30.65px" xmlns="http://www.w3.org/2000/svg">
  <g transform="matrix(1.0, 0.0, 0.0, 1.0, 15.0, 21.7)">
    <path d="M15.1 -0.1 Q15.1 8.8 10.75 15.0 6.35 21.3 0.2 21.3 -6.0 21.3 -10.35 15.0 -14.75 8.8 -14.75 -0.1 -14.75 -8.95 -10.35 -15.2 -6.0 -21.45 0.2 -21.45 6.35 -21.45 10.75 -15.2 15.1 -8.95 15.1 -0.1 M12.95 6.8 Q12.3 6.8 11.85 10.0 L10.05 13.25 Q7.15 17.8 4.2 19.65 L4.35 19.7 4.8 19.7 Q6.95 19.2 10.25 14.6 13.45 10.15 13.45 8.15 13.6 6.8 12.95 6.8 M-2.55 0.7 L-2.45 1.0 Q-2.25 1.35 -1.35 1.35 -0.2 1.35 -0.2 0.7 -0.3 -0.1 -1.35 -0.1 -2.55 -0.1 -2.55 0.7" fill="#48288a" fill-rule="evenodd" stroke="none"/>
    <path d="M-2.55 0.7 Q-2.55 -0.1 -1.35 -0.1 -0.3 -0.1 -0.2 0.7 -0.2 1.35 -1.35 1.35 -2.25 1.35 -2.45 1.0 L-2.55 0.7" fill="#5731a8" fill-rule="evenodd" stroke="none"/>
    <path d="M12.95 6.8 Q13.6 6.8 13.45 8.15 13.45 10.15 10.25 14.6 6.95 19.2 4.8 19.7 L4.35 19.7 4.2 19.65 Q7.15 17.8 10.05 13.25 L11.85 10.0 Q12.3 6.8 12.95 6.8" fill="#7045c9" fill-rule="evenodd" stroke="none"/>
    <path d="M15.1 -0.1 Q15.1 8.8 10.75 15.0 6.35 21.3 0.2 21.3 -6.0 21.3 -10.35 15.0 -14.75 8.8 -14.75 -0.1 -14.75 -8.95 -10.35 -15.2 -6.0 -21.45 0.2 -21.45 6.35 -21.45 10.75 -15.2 15.1 -8.95 15.1 -0.1 Z" fill="none" stroke="#261746" stroke-linecap="round" stroke-linejoin="round" stroke-width="0.5"/>
    <path d="M15.1 -1.2 Q15.3 0.5 14.95 1.05 15.65 1.65 15.65 2.05 L15.0 2.45 Q14.5 2.45 13.95 2.0 L12.55 1.0 Q10.05 -0.5 4.6 -0.5 L0.9 0.1 -1.0 0.75 -1.25 0.45 -1.65 0.45 -1.7 0.2 7.15 -4.25 8.4 -4.95 12.85 -5.5 Q15.5 -5.5 14.95 -5.1 L14.55 -4.8 15.1 -1.2" fill="#5731a8" fill-rule="evenodd" stroke="none"/>
  </g>
</svg>
