<?xml version="1.0" encoding="UTF-8" standalone="no"?>
<svg xmlns:xlink="http://www.w3.org/1999/xlink" height="43.25px" width="30.35px" xmlns="http://www.w3.org/2000/svg">
  <g transform="matrix(1.0, 0.0, 0.0, 1.0, 15.0, 21.7)">
    <path d="M15.1 -2.25 Q14.95 -1.75 14.4 -1.75 12.15 -4.3 10.6 -4.3 8.8 -4.3 5.6 -3.2 L2.35 -1.85 -0.35 0.25 -0.2 0.7 Q-0.2 1.35 -1.35 1.35 -2.25 1.35 -2.45 1.0 L-2.55 0.7 Q-2.55 0.15 -1.85 0.0 L-1.7 -0.2 -1.8 -0.35 Q-1.8 -2.25 0.8 -4.75 4.9 -8.7 12.95 -8.7 14.1 -8.7 13.95 -8.3 L13.85 -8.25 14.1 -8.05 14.65 -5.75 14.85 -4.55 15.1 -3.0 15.0 -2.65 15.0 -2.55 15.1 -2.45 15.1 -2.4 15.1 -2.25" fill="#5731a8" fill-rule="evenodd" stroke="none"/>
    <path d="M14.1 -8.05 L13.85 -8.25 13.95 -8.3 Q14.1 -8.7 12.95 -8.7 4.9 -8.7 0.8 -4.75 -1.8 -2.25 -1.8 -0.35 L-1.7 -0.2 -1.85 0.0 Q-2.55 0.15 -2.55 0.7 L-2.45 1.0 Q-2.25 1.35 -1.35 1.35 -0.2 1.35 -0.2 0.7 L-0.35 0.25 2.35 -1.85 5.6 -3.2 Q8.8 -4.3 10.6 -4.3 12.15 -4.3 14.4 -1.75 14.95 -1.75 15.1 -2.25 L15.1 -0.1 Q15.1 8.8 10.75 15.0 6.35 21.3 0.2 21.3 L-1.45 21.2 -1.05 21.2 Q-0.4 21.2 -0.4 20.8 -0.4 20.4 -1.25 20.1 L-2.8 19.65 Q-4.7 18.2 -5.45 18.2 -5.8 18.2 -5.8 18.45 -4.05 20.6 -2.1 21.05 -6.85 20.05 -10.35 15.0 -14.75 8.8 -14.75 -0.1 -14.75 -8.95 -10.35 -15.2 -6.0 -21.45 0.2 -21.45 6.35 -21.45 10.75 -15.2 13.05 -11.95 14.1 -8.05 M15.1 -2.45 L15.0 -2.55 15.0 -2.65 15.1 -2.45" fill="#48288a" fill-rule="evenodd" stroke="none"/>
    <path d="M-2.1 21.05 Q-4.05 20.6 -5.8 18.45 -5.8 18.2 -5.45 18.2 -4.7 18.2 -2.8 19.65 L-1.25 20.1 Q-0.4 20.4 -0.4 20.8 -0.4 21.2 -1.05 21.2 L-1.45 21.2 -1.55 21.15 -1.7 21.15 -1.8 21.1 -1.9 21.1 -2.0 21.05 -2.1 21.05" fill="#7045c9" fill-rule="evenodd" stroke="none"/>
    <path d="M14.1 -8.05 Q13.05 -11.95 10.75 -15.2 6.35 -21.45 0.2 -21.45 -6.0 -21.45 -10.35 -15.2 -14.75 -8.95 -14.75 -0.1 -14.75 8.8 -10.35 15.0 -6.85 20.05 -2.1 21.05 L-2.0 21.05 -1.9 21.1 -1.8 21.1 -1.7 21.15 -1.55 21.15 -1.45 21.2 0.2 21.3 Q6.35 21.3 10.75 15.0 15.1 8.8 15.1 -0.1 L15.1 -2.25 M14.85 -4.55 L14.65 -5.75 14.1 -8.05 M15.0 -2.65 L15.1 -2.45" fill="none" stroke="#261746" stroke-linecap="round" stroke-linejoin="round" stroke-width="0.5"/>
  </g>
</svg>
