<?xml version="1.0" encoding="UTF-8" standalone="no"?>
<svg xmlns:xlink="http://www.w3.org/1999/xlink" height="43.25px" width="26.9px" xmlns="http://www.w3.org/2000/svg">
  <g transform="matrix(1.0, 0.0, 0.0, 1.0, 13.05, 21.7)">
    <path d="M13.6 -2.25 Q13.5 -1.75 12.95 -1.75 11.0 -4.3 9.6 -4.3 8.0 -4.3 5.2 -3.2 L2.3 -1.85 -0.1 0.25 0.05 0.7 Q0.05 1.35 -0.95 1.35 -1.75 1.35 -1.95 1.0 L-2.0 0.7 Q-2.0 0.15 -1.4 0.0 L-1.25 -0.2 -1.35 -0.35 Q-1.35 -2.25 0.95 -4.75 4.6 -8.7 11.75 -8.7 12.7 -8.7 12.55 -8.3 L12.5 -8.25 12.7 -8.05 13.2 -5.75 13.4 -4.55 13.6 -3.0 13.55 -2.65 13.55 -2.55 13.6 -2.45 13.6 -2.4 13.6 -2.25" fill="#5731a8" fill-rule="evenodd" stroke="none"/>
    <path d="M-1.65 21.0 Q-5.8 20.0 -8.95 15.0 -12.8 8.8 -12.8 -0.1 -12.8 -8.95 -8.95 -15.2 -5.05 -21.45 0.4 -21.45 5.85 -21.45 9.75 -15.2 11.75 -11.95 12.7 -8.05 L12.5 -8.25 12.55 -8.3 Q12.7 -8.7 11.75 -8.7 4.6 -8.7 0.95 -4.75 -1.35 -2.25 -1.35 -0.35 L-1.25 -0.2 -1.4 0.0 Q-2.0 0.15 -2.0 0.7 L-1.95 1.0 Q-1.75 1.35 -0.95 1.35 0.05 1.35 0.05 0.7 L-0.1 0.25 2.3 -1.85 5.2 -3.2 Q8.0 -4.3 9.6 -4.3 11.0 -4.3 12.95 -1.75 13.5 -1.75 13.6 -2.25 L13.6 -0.1 Q13.6 8.8 9.75 15.0 5.85 21.3 0.4 21.3 L-1.0 21.2 -0.7 21.2 Q-0.1 21.2 -0.1 20.8 -0.1 20.4 -0.9 20.1 L-2.25 19.65 Q-3.95 18.2 -4.55 18.2 L-4.9 18.45 Q-3.35 20.55 -1.65 21.0 M13.55 -2.65 L13.6 -2.45 13.55 -2.55 13.55 -2.65" fill="#48288a" fill-rule="evenodd" stroke="none"/>
    <path d="M-1.65 21.0 Q-3.35 20.55 -4.9 18.45 L-4.55 18.2 Q-3.95 18.2 -2.25 19.65 L-0.9 20.1 Q-0.1 20.4 -0.1 20.8 -0.1 21.2 -0.7 21.2 L-1.0 21.2 -1.05 21.15 -1.25 21.15 -1.35 21.1 -1.45 21.1 -1.5 21.05 -1.65 21.0" fill="#7045c9" fill-rule="evenodd" stroke="none"/>
    <path d="M12.7 -8.05 Q11.75 -11.95 9.75 -15.2 5.85 -21.45 0.4 -21.45 -5.05 -21.45 -8.95 -15.2 -12.8 -8.95 -12.8 -0.1 -12.8 8.8 -8.95 15.0 -5.8 20.0 -1.65 21.0 L-1.5 21.05 -1.45 21.1 -1.35 21.1 -1.25 21.15 -1.05 21.15 M-1.0 21.2 L0.4 21.3 Q5.85 21.3 9.75 15.0 13.6 8.8 13.6 -0.1 L13.6 -2.25 M12.7 -8.05 L13.2 -5.75 13.4 -4.55 M13.55 -2.65 L13.6 -2.45" fill="none" stroke="#261746" stroke-linecap="round" stroke-linejoin="round" stroke-width="0.5"/>
  </g>
</svg>
