<?xml version="1.0" encoding="UTF-8" standalone="no"?>
<svg xmlns:xlink="http://www.w3.org/1999/xlink" height="43.25px" width="25.7px" xmlns="http://www.w3.org/2000/svg">
  <g transform="matrix(1.0, 0.0, 0.0, 1.0, 12.35, 21.7)">
    <path d="M12.95 -2.25 Q12.95 -1.75 12.4 -1.75 10.55 -4.3 9.2 -4.3 7.7 -4.3 5.0 -3.2 L2.3 -1.85 Q1.5 -1.3 0.0 0.25 L0.15 0.7 Q0.15 1.35 -0.8 1.35 -1.6 1.35 -1.75 1.0 L-1.8 0.7 Q-1.8 0.15 -1.3 0.0 L-1.15 -0.2 -1.2 -0.35 Q-1.2 -2.25 0.95 -4.75 4.45 -8.7 11.2 -8.7 12.2 -8.7 12.05 -8.3 L12.0 -8.25 12.2 -8.05 12.7 -5.75 12.8 -4.55 13.05 -3.0 12.95 -2.65 12.95 -2.6 12.95 -2.55 12.95 -2.45 Q12.95 -2.4 13.05 -2.4 L12.95 -2.25" fill="#5731a8" fill-rule="evenodd" stroke="none"/>
    <path d="M-1.45 21.05 Q-5.45 20.05 -8.4 15.0 -12.1 8.8 -12.1 -0.1 -12.1 -8.95 -8.4 -15.2 -4.75 -21.45 0.5 -21.45 5.65 -21.45 9.35 -15.2 11.25 -11.95 12.2 -8.05 L12.0 -8.25 12.05 -8.3 Q12.2 -8.7 11.2 -8.7 4.45 -8.7 0.95 -4.75 -1.2 -2.25 -1.2 -0.35 L-1.15 -0.2 -1.3 0.0 Q-1.8 0.15 -1.8 0.7 L-1.75 1.0 Q-1.6 1.35 -0.8 1.35 0.15 1.35 0.15 0.7 L0.0 0.25 Q1.5 -1.3 2.3 -1.85 L5.0 -3.2 Q7.7 -4.3 9.2 -4.3 10.55 -4.3 12.4 -1.75 12.95 -1.75 12.95 -2.25 L13.1 -0.1 Q13.1 8.8 9.35 15.0 5.65 21.3 0.5 21.3 L-0.8 21.2 -0.6 21.2 Q0.0 21.2 0.0 20.8 0.0 20.4 -0.75 20.1 L-2.1 19.65 Q-3.65 18.2 -4.3 18.2 L-4.6 18.45 Q-3.1 20.6 -1.45 21.05" fill="#48288a" fill-rule="evenodd" stroke="none"/>
    <path d="M-1.45 21.05 Q-3.1 20.6 -4.6 18.45 L-4.3 18.2 Q-3.65 18.2 -2.1 19.65 L-0.75 20.1 Q0.0 20.4 0.0 20.8 0.0 21.2 -0.6 21.2 L-0.8 21.2 -1.0 21.15 -1.1 21.15 -1.2 21.1 -1.3 21.1 -1.35 21.05 -1.45 21.05" fill="#7045c9" fill-rule="evenodd" stroke="none"/>
    <path d="M12.2 -8.05 Q11.25 -11.95 9.35 -15.2 5.65 -21.45 0.5 -21.45 -4.75 -21.45 -8.4 -15.2 -12.1 -8.95 -12.1 -0.1 -12.1 8.8 -8.4 15.0 -5.45 20.05 -1.45 21.05 L-1.35 21.05 -1.3 21.1 -1.2 21.1 -1.1 21.15 -1.0 21.15 -0.8 21.2 0.5 21.3 Q5.65 21.3 9.35 15.0 13.1 8.8 13.1 -0.1 L12.95 -2.25 M12.2 -8.05 L12.7 -5.75 12.8 -4.55 M12.95 -2.65 L12.95 -2.6" fill="none" stroke="#261746" stroke-linecap="round" stroke-linejoin="round" stroke-width="0.5"/>
  </g>
</svg>
