<?xml version="1.0" encoding="UTF-8" standalone="no"?>
<svg xmlns:xlink="http://www.w3.org/1999/xlink" height="43.25px" width="28.45px" xmlns="http://www.w3.org/2000/svg">
  <g transform="matrix(1.0, 0.0, 0.0, 1.0, 14.25, 21.7)">
    <path d="M13.85 -2.25 Q13.75 -1.75 13.2 -1.75 11.1 -4.3 9.7 -4.3 8.0 -4.3 5.05 -3.2 L2.0 -1.85 Q1.15 -1.3 -0.6 0.25 L-0.4 0.7 Q-0.4 1.35 -1.5 1.35 -2.35 1.35 -2.55 1.0 L-2.6 0.7 Q-2.65 0.15 -2.05 0.0 L-1.85 -0.2 -1.95 -0.35 Q-1.95 -2.25 0.45 -4.75 4.35 -8.7 11.9 -8.7 12.95 -8.7 12.8 -8.3 L12.75 -8.25 12.95 -8.05 13.5 -5.75 Q13.5 -5.15 13.65 -4.55 L13.9 -3.0 13.85 -2.65 13.85 -2.6 13.85 -2.55 13.85 -2.45 13.9 -2.4 13.85 -2.25" fill="#5731a8" fill-rule="evenodd" stroke="none"/>
    <path d="M12.95 -8.05 L12.75 -8.25 12.8 -8.3 Q12.95 -8.7 11.9 -8.7 4.35 -8.7 0.45 -4.75 -1.95 -2.25 -1.95 -0.35 L-1.85 -0.2 -2.05 0.0 Q-2.65 0.15 -2.6 0.7 L-2.55 1.0 Q-2.35 1.35 -1.5 1.35 -0.4 1.35 -0.4 0.7 L-0.6 0.25 Q1.15 -1.3 2.0 -1.85 L5.05 -3.2 Q8.0 -4.3 9.7 -4.3 11.1 -4.3 13.2 -1.75 13.75 -1.75 13.85 -2.25 L13.95 -0.1 Q13.95 8.8 9.85 15.0 5.7 21.3 -0.05 21.3 L-1.6 21.2 -1.2 21.2 Q-0.6 21.2 -0.6 20.8 -0.65 20.4 -1.45 20.1 L-2.9 19.65 Q-4.7 18.2 -5.35 18.2 -5.7 18.2 -5.65 18.45 -4.1 20.5 -2.3 21.0 -6.7 19.95 -9.95 15.0 -14.1 8.8 -14.0 -0.1 -14.1 -8.95 -9.95 -15.2 -5.85 -21.45 -0.05 -21.45 5.7 -21.45 9.85 -15.2 11.9 -11.95 12.95 -8.05" fill="#48288a" fill-rule="evenodd" stroke="none"/>
    <path d="M-2.3 21.0 Q-4.1 20.5 -5.65 18.45 -5.7 18.2 -5.35 18.2 -4.7 18.2 -2.9 19.65 L-1.45 20.1 Q-0.65 20.4 -0.6 20.8 -0.6 21.2 -1.2 21.2 L-1.6 21.2 -1.7 21.15 -1.8 21.15 -1.95 21.1 -2.05 21.1 -2.1 21.05 -2.3 21.0" fill="#7045c9" fill-rule="evenodd" stroke="none"/>
    <path d="M13.85 -2.6 L13.85 -2.65 M13.65 -4.55 Q13.5 -5.15 13.5 -5.75 L12.95 -8.05 Q11.9 -11.95 9.85 -15.2 5.7 -21.45 -0.05 -21.45 -5.85 -21.45 -9.95 -15.2 -14.1 -8.95 -14.0 -0.1 -14.1 8.8 -9.95 15.0 -6.7 19.95 -2.3 21.0 L-2.1 21.05 -2.05 21.1 -1.95 21.1 -1.8 21.15 -1.7 21.15 -1.6 21.2 -0.05 21.3 Q5.7 21.3 9.85 15.0 13.95 8.8 13.95 -0.1 L13.85 -2.25" fill="none" stroke="#261746" stroke-linecap="round" stroke-linejoin="round" stroke-width="0.5"/>
  </g>
</svg>
