<?xml version="1.0" encoding="UTF-8" standalone="no"?>
<svg xmlns:xlink="http://www.w3.org/1999/xlink" height="43.25px" width="31.1px" xmlns="http://www.w3.org/2000/svg">
  <g transform="matrix(1.0, 0.0, 0.0, 1.0, 15.6, 21.7)">
    <path d="M15.1 -2.25 Q15.05 -1.75 14.45 -1.75 12.15 -4.3 10.55 -4.3 8.75 -4.3 5.5 -3.2 L2.15 -1.85 Q1.25 -1.3 -0.6 0.25 L-0.4 0.7 Q-0.5 1.35 -1.6 1.35 -2.55 1.35 -2.8 1.0 L-2.85 0.7 Q-2.85 0.15 -2.2 0.0 L-2.0 -0.2 -2.1 -0.35 Q-2.1 -2.25 0.55 -4.75 4.75 -8.7 13.0 -8.7 14.15 -8.7 14.0 -8.3 L13.95 -8.25 14.15 -8.05 14.7 -5.75 14.9 -4.55 15.2 -3.0 15.1 -2.65 15.1 -2.6 15.1 -2.55 15.1 -2.45 15.2 -2.4 15.1 -2.25" fill="#5731a8" fill-rule="evenodd" stroke="none"/>
    <path d="M14.15 -8.05 L13.95 -8.25 14.0 -8.3 Q14.15 -8.7 13.0 -8.7 4.75 -8.7 0.55 -4.75 -2.1 -2.25 -2.1 -0.35 L-2.0 -0.2 -2.2 0.0 Q-2.85 0.15 -2.85 0.7 L-2.8 1.0 Q-2.55 1.35 -1.6 1.35 -0.5 1.35 -0.4 0.7 L-0.6 0.25 Q1.25 -1.3 2.15 -1.85 L5.5 -3.2 Q8.75 -4.3 10.55 -4.3 12.15 -4.3 14.45 -1.75 15.05 -1.75 15.1 -2.25 L15.25 -0.1 Q15.25 8.8 10.75 15.0 6.25 21.3 0.0 21.3 L-1.75 21.2 -1.35 21.2 Q-0.65 21.2 -0.65 20.8 -0.7 20.4 -1.55 20.1 L-3.15 19.65 Q-5.1 18.2 -5.8 18.2 L-6.2 18.45 Q-4.4 20.5 -2.5 21.0 -7.25 19.95 -10.85 15.0 -15.35 8.8 -15.35 -0.1 -15.35 -8.95 -10.85 -15.2 -6.35 -21.45 0.0 -21.45 6.25 -21.45 10.75 -15.2 13.05 -11.95 14.15 -8.05" fill="#48288a" fill-rule="evenodd" stroke="none"/>
    <path d="M-2.5 21.0 Q-4.4 20.5 -6.2 18.45 L-5.8 18.2 Q-5.1 18.2 -3.15 19.65 L-1.55 20.1 Q-0.7 20.4 -0.65 20.8 -0.65 21.2 -1.35 21.2 L-1.75 21.2 -1.8 21.15 -2.0 21.15 -2.1 21.1 -2.25 21.1 -2.25 21.05 -2.5 21.0" fill="#7045c9" fill-rule="evenodd" stroke="none"/>
    <path d="M14.15 -8.05 Q13.05 -11.95 10.75 -15.2 6.25 -21.45 0.0 -21.45 -6.35 -21.45 -10.85 -15.2 -15.35 -8.95 -15.35 -0.1 -15.35 8.8 -10.85 15.0 -7.25 19.95 -2.5 21.0 L-2.25 21.05 -2.25 21.1 -2.1 21.1 -2.0 21.15 -1.8 21.15 -1.75 21.2 0.0 21.3 Q6.25 21.3 10.75 15.0 15.25 8.8 15.25 -0.1 L15.1 -2.25 M15.1 -2.6 L15.1 -2.65 M14.9 -4.55 L14.7 -5.75 14.15 -8.05 Z" fill="none" stroke="#261746" stroke-linecap="round" stroke-linejoin="round" stroke-width="0.5"/>
  </g>
</svg>
