<?xml version="1.0" encoding="UTF-8" standalone="no"?>
<svg xmlns:xlink="http://www.w3.org/1999/xlink" height="43.25px" width="27.3px" xmlns="http://www.w3.org/2000/svg">
  <g transform="matrix(1.0, 0.0, 0.0, 1.0, 13.7, 21.7)">
    <path d="M12.75 -11.2 Q12.05 -11.0 12.05 -8.85 L12.05 -8.7 Q4.5 -8.5 0.55 -4.75 -2.15 -2.25 -2.1 -0.35 L-2.0 -0.2 -2.25 0.0 Q-2.9 0.15 -2.8 0.7 L-2.8 1.0 Q-2.55 1.35 -1.65 1.35 -0.45 1.35 -0.45 0.7 L-0.65 0.25 2.15 -1.85 5.5 -3.2 Q8.75 -4.3 10.6 -4.3 11.3 -4.3 12.2 -3.75 L12.2 9.2 12.15 10.75 Q12.2 11.45 12.65 11.9 L10.75 15.0 Q6.25 21.3 0.0 21.3 L-1.75 21.2 -1.35 21.2 Q-0.65 21.2 -0.65 20.8 -0.75 20.4 -1.6 20.1 L-3.15 19.65 Q-5.1 18.2 -5.8 18.2 L-6.2 18.45 Q-4.35 20.6 -2.4 21.05 -7.3 20.05 -10.85 15.0 L-13.2 10.9 -13.2 10.55 -12.85 10.7 Q-12.05 10.7 -12.2 -1.4 L-12.2 -6.7 Q-12.2 -11.7 -12.75 -12.1 L-10.85 -15.2 Q-6.35 -21.45 0.0 -21.45 6.25 -21.45 10.75 -15.2 L12.75 -11.8 12.75 -11.2" fill="#48288a" fill-rule="evenodd" stroke="none"/>
    <path d="M12.65 11.9 Q12.2 11.45 12.15 10.75 L12.2 9.2 12.2 -3.75 Q11.3 -4.3 10.6 -4.3 8.75 -4.3 5.5 -3.2 L2.15 -1.85 -0.65 0.25 -0.45 0.7 Q-0.45 1.35 -1.65 1.35 -2.55 1.35 -2.8 1.0 L-2.8 0.7 Q-2.9 0.15 -2.25 0.0 L-2.0 -0.2 -2.1 -0.35 Q-2.15 -2.25 0.55 -4.75 4.5 -8.5 12.05 -8.7 L12.05 -8.85 Q12.05 -11.0 12.75 -11.2 L12.95 -11.25 Q13.55 -11.25 13.55 -5.6 L13.55 0.05 13.55 6.15 13.6 9.2 Q13.6 11.0 12.95 12.15 L12.65 11.9 M-12.75 -12.1 Q-12.2 -11.7 -12.2 -6.7 L-12.2 -1.4 Q-12.05 10.7 -12.85 10.7 L-13.2 10.55 Q-13.7 10.1 -13.7 8.4 L-13.55 4.6 -13.55 -6.8 -13.7 -9.9 Q-13.7 -12.1 -12.85 -12.1 L-12.75 -12.1" fill="#5731a8" fill-rule="evenodd" stroke="none"/>
    <path d="M-2.4 21.05 Q-4.35 20.6 -6.2 18.45 L-5.8 18.2 Q-5.1 18.2 -3.15 19.65 L-1.6 20.1 Q-0.75 20.4 -0.65 20.8 -0.65 21.2 -1.35 21.2 L-1.75 21.2 -1.8 21.15 -2.0 21.15 -2.1 21.1 -2.25 21.1 -2.3 21.05 -2.4 21.05" fill="#7045c9" fill-rule="evenodd" stroke="none"/>
    <path d="M12.75 -11.8 L10.75 -15.2 Q6.25 -21.45 0.0 -21.45 -6.35 -21.45 -10.85 -15.2 L-12.75 -12.1 M-13.2 10.9 L-10.85 15.0 Q-7.3 20.05 -2.4 21.05 L-2.3 21.05 -2.25 21.1 -2.1 21.1 -2.0 21.15 -1.8 21.15 -1.75 21.2 0.0 21.3 Q6.25 21.3 10.75 15.0 L12.65 11.9" fill="none" stroke="#261746" stroke-linecap="round" stroke-linejoin="round" stroke-width="0.5"/>
  </g>
</svg>
