<?xml version="1.0" encoding="UTF-8" standalone="no"?>
<svg xmlns:xlink="http://www.w3.org/1999/xlink" height="43.25px" width="14.3px" xmlns="http://www.w3.org/2000/svg">
  <g transform="matrix(1.0, 0.0, 0.0, 1.0, 7.5, 21.7)">
    <path d="M6.25 -19.65 L6.25 -19.55 6.15 -19.65 Q5.5 -19.65 5.5 -10.9 L5.5 -7.65 Q2.6 -6.65 0.55 -4.75 -2.15 -2.25 -2.1 -0.35 L-2.0 -0.2 -2.25 0.0 Q-2.9 0.15 -2.8 0.7 L-2.8 1.0 Q-2.55 1.35 -1.65 1.35 -0.45 1.35 -0.45 0.7 L-0.65 0.25 2.15 -1.85 5.5 -3.2 5.5 -2.15 Q5.25 19.45 6.15 19.45 L6.25 19.45 Q3.4 21.3 0.0 21.3 L-1.75 21.2 -1.35 21.2 Q-0.65 21.2 -0.65 20.8 -0.75 20.4 -1.6 20.1 L-3.15 19.65 Q-5.1 18.2 -5.8 18.2 L-6.2 18.45 Q-4.3 20.65 -2.3 21.05 -4.5 20.65 -6.45 19.35 L-6.2 19.25 -6.15 19.1 -6.4 18.75 -6.2 -19.7 Q-3.35 -21.45 0.0 -21.45 3.4 -21.45 6.25 -19.65" fill="#48288a" fill-rule="evenodd" stroke="none"/>
    <path d="M-6.2 -19.7 L-6.4 18.75 -6.15 19.1 -6.2 19.25 -6.45 19.35 -6.5 19.35 Q-7.4 19.35 -7.5 18.1 L-7.5 16.15 -7.5 -19.8 -6.2 -19.8 -6.2 -19.7 M6.25 19.45 L6.15 19.45 Q5.25 19.45 5.5 -2.15 L5.5 -3.2 2.15 -1.85 -0.65 0.25 -0.45 0.7 Q-0.45 1.35 -1.65 1.35 -2.55 1.35 -2.8 1.0 L-2.8 0.7 Q-2.9 0.15 -2.25 0.0 L-2.0 -0.2 -2.1 -0.35 Q-2.15 -2.25 0.55 -4.75 2.6 -6.65 5.5 -7.65 L5.5 -10.9 Q5.5 -19.65 6.15 -19.65 L6.25 -19.55 Q6.8 -18.8 6.8 -9.95 L6.8 -0.35 Q6.8 16.0 6.5 19.35 L6.25 19.45" fill="#5731a8" fill-rule="evenodd" stroke="none"/>
    <path d="M-2.3 21.05 Q-4.3 20.65 -6.2 18.45 L-5.8 18.2 Q-5.1 18.2 -3.15 19.65 L-1.6 20.1 Q-0.75 20.4 -0.65 20.8 -0.65 21.2 -1.35 21.2 L-1.75 21.2 -1.8 21.15 -2.0 21.15 -2.1 21.1 -2.25 21.1 -2.3 21.05" fill="#7045c9" fill-rule="evenodd" stroke="none"/>
    <path d="M6.25 -19.65 Q3.4 -21.45 0.0 -21.45 -3.35 -21.45 -6.2 -19.7 M-6.45 19.35 Q-4.5 20.65 -2.3 21.05 L-2.25 21.1 -2.1 21.1 -2.0 21.15 -1.8 21.15 -1.75 21.2 0.0 21.3 Q3.4 21.3 6.25 19.45" fill="none" stroke="#261746" stroke-linecap="round" stroke-linejoin="round" stroke-width="0.5"/>
  </g>
</svg>
