<?xml version="1.0" encoding="UTF-8" standalone="no"?>
<svg xmlns:xlink="http://www.w3.org/1999/xlink" height="43.25px" width="5.85px" xmlns="http://www.w3.org/2000/svg">
  <g transform="matrix(1.0, 0.0, 0.0, 1.0, 3.2, 21.7)">
    <path d="M-2.4 -21.15 L0.2 -21.45 1.75 -21.35 1.35 -18.7 1.35 -5.2 0.8 -4.75 Q-1.8 -2.25 -1.8 -0.35 L-1.7 -0.2 -1.85 0.0 -2.0 0.05 -2.1 -16.4 -2.4 -20.3 -2.4 -21.15 M1.9 21.05 L1.9 21.2 0.2 21.3 -1.45 21.2 -1.05 21.2 Q-0.4 21.2 -0.4 20.8 -0.4 20.4 -1.25 20.1 L-1.9 19.95 -1.85 15.2 Q-1.75 14.3 -2.0 14.05 L-2.0 1.25 -1.35 1.35 Q-0.2 1.35 -0.2 0.7 L-0.35 0.25 1.35 -1.1 1.35 13.4 1.25 13.7 1.25 14.5 1.35 17.45 Q1.45 20.25 1.9 21.05" fill="#48288a" fill-rule="evenodd" stroke="none"/>
    <path d="M-2.4 -20.3 L-2.1 -16.4 -2.0 0.05 -1.85 0.0 -1.7 -0.2 -1.8 -0.35 Q-1.8 -2.25 0.8 -4.75 L1.35 -5.2 1.35 -18.7 1.75 -21.35 1.9 -21.5 Q2.6 -21.5 2.65 -19.4 L2.6 -16.15 2.6 14.7 2.45 14.7 2.25 20.75 1.9 21.05 Q1.45 20.25 1.35 17.45 L1.25 14.5 1.25 13.7 1.35 13.4 1.35 -1.1 -0.35 0.25 -0.2 0.7 Q-0.2 1.35 -1.35 1.35 L-2.0 1.25 -2.0 14.05 Q-1.75 14.3 -1.85 15.2 L-1.9 19.95 -2.0 20.8 -2.15 21.05 -2.4 21.2 Q-2.95 19.9 -2.95 15.0 L-2.95 14.7 -3.2 14.7 -3.1 -17.05 Q-3.1 -20.65 -2.6 -21.4 L-2.4 -20.3" fill="#5731a8" fill-rule="evenodd" stroke="none"/>
    <path d="M-1.45 21.2 L-1.55 21.15 -1.7 21.15 -1.8 21.1 -1.9 21.1 -2.0 21.05 -2.15 21.05 -2.0 20.8 -1.9 19.95 -1.25 20.1 Q-0.4 20.4 -0.4 20.8 -0.4 21.2 -1.05 21.2 L-1.45 21.2" fill="#7045c9" fill-rule="evenodd" stroke="none"/>
    <path d="M1.75 -21.35 L0.2 -21.45 -2.4 -21.15 M1.9 21.2 L0.2 21.3 -1.45 21.2 -1.55 21.15 -1.7 21.15 -1.8 21.1 -1.9 21.1 -2.0 21.05 -2.15 21.05" fill="none" stroke="#261746" stroke-linecap="round" stroke-linejoin="round" stroke-width="0.5"/>
  </g>
</svg>
