<?xml version="1.0" encoding="UTF-8" standalone="no"?>
<svg xmlns:xlink="http://www.w3.org/1999/xlink" height="18.75px" width="38.1px" xmlns="http://www.w3.org/2000/svg">
  <g transform="matrix(1.0, 0.0, 0.0, 1.0, 18.55, -2.95)">
    <path d="M19.25 2.95 L19.55 3.1 Q19.55 3.75 13.65 17.85 L13.45 17.75 Q14.05 15.25 16.3 10.4 18.45 5.65 19.1 3.0 L19.25 2.95 M15.1 19.55 L14.4 19.6 10.6 19.4 5.6 19.5 2.35 19.6 -0.35 19.75 -0.2 19.8 -1.35 19.85 -2.45 19.85 -2.55 19.8 -1.85 19.75 -1.7 19.7 -1.8 19.7 0.8 19.4 12.95 19.05 13.95 19.1 14.1 19.1 14.65 19.3 14.85 19.4 15.1 19.5 15.0 19.55 15.1 19.55 M-13.1 19.0 L-13.2 19.0 -13.65 17.8 -13.1 19.0 M-18.35 7.8 Q-17.4 7.8 -15.75 12.4 L-14.3 16.2 Q-16.65 10.7 -18.55 7.85 L-18.35 7.8" fill="#5731a8" fill-rule="evenodd" stroke="none"/>
    <path d="M14.1 19.1 L13.95 19.1 12.95 19.05 0.8 19.4 -1.8 19.7 -1.7 19.7 -1.85 19.75 -2.55 19.8 -2.45 19.85 -1.35 19.85 -0.2 19.8 -0.35 19.75 2.35 19.6 5.6 19.5 10.6 19.4 14.4 19.6 15.1 19.55 15.1 19.75 Q15.1 20.45 10.75 20.95 L0.2 21.45 -0.55 21.45 -0.4 21.4 -1.25 21.35 -2.8 21.3 -5.45 21.2 -5.8 21.2 -2.95 21.45 -10.35 20.95 Q-14.75 20.45 -14.75 19.75 -14.75 19.3 -13.2 19.0 L-13.1 19.0 -10.35 18.55 0.2 18.05 10.75 18.55 14.1 19.1" fill="#48288a" fill-rule="evenodd" stroke="none"/>
    <path d="M-2.95 21.45 L-5.8 21.2 -5.45 21.2 -2.8 21.3 -1.25 21.35 -0.4 21.4 -0.55 21.45 -1.05 21.45 -1.55 21.45 -1.7 21.45 -1.8 21.45 -1.9 21.45 -2.95 21.45" fill="#7045c9" fill-rule="evenodd" stroke="none"/>
    <path d="M14.1 19.1 L10.75 18.55 0.2 18.05 -10.35 18.55 -13.1 19.0 -13.2 19.0 Q-14.75 19.3 -14.75 19.75 -14.75 20.45 -10.35 20.95 L-2.95 21.45 -1.9 21.45 -1.8 21.45 -1.7 21.45 -1.55 21.45 -1.05 21.45 -0.55 21.45 0.2 21.45 10.75 20.95 Q15.1 20.45 15.1 19.75 L15.1 19.55 15.0 19.55 M14.85 19.4 L14.65 19.3 14.1 19.1 Z" fill="none" stroke="#261746" stroke-linecap="round" stroke-linejoin="round" stroke-width="0.5"/>
  </g>
</svg>
