<?xml version="1.0" encoding="UTF-8" standalone="no"?>
<svg xmlns:xlink="http://www.w3.org/1999/xlink" height="28.2px" width="48.7px" xmlns="http://www.w3.org/2000/svg">
  <g transform="matrix(1.0, 0.0, 0.0, 1.0, 22.9, 6.65)">
    <path d="M-2.95 21.05 Q-7.15 20.25 -10.35 17.55 -14.75 13.9 -14.75 8.65 -14.75 3.45 -10.35 -0.2 -6.0 -3.85 0.2 -3.85 6.35 -3.85 10.75 -0.2 13.05 1.75 14.1 4.1 L13.85 3.95 13.95 3.95 Q14.1 3.7 12.95 3.7 6.75 3.65 2.9 5.05 L2.9 5.0 Q3.6 4.5 6.4 3.65 L10.1 2.6 Q9.85 2.3 8.85 2.3 5.95 2.3 2.3 4.6 0.25 5.9 -0.5 6.8 -1.8 7.75 -1.8 8.55 L-1.7 8.65 -1.85 8.8 Q-2.55 8.9 -2.55 9.2 L-2.45 9.35 -1.35 9.6 Q-0.2 9.6 -0.2 9.2 L-0.35 8.95 Q1.5 8.05 2.35 7.7 L5.6 6.9 10.6 6.25 Q12.15 6.25 14.4 7.7 14.95 7.75 15.1 7.45 L15.1 8.65 15.1 9.45 14.95 9.8 8.4 19.2 Q4.8 21.3 0.2 21.3 L-1.05 21.2 Q-0.4 21.2 -0.4 20.9 L-1.25 20.65 -2.8 20.25 Q-4.7 19.45 -5.45 19.45 L-5.8 19.55 Q-4.45 20.55 -2.95 21.05 M15.0 7.2 L15.1 7.3 15.0 7.3 15.0 7.2" fill="#48288a" fill-rule="evenodd" stroke="none"/>
    <path d="M14.1 4.1 L14.65 5.45 14.85 6.1 15.1 7.05 15.0 7.2 15.0 7.3 15.1 7.3 15.1 7.45 Q14.95 7.75 14.4 7.7 12.15 6.25 10.6 6.25 L5.6 6.9 2.35 7.7 Q1.5 8.05 -0.35 8.95 L-0.2 9.2 Q-0.2 9.6 -1.35 9.6 L-2.45 9.35 -2.55 9.2 Q-2.55 8.9 -1.85 8.8 L-1.7 8.65 -1.8 8.55 Q-1.8 7.75 -0.5 6.8 L-1.0 7.8 -0.8 8.3 0.0 8.2 Q0.25 7.05 2.9 5.05 6.75 3.65 12.95 3.7 14.1 3.7 13.95 3.95 L13.85 3.95 14.1 4.1 M15.1 9.45 L18.45 3.8 15.65 7.95 15.45 7.95 15.4 7.6 Q22.8 -2.65 24.25 -6.65 L24.5 -6.65 24.6 -6.4 Q24.6 -5.5 21.15 -0.1 L21.25 -0.25 21.45 -0.25 22.55 2.0 Q22.55 2.8 16.9 11.6 15.65 13.8 13.1 17.1 10.25 20.75 9.7 20.75 7.95 20.75 7.95 19.8 L8.4 19.2 14.95 9.8 15.1 9.45 M-15.65 11.3 L-15.85 11.45 -21.0 2.15 -20.75 2.1 Q-19.95 2.1 -19.35 4.0 L-18.25 6.8 Q-17.2 8.0 -15.65 11.3 M-13.5 18.5 L-13.6 18.6 -21.65 11.35 -21.4 11.3 -18.05 14.05 Q-14.75 17.0 -13.5 18.5" fill="#5731a8" fill-rule="evenodd" stroke="none"/>
    <path d="M-1.05 21.2 L-1.25 21.2 -1.7 21.2 -1.8 21.2 -1.9 21.2 -2.95 21.05 Q-4.45 20.55 -5.8 19.55 L-5.45 19.45 Q-4.7 19.45 -2.8 20.25 L-1.25 20.65 -0.4 20.9 Q-0.4 21.2 -1.05 21.2" fill="#7045c9" fill-rule="evenodd" stroke="none"/>
    <path d="M25.8 5.2 Q25.8 6.65 16.0 14.85 L15.45 14.8 15.4 14.6 Q15.4 13.9 25.2 4.9 L25.7 5.0 25.8 5.2 M2.9 5.05 Q0.25 7.05 0.0 8.2 L-0.8 8.3 -1.0 7.8 -0.5 6.8 Q0.25 5.9 2.3 4.6 5.95 2.3 8.85 2.3 9.85 2.3 10.1 2.6 L6.4 3.65 Q3.6 4.5 2.9 5.0 L2.9 5.05 M-16.4 14.05 L-20.3 9.65 -22.9 6.25 -22.9 6.05 -22.7 6.05 -15.95 13.9 -16.4 14.05 M-22.25 7.85 L-22.05 7.8 -21.55 8.55 Q-22.15 8.4 -22.25 7.85" fill="#9372d6" fill-rule="evenodd" stroke="none"/>
    <path d="M-2.95 21.05 Q-7.15 20.25 -10.35 17.55 -14.75 13.9 -14.75 8.65 -14.75 3.45 -10.35 -0.2 -6.0 -3.85 0.2 -3.85 6.35 -3.85 10.75 -0.2 13.05 1.75 14.1 4.1 L14.65 5.45 14.85 6.1 M15.0 7.2 L15.1 7.3 M15.1 7.45 L15.1 8.65 15.1 9.45 M8.4 19.2 Q4.8 21.3 0.2 21.3 L-1.05 21.2 M-1.25 21.2 L-1.7 21.2 -1.8 21.2 -1.9 21.2 -2.95 21.05 Z" fill="none" stroke="#261746" stroke-linecap="round" stroke-linejoin="round" stroke-width="0.5"/>
  </g>
</svg>
