<?xml version="1.0" encoding="UTF-8" standalone="no"?>
<svg xmlns:xlink="http://www.w3.org/1999/xlink" height="55.85px" width="53.25px" xmlns="http://www.w3.org/2000/svg">
  <g transform="matrix(1.0, 0.0, 0.0, 1.0, 24.25, 34.3)">
    <path d="M-2.95 20.7 Q-7.15 19.05 -10.35 13.0 -14.75 4.9 -14.75 -6.55 -14.75 -18.0 -10.35 -26.05 -6.0 -34.05 0.2 -34.05 6.35 -34.05 10.75 -26.05 13.05 -21.8 14.1 -16.6 L13.85 -16.85 13.95 -16.85 Q14.1 -17.45 12.95 -17.45 5.45 -17.55 1.35 -13.15 L2.15 -14.1 5.25 -17.7 Q6.6 -19.1 7.5 -19.45 L11.05 -20.3 Q12.15 -20.5 12.15 -21.0 12.15 -21.25 11.65 -21.35 6.7 -21.65 2.05 -15.6 -1.9 -10.55 -1.9 -7.7 L-1.8 -6.85 -1.8 -6.8 -1.7 -6.55 -1.85 -6.2 Q-2.55 -6.0 -2.55 -5.35 L-2.45 -5.05 Q-2.25 -4.55 -1.35 -4.4 -0.2 -4.45 -0.2 -5.35 L-0.35 -5.9 2.35 -8.6 Q3.0 -9.2 5.6 -10.35 8.8 -11.85 10.6 -11.85 12.15 -11.9 14.4 -8.6 14.95 -8.6 15.1 -9.15 L15.1 -6.55 Q15.1 4.9 10.75 13.0 6.35 21.2 0.2 21.3 L-1.05 21.05 Q-0.4 21.0 -0.4 20.45 -0.4 20.1 -1.25 19.85 L-2.8 18.95 Q-4.7 17.15 -5.45 17.2 -5.8 17.15 -5.8 17.45 -4.45 19.65 -2.95 20.7 M15.0 -9.8 L15.1 -9.5 15.0 -9.5 15.0 -9.8" fill="#48288a" fill-rule="evenodd" stroke="none"/>
    <path d="M15.1 -9.15 Q14.95 -8.6 14.4 -8.6 12.15 -11.9 10.6 -11.85 8.8 -11.85 5.6 -10.35 3.0 -9.2 2.35 -8.6 L-0.35 -5.9 -0.2 -5.35 Q-0.2 -4.45 -1.35 -4.4 -2.25 -4.55 -2.45 -5.05 L-2.55 -5.35 Q-2.55 -6.0 -1.85 -6.2 L-1.7 -6.55 -1.8 -6.8 -1.8 -6.85 -1.45 -6.85 Q-0.45 -10.6 1.35 -13.15 5.45 -17.55 12.95 -17.45 14.1 -17.45 13.95 -16.85 L13.85 -16.85 14.1 -16.6 14.65 -13.6 14.85 -12.15 15.1 -10.05 15.0 -9.8 15.0 -9.5 15.1 -9.5 15.1 -9.15 M21.9 -1.85 L21.75 -1.85 21.7 -2.15 25.85 -9.25 26.0 -9.25 26.15 -9.0 21.9 -1.85 M25.6 -2.2 Q18.45 9.05 17.3 9.05 16.8 9.05 16.6 8.6 L16.5 8.1 Q16.5 7.7 24.45 -3.4 25.75 -3.4 25.6 -2.2 M-22.25 -1.1 Q-20.45 1.0 -18.3 5.15 L-19.0 5.15 Q-20.8 1.25 -22.5 -1.05 L-22.25 -1.1 M-18.8 13.2 Q-20.15 12.5 -21.45 11.35 L-24.25 9.0 -24.05 8.95 Q-22.5 9.8 -18.7 13.1 L-18.8 13.2" fill="#5731a8" fill-rule="evenodd" stroke="none"/>
    <path d="M-2.95 20.7 Q-4.45 19.65 -5.8 17.45 -5.8 17.15 -5.45 17.2 -4.7 17.15 -2.8 18.95 L-1.25 19.85 Q-0.4 20.1 -0.4 20.45 -0.4 21.0 -1.05 21.05 L-1.25 21.05 -1.7 21.05 -1.8 21.05 -1.9 21.05 -2.95 20.7" fill="#7045c9" fill-rule="evenodd" stroke="none"/>
    <path d="M-1.8 -6.85 L-1.9 -7.7 Q-1.9 -10.55 2.05 -15.6 6.7 -21.65 11.65 -21.35 12.15 -21.25 12.15 -21.0 12.15 -20.5 11.05 -20.3 L7.5 -19.45 Q6.6 -19.1 5.25 -17.7 L2.15 -14.1 1.35 -13.15 Q-0.45 -10.6 -1.45 -6.85 L-1.8 -6.85 M28.55 2.2 Q29.0 2.3 29.0 2.5 L25.95 5.2 Q22.65 7.8 22.05 8.65 L21.9 8.4 Q21.9 7.25 24.6 5.05 L28.55 2.2 M-20.05 8.35 L-20.35 8.5 Q-20.8 8.5 -23.8 4.65 L-23.8 4.3 -23.55 4.3 -20.05 8.1 -20.05 8.35" fill="#9372d6" fill-rule="evenodd" stroke="none"/>
    <path d="M14.1 -16.6 Q13.05 -21.8 10.75 -26.05 6.35 -34.05 0.2 -34.05 -6.0 -34.05 -10.35 -26.05 -14.75 -18.0 -14.75 -6.55 -14.75 4.9 -10.35 13.0 -7.15 19.05 -2.95 20.7 L-1.9 21.05 -1.8 21.05 -1.7 21.05 -1.25 21.05 M-1.05 21.05 L0.2 21.3 Q6.35 21.2 10.75 13.0 15.1 4.9 15.1 -6.55 L15.1 -9.15 M14.1 -16.6 L14.65 -13.6 14.85 -12.15 M15.0 -9.8 L15.1 -9.5" fill="none" stroke="#261746" stroke-linecap="round" stroke-linejoin="round" stroke-width="0.5"/>
  </g>
</svg>
