<?xml version="1.0" encoding="UTF-8" standalone="no"?>
<svg xmlns:xlink="http://www.w3.org/1999/xlink" height="58.75px" width="55.8px" xmlns="http://www.w3.org/2000/svg">
  <g transform="matrix(1.0, 0.0, 0.0, 1.0, 25.5, 37.2)">
    <path d="M-1.6 -9.85 L-2.4 -11.3 Q-3.55 -13.45 -3.55 -15.1 -3.55 -18.6 -2.4 -25.5 -1.8 -29.05 2.8 -35.95 L2.35 -36.35 Q0.65 -34.65 -0.75 -31.8 L-2.8 -27.15 Q-3.15 -26.5 -3.75 -22.5 L-4.35 -17.9 Q-4.35 -12.2 -1.75 -8.9 L-1.8 -8.3 -1.7 -8.0 -1.85 -7.65 Q-2.55 -7.5 -2.55 -6.7 L-2.45 -6.45 Q-2.25 -5.9 -1.35 -5.8 -0.2 -5.85 -0.2 -6.7 L-0.35 -7.35 -0.3 -7.4 -0.25 -7.35 -0.1 -7.5 -0.1 -7.65 2.35 -10.2 Q3.0 -10.8 5.6 -12.05 8.8 -13.6 10.6 -13.6 12.15 -13.65 14.4 -10.2 14.95 -10.15 15.1 -10.8 L15.1 -8.0 Q15.1 4.1 10.75 12.55 6.35 21.2 0.2 21.3 L-1.05 21.05 Q-0.4 20.95 -0.4 20.4 -0.4 20.0 -1.25 19.75 L-2.8 18.8 Q-4.7 16.9 -5.45 17.0 -5.8 16.95 -5.8 17.25 -4.45 19.55 -2.95 20.65 -7.15 18.9 -10.35 12.55 -14.75 4.1 -14.75 -8.0 -14.75 -20.05 -10.35 -28.55 -6.0 -37.0 0.2 -36.95 6.35 -37.0 10.75 -28.55 13.05 -24.05 14.1 -18.6 L13.85 -18.9 13.95 -18.9 Q14.1 -19.5 12.95 -19.5 4.9 -19.6 0.8 -14.25 -1.05 -11.85 -1.6 -9.85 M15.1 -11.1 L15.0 -11.1 15.0 -11.4 15.1 -11.1" fill="#48288a" fill-rule="evenodd" stroke="none"/>
    <path d="M-1.6 -9.85 Q-1.05 -11.85 0.8 -14.25 4.9 -19.6 12.95 -19.5 14.1 -19.5 13.95 -18.9 L13.85 -18.9 14.1 -18.6 14.65 -15.45 14.85 -13.9 15.1 -11.7 15.0 -11.4 15.0 -11.1 15.1 -11.1 15.1 -10.8 Q14.95 -10.15 14.4 -10.2 12.15 -13.65 10.6 -13.6 8.8 -13.6 5.6 -12.05 3.0 -10.8 2.35 -10.2 L-0.1 -7.65 -1.6 -9.85 M-0.3 -7.4 L-0.35 -7.35 -0.2 -6.7 Q-0.2 -5.85 -1.35 -5.8 -2.25 -5.9 -2.45 -6.45 L-2.55 -6.7 Q-2.55 -7.5 -1.85 -7.65 L-1.7 -8.0 -1.8 -8.3 -1.75 -8.9 -0.3 -7.4 M23.8 -6.2 L23.65 -6.3 Q25.05 -9.25 26.45 -10.3 L26.55 -10.15 23.8 -6.2 M27.35 -5.0 L27.0 -4.1 Q27.0 -3.0 21.25 2.55 L21.05 2.45 Q22.9 -2.2 27.1 -5.35 L27.35 -5.0 M-22.7 -2.0 Q-22.35 -1.85 -20.85 0.95 L-21.0 1.25 -21.15 1.25 Q-21.55 0.0 -22.9 -1.9 L-22.7 -2.0 M-25.45 7.35 L-25.3 7.35 Q-24.9 7.35 -22.2 9.65 L-22.6 9.75 Q-23.0 9.75 -24.25 8.75 L-25.5 7.4 -25.45 7.35" fill="#5731a8" fill-rule="evenodd" stroke="none"/>
    <path d="M-2.95 20.65 Q-4.45 19.55 -5.8 17.25 -5.8 16.95 -5.45 17.0 -4.7 16.9 -2.8 18.8 L-1.25 19.75 Q-0.4 20.0 -0.4 20.4 -0.4 20.95 -1.05 21.05 L-1.25 21.05 -1.7 21.05 -1.8 21.05 -1.9 21.05 -2.95 20.65" fill="#7045c9" fill-rule="evenodd" stroke="none"/>
    <path d="M-1.75 -8.9 Q-4.35 -12.2 -4.35 -17.9 L-3.75 -22.5 Q-3.15 -26.5 -2.8 -27.15 L-0.75 -31.8 Q0.65 -34.65 2.35 -36.35 L2.8 -35.95 Q-1.8 -29.05 -2.4 -25.5 -3.55 -18.6 -3.55 -15.1 -3.55 -13.45 -2.4 -11.3 L-1.6 -9.85 -0.1 -7.65 -0.1 -7.5 -0.25 -7.35 -0.3 -7.4 -1.75 -8.9 M-24.9 3.25 L-22.65 5.7 -23.0 5.85 Q-24.25 4.1 -25.1 3.3 L-24.9 3.25 M30.15 1.75 L30.3 2.05 Q30.3 2.5 25.8 4.35 25.95 4.25 27.85 2.85 29.15 1.9 30.15 1.75" fill="#9372d6" fill-rule="evenodd" stroke="none"/>
    <path d="M14.1 -18.6 Q13.05 -24.05 10.75 -28.55 6.35 -37.0 0.2 -36.95 -6.0 -37.0 -10.35 -28.55 -14.75 -20.05 -14.75 -8.0 -14.75 4.1 -10.35 12.55 -7.15 18.9 -2.95 20.65 L-1.9 21.05 -1.8 21.05 -1.7 21.05 -1.25 21.05 M-1.05 21.05 L0.2 21.3 Q6.35 21.2 10.75 12.55 15.1 4.1 15.1 -8.0 L15.1 -10.8 M14.85 -13.9 L14.65 -15.45 14.1 -18.6 M15.1 -11.1 L15.0 -11.4" fill="none" stroke="#261746" stroke-linecap="round" stroke-linejoin="round" stroke-width="0.5"/>
  </g>
</svg>
