<?xml version="1.0" encoding="UTF-8" standalone="no"?>
<svg xmlns:xlink="http://www.w3.org/1999/xlink" height="59.35px" width="55.7px" xmlns="http://www.w3.org/2000/svg">
  <g transform="matrix(1.0, 0.0, 0.0, 1.0, 25.5, 37.8)">
    <path d="M-14.05 -17.4 Q-13.0 -23.9 -10.35 -29.05 -6.0 -37.6 0.2 -37.55 6.35 -37.6 10.75 -29.05 13.05 -24.5 14.1 -19.0 L13.85 -19.3 13.95 -19.3 Q14.1 -19.95 12.95 -19.95 4.9 -20.05 0.8 -14.6 -1.8 -11.2 -1.8 -8.6 L-1.7 -8.3 -1.85 -7.95 -2.4 -7.55 Q-12.2 -13.95 -14.05 -17.4 M15.0 -11.75 L15.1 -11.4 15.0 -11.4 15.0 -11.75 M15.1 -11.15 L15.1 -8.3 Q15.1 3.9 10.75 12.5 6.35 21.2 0.2 21.3 L-1.05 21.0 Q-0.4 20.95 -0.4 20.4 -0.4 19.95 -1.25 19.7 L-2.8 18.75 Q-4.7 16.85 -5.45 16.9 -5.8 16.85 -5.8 17.2 -4.45 19.55 -2.95 20.65 -7.15 18.85 -10.35 12.5 -14.75 3.9 -14.75 -8.3 -14.75 -12.35 -14.25 -16.05 -13.3 -14.7 -10.25 -11.95 -3.9 -7.25 -2.55 -6.95 L-2.45 -6.7 Q-2.25 -6.15 -1.35 -6.05 -0.2 -6.1 -0.2 -7.0 L-0.35 -7.65 2.35 -10.5 Q3.0 -11.15 5.6 -12.4 8.8 -13.95 10.6 -13.95 12.15 -14.0 14.4 -10.5 14.95 -10.45 15.1 -11.15" fill="#48288a" fill-rule="evenodd" stroke="none"/>
    <path d="M-2.4 -7.55 L-1.85 -7.95 -1.7 -8.3 -1.8 -8.6 Q-1.8 -11.2 0.8 -14.6 4.9 -20.05 12.95 -19.95 14.1 -19.95 13.95 -19.3 L13.85 -19.3 14.1 -19.0 14.65 -15.85 14.85 -14.25 15.1 -12.05 15.0 -11.75 15.0 -11.4 15.1 -11.4 15.1 -11.15 Q14.95 -10.45 14.4 -10.5 12.15 -14.0 10.6 -13.95 8.8 -13.95 5.6 -12.4 3.0 -11.15 2.35 -10.5 L-0.35 -7.65 -0.2 -7.0 Q-0.2 -6.1 -1.35 -6.05 -2.25 -6.15 -2.45 -6.7 L-2.55 -6.95 -2.35 -6.95 Q-1.8 -6.95 -1.7 -7.1 L-2.4 -7.55 M25.4 -8.7 L25.2 -8.7 Q25.15 -8.5 25.15 -8.85 26.25 -10.1 26.25 -10.75 L26.4 -10.75 26.7 -10.6 Q26.7 -9.15 25.4 -8.7 M24.35 -1.9 L25.95 -4.1 26.4 -5.25 Q26.8 -5.9 27.75 -5.75 L27.95 -5.45 26.7 -3.6 25.1 -1.65 Q24.35 -1.7 24.35 -1.9 M-22.0 -1.35 L-22.9 -2.1 -23.55 -2.95 -23.5 -3.15 -23.35 -3.15 Q-22.35 -3.15 -21.9 -1.45 L-22.0 -1.35" fill="#5731a8" fill-rule="evenodd" stroke="none"/>
    <path d="M-1.05 21.0 L-1.25 21.0 -1.7 21.0 -1.8 21.0 -1.9 21.0 -2.95 20.65 Q-4.45 19.55 -5.8 17.2 -5.8 16.85 -5.45 16.9 -4.7 16.85 -2.8 18.75 L-1.25 19.7 Q-0.4 19.95 -0.4 20.4 -0.4 20.95 -1.05 21.0" fill="#7045c9" fill-rule="evenodd" stroke="none"/>
    <path d="M-14.05 -17.4 Q-12.2 -13.95 -2.4 -7.55 L-1.7 -7.1 Q-1.8 -6.95 -2.35 -6.95 L-2.55 -6.95 Q-3.9 -7.25 -10.25 -11.95 -13.3 -14.7 -14.25 -16.05 L-14.75 -17.0 Q-14.75 -17.7 -14.3 -17.95 L-14.05 -17.4 M29.95 2.0 L30.2 2.2 Q30.2 2.35 27.9 3.15 27.5 3.4 27.5 3.0 L28.5 2.35 Q29.4 2.0 29.95 2.0 M-24.25 4.1 Q-25.0 4.05 -25.5 3.0 L-24.8 2.95 Q-24.25 2.95 -23.95 3.8 -23.95 4.05 -24.25 4.1" fill="#9372d6" fill-rule="evenodd" stroke="none"/>
    <path d="M14.1 -19.0 Q13.05 -24.5 10.75 -29.05 6.35 -37.6 0.2 -37.55 -6.0 -37.6 -10.35 -29.05 -13.0 -23.9 -14.05 -17.4 M14.1 -19.0 L14.65 -15.85 14.85 -14.25 M15.0 -11.75 L15.1 -11.4 M15.1 -11.15 L15.1 -8.3 Q15.1 3.9 10.75 12.5 6.35 21.2 0.2 21.3 L-1.05 21.0 M-1.25 21.0 L-1.7 21.0 -1.8 21.0 -1.9 21.0 -2.95 20.65 Q-7.15 18.85 -10.35 12.5 -14.75 3.9 -14.75 -8.3 -14.75 -12.35 -14.25 -16.05" fill="none" stroke="#261746" stroke-linecap="round" stroke-linejoin="round" stroke-width="0.5"/>
  </g>
</svg>
