<?xml version="1.0" encoding="UTF-8" standalone="no"?>
<svg xmlns:xlink="http://www.w3.org/1999/xlink" height="51.15px" width="55.45px" xmlns="http://www.w3.org/2000/svg">
  <g transform="matrix(1.0, 0.0, 0.0, 1.0, 25.25, 29.6)">
    <path d="M-14.05 3.7 Q-14.75 0.0 -14.75 -4.2 -14.75 -14.65 -10.35 -22.05 -6.0 -29.4 0.2 -29.35 6.35 -29.4 10.75 -22.05 13.05 -18.15 14.1 -13.4 L13.85 -13.65 13.95 -13.65 Q14.1 -14.2 12.95 -14.2 4.9 -14.25 0.8 -9.6 -1.8 -6.7 -1.8 -4.45 L-1.7 -4.2 -1.85 -3.85 -2.35 -3.6 -2.4 -3.6 -2.4 -3.55 -2.55 -3.05 -2.45 -2.8 -2.35 -2.7 -3.5 -1.55 -6.3 0.45 -9.3 2.45 Q-10.5 3.25 -12.65 3.45 L-14.05 3.7 M15.0 -7.15 L15.1 -6.85 15.0 -6.85 15.0 -7.15 M15.1 -6.6 L15.1 -4.2 Q15.1 6.3 10.75 13.75 6.35 21.2 0.2 21.3 L-1.05 21.05 Q-0.4 21.05 -0.4 20.5 -0.4 20.2 -1.25 19.95 L-2.8 19.15 Q-4.7 17.45 -5.45 17.55 -5.8 17.5 -5.8 17.8 -4.45 19.8 -2.95 20.8 -7.15 19.2 -10.35 13.75 -12.85 9.45 -13.95 4.25 L-13.85 4.25 Q-10.25 3.8 -8.3 2.75 L-6.0 1.1 Q-2.1 -1.55 -1.65 -2.3 L-1.35 -2.25 Q-0.2 -2.3 -0.2 -3.05 L-0.35 -3.6 2.35 -6.1 Q3.0 -6.65 5.6 -7.7 8.8 -9.05 10.6 -9.05 12.15 -9.1 14.4 -6.1 14.95 -6.05 15.1 -6.6" fill="#48288a" fill-rule="evenodd" stroke="none"/>
    <path d="M-2.35 -2.7 L-2.45 -2.8 -2.55 -3.05 -2.4 -3.55 Q-2.15 -3.2 -2.35 -2.7 M-2.35 -3.6 L-1.85 -3.85 -1.7 -4.2 -1.8 -4.45 Q-1.8 -6.7 0.8 -9.6 4.9 -14.25 12.95 -14.2 14.1 -14.2 13.95 -13.65 L13.85 -13.65 14.1 -13.4 14.65 -10.7 14.85 -9.35 15.1 -7.4 15.0 -7.15 15.0 -6.85 15.1 -6.85 15.1 -6.6 Q14.95 -6.05 14.4 -6.1 12.15 -9.1 10.6 -9.05 8.8 -9.05 5.6 -7.7 3.0 -6.65 2.35 -6.1 L-0.35 -3.6 -0.2 -3.05 Q-0.2 -2.3 -1.35 -2.25 L-1.65 -2.3 -1.6 -2.5 -1.75 -3.6 -2.2 -3.65 -2.35 -3.6 M26.55 -10.2 L26.25 -10.25 Q26.45 -10.55 26.45 -11.15 L26.7 -11.15 26.8 -10.8 26.55 -10.2 M27.05 -4.75 Q26.9 -4.55 26.9 -4.9 L26.95 -5.5 Q27.2 -6.1 27.95 -6.35 L28.25 -6.15 Q28.25 -5.3 27.05 -4.75 M-23.8 -3.6 L-23.7 -3.75 -23.55 -3.75 -22.75 -3.05 -22.9 -2.95 Q-23.8 -3.25 -23.8 -3.6" fill="#5731a8" fill-rule="evenodd" stroke="none"/>
    <path d="M-1.05 21.05 L-1.25 21.05 -1.7 21.05 -1.8 21.05 -1.9 21.05 -2.95 20.8 Q-4.45 19.8 -5.8 17.8 -5.8 17.5 -5.45 17.55 -4.7 17.45 -2.8 19.15 L-1.25 19.95 Q-0.4 20.2 -0.4 20.5 -0.4 21.05 -1.05 21.05" fill="#7045c9" fill-rule="evenodd" stroke="none"/>
    <path d="M-14.05 3.7 L-12.65 3.45 Q-10.5 3.25 -9.3 2.45 L-6.3 0.45 -3.5 -1.55 -2.35 -2.7 Q-2.15 -3.2 -2.4 -3.55 L-2.4 -3.6 -2.35 -3.6 -2.2 -3.65 -1.75 -3.6 -1.6 -2.5 -1.65 -2.3 Q-2.1 -1.55 -6.0 1.1 L-8.3 2.75 Q-10.25 3.8 -13.85 4.25 L-13.95 4.25 -14.4 3.9 -14.05 3.7 M-25.25 3.4 L-24.9 3.15 Q-24.5 3.15 -24.35 3.4 L-24.7 3.55 -25.25 3.4 M29.95 2.3 L30.2 2.5 29.65 2.8 28.85 2.6 29.95 2.3" fill="#9372d6" fill-rule="evenodd" stroke="none"/>
    <path d="M14.1 -13.4 Q13.05 -18.15 10.75 -22.05 6.35 -29.4 0.2 -29.35 -6.0 -29.4 -10.35 -22.05 -14.75 -14.65 -14.75 -4.2 -14.75 0.0 -14.05 3.7 M14.1 -13.4 L14.65 -10.7 14.85 -9.35 M15.0 -7.15 L15.1 -6.85 M15.1 -6.6 L15.1 -4.2 Q15.1 6.3 10.75 13.75 6.35 21.2 0.2 21.3 L-1.05 21.05 M-1.25 21.05 L-1.7 21.05 -1.8 21.05 -1.9 21.05 -2.95 20.8 Q-7.15 19.2 -10.35 13.75 -12.85 9.45 -13.95 4.25" fill="none" stroke="#261746" stroke-linecap="round" stroke-linejoin="round" stroke-width="0.5"/>
  </g>
</svg>
