<?xml version="1.0" encoding="UTF-8" standalone="no"?>
<svg xmlns:xlink="http://www.w3.org/1999/xlink" height="41.55px" width="30.35px" xmlns="http://www.w3.org/2000/svg">
  <g transform="matrix(1.0, 0.0, 0.0, 1.0, 15.0, 20.0)">
    <path d="M-0.95 2.2 Q-0.2 2.05 -0.2 1.55 L-0.35 1.1 2.35 -0.9 5.6 -2.2 Q8.8 -3.3 10.6 -3.3 12.15 -3.35 14.4 -0.9 14.95 -0.9 15.1 -1.3 L15.1 0.65 Q15.1 9.15 10.75 15.15 6.35 21.25 0.2 21.3 L-1.05 21.1 Q-0.4 21.05 -0.4 20.65 L-0.45 20.5 Q1.65 19.85 1.05 14.4 L0.4 8.2 Q-0.3 3.0 -0.95 2.2 M15.1 -1.5 L15.0 -1.5 15.0 -1.75 15.1 -1.5 M14.1 -6.85 L13.85 -7.0 13.95 -7.0 Q14.1 -7.45 12.95 -7.45 4.9 -7.5 0.8 -3.75 -1.8 -1.35 -1.8 0.45 L-1.7 0.65 -1.85 0.9 Q-2.55 1.0 -2.55 1.55 L-2.45 1.8 Q-2.3 2.05 -1.65 2.2 L-2.2 2.45 -2.1 2.6 -1.2 2.6 0.2 14.4 0.2 17.35 Q-1.7 19.5 -1.8 20.05 L-2.8 19.55 Q-4.7 18.2 -5.45 18.25 -5.8 18.2 -5.8 18.45 -4.45 20.1 -2.95 20.9 -7.15 19.6 -10.35 15.15 -14.75 9.15 -14.75 0.65 -14.75 -7.85 -10.35 -13.85 -6.0 -19.75 0.2 -19.75 6.35 -19.75 10.75 -13.85 13.05 -10.65 14.1 -6.85" fill="#48288a" fill-rule="evenodd" stroke="none"/>
    <path d="M15.1 -1.3 Q14.95 -0.9 14.4 -0.9 12.15 -3.35 10.6 -3.3 8.8 -3.3 5.6 -2.2 L2.35 -0.9 -0.35 1.1 -0.2 1.55 Q-0.2 2.05 -0.95 2.2 -1.1 2.05 -1.2 2.05 L-1.65 2.2 Q-2.3 2.05 -2.45 1.8 L-2.55 1.55 Q-2.55 1.0 -1.85 0.9 L-1.7 0.65 -1.8 0.45 Q-1.8 -1.35 0.8 -3.75 4.9 -7.5 12.95 -7.45 14.1 -7.45 13.95 -7.0 L13.85 -7.0 14.1 -6.85 14.65 -4.6 14.85 -3.5 15.1 -1.95 15.0 -1.75 15.0 -1.5 15.1 -1.5 15.1 -1.3" fill="#5731a8" fill-rule="evenodd" stroke="none"/>
    <path d="M-0.45 20.5 L-0.4 20.65 Q-0.4 21.05 -1.05 21.1 L-1.25 21.1 -1.7 21.1 -1.8 21.1 -1.9 21.1 -2.95 20.9 Q-4.45 20.1 -5.8 18.45 -5.8 18.2 -5.45 18.25 -4.7 18.2 -2.8 19.55 L-1.8 20.05 -1.8 20.1 -1.65 20.5 -1.1 20.6 -0.45 20.5" fill="#7045c9" fill-rule="evenodd" stroke="none"/>
    <path d="M-1.65 2.2 L-1.2 2.05 Q-1.1 2.05 -0.95 2.2 -0.3 3.0 0.4 8.2 L1.05 14.4 Q1.65 19.85 -0.45 20.5 L-1.1 20.6 -1.65 20.5 -1.8 20.1 -1.8 20.05 Q-1.7 19.5 0.2 17.35 L0.2 14.4 -1.2 2.6 -2.1 2.6 -2.2 2.45 -1.65 2.2" fill="#9372d6" fill-rule="evenodd" stroke="none"/>
    <path d="M14.85 -3.5 L14.65 -4.6 14.1 -6.85 Q13.05 -10.65 10.75 -13.85 6.35 -19.75 0.2 -19.75 -6.0 -19.75 -10.35 -13.85 -14.75 -7.85 -14.75 0.65 -14.75 9.15 -10.35 15.15 -7.15 19.6 -2.95 20.9 L-1.9 21.1 -1.8 21.1 -1.7 21.1 -1.25 21.1 M-1.05 21.1 L0.2 21.3 Q6.35 21.25 10.75 15.15 15.1 9.15 15.1 0.65 L15.1 -1.3 M15.0 -1.75 L15.1 -1.5" fill="none" stroke="#261746" stroke-linecap="round" stroke-linejoin="round" stroke-width="0.5"/>
  </g>
</svg>
