<?xml version="1.0" encoding="UTF-8" standalone="no"?>
<svg xmlns:xlink="http://www.w3.org/1999/xlink" height="45.2px" width="30.35px" xmlns="http://www.w3.org/2000/svg">
  <g transform="matrix(1.0, 0.0, 0.0, 1.0, 15.0, 23.65)">
    <path d="M-0.2 -0.35 L-0.35 -0.7 2.35 -2.85 Q3.0 -3.35 5.6 -4.3 8.8 -5.5 10.6 -5.5 12.15 -5.5 14.4 -2.85 14.95 -2.85 15.1 -3.35 L15.1 -1.2 Q15.1 8.05 10.75 14.6 6.35 21.2 0.2 21.3 L-1.05 21.05 Q-0.4 21.05 -0.4 20.55 -0.4 20.3 -1.25 20.1 L-2.8 19.4 Q-4.7 17.9 -5.45 17.95 -5.8 17.95 -5.8 18.2 -4.45 19.95 -2.95 20.8 -7.15 19.45 -10.35 14.6 -14.75 8.05 -14.75 -1.2 -14.75 -10.45 -10.35 -16.95 -6.0 -23.45 0.2 -23.4 6.35 -23.45 10.75 -16.95 13.05 -13.55 14.1 -9.35 L13.85 -9.55 13.95 -9.55 Q14.1 -10.05 12.95 -10.05 4.9 -10.05 0.8 -6.0 -1.8 -3.4 -1.8 -1.45 L-1.7 -1.2 -1.85 -0.95 Q-2.55 -0.8 -2.55 -0.25 L-2.45 0.0 Q-2.25 0.45 -1.35 0.5 -0.45 0.5 -0.25 0.05 3.45 0.2 5.4 1.05 6.6 1.55 8.4 2.85 L10.8 4.65 13.6 6.25 14.05 5.95 8.7 2.3 5.6 0.8 Q2.55 -0.5 0.7 -0.55 L-0.2 -0.35 M15.1 -3.6 L15.0 -3.6 15.0 -3.8 15.1 -3.6" fill="#48288a" fill-rule="evenodd" stroke="none"/>
    <path d="M15.1 -3.35 Q14.95 -2.85 14.4 -2.85 12.15 -5.5 10.6 -5.5 8.8 -5.5 5.6 -4.3 3.0 -3.35 2.35 -2.85 L-0.35 -0.7 -0.2 -0.35 -0.5 -0.35 Q-0.5 -0.6 -0.9 -0.6 L-1.1 -0.5 -1.0 0.05 -0.25 0.05 Q-0.45 0.5 -1.35 0.5 -2.25 0.45 -2.45 0.0 L-2.55 -0.25 Q-2.55 -0.8 -1.85 -0.95 L-1.7 -1.2 -1.8 -1.45 Q-1.8 -3.4 0.8 -6.0 4.9 -10.05 12.95 -10.05 14.1 -10.05 13.95 -9.55 L13.85 -9.55 14.1 -9.35 14.65 -6.95 14.85 -5.75 15.1 -4.0 15.0 -3.8 15.0 -3.6 15.1 -3.6 15.1 -3.35" fill="#5731a8" fill-rule="evenodd" stroke="none"/>
    <path d="M-2.95 20.8 Q-4.45 19.95 -5.8 18.2 -5.8 17.95 -5.45 17.95 -4.7 17.9 -2.8 19.4 L-1.25 20.1 Q-0.4 20.3 -0.4 20.55 -0.4 21.05 -1.05 21.05 L-1.25 21.05 -1.7 21.05 -1.8 21.05 -1.9 21.05 -2.95 20.8" fill="#7045c9" fill-rule="evenodd" stroke="none"/>
    <path d="M-0.2 -0.35 L0.7 -0.55 Q2.55 -0.5 5.6 0.8 L8.7 2.3 14.05 5.95 13.6 6.25 10.8 4.65 8.4 2.85 Q6.6 1.55 5.4 1.05 3.45 0.2 -0.25 0.05 L-1.0 0.05 -1.1 -0.5 -0.9 -0.6 Q-0.5 -0.6 -0.5 -0.35 L-0.2 -0.35" fill="#9372d6" fill-rule="evenodd" stroke="none"/>
    <path d="M14.1 -9.35 Q13.05 -13.55 10.75 -16.95 6.35 -23.45 0.2 -23.4 -6.0 -23.45 -10.35 -16.95 -14.75 -10.45 -14.75 -1.2 -14.75 8.05 -10.35 14.6 -7.15 19.45 -2.95 20.8 L-1.9 21.05 -1.8 21.05 -1.7 21.05 -1.25 21.05 M-1.05 21.05 L0.2 21.3 Q6.35 21.2 10.75 14.6 15.1 8.05 15.1 -1.2 L15.1 -3.35 M14.85 -5.75 L14.65 -6.95 14.1 -9.35 M15.0 -3.8 L15.1 -3.6" fill="none" stroke="#261746" stroke-linecap="round" stroke-linejoin="round" stroke-width="0.5"/>
  </g>
</svg>
