<?xml version="1.0" encoding="UTF-8" standalone="no"?>
<svg xmlns:xlink="http://www.w3.org/1999/xlink" height="43.15px" width="30.35px" xmlns="http://www.w3.org/2000/svg">
  <g transform="matrix(1.0, 0.0, 0.0, 1.0, 15.0, 21.6)">
    <path d="M12.1 -3.8 L9.7 -3.8 Q5.7 -3.35 3.5 -2.05 2.2 -1.3 -0.2 0.25 L0.4 0.45 Q4.75 -3.2 9.7 -3.2 L10.75 -3.05 12.55 -2.95 13.2 -2.95 14.4 -1.75 Q14.95 -1.75 15.1 -2.25 L15.1 -0.2 Q15.1 8.65 10.75 14.95 6.35 21.25 0.2 21.3 L-1.05 21.1 Q-0.4 21.05 -0.4 20.65 -0.4 20.4 -1.25 20.2 L-2.8 19.5 Q-4.7 18.1 -5.45 18.1 -5.8 18.1 -5.8 18.35 -4.45 20.0 -2.95 20.85 -7.15 19.55 -10.35 14.95 -14.75 8.65 -14.75 -0.2 -14.75 -9.0 -10.35 -15.2 -6.0 -21.4 0.2 -21.35 6.35 -21.4 10.75 -15.2 13.05 -11.9 14.1 -7.9 L13.85 -8.15 13.95 -8.15 Q14.1 -8.6 12.95 -8.6 4.9 -8.65 0.8 -4.7 -1.8 -2.25 -1.8 -0.35 L-1.7 -0.2 -1.85 0.1 Q-2.55 0.25 -2.55 0.8 L-2.45 1.0 Q-2.25 1.4 -1.35 1.5 -0.2 1.45 -0.2 0.8 L-0.35 0.3 2.35 -1.75 Q3.0 -2.25 5.6 -3.15 8.8 -4.25 10.6 -4.25 L12.1 -3.8 M15.0 -2.65 L15.1 -2.4 15.0 -2.4 15.0 -2.65" fill="#48288a" fill-rule="evenodd" stroke="none"/>
    <path d="M12.1 -3.8 L10.6 -4.25 Q8.8 -4.25 5.6 -3.15 3.0 -2.25 2.35 -1.75 L-0.35 0.3 -0.2 0.8 Q-0.2 1.45 -1.35 1.5 -2.25 1.4 -2.45 1.0 L-2.55 0.8 Q-2.55 0.25 -1.85 0.1 L-1.7 -0.2 -1.8 -0.35 Q-1.8 -2.25 0.8 -4.7 4.9 -8.65 12.95 -8.6 14.1 -8.6 13.95 -8.15 L13.85 -8.15 14.1 -7.9 14.65 -5.6 14.85 -4.5 15.1 -2.85 15.0 -2.65 15.0 -2.4 15.1 -2.4 15.1 -2.25 Q14.95 -1.75 14.4 -1.75 L13.2 -2.95 Q14.05 -3.05 14.05 -3.35 L14.0 -3.75 13.6 -3.8 12.1 -3.8" fill="#5731a8" fill-rule="evenodd" stroke="none"/>
    <path d="M-2.95 20.85 Q-4.45 20.0 -5.8 18.35 -5.8 18.1 -5.45 18.1 -4.7 18.1 -2.8 19.5 L-1.25 20.2 Q-0.4 20.4 -0.4 20.65 -0.4 21.05 -1.05 21.1 L-1.25 21.1 -1.7 21.1 -1.8 21.1 -1.9 21.1 -2.95 20.85" fill="#7045c9" fill-rule="evenodd" stroke="none"/>
    <path d="M13.2 -2.95 L12.55 -2.95 10.75 -3.05 9.7 -3.2 Q4.75 -3.2 0.4 0.45 L-0.2 0.25 Q2.2 -1.3 3.5 -2.05 5.7 -3.35 9.7 -3.8 L12.1 -3.8 13.6 -3.8 14.0 -3.75 14.05 -3.35 Q14.05 -3.05 13.2 -2.95" fill="#9372d6" fill-rule="evenodd" stroke="none"/>
    <path d="M14.1 -7.9 Q13.05 -11.9 10.75 -15.2 6.35 -21.4 0.2 -21.35 -6.0 -21.4 -10.35 -15.2 -14.75 -9.0 -14.75 -0.2 -14.75 8.65 -10.35 14.95 -7.15 19.55 -2.95 20.85 L-1.9 21.1 -1.8 21.1 -1.7 21.1 -1.25 21.1 M-1.05 21.1 L0.2 21.3 Q6.35 21.25 10.75 14.95 15.1 8.65 15.1 -0.2 L15.1 -2.25 M14.1 -7.9 L14.65 -5.6 14.85 -4.5 M15.0 -2.65 L15.1 -2.4" fill="none" stroke="#261746" stroke-linecap="round" stroke-linejoin="round" stroke-width="0.5"/>
  </g>
</svg>
