<?xml version="1.0" encoding="UTF-8" standalone="no"?>
<svg xmlns:xlink="http://www.w3.org/1999/xlink" height="43.85px" width="30.35px" xmlns="http://www.w3.org/2000/svg">
  <g transform="matrix(1.0, 0.0, 0.0, 1.0, 15.0, 22.3)">
    <path d="M-0.2 -0.25 L-0.1 0.05 0.0 0.05 0.25 -0.55 2.35 -2.15 Q3.0 -2.65 5.6 -3.55 8.8 -4.7 10.6 -4.7 12.15 -4.7 14.4 -2.15 14.95 -2.1 15.1 -2.65 L15.1 -0.55 Q15.1 8.45 10.75 14.85 6.35 21.25 0.2 21.3 L-1.05 21.1 Q-0.4 21.05 -0.4 20.6 -0.4 20.35 -1.25 20.15 L-2.8 19.45 Q-4.7 18.0 -5.45 18.1 -5.8 18.05 -5.8 18.3 -4.45 20.0 -2.95 20.85 -7.15 19.5 -10.35 14.85 -14.75 8.45 -14.75 -0.55 -14.75 -9.5 -10.35 -15.8 -6.0 -22.1 0.2 -22.05 6.35 -22.1 10.75 -15.8 13.05 -12.5 14.1 -8.45 L13.85 -8.65 13.95 -8.65 Q14.1 -9.1 12.95 -9.1 4.9 -9.15 0.8 -5.15 -1.8 -2.65 -1.8 -0.75 L-1.7 -0.55 -1.85 -0.25 Q-2.55 -0.1 -2.55 0.45 L-2.45 0.65 Q-2.25 1.05 -1.35 1.1 -0.2 1.1 -0.2 0.45 L-0.35 -0.05 -0.2 -0.25 M15.1 -2.8 L15.0 -2.8 15.0 -3.05 15.1 -2.8" fill="#48288a" fill-rule="evenodd" stroke="none"/>
    <path d="M0.25 -0.55 Q1.0 -2.3 3.65 -4.15 7.4 -6.65 11.65 -6.65 L13.5 -6.2 14.05 -6.35 14.15 -6.55 Q14.15 -7.35 12.2 -7.35 7.9 -7.35 3.45 -4.4 -0.3 -1.95 -0.3 -0.9 L-0.2 -0.25 -0.35 -0.05 -0.2 0.45 Q-0.2 1.1 -1.35 1.1 -2.25 1.05 -2.45 0.65 L-2.55 0.45 Q-2.55 -0.1 -1.85 -0.25 L-1.7 -0.55 -1.8 -0.75 Q-1.8 -2.65 0.8 -5.15 4.9 -9.15 12.95 -9.1 14.1 -9.1 13.95 -8.65 L13.85 -8.65 14.1 -8.45 14.65 -6.05 14.85 -4.95 15.1 -3.3 15.0 -3.05 15.0 -2.8 15.1 -2.8 15.1 -2.65 Q14.95 -2.1 14.4 -2.15 12.15 -4.7 10.6 -4.7 8.8 -4.7 5.6 -3.55 3.0 -2.65 2.35 -2.15 L0.25 -0.55" fill="#5731a8" fill-rule="evenodd" stroke="none"/>
    <path d="M-2.95 20.85 Q-4.45 20.0 -5.8 18.3 -5.8 18.05 -5.45 18.1 -4.7 18.0 -2.8 19.45 L-1.25 20.15 Q-0.4 20.35 -0.4 20.6 -0.4 21.05 -1.05 21.1 L-1.25 21.1 -1.7 21.1 -1.8 21.1 -1.9 21.1 -2.95 20.85" fill="#7045c9" fill-rule="evenodd" stroke="none"/>
    <path d="M-0.2 -0.25 L-0.3 -0.9 Q-0.3 -1.95 3.45 -4.4 7.9 -7.35 12.2 -7.35 14.15 -7.35 14.15 -6.55 L14.05 -6.35 13.5 -6.2 11.65 -6.65 Q7.4 -6.65 3.65 -4.15 1.0 -2.3 0.25 -0.55 L0.0 0.05 -0.1 0.05 -0.2 -0.25" fill="#9372d6" fill-rule="evenodd" stroke="none"/>
    <path d="M14.85 -4.95 L14.65 -6.05 14.1 -8.45 Q13.05 -12.5 10.75 -15.8 6.35 -22.1 0.2 -22.05 -6.0 -22.1 -10.35 -15.8 -14.75 -9.5 -14.75 -0.55 -14.75 8.45 -10.35 14.85 -7.15 19.5 -2.95 20.85 L-1.9 21.1 -1.8 21.1 -1.7 21.1 -1.25 21.1 M-1.05 21.1 L0.2 21.3 Q6.35 21.25 10.75 14.85 15.1 8.45 15.1 -0.55 L15.1 -2.65 M15.0 -3.05 L15.1 -2.8" fill="none" stroke="#261746" stroke-linecap="round" stroke-linejoin="round" stroke-width="0.5"/>
  </g>
</svg>
