<?xml version="1.0" encoding="UTF-8" standalone="no"?>
<svg xmlns:xlink="http://www.w3.org/1999/xlink" height="43.85px" width="30.35px" xmlns="http://www.w3.org/2000/svg">
  <g transform="matrix(1.0, 0.0, 0.0, 1.0, 15.0, 22.3)">
    <path d="M0.35 -0.65 L0.3 -0.75 0.85 -2.95 Q2.45 -2.65 2.85 -3.4 3.6 -4.75 4.2 -5.1 L5.15 -4.6 Q5.7 -4.6 5.7 -4.8 L5.7 -5.55 Q6.3 -5.35 6.35 -5.15 L7.0 -5.05 7.7 -5.2 Q7.7 -5.75 7.85 -5.95 7.85 -5.35 8.85 -5.35 9.2 -5.35 9.6 -5.7 9.95 -4.9 10.4 -4.9 L10.85 -5.0 11.05 -5.75 Q10.75 -4.9 12.1 -4.9 12.55 -4.9 12.65 -5.35 L13.15 -5.3 13.15 -5.2 Q13.15 -4.85 13.6 -4.5 L14.05 -4.65 14.1 -5.75 Q14.1 -7.5 12.85 -7.5 L12.2 -6.95 Q12.3 -7.5 11.55 -7.5 L10.25 -6.35 8.75 -6.95 8.2 -7.8 Q7.25 -7.75 7.0 -6.55 L6.9 -6.55 6.25 -7.35 Q5.4 -7.2 5.25 -6.85 L4.95 -6.3 4.85 -6.7 4.1 -6.95 Q2.45 -6.95 2.05 -5.35 L1.45 -3.8 Q-0.45 -3.8 -0.45 -2.0 L-0.2 -0.25 -0.1 -0.25 -0.35 -0.05 -0.2 0.45 Q-0.2 1.1 -1.35 1.1 -2.25 1.05 -2.45 0.65 L-2.55 0.45 Q-2.55 -0.1 -1.85 -0.25 L-1.7 -0.55 -1.8 -0.75 Q-1.8 -2.65 0.8 -5.15 4.9 -9.15 12.95 -9.1 14.1 -9.1 13.95 -8.65 L13.85 -8.65 14.1 -8.45 14.65 -6.05 14.85 -4.95 15.1 -3.3 15.0 -3.05 15.0 -2.8 15.1 -2.8 15.1 -2.65 Q14.95 -2.1 14.4 -2.15 12.15 -4.7 10.6 -4.7 8.8 -4.7 5.6 -3.55 3.0 -2.65 2.35 -2.15 L0.35 -0.65" fill="#5731a8" fill-rule="evenodd" stroke="none"/>
    <path d="M-0.1 -0.25 L1.15 -0.55 1.1 -0.65 0.35 -0.65 2.35 -2.15 Q3.0 -2.65 5.6 -3.55 8.8 -4.7 10.6 -4.7 12.15 -4.7 14.4 -2.15 14.95 -2.1 15.1 -2.65 L15.1 -0.55 Q15.1 8.45 10.75 14.85 6.35 21.25 0.2 21.3 L-1.05 21.1 Q-0.4 21.05 -0.4 20.6 -0.4 20.35 -1.25 20.15 L-2.8 19.45 Q-4.7 18.0 -5.45 18.1 -5.8 18.05 -5.8 18.3 -4.45 20.0 -2.95 20.85 -7.15 19.5 -10.35 14.85 -14.75 8.45 -14.75 -0.55 -14.75 -9.5 -10.35 -15.8 -6.0 -22.1 0.2 -22.05 6.35 -22.1 10.75 -15.8 13.05 -12.5 14.1 -8.45 L13.85 -8.65 13.95 -8.65 Q14.1 -9.1 12.95 -9.1 4.9 -9.15 0.8 -5.15 -1.8 -2.65 -1.8 -0.75 L-1.7 -0.55 -1.85 -0.25 Q-2.55 -0.1 -2.55 0.45 L-2.45 0.65 Q-2.25 1.05 -1.35 1.1 -0.2 1.1 -0.2 0.45 L-0.35 -0.05 -0.1 -0.25 M15.1 -2.8 L15.0 -2.8 15.0 -3.05 15.1 -2.8" fill="#48288a" fill-rule="evenodd" stroke="none"/>
    <path d="M-2.95 20.85 Q-4.45 20.0 -5.8 18.3 -5.8 18.05 -5.45 18.1 -4.7 18.0 -2.8 19.45 L-1.25 20.15 Q-0.4 20.35 -0.4 20.6 -0.4 21.05 -1.05 21.1 L-1.25 21.1 -1.7 21.1 -1.8 21.1 -1.9 21.1 -2.95 20.85" fill="#7045c9" fill-rule="evenodd" stroke="none"/>
    <path d="M-0.1 -0.25 L-0.2 -0.25 -0.45 -2.0 Q-0.45 -3.8 1.45 -3.8 L2.05 -5.35 Q2.45 -6.95 4.1 -6.95 L4.85 -6.7 4.95 -6.3 5.25 -6.85 Q5.4 -7.2 6.25 -7.35 L6.9 -6.55 7.0 -6.55 Q7.25 -7.75 8.2 -7.8 L8.75 -6.95 10.25 -6.35 11.55 -7.5 Q12.3 -7.5 12.2 -6.95 L12.85 -7.5 Q14.1 -7.5 14.1 -5.75 L14.05 -4.65 13.6 -4.5 Q13.15 -4.85 13.15 -5.2 L13.15 -5.3 12.65 -5.35 Q12.55 -4.9 12.1 -4.9 10.75 -4.9 11.05 -5.75 L10.85 -5.0 10.4 -4.9 Q9.95 -4.9 9.6 -5.7 9.2 -5.35 8.85 -5.35 7.85 -5.35 7.85 -5.95 7.7 -5.75 7.7 -5.2 L7.0 -5.05 6.35 -5.15 Q6.3 -5.35 5.7 -5.55 L5.7 -4.8 Q5.7 -4.6 5.15 -4.6 L4.2 -5.1 Q3.6 -4.75 2.85 -3.4 2.45 -2.65 0.85 -2.95 L0.3 -0.75 0.35 -0.65 1.1 -0.65 1.15 -0.55 -0.1 -0.25" fill="#9372d6" fill-rule="evenodd" stroke="none"/>
    <path d="M14.85 -4.95 L14.65 -6.05 14.1 -8.45 Q13.05 -12.5 10.75 -15.8 6.35 -22.1 0.2 -22.05 -6.0 -22.1 -10.35 -15.8 -14.75 -9.5 -14.75 -0.55 -14.75 8.45 -10.35 14.85 -7.15 19.5 -2.95 20.85 L-1.9 21.1 -1.8 21.1 -1.7 21.1 -1.25 21.1 M15.0 -3.05 L15.1 -2.8 M-1.05 21.1 L0.2 21.3 Q6.35 21.25 10.75 14.85 15.1 8.45 15.1 -0.55 L15.1 -2.65" fill="none" stroke="#261746" stroke-linecap="round" stroke-linejoin="round" stroke-width="0.5"/>
  </g>
</svg>
