<?xml version="1.0" encoding="UTF-8" standalone="no"?>
<svg xmlns:xlink="http://www.w3.org/1999/xlink" height="44.75px" width="31.85px" xmlns="http://www.w3.org/2000/svg">
  <g transform="matrix(1.0, 0.0, 0.0, 1.0, 15.75, 22.45)">
    <path d="M15.05 -2.55 L15.05 -2.45 15.1 -2.4 15.05 -2.15 15.1 -0.1 Q15.1 8.8 10.75 15.0 6.35 21.3 0.2 21.3 L-1.45 21.2 -1.55 21.15 -1.7 21.15 -1.8 21.1 -1.9 21.1 -2.0 21.05 -2.1 21.05 Q-6.85 20.05 -10.35 15.0 -14.75 8.8 -14.75 -0.1 -14.75 -8.95 -10.35 -15.2 -6.0 -21.45 0.2 -21.45 6.35 -21.45 10.75 -15.2 13.0 -12.0 14.1 -8.1 14.65 -7.55 14.65 -5.75 L15.1 -3.0 15.05 -2.55" fill="#d16b6b" fill-opacity="0.49803922" fill-rule="evenodd" stroke="none"/>
    <path d="M15.05 -2.55 L15.05 -2.45 15.1 -2.4 15.05 -2.15 15.1 -0.1 Q15.1 8.8 10.75 15.0 6.35 21.3 0.2 21.3 L-1.45 21.2 -1.55 21.15 -1.7 21.15 -1.8 21.1 -1.9 21.1 -2.0 21.05 -2.1 21.05 Q-6.85 20.05 -10.35 15.0 -14.75 8.8 -14.75 -0.1 -14.75 -8.95 -10.35 -15.2 -6.0 -21.45 0.2 -21.45 6.35 -21.45 10.75 -15.2 13.0 -12.0 14.1 -8.1 14.65 -7.55 14.65 -5.75 L15.1 -3.0 15.05 -2.55 Z" fill="none" stroke="#00cc00" stroke-linecap="round" stroke-linejoin="round" stroke-width="2.0"/>
  </g>
</svg>
