<?xml version="1.0" encoding="UTF-8" standalone="no"?>
<svg xmlns:xlink="http://www.w3.org/1999/xlink" height="16.95px" width="17.4px" xmlns="http://www.w3.org/2000/svg">
  <g transform="matrix(1.0, 0.0, 0.0, 1.0, 8.8, 1.45)">
    <path d="M0.8 1.8 L0.9 11.9 -0.1 11.8 -0.95 11.9 -0.95 1.8 -1.05 1.65 -1.2 1.45 -1.25 1.35 -0.3 2.05 -0.1 2.05 0.0 2.05 0.8 1.8" fill="#ddddcc" fill-rule="evenodd" stroke="none"/>
    <path d="M-1.25 1.35 L-1.35 1.2 -1.4 1.1 -1.5 0.55 Q-1.5 -0.1 -1.05 -0.55 L-0.2 -0.9 0.0 -0.95 Q0.6 -0.95 1.05 -0.55 1.5 -0.1 1.5 0.55 L1.4 1.15 1.05 1.6 1.0 1.65 0.8 1.8 0.0 2.05 -0.1 2.05 -0.3 2.05 -1.25 1.35 M0.9 11.9 L8.1 12.55 8.1 15.0 -8.3 15.0 -8.3 12.3 -1.15 11.9 -0.95 11.9 -0.1 11.8 0.9 11.9" fill="#666666" fill-rule="evenodd" stroke="none"/>
    <path d="M-1.25 1.35 L-1.35 1.2 -1.4 1.1 -1.5 0.55 Q-1.5 -0.1 -1.05 -0.55 L-0.2 -0.9 0.0 -0.95 Q0.6 -0.95 1.05 -0.55 1.5 -0.1 1.5 0.55 L1.4 1.15 1.05 1.6 1.0 1.65 0.8 1.8 0.9 11.9 8.1 12.55 8.1 15.0 -8.3 15.0 -8.3 12.3 -1.15 11.9 -0.95 1.8 M-1.05 1.65 L-1.2 1.45 -1.25 1.35 -0.3 2.05 -0.1 2.05 0.0 2.05 0.8 1.8 M-1.15 11.9 L-0.95 11.9 -0.1 11.8 0.9 11.9" fill="none" stroke="#000000" stroke-linecap="round" stroke-linejoin="round" stroke-width="1.0"/>
  </g>
</svg>
