<?xml version="1.0" encoding="UTF-8" standalone="no"?>
<svg xmlns:xlink="http://www.w3.org/1999/xlink" height="54.8px" width="56.05px" xmlns="http://www.w3.org/2000/svg">
  <g transform="matrix(1.0, 0.0, 0.0, 1.0, 25.35, 50.25)">
    <path d="M4.8 -3.45 L5.15 -3.45 11.15 -3.2 14.3 -3.05 Q19.95 -2.5 19.95 -1.8 L19.9 -1.65 Q19.55 -1.15 16.6 -0.8 L11.5 -0.35 6.3 -0.1 4.1 -0.1 1.35 -0.1 0.6 -0.1 0.2 -0.1 0.0 -0.1 -3.9 -0.15 -5.8 -0.15 -7.65 -0.25 -16.35 -0.9 Q-18.45 -1.2 -18.7 -1.65 L-18.75 -1.8 Q-18.75 -2.5 -13.1 -3.05 L-9.95 -3.2 -3.9 -3.45 -3.6 -3.45 0.5 -3.55 0.6 -3.55 0.7 -3.55 4.8 -3.45" fill="#d5dfca" fill-rule="evenodd" stroke="none"/>
    <path d="M4.8 -3.45 L0.7 -3.55 0.6 -3.55 0.5 -3.55 -3.6 -3.45 -3.9 -3.45 -9.95 -3.2 -13.1 -3.05 Q-18.75 -2.5 -18.75 -1.8 L-18.7 -1.65 Q-18.45 -1.2 -16.35 -0.9 L-7.65 -0.25 -5.8 -0.15 -3.9 -0.15 0.0 -0.1 0.2 -0.1 0.6 -0.1 1.35 -0.1 4.1 -0.1 6.3 -0.1 11.5 -0.35 16.6 -0.8 Q19.55 -1.15 19.9 -1.65 L19.95 -1.8 Q19.95 -2.5 14.3 -3.05 L11.15 -3.2 5.15 -3.45 4.8 -3.45 M16.9 -3.8 Q23.6 -2.85 23.6 -1.5 L23.55 -1.3 23.55 1.65 Q1.5 6.45 -22.15 1.65 L-22.15 -1.0 -22.4 -1.5 Q-22.4 -2.85 -15.65 -3.8 L0.6 -4.75 16.9 -3.8" fill="#94c439" fill-rule="evenodd" stroke="none"/>
    <path d="M16.15 0.4 L16.15 1.7 14.5 1.9 14.5 0.6 16.15 0.4 M0.65 2.45 L0.65 1.15 2.3 1.15 2.3 2.45 0.65 2.45 M-11.9 1.95 L-11.9 0.65 -10.25 0.9 -10.25 2.2 -11.9 1.95" fill="#70952b" fill-rule="evenodd" stroke="none"/>
    <path d="M23.55 -1.4 L23.55 1.65 21.25 2.15 17.6 2.75 13.1 3.4 8.35 3.8 3.65 4.0 -0.6 4.05 -5.2 3.9 -8.9 3.6 -13.3 3.15 -17.65 2.45 -22.15 1.65 -22.15 -1.4 M21.25 2.15 L21.25 0.1 M16.15 0.4 L14.5 0.6 14.5 1.9 16.15 1.7 16.15 0.4 M17.6 1.15 L17.6 2.75 M13.1 3.4 L13.05 2.05 M3.65 4.0 L3.65 3.3 M8.35 2.9 L8.35 3.8 M0.65 2.45 L2.3 2.45 2.3 1.15 0.65 1.15 0.65 2.45 M-0.6 3.2 L-0.6 4.05 M-8.9 2.05 L-8.9 3.6 M-5.2 3.9 L-5.2 2.65 M-11.9 1.95 L-10.25 2.2 -10.25 0.9 -11.9 0.65 -11.9 1.95 M-13.3 3.15 L-13.3 1.4 M-17.65 2.45 L-17.65 0.5" fill="none" stroke="#70952b" stroke-linecap="round" stroke-linejoin="round" stroke-width="1.0"/>
    <path d="M17.9 -50.25 L30.7 -50.25 19.9 -1.65 11.15 -0.45 17.9 -50.25 M4.1 -0.05 Q-0.4 0.1 -4.95 -0.15 L-8.75 -50.25 6.4 -50.25 4.1 -0.05 M-12.05 -0.8 L-18.75 -1.8 -25.35 -50.25 -17.05 -50.25 -12.05 -0.8" fill="url(#gradient0)" fill-rule="evenodd" stroke="none"/>
    <path d="M11.15 -0.45 L4.1 -0.05 6.4 -50.25 17.9 -50.25 11.15 -0.45 M-4.95 -0.15 L-12.05 -0.8 -17.05 -50.25 -8.75 -50.25 -4.95 -0.15" fill="url(#gradient1)" fill-rule="evenodd" stroke="none"/>
  </g>
  <defs>
    <linearGradient gradientTransform="matrix(0.0, 0.0337, -1.0, 0.0, -53.3, -25.15)" gradientUnits="userSpaceOnUse" id="gradient0" spreadMethod="pad" x1="-819.2" x2="819.2">
      <stop offset="0.0" stop-color="#ffffff" stop-opacity="0.0"/>
      <stop offset="0.9921568627450981" stop-color="#ffffff" stop-opacity="0.2509804"/>
    </linearGradient>
    <linearGradient gradientTransform="matrix(0.0, 0.0337, -1.0, 0.0, -53.3, -25.15)" gradientUnits="userSpaceOnUse" id="gradient1" spreadMethod="pad" x1="-819.2" x2="819.2">
      <stop offset="0.0" stop-color="#ffffff" stop-opacity="0.0"/>
      <stop offset="0.9921568627450981" stop-color="#ffffff" stop-opacity="0.34901962"/>
    </linearGradient>
  </defs>
</svg>
