<?xml version="1.0" encoding="UTF-8" standalone="no"?>
<svg xmlns:xlink="http://www.w3.org/1999/xlink" height="30.0px" width="50.0px" xmlns="http://www.w3.org/2000/svg">
  <g transform="matrix(1.0, 0.0, 0.0, 1.0, 25.0, 15.0)">
    <path d="M-4.35 -2.15 Q3.3 -1.95 6.6 6.3 7.0 7.2 6.5 7.8 L5.35 4.75 -1.2 -1.1 -4.7 -1.5 -4.75 -1.55 -4.75 -1.85 -4.35 -2.15 M-25.0 11.2 Q-25.05 10.3 -23.95 9.0 -13.25 -3.5 -1.75 -12.5 0.9 -12.85 2.65 -11.85 3.4 -13.8 5.4 -15.0 11.25 -13.55 12.85 -11.25 16.4 -11.25 18.25 -2.55 L18.7 1.85 Q18.65 0.0 18.25 -1.75 16.4 -10.05 12.85 -10.0 11.25 -12.2 5.4 -13.6 3.4 -12.4 2.65 -10.55 0.9 -11.5 -1.75 -11.25 -13.25 -2.6 -23.95 9.3 -24.95 10.4 -25.0 11.2 M18.55 4.65 L19.3 5.05 20.85 6.3 Q23.15 8.0 24.4 11.0 L24.6 11.9 Q24.1 10.6 23.0 10.1 L22.15 9.3 21.95 9.1 Q20.05 7.3 18.0 6.0 L18.15 5.75 18.25 5.7 18.35 5.75 18.25 5.65 18.3 5.5 18.45 5.4 18.4 5.25 18.45 5.05 18.5 5.0 18.55 4.65 M16.65 0.85 Q15.9 -0.6 16.05 -1.8 17.7 1.15 16.95 4.5 L16.85 4.95 Q16.6 4.05 16.85 2.6 17.05 1.7 16.65 0.85 M-19.75 9.05 Q-20.1 9.85 -20.1 10.75 L-20.1 11.5 Q-19.35 11.65 -18.9 12.1 L-19.05 12.2 Q-20.55 13.05 -21.4 11.35 -21.65 10.8 -21.4 10.3 -21.0 9.4 -20.3 8.95 L-19.85 9.05 -19.75 9.05" fill="#392d2d" fill-rule="evenodd" stroke="none"/>
    <path d="M-4.35 -2.15 L-4.75 -1.85 -4.75 -1.55 -4.7 -1.5 -1.2 -1.1 5.35 4.75 6.5 7.8 Q7.0 7.2 6.6 6.3 3.3 -1.95 -4.35 -2.15 M-25.0 11.2 Q-24.95 10.4 -23.95 9.3 -13.25 -2.6 -1.75 -11.25 0.9 -11.5 2.65 -10.55 3.4 -12.4 5.4 -13.6 11.25 -12.2 12.85 -10.0 16.4 -10.05 18.25 -1.75 18.65 0.0 18.7 1.85 L18.55 4.65 18.5 5.0 18.45 5.05 18.4 5.25 18.45 5.4 18.3 5.5 18.25 5.65 18.35 5.75 18.25 5.7 18.15 5.75 18.0 6.0 Q20.05 7.3 21.95 9.1 L22.15 9.3 23.0 10.1 Q24.1 10.6 24.6 11.9 L24.9 13.45 24.75 14.0 24.75 14.05 25.0 14.25 25.0 14.3 17.35 15.0 13.2 14.8 13.0 14.6 12.8 14.4 12.6 14.6 12.45 14.8 -3.45 14.1 -3.45 13.3 -4.55 14.05 -23.6 13.25 -23.7 13.2 -24.65 12.15 Q-25.05 11.75 -25.0 11.2 M-19.75 9.05 L-19.85 9.05 -20.3 8.95 Q-21.0 9.4 -21.4 10.3 -21.65 10.8 -21.4 11.35 -20.55 13.05 -19.05 12.2 L-18.9 12.1 Q-19.35 11.65 -20.1 11.5 L-20.1 10.75 Q-20.1 9.85 -19.75 9.05 M16.65 0.85 Q17.05 1.7 16.85 2.6 16.6 4.05 16.85 4.95 L16.95 4.5 Q17.7 1.15 16.05 -1.8 15.9 -0.6 16.65 0.85" fill="#251d1d" fill-rule="evenodd" stroke="none"/>
  </g>
</svg>
