<?xml version="1.0" encoding="UTF-8" standalone="no"?>
<svg xmlns:xlink="http://www.w3.org/1999/xlink" height="39.0px" width="44.5px" xmlns="http://www.w3.org/2000/svg">
  <g transform="matrix(1.0, 0.0, 0.0, 1.0, 22.1, 19.25)">
    <path d="M20.9 -7.35 L20.7 -6.75 Q20.8 -6.15 20.4 -5.65 20.0 -5.25 19.4 -5.15 L-2.1 -3.25 19.7 -1.35 20.6 -0.85 Q21.0 -0.45 21.0 0.15 21.0 0.75 20.6 1.15 L19.7 1.65 -2.3 3.55 19.7 5.55 20.6 6.05 Q21.0 6.45 21.0 7.05 21.0 7.65 20.6 8.05 L19.7 8.55 -2.0 10.45 19.7 12.35 20.6 12.85 Q21.0 13.25 21.0 13.85 21.0 14.45 20.6 14.85 L19.7 15.35 15.1 15.75 19.9 15.75 Q20.5 15.75 21.0 16.25 21.4 16.65 21.4 17.25 21.4 17.85 21.0 18.35 L19.9 18.75 -19.3 18.75 Q-19.9 18.75 -20.3 18.35 -20.8 17.95 -20.8 17.35 -20.8 16.75 -20.4 16.25 -20.0 15.75 -19.4 15.75 L2.5 13.85 -19.4 11.85 Q-20.0 11.75 -20.4 11.35 -20.8 10.95 -20.8 10.35 -20.8 9.75 -20.4 9.35 -20.0 8.95 -19.4 8.85 L2.3 7.05 -19.4 5.05 Q-20.0 4.95 -20.4 4.55 -20.8 4.15 -20.8 3.55 -20.8 2.95 -20.4 2.55 -20.0 2.15 -19.4 2.05 L2.5 0.15 -19.4 -1.85 Q-20.0 -1.95 -20.4 -2.35 -20.8 -2.75 -20.8 -3.35 -20.8 -3.95 -20.4 -4.35 -20.0 -4.75 -19.4 -4.85 L-1.9 -6.35 -20.1 -6.35 Q-20.5 -6.35 -20.8 -6.65 L-21.1 -7.35 -21.1 -17.25 -20.8 -17.95 Q-20.5 -18.25 -20.1 -18.25 L19.9 -18.25 20.6 -17.95 20.9 -17.25 20.9 -7.35" fill="#990000" fill-opacity="0.49803922" fill-rule="evenodd" stroke="none"/>
    <path d="M20.9 -7.35 L20.9 -17.25 20.6 -17.95 19.9 -18.25 -20.1 -18.25 Q-20.5 -18.25 -20.8 -17.95 L-21.1 -17.25 -21.1 -7.35 -20.8 -6.65 Q-20.5 -6.35 -20.1 -6.35 L-1.9 -6.35 -19.4 -4.85 Q-20.0 -4.75 -20.4 -4.35 -20.8 -3.95 -20.8 -3.35 -20.8 -2.75 -20.4 -2.35 -20.0 -1.95 -19.4 -1.85 L2.5 0.15 -19.4 2.05 Q-20.0 2.15 -20.4 2.55 -20.8 2.95 -20.8 3.55 -20.8 4.15 -20.4 4.55 -20.0 4.95 -19.4 5.05 L2.3 7.05 -19.4 8.85 Q-20.0 8.95 -20.4 9.35 -20.8 9.75 -20.8 10.35 -20.8 10.95 -20.4 11.35 -20.0 11.75 -19.4 11.85 L2.5 13.85 -19.4 15.75 Q-20.0 15.75 -20.4 16.25 -20.8 16.75 -20.8 17.35 -20.8 17.95 -20.3 18.35 -19.9 18.75 -19.3 18.75 L19.9 18.75 21.0 18.35 Q21.4 17.85 21.4 17.25 21.4 16.65 21.0 16.25 20.5 15.75 19.9 15.75 L15.1 15.75 19.7 15.35 20.6 14.85 Q21.0 14.45 21.0 13.85 21.0 13.25 20.6 12.85 L19.7 12.35 -2.0 10.45 19.7 8.55 20.6 8.05 Q21.0 7.65 21.0 7.05 21.0 6.45 20.6 6.05 L19.7 5.55 -2.3 3.55 19.7 1.65 20.6 1.15 Q21.0 0.75 21.0 0.15 21.0 -0.45 20.6 -0.85 L19.7 -1.35 -2.1 -3.25 19.4 -5.15 Q20.0 -5.25 20.4 -5.65 20.8 -6.15 20.7 -6.75 L20.9 -7.35 Z" fill="none" stroke="#00cc00" stroke-linecap="butt" stroke-linejoin="round" stroke-width="2.0"/>
  </g>
</svg>
