<?xml version="1.0" encoding="UTF-8" standalone="no"?>
<svg xmlns:xlink="http://www.w3.org/1999/xlink" height="24.6px" width="5.65px" xmlns="http://www.w3.org/2000/svg">
  <g transform="matrix(1.0, 0.0, 0.0, 1.0, 1.6, 24.1)">
    <path d="M3.15 -21.55 L3.1 -21.8 2.6 -22.0 2.55 -22.15 2.35 -22.25 2.8 -22.4 2.85 -22.75 1.05 -22.65 Q0.8 -22.8 0.6 -22.9 L1.0 -23.0 1.9 -23.0 1.95 -23.25 2.05 -23.45 0.4 -23.5 0.3 -23.2 0.45 -23.25 0.35 -23.15 0.25 -23.05 -0.15 -23.15 0.95 -23.85 1.65 -23.65 3.1 -23.5 3.6 -19.4 3.7 -19.0 2.75 -19.25 3.3 -19.4 3.3 -19.6 3.25 -19.55 2.05 -19.95 -0.95 -21.25 -1.0 -22.5 -0.35 -23.05 Q-0.25 -22.95 0.25 -22.75 L-0.45 -22.85 -0.85 -21.45 -0.75 -21.55 -0.55 -21.85 -0.6 -21.5 -0.25 -21.55 -0.15 -21.65 1.95 -21.35 2.6 -21.3 3.05 -21.25 3.15 -21.55 M2.6 -22.0 L-0.05 -22.45 -0.1 -22.5 2.6 -22.0 M0.65 -20.35 L0.3 -20.4 0.25 -20.35 0.4 -20.2 1.9 -19.4 1.25 -19.65 -0.9 -20.7 -0.9 -21.0 0.65 -20.35 M1.6 -19.0 L1.25 -19.25 0.45 -19.65 -0.35 -19.95 -0.65 -20.05 -0.7 -20.0 -0.55 -19.85 -0.75 -19.75 -0.8 -19.6 -0.55 -19.45 -0.15 -18.85 Q1.2 -17.5 1.85 -18.15 L2.0 -18.3 1.95 -18.45 1.8 -18.5 1.85 -18.55 1.85 -18.85 1.6 -19.0 M0.4 -19.8 L2.15 -19.25 Q3.35 -19.15 3.65 -18.75 L3.75 -18.75 Q3.65 -18.35 3.7 -17.8 L2.7 -17.6 1.45 -17.75 -0.7 -17.9 -0.8 -18.5 -0.85 -20.55 0.4 -19.8 M3.3 -19.7 L3.25 -19.75 Q3.0 -19.85 2.7 -20.0 L2.6 -19.9 3.3 -19.7 M3.0 -18.8 L2.75 -18.75 3.05 -18.75 3.0 -18.8 M3.15 -17.15 L3.15 -17.25 1.25 -17.65 1.25 -17.55 1.8 -17.2 1.75 -17.15 1.85 -17.05 3.05 -16.85 3.15 -17.15 M1.25 -17.65 L1.4 -17.7 3.6 -17.4 3.6 -17.0 3.5 -16.2 Q3.05 -16.35 0.65 -17.65 L1.25 -17.65 M1.2 -15.8 L1.7 -15.5 Q1.95 -15.35 2.2 -15.3 L2.8 -15.5 Q3.0 -15.7 2.8 -15.9 L2.7 -15.9 2.7 -16.0 2.55 -16.15 Q1.55 -16.65 1.2 -17.0 L0.7 -17.5 Q1.25 -17.15 3.5 -16.1 L3.25 -15.25 0.1 -15.5 -0.15 -15.75 -0.45 -15.75 -0.4 -15.6 -0.85 -16.35 -0.7 -17.5 -0.65 -17.75 -0.05 -17.65 -0.35 -17.55 -0.4 -17.3 -0.55 -17.15 -0.6 -17.1 -0.6 -16.8 -0.55 -16.55 Q-0.35 -16.35 0.45 -16.25 L0.8 -15.8 Q1.0 -15.6 1.2 -15.8 M0.85 -16.85 L-0.15 -17.35 0.5 -17.2 0.85 -16.85 M1.5 -15.1 L3.1 -15.0 2.95 -14.75 2.0 -14.7 2.0 -14.9 1.5 -15.1 M1.65 -14.75 L0.2 -14.8 -0.2 -15.3 -0.15 -15.25 0.7 -15.2 0.4 -15.2 0.45 -14.95 1.65 -14.75" fill="#292825" fill-rule="evenodd" stroke="none"/>
    <path d="M0.25 -22.75 Q-0.25 -22.95 -0.35 -23.05 L-1.0 -22.5 -0.95 -21.25 2.05 -19.95 0.85 -20.25 0.8 -20.3 0.7 -20.3 0.65 -20.35 -0.9 -21.0 -0.9 -20.7 1.25 -19.65 1.9 -19.4 2.75 -19.25 3.7 -19.0 3.6 -19.4 3.1 -23.5 1.65 -23.65 0.95 -23.85 -0.15 -23.15 0.25 -23.05 0.2 -23.0 0.6 -22.9 Q0.8 -22.8 1.05 -22.65 L2.85 -22.75 2.8 -22.4 2.35 -22.25 0.25 -22.75 M0.4 -19.8 L-0.85 -20.55 -0.8 -18.5 -0.7 -17.9 1.45 -17.75 2.7 -17.6 3.7 -17.8 Q3.65 -18.35 3.75 -18.75 L3.65 -18.75 Q3.35 -19.15 2.15 -19.25 L0.4 -19.8 M3.3 -19.7 L2.6 -19.9 2.7 -20.0 Q3.0 -19.85 3.25 -19.75 L3.3 -19.7 M-0.05 -14.55 Q-0.9 -15.4 -1.15 -16.05 L-1.2 -17.9 -1.3 -17.9 -1.25 -17.95 -1.2 -17.9 -1.2 -18.3 Q-1.15 -18.95 -1.6 -21.2 -1.75 -22.35 -0.9 -23.2 0.6 -24.7 3.4 -23.7 L4.05 -19.45 4.0 -17.2 Q3.6 -14.8 3.25 -14.45 L3.1 -14.3 3.0 -14.4 2.9 -14.3 1.35 -14.25 0.25 -14.45 0.15 -14.65 -0.05 -14.75 -0.05 -14.55 M1.25 -17.65 L0.65 -17.65 Q3.05 -16.35 3.5 -16.2 L3.6 -17.0 3.6 -17.4 1.4 -17.7 1.25 -17.65 M-0.05 -17.65 L-0.65 -17.75 -0.7 -17.5 -0.85 -16.35 -0.4 -15.6 -0.45 -15.75 -0.15 -15.75 0.1 -15.5 3.25 -15.25 3.5 -16.1 Q1.25 -17.15 0.7 -17.5 L0.4 -17.6 0.35 -17.65 -0.05 -17.65 M1.5 -15.1 L1.4 -15.1 1.35 -15.15 0.7 -15.2 -0.15 -15.25 -0.2 -15.3 0.2 -14.8 1.65 -14.75 2.0 -14.7 2.95 -14.75 3.1 -15.0 1.5 -15.1" fill="#000000" fill-rule="evenodd" stroke="none"/>
    <path d="M-0.55 -21.85 L-0.75 -21.55 -0.85 -21.45 -0.45 -22.85 0.25 -22.75 2.35 -22.25 2.55 -22.15 2.6 -22.0 -0.1 -22.5 -0.25 -22.55 -0.4 -22.4 -0.55 -21.95 -0.55 -21.85 M2.05 -19.95 L3.25 -19.55 3.3 -19.6 3.3 -19.4 2.75 -19.25 1.9 -19.4 0.4 -20.2 0.25 -20.35 0.3 -20.4 0.65 -20.35 0.7 -20.3 0.8 -20.3 0.85 -20.25 2.05 -19.95 M0.45 -23.25 L0.3 -23.2 0.4 -23.5 2.05 -23.45 1.95 -23.25 1.2 -23.4 0.45 -23.25 M1.6 -19.0 L0.65 -19.45 0.45 -19.65 1.25 -19.25 1.6 -19.0 M-0.35 -19.95 L-0.55 -19.85 -0.7 -20.0 -0.65 -20.05 -0.35 -19.95 M3.0 -18.8 L3.05 -18.75 2.75 -18.75 3.0 -18.8 M1.25 -17.65 L3.15 -17.25 3.15 -17.15 3.1 -17.2 1.85 -17.25 1.8 -17.2 1.25 -17.55 1.25 -17.65 M-0.4 -17.3 L-0.35 -17.55 -0.05 -17.65 0.35 -17.65 0.4 -17.6 0.7 -17.5 1.2 -17.0 Q1.55 -16.65 2.55 -16.15 L2.7 -16.0 2.7 -15.9 2.05 -16.05 1.2 -16.6 0.85 -16.85 0.5 -17.2 -0.15 -17.35 -0.4 -17.3 M0.7 -15.2 L1.35 -15.15 1.4 -15.1 1.5 -15.1 2.0 -14.9 2.0 -14.7 1.65 -14.75 0.45 -14.95 0.4 -15.2 0.7 -15.2" fill="#585650" fill-rule="evenodd" stroke="none"/>
    <path d="M2.6 -22.0 L3.1 -21.8 3.15 -21.55 3.1 -21.6 1.4 -21.8 -0.2 -22.0 -0.35 -21.65 -0.15 -21.65 -0.25 -21.55 -0.6 -21.5 -0.55 -21.85 -0.55 -21.95 -0.4 -22.4 -0.25 -22.55 -0.1 -22.5 -0.05 -22.45 2.6 -22.0 M0.25 -23.05 L0.35 -23.15 0.45 -23.25 1.2 -23.4 1.95 -23.25 1.9 -23.0 1.0 -23.0 0.6 -22.9 0.2 -23.0 0.25 -23.05 M0.45 -19.65 L0.65 -19.45 1.6 -19.0 1.85 -18.85 1.85 -18.55 1.8 -18.5 0.6 -18.8 -0.55 -19.65 -0.65 -19.55 -0.55 -19.45 -0.8 -19.6 -0.75 -19.75 -0.55 -19.85 -0.35 -19.95 0.45 -19.65 M3.15 -17.15 L3.05 -16.85 1.85 -17.05 1.75 -17.15 1.8 -17.2 1.85 -17.25 3.1 -17.2 3.15 -17.15 M2.7 -15.9 L2.8 -15.9 Q3.0 -15.7 2.8 -15.5 L2.2 -15.3 Q1.95 -15.35 1.7 -15.5 L1.2 -15.8 1.3 -15.9 1.2 -16.0 Q0.45 -16.75 -0.6 -16.8 L-0.6 -17.1 -0.55 -17.15 0.45 -17.05 1.15 -16.45 Q1.5 -16.2 2.05 -16.05 L2.7 -15.9" fill="#464542" fill-rule="evenodd" stroke="none"/>
    <path d="M3.15 -21.55 L3.05 -21.25 2.6 -21.3 1.95 -21.35 -0.15 -21.65 -0.35 -21.65 -0.2 -22.0 1.4 -21.8 3.1 -21.6 3.15 -21.55 M-0.55 -19.45 L-0.65 -19.55 -0.55 -19.65 0.6 -18.8 1.8 -18.5 1.95 -18.45 2.0 -18.3 1.85 -18.15 Q1.2 -17.5 -0.15 -18.85 L-0.55 -19.45 M1.2 -15.8 Q1.0 -15.6 0.8 -15.8 L0.45 -16.25 Q-0.35 -16.35 -0.55 -16.55 L-0.6 -16.8 Q0.45 -16.75 1.2 -16.0 L1.3 -15.9 1.2 -15.8" fill="#3e3d39" fill-rule="evenodd" stroke="none"/>
    <path d="M-0.55 -17.15 L-0.4 -17.3 -0.15 -17.35 0.85 -16.85 1.2 -16.6 2.05 -16.05 Q1.5 -16.2 1.15 -16.45 L0.45 -17.05 -0.55 -17.15" fill="#53524d" fill-rule="evenodd" stroke="none"/>
    <path d="M3.1 -14.3 L3.15 -14.25 Q3.5 -13.9 3.15 -10.95 L2.6 -7.0 1.6 0.0 1.7 0.1 1.3 0.5 -0.05 0.35 -1.1 -0.3 Q-1.35 -0.55 -1.1 -1.6 -1.3 -2.2 -1.1 -4.3 -0.95 -6.85 -0.6 -8.2 -0.25 -9.45 -0.3 -11.4 0.05 -12.55 -0.05 -14.55 L-0.05 -14.75 0.15 -14.65 0.25 -14.45 0.05 -11.25 -0.25 -8.05 Q-1.0 -3.9 -0.75 -1.55 L-0.9 -1.4 -0.9 -0.5 -0.55 -0.25 -0.6 -0.2 -0.25 -0.05 Q0.6 0.6 1.25 -0.05 L1.4 -0.1 2.3 -6.9 Q3.3 -13.7 2.85 -14.15 L2.85 -14.25 2.9 -14.3 3.0 -14.4 3.1 -14.3" fill="#2d2c24" fill-rule="evenodd" stroke="none"/>
    <path d="M-0.55 -0.25 L-0.6 -3.3 -0.1 -6.7 0.35 -10.35 Q0.55 -13.75 0.8 -14.0 1.15 -14.35 1.6 -14.0 1.85 -13.75 1.6 -10.9 L1.25 -7.35 0.55 -3.55 Q0.65 -0.55 0.3 -0.2 0.0 0.1 -0.25 -0.05 L-0.6 -0.2 -0.55 -0.25 M1.3 -13.9 L1.2 -13.9 0.65 -7.35 -0.35 -3.55 Q-0.8 -1.0 -0.25 -0.45 L-0.15 -0.45 0.05 -3.55 Q0.15 -5.45 0.85 -7.15 L1.3 -10.6 Q1.55 -13.65 1.3 -13.9" fill="#5b594d" fill-rule="evenodd" stroke="none"/>
    <path d="M1.3 -13.9 Q1.55 -13.65 1.3 -10.6 L0.85 -7.15 Q0.15 -5.45 0.05 -3.55 L-0.15 -0.45 -0.25 -0.45 Q-0.8 -1.0 -0.35 -3.55 L0.65 -7.35 1.2 -13.9 1.3 -13.9" fill="#8f8c7c" fill-rule="evenodd" stroke="none"/>
    <path d="M0.25 -14.45 L1.35 -14.25 2.9 -14.3 2.85 -14.25 2.85 -14.15 Q3.3 -13.7 2.3 -6.9 L1.4 -0.1 1.25 -0.05 Q0.6 0.6 -0.25 -0.05 0.0 0.1 0.3 -0.2 0.65 -0.55 0.55 -3.55 L1.25 -7.35 1.6 -10.9 Q1.85 -13.75 1.6 -14.0 1.15 -14.35 0.8 -14.0 0.55 -13.75 0.35 -10.35 L-0.1 -6.7 -0.6 -3.3 -0.55 -0.25 -0.9 -0.5 -0.9 -1.4 -0.75 -1.55 Q-1.0 -3.9 -0.25 -8.05 L0.05 -11.25 0.25 -14.45 M2.8 -12.9 L2.7 -13.0 Q2.15 -10.95 1.7 -6.4 L0.4 0.0 0.75 0.05 Q1.45 -0.65 2.8 -12.9" fill="#45433a" fill-rule="evenodd" stroke="none"/>
    <path d="M2.8 -12.9 Q1.45 -0.65 0.75 0.05 L0.4 0.0 1.7 -6.4 Q2.15 -10.95 2.7 -13.0 L2.8 -12.9" fill="#403f37" fill-rule="evenodd" stroke="none"/>
  </g>
</svg>
