<?xml version="1.0" encoding="UTF-8" standalone="no"?>
<svg xmlns:xlink="http://www.w3.org/1999/xlink" height="29.55px" width="32.5px" xmlns="http://www.w3.org/2000/svg">
  <g transform="matrix(1.0, 0.0, 0.0, 1.0, 16.25, 15.5)">
    <path d="M0.9 -13.85 L1.2 -13.85 2.0 -13.7 2.25 -13.6 2.45 -13.45 2.9 -12.7 Q0.05 -13.1 -2.8 -12.7 L-2.35 -13.4 -2.35 -13.45 -2.2 -13.6 -1.95 -13.7 -0.65 -13.8 -0.4 -13.8 0.9 -13.85" fill="#000000" fill-rule="evenodd" stroke="none"/>
    <path d="M14.3 12.25 L12.6 12.05 Q0.8 14.1 -12.45 11.9 L-14.0 11.6 Q-2.25 9.55 15.2 11.9 L15.25 12.05 14.3 12.25" fill="#ffffff" fill-rule="evenodd" stroke="none"/>
    <path d="M2.9 -12.7 Q9.8 -1.55 16.2 11.75 L16.25 11.85 16.25 12.05 16.25 12.15 16.2 12.25 16.05 12.35 16.0 12.4 15.85 12.45 Q1.35 15.7 -15.3 12.35 L-15.35 12.35 -15.6 12.45 -16.0 12.4 -16.2 12.1 -16.2 11.75 Q-9.5 -1.55 -2.8 -12.7 0.05 -13.1 2.9 -12.7 M15.25 12.05 L15.2 11.9 Q-2.25 9.55 -14.0 11.6 L-12.45 11.9 Q0.8 14.1 12.6 12.05 L14.3 12.25 15.6 12.45 15.3 12.2 15.25 12.05" fill="url(#gradient0)" fill-rule="evenodd" stroke="none"/>
    <path d="M-0.65 -13.8 Q-0.7 -15.1 0.15 -15.0 0.95 -14.9 0.9 -13.85" fill="none" stroke="#000000" stroke-linecap="round" stroke-linejoin="round" stroke-width="1.0"/>
  </g>
  <defs>
    <linearGradient gradientTransform="matrix(0.0198, 0.0, 0.0, 0.0169, 0.0, 0.15)" gradientUnits="userSpaceOnUse" id="gradient0" spreadMethod="pad" x1="-819.2" x2="819.2">
      <stop offset="0.0" stop-color="#000000"/>
      <stop offset="0.5098039215686274" stop-color="#313030"/>
      <stop offset="1.0" stop-color="#000000"/>
    </linearGradient>
  </defs>
</svg>
