<?xml version="1.0" encoding="UTF-8" standalone="no"?>
<svg xmlns:xlink="http://www.w3.org/1999/xlink" height="15.0px" width="30.0px" xmlns="http://www.w3.org/2000/svg">
  <g transform="matrix(1.0, 0.0, 0.0, 1.0, 15.0, 7.5)">
    <path d="M13.5 -5.45 L14.65 -5.2 14.65 -5.05 14.7 -4.85 14.65 -4.65 14.65 -4.25 5.3 -4.25 -4.05 -4.25 -7.6 -4.35 -13.95 -4.8 -13.45 -5.05 -4.05 -5.3 5.3 -5.35 11.3 -5.35 13.5 -5.45 M13.75 -0.95 L14.0 -0.4 14.0 0.15 13.75 0.5 13.5 0.55 13.5 -1.1 13.75 -0.95 M13.95 5.3 L14.7 5.7 14.65 6.0 Q14.35 6.25 13.8 6.3 L-12.2 6.3 -14.15 5.75 -13.75 5.5 -12.65 5.2 12.1 5.2 13.95 5.3 M-5.6 -5.0 L-6.85 -5.05 -6.85 -5.0 -5.6 -5.0" fill="#625039" fill-rule="evenodd" stroke="none"/>
    <path d="M10.95 -6.25 L13.85 -6.3 5.3 -6.35 -4.05 -6.4 -13.7 -6.4 Q-14.3 -6.15 -14.35 -5.6 L-14.3 -5.5 -14.25 -5.45 Q-13.95 -5.15 -13.45 -5.05 L-13.95 -4.8 -7.6 -4.35 -4.05 -4.25 5.3 -4.25 14.65 -4.25 14.65 -4.2 -14.1 -4.2 -14.5 -4.1 -14.75 -4.1 -14.75 -6.8 14.65 -6.8 14.65 -5.2 13.5 -5.45 13.5 -5.7 10.95 -6.25 M12.0 -2.45 L-13.5 -2.5 -13.8 -2.35 Q-14.0 -2.75 -14.0 -1.5 L-14.0 -0.8 -13.85 -0.85 -13.95 0.3 Q-13.95 2.15 -13.4 2.15 L-13.1 2.05 13.5 2.0 13.5 1.4 13.5 0.55 13.75 0.5 14.0 0.15 14.0 -0.4 13.75 -0.95 13.75 -1.85 13.75 -2.45 13.6 -2.45 13.6 -2.5 12.95 -2.45 12.0 -2.45 M13.95 5.3 L14.0 4.5 14.3 4.4 13.85 4.0 13.95 4.25 Q13.15 3.7 11.8 3.7 L7.85 3.85 6.45 3.55 14.75 3.55 14.75 6.8 -14.75 6.5 -14.75 3.55 2.35 3.55 2.25 3.85 Q2.25 4.15 1.75 4.25 L-2.8 4.4 -4.05 4.35 -4.45 4.25 -10.35 3.95 -12.2 4.0 -13.3 4.25 -13.95 4.25 -14.1 4.4 -14.25 4.9 -14.35 5.0 Q-14.25 5.5 -13.75 5.5 L-14.15 5.75 -12.2 6.3 13.8 6.3 Q14.35 6.25 14.65 6.0 L14.7 5.7 13.95 5.3 M14.2 2.85 L-14.35 2.85 -14.35 -3.4 -14.1 -3.5 14.2 -3.5 14.2 2.85" fill="#564732" fill-rule="evenodd" stroke="none"/>
    <path d="M10.95 -6.25 L13.5 -5.7 13.5 -5.45 11.3 -5.35 5.3 -5.35 -4.05 -5.3 -13.45 -5.05 Q-13.95 -5.15 -14.25 -5.45 -14.25 -6.25 -13.85 -6.25 L10.95 -6.25 M11.8 -2.2 L12.0 -2.45 12.95 -2.45 11.8 -2.2 M-13.8 -2.35 L-12.45 -2.15 Q-13.4 -2.15 -13.65 -1.8 L-13.85 -0.85 -14.0 -0.8 -14.0 -1.5 Q-14.0 -2.75 -13.8 -2.35 M13.6 -2.45 L13.75 -2.45 13.75 -1.85 13.75 -0.95 13.5 -1.1 13.6 -2.45 M14.0 4.5 L13.95 5.3 12.1 5.2 -12.65 5.2 -13.75 5.5 Q-14.25 5.5 -14.35 5.0 L-14.25 4.9 -14.15 4.75 -14.1 4.5 14.0 4.5 M-13.3 4.25 L-12.2 4.0 -10.35 3.95 -4.45 4.25 -13.3 4.25 M1.75 4.25 Q2.25 4.15 2.25 3.85 L2.35 3.55 6.45 3.55 7.85 3.85 11.8 3.7 Q13.15 3.7 13.95 4.25 L1.75 4.25 M-12.8 -5.5 L-14.0 -5.6 -14.0 -5.45 -13.85 -5.35 -13.8 -5.5 -12.8 -5.5 M-14.0 -5.6 L-12.9 -5.6 -14.2 -5.7 -14.2 -5.6 -14.0 -5.6 M-14.35 -5.6 L-14.25 -5.7 -14.3 -5.6 -14.35 -5.6 M-7.85 5.15 L-6.65 5.15 -7.85 5.05 -7.85 5.15 M-14.15 4.9 L-14.0 5.0 -13.95 4.9 -2.85 4.8 -14.0 4.75 -14.1 4.9 -14.15 4.9" fill="#715c42" fill-rule="evenodd" stroke="none"/>
    <path d="M-12.45 -2.15 L11.8 -2.2 12.95 -2.45 13.6 -2.5 13.6 -2.45 13.5 -1.1 13.5 0.55 13.5 1.4 13.5 2.0 -13.1 2.05 -13.4 2.15 Q-13.95 2.15 -13.95 0.3 L-13.85 -0.85 -13.65 -1.8 Q-13.4 -2.15 -12.45 -2.15 M12.6 -1.6 L12.5 -1.75 -13.0 -1.8 -13.4 -1.65 -13.45 -1.65 -13.65 -1.5 -13.7 -1.35 -13.75 -1.25 -13.8 -0.3 -13.75 1.5 -13.65 1.5 -13.5 1.4 -13.45 1.65 13.25 1.65 13.25 1.4 13.2 1.25 13.25 -0.4 13.25 -1.35 13.25 -1.6 12.6 -1.6 M13.1 -1.2 L13.0 -1.1 13.1 -0.95 12.95 -0.8 Q12.8 -0.95 12.95 -1.2 L13.1 -1.2 M-13.3 -1.2 L-13.3 -0.85 Q-13.5 -0.8 -13.5 -1.1 L-13.3 -1.2 M12.8 0.4 L12.95 0.4 12.85 1.1 12.8 0.85 12.8 0.4 M12.75 1.15 L12.8 1.15 12.75 1.15 M-13.6 0.5 Q-13.5 0.3 -13.45 0.55 L-13.4 0.85 -13.6 0.5" fill="#32373d" fill-rule="evenodd" stroke="none"/>
    <path d="M1.0 -0.3 L0.85 0.3 0.9 0.5 1.15 -0.1 1.2 -0.95 0.9 -1.0 1.0 -0.3 M0.45 -0.1 L0.25 0.3 0.15 0.4 0.45 0.5 Q0.65 -0.5 0.85 0.25 L0.75 -0.35 0.45 -0.8 0.45 -0.1 M2.4 -1.1 L2.35 -0.35 2.25 -0.95 2.2 -0.85 2.2 -1.1 2.0 0.3 1.9 -0.8 1.9 -0.65 1.8 0.15 1.8 0.4 2.0 0.7 2.25 0.8 2.35 -0.15 Q2.35 0.85 2.55 0.7 2.9 0.55 2.85 -0.95 L2.75 -1.0 2.75 -0.55 2.7 -0.1 2.55 0.3 2.4 -0.95 2.4 -1.1 M4.4 -0.1 L4.3 -0.95 Q4.15 -0.65 4.15 0.25 L3.95 -1.1 3.8 0.1 3.6 -1.1 Q3.3 -0.4 3.0 -0.3 L3.05 0.3 Q3.1 0.8 3.4 0.8 L4.8 0.4 4.9 -0.65 4.75 -1.1 4.4 -0.1 M5.1 -0.85 L5.1 0.5 5.6 0.5 5.6 -0.85 5.1 -0.85 M5.35 -0.65 L5.45 -0.5 5.5 -0.25 5.45 0.15 5.35 0.3 5.3 0.25 5.3 0.15 5.25 -0.25 5.3 -0.5 5.3 -0.55 5.35 -0.65 M5.75 -0.15 L5.85 0.4 6.1 0.7 6.35 0.4 6.45 -0.15 6.35 -0.7 6.1 -0.95 5.85 -0.7 5.75 -0.15 M6.0 -0.35 Q6.25 -0.3 6.3 0.15 L5.95 0.3 5.85 -0.5 6.0 -0.35 M6.65 -0.85 L6.5 -0.25 Q6.5 0.25 6.65 0.4 L6.95 0.7 7.15 0.4 7.2 -0.25 7.15 -0.85 6.95 -1.1 6.65 -0.85 M6.7 -0.55 L6.95 -0.7 7.1 -0.55 7.15 -0.3 7.1 0.1 6.95 0.25 6.7 0.1 6.65 -0.3 6.7 -0.55 M7.8 -0.8 L7.5 -0.55 7.8 -0.25 7.8 -0.8 M8.35 -0.25 L8.05 0.7 8.55 -0.25 8.15 -1.1 8.35 -0.25 M9.65 -0.15 L9.75 0.4 10.15 0.8 10.4 -0.65 10.4 -0.25 10.4 0.85 10.55 0.85 10.7 0.4 10.55 0.4 10.6 -0.7 Q10.85 -0.95 10.35 -0.95 9.85 -0.95 10.25 -0.35 10.2 0.15 10.05 -0.1 9.85 -0.25 9.9 -0.5 L9.95 -0.35 9.85 -0.8 9.65 -0.15 M12.6 -1.6 L13.25 -1.6 13.25 -1.35 13.1 0.85 13.2 0.85 13.25 -0.4 13.2 1.25 12.9 1.25 12.8 1.15 12.75 1.15 -13.5 1.25 -13.3 1.35 -13.6 1.35 -13.5 1.4 -13.65 1.5 -13.65 -1.1 -13.5 -1.1 Q-13.5 -0.8 -13.3 -0.85 L-13.3 -1.2 -7.8 -1.25 -8.3 -1.0 -8.15 0.5 -7.9 0.4 Q-7.65 0.4 -7.4 0.65 L-7.2 0.3 -7.2 -0.3 -7.1 -0.65 -6.85 0.8 -6.65 0.8 -6.8 0.0 -7.15 -0.95 -7.3 -0.15 -7.4 0.5 -7.5 -0.25 -7.65 -1.25 12.95 -1.2 Q12.8 -0.95 12.95 -0.8 L13.1 -0.95 13.0 -1.1 13.1 -1.2 13.15 -1.4 12.5 -1.5 12.6 -1.6 M-13.65 -1.5 L-13.45 -1.65 -13.4 -1.65 -13.65 -1.5 M11.1 -0.95 L10.9 0.55 11.2 0.65 11.45 0.5 11.45 -0.55 11.6 -0.8 11.6 -0.15 11.7 0.5 11.75 0.4 11.6 -1.1 11.3 -0.5 11.1 0.3 11.1 -0.35 11.1 -0.95 M10.75 -1.1 L10.7 0.1 10.75 -0.15 10.75 -1.1 M12.0 -0.8 L12.3 -0.55 12.1 -0.15 12.2 0.15 12.2 0.5 11.95 0.8 12.4 0.85 12.5 0.15 12.45 -0.7 12.2 -0.95 11.95 -0.95 12.0 -0.8 M12.6 -0.15 L12.65 0.4 12.65 0.55 12.75 0.4 12.8 -0.15 12.75 -0.65 12.65 -0.85 12.65 -0.65 12.6 -0.15 M12.8 0.4 L12.8 0.85 12.85 1.1 12.95 0.4 12.8 0.4 M9.7 0.55 L9.35 -0.8 9.15 0.5 9.35 -0.25 9.65 0.8 9.7 0.55 M9.15 1.0 L8.75 -0.7 8.65 0.3 8.75 -0.15 8.9 0.4 9.15 1.0 M7.85 0.1 L7.65 0.4 7.85 0.3 7.85 0.1 M1.7 0.25 L1.5 0.4 1.4 0.4 1.4 0.8 Q1.7 0.7 1.7 0.25 M-12.65 0.15 L-12.65 0.4 -12.5 0.5 -12.45 -0.35 -12.4 -0.5 -11.7 0.8 -11.65 1.25 -11.65 0.55 -11.65 -0.3 -11.6 -0.15 -11.25 0.4 -11.2 -0.25 -11.6 -0.5 -11.9 -0.4 -11.8 -0.35 Q-11.8 0.3 -11.95 0.3 -12.0 -0.85 -12.15 -0.85 L-12.1 -0.95 -12.45 -1.1 -12.75 -0.95 -12.65 0.15 M-11.25 0.4 L-10.9 0.4 -10.9 -0.1 -10.75 -0.65 -10.6 -0.4 -10.7 -0.95 -11.1 -0.25 -11.25 0.4 M-10.4 -0.4 L-10.4 0.25 -10.4 0.0 -10.2 -0.5 -10.25 -0.95 -10.4 -0.4 M-9.55 -0.4 L-9.4 -0.3 -9.4 0.0 -9.4 0.3 -9.55 0.4 -9.55 0.3 -9.65 0.0 -9.55 -0.3 -9.55 -0.4 M-10.05 -0.15 L-9.9 0.4 -9.95 -0.5 -10.05 -0.15 M-9.75 -0.7 L-9.75 0.85 -9.35 0.85 -9.35 -0.7 -9.75 -0.7 M-9.15 -0.85 L-9.2 -0.25 -9.15 0.4 -8.9 0.7 -8.7 0.4 -8.65 -0.25 -8.7 -0.85 -8.9 -1.1 -9.15 -0.85 M-7.85 -0.95 L-7.7 -0.95 -7.65 -0.8 -7.85 -0.95 M-8.0 -0.65 L-7.6 -0.3 -7.6 0.1 -8.0 -0.3 -8.0 -0.65 M-5.25 -0.65 L-5.3 -0.1 -5.5 -0.25 -5.75 0.4 -5.6 0.65 -5.35 0.85 -5.15 0.65 -5.15 -0.3 -5.1 0.0 -4.75 0.4 -5.15 -0.95 -5.25 -0.65 M-5.95 -0.3 Q-5.85 -0.05 -5.9 0.35 L-5.85 0.0 -5.75 -0.3 -5.95 -0.3 M-1.7 -0.25 L-1.7 0.4 -1.5 0.65 -0.7 0.5 -0.75 -0.15 -0.55 -0.55 -0.55 -0.65 -0.85 -0.7 -1.15 -0.4 -0.85 0.25 -1.3 0.3 -1.4 -0.8 -1.55 -0.4 -1.7 -0.25 M-1.8 -0.95 L-2.55 -0.15 Q-2.55 0.85 -2.25 1.0 L-1.9 0.85 -1.85 0.8 -1.9 0.55 -2.05 0.65 -2.1 0.55 -2.2 0.3 -2.1 0.15 -2.05 0.0 -1.9 0.15 -1.55 -0.7 -1.8 -0.95 M-0.25 -0.25 L-0.5 0.3 Q-0.15 0.8 -0.05 0.4 L-0.15 -0.25 -0.15 -0.4 -0.25 -0.25 M-2.4 0.15 L-2.4 -0.3 Q-2.2 -0.3 -2.25 0.4 L-2.4 0.15 M-3.0 0.4 L-2.8 0.25 -2.8 0.0 Q-3.2 0.0 -3.2 0.4 L-3.0 0.4 M-3.4 0.1 L-3.7 0.15 -3.9 0.3 Q-3.4 0.4 -3.4 0.1 M-5.5 0.55 L-5.6 0.4 -5.45 -0.15 -5.35 0.3 -5.5 0.55 M-6.45 0.7 L-6.25 0.95 Q-6.15 0.0 -6.35 -0.3 -6.6 -0.3 -6.5 0.1 L-6.35 -0.15 Q-6.35 0.4 -6.45 0.3 L-6.65 0.55 -6.45 0.7 M-10.6 0.7 L-10.4 0.3 Q-10.6 -0.1 -10.6 0.4 L-10.55 -0.4 -10.85 0.1 -10.6 0.7 M-13.6 0.5 L-13.4 0.85 -13.45 0.55 Q-13.5 0.3 -13.6 0.5" fill="#818b96" fill-rule="evenodd" stroke="none"/>
    <path d="M-13.4 -1.65 L-13.0 -1.8 12.5 -1.75 12.6 -1.6 12.5 -1.5 -12.8 -1.5 -13.3 -1.2 -13.5 -1.1 -13.65 -1.1 -13.7 -1.35 -13.65 -1.5 -13.4 -1.65 M13.2 1.25 L13.25 1.4 13.25 1.65 -13.45 1.65 -13.5 1.4 -13.6 1.35 -13.3 1.35 -13.1 1.4 12.9 1.4 12.9 1.25 13.2 1.25" fill="#515762" fill-rule="evenodd" stroke="none"/>
    <path d="M12.5 -1.5 L13.15 -1.4 13.1 -1.2 12.95 -1.2 -7.65 -1.25 -7.8 -1.25 -13.3 -1.2 -12.8 -1.5 12.5 -1.5 M12.75 1.15 L12.8 1.15 12.9 1.25 12.9 1.4 -13.1 1.4 -13.3 1.35 -13.5 1.25 12.75 1.15" fill="#b5b9c1" fill-rule="evenodd" stroke="none"/>
    <path d="M9.65 -0.15 L9.85 -0.8 9.95 -0.35 9.9 -0.5 Q9.85 -0.25 10.05 -0.1 10.2 0.15 10.25 -0.35 9.85 -0.95 10.35 -0.95 10.85 -0.95 10.6 -0.7 L10.55 0.4 10.7 0.4 10.55 0.85 10.4 0.85 10.4 -0.25 10.4 -0.65 10.15 0.8 9.75 0.4 9.65 -0.15 M8.35 -0.25 L8.15 -1.1 8.55 -0.25 8.05 0.7 8.35 -0.25 M7.8 -0.8 L7.8 -0.25 7.5 -0.55 7.8 -0.8 M6.7 -0.55 L6.65 -0.3 6.7 0.1 6.95 0.25 7.1 0.1 7.15 -0.3 7.1 -0.55 6.95 -0.7 6.7 -0.55 M6.65 -0.85 L6.95 -1.1 7.15 -0.85 7.2 -0.25 7.15 0.4 6.95 0.7 6.65 0.4 Q6.5 0.25 6.5 -0.25 L6.65 -0.85 M6.0 -0.35 L5.85 -0.5 5.95 0.3 6.3 0.15 Q6.25 -0.3 6.0 -0.35 M5.75 -0.15 L5.85 -0.7 6.1 -0.95 6.35 -0.7 6.45 -0.15 6.35 0.4 6.1 0.7 5.85 0.4 5.75 -0.15 M5.35 -0.65 L5.3 -0.55 5.3 -0.5 5.25 -0.25 5.3 0.15 5.3 0.25 5.35 0.3 5.45 0.15 5.5 -0.25 5.45 -0.5 5.35 -0.65 M5.1 -0.85 L5.6 -0.85 5.6 0.5 5.1 0.5 5.1 -0.85 M4.4 -0.1 L4.75 -1.1 4.9 -0.65 4.8 0.4 3.4 0.8 Q3.1 0.8 3.05 0.3 L3.0 -0.3 Q3.3 -0.4 3.6 -1.1 L3.8 0.1 3.95 -1.1 4.15 0.25 Q4.15 -0.65 4.3 -0.95 L4.4 -0.1 M2.4 -1.1 L2.4 -0.95 2.55 0.3 2.7 -0.1 2.75 -0.55 2.75 -1.0 2.85 -0.95 Q2.9 0.55 2.55 0.7 2.35 0.85 2.35 -0.15 L2.25 0.8 2.0 0.7 1.8 0.4 1.8 0.15 1.9 -0.65 1.9 -0.8 2.0 0.3 2.2 -1.1 2.2 -0.85 2.25 -0.95 2.35 -0.35 2.4 -1.1 M0.45 -0.1 L0.45 -0.8 0.75 -0.35 0.85 0.25 Q0.65 -0.5 0.45 0.5 L0.15 0.4 0.25 0.3 0.45 -0.1 M1.0 -0.3 L0.9 -1.0 1.2 -0.95 1.15 -0.1 0.9 0.5 0.85 0.3 1.0 -0.3 M12.6 -0.15 L12.65 -0.65 12.65 -0.85 12.75 -0.65 12.8 -0.15 12.75 0.4 12.65 0.55 12.65 0.4 12.6 -0.15 M12.0 -0.8 L11.95 -0.95 12.2 -0.95 12.45 -0.7 12.5 0.15 12.4 0.85 11.95 0.8 12.2 0.5 12.2 0.15 12.1 -0.15 12.3 -0.55 12.0 -0.8 M10.75 -1.1 L10.75 -0.15 10.7 0.1 10.75 -1.1 M11.1 -0.95 L11.1 -0.35 11.1 0.3 11.3 -0.5 11.6 -1.1 11.75 0.4 11.7 0.5 11.6 -0.15 11.6 -0.8 11.45 -0.55 11.45 0.5 11.2 0.65 10.9 0.55 11.1 -0.95 M-7.65 -1.25 L-7.5 -0.25 -7.4 0.5 -7.3 -0.15 -7.15 -0.95 -6.8 0.0 -6.65 0.8 -6.85 0.8 -7.1 -0.65 -7.2 -0.3 -7.2 0.3 -7.4 0.65 Q-7.65 0.4 -7.9 0.4 L-8.15 0.5 -8.3 -1.0 -7.8 -1.25 -7.65 -1.25 M1.7 0.25 Q1.7 0.7 1.4 0.8 L1.4 0.4 1.5 0.4 1.7 0.25 M7.85 0.1 L7.85 0.3 7.65 0.4 7.85 0.1 M9.15 1.0 L8.9 0.4 8.75 -0.15 8.65 0.3 8.75 -0.7 9.15 1.0 M9.7 0.55 L9.65 0.8 9.35 -0.25 9.15 0.5 9.35 -0.8 9.7 0.55 M-12.65 0.15 L-12.65 -0.7 -12.6 -0.85 -12.15 -0.85 Q-12.0 -0.85 -11.95 0.3 -11.8 0.3 -11.8 -0.35 L-11.9 -0.4 -11.6 -0.5 -11.2 -0.25 -11.25 0.4 -11.6 -0.15 -11.65 -0.3 -11.65 0.55 -11.65 1.25 -11.7 0.8 -12.4 -0.5 -12.45 -0.35 -12.5 0.5 -12.65 0.4 -12.65 0.15 M-11.25 0.4 L-11.1 -0.25 -10.7 -0.95 -10.6 -0.4 -10.75 -0.65 -10.9 -0.1 -10.9 0.4 -11.25 0.4 M-10.4 -0.4 L-10.25 -0.95 -10.2 -0.5 -10.4 0.0 -10.4 0.25 -10.4 -0.4 M-8.0 -0.65 L-8.0 -0.3 -7.6 0.1 -7.6 -0.3 -8.0 -0.65 M-7.85 -0.95 L-7.65 -0.8 -7.7 -0.95 -7.85 -0.95 M-9.15 -0.85 L-8.9 -1.1 -8.7 -0.85 -8.65 -0.25 -8.7 0.4 -8.9 0.7 -9.15 0.4 -9.2 -0.25 -9.15 -0.85 M-9.75 -0.7 L-9.35 -0.7 -9.35 0.85 -9.75 0.85 -9.75 -0.7 M-10.05 -0.15 L-9.95 -0.5 -9.9 0.4 -10.05 -0.15 M-9.55 -0.4 L-9.55 -0.3 -9.65 0.0 -9.55 0.3 -9.55 0.4 -9.4 0.3 -9.4 0.0 -9.4 -0.3 -9.55 -0.4 M-6.45 0.7 L-6.65 0.55 -6.45 0.3 Q-6.35 0.4 -6.35 -0.15 L-6.5 0.1 Q-6.6 -0.3 -6.35 -0.3 -6.15 0.0 -6.25 0.95 L-6.45 0.7 M-5.5 0.55 L-5.35 0.3 -5.45 -0.15 -5.6 0.4 -5.5 0.55 M-3.4 0.1 Q-3.4 0.4 -3.9 0.3 L-3.7 0.15 -3.4 0.1 M-3.0 0.4 L-3.2 0.4 Q-3.2 0.0 -2.8 0.0 L-2.8 0.25 -3.0 0.4 M-2.4 0.15 L-2.25 0.4 Q-2.2 -0.3 -2.4 -0.3 L-2.4 0.15 M-0.25 -0.25 L-0.15 -0.4 -0.15 -0.25 -0.05 0.4 Q-0.15 0.8 -0.5 0.3 L-0.25 -0.25 M-1.8 -0.95 L-1.55 -0.7 -1.9 0.15 -2.05 0.0 -2.1 0.15 -2.2 0.3 -2.1 0.55 -2.05 0.65 -1.9 0.55 -1.85 0.8 -1.9 0.85 -2.25 1.0 Q-2.55 0.85 -2.55 -0.15 L-1.8 -0.95 M-1.7 -0.25 L-1.55 -0.4 -1.4 -0.8 -1.3 0.3 -0.85 0.25 -1.15 -0.4 -0.85 -0.7 -0.55 -0.65 -0.55 -0.55 -0.75 -0.15 -0.7 0.5 -1.5 0.65 -1.7 0.4 -1.7 -0.25 M-5.95 -0.3 L-5.75 -0.3 -5.85 0.0 -5.9 0.35 Q-5.85 -0.05 -5.95 -0.3 M-5.25 -0.65 L-5.15 -0.95 -4.75 0.4 -5.1 0.0 -5.15 -0.3 -5.15 0.65 -5.35 0.85 -5.6 0.65 -5.75 0.4 -5.5 -0.25 -5.3 -0.1 -5.25 -0.65 M-10.6 0.7 L-10.85 0.1 -10.55 -0.4 -10.6 0.4 Q-10.6 -0.1 -10.4 0.3 L-10.6 0.7" fill="#4d525b" fill-rule="evenodd" stroke="none"/>
    <path d="M13.25 -1.35 L13.25 -0.4 13.2 0.85 13.1 0.85 13.25 -1.35 M-13.65 1.5 L-13.75 1.5 -13.8 -0.3 -13.75 -1.25 -13.7 -1.35 -13.65 -1.1 -13.65 1.5" fill="#a0a6af" fill-rule="evenodd" stroke="none"/>
    <path d="M-14.25 -5.45 L-14.3 -5.5 -14.35 -5.6 Q-14.3 -6.15 -13.7 -6.4 L-4.05 -6.4 5.3 -6.35 13.85 -6.3 10.95 -6.25 -13.85 -6.25 Q-14.25 -6.25 -14.25 -5.45 M12.0 -2.45 L11.8 -2.2 -12.45 -2.15 -13.8 -2.35 -13.5 -2.5 12.0 -2.45 M-14.25 4.9 L-14.1 4.4 -13.95 4.25 -13.3 4.25 -4.45 4.25 -4.05 4.35 -2.8 4.4 1.75 4.25 13.95 4.25 13.85 4.0 14.3 4.4 14.0 4.5 -14.1 4.5 -14.15 4.75 -14.25 4.9 M-12.8 -5.5 L-13.8 -5.5 -13.85 -5.35 -14.0 -5.45 -14.0 -5.6 -12.8 -5.5 M-14.0 -5.6 L-14.2 -5.6 -14.2 -5.7 -12.9 -5.6 -14.0 -5.6 M-14.35 -5.6 L-14.3 -5.6 -14.25 -5.7 -14.35 -5.6 M-5.6 -5.0 L-6.85 -5.0 -6.85 -5.05 -5.6 -5.0 M-7.85 5.15 L-7.85 5.05 -6.65 5.15 -7.85 5.15 M-14.15 4.9 L-14.1 4.9 -14.0 4.75 -2.85 4.8 -13.95 4.9 -14.0 5.0 -14.15 4.9" fill="#957957" fill-rule="evenodd" stroke="none"/>
    <path d="M-12.15 -0.85 L-12.6 -0.85 -12.65 -0.7 -12.65 0.15 -12.75 -0.95 -12.45 -1.1 -12.1 -0.95 -12.15 -0.85" fill="#747b89" fill-rule="evenodd" stroke="none"/>
    <path d="M14.65 -5.2 L14.65 -6.8 -14.75 -6.8 -14.75 -4.1 -14.5 -4.1 -14.1 -4.2 14.65 -4.2 14.65 -4.25 14.65 -4.65 14.7 -4.85 14.65 -5.05 14.65 -5.2 M14.75 -7.5 L14.85 -7.35 14.85 -7.1 14.85 -5.05 14.85 -4.85 14.85 -4.65 14.85 -3.85 14.85 -3.55 14.75 -3.5 14.45 -3.5 14.45 2.85 14.85 2.85 15.0 3.0 15.0 3.25 15.0 7.15 15.0 7.4 14.85 7.5 -14.85 7.2 -14.95 7.15 -15.0 6.85 -15.0 3.25 -14.95 3.0 -14.85 2.85 -14.65 2.85 -14.65 -3.35 -14.85 -3.35 -14.95 -3.4 -15.0 -3.7 -15.0 -7.1 -14.95 -7.35 -14.85 -7.5 14.75 -7.5 M2.35 3.55 L-14.75 3.55 -14.75 6.5 14.75 6.8 14.75 3.55 6.45 3.55 2.35 3.55 M14.2 2.85 L14.2 -3.5 -14.1 -3.5 -14.35 -3.4 -14.35 2.85 14.2 2.85" fill="#423828" fill-rule="evenodd" stroke="none"/>
  </g>
</svg>
