<?xml version="1.0" encoding="UTF-8" standalone="no"?>
<svg xmlns:xlink="http://www.w3.org/1999/xlink" height="16.55px" width="40.0px" xmlns="http://www.w3.org/2000/svg">
  <g transform="matrix(1.0, 0.0, 0.0, 1.0, 20.0, 8.0)">
    <path d="M1.5 4.0 L5.25 0.35 7.65 -1.75 Q10.0 -3.3 13.85 -5.1 L12.2 -4.15 12.0 -4.0 9.2 -1.6 5.65 1.7 Q3.4 3.8 0.65 5.5 -2.2 7.25 1.55 4.1 L1.5 4.0 M-5.8 -7.2 L-5.8 -7.0 Q-5.5 -3.4 -4.6 0.6 -4.35 0.75 -4.0 1.7 -3.8 2.4 -4.0 3.0 L-4.0 3.4 -4.35 3.5 -4.4 3.55 -4.6 3.75 -1.35 7.65 -6.75 7.65 -7.55 5.85 -8.85 4.15 -8.7 4.0 -8.95 3.55 -9.0 3.5 -9.3 2.95 -11.75 -0.2 Q-13.2 -1.9 -16.85 -3.35 L-18.0 -4.25 Q-11.8 -2.55 -8.65 0.0 -7.9 0.2 -4.85 3.5 L-5.3 0.55 Q-6.15 -3.25 -6.3 -7.0 L-6.3 -7.15 -5.8 -7.2" fill="#003300" fill-rule="evenodd" stroke="none"/>
    <path d="M7.15 5.85 L7.4 5.25 7.5 4.95 7.6 4.5 10.65 3.3 11.6 2.95 12.4 2.65 Q12.75 2.4 13.25 2.3 L20.0 -0.05 18.05 0.8 Q16.9 1.4 15.9 1.95 L12.15 3.35 11.25 3.75 Q9.65 4.4 8.2 5.25 L7.15 5.85 M-11.9 7.65 L-16.15 3.15 -11.95 4.5 -9.3 5.3 -8.25 5.7 -8.5 5.8 -11.35 5.3 -11.85 5.2 -10.7 7.65 -11.9 7.65 M-9.1 3.7 Q-12.4 0.25 -16.85 -3.35 -13.2 -1.9 -11.75 -0.2 L-9.3 2.95 -9.0 3.5 -8.95 3.55 -8.7 4.0 -8.85 4.15 -9.05 3.75 -9.1 3.7 M-8.85 3.9 L-8.95 3.85 -8.85 3.95 -8.7 4.0 -8.85 3.9" fill="#004800" fill-rule="evenodd" stroke="none"/>
    <path d="M1.75 -1.75 L1.55 -1.25 0.15 2.15 -1.6 -1.55 Q-1.05 -2.15 -1.55 -7.95 -0.2 -6.75 1.75 -1.75 M7.6 4.5 Q8.45 2.75 9.75 1.2 L16.15 -1.8 12.4 2.65 11.6 2.95 10.65 3.3 7.6 4.5 M-8.65 0.0 Q-8.9 -2.2 -11.05 -5.45 L-10.65 -5.45 -5.3 0.55 -4.85 3.5 Q-7.9 0.2 -8.65 0.0" fill="#004400" fill-rule="evenodd" stroke="none"/>
    <path d="M3.7 -3.1 L2.85 -1.25 2.35 0.0 1.2 3.4 0.9 3.75 1.2 4.3 1.5 4.0 1.55 4.1 Q-2.2 7.25 0.65 5.5 3.4 3.8 5.65 1.7 L9.2 -1.6 12.0 -4.0 12.2 -4.15 13.85 -5.1 Q11.55 -0.95 9.75 1.2 8.45 2.75 7.6 4.5 L7.5 4.95 7.4 5.25 7.15 5.85 7.05 6.25 Q6.85 6.95 6.9 7.65 L-1.35 7.65 -4.6 3.75 -4.4 3.55 -4.35 3.5 -4.0 3.4 -4.0 3.0 Q-3.8 2.4 -4.0 1.7 -4.35 0.75 -4.6 0.6 -5.5 -3.4 -5.8 -7.0 L-5.8 -7.2 -1.6 -1.55 0.15 2.15 1.55 -1.25 1.75 -1.75 2.2 -4.55 3.7 -3.1" fill="#002200" fill-rule="evenodd" stroke="none"/>
    <path d="M5.25 0.35 L4.45 -1.9 8.95 -8.0 Q7.65 -3.35 7.65 -1.75 L5.25 0.35 M-11.95 4.5 Q-11.45 2.3 -20.0 -0.9 -13.05 0.9 -9.1 3.7 L-9.05 3.75 -8.85 4.15 -7.55 5.85 -8.25 5.7 -9.3 5.3 -11.95 4.5" fill="#002700" fill-rule="evenodd" stroke="none"/>
    <path d="M1.5 4.0 L1.2 4.3 0.9 3.75 1.2 3.4 2.35 0.0 2.85 -1.25 3.7 -3.1 4.45 -1.9 5.25 0.35 1.5 4.0 M-1.35 7.65 L6.9 7.65 10.75 7.65 10.4 8.55 -11.7 8.55 -11.85 7.95 -11.9 7.65 -10.7 7.65 -6.75 7.65 -1.35 7.65" fill="#001100" fill-rule="evenodd" stroke="none"/>
    <path d="M6.9 7.65 Q6.85 6.95 7.05 6.25 L7.15 5.85 8.2 5.25 Q9.65 4.4 11.25 3.75 L12.15 3.35 15.9 1.95 14.6 2.9 Q11.85 5.0 10.75 7.65 L6.9 7.65 M-7.55 5.85 L-6.75 7.65 -10.7 7.65 -11.85 5.2 -11.35 5.3 -8.5 5.8 -8.25 5.7 -7.55 5.85" fill="#003800" fill-rule="evenodd" stroke="none"/>
  </g>
</svg>
