<?xml version="1.0" encoding="UTF-8" standalone="no"?>
<svg xmlns:xlink="http://www.w3.org/1999/xlink" height="23.0px" width="23.0px" xmlns="http://www.w3.org/2000/svg">
  <g transform="matrix(1.0, 0.0, 0.0, 1.0, 11.5, 11.5)">
    <path d="M8.05 -2.2 Q7.1 -2.2 6.4 -1.55 5.75 -0.85 5.75 0.1 5.75 1.05 6.4 1.7 7.1 2.4 8.05 2.4 9.0 2.4 9.65 1.7 10.35 1.05 10.35 0.1 10.35 -0.85 9.65 -1.55 9.0 -2.2 8.05 -2.2 9.0 -2.2 9.65 -1.55 10.35 -0.85 10.35 0.1 10.35 1.05 9.65 1.7 9.0 2.4 8.05 2.4 7.1 2.4 6.4 1.7 5.75 1.05 5.75 0.1 5.75 -0.85 6.4 -1.55 7.1 -2.2 8.05 -2.2 M7.45 -7.4 Q10.45 -4.4 10.5 -0.2 L10.5 0.1 10.5 0.2 Q10.45 4.4 7.45 7.4 5.75 9.1 3.7 9.9 1.95 10.5 0.0 10.5 L-1.35 10.45 Q-4.8 10.05 -7.4 7.4 -10.5 4.35 -10.5 0.0 -10.5 -4.35 -7.4 -7.4 -4.35 -10.5 0.0 -10.5 1.95 -10.5 3.7 -9.85 5.75 -9.1 7.45 -7.4" fill="#990000" fill-opacity="0.49803922" fill-rule="evenodd" stroke="none"/>
    <path d="M8.05 -2.2 Q9.0 -2.2 9.65 -1.55 10.35 -0.85 10.35 0.1 10.35 1.05 9.65 1.7 9.0 2.4 8.05 2.4 7.1 2.4 6.4 1.7 5.75 1.05 5.75 0.1 5.75 -0.85 6.4 -1.55 7.1 -2.2 8.05 -2.2 M7.45 -7.4 Q5.75 -9.1 3.7 -9.85 1.95 -10.5 0.0 -10.5 -4.35 -10.5 -7.4 -7.4 -10.5 -4.35 -10.5 0.0 -10.5 4.35 -7.4 7.4 -4.8 10.05 -1.35 10.45 L0.0 10.5 Q1.95 10.5 3.7 9.9 5.75 9.1 7.45 7.4 10.45 4.4 10.5 0.2 L10.5 0.1 10.5 -0.2 Q10.45 -4.4 7.45 -7.4" fill="none" stroke="#00cc00" stroke-linecap="round" stroke-linejoin="round" stroke-width="2.0"/>
  </g>
</svg>
