<?xml version="1.0" encoding="UTF-8" standalone="no"?>
<svg xmlns:xlink="http://www.w3.org/1999/xlink" height="17.8px" width="19.4px" xmlns="http://www.w3.org/2000/svg">
  <g transform="matrix(1.0, 0.0, 0.0, 1.0, 9.8, 2.45)">
    <path d="M-1.7 1.55 L-1.9 1.25 -2.0 0.55 Q-2.0 -0.3 -1.4 -0.9 L-0.3 -1.4 0.0 -1.45 Q0.8 -1.45 1.4 -0.9 2.0 -0.3 2.0 0.55 L1.9 1.3 1.85 1.4 1.4 1.95 1.35 2.0 1.3 2.05 1.4 11.45 8.15 12.05 8.5 12.25 8.6 12.55 8.6 13.85 8.45 14.2 8.1 14.35 -8.3 14.35 -8.65 14.2 -8.8 13.85 -8.8 12.3 -8.65 11.95 Q-8.55 11.8 -8.3 11.8 L-1.6 11.45 -1.35 2.05 -1.5 1.9 -1.55 1.8 -1.65 1.7 -1.7 1.55 -1.7 1.6 -1.7 1.55 M-1.1 11.4 L-0.95 11.45 -0.95 11.4 -1.1 11.4 M-1.35 1.95 L-1.35 1.85 -1.4 1.85 -1.55 1.75 -1.35 1.95 M1.55 1.6 L1.5 1.65 1.5 1.75 1.55 1.6" fill="#990000" fill-opacity="0.49803922" fill-rule="evenodd" stroke="none"/>
    <path d="M-1.7 1.55 L-1.65 1.7 -1.55 1.8 -1.5 1.9 -1.35 2.05 -1.6 11.45 -8.3 11.8 Q-8.55 11.8 -8.65 11.95 L-8.8 12.3 -8.8 13.85 -8.65 14.2 -8.3 14.35 8.1 14.35 8.45 14.2 8.6 13.85 8.6 12.55 8.5 12.25 8.15 12.05 1.4 11.45 1.3 2.05 1.35 2.0 1.4 1.95 1.85 1.4 1.9 1.3 2.0 0.55 Q2.0 -0.3 1.4 -0.9 0.8 -1.45 0.0 -1.45 L-0.3 -1.4 -1.4 -0.9 Q-2.0 -0.3 -2.0 0.55 L-1.9 1.25 -1.7 1.55 Z" fill="none" stroke="#00cc00" stroke-linecap="round" stroke-linejoin="round" stroke-width="2.0"/>
  </g>
</svg>
