<?xml version="1.0" encoding="UTF-8" standalone="no"?>
<svg xmlns:xlink="http://www.w3.org/1999/xlink" height="35.45px" width="29.05px" xmlns="http://www.w3.org/2000/svg">
  <g transform="matrix(1.0, 0.0, 0.0, 1.0, 13.3, 18.7)">
    <path d="M6.95 -18.5 L7.2 -17.95 6.95 -17.45 Q6.75 -17.2 6.45 -17.2 6.15 -17.2 5.9 -17.45 L5.7 -17.95 5.9 -18.5 6.45 -18.7 6.95 -18.5 M9.65 -2.4 L10.0 -2.5 10.35 -2.4 10.5 -2.0 10.35 -1.7 10.0 -1.5 9.65 -1.7 Q9.5 -1.8 9.5 -2.0 L9.65 -2.4 M15.5 -8.7 Q15.3 -8.45 15.0 -8.45 14.7 -8.45 14.45 -8.7 L14.25 -9.2 14.45 -9.75 15.0 -9.95 15.5 -9.75 15.75 -9.2 15.5 -8.7 M4.7 4.35 L4.85 4.75 4.7 5.05 4.35 5.25 Q4.15 5.25 4.0 5.05 L3.85 4.75 4.0 4.35 4.35 4.25 4.7 4.35 M8.2 14.65 L8.0 14.15 8.2 13.6 Q8.45 13.4 8.75 13.4 L9.25 13.6 9.5 14.15 9.25 14.65 8.75 14.9 Q8.45 14.9 8.2 14.65 M3.45 15.85 L3.6 16.25 3.45 16.55 3.1 16.75 2.75 16.55 2.6 16.25 2.75 15.85 3.1 15.75 3.45 15.85 M-1.35 -13.8 L-1.2 -14.2 -0.85 -14.3 -0.5 -14.2 Q-0.35 -14.0 -0.35 -13.8 -0.35 -13.6 -0.5 -13.5 L-0.85 -13.3 -1.2 -13.5 -1.35 -13.8 M-11.8 -17.95 Q-11.8 -17.65 -12.05 -17.45 -12.25 -17.2 -12.55 -17.2 -12.85 -17.2 -13.1 -17.45 L-13.3 -17.95 -13.1 -18.5 -12.55 -18.7 -12.05 -18.5 -11.8 -17.95 M-10.55 -7.9 L-10.0 -8.1 -9.5 -7.9 -9.25 -7.35 Q-9.25 -7.05 -9.5 -6.85 -9.7 -6.6 -10.0 -6.6 L-10.55 -6.85 -10.75 -7.35 -10.55 -7.9 M-11.0 -1.5 Q-11.0 -1.2 -11.25 -1.0 -11.45 -0.75 -11.75 -0.75 L-12.3 -1.0 -12.5 -1.5 -12.3 -2.05 -11.75 -2.25 -11.25 -2.05 -11.0 -1.5 M-8.05 13.0 L-7.9 13.4 -8.05 13.7 Q-8.2 13.9 -8.4 13.9 L-8.75 13.7 -8.9 13.4 -8.75 13.0 -8.4 12.9 -8.05 13.0" fill="#ffffff" fill-opacity="0.6" fill-rule="evenodd" stroke="none"/>
  </g>
</svg>
