<?xml version="1.0" encoding="UTF-8" standalone="no"?>
<svg xmlns:xlink="http://www.w3.org/1999/xlink" height="17.0px" width="52.0px" xmlns="http://www.w3.org/2000/svg">
  <g transform="matrix(1.0, 0.0, 0.0, 1.0, 26.0, 16.0)">
    <path d="M18.0 -10.5 L18.0 -12.5 -18.0 -12.5 -18.0 -10.5 -18.0 -12.5 18.0 -12.5 18.0 -10.5 M25.0 -4.0 L20.0 -4.0 15.0 -4.0 10.0 -4.0 5.0 -4.0 0.0 -4.0 -5.0 -4.0 -10.0 -4.0 -15.0 -4.0 -20.0 -4.0 -25.0 -4.0 -25.0 -16.0 25.0 -16.0 25.0 -4.0 M-22.6 -13.55 Q-23.0 -13.1 -23.0 -12.5 -23.0 -11.85 -22.6 -11.45 -22.15 -11.0 -21.5 -11.0 -20.9 -11.0 -20.45 -11.45 -20.0 -11.85 -20.0 -12.5 -20.0 -13.1 -20.45 -13.55 -20.9 -14.0 -21.5 -14.0 -22.15 -14.0 -22.6 -13.55 M21.5 -11.0 Q22.1 -11.0 22.55 -11.45 23.0 -11.85 23.0 -12.5 23.0 -13.1 22.55 -13.55 22.1 -14.0 21.5 -14.0 20.85 -14.0 20.4 -13.55 20.0 -13.1 20.0 -12.5 20.0 -11.85 20.4 -11.45 20.85 -11.0 21.5 -11.0" fill="#736740" fill-rule="evenodd" stroke="none"/>
    <path d="M-25.0 -4.0 L-20.0 -4.0 -15.0 -4.0 -10.0 -4.0 -5.0 -4.0 0.0 -4.0 5.0 -4.0 10.0 -4.0 15.0 -4.0 20.0 -4.0 25.0 -4.0 25.0 0.0 20.0 0.0 15.0 0.0 10.0 0.0 5.0 0.0 0.0 0.0 -5.0 0.0 -10.0 0.0 -15.0 0.0 -20.0 0.0 -25.0 0.0 -25.0 -4.0 M-20.0 -4.0 L-20.0 0.0 -20.0 -4.0 M-10.0 0.0 L-10.0 -4.0 -10.0 0.0 M-5.0 -4.0 L-5.0 0.0 -5.0 -4.0 M-15.0 0.0 L-15.0 -4.0 -15.0 0.0 M20.0 0.0 L20.0 -4.0 20.0 0.0 M15.0 0.0 L15.0 -4.0 15.0 0.0 M10.0 0.0 L10.0 -4.0 10.0 0.0 M0.0 0.0 L0.0 -4.0 0.0 0.0 M5.0 0.0 L5.0 -4.0 5.0 0.0" fill="#302c1f" fill-rule="evenodd" stroke="none"/>
    <path d="M21.5 -11.0 Q20.85 -11.0 20.4 -11.45 20.0 -11.85 20.0 -12.5 20.0 -13.1 20.4 -13.55 20.85 -14.0 21.5 -14.0 22.1 -14.0 22.55 -13.55 23.0 -13.1 23.0 -12.5 23.0 -11.85 22.55 -11.45 22.1 -11.0 21.5 -11.0 M-22.6 -13.55 Q-22.15 -14.0 -21.5 -14.0 -20.9 -14.0 -20.45 -13.55 -20.0 -13.1 -20.0 -12.5 -20.0 -11.85 -20.45 -11.45 -20.9 -11.0 -21.5 -11.0 -22.15 -11.0 -22.6 -11.45 -23.0 -11.85 -23.0 -12.5 -23.0 -13.1 -22.6 -13.55" fill="#333333" fill-rule="evenodd" stroke="none"/>
    <path d="M-18.0 -10.5 L-18.0 -12.5 18.0 -12.5 18.0 -10.5 M21.5 -11.0 Q20.85 -11.0 20.4 -11.45 20.0 -11.85 20.0 -12.5 20.0 -13.1 20.4 -13.55 20.85 -14.0 21.5 -14.0 22.1 -14.0 22.55 -13.55 23.0 -13.1 23.0 -12.5 23.0 -11.85 22.55 -11.45 22.1 -11.0 21.5 -11.0 M-22.6 -13.55 Q-22.15 -14.0 -21.5 -14.0 -20.9 -14.0 -20.45 -13.55 -20.0 -13.1 -20.0 -12.5 -20.0 -11.85 -20.45 -11.45 -20.9 -11.0 -21.5 -11.0 -22.15 -11.0 -22.6 -11.45 -23.0 -11.85 -23.0 -12.5 -23.0 -13.1 -22.6 -13.55" fill="none" stroke="#000000" stroke-linecap="square" stroke-linejoin="miter-clip" stroke-miterlimit="3.0" stroke-width="1.0"/>
    <path d="M-25.0 -4.0 L-20.0 -4.0 -15.0 -4.0 -10.0 -4.0 -5.0 -4.0 0.0 -4.0 5.0 -4.0 10.0 -4.0 15.0 -4.0 20.0 -4.0 25.0 -4.0 M-25.0 0.0 L-20.0 0.0 -20.0 -4.0 M25.0 0.0 L20.0 0.0 15.0 0.0 10.0 0.0 5.0 0.0 0.0 0.0 -5.0 0.0 -10.0 0.0 -15.0 0.0 -20.0 0.0 M-15.0 -4.0 L-15.0 0.0 M-5.0 0.0 L-5.0 -4.0 M-10.0 -4.0 L-10.0 0.0 M5.0 -4.0 L5.0 0.0 M0.0 -4.0 L0.0 0.0 M10.0 -4.0 L10.0 0.0 M15.0 -4.0 L15.0 0.0 M20.0 -4.0 L20.0 0.0" fill="none" stroke="#000000" stroke-linecap="square" stroke-linejoin="miter-clip" stroke-miterlimit="3.0" stroke-width="1.5"/>
  </g>
</svg>
