<?xml version="1.0" encoding="UTF-8" standalone="no"?>
<svg xmlns:xlink="http://www.w3.org/1999/xlink" height="30.0px" width="30.0px" xmlns="http://www.w3.org/2000/svg">
  <g transform="matrix(1.0, 0.0, 0.0, 1.0, 15.0, 15.0)">
    <path d="M15.0 -12.9 L13.5 -12.9 -15.0 -12.9 -15.0 -13.65 15.0 -13.65 15.0 -12.9 M-15.0 -8.85 L5.85 -8.7 13.5 -8.7 15.0 -8.7 15.0 -8.4 -15.0 -8.4 -15.0 -8.85 M-15.0 -6.9 L15.0 -6.9 15.0 -4.95 -15.0 -4.95 -15.0 -6.9 M-15.0 4.35 L15.0 4.35 15.0 6.0 -15.0 6.0 -15.0 4.35 M15.0 7.35 L15.0 8.55 13.5 8.55 Q-5.85 8.1 -15.0 8.1 L-15.0 7.35 15.0 7.35 M15.0 12.9 L15.0 13.5 -15.0 13.5 -15.0 12.9 15.0 12.9" fill="#564732" fill-rule="evenodd" stroke="none"/>
    <path d="M-15.0 -12.9 L13.5 -12.9 15.0 -12.9 15.0 -12.45 -15.0 -12.45 -15.0 -12.9 M15.0 -10.05 L12.15 -10.05 12.0 -10.2 15.0 -10.05 M15.0 -4.95 L15.0 -4.2 -15.0 -4.2 -15.0 -4.95 15.0 -4.95 M15.0 8.85 L15.0 9.3 -15.0 9.3 -15.0 8.85 15.0 8.85 M-15.0 10.05 L-15.0 9.9 -6.45 9.9 -15.0 10.05 M3.6 10.65 L3.45 10.5 13.5 10.65 3.6 10.65" fill="#957957" fill-rule="evenodd" stroke="none"/>
    <path d="M15.0 -10.05 L12.0 -10.2 12.15 -10.05 15.0 -10.05 15.0 -8.7 13.5 -8.7 5.85 -8.7 -15.0 -8.85 -15.0 -10.5 13.5 -10.65 15.0 -10.65 15.0 -10.05 M15.0 11.1 L15.0 12.9 -15.0 12.9 -15.0 11.25 15.0 11.1" fill="#625039" fill-rule="evenodd" stroke="none"/>
    <path d="M-15.0 -12.45 L15.0 -12.45 15.0 -10.65 13.5 -10.65 -15.0 -10.5 -15.0 -12.45 M15.0 8.55 L15.0 8.85 -15.0 8.85 -15.0 8.1 Q-5.85 8.1 13.5 8.55 L15.0 8.55 M15.0 9.3 L15.0 11.1 -15.0 11.25 -15.0 10.05 -6.45 9.9 -15.0 9.9 -15.0 9.3 15.0 9.3 M3.6 10.65 L13.5 10.65 3.45 10.5 3.6 10.65" fill="#715c42" fill-rule="evenodd" stroke="none"/>
    <path d="M15.0 -13.65 L-15.0 -13.65 -15.0 -15.0 15.0 -15.0 15.0 -13.65 M15.0 -8.4 L15.0 -6.9 -15.0 -6.9 -15.0 -8.4 15.0 -8.4 M15.0 6.0 L15.0 7.35 -15.0 7.35 -15.0 6.0 15.0 6.0 M15.0 13.5 L15.0 15.0 -15.0 15.0 -15.0 13.5 15.0 13.5" fill="#423828" fill-rule="evenodd" stroke="none"/>
    <path d="M5.4 -2.4 Q5.4 -1.8 6.45 -0.3 7.05 1.2 7.5 1.2 8.4 0.75 8.55 -0.15 8.85 -1.2 9.45 -1.8 L12.6 0.15 13.5 1.35 13.95 1.8 13.5 1.95 12.45 1.8 Q11.85 -0.45 9.9 -1.2 L8.85 -0.45 Q9.15 0.0 9.0 0.75 8.55 1.35 7.35 1.5 L3.0 1.05 1.05 1.2 0.0 -1.95 4.05 -2.4 5.4 -2.4 M5.1 -1.5 L4.5 -1.8 3.45 -1.8 5.1 -1.5 M-15.0 -0.6 L-14.85 -0.9 -14.1 0.9 -15.0 0.3 -15.0 -0.6 M15.0 1.65 L13.65 1.35 Q14.1 1.05 15.0 0.9 L15.0 1.65 M15.0 0.3 L14.85 0.3 Q14.85 0.0 15.0 -0.15 L15.0 0.3 M1.65 -1.2 Q1.5 -0.75 2.4 -0.45 3.45 0.3 5.55 0.3 L5.55 -0.45 1.65 -1.2 M-12.9 -1.35 L-9.15 -1.35 -9.15 1.95 -12.9 1.95 -12.9 -1.35 M-10.05 -0.45 L-10.95 -0.75 -11.55 -0.45 -12.0 0.15 -11.55 0.75 Q-11.4 1.05 -10.95 1.05 L-10.05 0.75 Q-9.9 0.6 -9.9 0.15 -9.9 -0.3 -10.05 -0.45 M-7.5 -1.65 L-5.85 -2.1 Q-4.65 -2.1 -3.9 -1.65 -3.15 -1.05 -3.15 -0.3 -3.15 0.6 -3.9 1.05 -4.65 1.65 -5.85 1.65 -6.9 1.65 -7.5 1.05 -8.4 0.6 -8.4 -0.3 -8.4 -1.05 -7.5 -1.65" fill="#4d525b" fill-rule="evenodd" stroke="none"/>
    <path d="M5.1 -1.5 L3.45 -1.8 4.5 -1.8 5.1 -1.5 M4.05 -2.4 L0.0 -1.95 1.05 1.2 3.0 1.05 7.35 1.5 Q8.55 1.35 9.0 0.75 9.15 0.0 8.85 -0.45 L9.9 -1.2 Q11.85 -0.45 12.45 1.8 L13.5 1.95 13.95 1.8 13.5 1.35 12.6 0.15 9.45 -1.8 Q8.85 -1.2 8.55 -0.15 8.4 0.75 7.5 1.2 7.05 1.2 6.45 -0.3 5.4 -1.8 5.4 -2.4 L15.0 -2.4 15.0 -0.15 Q14.85 0.0 14.85 0.3 L15.0 0.3 15.0 0.9 Q14.1 1.05 13.65 1.35 L15.0 1.65 15.0 2.55 -15.0 2.7 -15.0 0.3 -14.1 0.9 -14.85 -0.9 -15.0 -0.6 -15.0 -2.4 4.05 -2.4 M1.65 -1.2 L5.55 -0.45 5.55 0.3 Q3.45 0.3 2.4 -0.45 1.5 -0.75 1.65 -1.2 M-10.05 -0.45 Q-9.9 -0.3 -9.9 0.15 -9.9 0.6 -10.05 0.75 L-10.95 1.05 Q-11.4 1.05 -11.55 0.75 L-12.0 0.15 -11.55 -0.45 -10.95 -0.75 -10.05 -0.45 M-12.9 -1.35 L-12.9 1.95 -9.15 1.95 -9.15 -1.35 -12.9 -1.35 M-7.5 -1.65 Q-8.4 -1.05 -8.4 -0.3 -8.4 0.6 -7.5 1.05 -6.9 1.65 -5.85 1.65 -4.65 1.65 -3.9 1.05 -3.15 0.6 -3.15 -0.3 -3.15 -1.05 -3.9 -1.65 -4.65 -2.1 -5.85 -2.1 L-7.5 -1.65" fill="#818b96" fill-rule="evenodd" stroke="none"/>
    <path d="M5.4 -2.4 L4.05 -2.4 -15.0 -2.4 -15.0 -2.85 15.0 -2.85 15.0 -2.4 5.4 -2.4 M-15.0 2.7 L15.0 2.55 15.0 3.0 -15.0 3.0 -15.0 2.7" fill="#b5b9c1" fill-rule="evenodd" stroke="none"/>
    <path d="M15.0 -3.45 L15.0 -2.85 -15.0 -2.85 -15.0 -3.45 15.0 -3.45 M15.0 3.45 L-15.0 3.45 -15.0 3.0 15.0 3.0 15.0 3.45" fill="#515762" fill-rule="evenodd" stroke="none"/>
    <path d="M15.0 -4.2 L15.0 -3.45 -15.0 -3.45 -15.0 -4.2 15.0 -4.2 M15.0 3.45 L15.0 4.35 -15.0 4.35 -15.0 3.45 15.0 3.45" fill="#32373d" fill-rule="evenodd" stroke="none"/>
  </g>
</svg>
