<?xml version="1.0" encoding="UTF-8" standalone="no"?>
<svg xmlns:xlink="http://www.w3.org/1999/xlink" height="32.3px" width="18.5px" xmlns="http://www.w3.org/2000/svg">
  <g transform="matrix(1.0, 0.0, 0.0, 1.0, 9.25, 16.05)">
    <path d="M6.45 -14.8 L6.6 -14.8 6.8 -14.8 6.75 -15.0 6.95 -15.0 7.1 -15.05 8.0 -15.05 8.2 -14.95 8.25 -14.8 8.25 15.0 8.2 15.2 8.0 15.25 -1.1 15.25 -1.25 15.2 -1.35 15.0 -1.35 13.6 Q-4.05 13.0 -6.0 9.6 -8.25 5.55 -8.25 -0.1 -8.25 -5.75 -6.0 -9.75 -4.05 -13.2 -1.35 -13.75 L-1.35 -14.8 -1.25 -14.95 -1.1 -15.05 5.9 -15.05 6.1 -14.95 6.15 -14.8 6.45 -14.8" fill="#b76b6b" fill-opacity="0.49803922" fill-rule="evenodd" stroke="none"/>
    <path d="M6.45 -14.8 L6.15 -14.8 6.1 -14.95 5.9 -15.05 -1.1 -15.05 -1.25 -14.95 -1.35 -14.8 -1.35 -13.75 Q-4.05 -13.2 -6.0 -9.75 -8.25 -5.75 -8.25 -0.1 -8.25 5.55 -6.0 9.6 -4.05 13.0 -1.35 13.6 L-1.35 15.0 -1.25 15.2 -1.1 15.25 8.0 15.25 8.2 15.2 8.25 15.0 8.25 -14.8 8.2 -14.95 8.0 -15.05 7.1 -15.05 6.95 -15.0 6.75 -15.0 6.8 -14.8 6.6 -14.8 6.45 -14.8 Z" fill="none" stroke="#00cc00" stroke-linecap="round" stroke-linejoin="round" stroke-width="2.0"/>
  </g>
</svg>
