<?xml version="1.0" encoding="UTF-8" standalone="no"?>
<svg xmlns:xlink="http://www.w3.org/1999/xlink" height="70.85px" width="31.0px" xmlns="http://www.w3.org/2000/svg">
  <g transform="matrix(1.0, 0.0, 0.0, 1.0, 15.5, 65.5)">
    <path d="M0.75 0.35 L0.75 -58.85 -2.25 -58.85 -2.25 0.35 0.75 0.35 M14.75 -65.0 L14.75 -61.0 12.5 -59.3 12.5 -29.0 15.0 -25.6 15.0 4.85 -15.0 4.85 -15.0 -25.7 -12.6 -28.8 -12.6 -58.85 -14.85 -60.3 -14.85 -65.0 14.75 -65.0" fill="url(#gradient0)" fill-rule="evenodd" stroke="none"/>
    <path d="M14.75 -65.0 L-14.85 -65.0 -14.85 -60.3 -12.6 -58.85 -12.6 -28.8 -15.0 -25.7 -15.0 4.85 15.0 4.85 15.0 -25.6 12.5 -29.0 12.5 -59.3 14.75 -61.0 14.75 -65.0 M0.75 0.35 L-2.25 0.35 -2.25 -58.85 0.75 -58.85 0.75 0.35" fill="none" stroke="#000000" stroke-linecap="round" stroke-linejoin="round" stroke-width="1.0"/>
  </g>
  <defs>
    <linearGradient gradientTransform="matrix(0.0183, 0.0, 0.0, 0.0426, 0.0, -30.05)" gradientUnits="userSpaceOnUse" id="gradient0" spreadMethod="pad" x1="-819.2" x2="819.2">
      <stop offset="0.0" stop-color="#4b332c"/>
      <stop offset="0.12941176470588237" stop-color="#5e4a48"/>
      <stop offset="0.19607843137254902" stop-color="#5e4a48"/>
      <stop offset="0.34901960784313724" stop-color="#4b332c"/>
      <stop offset="0.615686274509804" stop-color="#4b332c"/>
      <stop offset="0.7843137254901961" stop-color="#5e4a48"/>
      <stop offset="0.8392156862745098" stop-color="#5e4a48"/>
      <stop offset="1.0" stop-color="#4b332c"/>
    </linearGradient>
  </defs>
</svg>
