<?xml version="1.0" encoding="UTF-8" standalone="no"?>
<svg xmlns:xlink="http://www.w3.org/1999/xlink" height="131.5px" width="102.0px" xmlns="http://www.w3.org/2000/svg">
  <g transform="matrix(1.0, 0.0, 0.0, 1.0, 51.0, 70.5)">
    <path d="M-43.0 -60.0 L46.5 -60.0 46.5 60.0 -43.0 60.0 -43.0 -60.0" fill="#4d4d44" fill-rule="evenodd" stroke="none"/>
    <path d="M-50.0 -60.0 L-43.0 -60.0 -43.0 60.0 -50.0 60.0 -50.0 -60.0" fill="#666666" fill-rule="evenodd" stroke="none"/>
    <path d="M-50.0 60.0 L-50.0 -60.0" fill="none" stroke="#666666" stroke-linecap="round" stroke-linejoin="round" stroke-width="2.0"/>
    <path d="M50.0 -59.45 L50.0 46.7 Q27.5 56.2 1.1 56.2 -26.6 56.2 -50.0 45.75 L-50.0 -59.45 50.0 -59.45" fill="url(#gradient0)" fill-rule="evenodd" stroke="none"/>
    <path d="M-1.0 -49.25 Q-9.95 -49.4 -18.75 -54.75 L20.05 -54.75 Q10.65 -49.25 -1.0 -49.25" fill="#ffffff" fill-rule="evenodd" stroke="none"/>
    <path d="M-1.0 -49.25 Q10.65 -49.25 20.05 -54.75 L-18.75 -54.75 Q-9.95 -49.4 -1.0 -49.25 Z" fill="none" stroke="#666666" stroke-linecap="round" stroke-linejoin="round" stroke-width="2.0"/>
    <path d="M-44.0 -40.0 L-50.0 -40.0 -50.0 -60.0 50.0 -60.0 50.0 60.0 -50.0 60.0 -50.0 55.0 45.0 55.0 45.0 -55.0 -44.0 -55.0 -44.0 -40.0" fill="#4e4d4f" fill-rule="evenodd" stroke="none"/>
    <path d="M-44.0 -40.0 L-44.0 -55.0 45.0 -55.0 45.0 55.0 -50.0 55.0 -50.0 60.0 50.0 60.0 50.0 -60.0 -50.0 -60.0 -50.0 -40.0 -44.0 -40.0 Z" fill="none" stroke="#666666" stroke-linecap="round" stroke-linejoin="round" stroke-width="2.0"/>
    <path d="M6.85 -60.0 L6.85 -60.05 Q6.85 -62.65 4.85 -64.5 2.95 -66.35 0.2 -66.35 -2.6 -66.35 -4.55 -64.5 -6.5 -62.65 -6.5 -60.05 L-6.5 -60.0 -10.0 -60.0 -10.0 -60.1 -10.0 -60.55 Q-10.0 -64.5 -7.1 -67.25 -4.15 -70.0 0.0 -70.0 4.15 -70.0 7.05 -67.25 10.0 -64.5 10.0 -60.55 L10.0 -60.1 10.0 -60.0 6.85 -60.0" fill="#4e4d4f" fill-rule="evenodd" stroke="none"/>
    <path d="M6.85 -60.0 L10.0 -60.0 10.0 -60.1 10.0 -60.55 Q10.0 -64.5 7.05 -67.25 4.15 -70.0 0.0 -70.0 -4.15 -70.0 -7.1 -67.25 -10.0 -64.5 -10.0 -60.55 L-10.0 -60.1 -10.0 -60.0 -6.5 -60.0 -6.5 -60.05 Q-6.5 -62.65 -4.55 -64.5 -2.6 -66.35 0.2 -66.35 2.95 -66.35 4.85 -64.5 6.85 -62.65 6.85 -60.05 L6.85 -60.0 -6.5 -60.0" fill="none" stroke="#666666" stroke-linecap="round" stroke-linejoin="round" stroke-width="1.0"/>
  </g>
  <defs>
    <radialGradient cx="0" cy="0" gradientTransform="matrix(0.1199, 0.0, 0.0, 0.1199, 3.15, -49.45)" gradientUnits="userSpaceOnUse" id="gradient0" r="819.2" spreadMethod="pad">
      <stop offset="0.0" stop-color="#ffffff" stop-opacity="0.49803922"/>
      <stop offset="1.0" stop-color="#ffffff" stop-opacity="0.0"/>
    </radialGradient>
  </defs>
</svg>
