<?xml version="1.0" encoding="UTF-8" standalone="no"?>
<svg xmlns:xlink="http://www.w3.org/1999/xlink" height="31.55px" width="34.5px" xmlns="http://www.w3.org/2000/svg">
  <g transform="matrix(1.0, 0.0, 0.0, 1.0, 17.25, 16.0)">
    <path d="M0.2 -15.0 Q1.45 -14.9 1.4 -13.3 L2.0 -13.2 2.25 -13.1 2.45 -12.95 2.9 -12.2 Q9.8 -1.05 16.2 12.25 L16.25 12.35 16.25 12.55 16.25 12.65 16.2 12.75 16.05 12.85 16.0 12.9 15.85 12.95 Q1.35 16.2 -15.3 12.85 L-15.35 12.85 -15.6 12.95 -16.0 12.9 -16.2 12.6 -16.2 12.25 Q-9.5 -1.05 -2.8 -12.2 L-2.35 -12.9 -2.35 -12.95 -2.2 -13.1 -1.95 -13.2 -1.15 -13.25 Q-1.2 -14.15 -0.9 -14.5 -0.55 -15.1 0.2 -15.0 M15.3 12.7 L15.25 12.55 14.3 12.75 15.6 12.95 15.3 12.7" fill="#b76b6b" fill-opacity="0.49803922" fill-rule="evenodd" stroke="none"/>
    <path d="M15.3 12.7 L15.6 12.95 14.3 12.75 15.25 12.55 15.3 12.7" fill="none" stroke="#000000" stroke-linecap="round" stroke-linejoin="round" stroke-width="1.0"/>
    <path d="M0.2 -15.0 Q-0.55 -15.1 -0.9 -14.5 -1.2 -14.15 -1.15 -13.25 L-1.95 -13.2 -2.2 -13.1 -2.35 -12.95 -2.35 -12.9 -2.8 -12.2 Q-9.5 -1.05 -16.2 12.25 L-16.2 12.6 -16.0 12.9 -15.6 12.95 -15.35 12.85 -15.3 12.85 Q1.35 16.2 15.85 12.95 L16.0 12.9 16.05 12.85 16.2 12.75 16.25 12.65 16.25 12.55 16.25 12.35 16.2 12.25 Q9.8 -1.05 2.9 -12.2 L2.45 -12.95 2.25 -13.1 2.0 -13.2 1.4 -13.3 Q1.45 -14.9 0.2 -15.0" fill="none" stroke="#00cc00" stroke-linecap="round" stroke-linejoin="round" stroke-width="2.0"/>
  </g>
</svg>
