<?xml version="1.0" encoding="UTF-8" standalone="no"?>
<svg xmlns:xlink="http://www.w3.org/1999/xlink" height="23.2px" width="48.9px" xmlns="http://www.w3.org/2000/svg">
  <g transform="matrix(1.0, 0.0, 0.0, 1.0, 25.0, 12.2)">
    <path d="M-24.8 8.9 Q-2.45 -12.2 5.75 -12.2 13.2 -12.2 16.95 -3.8 L19.2 2.55 Q20.25 5.9 20.9 6.6 L22.5 8.9 20.65 8.9 14.9 2.95 13.05 -2.85 Q10.75 -8.65 5.75 -8.65 0.7 -7.9 -4.85 -5.35 -15.95 -0.25 -19.0 8.9 L-24.8 8.9 M-4.2 -2.3 L-4.25 -2.45 -4.25 -2.5 -3.7 -2.65 Q-0.45 -2.65 3.5 -1.65 7.5 -0.65 7.5 0.25 L7.3 3.45 7.25 6.5 6.9 6.55 6.1 6.55 6.15 6.0 Q6.15 2.85 3.3 0.65 0.45 -1.55 -3.6 -1.55 -4.25 -1.8 -4.25 -2.25 L-4.2 -2.3" fill="#7a6c5c" fill-rule="evenodd" stroke="none"/>
    <path d="M-19.0 8.9 Q-15.95 -0.25 -4.85 -5.35 0.7 -7.9 5.75 -8.65 10.75 -8.65 13.05 -2.85 L14.9 2.95 20.65 8.9 -4.6 8.9 -5.85 7.3 -7.15 5.6 Q-8.55 6.15 -9.45 8.55 L-9.6 8.7 -7.55 7.9 -6.1 8.9 -9.9 8.9 Q-12.2 10.2 -19.0 8.9 M6.9 6.55 L7.25 6.5 7.3 3.45 7.5 0.25 Q7.5 -0.65 3.5 -1.65 -0.45 -2.65 -3.7 -2.65 L-4.25 -2.5 -4.25 -2.45 -4.2 -2.3 -4.6 -2.15 -4.6 -2.1 -4.8 -2.0 -4.8 -1.75 Q-4.8 -1.3 -4.15 -1.05 -0.1 -1.05 2.75 1.15 5.6 3.35 5.6 6.5 L5.55 7.05 6.7 7.0 6.7 6.85 6.9 6.85 6.9 6.55" fill="#42373a" fill-rule="evenodd" stroke="none"/>
    <path d="M22.5 8.9 L23.9 11.0 -23.55 11.0 -25.0 9.7 -24.8 8.9 -19.0 8.9 Q-12.2 10.2 -9.9 8.9 L-6.1 8.9 -7.55 7.9 -9.6 8.7 -9.45 8.55 Q-8.55 6.15 -7.15 5.6 L-5.85 7.3 -4.6 8.9 20.65 8.9 22.5 8.9 M-4.2 -2.3 L-4.25 -2.25 Q-4.25 -1.8 -3.6 -1.55 0.45 -1.55 3.3 0.65 6.15 2.85 6.15 6.0 L6.1 6.55 6.9 6.55 6.9 6.85 6.7 6.85 6.7 7.0 5.55 7.05 5.6 6.5 Q5.6 3.35 2.75 1.15 -0.1 -1.05 -4.15 -1.05 -4.8 -1.3 -4.8 -1.75 L-4.8 -2.0 -4.6 -2.1 -4.6 -2.15 -4.2 -2.3" fill="#322c2d" fill-rule="evenodd" stroke="none"/>
  </g>
</svg>
