<?xml version="1.0" encoding="UTF-8" standalone="no"?>
<svg xmlns:xlink="http://www.w3.org/1999/xlink" height="25.0px" width="51.75px" xmlns="http://www.w3.org/2000/svg">
  <g transform="matrix(1.0, 0.0, 0.0, 1.0, 24.65, 12.5)">
    <path d="M24.55 9.9 Q24.35 3.2 14.7 -3.5 5.3 -10.0 -2.65 -10.0 -3.65 -10.0 -3.9 -9.55 L-5.9 -6.25 Q-5.7 -8.75 -4.25 -10.6 -2.75 -12.5 -0.9 -12.5 6.3 -12.5 15.9 -5.95 26.4 1.25 27.05 9.9 L24.55 9.9 M-6.45 -4.7 Q-7.45 -2.0 -14.8 4.05 -19.3 7.75 -21.45 9.9 L-23.6 9.9 Q-20.25 5.0 -6.45 -4.7 M-11.25 9.9 L-9.1 8.75 -9.7 9.9 -11.25 9.9 M-7.7 9.9 Q-6.5 7.7 -3.85 5.75 L-4.95 7.05 Q-6.55 8.4 -7.4 9.9 L-7.7 9.9 M-5.9 9.9 L-2.9 7.95 -4.4 9.3 -5.4 9.9 -5.9 9.9 M0.25 3.4 L-0.4 3.5 Q2.4 1.85 3.55 1.85 11.65 1.85 14.65 3.6 17.6 5.3 18.85 9.9 L18.45 9.9 Q17.15 5.65 14.35 4.0 11.35 2.25 3.25 2.25 2.3 2.25 0.25 3.4" fill="#7a6c5c" fill-rule="evenodd" stroke="none"/>
    <path d="M-5.9 -6.25 L-3.9 -9.55 Q-3.65 -10.0 -2.65 -10.0 5.3 -10.0 14.7 -3.5 24.35 3.2 24.55 9.9 L18.85 9.9 Q17.6 5.3 14.65 3.6 11.65 1.85 3.55 1.85 2.4 1.85 -0.4 3.5 L0.25 3.4 -0.7 3.9 0.25 3.75 -0.7 4.25 6.45 3.85 Q14.0 3.85 16.65 7.95 17.15 8.65 17.5 9.9 L-4.3 9.9 -2.7 8.5 -4.35 9.6 -2.7 8.15 -4.4 9.3 -2.9 7.95 -5.9 9.9 -6.55 9.9 -3.65 6.3 -4.75 7.25 -3.65 5.95 -4.95 7.05 -3.85 5.75 Q-6.5 7.7 -7.7 9.9 L-9.7 9.9 -9.1 8.75 -11.25 9.9 -21.45 9.9 Q-19.3 7.75 -14.8 4.05 -7.45 -2.0 -6.45 -4.7 L-5.9 -6.25" fill="#42373a" fill-rule="evenodd" stroke="none"/>
    <path d="M-21.45 9.9 L-11.25 9.9 -9.7 9.9 -7.7 9.9 -7.4 9.9 Q-6.55 8.4 -4.95 7.05 L-3.65 5.95 -4.75 7.25 -3.65 6.3 -6.55 9.9 -5.9 9.9 -5.4 9.9 -4.4 9.3 -2.7 8.15 -4.35 9.6 -2.7 8.5 -4.3 9.9 17.5 9.9 Q17.15 8.65 16.65 7.95 14.0 3.85 6.45 3.85 L-0.7 4.25 0.25 3.75 -0.7 3.9 0.25 3.4 Q2.3 2.25 3.25 2.25 11.35 2.25 14.35 4.0 17.15 5.65 18.45 9.9 L18.85 9.9 24.55 9.9 27.05 9.9 27.1 11.05 27.1 11.4 27.1 11.55 27.05 12.35 23.75 12.5 -24.65 12.5 -24.55 12.15 -24.65 12.15 Q-24.5 11.2 -23.6 9.9 L-21.45 9.9" fill="#322c2d" fill-rule="evenodd" stroke="none"/>
  </g>
</svg>
