<?xml version="1.0" encoding="UTF-8" standalone="no"?>
<svg xmlns:xlink="http://www.w3.org/1999/xlink" height="21.25px" width="48.25px" xmlns="http://www.w3.org/2000/svg">
  <g transform="matrix(1.0, 0.0, 0.0, 1.0, 24.4, 11.9)">
    <path d="M18.85 6.65 L22.0 6.65 23.85 9.35 17.35 9.35 Q18.35 7.3 18.85 6.65 M15.45 3.2 L15.4 4.25 9.6 1.2 12.1 1.15 15.45 3.2 M-10.7 1.8 Q-9.2 1.3 -8.55 0.7 -8.15 0.35 -7.15 0.35 L-4.25 0.65 -1.8 1.15 Q-0.95 1.25 -0.9 1.45 L-0.5 2.3 -8.4 3.05 -10.0 2.8 Q-10.85 2.55 -11.0 2.2 L-10.7 1.8" fill="#3f3637" fill-rule="evenodd" stroke="none"/>
    <path d="M-17.85 6.65 Q-15.95 4.8 -14.0 1.5 L-10.9 -3.6 Q-7.05 -9.15 0.0 -9.15 1.55 -9.15 3.2 -7.45 L6.45 -3.55 Q7.05 -2.85 9.55 -2.05 L12.95 -1.15 Q15.5 -0.6 16.85 1.65 17.55 2.8 18.85 6.65 18.35 7.3 17.35 9.35 L14.25 9.35 15.1 8.8 15.4 7.85 Q15.4 7.45 14.75 6.95 13.65 6.05 11.3 5.55 L11.35 5.55 11.4 5.35 9.9 4.7 Q6.1 3.1 4.5 3.1 3.15 3.1 2.1 4.2 1.15 5.15 0.65 6.65 L-17.85 6.65 M9.6 1.2 L15.4 4.25 15.45 3.2 Q13.9 1.3 11.0 0.4 L8.9 0.9 9.6 1.2 M-10.7 1.8 L-11.0 2.2 Q-10.85 2.55 -10.0 2.8 L-8.4 3.05 -0.5 2.3 -0.9 1.45 Q-0.95 1.25 -1.8 1.15 -2.5 0.7 -4.1 0.2 L-5.95 -0.25 Q-8.9 0.4 -10.7 1.8" fill="#42373a" fill-rule="evenodd" stroke="none"/>
    <path d="M-21.75 6.65 L-11.2 -6.2 Q-6.0 -11.9 0.45 -11.9 3.9 -11.9 9.3 -7.2 14.5 -2.65 22.0 6.65 L18.85 6.65 Q17.55 2.8 16.85 1.65 15.5 -0.6 12.95 -1.15 L9.55 -2.05 Q7.05 -2.85 6.45 -3.55 L3.2 -7.45 Q1.55 -9.15 0.0 -9.15 -7.05 -9.15 -10.9 -3.6 L-14.0 1.5 Q-15.95 4.8 -17.85 6.65 L-21.75 6.65 M15.45 3.2 L12.1 1.15 9.6 1.2 8.9 0.9 11.0 0.4 Q13.9 1.3 15.45 3.2 M0.65 6.65 Q1.15 5.15 2.1 4.2 3.15 3.1 4.5 3.1 6.1 3.1 9.9 4.7 L11.4 5.35 11.35 5.55 11.3 5.55 10.85 5.6 Q6.25 4.45 5.25 4.45 2.0 4.45 0.95 6.7 L0.65 6.65 M-1.8 1.15 L-4.25 0.65 -7.15 0.35 Q-8.15 0.35 -8.55 0.7 -9.2 1.3 -10.7 1.8 -8.9 0.4 -5.95 -0.25 L-4.1 0.2 Q-2.5 0.7 -1.8 1.15" fill="#7a6c5c" fill-rule="evenodd" stroke="none"/>
    <path d="M-21.75 6.65 L-17.85 6.65 0.65 6.65 0.95 6.7 Q2.0 4.45 5.25 4.45 6.25 4.45 10.85 5.6 L11.3 5.55 Q13.65 6.05 14.75 6.95 15.4 7.45 15.4 7.85 L15.1 8.8 14.25 9.35 -24.4 9.35 -21.75 6.65" fill="#322c2d" fill-rule="evenodd" stroke="none"/>
  </g>
</svg>
