<?xml version="1.0" encoding="UTF-8" standalone="no"?>
<svg xmlns:xlink="http://www.w3.org/1999/xlink" height="29.05px" width="30.65px" xmlns="http://www.w3.org/2000/svg">
  <g transform="matrix(1.0, 0.0, 0.0, 1.0, 14.55, 14.55)">
    <path d="M9.5 -9.6 Q12.0 -7.1 12.9 -3.9 L14.6 -3.9 14.95 -3.75 15.1 -3.4 15.05 -3.2 15.1 -3.0 15.1 13.0 14.95 13.35 14.6 13.5 -0.05 13.5 -0.3 13.45 Q-5.7 13.35 -9.55 9.5 -13.55 5.55 -13.55 -0.05 -13.55 -5.65 -9.55 -9.6 -5.6 -13.55 -0.05 -13.55 5.55 -13.55 9.5 -9.6" fill="#c66060" fill-opacity="0.49803922" fill-rule="evenodd" stroke="none"/>
    <path d="M9.5 -9.6 Q5.55 -13.55 -0.05 -13.55 -5.6 -13.55 -9.55 -9.6 -13.55 -5.65 -13.55 -0.05 -13.55 5.55 -9.55 9.5 -5.7 13.35 -0.3 13.45 L-0.05 13.5 14.6 13.5 14.95 13.35 15.1 13.0 15.1 -3.0 15.05 -3.2 15.1 -3.4 14.95 -3.75 14.6 -3.9 12.9 -3.9 Q12.0 -7.1 9.5 -9.6 Z" fill="none" stroke="#00cc00" stroke-linecap="round" stroke-linejoin="round" stroke-width="2.0"/>
  </g>
</svg>
