<?xml version="1.0" encoding="UTF-8" standalone="no"?>
<svg xmlns:xlink="http://www.w3.org/1999/xlink" height="56.0px" width="14.5px" xmlns="http://www.w3.org/2000/svg">
  <g transform="matrix(1.0, 0.0, 0.0, 1.0, 1.0, 1.0)">
    <path d="M5.7 38.65 L7.0 37.7 7.0 45.35 12.5 45.35 12.5 54.0 0.0 54.0 0.0 45.35 3.8 45.35 3.8 39.95 5.7 38.65" fill="#2d211e" fill-rule="evenodd" stroke="none"/>
    <path d="M2.95 0.0 L12.5 0.0 12.5 45.35 7.0 45.35 7.0 37.7 5.7 38.65 5.55 33.9 6.75 30.7 5.6 29.2 7.55 23.3 5.45 23.55 5.15 17.5 6.65 14.85 4.1 10.55 5.85 6.35 2.95 0.0" fill="#3a2c27" fill-rule="evenodd" stroke="none"/>
    <path d="M2.95 0.0 L5.85 6.35 4.1 10.55 6.65 14.85 5.15 17.5 5.45 23.55 7.55 23.3 5.6 29.2 6.75 30.7 5.55 33.9 5.7 38.65 3.8 39.95 3.8 45.35 0.0 45.35 0.0 0.0 2.95 0.0" fill="#29201d" fill-rule="evenodd" stroke="none"/>
    <path d="M5.7 38.65 L7.0 37.7 7.0 45.35 12.5 45.35 12.5 0.0 M0.0 0.0 L0.0 45.35 3.8 45.35 3.8 39.95 5.7 38.65 M0.0 45.35 L0.0 54.0 12.5 54.0 12.5 45.35" fill="none" stroke="#000000" stroke-linecap="butt" stroke-linejoin="miter-clip" stroke-miterlimit="3.0" stroke-width="2.0"/>
  </g>
</svg>
