<?xml version="1.0" encoding="UTF-8" standalone="no"?>
<svg xmlns:xlink="http://www.w3.org/1999/xlink" height="152.0px" width="42.0px" xmlns="http://www.w3.org/2000/svg">
  <g transform="matrix(1.0, 0.0, 0.0, 1.0, 21.0, 76.0)">
    <path d="M11.95 -54.0 L11.95 -58.25 6.55 -58.25 -0.55 -49.55 -0.55 -45.3 -0.55 45.35 -0.55 49.6 6.55 58.3 11.95 58.3 11.95 54.05 11.95 53.05 20.0 62.85 20.0 70.8 -20.0 70.8 -20.0 -70.75 20.0 -70.75 20.0 -62.8 11.95 -53.05 11.95 -54.0" fill="#393f27" fill-rule="evenodd" stroke="none"/>
    <path d="M-0.55 -45.3 L-0.55 -49.55 6.55 -58.25 11.95 -58.25 11.95 -54.0 6.55 -54.0 -0.55 -45.3 M20.0 -70.75 L-20.0 -70.75 -20.0 -75.0 20.0 -75.0 20.0 -70.75 M-20.0 70.8 L20.0 70.8 20.0 75.0 -20.0 75.0 -20.0 70.8 M11.95 54.05 L11.95 58.3 6.55 58.3 -0.55 49.6 -0.55 45.35 6.55 54.05 11.95 54.05" fill="#242718" fill-rule="evenodd" stroke="none"/>
    <path d="M-0.55 -45.3 L-0.55 -49.55 6.55 -58.25 11.95 -58.25 11.95 -54.0 11.95 -53.05 20.0 -62.8 20.0 -70.75 -20.0 -70.75 -20.0 70.8 20.0 70.8 20.0 62.85 11.95 53.05 11.95 54.05 11.95 58.3 6.55 58.3 -0.55 49.6 -0.55 45.35 -0.55 -45.3 M-20.0 -70.75 L-20.0 -75.0 20.0 -75.0 20.0 -70.75 M20.0 70.8 L20.0 75.0 -20.0 75.0 -20.0 70.8" fill="none" stroke="#000000" stroke-linecap="butt" stroke-linejoin="miter-clip" stroke-miterlimit="3.0" stroke-width="2.0"/>
    <path d="M1.45 -70.75 L6.45 -70.75 -4.95 -56.5 -4.95 54.5 8.1 70.8 3.1 70.8 -9.95 54.5 -9.95 -56.5 1.45 -70.75" fill="#000000" fill-opacity="0.2" fill-rule="evenodd" stroke="none"/>
    <path d="M-1.9 70.8 L-20.0 70.8 -20.0 -70.75 -3.55 -70.75 -14.95 -56.5 -14.95 54.5 -1.9 70.8" fill="#000000" fill-opacity="0.4" fill-rule="evenodd" stroke="none"/>
    <path d="M3.1 70.8 L-1.9 70.8 -14.95 54.5 -14.95 -56.5 -3.55 -70.75 1.45 -70.75 -9.95 -56.5 -9.95 54.5 3.1 70.8" fill="#000000" fill-opacity="0.29803923" fill-rule="evenodd" stroke="none"/>
  </g>
</svg>
