<?xml version="1.0" encoding="UTF-8" standalone="no"?>
<svg xmlns:xlink="http://www.w3.org/1999/xlink" height="22.0px" width="49.85px" xmlns="http://www.w3.org/2000/svg">
  <g transform="matrix(1.0, 0.0, 0.0, 1.0, 25.0, 12.0)">
    <path d="M-22.7 8.15 Q-21.95 7.4 -21.2 7.05 L-14.85 5.0 -16.25 7.2 -16.75 8.15 -22.7 8.15 M14.5 8.15 L15.1 7.75 15.7 8.15 14.5 8.15" fill="#4e4345" fill-rule="evenodd" stroke="none"/>
    <path d="M-24.75 8.15 Q-24.4 7.25 -23.6 6.5 -21.95 5.0 -17.7 3.4 -14.6 2.25 -5.35 -5.1 3.25 -12.0 4.25 -12.0 6.2 -12.0 14.45 -4.5 22.7 2.95 24.45 8.15 L22.8 8.15 Q21.6 6.7 20.45 4.2 18.85 0.7 17.0 0.7 L16.85 0.7 14.25 -1.25 5.7 -7.15 Q-13.2 2.25 -13.2 4.35 -13.2 4.95 -14.35 6.65 L-15.5 8.15 -16.75 8.15 -16.25 7.2 -14.85 5.0 -21.2 7.05 Q-21.95 7.4 -22.7 8.15 L-24.75 8.15 M13.4 8.15 L13.2 7.75 13.85 6.75 Q15.4 6.75 16.3 7.4 L17.2 8.15 15.7 8.15 15.1 7.75 14.5 8.15 13.4 8.15 M4.05 -3.95 L4.45 -4.5 Q7.1 -4.4 9.5 -2.5 11.8 -0.75 11.8 0.95 L11.7 1.55 11.4 1.55 Q11.3 -0.6 8.0 -2.0 4.3 -3.55 4.05 -3.95 M0.6 2.75 Q1.6 2.75 3.8 4.95 L2.55 6.35 1.75 7.0 Q1.1 7.0 0.55 6.15 L-0.05 5.0 Q-1.45 6.3 -3.05 6.7 L-4.45 6.85 Q-4.2 5.55 -2.3 4.15 -0.5 2.75 0.6 2.75" fill="#7a6c5c" fill-rule="evenodd" stroke="none"/>
    <path d="M-15.5 8.15 L-14.35 6.65 Q-13.2 4.95 -13.2 4.35 -13.2 2.25 5.7 -7.15 L14.25 -1.25 16.85 0.7 17.0 0.7 Q18.85 0.7 20.45 4.2 21.6 6.7 22.8 8.15 L17.2 8.15 16.3 7.4 Q15.4 6.75 13.85 6.75 L13.2 7.75 13.4 8.15 -15.5 8.15 M4.05 -3.95 Q4.3 -3.55 8.0 -2.0 11.3 -0.6 11.4 1.55 L11.7 1.55 11.8 0.95 Q11.8 -0.75 9.5 -2.5 7.1 -4.4 4.45 -4.5 L4.05 -3.95 M0.6 2.75 Q-0.5 2.75 -2.3 4.15 -4.2 5.55 -4.45 6.85 L-3.05 6.7 Q-1.45 6.3 -0.05 5.0 L0.55 6.15 Q1.1 7.0 1.75 7.0 L2.55 6.35 3.8 4.95 Q1.6 2.75 0.6 2.75" fill="#42373a" fill-rule="evenodd" stroke="none"/>
    <path d="M-24.75 8.15 L-22.7 8.15 -16.75 8.15 -15.5 8.15 13.4 8.15 14.5 8.15 15.7 8.15 17.2 8.15 22.8 8.15 24.45 8.15 24.8 9.4 24.85 10.0 -24.95 10.0 -24.9 9.05 -25.0 9.0 -24.75 8.15" fill="#322c2d" fill-rule="evenodd" stroke="none"/>
  </g>
</svg>
