<?xml version="1.0" encoding="UTF-8" standalone="no"?>
<svg xmlns:xlink="http://www.w3.org/1999/xlink" height="42.7px" width="42.7px" xmlns="http://www.w3.org/2000/svg">
  <g transform="matrix(1.0, 0.0, 0.0, 1.0, 21.35, 21.35)">
    <path d="M15.05 -15.1 Q21.35 -8.8 21.35 0.0 21.35 8.85 15.05 15.1 8.8 21.35 0.0 21.35 -8.85 21.35 -15.1 15.1 -21.35 8.85 -21.35 0.0 -21.35 -8.8 -15.1 -15.1 -8.85 -21.35 0.0 -21.35 8.8 -21.35 15.05 -15.1 M12.05 -12.1 Q7.1 -17.0 0.0 -17.0 -7.15 -17.0 -12.1 -12.1 -17.0 -7.15 -17.0 0.0 -17.0 7.1 -12.1 12.05 -9.7 14.45 -6.8 15.7 -7.5 14.2 -7.5 12.5 -7.5 9.4 -5.3 7.2 -3.1 5.0 0.0 5.0 3.15 5.0 5.35 7.2 7.5 9.4 7.5 12.5 7.5 14.2 6.85 15.65 9.7 14.4 12.05 12.05 17.0 7.1 17.0 0.0 17.0 -7.15 12.05 -12.1" fill="#472525" fill-rule="evenodd" stroke="none"/>
  </g>
</svg>
