<?xml version="1.0" encoding="UTF-8" standalone="no"?>
<svg xmlns:xlink="http://www.w3.org/1999/xlink" height="30.0px" width="30.0px" xmlns="http://www.w3.org/2000/svg">
  <g transform="matrix(1.0, 0.0, 0.0, 1.0, 15.0, 15.0)">
    <path d="M2.35 -13.65 L2.65 -13.65 2.65 -9.5 2.35 -9.5 2.35 -13.65 M2.35 10.5 L2.65 10.5 2.65 15.0 2.35 15.0 2.35 10.5" fill="#d2b597" fill-rule="evenodd" stroke="none"/>
    <path d="M2.35 -9.5 L2.65 -9.5 2.65 -13.65 2.35 -13.65 -1.2 -13.65 -1.7 -13.65 -1.7 -9.7 -1.2 -9.7 2.35 -9.5 M1.55 -6.25 L1.85 -5.5 1.55 -4.8 Q1.35 -4.55 1.0 -4.55 0.7 -4.55 0.4 -4.8 L0.2 -5.5 0.4 -6.25 1.0 -6.55 1.55 -6.25 M13.1 -3.15 L13.25 -7.7 -13.65 -9.2 -13.75 -4.15 13.1 -3.15 M-1.7 15.0 L-2.8 15.0 -2.8 10.75 -14.85 11.25 -15.0 3.1 -13.5 3.05 -13.45 -2.95 -14.6 -3.05 -14.4 -10.4 -2.8 -9.75 -2.8 -15.0 3.75 -15.0 3.75 -9.45 14.05 -8.9 13.9 -2.6 15.0 -2.6 14.9 4.75 14.45 4.75 14.55 9.95 3.75 10.45 3.75 15.0 2.65 15.0 2.65 10.5 2.35 10.5 -1.2 10.65 -1.7 10.7 -1.7 15.0 M13.7 8.75 L13.65 3.05 -14.15 4.35 -14.1 10.05 13.7 8.75 M1.3 1.15 L1.0 1.9 1.0 1.95 14.15 1.3 14.2 -1.45 -12.7 -2.15 -12.7 2.55 0.0 2.0 -0.1 1.9 -0.35 1.15 -0.1 0.45 Q0.15 0.15 0.45 0.15 L1.0 0.45 1.3 1.15 M1.0 5.8 L1.3 6.5 1.0 7.2 Q0.8 7.55 0.45 7.55 L-0.1 7.2 -0.35 6.5 -0.1 5.8 Q0.15 5.5 0.45 5.5 L1.0 5.8" fill="#6b4203" fill-rule="evenodd" stroke="none"/>
    <path d="M2.35 -13.65 L2.35 -9.5 -1.2 -9.7 -1.2 -13.65 2.35 -13.65 M-1.2 10.65 L2.35 10.5 2.35 15.0 -1.2 15.0 -1.2 10.65" fill="#845e37" fill-rule="evenodd" stroke="none"/>
    <path d="M-1.2 -9.7 L-1.7 -9.7 -1.7 -13.65 -1.2 -13.65 -1.2 -9.7 M-1.7 15.0 L-1.7 10.7 -1.2 10.65 -1.2 15.0 -1.7 15.0" fill="#8d653d" fill-rule="evenodd" stroke="none"/>
    <path d="M1.55 -6.25 L1.0 -6.55 0.4 -6.25 0.2 -5.5 0.4 -4.8 Q0.7 -4.55 1.0 -4.55 1.35 -4.55 1.55 -4.8 L1.85 -5.5 1.55 -6.25 M13.1 -3.15 L-13.75 -4.15 -13.65 -9.2 13.25 -7.7 13.1 -3.15 M13.7 8.75 L-14.1 10.05 -14.15 4.35 13.65 3.05 13.7 8.75 M1.0 5.8 L0.45 5.5 Q0.15 5.5 -0.1 5.8 L-0.35 6.5 -0.1 7.2 0.45 7.55 Q0.8 7.55 1.0 7.2 L1.3 6.5 1.0 5.8 M1.3 1.15 L1.0 0.45 0.45 0.15 Q0.15 0.15 -0.1 0.45 L-0.35 1.15 -0.1 1.9 0.0 2.0 -12.7 2.55 -12.7 -2.15 14.2 -1.45 14.15 1.3 1.0 1.95 1.0 1.9 1.3 1.15" fill="url(#gradient0)" fill-rule="evenodd" stroke="none"/>
  </g>
  <defs>
    <linearGradient gradientTransform="matrix(0.0, 0.0191, -0.0033, 1.0E-4, 11.0, 10.0)" gradientUnits="userSpaceOnUse" id="gradient0" spreadMethod="pad" x1="-819.2" x2="819.2">
      <stop offset="0.0" stop-color="#8d653d"/>
      <stop offset="0.4588235294117647" stop-color="#96704a"/>
      <stop offset="1.0" stop-color="#d6bba0"/>
    </linearGradient>
  </defs>
</svg>
