<?xml version="1.0" encoding="UTF-8" standalone="no"?>
<svg xmlns:xlink="http://www.w3.org/1999/xlink" height="16.55px" width="40.6px" xmlns="http://www.w3.org/2000/svg">
  <g transform="matrix(1.0, 0.0, 0.0, 1.0, 20.35, 14.4)">
    <path d="M9.65 -11.2 L9.9 -11.05 10.25 -11.1 Q10.1 -11.7 8.95 -11.7 6.4 -11.7 4.85 -9.75 3.7 -8.25 3.7 -7.05 L3.9 -6.7 Q5.35 -11.2 9.65 -11.2 M8.9 -12.35 L10.2 -12.5 Q13.15 -12.5 15.2 -10.4 L20.0 -13.05 20.0 -11.55 16.65 -8.45 Q17.4 -7.0 17.4 -5.25 17.4 -2.35 15.25 -0.15 13.2 1.9 10.2 1.9 L8.9 1.8 Q6.8 1.45 5.1 -0.15 3.35 -2.0 3.1 -4.4 L-2.25 -4.4 Q-2.75 -2.5 -4.2 -0.95 -6.55 1.3 -9.65 1.3 L-11.05 1.2 Q-13.35 0.8 -15.15 -0.95 -17.4 -3.25 -17.4 -6.4 -17.4 -7.7 -17.0 -8.85 L-20.1 -12.7 -20.1 -14.05 -16.15 -10.65 -15.15 -11.9 Q-13.35 -13.6 -11.05 -14.05 L-9.65 -14.15 Q-6.55 -14.15 -4.2 -11.9 -2.05 -9.65 -2.0 -6.7 L3.2 -6.7 Q3.55 -8.8 5.1 -10.35 6.8 -12.05 8.9 -12.35 M10.1 -10.6 Q7.85 -10.6 6.3 -9.05 4.65 -7.5 4.65 -5.15 4.65 -2.95 6.3 -1.3 7.85 0.25 10.1 0.25 11.75 0.25 13.05 -0.5 L13.95 -1.3 Q15.55 -2.95 15.55 -5.15 15.55 -7.5 13.95 -9.05 13.65 -9.4 13.35 -9.55 12.0 -10.6 10.1 -10.6 M2.6 -6.4 L2.5 -6.45 -2.3 -6.4 -2.3 -6.1 -1.9 -5.95 2.6 -5.95 2.6 -6.4 M16.65 -8.45 Q16.15 -9.5 15.25 -10.35 L15.2 -10.4 15.25 -10.35 Q16.15 -9.5 16.65 -8.45 M-8.7 -13.3 L-8.45 -13.35 -9.55 -13.6 -10.7 -13.7 Q-12.15 -13.7 -14.05 -12.25 L-15.95 -10.45 Q-16.9 -9.4 -16.9 -6.1 -16.8 -1.2 -14.5 -1.2 L-14.3 -1.2 Q-13.9 0.25 -12.5 0.25 L-12.25 0.1 -12.3 0.0 -14.05 -1.55 Q-16.4 -4.05 -16.4 -6.2 -16.4 -9.75 -15.0 -10.6 L-12.95 -12.25 -8.7 -13.3 M-16.15 -10.65 L-17.0 -8.85 -16.15 -10.65 M-15.25 -6.3 Q-15.25 -4.05 -13.6 -2.5 -12.05 -0.85 -9.75 -0.85 -7.5 -0.85 -5.95 -2.5 L-5.35 -3.2 -4.65 -4.4 Q-4.3 -5.25 -4.3 -6.3 L-4.3 -6.7 Q-4.4 -8.0 -5.1 -9.15 L-5.95 -10.15 Q-7.5 -11.7 -9.75 -11.7 -12.05 -11.7 -13.6 -10.15 -15.25 -8.6 -15.25 -6.3" fill="#58503a" fill-rule="evenodd" stroke="none"/>
    <path d="M10.1 -10.6 Q12.0 -10.6 13.35 -9.55 13.65 -9.4 13.95 -9.05 15.55 -7.5 15.55 -5.15 15.55 -2.95 13.95 -1.3 L13.05 -0.5 Q11.75 0.25 10.1 0.25 7.85 0.25 6.3 -1.3 4.65 -2.95 4.65 -5.15 4.65 -7.5 6.3 -9.05 7.85 -10.6 10.1 -10.6 M-15.25 -6.3 Q-15.25 -8.6 -13.6 -10.15 -12.05 -11.7 -9.75 -11.7 -7.5 -11.7 -5.95 -10.15 L-5.1 -9.15 Q-4.4 -8.0 -4.3 -6.7 L-4.3 -6.3 Q-4.3 -5.25 -4.65 -4.4 L-5.35 -3.2 -5.95 -2.5 Q-7.5 -0.85 -9.75 -0.85 -12.05 -0.85 -13.6 -2.5 -15.25 -4.05 -15.25 -6.3" fill="#ffffff" fill-opacity="0.24705882" fill-rule="evenodd" stroke="none"/>
    <path d="M9.65 -11.2 Q5.35 -11.2 3.9 -6.7 L3.7 -7.05 Q3.7 -8.25 4.85 -9.75 6.4 -11.7 8.95 -11.7 10.1 -11.7 10.25 -11.1 L9.9 -11.05 9.65 -11.2 M2.6 -6.4 L2.6 -5.95 -1.9 -5.95 -2.3 -6.1 -2.3 -6.4 2.5 -6.45 2.6 -6.4 M-8.7 -13.3 L-12.95 -12.25 -15.0 -10.6 Q-16.4 -9.75 -16.4 -6.2 -16.4 -4.05 -14.05 -1.55 L-12.3 0.0 -12.25 0.1 -12.5 0.25 Q-13.9 0.25 -14.3 -1.2 L-14.5 -1.2 Q-16.8 -1.2 -16.9 -6.1 -16.9 -9.4 -15.95 -10.45 L-14.05 -12.25 Q-12.15 -13.7 -10.7 -13.7 L-9.55 -13.6 -8.45 -13.35 -8.7 -13.3" fill="#796f51" fill-rule="evenodd" stroke="none"/>
    <path d="M8.9 -12.35 L10.2 -12.5 Q13.15 -12.5 15.2 -10.4 L20.0 -13.05 20.0 -11.55 16.65 -8.45 Q17.4 -7.0 17.4 -5.25 17.4 -2.35 15.25 -0.15 13.2 1.9 10.2 1.9 L8.9 1.8 Q6.8 1.45 5.1 -0.15 3.35 -2.0 3.1 -4.4 L-2.25 -4.4 Q-2.75 -2.5 -4.2 -0.95 -6.55 1.3 -9.65 1.3 L-11.05 1.2 Q-13.35 0.8 -15.15 -0.95 -17.4 -3.25 -17.4 -6.4 -17.4 -7.7 -17.0 -8.85 L-20.1 -12.7 -20.1 -14.05 -16.15 -10.65 -15.15 -11.9 Q-13.35 -13.6 -11.05 -14.05 L-9.65 -14.15 Q-6.55 -14.15 -4.2 -11.9 -2.05 -9.65 -2.0 -6.7 L3.2 -6.7 Q3.55 -8.8 5.1 -10.35 6.8 -12.05 8.9 -12.35 M10.1 -10.6 Q12.0 -10.6 13.35 -9.55 13.65 -9.4 13.95 -9.05 15.55 -7.5 15.55 -5.15 15.55 -2.95 13.95 -1.3 L13.05 -0.5 Q11.75 0.25 10.1 0.25 7.85 0.25 6.3 -1.3 4.65 -2.95 4.65 -5.15 4.65 -7.5 6.3 -9.05 7.85 -10.6 10.1 -10.6 M15.2 -10.4 L15.25 -10.35 Q16.15 -9.5 16.65 -8.45 M-17.0 -8.85 L-16.15 -10.65 M-15.25 -6.3 Q-15.25 -8.6 -13.6 -10.15 -12.05 -11.7 -9.75 -11.7 -7.5 -11.7 -5.95 -10.15 L-5.1 -9.15 Q-4.4 -8.0 -4.3 -6.7 L-4.3 -6.3 Q-4.3 -5.25 -4.65 -4.4 L-5.35 -3.2 -5.95 -2.5 Q-7.5 -0.85 -9.75 -0.85 -12.05 -0.85 -13.6 -2.5 -15.25 -4.05 -15.25 -6.3" fill="none" stroke="#000000" stroke-linecap="round" stroke-linejoin="round" stroke-width="0.5"/>
  </g>
</svg>
