<?xml version="1.0" encoding="UTF-8" standalone="no"?>
<svg xmlns:xlink="http://www.w3.org/1999/xlink" height="16.55px" width="40.0px" xmlns="http://www.w3.org/2000/svg">
  <g transform="matrix(1.0, 0.0, 0.0, 1.0, 20.0, 16.55)">
    <path d="M13.85 -13.65 L12.2 -12.7 12.0 -12.55 9.2 -10.15 5.65 -6.85 Q3.4 -4.75 0.65 -3.05 -2.2 -1.3 1.55 -4.45 L1.5 -4.55 5.25 -8.2 7.65 -10.3 Q10.0 -11.85 13.85 -13.65" fill="#003300" fill-rule="evenodd" stroke="none"/>
    <path d="M1.5 -4.55 L1.55 -4.45 Q-2.2 -1.3 0.65 -3.05 3.4 -4.75 5.65 -6.85 L9.2 -10.15 12.0 -12.55 12.2 -12.7 13.85 -13.65 Q11.55 -9.5 9.75 -7.35 8.45 -5.8 7.6 -4.05 L7.5 -3.6 7.4 -3.3 7.15 -2.7 7.05 -2.3 Q6.85 -1.6 6.9 -0.9 L-1.35 -0.9 -4.6 -4.8 -4.4 -5.0 -4.35 -5.05 -4.0 -5.15 -4.0 -5.55 Q-3.8 -6.15 -4.0 -6.85 -4.35 -7.8 -4.6 -7.95 -5.5 -11.95 -5.8 -15.55 L-5.8 -15.75 -1.6 -10.1 0.15 -6.4 1.55 -9.8 1.75 -10.3 2.2 -13.1 3.7 -11.65 2.85 -9.8 2.35 -8.55 1.2 -5.15 0.9 -4.8 1.2 -4.25 1.5 -4.55" fill="#002200" fill-rule="evenodd" stroke="none"/>
    <path d="M7.65 -10.3 L5.25 -8.2 4.45 -10.45 8.95 -16.55 Q7.65 -11.9 7.65 -10.3 M-11.95 -4.05 Q-11.45 -6.25 -20.0 -9.45 -13.05 -7.65 -9.1 -4.85 L-9.05 -4.8 -8.85 -4.4 -7.55 -2.7 -8.25 -2.85 -9.3 -3.25 -11.95 -4.05" fill="#002700" fill-rule="evenodd" stroke="none"/>
    <path d="M5.25 -8.2 L1.5 -4.55 1.2 -4.25 0.9 -4.8 1.2 -5.15 2.35 -8.55 2.85 -9.8 3.7 -11.65 4.45 -10.45 5.25 -8.2 M-1.35 -0.9 L6.9 -0.9 10.75 -0.9 10.4 0.0 -11.7 0.0 -11.85 -0.6 -11.9 -0.9 -10.7 -0.9 -1.35 -0.9" fill="#001100" fill-rule="evenodd" stroke="none"/>
    <path d="M1.75 -10.3 L1.55 -9.8 0.15 -6.4 -1.6 -10.1 Q-1.05 -10.7 -1.55 -16.5 -0.2 -15.3 1.75 -10.3 M7.6 -4.05 Q8.45 -5.8 9.75 -7.35 L16.15 -10.35 12.4 -5.9 11.6 -5.6 10.65 -5.25 7.6 -4.05 M-8.65 -8.55 Q-8.9 -10.75 -11.05 -14.0 L-10.65 -14.0 -5.3 -8.0 -4.85 -5.05 Q-7.9 -8.35 -8.65 -8.55" fill="#003600" fill-rule="evenodd" stroke="none"/>
    <path d="M-5.8 -15.75 L-5.8 -15.55 Q-5.5 -11.95 -4.6 -7.95 -4.35 -7.8 -4.0 -6.85 -3.8 -6.15 -4.0 -5.55 L-4.0 -5.15 -4.35 -5.05 -4.4 -5.0 -4.6 -4.8 -1.35 -0.9 -10.7 -0.9 -11.85 -3.35 -11.35 -3.25 Q-10.0 -2.75 -8.5 -2.75 L-8.25 -2.85 -7.55 -2.7 -8.85 -4.4 -8.7 -4.55 -8.95 -5.0 -9.0 -5.05 -9.3 -5.6 -11.75 -8.75 Q-13.2 -10.45 -16.85 -11.9 L-18.0 -12.8 Q-11.8 -11.1 -8.65 -8.55 -7.9 -8.35 -4.85 -5.05 L-5.3 -8.0 Q-6.15 -11.8 -6.3 -15.55 L-6.3 -15.7 -5.8 -15.75 M6.9 -0.9 Q6.85 -1.6 7.05 -2.3 L7.15 -2.7 8.2 -3.3 Q9.65 -4.15 11.25 -4.8 L12.15 -5.2 15.9 -6.6 14.6 -5.65 Q11.85 -3.55 10.75 -0.9 L6.9 -0.9" fill="#002900" fill-rule="evenodd" stroke="none"/>
    <path d="M7.15 -2.7 L7.4 -3.3 7.5 -3.6 7.6 -4.05 10.65 -5.25 11.6 -5.6 12.4 -5.9 13.25 -6.25 20.0 -8.6 18.05 -7.75 15.9 -6.6 12.15 -5.2 11.25 -4.8 Q9.65 -4.15 8.2 -3.3 L7.15 -2.7 M-11.9 -0.9 L-16.15 -5.4 -11.95 -4.05 -9.3 -3.25 -8.25 -2.85 -8.5 -2.75 Q-10.0 -2.75 -11.35 -3.25 L-11.85 -3.35 -10.7 -0.9 -11.9 -0.9 M-9.1 -4.85 Q-12.4 -8.3 -16.85 -11.9 -13.2 -10.45 -11.75 -8.75 L-9.3 -5.6 -9.0 -5.05 -8.95 -5.0 -8.7 -4.55 -8.85 -4.4 -9.05 -4.8 -9.1 -4.85 M-8.7 -4.55 L-8.85 -4.65 -8.95 -4.7 -8.85 -4.6 -8.7 -4.55" fill="#004300" fill-rule="evenodd" stroke="none"/>
  </g>
</svg>
