<?xml version="1.0" encoding="UTF-8" standalone="no"?>
<svg xmlns:xlink="http://www.w3.org/1999/xlink" height="37.5px" width="25.0px" xmlns="http://www.w3.org/2000/svg">
  <g transform="matrix(1.0, 0.0, 0.0, 1.0, 12.5, 18.8)">
    <path d="M12.5 18.7 L-12.5 18.7 -12.5 -18.8 12.5 -18.8 12.5 18.7" fill="#ffffff" fill-opacity="0.0" fill-rule="evenodd" stroke="none"/>
    <path d="M1.4 15.75 Q-2.15 9.95 0.0 6.15 4.95 -2.6 2.7 -5.15" fill="none" stroke="#330000" stroke-linecap="round" stroke-linejoin="round" stroke-width="3.0"/>
    <path d="M9.65 11.65 L9.55 11.6 Q8.45 11.45 7.25 12.15 6.55 12.6 6.3 13.1 L5.75 14.15 Q3.95 16.6 1.8 17.35 L0.55 17.5 0.4 17.5 Q0.15 16.9 -1.15 16.4 L-1.25 16.4 Q-2.05 15.6 -2.65 15.6 -5.0 13.75 -5.7 13.75 L-5.75 13.75 Q-7.05 12.85 -7.7 12.85 -8.1 12.85 -8.35 13.05 L-10.9 9.95 Q-10.7 9.3 -9.55 9.15 -5.3 11.1 -1.1 13.85 L1.4 15.75 2.1 15.0 Q4.55 12.15 7.6 9.75 L8.5 9.15 Q9.5 10.25 9.65 11.65" fill="#004300" fill-rule="evenodd" stroke="none"/>
    <path d="M0.25 -14.1 Q-2.2 -14.1 -2.9 -13.2 L-3.05 -12.3 Q-3.05 -11.55 -2.4 -10.8 L-1.7 -10.15 Q-1.05 -9.6 -1.05 -9.25 -1.05 -8.2 -2.15 -8.2 -3.0 -8.2 -3.65 -8.75 -4.35 -8.6 -4.7 -7.6 L-4.9 -6.5 Q-4.9 -5.25 -4.0 -4.15 -2.95 -2.8 -1.25 -2.8 0.6 -2.8 1.25 -3.9 L1.2 -4.1 Q1.2 -4.5 1.5 -4.75 L1.6 -5.05 2.4 -5.2 3.05 -5.55 3.8 -5.65 3.9 -5.5 4.0 -4.9 4.0 -4.6 Q4.25 -4.3 4.65 -4.3 7.7 -4.3 8.45 -5.25 L8.6 -6.55 8.1 -8.45 Q7.35 -10.0 6.15 -10.1 5.75 -9.7 4.95 -9.7 L4.6 -9.7 4.3 -9.35 3.9 -8.7 4.0 -7.9 Q4.0 -7.15 3.35 -6.6 L2.8 -6.15 2.75 -6.15 1.9 -5.9 1.55 -5.9 Q-0.15 -5.9 -0.85 -6.9 L-1.15 -7.9 Q-1.15 -10.15 1.45 -10.1 L2.1 -10.0 Q2.2 -11.5 3.5 -12.0 L3.9 -12.05 2.55 -13.35 Q1.4 -14.1 0.25 -14.1 M4.65 -14.25 Q6.2 -13.05 6.5 -11.85 10.85 -10.25 10.85 -6.5 10.85 -4.75 10.2 -3.95 8.85 -2.2 4.7 -2.2 L2.85 -2.45 2.65 -2.3 Q1.1 -0.7 -1.25 -0.7 -4.35 -0.7 -5.9 -3.15 -7.1 -4.75 -7.1 -6.55 -7.1 -9.0 -4.7 -10.3 L-5.3 -12.35 Q-5.3 -14.6 -3.45 -15.5 -1.85 -16.3 0.6 -15.9 2.95 -15.5 4.65 -14.25" fill="#cc0000" fill-rule="evenodd" stroke="none"/>
    <path d="M0.4 4.45 L0.5 4.8 0.2 5.35 -0.05 5.85 0.2 6.55 0.5 7.2 Q0.5 7.85 0.05 8.25 -0.4 8.7 -1.0 8.7 L-2.35 7.85 Q-2.9 7.7 -3.3 6.7 L-3.45 6.2 -4.05 5.15 -5.5 1.6 -5.45 0.95 -4.95 1.3 -3.45 2.25 Q-1.25 4.7 -0.4 4.7 L0.4 4.45 M-8.35 13.05 Q-8.1 12.85 -7.7 12.85 -7.05 12.85 -5.75 13.75 L-5.7 13.75 Q-5.0 13.75 -2.65 15.6 -2.05 15.6 -1.25 16.4 L-1.15 16.4 Q0.15 16.9 0.4 17.5 L0.55 17.5 1.8 17.35 Q3.95 16.6 5.75 14.15 L6.3 13.1 Q6.55 12.6 7.25 12.15 8.45 11.45 9.55 11.6 L9.65 11.65 Q10.6 11.7 10.6 12.35 L10.5 12.65 10.6 13.1 Q10.6 14.7 9.9 16.7 9.5 17.95 8.9 18.7 L-5.45 18.7 -6.95 17.2 -8.25 15.35 Q-8.65 14.85 -8.65 13.9 -8.65 13.3 -8.35 13.05" fill="#003300" fill-rule="evenodd" stroke="none"/>
    <path d="M-5.45 0.95 L-5.9 0.2 Q-5.9 -1.35 -3.9 -0.05 L-2.8 0.85 -2.7 0.9 -2.65 0.95 0.55 3.95 0.4 4.45 -0.4 4.7 Q-1.25 4.7 -3.45 2.25 L-4.95 1.3 -5.45 0.95" fill="#008200" fill-rule="evenodd" stroke="none"/>
    <path d="M0.25 -14.1 Q1.4 -14.1 2.55 -13.35 L3.9 -12.05 3.5 -12.0 Q2.2 -11.5 2.1 -10.0 L1.45 -10.1 Q-1.15 -10.15 -1.15 -7.9 L-0.85 -6.9 Q-0.15 -5.9 1.55 -5.9 L1.9 -5.9 2.75 -6.15 2.8 -6.15 3.35 -6.6 Q4.0 -7.15 4.0 -7.9 L3.9 -8.7 4.3 -9.35 4.6 -9.7 4.95 -9.7 Q5.75 -9.7 6.15 -10.1 7.35 -10.0 8.1 -8.45 L8.6 -6.55 8.45 -5.25 Q7.7 -4.3 4.65 -4.3 4.25 -4.3 4.0 -4.6 L4.0 -4.9 3.9 -5.5 3.8 -5.65 3.05 -5.55 2.4 -5.2 1.6 -5.05 1.5 -4.75 Q1.2 -4.5 1.2 -4.1 L1.25 -3.9 Q0.6 -2.8 -1.25 -2.8 -2.95 -2.8 -4.0 -4.15 -4.9 -5.25 -4.9 -6.5 L-4.7 -7.6 Q-4.35 -8.6 -3.65 -8.75 -3.0 -8.2 -2.15 -8.2 -1.05 -8.2 -1.05 -9.25 -1.05 -9.6 -1.7 -10.15 L-2.4 -10.8 Q-3.05 -11.55 -3.05 -12.3 L-2.9 -13.2 Q-2.2 -14.1 0.25 -14.1" fill="url(#gradient0)" fill-rule="evenodd" stroke="none"/>
  </g>
  <defs>
    <radialGradient cx="0" cy="0" gradientTransform="matrix(0.0, 0.0096, -0.0136, 0.0, 1.9, -8.45)" gradientUnits="userSpaceOnUse" id="gradient0" r="819.2" spreadMethod="pad">
      <stop offset="0.0" stop-color="#ff6600"/>
      <stop offset="1.0" stop-color="#cc0000"/>
    </radialGradient>
  </defs>
</svg>
