<?xml version="1.0" encoding="UTF-8" standalone="no"?>
<svg xmlns:xlink="http://www.w3.org/1999/xlink" height="60.05px" width="20.0px" xmlns="http://www.w3.org/2000/svg">
  <g transform="matrix(1.0, 0.0, 0.0, 1.0, 10.0, 30.0)">
    <path d="M10.0 -29.95 L10.0 30.05 -10.0 30.05 -10.0 -29.95 10.0 -29.95" fill="#ffffff" fill-opacity="0.0" fill-rule="evenodd" stroke="none"/>
    <path d="M0.8 -29.65 Q9.3 -16.75 1.0 -3.8 -6.0 7.1 -0.2 18.1 L-0.2 18.15 Q2.95 24.3 0.0 29.2 L-0.5 29.55 -1.1 29.45 -1.45 29.0 -1.35 28.4 Q1.1 24.15 -1.55 18.85 -7.8 7.05 -0.3 -4.65 7.45 -16.75 -0.5 -28.8 L-0.6 -29.4 -0.25 -29.9 0.3 -30.0 0.8 -29.65" fill="#312f20" fill-rule="evenodd" stroke="none"/>
    <path d="M0.35 -20.9 L3.0 -22.6 3.4 -20.65 3.6 -18.7 Q2.8 -19.9 1.05 -20.0 L-0.9 -20.05 0.35 -20.9 M2.05 -26.5 L5.1 -26.6 Q7.1 -25.85 7.75 -25.15 L5.65 -24.6 3.65 -23.75 2.05 -26.5 M4.65 -17.75 Q5.9 -17.35 6.8 -15.5 L7.8 -12.5 7.8 -12.35 7.45 -12.3 Q7.15 -12.3 6.0 -13.0 4.8 -13.75 4.4 -14.2 5.0 -15.45 4.65 -17.75 M2.0 -11.0 L2.75 -11.15 2.55 -10.75 Q2.7 -10.65 2.05 -9.85 1.45 -9.0 1.1 -9.0 L-1.25 -9.3 -1.85 -9.65 2.0 -11.0 M1.65 -6.0 Q2.4 -5.55 2.7 -5.1 3.35 -4.15 3.35 -2.4 L3.25 -1.5 3.15 -0.95 2.15 -2.7 Q1.55 -3.7 0.55 -3.6 L0.55 -3.55 0.5 -3.95 1.0 -4.7 1.65 -6.0 M0.9 5.75 L-2.15 3.75 -2.55 3.1 -2.3 3.2 -2.1 2.4 -1.85 1.5 -1.75 1.2 -1.6 1.25 0.5 3.4 Q1.6 4.75 0.9 5.75 M0.3 11.95 L0.0 12.0 -1.4 11.85 Q-2.8 11.55 -3.3 10.85 L-3.2 10.5 -2.95 8.65 -2.95 8.25 -1.05 10.15 0.3 11.75 0.3 11.95 M2.4 18.35 L1.0 18.5 -0.75 18.7 -0.95 18.4 -1.2 16.75 1.0 16.95 2.4 18.35 M4.05 25.25 Q3.75 26.35 2.95 26.9 L0.0 28.35 0.0 28.25 0.6 26.85 1.1 25.85 Q0.8 25.9 0.9 25.65 L3.6 24.95 3.95 25.0 4.05 25.25 M0.15 23.05 L0.35 23.75 -1.45 23.45 -3.3 22.7 Q-2.05 22.15 -0.8 22.05 L-0.3 21.9 Q-0.15 21.8 -0.15 22.15 L0.15 23.05 M-6.3 -0.05 Q-5.5 -1.4 -4.7 -1.75 L-1.1 -3.4 -1.05 -3.3 -1.0 -2.9 Q-1.0 -1.15 -2.45 -0.75 L-6.3 -0.05 M-3.75 5.4 Q-3.75 6.55 -5.05 7.6 L-6.8 9.0 -7.0 8.65 Q-6.85 7.75 -5.9 6.35 -4.9 4.95 -3.95 4.45 L-3.75 5.4 M-1.9 28.5 L-0.95 28.15 0.0 29.05 Q-0.8 30.0 -1.95 30.0 L-3.25 29.55 -4.6 28.65 -3.55 28.55 -1.9 28.5 M-3.9 12.45 L-3.85 12.5 Q-2.55 14.4 -3.45 15.55 L-4.35 16.4 -5.0 17.5 -5.15 16.5 -4.9 14.55 Q-4.5 13.1 -3.9 12.45" fill="#006600" fill-rule="evenodd" stroke="none"/>
  </g>
</svg>
