<?xml version="1.0" encoding="UTF-8" standalone="no"?>
<svg xmlns:xlink="http://www.w3.org/1999/xlink" height="15.0px" width="25.0px" xmlns="http://www.w3.org/2000/svg">
  <g transform="matrix(1.0, 0.0, 0.0, 1.0, 12.5, 7.5)">
    <path d="M-12.45 -0.85 Q-12.25 -3.2 -11.0 -4.95 L-10.95 -5.05 Q-9.0 -7.6 -6.4 -7.5 -3.75 -7.6 -1.8 -5.05 L-1.75 -5.0 Q-1.05 -4.05 -0.65 -2.9 L12.5 -2.9 12.5 -0.85 -5.3 -0.85 -5.8 -2.1 -5.8 -2.05 -6.4 -2.5 -6.95 -2.05 -7.4 -0.85 -12.45 -0.85" fill="#a3935a" fill-rule="evenodd" stroke="none"/>
    <path d="M-12.45 -0.85 L-7.4 -0.85 -7.5 0.0 Q-7.5 1.2 -6.9 2.05 L-6.4 2.5 -5.8 2.05 -5.8 2.0 Q-5.2 1.15 -5.2 0.0 L-5.2 -0.1 -5.3 -0.85 12.5 -0.85 12.5 2.1 11.5 2.1 11.5 6.3 8.5 6.3 8.5 2.1 7.7 2.1 7.7 6.3 4.7 6.3 4.7 2.1 -0.4 2.1 -1.2 4.15 -1.75 5.0 -1.8 5.0 Q-3.7 7.6 -6.4 7.5 -9.05 7.6 -10.95 5.0 L-11.5 4.15 Q-12.5 2.35 -12.5 0.0 L-12.45 -0.85" fill="#736740" fill-rule="evenodd" stroke="none"/>
  </g>
</svg>
