<?xml version="1.0" encoding="UTF-8" standalone="no"?>
<svg xmlns:xlink="http://www.w3.org/1999/xlink" height="30.85px" width="33.95px" xmlns="http://www.w3.org/2000/svg">
  <g transform="matrix(1.0, 0.0, 0.0, 1.0, 18.1, 18.75)">
    <path d="M1.45 8.95 L-0.05 8.95 -0.45 8.95 -0.7 8.95 -0.8 8.95 -2.9 8.9 -3.95 8.9 -4.95 8.8 -9.7 8.4 Q-10.85 8.2 -11.0 7.9 L-11.0 7.8 Q-11.0 7.35 -7.95 7.0 L-6.2 6.9 -2.9 6.75 -2.75 6.75 -0.55 6.65 -0.45 6.65 1.8 6.75 2.0 6.75 5.25 6.9 7.0 7.0 Q10.05 7.35 10.05 7.8 L10.05 7.9 Q9.85 8.25 8.25 8.45 L5.45 8.75 2.65 8.95 1.45 8.95" fill="#d5dfca" fill-rule="evenodd" stroke="none"/>
    <path d="M12.0 10.05 Q0.0 13.15 -12.85 10.05 L-12.85 8.35 -13.0 8.0 Q-13.0 7.15 -9.3 6.5 L-0.45 5.9 8.4 6.5 Q12.05 7.15 12.05 8.0 L12.0 8.15 12.0 10.05 M1.45 8.95 L2.65 8.95 5.45 8.75 8.25 8.45 Q9.85 8.25 10.05 7.9 L10.05 7.8 Q10.05 7.35 7.0 7.0 L5.25 6.9 2.0 6.75 1.8 6.75 -0.45 6.65 -0.55 6.65 -2.75 6.75 -2.9 6.75 -6.2 6.9 -7.95 7.0 Q-11.0 7.35 -11.0 7.8 L-11.0 7.9 Q-10.85 8.2 -9.7 8.4 L-4.95 8.8 -3.95 8.9 -2.9 8.9 -0.8 8.95 -0.7 8.95 -0.45 8.95 -0.05 8.95 1.45 8.95" fill="#94c439" fill-rule="evenodd" stroke="none"/>
    <path d="M12.0 8.1 L12.0 10.05 Q0.0 13.15 -12.85 10.05 L-12.85 8.1" fill="none" stroke="#526c20" stroke-linecap="round" stroke-linejoin="round" stroke-width="1.0"/>
    <path d="M-18.1 -18.75 L15.85 -18.75 11.9 7.8 -12.85 7.8 -18.1 -18.75" fill="url(#gradient0)" fill-rule="evenodd" stroke="none"/>
  </g>
  <defs>
    <linearGradient gradientTransform="matrix(0.0, 0.0219, -0.0225, 0.0, -1.45, -10.05)" gradientUnits="userSpaceOnUse" id="gradient0" spreadMethod="pad" x1="-819.2" x2="819.2">
      <stop offset="0.0" stop-color="#ffffff" stop-opacity="0.0"/>
      <stop offset="0.9921568627450981" stop-color="#ffffff" stop-opacity="0.2"/>
    </linearGradient>
  </defs>
</svg>
