<?xml version="1.0" encoding="UTF-8" standalone="no"?>
<svg xmlns:xlink="http://www.w3.org/1999/xlink" height="25.5px" width="27.5px" xmlns="http://www.w3.org/2000/svg">
  <g transform="matrix(1.0, 0.0, 0.0, 1.0, 13.6, 12.95)">
    <path d="M5.75 -6.2 L4.9 -4.9 4.9 -2.6 6.25 -1.25 8.8 -1.25 10.1 -2.4 10.1 -5.0 8.4 -6.2 5.75 -6.2 M1.6 -5.9 L-1.1 -5.9 -2.0 -5.1 -2.0 -2.1 -0.6 -0.7 2.0 -0.7 2.85 -2.0 2.85 -4.7 1.6 -5.9 M4.75 -0.25 L3.4 -0.25 4.75 -0.25 M0.55 -8.95 L7.75 -8.95 12.3 -6.05 10.75 0.7 6.55 3.15 0.05 2.3 -1.25 4.2 5.05 12.05 -7.0 12.05 -11.1 6.8 -8.2 0.05 -9.25 -2.8 -11.4 -1.6 -10.15 0.25 -11.7 1.25 -13.1 -0.35 -11.95 -3.55 -8.15 -4.1 -6.15 -0.8 -8.85 5.0 -8.15 7.95 -6.1 7.95 Q-4.05 4.45 -1.1 1.9 -2.65 1.25 -3.5 -0.65 -4.55 -3.1 -4.15 -5.85 L0.55 -8.95" fill="#000000" fill-rule="evenodd" stroke="none"/>
    <path d="M5.75 -6.2 L8.4 -6.2 10.1 -5.0 10.1 -2.4 8.8 -1.25 6.25 -1.25 4.9 -2.6 4.9 -4.9 5.75 -6.2 M0.35 -2.15 L0.35 -4.4 0.35 -2.15 M1.6 -5.9 L2.85 -4.7 2.85 -2.0 2.0 -0.7 -0.6 -0.7 -2.0 -2.1 -2.0 -5.1 -1.1 -5.9 1.6 -5.9 M7.4 -2.65 L7.4 -4.7 7.4 -2.65 M7.75 -8.95 L13.4 -12.0 12.3 -6.05 7.75 -8.95 M-4.15 -5.85 L-5.6 -12.45 0.55 -8.95 -4.15 -5.85" fill="#ffffff" fill-rule="evenodd" stroke="none"/>
    <path d="M5.75 -6.2 L4.9 -4.9 4.9 -2.6 6.25 -1.25 8.8 -1.25 10.1 -2.4 10.1 -5.0 8.4 -6.2 5.75 -6.2 M0.35 -4.4 L0.35 -2.15 M1.6 -5.9 L-1.1 -5.9 -2.0 -5.1 -2.0 -2.1 -0.6 -0.7 2.0 -0.7 2.85 -2.0 2.85 -4.7 1.6 -5.9 M7.4 -4.7 L7.4 -2.65 M0.55 -8.95 L7.75 -8.95 13.4 -12.0 12.3 -6.05 10.75 0.7 6.55 3.15 0.05 2.3 -1.25 4.2 5.05 12.05 -7.0 12.05 -11.1 6.8 -8.2 0.05 -9.25 -2.8 -11.4 -1.6 -10.15 0.25 -11.7 1.25 -13.1 -0.35 -11.95 -3.55 -8.15 -4.1 -6.15 -0.8 -8.85 5.0 -8.15 7.95 -6.1 7.95 Q-4.05 4.45 -1.1 1.9 -2.65 1.25 -3.5 -0.65 -4.55 -3.1 -4.15 -5.85 L-5.6 -12.45 0.55 -8.95 -4.15 -5.85 M12.3 -6.05 L7.75 -8.95" fill="none" stroke="#000000" stroke-linecap="round" stroke-linejoin="round" stroke-width="1.0"/>
    <path d="M3.4 -0.25 L4.75 -0.25" fill="none" stroke="#ffffff" stroke-linecap="round" stroke-linejoin="round" stroke-width="1.0"/>
  </g>
</svg>
