<?xml version="1.0" encoding="UTF-8" standalone="no"?>
<svg xmlns:xlink="http://www.w3.org/1999/xlink" height="21.0px" width="41.0px" xmlns="http://www.w3.org/2000/svg">
  <g transform="matrix(1.0, 0.0, 0.0, 1.0, 0.5, 0.5)">
    <path d="M8.0 5.0 L8.0 6.45 32.0 6.45 32.0 5.0 32.0 0.0 40.0 0.0 40.0 20.0 32.0 20.0 32.0 15.0 8.0 15.0 8.0 20.0 1.2 20.0 1.2 0.0 8.0 0.0 8.0 5.0" fill="#576145" fill-rule="evenodd" stroke="none"/>
    <path d="M32.0 5.0 L32.0 6.45 8.0 6.45 8.0 5.0 32.0 5.0 M1.2 0.0 L1.2 20.0 0.0 20.0 0.0 0.0 1.2 0.0" fill="#798761" fill-rule="evenodd" stroke="none"/>
    <path d="M32.0 5.0 L8.0 5.0 8.0 0.0 M1.2 20.0 L8.0 20.0 8.0 15.0 32.0 15.0 32.0 20.0 40.0 20.0 40.0 0.0 M32.0 0.0 L32.0 5.0 M1.2 20.0 L0.0 20.0 0.0 0.0" fill="none" stroke="#000000" stroke-linecap="butt" stroke-linejoin="miter-clip" stroke-miterlimit="3.0" stroke-width="1.0"/>
  </g>
</svg>
