<?xml version="1.0" encoding="UTF-8" standalone="no"?>
<svg xmlns:xlink="http://www.w3.org/1999/xlink" height="13.45px" width="21.1px" xmlns="http://www.w3.org/2000/svg">
  <g transform="matrix(1.0, 0.0, 0.0, 1.0, 10.55, 6.75)">
    <path d="M9.4 -6.75 L9.95 -6.55 10.2 -6.05 10.05 -5.5 Q9.85 -5.3 9.55 -5.25 L-1.2 -4.3 9.7 -3.35 10.15 -3.1 10.35 -2.6 Q10.35 -2.3 10.15 -2.1 L9.7 -1.85 -1.3 -0.9 9.7 0.1 10.15 0.35 10.35 0.85 10.15 1.35 9.7 1.6 -1.15 2.55 9.7 3.5 10.15 3.75 10.35 4.25 10.15 4.75 9.7 5.0 7.4 5.2 9.8 5.2 Q10.1 5.2 10.35 5.45 L10.55 5.95 10.35 6.5 9.8 6.7 -9.8 6.7 Q-10.1 6.7 -10.3 6.5 L-10.55 6.0 -10.35 5.45 -9.85 5.2 1.1 4.25 -9.85 3.25 -10.35 3.0 -10.55 2.5 -10.35 2.0 -9.85 1.75 1.0 0.85 -9.85 -0.15 Q-10.15 -0.2 -10.35 -0.4 L-10.55 -0.9 -10.35 -1.4 -9.85 -1.65 1.1 -2.6 -9.85 -3.6 Q-10.15 -3.65 -10.35 -3.85 L-10.55 -4.35 -10.35 -4.85 -9.85 -5.1 9.4 -6.75" fill="#302c1f" fill-rule="evenodd" stroke="none"/>
  </g>
</svg>
