<?xml version="1.0" encoding="UTF-8" standalone="no"?>
<svg xmlns:xlink="http://www.w3.org/1999/xlink" height="5.95px" width="21.0px" xmlns="http://www.w3.org/2000/svg">
  <g transform="matrix(1.0, 0.0, 0.0, 1.0, 10.5, 3.0)">
    <path d="M9.5 -0.8 L9.5 1.95 -9.5 1.95 -9.5 -0.8 9.5 -0.8" fill="#576145" fill-rule="evenodd" stroke="none"/>
    <path d="M-9.5 -0.8 L-9.5 -2.0 9.5 -2.0 9.5 -0.8 -9.5 -0.8" fill="#798761" fill-rule="evenodd" stroke="none"/>
    <path d="M10.0 -3.0 L10.35 -2.85 10.5 -2.5 10.5 2.45 10.35 2.8 10.0 2.95 -10.0 2.95 -10.35 2.8 -10.5 2.45 -10.5 -2.5 -10.35 -2.85 -10.0 -3.0 10.0 -3.0 M9.5 -0.8 L9.5 -2.0 -9.5 -2.0 -9.5 -0.8 -9.5 1.95 9.5 1.95 9.5 -0.8" fill="#302c1f" fill-rule="evenodd" stroke="none"/>
  </g>
</svg>
