<?xml version="1.0" encoding="UTF-8" standalone="no"?>
<svg xmlns:xlink="http://www.w3.org/1999/xlink" height="50.6px" width="33.7px" xmlns="http://www.w3.org/2000/svg">
  <g transform="matrix(1.0, 0.0, 0.0, 1.0, 16.75, 50.1)">
    <path d="M-1.3 -48.85 L-1.3 -1.3 -1.85 -1.3 -1.85 -48.85 -1.3 -48.85" fill="#8d653d" fill-rule="evenodd" stroke="none"/>
    <path d="M2.55 -1.3 L2.55 -48.85 2.85 -48.85 2.85 -1.3 2.55 -1.3" fill="#d2b597" fill-rule="evenodd" stroke="none"/>
    <path d="M2.55 -1.3 L2.85 -1.3 2.85 -48.85 2.55 -48.85 -1.3 -48.85 -1.85 -48.85 -1.85 -1.3 -1.3 -1.3 2.55 -1.3 M4.05 -50.1 L4.05 -0.1 -3.05 -0.1 -3.05 -50.1 4.05 -50.1" fill="#6b4203" fill-rule="evenodd" stroke="none"/>
    <path d="M2.55 -48.85 L2.55 -1.3 -1.3 -1.3 -1.3 -48.85 2.55 -48.85" fill="#845e37" fill-rule="evenodd" stroke="none"/>
    <path d="M15.2 -44.55 L15.05 -38.8 16.25 -38.8 16.15 -32.1 15.65 -32.1 15.75 -27.35 -16.1 -26.15 -16.25 -33.6 -14.6 -33.65 -14.55 -39.1 -15.8 -39.2 -15.6 -45.9 15.2 -44.55 M15.35 -35.25 L15.4 -37.75 -13.75 -38.4 -13.75 -34.1 15.35 -35.25 M14.85 -28.45 L14.8 -33.65 -15.35 -32.45 -15.25 -27.25 14.85 -28.45 M14.2 -39.3 L14.35 -43.45 -14.8 -44.8 -14.9 -40.2 14.2 -39.3" fill="#6b4203" fill-rule="evenodd" stroke="none"/>
    <path d="M14.2 -39.3 L-14.9 -40.2 -14.8 -44.8 14.35 -43.45 14.2 -39.3 M14.85 -28.45 L-15.25 -27.25 -15.35 -32.45 14.8 -33.65 14.85 -28.45 M15.35 -35.25 L-13.75 -34.1 -13.75 -38.4 15.4 -37.75 15.35 -35.25" fill="url(#gradient0)" fill-rule="evenodd" stroke="none"/>
    <path d="M0.45 -40.8 L0.2 -41.45 0.45 -42.1 Q0.75 -42.4 1.1 -42.4 L1.7 -42.1 2.0 -41.45 1.7 -40.8 Q1.45 -40.55 1.1 -40.55 L0.45 -40.8 M1.1 -36.0 L1.4 -35.35 1.1 -34.7 Q0.85 -34.45 0.5 -34.45 0.15 -34.45 -0.1 -34.7 L-0.4 -35.35 -0.1 -36.0 Q0.15 -36.3 0.5 -36.3 L1.1 -36.0 M1.4 -30.5 L1.1 -29.85 Q0.85 -29.55 0.5 -29.55 0.15 -29.55 -0.1 -29.85 L-0.4 -30.5 -0.1 -31.15 0.5 -31.4 1.1 -31.15 1.4 -30.5" fill="#6b4203" fill-rule="evenodd" stroke="none"/>
    <path d="M-15.9 -1.6 Q-14.15 -5.3 -9.9 -9.55 L-6.0 -5.55 Q-5.7 -5.65 -3.7 -6.9 L-0.85 -8.6 Q2.2 -7.35 4.05 -5.65 L6.2 -7.1 8.0 -4.85 Q9.45 -6.45 11.75 -6.6 14.65 -4.1 16.05 -1.6 L12.4 -1.1 7.15 -2.0 1.5 -1.3 -5.9 -1.85 -10.5 -1.15 -15.9 -1.6" fill="url(#gradient1)" fill-rule="evenodd" stroke="none"/>
    <path d="M-15.9 -1.6 L-10.5 -1.15 -5.9 -1.85 1.5 -1.3 7.15 -2.0 12.4 -1.1 16.05 -1.6 16.95 0.5 -16.75 0.5 -15.9 -1.6" fill="#3e2d0d" fill-rule="evenodd" stroke="none"/>
  </g>
  <defs>
    <linearGradient gradientTransform="matrix(0.0, 0.0174, -0.0035, 1.0E-4, 11.9, -27.3)" gradientUnits="userSpaceOnUse" id="gradient0" spreadMethod="pad" x1="-819.2" x2="819.2">
      <stop offset="0.0" stop-color="#8d653d"/>
      <stop offset="0.4588235294117647" stop-color="#96704a"/>
      <stop offset="1.0" stop-color="#d6bba0"/>
    </linearGradient>
    <linearGradient gradientTransform="matrix(0.0, -0.0067, 0.0061, 0.0, 0.1, -4.55)" gradientUnits="userSpaceOnUse" id="gradient1" spreadMethod="pad" x1="-819.2" x2="819.2">
      <stop offset="0.0" stop-color="#003300"/>
      <stop offset="1.0" stop-color="#006600"/>
    </linearGradient>
  </defs>
</svg>
