<?xml version="1.0" encoding="UTF-8" standalone="no"?>
<svg xmlns:xlink="http://www.w3.org/1999/xlink" height="82.6px" width="52.6px" xmlns="http://www.w3.org/2000/svg">
  <g transform="matrix(1.0, 0.0, 0.0, 1.0, 26.3, 41.3)">
    <path d="M-0.7 -7.6 L-0.1 -6.95 0.45 -5.1 Q0.55 -3.85 0.25 -2.7 L0.05 -2.1 -0.3 0.6 Q-0.45 1.8 0.15 4.25 L0.65 5.85 Q0.9 6.65 1.25 6.9 -0.65 7.2 -4.2 6.9 L-3.05 4.25 -2.85 3.7 -1.65 0.85 -1.7 0.75 -2.6 -1.85 -3.25 -4.3 -3.0 -5.2 -2.45 -6.2 -1.2 -7.45 Q-1.2 -7.2 -0.95 -7.5 L-0.9 -7.55 -0.7 -7.6" fill="#000000" fill-rule="evenodd" stroke="none"/>
    <path d="M25.0 -2.0 L25.0 2.0 6.0 2.0 6.0 -2.0 25.0 -2.0 M-25.0 2.0 L-25.0 -2.0 -6.0 -2.0 -6.0 2.0 -25.0 2.0 M21.55 -1.05 Q21.1 -1.5 20.5 -1.5 19.85 -1.5 19.4 -1.05 19.0 -0.6 19.0 0.0 19.0 0.65 19.4 1.05 19.85 1.5 20.5 1.5 21.1 1.5 21.55 1.05 L22.0 0.0 21.55 -1.05 M15.5 -1.5 Q14.85 -1.5 14.4 -1.05 14.0 -0.6 14.0 0.0 14.0 0.65 14.4 1.05 14.85 1.5 15.5 1.5 16.1 1.5 16.55 1.05 17.0 0.65 17.0 0.0 17.0 -0.6 16.55 -1.05 16.1 -1.5 15.5 -1.5 M11.55 -1.05 L10.5 -1.5 Q9.85 -1.5 9.4 -1.05 9.0 -0.6 9.0 0.0 9.0 0.65 9.4 1.05 9.85 1.5 10.5 1.5 L11.55 1.05 12.0 0.0 11.55 -1.05 M-14.45 -1.05 Q-14.9 -1.5 -15.5 -1.5 -16.15 -1.5 -16.6 -1.05 -17.0 -0.6 -17.0 0.0 -17.0 0.65 -16.6 1.05 -16.15 1.5 -15.5 1.5 -14.9 1.5 -14.45 1.05 -14.0 0.65 -14.0 0.0 -14.0 -0.6 -14.45 -1.05 M-10.5 -1.5 Q-11.15 -1.5 -11.6 -1.05 -12.0 -0.6 -12.0 0.0 -12.0 0.65 -11.6 1.05 -11.15 1.5 -10.5 1.5 -9.9 1.5 -9.45 1.05 -9.0 0.65 -9.0 0.0 -9.0 -0.6 -9.45 -1.05 -9.9 -1.5 -10.5 -1.5 M-20.5 -1.5 L-21.6 -1.05 Q-22.0 -0.6 -22.0 0.0 -22.0 0.65 -21.6 1.05 L-20.5 1.5 Q-19.9 1.5 -19.45 1.05 -19.0 0.65 -19.0 0.0 -19.0 -0.6 -19.45 -1.05 -19.9 -1.5 -20.5 -1.5" fill="#999999" fill-rule="evenodd" stroke="none"/>
    <path d="M22.55 -35.45 Q23.0 -35.85 23.0 -36.5 23.0 -37.1 22.55 -37.55 22.1 -38.0 21.5 -38.0 20.85 -38.0 20.4 -37.55 20.0 -37.1 20.0 -36.5 20.0 -35.85 20.4 -35.45 20.85 -35.0 21.5 -35.0 22.1 -35.0 22.55 -35.45 M-25.0 -28.0 L-25.0 -40.0 25.0 -40.0 25.0 -28.0 20.0 -28.0 15.0 -28.0 10.0 -28.0 5.0 -28.0 0.0 -28.0 -5.0 -28.0 -10.0 -28.0 -15.0 -28.0 -20.0 -28.0 -25.0 -28.0 M25.0 28.0 L25.0 40.0 -25.0 40.0 -25.0 28.0 -20.0 28.0 -15.0 28.0 -10.0 28.0 -5.0 28.0 0.0 28.0 5.0 28.0 10.0 28.0 15.0 28.0 20.0 28.0 25.0 28.0 M18.0 -34.5 L18.0 -36.5 -18.0 -36.5 -18.0 -34.5 -18.0 -36.5 18.0 -36.5 18.0 -34.5 M-0.7 -7.6 L-0.9 -7.55 -1.2 -7.45 -2.45 -6.2 -3.0 -5.2 -3.25 -4.3 -2.6 -1.85 -1.7 0.75 -1.65 0.85 -2.85 3.7 -3.05 4.25 -4.2 6.9 Q-0.65 7.2 1.25 6.9 L3.95 5.95 4.0 5.7 3.7 5.0 1.65 0.25 1.75 0.15 3.0 -2.1 Q3.3 -5.8 1.95 -7.1 0.95 -8.05 -0.7 -7.6 M-6.0 -2.0 L-6.0 -10.0 6.0 -10.0 6.0 -2.0 6.0 2.0 6.0 10.0 -6.0 10.0 -6.0 2.0 -6.0 -2.0 M-18.0 34.5 L-18.0 36.5 18.0 36.5 18.0 34.5 18.0 36.5 -18.0 36.5 -18.0 34.5 M21.5 35.0 Q20.85 35.0 20.4 35.45 20.0 35.9 20.0 36.5 20.0 37.15 20.4 37.55 20.85 38.0 21.5 38.0 22.1 38.0 22.55 37.55 23.0 37.15 23.0 36.5 23.0 35.9 22.55 35.45 22.1 35.0 21.5 35.0 M-21.5 -35.0 Q-20.9 -35.0 -20.45 -35.45 -20.0 -35.85 -20.0 -36.5 -20.0 -37.1 -20.45 -37.55 -20.9 -38.0 -21.5 -38.0 -22.15 -38.0 -22.6 -37.55 -23.0 -37.1 -23.0 -36.5 -23.0 -35.85 -22.6 -35.45 -22.15 -35.0 -21.5 -35.0 M-20.45 35.45 Q-20.9 35.0 -21.5 35.0 -22.15 35.0 -22.6 35.45 -23.0 35.9 -23.0 36.5 -23.0 37.15 -22.6 37.55 -22.15 38.0 -21.5 38.0 -20.9 38.0 -20.45 37.55 -20.0 37.15 -20.0 36.5 -20.0 35.9 -20.45 35.45" fill="#736740" fill-rule="evenodd" stroke="none"/>
    <path d="M-25.0 -28.0 L-20.0 -28.0 -15.0 -28.0 -10.0 -28.0 -5.0 -28.0 0.0 -28.0 5.0 -28.0 10.0 -28.0 15.0 -28.0 20.0 -28.0 25.0 -28.0 25.0 -24.0 20.0 -24.0 15.0 -24.0 10.0 -24.0 5.0 -24.0 0.0 -24.0 -5.0 -24.0 -10.0 -24.0 -15.0 -24.0 -20.0 -24.0 -25.0 -24.0 -25.0 -28.0 M25.0 24.0 L25.0 28.0 20.0 28.0 15.0 28.0 10.0 28.0 5.0 28.0 0.0 28.0 0.0 24.0 0.0 28.0 -5.0 28.0 -10.0 28.0 -15.0 28.0 -20.0 28.0 -25.0 28.0 -25.0 24.0 -20.0 24.0 -15.0 24.0 -10.0 24.0 -5.0 24.0 0.0 24.0 5.0 24.0 5.0 28.0 5.0 24.0 10.0 24.0 15.0 24.0 20.0 24.0 25.0 24.0 M5.0 -24.0 L5.0 -28.0 5.0 -24.0 M0.0 -24.0 L0.0 -28.0 0.0 -24.0 M10.0 -24.0 L10.0 -28.0 10.0 -24.0 M15.0 -24.0 L15.0 -28.0 15.0 -24.0 M20.0 -24.0 L20.0 -28.0 20.0 -24.0 M15.0 24.0 L15.0 28.0 15.0 24.0 M20.0 24.0 L20.0 28.0 20.0 24.0 M10.0 24.0 L10.0 28.0 10.0 24.0 M-15.0 -24.0 L-15.0 -28.0 -15.0 -24.0 M-10.0 -24.0 L-10.0 -28.0 -10.0 -24.0 M-5.0 -28.0 L-5.0 -24.0 -5.0 -28.0 M-20.0 -24.0 L-20.0 -28.0 -20.0 -24.0 M-10.0 24.0 L-10.0 28.0 -10.0 24.0 M-15.0 28.0 L-15.0 24.0 -15.0 28.0 M-20.0 28.0 L-20.0 24.0 -20.0 28.0 M-5.0 28.0 L-5.0 24.0 -5.0 28.0" fill="#302c1f" fill-rule="evenodd" stroke="none"/>
    <path d="M22.55 -35.45 Q22.1 -35.0 21.5 -35.0 20.85 -35.0 20.4 -35.45 20.0 -35.85 20.0 -36.5 20.0 -37.1 20.4 -37.55 20.85 -38.0 21.5 -38.0 22.1 -38.0 22.55 -37.55 23.0 -37.1 23.0 -36.5 23.0 -35.85 22.55 -35.45 M11.55 -1.05 L12.0 0.0 11.55 1.05 10.5 1.5 Q9.85 1.5 9.4 1.05 9.0 0.65 9.0 0.0 9.0 -0.6 9.4 -1.05 9.85 -1.5 10.5 -1.5 L11.55 -1.05 M15.5 -1.5 Q16.1 -1.5 16.55 -1.05 17.0 -0.6 17.0 0.0 17.0 0.65 16.55 1.05 16.1 1.5 15.5 1.5 14.85 1.5 14.4 1.05 14.0 0.65 14.0 0.0 14.0 -0.6 14.4 -1.05 14.85 -1.5 15.5 -1.5 M21.55 -1.05 L22.0 0.0 21.55 1.05 Q21.1 1.5 20.5 1.5 19.85 1.5 19.4 1.05 19.0 0.65 19.0 0.0 19.0 -0.6 19.4 -1.05 19.85 -1.5 20.5 -1.5 21.1 -1.5 21.55 -1.05 M21.5 35.0 Q22.1 35.0 22.55 35.45 23.0 35.9 23.0 36.5 23.0 37.15 22.55 37.55 22.1 38.0 21.5 38.0 20.85 38.0 20.4 37.55 20.0 37.15 20.0 36.5 20.0 35.9 20.4 35.45 20.85 35.0 21.5 35.0 M-21.5 -35.0 Q-22.15 -35.0 -22.6 -35.45 -23.0 -35.85 -23.0 -36.5 -23.0 -37.1 -22.6 -37.55 -22.15 -38.0 -21.5 -38.0 -20.9 -38.0 -20.45 -37.55 -20.0 -37.1 -20.0 -36.5 -20.0 -35.85 -20.45 -35.45 -20.9 -35.0 -21.5 -35.0 M-20.5 -1.5 Q-19.9 -1.5 -19.45 -1.05 -19.0 -0.6 -19.0 0.0 -19.0 0.65 -19.45 1.05 -19.9 1.5 -20.5 1.5 L-21.6 1.05 Q-22.0 0.65 -22.0 0.0 -22.0 -0.6 -21.6 -1.05 L-20.5 -1.5 M-10.5 -1.5 Q-9.9 -1.5 -9.45 -1.05 -9.0 -0.6 -9.0 0.0 -9.0 0.65 -9.45 1.05 -9.9 1.5 -10.5 1.5 -11.15 1.5 -11.6 1.05 -12.0 0.65 -12.0 0.0 -12.0 -0.6 -11.6 -1.05 -11.15 -1.5 -10.5 -1.5 M-14.45 -1.05 Q-14.0 -0.6 -14.0 0.0 -14.0 0.65 -14.45 1.05 -14.9 1.5 -15.5 1.5 -16.15 1.5 -16.6 1.05 -17.0 0.65 -17.0 0.0 -17.0 -0.6 -16.6 -1.05 -16.15 -1.5 -15.5 -1.5 -14.9 -1.5 -14.45 -1.05 M-20.45 35.45 Q-20.0 35.9 -20.0 36.5 -20.0 37.15 -20.45 37.55 -20.9 38.0 -21.5 38.0 -22.15 38.0 -22.6 37.55 -23.0 37.15 -23.0 36.5 -23.0 35.9 -22.6 35.45 -22.15 35.0 -21.5 35.0 -20.9 35.0 -20.45 35.45" fill="#333333" fill-rule="evenodd" stroke="none"/>
    <path d="M1.25 6.9 Q0.9 6.65 0.65 5.85 L0.15 4.25 Q-0.45 1.8 -0.3 0.6 L0.05 -2.1 0.25 -2.7 Q0.55 -3.85 0.45 -5.1 L-0.1 -6.95 -0.7 -7.6 Q0.95 -8.05 1.95 -7.1 3.3 -5.8 3.0 -2.1 L1.75 0.15 1.65 0.25 3.7 5.0 4.0 5.7 3.95 5.95 1.25 6.9 M-0.9 -7.55 L-0.95 -7.5 Q-1.2 -7.2 -1.2 -7.45 L-0.9 -7.55" fill="#222222" fill-rule="evenodd" stroke="none"/>
    <path d="M25.0 -14.5 L25.0 -2.0 6.0 -2.0 6.0 -10.0 -6.0 -10.0 -6.0 -2.0 -25.0 -2.0 -25.0 -14.5 Q-0.9 -21.2 25.0 -14.5 M25.0 2.0 L25.0 24.0 20.0 24.0 15.0 24.0 10.0 24.0 5.0 24.0 0.0 24.0 -5.0 24.0 -10.0 24.0 -15.0 24.0 -20.0 24.0 -25.0 24.0 -25.0 2.0 -6.0 2.0 -6.0 10.0 6.0 10.0 6.0 2.0 25.0 2.0" fill="#666a57" fill-rule="evenodd" stroke="none"/>
    <path d="M25.0 -24.0 L25.0 -14.5 Q-0.9 -21.2 -25.0 -14.5 L-25.0 -24.0 -20.0 -24.0 -15.0 -24.0 -10.0 -24.0 -5.0 -24.0 0.0 -24.0 5.0 -24.0 10.0 -24.0 15.0 -24.0 20.0 -24.0 25.0 -24.0" fill="#585b4a" fill-rule="evenodd" stroke="none"/>
    <path d="M25.0 -28.0 L25.0 -40.0 -25.0 -40.0 -25.0 -28.0 -25.0 -24.0 -25.0 -14.5 -25.0 -2.0 -25.0 2.0 -25.0 24.0 -25.0 28.0 -25.0 40.0 25.0 40.0 25.0 28.0 25.0 24.0 25.0 2.0 25.0 -2.0 25.0 -14.5 25.0 -24.0 25.0 -28.0 M6.0 -2.0 L6.0 -10.0 -6.0 -10.0 -6.0 -2.0 -6.0 2.0 -6.0 10.0 6.0 10.0 6.0 2.0 6.0 -2.0" fill="none" stroke="#000000" stroke-linecap="square" stroke-linejoin="miter-clip" stroke-miterlimit="3.0" stroke-width="2.0"/>
    <path d="M22.55 -35.45 Q22.1 -35.0 21.5 -35.0 20.85 -35.0 20.4 -35.45 20.0 -35.85 20.0 -36.5 20.0 -37.1 20.4 -37.55 20.85 -38.0 21.5 -38.0 22.1 -38.0 22.55 -37.55 23.0 -37.1 23.0 -36.5 23.0 -35.85 22.55 -35.45 M-18.0 -34.5 L-18.0 -36.5 18.0 -36.5 18.0 -34.5 M6.0 -2.0 L25.0 -2.0 M11.55 -1.05 L12.0 0.0 11.55 1.05 10.5 1.5 Q9.85 1.5 9.4 1.05 9.0 0.65 9.0 0.0 9.0 -0.6 9.4 -1.05 9.85 -1.5 10.5 -1.5 L11.55 -1.05 M15.5 -1.5 Q16.1 -1.5 16.55 -1.05 17.0 -0.6 17.0 0.0 17.0 0.65 16.55 1.05 16.1 1.5 15.5 1.5 14.85 1.5 14.4 1.05 14.0 0.65 14.0 0.0 14.0 -0.6 14.4 -1.05 14.85 -1.5 15.5 -1.5 M21.55 -1.05 L22.0 0.0 21.55 1.05 Q21.1 1.5 20.5 1.5 19.85 1.5 19.4 1.05 19.0 0.65 19.0 0.0 19.0 -0.6 19.4 -1.05 19.85 -1.5 20.5 -1.5 21.1 -1.5 21.55 -1.05 M18.0 34.5 L18.0 36.5 -18.0 36.5 -18.0 34.5 M21.5 35.0 Q22.1 35.0 22.55 35.45 23.0 35.9 23.0 36.5 23.0 37.15 22.55 37.55 22.1 38.0 21.5 38.0 20.85 38.0 20.4 37.55 20.0 37.15 20.0 36.5 20.0 35.9 20.4 35.45 20.85 35.0 21.5 35.0 M6.0 2.0 L25.0 2.0 M-21.5 -35.0 Q-22.15 -35.0 -22.6 -35.45 -23.0 -35.85 -23.0 -36.5 -23.0 -37.1 -22.6 -37.55 -22.15 -38.0 -21.5 -38.0 -20.9 -38.0 -20.45 -37.55 -20.0 -37.1 -20.0 -36.5 -20.0 -35.85 -20.45 -35.45 -20.9 -35.0 -21.5 -35.0 M-20.5 -1.5 Q-19.9 -1.5 -19.45 -1.05 -19.0 -0.6 -19.0 0.0 -19.0 0.65 -19.45 1.05 -19.9 1.5 -20.5 1.5 L-21.6 1.05 Q-22.0 0.65 -22.0 0.0 -22.0 -0.6 -21.6 -1.05 L-20.5 -1.5 M-10.5 -1.5 Q-9.9 -1.5 -9.45 -1.05 -9.0 -0.6 -9.0 0.0 -9.0 0.65 -9.45 1.05 -9.9 1.5 -10.5 1.5 -11.15 1.5 -11.6 1.05 -12.0 0.65 -12.0 0.0 -12.0 -0.6 -11.6 -1.05 -11.15 -1.5 -10.5 -1.5 M-14.45 -1.05 Q-14.0 -0.6 -14.0 0.0 -14.0 0.65 -14.45 1.05 -14.9 1.5 -15.5 1.5 -16.15 1.5 -16.6 1.05 -17.0 0.65 -17.0 0.0 -17.0 -0.6 -16.6 -1.05 -16.15 -1.5 -15.5 -1.5 -14.9 -1.5 -14.45 -1.05 M-6.0 -2.0 L-25.0 -2.0 M-20.45 35.45 Q-20.0 35.9 -20.0 36.5 -20.0 37.15 -20.45 37.55 -20.9 38.0 -21.5 38.0 -22.15 38.0 -22.6 37.55 -23.0 37.15 -23.0 36.5 -23.0 35.9 -22.6 35.45 -22.15 35.0 -21.5 35.0 -20.9 35.0 -20.45 35.45 M-25.0 2.0 L-6.0 2.0" fill="none" stroke="#000000" stroke-linecap="square" stroke-linejoin="miter-clip" stroke-miterlimit="3.0" stroke-width="1.0"/>
    <path d="M-25.0 -28.0 L-20.0 -28.0 -15.0 -28.0 -10.0 -28.0 -5.0 -28.0 0.0 -28.0 5.0 -28.0 10.0 -28.0 15.0 -28.0 20.0 -28.0 25.0 -28.0 M25.0 -24.0 L20.0 -24.0 15.0 -24.0 10.0 -24.0 5.0 -24.0 0.0 -24.0 -5.0 -24.0 -10.0 -24.0 -15.0 -24.0 -20.0 -24.0 -25.0 -24.0 M20.0 -28.0 L20.0 -24.0 M15.0 -28.0 L15.0 -24.0 M10.0 -28.0 L10.0 -24.0 M0.0 -28.0 L0.0 -24.0 M5.0 -28.0 L5.0 -24.0 M5.0 24.0 L0.0 24.0 0.0 28.0 5.0 28.0 5.0 24.0 10.0 24.0 15.0 24.0 20.0 24.0 25.0 24.0 M10.0 28.0 L15.0 28.0 15.0 24.0 M15.0 28.0 L20.0 28.0 20.0 24.0 M5.0 28.0 L10.0 28.0 10.0 24.0 M20.0 28.0 L25.0 28.0 M-10.0 -28.0 L-10.0 -24.0 M-15.0 -28.0 L-15.0 -24.0 M-20.0 -28.0 L-20.0 -24.0 M-5.0 -24.0 L-5.0 -28.0 M-25.0 24.0 L-20.0 24.0 -15.0 24.0 -10.0 24.0 -5.0 24.0 0.0 24.0 M0.0 28.0 L-5.0 28.0 -10.0 28.0 -15.0 28.0 -20.0 28.0 -25.0 28.0 M-10.0 28.0 L-10.0 24.0 M-5.0 24.0 L-5.0 28.0 M-20.0 24.0 L-20.0 28.0 M-15.0 24.0 L-15.0 28.0" fill="none" stroke="#000000" stroke-linecap="square" stroke-linejoin="miter-clip" stroke-miterlimit="3.0" stroke-width="1.5"/>
  </g>
</svg>
