<?xml version="1.0" encoding="UTF-8" standalone="no"?>
<svg xmlns:xlink="http://www.w3.org/1999/xlink" height="28.7px" width="33.6px" xmlns="http://www.w3.org/2000/svg">
  <g transform="matrix(1.0, 0.0, 0.0, 1.0, 18.05, 7.55)">
    <path d="M-15.05 16.75 L-1.95 -6.55 1.95 -6.55 12.05 16.2 12.45 16.75 14.55 16.75 14.55 20.15 -17.05 20.15 -17.05 16.75 -15.05 16.75 4.3 16.75 -15.05 16.75 M4.8 16.75 L12.45 16.75 4.8 16.75" fill="#e68080" fill-rule="evenodd" stroke="none"/>
    <path d="M-15.05 16.75 L-1.95 -6.55 1.95 -6.55 12.05 16.2 12.45 16.75 14.55 16.75 14.55 20.15 -17.05 20.15 -17.05 16.75 -15.05 16.75 4.3 16.75 M12.45 16.75 L4.8 16.75" fill="none" stroke="#00cc00" stroke-linecap="round" stroke-linejoin="round" stroke-width="2.0"/>
  </g>
</svg>
