<?xml version="1.0" encoding="UTF-8" standalone="no"?>
<svg xmlns:xlink="http://www.w3.org/1999/xlink" height="34.3px" width="17.4px" xmlns="http://www.w3.org/2000/svg">
  <g transform="matrix(1.0, 0.0, 0.0, 1.0, 12.6, 17.3)">
    <path d="M-5.1 -14.55 L-5.35 -14.6 -5.7 -14.15 Q-6.6 -13.45 -7.75 -11.75 -9.75 -8.85 -9.75 -7.8 L-10.9 -2.65 -10.15 -6.95 Q-8.85 -12.85 -7.15 -13.85 L-6.25 -14.6 Q-5.85 -15.3 -4.3 -15.3 -3.5 -15.3 -2.9 -14.35 -2.45 -13.6 -2.45 -13.15 -2.45 -12.25 -3.65 -11.6 L-6.55 -9.65 Q-8.0 -6.35 -8.6 -6.05 -9.55 -2.7 -9.55 0.35 L-9.2 4.6 Q-9.2 6.8 -8.1 9.3 -7.8 10.85 -6.15 12.2 L-4.1 13.7 Q-4.2 13.95 -4.55 13.95 -8.5 13.95 -10.15 8.75 L-10.1 8.55 Q-10.65 7.35 -10.65 6.2 L-10.75 2.25 Q-10.75 -1.85 -9.35 -6.05 -7.65 -11.5 -4.3 -14.3 L-4.5 -14.7 -5.1 -14.55" fill="#a40000" fill-rule="evenodd" stroke="none"/>
    <path d="M3.85 -0.35 Q3.85 6.0 1.45 10.45 -0.9 14.95 -4.25 14.95 -7.6 14.95 -10.0 10.45 -12.35 6.0 -12.35 -0.35 -12.35 -6.7 -10.0 -11.2 -7.6 -15.65 -4.25 -15.65 -0.9 -15.65 1.45 -11.2 3.85 -6.7 3.85 -0.35 M-10.15 8.75 Q-8.5 13.95 -4.55 13.95 -4.2 13.95 -4.1 13.7 L-6.15 12.2 Q-7.8 10.85 -8.1 9.3 -9.2 6.8 -9.2 4.6 L-9.55 0.35 Q-9.55 -2.7 -8.6 -6.05 -8.0 -6.35 -6.55 -9.65 L-3.65 -11.6 Q-2.45 -12.25 -2.45 -13.15 -2.45 -13.6 -2.9 -14.35 -3.5 -15.3 -4.3 -15.3 -5.85 -15.3 -6.25 -14.6 L-7.15 -13.85 Q-8.85 -12.85 -10.15 -6.95 L-10.9 -2.65 -11.1 -1.2 -11.2 -0.55 -11.25 -0.05 -11.3 0.4 -11.3 0.6 -11.35 2.25 Q-11.35 5.45 -10.25 8.85 L-10.15 8.8 -10.15 8.75" fill="#790000" fill-rule="evenodd" stroke="none"/>
    <path d="M-5.1 -14.55 L-4.5 -14.7 -4.3 -14.3 Q-7.65 -11.5 -9.35 -6.05 -10.75 -1.85 -10.75 2.25 L-10.65 6.2 Q-10.65 7.35 -10.1 8.55 L-10.15 8.75 -10.15 8.8 -10.25 8.85 Q-11.35 5.45 -11.35 2.25 L-11.3 0.6 -11.3 0.4 -11.25 -0.05 -11.2 -0.55 -11.1 -1.2 -10.9 -2.65 -9.75 -7.8 Q-9.75 -8.85 -7.75 -11.75 -6.6 -13.45 -5.7 -14.15 L-7.05 -12.35 -8.5 -9.85 -8.4 -9.6 -8.3 -9.6 -6.95 -11.35 -6.9 -11.45 Q-6.3 -12.7 -5.35 -13.7 L-4.95 -14.1 -5.0 -14.15 -4.9 -14.35 -5.1 -14.55" fill="#ec0000" fill-rule="evenodd" stroke="none"/>
    <path d="M-5.7 -14.15 L-5.35 -14.6 -5.1 -14.55 -4.9 -14.35 -5.0 -14.15 -4.95 -14.1 -5.35 -13.7 Q-6.3 -12.7 -6.9 -11.45 L-6.95 -11.35 -8.3 -9.6 -8.4 -9.6 -8.5 -9.85 -7.05 -12.35 -5.7 -14.15" fill="#ffa8a8" fill-rule="evenodd" stroke="none"/>
    <path d="M3.85 -0.35 Q3.85 6.0 1.45 10.45 -0.9 14.95 -4.25 14.95 -7.6 14.95 -10.0 10.45 -12.35 6.0 -12.35 -0.35 -12.35 -6.7 -10.0 -11.2 -7.6 -15.65 -4.25 -15.65 -0.9 -15.65 1.45 -11.2 3.85 -6.7 3.85 -0.35 Z" fill="none" stroke="#2d0600" stroke-linecap="round" stroke-linejoin="round" stroke-width="0.5"/>
    <path d="M3.05 -17.05 L3.3 -17.05 3.3 -17.0 3.05 -17.05 M3.6 -17.05 L4.55 -17.05 4.55 16.75 -1.2 16.75 -5.05 16.75 -5.05 13.55 -4.3 14.15 -4.2 15.75 -4.15 14.25 -4.0 14.4 -3.95 15.7 -4.2 15.75 -4.5 15.9 -4.4 16.2 -1.95 16.1 -1.2 16.75 -1.15 16.65 -1.1 16.45 -1.3 16.1 -0.85 16.1 -0.65 16.3 -0.4 16.1 -0.05 16.1 3.35 16.15 3.35 16.5 3.55 16.55 3.6 16.55 4.0 16.65 4.15 16.0 4.15 15.85 Q4.4 15.45 4.3 14.2 L4.2 -16.15 Q4.4 -16.8 3.85 -17.0 L3.8 -16.9 3.6 -16.95 3.6 -17.05 M-5.05 13.45 L-5.05 -17.05 -2.55 -17.0 -4.25 -16.95 Q-4.75 -16.9 -4.75 -16.45 L-4.25 -16.15 -4.55 -16.05 -4.55 -0.45 -4.45 7.75 -4.3 13.85 -5.05 13.45 M3.35 -15.85 L3.35 -15.6 3.15 -15.8 3.35 -15.85 M3.35 14.05 L3.35 15.45 3.1 15.45 3.35 14.05 M0.8 -15.8 L0.55 -15.75 0.55 -15.7 0.3 -15.55 0.25 -15.8 0.55 -15.8 0.8 -15.8 M0.65 -14.4 L2.25 -14.45 2.1 4.2 Q2.15 14.3 2.8 15.45 L0.55 15.5 0.75 15.25 0.55 14.95 Q0.85 14.3 0.85 12.6 L0.75 -1.6 0.8 -8.75 0.65 -14.4 M0.35 -12.05 L0.25 -6.75 0.25 -9.9 0.35 -12.05 M0.05 13.85 L0.0 14.85 0.3 15.5 -0.2 15.5 -0.15 15.25 0.05 13.85 M-1.7 -15.85 L-1.65 -15.8 -1.65 -15.75 -1.7 -15.85 M-1.25 14.05 L-1.05 15.5 -1.5 15.55 -1.25 14.05 M-3.75 11.35 Q-3.6 4.3 -3.6 -8.0 L-3.9 -16.05 -2.3 -15.9 Q-2.7 -14.95 -2.8 -10.35 L-2.85 -4.5 -2.8 4.95 -2.95 10.55 Q-3.35 11.0 -3.4 11.65 L-3.75 11.35 M-4.15 11.35 L-4.05 14.0 -4.15 13.9 -4.15 11.35 M-3.8 14.15 L-3.75 11.55 -3.35 11.85 -3.35 11.9 -3.3 11.9 -2.9 12.25 -2.7 13.55 -3.15 14.2 -3.25 14.55 -3.8 14.15 M-2.95 11.4 L-2.9 12.1 -3.25 11.8 -2.95 11.4 M-2.25 14.35 L-1.95 15.5 -2.75 14.9 -3.1 14.65 -3.05 14.65 -2.95 14.55 -2.55 13.95 -2.25 14.35 M-3.8 14.55 L-2.6 15.6 -3.85 15.7 -3.8 14.55 M-3.7 16.3 L-4.35 16.25 -4.05 16.35 -3.7 16.3" fill="#978e86" fill-rule="evenodd" stroke="none"/>
    <path d="M3.05 -17.05 L3.3 -17.0 3.35 -15.85 3.15 -15.8 2.55 -16.0 0.8 -15.8 0.55 -15.8 0.25 -15.8 0.3 -15.55 0.15 -15.25 0.4 -14.55 0.4 -14.45 0.35 -12.05 0.25 -9.9 0.25 -6.75 0.25 -3.05 Q0.45 9.4 0.05 13.85 L-0.15 15.25 Q0.25 12.0 0.2 -8.5 0.3 -14.0 -0.05 -15.4 L0.1 -16.15 Q0.1 -16.95 -1.2 -16.95 -1.95 -16.95 -1.95 -16.25 L-1.95 -16.15 -2.05 -16.2 -2.3 -15.9 -3.9 -16.05 -3.6 -8.0 Q-3.6 4.3 -3.75 11.35 L-3.9 11.2 -4.0 11.2 -4.0 11.35 -3.75 11.55 -3.8 14.15 Q-3.95 14.05 -4.05 14.0 L-4.15 11.35 -3.9 -11.4 Q-3.8 -16.15 -4.25 -16.15 L-4.75 -16.45 Q-4.75 -16.9 -4.25 -16.95 L-2.55 -17.0 2.35 -17.05 2.9 -17.05 3.05 -17.05 M3.35 15.45 L3.35 16.15 -0.05 16.1 -0.4 16.1 -0.65 16.3 -0.85 16.1 -1.3 16.1 -1.7 15.75 -1.5 15.55 -1.05 15.5 -1.25 14.05 -1.15 9.85 -1.15 3.95 -1.25 -3.5 -1.25 -4.9 -1.25 -5.4 Q-1.1 -11.65 -1.4 -14.3 L-1.4 -15.1 -1.5 -15.75 -0.7 -15.75 -0.6 -15.35 -0.85 -11.45 -0.85 -6.75 Q-0.9 15.85 -0.35 15.85 L-0.2 15.5 0.3 15.5 0.35 15.55 0.55 15.5 2.8 15.45 2.95 15.6 3.1 15.45 3.35 15.45 M3.6 16.55 L3.75 16.45 3.8 2.95 3.75 -0.9 3.7 -7.35 3.7 -10.25 3.85 -13.75 3.6 -15.15 3.6 -16.95 3.8 -16.9 3.85 -17.0 Q4.4 -16.8 4.2 -16.15 L4.3 14.2 Q4.4 15.45 4.15 15.85 L4.15 16.0 4.0 16.65 3.6 16.55 M-4.0 14.4 L-3.8 14.55 -3.85 15.7 -2.6 15.6 -1.95 16.1 -4.4 16.2 -4.5 15.9 -4.2 15.75 -3.95 15.7 -4.0 14.4 M-3.7 16.3 L-4.05 16.35 -4.35 16.25 -3.7 16.3" fill="#7d756c" fill-rule="evenodd" stroke="none"/>
    <path d="M3.3 -17.0 L3.3 -17.05 3.25 -17.25 3.6 -17.25 3.6 -17.05 3.6 -16.95 3.6 -15.15 3.7 -7.35 3.75 -0.9 3.8 2.95 3.75 16.45 3.6 16.55 3.55 16.55 3.35 16.5 3.35 16.15 3.35 15.45 3.35 14.05 3.35 -15.6 3.35 -15.85 3.3 -17.0 M-5.05 13.55 L-5.4 13.3 -5.35 13.3 -5.05 13.45 -4.3 13.85 -4.15 13.9 -4.05 14.0 Q-3.95 14.05 -3.8 14.15 L-3.25 14.55 -3.15 14.2 -2.7 13.55 -2.45 12.7 -2.9 12.25 -3.3 11.9 -3.35 11.9 -3.35 11.85 -3.75 11.55 -4.0 11.35 -4.0 11.2 -3.9 11.2 -3.75 11.35 -3.4 11.65 Q-3.35 11.0 -2.95 10.55 L-2.4 10.2 -2.35 10.35 -2.4 10.55 -2.95 11.4 -3.25 11.8 -2.9 12.1 -2.35 12.6 -2.25 12.7 -2.3 13.35 -2.55 13.95 -2.95 14.55 -3.05 14.65 -3.1 14.65 -2.75 14.9 -1.95 15.5 -1.7 15.75 -1.3 16.1 -1.1 16.45 -1.15 16.65 -1.2 16.75 -1.95 16.1 -2.6 15.6 -3.8 14.55 -4.0 14.4 -4.15 14.25 -4.3 14.15 -5.05 13.55" fill="#3d3734" fill-rule="evenodd" stroke="none"/>
    <path d="M3.15 -15.8 L3.35 -15.6 3.35 14.05 3.1 15.45 2.95 15.6 2.8 15.45 Q2.15 14.3 2.1 4.2 L2.25 -14.45 0.65 -14.4 0.4 -14.55 0.15 -15.25 0.3 -15.55 0.55 -15.7 0.55 -15.75 0.8 -15.8 2.55 -16.0 3.15 -15.8 M3.7 -7.35 L3.6 -15.15 3.85 -13.75 3.7 -10.25 3.7 -7.35 M-1.65 -15.75 L-1.65 -15.8 -1.55 -15.85 -1.5 -15.75 -1.4 -15.1 -1.4 -14.3 -1.25 -4.9 -1.25 -3.5 -1.15 3.95 -1.15 9.85 -1.25 14.05 -1.5 15.55 -1.7 15.75 -1.95 15.5 -2.25 14.35 -2.3 13.35 -2.25 12.7 -2.35 12.6 -2.4 10.55 -2.35 10.35 -2.4 10.2 -2.35 7.9 Q-2.35 -14.35 -1.65 -15.75" fill="#8c8079" fill-rule="evenodd" stroke="none"/>
    <path d="M0.4 -14.55 L0.65 -14.4 0.8 -8.75 0.75 -1.6 0.85 12.6 Q0.85 14.3 0.55 14.95 L0.75 15.25 0.55 15.5 0.35 15.55 0.3 15.5 0.0 14.85 0.05 13.85 Q0.45 9.4 0.25 -3.05 L0.25 -6.75 0.35 -12.05 0.4 -14.45 0.4 -14.55 M-4.3 13.85 L-4.45 7.75 -4.55 -0.45 -4.55 -16.05 -4.25 -16.15 Q-3.8 -16.15 -3.9 -11.4 L-4.15 11.35 -4.15 13.9 -4.3 13.85 M-4.3 14.15 L-4.15 14.25 -4.2 15.75 -4.3 14.15" fill="#c8c4bf" fill-rule="evenodd" stroke="none"/>
    <path d="M-1.95 -16.15 L-1.95 -16.25 Q-1.95 -16.95 -1.2 -16.95 0.1 -16.95 0.1 -16.15 L-0.05 -15.4 Q0.3 -14.0 0.2 -8.5 0.25 12.0 -0.15 15.25 L-0.2 15.5 -0.35 15.85 Q-0.9 15.85 -0.85 -6.75 L-0.85 -11.45 -0.6 -15.35 -0.7 -15.75 -1.5 -15.75 -1.55 -15.85 -1.65 -15.8 -1.7 -15.85 -1.95 -16.15" fill="#605953" fill-rule="evenodd" stroke="none"/>
    <path d="M-2.3 -15.9 L-2.05 -16.2 -1.95 -16.15 -1.7 -15.85 -1.65 -15.75 Q-2.35 -14.35 -2.35 7.9 L-2.4 10.2 -2.95 10.55 -2.8 4.95 -2.85 -4.5 -2.8 -10.35 Q-2.7 -14.95 -2.3 -15.9 M-1.4 -14.3 Q-1.1 -11.65 -1.25 -5.4 L-1.25 -4.9 -1.4 -14.3 M-2.9 12.1 L-2.95 11.4 -2.4 10.55 -2.35 12.6 -2.9 12.1 M-2.3 13.35 L-2.25 14.35 -2.55 13.95 -2.3 13.35 M-2.7 13.55 L-2.9 12.25 -2.45 12.7 -2.7 13.55" fill="#938882" fill-rule="evenodd" stroke="none"/>
    <path d="M3.3 -17.05 L3.05 -17.05 2.9 -17.05 M3.6 -17.05 L4.55 -17.05 4.55 16.75 -1.2 16.75 -5.05 16.75 -5.05 13.55 M-5.05 13.45 L-5.05 -17.05 -2.55 -17.0 2.35 -17.05" fill="none" stroke="#181614" stroke-linecap="round" stroke-linejoin="round" stroke-width="0.5"/>
  </g>
</svg>
