<?xml version="1.0" encoding="UTF-8" standalone="no"?>
<svg xmlns:xlink="http://www.w3.org/1999/xlink" height="52.1px" width="35.2px" xmlns="http://www.w3.org/2000/svg">
  <g transform="matrix(1.0, 0.0, 0.0, 1.0, 17.5, 50.85)">
    <path d="M15.05 -38.8 L16.25 -38.8 16.15 -32.1 15.65 -32.1 15.75 -27.35 4.05 -26.9 4.05 -5.65 6.2 -7.1 8.0 -4.85 Q9.45 -6.45 11.75 -6.6 15.85 -3.05 16.95 0.5 L-16.75 0.5 Q-15.35 -4.1 -9.9 -9.55 L-6.0 -5.55 Q-5.7 -5.65 -3.7 -6.9 L-3.05 -7.3 -3.05 -26.6 -16.1 -26.15 -16.25 -33.6 -14.6 -33.65 -14.55 -39.1 -15.8 -39.2 -15.6 -45.9 -3.05 -45.35 -3.05 -50.1 4.05 -50.1 4.05 -45.05 15.2 -44.55 15.05 -38.8" fill="#990000" fill-opacity="0.49803922" fill-rule="evenodd" stroke="none"/>
    <path d="M15.05 -38.8 L15.2 -44.55 4.05 -45.05 4.05 -50.1 -3.05 -50.1 -3.05 -45.35 -15.6 -45.9 -15.8 -39.2 -14.55 -39.1 -14.6 -33.65 -16.25 -33.6 -16.1 -26.15 -3.05 -26.6 -3.05 -7.3 -3.7 -6.9 Q-5.7 -5.65 -6.0 -5.55 L-9.9 -9.55 Q-15.35 -4.1 -16.75 0.5 L16.95 0.5 Q15.85 -3.05 11.75 -6.6 9.45 -6.45 8.0 -4.85 L6.2 -7.1 4.05 -5.65 4.05 -26.9 15.75 -27.35 15.65 -32.1 16.15 -32.1 16.25 -38.8 15.05 -38.8 Z" fill="none" stroke="#00cc00" stroke-linecap="round" stroke-linejoin="round" stroke-width="1.5"/>
  </g>
</svg>
