<?xml version="1.0" encoding="UTF-8" standalone="no"?>
<svg xmlns:xlink="http://www.w3.org/1999/xlink" height="30.3px" width="16.5px" xmlns="http://www.w3.org/2000/svg">
  <g transform="matrix(1.0, 0.0, 0.0, 1.0, 8.25, 15.05)">
    <path d="M-6.65 -2.1 L-5.9 -5.9 Q-4.7 -11.1 -3.1 -12.0 L-2.2 -12.65 Q-1.85 -13.3 -0.4 -13.3 0.4 -13.3 0.95 -12.45 L1.35 -11.4 Q1.35 -10.6 0.25 -10.0 -1.65 -9.1 -2.5 -8.3 -3.9 -5.4 -4.45 -5.1 -5.35 -2.15 -5.35 0.55 L-5.0 4.3 Q-5.0 6.2 -4.0 8.45 -3.7 9.8 -2.15 11.0 L-0.2 12.3 Q-0.3 12.55 -0.6 12.55 -4.35 12.55 -5.9 7.95 L-5.85 7.75 Q-6.4 6.7 -6.4 5.7 L-6.5 2.2 Q-6.5 -1.4 -5.15 -5.1 -3.55 -9.95 -0.4 -12.4 L-0.55 -12.75 -1.15 -12.6 -1.35 -12.65 -1.7 -12.25 -3.65 -10.15 Q-5.55 -7.6 -5.55 -6.65 L-6.65 -2.1" fill="#a40000" fill-rule="evenodd" stroke="none"/>
    <path d="M7.35 -0.1 Q7.35 5.5 5.05 9.45 2.85 13.4 -0.35 13.4 -3.5 13.4 -5.8 9.45 -8.0 5.5 -8.0 -0.1 -8.0 -5.7 -5.8 -9.65 -3.5 -13.6 -0.35 -13.6 2.85 -13.6 5.05 -9.65 7.35 -5.7 7.35 -0.1 M-5.9 7.95 Q-4.35 12.55 -0.6 12.55 -0.3 12.55 -0.2 12.3 L-2.15 11.0 Q-3.7 9.8 -4.0 8.45 -5.0 6.2 -5.0 4.3 L-5.35 0.55 Q-5.35 -2.15 -4.45 -5.1 -3.9 -5.4 -2.5 -8.3 -1.65 -9.1 0.25 -10.0 1.35 -10.6 1.35 -11.4 L0.95 -12.45 Q0.4 -13.3 -0.4 -13.3 -1.85 -13.3 -2.2 -12.65 L-3.1 -12.0 Q-4.7 -11.1 -5.9 -5.9 L-6.65 -2.1 -6.8 -0.85 -6.9 -0.25 -6.95 0.2 -7.0 0.55 -7.0 0.75 -7.05 2.2 Q-7.05 5.05 -6.0 8.05 L-5.9 8.0 -5.9 7.95" fill="#790000" fill-rule="evenodd" stroke="none"/>
    <path d="M-6.65 -2.1 L-5.55 -6.65 Q-5.55 -7.6 -3.65 -10.15 L-1.7 -12.25 -3.0 -10.7 -4.35 -8.45 -4.25 -8.25 -4.15 -8.25 -2.9 -9.8 -2.85 -9.9 -1.35 -11.85 -1.0 -12.2 -1.05 -12.25 -0.95 -12.45 -1.15 -12.6 -0.55 -12.75 -0.4 -12.4 Q-3.55 -9.95 -5.15 -5.1 -6.5 -1.4 -6.5 2.2 L-6.4 5.7 Q-6.4 6.7 -5.85 7.75 L-5.9 7.95 -5.9 8.0 -6.0 8.05 Q-7.05 5.05 -7.05 2.2 L-7.0 0.75 -7.0 0.55 -6.95 0.2 -6.9 -0.25 -6.8 -0.85 -6.65 -2.1" fill="#ec0000" fill-rule="evenodd" stroke="none"/>
    <path d="M-1.7 -12.25 L-1.35 -12.65 -1.15 -12.6 -0.95 -12.45 -1.05 -12.25 -1.0 -12.2 -1.35 -11.85 -2.85 -9.9 -2.9 -9.8 -4.15 -8.25 -4.25 -8.25 -4.35 -8.45 -3.0 -10.7 -1.7 -12.25" fill="#ffa8a8" fill-rule="evenodd" stroke="none"/>
    <path d="M7.35 -0.1 Q7.35 5.5 5.05 9.45 2.85 13.4 -0.35 13.4 -3.5 13.4 -5.8 9.45 -8.0 5.5 -8.0 -0.1 -8.0 -5.7 -5.8 -9.65 -3.5 -13.6 -0.35 -13.6 2.85 -13.6 5.05 -9.65 7.35 -5.7 7.35 -0.1 Z" fill="none" stroke="#2d0600" stroke-linecap="round" stroke-linejoin="round" stroke-width="0.5"/>
    <path d="M3.55 13.7 L3.75 12.45 3.7 13.3 4.0 13.9 3.5 13.9 3.55 13.7 M4.0 -13.5 L3.95 -13.7 4.2 -13.7 4.2 -13.65 4.0 -13.5 M6.65 -13.7 L6.85 -13.75 6.85 -13.55 6.65 -13.7 M0.5 -14.8 L-0.35 -14.75 -0.8 -14.3 -0.35 -14.05 -0.6 -13.95 -0.6 -0.2 -0.5 7.05 -0.4 12.45 Q-0.75 12.2 -1.1 12.1 L-1.1 -14.8 0.5 -14.8 M-0.25 10.25 L-0.15 12.55 -0.25 12.5 -0.25 10.25 M0.1 12.7 L0.15 10.4 0.5 10.7 0.55 10.7 0.95 11.05 1.15 12.2 0.7 12.75 0.6 13.05 0.1 12.7 M0.15 10.25 L0.3 -6.85 0.0 -13.95 1.5 -13.8 Q1.15 -12.95 1.05 -8.9 L1.0 -3.75 1.05 4.6 0.9 9.55 Q0.5 9.95 0.45 10.5 L0.15 10.25 M2.5 12.6 L2.7 13.9 2.25 13.95 2.5 12.6 M2.45 14.45 L2.9 14.45 3.1 14.6 3.3 14.45 3.65 14.45 6.85 14.45 6.85 14.8 7.1 14.8 7.5 14.9 7.6 14.35 7.6 14.2 Q7.85 13.85 7.75 12.75 L7.65 -14.05 Q7.85 -14.6 7.35 -14.8 L7.3 -14.7 7.1 -14.75 7.1 -14.8 7.35 -14.8 8.0 -14.8 8.0 15.0 2.55 15.0 -1.1 15.0 -1.1 12.2 -0.4 12.7 -0.3 14.1 -0.55 14.25 -0.45 14.5 1.85 14.45 2.55 15.0 2.6 14.9 2.65 14.75 2.45 14.45 M6.85 13.85 L6.65 13.85 6.85 12.6 6.85 13.85 M6.35 13.85 L4.2 13.9 4.4 13.7 4.2 13.4 Q4.5 12.85 4.5 11.35 L4.4 -1.2 4.45 -7.5 4.3 -12.5 5.8 -12.55 5.7 3.95 Q5.75 12.85 6.35 13.85 M0.95 10.9 L0.6 10.65 0.9 10.3 0.95 10.9 M1.55 12.9 L1.85 13.9 1.1 13.35 0.75 13.15 0.8 13.15 0.9 13.05 1.3 12.55 1.55 12.9 M1.25 14.0 L0.05 14.05 0.1 13.05 1.25 14.0 M-0.1 12.95 L-0.05 14.05 -0.3 14.1 -0.25 12.8 -0.1 12.95 M-0.45 14.55 L-0.15 14.65 0.2 14.6 -0.45 14.55" fill="#978e86" fill-rule="evenodd" stroke="none"/>
    <path d="M3.55 13.7 Q3.95 10.8 3.9 -7.3 4.0 -12.15 3.65 -13.35 L3.8 -14.05 Q3.8 -14.75 2.55 -14.75 1.85 -14.75 1.85 -14.1 L1.85 -14.05 1.75 -14.05 1.5 -13.8 0.0 -13.95 0.3 -6.85 0.15 10.25 0.0 10.1 -0.1 10.1 -0.1 10.25 0.15 10.4 0.1 12.7 -0.15 12.55 -0.25 10.25 0.0 -9.85 Q0.1 -14.05 -0.35 -14.05 L-0.8 -14.3 -0.35 -14.75 0.5 -14.8 5.9 -14.8 6.45 -14.8 6.6 -14.8 6.8 -14.8 6.85 -13.75 6.65 -13.7 6.1 -13.9 4.45 -13.7 4.2 -13.7 3.95 -13.7 4.0 -13.5 3.85 -13.25 4.05 -12.6 4.05 -12.55 4.0 -10.4 4.0 -9.7 3.95 -2.45 Q4.1 8.5 3.75 12.45 L3.55 13.7 M2.25 -13.7 L3.05 -13.7 3.1 -13.3 2.9 -9.9 2.9 -5.75 Q2.85 14.2 3.35 14.2 L3.5 13.9 4.0 13.9 4.0 13.95 4.2 13.9 6.35 13.85 6.5 14.0 6.65 13.85 6.85 13.85 6.85 14.45 3.65 14.45 3.3 14.45 3.1 14.6 2.9 14.45 2.45 14.45 2.1 14.1 2.25 13.95 2.7 13.9 2.5 12.6 2.6 8.9 2.6 3.7 2.5 -2.85 2.5 -4.1 2.5 -4.55 Q2.65 -10.05 2.35 -12.4 L2.35 -13.1 2.25 -13.7 M7.1 -14.75 L7.3 -14.7 7.35 -14.8 Q7.85 -14.6 7.65 -14.05 L7.75 12.75 Q7.85 13.85 7.6 14.2 L7.6 14.35 7.5 14.9 7.1 14.8 7.25 14.75 7.3 2.8 7.25 -0.55 7.2 -6.25 7.2 -8.8 7.35 -11.9 7.1 -13.15 7.1 -14.75 M1.85 14.45 L-0.45 14.5 -0.55 14.25 -0.3 14.1 -0.05 14.05 -0.1 12.95 0.1 13.05 0.05 14.05 1.25 14.0 1.85 14.45 M-0.45 14.55 L0.2 14.6 -0.15 14.65 -0.45 14.55" fill="#7d756c" fill-rule="evenodd" stroke="none"/>
    <path d="M6.85 -13.75 L6.8 -14.8 6.75 -15.0 7.1 -15.0 7.1 -14.8 7.1 -14.75 7.1 -13.15 7.2 -6.25 7.25 -0.55 7.3 2.8 7.25 14.75 7.1 14.8 6.85 14.8 6.85 14.45 6.85 13.85 6.85 12.6 6.85 -13.55 6.85 -13.75 M-0.15 12.55 L0.1 12.7 0.6 13.05 0.7 12.75 1.15 12.2 1.35 11.45 0.95 11.05 0.55 10.7 0.5 10.7 0.15 10.4 -0.1 10.25 -0.1 10.1 0.0 10.1 0.15 10.25 0.45 10.5 Q0.5 9.95 0.9 9.55 L1.4 9.2 1.45 9.35 1.4 9.55 0.9 10.3 0.6 10.65 0.95 10.9 1.45 11.35 1.55 11.45 1.5 12.0 1.3 12.55 0.9 13.05 0.8 13.15 0.75 13.15 1.1 13.35 1.85 13.9 2.1 14.1 2.45 14.45 2.65 14.75 2.6 14.9 2.55 15.0 1.85 14.45 1.25 14.0 0.1 13.05 -0.1 12.95 -0.25 12.8 -0.4 12.7 -1.1 12.2 -1.4 11.95 -1.35 11.95 -1.1 12.1 Q-0.75 12.2 -0.4 12.45 L-0.25 12.5 -0.15 12.55" fill="#3d3734" fill-rule="evenodd" stroke="none"/>
    <path d="M4.05 -12.6 L3.85 -13.25 4.0 -13.5 4.2 -13.65 4.2 -13.7 4.45 -13.7 6.1 -13.9 6.65 -13.7 6.85 -13.55 6.85 12.6 6.65 13.85 6.5 14.0 6.35 13.85 Q5.75 12.85 5.7 3.95 L5.8 -12.55 4.3 -12.5 4.05 -12.6 M2.15 -13.7 L2.2 -13.75 2.25 -13.7 2.35 -13.1 2.35 -12.4 2.5 -4.1 2.5 -2.85 2.6 3.7 2.6 8.9 2.5 12.6 2.25 13.95 2.1 14.1 1.85 13.9 1.55 12.9 1.5 12.0 1.55 11.45 1.45 11.35 1.4 9.55 1.45 9.35 1.4 9.2 1.45 7.2 Q1.45 -12.45 2.15 -13.7 M7.1 -13.15 L7.35 -11.9 7.2 -8.8 7.2 -6.25 7.1 -13.15" fill="#8c8079" fill-rule="evenodd" stroke="none"/>
    <path d="M3.75 12.45 Q4.1 8.5 3.95 -2.45 L4.0 -9.7 4.0 -10.4 4.05 -12.55 4.05 -12.6 4.3 -12.5 4.45 -7.5 4.4 -1.2 4.5 11.35 Q4.5 12.85 4.2 13.4 L4.4 13.7 4.2 13.9 4.0 13.95 4.0 13.9 3.7 13.3 3.75 12.45 M-0.35 -14.05 Q0.1 -14.05 0.0 -9.85 L-0.25 10.25 -0.25 12.5 -0.4 12.45 -0.5 7.05 -0.6 -0.2 -0.6 -13.95 -0.35 -14.05 M-0.3 14.1 L-0.4 12.7 -0.25 12.8 -0.3 14.1" fill="#c8c4bf" fill-rule="evenodd" stroke="none"/>
    <path d="M1.85 -14.05 L1.85 -14.1 Q1.85 -14.75 2.55 -14.75 3.8 -14.75 3.8 -14.05 L3.65 -13.35 Q4.0 -12.15 3.9 -7.3 3.95 10.8 3.55 13.7 L3.5 13.9 3.35 14.2 Q2.85 14.2 2.9 -5.75 L2.9 -9.9 3.1 -13.3 3.05 -13.7 2.25 -13.7 2.2 -13.75 2.15 -13.7 2.1 -13.75 1.85 -14.05" fill="#605953" fill-rule="evenodd" stroke="none"/>
    <path d="M1.5 -13.8 L1.75 -14.05 1.85 -14.05 2.1 -13.75 2.15 -13.7 Q1.45 -12.45 1.45 7.2 L1.4 9.2 0.9 9.55 1.05 4.6 1.0 -3.75 1.05 -8.9 Q1.15 -12.95 1.5 -13.8 M2.35 -12.4 Q2.65 -10.05 2.5 -4.55 L2.5 -4.1 2.35 -12.4 M0.95 10.9 L0.9 10.3 1.4 9.55 1.45 11.35 0.95 10.9 M1.5 12.0 L1.55 12.9 1.3 12.55 1.5 12.0 M1.15 12.2 L0.95 11.05 1.35 11.45 1.15 12.2" fill="#938882" fill-rule="evenodd" stroke="none"/>
    <path d="M6.8 -14.8 L6.6 -14.8 6.45 -14.8 M5.9 -14.8 L0.5 -14.8 -1.1 -14.8 -1.1 12.1 M7.35 -14.8 L7.1 -14.8 M7.35 -14.8 L8.0 -14.8 8.0 15.0 2.55 15.0 -1.1 15.0 -1.1 12.2" fill="none" stroke="#181614" stroke-linecap="round" stroke-linejoin="round" stroke-width="0.5"/>
  </g>
</svg>
