<?xml version="1.0" encoding="UTF-8" standalone="no"?>
<svg xmlns:xlink="http://www.w3.org/1999/xlink" height="30.3px" width="12.0px" xmlns="http://www.w3.org/2000/svg">
  <g transform="matrix(1.0, 0.0, 0.0, 1.0, 3.75, 15.05)">
    <path d="M-0.35 -10.65 Q0.3 -12.25 1.15 -13.45 L1.05 -13.8 0.7 -13.7 0.55 -13.7 0.35 -13.3 -0.85 -11.0 Q-2.0 -8.2 -2.0 -7.25 L-2.6 -3.35 -2.25 -6.4 Q-1.5 -12.05 -0.5 -13.0 L0.0 -13.7 Q0.25 -14.4 1.15 -14.4 1.6 -14.4 2.0 -13.5 L2.25 -12.35 Q2.25 -11.45 1.5 -10.85 L-0.15 -9.0 Q-0.95 -5.8 -1.35 -5.55 -1.85 -2.35 -1.85 0.55 L-1.7 4.65 Q-1.7 6.75 -1.05 9.15 -0.9 10.65 0.1 11.9 L1.3 13.35 1.0 13.6 Q-1.25 13.6 -2.25 8.6 L-2.2 8.45 -2.55 6.2 -2.6 2.4 Q-2.6 -1.55 -1.8 -5.55 L-0.35 -10.65" fill="#a40000" fill-rule="evenodd" stroke="none"/>
    <path d="M-2.25 8.6 Q-1.25 13.6 1.0 13.6 L1.3 13.35 0.1 11.9 Q-0.9 10.65 -1.05 9.15 -1.7 6.75 -1.7 4.65 L-1.85 0.55 Q-1.85 -2.35 -1.35 -5.55 -0.95 -5.8 -0.15 -9.0 L1.5 -10.85 Q2.25 -11.45 2.25 -12.35 L2.0 -13.5 Q1.6 -14.4 1.15 -14.4 0.25 -14.4 0.0 -13.7 L-0.5 -13.0 Q-1.5 -12.05 -2.25 -6.4 L-2.6 -3.35 -2.8 -0.9 -2.85 -0.25 -2.85 0.2 -2.9 0.6 -2.9 0.85 -2.95 2.4 Q-2.95 5.45 -2.3 8.75 L-2.25 8.7 -2.25 8.6 M5.9 -0.1 Q5.9 6.0 4.5 10.25 3.15 14.55 1.2 14.55 -0.75 14.55 -2.15 10.25 -3.5 6.0 -3.5 -0.1 -3.5 -6.2 -2.15 -10.45 -0.75 -14.75 1.2 -14.75 3.15 -14.75 4.5 -10.45 5.9 -6.2 5.9 -0.1" fill="#790000" fill-rule="evenodd" stroke="none"/>
    <path d="M-0.35 -10.65 L-0.35 -10.7 0.55 -12.9 0.75 -13.25 0.75 -13.3 0.8 -13.5 0.7 -13.7 1.05 -13.8 1.15 -13.45 Q0.3 -12.25 -0.35 -10.65 L-1.8 -5.55 Q-2.6 -1.55 -2.6 2.4 L-2.55 6.2 -2.2 8.45 -2.25 8.6 -2.25 8.7 -2.3 8.75 Q-2.95 5.45 -2.95 2.4 L-2.9 0.85 -2.9 0.6 -2.85 0.2 -2.85 -0.25 -2.8 -0.9 -2.6 -3.35 -2.0 -7.25 Q-2.0 -8.2 -0.85 -11.0 L0.35 -13.3 -0.45 -11.55 -1.25 -9.2 -1.2 -8.95 -1.15 -8.95 -0.35 -10.65" fill="#ec0000" fill-rule="evenodd" stroke="none"/>
    <path d="M0.7 -13.7 L0.8 -13.5 0.75 -13.3 0.75 -13.25 0.55 -12.9 -0.35 -10.7 -0.35 -10.65 -1.15 -8.95 -1.2 -8.95 -1.25 -9.2 -0.45 -11.55 0.35 -13.3 0.55 -13.7 0.7 -13.7" fill="#ffa8a8" fill-rule="evenodd" stroke="none"/>
    <path d="M5.9 -0.1 Q5.9 6.0 4.5 10.25 3.15 14.55 1.2 14.55 -0.75 14.55 -2.15 10.25 -3.5 6.0 -3.5 -0.1 -3.5 -6.2 -2.15 -10.45 -0.75 -14.75 1.2 -14.75 3.15 -14.75 4.5 -10.45 5.9 -6.2 5.9 -0.1 Z" fill="none" stroke="#2d0600" stroke-linecap="round" stroke-linejoin="round" stroke-width="0.5"/>
    <path d="M3.55 13.7 L3.75 12.45 3.7 13.3 3.95 13.9 3.5 13.9 3.55 13.7 M3.95 -7.8 L3.95 -8.5 4.0 -10.4 3.95 -7.8 M3.95 -13.5 L3.95 -13.7 4.2 -13.7 4.2 -13.65 3.95 -13.5 M6.65 -13.7 L6.85 -13.75 6.85 -13.55 6.65 -13.7 M0.1 -14.8 L-0.3 -14.75 Q-0.8 -14.7 -0.8 -14.3 -0.8 -14.15 -0.3 -14.05 L-0.6 -13.95 -0.6 -0.2 -0.5 7.05 -0.35 12.45 -1.05 12.1 -1.05 -14.8 0.1 -14.8 M-0.2 10.25 L-0.15 12.55 -0.2 12.5 -0.2 10.25 M0.1 12.7 L0.15 10.4 0.55 10.7 0.6 10.7 0.95 11.05 1.15 12.2 0.7 12.75 0.65 13.05 0.1 12.7 M0.15 10.25 L0.3 -6.85 0.0 -13.95 1.5 -13.8 Q1.15 -12.95 1.05 -8.9 L1.0 -3.75 1.05 4.6 0.9 9.55 Q0.55 9.95 0.5 10.5 L0.15 10.25 M2.5 12.6 L2.7 13.9 2.3 13.95 2.5 12.6 M2.45 14.45 L2.9 14.45 3.1 14.6 3.3 14.45 3.65 14.45 6.85 14.45 6.85 14.8 7.1 14.8 7.45 14.9 7.6 14.35 7.6 14.2 Q7.85 13.85 7.75 12.75 L7.65 -14.05 Q7.85 -14.6 7.3 -14.8 L7.25 -14.7 7.1 -14.75 7.1 -14.8 7.3 -14.8 8.0 -14.8 8.0 15.0 2.55 15.0 -1.05 15.0 -1.05 12.2 -0.35 12.7 -0.25 14.1 -0.55 14.25 -0.45 14.5 1.85 14.45 2.55 15.0 2.6 14.9 2.65 14.75 2.45 14.45 M6.85 13.85 L6.6 13.85 6.85 12.6 6.85 13.85 M6.35 13.85 L4.2 13.9 4.4 13.7 4.2 13.4 Q4.5 12.85 4.5 11.35 L4.4 -1.2 4.45 -7.5 4.3 -12.5 5.8 -12.55 5.65 3.95 Q5.7 12.85 6.35 13.85 M0.95 10.9 L0.65 10.65 0.9 10.3 0.95 10.9 M1.55 12.9 L1.85 13.9 1.1 13.35 0.75 13.15 0.8 13.15 0.9 13.05 1.3 12.55 1.55 12.9 M1.25 14.0 L0.05 14.05 0.1 13.05 1.25 14.0 M-0.1 12.95 L-0.05 14.05 -0.25 14.1 -0.2 12.8 -0.1 12.95 M-0.4 14.55 L-0.15 14.65 0.2 14.6 -0.4 14.55" fill="#978e86" fill-rule="evenodd" stroke="none"/>
    <path d="M1.85 -14.05 L1.75 -14.05 1.5 -13.8 0.0 -13.95 0.3 -6.85 0.15 10.25 0.0 10.1 -0.1 10.1 -0.1 10.25 0.15 10.4 0.1 12.7 -0.15 12.55 -0.2 10.25 0.0 -9.85 Q0.1 -14.05 -0.3 -14.05 -0.8 -14.15 -0.8 -14.3 -0.8 -14.7 -0.3 -14.75 L0.1 -14.8 5.9 -14.8 6.45 -14.8 6.55 -14.8 6.8 -14.8 6.85 -13.75 6.65 -13.7 6.1 -13.9 4.45 -13.7 4.2 -13.7 3.95 -13.7 3.95 -13.5 3.85 -13.25 4.05 -12.6 4.05 -12.55 4.0 -10.4 3.95 -8.5 3.95 -7.8 3.95 -2.45 Q4.1 8.5 3.75 12.45 L3.55 13.7 Q3.95 10.8 3.9 -7.3 3.95 -12.15 3.65 -13.35 L3.8 -14.05 Q3.8 -14.75 2.55 -14.75 1.85 -14.75 1.85 -14.1 L1.85 -14.05 M2.35 -12.4 L2.35 -13.1 2.3 -13.7 3.05 -13.7 3.15 -13.3 Q2.95 -12.45 2.9 -9.9 L2.9 -5.75 Q2.85 14.2 3.35 14.2 L3.5 13.9 3.95 13.9 4.0 13.95 4.2 13.9 6.35 13.85 6.45 14.0 6.6 13.85 6.85 13.85 6.85 14.45 3.65 14.45 3.3 14.45 3.1 14.6 2.9 14.45 2.45 14.45 2.1 14.1 2.3 13.95 2.7 13.9 2.5 12.6 2.6 8.9 2.6 3.7 2.5 -2.85 2.5 -4.1 2.5 -4.55 Q2.65 -10.05 2.35 -12.4 M7.1 -14.75 L7.25 -14.7 7.3 -14.8 Q7.85 -14.6 7.65 -14.05 L7.75 12.75 Q7.85 13.85 7.6 14.2 L7.6 14.35 7.45 14.9 7.1 14.8 7.25 14.75 7.25 2.8 7.25 -0.55 7.2 -6.25 7.2 -8.8 7.3 -11.9 7.1 -13.15 7.1 -14.75 M1.85 14.45 L-0.45 14.5 -0.55 14.25 -0.25 14.1 -0.05 14.05 -0.1 12.95 0.1 13.05 0.05 14.05 1.25 14.0 1.85 14.45 M-0.4 14.55 L0.2 14.6 -0.15 14.65 -0.4 14.55" fill="#7d756c" fill-rule="evenodd" stroke="none"/>
    <path d="M6.85 -13.75 L6.8 -14.8 6.75 -15.0 7.1 -15.0 7.1 -14.8 7.1 -14.75 7.1 -13.15 7.2 -6.25 7.25 -0.55 7.25 2.8 7.25 14.75 7.1 14.8 6.85 14.8 6.85 14.45 6.85 13.85 6.85 12.6 6.85 -13.55 6.85 -13.75 M-0.15 12.55 L0.1 12.7 0.65 13.05 0.7 12.75 1.15 12.2 1.4 11.45 0.95 11.05 0.6 10.7 0.55 10.7 0.15 10.4 -0.1 10.25 -0.1 10.1 0.0 10.1 0.15 10.25 0.5 10.5 Q0.55 9.95 0.9 9.55 L1.45 9.2 1.5 9.35 1.45 9.55 0.9 10.3 0.65 10.65 0.95 10.9 1.5 11.35 1.55 11.45 1.5 12.0 1.3 12.55 0.9 13.05 0.8 13.15 0.75 13.15 1.1 13.35 1.85 13.9 2.1 14.1 2.45 14.45 2.65 14.75 2.6 14.9 2.55 15.0 1.85 14.45 1.25 14.0 0.1 13.05 -0.1 12.95 -0.2 12.8 -0.35 12.7 -1.05 12.2 -1.4 11.95 -1.35 11.95 -1.05 12.1 -0.35 12.45 -0.2 12.5 -0.15 12.55" fill="#3d3734" fill-rule="evenodd" stroke="none"/>
    <path d="M4.05 -12.6 L3.85 -13.25 3.95 -13.5 4.2 -13.65 4.2 -13.7 4.45 -13.7 6.1 -13.9 6.65 -13.7 6.85 -13.55 6.85 12.6 6.6 13.85 6.45 14.0 6.35 13.85 Q5.7 12.85 5.65 3.95 L5.8 -12.55 4.3 -12.5 4.05 -12.6 M1.45 9.2 L1.5 7.2 Q1.5 -12.45 2.15 -13.7 L2.25 -13.75 2.3 -13.7 2.35 -13.1 2.35 -12.4 2.5 -4.1 2.5 -2.85 2.6 3.7 2.6 8.9 2.5 12.6 2.3 13.95 2.1 14.1 1.85 13.9 1.55 12.9 1.5 12.0 1.55 11.45 1.5 11.35 1.45 9.55 1.5 9.35 1.45 9.2 M7.1 -13.15 L7.3 -11.9 7.2 -8.8 7.2 -6.25 7.1 -13.15" fill="#8c8079" fill-rule="evenodd" stroke="none"/>
    <path d="M3.75 12.45 Q4.1 8.5 3.95 -2.45 L3.95 -7.8 4.0 -10.4 4.05 -12.55 4.05 -12.6 4.3 -12.5 4.45 -7.5 4.4 -1.2 4.5 11.35 Q4.5 12.85 4.2 13.4 L4.4 13.7 4.2 13.9 4.0 13.95 3.95 13.9 3.7 13.3 3.75 12.45 M-0.3 -14.05 Q0.1 -14.05 0.0 -9.85 L-0.2 10.25 -0.2 12.5 -0.35 12.45 -0.5 7.05 -0.6 -0.2 -0.6 -13.95 -0.3 -14.05 M-0.25 14.1 L-0.35 12.7 -0.2 12.8 -0.25 14.1" fill="#c8c4bf" fill-rule="evenodd" stroke="none"/>
    <path d="M1.85 -14.05 L1.85 -14.1 Q1.85 -14.75 2.55 -14.75 3.8 -14.75 3.8 -14.05 L3.65 -13.35 Q3.95 -12.15 3.9 -7.3 3.95 10.8 3.55 13.7 L3.5 13.9 3.35 14.2 Q2.85 14.2 2.9 -5.75 L2.9 -9.9 Q2.95 -12.45 3.15 -13.3 L3.05 -13.7 2.3 -13.7 2.25 -13.75 2.15 -13.7 2.1 -13.75 1.85 -14.05" fill="#605953" fill-rule="evenodd" stroke="none"/>
    <path d="M1.5 -13.8 L1.75 -14.05 1.85 -14.05 2.1 -13.75 2.15 -13.7 Q1.5 -12.45 1.5 7.2 L1.45 9.2 0.9 9.55 1.05 4.6 1.0 -3.75 1.05 -8.9 Q1.15 -12.95 1.5 -13.8 M2.35 -12.4 Q2.65 -10.05 2.5 -4.55 L2.5 -4.1 2.35 -12.4 M0.95 10.9 L0.9 10.3 1.45 9.55 1.5 11.35 0.95 10.9 M1.5 12.0 L1.55 12.9 1.3 12.55 1.5 12.0 M1.15 12.2 L0.95 11.05 1.4 11.45 1.15 12.2" fill="#938882" fill-rule="evenodd" stroke="none"/>
    <path d="M6.8 -14.8 L6.55 -14.8 6.45 -14.8 M5.9 -14.8 L0.1 -14.8 -1.05 -14.8 -1.05 12.1 M7.1 -14.8 L7.3 -14.8 8.0 -14.8 8.0 15.0 2.55 15.0 -1.05 15.0 -1.05 12.2" fill="none" stroke="#181614" stroke-linecap="round" stroke-linejoin="round" stroke-width="0.5"/>
  </g>
</svg>
