<?xml version="1.0" encoding="UTF-8" standalone="no"?>
<svg xmlns:xlink="http://www.w3.org/1999/xlink" height="30.0px" width="30.0px" xmlns="http://www.w3.org/2000/svg">
  <g transform="matrix(1.0, 0.0, 0.0, 1.0, 15.0, 15.0)">
    <path d="M15.0 -12.9 L9.0 -12.9 -0.15 -12.9 -7.35 -12.9 Q-10.95 -12.3 -11.25 -11.25 L-11.1 -11.25 -10.8 -10.95 -10.5 -10.8 -5.7 -10.2 -8.7 -9.6 -0.15 -9.15 9.0 -9.0 15.0 -8.85 15.0 -8.4 -9.45 -8.4 -12.15 -8.1 -13.5 -8.1 -13.5 -13.65 15.0 -13.65 15.0 -12.9 M-8.4 -1.65 L-8.55 0.75 Q-8.55 4.5 -5.25 4.5 -2.25 4.5 -3.3 4.35 L15.0 4.35 15.0 6.0 -11.4 6.0 -11.4 -6.75 -9.45 -6.9 15.0 -6.9 15.0 -4.95 -6.15 -4.95 -7.95 -4.65 Q-9.0 -5.55 -9.0 -2.85 L-8.85 -1.5 -8.4 -1.65 M15.0 7.35 L15.0 8.1 12.9 8.1 9.0 8.1 Q3.75 8.1 1.65 8.25 L-0.15 8.4 -5.1 8.85 -8.7 8.85 -9.3 9.15 Q-10.05 9.45 -10.35 10.05 L-11.1 10.35 Q-10.5 11.25 -7.5 11.25 L-9.75 11.85 -0.15 12.9 1.65 12.9 15.0 12.9 15.0 13.5 -13.5 13.35 -13.5 7.35 15.0 7.35" fill="#564732" fill-rule="evenodd" stroke="none"/>
    <path d="M-11.25 -11.25 Q-10.95 -12.3 -7.35 -12.9 L-0.15 -12.9 9.0 -12.9 15.0 -12.9 15.0 -12.45 -8.4 -12.45 Q-10.5 -12.45 -10.5 -10.8 L-10.8 -10.95 -11.1 -11.25 -10.95 -11.25 -10.65 -11.55 -11.25 -11.25 M-9.0 -10.8 L-8.85 -11.1 -1.8 -10.95 -7.8 -10.95 Q-7.8 -10.65 -8.25 -10.65 L-9.0 -10.8 M15.0 -4.2 L0.45 -4.2 -0.15 -4.2 -7.95 -4.65 -6.15 -4.95 15.0 -4.95 15.0 -4.2 M-2.4 -11.25 L-10.05 -11.25 -10.2 -11.4 -2.4 -11.25 M15.0 8.85 L15.0 9.3 -9.3 9.3 -9.6 9.75 Q-10.2 10.35 -10.35 10.05 -10.05 9.45 -9.3 9.15 L-8.7 8.85 -5.1 8.85 15.0 8.85 M15.0 9.9 L15.0 10.05 -8.7 10.05 -9.15 10.35 -9.75 10.2 -9.3 10.05 -8.85 9.75 15.0 9.9" fill="#957957" fill-rule="evenodd" stroke="none"/>
    <path d="M15.0 -13.65 L-13.5 -13.65 -13.5 -8.1 -12.15 -8.1 -9.45 -8.4 15.0 -8.4 15.0 -6.9 -9.45 -6.9 -11.4 -6.75 -11.4 6.0 15.0 6.0 15.0 7.35 -13.5 7.35 -13.5 13.35 15.0 13.5 15.0 15.0 -14.25 14.85 -14.7 14.7 -15.0 14.1 -15.0 6.6 -14.7 6.3 Q-14.55 6.0 -14.25 6.0 L-12.9 6.0 -12.9 -6.6 -14.25 -6.6 -14.7 -6.75 -15.0 -7.35 -15.0 -14.4 -14.7 -14.85 -14.25 -15.0 15.0 -15.0 15.0 -13.65" fill="#423828" fill-rule="evenodd" stroke="none"/>
    <path d="M-6.75 -2.85 L-5.85 -3.15 -5.25 -3.15 -6.75 -2.85 M-6.15 3.0 L-7.05 3.15 Q-7.35 -0.45 -6.75 -2.1 L-6.0 -2.1 Q-6.0 -1.5 -5.1 -1.65 L-5.1 -2.25 -4.35 -2.4 -4.8 -2.25 -0.15 -2.4 9.0 -2.4 15.0 -2.4 15.0 -0.6 14.7 -0.15 15.0 0.3 15.0 2.7 5.1 2.7 5.25 1.35 5.1 -0.45 5.55 -0.15 Q6.6 0.75 7.5 0.9 L7.5 -0.3 Q7.5 -0.9 5.7 -0.9 L3.75 -0.75 4.05 -0.6 Q4.05 0.75 3.15 0.75 3.0 -1.65 2.1 -1.65 L2.55 -1.8 0.15 -2.1 -0.15 -1.95 -1.5 -1.8 -1.35 0.45 -0.9 0.9 Q-0.6 1.35 -0.15 1.2 0.0 0.0 0.3 -0.6 L0.6 -0.9 Q3.15 1.65 4.65 1.8 L5.1 2.7 -6.0 2.7 -5.1 2.85 -6.45 2.85 -6.15 3.0 M7.5 0.9 L9.0 1.2 9.45 1.05 9.6 0.0 Q9.75 -1.05 10.2 -1.2 11.1 -0.6 11.1 -0.75 L10.5 -1.8 9.0 -0.75 8.25 -0.3 7.5 0.9 M13.2 -1.8 Q12.6 -1.8 12.45 -0.75 12.3 0.0 12.45 0.6 L12.75 0.15 Q13.35 -0.9 13.8 -0.9 13.8 -1.65 13.2 -1.8 M11.25 1.05 Q10.8 0.9 11.7 -0.75 10.5 0.3 10.05 0.3 L11.1 1.65 12.45 0.75 Q11.25 0.0 11.25 1.05 M-6.45 1.2 L-5.4 1.95 -5.7 1.35 Q-6.0 0.75 -6.45 1.2" fill="#818b96" fill-rule="evenodd" stroke="none"/>
    <path d="M-1.35 0.45 L-0.75 -1.2 -0.75 -1.35 -0.45 -1.65 2.1 -1.65 Q3.0 -1.65 3.15 0.75 4.05 0.75 4.05 -0.6 L3.75 -0.75 5.7 -0.9 Q7.5 -0.9 7.5 -0.3 L7.5 0.9 Q6.6 0.75 5.55 -0.15 L5.1 -0.45 5.25 1.35 5.1 2.7 4.65 1.8 Q3.15 1.65 0.6 -0.9 L0.3 -0.6 Q0.0 0.0 -0.15 1.2 -0.6 1.35 -0.9 0.9 L-1.35 0.45 M7.5 0.9 L8.25 -0.3 9.0 -0.75 10.5 -1.8 11.1 -0.75 Q11.1 -0.6 10.2 -1.2 9.75 -1.05 9.6 0.0 L9.45 1.05 9.0 1.2 7.5 0.9 M13.2 -1.8 Q13.8 -1.65 13.8 -0.9 13.35 -0.9 12.75 0.15 L12.45 0.6 Q12.3 0.0 12.45 -0.75 12.6 -1.8 13.2 -1.8 M15.0 -0.6 L15.0 0.3 14.7 -0.15 15.0 -0.6 M11.25 1.05 Q11.25 0.0 12.45 0.75 L11.1 1.65 10.05 0.3 Q10.5 0.3 11.7 -0.75 10.8 0.9 11.25 1.05" fill="#4d525b" fill-rule="evenodd" stroke="none"/>
    <path d="M2.1 -1.65 L-0.45 -1.65 -0.75 -1.35 -0.75 -1.2 -1.35 0.45 -1.5 -1.8 -0.15 -1.95 0.15 -2.1 2.55 -1.8 2.1 -1.65" fill="#747b89" fill-rule="evenodd" stroke="none"/>
    <path d="M15.0 -8.85 L9.0 -9.0 -0.15 -9.15 -8.7 -9.6 -5.7 -10.2 -0.15 -10.35 9.0 -10.5 15.0 -10.5 15.0 -8.85 M15.0 11.25 L15.0 12.9 1.65 12.9 -0.15 12.9 -9.75 11.85 -7.5 11.25 15.0 11.25" fill="#625039" fill-rule="evenodd" stroke="none"/>
    <path d="M-5.25 -3.15 L-5.85 -3.15 -6.75 -2.85 -7.2 -2.55 -7.5 -2.4 Q-7.8 -2.1 -7.8 -0.45 -7.8 2.1 -7.5 3.15 L-7.05 3.15 -6.15 3.0 -5.55 3.45 15.0 3.45 15.0 4.35 -3.3 4.35 Q-2.25 4.5 -5.25 4.5 -8.55 4.5 -8.55 0.75 L-8.4 -1.65 Q-7.95 -3.0 -6.9 -3.45 -5.4 -4.2 -0.15 -4.2 L0.45 -4.2 15.0 -4.2 15.0 -3.45 -3.15 -3.45 -5.25 -3.15 M-6.0 -2.1 L-5.1 -2.25 -5.1 -1.65 Q-6.0 -1.5 -6.0 -2.1 M-6.45 1.2 Q-6.0 0.75 -5.7 1.35 L-5.4 1.95 -6.45 1.2" fill="#32373d" fill-rule="evenodd" stroke="none"/>
    <path d="M-4.35 -2.4 L-1.8 -2.85 15.0 -2.85 15.0 -2.4 9.0 -2.4 -0.15 -2.4 -4.8 -2.25 -4.35 -2.4 M15.0 2.7 L15.0 3.0 -3.6 3.0 -5.1 2.85 -6.0 2.7 5.1 2.7 15.0 2.7" fill="#b5b9c1" fill-rule="evenodd" stroke="none"/>
    <path d="M-5.25 -3.15 L-3.15 -3.45 15.0 -3.45 15.0 -2.85 -1.8 -2.85 -4.35 -2.4 -5.1 -2.25 -6.0 -2.1 -6.75 -2.1 -7.2 -2.55 -6.75 -2.85 -5.25 -3.15 M15.0 3.45 L-5.55 3.45 -6.15 3.0 -6.45 2.85 -5.1 2.85 -3.6 3.0 15.0 3.0 15.0 3.45" fill="#515762" fill-rule="evenodd" stroke="none"/>
    <path d="M-11.25 -11.25 L-10.65 -11.55 -10.95 -11.25 -11.1 -11.25 -11.25 -11.25 M-10.5 -10.8 Q-10.5 -12.45 -8.4 -12.45 L15.0 -12.45 15.0 -10.5 9.0 -10.5 -0.15 -10.35 -5.7 -10.2 -10.5 -10.8 M-9.0 -10.8 L-8.25 -10.65 Q-7.8 -10.65 -7.8 -10.95 L-1.8 -10.95 -8.85 -11.1 -9.0 -10.8 M-0.15 -4.2 Q-5.4 -4.2 -6.9 -3.45 -7.95 -3.0 -8.4 -1.65 L-8.85 -1.5 -9.0 -2.85 Q-9.0 -5.55 -7.95 -4.65 L-0.15 -4.2 M-2.4 -11.25 L-10.2 -11.4 -10.05 -11.25 -2.4 -11.25 M15.0 8.1 L15.0 8.85 -5.1 8.85 -0.15 8.4 1.65 8.25 Q3.75 8.1 9.0 8.1 L12.9 8.1 15.0 8.1 M15.0 9.3 L15.0 9.9 -8.85 9.75 -9.3 10.05 -9.75 10.2 -9.15 10.35 -8.7 10.05 15.0 10.05 15.0 11.25 -7.5 11.25 Q-10.5 11.25 -11.1 10.35 L-10.35 10.05 Q-10.2 10.35 -9.6 9.75 L-9.3 9.3 15.0 9.3" fill="#715c42" fill-rule="evenodd" stroke="none"/>
    <path d="M-7.05 3.15 L-7.5 3.15 Q-7.8 2.1 -7.8 -0.45 -7.8 -2.1 -7.5 -2.4 L-7.2 -2.55 -6.75 -2.1 Q-7.35 -0.45 -7.05 3.15" fill="#a0a6af" fill-rule="evenodd" stroke="none"/>
  </g>
</svg>
