<?xml version="1.0" encoding="UTF-8" standalone="no"?>
<svg xmlns:xlink="http://www.w3.org/1999/xlink" height="15.55px" width="17.75px" xmlns="http://www.w3.org/2000/svg">
  <g transform="matrix(1.0, 0.0, 0.0, 1.0, 6.8, 7.35)">
    <path d="M6.4 -5.85 Q-0.55 -4.45 -6.3 -5.85 L-6.3 -6.05 Q0.05 -7.6 6.4 -6.05 L6.4 -5.85" fill="#cccccc" fill-rule="evenodd" stroke="none"/>
    <path d="M6.3 -1.05 L6.3 -2.65 6.3 -1.05 6.1 2.6 Q7.2 3.1 8.3 2.2 9.05 0.8 8.35 -0.6 7.15 -1.6 6.3 -1.05 M6.05 3.7 L6.1 2.6 6.05 3.7 5.55 5.6 Q2.4 7.95 -0.8 7.7 -4.05 7.45 -5.15 5.55 -6.35 2.5 -6.3 -5.85 -0.55 -4.45 6.4 -5.85 L6.3 -2.65 Q8.6 -3.4 9.95 -1.25 11.25 0.9 9.2 3.55 7.3 5.05 6.05 3.7" fill="url(#gradient0)" fill-rule="evenodd" stroke="none"/>
    <path d="M6.3 -2.65 L6.3 -1.05 Q7.15 -1.6 8.35 -0.6 9.05 0.8 8.3 2.2 7.2 3.1 6.1 2.6 L6.05 3.7 Q7.3 5.05 9.2 3.55 11.25 0.9 9.95 -1.25 8.6 -3.4 6.3 -2.65 L6.4 -5.85 Q-0.55 -4.45 -6.3 -5.85 -6.35 2.5 -5.15 5.55 -4.05 7.45 -0.8 7.7 2.4 7.95 5.55 5.6 L6.05 3.7 M-6.3 -5.85 L-6.3 -6.05 Q0.05 -7.6 6.4 -6.05 L6.4 -5.85 M6.3 -1.05 L6.1 2.6" fill="none" stroke="#312f20" stroke-linecap="round" stroke-linejoin="round" stroke-width="1.0"/>
  </g>
  <defs>
    <linearGradient gradientTransform="matrix(0.0078, 0.0, -4.0E-4, 0.0102, -0.25, 2.45)" gradientUnits="userSpaceOnUse" id="gradient0" spreadMethod="pad" x1="-819.2" x2="819.2">
      <stop offset="0.0" stop-color="#94a183"/>
      <stop offset="0.5254901960784314" stop-color="#616d51"/>
      <stop offset="1.0" stop-color="#737e64"/>
    </linearGradient>
  </defs>
</svg>
