<?xml version="1.0" encoding="UTF-8" standalone="no"?>
<svg xmlns:xlink="http://www.w3.org/1999/xlink" height="31.0px" width="51.0px" xmlns="http://www.w3.org/2000/svg">
  <g transform="matrix(1.0, 0.0, 0.0, 1.0, 23.4, 20.25)">
    <path d="M-3.15 -0.55 L-3.8 -0.75 Q-4.65 -2.95 -3.6 -4.55 -2.5 -6.25 0.75 -7.35 13.45 -9.0 16.4 -19.25 L16.95 -19.05 17.2 -18.25 17.2 -18.2 17.05 -16.9 17.05 -16.6 16.05 -14.6 15.85 -14.6 15.8 -14.6 15.7 -14.6 15.45 -14.5 15.25 -14.25 15.05 -13.8 15.05 -13.75 14.0 -11.7 Q9.95 -7.35 2.15 -6.35 -3.6 -4.45 -3.15 -0.55" fill="#ffd871" fill-rule="evenodd" stroke="none"/>
    <path d="M15.7 -20.1 L16.0 -20.25 Q17.05 -20.3 17.6 -19.8 18.15 -19.3 18.2 -18.25 L18.1 -17.3 20.45 -17.45 20.8 -17.3 20.95 -17.0 Q21.25 -15.1 19.8 -14.2 18.6 -13.5 16.1 -13.6 L16.0 -13.4 15.95 -13.35 Q8.05 3.3 -3.15 0.5 L-4.35 0.15 -4.55 0.0 -4.65 -0.15 Q-5.8 -3.05 -4.45 -5.1 -3.2 -7.1 0.5 -8.3 L0.6 -8.35 Q12.8 -9.95 15.55 -19.85 L15.7 -20.1 M17.05 -16.6 L17.05 -16.9 17.2 -18.2 17.2 -18.25 16.95 -19.05 16.4 -19.25 Q13.45 -9.0 0.75 -7.35 -2.5 -6.25 -3.6 -4.55 -4.65 -2.95 -3.8 -0.75 L-3.15 -0.55 -2.9 -0.45 Q6.85 1.85 14.0 -11.7 L15.05 -13.75 15.05 -13.8 15.25 -14.25 15.45 -14.5 15.7 -14.6 15.8 -14.6 15.85 -14.6 16.05 -14.6 Q18.25 -14.5 19.3 -15.1 20.0 -15.55 20.0 -16.4 L17.55 -16.3 17.25 -16.35 17.05 -16.6" fill="#443502" fill-rule="evenodd" stroke="none"/>
    <path d="M17.05 -16.6 L17.25 -16.35 17.55 -16.3 20.0 -16.4 Q20.0 -15.55 19.3 -15.1 18.25 -14.5 16.05 -14.6 L17.05 -16.6 M14.0 -11.7 Q6.85 1.85 -2.9 -0.45 L-3.15 -0.55 Q-3.6 -4.45 2.15 -6.35 9.95 -7.35 14.0 -11.7" fill="#c48d00" fill-rule="evenodd" stroke="none"/>
    <path d="M-15.75 7.0 L-16.8 6.45 -17.25 4.1 -17.1 3.0 Q-14.95 -1.45 -14.05 -5.35 -8.25 -13.9 7.2 -10.3 12.45 -7.75 15.15 -4.0 L15.3 -3.85 Q12.75 -6.15 9.4 -7.75 -6.6 -11.5 -12.55 -2.55 -13.3 0.8 -14.95 4.55 L-15.0 4.55 -15.0 4.6 -15.55 5.75 -15.6 5.9 -15.75 7.0" fill="#ffd871" fill-rule="evenodd" stroke="none"/>
    <path d="M7.55 -11.2 L7.65 -11.2 Q13.15 -8.55 15.95 -4.6 L15.95 -4.55 16.65 -3.55 17.15 -2.65 17.15 -2.6 Q18.15 -0.65 18.55 1.5 L18.55 1.55 Q19.1 5.3 17.6 7.05 16.15 8.85 12.7 8.55 -0.25 11.75 -13.95 8.55 L-13.9 8.55 -15.85 8.05 -15.9 8.0 -17.45 7.25 -17.65 7.1 -17.7 6.95 -18.25 4.15 -18.25 4.1 Q-18.3 3.1 -18.0 2.55 -15.9 -1.8 -15.05 -5.65 L-14.95 -5.8 Q-8.9 -15.05 7.55 -11.2 M16.0 -2.7 L15.8 -3.05 15.3 -3.85 15.15 -4.0 Q12.45 -7.75 7.2 -10.3 -8.25 -13.9 -14.05 -5.35 -14.95 -1.45 -17.1 3.0 L-17.25 4.1 -16.8 6.45 -15.75 7.0 -15.5 7.1 -13.75 7.55 -13.7 7.6 Q-0.2 10.75 12.6 7.6 L12.75 7.55 Q15.6 7.8 16.85 6.45 18.0 4.95 17.55 1.7 L17.1 -0.1 16.25 -2.15 16.3 -2.15 16.05 -2.55 16.0 -2.75 16.0 -2.7" fill="#443502" fill-rule="evenodd" stroke="none"/>
    <path d="M15.3 -3.85 L15.8 -3.05 16.0 -2.7 Q15.65 -1.95 16.3 1.7 16.9 5.4 10.9 4.85 -2.0 6.95 -8.2 5.85 L-14.95 4.55 Q-13.3 0.8 -12.55 -2.55 -6.6 -11.5 9.4 -7.75 12.75 -6.15 15.3 -3.85" fill="#c48d00" fill-rule="evenodd" stroke="none"/>
    <path d="M16.0 -2.7 L16.0 -2.75 16.05 -2.55 16.3 -2.15 16.25 -2.15 17.1 -0.1 17.55 1.7 Q18.0 4.95 16.85 6.45 15.6 7.8 12.75 7.55 L12.6 7.6 Q-0.2 10.75 -13.7 7.6 L-13.75 7.55 -15.5 7.1 -15.75 7.0 -15.6 5.9 -15.55 5.75 -15.0 4.6 -15.0 4.55 -14.95 4.55 -8.2 5.85 Q-2.0 6.95 10.9 4.85 16.9 5.4 16.3 1.7 15.65 -1.95 16.0 -2.7" fill="#a67800" fill-rule="evenodd" stroke="none"/>
    <path d="M-10.5 3.4 Q-12.25 1.45 -11.8 -1.6 -10.9 -3.5 -5.2 -3.4 -1.2 -3.35 0.5 -5.25 0.7 -4.3 0.1 -3.5 L-1.05 -2.65 -3.7 -2.4 Q-9.9 -2.5 -10.8 -0.25 -11.1 1.8 -10.5 3.4 M3.05 2.8 L2.85 2.7 Q2.05 0.5 3.05 -1.1 4.15 -2.8 7.4 -3.85 19.1 -5.9 23.05 -15.8 L23.65 -15.55 23.75 -15.35 Q19.4 -5.3 8.3 -3.35 2.3 -1.4 3.05 2.8" fill="#ffd871" fill-rule="evenodd" stroke="none"/>
    <path d="M2.2 -1.6 Q3.45 -3.65 7.15 -4.8 L7.25 -4.85 Q18.5 -6.85 22.25 -16.45 L22.4 -16.7 22.7 -16.8 Q23.8 -16.85 24.35 -16.25 L24.4 -16.2 Q25.05 -15.55 24.75 -13.85 L27.05 -13.95 27.4 -13.85 27.55 -13.5 Q27.9 -11.6 26.4 -10.75 25.2 -10.05 22.65 -10.1 14.6 7.1 3.1 3.85 L3.05 3.85 2.35 3.6 2.15 3.5 2.0 3.3 Q0.85 0.4 2.2 -1.6 M-1.05 -2.65 L0.1 -3.5 Q0.7 -4.3 0.5 -5.25 -1.2 -3.35 -5.2 -3.4 -10.9 -3.5 -11.8 -1.6 -12.25 1.45 -10.5 3.4 L-9.55 4.25 Q-8.65 4.95 -7.25 5.4 L-3.45 5.2 Q-2.65 4.7 -2.95 3.6 -5.6 0.9 -5.8 -0.7 L-5.7 -1.1 -5.4 -1.3 Q-2.6 -1.8 -1.05 -2.65 M1.1 -6.5 Q2.15 -4.4 0.85 -2.85 -0.5 -1.25 -4.65 -0.4 -4.2 0.95 -2.15 3.0 L-2.0 3.2 Q-1.4 5.25 -2.95 6.05 L-7.4 6.4 -7.5 6.4 Q-9.1 5.85 -10.15 5.05 -13.5 2.65 -12.8 -1.8 L-12.75 -1.9 Q-11.85 -4.5 -5.2 -4.4 -1.15 -4.35 0.25 -6.55 L0.5 -6.75 0.85 -6.75 1.1 -6.5 M23.75 -15.35 L23.65 -15.55 23.05 -15.8 Q19.1 -5.9 7.4 -3.85 4.15 -2.8 3.05 -1.1 2.05 0.5 2.85 2.7 L3.05 2.8 3.4 2.9 3.35 2.9 Q14.2 5.8 21.9 -10.85 L22.1 -11.05 22.4 -11.15 Q24.8 -11.0 25.9 -11.6 26.6 -12.05 26.6 -12.9 L24.2 -12.85 23.9 -12.9 23.7 -13.15 23.7 -13.45 Q24.0 -14.75 23.75 -15.35" fill="#443502" fill-rule="evenodd" stroke="none"/>
    <path d="M-1.05 -2.65 Q-2.6 -1.8 -5.4 -1.3 L-5.7 -1.1 -5.8 -0.7 Q-5.6 0.9 -2.95 3.6 -2.65 4.7 -3.45 5.2 L-7.25 5.4 Q-8.65 4.95 -9.55 4.25 L-10.5 3.4 Q-11.1 1.8 -10.8 -0.25 -9.9 -2.5 -3.7 -2.4 L-1.05 -2.65 M23.75 -15.35 Q24.0 -14.75 23.7 -13.45 L23.7 -13.15 23.9 -12.9 24.2 -12.85 26.6 -12.9 Q26.6 -12.05 25.9 -11.6 24.8 -11.0 22.4 -11.15 L22.1 -11.05 21.9 -10.85 Q14.2 5.8 3.35 2.9 L3.4 2.9 3.05 2.8 Q2.3 -1.4 8.3 -3.35 19.4 -5.3 23.75 -15.35" fill="#c48d00" fill-rule="evenodd" stroke="none"/>
    <path d="M21.35 6.15 Q20.9 6.75 19.65 6.8 L19.45 6.85 17.0 7.85 Q18.6 6.15 18.95 4.4 19.4 5.05 19.45 5.7 L19.6 6.0 19.95 6.15 20.25 6.05 21.35 6.15 M12.55 8.7 L4.4 9.0 7.55 6.95 9.05 8.3 9.35 8.4 12.55 8.55 12.65 8.65 12.55 8.7 M-9.6 8.55 L-9.4 8.75 -9.15 8.8 -5.35 7.95 -4.2 9.2 -3.9 9.25 Q-2.35 9.1 -1.65 8.15 L-0.35 9.45 Q-6.7 9.65 -12.3 9.2 -11.4 8.15 -9.95 7.4 L-9.6 8.55 M-19.45 2.95 L-18.35 3.2 Q-18.55 5.9 -15.35 8.2 -17.3 8.55 -18.9 9.25 -18.6 8.1 -18.95 7.1 L-19.15 6.85 -19.4 6.75 -21.5 6.65 Q-20.45 6.15 -19.2 6.65 L-18.9 6.65 -18.65 6.45 -18.55 6.15 -18.65 5.85 Q-19.5 4.65 -19.45 2.95" fill="#11b137" fill-rule="evenodd" stroke="none"/>
    <path d="M21.35 6.15 L20.25 6.05 19.95 6.15 19.6 6.0 19.45 5.7 Q19.4 5.05 18.95 4.4 18.6 6.15 17.0 7.85 L19.45 6.85 19.65 6.8 Q20.9 6.75 21.35 6.15 M13.65 8.65 Q13.7 9.15 13.0 9.65 L12.75 9.7 2.6 10.05 2.25 9.95 2.1 9.7 2.1 9.4 2.3 9.15 7.25 5.9 7.6 5.8 Q7.75 5.8 7.9 5.95 L9.55 7.4 12.75 7.55 13.0 7.65 Q13.7 8.15 13.65 8.65 M22.2 5.5 L22.4 5.7 22.45 6.05 Q22.1 7.65 19.75 7.8 16.1 9.5 15.6 8.3 15.5 8.15 15.55 8.0 L15.7 7.7 Q18.1 5.45 18.0 3.2 L18.1 2.9 18.3 2.7 18.6 2.65 18.85 2.8 Q20.0 3.9 20.35 4.95 21.1 4.8 22.2 5.5 M12.55 8.7 L12.65 8.65 12.55 8.55 9.35 8.4 9.05 8.3 7.55 6.95 4.4 9.0 12.55 8.7 M1.3 10.3 L1.05 10.4 Q-6.65 10.7 -13.3 10.1 L-13.6 9.95 -13.75 9.65 -13.65 9.35 Q-12.4 7.35 -9.55 6.1 L-9.15 6.1 -8.9 6.35 Q-8.8 6.5 -8.85 6.7 L-8.9 7.75 Q-6.5 7.4 -5.25 6.8 L-4.95 6.75 -4.65 6.95 -4.55 7.25 Q-4.5 7.75 -3.8 8.25 -2.55 8.0 -2.2 7.05 L-2.0 6.8 -1.6 6.75 -1.3 6.95 Q-0.55 8.05 1.3 9.5 L1.5 9.75 1.5 10.05 1.3 10.3 M-9.6 8.55 L-9.95 7.4 Q-11.4 8.15 -12.3 9.2 -6.7 9.65 -0.35 9.45 L-1.65 8.15 Q-2.35 9.1 -3.9 9.25 L-4.2 9.2 -5.35 7.95 -9.15 8.8 -9.4 8.75 -9.6 8.55 M-17.6 2.45 Q-17.45 2.5 -17.35 2.65 -17.25 2.8 -17.3 3.0 -17.65 5.75 -13.75 8.05 L-13.55 8.25 -13.5 8.55 -13.65 8.8 -13.9 8.95 Q-17.25 9.45 -19.6 10.7 L-19.9 10.75 -20.2 10.6 -20.35 10.35 -20.25 10.0 Q-19.6 8.8 -19.85 7.75 L-22.9 7.55 -23.25 7.4 -23.4 7.05 -23.25 6.7 Q-21.8 5.2 -20.05 5.4 -20.6 4.05 -20.45 2.35 L-20.3 2.05 -19.95 1.9 Q-18.9 1.85 -17.6 2.45 M-19.45 2.95 Q-19.5 4.65 -18.65 5.85 L-18.55 6.15 -18.65 6.45 -18.9 6.65 -19.2 6.65 Q-20.45 6.15 -21.5 6.65 L-19.4 6.75 -19.15 6.85 -18.95 7.1 Q-18.6 8.1 -18.9 9.25 -17.3 8.55 -15.35 8.2 -18.55 5.9 -18.35 3.2 L-19.45 2.95" fill="#443502" fill-rule="evenodd" stroke="none"/>
  </g>
</svg>
