<?xml version="1.0" encoding="UTF-8" standalone="no"?>
<svg xmlns:xlink="http://www.w3.org/1999/xlink" height="46.0px" width="20.0px" xmlns="http://www.w3.org/2000/svg">
  <g transform="matrix(1.0, 0.0, 0.0, 1.0, 9.95, 13.85)">
    <path d="M4.3 9.05 L-6.65 9.05 -6.65 -10.6 4.3 -10.6 4.3 9.05 M3.5 10.05 L3.5 13.2 1.15 13.2 1.15 10.05 3.5 10.05 M6.65 10.05 L6.65 13.2 5.15 13.2 5.15 10.05 6.65 10.05 M-0.5 10.05 L-0.5 13.2 -2.8 13.2 -2.8 10.05 -0.5 10.05 M-4.5 10.05 L-4.5 13.2 -6.65 13.2 -6.65 10.05 -4.5 10.05" fill="#736740" fill-rule="evenodd" stroke="none"/>
    <path d="M4.3 -10.6 L6.65 -10.6 6.65 9.05 4.3 9.05 4.3 -10.6" fill="#302c1f" fill-rule="evenodd" stroke="none"/>
    <path d="M6.75 15.2 L6.75 20.4 3.4 20.4 6.75 20.4 6.75 25.4 3.4 25.4 6.75 25.4 6.75 29.15 -6.55 29.15 -6.55 25.4 -3.25 25.4 -6.55 25.4 -6.55 20.4 -6.55 15.2 6.75 15.2 M-3.25 20.4 L-6.55 20.4 -3.25 20.4" fill="#999999" fill-rule="evenodd" stroke="none"/>
    <path d="M9.95 -13.85 L9.95 14.2 9.45 14.9 8.3 15.2 6.75 15.2 -6.55 15.2 -8.3 15.2 -9.45 14.9 -9.9 14.45 -9.95 14.2 -9.95 -13.85 9.95 -13.85 M4.3 9.05 L6.65 9.05 6.65 -10.6 4.3 -10.6 -6.65 -10.6 -6.65 9.05 4.3 9.05 M6.65 10.05 L5.15 10.05 5.15 13.2 6.65 13.2 6.65 10.05 M3.5 10.05 L1.15 10.05 1.15 13.2 3.5 13.2 3.5 10.05 M-4.5 10.05 L-6.65 10.05 -6.65 13.2 -4.5 13.2 -4.5 10.05 M-0.5 10.05 L-2.8 10.05 -2.8 13.2 -0.5 13.2 -0.5 10.05" fill="#000000" fill-rule="evenodd" stroke="none"/>
    <path d="M9.95 -13.85 L10.05 -13.85 10.05 32.15 -9.9 32.15 -9.9 14.45 -9.45 14.9 -8.3 15.2 -6.55 15.2 -6.55 20.4 -8.2 20.4 -6.55 20.4 -6.55 25.4 -6.55 29.15 6.75 29.15 6.75 25.4 6.75 20.4 6.75 15.2 8.3 15.2 9.45 14.9 9.95 14.2 9.95 -13.85 M8.4 20.4 L6.75 20.4 8.4 20.4 M8.4 25.4 L6.75 25.4 8.4 25.4 M8.4 30.4 L3.4 30.4 8.4 30.4 M-8.2 25.4 L-6.55 25.4 -8.2 25.4 M-3.25 30.4 L-8.2 30.4 -3.25 30.4" fill="#333333" fill-rule="evenodd" stroke="none"/>
    <path d="M6.75 20.4 L8.4 20.4 M3.4 20.4 L6.75 20.4 M6.75 25.4 L8.4 25.4 M6.75 25.4 L3.4 25.4 M-6.55 25.4 L-8.2 25.4 M3.4 30.4 L8.4 30.4 M-8.2 20.4 L-6.55 20.4 -3.25 20.4 M-8.2 30.4 L-3.25 30.4 M-6.55 25.4 L-3.25 25.4" fill="none" stroke="#333333" stroke-linecap="round" stroke-linejoin="round" stroke-width="2.0"/>
  </g>
</svg>
