<?xml version="1.0" encoding="UTF-8" standalone="no"?>
<svg xmlns:xlink="http://www.w3.org/1999/xlink" height="9.05px" width="33.25px" xmlns="http://www.w3.org/2000/svg">
  <g transform="matrix(1.0, 0.0, 0.0, 1.0, 15.75, 2.55)">
    <path d="M10.0 2.95 L-10.0 2.95 -10.0 -2.05 10.0 -2.05 10.0 2.95" fill="#333333" fill-rule="evenodd" stroke="none"/>
    <path d="M10.0 -2.05 L12.0 -2.05 12.0 2.95 10.0 2.95 10.0 -2.05 M-10.0 2.95 L-12.0 2.95 -12.0 -2.05 -10.0 -2.05 -10.0 2.95" fill="#666666" fill-rule="evenodd" stroke="none"/>
    <path d="M10.0 -2.05 L12.0 -2.05 12.0 2.95 10.0 2.95 -10.0 2.95 -12.0 2.95 -12.0 -2.05 -10.0 -2.05 10.0 -2.05 Z" fill="none" stroke="#000000" stroke-linecap="round" stroke-linejoin="round" stroke-width="1.0"/>
    <path d="M14.75 2.75 L14.75 6.0 -12.75 6.0 -12.75 2.75 14.75 2.75" fill="#322523" fill-rule="evenodd" stroke="none"/>
    <path d="M14.75 2.75 L17.0 2.75 17.0 6.0 14.75 6.0 14.75 2.75 M-12.75 6.0 L-15.25 6.0 -15.25 2.75 -12.75 2.75 -12.75 6.0" fill="#513d39" fill-rule="evenodd" stroke="none"/>
    <path d="M14.75 6.0 L17.0 6.0 17.0 2.75 14.75 2.75 -12.75 2.75 -15.25 2.75 -15.25 6.0 -12.75 6.0 14.75 6.0 Z" fill="none" stroke="#000000" stroke-linecap="round" stroke-linejoin="round" stroke-width="1.0"/>
  </g>
</svg>
