<?xml version="1.0" encoding="UTF-8" standalone="no"?>
<svg xmlns:xlink="http://www.w3.org/1999/xlink" height="21.0px" width="41.0px" xmlns="http://www.w3.org/2000/svg">
  <g transform="matrix(1.0, 0.0, 0.0, 1.0, 0.5, 0.5)">
    <path d="M40.0 1.25 L40.0 20.0 32.0 20.0 32.0 15.0 8.0 15.0 8.0 20.0 1.25 20.0 1.25 1.25 8.0 1.25 8.0 5.0 9.25 5.0 9.25 6.25 33.25 6.25 33.25 1.25 40.0 1.25" fill="#576145" fill-rule="evenodd" stroke="none"/>
    <path d="M9.25 5.0 L32.0 5.0 32.0 0.0 40.0 0.0 40.0 1.25 33.25 1.25 33.25 6.25 9.25 6.25 9.25 5.0 M1.25 20.0 L0.0 20.0 0.0 0.0 8.0 0.0 8.0 1.25 1.25 1.25 1.25 20.0" fill="#798761" fill-rule="evenodd" stroke="none"/>
    <path d="M9.25 5.0 L32.0 5.0 32.0 0.0 40.0 0.0 40.0 1.25 40.0 20.0 M32.0 20.0 L32.0 15.0 8.0 15.0 8.0 20.0 M0.0 20.0 L0.0 0.0 8.0 0.0 8.0 1.25 8.0 5.0 9.25 5.0 Z" fill="none" stroke="#000000" stroke-linecap="butt" stroke-linejoin="miter-clip" stroke-miterlimit="3.0" stroke-width="1.0"/>
  </g>
</svg>
