<?xml version="1.0" encoding="UTF-8" standalone="no"?>
<svg xmlns:xlink="http://www.w3.org/1999/xlink" height="13.5px" width="41.5px" xmlns="http://www.w3.org/2000/svg">
  <g transform="matrix(1.0, 0.0, 0.0, 1.0, 20.75, 6.8)">
    <path d="M12.0 -1.7 L12.0 2.75 17.0 2.75 17.0 5.95 -15.25 5.95 -15.25 2.75 -12.0 2.75 -12.0 -1.7 -20.0 -1.7 -20.0 -6.05 20.0 -6.05 20.0 -1.7 12.0 -1.7" fill="#990000" fill-opacity="0.6" fill-rule="evenodd" stroke="none"/>
    <path d="M12.0 -1.7 L12.0 2.75 17.0 2.75 17.0 5.95 -15.25 5.95 -15.25 2.75 -12.0 2.75 -12.0 -1.7 -20.0 -1.7 -20.0 -6.05 20.0 -6.05 20.0 -1.7 12.0 -1.7 Z" fill="none" stroke="#33ff00" stroke-linecap="round" stroke-linejoin="round" stroke-width="1.5"/>
  </g>
</svg>
