<?xml version="1.0" encoding="UTF-8" standalone="no"?>
<svg xmlns:xlink="http://www.w3.org/1999/xlink" height="27.05px" width="28.65px" xmlns="http://www.w3.org/2000/svg">
  <g transform="matrix(1.0, 0.0, 0.0, 1.0, 13.5, 13.5)">
    <path d="M9.2 -9.2 Q13.0 -5.4 13.0 0.0 13.0 5.4 9.2 9.2 5.4 13.0 0.0 13.0 -5.35 13.0 -9.15 9.2 -13.0 5.4 -13.0 0.0 -13.0 -5.4 -9.15 -9.2 -5.35 -13.0 0.0 -13.0 5.4 -13.0 9.2 -9.2" fill="#484539" fill-rule="evenodd" stroke="none"/>
    <path d="M9.2 -9.2 Q13.0 -5.4 13.0 0.0 13.0 5.4 9.2 9.2 5.4 13.0 0.0 13.0 -5.35 13.0 -9.15 9.2 -13.0 5.4 -13.0 0.0 -13.0 -5.4 -9.15 -9.2 -5.35 -13.0 0.0 -13.0 5.4 -13.0 9.2 -9.2 Z" fill="none" stroke="#000000" stroke-linecap="round" stroke-linejoin="round" stroke-width="1.0"/>
    <path d="M0.0 13.05 L0.0 -2.95 13.3 -2.95 13.3 13.05 0.0 13.05" fill="#484539" fill-rule="evenodd" stroke="none"/>
    <path d="M13.3 -2.95 L14.65 -2.95 14.65 13.05 13.3 13.05 13.3 -2.95" fill="#726d5a" fill-rule="evenodd" stroke="none"/>
    <path d="M14.65 -2.95 L14.65 13.05 13.3 13.05 0.0 13.05 M12.55 -3.35 L14.65 -3.35" fill="none" stroke="#000000" stroke-linecap="round" stroke-linejoin="round" stroke-width="1.0"/>
    <path d="M7.15 -7.1 Q10.0 -4.15 10.0 0.05 10.0 4.15 7.15 7.05 4.15 10.05 0.0 10.05 -4.2 10.05 -7.05 7.05 -10.0 4.15 -10.0 0.05 -10.0 -4.15 -7.05 -7.1 -4.2 -9.95 0.0 -9.95 4.15 -9.95 7.15 -7.1" fill="#000000" fill-rule="evenodd" stroke="none"/>
  </g>
</svg>
