<?xml version="1.0" encoding="UTF-8" standalone="no"?>
<svg xmlns:xlink="http://www.w3.org/1999/xlink" height="161.0px" width="15.0px" xmlns="http://www.w3.org/2000/svg">
  <g transform="matrix(1.0, 0.0, 0.0, 1.0, 7.5, 121.0)">
    <path d="M7.5 -40.0 L7.5 40.0 -7.5 40.0 -7.5 -40.0 7.5 -40.0" fill="#000000" fill-opacity="0.09411765" fill-rule="evenodd" stroke="none"/>
    <path d="M2.65 -114.0 L1.95 -114.0 1.95 -116.0 2.65 -116.0 2.65 -114.0 M4.2 -116.0 L4.2 -119.0 5.75 -119.0 5.75 -116.0 4.2 -116.0 M-4.2 -119.0 L-4.2 -116.0 -5.75 -116.0 -5.75 -119.0 -4.2 -119.0 M-2.65 -116.0 L-1.95 -116.0 -1.95 -114.0 -2.65 -114.0 -2.65 -116.0 M-4.2 -114.0 L-4.2 -111.0 -5.75 -111.0 -5.75 -114.0 -4.2 -114.0 M-2.65 -111.0 L-1.95 -111.0 -1.95 -109.0 -2.65 -109.0 -2.65 -111.0 M-4.2 -109.0 L-4.2 -106.0 -5.75 -106.0 -5.75 -109.0 -4.2 -109.0 M-2.65 -106.0 L-1.95 -106.0 -1.95 -104.0 -2.65 -104.0 -2.65 -106.0 M-4.2 -104.0 L-4.2 -101.0 -5.75 -101.0 -5.75 -104.0 -4.2 -104.0 M-2.65 -101.0 L-1.95 -101.0 -1.95 -99.0 -2.65 -99.0 -2.65 -101.0 M-4.2 -99.0 L-4.2 -96.0 -5.75 -96.0 -5.75 -99.0 -4.2 -99.0 M-2.65 -96.0 L-1.95 -96.0 -1.95 -94.0 -2.65 -94.0 -2.65 -96.0 M-4.2 -94.0 L-4.2 -91.0 -5.75 -91.0 -5.75 -94.0 -4.2 -94.0 M-2.65 -91.0 L-1.95 -91.0 -1.95 -89.0 -2.65 -89.0 -2.65 -91.0 M-4.2 -89.0 L-4.2 -86.0 -5.75 -86.0 -5.75 -89.0 -4.2 -89.0 M-2.65 -86.0 L-1.95 -86.0 -1.95 -84.0 -2.65 -84.0 -2.65 -86.0 M-4.2 -84.0 L-4.2 -81.0 -5.75 -81.0 -5.75 -84.0 -4.2 -84.0 M-2.65 -81.0 L-1.95 -81.0 -1.95 -79.0 -2.65 -79.0 -2.65 -81.0 M-4.2 -79.0 L-4.2 -76.0 -5.75 -76.0 -5.75 -79.0 -4.2 -79.0 M-2.65 -76.0 L-1.95 -76.0 -1.95 -74.0 -2.65 -74.0 -2.65 -76.0 M-4.2 -74.0 L-4.2 -71.0 -5.75 -71.0 -5.75 -74.0 -4.2 -74.0 M-2.65 -71.0 L-1.95 -71.0 -1.95 -69.0 -2.65 -69.0 -2.65 -71.0 M-4.2 -69.0 L-4.2 -66.0 -5.75 -66.0 -5.75 -69.0 -4.2 -69.0 M-2.65 -66.0 L-1.95 -66.0 -1.95 -64.0 -2.65 -64.0 -2.65 -66.0 M-4.2 -64.0 L-4.2 -61.0 -5.75 -61.0 -5.75 -64.0 -4.2 -64.0 M-2.65 -61.0 L-1.95 -61.0 -1.95 -59.0 -2.65 -59.0 -2.65 -61.0 M-4.2 -59.0 L-4.2 -56.0 -5.75 -56.0 -5.75 -59.0 -4.2 -59.0 M-2.65 -56.0 L-1.95 -56.0 -1.95 -54.0 -2.65 -54.0 -2.65 -56.0 M-4.2 -54.0 L-4.2 -51.0 -5.75 -51.0 -5.75 -54.0 -4.2 -54.0 M-2.65 -51.0 L-1.95 -51.0 -1.95 -49.0 -2.65 -49.0 -2.65 -51.0 M-4.2 -49.0 L-4.2 -46.0 -5.75 -46.0 -5.75 -49.0 -4.2 -49.0 M-2.65 -46.0 L-1.95 -46.0 -1.95 -44.0 -2.65 -44.0 -2.65 -46.0 M-4.2 -44.0 L-4.2 -41.25 -5.75 -41.25 -5.75 -44.0 -4.2 -44.0 M4.2 -41.25 L4.2 -44.0 5.75 -44.0 5.75 -41.25 4.2 -41.25 M2.65 -44.0 L1.95 -44.0 1.95 -46.0 2.65 -46.0 2.65 -44.0 M4.2 -46.0 L4.2 -49.0 5.75 -49.0 5.75 -46.0 4.2 -46.0 M2.65 -49.0 L1.95 -49.0 1.95 -51.0 2.65 -51.0 2.65 -49.0 M4.2 -51.0 L4.2 -54.0 5.75 -54.0 5.75 -51.0 4.2 -51.0 M2.65 -54.0 L1.95 -54.0 1.95 -56.0 2.65 -56.0 2.65 -54.0 M4.2 -56.0 L4.2 -59.0 5.75 -59.0 5.75 -56.0 4.2 -56.0 M2.65 -59.0 L1.95 -59.0 1.95 -61.0 2.65 -61.0 2.65 -59.0 M4.2 -61.0 L4.2 -64.0 5.75 -64.0 5.75 -61.0 4.2 -61.0 M2.65 -64.0 L1.95 -64.0 1.95 -66.0 2.65 -66.0 2.65 -64.0 M4.2 -66.0 L4.2 -69.0 5.75 -69.0 5.75 -66.0 4.2 -66.0 M2.65 -69.0 L1.95 -69.0 1.95 -71.0 2.65 -71.0 2.65 -69.0 M4.2 -71.0 L4.2 -74.0 5.75 -74.0 5.75 -71.0 4.2 -71.0 M2.65 -74.0 L1.95 -74.0 1.95 -76.0 2.65 -76.0 2.65 -74.0 M4.2 -76.0 L4.2 -79.0 5.75 -79.0 5.75 -76.0 4.2 -76.0 M2.65 -79.0 L1.95 -79.0 1.95 -81.0 2.65 -81.0 2.65 -79.0 M4.2 -81.0 L4.2 -84.0 5.75 -84.0 5.75 -81.0 4.2 -81.0 M2.65 -84.0 L1.95 -84.0 1.95 -86.0 2.65 -86.0 2.65 -84.0 M4.2 -86.0 L4.2 -89.0 5.75 -89.0 5.75 -86.0 4.2 -86.0 M2.65 -89.0 L1.95 -89.0 1.95 -91.0 2.65 -91.0 2.65 -89.0 M4.2 -91.0 L4.2 -94.0 5.75 -94.0 5.75 -91.0 4.2 -91.0 M2.65 -94.0 L1.95 -94.0 1.95 -96.0 2.65 -96.0 2.65 -94.0 M4.2 -96.0 L4.2 -99.0 5.75 -99.0 5.75 -96.0 4.2 -96.0 M2.65 -99.0 L1.95 -99.0 1.95 -101.0 2.65 -101.0 2.65 -99.0 M4.2 -101.0 L4.2 -104.0 5.75 -104.0 5.75 -101.0 4.2 -101.0 M2.65 -104.0 L1.95 -104.0 1.95 -106.0 2.65 -106.0 2.65 -104.0 M4.2 -106.0 L4.2 -109.0 5.75 -109.0 5.75 -106.0 4.2 -106.0 M2.65 -109.0 L1.95 -109.0 1.95 -111.0 2.65 -111.0 2.65 -109.0 M4.2 -111.0 L4.2 -114.0 5.75 -114.0 5.75 -111.0 4.2 -111.0" fill="#999999" fill-rule="evenodd" stroke="none"/>
    <path d="M2.65 -114.0 L2.65 -116.0 4.2 -116.0 5.75 -116.0 5.75 -119.0 4.2 -119.0 -4.2 -119.0 -5.75 -119.0 -5.75 -116.0 -4.2 -116.0 -2.65 -116.0 -2.65 -114.0 -4.2 -114.0 -5.75 -114.0 -5.75 -111.0 -4.2 -111.0 -2.65 -111.0 -2.65 -109.0 -4.2 -109.0 -5.75 -109.0 -5.75 -106.0 -4.2 -106.0 -2.65 -106.0 -2.65 -104.0 -4.2 -104.0 -5.75 -104.0 -5.75 -101.0 -4.2 -101.0 -2.65 -101.0 -2.65 -99.0 -4.2 -99.0 -5.75 -99.0 -5.75 -96.0 -4.2 -96.0 -2.65 -96.0 -2.65 -94.0 -4.2 -94.0 -5.75 -94.0 -5.75 -91.0 -4.2 -91.0 -2.65 -91.0 -2.65 -89.0 -4.2 -89.0 -5.75 -89.0 -5.75 -86.0 -4.2 -86.0 -2.65 -86.0 -2.65 -84.0 -4.2 -84.0 -5.75 -84.0 -5.75 -81.0 -4.2 -81.0 -2.65 -81.0 -2.65 -79.0 -4.2 -79.0 -5.75 -79.0 -5.75 -76.0 -4.2 -76.0 -2.65 -76.0 -2.65 -74.0 -4.2 -74.0 -5.75 -74.0 -5.75 -71.0 -4.2 -71.0 -2.65 -71.0 -2.65 -69.0 -4.2 -69.0 -5.75 -69.0 -5.75 -66.0 -4.2 -66.0 -2.65 -66.0 -2.65 -64.0 -4.2 -64.0 -5.75 -64.0 -5.75 -61.0 -4.2 -61.0 -2.65 -61.0 -2.65 -59.0 -4.2 -59.0 -5.75 -59.0 -5.75 -56.0 -4.2 -56.0 -2.65 -56.0 -2.65 -54.0 -4.2 -54.0 -5.75 -54.0 -5.75 -51.0 -4.2 -51.0 -2.65 -51.0 -2.65 -49.0 -4.2 -49.0 -5.75 -49.0 -5.75 -46.0 -4.2 -46.0 -2.65 -46.0 -2.65 -44.0 -4.2 -44.0 -5.75 -44.0 -5.75 -41.25 -4.2 -41.25 4.2 -41.25 5.75 -41.25 5.75 -44.0 4.2 -44.0 2.65 -44.0 2.65 -46.0 4.2 -46.0 5.75 -46.0 5.75 -49.0 4.2 -49.0 2.65 -49.0 2.65 -51.0 4.2 -51.0 5.75 -51.0 5.75 -54.0 4.2 -54.0 2.65 -54.0 2.65 -56.0 4.2 -56.0 5.75 -56.0 5.75 -59.0 4.2 -59.0 2.65 -59.0 2.65 -61.0 4.2 -61.0 5.75 -61.0 5.75 -64.0 4.2 -64.0 2.65 -64.0 2.65 -66.0 4.2 -66.0 5.75 -66.0 5.75 -69.0 4.2 -69.0 2.65 -69.0 2.65 -71.0 4.2 -71.0 5.75 -71.0 5.75 -74.0 4.2 -74.0 2.65 -74.0 2.65 -76.0 4.2 -76.0 5.75 -76.0 5.75 -79.0 4.2 -79.0 2.65 -79.0 2.65 -81.0 4.2 -81.0 5.75 -81.0 5.75 -84.0 4.2 -84.0 2.65 -84.0 2.65 -86.0 4.2 -86.0 5.75 -86.0 5.75 -89.0 4.2 -89.0 2.65 -89.0 2.65 -91.0 4.2 -91.0 5.75 -91.0 5.75 -94.0 4.2 -94.0 2.65 -94.0 2.65 -96.0 4.2 -96.0 5.75 -96.0 5.75 -99.0 4.2 -99.0 2.65 -99.0 2.65 -101.0 4.2 -101.0 5.75 -101.0 5.75 -104.0 4.2 -104.0 2.65 -104.0 2.65 -106.0 4.2 -106.0 5.75 -106.0 5.75 -109.0 4.2 -109.0 2.65 -109.0 2.65 -111.0 4.2 -111.0 5.75 -111.0 5.75 -114.0 4.2 -114.0 2.65 -114.0 M7.5 -121.0 L7.5 -39.25 -7.5 -39.25 -7.5 -121.0 7.5 -121.0" fill="#000000" fill-rule="evenodd" stroke="none"/>
    <path d="M2.65 -116.0 L1.95 -116.0 1.95 -114.0 2.65 -114.0 4.2 -114.0 4.2 -111.0 2.65 -111.0 1.95 -111.0 1.95 -109.0 2.65 -109.0 4.2 -109.0 4.2 -106.0 2.65 -106.0 1.95 -106.0 1.95 -104.0 2.65 -104.0 4.2 -104.0 4.2 -101.0 2.65 -101.0 1.95 -101.0 1.95 -99.0 2.65 -99.0 4.2 -99.0 4.2 -96.0 2.65 -96.0 1.95 -96.0 1.95 -94.0 2.65 -94.0 4.2 -94.0 4.2 -91.0 2.65 -91.0 1.95 -91.0 1.95 -89.0 2.65 -89.0 4.2 -89.0 4.2 -86.0 2.65 -86.0 1.95 -86.0 1.95 -84.0 2.65 -84.0 4.2 -84.0 4.2 -81.0 2.65 -81.0 1.95 -81.0 1.95 -79.0 2.65 -79.0 4.2 -79.0 4.2 -76.0 2.65 -76.0 1.95 -76.0 1.95 -74.0 2.65 -74.0 4.2 -74.0 4.2 -71.0 2.65 -71.0 1.95 -71.0 1.95 -69.0 2.65 -69.0 4.2 -69.0 4.2 -66.0 2.65 -66.0 1.95 -66.0 1.95 -64.0 2.65 -64.0 4.2 -64.0 4.2 -61.0 2.65 -61.0 1.95 -61.0 1.95 -59.0 2.65 -59.0 4.2 -59.0 4.2 -56.0 2.65 -56.0 1.95 -56.0 1.95 -54.0 2.65 -54.0 4.2 -54.0 4.2 -51.0 2.65 -51.0 1.95 -51.0 1.95 -49.0 2.65 -49.0 4.2 -49.0 4.2 -46.0 2.65 -46.0 1.95 -46.0 1.95 -44.0 2.65 -44.0 4.2 -44.0 4.2 -41.25 -4.2 -41.25 -4.2 -44.0 -2.65 -44.0 -1.95 -44.0 -1.95 -46.0 -2.65 -46.0 -4.2 -46.0 -4.2 -49.0 -2.65 -49.0 -1.95 -49.0 -1.95 -51.0 -2.65 -51.0 -4.2 -51.0 -4.2 -54.0 -2.65 -54.0 -1.95 -54.0 -1.95 -56.0 -2.65 -56.0 -4.2 -56.0 -4.2 -59.0 -2.65 -59.0 -1.95 -59.0 -1.95 -61.0 -2.65 -61.0 -4.2 -61.0 -4.2 -64.0 -2.65 -64.0 -1.95 -64.0 -1.95 -66.0 -2.65 -66.0 -4.2 -66.0 -4.2 -69.0 -2.65 -69.0 -1.95 -69.0 -1.95 -71.0 -2.65 -71.0 -4.2 -71.0 -4.2 -74.0 -2.65 -74.0 -1.95 -74.0 -1.95 -76.0 -2.65 -76.0 -4.2 -76.0 -4.2 -79.0 -2.65 -79.0 -1.95 -79.0 -1.95 -81.0 -2.65 -81.0 -4.2 -81.0 -4.2 -84.0 -2.65 -84.0 -1.95 -84.0 -1.95 -86.0 -2.65 -86.0 -4.2 -86.0 -4.2 -89.0 -2.65 -89.0 -1.95 -89.0 -1.95 -91.0 -2.65 -91.0 -4.2 -91.0 -4.2 -94.0 -2.65 -94.0 -1.95 -94.0 -1.95 -96.0 -2.65 -96.0 -4.2 -96.0 -4.2 -99.0 -2.65 -99.0 -1.95 -99.0 -1.95 -101.0 -2.65 -101.0 -4.2 -101.0 -4.2 -104.0 -2.65 -104.0 -1.95 -104.0 -1.95 -106.0 -2.65 -106.0 -4.2 -106.0 -4.2 -109.0 -2.65 -109.0 -1.95 -109.0 -1.95 -111.0 -2.65 -111.0 -4.2 -111.0 -4.2 -114.0 -2.65 -114.0 -1.95 -114.0 -1.95 -116.0 -2.65 -116.0 -4.2 -116.0 -4.2 -119.0 4.2 -119.0 4.2 -116.0 2.65 -116.0" fill="#666666" fill-rule="evenodd" stroke="none"/>
  </g>
</svg>
