<?xml version="1.0" encoding="UTF-8" standalone="no"?>
<svg xmlns:xlink="http://www.w3.org/1999/xlink" height="82.0px" width="20.0px" xmlns="http://www.w3.org/2000/svg">
  <g transform="matrix(1.0, 0.0, 0.0, 1.0, 10.0, 40.95)">
    <path d="M7.65 39.05 L-7.65 39.05 -7.65 -38.95 7.65 -38.95 7.65 39.05" fill="#48342f" fill-rule="evenodd" stroke="none"/>
    <path d="M7.65 39.05 L7.65 -38.95 -7.65 -38.95 -7.65 39.05 7.65 39.05 M10.0 -40.95 L10.0 41.05 -10.0 41.05 -10.0 -40.95 10.0 -40.95" fill="#000000" fill-rule="evenodd" stroke="none"/>
    <path d="M3.1 -23.6 L1.55 -38.95 5.65 -38.95 5.65 39.05 1.55 39.05 4.0 20.25 2.1 17.5 2.75 1.75 1.3 -12.1 3.1 -23.6 M-1.55 -38.95 L-0.4 -31.35 -3.3 -21.85 -2.7 6.25 -1.6 12.75 -2.9 16.9 -1.55 39.05 -5.65 39.05 -5.65 -38.95 -1.55 -38.95" fill="#3e2d28" fill-rule="evenodd" stroke="none"/>
    <path d="M3.3 -12.1 L5.1 -23.6 3.55 -38.95 7.65 -38.95 7.65 39.05 3.55 39.05 6.0 20.25 4.1 17.5 4.75 1.75 3.3 -12.1 M-2.4 -31.35 L-5.3 -21.85 -4.7 6.25 -3.6 12.75 -4.9 16.9 -3.55 39.05 -7.65 39.05 -7.65 -38.95 -3.55 -38.95 -2.4 -31.35" fill="#332522" fill-rule="evenodd" stroke="none"/>
  </g>
</svg>
