<?xml version="1.0" encoding="UTF-8" standalone="no"?>
<svg xmlns:xlink="http://www.w3.org/1999/xlink" height="20.0px" width="20.0px" xmlns="http://www.w3.org/2000/svg">
  <g transform="matrix(1.0, 0.0, 0.0, 1.0, 10.0, 10.0)">
    <path d="M4.85 -4.8 Q2.85 -6.8 0.0 -6.8 -2.75 -6.8 -4.75 -4.8 -6.8 -2.75 -6.8 0.0 -6.8 2.85 -4.75 4.85 -2.75 6.8 0.0 6.8 2.85 6.8 4.85 4.85 6.8 2.85 6.8 0.0 6.8 -2.75 4.85 -4.8 M5.75 -5.8 Q8.2 -3.4 8.2 0.0 8.2 3.35 5.75 5.75 3.35 8.2 0.0 8.2 -3.35 8.2 -5.75 5.75 -8.2 3.35 -8.2 0.0 -8.2 -3.4 -5.75 -5.8 -3.4 -8.2 0.0 -8.2 3.4 -8.2 5.75 -5.8" fill="#8c8c8c" fill-rule="evenodd" stroke="none"/>
    <path d="M4.85 -4.8 Q6.8 -2.75 6.8 0.0 6.8 2.85 4.85 4.85 2.85 6.8 0.0 6.8 -2.75 6.8 -4.75 4.85 -6.8 2.85 -6.8 0.0 -6.8 -2.75 -4.75 -4.8 -2.75 -6.8 0.0 -6.8 2.85 -6.8 4.85 -4.8 M0.0 -5.0 Q-2.05 -5.0 -3.5 -3.55 -5.0 -2.05 -5.0 0.0 -5.0 2.1 -3.5 3.55 -2.05 5.0 0.0 5.0 2.1 5.0 3.55 3.55 5.0 2.1 5.0 0.0 5.0 -2.05 3.55 -3.55 2.1 -5.0 0.0 -5.0" fill="#999999" fill-rule="evenodd" stroke="none"/>
    <path d="M0.0 -10.0 Q4.15 -10.0 7.05 -7.1 10.0 -4.15 10.0 0.0 10.0 4.15 7.1 7.05 L7.05 7.1 Q4.15 10.0 0.0 10.0 -4.15 10.0 -7.05 7.1 L-7.05 7.05 Q-10.0 4.15 -10.0 0.0 -10.0 -4.15 -7.05 -7.1 -4.15 -10.0 0.0 -10.0 M5.75 -5.8 Q3.4 -8.2 0.0 -8.2 -3.4 -8.2 -5.75 -5.8 -8.2 -3.4 -8.2 0.0 -8.2 3.35 -5.75 5.75 -3.35 8.2 0.0 8.2 3.35 8.2 5.75 5.75 8.2 3.35 8.2 0.0 8.2 -3.4 5.75 -5.8 M0.0 -5.0 Q2.1 -5.0 3.55 -3.55 5.0 -2.05 5.0 0.0 5.0 2.1 3.55 3.55 2.1 5.0 0.0 5.0 -2.05 5.0 -3.5 3.55 -5.0 2.1 -5.0 0.0 -5.0 -2.05 -3.5 -3.55 -2.05 -5.0 0.0 -5.0 M2.9 -2.9 Q1.75 -4.1 0.0 -4.1 -1.7 -4.1 -2.85 -2.9 -4.1 -1.7 -4.1 0.0 -4.1 1.75 -2.85 2.9 -1.7 4.1 0.0 4.1 1.75 4.1 2.9 2.9 4.1 1.75 4.1 0.0 4.1 -1.7 2.9 -2.9" fill="#333333" fill-rule="evenodd" stroke="none"/>
    <path d="M2.9 -2.9 Q4.1 -1.7 4.1 0.0 4.1 1.75 2.9 2.9 1.75 4.1 0.0 4.1 -1.7 4.1 -2.85 2.9 -4.1 1.75 -4.1 0.0 -4.1 -1.7 -2.85 -2.9 -1.7 -4.1 0.0 -4.1 1.75 -4.1 2.9 -2.9" fill="#ffffff" fill-opacity="0.0" fill-rule="evenodd" stroke="none"/>
    <path d="M4.4 -3.5 L3.25 -5.2 2.7 -5.8 Q2.0 -6.5 1.0 -6.6 L-1.0 -6.45 -1.3 -6.75 -0.8 -7.05 -1.2 -7.1 -1.2 -7.5 Q1.8 -7.75 3.7 -6.0 5.25 -4.55 5.05 -3.4 L5.05 -3.05 4.75 -2.95 4.6 -3.2 4.4 -3.25 4.4 -3.5 M6.35 1.15 L6.4 1.75 Q6.4 2.85 5.2 4.7 3.7 6.95 1.95 6.95 L1.65 6.9 1.55 6.65 2.55 6.1 Q3.8 5.35 4.8 4.0 5.8 2.6 5.85 1.15 L6.35 1.15 M-3.35 5.8 L-3.65 5.95 -4.85 5.15 -6.3 3.65 -7.05 2.2 -7.05 1.1 -7.1 0.4 Q-7.05 -0.2 -6.5 -0.25 -7.1 1.6 -5.55 3.4 L-3.35 5.8" fill="#333333" fill-rule="evenodd" stroke="none"/>
  </g>
</svg>
