<?xml version="1.0" encoding="UTF-8" standalone="no"?>
<svg xmlns:xlink="http://www.w3.org/1999/xlink" height="21.0px" width="21.0px" xmlns="http://www.w3.org/2000/svg">
  <g transform="matrix(1.0, 0.0, 0.0, 1.0, 10.5, 10.5)">
    <path d="M5.05 -8.65 L7.05 -7.1 8.7 -5.0 Q10.0 -2.75 10.0 0.0 10.0 2.75 8.7 5.0 L7.05 7.05 5.05 8.65 Q2.8 10.0 0.0 10.0 -2.75 10.0 -5.0 8.65 L-7.05 7.05 -8.65 5.0 Q-10.0 2.75 -10.0 0.0 -10.0 -2.75 -8.65 -5.05 L-7.05 -7.1 Q-6.1 -8.05 -4.95 -8.7 -2.75 -10.0 0.0 -10.0 L0.05 -10.0 Q2.8 -10.0 5.05 -8.65 L2.55 -4.35 5.05 -8.65 M4.35 -2.45 L3.55 -3.55 2.55 -4.35 Q1.4 -5.0 0.05 -5.0 L0.0 -5.0 Q-1.35 -5.0 -2.45 -4.35 L-4.95 -8.7 -2.45 -4.35 -3.55 -3.55 -4.3 -2.5 -8.65 -5.05 -4.3 -2.5 Q-4.95 -1.4 -4.95 0.0 -4.95 1.4 -4.3 2.5 L-3.55 3.5 -2.45 4.35 -5.0 8.65 -2.45 4.35 Q-1.35 4.95 0.0 4.95 1.4 4.95 2.55 4.3 L3.55 3.5 4.35 2.5 Q5.0 1.4 5.0 0.0 L10.0 0.0 5.0 0.0 Q5.0 -1.35 4.35 -2.45 L8.7 -5.0 4.35 -2.45 M0.05 -10.0 L0.05 -5.0 0.05 -10.0 M8.7 5.0 L4.35 2.5 8.7 5.0 M0.0 10.0 L0.0 4.95 0.0 10.0 M5.05 8.65 L2.55 4.3 5.05 8.65 M-10.0 0.0 L-4.95 0.0 -10.0 0.0 M-8.65 5.0 L-4.3 2.5 -8.65 5.0" fill="#cccccc" fill-rule="evenodd" stroke="none"/>
    <path d="M5.05 -8.65 L2.55 -4.35 M4.35 -2.45 L8.7 -5.0 M0.05 -5.0 L0.05 -10.0 M4.35 2.5 L8.7 5.0 M0.0 4.95 L0.0 10.0 M2.55 4.3 L5.05 8.65 M10.0 0.0 L5.0 0.0 M-2.45 -4.35 L-4.95 -8.7 M-4.3 -2.5 L-8.65 -5.05 M-4.95 0.0 L-10.0 0.0 M-4.3 2.5 L-8.65 5.0 M-2.45 4.35 L-5.0 8.65" fill="none" stroke="#cccccc" stroke-linecap="butt" stroke-linejoin="round" stroke-width="1.0"/>
  </g>
</svg>
