<?xml version="1.0" encoding="UTF-8" standalone="no"?>
<svg xmlns:xlink="http://www.w3.org/1999/xlink" height="19.1px" width="27.25px" xmlns="http://www.w3.org/2000/svg">
  <g transform="matrix(1.0, 0.0, 0.0, 1.0, 13.0, 13.85)">
    <path d="M0.35 -12.4 L4.55 -12.55 Q4.7 -12.45 4.8 -12.4 L6.6 -12.85 Q9.15 -12.85 12.2 -9.1 13.35 -6.75 13.35 -4.75 13.35 4.05 -1.95 4.05 L-7.15 3.95 Q-8.95 3.35 -10.2 0.45 L-10.2 0.35 -10.5 -0.45 -10.75 -1.15 -11.55 -5.75 Q-11.1 -10.1 -7.15 -11.7 L-8.95 -9.35 Q-7.75 -11.15 -5.45 -12.15 L-2.65 -12.7 -2.55 -12.55 0.35 -12.4 M7.6 -7.9 L7.85 -7.8 8.85 -6.9 8.45 -5.3 Q8.45 -3.45 8.75 -2.45 L7.6 0.0 Q7.6 0.75 8.15 0.75 8.85 0.75 10.3 -0.8 11.2 -0.8 11.75 -2.45 L11.9 -2.7 11.9 -3.15 12.35 -5.3 Q12.35 -7.2 10.9 -9.25 8.75 -12.15 4.55 -12.15 3.4 -11.25 0.35 -11.25 -0.05 -11.95 -2.55 -11.95 L-4.55 -11.7 -4.45 -11.95 -4.9 -12.15 Q-5.6 -12.15 -6.6 -11.15 -7.3 -10.95 -7.95 -9.95 L-7.95 -9.7 -8.05 -9.7 -8.05 -9.5 Q-8.75 -9.25 -9.05 -8.45 L-9.9 -6.75 Q-10.5 -5.3 -10.5 -4.15 -10.5 -2.6 -8.95 0.6 L-8.6 0.6 -8.6 0.45 Q-10.2 -3.6 -10.2 -4.15 L-10.1 -6.2 -10.1 -5.75 Q-10.1 -4.75 -9.2 -2.25 L-8.5 -0.45 Q-8.5 1.2 -7.3 1.9 -7.05 2.25 -6.7 2.25 L-4.45 2.6 -4.0 2.9 Q0.8 2.9 0.8 1.2 L0.8 0.9 0.8 0.6 0.6 0.45 Q0.2 -0.8 -1.55 -0.8 L-1.85 -0.8 -2.1 -1.0 -2.4 -1.45 Q-1.65 -0.8 -0.2 -0.8 L0.8 -1.15 1.65 -1.15 Q1.65 -0.55 2.2 0.2 2.85 1.2 4.4 1.2 8.3 1.2 8.3 -4.5 8.45 -7.1 7.6 -7.9 M-9.5 -5.05 L-9.3 -4.75 -9.5 -3.7 -9.5 -5.05 M-9.3 -3.15 L-8.75 -2.0 -8.3 -1.45 -8.3 -1.15 Q-9.05 -2.15 -9.3 -3.15 M7.0 -8.45 L5.8 -8.65 Q3.4 -8.65 2.65 -7.35 L1.4 -7.45 Q1.4 -7.8 1.2 -7.8 L1.05 -7.8 Q1.85 -7.9 2.4 -8.35 3.2 -9.25 4.7 -9.25 5.7 -9.25 7.0 -8.45 M-0.5 -7.45 Q-3.25 -6.75 -3.25 -3.45 L-3.0 -2.25 -3.55 -2.7 -3.55 -4.3 -1.95 -7.45 -1.1 -7.45 -0.5 -7.45 M-1.25 -6.55 L-0.5 -6.75 2.4 -6.45 1.4 -5.2 1.4 -4.05 1.5 -4.05 2.85 -6.45 3.1 -6.45 3.2 -6.45 3.4 -6.65 3.4 -6.75 5.55 -7.9 Q7.7 -7.9 7.7 -4.5 7.15 0.45 4.4 0.45 2.2 -1.85 1.65 -1.85 L-0.5 -1.45 Q-2.55 -1.45 -2.55 -3.6 L-2.55 -4.15 Q-2.4 -3.3 -1.4 -3.3 0.5 -3.3 0.5 -5.2 0.6 -6.65 -0.85 -6.65 L-1.25 -6.55 M3.1 -3.45 L3.2 -2.25 Q3.55 -1.15 5.0 -1.15 7.0 -1.15 7.0 -4.6 7.45 -6.75 5.55 -6.75 3.1 -6.75 3.1 -3.45" fill="#ef3f03" fill-rule="evenodd" stroke="none"/>
    <path d="M0.35 -12.4 L-2.55 -12.55 -2.65 -12.7 -5.45 -12.15 Q-7.75 -11.15 -8.95 -9.35 L-7.15 -11.7 Q-11.1 -10.1 -11.55 -5.75 L-10.75 -1.15 -10.5 -0.45 -10.2 0.35 -10.2 0.45 Q-8.95 3.35 -7.15 3.95 L-1.95 4.05 Q13.35 4.05 13.35 -4.75 13.35 -6.75 12.2 -9.1 9.15 -12.85 6.6 -12.85 L4.8 -12.4 Q4.7 -12.45 4.55 -12.55 L0.35 -12.4 M7.6 -7.9 Q8.45 -7.1 8.3 -4.5 8.3 1.2 4.4 1.2 2.85 1.2 2.2 0.2 1.65 -0.55 1.65 -1.15 L0.8 -1.15 -0.2 -0.8 Q-1.65 -0.8 -2.4 -1.45 -3.0 -1.7 -3.0 -2.25 L-3.25 -3.45 Q-3.25 -6.75 -0.5 -7.45 0.2 -7.8 1.05 -7.8 L1.2 -7.8 Q1.4 -7.8 1.4 -7.45 L2.65 -7.35 Q3.4 -8.65 5.8 -8.65 L7.0 -8.45 7.6 -7.9 M-10.1 -6.2 L-10.2 -4.15 Q-10.2 -3.6 -8.6 0.45 L-8.6 0.6 -8.95 0.6 Q-10.5 -2.6 -10.5 -4.15 -10.5 -5.3 -9.9 -6.75 L-9.9 -6.3 -10.1 -6.2 M-2.55 -4.15 L-2.55 -3.6 Q-2.55 -1.45 -0.5 -1.45 L1.65 -1.85 Q2.2 -1.85 4.4 0.45 7.15 0.45 7.7 -4.5 7.7 -7.9 5.55 -7.9 L3.4 -6.75 3.4 -6.65 3.2 -6.45 3.1 -6.45 2.85 -6.45 1.5 -4.05 1.4 -4.05 1.4 -5.2 2.4 -6.45 -0.5 -6.75 -1.25 -6.55 -1.3 -6.5 -1.35 -6.45 -1.4 -6.45 Q-2.55 -6.3 -2.55 -4.3 L-2.55 -4.15 M11.75 -11.7 L13.2 -9.5 Q14.25 -8.45 14.25 -4.75 14.25 5.25 -1.95 5.25 -7.6 5.25 -9.75 3.35 -10.35 2.9 -11.8 -0.45 L-12.1 -2.0 Q-12.85 -3.75 -13.0 -5.8 -13.05 -6.75 -12.25 -9.5 L-9.55 -11.5 Q-6.35 -13.55 -3.55 -13.55 L-0.85 -13.75 7.0 -13.85 11.05 -12.15 11.75 -11.7" fill="#802202" fill-rule="evenodd" stroke="none"/>
    <path d="M-4.55 -11.7 L-2.55 -11.95 Q-0.05 -11.95 0.35 -11.25 3.4 -11.25 4.55 -12.15 8.75 -12.15 10.9 -9.25 12.35 -7.2 12.35 -5.3 L11.9 -3.15 11.9 -2.7 11.75 -2.45 Q11.2 -0.8 10.3 -0.8 8.85 0.75 8.15 0.75 7.6 0.75 7.6 0.0 L8.75 -2.45 Q8.45 -3.45 8.45 -5.3 L8.85 -6.9 7.85 -7.8 7.6 -7.9 7.0 -8.45 Q5.7 -9.25 4.7 -9.25 3.2 -9.25 2.4 -8.35 1.85 -7.9 1.05 -7.8 0.2 -7.8 -0.5 -7.45 L-1.1 -7.45 -1.95 -7.45 -3.55 -4.3 -3.55 -2.7 -3.0 -2.25 Q-3.0 -1.7 -2.4 -1.45 L-2.1 -1.0 -1.85 -0.8 -1.55 -0.8 Q0.2 -0.8 0.6 0.45 L0.8 0.6 0.8 0.9 0.8 1.2 Q0.8 2.9 -4.0 2.9 L-4.45 2.6 -6.7 2.25 Q-7.05 2.25 -7.3 1.9 -8.5 1.2 -8.5 -0.45 -8.05 0.6 -7.6 0.75 L-7.5 0.35 -8.3 -1.15 -8.3 -1.45 -8.75 -2.0 -9.3 -3.15 -9.5 -3.6 -9.5 -3.7 -9.3 -4.75 -9.5 -5.05 -9.5 -5.75 Q-9.2 -7.1 -7.95 -8.9 -5.45 -10.5 -4.55 -11.7 M-1.25 -6.55 L-0.85 -6.65 Q0.6 -6.65 0.5 -5.2 0.5 -3.3 -1.4 -3.3 -2.4 -3.3 -2.55 -4.15 L-2.55 -4.3 Q-2.55 -6.3 -1.4 -6.45 L-1.35 -6.45 -1.3 -6.5 -1.25 -6.55 M3.1 -3.45 Q3.1 -6.75 5.55 -6.75 7.45 -6.75 7.0 -4.6 7.0 -1.15 5.0 -1.15 3.55 -1.15 3.2 -2.25 L3.1 -3.45 M5.1 -3.3 Q6.15 -3.3 6.15 -4.75 5.55 -6.2 5.1 -6.2 4.25 -6.2 4.25 -4.5 4.25 -3.3 5.1 -3.3" fill="#fd7040" fill-rule="evenodd" stroke="none"/>
    <path d="M-8.5 -0.45 L-9.2 -2.25 Q-10.1 -4.75 -10.1 -5.75 L-10.1 -6.2 -9.9 -6.3 -9.9 -6.75 -9.05 -8.45 Q-8.75 -9.25 -8.05 -9.5 L-8.05 -9.7 -7.95 -9.7 -7.95 -9.95 Q-7.3 -10.95 -6.6 -11.15 -5.6 -12.15 -4.9 -12.15 L-4.45 -11.95 -4.55 -11.7 Q-5.45 -10.5 -7.95 -8.9 -9.2 -7.1 -9.5 -5.75 L-9.5 -5.05 -9.5 -3.7 -9.5 -3.6 -9.3 -3.15 Q-9.05 -2.15 -8.3 -1.15 L-7.5 0.35 -7.6 0.75 Q-8.05 0.6 -8.5 -0.45 M5.1 -3.3 Q4.25 -3.3 4.25 -4.5 4.25 -6.2 5.1 -6.2 5.55 -6.2 6.15 -4.75 6.15 -3.3 5.1 -3.3" fill="#fea283" fill-rule="evenodd" stroke="none"/>
  </g>
</svg>
