<?xml version="1.0" encoding="UTF-8" standalone="no"?>
<svg xmlns:xlink="http://www.w3.org/1999/xlink" height="6.45px" width="11.0px" xmlns="http://www.w3.org/2000/svg">
  <g transform="matrix(1.0, 0.0, 0.0, 1.0, 5.5, 3.2)">
    <path d="M3.55 -1.25 Q5.0 0.2 5.0 2.3 3.7 3.2 2.6 2.3 2.6 1.25 1.85 0.5 1.15 -0.2 0.1 -0.2 -0.95 -0.2 -1.7 0.5 -2.4 1.25 -2.4 2.3 -3.8 3.15 -5.0 2.3 -5.0 0.2 -3.5 -1.25 -2.05 -2.7 0.0 -2.7 2.1 -2.7 3.55 -1.25" fill="#aaaaaa" fill-rule="evenodd" stroke="none"/>
    <path d="M3.55 -1.25 Q5.0 0.2 5.0 2.3 3.7 3.2 2.6 2.3 2.6 1.25 1.85 0.5 1.15 -0.2 0.1 -0.2 -0.95 -0.2 -1.7 0.5 -2.4 1.25 -2.4 2.3 -3.8 3.15 -5.0 2.3 -5.0 0.2 -3.5 -1.25 -2.05 -2.7 0.0 -2.7 2.1 -2.7 3.55 -1.25 Z" fill="none" stroke="#000000" stroke-linecap="round" stroke-linejoin="round" stroke-width="1.0"/>
  </g>
</svg>
