<?xml version="1.0" encoding="UTF-8" standalone="no"?>
<svg xmlns:xlink="http://www.w3.org/1999/xlink" height="70.0px" width="640.0px" xmlns="http://www.w3.org/2000/svg">
  <g transform="matrix(1.0, 0.0, 0.0, 1.0, 65.0, 40.0)">
    <path d="M-65.0 -40.0 L575.0 -40.0 575.0 30.0 -65.0 30.0 -65.0 -40.0" fill="#000000" fill-opacity="0.49803922" fill-rule="evenodd" stroke="none"/>
    <path d="M0.0 -6.0 Q0.0 -16.0 10.3 -16.0 L479.0 -16.0 Q488.5 -15.75 489.8 -8.45 L490.0 -6.2 490.0 -6.0 490.0 5.95 490.0 6.15 489.8 8.45 Q488.5 15.75 479.0 16.0 L10.3 16.0 Q0.0 16.0 0.0 5.95 L0.0 -6.0" fill="#ab4a31" fill-rule="evenodd" stroke="none"/>
    <path d="M0.0 -6.0 L0.0 5.95 Q0.0 16.0 10.3 16.0 L479.0 16.0 Q488.5 15.75 489.8 8.45 L490.0 6.15 490.0 5.95 490.0 -6.0 490.0 -6.2 489.8 -8.45 Q488.5 -15.75 479.0 -16.0 L10.3 -16.0 Q0.0 -16.0 0.0 -6.0 Z" fill="none" stroke="#dddddd" stroke-linecap="round" stroke-linejoin="round" stroke-width="3.0"/>
    <path d="M0.0 -22.1 Q8.35 -22.1 14.8 -18.45 L479.05 -18.45 Q489.8 -18.1 491.3 -9.2 L491.3 -9.15 491.5 -6.75 491.5 -6.65 491.5 -6.45 491.5 6.4 491.5 6.6 491.5 6.65 491.3 9.15 491.3 9.2 Q489.8 18.1 479.05 18.45 L14.8 18.45 Q8.35 22.1 0.0 22.1 -10.9 22.1 -18.75 15.7 -26.5 9.25 -26.5 0.0 -26.5 -9.1 -18.75 -15.65 -10.9 -22.1 0.0 -22.1" fill="url(#gradient0)" fill-rule="evenodd" stroke="none"/>
    <path d="M17.7 -17.7 Q25.0 -10.3 25.0 0.0 25.0 10.45 17.7 17.7 10.45 25.0 0.0 25.0 -10.3 25.0 -17.7 17.7 -25.0 10.45 -25.0 0.0 -25.0 -10.3 -17.7 -17.7 -10.3 -25.0 0.0 -25.0 10.45 -25.0 17.7 -17.7" fill="#cccccc" fill-rule="evenodd" stroke="none"/>
    <path d="M17.7 -17.7 Q25.0 -10.3 25.0 0.0 25.0 10.45 17.7 17.7 10.45 25.0 0.0 25.0 -10.3 25.0 -17.7 17.7 -25.0 10.45 -25.0 0.0 -25.0 -10.3 -17.7 -17.7 -10.3 -25.0 0.0 -25.0 10.45 -25.0 17.7 -17.7 Z" fill="none" stroke="#dddddd" stroke-linecap="round" stroke-linejoin="round" stroke-width="3.0"/>
  </g>
  <defs>
    <linearGradient gradientTransform="matrix(0.0, 0.0225, -0.0323, 0.0, 232.5, 0.0)" gradientUnits="userSpaceOnUse" id="gradient0" spreadMethod="pad" x1="-819.2" x2="819.2">
      <stop offset="0.0" stop-color="#ffffff" stop-opacity="0.0"/>
      <stop offset="1.0" stop-color="#ffffff" stop-opacity="0.2509804"/>
    </linearGradient>
  </defs>
</svg>
