<?xml version="1.0" encoding="UTF-8" standalone="no"?>
<svg xmlns:xlink="http://www.w3.org/1999/xlink" height="53.0px" width="518.0px" xmlns="http://www.w3.org/2000/svg">
  <g transform="matrix(1.0, 0.0, 0.0, 1.0, 26.5, 26.5)">
    <path d="M0.0 -26.5 Q8.35 -26.5 14.8 -22.1 L479.05 -22.1 Q489.8 -21.7 491.3 -11.05 L491.3 -10.95 491.5 -8.1 491.5 -8.0 491.5 -7.75 491.5 7.65 491.5 7.9 491.5 8.0 491.3 10.95 491.3 11.05 Q489.8 21.7 479.05 22.1 L14.8 22.1 Q8.35 26.5 0.0 26.5 -10.9 26.5 -18.75 18.8 -26.5 11.1 -26.5 0.0 -26.5 -10.9 -18.75 -18.75 -10.9 -26.5 0.0 -26.5" fill="#ffffff" fill-rule="evenodd" stroke="none"/>
  </g>
</svg>
