<?xml version="1.0" encoding="UTF-8" standalone="no"?>
<svg xmlns:xlink="http://www.w3.org/1999/xlink" height="361.0px" width="541.0px" xmlns="http://www.w3.org/2000/svg">
  <g transform="matrix(1.0, 0.0, 0.0, 1.0, -49.5, -89.4)">
    <path d="M575.45 89.9 Q590.0 89.9 590.0 106.0 L590.0 433.9 Q590.0 449.9 575.45 449.9 L64.55 449.9 Q50.0 449.9 50.0 433.9 L50.0 106.0 Q50.0 89.9 64.55 89.9 L575.45 89.9" fill="#000000" fill-opacity="0.8980392" fill-rule="evenodd" stroke="none"/>
    <path d="M575.45 89.9 L64.55 89.9 Q50.0 89.9 50.0 106.0 L50.0 433.9 Q50.0 449.9 64.55 449.9 L575.45 449.9 Q590.0 449.9 590.0 433.9 L590.0 106.0 Q590.0 89.9 575.45 89.9 Z" fill="none" stroke="#ffffff" stroke-linecap="round" stroke-linejoin="round" stroke-width="1.0"/>
  </g>
</svg>
