<?xml version="1.0" encoding="UTF-8" standalone="no"?>
<svg xmlns:xlink="http://www.w3.org/1999/xlink" height="106.8px" width="108.8px" xmlns="http://www.w3.org/2000/svg">
  <g transform="matrix(1.0, 0.0, 0.0, 1.0, 0.9, 0.9)">
    <path d="M97.95 0.0 Q107.0 0.0 107.0 8.95 L107.0 96.05 Q107.0 105.0 97.95 105.0 L9.1 105.0 Q0.0 105.0 0.0 96.05 L0.0 8.95 Q0.0 0.0 9.1 0.0 L97.95 0.0 M105.15 8.95 Q105.15 1.9 97.95 1.9 L9.1 1.9 Q1.9 1.9 1.9 8.95 L1.9 96.05 Q1.9 103.15 9.1 103.15 L97.95 103.15 Q105.15 103.15 105.15 96.05 L105.15 8.95" fill="#000000" fill-rule="evenodd" stroke="none"/>
    <path d="M8.75 -0.4 Q-0.4 -0.4 -0.4 8.6 L-0.4 96.4 Q-0.4 105.4 8.75 105.4 L98.3 105.4 Q107.4 105.4 107.4 96.4 L107.4 8.6 Q107.4 -0.4 98.3 -0.4 L8.75 -0.4 Z" fill="none" stroke="#c3e5ee" stroke-linecap="round" stroke-linejoin="round" stroke-width="1.0"/>
  </g>
</svg>
