<?xml version="1.0" encoding="UTF-8" standalone="no"?>
<svg xmlns:xlink="http://www.w3.org/1999/xlink" height="140.0px" width="280.0px" xmlns="http://www.w3.org/2000/svg">
  <g transform="matrix(1.0, 0.0, 0.0, 1.0, 140.0, 70.0)">
    <path d="M-140.0 -68.45 L-140.0 -70.0 124.05 -70.0 Q140.0 -70.0 140.0 -54.0 L140.0 54.05 Q140.0 64.35 133.35 68.0 129.7 70.0 124.05 70.0 L-140.0 70.0 -140.0 68.45 124.05 68.45 128.7 68.0 Q138.45 65.9 138.45 54.05 L138.45 -54.0 Q138.45 -68.45 124.05 -68.45 L-140.0 -68.45" fill="#c3e5ee" fill-rule="evenodd" stroke="none"/>
    <path d="M-140.0 -68.45 L124.05 -68.45 Q138.45 -68.45 138.45 -54.0 L138.45 54.05 Q138.45 65.9 128.7 68.0 L124.05 68.45 -140.0 68.45 -140.0 -68.45" fill="#000000" fill-opacity="0.9490196" fill-rule="evenodd" stroke="none"/>
  </g>
</svg>
