<?xml version="1.0" encoding="UTF-8" standalone="no"?>
<svg xmlns:xlink="http://www.w3.org/1999/xlink" height="25.2px" width="43.45px" xmlns="http://www.w3.org/2000/svg">
  <g transform="matrix(1.0, 0.0, 0.0, 1.0, 22.05, 12.95)">
    <path d="M-0.65 2.35 Q-7.0 11.45 -13.35 2.35 L-0.65 2.35" fill="#ffffff" fill-rule="evenodd" stroke="none"/>
    <path d="M-8.1 -4.25 Q-10.6 -7.35 -13.1 -4.25 -10.6 -7.35 -8.1 -4.25 M-8.45 -12.2 Q-3.55 -12.2 -0.15 -8.75 3.4 -5.3 3.4 -0.35 3.4 4.6 -0.15 8.05 -3.55 11.5 -8.45 11.5 -13.2 11.5 -16.6 8.4 L-17.15 9.25 Q-17.85 9.95 -18.85 9.95 -19.9 9.95 -20.65 9.25 -21.3 8.5 -21.3 7.5 -21.3 6.5 -20.65 5.8 -20.0 5.15 -19.1 5.05 -20.4 2.6 -20.4 -0.35 -20.4 -5.3 -16.95 -8.75 -13.4 -12.2 -8.45 -12.2 M-16.6 8.4 L-16.45 7.5 Q-16.45 6.5 -17.15 5.8 -17.85 5.05 -18.85 5.05 L-19.1 5.05 -18.85 5.05 Q-17.85 5.05 -17.15 5.8 -16.45 6.5 -16.45 7.5 L-16.6 8.4 M-0.65 2.35 L-13.35 2.35 Q-7.0 11.45 -0.65 2.35 M0.9 -4.25 Q-1.65 -7.35 -4.15 -4.25 -1.65 -7.35 0.9 -4.25" fill="#ffeaea" fill-rule="evenodd" stroke="none"/>
    <path d="M-13.1 -4.25 Q-10.6 -7.35 -8.1 -4.25 M-8.45 -12.2 Q-3.55 -12.2 -0.15 -8.75 3.4 -5.3 3.4 -0.35 3.4 4.6 -0.15 8.05 -3.55 11.5 -8.45 11.5 -13.2 11.5 -16.6 8.4 L-17.15 9.25 Q-17.85 9.95 -18.85 9.95 -19.9 9.95 -20.65 9.25 -21.3 8.5 -21.3 7.5 -21.3 6.5 -20.65 5.8 -20.0 5.15 -19.1 5.05 -20.4 2.6 -20.4 -0.35 -20.4 -5.3 -16.95 -8.75 -13.4 -12.2 -8.45 -12.2 M-19.1 5.05 L-18.85 5.05 Q-17.85 5.05 -17.15 5.8 -16.45 6.5 -16.45 7.5 L-16.6 8.4 M-0.65 2.35 Q-7.0 11.45 -13.35 2.35 L-0.65 2.35 M-4.15 -4.25 Q-1.65 -7.35 0.9 -4.25" fill="none" stroke="#000000" stroke-linecap="round" stroke-linejoin="round" stroke-width="1.5"/>
    <path d="M13.4 -4.25 Q10.9 -7.35 8.4 -4.25 10.9 -7.35 13.4 -4.25 M17.1 -8.75 Q20.65 -5.3 20.65 -0.35 20.65 4.6 17.1 8.05 13.65 11.5 8.8 11.5 4.35 11.5 1.1 8.8 0.95 9.5 0.4 10.05 -0.35 10.8 -1.35 10.8 -2.35 10.8 -3.15 10.05 -3.8 9.35 -3.8 8.35 -3.8 7.35 -3.15 6.6 -2.35 5.9 -1.4 5.9 -3.15 3.15 -3.15 -0.35 -3.15 -5.3 0.3 -8.75 3.8 -12.2 8.8 -12.2 13.65 -12.2 17.1 -8.75 M4.45 -4.25 Q1.95 -7.35 -0.55 -4.25 1.95 -7.35 4.45 -4.25 M-0.3 2.35 Q6.05 9.95 12.45 2.35 6.05 9.95 -0.3 2.35 M1.1 8.8 L1.1 8.35 Q1.1 7.35 0.4 6.6 -0.35 5.9 -1.35 5.9 L-1.4 5.9 -1.35 5.9 Q-0.35 5.9 0.4 6.6 1.1 7.35 1.1 8.35 L1.1 8.8" fill="#ffeaea" fill-rule="evenodd" stroke="none"/>
    <path d="M8.4 -4.25 Q10.9 -7.35 13.4 -4.25 M17.1 -8.75 Q20.65 -5.3 20.65 -0.35 20.65 4.6 17.1 8.05 13.65 11.5 8.8 11.5 4.35 11.5 1.1 8.8 0.95 9.5 0.4 10.05 -0.35 10.8 -1.35 10.8 -2.35 10.8 -3.15 10.05 -3.8 9.35 -3.8 8.35 -3.8 7.35 -3.15 6.6 -2.35 5.9 -1.4 5.9 -3.15 3.15 -3.15 -0.35 -3.15 -5.3 0.3 -8.75 3.8 -12.2 8.8 -12.2 13.65 -12.2 17.1 -8.75 M-1.4 5.9 L-1.35 5.9 Q-0.35 5.9 0.4 6.6 1.1 7.35 1.1 8.35 L1.1 8.8 M12.45 2.35 Q6.05 9.95 -0.3 2.35 M-0.55 -4.25 Q1.95 -7.35 4.45 -4.25" fill="none" stroke="#000000" stroke-linecap="round" stroke-linejoin="round" stroke-width="1.5"/>
  </g>
</svg>
