<?xml version="1.0" encoding="UTF-8" standalone="no"?>
<svg xmlns:xlink="http://www.w3.org/1999/xlink" height="18.0px" width="581.0px" xmlns="http://www.w3.org/2000/svg">
  <g transform="matrix(1.0, 0.0, 0.0, 1.0, -29.5, -447.45)">
    <path d="M35.25 448.45 Q30.5 448.45 30.5 452.95 L30.5 459.95 Q30.5 464.45 35.25 464.45 L604.75 464.45 Q609.5 464.45 609.5 459.95 L609.5 452.95 Q609.5 448.45 604.75 448.45 L35.25 448.45 M29.5 452.95 Q29.5 447.45 35.25 447.45 L604.75 447.45 Q610.5 447.45 610.5 452.95 L610.5 459.95 Q610.5 465.45 604.75 465.45 L35.25 465.45 Q29.5 465.45 29.5 459.95 L29.5 452.95" fill="#333333" fill-rule="evenodd" stroke="none"/>
  </g>
</svg>
