<?xml version="1.0" encoding="UTF-8" standalone="no"?>
<svg xmlns:xlink="http://www.w3.org/1999/xlink" height="22.0px" width="23.0px" xmlns="http://www.w3.org/2000/svg">
  <g transform="matrix(1.0, 0.0, 0.0, 1.0, 12.0, 11.0)">
    <path d="M7.1 -7.05 Q10.0 -4.15 10.0 0.0 10.0 4.15 7.1 7.1 4.15 10.0 0.0 10.0 -4.15 10.0 -7.05 7.1 L-7.8 6.25 -7.85 6.15 -11.0 6.25 -11.0 3.25 -9.5 3.25 Q-10.0 1.75 -10.0 0.0 -10.0 -1.75 -9.45 -3.25 L-11.0 -3.25 -11.0 -6.25 -7.8 -6.25 -7.8 -6.2 -7.05 -7.05 Q-4.15 -10.0 0.0 -10.0 4.15 -10.0 7.1 -7.05 M4.5 -2.2 L4.15 -2.8 3.55 -3.55 2.3 -4.45 1.75 -4.7 0.0 -5.0 Q-2.05 -5.0 -3.55 -3.55 -5.0 -2.05 -5.0 0.0 L-4.7 1.75 -4.45 2.35 -3.55 3.55 -2.8 4.15 -2.2 4.5 Q-1.2 5.0 0.0 5.0 2.05 5.0 3.55 3.55 5.0 2.1 5.0 0.0 5.0 -1.2 4.5 -2.2 M-9.5 3.25 L-8.9 3.25 Q-8.55 4.8 -7.85 6.15 -8.55 4.8 -8.9 3.25 L-9.5 3.25 M-7.8 -6.2 Q-8.55 -4.85 -8.85 -3.25 L-9.45 -3.25 -8.85 -3.25 Q-8.55 -4.85 -7.8 -6.2" fill="#656653" fill-rule="evenodd" stroke="none"/>
    <path d="M7.1 -7.05 Q10.0 -4.15 10.0 0.0 10.0 4.15 7.1 7.1 4.15 10.0 0.0 10.0 -4.15 10.0 -7.05 7.1 L-7.8 6.25 -7.85 6.15 -11.0 6.25 -11.0 3.25 -9.5 3.25 Q-10.0 1.75 -10.0 0.0 -10.0 -1.75 -9.45 -3.25 L-11.0 -3.25 -11.0 -6.25 -7.8 -6.25 -7.8 -6.2 -7.05 -7.05 Q-4.15 -10.0 0.0 -10.0 4.15 -10.0 7.1 -7.05 M4.5 -2.2 Q5.0 -1.2 5.0 0.0 5.0 2.1 3.55 3.55 2.05 5.0 0.0 5.0 -1.2 5.0 -2.2 4.5 L-2.8 4.15 -3.55 3.55 -4.45 2.35 -4.7 1.75 -5.0 0.0 Q-5.0 -2.05 -3.55 -3.55 -2.05 -5.0 0.0 -5.0 L1.75 -4.7 2.3 -4.45 3.55 -3.55 4.15 -2.8 4.5 -2.2 M-9.45 -3.25 L-8.85 -3.25 Q-8.55 -4.85 -7.8 -6.2 M-7.85 6.15 Q-8.55 4.8 -8.9 3.25 L-9.5 3.25" fill="none" stroke="#000000" stroke-linecap="round" stroke-linejoin="round" stroke-width="2.0"/>
    <path d="M4.5 -2.2 L-2.2 4.5 M-4.45 2.35 L2.3 -4.45" fill="none" stroke="#000000" stroke-linecap="round" stroke-linejoin="round" stroke-width="1.0"/>
  </g>
</svg>
