<?xml version="1.0" encoding="UTF-8" standalone="no"?>
<svg xmlns:xlink="http://www.w3.org/1999/xlink" height="15.65px" width="12.75px" xmlns="http://www.w3.org/2000/svg">
  <g transform="matrix(1.0, 0.0, 0.0, 1.0, 6.25, 3.05)">
    <path d="M-0.3 -1.35 Q0.75 -0.55 1.7 -0.45 L3.55 0.0 1.7 0.45 Q0.75 0.5 -0.45 1.35 -1.7 2.1 -3.55 0.0 -1.35 -2.15 -0.3 -1.35 M0.1 8.2 Q1.15 9.0 2.1 9.1 3.05 9.1 3.95 9.55 L2.1 10.0 Q1.15 10.05 -0.05 10.9 -1.3 11.65 -3.15 9.55 -0.95 7.4 0.1 8.2" fill="#ffffff" fill-rule="evenodd" stroke="none"/>
    <path d="M-0.45 -2.15 Q1.25 -0.9 2.75 -0.75 4.25 -0.7 5.75 0.0 4.25 0.65 2.75 0.75 1.2 0.8 -0.75 2.15 -2.75 3.4 -5.75 0.0 -2.15 -3.5 -0.45 -2.15 M-0.3 -1.35 Q-1.35 -2.15 -3.55 0.0 -1.7 2.1 -0.45 1.35 0.75 0.5 1.7 0.45 L3.55 0.0 1.7 -0.45 Q0.75 -0.55 -0.3 -1.35 M3.0 8.85 Q4.5 8.9 6.0 9.6 4.5 10.25 3.0 10.35 1.45 10.4 -0.5 11.75 -2.5 13.0 -5.5 9.6 -1.9 6.1 -0.2 7.45 1.5 8.7 3.0 8.85 M0.1 8.2 Q-0.95 7.4 -3.15 9.55 -1.3 11.65 -0.05 10.9 1.15 10.05 2.1 10.0 L3.95 9.55 Q3.05 9.1 2.1 9.1 1.15 9.0 0.1 8.2" fill="#ff0000" fill-rule="evenodd" stroke="none"/>
    <path d="M-0.45 -2.15 Q-2.15 -3.5 -5.75 0.0 -2.75 3.4 -0.75 2.15 1.2 0.8 2.75 0.75 4.25 0.65 5.75 0.0 4.25 -0.7 2.75 -0.75 1.25 -0.9 -0.45 -2.15 M3.0 8.85 Q1.5 8.7 -0.2 7.45 -1.9 6.1 -5.5 9.6 -2.5 13.0 -0.5 11.75 1.45 10.4 3.0 10.35 4.5 10.25 6.0 9.6 4.5 8.9 3.0 8.85" fill="none" stroke="#000000" stroke-linecap="round" stroke-linejoin="round" stroke-width="1.0"/>
  </g>
</svg>
