<?xml version="1.0" encoding="UTF-8" standalone="no"?>
<svg xmlns:xlink="http://www.w3.org/1999/xlink" height="31.7px" width="34.95px" xmlns="http://www.w3.org/2000/svg">
  <g transform="matrix(1.0, 0.0, 0.0, 1.0, -12.6, -2.9)">
    <path d="M46.0 22.55 Q44.45 28.5 39.15 31.65 33.85 34.65 27.9 33.05 22.0 31.45 18.95 26.25 L18.15 24.7 18.15 24.55 13.6 23.5 14.75 19.2 16.9 19.75 Q16.75 17.45 17.4 14.9 18.1 12.4 19.45 10.5 L17.25 9.95 18.4 5.65 22.95 6.85 22.95 6.9 Q23.6 6.4 24.35 6.0 29.65 2.85 35.55 4.45 41.5 6.05 44.55 11.4 47.6 16.65 46.0 22.55 M22.95 6.9 Q21.4 8.55 20.3 10.75 L19.45 10.5 20.3 10.75 Q21.4 8.55 22.95 6.9 M24.55 16.85 Q24.2 18.25 24.35 19.5 L24.45 20.45 Q24.7 21.45 25.3 22.5 L26.15 23.6 26.85 24.35 Q28.1 25.45 29.8 25.9 32.75 26.7 35.45 25.2 38.05 23.7 38.85 20.65 39.35 18.95 39.0 17.35 L38.75 16.35 38.2 15.05 36.7 13.25 36.0 12.7 Q35.0 11.95 33.65 11.6 30.75 10.8 28.05 12.35 25.35 13.95 24.55 16.85 M16.9 19.75 L17.75 20.0 Q17.7 22.35 18.15 24.55 17.7 22.35 17.75 20.0 L16.9 19.75" fill="#656653" fill-rule="evenodd" stroke="none"/>
    <path d="M46.0 22.55 Q44.45 28.5 39.15 31.65 33.85 34.65 27.9 33.05 22.0 31.45 18.95 26.25 L18.15 24.7 18.15 24.55 13.6 23.5 14.75 19.2 16.9 19.75 Q16.75 17.45 17.4 14.9 18.1 12.4 19.45 10.5 L17.25 9.95 18.4 5.65 22.95 6.85 22.95 6.9 Q23.6 6.4 24.35 6.0 29.65 2.85 35.55 4.45 41.5 6.05 44.55 11.4 47.6 16.65 46.0 22.55 M19.45 10.5 L20.3 10.75 Q21.4 8.55 22.95 6.9 M24.55 16.85 Q25.35 13.95 28.05 12.35 30.75 10.8 33.65 11.6 35.0 11.95 36.0 12.7 L36.7 13.25 38.2 15.05 38.75 16.35 39.0 17.35 Q39.35 18.95 38.85 20.65 38.05 23.7 35.45 25.2 32.75 26.7 29.8 25.9 28.1 25.45 26.85 24.35 L26.15 23.6 25.3 22.5 Q24.7 21.45 24.45 20.45 L24.35 19.5 Q24.2 18.25 24.55 16.85 M18.15 24.55 Q17.7 22.35 17.75 20.0 L16.9 19.75" fill="none" stroke="#000000" stroke-linecap="round" stroke-linejoin="round" stroke-width="2.0"/>
    <path d="M39.0 17.35 L26.85 24.35 M24.45 20.45 L36.7 13.25" fill="none" stroke="#000000" stroke-linecap="round" stroke-linejoin="round" stroke-width="1.0"/>
  </g>
</svg>
