<?xml version="1.0" encoding="UTF-8" standalone="no"?>
<svg xmlns:xlink="http://www.w3.org/1999/xlink" height="26.0px" width="26.0px" xmlns="http://www.w3.org/2000/svg">
  <g transform="matrix(1.0, 0.0, 0.0, 1.0, 13.0, 13.0)">
    <path d="M10.4 -0.05 Q10.4 4.2 7.35 7.3 4.3 10.4 0.0 10.4 -4.35 10.4 -7.4 7.3 -10.4 4.2 -10.4 -0.05 -10.4 -4.35 -7.4 -7.4 -4.35 -10.45 0.0 -10.45 4.3 -10.45 7.35 -7.4 10.4 -4.35 10.4 -0.05 M6.75 -6.8 Q3.95 -9.6 0.0 -9.6 -4.0 -9.6 -6.8 -6.8 -9.55 -4.0 -9.55 -0.05 -9.55 3.85 -6.8 6.7 -4.0 9.55 0.0 9.55 3.95 9.55 6.75 6.7 9.55 3.85 9.55 -0.05 9.55 -4.0 6.75 -6.8" fill="#ff6262" fill-rule="evenodd" stroke="none"/>
    <path d="M6.75 -6.8 Q9.55 -4.0 9.55 -0.05 9.55 3.85 6.75 6.7 3.95 9.55 0.0 9.55 -4.0 9.55 -6.8 6.7 -9.55 3.85 -9.55 -0.05 -9.55 -4.0 -6.8 -6.8 -4.0 -9.6 0.0 -9.6 3.95 -9.6 6.75 -6.8" fill="#ca0000" fill-rule="evenodd" stroke="none"/>
    <path d="M10.4 -0.05 Q10.4 -4.35 7.35 -7.4 4.3 -10.45 0.0 -10.45 -4.35 -10.45 -7.4 -7.4 -10.4 -4.35 -10.4 -0.05 -10.4 4.2 -7.4 7.3 -4.35 10.4 0.0 10.4 4.3 10.4 7.35 7.3 10.4 4.2 10.4 -0.05 M8.85 -8.8 Q12.5 -5.15 12.5 0.0 12.5 2.7 11.55 4.95 L10.25 7.2 8.85 8.85 Q5.15 12.5 0.0 12.5 -5.15 12.5 -8.85 8.85 -12.5 5.2 -12.5 0.0 -12.5 -5.15 -8.85 -8.8 -5.15 -12.5 0.0 -12.5 5.15 -12.5 8.85 -8.8" fill="#820000" fill-rule="evenodd" stroke="none"/>
    <path d="M8.85 -8.8 Q12.5 -5.15 12.5 0.0 12.5 2.7 11.55 4.95 L10.25 7.2 8.85 8.85 Q5.15 12.5 0.0 12.5 -5.15 12.5 -8.85 8.85 -12.5 5.2 -12.5 0.0 -12.5 -5.15 -8.85 -8.8 -5.15 -12.5 0.0 -12.5 5.15 -12.5 8.85 -8.8 Z" fill="none" stroke="#000000" stroke-linecap="round" stroke-linejoin="round" stroke-width="1.0"/>
    <path d="M2.0 -2.05 L6.75 -2.05 6.75 1.75 2.0 1.75 2.0 6.5 -1.8 6.5 -1.8 1.75 -6.55 1.75 -6.55 -2.05 -1.8 -2.05 -1.8 -6.8 2.0 -6.8 2.0 -2.05" fill="#ffffff" fill-rule="evenodd" stroke="none"/>
  </g>
</svg>
