<?xml version="1.0" encoding="UTF-8" standalone="no"?>
<svg xmlns:xlink="http://www.w3.org/1999/xlink" height="35.55px" width="42.7px" xmlns="http://www.w3.org/2000/svg">
  <g transform="matrix(1.0, 0.0, 0.0, 1.0, 21.55, 18.05)">
    <path d="M4.25 -4.85 L4.45 -4.7 4.55 -4.55 -2.15 -2.7 -1.95 -3.4 -1.75 -3.75 -1.75 -3.8 Q-0.9 -5.2 0.65 -5.55 L0.7 -5.6 Q2.25 -6.05 3.7 -5.2 L3.7 -5.25 4.3 -4.8 4.25 -4.85 M5.4 -3.15 L5.45 -3.05 5.5 -2.95 5.55 -2.8 5.6 -2.65 5.7 -2.1 5.7 -2.0 5.7 -1.65 -1.7 0.35 -1.75 0.25 -1.8 0.15 -1.9 -0.1 -1.95 -0.15 -2.0 -0.3 -2.1 -0.6 -2.1 -0.7 -2.3 -1.65 5.15 -3.7 5.3 -3.45 5.35 -3.4 5.4 -3.15 M5.6 -0.55 L5.15 0.35 5.2 0.25 Q4.35 1.7 2.75 2.1 1.15 2.55 -0.3 1.75 L-0.25 1.75 -1.05 1.2 5.6 -0.6 5.6 -0.55 M18.6 0.75 L18.95 1.65 19.0 1.6 18.95 1.85 18.9 1.85 18.95 1.9 18.9 2.0 17.35 0.45 17.6 0.35 17.7 0.35 Q18.2 0.4 18.55 0.8 L18.6 0.75 M18.4 2.7 L18.3 2.75 16.6 1.05 16.6 0.95 16.7 0.95 16.7 0.9 16.75 0.85 16.75 0.8 16.8 0.8 17.05 0.55 18.75 2.25 18.75 2.35 18.65 2.4 18.65 2.45 18.6 2.5 18.55 2.5 18.55 2.6 18.4 2.65 18.4 2.7 M-9.65 11.6 L-9.6 11.7 -9.6 11.75 -9.5 12.0 -9.5 12.05 -9.45 12.2 -12.4 13.9 -12.4 13.85 -12.5 13.8 -12.5 13.7 -12.55 13.75 -12.6 13.65 -12.65 13.55 -12.7 13.5 -12.9 13.1 -9.9 11.35 -9.8 11.45 -9.8 11.5 -9.7 11.55 -9.7 11.6 -9.65 11.6 M-12.9 12.1 Q-12.7 11.4 -12.05 11.05 L-10.7 10.85 -10.4 11.0 -10.4 10.95 -10.3 11.05 -12.95 12.65 -12.95 12.35 -12.9 12.15 -12.9 12.1 M-12.0 14.15 L-9.35 12.65 -9.4 13.05 Q-9.6 13.8 -10.25 14.15 L-11.65 14.35 -11.6 14.35 -12.0 14.15" fill="#ff0000" fill-rule="evenodd" stroke="none"/>
    <path d="M5.6 -6.3 L4.75 -6.95 4.7 -6.95 Q2.55 -8.25 0.15 -7.5 -2.25 -6.9 -3.5 -4.75 L-3.55 -4.7 -3.75 -4.3 -3.75 -4.2 -4.2 -2.75 -4.3 -1.95 -4.3 -1.9 -4.3 -1.7 -4.3 -1.55 -4.3 -1.45 -4.05 -0.15 -4.05 -0.25 -3.8 0.6 -3.65 0.85 -3.5 1.25 -3.6 0.8 -3.55 0.9 -3.3 1.55 -3.25 1.6 -2.8 2.25 -2.8 2.3 -1.3 3.45 -1.3 3.5 Q0.85 4.75 3.3 4.0 L3.25 4.05 Q5.65 3.4 6.95 1.25 L6.95 1.2 7.45 0.15 7.55 0.0 7.7 -1.4 7.7 -2.0 7.7 -2.1 7.5 -3.25 7.4 -3.6 7.3 -3.75 7.3 -3.85 7.2 -4.2 7.1 -4.35 6.75 -4.95 6.5 -5.25 6.35 -5.55 5.85 -6.1 5.65 -6.25 5.6 -6.3 M15.9 -0.55 L15.95 -0.55 16.75 -0.85 16.9 -0.95 17.0 -1.1 17.7 -1.2 18.4 -1.1 18.45 -0.95 18.65 -0.8 19.45 -0.55 19.65 -0.35 Q20.5 0.45 20.55 1.65 20.55 2.8 19.7 3.65 18.9 4.45 17.7 4.5 16.5 4.5 15.7 3.65 14.85 2.8 14.85 1.65 14.85 0.45 15.65 -0.35 L15.9 -0.55 M16.05 -1.3 L16.05 -1.5 16.4 -1.5 16.35 -1.4 16.05 -1.3 M17.5 -0.25 L17.5 -0.2 17.05 -0.15 16.8 0.0 16.75 0.0 16.7 0.05 16.65 0.05 16.35 0.35 16.35 0.3 16.2 0.5 16.15 0.6 16.05 0.7 16.2 0.6 16.15 0.65 16.05 0.8 16.0 0.8 15.9 1.05 15.85 1.05 15.8 1.65 Q15.8 2.45 16.35 3.0 16.9 3.55 17.7 3.55 L18.05 3.5 18.15 3.5 18.55 3.35 18.7 3.25 18.7 3.2 19.05 3.0 19.1 2.9 19.1 2.85 19.15 2.85 19.25 2.75 19.25 2.7 19.35 2.5 19.4 2.35 19.45 2.35 19.5 2.1 19.55 2.0 19.6 1.65 Q19.6 0.85 19.0 0.3 18.5 -0.25 17.7 -0.25 L17.5 -0.25 M19.05 -1.5 L19.3 -1.5 19.3 -1.25 19.05 -1.4 19.05 -1.5 M10.4 -4.05 Q11.3 -0.5 9.5 2.75 7.65 6.0 4.05 7.0 0.45 7.85 -2.8 6.05 -6.05 4.2 -6.95 0.65 L-7.15 -0.25 -7.15 -0.3 Q-7.1 -1.7 -6.65 -3.1 L-6.65 -3.75 -6.95 -4.15 -6.05 -6.25 -4.75 -8.0 -4.15 -7.95 Q-3.8 -8.05 -3.55 -8.3 L-1.55 -10.05 -0.6 -10.35 Q2.95 -11.35 6.2 -9.5 9.45 -7.7 10.4 -4.05 M-4.35 -11.25 L-3.75 -10.9 -4.55 -10.2 -4.85 -10.4 -4.35 -11.25 M-8.75 -2.9 L-9.0 -1.9 -9.55 -2.2 -9.05 -3.05 -8.75 -2.9 M-9.5 10.55 L-9.6 10.4 -9.85 10.2 -10.05 10.2 -10.45 10.0 Q-11.55 9.7 -12.5 10.3 -13.45 10.8 -13.75 11.9 L-13.8 11.9 -13.8 12.2 -13.8 12.85 -13.8 13.2 -13.75 13.25 -13.75 13.4 -13.7 13.4 -13.45 13.95 -13.5 13.9 -13.3 14.25 -13.2 14.3 -13.1 14.45 -12.95 14.6 -12.9 14.65 -12.65 14.8 -12.65 14.85 -11.85 15.2 Q-10.8 15.5 -9.8 14.9 L-9.85 14.9 Q-8.85 14.35 -8.55 13.3 L-8.55 13.25 -8.5 12.75 -8.45 12.7 -8.5 12.05 -8.6 11.8 -8.6 11.75 -8.85 11.3 -8.9 11.15 -9.0 11.1 -9.0 11.05 -9.1 10.9 -9.15 10.85 -9.35 10.6 -9.5 10.55 M-7.65 10.6 Q-6.85 12.05 -7.3 13.65 -7.7 15.25 -9.15 16.15 -10.6 16.9 -12.2 16.45 -13.8 16.05 -14.6 14.65 L-14.85 14.3 -14.85 14.25 -14.9 12.95 -15.0 12.7 -15.2 12.55 -15.0 11.55 -14.7 10.65 -14.4 10.6 -14.2 10.35 -13.5 9.4 -13.15 9.15 Q-11.7 8.3 -10.1 8.75 -8.5 9.1 -7.65 10.6 M-14.85 9.7 L-15.0 9.6 -14.9 9.2 -14.55 9.3 -14.85 9.7 M-15.8 13.8 L-16.1 13.7 -15.95 13.3 -15.85 13.3 -15.8 13.8" fill="#656653" fill-rule="evenodd" stroke="none"/>
    <path d="M5.6 -6.3 L5.65 -6.25 5.85 -6.1 6.35 -5.55 6.5 -5.25 6.75 -4.95 7.1 -4.35 7.2 -4.2 7.3 -3.85 7.3 -3.75 7.4 -3.6 7.5 -3.25 7.7 -2.1 7.7 -2.0 7.7 -1.4 7.55 0.0 7.45 0.15 6.95 1.2 6.95 1.25 Q5.65 3.4 3.25 4.05 L3.3 4.0 Q0.85 4.75 -1.3 3.5 L-1.3 3.45 -2.8 2.3 -2.8 2.25 -3.25 1.6 -3.3 1.55 -3.55 0.9 -3.6 0.8 -3.5 1.25 -3.65 0.85 -3.8 0.6 -4.05 -0.25 -4.05 -0.15 -4.3 -1.45 -4.3 -1.55 -4.3 -1.7 -4.3 -1.9 -4.3 -1.95 -4.2 -2.75 -3.75 -4.2 -3.75 -4.3 -3.55 -4.7 -3.5 -4.75 Q-2.25 -6.9 0.15 -7.5 2.55 -8.25 4.7 -6.95 L4.75 -6.95 5.6 -6.3 M5.6 -0.55 L5.6 -0.6 -1.05 1.2 -0.25 1.75 -0.3 1.75 Q1.15 2.55 2.75 2.1 4.35 1.7 5.2 0.25 L5.15 0.35 5.6 -0.55 M5.4 -3.15 L5.35 -3.4 5.3 -3.45 5.15 -3.7 -2.3 -1.65 -2.1 -0.7 -2.1 -0.6 -2.0 -0.3 -1.95 -0.15 -1.9 -0.1 -1.8 0.15 -1.75 0.25 -1.7 0.35 5.7 -1.65 5.7 -2.0 5.7 -2.1 5.6 -2.65 5.55 -2.8 5.5 -2.95 5.45 -3.05 5.4 -3.15 M4.25 -4.85 L4.3 -4.8 3.7 -5.25 3.7 -5.2 Q2.25 -6.05 0.7 -5.6 L0.65 -5.55 Q-0.9 -5.2 -1.75 -3.8 L-1.75 -3.75 -1.95 -3.4 -2.15 -2.7 4.55 -4.55 4.45 -4.7 4.25 -4.85 M16.7 -2.15 L16.85 -2.1 16.95 -1.95 17.0 -1.8 16.95 -1.75 17.7 -1.85 18.35 -1.75 18.4 -1.85 18.45 -2.05 18.7 -2.15 19.65 -2.15 19.85 -2.05 20.0 -1.8 19.95 -0.95 20.1 -0.8 Q21.15 0.2 21.15 1.65 21.15 3.1 20.15 4.1 19.1 5.1 17.7 5.1 16.25 5.1 15.2 4.1 14.25 3.05 14.2 1.65 14.25 0.2 15.25 -0.75 L15.2 -0.75 15.4 -1.0 15.4 -1.8 15.45 -1.95 15.55 -2.1 15.75 -2.1 16.7 -2.15 M19.05 -1.5 L19.05 -1.4 19.3 -1.25 19.3 -1.5 19.05 -1.5 M17.5 -0.25 L17.7 -0.25 Q18.5 -0.25 19.0 0.3 19.6 0.85 19.6 1.65 L19.55 2.0 19.5 2.1 19.45 2.35 19.4 2.35 19.35 2.5 19.25 2.7 19.25 2.75 19.15 2.85 19.1 2.85 19.1 2.9 19.05 3.0 18.7 3.2 18.7 3.25 18.55 3.35 18.15 3.5 18.05 3.5 17.7 3.55 Q16.9 3.55 16.35 3.0 15.8 2.45 15.8 1.65 L15.85 1.05 15.9 1.05 16.0 0.8 16.05 0.8 16.15 0.65 16.2 0.6 16.05 0.7 16.15 0.6 16.2 0.5 16.35 0.3 16.35 0.35 16.65 0.05 16.7 0.05 16.75 0.0 16.8 0.0 17.05 -0.15 17.5 -0.2 17.5 -0.25 M16.05 -1.3 L16.35 -1.4 16.4 -1.5 16.05 -1.5 16.05 -1.3 M15.9 -0.55 L15.65 -0.35 Q14.85 0.45 14.85 1.65 14.85 2.8 15.7 3.65 16.5 4.5 17.7 4.5 18.9 4.45 19.7 3.65 20.55 2.8 20.55 1.65 20.5 0.45 19.65 -0.35 L19.45 -0.55 18.65 -0.8 18.45 -0.95 18.4 -1.1 17.7 -1.2 17.0 -1.1 16.9 -0.95 16.75 -0.85 15.95 -0.55 15.9 -0.55 M7.2 -11.25 Q11.15 -9.0 12.35 -4.55 13.5 -0.2 11.25 3.75 8.95 7.7 4.6 8.95 L4.55 8.95 Q0.15 10.0 -3.8 7.8 -7.75 5.5 -8.9 1.15 L-8.9 1.2 -9.1 0.3 -11.4 -0.95 -11.8 -1.3 -11.95 -1.85 -11.8 -2.35 -10.3 -4.95 -9.95 -5.3 -9.4 -5.45 -8.9 -5.3 -8.75 -5.2 -7.8 -7.25 -6.55 -9.05 -6.75 -9.2 -7.2 -9.8 Q-7.35 -10.2 -7.1 -10.55 L-5.6 -13.15 -5.0 -13.6 -4.25 -13.5 -1.8 -12.1 -1.15 -12.3 Q3.25 -13.55 7.2 -11.25 M10.4 -4.05 Q9.45 -7.7 6.2 -9.5 2.95 -11.35 -0.6 -10.35 L-1.55 -10.05 -3.55 -8.3 Q-3.8 -8.05 -4.15 -7.95 L-4.75 -8.0 -6.05 -6.25 -6.95 -4.15 -6.65 -3.75 -6.65 -3.1 Q-7.1 -1.7 -7.15 -0.3 L-7.15 -0.25 -6.95 0.65 Q-6.05 4.2 -2.8 6.05 0.45 7.85 4.05 7.0 7.65 6.0 9.5 2.75 11.3 -0.5 10.4 -4.05 M18.4 2.7 L18.4 2.65 18.55 2.6 18.55 2.5 18.6 2.5 18.65 2.45 18.65 2.4 18.75 2.35 18.75 2.25 17.05 0.55 16.8 0.8 16.75 0.8 16.75 0.85 16.7 0.9 16.7 0.95 16.6 0.95 16.6 1.05 18.3 2.75 18.4 2.7 M18.6 0.75 L18.55 0.8 Q18.2 0.4 17.7 0.35 L17.6 0.35 17.35 0.45 18.9 2.0 18.95 1.9 18.9 1.85 18.95 1.85 19.0 1.6 18.95 1.65 18.6 0.75 M-9.5 10.55 L-9.35 10.6 -9.15 10.85 -9.1 10.9 -9.0 11.05 -9.0 11.1 -8.9 11.15 -8.85 11.3 -8.6 11.75 -8.6 11.8 -8.5 12.05 -8.45 12.7 -8.5 12.75 -8.55 13.25 -8.55 13.3 Q-8.85 14.35 -9.85 14.9 L-9.8 14.9 Q-10.8 15.5 -11.85 15.2 L-12.65 14.85 -12.65 14.8 -12.9 14.65 -12.95 14.6 -13.1 14.45 -13.2 14.3 -13.3 14.25 -13.5 13.9 -13.45 13.95 -13.7 13.4 -13.75 13.4 -13.75 13.25 -13.8 13.2 -13.8 12.85 -13.8 12.2 -13.8 11.9 -13.75 11.9 Q-13.45 10.8 -12.5 10.3 -11.55 9.7 -10.45 10.0 L-10.05 10.2 -9.85 10.2 -9.6 10.4 -9.5 10.55 M-8.75 -2.9 L-9.05 -3.05 -9.55 -2.2 -9.0 -1.9 -8.75 -2.9 M-4.35 -11.25 L-4.85 -10.4 -4.55 -10.2 -3.75 -10.9 -4.35 -11.25 M-9.65 11.6 L-9.7 11.6 -9.7 11.55 -9.8 11.5 -9.8 11.45 -9.9 11.35 -12.9 13.1 -12.7 13.5 -12.65 13.55 -12.6 13.65 -12.55 13.75 -12.5 13.7 -12.5 13.8 -12.4 13.85 -12.4 13.9 -9.45 12.2 -9.5 12.05 -9.5 12.0 -9.6 11.75 -9.6 11.7 -9.65 11.6 M-7.65 10.6 Q-8.5 9.1 -10.1 8.75 -11.7 8.3 -13.15 9.15 L-13.5 9.4 -14.2 10.35 -14.4 10.6 -14.7 10.65 -15.0 11.55 -15.2 12.55 -15.0 12.7 -14.9 12.95 -14.85 14.25 -14.85 14.3 -14.6 14.65 Q-13.8 16.05 -12.2 16.45 -10.6 16.9 -9.15 16.15 -7.7 15.25 -7.3 13.65 -6.85 12.05 -7.65 10.6 M-9.9 7.85 Q-7.95 8.35 -6.9 10.15 -5.85 11.9 -6.4 13.85 -6.95 15.85 -8.65 16.85 L-8.7 16.85 Q-10.5 17.85 -12.45 17.35 -14.4 16.85 -15.4 15.1 L-15.6 14.75 -16.75 14.45 -16.95 14.35 -17.05 14.15 -17.05 13.9 -16.7 12.6 -16.6 12.4 -16.4 12.3 -16.15 12.3 -16.1 12.3 -15.9 11.3 -15.6 10.4 -15.65 10.35 -15.95 10.15 -15.95 9.8 -15.6 8.5 -15.45 8.25 -15.1 8.2 -13.9 8.5 -13.6 8.4 Q-11.85 7.3 -9.9 7.85 M-14.85 9.7 L-14.55 9.3 -14.9 9.2 -15.0 9.6 -14.85 9.7 M-12.0 14.15 L-11.6 14.35 -11.65 14.35 -10.25 14.15 Q-9.6 13.8 -9.4 13.05 L-9.35 12.65 -12.0 14.15 M-12.9 12.1 L-12.9 12.15 -12.95 12.35 -12.95 12.65 -10.3 11.05 -10.4 10.95 -10.4 11.0 -10.7 10.85 -12.05 11.05 Q-12.7 11.4 -12.9 12.1 M-15.8 13.8 L-15.85 13.3 -15.95 13.3 -16.1 13.7 -15.8 13.8" fill="#000000" fill-rule="evenodd" stroke="none"/>
    <path d="M16.0 -10.05 Q15.7 -7.15 16.4 -4.1 16.5 -3.7 16.2 -3.5 14.45 -6.15 15.5 -9.65 15.65 -10.0 16.0 -10.05 M17.85 -8.65 Q19.05 -6.25 19.55 -3.35 19.65 -3.0 19.35 -2.8 18.2 -5.3 17.65 -8.4 L17.85 -8.65 M-9.35 -14.35 Q-11.1 -14.05 -12.1 -15.1 L-12.75 -16.1 Q-13.25 -17.15 -14.3 -17.9 L-14.15 -18.05 Q-11.8 -17.75 -11.85 -15.55 L-11.85 -15.05 -9.1 -15.25 Q-8.5 -14.45 -8.3 -13.4 -8.15 -12.65 -8.55 -12.05 -9.1 -12.25 -9.1 -13.15 -9.05 -13.8 -9.35 -14.35 M-17.65 -7.9 L-17.7 -7.55 Q-14.05 -6.8 -11.95 -4.5 L-11.95 -4.35 Q-15.1 -6.05 -18.7 -7.5 -17.65 -9.45 -19.8 -10.4 L-19.65 -10.4 Q-17.4 -10.2 -17.65 -7.9 M-16.65 8.75 L-21.35 6.75 Q-21.75 6.55 -21.25 6.45 -18.9 6.95 -16.8 8.3 -16.6 8.5 -16.65 8.75 M-18.5 12.1 Q-17.45 12.0 -17.0 12.8 L-16.95 12.95 Q-18.3 13.3 -18.6 12.15 L-18.5 12.1" fill="#cccccc" fill-rule="evenodd" stroke="none"/>
  </g>
</svg>
