<?xml version="1.0" encoding="UTF-8" standalone="no"?>
<svg xmlns:xlink="http://www.w3.org/1999/xlink" height="36.0px" width="201.0px" xmlns="http://www.w3.org/2000/svg">
  <g transform="matrix(1.0, 0.0, 0.0, 1.0, 100.5, 18.0)">
    <path d="M99.5 -12.0 Q99.5 -16.95 95.1 -17.0 L-95.1 -17.0 Q-99.5 -16.95 -99.5 -12.0 L-99.5 12.05 Q-99.5 17.0 -95.1 17.0 L95.1 17.0 Q99.5 17.0 99.5 12.05 L99.5 -12.0 M95.1 -18.0 Q100.5 -18.05 100.5 -12.0 L100.5 12.05 Q100.5 18.05 95.1 18.0 L-95.1 18.0 Q-100.5 18.05 -100.5 12.05 L-100.5 -12.0 Q-100.5 -18.05 -95.1 -18.0 L95.1 -18.0" fill="#cccccc" fill-rule="evenodd" stroke="none"/>
    <path d="M99.5 -12.0 L99.5 12.05 Q99.5 17.0 95.1 17.0 L-95.1 17.0 Q-99.5 17.0 -99.5 12.05 L-99.5 -12.0 Q-99.5 -16.95 -95.1 -17.0 L95.1 -17.0 Q99.5 -16.95 99.5 -12.0" fill="#ffffff" fill-opacity="0.09803922" fill-rule="evenodd" stroke="none"/>
  </g>
</svg>
