<?xml version="1.0" encoding="UTF-8" standalone="no"?>
<svg xmlns:xlink="http://www.w3.org/1999/xlink" height="200.0px" width="260.0px" xmlns="http://www.w3.org/2000/svg">
  <g transform="matrix(1.0, 0.0, 0.0, 1.0, 130.0, 100.0)">
    <path d="M128.45 100.0 L128.45 -83.95 Q128.45 -86.5 128.0 -88.6 125.9 -98.45 114.05 -98.45 L-114.0 -98.45 Q-128.45 -98.45 -128.45 -83.95 L-128.45 100.0 -130.0 100.0 -130.0 -83.95 Q-130.0 -100.0 -114.0 -100.0 L114.05 -100.0 Q124.35 -100.0 128.0 -93.3 130.0 -89.6 130.0 -83.95 L130.0 100.0 128.45 100.0" fill="#c3e5ee" fill-rule="evenodd" stroke="none"/>
    <path d="M-128.45 100.0 L-128.45 -83.95 Q-128.45 -98.45 -114.0 -98.45 L114.05 -98.45 Q125.9 -98.45 128.0 -88.6 128.45 -86.5 128.45 -83.95 L128.45 100.0 -128.45 100.0" fill="#000000" fill-opacity="0.8" fill-rule="evenodd" stroke="none"/>
  </g>
</svg>
