<?xml version="1.0" encoding="UTF-8" standalone="no"?>
<svg xmlns:xlink="http://www.w3.org/1999/xlink" height="40.0px" width="260.0px" xmlns="http://www.w3.org/2000/svg">
  <g transform="matrix(1.0, 0.0, 0.0, 1.0, 130.0, 20.0)">
    <path d="M128.45 -20.0 L130.0 -20.0 130.0 4.45 Q130.0 20.0 114.0 20.0 L-114.05 20.0 Q-130.0 20.0 -130.0 4.45 L-130.0 -20.0 -128.45 -20.0 -128.45 4.45 Q-128.45 18.5 -114.05 18.5 L114.0 18.5 Q128.45 18.5 128.45 4.45 L128.45 -20.0" fill="#c3e5ee" fill-rule="evenodd" stroke="none"/>
    <path d="M128.45 -20.0 L128.45 4.45 Q128.45 18.5 114.0 18.5 L-114.05 18.5 Q-128.45 18.5 -128.45 4.45 L-128.45 -20.0 128.45 -20.0" fill="#000000" fill-opacity="0.8" fill-rule="evenodd" stroke="none"/>
  </g>
</svg>
