<?xml version="1.0" encoding="UTF-8" standalone="no"?>
<svg xmlns:xlink="http://www.w3.org/1999/xlink" height="480.0px" width="640.0px" xmlns="http://www.w3.org/2000/svg">
  <g transform="matrix(1.0, 0.0, 0.0, 1.0, 0.0, 0.0)">
    <path d="M619.9 5.0 Q635.0 5.0 635.0 19.85 L635.0 460.1 Q635.0 475.0 619.9 475.0 L20.05 475.0 Q5.0 475.0 5.0 460.1 L5.0 19.85 Q5.0 5.0 20.05 5.0 L619.9 5.0" fill="#000000" fill-rule="evenodd" stroke="none"/>
    <path d="M619.9 5.0 L20.05 5.0 Q5.0 5.0 5.0 19.85 L5.0 460.1 Q5.0 475.0 20.05 475.0 L619.9 475.0 Q635.0 475.0 635.0 460.1 L635.0 19.85 Q635.0 5.0 619.9 5.0 M0.0 0.0 L640.0 0.0 640.0 480.0 0.0 480.0 0.0 0.0" fill="#ffffff" fill-opacity="0.0" fill-rule="evenodd" stroke="none"/>
  </g>
</svg>
