<?xml version="1.0" encoding="UTF-8" standalone="no"?>
<svg xmlns:xlink="http://www.w3.org/1999/xlink" height="33.0px" width="33.0px" xmlns="http://www.w3.org/2000/svg">
  <g transform="matrix(1.0, 0.0, 0.0, 1.0, 16.5, 16.5)">
    <path d="M-11.15 2.6 Q-10.75 -1.1 -8.15 -3.95 L-8.1 -4.05 -8.0 -4.2 Q-5.35 -6.8 -1.85 -7.3 L0.1 -7.5 Q4.8 -7.5 8.1 -4.2 10.95 -1.3 11.35 2.6 L11.4 3.8 Q11.4 8.6 8.1 11.8 L7.85 12.0 Q6.25 13.7 4.15 14.45 2.25 15.15 0.1 15.15 -4.6 15.15 -8.0 11.8 -11.2 8.6 -11.2 3.8 L-11.15 2.6" fill="#ddddcc" fill-rule="evenodd" stroke="none"/>
    <path d="M11.3 -11.3 Q16.0 -6.6 16.0 0.0 16.0 6.6 11.3 11.3 6.6 16.0 0.0 16.0 -6.6 16.0 -11.3 11.3 -16.0 6.6 -16.0 0.0 -16.0 -6.6 -11.3 -11.3 -6.6 -16.0 0.0 -16.0 6.6 -16.0 11.3 -11.3 M11.35 2.6 L11.4 1.3 Q11.4 -3.35 8.1 -6.7 4.8 -10.0 0.1 -10.0 L-1.85 -9.8 Q-5.35 -9.3 -8.0 -6.7 L-8.1 -6.55 -8.15 -6.45 Q-11.2 -3.15 -11.2 1.3 L-11.15 2.6 -11.2 3.8 Q-11.2 8.6 -8.0 11.8 -4.6 15.15 0.1 15.15 2.25 15.15 4.15 14.45 6.25 13.7 7.85 12.0 L8.1 11.8 Q11.4 8.6 11.4 3.8 L11.35 2.6" fill="#a5a576" fill-rule="evenodd" stroke="none"/>
    <path d="M-11.15 2.6 L-11.2 1.3 Q-11.2 -3.15 -8.15 -6.45 L-8.1 -6.55 -8.0 -6.7 Q-5.35 -9.3 -1.85 -9.8 L0.1 -10.0 Q4.8 -10.0 8.1 -6.7 11.4 -3.35 11.4 1.3 L11.35 2.6 Q10.95 -1.3 8.1 -4.2 4.8 -7.5 0.1 -7.5 L-1.85 -7.3 Q-5.35 -6.8 -8.0 -4.2 L-8.1 -4.05 -8.15 -3.95 Q-10.75 -1.1 -11.15 2.6" fill="#bdbd9b" fill-rule="evenodd" stroke="none"/>
    <path d="M11.3 -11.3 Q16.0 -6.6 16.0 0.0 16.0 6.6 11.3 11.3 6.6 16.0 0.0 16.0 -6.6 16.0 -11.3 11.3 -16.0 6.6 -16.0 0.0 -16.0 -6.6 -11.3 -11.3 -6.6 -16.0 0.0 -16.0 6.6 -16.0 11.3 -11.3 Z" fill="none" stroke="#000000" stroke-linecap="round" stroke-linejoin="round" stroke-width="1.0"/>
    <path d="M0.9 -2.45 Q2.95 -2.35 4.7 -0.7 6.55 1.15 6.55 3.3 L6.55 4.05 Q6.55 6.15 4.7 7.9 3.15 9.55 1.3 9.75 L0.45 9.75 Q-2.15 9.75 -4.0 7.9 -5.65 6.15 -5.65 3.65 -5.65 1.15 -4.0 -0.7 -2.15 -2.45 0.45 -2.45 L0.9 -2.45" fill="url(#gradient0)" fill-rule="evenodd" stroke="none"/>
    <path d="M0.9 -2.45 Q2.95 -2.35 4.7 -0.7 6.55 1.15 6.55 3.3 L6.55 4.05 Q6.55 6.15 4.7 7.9 3.15 9.55 1.3 9.75 L0.45 9.75 Q-2.15 9.75 -4.0 7.9 -5.65 6.15 -5.65 3.65 -5.65 1.15 -4.0 -0.7 -2.15 -2.45 0.45 -2.45 L0.9 -2.45 Z" fill="none" stroke="#000000" stroke-linecap="round" stroke-linejoin="round" stroke-width="1.0"/>
  </g>
  <defs>
    <radialGradient cx="0" cy="0" gradientTransform="matrix(0.0084, 0.0, 0.0, 0.0084, 0.55, 3.65)" gradientUnits="userSpaceOnUse" id="gradient0" r="819.2" spreadMethod="pad">
      <stop offset="0.0" stop-color="#ff0000"/>
      <stop offset="1.0" stop-color="#ffffff"/>
    </radialGradient>
  </defs>
</svg>
