<?xml version="1.0" encoding="UTF-8" standalone="no"?>
<svg xmlns:xlink="http://www.w3.org/1999/xlink" height="29.0px" width="29.0px" xmlns="http://www.w3.org/2000/svg">
  <g transform="matrix(1.0, 0.0, 0.0, 1.0, 14.5, 14.5)">
    <path d="M-5.4 5.25 L-5.35 5.3 Q-3.2 7.4 -0.3 7.5 L0.0 7.5 Q2.95 7.5 5.1 5.5 L5.3 5.3 Q7.45 3.15 7.5 0.1 L7.5 0.0 Q7.5 -3.05 5.35 -5.3 L5.3 -5.35 Q3.1 -7.5 0.0 -7.5 -3.05 -7.5 -5.3 -5.4 L-5.35 -5.35 Q-7.4 -3.2 -7.5 -0.25 L-7.5 0.0 Q-7.5 2.95 -5.5 5.15 L-5.4 5.25 -5.5 5.15 -4.25 3.85 -5.4 5.25 M8.8 -8.9 Q12.5 -5.2 12.5 0.0 12.5 5.2 8.8 8.8 5.2 12.5 0.0 12.5 -5.2 12.5 -8.9 8.8 -12.5 5.2 -12.5 0.0 -12.5 -5.2 -8.9 -8.9 -5.2 -12.5 0.0 -12.5 5.2 -12.5 8.8 -8.9" fill="#999999" fill-rule="evenodd" stroke="none"/>
    <path d="M0.0 -5.5 L0.0 -7.5 0.0 -5.5 M-5.5 5.15 Q-7.5 2.95 -7.5 0.0 L-7.5 -0.25 Q-7.4 -3.2 -5.35 -5.35 L-5.3 -5.4 Q-3.05 -7.5 0.0 -7.5 3.1 -7.5 5.3 -5.35 L5.35 -5.3 Q7.5 -3.05 7.5 0.0 L7.5 0.1 Q7.45 3.15 5.3 5.3 L5.1 5.5 Q2.95 7.5 0.0 7.5 L-0.3 7.5 Q-3.2 7.4 -5.35 5.3 L-5.4 5.25 -4.25 3.85 -5.5 5.15 M3.9 -3.85 L5.35 -5.3 3.9 -3.85 M-0.3 5.7 L-0.3 7.5 -0.3 5.7 M-5.75 -0.25 L-7.5 -0.25 -5.75 -0.25 M-4.0 -4.1 L-5.3 -5.4 -4.0 -4.1 M3.65 4.05 L5.1 5.5 3.65 4.05 M5.45 0.1 L7.5 0.1 5.45 0.1" fill="#cccccc" fill-rule="evenodd" stroke="none"/>
    <path d="M0.0 -7.5 L0.0 -5.5 M-5.5 5.15 Q-7.5 2.95 -7.5 0.0 L-7.5 -0.25 Q-7.4 -3.2 -5.35 -5.35 L-5.3 -5.4 Q-3.05 -7.5 0.0 -7.5 3.1 -7.5 5.3 -5.35 L5.35 -5.3 Q7.5 -3.05 7.5 0.0 L7.5 0.1 Q7.45 3.15 5.3 5.3 L5.1 5.5 Q2.95 7.5 0.0 7.5 L-0.3 7.5 Q-3.2 7.4 -5.35 5.3 L-5.4 5.25 -5.5 5.15 -4.25 3.85 -5.4 5.25 M5.35 -5.3 L3.9 -3.85 M7.5 0.1 L5.45 0.1 M5.1 5.5 L3.65 4.05 M-5.3 -5.4 L-4.0 -4.1 M-7.5 -0.25 L-5.75 -0.25 M-0.3 7.5 L-0.3 5.7" fill="none" stroke="#666666" stroke-linecap="round" stroke-linejoin="round" stroke-width="2.0"/>
    <path d="M8.8 -8.9 Q12.5 -5.2 12.5 0.0 12.5 5.2 8.8 8.8 5.2 12.5 0.0 12.5 -5.2 12.5 -8.9 8.8 -12.5 5.2 -12.5 0.0 -12.5 -5.2 -8.9 -8.9 -5.2 -12.5 0.0 -12.5 5.2 -12.5 8.8 -8.9" fill="none" stroke="#666666" stroke-linecap="round" stroke-linejoin="round" stroke-width="4.0"/>
  </g>
</svg>
