<?xml version="1.0" encoding="UTF-8" standalone="no"?>
<svg xmlns:xlink="http://www.w3.org/1999/xlink" height="14.0px" width="14.0px" xmlns="http://www.w3.org/2000/svg">
  <g transform="matrix(1.0, 0.0, 0.0, 1.0, 7.0, 7.0)">
    <path d="M4.2 -4.3 Q6.0 -2.45 6.0 0.0 6.0 2.4 4.2 4.15 2.45 6.0 0.0 6.0 -2.4 6.0 -4.3 4.15 -6.0 2.4 -6.0 0.0 -6.0 -2.45 -4.3 -4.3 -2.4 -6.0 0.0 -6.0 2.45 -6.0 4.2 -4.3" fill="#cccccc" fill-rule="evenodd" stroke="none"/>
    <path d="M4.2 -4.3 Q6.0 -2.45 6.0 0.0 6.0 2.4 4.2 4.15 2.45 6.0 0.0 6.0 -2.4 6.0 -4.3 4.15 -6.0 2.4 -6.0 0.0 -6.0 -2.45 -4.3 -4.3 -2.4 -6.0 0.0 -6.0 2.45 -6.0 4.2 -4.3 Z" fill="none" stroke="#666666" stroke-linecap="round" stroke-linejoin="round" stroke-width="2.0"/>
  </g>
</svg>
