<?xml version="1.0" encoding="UTF-8" standalone="no"?>
<svg xmlns:xlink="http://www.w3.org/1999/xlink" height="21.0px" width="21.0px" xmlns="http://www.w3.org/2000/svg">
  <g transform="matrix(1.0, 0.0, 0.0, 1.0, 10.5, 10.5)">
    <path d="M10.0 -0.1 Q10.0 -1.05 9.25 -1.8 8.5 -2.5 7.5 -2.5 6.45 -2.5 5.7 -1.8 5.0 -1.05 5.0 0.0 5.0 1.0 5.7 1.75 6.45 2.5 7.5 2.5 8.5 2.5 9.25 1.75 10.0 1.0 10.0 0.1 10.0 4.15 7.1 7.05 5.5 8.65 3.5 9.4 -3.6 0.0 3.5 -9.4 5.5 -8.65 7.1 -7.05 10.0 -4.15 10.0 -0.1" fill="#ddddcc" fill-rule="evenodd" stroke="none"/>
    <path d="M10.0 0.1 Q10.0 1.0 9.25 1.75 8.5 2.5 7.5 2.5 6.45 2.5 5.7 1.75 5.0 1.0 5.0 0.0 5.0 -1.05 5.7 -1.8 6.45 -2.5 7.5 -2.5 8.5 -2.5 9.25 -1.8 10.0 -1.05 10.0 -0.1 L10.0 0.1" fill="url(#gradient0)" fill-rule="evenodd" stroke="none"/>
    <path d="M3.5 -9.4 Q-3.6 0.0 3.5 9.4 1.85 10.0 0.0 10.0 L-1.3 9.95 Q-4.6 9.55 -7.05 7.05 -10.0 4.15 -10.0 0.0 -10.0 -4.15 -7.05 -7.05 -4.15 -10.0 0.0 -10.0 1.85 -10.0 3.5 -9.4" fill="#baba96" fill-rule="evenodd" stroke="none"/>
    <path d="M10.0 0.1 Q10.0 1.0 9.25 1.75 8.5 2.5 7.5 2.5 6.45 2.5 5.7 1.75 5.0 1.0 5.0 0.0 5.0 -1.05 5.7 -1.8 6.45 -2.5 7.5 -2.5 8.5 -2.5 9.25 -1.8 10.0 -1.05 10.0 -0.1 10.0 -4.15 7.1 -7.05 5.5 -8.65 3.5 -9.4 1.85 -10.0 0.0 -10.0 -4.15 -10.0 -7.05 -7.05 -10.0 -4.15 -10.0 0.0 -10.0 4.15 -7.05 7.05 -4.6 9.55 -1.3 9.95 L0.0 10.0 Q1.85 10.0 3.5 9.4 5.5 8.65 7.1 7.05 10.0 4.15 10.0 0.1 L10.0 -0.1" fill="none" stroke="#000000" stroke-linecap="round" stroke-linejoin="round" stroke-width="1.0"/>
  </g>
  <defs>
    <radialGradient cx="0" cy="0" gradientTransform="matrix(0.0034, 0.0, 0.0, 0.0034, 8.25, 0.1)" gradientUnits="userSpaceOnUse" id="gradient0" r="819.2" spreadMethod="pad">
      <stop offset="0.0" stop-color="#ff0000"/>
      <stop offset="1.0" stop-color="#ffffff"/>
    </radialGradient>
  </defs>
</svg>
