<?xml version="1.0" encoding="UTF-8" standalone="no"?>
<svg xmlns:xlink="http://www.w3.org/1999/xlink" height="17.0px" width="17.0px" xmlns="http://www.w3.org/2000/svg">
  <g transform="matrix(1.0, 0.0, 0.0, 1.0, 8.5, 8.5)">
    <path d="M1.15 -8.4 Q3.95 -8.1 6.0 -6.05 L6.05 -6.0 1.8 -1.75 2.2 -1.25 7.4 -4.25 Q8.5 -2.35 8.5 0.0 L8.25 2.25 2.45 0.65 2.2 1.25 7.35 4.25 6.0 5.95 Q4.35 7.65 2.25 8.25 L0.65 2.45 0.0 2.5 0.0 8.5 Q-3.5 8.5 -5.95 6.0 L-1.75 1.8 -1.8 1.75 -2.15 1.25 -7.35 4.25 Q-8.5 2.35 -8.5 0.0 L-8.2 -2.2 -2.4 -0.65 -2.15 -1.25 -7.35 -4.25 -6.0 -6.05 Q-4.35 -7.7 -2.2 -8.2 L-0.65 -2.4 0.0 -2.5 0.0 -8.5 1.15 -8.4" fill="#999999" fill-rule="evenodd" stroke="none"/>
  </g>
</svg>
