<?xml version="1.0" encoding="UTF-8" standalone="no"?>
<svg xmlns:xlink="http://www.w3.org/1999/xlink" height="15.0px" width="15.0px" xmlns="http://www.w3.org/2000/svg">
  <g transform="matrix(1.0, 0.0, 0.0, 1.0, 7.5, 7.5)">
    <path d="M4.6 -4.55 Q6.55 -2.6 6.55 0.05 6.55 2.65 4.6 4.55 2.7 6.55 0.05 6.55 -2.6 6.55 -4.55 4.55 -6.45 2.65 -6.45 0.05 -6.45 -2.6 -4.55 -4.55 -2.6 -6.45 0.05 -6.45 2.7 -6.45 4.6 -4.55" fill="#000000" fill-opacity="0.6" fill-rule="evenodd" stroke="none"/>
    <path d="M4.9 -4.95 Q6.95 -2.9 6.95 0.0 6.95 2.85 4.9 4.85 2.85 6.95 0.0 6.95 -2.85 6.95 -4.9 4.85 -6.95 2.85 -6.95 0.0 -6.95 -2.9 -4.9 -4.95 -2.85 -6.95 0.0 -6.95 2.85 -6.95 4.9 -4.95 M4.6 -4.55 Q2.7 -6.45 0.05 -6.45 -2.6 -6.45 -4.55 -4.55 -6.45 -2.6 -6.45 0.05 -6.45 2.65 -4.55 4.55 -2.6 6.55 0.05 6.55 2.7 6.55 4.6 4.55 6.55 2.65 6.55 0.05 6.55 -2.6 4.6 -4.55" fill="#484539" fill-rule="evenodd" stroke="none"/>
    <path d="M4.9 -4.95 Q2.85 -6.95 0.0 -6.95 -2.85 -6.95 -4.9 -4.95 -6.95 -2.9 -6.95 0.0 -6.95 2.85 -4.9 4.85 -2.85 6.95 0.0 6.95 2.85 6.95 4.9 4.85 6.95 2.85 6.95 0.0 6.95 -2.9 4.9 -4.95 M5.3 -5.35 Q7.5 -3.15 7.5 0.0 7.5 3.1 5.3 5.25 3.1 7.5 0.0 7.5 -3.1 7.5 -5.3 5.25 -7.5 3.1 -7.5 0.0 -7.5 -3.15 -5.3 -5.35 -3.1 -7.5 0.0 -7.5 3.1 -7.5 5.3 -5.35" fill="#343229" fill-rule="evenodd" stroke="none"/>
  </g>
</svg>
