<?xml version="1.0" encoding="UTF-8" standalone="no"?>
<svg xmlns:xlink="http://www.w3.org/1999/xlink" height="40.0px" width="40.0px" xmlns="http://www.w3.org/2000/svg">
  <g transform="matrix(1.0, 0.0, 0.0, 1.0, 20.0, 20.0)">
    <path d="M1.55 -16.1 Q7.2 -15.6 11.4 -11.45 L11.45 -11.4 11.45 -11.35 Q15.7 -7.2 16.1 -1.45 L1.55 -1.45 1.55 -16.1 M16.1 1.55 Q15.55 7.25 11.4 11.4 7.2 15.6 1.55 16.1 L1.55 1.55 16.1 1.55 M-16.1 -1.45 Q-15.65 -6.9 -11.85 -11.0 L-11.45 -11.45 Q-7.2 -15.65 -1.45 -16.1 L-1.45 -1.45 -16.1 -1.45 M-1.45 16.1 Q-7.15 15.7 -11.45 11.45 L-11.45 11.4 Q-15.6 7.2 -16.1 1.55 L-1.45 1.55 -1.45 16.1" fill="#ffffff" fill-opacity="0.24705882" fill-rule="evenodd" stroke="none"/>
    <path d="M14.15 -14.15 L14.15 -14.05 Q20.0 -8.35 20.0 0.0 L20.0 0.15 Q19.95 8.35 14.15 14.15 8.25 20.0 0.15 20.0 L0.0 20.0 Q-8.25 20.0 -14.15 14.2 L-14.15 14.15 -14.2 14.15 Q-20.0 8.35 -20.0 0.05 L-20.0 -0.05 Q-20.0 -8.35 -14.2 -14.15 L-13.8 -14.6 -13.65 -14.6 Q-8.0 -20.0 0.0 -20.0 L0.15 -20.0 Q8.35 -20.0 14.15 -14.15 M13.1 -13.1 Q7.75 -18.55 0.15 -18.55 L0.0 -18.55 Q-7.4 -18.55 -12.65 -13.5 L-12.75 -13.5 -13.15 -13.1 Q-18.55 -7.75 -18.55 -0.05 L-18.55 0.05 Q-18.55 7.75 -13.15 13.1 L-13.1 13.1 -13.1 13.15 Q-7.65 18.55 0.0 18.55 L0.15 18.55 Q7.65 18.55 13.1 13.1 18.5 7.75 18.55 0.15 L18.55 0.0 Q18.55 -7.75 13.1 -13.0 L13.1 -13.1 M16.1 -1.45 L16.1 -1.4 1.45 -1.4 1.45 -16.1 1.55 -16.1 1.55 -1.45 16.1 -1.45 M1.55 16.1 L1.45 16.1 1.45 1.45 16.1 1.45 16.1 1.55 1.55 1.55 1.55 16.1 M-1.45 -16.1 L-1.4 -16.1 -1.4 -1.4 -16.1 -1.4 -16.1 -1.45 -1.45 -1.45 -1.45 -16.1 M-16.1 1.55 L-16.1 1.45 -1.4 1.45 -1.4 16.1 -1.45 16.1 -1.45 1.55 -16.1 1.55" fill="#000000" fill-rule="evenodd" stroke="none"/>
    <path d="M1.55 -16.1 L1.45 -16.1 1.45 -1.4 16.1 -1.4 16.1 -1.45 Q15.7 -7.2 11.45 -11.35 L11.45 -11.4 11.4 -11.45 Q7.2 -15.6 1.55 -16.1 M13.1 -13.1 L13.1 -13.0 Q18.55 -7.75 18.55 0.0 L18.55 0.15 Q18.5 7.75 13.1 13.1 7.65 18.55 0.15 18.55 L0.0 18.55 Q-7.65 18.55 -13.1 13.15 L-13.1 13.1 -13.15 13.1 Q-18.55 7.75 -18.55 0.05 L-18.55 -0.05 Q-18.55 -7.75 -13.15 -13.1 L-12.75 -13.5 -12.65 -13.5 Q-7.4 -18.55 0.0 -18.55 L0.15 -18.55 Q7.75 -18.55 13.1 -13.1 M16.1 1.55 L16.1 1.45 1.45 1.45 1.45 16.1 1.55 16.1 Q7.2 15.6 11.4 11.4 15.55 7.25 16.1 1.55 M-16.1 -1.45 L-16.1 -1.4 -1.4 -1.4 -1.4 -16.1 -1.45 -16.1 Q-7.2 -15.65 -11.45 -11.45 L-11.85 -11.0 Q-15.65 -6.9 -16.1 -1.45 M-16.1 1.55 Q-15.6 7.2 -11.45 11.4 L-11.45 11.45 Q-7.15 15.7 -1.45 16.1 L-1.4 16.1 -1.4 1.45 -16.1 1.45 -16.1 1.55" fill="#333333" fill-rule="evenodd" stroke="none"/>
  </g>
</svg>
