<?xml version="1.0" encoding="UTF-8" standalone="no"?>
<svg xmlns:xlink="http://www.w3.org/1999/xlink" height="36.2px" width="127.6px" xmlns="http://www.w3.org/2000/svg">
  <g transform="matrix(1.0, 0.0, 0.0, 1.0, -122.95, -1.9)">
    <path d="M245.8 23.6 L245.9 26.7 Q246.15 26.2 246.15 21.35 245.8 21.9 245.8 23.6 M246.75 24.55 Q247.15 28.2 247.65 29.4 L247.35 24.55 246.75 24.55 M246.9 22.15 L247.1 20.75 Q247.15 19.45 246.85 19.0 L246.8 19.45 246.9 22.15 M247.9 20.45 L248.9 18.9 Q248.4 18.75 248.0 19.65 L247.9 20.45 M250.55 24.35 Q250.5 26.9 249.8 29.35 L249.55 36.1 Q249.0 38.35 246.5 37.95 L245.55 27.85 244.95 19.2 Q246.65 18.2 247.55 18.0 250.7 19.3 250.55 24.35 M248.9 29.65 L249.05 31.25 249.3 27.8 248.9 20.6 Q247.7 22.7 248.15 26.05 L248.9 29.65 M246.7 30.8 Q246.75 32.3 246.9 32.3 L247.0 30.05 246.8 29.4 246.65 29.25 246.7 30.8 M246.85 33.95 L247.05 34.9 247.05 33.2 246.85 33.95 M246.9 35.2 L246.9 35.65 247.05 36.05 246.9 35.2 M247.95 36.6 L247.9 35.8 247.8 37.0 247.95 36.6 M248.8 34.55 L248.8 33.65 248.55 35.65 248.8 34.55 M234.75 2.35 L235.1 1.9 236.05 19.35 238.2 19.1 Q239.35 19.1 239.75 19.85 L240.5 21.5 236.2 21.9 236.25 27.1 236.0 37.7 233.95 37.45 Q233.45 37.25 233.25 36.25 232.85 31.2 231.3 23.15 L231.85 21.65 231.9 21.3 232.45 20.6 232.55 20.1 231.1 19.95 229.65 19.5 233.85 19.35 234.0 15.65 Q233.8 14.85 233.4 14.85 L233.2 14.9 233.15 8.55 Q233.15 4.95 233.35 5.05 233.9 5.35 234.6 2.75 L234.75 2.35 M223.25 18.5 L223.55 18.5 223.55 17.65 223.25 17.65 223.25 18.5 M224.15 20.25 Q224.25 21.55 224.5 21.85 L224.4 20.05 Q224.25 19.0 224.1 19.0 L224.15 20.25 M233.1 20.2 L232.95 20.45 233.1 20.7 233.4 20.8 233.75 20.7 233.85 20.45 233.75 20.2 233.4 20.1 233.1 20.2 M232.95 23.3 L233.1 32.35 Q233.2 35.4 234.1 36.95 L234.85 37.0 Q235.2 36.85 235.2 35.8 235.2 34.15 234.55 31.2 233.95 28.35 234.05 23.3 L232.95 23.3 M235.35 19.35 L235.2 9.65 Q234.75 11.9 234.75 13.25 L235.35 19.35 M211.45 24.15 Q210.25 26.9 210.25 30.3 210.25 31.7 211.35 33.15 212.35 34.45 212.9 34.45 214.8 34.45 216.95 32.7 L215.55 34.15 214.9 34.8 Q216.35 34.5 218.55 32.65 L220.9 30.3 221.35 29.35 Q220.85 29.35 219.3 30.55 L218.25 31.45 219.25 30.3 Q223.0 25.75 223.0 20.65 223.0 17.6 221.0 17.0 219.2 16.45 216.65 18.15 L215.9 18.7 216.3 17.5 Q214.05 19.75 213.15 20.9 212.1 22.25 210.9 24.7 L211.45 24.15 M203.5 22.3 L203.2 18.65 Q204.6 22.3 204.95 26.4 205.6 34.45 201.55 36.95 L202.0 36.6 196.55 37.45 200.65 37.4 Q199.05 38.1 196.85 38.1 L191.85 37.45 184.3 35.3 Q184.15 34.5 184.15 28.45 183.25 28.65 183.1 28.0 183.75 25.45 184.45 18.0 185.25 9.4 185.2 1.9 L185.65 2.65 185.85 3.85 Q186.2 2.85 186.5 2.6 L187.6 2.4 Q189.5 2.4 189.45 4.7 189.1 10.55 189.05 17.55 198.3 14.65 200.25 14.65 200.8 14.65 201.45 15.45 200.75 14.95 199.8 14.95 198.65 14.95 197.05 15.75 L195.35 16.6 199.75 17.45 Q203.2 19.05 203.4 24.55 L203.5 22.3 M220.45 14.8 Q228.4 14.8 228.4 36.15 L227.9 36.85 226.2 38.1 Q225.45 37.35 224.25 28.0 L217.3 36.8 Q216.05 38.1 211.3 38.1 L207.85 37.95 Q206.5 37.55 206.5 35.35 206.5 29.4 207.6 29.0 207.35 29.1 207.75 29.6 208.25 30.25 207.8 30.25 209.5 30.25 209.6 27.9 L209.35 25.3 Q209.35 21.95 214.5 18.1 218.95 14.8 220.45 14.8 M214.4 35.35 Q213.9 35.75 211.25 36.4 L211.25 36.6 211.45 36.9 Q211.8 37.2 212.4 37.2 L214.3 35.75 214.4 35.35 M218.85 34.35 Q217.85 34.75 216.4 35.5 L213.85 37.15 213.4 37.5 Q215.25 37.85 216.45 36.9 L218.7 34.7 218.85 34.35 M207.0 36.3 Q207.45 36.9 208.5 37.55 L211.15 37.5 209.45 36.3 208.4 35.55 208.3 35.15 Q208.3 34.95 209.35 35.5 L208.9 31.35 208.75 30.55 207.75 32.0 Q207.4 32.65 208.2 33.7 L207.0 33.55 207.0 36.3 M203.7 34.4 Q203.75 34.0 203.4 33.7 L203.4 34.8 203.7 34.4 M209.9 35.85 L212.55 35.85 Q212.25 35.45 209.9 34.9 L209.9 35.85 M211.35 34.75 L211.9 34.65 209.9 31.9 209.85 34.3 210.45 34.5 211.35 34.75 M225.65 29.95 L225.75 29.95 225.35 27.1 225.65 29.95 M226.35 35.7 L225.9 35.35 226.0 37.05 226.15 37.05 Q226.45 36.95 226.35 35.7 M227.0 33.75 L227.0 32.4 226.5 31.0 Q226.8 33.25 227.0 33.75 M202.7 24.7 L201.45 24.7 Q201.9 26.7 202.7 28.3 L202.7 24.7 M186.8 6.45 L186.55 5.35 Q186.4 6.35 186.2 11.35 186.75 10.55 186.8 6.45 M188.7 7.45 L188.7 5.15 Q188.4 6.0 188.5 6.75 L188.7 7.45 M185.7 20.95 L185.7 24.7 Q186.75 24.35 186.9 20.95 L185.7 20.95 M186.9 14.65 Q186.35 17.95 186.55 20.0 L186.9 17.65 186.9 14.65 M193.95 18.0 L194.9 17.8 195.15 17.55 193.6 17.65 Q192.95 17.8 193.95 18.0 M192.9 16.9 Q188.55 17.85 188.7 20.35 L192.75 17.15 192.9 16.9 M196.05 18.3 L195.7 18.4 196.55 18.4 196.05 18.3 M194.2 19.0 Q191.7 19.0 190.15 21.45 188.15 24.65 188.15 31.65 188.15 34.1 191.35 35.15 L195.65 35.8 Q199.85 35.8 201.45 34.55 202.5 33.75 202.5 32.15 202.5 28.05 200.65 24.1 199.8 22.2 198.65 21.0 L198.85 21.15 198.5 19.9 Q197.9 19.9 196.2 19.0 L196.55 19.35 196.9 19.65 Q195.65 19.0 194.2 19.0 M200.1 19.65 Q198.45 18.1 197.6 17.7 L202.35 23.1 201.95 21.85 Q201.85 21.25 200.1 19.65 M162.05 5.4 L161.65 5.4 161.65 6.0 162.05 6.0 162.05 5.4 M164.3 6.15 L164.7 6.35 163.45 8.05 Q162.35 9.45 162.3 10.9 L161.0 9.65 158.6 11.5 158.35 10.1 158.9 9.1 159.35 7.55 Q159.35 7.05 158.25 6.65 156.95 6.25 156.2 4.4 L156.3 3.85 160.75 5.4 Q161.1 5.4 161.55 4.45 L162.4 1.9 Q162.65 2.4 162.65 6.25 L163.8 6.3 164.3 6.15 M162.25 19.65 L162.15 20.45 162.9 19.35 163.1 18.95 163.5 20.45 Q164.05 23.15 164.05 29.35 164.05 35.0 163.75 36.1 163.2 38.35 160.75 37.95 L159.8 27.85 159.2 19.2 Q161.8 15.8 163.05 18.8 L162.8 18.8 162.25 19.65 M163.15 29.65 L163.3 31.25 163.55 27.8 163.15 20.6 Q161.95 22.7 162.4 26.05 L163.15 29.65 M162.3 35.8 Q162.05 36.0 162.05 36.5 162.05 37.0 162.2 36.95 L162.3 35.8 M162.8 35.65 Q163.05 35.5 163.05 33.65 L162.85 34.8 162.8 35.65 M201.65 35.95 L202.7 35.5 Q202.55 35.35 201.8 35.8 L201.65 35.95 M185.9 26.5 Q185.35 28.0 185.35 31.25 186.45 29.55 186.75 25.2 L185.9 26.5 M186.1 32.7 L185.85 33.5 186.9 33.5 186.9 30.45 186.4 31.15 186.1 32.7 M186.55 34.0 L186.55 35.3 186.9 35.3 186.9 34.0 186.55 34.0 M187.8 34.2 L187.8 35.5 189.4 35.65 Q189.35 35.2 188.15 34.35 L187.8 34.2 M160.85 6.8 Q160.65 7.0 160.65 7.35 L160.85 7.95 161.3 8.15 161.75 7.95 161.95 7.35 Q161.95 7.0 161.75 6.8 161.55 6.55 161.3 6.55 161.05 6.55 160.85 6.8 M160.0 8.3 L159.35 9.35 160.1 9.1 160.35 8.65 160.0 8.3 M154.4 12.2 Q154.8 13.25 154.8 28.0 154.8 32.15 154.0 34.2 153.0 36.85 150.4 36.85 150.1 36.85 147.3 38.1 146.95 35.5 146.65 29.1 146.2 20.3 146.2 9.9 146.2 3.1 147.45 1.9 L147.7 2.6 147.6 2.7 148.25 2.8 150.0 2.4 152.2 2.1 Q153.05 8.75 154.4 12.2 M146.9 3.85 L146.9 14.8 147.3 16.85 147.45 17.05 Q147.35 14.3 147.55 7.25 147.7 3.8 146.9 3.85 M148.35 4.85 L148.4 8.55 Q148.6 11.45 149.65 12.5 L149.85 2.95 148.35 4.85 M151.5 20.7 L151.8 16.5 151.65 11.5 Q151.05 15.65 150.95 24.5 151.2 24.15 151.5 20.7 M142.15 22.2 Q142.15 21.9 142.25 22.2 142.35 22.5 142.35 22.15 L142.25 21.9 Q142.15 21.8 142.15 22.2 M161.0 24.55 Q161.4 28.2 161.9 29.4 L161.6 24.55 161.0 24.55 M161.05 19.9 L161.15 22.15 Q161.55 18.9 161.15 18.9 L161.05 19.9 M152.3 20.1 Q150.75 27.5 150.75 28.7 L151.0 32.1 151.55 36.35 Q154.05 33.75 154.05 29.5 154.05 21.05 153.55 15.8 153.05 11.1 152.4 10.6 153.5 14.2 152.3 20.1 M128.75 22.4 L127.35 24.7 127.45 24.7 128.15 23.65 128.75 22.4 M131.2 19.6 L132.7 17.65 132.75 17.5 128.9 22.15 131.2 19.6 M140.05 17.65 Q139.75 17.85 139.7 18.25 L140.05 18.55 140.05 17.65 M140.8 21.55 L140.95 21.85 140.8 19.55 140.55 19.0 140.8 21.55 M131.95 20.1 Q126.7 24.5 126.7 30.3 126.7 31.7 127.8 33.15 128.8 34.45 129.35 34.45 131.6 34.45 134.15 31.7 136.5 29.2 138.1 25.7 139.75 22.1 139.55 19.65 139.3 16.9 136.75 16.9 134.55 17.9 131.95 20.1 M141.45 18.2 Q144.85 23.2 144.85 36.15 L144.2 36.6 Q143.35 37.2 142.65 38.1 141.9 37.35 140.7 28.0 L133.75 36.8 Q132.5 38.1 127.75 38.1 L124.3 37.95 Q122.95 37.55 122.95 35.35 122.95 29.75 126.35 23.85 129.7 18.05 133.9 16.1 138.55 13.95 141.45 18.2 M135.3 34.35 Q132.7 34.55 130.7 36.3 L129.85 37.5 Q131.7 37.85 132.9 36.9 L135.15 34.7 135.3 34.35 M137.8 29.35 Q135.85 30.5 135.15 31.0 133.55 32.15 132.45 33.6 L131.35 34.8 Q132.8 34.5 135.0 32.65 L137.35 30.3 137.8 29.35 M126.2 29.9 Q126.2 28.75 125.7 28.75 L125.7 31.0 126.05 30.65 126.2 29.9 M124.2 30.55 L125.3 28.2 126.2 25.95 126.2 25.3 124.2 30.55 M126.3 34.3 L126.9 34.5 127.8 34.75 128.35 34.65 126.35 31.9 126.3 34.3 M126.35 35.85 L129.0 35.85 Q128.7 35.45 126.35 34.9 L126.35 35.85 M124.05 32.3 L124.7 33.8 123.45 33.55 123.45 36.3 124.95 37.55 127.6 37.5 Q126.95 37.05 126.8 36.6 L125.8 35.5 125.35 31.35 125.2 30.55 124.45 31.5 124.05 32.3 M127.7 36.8 L129.6 36.55 130.25 36.1 130.85 35.35 128.9 36.1 Q127.35 36.55 127.7 36.8 M160.15 26.7 Q160.6 25.05 160.0 21.35 L160.0 25.6 160.15 26.7 M160.9 29.25 L160.95 30.8 Q161.0 32.3 161.15 32.3 L161.25 30.05 161.05 29.4 160.9 29.25 M161.1 33.95 L161.3 34.9 161.3 33.2 161.1 33.95 M142.2 29.95 Q141.75 27.15 141.55 27.1 L142.1 29.7 142.2 29.95 M142.7 37.05 L142.75 35.35 142.35 35.35 142.7 37.05 M143.45 33.75 L143.45 32.4 142.95 31.0 Q143.25 33.25 143.45 33.75 M149.3 36.7 L149.3 28.35 148.9 32.55 Q148.6 36.7 149.3 36.7" fill="#ffffff" fill-rule="evenodd" stroke="none"/>
  </g>
</svg>
