<?xml version="1.0" encoding="UTF-8" standalone="no"?>
<svg xmlns:xlink="http://www.w3.org/1999/xlink" height="36.2px" width="126.85px" xmlns="http://www.w3.org/2000/svg">
  <g transform="matrix(1.0, 0.0, 0.0, 1.0, -122.95, -1.9)">
    <path d="M148.2 36.7 L149.3 36.7 149.3 28.35 148.2 36.7 M143.45 33.75 L143.45 32.4 Q143.45 31.5 142.95 31.0 143.15 33.45 143.45 33.75 M142.35 35.35 L142.6 37.05 Q142.8 37.05 142.8 36.45 L142.6 35.35 142.35 35.35 M161.3 33.2 Q161.1 33.2 161.1 33.95 161.1 34.7 161.3 34.9 L161.3 33.2 M161.35 35.75 L161.15 35.2 161.15 36.1 Q161.35 36.1 161.35 35.75 M161.25 30.55 Q161.2 29.35 160.9 29.25 L160.9 32.3 161.15 32.3 161.25 30.55 M127.7 36.4 L127.7 36.8 129.6 36.55 Q130.2 36.25 130.85 35.35 L127.7 36.4 M126.35 34.9 L126.35 35.85 129.0 35.85 Q129.0 35.5 128.15 35.3 L126.35 34.9 M124.05 32.3 L124.55 33.5 124.7 33.8 123.55 33.55 123.45 33.55 123.45 36.3 124.35 37.4 127.6 37.5 126.75 36.7 Q124.85 36.25 125.3 34.9 L125.35 34.85 125.8 35.5 125.2 30.55 124.7 31.15 124.05 32.3 M126.35 31.9 L126.2 33.35 Q126.2 34.5 127.25 34.7 L128.35 34.65 128.35 34.2 Q127.7 33.95 127.1 33.05 L126.35 31.9 M126.2 25.3 Q124.2 29.8 124.2 30.55 L125.35 28.4 Q126.25 26.4 126.2 25.3 M126.05 30.65 L126.2 28.75 125.7 28.75 125.7 31.0 126.05 30.65 M135.7 32.35 Q136.9 31.25 137.8 29.35 L134.9 31.1 Q133.6 32.05 131.35 34.8 134.25 33.7 135.7 32.35 M135.3 34.35 Q134.05 34.4 132.35 35.2 130.25 36.2 129.85 37.5 L131.85 37.5 133.6 36.25 Q135.05 34.95 135.3 34.35 M135.4 33.3 L135.65 33.1 135.8 32.85 Q135.55 32.9 135.45 33.1 L135.4 33.3 M141.7 27.15 L141.55 27.1 Q141.85 29.6 142.2 29.95 L141.8 27.55 141.7 27.15 M139.35 19.9 Q139.05 16.9 136.75 16.9 134.75 16.9 131.0 21.0 126.7 25.7 126.7 30.3 L126.9 31.6 127.95 33.35 Q128.7 34.45 129.35 34.45 130.5 34.45 132.85 32.75 135.75 30.6 138.2 27.15 139.6 22.6 139.35 19.9 M140.95 21.85 L140.95 20.55 140.55 19.0 Q140.55 21.4 140.95 21.85 M136.9 14.8 L140.05 16.45 Q142.1 16.45 142.85 22.55 143.05 24.05 144.0 28.1 144.85 32.35 144.85 36.15 L143.9 36.9 Q142.85 37.55 142.65 38.1 141.9 37.45 140.7 28.0 L133.6 36.95 Q132.55 38.1 128.4 38.1 L124.35 38.0 Q122.95 37.65 122.95 35.35 122.95 31.45 123.15 31.0 123.7 30.55 124.3 28.65 125.55 24.95 128.85 20.55 133.15 14.8 136.9 14.8 M139.7 18.25 L140.05 18.55 140.05 17.65 Q139.85 17.65 139.75 17.95 L139.7 18.25 M129.85 20.85 L128.9 22.15 132.75 17.5 Q132.1 17.9 129.85 20.85 M127.35 24.7 L127.45 24.7 128.75 22.4 Q127.5 24.1 127.35 24.7 M161.3 24.55 L161.0 24.55 Q161.3 28.55 161.9 29.4 161.9 28.15 161.3 24.55 M160.4 21.35 L160.0 21.35 160.0 25.6 160.15 26.7 Q160.4 26.7 160.4 21.35 M161.15 22.15 Q161.4 22.15 161.55 18.9 L161.15 18.9 Q160.9 19.2 161.15 22.15 M142.35 22.9 L142.35 22.15 142.15 22.4 142.35 22.9 M150.75 24.35 Q151.1 24.85 151.4 23.35 151.95 20.35 151.65 11.5 151.1 11.85 150.75 24.35 M150.65 7.4 L150.6 9.2 Q150.95 8.85 150.95 5.55 150.75 5.55 150.65 7.4 M149.85 2.95 Q148.35 4.3 148.35 4.85 148.35 6.1 148.85 9.15 149.35 12.2 149.65 12.5 L149.85 2.95 M147.65 3.85 L146.9 3.85 146.9 14.8 147.1 16.3 147.45 17.05 Q147.45 5.55 147.65 3.85 M160.4 8.9 Q160.4 8.6 160.2 8.45 L160.0 8.3 159.35 9.35 159.95 9.3 160.4 8.9 M161.3 6.55 Q161.05 6.55 160.85 6.8 160.65 7.0 160.65 7.35 L160.85 7.95 161.3 8.15 161.75 7.95 161.95 7.35 Q161.95 7.0 161.75 6.8 161.55 6.55 161.3 6.55 M153.05 11.6 Q152.85 10.85 152.4 10.6 152.4 16.9 151.6 23.15 L150.75 28.7 151.0 32.75 Q151.25 36.1 151.55 36.35 L151.95 36.25 153.2 34.25 Q154.05 32.5 154.05 31.3 L153.55 14.45 153.05 11.6 M152.2 2.1 L152.4 2.95 Q152.6 8.95 153.0 10.7 L153.8 12.05 Q154.8 13.45 154.8 30.95 154.8 33.0 153.3 35.3 151.95 37.4 151.2 37.4 L150.55 37.15 150.4 36.85 Q149.75 36.85 149.0 37.2 L147.3 38.1 147.1 37.55 Q147.45 37.55 146.2 9.9 146.2 5.45 146.6 3.7 L147.45 1.9 147.6 2.35 Q147.65 2.8 148.25 2.8 L149.45 2.35 Q150.1 1.9 150.6 1.9 L152.2 2.1 M188.7 34.8 L187.8 34.2 187.8 35.5 189.4 35.65 188.7 34.8 M185.85 33.5 L186.9 33.5 186.9 30.45 186.4 31.15 185.85 33.5 M186.9 34.0 L186.55 34.0 186.55 35.3 186.9 35.3 186.9 34.0 M186.75 25.2 L186.25 25.4 185.65 27.3 Q185.35 29.05 185.35 31.25 L185.75 30.9 Q186.4 28.45 186.75 25.2 M201.1 36.6 L198.5 36.95 Q196.85 37.15 196.55 37.45 L201.05 37.4 201.35 36.95 Q201.45 36.6 202.0 36.6 L201.1 36.6 M202.2 35.55 Q201.65 35.8 201.65 35.95 L202.7 35.5 202.2 35.55 M162.85 34.8 L162.8 35.65 Q163.05 35.65 163.05 33.65 162.9 33.85 162.85 34.8 M162.05 37.0 Q162.3 37.0 162.3 35.8 L161.9 36.1 162.05 37.0 M163.35 18.35 L163.8 22.65 164.05 27.45 Q164.05 35.2 163.75 35.7 L162.75 37.3 161.9 37.55 Q161.1 37.6 160.75 37.95 L159.5 24.85 159.5 19.55 159.2 19.2 Q159.05 18.8 159.65 18.8 160.15 18.8 160.75 18.4 161.3 18.0 161.8 18.0 L163.35 18.35 M163.15 19.55 L163.0 18.95 162.8 18.8 Q162.4 18.85 162.25 19.65 L162.15 20.45 162.3 20.45 163.15 19.55 M162.7 20.9 L162.4 21.2 163.3 31.25 163.55 27.5 163.15 20.6 162.7 20.9 M163.6 7.85 Q162.6 9.1 162.3 10.9 L162.2 10.85 161.0 9.65 158.6 11.5 158.4 10.65 158.35 10.1 158.9 9.0 159.35 7.55 157.8 6.15 156.2 4.4 Q156.2 3.8 156.3 3.85 L156.7 3.9 159.65 5.15 160.75 5.4 Q161.2 5.4 162.4 1.9 162.65 1.9 162.65 6.25 L163.45 6.45 164.7 6.35 163.6 7.85 M162.05 6.0 L162.05 5.4 161.65 5.4 161.65 6.0 162.05 6.0 M201.95 21.85 Q201.8 20.7 200.15 19.25 198.65 17.95 197.6 17.7 L202.35 23.1 201.95 21.85 M198.5 20.4 L197.9 19.9 196.2 19.0 197.55 20.15 198.85 21.15 198.7 20.65 198.5 20.4 M197.25 20.2 L194.2 19.0 Q188.15 19.0 188.15 31.65 188.15 33.4 190.2 34.6 192.3 35.8 195.3 35.8 L198.7 35.35 Q201.2 34.85 201.85 34.25 202.8 33.35 202.15 29.8 L201.1 25.7 Q200.35 22.15 197.25 20.2 M193.75 17.55 L193.25 17.9 Q194.7 18.15 195.15 17.55 L194.8 17.2 Q194.35 17.2 193.75 17.55 M195.7 18.4 L196.55 18.4 196.15 18.15 195.7 18.4 M202.45 17.1 Q201.6 15.25 200.4 15.25 L198.25 15.8 195.35 16.6 Q195.5 17.05 196.9 17.05 199.8 17.45 200.65 18.4 201.5 19.4 203.4 24.55 203.65 19.65 202.45 17.1 M188.7 20.35 L190.95 18.6 192.9 16.9 191.95 17.2 Q188.3 18.1 188.7 20.35 M186.05 20.0 L186.55 20.0 Q186.9 19.35 186.9 14.65 L186.05 20.0 M186.9 20.95 L185.7 20.95 185.7 24.7 Q186.2 24.7 186.75 23.9 L186.9 20.95 M186.2 12.85 L185.95 13.25 185.85 13.65 Q186.2 13.45 186.2 12.85 M188.45 6.3 Q188.45 7.25 188.7 7.45 L188.7 5.15 Q188.45 5.4 188.45 6.3 M186.2 11.35 L186.75 9.5 Q187.05 7.5 186.55 5.35 186.35 5.55 186.25 8.45 L186.2 11.35 M202.7 28.3 L202.7 24.7 201.45 24.7 Q201.9 27.15 202.35 27.95 L202.7 28.3 M227.0 33.75 L227.0 32.4 Q227.0 31.5 226.5 31.0 226.7 33.45 227.0 33.75 M226.15 37.05 Q226.4 37.05 226.4 35.95 L226.15 35.45 225.9 35.35 226.15 37.05 M225.45 28.95 L225.75 29.95 225.35 27.1 225.45 28.95 M204.6 34.0 Q203.6 36.75 202.8 37.35 201.85 38.1 196.9 38.1 L193.55 37.95 Q192.45 37.25 186.05 35.95 L185.85 34.65 Q185.0 35.3 184.3 35.3 L184.15 34.5 184.15 28.45 183.25 28.65 183.1 28.0 Q185.0 17.4 185.2 1.9 185.85 1.9 185.85 3.85 185.95 2.8 186.45 2.5 L187.2 2.4 188.0 2.4 188.9 2.85 Q189.4 3.1 189.4 3.7 L189.4 13.65 189.05 17.55 Q191.35 16.75 194.2 15.95 198.7 14.65 200.25 14.65 202.4 14.65 203.55 18.75 204.95 23.7 204.6 34.0 M209.9 34.9 L209.9 35.85 212.55 35.85 Q212.55 35.5 211.7 35.3 L209.9 34.9 M209.9 31.9 L209.75 33.35 Q209.75 34.5 210.8 34.7 L211.9 34.65 211.9 34.2 210.65 33.05 209.9 31.9 M207.1 33.55 L207.0 33.55 207.0 36.3 207.9 37.4 211.15 37.5 210.3 36.7 Q207.65 36.25 208.65 34.9 L208.8 34.75 209.35 35.5 208.75 30.55 208.3 31.15 Q207.6 32.0 207.6 32.3 L208.1 33.5 208.2 33.7 207.1 33.55 M203.9 33.7 L203.4 33.7 203.4 34.8 Q203.9 34.65 203.9 33.7 M209.4 29.65 L209.25 30.55 209.25 31.0 Q209.75 30.5 209.75 28.75 209.6 28.75 209.4 29.65 M219.25 32.35 Q220.45 31.25 221.35 29.35 220.7 29.3 218.2 31.5 215.95 33.5 214.9 34.8 217.8 33.7 219.25 32.35 M217.15 36.25 Q218.6 34.95 218.85 34.35 216.25 35.15 214.7 36.3 L213.4 37.5 215.4 37.5 217.15 36.25 M218.95 33.3 L219.2 33.1 219.35 32.85 Q219.1 32.9 219.0 33.1 L218.95 33.3 M214.05 36.05 L214.4 35.35 211.25 36.4 211.25 36.6 212.4 37.2 214.05 36.05 M210.9 24.7 L211.85 23.35 Q212.25 22.65 214.2 21.2 215.7 20.1 216.3 17.5 215.65 17.9 213.4 20.85 211.1 23.85 210.9 24.7 M220.3 16.9 Q218.3 16.9 214.55 21.0 210.25 25.7 210.25 30.3 L210.45 31.6 211.5 33.35 Q212.25 34.45 212.9 34.45 214.05 34.45 216.4 32.75 219.35 30.6 221.75 27.15 223.15 22.55 222.9 19.9 222.65 16.9 220.3 16.9 M234.05 23.3 L232.95 23.3 233.05 32.0 Q233.3 37.0 234.3 37.0 L235.05 36.9 235.15 36.6 235.2 36.25 Q235.1 32.65 234.55 31.95 234.1 31.35 234.05 23.3 M233.85 20.45 L233.75 20.2 233.4 20.1 233.1 20.2 232.95 20.45 233.1 20.7 233.4 20.8 233.75 20.7 233.85 20.45 M234.1 15.9 L233.95 15.6 Q233.95 16.5 234.2 16.85 L234.1 15.9 M223.6 16.45 Q225.65 16.45 226.4 22.55 226.6 24.0 227.55 28.05 228.4 32.35 228.4 36.15 L226.2 38.1 Q225.45 37.45 224.25 28.0 L217.15 36.95 Q216.1 38.1 211.95 38.1 L207.9 38.0 Q206.5 37.65 206.5 35.35 206.5 31.45 206.7 31.0 207.2 30.6 207.75 28.95 L207.75 30.25 208.35 29.55 Q210.0 27.85 210.0 26.2 L209.9 25.4 209.75 25.3 209.35 25.3 Q210.5 23.05 212.35 20.55 216.65 14.8 220.45 14.8 L223.6 16.45 M224.1 19.0 L224.1 21.4 224.5 21.85 Q224.5 19.4 224.1 19.0 M225.75 22.25 L225.6 22.15 Q225.6 22.6 225.9 22.9 L225.75 22.25 M223.6 17.65 L223.25 17.65 223.25 18.55 Q223.6 18.55 223.6 17.65 M233.3 5.15 Q233.55 5.45 234.85 1.9 L235.1 1.9 235.5 9.1 236.1 19.35 239.45 19.45 Q239.85 19.75 239.85 20.4 239.85 21.0 240.2 21.2 L240.5 21.5 238.65 21.7 236.2 22.05 Q236.3 33.05 236.0 37.7 235.9 37.35 235.4 37.35 L233.85 37.35 Q233.35 37.2 233.15 36.15 232.95 35.2 232.55 23.3 L231.3 23.15 231.7 22.7 Q232.1 22.5 232.1 21.95 232.1 21.35 231.85 21.4 L231.65 21.55 232.15 21.0 Q232.55 20.55 232.55 20.1 L229.65 19.9 229.65 19.55 232.95 19.35 233.2 19.35 233.85 19.35 233.4 14.85 233.2 17.1 Q233.05 5.95 233.2 5.15 L233.3 5.15 M235.2 9.65 L234.9 11.15 234.75 13.25 Q234.75 14.25 235.3 19.35 L235.2 9.65 M248.55 35.65 Q248.8 35.65 248.8 33.65 248.65 33.85 248.6 34.8 L248.55 35.65 M246.9 35.2 L246.9 36.1 Q247.1 36.1 247.1 35.75 L246.9 35.2 M248.05 35.8 L247.9 35.8 Q247.65 36.15 247.8 37.0 248.05 37.0 248.05 35.8 M247.05 33.2 Q246.85 33.2 246.85 33.95 246.85 34.7 247.05 34.9 L247.05 33.2 M247.0 30.55 Q246.95 29.35 246.65 29.25 L246.65 32.3 246.9 32.3 247.0 30.55 M248.45 20.9 L248.15 21.2 249.05 31.25 249.3 27.5 248.9 20.6 Q248.75 20.6 248.45 20.9 M246.15 21.35 Q245.9 21.35 245.8 23.6 L245.9 26.7 Q246.15 26.7 246.15 21.35 M247.05 24.55 L246.75 24.55 Q247.05 28.55 247.65 29.4 247.65 28.15 247.05 24.55 M248.0 19.65 L247.9 20.45 248.45 19.9 248.9 18.9 248.55 18.8 Q248.15 18.85 248.0 19.65 M247.3 18.9 L246.85 19.0 246.65 19.1 246.9 22.15 Q247.15 22.15 247.3 18.9 M246.5 18.4 Q247.05 18.0 247.55 18.0 L249.1 18.35 249.55 22.65 249.8 27.45 Q249.8 35.2 249.5 35.7 L248.5 37.3 247.65 37.55 Q246.85 37.6 246.5 37.95 L245.25 24.85 245.25 19.55 244.95 19.2 Q244.8 18.8 245.4 18.8 245.9 18.8 246.5 18.4" fill="#ffffff" fill-rule="evenodd" stroke="none"/>
  </g>
</svg>
