<?xml version="1.0" encoding="UTF-8" standalone="no"?>
<svg xmlns:xlink="http://www.w3.org/1999/xlink" height="36.2px" width="110.4px" xmlns="http://www.w3.org/2000/svg">
  <g transform="matrix(1.0, 0.0, 0.0, 1.0, -131.4, -1.9)">
    <path d="M151.7 33.7 L151.7 34.8 Q152.2 34.65 152.2 33.7 L151.7 33.7 M149.4 36.6 L147.35 36.95 144.85 37.45 148.55 37.45 149.7 37.15 150.3 36.6 149.4 36.6 M150.5 35.55 Q149.95 35.8 149.95 35.95 150.5 35.95 151.0 35.5 L150.5 35.55 M158.2 34.9 L158.2 35.85 160.85 35.85 Q160.85 35.5 160.0 35.3 L158.2 34.9 M158.95 33.05 L158.2 31.9 158.05 33.35 Q158.05 34.5 159.1 34.7 L160.2 34.65 160.2 34.2 Q159.55 33.95 158.95 33.05 M156.4 33.5 L156.55 33.8 155.4 33.55 155.3 33.55 155.3 36.3 156.2 37.4 159.45 37.5 158.6 36.7 Q156.4 36.25 157.1 34.9 L157.15 34.85 157.65 35.5 157.05 30.55 156.6 31.15 Q155.9 32.0 155.9 32.3 L156.4 33.5 M157.2 28.4 Q158.1 26.4 158.05 25.3 156.05 29.8 156.05 30.55 L157.2 28.4 M157.7 29.65 L157.55 30.55 157.55 31.0 Q158.05 30.5 158.05 28.75 157.9 28.75 157.7 29.65 M136.1 34.2 L136.1 35.5 137.7 35.65 137.0 34.8 136.1 34.2 M135.2 34.0 L134.85 34.0 134.85 35.3 135.2 35.3 135.2 34.0 M135.05 25.2 L134.55 25.4 Q134.25 25.85 133.95 27.3 133.65 29.05 133.65 31.25 L134.05 30.9 Q134.7 28.45 135.05 25.2 M135.2 30.45 L135.0 30.65 Q134.15 32.65 134.15 33.5 L135.2 32.85 135.2 30.45 M134.35 20.0 L135.2 20.0 135.2 14.65 134.35 20.0 M135.05 23.9 L135.2 20.95 134.0 20.95 134.0 24.7 Q134.5 24.7 135.05 23.9 M134.5 12.85 L134.25 13.25 134.15 13.65 Q134.5 13.45 134.5 12.85 M141.2 16.9 Q140.15 17.25 138.95 18.05 137.3 19.15 137.0 20.35 L139.25 18.6 141.2 16.9 M136.75 6.3 Q136.75 7.25 137.0 7.45 L137.0 5.15 Q136.75 5.4 136.75 6.3 M134.85 5.35 L134.5 5.35 134.5 11.35 135.05 9.5 Q135.35 7.5 134.85 5.35 M148.55 24.0 Q146.45 20.45 143.65 19.65 140.65 18.8 138.7 21.55 136.45 24.7 136.45 31.65 136.45 33.4 138.5 34.6 140.6 35.8 143.6 35.8 L147.7 35.3 Q150.8 34.5 150.8 32.6 150.8 27.75 148.55 24.0 M150.25 21.85 Q150.1 20.7 148.45 19.25 146.95 17.95 145.9 17.7 L150.65 23.1 150.25 21.85 M151.0 24.7 L149.75 24.7 Q150.2 27.15 150.65 27.95 L151.0 28.3 151.0 24.7 M146.2 19.9 L144.5 19.0 145.85 20.15 147.15 21.15 147.0 20.65 146.8 20.4 146.2 19.9 M144.0 18.4 L144.85 18.4 144.45 18.15 Q144.25 18.15 144.0 18.4 M143.45 17.55 L141.8 17.85 Q140.75 18.2 141.55 18.05 L142.4 18.05 Q143.35 18.05 143.45 17.55 M143.65 16.6 Q143.8 17.05 145.2 17.05 148.1 17.45 148.95 18.4 149.8 19.4 151.7 24.55 L151.85 22.9 Q151.85 12.35 143.65 16.6 M149.9 15.1 Q150.6 15.6 151.4 17.35 L152.25 19.8 152.95 24.9 153.45 29.6 Q153.45 35.1 151.7 36.7 150.2 38.1 145.2 38.1 L141.85 37.95 Q140.75 37.25 134.35 35.95 L134.15 34.65 Q133.3 35.3 132.6 35.3 L132.45 34.5 132.45 28.45 131.55 28.65 131.4 28.0 Q133.3 17.4 133.5 1.9 134.15 1.9 134.15 3.85 134.25 2.8 134.75 2.5 L135.5 2.4 136.3 2.4 137.2 2.85 Q137.7 3.1 137.7 3.7 L137.7 13.65 137.35 17.55 Q139.2 17.55 141.9 16.6 L147.45 14.8 Q149.05 14.5 149.9 15.1 M195.2 35.2 L195.2 36.1 195.4 35.75 195.2 35.2 M195.95 36.1 L196.1 37.0 Q196.35 37.0 196.35 35.8 L195.95 36.1 M196.9 34.8 L196.85 35.65 Q197.1 35.65 197.1 33.65 196.95 33.85 196.9 34.8 M195.35 33.2 Q195.15 33.2 195.15 33.95 L195.35 34.9 195.35 33.2 M195.3 30.55 Q195.25 29.35 194.95 29.25 L194.95 32.3 195.2 32.3 195.3 30.55 M201.3 30.55 L202.45 28.4 Q203.35 26.4 203.3 25.3 201.3 29.8 201.3 30.55 M165.45 36.25 Q166.9 34.95 167.15 34.35 166.45 34.4 164.65 35.4 162.6 36.5 161.7 37.5 L163.7 37.5 165.45 36.25 M167.25 33.3 L167.5 33.1 167.65 32.85 Q167.4 32.9 167.3 33.1 L167.25 33.3 M162.35 36.05 L162.7 35.35 159.55 36.4 159.55 36.6 Q159.65 36.85 160.7 37.2 L162.35 36.05 M166.75 31.1 Q165.5 32.0 163.2 34.8 166.1 33.7 167.55 32.35 168.75 31.25 169.65 29.35 167.55 30.55 166.75 31.1 M175.3 32.4 Q175.3 31.5 174.8 31.0 175.0 33.45 175.3 33.75 L175.3 32.4 M174.45 35.35 Q174.15 35.35 174.45 37.05 L174.7 35.95 174.45 35.35 M173.75 28.95 L174.05 29.95 173.65 27.1 173.75 28.95 M182.15 20.45 L182.05 20.2 181.7 20.1 181.4 20.2 181.25 20.45 181.4 20.7 181.7 20.8 182.05 20.7 182.15 20.45 M174.2 22.9 L174.2 22.15 174.0 22.4 174.2 22.9 M172.4 19.0 L172.4 21.4 172.8 21.85 Q172.8 19.4 172.4 19.0 M162.45 21.15 L162.75 20.95 Q161.5 22.4 160.5 24.15 158.55 27.65 158.55 30.3 158.55 31.3 158.75 31.6 L159.8 33.35 Q160.55 34.45 161.2 34.45 162.9 34.45 166.4 31.3 171.15 27.0 171.15 21.0 171.15 17.2 169.2 16.8 167.45 16.5 164.85 18.75 L163.6 19.95 Q164.3 18.95 164.6 17.5 163.9 17.45 161.65 20.6 159.75 23.25 159.3 24.4 L159.3 24.65 Q159.3 24.15 159.6 23.9 L160.15 23.35 Q160.55 22.55 162.45 21.15 M168.75 14.8 L170.85 16.0 Q172.45 16.9 172.15 16.0 172.55 16.2 173.35 17.95 L174.4 20.85 175.6 27.85 176.7 36.15 175.75 36.9 Q174.7 37.55 174.5 38.1 173.75 37.45 172.55 28.0 L165.45 36.95 Q164.4 38.1 160.25 38.1 L155.9 37.85 Q154.8 37.45 154.8 35.35 154.8 31.45 155.0 31.0 155.55 30.55 156.15 28.65 157.4 24.95 160.7 20.55 165.0 14.8 168.75 14.8 M171.55 18.55 Q171.9 18.55 171.9 17.65 L171.55 17.65 171.55 18.55 M194.45 21.35 Q194.2 21.35 194.1 23.6 L194.2 26.7 Q194.45 26.7 194.45 21.35 M195.35 24.55 L195.05 24.55 Q195.35 28.55 195.95 29.4 195.95 28.15 195.35 24.55 M196.75 20.9 L196.45 21.2 197.35 31.25 197.6 27.5 197.2 20.6 Q197.05 20.6 196.75 20.9 M195.6 18.9 L195.15 19.0 194.95 19.1 195.2 22.15 Q195.45 22.15 195.6 18.9 M197.05 18.95 L196.85 18.8 Q196.45 18.85 196.3 19.65 L196.2 20.45 196.35 20.45 197.2 19.55 197.05 18.95 M195.15 18.35 L196.6 18.3 Q198.1 19.25 198.1 27.45 198.1 35.2 197.8 35.7 L196.8 37.3 195.95 37.55 Q195.15 37.6 194.8 37.95 L193.55 24.85 193.55 19.55 193.25 19.2 Q193.1 18.8 193.7 18.8 L195.15 18.35 M182.25 15.6 L182.25 16.5 Q182.45 16.75 182.45 16.3 L182.25 15.6 M182.35 3.9 L183.25 1.9 183.4 4.0 183.4 6.05 Q184.15 11.1 184.4 19.35 L187.8 19.45 Q188.15 19.75 188.15 20.4 188.15 21.0 188.5 21.2 L188.8 21.5 186.95 21.7 184.5 22.05 Q184.6 33.05 184.3 37.7 184.2 37.35 183.7 37.35 L182.2 37.35 181.75 37.0 183.25 36.85 183.5 36.25 Q183.4 32.65 182.85 31.95 182.4 31.35 182.35 23.3 L181.25 23.3 181.25 26.55 Q181.6 29.6 181.6 36.7 L181.45 36.15 180.85 23.3 179.6 23.15 Q179.6 22.95 180.0 22.7 180.4 22.5 180.4 21.95 180.4 21.35 180.15 21.4 L179.95 21.55 180.45 21.0 Q180.85 20.55 180.85 20.1 L177.95 19.9 177.95 19.55 181.25 19.35 181.5 19.35 182.15 19.35 181.7 14.85 181.5 17.1 Q181.35 5.95 181.5 5.15 L181.6 5.15 Q181.8 5.35 182.35 3.9 M183.5 9.65 L183.2 11.15 183.05 13.25 Q183.05 14.25 183.6 19.35 L183.5 9.65 M194.25 9.2 L194.45 8.45 Q194.2 8.35 193.8 8.85 L193.4 9.35 193.65 9.35 194.25 9.2 M195.8 7.95 L196.0 7.35 195.8 6.8 195.35 6.55 194.9 6.8 194.7 7.35 194.9 7.95 195.35 8.15 195.8 7.95 M193.7 5.15 L194.8 5.4 Q195.25 5.4 196.45 1.9 L196.7 6.25 197.5 6.45 198.75 6.35 197.6 7.85 Q196.6 9.1 196.35 10.9 L196.25 10.85 195.05 9.65 192.65 11.5 192.45 10.65 192.4 10.1 192.95 9.0 193.4 7.55 191.85 6.15 190.25 4.4 Q190.25 3.8 190.35 3.85 L190.75 3.9 193.7 5.15 M196.1 5.4 L195.7 5.4 195.7 6.0 196.1 6.0 196.1 5.4 M225.3 36.7 L226.4 36.7 226.4 28.35 225.3 36.7 M238.25 35.2 L238.25 36.1 238.45 35.75 238.25 35.2 M239.0 36.1 L239.15 37.0 Q239.4 37.0 239.4 35.8 L239.0 36.1 M239.95 34.8 L239.9 35.65 Q240.15 35.65 240.15 33.65 240.0 33.85 239.95 34.8 M238.4 33.2 Q238.2 33.2 238.2 33.95 L238.4 34.9 238.4 33.2 M238.35 30.55 Q238.3 29.35 238.0 29.25 L238.0 32.3 238.25 32.3 238.35 30.55 M204.7 37.5 L203.85 36.7 Q201.25 36.25 202.2 34.9 L202.35 34.7 202.9 35.5 202.3 30.55 202.2 30.55 201.6 31.35 Q201.15 32.0 201.15 32.3 L201.65 33.5 201.75 33.75 200.65 33.55 200.55 34.35 201.1 37.3 204.7 37.5 M210.7 36.25 L212.4 34.35 Q209.8 35.15 208.25 36.3 L206.95 37.5 208.95 37.5 210.7 36.25 M204.8 36.4 L204.8 36.8 206.7 36.55 207.95 35.35 204.8 36.4 M203.45 34.9 L203.45 35.85 206.1 35.85 Q206.1 35.5 205.25 35.3 L203.45 34.9 M204.2 33.05 L203.45 31.9 203.3 32.95 Q203.7 34.5 204.1 34.65 L205.45 34.65 205.45 34.2 204.2 33.05 M203.15 30.65 L203.3 28.75 202.8 28.75 202.8 31.0 203.15 30.65 M212.8 32.35 Q214.0 31.25 214.9 29.35 214.2 29.3 211.75 31.5 209.5 33.45 208.45 34.8 211.35 33.7 212.8 32.35 M220.05 31.0 Q220.25 33.45 220.55 33.75 L220.55 32.4 Q220.55 31.5 220.05 31.0 M219.95 35.95 L219.7 35.35 Q219.4 35.35 219.7 37.05 219.95 37.05 219.95 35.95 M212.75 33.1 L212.9 32.85 212.5 32.85 212.5 33.3 212.75 33.1 M219.0 28.95 L219.3 29.95 218.9 27.1 219.0 28.95 M219.45 22.9 L219.45 22.15 219.25 22.4 219.45 22.9 M217.65 19.0 L217.65 21.4 218.05 21.85 Q218.05 19.4 217.65 19.0 M217.15 17.65 L216.8 17.65 Q216.8 18.25 217.05 18.55 L217.15 17.65 M204.45 24.7 L204.55 24.7 205.0 23.5 204.45 24.7 M209.85 17.65 Q209.15 17.4 206.9 20.6 L206.35 21.35 209.85 17.65 M204.9 21.9 Q206.55 17.25 210.0 15.4 212.8 13.9 214.35 14.9 L217.15 16.45 Q219.2 16.45 219.95 22.55 220.15 24.05 221.1 28.1 221.95 32.35 221.95 36.15 L221.0 36.9 Q219.95 37.55 219.75 38.1 219.0 37.45 217.8 28.0 L210.7 36.95 Q209.65 38.1 205.5 38.1 L201.15 37.85 Q200.05 37.45 200.05 35.35 L200.35 32.8 200.8 30.65 Q201.25 28.75 201.75 27.4 202.7 24.9 204.9 21.9 M210.1 18.75 Q207.6 20.95 205.75 24.15 203.8 27.65 203.8 30.3 L204.0 31.6 205.05 33.35 Q205.8 34.45 206.45 34.45 208.15 34.45 211.65 31.3 216.4 27.0 216.4 21.0 216.4 17.2 214.45 16.8 212.7 16.5 210.1 18.75 M238.4 24.55 L238.1 24.55 Q238.4 28.55 239.0 29.4 239.0 28.15 238.4 24.55 M239.8 20.9 L239.5 21.2 240.4 31.25 240.65 27.5 240.25 20.6 239.8 20.9 M238.65 18.9 L238.2 19.0 238.0 19.1 238.25 22.15 Q238.5 22.15 238.65 18.9 M240.1 18.95 L239.9 18.8 Q239.5 18.85 239.35 19.65 L239.25 20.45 239.4 20.45 240.25 19.55 240.1 18.95 M237.5 21.35 Q237.25 21.35 237.15 23.6 L237.25 26.7 Q237.5 26.7 237.5 21.35 M238.2 18.35 L239.65 18.3 Q241.15 19.25 241.15 27.45 241.15 35.2 240.85 35.7 L239.85 37.3 239.0 37.55 Q238.2 37.6 237.85 37.95 L236.6 24.85 236.6 19.55 236.3 19.2 Q236.15 18.8 236.75 18.8 L238.2 18.35 M227.85 24.35 Q228.2 24.85 228.5 23.35 229.05 20.35 228.75 11.5 228.2 11.85 227.85 24.35 M230.15 11.6 Q229.95 10.85 229.5 10.6 229.5 16.9 228.7 23.15 L227.85 28.7 228.1 32.75 Q228.35 36.1 228.65 36.35 L229.05 36.25 230.3 34.25 Q231.15 32.5 231.15 31.3 L230.65 14.45 230.15 11.6 M227.75 7.4 L227.7 9.2 Q228.05 8.85 228.05 5.55 227.85 5.55 227.75 7.4 M226.95 2.95 Q225.45 4.3 225.45 4.85 225.45 6.1 225.95 9.15 226.45 12.2 226.75 12.5 L226.95 2.95 M229.3 2.1 L229.5 2.95 Q229.7 8.95 230.1 10.7 L230.9 12.05 Q231.9 13.45 231.9 30.95 231.9 33.0 230.4 35.3 229.05 37.4 228.3 37.4 227.7 37.4 227.65 37.15 L227.5 36.85 226.1 37.2 224.4 38.1 224.2 37.55 Q224.5 37.55 223.55 15.15 L224.55 17.05 Q224.55 5.55 224.75 3.85 L223.45 5.65 223.7 3.7 224.55 1.9 224.7 2.35 Q224.75 2.8 225.35 2.8 L226.55 2.35 Q227.2 1.9 227.7 1.9 L229.3 2.1 M239.05 7.35 L238.85 6.8 238.4 6.55 Q238.15 6.55 237.95 6.8 L237.75 7.35 237.95 7.95 Q238.15 8.15 238.4 8.15 L238.85 7.95 239.05 7.35 M237.5 8.45 Q237.25 8.35 236.85 8.85 L236.45 9.35 236.7 9.35 237.3 9.2 237.5 8.45 M236.75 5.15 L237.85 5.4 Q238.3 5.4 239.5 1.9 239.75 1.9 239.75 6.25 L240.55 6.45 241.8 6.35 240.7 7.85 Q239.7 9.1 239.4 10.9 L239.3 10.85 238.1 9.65 235.7 11.5 235.5 10.65 235.45 10.1 236.0 9.0 236.45 7.55 234.9 6.15 233.3 4.4 Q233.3 3.8 233.4 3.85 L233.8 3.9 236.75 5.15 M239.15 6.0 L239.15 5.4 238.75 5.4 238.75 6.0 239.15 6.0" fill="#ffffff" fill-rule="evenodd" stroke="none"/>
  </g>
</svg>
