<?xml version="1.0" encoding="UTF-8" standalone="no"?>
<svg xmlns:xlink="http://www.w3.org/1999/xlink" height="36.2px" width="110.4px" xmlns="http://www.w3.org/2000/svg">
  <g transform="matrix(1.0, 0.0, 0.0, 1.0, -131.4, -1.9)">
    <path d="M239.5 1.9 Q239.75 2.4 239.75 6.25 L240.9 6.3 241.4 6.15 241.8 6.35 240.55 8.05 Q239.45 9.45 239.4 10.9 L238.1 9.65 235.7 11.5 235.45 10.1 236.0 9.1 236.45 7.55 Q236.45 7.05 235.35 6.65 234.05 6.25 233.3 4.4 L233.4 3.85 237.85 5.4 238.65 4.45 239.5 1.9 M239.15 6.0 L239.15 5.4 238.75 5.4 238.75 6.0 239.15 6.0 M237.5 8.45 Q237.1 8.55 236.45 9.35 L237.05 9.05 237.5 8.45 M238.85 6.8 L238.4 6.55 Q238.15 6.55 237.95 6.8 L237.75 7.35 237.95 7.95 Q238.15 8.15 238.4 8.15 L238.85 7.95 239.05 7.35 238.85 6.8 M227.1 2.4 L229.3 2.1 Q230.15 8.75 231.5 12.2 231.9 13.25 231.9 28.0 231.9 32.15 231.1 34.2 230.1 36.85 227.5 36.85 227.2 36.85 224.4 38.1 L223.55 15.15 224.55 17.05 224.75 3.85 224.25 4.65 223.45 5.65 Q223.6 3.75 223.8 3.3 L224.55 1.9 224.8 2.6 224.7 2.7 225.35 2.8 227.1 2.4 M225.45 4.85 L225.5 8.55 Q225.7 11.45 226.75 12.5 L226.95 2.95 225.45 4.85 M228.6 20.7 L228.9 16.5 228.75 11.5 Q228.15 15.65 228.05 24.5 228.3 24.15 228.6 20.7 M237.15 23.6 L237.25 26.7 237.5 21.35 Q237.15 21.9 237.15 23.6 M239.5 21.2 L240.4 31.25 Q240.7 28.9 240.25 20.6 L239.5 21.2 M240.0 19.35 L240.2 19.0 Q240.6 19.7 240.8 21.1 241.15 23.3 241.15 28.9 241.15 35.0 240.85 36.15 240.35 38.25 237.85 37.95 L236.9 27.85 236.3 19.2 Q236.7 18.85 237.45 18.55 L239.05 18.2 Q239.65 18.2 240.05 18.8 L239.9 18.8 239.35 19.65 239.25 20.45 240.0 19.35 M238.0 19.1 L238.25 22.15 Q238.45 22.05 238.65 18.9 L238.0 19.1 M238.1 24.55 Q238.5 28.2 239.0 29.4 L238.7 24.55 238.1 24.55 M229.4 20.1 Q227.85 27.5 227.85 28.7 L228.1 32.1 228.65 36.35 Q231.15 33.75 231.15 29.5 231.15 21.05 230.65 15.8 230.15 11.1 229.5 10.6 230.6 14.2 229.4 20.1 M206.35 21.35 L209.85 17.65 Q209.05 17.8 206.9 20.6 L206.35 21.35 M217.05 18.55 L217.1 18.05 Q217.05 17.65 216.8 17.65 L217.05 18.55 M214.45 16.8 Q212.75 16.8 208.95 19.95 203.8 24.25 203.8 30.3 203.8 32.0 205.05 33.35 206.05 34.45 206.7 34.45 208.35 34.45 210.15 33.0 L209.1 34.15 208.45 34.8 Q209.9 34.5 212.1 32.65 L214.45 30.3 214.9 29.35 Q214.4 29.35 212.85 30.55 L211.85 31.4 212.8 30.25 Q216.4 25.65 216.4 20.55 216.4 18.65 215.7 17.6 215.15 16.8 214.45 16.8 M218.05 21.85 L217.95 20.05 217.65 19.0 217.7 20.25 Q217.8 21.55 218.05 21.85 M219.35 22.2 Q219.45 22.5 219.45 22.15 L219.35 21.9 Q219.25 21.8 219.25 22.2 219.25 21.9 219.35 22.2 M219.2 29.95 L219.3 29.95 218.9 27.1 219.2 29.95 M212.7 32.9 L212.5 33.3 212.9 32.85 212.7 32.9 M219.7 35.35 L219.55 35.8 Q219.65 37.05 219.85 37.0 220.05 36.2 219.7 35.35 M220.55 32.4 L220.05 31.0 Q220.35 33.25 220.55 33.75 L220.55 32.4 M221.3 36.6 Q220.45 37.2 219.75 38.1 219.0 37.35 217.8 28.0 L210.85 36.8 Q209.6 38.1 204.85 38.1 L201.4 37.95 Q200.05 37.55 200.05 35.35 201.0 30.0 203.05 24.8 207.1 14.55 212.5 14.55 221.95 14.55 221.95 36.15 L221.3 36.6 M203.3 25.3 L201.3 30.55 202.4 28.2 203.3 25.95 203.3 25.3 M203.3 29.9 Q203.3 28.75 202.8 28.75 L202.8 31.0 203.15 30.65 203.3 29.9 M204.6 34.7 L205.45 34.65 203.45 31.9 Q203.25 33.4 203.9 34.55 L204.6 34.7 M203.45 35.85 L206.1 35.85 Q205.8 35.45 203.45 34.9 L203.45 35.85 M207.35 36.1 L207.95 35.35 206.0 36.1 Q204.45 36.55 204.8 36.8 L206.7 36.55 207.35 36.1 M209.95 35.5 Q208.2 36.45 207.4 37.15 L206.95 37.5 Q208.9 37.9 210.6 36.5 L212.4 34.35 Q211.4 34.75 209.95 35.5 M238.0 29.25 L238.05 30.8 Q238.1 32.3 238.25 32.3 L238.35 30.05 238.15 29.4 238.0 29.25 M238.2 33.95 L238.4 34.9 238.4 33.2 238.2 33.95 M238.25 35.65 L238.4 36.05 238.25 35.2 238.25 35.65 M239.1 36.55 L239.3 36.95 239.3 36.3 Q239.25 35.9 239.0 36.1 L239.1 36.55 M239.9 35.65 L240.15 33.65 239.95 34.8 239.9 35.65 M226.4 36.7 L226.4 28.35 226.0 32.55 Q225.7 36.7 226.4 36.7 M195.65 4.45 L196.45 1.9 196.7 6.45 198.35 6.15 198.75 6.35 197.4 7.95 Q196.4 9.35 196.35 10.9 L195.05 9.65 192.65 11.5 192.4 10.1 192.95 9.1 193.4 7.55 Q193.4 7.05 192.3 6.65 191.0 6.25 190.25 4.4 L190.35 3.85 194.8 5.4 Q195.15 5.4 195.65 4.45 M196.1 6.0 L196.1 5.4 195.7 5.4 195.7 6.0 196.1 6.0 M195.8 6.8 L195.35 6.55 194.9 6.8 194.7 7.35 194.9 7.95 195.35 8.15 195.8 7.95 196.0 7.35 195.8 6.8 M194.45 8.45 Q194.05 8.55 193.4 9.35 194.2 9.35 194.4 8.9 L194.45 8.45 M183.25 1.9 Q184.6 3.95 184.6 8.75 L184.3 19.35 186.5 19.1 Q187.75 19.1 188.1 19.85 L188.8 21.5 184.5 21.9 184.55 27.1 184.3 37.7 183.15 37.4 182.0 37.25 181.75 37.0 183.35 36.85 183.5 35.8 Q183.5 34.2 182.85 31.2 182.3 28.4 182.45 23.3 L181.25 23.3 Q181.25 26.55 181.6 32.0 L181.6 36.7 181.3 32.9 Q181.15 29.0 179.6 23.15 L180.15 21.65 180.2 21.3 180.75 20.6 180.85 20.1 179.4 19.95 Q177.95 19.75 177.95 19.5 L182.15 19.35 182.35 16.65 182.3 15.75 182.25 15.6 Q182.1 14.85 181.7 14.85 L181.5 14.9 181.45 8.55 Q181.45 5.0 181.65 5.0 182.35 5.05 183.2 2.1 L183.25 1.9 M183.65 19.35 L183.5 9.65 Q183.05 11.9 183.05 13.25 L183.65 19.35 M196.0 18.2 Q196.6 18.2 197.0 18.8 L196.85 18.8 196.3 19.65 196.2 20.45 196.95 19.35 197.15 19.0 Q197.55 19.7 197.75 21.1 198.1 23.3 198.1 28.9 198.1 35.0 197.8 36.15 197.3 38.25 194.8 37.95 L193.85 27.85 193.25 19.2 Q193.65 18.85 194.4 18.55 L196.0 18.2 M194.95 19.1 L195.2 22.15 Q195.4 22.05 195.6 18.9 L194.95 19.1 M195.05 24.55 Q195.45 28.2 195.95 29.4 L195.65 24.55 195.05 24.55 M194.1 23.6 L194.2 26.7 194.45 21.35 Q194.1 21.9 194.1 23.6 M169.2 16.8 Q168.05 16.8 167.0 17.35 165.8 18.0 163.6 19.95 164.4 18.5 164.6 17.5 163.35 17.9 161.35 20.95 159.8 23.3 159.3 24.65 160.1 23.15 161.65 21.85 L162.75 20.95 Q160.85 23.1 159.7 25.85 158.55 28.4 158.55 30.3 158.55 32.0 159.8 33.35 160.85 34.45 161.45 34.45 162.9 34.45 164.5 33.35 L164.3 33.55 163.2 34.8 Q164.65 34.5 166.85 32.65 L169.2 30.3 169.65 29.35 Q167.7 30.45 167.0 31.0 L166.85 31.1 167.55 30.25 Q171.15 25.65 171.15 20.55 171.15 18.65 170.45 17.6 169.9 16.8 169.2 16.8 M171.55 18.55 Q171.75 18.5 171.75 18.25 L171.55 17.65 171.55 18.55 M174.0 22.2 Q174.0 21.9 174.1 22.2 174.2 22.5 174.2 22.15 L174.1 21.9 Q174.0 21.8 174.0 22.2 M172.4 19.0 L172.45 20.25 Q172.55 21.55 172.8 21.85 L172.7 20.05 172.4 19.0 M182.05 20.2 L181.7 20.1 181.4 20.2 181.25 20.45 181.4 20.7 181.7 20.8 182.05 20.7 182.15 20.45 182.05 20.2 M173.95 29.95 L174.05 29.95 173.65 27.1 173.95 29.95 M174.3 35.8 L174.45 37.05 Q174.8 36.95 174.45 35.35 L174.3 35.8 M175.2 33.5 L175.3 33.75 Q175.3 31.0 174.8 31.0 L175.2 33.5 M176.05 36.55 Q175.2 37.25 174.5 38.1 173.75 37.35 172.55 28.0 L165.6 36.8 Q164.3 38.1 159.65 38.1 L155.9 37.85 Q154.8 37.45 154.8 35.35 154.8 27.75 161.25 19.9 167.85 11.7 172.15 16.0 173.3 17.65 174.95 24.8 176.7 32.15 176.7 35.95 L176.05 36.55 M162.9 36.5 L161.7 37.5 Q163.55 37.85 164.75 36.9 L167.0 34.7 167.15 34.35 166.25 34.65 Q165.0 35.1 162.9 36.5 M162.7 35.35 L159.55 36.4 159.55 36.6 159.75 36.9 160.7 37.2 162.6 35.75 162.7 35.35 M167.65 32.85 L167.35 33.15 167.5 33.1 167.65 32.85 M195.1 29.4 L194.95 29.25 195.0 30.8 Q195.05 32.3 195.2 32.3 L195.3 30.05 195.1 29.4 M197.2 29.65 L197.35 31.25 197.6 27.8 197.2 20.6 Q196.0 22.7 196.45 26.05 L197.2 29.65 M195.15 33.95 L195.35 34.9 195.35 33.2 195.15 33.95 M195.2 35.65 L195.35 36.05 195.2 35.2 195.2 35.65 M196.05 36.55 L196.25 36.95 196.25 36.3 Q196.2 35.9 195.95 36.1 L196.05 36.55 M196.85 35.65 Q197.1 35.5 197.1 33.65 L196.9 34.8 196.85 35.65 M202.0 35.55 L201.7 35.25 Q201.65 35.1 202.9 35.5 L202.45 31.35 202.3 30.55 Q200.7 31.8 201.05 32.35 L201.75 33.75 Q201.75 34.25 201.2 34.15 200.6 33.95 200.55 34.35 L201.1 37.3 204.7 37.5 202.45 36.3 Q202.0 36.0 202.0 35.55 M147.25 15.45 L143.65 16.6 148.05 17.45 Q151.5 19.05 151.7 24.55 L151.85 22.75 Q151.85 18.9 150.75 17.15 149.7 15.45 147.25 15.45 M144.85 18.4 L144.35 18.3 144.0 18.4 144.85 18.4 M142.65 17.65 Q141.85 17.8 141.8 18.05 L142.35 17.95 143.45 17.55 142.65 17.65 M144.5 19.0 L144.85 19.35 147.15 21.15 146.8 19.9 Q146.2 19.9 144.5 19.0 M149.75 24.7 L150.45 27.45 151.0 28.3 151.0 24.7 149.75 24.7 M148.8 19.6 Q147.2 18.05 145.9 17.7 L150.65 23.1 Q150.7 21.4 148.8 19.6 M142.25 19.5 Q139.3 19.5 137.75 23.4 136.45 26.7 136.45 31.65 136.45 33.4 138.5 34.6 140.6 35.8 143.6 35.8 147.85 35.8 149.65 34.6 150.8 33.85 150.8 32.85 150.8 26.25 147.5 22.45 145.0 19.5 142.25 19.5 M133.95 2.65 L134.15 3.85 Q134.5 2.8 134.75 2.6 L135.9 2.4 Q137.8 2.4 137.75 4.7 137.4 10.55 137.35 17.55 146.65 12.35 150.45 16.5 153.45 19.8 153.45 30.0 153.45 35.55 151.3 37.05 149.8 38.1 144.65 38.1 L140.15 37.45 132.6 35.3 Q132.45 34.5 132.45 28.45 131.55 28.65 131.4 28.0 132.05 25.45 132.75 18.0 133.55 9.4 133.5 1.9 L133.95 2.65 M134.5 5.35 L134.5 11.35 Q135.05 10.55 135.1 5.35 L134.5 5.35 M137.0 7.45 L137.0 5.15 Q136.7 6.0 136.8 6.75 L137.0 7.45 M141.2 16.9 Q137.7 18.3 137.0 20.35 L139.45 18.55 141.2 16.9 M135.2 20.0 L135.2 14.65 134.35 20.0 135.2 20.0 M134.0 24.7 Q135.05 24.35 135.2 20.95 L134.0 20.95 134.0 24.7 M134.05 27.85 Q133.7 29.75 133.65 31.25 134.95 29.25 135.0 28.1 L134.55 25.4 134.05 27.85 M135.05 33.35 Q135.55 32.9 135.2 30.45 134.15 32.95 134.15 33.5 L135.05 33.35 M136.1 35.5 L137.7 35.65 Q137.15 34.75 136.1 34.2 L136.1 35.5 M134.85 34.0 L134.85 35.3 135.2 35.3 135.2 34.0 134.85 34.0 M158.05 25.3 L156.85 28.2 156.1 30.35 156.05 30.55 157.15 28.2 158.05 25.95 158.05 25.3 M152.15 33.85 Q152.05 33.7 151.95 33.7 L151.8 33.85 151.7 34.25 151.8 34.65 151.95 34.8 152.15 34.65 152.2 34.25 152.15 33.85 M155.3 33.55 L155.3 36.3 156.8 37.55 159.45 37.5 157.35 35.7 Q156.7 35.1 157.65 35.5 L157.2 31.35 157.05 30.55 156.05 32.0 Q155.7 32.65 156.55 33.8 L155.3 33.55 M158.4 32.4 Q158.15 32.35 158.05 33.35 L158.7 34.35 159.65 34.75 160.2 34.65 159.8 33.95 158.95 33.05 158.4 32.4 M158.2 35.85 L160.85 35.85 Q160.55 35.45 158.2 34.9 L158.2 35.85 M151.0 35.5 Q150.85 35.35 150.1 35.8 L149.95 35.95 151.0 35.5 M150.3 36.6 L145.65 37.25 144.85 37.45 150.1 36.9 150.3 36.6" fill="#ffffff" fill-rule="evenodd" stroke="none"/>
  </g>
</svg>
