<?xml version="1.0" encoding="UTF-8" standalone="no"?>
<svg xmlns:xlink="http://www.w3.org/1999/xlink" height="23.45px" width="97.2px" xmlns="http://www.w3.org/2000/svg">
  <g transform="matrix(1.0, 0.0, 0.0, 1.0, -22.3, -14.8)">
    <path d="M108.2 19.7 L108.7 18.3 109.85 15.95 110.15 14.8 110.35 16.9 Q110.35 19.2 109.35 22.25 L106.85 29.8 106.95 28.4 Q106.1 30.15 106.1 33.1 106.15 35.7 105.2 36.85 104.55 36.35 103.2 34.55 101.55 32.4 101.4 31.35 L100.95 30.0 Q102.65 33.05 103.5 33.9 L103.65 34.1 Q103.85 34.45 103.85 33.45 L100.5 27.7 97.1 21.6 96.95 20.65 96.75 20.4 96.2 19.9 Q96.35 21.5 95.35 21.5 L89.35 38.25 Q82.1 26.4 82.1 18.55 L82.45 14.8 84.0 17.75 83.65 15.15 Q84.85 16.6 86.25 22.45 87.85 28.95 89.3 31.5 L89.7 32.15 93.5 20.7 Q94.8 16.65 96.4 16.15 L100.45 23.9 Q103.8 30.2 104.85 31.15 107.05 23.1 107.65 17.15 108.0 17.3 108.2 18.15 L108.2 19.7 M85.6 24.25 Q84.0 19.7 83.5 19.7 84.55 22.7 85.6 24.25 M93.3 23.1 L92.65 25.45 Q93.35 24.35 94.1 20.7 L93.3 23.1 M97.8 20.3 L99.7 25.2 100.3 26.2 100.45 26.4 Q100.45 25.55 99.6 23.4 98.65 21.0 97.8 20.3 M97.15 18.8 L96.55 18.15 97.45 19.7 97.15 18.8 M100.5 27.1 L100.95 27.4 Q100.8 26.95 100.45 26.8 L100.5 27.1 M92.15 27.8 L91.95 28.1 92.1 28.05 92.15 27.8 M91.6 28.8 L90.8 31.4 90.75 31.55 91.25 30.4 91.6 28.95 91.6 28.8 M92.3 25.6 L92.3 26.8 92.65 25.95 Q92.65 25.6 92.3 25.6 M86.05 30.45 Q87.05 33.75 87.9 34.5 L87.15 29.7 Q86.35 26.45 84.9 25.6 85.2 27.65 86.05 30.45 M88.45 35.5 L88.6 36.45 88.95 36.45 88.45 35.5 M88.95 33.3 L88.45 31.0 Q87.9 28.85 86.85 27.6 87.2 29.45 88.8 33.0 L88.95 33.3 M114.25 33.8 L114.25 33.7 114.15 33.5 114.15 33.65 112.6 33.5 113.35 35.2 113.85 36.1 Q113.65 35.15 114.15 34.1 L114.25 33.85 114.25 33.8 M112.0 34.95 Q112.0 33.7 113.1 32.85 114.2 31.95 115.75 31.95 117.3 31.95 118.4 32.85 119.5 33.7 119.5 34.95 119.5 36.2 118.4 37.1 117.3 37.95 115.75 37.95 114.2 37.95 113.1 37.1 112.0 36.2 112.0 34.95 M115.2 35.6 L115.35 35.5 114.95 35.05 115.2 35.6 M116.6 34.1 L116.15 36.55 Q117.15 37.15 117.0 35.75 L116.6 34.1 M118.2 34.7 Q118.5 33.7 117.05 33.05 L117.5 35.65 118.2 34.7 M66.8 18.4 L67.55 19.7 67.05 18.55 66.8 18.4 M64.2 20.7 L63.4 23.1 62.75 25.45 63.2 24.3 64.2 20.7 M67.9 20.3 L69.8 25.2 70.4 26.2 70.55 26.4 Q69.65 22.75 68.75 21.65 L67.9 20.3 M66.3 19.9 Q66.45 21.5 65.45 21.5 L59.45 38.25 Q57.5 35.4 55.45 30.9 52.2 23.75 52.2 18.55 L52.55 14.8 54.1 17.75 53.75 15.15 Q54.95 16.6 56.35 22.45 57.95 28.95 59.4 31.5 L59.8 32.15 63.6 20.7 Q64.9 16.65 66.5 16.15 L70.55 23.9 Q73.9 30.2 74.95 31.15 76.85 23.95 77.35 20.7 77.5 18.45 77.75 17.15 78.1 17.3 78.3 18.15 L78.3 20.1 Q78.55 18.7 79.25 17.5 79.95 16.2 80.25 14.8 L80.6 14.95 Q80.8 15.1 80.8 15.75 L79.0 22.25 77.05 28.4 Q76.4 28.4 76.4 32.0 76.45 35.95 75.3 36.85 74.6 36.35 73.1 34.25 71.35 31.9 71.15 30.75 L70.65 29.25 Q72.3 32.25 73.45 33.75 L73.75 34.1 Q73.45 33.25 70.0 27.7 L66.7 22.3 66.9 21.15 Q67.05 20.7 66.85 20.4 L66.3 19.9 M47.9 17.4 Q48.05 17.15 48.4 17.15 L48.4 20.1 49.5 18.5 Q50.4 16.95 50.35 14.8 L50.7 14.95 Q50.9 15.1 50.9 15.75 L47.15 28.4 Q46.5 28.4 46.5 32.0 46.55 35.95 45.4 36.85 L43.25 34.35 Q41.5 32.05 41.35 30.9 L40.85 29.45 43.55 33.75 43.85 34.1 Q42.75 31.15 39.85 26.3 37.3 22.1 37.3 21.6 L37.15 20.65 36.95 20.4 36.4 19.9 Q36.55 21.5 35.55 21.5 L29.55 38.25 Q27.6 35.4 25.55 30.9 22.3 23.75 22.3 18.55 L22.65 14.8 24.2 17.75 23.85 15.15 Q25.05 16.6 26.45 22.45 28.05 28.95 29.5 31.5 L29.9 32.15 33.7 20.7 Q35.0 16.65 36.6 16.15 L40.65 23.9 Q44.0 30.2 45.05 31.15 46.85 24.7 47.85 17.6 L47.9 17.4 M54.8 22.05 L55.7 24.25 54.1 19.7 54.8 22.05 M58.55 31.0 Q58.0 28.85 56.95 27.6 57.3 29.45 58.9 33.0 L59.05 33.3 58.55 31.0 M58.65 35.95 L58.95 36.4 58.55 35.5 58.65 35.95 M56.15 30.45 Q57.15 33.75 58.0 34.5 L57.25 29.7 Q56.45 26.45 55.0 25.6 55.3 27.65 56.15 30.45 M40.65 26.4 Q39.75 22.75 38.85 21.65 L38.0 20.3 39.9 25.2 40.5 26.2 40.65 26.4 M41.0 26.8 L40.9 27.0 Q41.25 27.85 41.0 26.8 M71.05 27.4 Q70.9 26.95 70.55 26.8 L70.95 27.35 71.05 27.4 M62.6 26.3 L62.4 25.6 62.4 26.8 62.6 26.3 M61.7 28.8 L60.9 31.4 60.85 31.55 61.35 30.4 61.7 28.8 M24.6 22.25 Q25.35 23.9 25.8 24.25 24.2 19.7 23.7 19.7 L24.6 22.25 M33.5 23.1 L32.85 25.45 Q33.55 24.35 34.3 20.7 L33.5 23.1 M37.35 18.8 L36.75 18.15 37.65 19.7 37.35 18.8 M32.5 26.8 L32.85 25.95 Q32.85 25.6 32.5 25.6 L32.5 26.8 M31.0 31.4 L30.95 31.55 31.45 30.4 31.8 28.8 31.0 31.4 M25.35 25.75 L25.3 25.6 Q25.4 26.7 26.45 30.1 27.5 33.55 28.1 34.5 28.1 33.75 26.75 29.75 L25.35 25.75 M29.15 33.3 L28.65 31.0 Q28.1 28.85 27.05 27.6 27.4 29.45 29.0 33.0 L29.15 33.3" fill="#999999" fill-rule="evenodd" stroke="none"/>
  </g>
</svg>
