<?xml version="1.0" encoding="UTF-8" standalone="no"?>
<svg xmlns:xlink="http://www.w3.org/1999/xlink" height="23.3px" width="89.45px" xmlns="http://www.w3.org/2000/svg">
  <g transform="matrix(1.0, 0.0, 0.0, 1.0, -27.9, -14.8)">
    <path d="M29.75 36.1 L29.75 35.95 Q29.3 34.85 29.3 33.5 28.2 32.85 28.55 34.2 28.9 35.55 29.75 36.1 M29.9 34.1 L30.35 33.8 Q29.9 33.35 29.9 34.1 M35.4 34.95 Q35.4 36.2 34.3 37.1 33.2 37.95 31.65 37.95 30.1 37.95 29.0 37.1 27.9 36.2 27.9 34.95 27.9 33.7 29.0 32.85 30.1 31.95 31.65 31.95 33.2 31.95 34.3 32.85 35.4 33.7 35.4 34.95 M30.9 34.9 L31.25 35.5 31.15 34.6 Q30.9 34.6 30.9 34.9 M32.5 34.1 L32.35 34.6 32.35 35.05 32.05 36.55 32.8 35.95 32.65 34.45 32.5 34.1 M33.65 33.65 L32.95 33.05 33.2 34.05 33.4 35.65 33.55 35.65 33.9 35.3 34.1 35.0 34.15 34.25 33.65 33.65 M69.7 35.7 L67.85 34.75 65.2 33.8 66.1 35.25 Q66.9 35.95 69.7 35.7 M64.8 34.75 L64.35 34.1 64.25 34.45 64.8 34.75 M63.6 34.0 L63.5 33.8 Q62.8 32.0 62.25 31.4 L62.25 31.6 63.2 33.3 63.6 34.0 M64.15 29.2 L63.95 27.15 Q62.7 30.3 64.05 31.95 L65.9 33.15 Q64.6 31.45 64.15 29.2 M43.3 34.35 L41.55 31.9 Q40.25 29.75 40.75 28.45 L40.45 28.45 40.45 31.15 Q41.45 33.55 42.05 33.95 L43.3 34.35 M44.85 32.85 L44.85 32.65 Q44.8 32.2 43.6 30.3 43.35 31.35 44.85 32.85 M40.9 27.1 L40.6 27.45 40.75 27.55 40.9 27.1 M55.1 37.05 L52.85 37.05 53.85 37.3 55.1 37.05 M54.2 36.4 L55.1 36.4 56.6 35.2 54.5 36.1 54.2 36.4 M54.3 16.1 L53.4 15.7 51.9 15.45 Q51.9 15.65 53.05 16.2 L54.2 16.65 54.35 16.35 54.3 16.1 M52.7 16.6 L51.35 16.45 Q50.25 16.45 49.95 16.8 L51.4 16.95 52.85 16.95 52.7 16.6 M48.0 17.65 L46.65 17.65 Q43.2 19.85 41.95 24.8 41.3 27.3 41.35 29.65 41.35 30.6 42.7 32.5 42.85 32.35 43.0 32.35 42.1 30.2 42.1 29.2 42.1 29.1 44.25 25.95 43.9 26.85 43.9 27.75 L45.25 32.0 Q47.3 36.05 51.15 36.05 51.45 36.05 53.05 34.9 L55.55 33.0 Q55.55 33.35 55.7 33.35 L55.1 34.9 Q56.7 34.45 57.85 33.55 L59.65 32.0 Q59.65 32.35 59.8 32.35 59.7 34.1 58.45 35.8 56.75 38.1 54.05 38.1 48.85 38.1 44.65 36.2 39.85 34.05 39.85 30.65 39.85 21.1 44.75 17.25 47.85 14.8 52.85 14.8 53.5 14.8 54.85 15.6 56.75 16.7 56.75 18.3 L55.55 20.2 54.8 18.9 Q54.6 18.5 53.75 18.5 51.2 19.5 48.75 21.15 47.0 22.35 45.85 23.55 L46.45 22.55 47.75 21.4 51.45 18.35 Q50.8 17.85 49.8 17.85 49.15 17.85 47.8 19.25 L48.0 17.65 M45.65 18.05 L45.75 17.7 45.65 17.4 45.35 17.25 45.1 17.4 44.95 17.7 45.1 18.05 45.35 18.15 45.65 18.05 M48.9 17.15 L49.05 16.45 48.3 16.45 Q48.3 16.95 48.9 17.15 M72.0 15.1 Q76.7 15.1 80.0 18.45 83.3 21.75 83.3 26.45 83.3 31.15 80.0 34.5 76.7 37.8 72.0 37.8 69.65 37.8 67.65 36.95 L72.65 36.95 73.95 36.6 74.6 36.2 73.0 36.2 67.45 36.35 67.45 36.9 66.5 36.4 66.5 36.3 66.3 35.95 65.85 35.8 65.6 35.85 64.0 34.5 Q60.7 31.15 60.7 26.45 60.7 21.75 64.0 18.45 67.3 15.1 72.0 15.1 M76.3 17.95 Q76.8 17.5 74.0 16.7 71.55 15.95 70.55 15.9 L76.3 17.95 M80.5 23.35 Q80.75 23.35 80.75 22.4 L80.2 21.6 Q79.95 21.6 80.5 23.35 M77.65 19.7 Q76.4 18.8 76.0 18.6 L76.3 18.85 Q74.7 17.9 72.8 17.9 69.7 17.9 67.55 20.4 65.35 22.9 65.35 26.4 65.35 29.9 67.55 32.4 69.7 34.9 72.8 34.9 75.9 34.9 78.1 32.4 80.25 29.9 80.25 26.4 80.25 22.9 78.1 20.4 L77.65 19.95 77.8 20.05 Q79.0 21.0 79.5 22.05 L79.3 21.1 77.65 19.7 M76.8 17.0 L77.9 18.0 78.95 18.75 78.15 17.75 76.8 17.0 M67.45 19.7 L66.9 20.1 67.15 20.65 67.35 20.5 67.45 19.7 M65.05 24.15 L64.5 24.15 64.5 29.2 Q64.7 29.2 64.9 27.2 L65.05 24.15 M63.85 24.65 Q64.25 23.95 64.25 22.55 L63.7 23.75 63.25 24.9 63.85 24.65 M64.1 21.55 L64.8 19.55 Q63.7 20.55 62.75 22.4 61.6 24.7 61.55 26.85 L61.55 28.55 Q62.8 24.25 64.1 21.55 M70.25 17.1 Q68.95 17.15 68.55 17.8 L70.4 17.3 71.5 17.3 70.25 17.1 M67.3 17.4 L69.25 15.9 Q68.55 15.9 67.15 17.05 65.9 18.15 65.65 18.75 L65.9 18.9 67.3 17.4 M113.55 35.4 L115.1 35.4 114.9 34.0 113.55 35.4 M115.45 32.25 L116.15 36.2 Q116.95 35.0 116.4 32.45 116.0 30.5 115.45 29.6 L115.45 32.25 M82.05 25.2 L82.0 25.9 Q82.3 25.55 82.3 24.45 82.1 24.45 82.05 25.2 M81.05 30.45 L81.05 30.0 80.75 30.0 80.75 30.45 81.05 30.45 M98.8 22.35 L98.65 21.55 Q98.5 21.55 98.5 21.85 L98.8 22.35 M97.2 19.7 L97.6 20.0 97.6 19.2 96.9 19.2 97.2 19.7 M100.75 20.75 Q100.35 19.5 99.35 19.2 99.2 19.3 100.25 22.25 L101.4 25.15 100.75 20.75 M94.5 16.25 L93.6 16.2 93.2 16.75 93.2 16.9 93.95 17.05 95.7 16.5 94.5 16.25 M97.0 17.6 L96.35 17.8 96.05 18.25 96.35 18.7 97.0 18.9 97.7 18.7 97.95 18.25 97.7 17.8 97.0 17.6 M90.9 19.45 L90.5 21.05 92.2 19.75 93.8 18.1 91.85 17.75 Q91.2 18.6 90.9 19.45 M88.75 24.4 L88.6 23.85 88.4 23.75 Q88.4 24.1 88.75 24.4 M87.65 16.75 Q87.4 17.45 87.4 18.4 87.4 19.35 87.65 20.05 87.9 20.75 88.25 20.75 88.6 20.75 88.85 20.05 L89.1 18.4 88.85 16.75 Q88.6 16.05 88.25 16.05 87.9 16.05 87.65 16.75 M113.4 24.1 L113.4 22.35 Q112.95 19.8 110.95 18.25 L113.4 24.1 M107.3 19.65 L107.85 19.65 Q109.25 18.9 107.85 19.3 106.0 19.85 107.3 19.65 M105.25 19.15 L104.2 20.6 Q105.35 19.8 105.4 19.05 L105.25 19.15 M102.6 24.55 Q102.3 24.55 102.1 24.7 102.3 28.0 102.6 28.3 L102.6 24.55 M102.3 23.1 Q102.3 22.15 101.75 21.85 L101.75 23.3 Q102.3 23.3 102.3 23.1 M106.6 17.75 L107.5 17.3 Q110.6 16.1 113.0 18.4 L113.25 18.65 113.85 19.35 Q117.35 23.8 117.35 35.4 117.35 36.95 117.05 37.2 L116.3 37.3 Q116.45 36.05 115.45 36.05 L112.65 36.2 Q112.8 27.2 111.0 22.6 110.4 21.15 109.7 20.35 109.25 19.8 109.05 19.8 106.35 19.8 105.15 24.1 104.4 26.8 103.15 34.8 L102.3 34.0 Q102.3 35.5 101.75 36.8 101.25 38.1 100.7 38.1 101.4 34.0 99.45 26.8 97.45 19.35 95.25 19.35 94.6 19.35 94.05 19.7 L92.65 20.65 Q91.6 21.3 90.25 27.15 89.1 32.2 89.1 33.5 89.1 34.5 89.65 37.3 L89.15 37.25 87.65 34.15 88.05 34.65 88.05 33.65 Q87.65 31.55 87.2 31.3 L86.8 32.1 Q85.3 28.6 85.0 26.55 84.9 22.15 84.25 17.3 84.3 15.75 84.75 17.4 85.25 19.15 85.3 18.55 L85.45 15.1 87.2 16.85 88.4 15.1 Q88.7 14.8 89.1 14.8 L90.0 17.6 Q90.9 17.0 92.7 16.25 94.25 15.55 94.45 15.55 95.55 15.55 98.3 17.35 L98.3 17.45 100.3 18.95 101.05 19.65 100.95 19.15 100.95 19.1 102.8 20.6 Q104.8 18.6 106.6 17.7 L106.6 17.75 M107.15 18.4 L106.45 18.4 106.45 19.2 106.8 19.15 107.15 18.4 M110.05 18.35 L109.55 18.1 108.85 18.75 Q110.75 20.15 110.95 20.0 110.5 18.75 110.05 18.35" fill="#999999" fill-rule="evenodd" stroke="none"/>
  </g>
</svg>
