<?xml version="1.0" encoding="UTF-8" standalone="no"?>
<svg xmlns:xlink="http://www.w3.org/1999/xlink" height="23.3px" width="89.45px" xmlns="http://www.w3.org/2000/svg">
  <g transform="matrix(1.0, 0.0, 0.0, 1.0, -27.9, -14.8)">
    <path d="M109.55 18.1 L108.85 18.75 110.75 20.0 110.95 20.0 Q110.35 18.5 109.75 18.2 L109.55 18.1 M106.45 18.4 L106.45 19.2 107.2 18.25 Q107.45 17.8 106.45 18.4 M101.75 21.85 L101.8 22.6 Q101.9 23.3 102.2 23.3 L102.2 22.35 101.75 21.85 M107.45 19.65 L108.55 19.3 108.55 19.2 106.8 19.7 107.45 19.65 M106.1 17.6 Q107.0 16.95 109.05 16.95 117.35 16.95 117.35 35.75 117.35 36.9 117.05 37.2 116.3 37.3 116.35 36.8 116.35 36.35 116.0 36.2 115.35 35.85 112.65 36.2 L112.7 34.05 Q112.7 28.25 111.45 23.85 110.3 19.8 109.05 19.8 106.45 19.8 104.95 27.3 103.45 34.8 103.15 34.8 102.55 34.8 102.5 34.5 L102.3 34.0 Q102.45 35.55 101.25 37.8 L100.7 38.1 Q101.45 32.25 99.25 25.6 97.2 19.35 95.25 19.35 92.3 19.35 90.8 24.8 89.6 29.1 89.45 36.05 L89.65 37.3 Q88.0 35.75 87.9 35.05 L88.05 34.65 Q87.55 34.65 87.65 33.0 87.7 31.3 87.2 31.3 86.7 31.3 87.0 31.7 87.3 32.1 86.8 32.1 85.9 32.1 85.15 25.95 L84.25 17.3 84.45 16.6 85.0 18.15 85.3 18.75 85.45 15.1 87.2 16.85 88.75 14.9 89.1 14.8 90.0 17.6 Q91.8 17.1 93.15 16.25 L94.45 15.55 Q95.9 15.55 98.65 17.7 100.9 19.5 100.95 19.1 L102.8 20.6 106.1 17.6 M113.1 21.25 Q112.35 19.2 110.95 18.25 L113.4 24.1 Q113.7 23.05 113.1 21.25 M88.85 16.75 Q88.6 16.05 88.25 16.05 87.9 16.05 87.65 16.75 87.4 17.45 87.4 18.4 87.4 19.35 87.65 20.05 87.9 20.75 88.25 20.75 88.6 20.75 88.85 20.05 L89.1 18.4 88.85 16.75 M88.75 23.85 L88.55 23.85 Q88.45 23.9 88.5 24.1 88.75 24.4 88.75 23.85 M90.5 21.05 L93.3 18.75 93.8 18.1 91.85 17.75 Q91.55 17.75 91.05 19.3 90.6 20.5 90.5 21.05 M97.7 17.8 L97.0 17.6 96.35 17.8 96.05 18.25 96.35 18.7 97.0 18.9 97.7 18.7 97.95 18.25 97.7 17.8 M93.6 16.2 L93.2 16.9 Q94.25 17.1 95.7 16.5 L93.6 16.2 M99.85 19.45 L99.35 19.2 Q99.45 19.9 101.25 24.8 L101.4 25.15 Q101.3 23.2 100.8 21.45 100.3 19.85 99.85 19.45 M96.9 19.2 L97.45 19.95 Q97.6 19.2 96.9 19.2 M98.65 21.55 Q98.45 21.75 98.65 22.15 L98.8 22.35 98.65 21.55 M81.05 30.0 L80.75 30.0 80.75 30.45 81.05 30.45 81.05 30.0 M115.45 29.6 L115.55 31.4 Q115.7 33.75 116.15 36.2 116.65 35.25 116.65 34.2 L116.3 32.05 115.75 30.15 115.45 29.6 M113.55 35.4 L115.1 35.4 114.9 34.0 113.55 35.4 M102.6 28.3 Q102.6 24.55 102.1 24.7 L102.35 27.25 102.6 28.3 M68.55 17.8 L69.6 17.55 71.5 17.3 69.2 17.35 68.55 17.8 M69.25 15.9 Q68.75 16.05 67.35 17.2 L65.65 18.75 65.9 18.9 Q66.6 18.1 67.7 17.2 L69.25 15.9 M64.25 22.55 L63.25 24.9 Q63.85 24.85 63.85 24.65 64.25 23.95 64.25 22.55 M64.8 19.55 Q64.1 20.4 62.85 23.2 61.65 25.9 61.55 26.85 L61.55 28.55 Q61.95 26.7 63.25 23.6 L64.85 19.85 64.8 19.55 M66.9 20.1 L67.15 20.65 67.35 20.5 Q67.45 19.7 66.9 20.1 M78.55 18.5 L78.95 18.75 Q78.4 17.9 76.8 17.0 L78.55 18.5 M72.8 17.9 Q69.75 17.9 67.55 20.4 65.35 22.9 65.35 26.4 65.35 31.35 68.7 33.55 70.75 34.9 73.2 34.9 75.45 34.9 77.55 33.05 80.25 30.65 80.25 26.4 80.25 23.55 79.25 22.35 77.9 20.7 77.65 19.95 L78.85 21.05 79.5 22.05 Q79.25 20.15 77.8 19.3 77.0 18.85 76.3 18.85 L74.55 18.4 72.8 17.9 M80.45 22.0 L80.15 21.75 Q80.4 23.4 80.65 23.3 L80.75 22.4 80.45 22.0 M73.7 16.6 L70.55 15.9 Q76.3 17.95 76.4 17.75 75.75 17.3 73.7 16.6 M79.75 18.05 Q83.3 21.15 83.3 26.45 83.3 31.2 80.0 34.5 76.75 37.8 72.0 37.8 L69.85 37.55 67.65 36.95 73.7 36.8 Q74.55 36.6 74.6 36.2 L74.2 36.15 70.3 36.6 67.45 36.9 Q65.6 36.9 63.25 33.7 60.7 30.2 60.7 26.45 60.7 21.15 64.25 18.05 67.4 15.3 72.0 15.3 76.6 15.3 79.75 18.05 M49.05 16.9 Q49.05 16.55 48.7 16.55 48.35 16.55 48.45 16.9 48.9 17.15 49.05 16.9 M45.65 17.4 L45.35 17.25 45.1 17.4 44.95 17.7 45.1 18.05 45.35 18.15 45.65 18.05 45.75 17.7 45.65 17.4 M45.85 23.55 Q46.35 22.4 48.7 20.5 L51.3 18.5 51.45 18.35 Q50.8 17.85 49.8 17.85 49.5 17.85 47.8 19.25 L48.0 17.65 Q45.95 18.05 43.95 20.7 41.35 24.2 41.35 29.65 41.35 30.3 41.65 31.15 42.1 32.5 43.0 32.35 42.3 30.5 42.1 29.2 L44.25 25.95 Q43.8 29.8 45.7 32.8 47.7 36.05 51.15 36.05 L52.7 35.25 55.55 33.0 55.1 34.9 Q55.7 34.7 59.65 32.0 L59.75 31.8 59.8 32.35 Q59.8 34.7 58.05 36.4 56.35 38.1 54.05 38.1 46.4 38.1 42.55 35.1 39.85 33.0 39.85 30.65 39.85 22.4 43.65 18.35 47.0 14.8 52.85 14.8 L54.9 15.35 Q56.85 16.3 56.75 18.3 L56.45 19.45 Q56.1 19.45 55.55 20.2 55.25 19.15 54.75 18.8 L53.75 18.5 Q53.1 18.5 50.7 20.0 L47.2 22.35 45.85 23.55 M51.9 15.45 L52.7 15.9 54.35 16.35 Q54.25 15.85 51.9 15.45 M52.85 16.95 L49.95 16.8 52.85 16.95 M54.75 36.35 L56.0 35.85 56.6 35.2 55.4 35.7 Q54.35 36.15 54.2 36.4 L54.75 36.35 M52.85 37.05 L53.8 37.2 55.1 37.05 52.85 37.05 M40.6 27.45 L40.65 27.65 Q40.9 27.1 40.6 27.45 M41.9 32.05 L40.65 29.2 Q40.75 28.45 40.45 28.45 L40.45 31.15 41.65 33.6 Q42.1 34.1 43.3 34.35 L41.9 32.05 M44.15 31.2 L43.6 30.3 44.2 31.7 44.85 32.85 Q44.85 32.35 44.15 31.2 M63.95 27.15 Q63.4 28.9 63.4 29.95 L63.65 31.0 Q64.0 32.05 64.75 32.5 L65.9 33.15 Q65.45 32.35 64.75 30.35 64.0 28.15 64.0 27.35 L63.95 27.15 M64.8 28.1 Q65.7 22.75 64.5 24.15 L64.5 29.15 Q64.5 28.65 64.65 28.5 L64.8 28.1 M64.8 34.75 L64.35 34.1 64.35 34.3 64.6 34.7 64.8 34.75 M67.65 35.65 L69.7 35.7 Q67.85 34.75 65.2 33.8 L66.1 35.25 67.65 35.65 M31.25 35.5 L31.15 34.6 Q30.85 34.8 31.0 35.2 L31.25 35.5 M34.1 34.7 Q34.4 33.7 32.95 33.05 L33.4 35.65 34.1 34.7 M34.3 37.1 Q33.2 37.95 31.65 37.95 30.1 37.95 29.0 37.1 27.9 36.2 27.9 34.95 27.9 33.7 29.0 32.85 30.1 31.95 31.65 31.95 33.2 31.95 34.3 32.85 35.4 33.7 35.4 34.95 35.4 36.2 34.3 37.1 M29.95 33.85 L29.9 34.1 30.2 33.9 30.2 33.7 29.95 33.85 M28.6 33.4 Q28.5 33.65 28.75 34.35 L29.4 35.85 29.75 36.1 Q29.3 33.5 28.9 33.35 L28.6 33.4" fill="#999999" fill-rule="evenodd" stroke="none"/>
  </g>
</svg>
