<?xml version="1.0" encoding="UTF-8" standalone="no"?>
<svg xmlns:xlink="http://www.w3.org/1999/xlink" height="480.0px" width="640.0px" xmlns="http://www.w3.org/2000/svg">
  <g transform="matrix(1.0, 0.0, 0.0, 1.0, 0.0, 0.0)">
    <path d="M640.0 0.0 L640.0 480.0 0.0 480.0 0.0 0.0 640.0 0.0" fill="#000000" fill-opacity="0.8" fill-rule="evenodd" stroke="none"/>
    <path d="M282.7 188.35 L283.1 189.1 Q286.2 198.95 279.35 206.45 L249.95 228.85 229.05 212.35 Q241.2 211.85 253.2 202.2 267.85 190.45 282.7 188.35" fill="#e00000" fill-rule="evenodd" stroke="none"/>
    <path d="M229.05 212.35 L249.95 228.85 279.35 206.45 Q286.2 198.95 283.1 189.1 L282.7 188.35 Q273.1 170.2 250.45 182.35 227.55 169.95 217.95 189.35 214.95 199.1 221.7 206.45 L229.05 212.35 M287.35 190.1 Q289.85 199.85 282.35 207.85 L250.7 236.6 218.8 208.2 Q210.3 200.85 214.05 188.95 223.8 167.2 250.45 178.1 276.7 165.95 287.35 190.1" fill="#ff4645" fill-rule="evenodd" stroke="none"/>
    <path d="M229.05 212.35 L221.7 206.45 Q214.95 199.1 217.95 189.35 227.55 169.95 250.45 182.35 273.1 170.2 282.7 188.35 267.85 190.45 253.2 202.2 241.2 211.85 229.05 212.35" fill="url(#gradient0)" fill-rule="evenodd" stroke="none"/>
  </g>
  <defs>
    <linearGradient gradientTransform="matrix(-0.0029, -0.0227, 0.0216, -0.0027, 250.45, 190.95)" gradientUnits="userSpaceOnUse" id="gradient0" spreadMethod="pad" x1="-819.2" x2="819.2">
      <stop offset="0.0" stop-color="#e00000"/>
      <stop offset="1.0" stop-color="#ffbfbf"/>
    </linearGradient>
  </defs>
</svg>
