<?xml version="1.0" encoding="UTF-8" standalone="no"?>
<svg xmlns:xlink="http://www.w3.org/1999/xlink" height="520.0px" width="700.0px" xmlns="http://www.w3.org/2000/svg">
  <g transform="matrix(1.0, 0.0, 0.0, 1.0, 0.0, 0.0)">
    <path d="M658.8 265.25 L657.6 253.95 654.6 252.9 Q653.65 248.95 649.35 246.15 642.05 241.35 634.75 237.45 597.05 217.0 556.3 213.15 555.35 213.2 554.6 213.85 553.95 211.85 552.9 209.9 534.85 224.25 529.85 257.05 527.15 274.5 519.0 285.55 514.35 291.9 510.2 298.7 536.65 304.95 561.75 318.55 569.05 322.45 576.35 327.25 579.5 329.3 580.85 331.95 584.6 326.4 576.9 317.95 577.2 311.5 580.55 307.45 586.7 299.8 583.5 287.9 L580.85 278.15 Q592.3 296.05 607.55 306.2 619.15 313.9 626.1 302.8 L631.0 295.1 638.9 284.95 637.9 284.6 647.4 270.55 658.8 265.25 M700.0 520.0 L0.0 520.0 0.0 0.0 700.0 0.0 700.0 520.0 M364.0 166.8 Q360.9 167.7 362.4 169.75 377.0 190.1 394.8 169.25 410.2 151.05 394.95 142.75 382.55 161.6 364.0 166.8 M389.55 314.55 Q385.0 316.7 385.95 324.2 386.9 331.65 382.85 334.15 378.85 336.6 384.25 339.9 389.7 343.2 395.25 342.15 400.8 341.1 398.35 334.55 395.95 328.0 401.65 322.5 407.35 317.05 400.7 314.7 394.05 312.45 389.55 314.55 M465.35 232.3 Q463.05 218.95 456.55 213.7 L449.75 207.9 Q449.4 207.35 435.5 211.65 421.5 215.9 420.15 229.75 418.75 243.65 424.65 251.8 430.55 260.0 438.6 255.7 446.65 251.45 457.15 248.55 467.6 245.7 465.35 232.3 M438.4 395.4 L438.6 395.1 438.35 395.4 438.4 395.4 M479.7 365.35 Q471.55 365.1 469.2 371.25 488.75 378.75 516.1 377.35 538.35 376.15 541.7 362.5 522.7 363.45 515.2 352.25 514.45 351.5 513.6 351.3 L504.95 350.25 504.95 350.35 Q500.95 350.7 501.05 354.5 L500.95 355.25 498.25 355.45 Q489.4 354.35 484.45 360.75 L484.25 361.5 Q483.8 363.3 484.7 364.75 L484.2 365.0 479.7 365.35 M560.9 271.0 L560.7 271.3 560.65 271.3 560.9 271.0 M627.9 279.65 L627.15 280.05 627.05 280.0 627.9 279.65 M573.35 275.15 Q568.25 280.15 571.3 274.9 L574.0 274.6 573.35 275.15 M77.1 154.35 Q76.85 157.15 78.5 157.35 L100.65 159.95 100.45 160.85 Q99.7 163.2 98.35 164.75 92.25 171.85 89.4 182.0 111.45 183.6 134.45 181.95 L142.1 181.25 161.35 178.75 Q162.3 176.85 162.05 174.5 159.4 152.9 149.1 146.5 112.55 151.25 77.1 154.35 M14.05 230.55 L13.05 230.9 14.0 230.65 14.05 230.55 M169.05 272.45 L184.4 256.35 108.25 273.95 169.05 272.45 M303.35 242.3 L300.4 204.75 255.35 204.75 257.35 272.25 303.35 242.3 M236.95 375.45 L264.65 375.45 265.0 373.65 236.95 366.05 236.95 375.45 M280.2 374.65 Q279.9 374.15 265.95 378.4 252.0 382.7 250.65 396.55 249.25 410.4 255.15 418.6 261.0 426.8 269.1 422.5 277.1 418.2 287.6 415.35 298.1 412.5 295.8 399.1 293.5 385.7 287.05 380.45 L280.2 374.65 M233.9 397.45 L233.9 397.65 233.95 397.45 233.9 397.45 M87.55 423.95 L87.5 424.1 87.55 424.1 87.55 423.95 M97.7 457.05 Q102.1 471.6 117.2 481.45 126.75 484.5 135.3 478.2 146.15 470.15 143.7 458.45 L123.7 453.7 Q123.85 452.7 123.45 451.75 120.35 444.3 111.95 445.2 108.7 445.5 108.35 448.75 108.2 449.85 108.2 450.95 104.0 451.3 100.05 454.25 97.45 456.2 97.7 457.05 M587.8 417.7 L587.9 417.75 587.8 417.6 587.8 417.7 M588.2 418.1 L588.5 418.5 588.55 418.5 588.2 418.05 588.2 418.1 M521.65 403.0 L513.95 402.2 513.95 402.35 Q457.4 407.95 403.2 408.95 402.9 411.8 405.35 413.25 408.15 414.9 411.45 415.7 L411.35 417.2 Q411.35 417.95 411.65 418.65 L412.2 419.45 Q475.55 421.05 539.55 426.2 585.95 429.95 625.7 424.7 573.4 415.1 519.2 415.45 521.8 414.85 523.8 413.1 L524.2 412.45 Q524.1 408.7 523.25 405.0 L522.7 403.45 Q522.2 403.1 521.65 403.0 M430.95 489.7 L432.7 489.45 Q453.7 489.6 470.7 485.7 468.95 480.9 462.95 481.7 455.2 482.75 451.45 479.2 L451.2 478.45 451.2 477.85 Q451.45 477.35 451.95 477.0 453.45 475.95 453.65 473.95 L453.7 473.2 Q453.7 471.5 452.3 470.45 440.45 461.55 423.95 461.2 415.0 463.5 403.9 462.75 400.9 462.55 400.2 465.45 400.2 466.2 400.55 466.7 404.45 471.9 408.95 475.2 410.65 476.45 413.15 477.15 406.65 476.35 402.05 480.3 399.9 482.15 400.2 484.95 407.25 490.3 411.25 489.15 L407.95 490.15 406.75 490.55 Q405.0 491.1 404.55 492.75 L404.2 494.2 Q426.1 506.5 451.7 496.45 451.75 494.0 449.5 493.45 436.3 490.15 430.95 489.7" fill="#251616" fill-rule="evenodd" stroke="none"/>
    <path d="M658.8 265.25 L647.4 270.55 637.9 284.6 638.9 284.95 631.0 295.1 626.1 302.8 Q619.15 313.9 607.55 306.2 592.3 296.05 580.85 278.15 L583.5 287.9 Q586.7 299.8 580.55 307.45 577.2 311.5 576.9 317.95 584.6 326.4 580.85 331.95 579.5 329.3 576.35 327.25 569.05 322.45 561.75 318.55 536.65 304.95 510.2 298.7 514.35 291.9 519.0 285.55 527.15 274.5 529.85 257.05 534.85 224.25 552.9 209.9 553.95 211.85 554.6 213.85 555.35 213.2 556.3 213.15 597.05 217.0 634.75 237.45 642.05 241.35 649.35 246.15 653.65 248.95 654.6 252.9 L657.6 253.95 658.8 265.25 M465.35 232.3 Q467.6 245.7 457.15 248.55 446.65 251.45 438.6 255.7 430.55 260.0 424.65 251.8 418.75 243.65 420.15 229.75 421.5 215.9 435.5 211.65 449.4 207.35 449.75 207.9 L456.55 213.7 Q463.05 218.95 465.35 232.3 M389.55 314.55 Q394.05 312.45 400.7 314.7 407.35 317.05 401.65 322.5 395.95 328.0 398.35 334.55 400.8 341.1 395.25 342.15 389.7 343.2 384.25 339.9 378.85 336.6 382.85 334.15 386.9 331.65 385.95 324.2 385.0 316.7 389.55 314.55 M573.35 275.15 L574.0 274.6 571.3 274.9 Q568.25 280.15 573.35 275.15 M627.9 279.65 L627.05 280.0 627.15 280.05 627.9 279.65 M560.9 271.0 L560.65 271.3 560.7 271.3 560.9 271.0 M303.35 242.3 L257.35 272.25 255.35 204.75 300.4 204.75 303.35 242.3 M169.05 272.45 L108.25 273.95 184.4 256.35 169.05 272.45 M236.95 375.45 L236.95 366.05 265.0 373.65 264.65 375.45 236.95 375.45 M280.2 374.65 L287.05 380.45 Q293.5 385.7 295.8 399.1 298.1 412.5 287.6 415.35 277.1 418.2 269.1 422.5 261.0 426.8 255.15 418.6 249.25 410.4 250.65 396.55 252.0 382.7 265.95 378.4 279.9 374.15 280.2 374.65 M521.65 403.0 Q522.2 403.1 522.7 403.45 L523.25 405.0 Q524.1 408.7 524.2 412.45 L523.8 413.1 Q521.8 414.85 519.2 415.45 573.4 415.1 625.7 424.7 585.95 429.95 539.55 426.2 475.55 421.05 412.2 419.45 L411.65 418.65 Q411.35 417.95 411.35 417.2 L411.45 415.7 Q408.15 414.9 405.35 413.25 402.9 411.8 403.2 408.95 457.4 407.95 513.95 402.35 L513.95 402.2 521.65 403.0" fill="#271818" fill-rule="evenodd" stroke="none"/>
    <path d="M364.0 166.8 Q382.55 161.6 394.95 142.75 410.2 151.05 394.8 169.25 377.0 190.1 362.4 169.75 360.9 167.7 364.0 166.8 M479.7 365.35 L484.2 365.0 484.7 364.75 Q483.8 363.3 484.25 361.5 L484.45 360.75 Q489.4 354.35 498.25 355.45 L500.95 355.25 501.05 354.5 Q500.95 350.7 504.95 350.35 L504.95 350.25 513.6 351.3 Q514.45 351.5 515.2 352.25 522.7 363.45 541.7 362.5 538.35 376.15 516.1 377.35 488.75 378.75 469.2 371.25 471.55 365.1 479.7 365.35 M77.1 154.35 Q112.55 151.25 149.1 146.5 159.4 152.9 162.05 174.5 162.3 176.85 161.35 178.75 L142.1 181.25 134.45 181.95 Q111.45 183.6 89.4 182.0 92.25 171.85 98.35 164.75 99.7 163.2 100.45 160.85 L100.65 159.95 78.5 157.35 Q76.85 157.15 77.1 154.35 M97.7 457.05 Q97.45 456.2 100.05 454.25 104.0 451.3 108.2 450.95 108.2 449.85 108.35 448.75 108.7 445.5 111.95 445.2 120.35 444.3 123.45 451.75 123.85 452.7 123.7 453.7 L143.7 458.45 Q146.15 470.15 135.3 478.2 126.75 484.5 117.2 481.45 102.1 471.6 97.7 457.05 M430.95 489.7 Q436.3 490.15 449.5 493.45 451.75 494.0 451.7 496.45 426.1 506.5 404.2 494.2 L404.55 492.75 Q405.0 491.1 406.75 490.55 L407.95 490.15 411.25 489.15 Q407.25 490.3 400.2 484.95 399.9 482.15 402.05 480.3 406.65 476.35 413.15 477.15 410.65 476.45 408.95 475.2 404.45 471.9 400.55 466.7 400.2 466.2 400.2 465.45 400.9 462.55 403.9 462.75 415.0 463.5 423.95 461.2 440.45 461.55 452.3 470.45 453.7 471.5 453.7 473.2 L453.65 473.95 Q453.45 475.95 451.95 477.0 451.45 477.35 451.2 477.85 L451.2 478.45 451.45 479.2 Q455.2 482.75 462.95 481.7 468.95 480.9 470.7 485.7 453.7 489.6 432.7 489.45 L430.95 489.7" fill="#231414" fill-rule="evenodd" stroke="none"/>
    <path d="M87.55 423.95 L87.55 424.1 87.5 424.1 87.55 423.95 M233.9 397.45 L233.95 397.45 233.9 397.65 233.9 397.45 M588.2 418.1 L588.2 418.05 588.55 418.5 588.5 418.5 588.2 418.1 M587.8 417.7 L587.8 417.6 587.9 417.75 587.8 417.7" fill="#392d2d" fill-rule="evenodd" stroke="none"/>
  </g>
</svg>
