<?xml version="1.0" encoding="UTF-8" standalone="no"?>
<svg xmlns:xlink="http://www.w3.org/1999/xlink" height="90.0px" width="120.0px" xmlns="http://www.w3.org/2000/svg">
  <g transform="matrix(1.0, 0.0, 0.0, 1.0, 0.0, 0.0)">
    <path d="M100.0 90.0 L80.0 90.0 80.0 0.0 100.0 0.0 100.0 90.0 M60.0 90.0 L40.0 90.0 40.0 0.0 60.0 0.0 60.0 90.0 M20.0 90.0 L0.0 90.0 0.0 0.0 20.0 0.0 20.0 90.0" fill="#006699" fill-opacity="0.8" fill-rule="evenodd" stroke="none"/>
    <path d="M100.0 0.0 L120.0 0.0 120.0 90.0 100.0 90.0 100.0 0.0 M80.0 90.0 L60.0 90.0 60.0 0.0 80.0 0.0 80.0 90.0 M40.0 90.0 L20.0 90.0 20.0 0.0 40.0 0.0 40.0 90.0" fill="#0073aa" fill-rule="evenodd" stroke="none"/>
  </g>
</svg>
