<?xml version="1.0" encoding="UTF-8" standalone="no"?>
<svg xmlns:xlink="http://www.w3.org/1999/xlink" height="528.0px" width="703.95px" xmlns="http://www.w3.org/2000/svg">
  <g transform="matrix(1.0, 0.0, 0.0, 1.0, 0.0, 0.0)">
    <path d="M703.95 0.0 L703.95 528.0 0.0 528.0 0.0 0.0 703.95 0.0 M604.75 32.05 Q607.05 35.4 609.7 35.4 614.15 35.4 614.15 31.05 614.3 28.85 613.5 26.95 612.0 23.15 607.25 23.15 604.85 23.15 603.6 25.05 602.85 26.05 602.7 27.15 L602.6 27.05 Q602.3 26.85 602.3 28.65 602.3 31.7 604.75 32.05 M358.8 144.8 Q340.2 146.4 330.7 148.1 L320.7 149.6 Q315.2 150.55 306.8 153.45 297.8 156.55 288.0 162.9 278.7 168.9 275.65 173.15 263.45 187.2 259.35 192.85 257.85 195.0 254.3 201.7 249.9 210.1 249.9 212.65 L250.15 215.05 250.2 215.3 Q246.75 223.05 243.7 242.05 241.1 258.3 239.7 275.35 239.7 277.4 242.85 290.75 246.0 303.95 247.15 307.1 250.25 315.1 254.85 322.9 264.15 338.6 267.75 338.6 269.1 338.6 269.6 337.9 276.25 343.55 288.8 352.4 294.1 356.45 310.95 363.45 327.9 370.6 332.4 370.6 L336.9 370.55 342.65 372.25 350.2 373.5 357.55 374.4 Q380.2 374.4 404.8 361.25 412.4 357.2 422.05 350.75 432.45 343.8 434.1 342.9 437.3 341.05 440.2 337.75 L444.2 332.95 450.05 327.95 Q453.7 324.8 454.45 322.85 463.35 308.15 464.25 303.6 467.65 299.95 471.85 283.15 L476.3 261.65 Q477.05 246.4 473.75 243.0 L473.75 242.5 Q473.75 240.35 470.3 226.85 466.7 213.0 464.95 209.15 461.25 201.05 452.25 190.0 446.0 182.45 441.15 179.05 L441.15 178.8 Q441.15 177.85 435.25 172.65 L428.55 167.05 Q420.35 162.8 418.4 161.35 414.85 157.1 411.1 155.65 403.9 152.8 382.35 148.5 362.95 144.65 360.15 144.65 L358.8 144.8 M261.9 323.35 L266.05 329.0 265.1 328.6 262.6 324.6 261.9 323.35 M444.5 121.35 Q445.4 114.85 439.4 114.85 436.7 114.85 434.85 117.0 433.0 119.05 433.0 121.8 L433.05 124.75 Q434.05 127.4 438.85 127.4 444.5 127.4 444.5 121.35 M449.25 258.75 L449.3 260.85 449.2 260.95 449.25 258.75 M257.1 260.95 L257.0 260.85 257.05 258.75 257.1 260.95 M365.2 378.15 Q363.9 378.65 363.3 379.8 362.7 381.05 362.7 384.25 L362.7 387.5 Q363.4 390.3 367.25 390.3 372.9 390.3 372.9 383.2 373.6 379.2 370.6 378.05 L370.35 377.7 369.9 377.35 365.35 377.65 365.2 378.15 M641.15 255.0 Q642.95 255.0 644.25 253.5 645.4 252.2 645.4 250.8 645.4 246.55 641.15 246.55 639.95 246.55 637.6 247.8 634.85 249.25 634.85 250.95 634.85 253.95 635.15 252.3 638.8 255.0 641.15 255.0 M497.65 223.85 L496.9 223.6 Q496.9 223.9 496.0 224.2 496.0 225.75 496.9 226.3 L498.8 224.8 Q498.55 224.2 497.65 223.85 M501.45 226.95 Q501.45 231.15 505.3 231.15 508.4 231.15 510.0 229.95 510.55 229.8 510.55 226.8 510.55 225.0 510.15 224.4 L509.65 223.6 506.0 223.0 Q503.55 222.4 502.35 224.1 501.45 225.3 501.45 226.95 M581.85 352.8 L583.0 352.85 Q587.15 352.85 587.15 347.9 586.25 342.75 583.0 342.75 578.7 342.75 578.7 347.45 578.7 350.45 579.0 351.55 L579.0 351.65 Q579.0 354.7 579.7 353.5 580.95 353.5 581.85 352.8 M158.35 61.1 Q158.35 59.2 157.7 58.7 L156.55 57.95 155.3 57.95 155.15 59.9 Q155.15 61.8 155.7 61.95 L157.45 62.0 158.35 61.1 M156.55 289.0 L159.9 292.35 163.3 289.0 Q162.65 286.95 159.9 284.8 159.9 285.7 158.25 287.05 156.55 288.35 156.55 289.0 M49.4 82.35 L50.05 81.85 Q50.5 81.55 50.5 79.7 50.5 75.75 47.25 74.55 43.9 76.55 43.9 79.55 43.9 80.35 47.25 83.3 48.65 83.0 49.4 82.35 M161.75 59.15 Q159.85 59.15 159.25 59.55 158.2 60.35 158.2 63.35 158.2 66.4 158.65 67.45 L161.75 68.05 Q166.35 67.45 166.35 63.05 166.35 59.15 161.75 59.15 M114.2 356.65 Q114.5 354.15 113.65 351.95 111.95 347.6 106.6 347.6 102.85 347.6 101.8 350.8 101.4 352.05 101.4 355.3 101.4 358.05 101.8 359.0 103.15 362.1 108.4 362.1 112.05 362.1 113.25 360.8 114.2 359.75 114.2 356.65 M59.35 214.4 Q56.05 214.4 55.1 218.05 54.8 219.35 54.8 223.3 L55.35 226.95 Q56.75 230.25 60.6 230.25 69.95 230.25 69.95 222.85 70.45 220.5 69.35 218.45 67.25 214.4 59.35 214.4 M184.3 341.6 Q180.6 341.9 180.6 347.15 L180.6 349.85 Q181.25 352.3 184.75 352.3 189.05 352.3 190.25 350.6 191.2 349.35 191.2 345.2 191.3 344.3 190.55 343.4 189.75 342.45 188.2 342.0 L188.75 340.65 Q185.55 339.15 184.3 341.6 M603.6 470.55 Q605.25 470.1 606.0 467.95 L605.1 465.25 Q601.1 465.25 601.1 468.1 601.1 470.05 601.75 470.25 L603.6 470.55 M84.2 470.85 Q84.5 471.15 84.5 468.1 L81.1 464.95 Q81.1 465.55 78.4 465.55 L77.9 466.35 Q77.75 466.4 77.75 468.1 77.75 469.25 78.8 470.35 L81.1 472.35 84.2 470.85 M176.0 505.9 L174.75 505.9 Q174.75 506.45 174.45 506.65 174.1 506.9 174.1 508.6 174.1 510.75 175.35 512.65 L176.2 513.35 178.1 513.55 Q180.05 513.55 180.4 512.7 L180.6 511.15 Q180.15 509.65 178.7 508.35 L176.0 505.9" fill="#333944" fill-rule="evenodd" stroke="none"/>
    <path d="M602.7 27.15 Q602.85 26.05 603.6 25.05 604.85 23.15 607.25 23.15 612.0 23.15 613.5 26.95 614.3 28.85 614.15 31.05 614.15 35.4 609.7 35.4 607.05 35.4 604.75 32.05 L605.4 32.1 606.65 29.5 Q605.35 27.75 603.6 27.4 L603.6 27.75 602.7 27.15 M437.0 122.1 Q439.25 122.1 440.5 121.2 440.5 118.2 439.25 115.8 436.3 117.0 437.0 122.1 M444.5 121.35 Q444.5 127.4 438.85 127.4 434.05 127.4 433.05 124.75 L433.0 121.8 Q433.0 119.05 434.85 117.0 436.7 114.85 439.4 114.85 445.4 114.85 444.5 121.35 M370.6 378.05 Q373.6 379.2 372.9 383.2 372.9 390.3 367.25 390.3 363.4 390.3 362.7 387.5 L362.7 384.25 Q362.7 381.05 363.3 379.8 363.9 378.65 365.2 378.15 L364.85 378.55 364.8 380.55 Q364.8 382.5 365.4 382.85 L367.25 383.4 370.3 382.5 Q370.8 382.8 370.8 379.75 L370.6 378.05 M641.15 255.0 Q638.8 255.0 635.15 252.3 634.85 253.95 634.85 250.95 634.85 249.25 637.6 247.8 639.95 246.55 641.15 246.55 645.4 246.55 645.4 250.8 645.4 252.2 644.25 253.5 642.95 255.0 641.15 255.0 M642.4 251.85 Q642.4 254.9 643.6 252.9 644.5 252.3 644.5 251.35 644.5 248.7 643.85 247.75 L642.65 247.75 642.4 251.85 M501.45 226.95 Q501.45 225.3 502.35 224.1 503.55 222.4 506.0 223.0 L509.65 223.6 510.15 224.4 Q510.55 225.0 510.55 226.8 510.55 229.8 510.0 229.95 508.4 231.15 505.3 231.15 501.45 231.15 501.45 226.95 M581.85 352.8 L582.15 352.6 Q582.15 350.25 581.2 349.15 L579.7 349.15 579.35 349.4 Q579.0 349.8 579.0 351.55 578.7 350.45 578.7 347.45 578.7 342.75 583.0 342.75 586.25 342.75 587.15 347.9 587.15 352.85 583.0 352.85 L581.85 352.8 M161.75 59.15 Q166.35 59.15 166.35 63.05 166.35 67.45 161.75 68.05 L158.65 67.45 Q158.2 66.4 158.2 63.35 158.2 60.35 159.25 59.55 159.85 59.15 161.75 59.15 M49.4 82.35 Q48.65 83.0 47.25 83.3 43.9 80.35 43.9 79.55 43.9 76.55 47.25 74.55 50.5 75.75 50.5 79.7 50.5 81.55 50.05 81.85 L49.4 82.35 M156.55 289.0 Q156.55 288.35 158.25 287.05 159.9 285.7 159.9 284.8 162.65 286.95 163.3 289.0 L159.9 292.35 156.55 289.0 M58.8 216.8 Q58.45 218.15 58.45 220.45 58.45 221.75 61.8 224.2 64.25 223.15 66.0 219.95 62.0 216.5 60.6 216.5 L58.8 216.8 M59.35 214.4 Q67.25 214.4 69.35 218.45 70.45 220.5 69.95 222.85 69.95 230.25 60.6 230.25 56.75 230.25 55.35 226.95 L54.8 223.3 Q54.8 219.35 55.1 218.05 56.05 214.4 59.35 214.4 M114.2 356.65 Q114.2 359.75 113.25 360.8 112.05 362.1 108.4 362.1 103.15 362.1 101.8 359.0 101.4 358.05 101.4 355.3 101.4 352.05 101.8 350.8 102.85 347.6 106.6 347.6 111.95 347.6 113.65 351.95 114.5 354.15 114.2 356.65 M105.05 351.55 Q105.65 352.3 109.3 353.5 111.5 353.15 111.75 352.3 111.8 351.45 111.3 350.9 110.55 350.05 106.6 348.5 105.05 349.0 105.05 351.55 M184.3 341.6 L183.85 342.85 Q183.5 344.0 183.5 347.9 183.5 349.8 183.9 350.0 L185.3 350.35 186.9 349.7 Q186.9 345.55 188.2 342.0 189.75 342.45 190.55 343.4 191.3 344.3 191.2 345.2 191.2 349.35 190.25 350.6 189.05 352.3 184.75 352.3 181.25 352.3 180.6 349.85 L180.6 347.15 Q180.6 341.9 184.3 341.6 M176.0 505.9 L178.7 508.35 Q180.15 509.65 180.6 511.15 L180.4 512.7 Q180.05 513.55 178.1 513.55 L176.2 513.35 175.35 512.65 Q174.1 510.75 174.1 508.6 174.1 506.9 174.45 506.65 174.75 506.45 174.75 505.9 L176.0 505.9 M84.2 470.85 L81.1 472.35 78.8 470.35 Q77.75 469.25 77.75 468.1 77.75 466.4 77.9 466.35 L78.4 465.55 Q81.1 465.55 81.1 464.95 L84.5 468.1 Q84.5 471.15 84.2 470.85 M603.6 470.55 L601.75 470.25 Q601.1 470.05 601.1 468.1 601.1 465.25 605.1 465.25 L606.0 467.95 Q605.25 470.1 603.6 470.55" fill="#444b59" fill-rule="evenodd" stroke="none"/>
    <path d="M602.7 27.15 L603.6 27.75 603.6 27.4 Q605.35 27.75 606.65 29.5 L605.4 32.1 604.75 32.05 Q602.3 31.7 602.3 28.65 602.3 26.85 602.6 27.05 L602.7 27.15 M437.0 122.1 Q436.3 117.0 439.25 115.8 440.5 118.2 440.5 121.2 439.25 122.1 437.0 122.1 M370.6 378.05 L370.8 379.75 Q370.8 382.8 370.3 382.5 L367.25 383.4 365.4 382.85 Q364.8 382.5 364.8 380.55 L364.85 378.55 365.2 378.15 365.35 377.65 369.9 377.35 370.35 377.7 370.6 378.05 M642.4 251.85 L642.65 247.75 643.85 247.75 Q644.5 248.7 644.5 251.35 644.5 252.3 643.6 252.9 642.4 254.9 642.4 251.85 M497.65 223.85 Q498.55 224.2 498.8 224.8 L496.9 226.3 Q496.0 225.75 496.0 224.2 496.9 223.9 496.9 223.6 L497.65 223.85 M579.0 351.55 Q579.0 349.8 579.35 349.4 L579.7 349.15 581.2 349.15 Q582.15 350.25 582.15 352.6 L581.85 352.8 Q580.95 353.5 579.7 353.5 579.0 354.7 579.0 351.65 L579.0 351.55 M158.35 61.1 L157.45 62.0 155.7 61.95 Q155.15 61.8 155.15 59.9 L155.3 57.95 156.55 57.95 157.7 58.7 Q158.35 59.2 158.35 61.1 M58.8 216.8 L60.6 216.5 Q62.0 216.5 66.0 219.95 64.25 223.15 61.8 224.2 58.45 221.75 58.45 220.45 58.45 218.15 58.8 216.8 M105.05 351.55 Q105.05 349.0 106.6 348.5 110.55 350.05 111.3 350.9 111.8 351.45 111.75 352.3 111.5 353.15 109.3 353.5 105.65 352.3 105.05 351.55 M188.2 342.0 Q186.9 345.55 186.9 349.7 L185.3 350.35 183.9 350.0 Q183.5 349.8 183.5 347.9 183.5 344.0 183.85 342.85 L184.3 341.6 Q185.55 339.15 188.75 340.65 L188.2 342.0" fill="#9ea6b6" fill-rule="evenodd" stroke="none"/>
    <path d="M358.8 144.8 L360.15 144.65 Q362.95 144.65 382.35 148.5 403.9 152.8 411.1 155.65 414.85 157.1 418.4 161.35 420.35 162.8 428.55 167.05 L435.25 172.65 Q441.15 177.85 441.15 178.8 L441.15 179.05 Q446.0 182.45 452.25 190.0 461.25 201.05 464.95 209.15 466.7 213.0 470.3 226.85 473.75 240.35 473.75 242.5 L473.75 243.0 Q477.05 246.4 476.3 261.65 L471.85 283.15 Q467.65 299.95 464.25 303.6 463.35 308.15 454.45 322.85 453.7 324.8 450.05 327.95 L444.2 332.95 440.2 337.75 Q437.3 341.05 434.1 342.9 432.45 343.8 422.05 350.75 412.4 357.2 404.8 361.25 380.2 374.4 357.55 374.4 L350.2 373.5 342.65 372.25 336.9 370.55 332.4 370.6 Q327.9 370.6 310.95 363.45 294.1 356.45 288.8 352.4 276.25 343.55 269.6 337.9 269.1 338.6 267.75 338.6 264.15 338.6 254.85 322.9 250.25 315.1 247.15 307.1 246.0 303.95 242.85 290.75 239.7 277.4 239.7 275.35 241.1 258.3 243.7 242.05 246.75 223.05 250.2 215.3 L250.15 215.05 249.9 212.65 Q249.9 210.1 254.3 201.7 257.85 195.0 259.35 192.85 263.45 187.2 275.65 173.15 278.7 168.9 288.0 162.9 297.8 156.55 306.8 153.45 315.2 150.55 320.7 149.6 L330.7 148.1 Q340.2 146.4 358.8 144.8 M266.05 329.0 Q270.85 331.25 281.75 339.4 298.95 352.25 300.75 353.1 307.75 356.6 323.0 361.7 345.3 369.2 357.5 369.2 378.75 369.2 400.3 358.25 414.75 350.95 432.05 336.9 441.05 329.55 450.5 312.8 L456.35 302.75 Q458.5 299.4 460.0 298.8 460.85 295.0 464.45 282.85 469.1 266.8 469.1 260.15 468.45 252.4 468.3 248.4 467.05 247.5 467.05 244.9 467.05 242.45 463.25 228.4 459.5 214.55 458.1 211.75 451.05 197.8 440.2 188.5 L433.95 183.25 Q431.5 180.95 431.5 178.9 L431.5 178.6 430.85 178.05 Q424.8 173.1 422.9 172.2 418.65 170.15 413.95 166.45 409.05 162.6 407.4 161.7 403.9 159.85 396.55 157.5 389.75 155.35 386.35 154.75 363.05 151.1 359.95 151.1 352.15 151.1 329.8 154.85 308.55 158.5 306.15 159.75 294.0 166.1 288.95 169.35 280.8 174.55 278.55 178.7 277.85 180.1 273.95 183.6 269.75 187.45 268.9 188.6 263.15 195.4 261.7 198.2 259.35 202.7 255.6 211.45 L250.45 236.85 Q245.1 264.55 245.1 271.35 245.1 276.3 248.0 288.75 250.35 298.8 252.1 304.1 254.6 311.25 261.9 323.35 L262.6 324.6 265.1 328.6 266.05 329.0" fill="#434a5a" fill-rule="evenodd" stroke="none"/>
    <path d="M308.15 327.6 Q305.9 325.85 303.95 323.6 301.05 322.15 298.55 320.15 291.05 314.2 291.05 309.25 L291.25 307.15 Q283.8 302.65 278.85 293.75 269.9 290.1 265.05 277.7 260.95 267.4 260.95 258.35 260.95 250.1 263.25 240.3 266.4 227.2 272.7 216.8 275.6 211.95 279.05 207.95 280.7 204.2 282.7 200.65 298.85 172.55 334.5 172.55 L362.95 174.65 370.2 175.15 378.0 174.65 Q399.4 174.65 410.05 187.8 413.2 191.7 415.05 196.35 L415.65 197.65 415.65 198.0 Q416.65 200.75 416.65 202.0 L416.55 204.75 Q415.15 204.05 413.65 204.05 408.75 204.05 406.3 207.4 405.35 208.7 404.9 210.15 L402.5 209.15 400.3 207.95 397.0 208.55 Q383.05 211.2 383.05 221.15 383.05 225.45 386.05 229.9 388.6 233.7 389.0 236.2 L389.05 236.95 389.0 238.15 388.05 238.1 Q382.65 238.1 380.05 240.4 380.0 237.35 379.1 234.35 376.9 227.2 370.8 227.2 364.65 227.2 361.8 232.2 360.0 235.3 359.9 238.95 L354.6 234.35 Q351.4 232.2 347.8 232.2 341.9 232.2 338.25 233.35 334.0 238.2 333.2 246.75 L333.65 248.35 Q335.05 252.8 335.05 254.25 335.05 259.7 329.7 259.7 323.7 259.7 320.7 247.3 318.35 252.05 317.3 255.1 L316.5 257.6 Q315.95 263.85 315.95 274.05 L319.55 288.05 320.75 286.9 Q324.35 284.8 330.8 284.8 L335.15 285.0 Q336.35 282.0 338.8 278.65 341.55 274.85 344.9 272.75 344.6 270.85 344.75 268.6 L345.0 266.2 Q345.0 264.45 346.9 259.65 349.0 254.25 352.05 249.35 355.9 243.05 359.9 239.6 L360.0 241.1 Q360.3 243.1 361.1 244.8 363.8 250.15 370.8 250.15 374.95 250.15 377.55 247.3 377.75 248.75 379.65 250.85 L380.55 251.75 380.0 251.95 Q378.4 250.8 376.0 250.8 369.6 250.8 366.75 261.65 L364.5 269.1 363.7 270.7 Q366.0 271.1 367.9 271.8 368.1 275.85 370.7 280.1 371.8 281.9 373.15 283.35 L372.05 283.55 360.5 282.8 Q353.75 282.8 351.55 286.85 351.1 287.6 350.85 288.65 L350.55 288.65 Q348.65 288.65 347.85 290.6 347.45 291.65 347.45 292.65 L347.9 294.0 Q348.6 295.25 350.3 295.3 L350.3 295.8 Q350.65 303.2 350.4 304.75 349.95 306.65 348.9 307.65 L345.65 308.15 Q345.45 306.7 344.7 305.55 343.9 304.4 341.7 303.2 339.7 302.05 338.9 302.05 L336.35 302.3 Q335.8 301.2 335.4 299.9 L334.85 297.95 Q330.85 298.15 328.9 302.05 327.6 304.8 326.75 311.2 L325.55 318.2 Q322.65 320.15 322.5 324.7 L314.5 325.75 Q309.95 326.3 308.4 327.4 L308.15 327.6 M301.35 248.05 Q305.5 246.2 307.6 238.15 L311.85 238.45 Q316.15 238.45 319.65 234.5 322.45 231.35 322.45 229.5 322.45 227.1 320.9 226.45 321.4 225.1 321.4 223.75 L319.9 220.75 320.1 220.85 322.6 221.4 Q327.0 221.4 327.0 217.55 327.0 216.75 326.15 215.4 L325.35 213.85 Q325.35 213.6 326.5 212.0 327.65 210.4 327.65 209.25 323.75 202.45 320.05 201.9 L319.1 200.2 320.0 200.25 Q320.75 200.25 321.55 198.45 322.3 196.65 325.7 196.65 328.6 196.65 329.55 196.05 330.45 195.5 330.45 194.05 330.45 191.45 324.4 191.45 320.0 191.45 318.0 194.1 316.85 195.75 316.8 197.65 314.8 196.05 312.25 196.05 305.15 196.05 303.45 200.3 303.05 201.2 303.0 204.4 297.55 204.65 294.25 210.55 293.3 212.35 292.8 213.9 L291.15 214.35 Q286.0 215.9 286.0 218.0 L286.2 219.15 Q286.45 219.75 286.9 220.0 L286.6 220.15 Q283.6 221.75 283.6 224.0 283.6 225.75 284.9 226.3 280.35 226.35 277.7 229.4 275.75 231.55 275.75 233.4 275.75 234.45 276.25 235.35 L275.75 235.9 Q274.25 238.3 274.25 239.8 L275.65 244.1 Q277.25 246.7 279.65 247.65 L279.4 248.25 276.8 247.85 Q275.3 247.85 274.15 248.55 273.95 247.5 274.4 246.85 274.95 245.9 274.95 245.25 275.1 243.35 273.55 243.35 272.55 243.35 271.95 245.15 271.6 246.4 271.6 247.25 271.6 249.0 273.35 249.1 272.4 249.95 271.6 251.3 270.35 253.85 270.35 256.35 270.35 257.8 271.3 259.2 L272.1 260.15 Q269.75 260.15 269.75 262.5 269.75 266.95 282.7 266.95 285.9 266.95 288.9 265.2 291.8 263.5 291.8 261.95 L291.75 261.25 292.35 261.25 Q296.05 261.25 298.05 258.75 299.55 257.1 299.55 255.65 L299.6 255.2 Q301.05 252.8 301.05 250.55 L300.85 249.3 Q301.25 248.9 301.35 248.05 M408.65 210.95 L408.6 210.5 Q408.6 209.45 408.95 209.15 410.4 207.95 415.7 207.95 L415.8 207.95 Q414.45 211.05 410.35 211.05 L408.65 210.95 M398.35 259.4 Q400.65 255.2 406.0 254.8 406.1 255.75 406.95 256.25 404.65 258.35 403.3 261.85 402.5 263.95 402.1 267.15 400.45 262.6 398.35 259.4 M384.05 233.8 Q383.7 232.15 381.35 232.15 379.15 232.15 379.15 234.15 L379.6 235.7 Q380.4 237.3 381.8 237.3 384.05 237.3 384.05 233.8 M357.6 209.55 Q355.05 210.65 352.2 212.0 L356.5 213.0 Q356.9 211.15 357.6 209.55 M356.15 270.0 L355.5 268.45 356.0 270.0 356.15 270.0 M358.3 274.3 L357.65 273.2 Q356.45 273.7 356.45 275.1 356.45 275.35 357.0 275.6 358.3 275.15 358.3 274.3 M371.4 288.4 Q372.35 287.45 373.75 286.7 370.8 291.25 370.6 295.7 369.8 294.7 368.65 294.1 L368.7 293.8 369.85 292.45 Q371.35 290.3 371.4 288.4 M390.3 251.85 L390.15 252.2 390.1 252.2 390.3 251.85 M402.45 279.2 L401.6 279.0 402.05 277.8 402.45 279.2 M308.7 208.85 Q309.5 206.05 313.45 205.3 L312.4 206.7 Q310.2 209.75 309.75 211.5 309.15 210.95 308.25 210.7 L308.7 208.85 M303.75 224.0 L303.65 224.2 303.6 224.35 303.2 223.7 303.75 224.0 M283.1 256.7 L282.85 256.8 282.9 256.5 283.1 256.7 M309.6 311.95 L305.65 311.8 306.7 313.5 Q308.95 315.0 311.65 315.95 L310.85 312.9 310.6 311.95 309.6 311.95" fill="#9da5b5" fill-rule="evenodd" stroke="none"/>
    <path d="M284.9 226.3 Q283.6 225.75 283.6 224.0 283.6 221.75 286.6 220.15 L286.9 220.0 Q286.45 219.75 286.2 219.15 L286.0 218.0 Q286.0 215.9 291.15 214.35 L292.8 213.9 Q293.3 212.35 294.25 210.55 297.55 204.65 303.0 204.4 303.05 201.2 303.45 200.3 305.15 196.05 312.25 196.05 314.8 196.05 316.8 197.65 316.85 195.75 318.0 194.1 320.0 191.45 324.4 191.45 330.45 191.45 330.45 194.05 330.45 195.5 329.55 196.05 328.6 196.65 325.7 196.65 322.3 196.65 321.55 198.45 320.75 200.25 320.0 200.25 L319.1 200.2 320.05 201.9 Q323.75 202.45 327.65 209.25 327.65 210.4 326.5 212.0 325.35 213.6 325.35 213.85 L326.15 215.4 Q327.0 216.75 327.0 217.55 327.0 221.4 322.6 221.4 L320.1 220.85 319.9 220.75 321.4 223.75 Q321.4 225.1 320.9 226.45 322.45 227.1 322.45 229.5 322.45 231.35 319.65 234.5 316.15 238.45 311.85 238.45 L307.6 238.15 Q305.5 246.2 301.35 248.05 L301.35 247.7 Q300.6 246.1 300.6 245.35 L303.15 237.6 Q302.6 235.0 303.1 233.85 303.95 232.1 309.9 229.7 310.5 229.5 311.2 228.65 314.95 227.35 314.95 225.55 314.95 223.35 314.15 221.7 L314.35 220.9 Q312.3 216.15 310.4 216.15 308.0 216.15 307.7 218.4 307.55 219.5 307.8 221.05 302.45 219.05 302.45 216.8 304.45 214.8 304.45 213.65 304.4 211.5 302.65 211.2 L302.0 211.15 Q298.85 211.15 296.6 214.75 L293.35 219.35 286.05 226.55 284.9 226.3 M291.75 261.25 L291.8 261.95 Q291.8 263.5 288.9 265.2 285.9 266.95 282.7 266.95 269.75 266.95 269.75 262.5 269.75 260.15 272.1 260.15 L273.35 260.75 Q274.4 261.4 275.35 261.4 L276.55 261.4 Q282.0 261.3 284.9 260.25 L288.1 259.1 Q291.25 259.1 291.75 261.25 M308.7 208.85 L308.25 210.7 Q309.15 210.95 309.75 211.5 310.2 209.75 312.4 206.7 L313.45 205.3 Q309.5 206.05 308.7 208.85 M296.9 248.1 Q296.1 247.7 295.7 246.9 295.15 246.05 295.15 245.1 295.15 244.35 295.95 243.3 L295.95 243.4 296.25 246.6 Q296.5 247.5 296.9 248.1" fill="#a2a9b9" fill-rule="evenodd" stroke="none"/>
    <path d="M261.9 323.35 Q254.6 311.25 252.1 304.1 250.35 298.8 248.0 288.75 245.1 276.3 245.1 271.35 245.1 264.55 250.45 236.85 L255.6 211.45 Q259.35 202.7 261.7 198.2 263.15 195.4 268.9 188.6 269.75 187.45 273.95 183.6 277.85 180.1 278.55 178.7 280.8 174.55 288.95 169.35 294.0 166.1 306.15 159.75 308.55 158.5 329.8 154.85 352.15 151.1 359.95 151.1 363.05 151.1 386.35 154.75 389.75 155.35 396.55 157.5 403.9 159.85 407.4 161.7 409.05 162.6 413.95 166.45 418.65 170.15 422.9 172.2 424.8 173.1 430.85 178.05 L431.5 178.6 431.5 178.9 Q431.5 180.95 433.95 183.25 L440.2 188.5 Q451.05 197.8 458.1 211.75 459.5 214.55 463.25 228.4 467.05 242.45 467.05 244.9 467.05 247.5 468.3 248.4 468.45 252.4 469.1 260.15 469.1 266.8 464.45 282.85 460.85 295.0 460.0 298.8 458.5 299.4 456.35 302.75 L450.5 312.8 Q441.05 329.55 432.05 336.9 414.75 350.95 400.3 358.25 378.75 369.2 357.5 369.2 345.3 369.2 323.0 361.7 307.75 356.6 300.75 353.1 298.95 352.25 281.75 339.4 270.85 331.25 266.05 329.0 L261.9 323.35 M398.7 161.85 Q392.8 159.8 384.9 157.75 367.75 153.3 355.25 153.3 338.65 153.3 319.45 159.6 305.25 164.25 298.95 168.45 290.05 174.45 283.45 181.25 277.35 187.45 273.75 190.5 L271.05 194.05 Q265.0 202.15 263.5 206.55 L257.0 226.45 251.85 247.1 Q249.9 256.5 249.9 266.55 249.9 278.25 256.75 294.95 L261.5 305.75 262.5 308.15 Q264.5 310.35 267.15 314.05 L276.5 326.95 288.65 339.8 294.8 346.45 297.25 347.75 Q303.8 350.95 310.95 353.6 334.1 362.1 356.95 362.1 376.35 362.1 404.85 350.6 412.65 346.85 419.05 341.05 428.05 332.9 429.7 331.75 435.45 327.6 439.65 322.3 L446.0 312.95 451.3 302.5 Q453.5 298.35 455.6 296.4 456.1 290.85 458.75 275.95 462.05 257.5 462.05 250.95 462.05 245.0 461.2 240.5 L458.25 229.1 457.15 223.5 Q456.35 220.2 454.75 218.1 450.55 212.25 449.5 209.15 L446.8 205.85 441.75 198.4 Q438.25 194.55 428.55 184.95 L421.85 177.95 Q418.0 174.05 413.85 171.3 408.95 166.25 405.0 164.8 400.4 163.1 398.95 162.05 L398.7 161.85" fill="#50586b" fill-rule="evenodd" stroke="none"/>
    <path d="M416.55 204.75 L416.65 202.0 Q416.65 200.75 415.65 198.0 L415.65 197.65 415.05 196.35 Q413.2 191.7 410.05 187.8 399.4 174.65 378.0 174.65 L370.2 175.15 362.95 174.65 334.5 172.55 Q298.85 172.55 282.7 200.65 280.7 204.2 279.05 207.95 275.6 211.95 272.7 216.8 266.4 227.2 263.25 240.3 260.95 250.1 260.95 258.35 260.95 267.4 265.05 277.7 269.9 290.1 278.85 293.75 283.8 302.65 291.25 307.15 L291.05 309.25 Q291.05 314.2 298.55 320.15 301.05 322.15 303.95 323.6 305.9 325.85 308.15 327.6 306.5 329.0 306.5 332.2 L307.05 333.8 Q307.85 335.7 309.3 337.2 312.65 340.8 318.6 341.75 321.25 343.5 327.8 345.4 337.6 348.25 342.65 348.25 L344.05 347.9 Q345.9 348.75 349.35 348.75 359.9 348.75 376.35 343.9 390.6 339.65 395.85 336.4 408.7 328.35 412.9 324.5 L416.25 320.85 Q424.7 318.7 429.35 310.95 431.7 307.05 432.8 303.0 437.9 297.1 445.0 269.85 L443.35 256.8 443.7 250.85 Q443.7 249.25 442.65 243.65 441.35 236.15 439.35 229.85 433.3 210.35 424.1 210.35 422.3 210.35 422.0 212.35 L421.2 211.95 Q420.85 210.1 419.6 207.95 418.25 205.7 416.55 204.75 M325.55 318.2 L326.75 311.2 Q327.6 304.8 328.9 302.05 330.85 298.15 334.85 297.95 L335.4 299.9 Q335.8 301.2 336.35 302.3 330.7 303.5 330.7 310.3 330.7 314.4 336.2 314.4 337.35 314.4 338.7 313.6 337.95 314.75 337.55 316.2 L337.25 317.65 Q335.05 316.7 331.45 316.7 327.75 316.7 325.55 318.2 M348.9 307.65 Q349.95 306.65 350.4 304.75 350.65 303.2 350.3 295.8 L350.3 295.3 350.45 295.3 Q351.15 295.3 352.4 294.55 353.7 293.7 353.7 292.9 353.7 288.85 350.85 288.65 351.1 287.6 351.55 286.85 353.75 282.8 360.5 282.8 L372.05 283.55 373.15 283.35 375.0 284.95 374.2 286.0 373.75 286.7 Q372.35 287.45 371.4 288.4 L371.4 288.2 Q371.4 286.6 369.9 285.1 367.7 283.0 363.65 283.0 361.85 283.0 359.65 286.5 357.7 289.55 357.7 290.55 357.7 291.7 358.7 293.25 L359.0 293.65 Q355.45 294.9 353.25 298.35 351.15 301.7 351.15 304.55 351.15 306.1 351.7 307.65 L350.25 307.6 348.9 307.65 M367.9 271.8 Q366.0 271.1 363.7 270.7 L364.5 269.1 366.75 261.65 Q369.6 250.8 376.0 250.8 378.4 250.8 380.0 251.95 375.3 253.9 371.7 260.35 367.85 267.25 367.85 271.0 L367.9 271.8 M359.9 239.6 Q355.9 243.05 352.05 249.35 349.0 254.25 346.9 259.65 345.0 264.45 345.0 266.2 L344.75 268.6 Q344.6 270.85 344.9 272.75 341.55 274.85 338.8 278.65 336.35 282.0 335.15 285.0 L330.8 284.8 Q324.35 284.8 320.75 286.9 L319.55 288.05 315.95 274.05 Q315.95 263.85 316.5 257.6 L317.3 255.1 Q318.35 252.05 320.7 247.3 323.7 259.7 329.7 259.7 335.05 259.7 335.05 254.25 335.05 252.8 333.65 248.35 L333.2 246.75 Q334.0 238.2 338.25 233.35 341.9 232.2 347.8 232.2 351.4 232.2 354.6 234.35 L359.9 238.95 359.9 239.45 359.9 239.6 M389.0 238.15 L389.05 236.95 389.2 238.15 389.0 238.15 M389.0 236.2 Q388.6 233.7 386.05 229.9 383.05 225.45 383.05 221.15 383.05 211.2 397.0 208.55 L400.3 207.95 402.5 209.15 404.9 210.15 Q404.55 211.25 404.55 212.4 404.55 213.05 405.5 215.05 406.65 217.6 407.95 217.6 409.5 217.6 409.5 215.75 L408.65 210.95 410.35 211.05 Q414.45 211.05 415.8 207.95 417.3 208.15 418.4 212.15 L418.25 212.15 Q415.2 212.15 413.3 213.95 411.55 215.65 411.55 217.7 411.55 220.0 412.7 222.05 L413.15 222.8 Q409.05 220.9 401.75 220.9 396.35 220.9 392.35 225.75 389.05 229.8 389.05 233.25 L389.0 236.2 M257.05 258.75 L257.0 256.65 Q257.0 217.45 285.1 189.7 313.3 161.9 353.1 161.9 392.95 161.9 421.15 189.7 449.3 217.45 449.3 256.65 L449.25 258.75 449.2 260.95 Q447.75 297.45 421.15 323.7 392.95 351.45 353.1 351.45 313.3 351.45 285.1 323.7 258.45 297.45 257.1 260.95 L257.05 258.75 M398.35 259.4 Q396.55 256.7 394.55 254.95 395.7 254.5 396.75 252.95 397.85 251.15 397.85 250.2 L397.8 249.3 402.35 249.9 Q407.9 249.9 412.9 243.85 412.45 244.95 412.45 246.0 412.45 247.85 414.25 252.8 L413.85 252.3 Q412.5 250.9 410.0 250.9 408.35 250.9 407.0 252.4 405.95 253.65 405.95 254.4 L406.0 254.8 Q400.65 255.2 398.35 259.4 M415.45 240.3 Q418.4 235.6 418.4 232.5 418.4 227.65 416.75 225.45 L420.15 226.0 422.4 225.95 423.05 235.0 423.0 236.9 Q418.3 237.45 415.45 240.3 M422.0 216.7 L422.2 221.7 418.65 219.75 418.25 218.95 Q419.2 217.4 422.0 216.7 M357.6 209.55 Q356.9 211.15 356.5 213.0 L352.2 212.0 Q355.05 210.65 357.6 209.55 M356.15 270.0 L356.0 270.0 355.5 268.45 356.15 270.0 M390.3 251.85 L390.3 251.8 390.4 252.3 390.15 252.2 390.3 251.85 M368.65 294.1 L368.45 293.95 368.7 293.8 368.65 294.1 M402.45 279.2 Q403.0 281.3 404.1 283.3 L403.3 283.85 400.35 281.4 400.55 281.0 401.6 279.0 402.45 279.2 M309.6 311.95 L310.6 311.95 310.85 312.9 311.65 315.95 Q308.95 315.0 306.7 313.5 L305.65 311.8 309.6 311.95" fill="#8f98ab" fill-rule="evenodd" stroke="none"/>
    <path d="M398.7 161.85 L398.95 162.05 Q400.4 163.1 405.0 164.8 408.95 166.25 413.85 171.3 418.0 174.05 421.85 177.95 L428.55 184.95 Q438.25 194.55 441.75 198.4 L446.8 205.85 449.5 209.15 Q450.55 212.25 454.75 218.1 456.35 220.2 457.15 223.5 L458.25 229.1 461.2 240.5 Q462.05 245.0 462.05 250.95 462.05 257.5 458.75 275.95 456.1 290.85 455.6 296.4 453.5 298.35 451.3 302.5 L446.0 312.95 439.65 322.3 Q435.45 327.6 429.7 331.75 428.05 332.9 419.05 341.05 412.65 346.85 404.85 350.6 376.35 362.1 356.95 362.1 334.1 362.1 310.95 353.6 303.8 350.95 297.25 347.75 L294.8 346.45 288.65 339.8 276.5 326.95 267.15 314.05 Q264.5 310.35 262.5 308.15 L261.5 305.75 256.75 294.95 Q249.9 278.25 249.9 266.55 249.9 256.5 251.85 247.1 L257.0 226.45 263.5 206.55 Q265.0 202.15 271.05 194.05 L273.75 190.5 Q277.35 187.45 283.45 181.25 290.05 174.45 298.95 168.45 305.25 164.25 319.45 159.6 338.65 153.3 355.25 153.3 367.75 153.3 384.9 157.75 392.8 159.8 398.7 161.85 M449.25 258.75 L449.3 256.65 Q449.3 217.45 421.15 189.7 392.95 161.9 353.1 161.9 313.3 161.9 285.1 189.7 257.0 217.45 257.0 256.65 L257.05 258.75 257.0 260.85 257.1 260.95 Q258.45 297.45 285.1 323.7 313.3 351.45 353.1 351.45 392.95 351.45 421.15 323.7 447.75 297.45 449.2 260.95 L449.3 260.85 449.25 258.75" fill="#5c667a" fill-rule="evenodd" stroke="none"/>
    <path d="M416.55 204.75 Q418.25 205.7 419.6 207.95 420.85 210.1 421.2 211.95 L422.0 212.35 Q422.3 210.35 424.1 210.35 433.3 210.35 439.35 229.85 441.35 236.15 442.65 243.65 443.7 249.25 443.7 250.85 L443.35 256.8 445.0 269.85 Q437.9 297.1 432.8 303.0 431.7 307.05 429.35 310.95 424.7 318.7 416.25 320.85 L412.9 324.5 Q408.7 328.35 395.85 336.4 390.6 339.65 376.35 343.9 359.9 348.75 349.35 348.75 345.9 348.75 344.05 347.9 L342.65 348.25 Q337.6 348.25 327.8 345.4 321.25 343.5 318.6 341.75 312.65 340.8 309.3 337.2 307.85 335.7 307.05 333.8 L306.5 332.2 Q306.5 329.0 308.15 327.6 L308.4 327.4 Q309.95 326.3 314.5 325.75 L322.5 324.7 Q322.65 320.15 325.55 318.2 327.75 316.7 331.45 316.7 335.05 316.7 337.25 317.65 L337.55 316.2 Q337.95 314.75 338.7 313.6 337.35 314.4 336.2 314.4 330.7 314.4 330.7 310.3 330.7 303.5 336.35 302.3 L338.9 302.05 Q339.7 302.05 341.7 303.2 343.9 304.4 344.7 305.55 345.45 306.7 345.65 308.15 L348.9 307.65 350.25 307.6 351.7 307.65 Q351.15 306.1 351.15 304.55 351.15 301.7 353.25 298.35 355.45 294.9 359.0 293.65 L358.7 293.25 Q357.7 291.7 357.7 290.55 357.7 289.55 359.65 286.5 361.85 283.0 363.65 283.0 367.7 283.0 369.9 285.1 371.4 286.6 371.4 288.2 L371.4 288.4 Q371.35 290.3 369.85 292.45 L368.7 293.8 368.45 293.95 368.65 294.1 Q369.8 294.7 370.6 295.7 370.8 291.25 373.75 286.7 L374.2 286.0 375.0 284.95 373.15 283.35 Q371.8 281.9 370.7 280.1 368.1 275.85 367.9 271.8 L367.85 271.0 Q367.85 267.25 371.7 260.35 375.3 253.9 380.0 251.95 L380.55 251.75 379.65 250.85 Q377.75 248.75 377.55 247.3 374.95 250.15 370.8 250.15 363.8 250.15 361.1 244.8 360.3 243.1 360.0 241.1 L359.9 239.6 359.9 239.45 359.9 238.95 Q360.0 235.3 361.8 232.2 364.65 227.2 370.8 227.2 376.9 227.2 379.1 234.35 380.0 237.35 380.05 240.4 382.65 238.1 388.05 238.1 L389.0 238.15 389.2 238.15 389.05 236.95 389.0 236.2 389.05 233.25 Q389.05 229.8 392.35 225.75 396.35 220.9 401.75 220.9 409.05 220.9 413.15 222.8 L412.7 222.05 Q411.55 220.0 411.55 217.7 411.55 215.65 413.3 213.95 415.2 212.15 418.25 212.15 L418.4 212.15 Q417.3 208.15 415.8 207.95 L415.7 207.95 Q410.4 207.95 408.95 209.15 408.6 209.45 408.6 210.5 L408.65 210.95 409.5 215.75 Q409.5 217.6 407.95 217.6 406.65 217.6 405.5 215.05 404.55 213.05 404.55 212.4 404.55 211.25 404.9 210.15 405.35 208.7 406.3 207.4 408.75 204.05 413.65 204.05 415.15 204.05 416.55 204.75 M350.3 295.3 Q348.6 295.25 347.9 294.0 L347.45 292.65 Q347.45 291.65 347.85 290.6 348.65 288.65 350.55 288.65 L350.85 288.65 Q353.7 288.85 353.7 292.9 353.7 293.7 352.4 294.55 351.15 295.3 350.45 295.3 L350.3 295.3 M422.0 216.7 Q419.2 217.4 418.25 218.95 L418.65 219.75 422.2 221.7 422.0 216.7 M415.45 240.3 Q418.3 237.45 423.0 236.9 L423.05 235.0 422.4 225.95 420.15 226.0 416.75 225.45 Q418.4 227.65 418.4 232.5 418.4 235.6 415.45 240.3 M406.0 254.8 L405.95 254.4 Q405.95 253.65 407.0 252.4 408.35 250.9 410.0 250.9 412.5 250.9 413.85 252.3 L414.25 252.8 Q412.45 247.85 412.45 246.0 412.45 244.95 412.9 243.85 407.9 249.9 402.35 249.9 L397.8 249.3 397.85 250.2 Q397.85 251.15 396.75 252.95 395.7 254.5 394.55 254.95 396.55 256.7 398.35 259.4 400.45 262.6 402.1 267.15 402.5 263.95 403.3 261.85 404.65 258.35 406.95 256.25 406.1 255.75 406.0 254.8 M384.05 233.8 Q384.05 237.3 381.8 237.3 380.4 237.3 379.6 235.7 L379.15 234.15 Q379.15 232.15 381.35 232.15 383.7 232.15 384.05 233.8 M358.3 274.3 Q358.3 275.15 357.0 275.6 356.45 275.35 356.45 275.1 356.45 273.7 357.65 273.2 L358.3 274.3 M390.15 252.2 L390.4 252.3 390.3 251.8 390.3 251.85 390.1 252.2 390.15 252.2 M401.6 279.0 L400.55 281.0 400.35 281.4 403.3 283.85 404.1 283.3 Q403.0 281.3 402.45 279.2 L402.05 277.8 401.6 279.0" fill="#858ea3" fill-rule="evenodd" stroke="none"/>
    <path d="M301.35 248.05 Q301.25 248.9 300.85 249.3 300.4 249.75 299.65 249.75 297.8 249.75 296.9 248.1 296.5 247.5 296.25 246.6 L295.95 243.4 295.95 243.3 Q295.95 238.4 297.35 234.15 299.9 226.45 305.9 226.45 306.7 226.45 306.7 226.25 L307.1 226.1 303.75 224.0 303.2 223.7 Q300.35 221.8 299.7 220.9 300.15 224.05 297.35 224.05 296.25 223.4 295.45 223.4 294.6 223.4 291.45 226.9 288.4 230.35 286.0 230.35 284.8 230.35 284.45 229.45 284.3 229.1 284.3 228.45 L286.05 226.55 293.35 219.35 296.6 214.75 Q298.85 211.15 302.0 211.15 L302.65 211.2 Q304.4 211.5 304.45 213.65 304.45 214.8 302.45 216.8 302.45 219.05 307.8 221.05 307.55 219.5 307.7 218.4 308.0 216.15 310.4 216.15 312.3 216.15 314.35 220.9 L314.15 221.7 Q312.6 226.75 311.2 228.65 310.5 229.5 309.9 229.7 303.95 232.1 303.1 233.85 302.6 235.0 303.15 237.6 L300.6 245.35 Q300.6 246.1 301.35 247.7 L301.35 248.05 M299.6 255.2 L299.55 255.65 Q299.55 257.1 298.05 258.75 296.05 261.25 292.35 261.25 L291.75 261.25 Q291.25 259.1 288.1 259.1 L284.9 260.25 Q282.0 261.3 276.55 261.4 274.45 260.75 273.1 259.45 271.3 257.85 271.3 256.2 271.3 254.35 271.75 252.55 272.6 249.4 274.5 249.4 277.5 249.4 275.75 254.8 275.75 257.15 279.6 257.15 L282.85 256.8 283.1 256.7 284.1 255.65 Q285.4 254.6 286.75 254.6 288.1 254.6 289.95 256.2 294.35 256.2 294.6 253.4 L294.75 251.45 Q295.05 250.6 296.4 250.6 299.8 250.6 299.6 255.2 M273.35 249.1 Q271.6 249.0 271.6 247.25 271.6 246.4 271.95 245.15 272.55 243.35 273.55 243.35 275.1 243.35 274.95 245.25 274.95 245.9 274.4 246.85 273.95 247.5 274.15 248.55 L274.2 248.85 273.5 249.1 273.35 249.1 M277.15 254.35 Q279.35 255.65 279.8 256.4 L276.75 254.45 277.15 254.35" fill="#b1b7c5" fill-rule="evenodd" stroke="none"/>
    <path d="M300.85 249.3 L301.05 250.55 Q301.05 252.8 299.6 255.2 299.8 250.6 296.4 250.6 295.05 250.6 294.75 251.45 L294.6 253.4 Q294.35 256.2 289.95 256.2 288.1 254.6 286.75 254.6 285.4 254.6 284.1 255.65 L283.1 256.7 282.9 256.5 282.85 256.8 279.6 257.15 Q275.75 257.15 275.75 254.8 277.5 249.4 274.5 249.4 272.6 249.4 271.75 252.55 271.3 254.35 271.3 256.2 271.3 257.85 273.1 259.45 274.45 260.75 276.55 261.4 L275.35 261.4 Q274.4 261.4 273.35 260.75 L272.1 260.15 271.3 259.2 Q270.35 257.8 270.35 256.35 270.35 253.85 271.6 251.3 272.4 249.95 273.35 249.1 L273.5 249.1 274.2 248.85 274.15 248.55 Q275.3 247.85 276.8 247.85 L279.4 248.25 279.65 247.65 Q277.25 246.7 275.65 244.1 L274.25 239.8 Q274.25 238.3 275.75 235.9 L276.25 235.35 Q275.75 234.45 275.75 233.4 275.75 231.55 277.7 229.4 280.35 226.35 284.9 226.3 L286.05 226.55 284.3 228.45 Q284.3 229.1 284.45 229.45 284.8 230.35 286.0 230.35 288.4 230.35 291.45 226.9 294.6 223.4 295.45 223.4 296.25 223.4 297.35 224.05 300.15 224.05 299.7 220.9 300.35 221.8 303.2 223.7 L303.6 224.35 303.65 224.2 303.75 224.0 307.1 226.1 306.7 226.25 Q306.7 226.45 305.9 226.45 299.9 226.45 297.35 234.15 295.95 238.4 295.95 243.3 295.15 244.35 295.15 245.1 295.15 246.05 295.7 246.9 296.1 247.7 296.9 248.1 297.8 249.75 299.65 249.75 300.4 249.75 300.85 249.3 M314.15 221.7 Q314.95 223.35 314.95 225.55 314.95 227.35 311.2 228.65 312.6 226.75 314.15 221.7 M277.15 254.35 L276.75 254.45 279.8 256.4 Q279.35 255.65 277.15 254.35" fill="#b8bdc9" fill-rule="evenodd" stroke="none"/>
  </g>
</svg>
