<?xml version="1.0" encoding="UTF-8" standalone="no"?>
<svg xmlns:xlink="http://www.w3.org/1999/xlink" height="670.0px" width="1000.0px" xmlns="http://www.w3.org/2000/svg">
  <g transform="matrix(1.0, 0.0, 0.0, 1.0, 0.0, 0.0)">
    <path d="M0.0 90.0 L0.0 0.0 1000.0 0.0 1000.0 90.6 931.25 84.0 548.8 105.3 207.1 79.0 0.0 90.0 M0.0 540.0 L200.55 563.0 401.55 533.0 720.7 548.65 954.9 522.65 999.9 525.85 999.95 670.0 0.0 670.0 0.0 540.0" fill="#150d0d" fill-rule="evenodd" stroke="none"/>
    <path d="M0.0 90.0 L207.1 79.0 548.8 105.3 931.25 84.0 1000.0 90.6 1000.0 102.1 931.25 96.35 548.8 114.85 207.1 92.0 0.0 101.55 0.0 90.0 M0.0 540.0 L0.0 529.95 24.75 532.45 25.25 532.95 56.85 535.65 109.05 540.85 109.15 540.85 109.05 541.3 109.05 541.35 109.1 541.35 109.05 541.5 109.1 541.5 109.05 541.75 109.1 541.75 109.05 541.9 109.15 541.9 109.05 542.25 144.6 544.4 200.55 550.0 237.35 545.3 237.35 545.25 281.35 539.85 281.55 539.5 401.55 523.9 407.15 524.15 407.1 524.2 502.75 528.25 502.8 528.45 551.65 530.35 551.8 530.35 652.7 534.6 652.85 534.75 684.4 536.0 684.45 535.95 686.25 536.05 686.25 536.1 720.7 537.5 733.45 536.35 733.4 536.3 733.45 536.3 841.05 525.9 841.1 525.9 904.65 520.45 904.75 520.05 904.8 519.75 940.15 516.35 940.25 516.7 954.9 515.35 961.35 515.7 961.2 515.3 999.9 517.7 999.9 525.85 954.9 522.65 720.7 548.65 401.55 533.0 200.55 563.0 0.0 540.0" fill="#1c1111" fill-rule="evenodd" stroke="none"/>
  </g>
</svg>
