<?xml version="1.0" encoding="UTF-8" standalone="no"?>
<svg xmlns:xlink="http://www.w3.org/1999/xlink" height="479.95px" width="640.0px" xmlns="http://www.w3.org/2000/svg">
  <g transform="matrix(1.0, 0.0, 0.0, 1.0, 0.0, 0.0)">
    <path d="M250.7 276.6 L282.35 247.85 Q289.85 239.85 287.35 230.1 276.7 205.95 250.45 218.1 223.8 207.2 214.05 228.95 210.3 240.85 218.8 248.2 L250.7 276.6 M640.0 479.95 L0.0 479.95 0.0 0.0 640.0 0.0 640.0 479.95" fill="#000000" fill-opacity="0.8980392" fill-rule="evenodd" stroke="none"/>
    <path d="M229.05 252.35 Q241.2 251.85 253.2 242.2 267.85 230.45 282.7 228.35 L283.1 229.1 Q286.2 238.95 279.35 246.45 L249.95 268.85 229.05 252.35" fill="#e00000" fill-rule="evenodd" stroke="none"/>
    <path d="M282.7 228.35 Q267.85 230.45 253.2 242.2 241.2 251.85 229.05 252.35 L221.7 246.45 Q214.95 239.1 217.95 229.35 227.55 209.95 250.45 222.35 273.1 210.2 282.7 228.35" fill="url(#gradient0)" fill-rule="evenodd" stroke="none"/>
    <path d="M229.05 252.35 L249.95 268.85 279.35 246.45 Q286.2 238.95 283.1 229.1 L282.7 228.35 Q273.1 210.2 250.45 222.35 227.55 209.95 217.95 229.35 214.95 239.1 221.7 246.45 L229.05 252.35 M250.7 276.6 L218.8 248.2 Q210.3 240.85 214.05 228.95 223.8 207.2 250.45 218.1 276.7 205.95 287.35 230.1 289.85 239.85 282.35 247.85 L250.7 276.6" fill="#ff4645" fill-rule="evenodd" stroke="none"/>
  </g>
  <defs>
    <linearGradient gradientTransform="matrix(-0.0029, -0.0227, 0.0216, -0.0027, 250.45, 230.95)" gradientUnits="userSpaceOnUse" id="gradient0" spreadMethod="pad" x1="-819.2" x2="819.2">
      <stop offset="0.0" stop-color="#e00000"/>
      <stop offset="1.0" stop-color="#ffbfbf"/>
    </linearGradient>
  </defs>
</svg>
