<?xml version="1.0" encoding="UTF-8" standalone="no"?>
<svg xmlns:xlink="http://www.w3.org/1999/xlink" height="90.05px" width="120.0px" xmlns="http://www.w3.org/2000/svg">
  <g transform="matrix(1.0, 0.0, 0.0, 1.0, 0.0, 0.0)">
    <path d="M119.7 0.3 L120.0 1.0 120.0 89.1 119.85 89.6 119.7 89.75 119.5 89.95 119.45 89.95 119.4 90.0 119.35 90.0 119.0 90.05 1.0 90.05 0.7 90.0 0.3 89.75 0.0 89.1 0.0 1.0 Q0.0 0.6 0.3 0.3 0.6 0.0 1.0 0.0 L119.05 0.0 Q119.4 0.0 119.7 0.3 M118.05 88.05 L118.05 2.0 1.95 2.0 1.95 88.05 118.05 88.05" fill="#333333" fill-rule="evenodd" stroke="none"/>
    <path d="M118.05 88.05 L1.95 88.05 1.95 2.0 118.05 2.0 118.05 88.05" fill="#f4f4f4" fill-rule="evenodd" stroke="none"/>
  </g>
</svg>
