<?xml version="1.0" encoding="UTF-8" standalone="no"?>
<svg xmlns:xlink="http://www.w3.org/1999/xlink" height="9.85px" width="18.1px" xmlns="http://www.w3.org/2000/svg">
  <g transform="matrix(1.0, 0.0, 0.0, 1.0, 9.05, 2.2)">
    <path d="M0.75 -1.9 Q3.9 -1.7 6.25 0.65 8.45 2.85 8.75 5.9 L8.8 6.95 8.8 7.4 8.3 7.4 8.4 6.45 8.35 5.9 7.95 4.3 7.45 2.95 6.55 1.7 5.4 0.4 5.25 0.25 3.9 -0.8 Q2.7 -1.5 1.4 -1.6 L1.2 -1.7 0.75 -1.9 M8.15 7.4 L-8.8 7.4 -8.8 6.95 -8.8 6.4 -8.65 5.05 -7.95 3.15 -8.15 3.7 -8.7 5.85 -8.5 7.15 -8.5 7.1 -8.4 6.55 -8.05 4.2 -7.35 2.9 -8.3 6.15 -8.3 7.05 -8.2 7.1 -8.2 7.05 -7.95 7.25 Q-7.65 7.25 -7.65 6.75 L-7.65 6.15 -7.35 5.0 -7.4 5.75 -7.35 6.2 -6.85 4.1 Q-6.65 3.15 -5.8 2.3 L-5.65 2.15 -6.4 3.45 Q-7.15 4.7 -7.15 5.45 L-7.05 5.85 -7.05 6.0 -6.9 6.45 -6.95 6.5 -6.95 6.55 -7.0 6.65 -6.6 7.0 -5.85 7.05 1.05 7.1 6.85 7.05 7.25 7.0 7.45 6.75 7.5 6.75 7.6 6.5 7.5 6.15 7.45 6.0 7.5 5.8 Q7.5 4.3 5.85 2.2 L5.75 2.1 5.35 1.55 4.5 0.55 Q3.8 0.0 2.25 -0.3 L2.45 -0.45 3.3 -0.15 3.45 -0.2 Q4.65 0.35 4.8 0.6 L6.5 2.65 7.55 4.85 7.7 5.9 7.7 6.25 Q7.7 7.25 7.95 7.25 L8.0 7.2 8.0 7.25 8.15 7.4 M-7.35 2.05 L-6.25 0.65 Q-4.4 -1.2 -2.05 -1.7 L-3.05 -1.3 -4.8 -0.25 Q-6.9 1.25 -7.1 1.9 -7.25 1.9 -7.35 2.05 M1.15 -1.65 L0.9 -1.65 0.5 -1.5 0.0 -1.55 -2.25 -1.35 0.55 -1.7 1.15 -1.65 M-2.65 -1.25 L-2.95 -1.05 -5.15 0.5 -5.35 0.7 -6.0 1.25 -6.95 2.2 -7.05 2.3 -6.9 1.95 -4.75 -0.1 Q-3.9 -0.9 -2.65 -1.25 M1.0 -0.9 Q2.45 -0.85 3.35 -0.3 L1.5 -0.75 1.0 -0.9 M0.7 -0.9 L0.4 -0.85 0.1 -0.85 0.6 -0.9 0.7 -0.9 M-0.9 -0.85 L-2.45 -0.4 Q-3.5 0.05 -3.7 0.3 L-5.9 2.1 -6.85 3.4 -6.45 2.65 Q-5.75 1.4 -4.15 0.35 -2.45 -0.85 -0.9 -0.85 M-5.25 1.7 Q-2.85 -0.7 -0.55 -0.7 L-0.3 -0.65 0.1 -0.7 0.3 -0.65 0.8 -0.7 0.9 -0.65 1.45 -0.6 1.65 -0.4 1.05 -0.5 -1.6 -0.2 Q-2.15 0.15 -2.8 0.35 -3.95 0.6 -5.25 1.7 M6.45 3.65 L6.5 3.8 6.45 3.75 6.45 3.65 M-4.7 1.6 L-5.4 2.3 -5.45 2.35 -5.4 2.25 -4.7 1.6" fill="#6f5f39" fill-rule="evenodd" stroke="none"/>
    <path d="M8.3 7.4 L8.15 7.45 8.15 7.4 8.0 7.25 8.0 7.2 8.05 6.8 7.75 4.7 7.2 3.0 5.15 0.65 3.55 -0.55 1.0 -1.35 0.85 -1.35 0.6 -1.3 0.55 -1.3 -1.65 -1.15 -2.45 -0.9 Q-2.75 -0.7 -3.85 -0.2 L-5.0 0.75 Q-6.6 2.1 -6.9 2.6 -7.7 3.75 -8.2 7.05 L-8.2 7.1 -8.3 7.05 -8.3 6.15 -7.35 2.9 -7.1 2.4 -7.05 2.4 -7.05 2.3 -6.95 2.2 -6.0 1.25 -5.35 0.7 -5.15 0.5 -2.95 -1.05 -2.65 -1.25 -2.55 -1.3 -2.5 -1.3 -2.25 -1.35 0.0 -1.55 0.5 -1.5 0.9 -1.65 1.15 -1.65 1.25 -1.55 1.4 -1.6 Q2.7 -1.5 3.9 -0.8 L5.25 0.25 5.35 0.4 5.4 0.4 6.55 1.7 7.45 2.95 7.95 4.3 8.35 5.9 8.4 6.45 8.3 7.4 M-1.45 0.3 L-1.8 0.45 -1.65 0.35 -1.45 0.3 M-2.8 0.8 L-5.15 2.35 -5.85 3.0 -5.45 2.35 -5.4 2.3 -4.7 1.6 Q-4.15 1.2 -3.1 0.9 L-2.8 0.8 M-6.9 6.45 L-6.85 6.5 -6.95 6.55 -6.95 6.5 -6.9 6.45 M-4.8 2.95 Q-5.8 3.85 -6.15 4.75 -5.9 3.85 -5.15 3.2 L-4.8 2.95 M-6.35 5.35 L-6.35 5.7 Q-6.3 4.55 -4.6 2.9 -2.3 0.65 1.3 0.65 L2.7 0.8 2.7 0.7 3.35 0.95 4.35 1.7 5.5 3.35 6.2 5.0 6.6 6.15 6.1 6.15 6.0 6.15 6.1 6.05 6.05 6.0 6.1 5.7 6.2 5.35 6.15 5.3 6.0 5.0 5.9 4.85 5.2 3.25 5.05 2.9 Q4.85 2.3 3.65 1.75 2.45 1.2 1.45 1.2 -2.6 1.2 -4.4 2.95 L-5.4 4.4 -5.9 5.1 -6.2 5.85 -5.85 6.2 -5.35 6.1 -5.05 6.2 -6.05 6.3 -6.35 6.3 -6.65 6.4 -6.35 5.35 M0.15 0.6 Q-2.0 0.85 -3.65 1.95 L-3.2 1.6 Q-1.8 0.55 -0.15 0.55 L0.15 0.6" fill="#504327" fill-rule="evenodd" stroke="none"/>
    <path d="M5.25 0.25 L5.4 0.4 5.35 0.4 5.25 0.25 M-8.2 7.05 Q-7.7 3.75 -6.9 2.6 -6.6 2.1 -5.0 0.75 L-3.85 -0.2 Q-2.75 -0.7 -2.45 -0.9 L-1.65 -1.15 0.55 -1.3 0.6 -1.3 0.85 -1.35 1.0 -1.35 3.55 -0.55 5.15 0.65 7.2 3.0 7.75 4.7 8.05 6.8 8.0 7.2 7.95 7.25 Q7.7 7.25 7.7 6.25 L7.7 5.9 7.55 4.85 6.5 2.65 4.8 0.6 Q4.65 0.35 3.45 -0.2 L3.45 -0.25 3.35 -0.3 Q2.45 -0.85 1.0 -0.9 L0.9 -0.9 0.7 -0.9 0.6 -0.9 0.1 -0.85 0.05 -0.9 -0.05 -0.85 -0.35 -0.85 -0.5 -0.85 -0.65 -0.9 -0.9 -0.85 Q-2.45 -0.85 -4.15 0.35 -5.75 1.4 -6.45 2.65 L-6.85 3.4 -7.35 4.8 -7.35 4.95 -7.35 5.0 -7.65 6.15 -7.65 6.75 Q-7.65 7.25 -7.95 7.25 L-8.2 7.05" fill="#2f2717" fill-rule="evenodd" stroke="none"/>
    <path d="M-5.65 2.15 L-5.25 1.7 Q-3.95 0.6 -2.8 0.35 -2.15 0.15 -1.6 -0.2 L1.05 -0.5 1.65 -0.4 2.25 -0.3 Q3.8 0.0 4.5 0.55 L5.35 1.55 5.75 2.1 5.85 2.2 Q7.5 4.3 7.5 5.8 L7.45 6.0 7.5 6.15 7.6 6.5 7.5 6.75 7.45 6.75 7.35 6.75 7.2 6.2 Q6.9 6.05 7.0 5.45 L6.65 4.35 6.6 4.25 6.35 3.7 6.4 3.7 6.45 3.75 6.5 3.8 6.45 3.65 5.75 2.7 4.25 1.0 Q3.35 0.35 2.95 0.3 L1.35 -0.05 1.3 -0.05 -0.85 0.15 -1.15 0.25 -1.45 0.3 -1.65 0.35 -1.8 0.45 -1.85 0.45 -2.8 0.8 -3.1 0.9 Q-4.15 1.2 -4.7 1.6 L-5.4 2.25 -5.45 2.35 -5.85 3.0 Q-6.6 4.35 -6.95 5.9 L-7.05 5.85 -7.15 5.45 Q-7.15 4.7 -6.4 3.45 L-5.65 2.15 M-3.0 6.2 L-0.9 6.2 -0.55 6.2 0.65 6.2 1.55 6.25 6.65 6.3 6.9 6.45 0.4 6.65 -6.35 6.6 -6.75 6.45 -6.65 6.4 -6.35 6.3 -6.05 6.3 -4.55 6.25 -3.0 6.2" fill="#685633" fill-rule="evenodd" stroke="none"/>
    <path d="M-1.45 0.3 L-1.15 0.25 -0.85 0.15 1.3 -0.05 1.35 -0.05 2.95 0.3 Q3.35 0.35 4.25 1.0 L5.75 2.7 6.45 3.65 6.45 3.75 6.4 3.7 6.35 3.7 6.6 4.25 6.65 4.35 7.0 5.45 Q6.9 6.05 7.2 6.2 L7.35 6.75 7.45 6.75 7.25 7.0 6.85 7.05 1.05 7.1 -5.85 7.05 -6.6 7.0 -7.0 6.65 -6.95 6.55 -6.85 6.5 -6.9 6.45 -7.05 6.0 -7.05 5.85 -6.95 5.9 Q-6.6 4.35 -5.85 3.0 L-5.15 2.35 -2.8 0.8 -1.85 0.45 -1.8 0.45 -1.45 0.3 M-3.65 1.95 L-4.2 2.4 -4.5 2.6 -4.55 2.65 -4.8 2.95 -5.15 3.2 Q-5.9 3.85 -6.15 4.75 L-6.35 5.35 -6.65 6.4 -6.75 6.45 -6.35 6.6 0.4 6.65 6.9 6.45 6.65 6.3 1.55 6.25 0.65 6.2 5.9 6.2 6.0 6.15 6.1 6.15 6.6 6.15 6.2 5.0 5.5 3.35 4.35 1.7 3.35 0.95 2.7 0.7 1.5 0.5 0.15 0.6 -0.15 0.55 Q-1.8 0.55 -3.2 1.6 L-3.65 1.95 M-5.05 6.2 L-4.9 6.2 -3.0 6.2 -4.55 6.25 -6.05 6.3 -5.05 6.2" fill="#3f341f" fill-rule="evenodd" stroke="none"/>
    <path d="M-1.9 1.85 L-2.1 1.85 -0.6 1.6 2.5 1.6 2.7 1.65 -0.85 1.65 -1.9 1.85 M-2.65 2.1 L-2.85 2.35 -3.3 2.8 -3.35 2.8 Q-4.15 3.55 -4.45 4.55 L-4.45 4.7 -4.55 5.05 -4.55 5.1 -4.8 5.1 -4.55 5.15 -4.55 5.2 -4.6 5.2 -4.6 5.35 -4.7 5.35 -4.9 5.4 -4.7 5.45 2.95 5.5 4.55 5.45 4.75 5.5 Q5.45 5.5 5.45 5.2 L5.45 5.05 5.45 4.85 5.05 3.5 4.4 2.3 5.05 3.05 5.2 3.25 5.9 4.85 5.85 4.9 6.0 5.35 6.0 5.45 5.75 5.7 -4.7 5.7 -5.25 5.2 -5.15 4.95 Q-5.35 4.95 -5.35 5.35 L-5.15 5.55 -5.4 5.35 -5.45 5.45 -5.4 5.6 -5.5 5.55 -5.05 4.45 -5.05 4.4 -4.4 3.35 -3.05 2.3 -2.65 2.1 M4.3 2.25 L4.2 2.3 4.2 2.35 3.85 2.1 Q3.25 1.8 2.75 1.8 L0.05 1.85 0.8 1.8 2.75 1.7 2.8 1.7 3.35 1.85 4.1 2.1 4.3 2.25 M-2.6 2.4 L-2.5 2.2 -2.25 2.1 -2.15 2.05 2.15 2.05 2.95 2.05 3.25 2.1 4.15 2.65 4.5 3.3 4.9 4.7 4.95 4.7 4.95 4.45 4.5 3.15 4.05 2.55 4.3 2.65 4.35 2.65 Q5.3 4.5 5.3 5.0 L-1.6 5.1 -1.7 5.1 -4.2 5.1 -3.55 3.55 Q-3.05 2.6 -2.0 2.2 L-2.05 2.15 -2.25 2.1 -2.6 2.4 M3.35 2.1 L3.4 2.1 3.8 2.3 3.9 2.4 3.35 2.1 M-4.25 5.2 L-4.1 5.2 -4.15 5.25 -4.4 5.2 -4.3 5.2 -4.25 5.2 M4.8 5.2 L5.2 5.2 4.75 5.3 4.55 5.3 4.8 5.25 4.8 5.2 M4.45 5.3 L4.45 5.35 2.25 5.35 -4.5 5.35 -4.45 5.3 -4.45 5.25 -4.4 5.2 -4.25 5.3 -4.05 5.3 -4.05 5.25 3.3 5.25 4.45 5.3 M-3.95 3.85 L-3.45 3.15 -2.9 2.55 -2.85 2.55 Q-3.45 3.05 -3.55 3.45 L-4.3 5.1 -4.4 5.1 -3.95 3.85 M-5.5 5.75 L-5.5 5.8 -5.6 5.7 -5.6 5.55 -5.5 5.75 M6.05 6.0 L5.9 5.85 5.75 5.85 5.75 5.8 5.8 5.8 6.1 5.65 6.1 5.7 6.05 6.0 M-0.15 2.1 Q-1.6 2.1 -1.6 3.5 -1.6 4.95 0.35 4.95 1.6 4.95 1.6 3.65 1.6 2.1 -0.15 2.1" fill="#898c9a" fill-rule="evenodd" stroke="none"/>
    <path d="M-1.9 1.85 L-1.95 1.9 -1.85 1.85 0.05 1.85 2.75 1.8 Q3.25 1.8 3.85 2.1 L4.2 2.35 4.2 2.3 4.3 2.25 4.4 2.3 5.05 3.5 5.45 4.85 5.45 5.05 5.45 5.2 Q5.45 5.5 4.75 5.5 L4.55 5.45 2.95 5.5 -4.7 5.45 -4.9 5.4 -4.7 5.35 -4.6 5.35 -4.6 5.2 -4.55 5.2 -4.55 5.15 -4.8 5.1 -4.55 5.1 -4.55 5.05 -4.45 4.7 -4.45 4.55 Q-4.15 3.55 -3.35 2.8 L-3.3 2.8 -2.85 2.35 -2.65 2.1 -2.6 2.1 -2.6 2.05 -2.35 1.95 -2.25 1.85 -2.1 1.85 -1.9 1.85 M3.25 2.1 L2.95 2.05 2.15 2.05 -2.15 2.05 -2.25 2.1 -2.5 2.2 -2.6 2.4 -2.85 2.55 -2.9 2.55 -3.45 3.15 -3.95 3.85 -3.85 3.6 -3.9 3.6 -4.5 5.15 -4.55 5.3 -4.5 5.4 -4.5 5.35 2.25 5.35 4.45 5.35 4.45 5.3 4.5 5.3 4.55 5.3 4.75 5.3 5.2 5.2 4.8 5.2 -4.1 5.2 -4.25 5.2 -4.2 5.1 -1.7 5.1 -1.6 5.1 5.3 5.0 Q5.3 4.5 4.35 2.65 L4.3 2.65 4.05 2.55 3.9 2.4 3.8 2.3 3.4 2.1 3.35 2.1 3.25 2.1 M-2.0 1.9 L-2.35 2.0 -2.2 2.05 -2.0 1.9 M-0.6 1.6 L-0.6 1.5 2.5 1.5 2.5 1.6 -0.6 1.6 M-4.3 5.2 L-4.4 5.2 -4.4 5.1 -4.3 5.1 -4.3 5.2 M-5.5 5.75 L-5.25 6.1 -5.05 6.05 -5.05 6.0 -5.2 5.85 -4.65 5.95 -4.55 5.9 -4.55 5.85 5.75 5.85 5.9 5.85 6.05 6.0 6.1 6.05 6.0 6.15 5.9 6.2 0.65 6.2 -0.55 6.2 -0.9 6.2 -3.0 6.2 -4.9 6.2 -5.05 6.2 -5.35 6.1 -5.5 5.8 -5.5 5.75 M-0.15 2.1 Q1.6 2.1 1.6 3.65 1.6 4.95 0.35 4.95 -1.6 4.95 -1.6 3.5 -1.6 2.1 -0.15 2.1" fill="#707383" fill-rule="evenodd" stroke="none"/>
    <path d="M-2.1 1.85 L-2.25 1.85 -2.35 1.95 -2.6 2.05 -2.6 2.1 -2.65 2.1 -3.05 2.3 -4.4 3.35 -5.05 4.4 -5.05 4.45 -5.2 4.45 -5.6 5.5 -5.6 5.55 -5.6 5.7 -5.5 5.8 -5.35 6.1 -5.85 6.2 -6.2 5.85 -5.9 5.1 -5.4 4.4 -4.4 2.95 Q-2.6 1.2 1.45 1.2 2.45 1.2 3.65 1.75 4.85 2.3 5.05 2.9 L5.2 3.25 5.05 3.05 4.4 2.3 4.3 2.25 4.1 2.1 3.35 1.85 2.8 1.7 2.75 1.7 2.75 1.65 2.7 1.65 2.5 1.6 2.5 1.5 -0.6 1.5 -0.6 1.6 -2.1 1.85 M6.0 5.0 L5.9 4.9 5.9 4.85 6.0 5.0 M6.15 5.3 L6.2 5.35 6.1 5.7 6.1 5.65 6.15 5.45 6.15 5.3" fill="#3c3e46" fill-rule="evenodd" stroke="none"/>
    <path d="M3.25 2.1 L3.35 2.1 3.9 2.4 4.05 2.55 4.5 3.15 4.95 4.45 4.95 4.7 4.9 4.7 4.5 3.3 4.15 2.65 3.25 2.1 M-4.2 5.1 L-4.25 5.2 -4.3 5.2 -4.3 5.1 -3.55 3.45 Q-3.45 3.05 -2.85 2.55 L-2.6 2.4 -2.25 2.1 -2.05 2.15 -2.0 2.2 Q-3.05 2.6 -3.55 3.55 L-4.2 5.1" fill="#b0b4bd" fill-rule="evenodd" stroke="none"/>
    <path d="M0.05 1.85 L-1.85 1.85 -1.95 1.9 -1.9 1.85 -0.85 1.65 2.7 1.65 2.75 1.65 2.75 1.7 0.8 1.8 0.05 1.85 M-4.1 5.2 L4.8 5.2 4.8 5.25 4.55 5.3 4.5 5.3 4.45 5.3 3.3 5.25 -4.05 5.25 -4.05 5.3 -4.25 5.3 -4.4 5.2 -4.15 5.25 -4.1 5.2 M-2.0 1.9 L-2.2 2.05 -2.35 2.0 -2.0 1.9 M-5.15 5.55 L-5.35 5.35 Q-5.35 4.95 -5.15 4.95 L-5.25 5.2 -4.7 5.7 5.75 5.7 6.0 5.45 6.0 5.35 5.85 4.9 5.9 4.85 5.9 4.9 6.0 5.0 6.15 5.3 6.15 5.45 6.1 5.65 5.8 5.8 5.75 5.8 5.75 5.85 -4.55 5.85 -4.7 5.85 -5.15 5.55" fill="#b7b8c1" fill-rule="evenodd" stroke="none"/>
    <path d="M0.3 -1.95 L0.6 -1.95 0.75 -1.9 0.3 -1.95 0.75 -1.9 1.2 -1.7 1.4 -1.6 1.25 -1.55 1.15 -1.65 0.55 -1.7 -2.25 -1.35 -2.5 -1.3 -2.55 -1.3 -2.65 -1.25 Q-3.9 -0.9 -4.75 -0.1 L-6.9 1.95 -7.05 2.3 -7.05 2.4 -7.1 2.4 -7.35 2.9 -8.05 4.2 -8.4 6.55 -8.5 7.1 -8.5 7.15 -8.7 5.85 -8.15 3.7 -7.95 3.15 -7.35 2.05 Q-7.25 1.9 -7.1 1.9 -6.9 1.25 -4.8 -0.25 L-3.05 -1.3 -2.05 -1.7 -1.65 -1.8 -1.55 -1.8 0.0 -1.95 0.25 -1.95 0.3 -1.95 M0.7 -0.9 L0.9 -0.9 1.0 -0.9 1.5 -0.75 3.35 -0.3 3.45 -0.25 3.45 -0.2 3.3 -0.15 2.45 -0.45 2.25 -0.3 1.65 -0.4 1.45 -0.6 0.9 -0.65 0.8 -0.7 0.3 -0.65 0.1 -0.7 -0.3 -0.65 -0.55 -0.7 Q-2.85 -0.7 -5.25 1.7 L-5.65 2.15 -5.8 2.3 Q-6.65 3.15 -6.85 4.1 L-7.35 6.2 -7.4 5.75 -7.35 5.0 -7.35 4.95 -7.35 4.8 -6.85 3.4 -5.9 2.1 -3.7 0.3 Q-3.5 0.05 -2.45 -0.4 L-0.9 -0.85 -0.65 -0.9 -0.5 -0.85 -0.35 -0.85 -0.05 -0.85 0.05 -0.9 0.1 -0.85 0.4 -0.85 0.7 -0.9 M-4.8 2.95 L-4.55 2.65 -4.5 2.6 -4.2 2.4 -3.65 1.95 Q-2.0 0.85 0.15 0.6 L1.5 0.5 2.7 0.7 2.7 0.8 1.3 0.65 Q-2.3 0.65 -4.6 2.9 -6.3 4.55 -6.35 5.7 L-6.35 5.35 -6.15 4.75 Q-5.8 3.85 -4.8 2.95" fill="#957c48" fill-rule="evenodd" stroke="none"/>
    <path d="M-4.5 5.35 L-4.5 5.4 -4.55 5.3 -4.5 5.15 -3.9 3.6 -3.85 3.6 -3.95 3.85 -4.4 5.1 -4.4 5.2 -4.45 5.25 -4.45 5.3 -4.5 5.35 M-5.05 4.45 L-5.5 5.55 -5.4 5.6 -5.45 5.45 -5.4 5.35 -5.15 5.55 -4.7 5.85 -4.55 5.85 -4.55 5.9 -4.65 5.95 -5.2 5.85 -5.05 6.0 -5.05 6.05 -5.25 6.1 -5.5 5.75 -5.6 5.55 -5.6 5.5 -5.2 4.45 -5.05 4.45" fill="#565865" fill-rule="evenodd" stroke="none"/>
    <path d="M0.75 -1.9 Q3.9 -1.7 6.25 0.65 8.45 2.85 8.75 5.9 L8.8 6.95 8.8 7.4 8.3 7.4 M8.15 7.4 L-8.8 7.4 -8.8 6.95 -8.8 6.4 -8.65 5.05 -7.95 3.15 -7.35 2.05 -6.25 0.65 Q-4.4 -1.2 -2.05 -1.7 L-1.65 -1.8 -1.55 -1.8 0.0 -1.95 0.25 -1.95 0.3 -1.95 0.75 -1.9 Z" fill="none" stroke="#423828" stroke-linecap="round" stroke-linejoin="round" stroke-width="0.5"/>
    <path d="M0.2 5.35 Q-0.75 5.35 -1.4 4.5 L-1.9 3.45 Q-1.9 2.05 -0.2 1.8 L0.1 1.8 Q1.95 2.1 1.95 3.5 1.95 5.35 0.2 5.35 M0.0 2.15 Q-1.35 2.05 -1.45 3.35 -1.55 4.65 -0.45 4.75 L0.9 4.6 1.0 4.6 1.05 4.5 1.35 3.5 Q1.35 2.2 0.0 2.15" fill="#4b4e58" fill-rule="evenodd" stroke="none"/>
    <path d="M0.8 2.9 L0.55 2.75 Q0.35 2.75 -0.3 3.4 L-0.9 4.2 -0.65 4.5 0.8 2.9 M0.0 2.15 Q1.35 2.2 1.35 3.5 L1.05 4.5 1.0 4.6 0.9 4.6 -0.45 4.75 Q-1.55 4.65 -1.45 3.35 -1.35 2.05 0.0 2.15" fill="#b0b4bd" fill-rule="evenodd" stroke="none"/>
    <path d="M0.8 2.9 L-0.65 4.5 -0.9 4.2 -0.3 3.4 Q0.35 2.75 0.55 2.75 L0.8 2.9" fill="#5c606d" fill-rule="evenodd" stroke="none"/>
  </g>
</svg>
