<?xml version="1.0" encoding="UTF-8" standalone="no"?>
<svg xmlns:xlink="http://www.w3.org/1999/xlink" height="15.35px" width="28.8px" xmlns="http://www.w3.org/2000/svg">
  <g transform="matrix(1.0, 0.0, 0.0, 1.0, 14.25, 9.2)">
    <path d="M13.0 5.6 L13.0 5.7 13.2 5.9 -13.95 5.9 -14.0 5.2 -13.95 4.35 -13.7 2.2 Q-13.35 0.6 -12.65 -0.85 L-12.95 0.05 -13.8 3.5 -13.5 5.5 -13.45 5.45 -13.35 4.55 Q-13.35 3.05 -12.8 0.85 L-11.6 -1.2 Q-12.4 0.5 -13.2 3.9 L-13.2 5.4 -13.0 5.45 -13.0 5.4 -12.6 5.65 Q-12.15 5.65 -12.1 4.85 L-12.1 3.9 -11.7 2.1 -11.6 1.8 -11.75 3.3 -11.7 4.0 -11.6 4.0 Q-11.65 3.2 -10.85 0.7 -10.5 -0.85 -9.15 -2.2 L-8.95 -2.4 -10.1 -0.35 Q-11.3 1.65 -11.3 2.8 L-11.15 3.45 -11.15 3.7 -10.9 4.4 -10.95 4.5 -10.95 4.55 -11.05 4.7 Q-11.05 5.1 -10.45 5.3 L-9.25 5.35 1.85 5.45 11.15 5.4 11.75 5.3 12.1 4.85 12.35 4.5 12.15 3.7 12.2 3.35 Q12.2 1.0 9.55 -2.3 L9.4 -2.5 8.7 -3.35 7.4 -4.95 Q6.2 -5.85 3.8 -6.3 L4.1 -6.5 5.4 -6.05 5.65 -6.2 2.6 -7.0 1.7 -7.25 Q4.15 -7.15 5.6 -6.25 L7.9 -4.9 10.6 -1.65 Q11.3 -0.7 12.25 1.85 L12.5 4.1 Q12.55 5.65 12.9 5.65 L13.0 5.6 M13.45 5.9 L13.65 4.45 Q13.65 3.35 12.95 1.0 L12.15 -1.15 10.65 -3.15 Q9.9 -4.35 8.85 -5.15 L8.55 -5.4 6.35 -7.1 Q4.45 -8.2 2.4 -8.35 L2.05 -8.55 1.1 -8.9 Q-3.35 -8.9 -4.75 -7.85 L-7.6 -6.25 Q-10.9 -3.8 -11.2 -2.8 L-11.65 -2.6 -9.85 -4.8 Q-5.7 -8.95 0.15 -8.95 6.0 -8.95 10.15 -4.8 14.3 -0.65 14.3 5.2 L14.3 5.9 13.45 5.9 M1.95 -8.4 L1.6 -8.4 0.95 -8.2 0.15 -8.3 -3.5 -8.0 1.0 -8.55 1.95 -8.4 M-4.1 -7.8 L-4.55 -7.45 -8.1 -5.05 -8.45 -4.7 -9.45 -3.85 -10.95 -2.35 -11.1 -2.15 -10.9 -2.7 -7.45 -6.0 Q-6.05 -7.25 -4.1 -7.8 M-10.8 -0.45 L-10.2 -1.65 Q-9.05 -3.6 -6.5 -5.3 -3.8 -7.15 -1.25 -7.2 L-3.8 -6.45 -5.8 -5.35 -9.35 -2.5 -10.8 -0.45 M-0.65 -7.2 L-0.4 -7.2 0.05 -7.2 -0.25 -7.15 -0.65 -7.2 M0.3 -7.2 L1.1 -7.25 1.25 -7.25 0.75 -7.15 0.3 -7.2 M-8.3 -3.1 Q-4.45 -6.95 -0.7 -6.95 L-0.35 -6.85 0.3 -6.95 0.65 -6.85 1.4 -6.95 1.55 -6.85 2.45 -6.75 2.8 -6.45 1.8 -6.6 -2.45 -6.15 Q-3.35 -5.55 -4.35 -5.3 -6.2 -4.9 -8.3 -3.1 M10.5 0.15 L10.45 0.0 10.55 0.2 10.5 0.15 M-8.6 -2.1 L-8.5 -2.25 -7.4 -3.25 -8.55 -2.15 -8.6 -2.1" fill="#6f5f39" fill-rule="evenodd" stroke="none"/>
    <path d="M13.0 5.6 L13.1 4.95 12.6 1.6 11.65 -1.05 Q9.65 -3.9 8.4 -4.75 L5.8 -6.7 Q3.1 -7.85 1.7 -7.95 L1.5 -7.95 1.1 -7.85 1.0 -7.9 -2.5 -7.65 -3.75 -7.25 Q-4.25 -6.9 -6.0 -6.15 L-7.85 -4.65 -10.9 -1.7 Q-12.25 0.1 -13.0 5.4 L-13.0 5.45 -13.2 5.4 -13.2 3.9 Q-12.4 0.5 -11.6 -1.2 L-11.2 -2.0 -11.15 -2.05 -11.1 -2.15 -10.95 -2.35 -9.45 -3.85 -8.45 -4.7 -8.1 -5.05 -4.55 -7.45 -4.1 -7.8 -3.95 -7.85 -3.9 -7.9 -3.85 -7.9 -3.5 -8.0 0.15 -8.3 0.95 -8.2 1.6 -8.4 1.95 -8.4 2.15 -8.3 2.4 -8.35 Q4.45 -8.2 6.35 -7.1 L8.55 -5.4 8.75 -5.2 8.85 -5.15 Q9.9 -4.35 10.65 -3.15 L12.15 -1.15 12.95 1.0 Q13.65 3.35 13.65 4.45 L13.45 5.9 13.25 6.0 13.2 5.9 13.0 5.7 13.0 5.6 M8.5 -0.7 L8.3 -1.2 Q7.95 -2.15 6.0 -3.05 4.05 -3.9 2.45 -3.9 -4.05 -3.9 -6.85 -1.1 -7.6 -0.45 -8.55 1.2 L-9.35 2.25 -9.8 3.5 Q-9.8 4.0 -9.25 4.0 L-8.45 3.85 -8.4 3.85 -8.0 4.05 -9.55 4.15 -10.0 4.2 -10.5 4.35 -10.0 2.65 -10.05 3.25 -10.0 3.4 Q-10.0 1.45 -7.25 -1.2 -3.55 -4.75 2.2 -4.75 L4.45 -4.55 4.45 -4.7 5.5 -4.3 7.1 -3.15 Q7.7 -2.75 8.95 -0.5 L10.1 2.15 10.7 3.95 9.95 3.95 9.8 3.95 9.9 3.75 9.85 3.7 9.95 3.25 10.05 2.7 10.0 2.55 9.75 2.1 9.65 1.85 8.5 -0.7 M-1.2 -5.55 L-2.85 -5.1 -2.5 -5.3 -1.2 -5.55 M-4.35 -4.55 Q-6.4 -3.65 -8.1 -2.1 L-9.2 -1.05 -8.6 -2.1 -8.55 -2.15 -7.4 -3.25 Q-6.45 -3.9 -4.8 -4.4 L-4.35 -4.55 M-10.9 4.4 L-10.85 4.5 -10.95 4.55 -10.95 4.5 -10.9 4.4 M-5.7 -2.7 L-4.95 -3.25 Q-2.75 -4.95 -0.05 -4.95 L0.4 -4.85 Q-3.1 -4.5 -5.7 -2.7 M-9.7 1.7 Q-9.3 0.3 -8.1 -0.75 L-7.35 -1.4 Q-9.1 0.2 -9.7 1.7 M5.6 0.7 L5.45 0.7 5.5 0.65 5.6 0.7" fill="#504327" fill-rule="evenodd" stroke="none"/>
    <path d="M-13.0 5.4 Q-12.25 0.1 -10.9 -1.7 L-7.85 -4.65 -6.0 -6.15 Q-4.25 -6.9 -3.75 -7.25 L-2.5 -7.65 1.0 -7.9 1.1 -7.85 1.5 -7.95 1.7 -7.95 Q3.1 -7.85 5.8 -6.7 L8.4 -4.75 Q9.65 -3.9 11.65 -1.05 L12.6 1.6 13.1 4.95 13.0 5.6 12.9 5.65 Q12.55 5.65 12.5 4.1 L12.25 1.85 Q11.3 -0.7 10.6 -1.65 L7.9 -4.9 5.6 -6.25 Q4.15 -7.15 1.7 -7.25 L1.6 -7.25 1.25 -7.25 1.1 -7.25 0.3 -7.2 0.2 -7.25 0.05 -7.2 -0.4 -7.2 -0.65 -7.2 -0.85 -7.25 -1.25 -7.2 Q-3.8 -7.15 -6.5 -5.3 -9.05 -3.6 -10.2 -1.65 L-10.8 -0.45 -11.6 1.8 -11.7 2.1 -12.1 3.9 -12.1 4.85 Q-12.15 5.65 -12.6 5.65 L-13.0 5.4 M8.85 -5.15 L8.75 -5.2 8.55 -5.4 8.85 -5.15" fill="#2f2717" fill-rule="evenodd" stroke="none"/>
    <path d="M2.8 -6.45 L3.8 -6.3 Q6.2 -5.85 7.4 -4.95 L8.7 -3.35 9.4 -2.5 9.55 -2.3 Q12.2 1.0 12.2 3.35 L12.15 3.7 12.35 4.5 12.1 4.85 12.0 4.85 11.7 4.0 Q11.2 3.8 11.35 2.85 L10.8 1.1 10.75 0.9 10.35 0.05 10.4 0.05 10.5 0.15 10.55 0.2 10.45 0.0 9.4 -1.5 6.95 -4.2 Q5.55 -5.3 4.9 -5.35 L2.3 -5.9 2.2 -5.9 -1.2 -5.55 -2.5 -5.3 -2.85 -5.1 -4.35 -4.55 -4.8 -4.4 Q-6.45 -3.9 -7.4 -3.25 L-8.5 -2.25 -8.6 -2.1 -9.2 -1.05 Q-10.4 1.1 -11.0 3.55 L-11.15 3.45 -11.3 2.8 Q-11.3 1.65 -10.1 -0.35 L-8.95 -2.4 -8.3 -3.1 Q-6.2 -4.9 -4.35 -5.3 -3.35 -5.55 -2.45 -6.15 L1.8 -6.6 2.8 -6.45 M-10.5 4.35 L-10.0 4.2 -9.55 4.15 -7.15 4.1 -4.65 4.05 -1.25 4.05 -0.75 4.05 1.2 4.05 2.65 4.1 10.8 4.15 11.2 4.4 0.8 4.7 -10.0 4.65 -10.65 4.45 Q-10.65 4.35 -10.5 4.35" fill="#685633" fill-rule="evenodd" stroke="none"/>
    <path d="M-10.0 2.65 L-10.5 4.35 Q-10.65 4.35 -10.65 4.45 L-10.0 4.65 0.8 4.7 11.2 4.4 10.8 4.15 2.65 4.1 1.2 4.05 9.6 4.05 9.8 3.95 9.95 3.95 10.7 3.95 10.1 2.15 8.95 -0.5 Q7.7 -2.75 7.1 -3.15 L5.5 -4.3 4.45 -4.7 2.5 -5.0 0.4 -4.85 -0.05 -4.95 Q-2.75 -4.95 -4.95 -3.25 L-5.7 -2.7 -6.6 -2.05 -7.05 -1.65 -7.15 -1.6 -7.35 -1.4 -8.1 -0.75 Q-9.3 0.3 -9.7 1.7 L-10.0 2.65 M-9.55 4.15 L-8.0 4.05 -7.75 4.05 -4.65 4.05 -7.15 4.1 -9.55 4.15 M-1.2 -5.55 L2.2 -5.9 2.3 -5.9 4.9 -5.35 Q5.55 -5.3 6.95 -4.2 L9.4 -1.5 10.45 0.0 10.5 0.15 10.4 0.05 10.35 0.05 10.75 0.9 10.8 1.1 11.35 2.85 Q11.2 3.8 11.7 4.0 L12.0 4.85 12.1 4.85 11.75 5.3 11.15 5.4 1.85 5.45 -9.25 5.35 -10.45 5.3 Q-11.05 5.1 -11.05 4.7 L-10.95 4.55 -10.85 4.5 -10.9 4.4 -11.15 3.7 -11.15 3.45 -11.0 3.55 Q-10.4 1.1 -9.2 -1.05 L-8.1 -2.1 Q-6.4 -3.65 -4.35 -4.55 L-2.85 -5.1 -1.2 -5.55" fill="#3f341f" fill-rule="evenodd" stroke="none"/>
    <path d="M4.2 -3.3 L4.5 -3.2 -1.2 -3.2 -2.9 -2.85 -3.25 -2.85 -0.8 -3.3 -0.75 -3.3 -0.7 -3.25 4.2 -3.25 4.2 -3.3 M4.55 -3.15 L4.65 -3.1 5.5 -2.9 6.7 -2.5 8.25 -1.0 8.5 -0.7 9.65 1.85 9.65 1.95 9.6 1.9 9.5 1.95 9.8 2.7 9.8 2.8 9.35 3.25 -7.4 3.25 -8.25 2.45 -8.1 2.05 Q-8.4 2.0 -8.4 2.65 L-8.15 2.95 -8.5 2.65 -8.6 2.8 -8.55 3.05 -8.65 2.95 -8.0 1.25 -7.95 1.15 -6.9 -0.5 -4.75 -2.15 -4.1 -2.45 -4.45 -2.1 -5.1 -1.35 -5.2 -1.4 Q-6.5 -0.15 -7.0 1.4 L-7.0 1.6 -7.2 2.2 -7.2 2.3 -7.6 2.3 -7.2 2.35 -7.2 2.45 -7.25 2.45 -7.25 2.7 -7.4 2.7 -7.75 2.75 -7.4 2.85 4.85 2.9 7.5 2.85 7.8 2.9 Q8.9 2.9 8.9 2.45 L8.9 2.2 8.9 1.9 8.25 -0.25 7.0 -2.25 6.85 -2.2 6.85 -2.1 6.3 -2.45 Q5.35 -2.95 4.6 -2.95 L-2.8 -2.85 -1.7 -2.95 1.4 -3.0 4.55 -3.15 M-8.65 3.4 L-8.85 3.2 -8.8 3.0 -8.65 3.3 -8.65 3.4 M-4.05 -2.05 L-3.85 -2.3 -3.45 -2.5 -3.3 -2.55 3.65 -2.6 4.85 -2.6 5.35 -2.45 Q5.55 -2.25 6.75 -1.6 L7.35 -0.55 8.0 1.65 8.1 1.65 8.1 1.25 7.35 -0.85 6.7 -1.75 7.05 -1.65 7.1 -1.65 Q8.65 1.3 8.65 2.1 L8.55 2.15 -2.45 2.25 -2.6 2.25 -6.6 2.3 -5.55 -0.2 Q-4.75 -1.7 -3.1 -2.35 L-3.15 -2.4 -3.5 -2.45 -4.05 -2.05 M5.55 -2.45 L5.6 -2.45 6.2 -2.2 6.35 -2.05 5.55 -2.45 M-6.15 0.3 L-5.4 -0.85 -4.5 -1.8 -4.5 -1.75 -4.45 -1.75 -5.55 -0.35 -6.75 2.25 -6.7 2.3 -6.9 2.3 -6.75 2.0 -6.15 0.3 M-0.1 -2.5 Q-2.45 -2.5 -2.45 -0.3 -2.45 2.05 0.7 2.05 2.7 2.05 2.7 -0.05 2.7 -2.5 -0.1 -2.5 M-6.7 2.4 L-6.65 2.4 -6.4 2.4 -6.45 2.5 -6.85 2.45 -6.65 2.6 -6.35 2.6 -6.35 2.5 5.45 2.5 7.3 2.55 7.3 2.65 3.75 2.65 -7.05 2.7 -7.0 2.55 -7.0 2.5 -6.95 2.4 -6.7 2.4 M9.35 3.45 L9.4 3.4 9.45 3.4 Q9.8 3.4 9.95 3.15 L9.95 3.25 9.85 3.7 9.6 3.45 9.35 3.45 M7.85 2.45 L8.5 2.45 7.8 2.6 7.5 2.55 7.85 2.5 7.85 2.45 M5.6 0.7 L5.5 0.65 5.45 0.7 5.6 0.7" fill="#898c9a" fill-rule="evenodd" stroke="none"/>
    <path d="M-0.8 -3.3 L-0.8 -3.45 4.15 -3.45 4.2 -3.4 4.2 -3.3 4.2 -3.25 -0.7 -3.25 -0.75 -3.3 -0.8 -3.3 M-8.4 3.85 L-8.65 3.4 -8.65 3.3 -8.3 3.85 -8.0 3.8 -8.0 3.7 -8.2 3.45 -7.3 3.6 -7.15 3.55 -7.15 3.45 9.35 3.45 9.6 3.45 9.85 3.7 9.9 3.75 9.8 3.95 9.6 4.05 1.2 4.05 -0.75 4.05 -1.25 4.05 -4.65 4.05 -7.75 4.05 -8.0 4.05 -8.4 3.85 M-4.1 -2.45 L-4.1 -2.5 -4.05 -2.5 -4.0 -2.55 -3.65 -2.75 -3.45 -2.85 -3.25 -2.85 -2.9 -2.85 -3.6 -2.65 -3.4 -2.6 Q-3.2 -2.8 -2.8 -2.85 L4.6 -2.95 Q5.35 -2.95 6.3 -2.45 L6.85 -2.1 6.85 -2.2 7.0 -2.25 8.25 -0.25 8.9 1.9 8.9 2.2 8.9 2.45 Q8.9 2.9 7.8 2.9 L7.5 2.85 4.85 2.9 -7.4 2.85 -7.75 2.75 -7.4 2.7 -7.25 2.7 -7.25 2.45 -7.2 2.45 -7.2 2.35 -7.6 2.3 -7.2 2.3 -7.2 2.2 -7.0 1.6 -7.0 1.4 Q-6.5 -0.15 -5.2 -1.4 L-5.1 -1.35 -4.45 -2.1 -4.1 -2.45 M2.35 -0.35 Q2.35 -1.9 0.25 -2.25 L-0.05 -2.25 Q-1.95 -2.0 -1.95 -0.4 -1.95 0.1 -1.4 0.8 -0.7 1.7 0.4 1.7 2.35 1.7 2.35 -0.35 M5.35 -2.45 L4.85 -2.6 3.65 -2.6 -3.3 -2.55 -3.45 -2.5 -3.85 -2.3 -4.05 -2.05 -4.45 -1.75 -4.5 -1.75 -4.5 -1.8 -5.4 -0.85 -6.15 0.3 -6.0 -0.1 -6.1 -0.1 -7.1 2.35 -7.15 2.6 -7.1 2.75 -7.05 2.7 3.75 2.65 7.3 2.65 7.3 2.55 7.4 2.55 7.5 2.55 7.8 2.6 8.5 2.45 7.85 2.45 7.85 2.4 -6.4 2.4 -6.65 2.4 -6.6 2.3 -2.6 2.25 -2.45 2.25 8.55 2.15 8.65 2.1 Q8.65 1.3 7.1 -1.65 L7.05 -1.65 6.7 -1.75 6.35 -2.05 6.2 -2.2 5.6 -2.45 5.55 -2.45 5.35 -2.5 5.3 -2.5 5.35 -2.45 M-0.1 -2.5 Q2.7 -2.5 2.7 -0.05 2.7 2.05 0.7 2.05 -2.45 2.05 -2.45 -0.3 -2.45 -2.5 -0.1 -2.5 M-6.9 2.3 L-6.7 2.3 -6.7 2.4 -6.95 2.4 -6.9 2.3" fill="#707383" fill-rule="evenodd" stroke="none"/>
    <path d="M4.2 -3.3 L4.2 -3.4 4.15 -3.45 -0.8 -3.45 -0.8 -3.3 -3.25 -2.85 -3.45 -2.85 -3.65 -2.75 -4.0 -2.55 -4.05 -2.5 -4.1 -2.5 -4.1 -2.45 -4.75 -2.15 -6.9 -0.5 -7.95 1.15 -8.0 1.25 -8.2 1.25 -8.85 2.9 -8.8 3.0 -8.85 3.2 -8.65 3.4 -8.4 3.85 -8.45 3.85 -9.25 4.0 Q-9.8 4.0 -9.8 3.5 L-9.35 2.25 -8.55 1.2 Q-7.6 -0.45 -6.85 -1.1 -4.05 -3.9 2.45 -3.9 4.05 -3.9 6.0 -3.05 7.95 -2.15 8.3 -1.2 L8.5 -0.7 8.25 -1.0 6.7 -2.5 5.5 -2.9 4.65 -3.1 4.55 -3.15 4.6 -3.2 4.5 -3.2 4.2 -3.3 M9.65 1.95 L9.65 1.85 9.75 2.1 9.65 1.95 M9.95 3.15 L10.0 2.8 10.0 2.55 10.05 2.7 9.95 3.25 9.95 3.15" fill="#3c3e46" fill-rule="evenodd" stroke="none"/>
    <path d="M0.55 -1.15 L0.15 -1.35 Q-0.95 -1.35 -0.95 -0.05 L-1.1 0.4 -1.45 -0.55 Q-1.45 -1.75 0.1 -1.75 1.0 -1.75 0.7 -1.2 L0.55 -1.15 M1.15 0.85 L1.0 0.85 1.3 0.15 1.1 -0.55 1.1 -0.9 1.2 -0.9 Q1.5 -0.9 1.45 -0.15 L1.3 0.75 1.25 0.85 1.15 0.85 M-4.05 -2.05 L-3.5 -2.45 -3.15 -2.4 -3.1 -2.35 Q-4.75 -1.7 -5.55 -0.2 L-6.6 2.3 -6.65 2.4 -6.7 2.4 -6.7 2.3 -6.75 2.25 -5.55 -0.35 -4.45 -1.75 -4.05 -2.05 M6.7 -1.75 L7.35 -0.85 8.1 1.25 8.1 1.65 8.0 1.65 7.35 -0.55 6.75 -1.6 Q5.55 -2.25 5.35 -2.45 L5.3 -2.5 5.35 -2.5 5.55 -2.45 6.35 -2.05 6.7 -1.75" fill="#b0b4bd" fill-rule="evenodd" stroke="none"/>
    <path d="M4.5 -3.2 L4.6 -3.2 4.55 -3.15 1.4 -3.0 -1.7 -2.95 -2.8 -2.85 Q-3.2 -2.8 -3.4 -2.6 L-3.6 -2.65 -2.9 -2.85 -1.2 -3.2 4.5 -3.2 M7.3 2.55 L5.45 2.5 -6.35 2.5 -6.35 2.6 -6.65 2.6 -6.85 2.45 -6.45 2.5 -6.4 2.4 7.85 2.4 7.85 2.45 7.85 2.5 7.5 2.55 7.4 2.55 7.3 2.55 M-8.15 2.95 L-8.4 2.65 Q-8.4 2.0 -8.1 2.05 L-8.25 2.45 -7.4 3.25 9.35 3.25 9.8 2.8 9.8 2.7 9.5 1.95 9.6 1.9 9.65 1.95 9.75 2.1 10.0 2.55 10.0 2.8 9.95 3.15 Q9.8 3.4 9.45 3.4 L9.4 3.4 9.35 3.45 -7.15 3.45 -7.4 3.45 -8.15 2.95" fill="#b7b8c1" fill-rule="evenodd" stroke="none"/>
    <path d="M2.4 -8.35 L2.15 -8.3 1.95 -8.4 1.0 -8.55 -3.5 -8.0 -3.85 -7.9 -3.9 -7.9 -3.95 -7.85 -4.1 -7.8 Q-6.05 -7.25 -7.45 -6.0 L-10.9 -2.7 -11.1 -2.15 -11.15 -2.05 -11.2 -2.0 -11.6 -1.2 -12.8 0.85 Q-13.35 3.05 -13.35 4.55 L-13.45 5.45 -13.5 5.5 -13.8 3.5 -12.95 0.05 -12.65 -0.85 -11.65 -2.6 -11.2 -2.8 Q-10.9 -3.8 -7.6 -6.25 L-4.75 -7.85 Q-3.35 -8.9 1.1 -8.9 L2.05 -8.55 2.4 -8.35 M-11.6 1.8 L-10.8 -0.45 -9.35 -2.5 -5.8 -5.35 -3.8 -6.45 -1.25 -7.2 -0.85 -7.25 -0.65 -7.2 -0.25 -7.15 0.05 -7.2 0.2 -7.25 0.3 -7.2 0.75 -7.15 1.25 -7.25 1.6 -7.25 1.7 -7.25 2.6 -7.0 5.65 -6.2 5.4 -6.05 4.1 -6.5 3.8 -6.3 2.8 -6.45 2.45 -6.75 1.55 -6.85 1.4 -6.95 0.65 -6.85 0.3 -6.95 -0.35 -6.85 -0.7 -6.95 Q-4.45 -6.95 -8.3 -3.1 L-8.95 -2.4 -9.15 -2.2 Q-10.5 -0.85 -10.85 0.7 -11.65 3.2 -11.6 4.0 L-11.7 4.0 -11.75 3.3 -11.6 1.8 M4.45 -4.7 L4.45 -4.55 2.2 -4.75 Q-3.55 -4.75 -7.25 -1.2 -10.0 1.45 -10.0 3.4 L-10.05 3.25 -10.0 2.65 -9.7 1.7 Q-9.1 0.2 -7.35 -1.4 L-7.15 -1.6 -7.05 -1.65 -6.6 -2.05 -5.7 -2.7 Q-3.1 -4.5 0.4 -4.85 L2.5 -5.0 4.45 -4.7" fill="#957c48" fill-rule="evenodd" stroke="none"/>
    <path d="M-8.8 3.0 L-8.85 2.9 -8.2 1.25 -8.0 1.25 -8.65 2.95 -8.55 3.05 -8.6 2.8 -8.5 2.65 -8.15 2.95 -7.4 3.45 -7.15 3.45 -7.15 3.55 -7.3 3.6 -8.2 3.45 -8.0 3.7 -8.0 3.8 -8.3 3.85 -8.65 3.3 -8.8 3.0 M-7.05 2.7 L-7.1 2.75 -7.15 2.6 -7.1 2.35 -6.1 -0.1 -6.0 -0.1 -6.15 0.3 -6.75 2.0 -6.9 2.3 -6.95 2.4 -7.0 2.5 -7.0 2.55 -7.05 2.7" fill="#565865" fill-rule="evenodd" stroke="none"/>
    <path d="M1.3 0.75 L1.45 -0.15 Q1.5 -0.9 1.2 -0.9 L1.1 -0.9 1.1 -0.55 1.3 0.15 1.0 0.85 1.15 0.85 0.2 1.1 Q-1.5 1.1 -1.5 -0.5 -1.5 -1.8 0.05 -1.8 1.65 -1.8 1.65 -0.35 1.65 0.4 1.3 0.75 M0.55 -1.15 L0.7 -1.2 Q1.0 -1.75 0.1 -1.75 -1.45 -1.75 -1.45 -0.55 L-1.1 0.4 -0.95 -0.05 Q-0.95 -1.35 0.15 -1.35 L0.55 -1.15 M1.05 -1.0 L0.8 -1.2 -0.15 -0.45 -0.85 0.45 -0.6 0.8 1.05 -1.0" fill="#717584" fill-rule="evenodd" stroke="none"/>
    <path d="M1.05 -1.0 L-0.6 0.8 -0.85 0.45 -0.15 -0.45 0.8 -1.2 1.05 -1.0" fill="#5c606d" fill-rule="evenodd" stroke="none"/>
    <path d="M1.3 0.75 Q1.65 0.4 1.65 -0.35 1.65 -1.8 0.05 -1.8 -1.5 -1.8 -1.5 -0.5 -1.5 1.1 0.2 1.1 L1.15 0.85 1.25 0.85 1.3 0.75 M2.35 -0.35 Q2.35 1.7 0.4 1.7 -0.7 1.7 -1.4 0.8 -1.95 0.1 -1.95 -0.4 -1.95 -2.0 -0.05 -2.25 L0.25 -2.25 Q2.35 -1.9 2.35 -0.35" fill="#4b4e58" fill-rule="evenodd" stroke="none"/>
    <path d="M13.45 5.9 L14.3 5.9 14.3 5.2 Q14.3 -0.65 10.15 -4.8 6.0 -8.95 0.15 -8.95 -5.7 -8.95 -9.85 -4.8 L-11.65 -2.6 -12.65 -0.85 Q-13.35 0.6 -13.7 2.2 L-13.95 4.35 -14.0 5.2 -13.95 5.9 13.2 5.9" fill="none" stroke="#423828" stroke-linecap="round" stroke-linejoin="round" stroke-width="0.5"/>
  </g>
</svg>
