<?xml version="1.0" encoding="UTF-8" standalone="no"?>
<svg xmlns:xlink="http://www.w3.org/1999/xlink" height="36.8px" width="74.85px" xmlns="http://www.w3.org/2000/svg">
  <g transform="matrix(1.0, 0.0, 0.0, 1.0, 21.0, 20.25)">
    <path d="M18.6 -14.6 L17.4 -14.9 17.75 -15.05 17.85 -15.35 Q17.4 -15.85 16.3 -16.15 L8.4 -16.7 7.7 -16.55 7.7 -16.25 8.25 -15.65 7.25 -15.5 7.25 -16.0 7.1 -17.0 6.75 -17.6 6.3 -17.55 5.85 -16.45 Q5.9 -17.35 5.45 -18.1 4.95 -18.85 4.2 -18.9 3.45 -19.0 2.9 -18.35 2.3 -17.75 2.25 -16.75 L2.0 -16.65 1.65 -17.45 1.3 -17.55 0.35 -15.45 0.25 -15.15 0.2 -15.15 -0.4 -14.05 -0.4 -14.4 Q-0.4 -14.85 -1.65 -15.85 -3.05 -17.0 -4.3 -17.0 -9.55 -17.0 -12.15 -15.6 -13.85 -14.7 -15.2 -12.5 L-15.95 -11.4 -16.0 -11.5 Q-16.5 -10.6 -17.6 -5.15 -17.6 8.0 -8.1 5.9 L-6.25 6.1 -3.9 5.85 -1.55 5.25 -1.55 9.6 -1.05 9.65 -0.45 9.15 -0.15 9.45 0.75 9.6 Q4.9 9.6 5.45 8.7 5.9 7.95 5.7 4.05 L5.9 5.15 Q6.4 7.25 7.2 8.1 L7.85 7.0 Q7.7 6.65 7.7 5.6 7.7 5.15 7.85 4.85 L7.9 4.1 9.0 5.5 13.55 6.05 18.75 5.9 18.7 7.4 18.9 9.0 Q19.15 9.65 19.85 10.0 L19.9 10.15 18.35 10.05 14.45 9.65 7.3 9.9 7.3 13.05 2.0 13.05 Q5.35 12.6 6.45 11.4 L6.4 10.7 6.35 10.55 6.0 10.05 6.0 9.55 4.35 9.85 2.35 10.3 0.15 10.9 -0.2 11.15 -0.1 11.4 Q-0.1 12.1 0.45 12.6 L1.65 13.05 -1.7 13.05 -1.7 10.05 Q-2.95 10.8 -4.05 10.8 -12.8 10.8 -16.85 7.0 -20.75 3.35 -20.75 -4.2 -20.75 -7.95 -18.25 -11.5 L-18.2 -11.55 -15.95 -14.2 Q-11.35 -18.8 -6.8 -18.8 L-3.35 -18.35 0.05 -17.9 1.9 -18.95 Q3.7 -20.0 4.05 -20.0 L4.95 -19.7 Q6.05 -18.8 7.3 -17.95 L50.3 -17.95 51.35 -18.7 52.55 -19.45 Q53.6 -18.15 53.6 -16.3 52.1 16.3 49.6 16.3 48.95 16.3 48.6 15.95 L48.1 15.3 Q47.8 14.95 45.85 14.5 L34.3 12.05 Q33.05 11.8 32.4 10.85 L31.65 9.6 Q31.95 9.1 31.95 5.45 L31.95 -3.4 32.3 3.9 Q32.5 7.75 32.9 9.0 L33.1 8.9 33.35 6.35 33.3 3.75 33.45 3.75 Q33.45 4.5 33.85 5.05 34.25 5.55 34.8 5.55 L35.0 5.65 36.4 6.6 37.15 6.3 40.6 7.65 Q44.4 8.95 46.15 8.95 47.15 8.95 46.55 8.8 46.8 8.5 46.65 8.1 L46.85 7.9 Q46.6 13.15 46.8 13.7 46.95 14.05 47.5 13.8 L47.9 13.4 48.15 14.0 Q48.3 14.25 48.95 14.25 L49.85 14.0 50.25 13.75 Q50.3 11.65 51.05 4.15 51.95 -4.35 52.4 -14.7 L52.45 -15.9 Q52.45 -17.15 51.7 -17.45 L51.6 -17.4 Q50.9 -17.4 50.4 -17.0 49.85 -16.65 49.85 -16.15 L49.6 -16.2 Q48.7 -15.05 48.0 -10.1 L47.9 -10.55 47.95 -11.55 48.2 -13.85 46.85 -13.8 46.45 -13.95 47.85 -14.15 45.85 -14.65 43.4 -14.9 34.05 -14.1 Q33.1 -13.7 33.1 -12.55 33.1 -11.55 33.2 -12.05 L33.45 -11.75 Q33.45 -11.35 34.0 -11.05 L35.25 -10.75 35.3 -10.2 34.95 -10.05 Q35.4 -9.4 37.85 -9.25 L47.75 -9.25 47.95 -9.5 Q47.35 -5.2 47.0 1.8 46.75 1.45 46.1 1.15 L44.95 0.8 Q44.0 -0.15 38.6 -0.4 L33.1 -0.5 32.95 -4.95 32.95 -12.8 33.35 -15.9 Q33.3 -17.1 32.95 -17.45 L32.7 -17.5 Q32.3 -17.0 31.9 -14.25 L31.3 -16.2 31.0 -14.9 27.75 -15.25 24.1 -15.5 Q22.8 -15.5 21.35 -14.7 L21.3 -14.8 21.25 -16.85 Q21.15 -16.85 21.0 -17.35 L20.35 -16.2 Q19.7 -15.55 19.7 -14.55 L19.8 -13.35 19.75 -12.2 19.55 -15.1 19.25 -15.7 18.6 -14.6 M6.2 -15.2 L6.45 -15.0 6.15 -14.35 6.05 -15.2 6.2 -15.2 M18.0 -13.25 L18.4 -13.5 18.95 1.3 18.5 0.7 Q17.15 -0.95 13.9 -0.55 L8.5 0.1 8.4 -0.25 8.1 -0.1 Q8.2 -3.25 7.75 -13.05 L8.25 -12.85 Q7.85 -11.7 8.25 -11.2 L9.05 -10.7 Q9.9 -10.25 10.55 -10.25 L16.8 -10.5 16.9 -10.95 16.85 -11.45 Q17.3 -11.45 17.65 -11.75 L17.95 -12.5 18.0 -13.25 M30.95 -14.6 L30.95 -14.25 30.65 -14.45 30.95 -14.6 M30.85 -12.55 L30.85 -12.25 30.65 -12.45 30.85 -12.55 M30.8 -11.9 L31.0 -4.85 31.05 1.1 30.85 0.75 30.9 0.1 30.85 -0.65 27.65 -0.95 22.0 -0.5 21.95 -0.4 21.85 0.45 21.9 1.15 22.1 1.35 Q22.05 3.5 22.8 4.4 22.7 4.45 22.55 4.55 L22.2 4.95 23.5 6.4 30.85 5.15 Q31.25 8.95 31.5 9.55 L28.0 9.55 23.3 9.85 21.6 10.0 Q22.05 3.6 21.25 -10.15 L21.25 -11.4 21.5 -13.75 22.05 -13.2 21.8 -13.3 21.7 -12.75 Q21.7 -11.75 22.3 -12.1 L22.25 -11.45 21.85 -10.85 Q23.5 -9.6 26.65 -9.6 L28.15 -9.7 Q28.55 -9.85 28.4 -10.45 28.55 -9.85 29.75 -9.4 L30.2 -9.9 30.15 -10.7 30.55 -11.55 30.8 -11.9 M21.5 -14.25 L21.45 -14.15 21.45 -14.25 21.5 -14.25 M33.65 -9.55 Q33.65 -9.25 33.85 -9.05 L34.3 -8.85 34.75 -9.05 34.95 -9.55 34.75 -10.05 34.3 -10.25 33.85 -10.05 33.65 -9.55 M33.65 0.45 L33.2 0.95 33.15 0.1 33.65 0.45 M18.65 4.55 L18.85 3.95 18.8 4.85 18.65 4.55" fill="#736740" fill-rule="evenodd" stroke="none"/>
    <path d="M4.5 -16.9 L3.15 -17.0 Q3.15 -17.8 3.4 -18.25 3.6 -18.75 3.9 -18.7 L4.4 -18.1 4.5 -16.9 M3.2 -16.7 L3.7 -16.7 4.45 -16.5 4.1 -9.8 5.1 8.95 4.9 9.05 4.65 7.9 4.55 7.75 4.1 -5.45 3.2 -16.7 M20.35 -16.2 L21.0 -17.35 Q21.15 -16.85 21.25 -16.85 L21.3 -14.8 21.3 -14.6 21.3 -14.5 21.25 -11.4 21.25 -10.15 20.9 -5.95 20.45 -3.55 20.3 -9.2 20.1 -14.1 20.35 -16.2 M32.95 -12.8 L32.95 -4.95 32.9 1.65 Q32.7 2.85 32.9 3.4 L32.85 5.4 32.6 -5.9 32.65 -16.65 32.95 -15.85 32.95 -12.8 M51.6 -17.4 L51.7 -17.45 Q52.45 -17.15 52.45 -15.9 L52.4 -14.7 50.15 9.7 49.95 8.75 49.75 6.55 Q49.75 4.2 50.75 -4.45 L51.7 -13.9 Q51.4 -16.7 51.6 -17.4 M-0.1 11.4 L-0.2 11.15 0.15 10.9 4.35 9.85 6.0 9.55 6.0 10.05 6.35 10.55 6.4 10.7 6.45 11.4 6.4 11.05 Q6.3 10.7 5.7 10.7 L2.9 11.0 -0.1 11.4" fill="#ac9d6a" fill-rule="evenodd" stroke="none"/>
    <path d="M5.7 -16.25 L4.5 -16.9 4.4 -18.1 3.9 -18.7 Q3.6 -18.75 3.4 -18.25 3.15 -17.8 3.15 -17.0 L2.25 -16.75 Q2.3 -17.75 2.9 -18.35 3.45 -19.0 4.2 -18.9 4.95 -18.85 5.45 -18.1 5.9 -17.35 5.85 -16.45 L5.7 -16.25 M2.2 -16.4 L3.2 -16.7 4.1 -5.45 4.55 7.75 4.65 7.9 4.9 9.05 5.1 8.95 4.1 -9.8 4.45 -16.5 5.55 -15.65 6.05 -15.2 6.15 -14.35 Q5.85 -12.2 5.7 -7.0 L5.45 1.3 Q5.4 2.6 5.7 4.05 5.9 7.95 5.45 8.7 4.9 9.6 0.75 9.6 L-0.15 9.45 -0.45 9.15 -0.05 5.7 0.25 1.85 0.15 1.1 -0.25 1.1 -0.55 1.0 -0.95 2.35 Q-1.9 4.25 -4.65 4.25 -15.4 4.25 -15.4 -6.2 -15.0 -9.65 -15.15 -9.9 L-11.8 -13.3 -8.95 -14.2 -5.85 -15.0 -5.4 -14.9 -2.55 -12.05 -2.8 -12.1 -3.85 -12.05 Q-4.45 -12.05 -5.1 -12.6 L-5.5 -12.85 -5.45 -12.9 -5.35 -13.1 -5.45 -13.3 -5.65 -13.4 -5.85 -13.3 -5.95 -13.1 -5.95 -13.0 -6.8 -13.15 -8.75 -13.1 Q-9.25 -12.95 -9.25 -12.15 L-9.75 -11.3 -10.85 -9.85 -10.95 -10.2 -10.4 -11.05 Q-10.1 -11.5 -9.95 -12.05 L-10.8 -12.15 -11.45 -12.0 -11.65 -9.65 -12.1 -9.95 -12.3 -9.85 -12.6 -9.45 Q-12.5 -9.15 -11.95 -9.3 L-11.7 -9.1 -11.75 -8.7 Q-11.8 -8.4 -12.4 -8.4 L-12.8 -8.35 -13.15 -8.5 -13.45 -8.35 -13.6 -8.05 -13.45 -7.7 -13.15 -7.6 -12.8 -7.7 -12.7 -8.05 -12.7 -8.2 -12.65 -8.05 -12.6 -7.75 -12.05 -7.75 -11.8 -7.85 Q-11.8 -7.8 -12.05 -7.7 -12.35 -7.6 -12.35 -7.0 -12.35 -6.4 -11.95 -6.55 L-11.55 -6.75 -11.85 -6.4 -12.6 -6.2 -13.15 -5.5 -13.7 -4.35 Q-13.65 -3.7 -12.75 -3.7 -12.6 -3.85 -12.6 -4.1 L-12.85 -4.7 -12.35 -4.85 -12.3 -4.15 -12.4 -3.55 -12.2 -3.2 Q-11.45 -3.8 -11.45 -4.5 L-10.85 -4.3 -11.3 -3.75 -11.85 -2.2 -11.55 -1.55 -11.3 -1.45 -10.55 -3.8 Q-10.45 -3.6 -10.5 -1.9 L-10.15 -1.8 -9.85 -2.05 -9.75 -1.2 -9.7 -0.5 -9.5 -0.2 Q-9.3 -0.35 -9.25 -0.8 L-9.1 -1.9 -8.95 -2.35 -8.15 -2.15 Q-7.85 -2.1 -7.85 -1.5 L-7.7 -0.8 -7.25 -0.75 -6.85 -0.8 Q-6.75 -1.0 -7.2 -1.15 -7.05 -1.4 -7.05 -1.75 L-6.85 -1.45 -6.6 -0.9 Q-5.65 -0.9 -5.75 -1.6 L-5.75 -1.7 -5.65 -1.45 -5.0 -0.65 Q-4.75 -0.75 -4.8 -1.3 -4.85 -1.9 -5.1 -1.9 L-4.8 -2.05 -4.5 -2.0 -4.0 -1.55 Q-3.55 -0.8 -3.55 -2.15 L-3.55 -2.5 -3.1 -2.15 Q-2.75 -2.25 -2.7 -2.55 -2.6 -2.85 -2.85 -3.15 -2.25 -3.45 -1.55 -3.9 L-1.1 -4.0 Q-1.05 -4.25 -1.5 -4.65 L-1.35 -4.65 -1.1 -4.55 -0.65 -4.6 Q-0.45 -4.7 -0.45 -5.35 -0.45 -6.3 -1.25 -5.7 L-1.1 -6.55 -0.25 -7.85 -0.2 -8.25 -0.9 -9.3 Q-1.3 -9.8 -2.45 -9.8 -3.05 -9.8 -3.05 -10.1 -2.9 -10.65 -2.9 -11.15 -2.9 -11.75 -2.6 -11.65 L-2.15 -11.55 -2.15 -11.65 -2.0 -11.5 Q-0.85 -10.35 1.15 -9.2 L1.4 -9.5 Q1.75 -10.0 1.95 -12.4 L2.2 -16.4 M19.75 -12.2 L19.8 -13.35 19.7 -14.55 Q19.7 -15.55 20.35 -16.2 L20.1 -14.1 20.3 -9.2 20.45 -3.55 20.9 -5.95 21.25 -10.15 Q22.05 3.6 21.6 10.0 L23.3 9.85 Q21.3 10.75 20.25 11.85 L19.75 11.05 Q19.2 10.35 18.35 10.05 L19.9 10.15 19.85 10.0 Q20.15 3.3 19.75 -12.2 M21.3 -14.8 L21.35 -14.7 21.3 -14.6 21.3 -14.8 M31.9 -14.25 Q32.3 -17.0 32.7 -17.5 L32.95 -17.45 Q33.3 -17.1 33.35 -15.9 L32.95 -12.8 32.95 -15.85 32.65 -16.65 32.6 -5.9 32.85 5.4 32.9 3.4 33.3 3.75 33.35 6.35 33.1 8.9 32.9 9.0 Q32.5 7.75 32.3 3.9 L31.95 -3.4 31.9 -14.25 M32.95 -4.95 L33.1 -0.5 33.15 0.1 33.2 0.95 32.9 1.65 32.95 -4.95 M49.85 -16.15 Q49.85 -16.65 50.4 -17.0 50.9 -17.4 51.6 -17.4 51.4 -16.7 51.7 -13.9 L50.75 -4.45 Q49.75 4.2 49.75 6.55 L49.95 8.75 50.15 9.7 52.4 -14.7 Q51.95 -4.35 51.05 4.15 50.3 11.65 50.25 13.75 L49.85 14.0 48.95 14.25 Q48.3 14.25 48.15 14.0 L47.9 13.4 Q48.35 11.1 48.35 2.3 L48.6 -1.7 Q50.15 -14.75 49.85 -16.15 M1.65 13.05 L0.45 12.6 Q-0.1 12.1 -0.1 11.4 L2.9 11.0 5.7 10.7 Q6.3 10.7 6.4 11.05 L6.45 11.4 Q5.35 12.6 2.0 13.05 L1.65 13.05 M0.15 10.9 L2.35 10.3 4.35 9.85 0.15 10.9 M21.45 -14.15 L21.5 -13.75 21.25 -11.4 21.3 -14.5 21.45 -14.25 21.45 -14.15 M-12.95 -10.25 Q-13.55 -10.25 -13.45 -9.8 -12.85 -9.8 -12.95 -10.25 M-12.95 -7.4 L-13.25 -7.0 Q-13.2 -6.75 -12.85 -6.8 L-12.95 -7.4 M-11.7 -5.1 Q-11.1 -5.8 -10.85 -5.55 -10.95 -5.35 -11.55 -5.0 L-11.7 -5.1 M-8.8 -1.55 L-8.75 -1.35 -8.55 -1.55 -8.8 -1.55 M-8.2 -0.35 L-7.8 0.05 -7.95 -0.65 -8.2 -0.35 M-1.1 -3.5 L-0.95 -3.2 -0.7 -3.1 -0.4 -3.2 -0.3 -3.5 -0.4 -3.75 -0.7 -3.9 -0.95 -3.75 -1.1 -3.5 M-2.9 -1.2 L-3.0 -1.5 -3.25 -1.65 -3.5 -1.5 -3.6 -1.2 -3.5 -0.85 -3.25 -0.75 -3.0 -0.85 -2.9 -1.2 M-1.75 -1.8 Q-1.85 -2.3 -2.35 -2.0 L-2.05 -1.7 -1.75 -1.8 M-5.5 0.4 L-5.15 0.15 -5.75 -0.2 -5.8 0.25 -5.5 0.4 M-6.45 0.9 L-6.1 0.8 -6.15 0.5 -6.25 0.5 -6.4 0.6 -6.45 0.9" fill="#827548" fill-rule="evenodd" stroke="none"/>
    <path d="M18.4 -13.5 Q18.75 -13.95 19.15 -14.0 L19.0 -14.3 18.6 -14.6 19.25 -15.7 19.55 -15.1 19.75 -12.2 Q20.15 3.3 19.85 10.0 19.15 9.65 18.9 9.0 L18.7 7.4 18.75 5.9 18.8 4.85 18.85 3.95 18.65 4.55 Q17.35 3.95 14.0 3.95 L8.95 4.35 8.9 4.8 9.0 5.5 7.9 4.1 7.85 4.85 Q7.7 5.15 7.7 5.6 7.7 6.65 7.85 7.0 L7.2 8.1 Q6.4 7.25 5.9 5.15 L5.7 4.05 Q5.4 2.6 5.45 1.3 L5.7 -7.0 Q5.85 -12.2 6.15 -14.35 L6.45 -15.0 7.55 -13.5 7.75 -13.05 Q8.2 -3.25 8.1 -0.1 L8.4 -0.25 8.5 0.1 8.25 0.55 Q9.35 1.7 12.6 2.05 L15.7 2.15 Q16.9 2.15 17.55 1.75 L18.5 0.7 18.95 1.3 18.4 -13.5 M7.25 -15.5 L6.85 -15.2 5.7 -16.25 5.85 -16.45 6.3 -17.55 6.75 -17.6 7.1 -17.0 7.25 -16.0 7.25 -15.5 M2.0 -16.65 L0.25 -15.15 0.35 -15.45 1.3 -17.55 1.65 -17.45 2.0 -16.65 M0.2 -15.15 L0.4 -15.05 2.2 -16.4 1.95 -12.4 Q1.75 -10.0 1.4 -9.5 L1.15 -9.2 Q-0.85 -10.35 -2.0 -11.5 L-2.15 -11.65 -2.15 -11.85 -2.55 -12.05 -5.4 -14.9 -2.65 -13.7 Q-1.35 -13.0 -1.05 -13.0 -0.65 -13.4 -0.9 -14.1 L-0.55 -14.1 -0.4 -14.05 0.2 -15.15 M5.55 -15.65 L6.2 -15.2 6.05 -15.2 5.55 -15.65 M31.0 -14.9 L31.3 -16.2 31.9 -14.25 31.95 -3.4 31.95 5.45 Q31.95 9.1 31.65 9.6 L31.5 9.55 Q31.25 8.95 30.85 5.15 L31.05 5.15 31.1 4.5 Q31.1 4.1 30.5 3.75 29.8 3.4 28.65 3.4 L25.9 3.85 22.8 4.4 Q22.05 3.5 22.1 1.35 L23.75 1.6 27.15 2.0 Q27.65 2.05 30.75 0.55 L30.85 0.75 31.05 1.1 31.0 -4.85 30.8 -11.9 30.85 -12.25 30.85 -12.55 Q31.45 -13.3 30.95 -14.25 L30.95 -14.6 31.0 -14.9 M44.95 0.8 L46.1 1.15 Q46.75 1.45 47.0 1.8 47.35 -5.2 47.95 -9.5 L48.0 -9.75 48.0 -10.1 Q48.7 -15.05 49.6 -16.2 L49.85 -16.15 Q50.15 -14.75 48.6 -1.7 L48.35 2.3 Q48.35 11.1 47.9 13.4 L47.5 13.8 Q46.95 14.05 46.8 13.7 46.6 13.15 46.85 7.9 L46.65 8.1 Q44.7 6.5 42.4 5.65 L40.35 5.15 37.95 4.9 36.4 4.65 34.8 4.2 33.45 3.75 33.3 3.75 32.9 3.4 Q32.7 2.85 32.9 1.65 L33.2 0.95 33.65 0.45 36.1 1.15 39.8 1.65 42.45 1.45 44.95 0.8 M-0.45 9.15 L-1.05 9.65 -1.55 9.6 -1.55 5.25 -3.9 5.85 -6.25 6.1 -8.1 5.9 Q-11.5 5.9 -13.85 1.55 -16.25 -2.8 -16.25 -8.95 L-16.2 -8.9 -16.15 -8.6 -16.0 -8.75 -15.15 -9.9 Q-15.0 -9.65 -15.4 -6.2 -15.4 4.25 -4.65 4.25 -1.9 4.25 -0.95 2.35 L-0.55 1.0 -0.25 1.1 0.15 1.1 0.25 1.85 -0.05 5.7 -0.45 9.15 M-15.95 -11.4 L-15.2 -12.5 -15.95 -10.55 -15.95 -11.4 M-5.85 -15.0 L-8.95 -14.2 -11.8 -13.3 -9.2 -14.2 -5.85 -15.0 M-15.2 -11.7 L-14.9 -11.55 -15.1 -11.4 -15.55 -10.9 -15.2 -11.7" fill="#7d7146" fill-rule="evenodd" stroke="none"/>
    <path d="M17.4 -14.9 L8.25 -15.65 7.7 -16.25 7.7 -16.55 8.4 -16.7 16.3 -16.15 Q17.4 -15.85 17.85 -15.35 L17.75 -15.05 17.4 -14.9 M7.55 -13.5 L13.0 -13.65 18.0 -13.25 17.95 -12.5 12.45 -13.4 8.25 -13.2 8.25 -12.85 7.75 -13.05 7.55 -13.5 M21.35 -14.7 Q22.8 -15.5 24.1 -15.5 L27.75 -15.25 31.0 -14.9 30.95 -14.6 30.65 -14.45 27.4 -14.35 22.9 -14.75 22.5 -14.7 22.5 -14.25 Q21.85 -14.05 21.5 -14.25 L21.45 -14.25 21.3 -14.5 21.3 -14.6 21.35 -14.7 M35.25 -10.75 L34.0 -11.05 Q33.45 -11.35 33.45 -11.75 L33.2 -12.05 Q33.1 -11.55 33.1 -12.55 33.1 -13.7 34.05 -14.1 L43.4 -14.9 45.85 -14.65 47.85 -14.15 46.45 -13.95 40.35 -13.5 Q35.15 -13.05 34.3 -12.55 34.1 -12.35 34.45 -12.35 L35.5 -12.5 38.4 -12.45 40.3 -12.65 40.8 -12.7 44.15 -12.95 Q45.9 -13.05 46.85 -13.8 L48.2 -13.85 47.95 -11.55 Q48.2 -11.85 47.2 -11.85 L40.55 -11.3 35.25 -10.75 M-5.4 -14.9 L-5.85 -15.0 -9.2 -14.2 -11.8 -13.3 -15.15 -9.9 -16.0 -8.75 -16.2 -8.9 -16.25 -8.95 -16.1 -10.0 -15.55 -10.9 -15.1 -11.4 -14.9 -11.55 -15.2 -11.7 -15.35 -12.05 Q-13.1 -14.35 -10.05 -15.5 -7.95 -16.3 -6.55 -16.3 -5.6 -16.3 -3.85 -15.65 -2.0 -14.95 -0.9 -14.1 -0.65 -13.4 -1.05 -13.0 -1.35 -13.0 -2.65 -13.7 L-5.4 -14.9 M30.85 -12.25 L30.8 -11.9 30.55 -11.55 Q29.25 -12.3 26.95 -12.55 L22.3 -12.1 Q21.7 -11.75 21.7 -12.75 L21.8 -13.3 22.05 -13.2 24.3 -13.25 27.3 -13.0 30.65 -12.45 30.85 -12.25" fill="#8c7e4d" fill-rule="evenodd" stroke="none"/>
    <path d="M18.6 -14.6 L19.0 -14.3 19.15 -14.0 Q18.75 -13.95 18.4 -13.5 L18.0 -13.25 13.0 -13.65 7.55 -13.5 6.45 -15.0 6.2 -15.2 5.55 -15.65 4.45 -16.5 3.7 -16.7 3.2 -16.7 2.2 -16.4 0.4 -15.05 0.2 -15.15 0.25 -15.15 2.0 -16.65 2.25 -16.75 3.15 -17.0 4.5 -16.9 5.7 -16.25 6.85 -15.2 7.25 -15.5 8.25 -15.65 17.4 -14.9 18.6 -14.6 M46.45 -13.95 L46.85 -13.8 Q45.9 -13.05 44.15 -12.95 L40.8 -12.7 Q40.4 -12.75 40.7 -12.9 L41.0 -13.2 40.3 -12.65 38.4 -12.45 35.5 -12.5 34.85 -12.55 34.3 -12.55 Q35.15 -13.05 40.35 -13.5 L46.45 -13.95 M-15.2 -12.5 Q-13.85 -14.7 -12.15 -15.6 -9.55 -17.0 -4.3 -17.0 -3.05 -17.0 -1.65 -15.85 -0.4 -14.85 -0.4 -14.4 L-0.4 -14.05 -0.55 -14.1 -0.9 -14.1 Q-2.0 -14.95 -3.85 -15.65 -5.6 -16.3 -6.55 -16.3 -7.95 -16.3 -10.05 -15.5 -13.1 -14.35 -15.35 -12.05 L-15.2 -11.7 -15.55 -10.9 -16.1 -10.0 -15.95 -10.55 -15.2 -12.5 M30.95 -14.25 Q31.45 -13.3 30.85 -12.55 L30.65 -12.45 27.3 -13.0 24.3 -13.25 22.05 -13.2 21.5 -13.75 21.45 -14.15 21.5 -14.25 Q21.85 -14.05 22.5 -14.25 L22.5 -14.7 22.9 -14.75 27.4 -14.35 30.65 -14.45 30.95 -14.25 M-16.2 -8.9 L-16.0 -8.75 -16.15 -8.6 -16.2 -8.9" fill="#a3935a" fill-rule="evenodd" stroke="none"/>
    <path d="M16.85 -11.45 L16.9 -10.95 16.8 -10.5 10.55 -10.25 Q9.9 -10.25 9.05 -10.7 L8.25 -11.2 10.9 -11.7 13.6 -11.95 15.45 -11.75 16.85 -11.45 M47.95 -9.5 L47.75 -9.25 37.85 -9.25 Q35.4 -9.4 34.95 -10.05 L35.3 -10.2 41.15 -10.75 46.1 -11.05 Q47.3 -11.05 47.9 -10.55 L48.0 -10.1 48.0 -9.75 47.95 -9.5 M30.15 -10.7 L30.2 -9.9 29.75 -9.4 Q28.55 -9.85 28.4 -10.45 28.55 -9.85 28.15 -9.7 L26.65 -9.6 Q23.5 -9.6 21.85 -10.85 L22.25 -11.45 26.1 -10.95 28.4 -10.6 30.15 -10.7 M33.65 -9.55 L33.85 -10.05 34.3 -10.25 34.75 -10.05 34.95 -9.55 34.75 -9.05 34.3 -8.85 33.85 -9.05 Q33.65 -9.25 33.65 -9.55" fill="#7d7144" fill-rule="evenodd" stroke="none"/>
    <path d="M34.3 -12.55 L34.85 -12.55 35.5 -12.5 34.45 -12.35 Q34.1 -12.35 34.3 -12.55 M40.3 -12.65 L41.0 -13.2 40.7 -12.9 Q40.4 -12.75 40.8 -12.7 L40.3 -12.65" fill="#978853" fill-rule="evenodd" stroke="none"/>
    <path d="M17.95 -12.5 L17.65 -11.75 Q17.3 -11.45 16.85 -11.45 L15.45 -11.75 13.6 -11.95 10.9 -11.7 8.25 -11.2 Q7.85 -11.7 8.25 -12.85 L8.25 -13.2 12.45 -13.4 17.95 -12.5 M35.3 -10.2 L35.25 -10.75 40.55 -11.3 47.2 -11.85 Q48.2 -11.85 47.95 -11.55 L47.9 -10.55 Q47.3 -11.05 46.1 -11.05 L41.15 -10.75 35.3 -10.2 M22.3 -12.1 L26.95 -12.55 Q29.25 -12.3 30.55 -11.55 L30.15 -10.7 28.4 -10.6 26.1 -10.95 22.25 -11.45 22.3 -12.1" fill="#837547" fill-rule="evenodd" stroke="none"/>
    <path d="M18.5 0.7 L17.55 1.75 Q16.9 2.15 15.7 2.15 L12.6 2.05 Q9.35 1.7 8.25 0.55 L8.5 0.1 13.9 -0.55 Q17.15 -0.95 18.5 0.7 M33.1 -0.5 L38.6 -0.4 Q44.0 -0.15 44.95 0.8 L42.45 1.45 39.8 1.65 36.1 1.15 33.65 0.45 33.15 0.1 33.1 -0.5 M46.65 8.1 Q46.8 8.5 46.55 8.8 47.15 8.95 46.15 8.95 44.4 8.95 40.6 7.65 L37.15 6.3 36.4 6.6 35.0 5.65 34.8 5.55 Q34.25 5.55 33.85 5.05 33.45 4.5 33.45 3.75 L34.8 4.2 36.4 4.65 37.95 4.9 40.35 5.15 42.4 5.65 Q44.7 6.5 46.65 8.1 M18.75 5.9 L13.55 6.05 9.0 5.5 8.9 4.8 8.95 4.35 14.0 3.95 Q17.35 3.95 18.65 4.55 L18.8 4.85 18.75 5.9 M-8.1 5.9 Q-17.6 8.0 -17.6 -5.15 -16.5 -10.6 -16.0 -11.5 L-15.95 -11.4 -15.95 -10.55 -16.1 -10.0 -16.25 -8.95 Q-16.25 -2.8 -13.85 1.55 -11.5 5.9 -8.1 5.9 M30.85 0.75 L30.75 0.55 Q27.65 2.05 27.15 2.0 L23.75 1.6 22.1 1.35 21.9 1.15 21.85 0.45 21.95 -0.4 22.0 -0.5 27.65 -0.95 30.85 -0.65 30.9 0.1 30.85 0.75 M22.8 4.4 L25.9 3.85 28.65 3.4 Q29.8 3.4 30.5 3.75 31.1 4.1 31.1 4.5 L31.05 5.15 30.85 5.15 23.5 6.4 22.2 4.95 22.55 4.55 Q22.7 4.45 22.8 4.4" fill="#776b42" fill-rule="evenodd" stroke="none"/>
    <path d="M-2.15 -11.65 L-2.15 -11.55 -2.6 -11.65 Q-2.9 -11.75 -2.9 -11.15 -2.9 -10.65 -3.05 -10.1 -3.05 -9.8 -2.45 -9.8 -1.3 -9.8 -0.9 -9.3 L-0.2 -8.25 -0.25 -7.85 -1.1 -6.55 -1.25 -5.7 Q-0.45 -6.3 -0.45 -5.35 -0.45 -4.7 -0.65 -4.6 L-1.1 -4.55 -1.35 -4.65 -1.5 -4.65 Q-1.05 -4.25 -1.1 -4.0 L-1.55 -3.9 Q-2.25 -3.45 -2.85 -3.15 -2.6 -2.85 -2.7 -2.55 -2.75 -2.25 -3.1 -2.15 L-3.55 -2.5 -3.55 -2.15 Q-3.55 -0.8 -4.0 -1.55 L-4.5 -2.0 -4.8 -2.05 -5.1 -1.9 Q-4.85 -1.9 -4.8 -1.3 -4.75 -0.75 -5.0 -0.65 L-5.65 -1.45 -5.75 -1.7 -5.75 -1.6 Q-5.65 -0.9 -6.6 -0.9 L-6.85 -1.45 -7.05 -1.75 Q-7.05 -1.4 -7.2 -1.15 -6.75 -1.0 -6.85 -0.8 L-7.25 -0.75 -7.7 -0.8 -7.85 -1.5 Q-7.85 -2.1 -8.15 -2.15 L-8.95 -2.35 -9.1 -1.9 -9.25 -0.8 Q-9.3 -0.35 -9.5 -0.2 L-9.7 -0.5 -9.75 -1.2 -9.85 -2.05 -10.15 -1.8 -10.5 -1.9 Q-10.45 -3.6 -10.55 -3.8 L-11.3 -1.45 -11.55 -1.55 -11.85 -2.2 -11.3 -3.75 -10.85 -4.3 -11.45 -4.5 Q-11.45 -3.8 -12.2 -3.2 L-12.4 -3.55 -12.3 -4.15 -12.35 -4.85 -12.85 -4.7 -12.6 -4.1 Q-12.6 -3.85 -12.75 -3.7 -13.65 -3.7 -13.7 -4.35 L-13.15 -5.5 -12.6 -6.2 -11.85 -6.4 -11.55 -6.75 -11.95 -6.55 Q-12.35 -6.4 -12.35 -7.0 -12.35 -7.6 -12.05 -7.7 -11.8 -7.8 -11.8 -7.85 L-12.05 -7.75 -12.6 -7.75 -12.65 -8.05 -12.7 -8.2 -12.7 -8.05 -12.8 -7.7 -13.15 -7.6 -13.45 -7.7 -13.6 -8.05 -13.45 -8.35 -13.15 -8.5 -12.8 -8.35 -12.4 -8.4 Q-11.8 -8.4 -11.75 -8.7 L-11.7 -9.1 -11.95 -9.3 Q-12.5 -9.15 -12.6 -9.45 L-12.3 -9.85 -12.1 -9.95 -11.65 -9.65 -11.45 -12.0 -10.8 -12.15 -9.95 -12.05 Q-10.1 -11.5 -10.4 -11.05 L-10.95 -10.2 -10.85 -9.85 -9.75 -11.3 -9.25 -12.15 Q-9.25 -12.95 -8.75 -13.1 L-6.8 -13.15 -5.95 -13.0 -5.95 -13.1 -5.85 -13.3 -5.65 -13.4 -5.45 -13.3 -5.35 -13.1 -5.45 -12.9 -5.5 -12.85 -5.1 -12.6 Q-4.45 -12.05 -3.85 -12.05 L-2.8 -12.1 -2.55 -12.05 -2.15 -11.85 -2.15 -11.65 M-12.95 -7.4 L-12.85 -6.8 Q-13.2 -6.75 -13.25 -7.0 L-12.95 -7.4 M-12.95 -10.25 Q-12.85 -9.8 -13.45 -9.8 -13.55 -10.25 -12.95 -10.25 M-11.7 -5.1 L-11.55 -5.0 Q-10.95 -5.35 -10.85 -5.55 -11.1 -5.8 -11.7 -5.1 M-6.45 0.9 L-6.4 0.6 -6.25 0.5 -6.15 0.5 -6.1 0.8 -6.45 0.9 M-5.5 0.4 L-5.8 0.25 -5.75 -0.2 -5.15 0.15 -5.5 0.4 M-1.75 -1.8 L-2.05 -1.7 -2.35 -2.0 Q-1.85 -2.3 -1.75 -1.8 M-2.9 -1.2 L-3.0 -0.85 -3.25 -0.75 -3.5 -0.85 -3.6 -1.2 -3.5 -1.5 -3.25 -1.65 -3.0 -1.5 -2.9 -1.2 M-1.1 -3.5 L-0.95 -3.75 -0.7 -3.9 -0.4 -3.75 -0.3 -3.5 -0.4 -3.2 -0.7 -3.1 -0.95 -3.2 -1.1 -3.5 M-8.2 -0.35 L-7.95 -0.65 -7.8 0.05 -8.2 -0.35 M-8.8 -1.55 L-8.55 -1.55 -8.75 -1.35 -8.8 -1.55" fill="#8d8050" fill-rule="evenodd" stroke="none"/>
    <path d="M31.65 9.6 L32.4 10.85 Q33.05 11.8 34.3 12.05 L45.85 14.5 Q47.8 14.95 48.1 15.3 L48.6 15.95 Q48.95 16.3 49.6 16.3 52.1 16.3 53.6 -16.3 53.6 -18.15 52.55 -19.45 L51.35 -18.7 50.3 -17.95 7.3 -17.95 Q6.05 -18.8 4.95 -19.7 L4.05 -20.0 Q3.7 -20.0 1.9 -18.95 L0.05 -17.9 -3.35 -18.35 -6.8 -18.8 Q-11.35 -18.8 -15.95 -14.2 L-18.2 -11.55 -18.25 -11.5 Q-20.75 -7.95 -20.75 -4.2 -20.75 3.35 -16.85 7.0 -12.8 10.8 -4.05 10.8 -2.95 10.8 -1.7 10.05 L-1.7 13.05 1.65 13.05 2.0 13.05 7.3 13.05 7.3 9.9 14.45 9.65 18.35 10.05 Q19.2 10.35 19.75 11.05 L20.25 11.85 Q21.3 10.75 23.3 9.85 L28.0 9.55 31.5 9.55" fill="none" stroke="#302c1f" stroke-linecap="round" stroke-linejoin="round" stroke-width="0.5"/>
  </g>
</svg>
