<?xml version="1.0" encoding="UTF-8" standalone="no"?>
<svg xmlns:xlink="http://www.w3.org/1999/xlink" height="38.3px" width="94.2px" xmlns="http://www.w3.org/2000/svg">
  <g transform="matrix(1.0, 0.0, 0.0, 1.0, 40.4, 20.65)">
    <path d="M-20.2 -4.55 Q-24.5 -4.3 -28.25 -2.0 -32.0 0.25 -32.75 2.15 -33.5 4.05 -31.4 5.1 -29.35 6.1 -29.2 7.75 -29.1 9.4 -39.4 16.5" fill="none" stroke="#00cc00" stroke-linecap="round" stroke-linejoin="round" stroke-width="2.0"/>
    <path d="M30.7 9.9 L27.2 9.9 22.5 10.2 Q20.5 11.1 19.45 12.2 L18.95 11.4 17.55 10.4 13.65 10.0 6.5 10.25 6.5 13.4 -2.5 13.4 -2.5 10.4 Q-3.75 11.15 -4.85 11.15 -13.6 11.15 -17.65 7.35 -21.55 3.7 -21.55 -3.85 -21.55 -7.6 -19.05 -11.15 L-19.0 -11.2 -16.75 -13.85 Q-12.15 -18.45 -7.6 -18.45 L-4.15 -18.0 -0.75 -17.55 Q-0.65 -17.55 1.1 -18.6 L3.25 -19.65 4.15 -19.35 6.5 -17.6 49.5 -17.6 50.55 -18.35 51.75 -19.1 Q52.8 -17.8 52.8 -15.95 51.3 16.65 48.8 16.65 48.15 16.65 47.8 16.3 L47.3 15.65 Q47.0 15.3 45.05 14.85 L33.5 12.4 Q32.25 12.15 31.6 11.2 L30.85 9.95 30.7 9.9" fill="#cc0000" fill-opacity="0.49803922" fill-rule="evenodd" stroke="none"/>
    <path d="M30.85 9.95 L31.6 11.2 Q32.25 12.15 33.5 12.4 L45.05 14.85 Q47.0 15.3 47.3 15.65 L47.8 16.3 Q48.15 16.65 48.8 16.65 51.3 16.65 52.8 -15.95 52.8 -17.8 51.75 -19.1 L50.55 -18.35 49.5 -17.6 6.5 -17.6 4.15 -19.35 3.25 -19.65 1.1 -18.6 Q-0.65 -17.55 -0.75 -17.55 L-4.15 -18.0 -7.6 -18.45 Q-12.15 -18.45 -16.75 -13.85 L-19.0 -11.2 -19.05 -11.15 Q-21.55 -7.6 -21.55 -3.85 -21.55 3.7 -17.65 7.35 -13.6 11.15 -4.85 11.15 -3.75 11.15 -2.5 10.4 L-2.5 13.4 6.5 13.4 6.5 10.25 13.65 10.0 17.55 10.4 18.95 11.4 19.45 12.2 Q20.5 11.1 22.5 10.2 L27.2 9.9 30.7 9.9" fill="none" stroke="#00cc00" stroke-linecap="round" stroke-linejoin="round" stroke-width="2.0"/>
  </g>
</svg>
