<?xml version="1.0" encoding="UTF-8" standalone="no"?>
<svg xmlns:xlink="http://www.w3.org/1999/xlink" height="36.8px" width="92.7px" xmlns="http://www.w3.org/2000/svg">
  <g transform="matrix(1.0, 0.0, 0.0, 1.0, 39.65, 19.9)">
    <path d="M-20.2 -4.55 Q-24.5 -4.3 -28.25 -2.0 -32.0 0.25 -32.75 2.15 -33.5 4.05 -31.4 5.1 -29.35 6.1 -29.2 7.75 -29.1 9.4 -39.4 16.5" fill="none" stroke="#4d443c" stroke-linecap="round" stroke-linejoin="round" stroke-width="0.5"/>
    <path d="M20.5 -14.45 L20.45 -16.5 Q20.35 -16.5 20.2 -17.0 L19.55 -15.85 Q18.9 -15.2 18.9 -14.2 L19.0 -13.0 18.95 -11.85 18.75 -14.75 18.45 -15.35 17.8 -14.25 16.6 -14.55 16.95 -14.7 17.05 -15.0 Q16.6 -15.5 15.5 -15.8 L7.6 -16.35 6.9 -16.2 6.9 -15.9 7.45 -15.3 6.45 -15.15 6.45 -15.65 6.3 -16.65 5.95 -17.25 5.5 -17.2 Q5.3 -17.0 5.05 -16.1 5.1 -17.0 4.65 -17.75 4.15 -18.5 3.4 -18.55 2.65 -18.65 2.1 -18.0 1.5 -17.4 1.45 -16.4 L1.2 -16.3 0.85 -17.1 0.5 -17.2 -0.45 -15.1 -0.55 -14.8 -0.6 -14.8 -1.2 -13.7 -1.2 -14.05 Q-1.2 -14.5 -2.45 -15.5 -3.85 -16.65 -5.1 -16.65 -10.35 -16.65 -12.95 -15.25 -14.65 -14.35 -16.0 -12.15 L-16.75 -11.05 -16.8 -11.15 Q-17.3 -10.25 -18.4 -4.8 -18.4 8.35 -8.9 6.25 L-7.05 6.45 -4.7 6.2 -2.35 5.6 -2.35 9.95 -1.85 10.0 -1.25 9.5 -0.95 9.8 -0.05 9.95 Q4.1 9.95 4.65 9.05 5.1 8.3 4.9 4.4 L5.1 5.5 Q5.6 7.6 6.4 8.45 L7.05 7.35 Q6.9 7.0 6.9 5.95 6.9 5.5 7.05 5.2 L7.1 4.45 8.2 5.85 12.75 6.4 17.95 6.25 17.9 7.75 18.1 9.35 Q18.35 10.0 19.05 10.35 L19.1 10.5 17.55 10.4 13.65 10.0 6.5 10.25 6.5 13.4 1.2 13.4 Q4.55 12.95 5.65 11.75 L5.6 11.05 5.55 10.9 5.2 10.4 5.2 9.9 3.55 10.2 1.55 10.65 -0.65 11.25 -1.0 11.5 -0.9 11.75 Q-0.9 12.45 -0.35 12.95 L0.8 13.4 -2.5 13.4 -2.5 10.4 Q-3.75 11.15 -4.85 11.15 -13.6 11.15 -17.65 7.35 -21.55 3.7 -21.55 -3.85 -21.55 -7.6 -19.05 -11.15 L-19.0 -11.2 -16.75 -13.85 Q-12.15 -18.45 -7.6 -18.45 L-4.15 -18.0 -0.75 -17.55 Q-0.65 -17.55 1.1 -18.6 L3.25 -19.65 4.15 -19.35 6.5 -17.6 49.5 -17.6 50.55 -18.35 51.75 -19.1 Q52.8 -17.8 52.8 -15.95 51.3 16.65 48.8 16.65 48.15 16.65 47.8 16.3 L47.3 15.65 Q47.0 15.3 45.05 14.85 L33.5 12.4 Q32.25 12.15 31.6 11.2 L30.85 9.95 Q31.15 9.45 31.15 5.8 L31.15 -3.05 31.5 4.25 Q31.7 8.1 32.1 9.35 L32.3 9.25 32.55 6.7 32.5 4.1 32.65 4.1 Q32.65 4.85 33.05 5.4 33.45 5.9 34.0 5.9 L34.2 6.0 35.6 6.95 36.35 6.65 39.8 8.0 Q43.6 9.3 45.35 9.3 46.35 9.3 45.75 9.15 46.0 8.85 45.85 8.45 L46.05 8.25 Q45.8 13.5 46.0 14.05 L46.7 14.15 47.1 13.75 47.35 14.35 48.15 14.6 49.05 14.35 49.45 14.1 Q49.5 12.0 50.25 4.5 51.15 -4.0 51.6 -14.35 L51.65 -15.55 Q51.65 -16.8 50.9 -17.1 L50.8 -17.05 Q50.1 -17.05 49.6 -16.65 49.05 -16.3 49.05 -15.8 L48.8 -15.85 Q47.9 -14.7 47.2 -9.75 L47.1 -10.2 47.15 -11.2 47.4 -13.5 46.05 -13.45 45.65 -13.6 47.05 -13.8 45.05 -14.3 42.6 -14.55 Q35.35 -14.55 33.25 -13.75 32.3 -13.35 32.3 -12.2 32.3 -11.2 32.4 -11.7 L32.65 -11.4 Q32.65 -11.0 33.2 -10.7 33.7 -10.4 34.45 -10.4 L34.5 -9.85 34.15 -9.7 Q34.6 -9.05 37.05 -8.9 L46.95 -8.9 47.15 -9.15 Q46.55 -4.85 46.2 2.15 45.95 1.8 45.3 1.5 44.65 1.15 44.15 1.15 43.2 0.2 37.8 -0.05 L32.3 -0.15 32.15 -4.6 32.15 -12.45 32.55 -15.55 Q32.5 -16.75 32.15 -17.1 L31.9 -17.15 Q31.5 -16.65 31.1 -13.9 L30.5 -15.85 30.2 -14.55 26.95 -14.9 23.3 -15.15 Q22.0 -15.15 20.55 -14.35 L20.5 -14.45 M20.45 -9.8 L20.45 -11.05 20.7 -13.4 21.25 -12.85 21.0 -12.95 20.9 -12.4 Q20.9 -11.4 21.5 -11.75 L21.45 -11.1 21.05 -10.5 Q22.7 -9.25 25.85 -9.25 L27.35 -9.35 Q27.75 -9.5 27.6 -10.1 27.75 -9.5 28.95 -9.05 L29.4 -9.55 29.35 -10.35 29.75 -11.2 30.0 -11.55 30.2 -4.5 30.25 1.45 30.05 1.1 30.1 0.45 30.05 -0.3 26.85 -0.6 21.2 -0.15 21.15 -0.05 21.05 0.8 21.1 1.5 21.3 1.7 Q21.25 3.85 22.0 4.75 L21.75 4.9 21.4 5.3 22.7 6.75 30.05 5.5 Q30.45 9.3 30.7 9.9 L27.2 9.9 22.5 10.2 20.8 10.35 Q21.25 3.95 20.45 -9.8 M17.2 -12.9 L17.6 -13.15 18.15 1.65 17.7 1.05 Q16.35 -0.6 13.1 -0.2 L7.7 0.45 7.6 0.1 7.3 0.25 Q7.4 -2.9 6.95 -12.7 L7.45 -12.5 Q7.05 -11.35 7.45 -10.85 L8.25 -10.35 Q9.1 -9.9 9.75 -9.9 L16.0 -10.15 16.1 -10.6 16.05 -11.1 Q16.5 -11.1 16.85 -11.4 17.15 -11.7 17.15 -12.15 L17.2 -12.9 M5.4 -14.85 L5.65 -14.65 5.35 -14.0 5.25 -14.85 5.4 -14.85 M20.7 -13.9 L20.65 -13.8 20.65 -13.9 20.7 -13.9 M29.85 -12.1 L30.05 -12.2 30.05 -11.9 29.85 -12.1 M30.15 -13.9 L29.85 -14.1 30.15 -14.25 30.15 -13.9 M33.5 -9.9 L33.05 -9.7 32.85 -9.2 33.05 -8.7 33.5 -8.5 33.95 -8.7 34.15 -9.2 33.95 -9.7 33.5 -9.9 M32.85 0.8 L32.4 1.3 32.35 0.45 32.85 0.8 M18.0 5.2 L17.85 4.9 18.05 4.3 18.0 5.2" fill="#736740" fill-rule="evenodd" stroke="none"/>
    <path d="M19.55 -15.85 L20.2 -17.0 Q20.35 -16.5 20.45 -16.5 L20.5 -14.45 20.5 -14.25 20.5 -14.15 20.45 -11.05 20.45 -9.8 20.1 -5.6 19.65 -3.2 19.5 -8.85 19.3 -13.75 19.55 -15.85 M32.15 -12.45 L32.15 -4.6 32.1 2.0 Q31.9 3.2 32.1 3.75 L32.05 5.75 31.8 -5.55 31.85 -16.3 32.15 -15.5 32.15 -12.45 M50.8 -17.05 L50.9 -17.1 Q51.65 -16.8 51.65 -15.55 L51.6 -14.35 49.35 10.05 49.15 9.1 48.95 6.9 Q48.95 4.55 49.95 -4.1 L50.9 -13.55 Q50.6 -16.35 50.8 -17.05 M-0.9 11.75 L-1.0 11.5 -0.65 11.25 3.55 10.2 5.2 9.9 5.2 10.4 5.55 10.9 5.6 11.05 5.65 11.75 5.6 11.4 Q5.5 11.05 4.9 11.05 L2.1 11.35 -0.9 11.75 M2.4 -16.35 L2.9 -16.35 3.65 -16.15 3.3 -9.45 4.3 9.3 4.1 9.4 3.85 8.25 3.75 8.1 3.3 -5.1 2.4 -16.35 M2.35 -16.65 Q2.35 -17.45 2.6 -17.9 2.8 -18.4 3.1 -18.35 L3.6 -17.75 3.7 -16.55 2.35 -16.65" fill="#ac9d6a" fill-rule="evenodd" stroke="none"/>
    <path d="M20.5 -14.45 L20.55 -14.35 20.5 -14.25 20.5 -14.45 M31.1 -13.9 Q31.5 -16.65 31.9 -17.15 L32.15 -17.1 Q32.5 -16.75 32.55 -15.55 L32.15 -12.45 32.15 -15.5 31.85 -16.3 31.8 -5.55 32.05 5.75 32.1 3.75 32.5 4.1 32.55 6.7 32.3 9.25 32.1 9.35 Q31.7 8.1 31.5 4.25 L31.15 -3.05 31.1 -13.9 M32.15 -4.6 L32.3 -0.15 32.35 0.45 32.4 1.3 32.1 2.0 32.15 -4.6 M49.05 -15.8 Q49.05 -16.3 49.6 -16.65 50.1 -17.05 50.8 -17.05 50.6 -16.35 50.9 -13.55 L49.95 -4.1 Q48.95 4.55 48.95 6.9 L49.15 9.1 49.35 10.05 51.6 -14.35 Q51.15 -4.0 50.25 4.5 49.5 12.0 49.45 14.1 L49.05 14.35 48.15 14.6 47.35 14.35 47.1 13.75 Q47.55 11.45 47.55 2.65 L47.8 -1.35 Q49.35 -14.4 49.05 -15.8 M0.8 13.4 L-0.35 12.95 Q-0.9 12.45 -0.9 11.75 L2.1 11.35 4.9 11.05 Q5.5 11.05 5.6 11.4 L5.65 11.75 Q4.55 12.95 1.2 13.4 L0.8 13.4 M-0.65 11.25 L1.55 10.65 3.55 10.2 -0.65 11.25 M17.55 10.4 L19.1 10.5 19.05 10.35 Q19.35 3.65 18.95 -11.85 L19.0 -13.0 18.9 -14.2 Q18.9 -15.2 19.55 -15.85 L19.3 -13.75 19.5 -8.85 19.65 -3.2 20.1 -5.6 20.45 -9.8 Q21.25 3.95 20.8 10.35 L22.5 10.2 Q20.5 11.1 19.45 12.2 L18.95 11.4 17.55 10.4 M4.9 4.4 Q5.1 8.3 4.65 9.05 4.1 9.95 -0.05 9.95 L-0.95 9.8 -1.25 9.5 -0.85 6.05 -0.55 2.2 Q-0.55 1.65 -0.85 0.85 L-1.05 0.05 -1.75 2.7 Q-2.7 4.6 -5.45 4.6 -16.2 4.6 -16.2 -5.85 -15.8 -9.3 -15.95 -9.55 L-12.6 -12.95 -9.75 -13.85 -6.65 -14.65 -6.2 -14.55 -3.35 -11.7 -3.6 -11.75 -4.65 -11.7 Q-5.25 -11.7 -5.9 -12.25 L-6.3 -12.5 -6.25 -12.55 -6.15 -12.75 -6.25 -12.95 -6.45 -13.05 -6.65 -12.95 -6.75 -12.75 -6.75 -12.65 -7.6 -12.8 -9.55 -12.75 Q-10.05 -12.6 -10.05 -11.8 -10.05 -11.6 -10.55 -10.95 L-11.65 -9.5 -11.75 -9.85 -11.2 -10.7 Q-10.9 -11.15 -10.75 -11.7 L-11.6 -11.8 -12.25 -11.65 -12.45 -9.3 -12.9 -9.6 -13.1 -9.5 -13.4 -9.1 Q-13.3 -8.8 -12.75 -8.95 L-12.5 -8.75 -12.55 -8.35 Q-12.6 -8.05 -13.2 -8.05 L-13.6 -8.0 Q-13.75 -8.15 -13.95 -8.15 L-14.25 -8.0 -14.4 -7.7 -14.25 -7.35 -13.95 -7.25 Q-13.75 -7.25 -13.6 -7.35 L-13.5 -7.7 -13.5 -7.85 -13.45 -7.7 -13.4 -7.4 -12.85 -7.4 Q-12.8 -7.35 -12.6 -7.5 L-12.85 -7.35 -13.15 -6.65 Q-13.15 -6.05 -12.75 -6.2 L-12.35 -6.4 -12.65 -6.05 -13.4 -5.85 -13.95 -5.15 -14.5 -4.0 Q-14.45 -3.35 -13.55 -3.35 -13.4 -3.5 -13.4 -3.75 L-13.65 -4.35 Q-13.25 -4.35 -13.15 -4.5 L-13.1 -3.8 -13.2 -3.2 -13.0 -2.85 Q-12.25 -3.45 -12.25 -4.15 -11.75 -4.15 -11.65 -3.95 L-12.1 -3.4 -12.65 -1.85 -12.35 -1.2 -12.1 -1.1 -11.35 -3.45 Q-11.25 -3.25 -11.3 -1.55 L-10.95 -1.45 -10.65 -1.7 -10.55 -0.85 -10.5 -0.15 -10.3 0.15 Q-10.1 0.0 -10.05 -0.45 L-9.9 -1.55 -9.75 -2.0 -8.95 -1.8 Q-8.65 -1.75 -8.65 -1.15 L-8.5 -0.45 -8.05 -0.4 -7.65 -0.45 Q-7.55 -0.65 -8.0 -0.8 -7.85 -1.05 -7.85 -1.4 L-7.65 -1.1 -7.4 -0.55 Q-6.45 -0.55 -6.55 -1.25 L-6.55 -1.35 -6.45 -1.1 -5.8 -0.3 Q-5.55 -0.4 -5.6 -0.95 -5.65 -1.55 -5.9 -1.55 L-5.6 -1.7 -5.3 -1.65 Q-5.25 -1.3 -4.8 -1.2 -4.35 -0.45 -4.35 -1.8 L-4.35 -2.15 -3.9 -1.8 Q-3.55 -1.9 -3.5 -2.2 -3.4 -2.5 -3.65 -2.8 -3.05 -3.1 -2.35 -3.55 L-1.9 -3.65 Q-1.85 -3.9 -2.3 -4.3 L-2.15 -4.3 -1.9 -4.2 -1.45 -4.25 Q-1.25 -4.35 -1.25 -5.0 -1.25 -5.95 -2.05 -5.35 L-1.9 -6.2 -1.05 -7.5 -1.0 -7.9 -1.7 -8.95 Q-2.1 -9.45 -3.25 -9.45 -3.85 -9.45 -3.85 -9.75 -3.7 -10.3 -3.7 -10.8 -3.7 -11.4 -3.4 -11.3 L-2.95 -11.2 -2.95 -11.3 -2.8 -11.15 0.35 -8.85 0.6 -9.15 Q0.95 -9.65 1.15 -12.05 L1.4 -16.05 2.4 -16.35 3.3 -5.1 3.75 8.1 3.85 8.25 4.1 9.4 4.3 9.3 3.3 -9.45 3.65 -16.15 4.75 -15.3 5.25 -14.85 5.35 -14.0 Q5.05 -11.85 4.9 -6.65 L4.65 1.65 Q4.6 2.95 4.9 4.4 M1.45 -16.4 Q1.5 -17.4 2.1 -18.0 2.65 -18.65 3.4 -18.55 4.15 -18.5 4.65 -17.75 5.1 -17.0 5.05 -16.1 L4.9 -15.9 3.7 -16.55 3.6 -17.75 3.1 -18.35 Q2.8 -18.4 2.6 -17.9 2.35 -17.45 2.35 -16.65 L1.45 -16.4 M20.45 -11.05 L20.5 -14.15 20.65 -13.9 20.65 -13.8 20.7 -13.4 20.45 -11.05 M-13.75 -9.9 Q-14.35 -9.9 -14.25 -9.45 -13.65 -9.45 -13.75 -9.9 M-13.75 -7.05 L-14.05 -6.65 Q-14.0 -6.4 -13.65 -6.45 L-13.75 -7.05 M-12.35 -4.65 L-12.5 -4.75 Q-11.9 -5.45 -11.65 -5.2 L-12.35 -4.65 M-9.6 -1.2 L-9.55 -1.0 -9.35 -1.2 -9.6 -1.2 M-1.9 -3.15 L-1.75 -2.85 -1.5 -2.75 -1.2 -2.85 -1.1 -3.15 -1.2 -3.4 -1.5 -3.55 -1.75 -3.4 -1.9 -3.15 M-4.05 -1.3 L-4.3 -1.15 -4.4 -0.85 -4.3 -0.5 Q-4.2 -0.4 -4.05 -0.4 L-3.8 -0.5 -3.7 -0.85 -3.8 -1.15 Q-3.9 -1.3 -4.05 -1.3 M-2.55 -1.45 Q-2.65 -1.95 -3.15 -1.65 L-2.85 -1.35 -2.55 -1.45 M-5.95 0.5 Q-6.35 0.1 -6.55 0.15 L-6.6 0.6 -6.3 0.75 Q-6.05 0.7 -5.95 0.5 M-7.25 1.25 L-6.9 1.15 -6.95 0.85 -7.05 0.85 -7.2 0.95 -7.25 1.25 M-8.6 0.4 L-8.75 -0.3 -9.0 0.0 -8.6 0.4" fill="#827548" fill-rule="evenodd" stroke="none"/>
    <path d="M30.2 -14.55 L30.5 -15.85 31.1 -13.9 31.15 -3.05 31.15 5.8 Q31.15 9.45 30.85 9.95 L30.7 9.9 Q30.45 9.3 30.05 5.5 L30.25 5.5 30.3 4.85 Q30.3 4.45 29.7 4.1 29.0 3.75 27.85 3.75 L25.1 4.2 22.0 4.75 Q21.25 3.85 21.3 1.7 L22.95 1.95 26.35 2.35 Q26.85 2.4 29.95 0.9 L30.05 1.1 30.25 1.45 30.2 -4.5 30.0 -11.55 30.05 -11.9 30.05 -12.2 Q30.65 -12.95 30.15 -13.9 L30.15 -14.25 30.2 -14.55 M44.15 1.15 Q44.65 1.15 45.3 1.5 45.95 1.8 46.2 2.15 46.55 -4.85 47.15 -9.15 L47.2 -9.4 47.2 -9.75 Q47.9 -14.7 48.8 -15.85 L49.05 -15.8 Q49.35 -14.4 47.8 -1.35 L47.55 2.65 Q47.55 11.45 47.1 13.75 L46.7 14.15 46.0 14.05 Q45.8 13.5 46.05 8.25 L45.85 8.45 Q43.9 6.85 41.6 6.0 L39.55 5.5 37.15 5.25 35.6 5.0 34.0 4.55 32.65 4.1 32.5 4.1 32.1 3.75 Q31.9 3.2 32.1 2.0 L32.4 1.3 32.85 0.8 Q33.7 1.15 35.3 1.5 L39.0 2.0 41.65 1.8 44.15 1.15 M19.05 10.35 Q18.35 10.0 18.1 9.35 L17.9 7.75 17.95 6.25 18.0 5.2 18.05 4.3 17.85 4.9 Q16.55 4.3 13.2 4.3 L8.15 4.7 8.1 5.15 8.2 5.85 7.1 4.45 7.05 5.2 Q6.9 5.5 6.9 5.95 6.9 7.0 7.05 7.35 L6.4 8.45 Q5.6 7.6 5.1 5.5 L4.9 4.4 Q4.6 2.95 4.65 1.65 L4.9 -6.65 Q5.05 -11.85 5.35 -14.0 L5.65 -14.65 6.75 -13.15 6.95 -12.7 Q7.4 -2.9 7.3 0.25 L7.6 0.1 7.7 0.45 7.45 0.9 Q8.55 2.05 11.8 2.4 L14.9 2.5 Q16.1 2.5 16.75 2.1 L17.7 1.05 18.15 1.65 17.6 -13.15 Q17.95 -13.6 18.35 -13.65 L18.2 -13.95 17.8 -14.25 18.45 -15.35 18.75 -14.75 18.95 -11.85 Q19.35 3.65 19.05 10.35 M-1.25 9.5 L-1.85 10.0 -2.35 9.95 -2.35 5.6 -4.7 6.2 -7.05 6.45 -8.9 6.25 Q-12.3 6.25 -14.65 1.9 -17.05 -2.45 -17.05 -8.6 L-17.0 -8.55 -16.95 -8.25 -16.8 -8.4 -15.95 -9.55 Q-15.8 -9.3 -16.2 -5.85 -16.2 4.6 -5.45 4.6 -2.7 4.6 -1.75 2.7 L-1.05 0.05 -0.85 0.85 Q-0.55 1.65 -0.55 2.2 L-0.85 6.05 -1.25 9.5 M-16.75 -11.05 L-16.0 -12.15 -16.75 -10.2 -16.75 -11.05 M-1.2 -13.7 L-0.6 -14.8 -0.4 -14.7 1.4 -16.05 1.15 -12.05 Q0.95 -9.65 0.6 -9.15 L0.35 -8.85 -2.8 -11.15 -2.95 -11.3 -2.95 -11.5 -3.35 -11.7 -6.2 -14.55 -3.45 -13.35 Q-2.15 -12.65 -1.85 -12.65 -1.45 -13.05 -1.7 -13.75 L-1.35 -13.75 -1.2 -13.7 M-0.55 -14.8 L-0.45 -15.1 0.5 -17.2 0.85 -17.1 1.2 -16.3 -0.55 -14.8 M5.05 -16.1 Q5.3 -17.0 5.5 -17.2 L5.95 -17.25 6.3 -16.65 6.45 -15.65 6.45 -15.15 6.05 -14.85 4.9 -15.9 5.05 -16.1 M4.75 -15.3 L5.4 -14.85 5.25 -14.85 4.75 -15.3 M-6.65 -14.65 L-9.75 -13.85 -12.6 -12.95 -10.0 -13.85 -6.65 -14.65 M-16.0 -11.35 L-15.7 -11.2 Q-15.8 -11.05 -15.9 -11.05 L-16.35 -10.55 -16.0 -11.35" fill="#7d7146" fill-rule="evenodd" stroke="none"/>
    <path d="M20.55 -14.35 Q22.0 -15.15 23.3 -15.15 L26.95 -14.9 30.2 -14.55 30.15 -14.25 29.85 -14.1 26.6 -14.0 22.1 -14.4 21.7 -14.35 21.7 -13.9 Q21.05 -13.7 20.7 -13.9 L20.65 -13.9 20.5 -14.15 20.5 -14.25 20.55 -14.35 M34.45 -10.4 Q33.7 -10.4 33.2 -10.7 32.65 -11.0 32.65 -11.4 L32.4 -11.7 Q32.3 -11.2 32.3 -12.2 32.3 -13.35 33.25 -13.75 35.35 -14.55 42.6 -14.55 L45.05 -14.3 47.05 -13.8 45.65 -13.6 39.55 -13.15 33.5 -12.2 Q33.3 -12.0 33.65 -12.0 L34.7 -12.15 37.6 -12.1 39.5 -12.3 40.0 -12.35 43.35 -12.6 Q45.1 -12.7 46.05 -13.45 L47.4 -13.5 47.15 -11.2 Q47.4 -11.5 46.4 -11.5 L39.75 -10.95 34.45 -10.4 M7.45 -15.3 L6.9 -15.9 6.9 -16.2 7.6 -16.35 15.5 -15.8 Q16.6 -15.5 17.05 -15.0 L16.95 -14.7 16.6 -14.55 7.45 -15.3 M6.75 -13.15 L12.2 -13.3 17.2 -12.9 17.15 -12.15 11.65 -13.05 7.45 -12.85 7.45 -12.5 6.95 -12.7 6.75 -13.15 M-6.2 -14.55 L-6.65 -14.65 -10.0 -13.85 -12.6 -12.95 -15.95 -9.55 -16.8 -8.4 -17.0 -8.55 -17.05 -8.6 -16.9 -9.65 -16.35 -10.55 -15.9 -11.05 Q-15.8 -11.05 -15.7 -11.2 L-16.0 -11.35 -16.15 -11.7 Q-13.9 -14.0 -10.85 -15.15 -8.75 -15.95 -7.35 -15.95 L-4.65 -15.3 Q-2.8 -14.6 -1.7 -13.75 -1.45 -13.05 -1.85 -12.65 -2.15 -12.65 -3.45 -13.35 L-6.2 -14.55 M21.25 -12.85 L23.5 -12.9 26.5 -12.65 29.85 -12.1 30.05 -11.9 30.0 -11.55 29.75 -11.2 Q28.45 -11.95 26.15 -12.2 23.55 -12.45 21.5 -11.75 20.9 -11.4 20.9 -12.4 L21.0 -12.95 21.25 -12.85" fill="#8c7e4d" fill-rule="evenodd" stroke="none"/>
    <path d="M45.65 -13.6 L46.05 -13.45 Q45.1 -12.7 43.35 -12.6 L40.0 -12.35 Q39.6 -12.4 39.9 -12.55 L40.2 -12.85 39.5 -12.3 37.6 -12.1 34.7 -12.15 34.05 -12.2 33.5 -12.2 39.55 -13.15 45.65 -13.6 M-16.0 -12.15 Q-14.65 -14.35 -12.95 -15.25 -10.35 -16.65 -5.1 -16.65 -3.85 -16.65 -2.45 -15.5 -1.2 -14.5 -1.2 -14.05 L-1.2 -13.7 -1.35 -13.75 -1.7 -13.75 Q-2.8 -14.6 -4.65 -15.3 L-7.35 -15.95 Q-8.75 -15.95 -10.85 -15.15 -13.9 -14.0 -16.15 -11.7 L-16.0 -11.35 -16.35 -10.55 -16.9 -9.65 -16.75 -10.2 -16.0 -12.15 M-0.6 -14.8 L-0.55 -14.8 1.2 -16.3 1.45 -16.4 2.35 -16.65 3.7 -16.55 4.9 -15.9 6.05 -14.85 6.45 -15.15 7.45 -15.3 16.6 -14.55 17.8 -14.25 18.2 -13.95 18.35 -13.65 Q17.95 -13.6 17.6 -13.15 L17.2 -12.9 12.2 -13.3 6.75 -13.15 5.65 -14.65 5.4 -14.85 4.75 -15.3 3.65 -16.15 2.9 -16.35 2.4 -16.35 1.4 -16.05 -0.4 -14.7 -0.6 -14.8 M20.7 -13.9 Q21.05 -13.7 21.7 -13.9 L21.7 -14.35 22.1 -14.4 26.6 -14.0 29.85 -14.1 30.15 -13.9 Q30.65 -12.95 30.05 -12.2 L29.85 -12.1 26.5 -12.65 23.5 -12.9 21.25 -12.85 20.7 -13.4 20.65 -13.8 20.7 -13.9 M-17.0 -8.55 L-16.8 -8.4 -16.95 -8.25 -17.0 -8.55" fill="#a3935a" fill-rule="evenodd" stroke="none"/>
    <path d="M47.15 -9.15 L46.95 -8.9 37.05 -8.9 Q34.6 -9.05 34.15 -9.7 L34.5 -9.85 40.35 -10.4 45.3 -10.7 Q46.5 -10.7 47.1 -10.2 L47.2 -9.75 47.2 -9.4 47.15 -9.15 M7.45 -10.85 L10.1 -11.35 12.8 -11.6 14.65 -11.4 16.05 -11.1 16.1 -10.6 16.0 -10.15 9.75 -9.9 Q9.1 -9.9 8.25 -10.35 L7.45 -10.85 M29.35 -10.35 L29.4 -9.55 28.95 -9.05 Q27.75 -9.5 27.6 -10.1 27.75 -9.5 27.35 -9.35 L25.85 -9.25 Q22.7 -9.25 21.05 -10.5 L21.45 -11.1 25.3 -10.6 27.6 -10.25 29.35 -10.35 M33.5 -9.9 L33.95 -9.7 34.15 -9.2 33.95 -8.7 33.5 -8.5 33.05 -8.7 32.85 -9.2 33.05 -9.7 33.5 -9.9" fill="#7d7144" fill-rule="evenodd" stroke="none"/>
    <path d="M39.5 -12.3 L40.2 -12.85 39.9 -12.55 Q39.6 -12.4 40.0 -12.35 L39.5 -12.3 M34.7 -12.15 L33.65 -12.0 Q33.3 -12.0 33.5 -12.2 L34.05 -12.2 34.7 -12.15" fill="#978853" fill-rule="evenodd" stroke="none"/>
    <path d="M34.5 -9.85 L34.45 -10.4 39.75 -10.95 46.4 -11.5 Q47.4 -11.5 47.15 -11.2 L47.1 -10.2 Q46.5 -10.7 45.3 -10.7 L40.35 -10.4 34.5 -9.85 M7.45 -12.5 L7.45 -12.85 11.65 -13.05 17.15 -12.15 Q17.15 -11.7 16.85 -11.4 16.5 -11.1 16.05 -11.1 L14.65 -11.4 12.8 -11.6 10.1 -11.35 7.45 -10.85 Q7.05 -11.35 7.45 -12.5 M21.45 -11.1 L21.5 -11.75 Q23.55 -12.45 26.15 -12.2 28.45 -11.95 29.75 -11.2 L29.35 -10.35 27.6 -10.25 25.3 -10.6 21.45 -11.1" fill="#837547" fill-rule="evenodd" stroke="none"/>
    <path d="M32.3 -0.15 L37.8 -0.05 Q43.2 0.2 44.15 1.15 L41.65 1.8 39.0 2.0 35.3 1.5 Q33.7 1.15 32.85 0.8 L32.35 0.45 32.3 -0.15 M45.85 8.45 Q46.0 8.85 45.75 9.15 46.35 9.3 45.35 9.3 43.6 9.3 39.8 8.0 L36.35 6.65 35.6 6.95 34.2 6.0 34.0 5.9 Q33.45 5.9 33.05 5.4 32.65 4.85 32.65 4.1 L34.0 4.55 35.6 5.0 37.15 5.25 39.55 5.5 41.6 6.0 Q43.9 6.85 45.85 8.45 M17.95 6.25 L12.75 6.4 8.2 5.85 8.1 5.15 8.15 4.7 13.2 4.3 Q16.55 4.3 17.85 4.9 L18.0 5.2 17.95 6.25 M-8.9 6.25 Q-18.4 8.35 -18.4 -4.8 -17.3 -10.25 -16.8 -11.15 L-16.75 -11.05 -16.75 -10.2 -16.9 -9.65 -17.05 -8.6 Q-17.05 -2.45 -14.65 1.9 -12.3 6.25 -8.9 6.25 M21.3 1.7 L21.1 1.5 21.05 0.8 21.15 -0.05 21.2 -0.15 26.85 -0.6 30.05 -0.3 30.1 0.45 30.05 1.1 29.95 0.9 Q26.85 2.4 26.35 2.35 L22.95 1.95 21.3 1.7 M22.0 4.75 L25.1 4.2 27.85 3.75 Q29.0 3.75 29.7 4.1 30.3 4.45 30.3 4.85 L30.25 5.5 30.05 5.5 22.7 6.75 21.4 5.3 21.75 4.9 22.0 4.75 M17.7 1.05 L16.75 2.1 Q16.1 2.5 14.9 2.5 L11.8 2.4 Q8.55 2.05 7.45 0.9 L7.7 0.45 13.1 -0.2 Q16.35 -0.6 17.7 1.05" fill="#776b42" fill-rule="evenodd" stroke="none"/>
    <path d="M-2.95 -11.3 L-2.95 -11.2 -3.4 -11.3 Q-3.7 -11.4 -3.7 -10.8 -3.7 -10.3 -3.85 -9.75 -3.85 -9.45 -3.25 -9.45 -2.1 -9.45 -1.7 -8.95 L-1.0 -7.9 -1.05 -7.5 -1.9 -6.2 -2.05 -5.35 Q-1.25 -5.95 -1.25 -5.0 -1.25 -4.35 -1.45 -4.25 L-1.9 -4.2 -2.15 -4.3 -2.3 -4.3 Q-1.85 -3.9 -1.9 -3.65 L-2.35 -3.55 Q-3.05 -3.1 -3.65 -2.8 -3.4 -2.5 -3.5 -2.2 -3.55 -1.9 -3.9 -1.8 L-4.35 -2.15 -4.35 -1.8 Q-4.35 -0.45 -4.8 -1.2 -5.25 -1.3 -5.3 -1.65 L-5.6 -1.7 -5.9 -1.55 Q-5.65 -1.55 -5.6 -0.95 -5.55 -0.4 -5.8 -0.3 L-6.45 -1.1 -6.55 -1.35 -6.55 -1.25 Q-6.45 -0.55 -7.4 -0.55 L-7.65 -1.1 -7.85 -1.4 Q-7.85 -1.05 -8.0 -0.8 -7.55 -0.65 -7.65 -0.45 L-8.05 -0.4 -8.5 -0.45 -8.65 -1.15 Q-8.65 -1.75 -8.95 -1.8 L-9.75 -2.0 -9.9 -1.55 -10.05 -0.45 Q-10.1 0.0 -10.3 0.15 L-10.5 -0.15 -10.55 -0.85 -10.65 -1.7 -10.95 -1.45 -11.3 -1.55 Q-11.25 -3.25 -11.35 -3.45 L-12.1 -1.1 -12.35 -1.2 -12.65 -1.85 -12.1 -3.4 -11.65 -3.95 Q-11.75 -4.15 -12.25 -4.15 -12.25 -3.45 -13.0 -2.85 L-13.2 -3.2 -13.1 -3.8 -13.15 -4.5 Q-13.25 -4.35 -13.65 -4.35 L-13.4 -3.75 Q-13.4 -3.5 -13.55 -3.35 -14.45 -3.35 -14.5 -4.0 L-13.95 -5.15 -13.4 -5.85 -12.65 -6.05 -12.35 -6.4 -12.75 -6.2 Q-13.15 -6.05 -13.15 -6.65 L-12.85 -7.35 -12.6 -7.5 Q-12.8 -7.35 -12.85 -7.4 L-13.4 -7.4 -13.45 -7.7 -13.5 -7.85 -13.5 -7.7 -13.6 -7.35 Q-13.75 -7.25 -13.95 -7.25 L-14.25 -7.35 -14.4 -7.7 -14.25 -8.0 -13.95 -8.15 Q-13.75 -8.15 -13.6 -8.0 L-13.2 -8.05 Q-12.6 -8.05 -12.55 -8.35 L-12.5 -8.75 -12.75 -8.95 Q-13.3 -8.8 -13.4 -9.1 L-13.1 -9.5 -12.9 -9.6 -12.45 -9.3 -12.25 -11.65 -11.6 -11.8 -10.75 -11.7 Q-10.9 -11.15 -11.2 -10.7 L-11.75 -9.85 -11.65 -9.5 -10.55 -10.95 Q-10.05 -11.6 -10.05 -11.8 -10.05 -12.6 -9.55 -12.75 L-7.6 -12.8 -6.75 -12.65 -6.75 -12.75 -6.65 -12.95 -6.45 -13.05 -6.25 -12.95 -6.15 -12.75 -6.25 -12.55 -6.3 -12.5 -5.9 -12.25 Q-5.25 -11.7 -4.65 -11.7 L-3.6 -11.75 -3.35 -11.7 -2.95 -11.5 -2.95 -11.3 M-13.75 -7.05 L-13.65 -6.45 Q-14.0 -6.4 -14.05 -6.65 L-13.75 -7.05 M-13.75 -9.9 Q-13.65 -9.45 -14.25 -9.45 -14.35 -9.9 -13.75 -9.9 M-12.35 -4.65 L-11.65 -5.2 Q-11.9 -5.45 -12.5 -4.75 L-12.35 -4.65 M-8.6 0.4 L-9.0 0.0 -8.75 -0.3 -8.6 0.4 M-7.25 1.25 L-7.2 0.95 -7.05 0.85 -6.95 0.85 -6.9 1.15 -7.25 1.25 M-5.95 0.5 Q-6.05 0.7 -6.3 0.75 L-6.6 0.6 -6.55 0.15 Q-6.35 0.1 -5.95 0.5 M-2.55 -1.45 L-2.85 -1.35 -3.15 -1.65 Q-2.65 -1.95 -2.55 -1.45 M-4.05 -1.3 Q-3.9 -1.3 -3.8 -1.15 L-3.7 -0.85 -3.8 -0.5 -4.05 -0.4 Q-4.2 -0.4 -4.3 -0.5 L-4.4 -0.85 -4.3 -1.15 -4.05 -1.3 M-1.9 -3.15 L-1.75 -3.4 -1.5 -3.55 -1.2 -3.4 -1.1 -3.15 -1.2 -2.85 -1.5 -2.75 -1.75 -2.85 -1.9 -3.15 M-9.6 -1.2 L-9.35 -1.2 -9.55 -1.0 -9.6 -1.2" fill="#8d8050" fill-rule="evenodd" stroke="none"/>
    <path d="M30.85 9.95 L31.6 11.2 Q32.25 12.15 33.5 12.4 L45.05 14.85 Q47.0 15.3 47.3 15.65 L47.8 16.3 Q48.15 16.65 48.8 16.65 51.3 16.65 52.8 -15.95 52.8 -17.8 51.75 -19.1 L50.55 -18.35 49.5 -17.6 6.5 -17.6 4.15 -19.35 3.25 -19.65 1.1 -18.6 Q-0.65 -17.55 -0.75 -17.55 L-4.15 -18.0 -7.6 -18.45 Q-12.15 -18.45 -16.75 -13.85 L-19.0 -11.2 -19.05 -11.15 Q-21.55 -7.6 -21.55 -3.85 -21.55 3.7 -17.65 7.35 -13.6 11.15 -4.85 11.15 -3.75 11.15 -2.5 10.4 L-2.5 13.4 0.8 13.4 1.2 13.4 6.5 13.4 6.5 10.25 13.65 10.0 17.55 10.4 18.95 11.4 19.45 12.2 Q20.5 11.1 22.5 10.2 L27.2 9.9 30.7 9.9" fill="none" stroke="#302c1f" stroke-linecap="round" stroke-linejoin="round" stroke-width="0.5"/>
  </g>
</svg>
