<?xml version="1.0" encoding="UTF-8" standalone="no"?>
<svg xmlns:xlink="http://www.w3.org/1999/xlink" height="27.2px" width="32.1px" xmlns="http://www.w3.org/2000/svg">
  <g transform="matrix(1.0, 0.0, 0.0, 1.0, 0.25, 0.25)">
    <path d="M21.8 10.65 L21.7 10.4 Q21.4 15.7 21.35 23.3 L21.7 23.35 21.85 23.3 21.9 11.35 22.15 17.8 Q22.15 20.3 22.3 22.0 L22.35 22.85 Q22.6 22.3 22.45 12.85 L22.4 11.6 Q23.5 13.15 25.35 18.4 25.05 20.35 25.05 21.75 25.05 22.75 25.15 22.65 L25.5 23.2 25.55 19.05 Q25.9 19.85 26.0 23.2 L26.1 20.35 27.0 21.7 28.0 22.7 28.4 22.6 28.5 22.3 22.35 7.95 Q18.95 0.05 16.8 0.05 15.7 0.05 15.35 0.35 L14.35 1.4 15.1 0.0 19.0 0.0 29.1 22.75 29.5 23.3 31.6 23.3 31.6 26.7 0.0 26.7 0.0 23.3 2.0 23.3 12.45 4.75 Q8.8 13.25 2.75 22.55 L3.9 21.8 4.65 21.2 4.5 22.2 4.55 23.0 4.7 23.3 4.9 22.8 5.0 22.95 4.9 22.35 4.85 21.15 4.85 20.95 Q5.05 19.25 7.5 17.1 L7.3 21.1 Q7.3 22.75 7.6 23.05 L7.95 22.3 8.0 22.9 Q8.2 19.3 8.5 17.1 9.0 13.15 11.05 10.65 L11.05 10.95 Q11.25 8.8 11.75 7.8 13.55 6.7 13.85 4.0 L14.45 3.3 14.45 5.0 14.2 5.55 14.1 4.25 14.0 4.1 13.75 11.15 13.9 17.0 14.2 23.2 14.45 21.85 14.5 23.2 Q14.7 23.05 14.7 8.25 15.65 9.0 17.85 9.1 L18.1 23.3 18.3 23.3 18.7 23.3 18.3 23.3 18.4 8.95 18.6 8.9 18.7 23.3 18.9 23.3 18.9 8.7 Q20.05 5.85 18.85 4.35 L18.8 2.35 21.0 6.75 Q21.5 8.3 21.8 10.65 M21.35 23.3 L18.9 23.3 21.35 23.3 M7.65 16.9 L7.85 18.3 7.85 20.1 7.65 16.9 M14.7 4.55 Q14.7 3.35 15.7 2.5 16.7 1.6 18.1 1.6 L18.5 1.55 18.6 4.15 18.35 4.0 18.1 1.6 17.85 3.8 Q16.3 3.6 14.7 4.55 M21.85 23.3 L29.5 23.3 21.85 23.3 M30.95 23.45 Q4.0 23.85 0.5 24.25 L18.65 24.8 25.1 24.8 31.1 24.65 Q31.4 24.4 31.25 23.85 31.95 23.45 30.95 23.45 M14.3 7.6 L14.4 7.75 14.35 9.0 14.3 7.6 M10.7 11.45 L10.45 13.25 10.6 17.45 10.7 23.3 10.8 23.3 11.05 23.05 10.9 18.0 10.8 12.0 10.7 11.45 M10.7 23.3 L4.7 23.3 10.7 23.3 M2.0 23.3 L4.7 23.3 2.0 23.3 M10.8 23.3 L11.2 23.3 18.1 23.3 11.2 23.3 10.8 23.3 M11.2 23.3 L11.05 20.85 11.05 23.05 11.2 23.3" fill="#554935" fill-rule="evenodd" stroke="none"/>
    <path d="M21.9 11.35 L21.85 10.8 21.8 10.65 Q21.5 8.3 21.0 6.75 L18.8 2.35 18.85 4.35 18.6 4.15 18.5 1.55 18.1 1.6 Q16.7 1.6 15.7 2.5 14.7 3.35 14.7 4.55 L14.45 5.0 14.45 3.3 13.85 4.0 Q13.55 6.7 11.75 7.8 11.25 8.8 11.05 10.95 L11.05 10.65 Q9.0 13.15 8.5 17.1 8.2 19.3 8.0 22.9 L7.95 22.3 7.85 20.1 7.85 18.3 7.65 16.9 7.5 17.1 Q5.05 19.25 4.85 20.95 L4.85 21.15 4.75 20.9 4.65 21.2 3.9 21.8 2.75 22.55 Q8.8 13.25 12.45 4.75 L14.35 1.4 15.35 0.35 Q15.7 0.05 16.8 0.05 18.95 0.05 22.35 7.95 L28.5 22.3 28.4 22.6 28.0 22.7 27.0 21.7 26.1 20.35 26.0 23.2 Q25.9 19.85 25.55 19.05 L25.4 18.1 25.35 18.4 Q23.5 13.15 22.4 11.6 L22.45 12.85 Q22.6 22.3 22.35 22.85 L22.3 22.0 Q22.15 20.3 22.15 17.8 L21.9 11.35 M18.9 8.7 L18.9 23.3 18.7 23.3 18.6 8.9 18.9 8.7 M30.95 23.45 Q31.95 23.45 31.25 23.85 31.4 24.4 31.1 24.65 L25.1 24.8 18.65 24.8 0.5 24.25 Q4.0 23.85 30.95 23.45 M14.4 7.75 L14.7 8.25 Q14.7 23.05 14.5 23.2 L14.45 21.85 14.3 15.15 14.35 9.0 14.4 7.75 M4.9 22.35 L5.0 22.95 4.9 22.8 4.9 22.35 M11.2 23.3 L11.05 23.05 11.05 20.85 11.2 23.3" fill="#695a41" fill-rule="evenodd" stroke="none"/>
    <path d="M21.9 11.35 L21.85 23.3 21.7 23.35 21.35 23.3 Q21.4 15.7 21.7 10.4 L21.8 10.65 21.85 10.8 21.9 11.35 M25.35 18.4 L25.4 18.1 25.55 19.05 25.5 23.2 25.15 22.65 Q25.05 22.75 25.05 21.75 25.05 20.35 25.35 18.4 M4.65 21.2 L4.75 20.9 4.85 21.15 4.9 22.35 4.9 22.8 4.7 23.3 4.55 23.0 4.5 22.2 4.65 21.2 M7.5 17.1 L7.65 16.9 7.85 20.1 7.95 22.3 7.6 23.05 Q7.3 22.75 7.3 21.1 L7.5 17.1 M18.35 4.0 L17.85 3.8 18.1 1.6 18.35 4.0 M14.2 5.55 Q14.05 6.8 14.3 7.6 L14.35 9.0 14.3 15.15 14.45 21.85 14.2 23.2 13.9 17.0 13.75 11.15 14.0 4.1 14.1 4.25 14.2 5.55 M17.85 9.1 L18.4 8.95 18.3 23.3 18.1 23.3 17.85 9.1 M10.7 11.45 L10.8 12.0 10.9 18.0 11.05 23.05 10.8 23.3 10.7 23.3 10.6 17.45 10.45 13.25 10.7 11.45" fill="#413829" fill-rule="evenodd" stroke="none"/>
    <path d="M16.9 4.35 Q15.35 5.6 15.35 5.9 15.35 6.7 15.75 7.25 L16.3 5.8 Q16.6 5.15 17.4 4.85 17.4 4.4 16.9 4.35 M17.9 5.35 L17.95 6.1 18.1 7.45 17.35 7.75 16.35 7.95 17.9 5.35 M18.75 6.2 L18.05 5.05 Q18.0 4.65 17.6 4.55 18.05 5.05 17.4 4.85 L15.85 7.8 Q15.15 7.1 15.15 6.2 15.15 4.25 16.8 4.25 17.75 4.25 18.15 4.85 L18.75 6.2" fill="#6c6657" fill-rule="evenodd" stroke="none"/>
    <path d="M18.05 5.05 L17.9 5.35 16.35 7.95 15.85 7.8 17.4 4.85 Q18.05 5.05 17.6 4.55 18.0 4.65 18.05 5.05" fill="#4d483e" fill-rule="evenodd" stroke="none"/>
    <path d="M16.9 4.35 Q17.4 4.4 17.4 4.85 16.6 5.15 16.3 5.8 L15.75 7.25 Q15.35 6.7 15.35 5.9 15.35 5.6 16.9 4.35 M18.1 7.45 L17.95 6.1 17.9 5.35 18.05 5.05 18.75 6.2 18.9 6.45 18.65 7.0 18.1 7.45" fill="#9f9888" fill-rule="evenodd" stroke="none"/>
    <path d="M18.85 4.35 Q20.05 5.85 18.9 8.7 L18.6 8.9 18.4 8.95 17.85 9.1 Q15.65 9.0 14.7 8.25 L14.4 7.75 14.3 7.6 Q14.05 6.8 14.2 5.55 L14.45 5.0 14.7 4.55 Q16.3 3.6 17.85 3.8 L18.35 4.0 18.6 4.15 18.85 4.35 M18.1 7.45 L18.65 7.0 18.9 6.45 18.75 6.2 18.15 4.85 Q17.75 4.25 16.8 4.25 15.15 4.25 15.15 6.2 15.15 7.1 15.85 7.8 L16.35 7.95 17.35 7.75 18.1 7.45" fill="#342d21" fill-rule="evenodd" stroke="none"/>
    <path d="M29.1 22.75 L29.5 23.3" fill="none" stroke="#423828" stroke-linecap="round" stroke-linejoin="round" stroke-width="0.5"/>
    <path d="M18.9 23.3 L21.35 23.3 M14.35 1.4 L12.45 4.75 2.0 23.3 0.0 23.3 0.0 26.7 31.6 26.7 31.6 23.3 29.5 23.3 21.85 23.3 M14.35 1.4 L15.1 0.0 19.0 0.0 29.1 22.75 M4.7 23.3 L10.7 23.3 M4.7 23.3 L2.0 23.3 M18.1 23.3 L11.2 23.3 10.8 23.3 M18.7 23.3 L18.3 23.3" fill="none" stroke="#393124" stroke-linecap="round" stroke-linejoin="round" stroke-width="0.5"/>
  </g>
</svg>
