<?xml version="1.0" encoding="UTF-8" standalone="no"?>
<svg xmlns:xlink="http://www.w3.org/1999/xlink" height="20.5px" width="20.5px" xmlns="http://www.w3.org/2000/svg">
  <g transform="matrix(1.0, 0.0, 0.0, 1.0, 10.25, 10.25)">
    <path d="M4.45 -7.05 Q6.1 -5.3 6.1 -3.85 6.1 -1.7 4.1 -0.3 2.5 0.85 1.1 0.85 -2.0 0.85 -3.4 -1.0 -4.35 -2.2 -4.35 -3.95 -4.35 -5.35 -3.05 -6.85 -1.4 -8.7 0.95 -8.7 L2.1 -8.35 2.4 -8.25 1.8 -8.35 1.65 -8.35 1.5 -8.35 Q-0.65 -8.35 -1.9 -6.95 -2.85 -5.9 -2.85 -4.9 -2.85 -3.3 -1.65 -2.4 -0.45 -1.55 1.4 -1.55 2.9 -1.55 4.0 -2.45 5.25 -3.45 5.25 -5.25 L5.05 -6.15 4.45 -7.05 M2.95 -8.1 L3.35 -7.9 3.05 -8.0 2.95 -8.1" fill="#404648" fill-rule="evenodd" stroke="none"/>
    <path d="M2.4 -8.25 L2.1 -8.35 0.95 -8.7 Q-1.4 -8.7 -3.05 -6.85 -4.35 -5.35 -4.35 -3.95 -4.35 -2.2 -3.4 -1.0 -2.0 0.85 1.1 0.85 2.5 0.85 4.1 -0.3 6.1 -1.7 6.1 -3.85 6.1 -5.3 4.45 -7.05 L3.75 -7.7 3.45 -7.85 3.35 -7.9 2.95 -8.1 2.45 -8.25 2.4 -8.25 M0.15 -9.5 Q2.95 -9.5 4.95 -7.5 6.9 -5.55 6.9 -2.75 6.9 0.05 4.95 2.05 2.95 4.0 0.15 4.0 -2.65 4.0 -4.6 2.05 -6.6 0.05 -6.6 -2.75 -6.6 -5.55 -4.6 -7.5 -2.65 -9.5 0.15 -9.5" fill="#353a3c" fill-rule="evenodd" stroke="none"/>
    <path d="M3.35 -7.9 L3.45 -7.85 3.75 -7.7 4.45 -7.05 5.05 -6.15 5.25 -5.25 Q5.25 -3.45 4.0 -2.45 2.9 -1.55 1.4 -1.55 -0.45 -1.55 -1.65 -2.4 -2.85 -3.3 -2.85 -4.9 -2.85 -5.9 -1.9 -6.95 -0.65 -8.35 1.5 -8.35 L1.65 -8.35 Q0.6 -8.3 -0.15 -7.55 -1.0 -6.75 -1.0 -5.6 -1.0 -4.5 -0.15 -3.7 0.65 -2.9 1.8 -2.9 2.9 -2.9 3.75 -3.7 4.55 -4.5 4.55 -5.6 4.55 -6.75 3.75 -7.55 L3.05 -8.0 3.35 -7.9" fill="#495052" fill-rule="evenodd" stroke="none"/>
    <path d="M0.15 -9.5 Q-2.65 -9.5 -4.6 -7.5 -6.6 -5.55 -6.6 -2.75 -6.6 0.05 -4.6 2.05 -2.65 4.0 0.15 4.0 2.95 4.0 4.95 2.05 6.9 0.05 6.9 -2.75 6.9 -5.55 4.95 -7.5 2.95 -9.5 0.15 -9.5 M0.0 -10.0 Q4.15 -10.0 7.05 -7.05 10.0 -4.15 10.0 0.0 10.0 4.15 7.05 7.05 4.15 10.0 0.0 10.0 -4.15 10.0 -7.05 7.05 -10.0 4.15 -10.0 0.0 -10.0 -4.15 -7.05 -7.05 -4.15 -10.0 0.0 -10.0" fill="#212425" fill-rule="evenodd" stroke="none"/>
    <path d="M0.55 -7.1 Q0.0 -6.55 0.0 -5.8 0.0 -5.05 0.55 -4.5 1.1 -3.95 1.85 -3.95 2.6 -3.95 3.15 -4.5 3.7 -5.05 3.7 -5.8 3.7 -6.55 3.15 -7.1 2.6 -7.65 1.85 -7.65 1.1 -7.65 0.55 -7.1 M2.4 -8.25 L2.45 -8.25 2.95 -8.1 3.05 -8.0 3.75 -7.55 Q4.55 -6.75 4.55 -5.6 4.55 -4.5 3.75 -3.7 2.9 -2.9 1.8 -2.9 0.65 -2.9 -0.15 -3.7 -1.0 -4.5 -1.0 -5.6 -1.0 -6.75 -0.15 -7.55 0.6 -8.3 1.65 -8.35 L1.8 -8.35 2.4 -8.25" fill="#545c5f" fill-rule="evenodd" stroke="none"/>
    <path d="M0.55 -7.1 Q1.1 -7.65 1.85 -7.65 2.6 -7.65 3.15 -7.1 3.7 -6.55 3.7 -5.8 3.7 -5.05 3.15 -4.5 2.6 -3.95 1.85 -3.95 1.1 -3.95 0.55 -4.5 0.0 -5.05 0.0 -5.8 0.0 -6.55 0.55 -7.1" fill="#667073" fill-rule="evenodd" stroke="none"/>
    <path d="M0.0 -10.0 Q-4.15 -10.0 -7.05 -7.05 -10.0 -4.15 -10.0 0.0 -10.0 4.15 -7.05 7.05 -4.15 10.0 0.0 10.0 4.15 10.0 7.05 7.05 10.0 4.15 10.0 0.0 10.0 -4.15 7.05 -7.05 4.15 -10.0 0.0 -10.0 Z" fill="none" stroke="#333333" stroke-linecap="round" stroke-linejoin="round" stroke-width="0.5"/>
  </g>
</svg>
