<?xml version="1.0" encoding="UTF-8" standalone="no"?>
<svg xmlns:xlink="http://www.w3.org/1999/xlink" height="73.65px" width="363.3px" xmlns="http://www.w3.org/2000/svg">
  <g transform="matrix(1.0, 0.0, 0.0, 1.0, 181.65, 36.3)">
    <path d="M18.1 -28.75 Q23.95 -31.5 30.95 -31.5 35.65 -31.5 39.85 -30.2 46.35 -32.6 54.75 -32.6 61.9 -32.6 67.65 -30.9 71.35 -33.85 75.9 -33.85 81.5 -33.85 85.7 -29.4 95.25 -32.6 107.9 -32.6 122.65 -32.6 133.05 -28.3 139.1 -25.85 141.7 -22.65 145.4 -24.7 150.0 -24.7 L155.1 -24.0 Q159.55 -28.9 165.7 -28.9 172.35 -28.9 177.0 -23.25 181.65 -17.5 181.65 -9.3 181.65 -4.8 180.25 -1.0 181.65 1.9 181.65 5.45 181.65 13.05 174.75 18.5 168.85 23.15 160.9 23.85 L158.95 25.95 Q153.55 31.15 145.95 31.15 L143.75 31.05 Q133.4 37.35 118.95 37.35 104.45 37.35 94.15 31.05 79.6 36.1 60.1 36.1 40.45 36.1 25.8 31.0 L20.75 31.4 Q13.1 31.4 7.0 27.9 L-7.4 28.5 -22.5 27.85 Q-34.15 36.15 -49.85 36.15 -62.85 36.15 -73.05 30.45 -85.75 35.75 -103.15 35.75 -121.25 35.75 -134.35 30.0 L-139.35 29.7 Q-146.15 34.9 -155.2 34.9 -166.2 34.9 -173.9 27.2 -181.65 19.45 -181.65 8.45 -181.65 1.95 -178.95 -3.35 -178.0 -9.45 -173.4 -14.55 -172.05 -19.35 -168.3 -23.05 -162.35 -29.05 -153.95 -29.05 L-150.0 -28.65 -148.0 -30.9 Q-142.65 -36.3 -135.0 -36.3 -127.4 -36.3 -122.0 -30.9 L-120.65 -29.4 -113.5 -27.95 Q-111.3 -29.4 -108.75 -30.15 -103.0 -35.15 -95.75 -35.15 -87.95 -35.15 -81.95 -29.4 L-74.1 -28.6 Q-63.5 -34.9 -49.85 -34.9 -38.4 -34.9 -29.15 -30.55 -25.55 -31.5 -21.45 -31.5 -16.7 -31.5 -12.6 -30.15 -6.75 -31.5 0.3 -31.5 10.3 -31.5 18.1 -28.75" fill="#ffffff" fill-opacity="0.8" fill-rule="evenodd" stroke="none"/>
  </g>
</svg>
