<?xml version="1.0" encoding="UTF-8" standalone="no"?>
<svg xmlns:xlink="http://www.w3.org/1999/xlink" height="101.0px" width="255.05px" xmlns="http://www.w3.org/2000/svg">
  <g transform="matrix(1.0, 0.0, 0.0, 1.0, 127.5, 50.5)">
    <path d="M-127.35 5.5 L-127.5 3.5 Q-127.5 -6.45 -115.8 -13.5 -104.05 -20.5 -87.5 -20.5 L-81.2 -20.2 Q-79.8 -29.45 -71.25 -36.3 -61.0 -44.5 -46.5 -44.5 -32.0 -44.5 -21.75 -36.3 -17.1 -32.55 -14.55 -28.15 -8.25 -27.3 -2.8 -24.45 5.25 -28.2 16.0 -28.2 L17.6 -28.15 Q19.65 -35.6 25.5 -41.5 34.55 -50.5 47.3 -50.5 60.05 -50.5 69.05 -41.5 75.3 -35.25 77.25 -27.25 85.65 -34.5 97.05 -34.5 109.7 -34.5 118.6 -25.6 127.55 -16.65 127.55 -4.0 L127.5 -2.0 Q126.85 9.35 118.6 17.55 109.7 26.5 97.05 26.5 84.4 26.5 75.45 17.55 L73.65 15.6 Q70.45 21.5 63.75 26.3 51.0 35.5 32.95 35.5 20.4 35.5 10.4 31.05 L6.5 35.5 Q-4.45 46.5 -20.0 46.5 -35.55 46.5 -46.55 35.5 -53.95 28.1 -56.35 18.55 L-59.25 20.45 Q-70.95 27.5 -87.5 27.5 -104.05 27.5 -115.8 20.45 -126.3 14.15 -127.35 5.5" fill="#ffffff" fill-rule="evenodd" stroke="none"/>
    <path d="M127.5 -2.0 L127.55 0.0 Q127.55 12.65 118.6 21.55 109.7 30.5 97.05 30.5 84.4 30.5 75.45 21.55 L73.65 19.6 Q70.45 25.5 63.75 30.3 51.0 39.5 32.95 39.5 20.4 39.5 10.4 35.05 L6.5 39.5 Q-4.45 50.5 -20.0 50.5 -35.55 50.5 -46.55 39.5 -53.95 32.1 -56.35 22.55 L-59.25 24.45 Q-70.95 31.5 -87.5 31.5 -104.05 31.5 -115.8 24.45 -127.5 17.45 -127.5 7.5 L-127.35 5.5 Q-126.3 14.15 -115.8 20.45 -104.05 27.5 -87.5 27.5 -70.95 27.5 -59.25 20.45 L-56.35 18.55 Q-53.95 28.1 -46.55 35.5 -35.55 46.5 -20.0 46.5 -4.45 46.5 6.5 35.5 L10.4 31.05 Q20.4 35.5 32.95 35.5 51.0 35.5 63.75 26.3 70.45 21.5 73.65 15.6 L75.45 17.55 Q84.4 26.5 97.05 26.5 109.7 26.5 118.6 17.55 126.85 9.35 127.5 -2.0" fill="#ccdde6" fill-rule="evenodd" stroke="none"/>
  </g>
</svg>
