<?xml version="1.0" encoding="UTF-8" standalone="no"?>
<svg xmlns:xlink="http://www.w3.org/1999/xlink" height="128.05px" width="202.05px" xmlns="http://www.w3.org/2000/svg">
  <g transform="matrix(1.0, 0.0, 0.0, 1.0, 101.0, 64.0)">
    <path d="M39.9 -37.75 L39.9 -37.35 Q38.1 -35.75 35.65 -35.05 L34.75 -34.75 Q29.05 -33.2 25.05 -36.7 L24.9 -37.0 25.3 -37.3 26.5 -38.15 26.9 -38.5 Q30.3 -38.3 33.65 -38.4 33.75 -38.4 33.9 -38.5 28.05 -41.4 23.25 -37.35 L22.9 -36.75 Q24.8 -34.15 28.2 -33.65 35.8 -32.6 41.75 -37.0 L41.85 -37.35 41.9 -38.1 41.9 -38.85 41.9 -39.25 41.65 -39.6 41.45 -39.95 41.15 -40.35 Q36.9 -42.95 32.2 -44.4 25.4 -46.45 18.4 -46.0 L17.15 -45.7 Q13.65 -44.95 10.7 -42.9 L10.4 -42.6 10.3 -42.25 10.15 -41.85 10.0 -41.5 9.9 -41.1 9.9 -40.75 9.9 -40.35 9.9 -40.0 10.9 -39.75 11.6 -39.9 11.9 -40.0 11.9 -40.25 11.9 -40.6 11.9 -41.0 12.2 -41.75 12.45 -42.45 12.75 -42.85 Q14.15 -43.7 15.7 -44.2 22.15 -46.4 28.75 -44.75 34.95 -43.2 39.75 -39.25 L39.85 -38.85 39.9 -38.1 39.9 -37.75 M-100.9 14.9 L-101.0 12.9 Q-101.0 -0.3 -87.75 -9.8 -89.0 -14.2 -89.0 -19.0 L-88.95 -21.0 -89.0 -23.0 Q-89.0 -40.0 -73.5 -52.0 -57.95 -64.0 -36.0 -64.0 -14.05 -64.0 1.45 -52.0 L5.45 -48.6 Q13.35 -55.75 24.25 -55.75 35.95 -55.75 44.2 -47.5 47.7 -44.0 49.7 -39.9 54.1 -42.05 59.45 -42.05 68.75 -42.05 75.3 -35.5 81.85 -28.95 81.85 -19.65 L81.8 -17.7 81.85 -16.4 85.1 -14.75 Q87.75 -13.2 90.2 -11.25 101.05 -2.45 101.05 10.0 L101.0 12.0 Q100.15 23.15 90.2 31.2 87.75 33.2 85.1 34.75 L80.9 36.8 Q79.5 45.8 69.05 52.4 57.05 60.05 40.05 60.05 23.05 60.05 11.0 52.4 L7.75 50.1 6.45 51.0 Q-4.1 58.05 -19.0 58.05 -33.9 58.05 -44.45 51.0 -48.05 48.6 -50.45 45.85 L-52.9 45.85 Q-61.1 45.85 -68.3 44.25 -77.05 42.5 -84.2 38.6 -92.25 34.25 -95.2 28.75 -100.35 22.45 -100.9 14.9" fill="#ffffff" fill-rule="evenodd" stroke="none"/>
    <path d="M39.9 -37.75 L39.9 -38.1 39.85 -38.85 39.75 -39.25 Q34.95 -43.2 28.75 -44.75 22.15 -46.4 15.7 -44.2 14.15 -43.7 12.75 -42.85 L12.45 -42.45 12.2 -41.75 11.9 -41.0 11.9 -40.6 11.9 -40.25 11.9 -40.0 11.6 -39.9 10.9 -39.75 9.9 -40.0 9.9 -40.35 9.9 -40.75 9.9 -41.1 10.0 -41.5 10.15 -41.85 10.3 -42.25 10.4 -42.6 10.7 -42.9 Q13.65 -44.95 17.15 -45.7 L18.4 -46.0 Q25.4 -46.45 32.2 -44.4 36.9 -42.95 41.15 -40.35 L41.45 -39.95 41.65 -39.6 41.9 -39.25 41.9 -38.85 41.9 -38.1 41.85 -37.35 41.75 -37.0 Q35.8 -32.6 28.2 -33.65 24.8 -34.15 22.9 -36.75 L23.25 -37.35 Q28.05 -41.4 33.9 -38.5 33.75 -38.4 33.65 -38.4 30.3 -38.3 26.9 -38.5 L26.5 -38.15 25.3 -37.3 24.9 -37.0 25.05 -36.7 Q29.05 -33.2 34.75 -34.75 L35.65 -35.05 Q38.1 -35.75 39.9 -37.35 L39.9 -37.75 M101.0 12.0 L101.05 14.0 Q101.05 26.45 90.2 35.2 87.75 37.2 85.1 38.75 L80.9 40.8 Q79.5 49.8 69.05 56.4 57.05 64.05 40.05 64.05 23.05 64.05 11.0 56.4 L7.75 54.1 6.45 55.0 Q-4.1 62.05 -19.0 62.05 -33.9 62.05 -44.45 55.0 -48.05 52.6 -50.45 49.85 L-52.9 49.85 Q-61.1 49.85 -68.3 48.25 -77.05 46.5 -84.2 42.6 -92.25 38.25 -95.2 32.75 -101.0 25.65 -101.0 16.9 L-100.9 14.9 Q-100.35 22.45 -95.2 28.75 -92.25 34.25 -84.2 38.6 -77.05 42.5 -68.3 44.25 -61.1 45.85 -52.9 45.85 L-50.45 45.85 Q-48.05 48.6 -44.45 51.0 -33.9 58.05 -19.0 58.05 -4.1 58.05 6.45 51.0 L7.75 50.1 11.0 52.4 Q23.05 60.05 40.05 60.05 57.05 60.05 69.05 52.4 79.5 45.8 80.9 36.8 L85.1 34.75 Q87.75 33.2 90.2 31.2 100.15 23.15 101.0 12.0" fill="#ccdde6" fill-rule="evenodd" stroke="none"/>
  </g>
</svg>
