<?xml version="1.0" encoding="UTF-8" standalone="no"?>
<svg xmlns:xlink="http://www.w3.org/1999/xlink" height="112.1px" width="194.1px" xmlns="http://www.w3.org/2000/svg">
  <g transform="matrix(1.0, 0.0, 0.0, 1.0, 97.05, 56.05)">
    <path d="M-96.95 -6.0 L-97.05 -8.0 Q-97.05 -22.1 -81.25 -32.1 -76.4 -35.15 -70.9 -37.25 -67.95 -41.9 -61.05 -45.6 -49.05 -52.05 -32.05 -52.05 L-29.25 -52.0 Q-20.85 -56.05 -10.05 -56.05 4.45 -56.05 14.7 -48.75 L15.35 -48.25 Q23.2 -53.95 33.65 -53.95 45.8 -53.95 54.4 -46.3 62.9 -38.7 63.0 -28.0 76.65 -27.5 86.5 -19.55 97.05 -11.05 97.05 1.0 L97.0 3.0 Q96.15 13.75 86.5 21.55 75.95 30.05 61.0 30.05 L59.75 30.05 Q56.45 37.85 44.25 43.85 27.55 52.05 3.95 52.05 -19.65 52.05 -36.35 43.85 -52.0 36.2 -52.95 25.55 -69.05 23.75 -81.25 16.05 -95.9 6.8 -96.95 -6.0 M80.0 -6.0 Q74.45 -5.6 70.65 -1.55 69.8 -0.65 69.85 0.35 70.15 8.45 79.45 5.35 80.15 5.15 79.85 5.1 75.15 4.45 71.5 1.7 73.55 -2.55 78.55 -2.55 87.5 -2.6 84.55 7.05 83.95 9.05 82.25 10.0 71.05 16.55 59.65 8.35 L57.55 6.9 Q54.0 4.45 57.6 8.9 61.75 13.95 68.15 15.7 81.8 19.4 86.25 7.6 90.4 -3.45 80.0 -6.0 M5.45 -8.0 L5.0 -5.3 Q4.6 0.4 -0.45 4.45 -5.9 8.9 -13.65 8.9 -21.4 8.9 -26.8 4.5 L-32.15 4.9 Q-37.15 4.9 -41.35 3.55 L-48.9 4.35 Q-57.95 4.35 -64.4 0.35 -70.3 -3.3 -70.75 -8.35 L-70.8 -7.5 Q-70.8 -1.85 -64.4 2.1 -57.95 6.1 -48.9 6.1 L-41.35 5.3 Q-37.15 6.65 -32.15 6.65 L-26.8 6.25 Q-21.4 10.65 -13.65 10.65 -5.9 10.65 -0.45 6.2 4.6 2.15 5.0 -3.55 5.45 -5.3 5.45 -7.15 L5.45 -8.0" fill="#ffffff" fill-rule="evenodd" stroke="none"/>
    <path d="M97.0 3.0 L97.05 5.0 Q97.05 17.05 86.5 25.55 75.95 34.05 61.0 34.05 L59.75 34.05 Q56.45 41.85 44.25 47.85 27.55 56.05 3.95 56.05 -19.65 56.05 -36.35 47.85 -52.0 40.2 -52.95 29.55 -69.05 27.75 -81.25 20.05 -97.05 10.1 -97.05 -4.0 L-96.95 -6.0 Q-95.9 6.8 -81.25 16.05 -69.05 23.75 -52.95 25.55 -52.0 36.2 -36.35 43.85 -19.65 52.05 3.95 52.05 27.55 52.05 44.25 43.85 56.45 37.85 59.75 30.05 L61.0 30.05 Q75.95 30.05 86.5 21.55 96.15 13.75 97.0 3.0 M5.45 -8.0 L5.45 -7.15 Q5.45 -5.3 5.0 -3.55 4.6 2.15 -0.45 6.2 -5.9 10.65 -13.65 10.65 -21.4 10.65 -26.8 6.25 L-32.15 6.65 Q-37.15 6.65 -41.35 5.3 L-48.9 6.1 Q-57.95 6.1 -64.4 2.1 -70.8 -1.85 -70.8 -7.5 L-70.75 -8.35 Q-70.3 -3.3 -64.4 0.35 -57.95 4.35 -48.9 4.35 L-41.35 3.55 Q-37.15 4.9 -32.15 4.9 L-26.8 4.5 Q-21.4 8.9 -13.65 8.9 -5.9 8.9 -0.45 4.45 4.6 0.4 5.0 -5.3 L5.45 -8.0 M80.0 -6.0 Q90.4 -3.45 86.25 7.6 81.8 19.4 68.15 15.7 61.75 13.95 57.6 8.9 54.0 4.45 57.55 6.9 L59.65 8.35 Q71.05 16.55 82.25 10.0 83.95 9.05 84.55 7.05 87.5 -2.6 78.55 -2.55 73.55 -2.55 71.5 1.7 75.15 4.45 79.85 5.1 80.15 5.15 79.45 5.35 70.15 8.45 69.85 0.35 69.8 -0.65 70.65 -1.55 74.45 -5.6 80.0 -6.0" fill="#ccdde6" fill-rule="evenodd" stroke="none"/>
  </g>
</svg>
