<?xml version="1.0" encoding="UTF-8" standalone="no"?>
<svg xmlns:xlink="http://www.w3.org/1999/xlink" height="114.05px" width="167.0px" xmlns="http://www.w3.org/2000/svg">
  <g transform="matrix(1.0, 0.0, 0.0, 1.0, 83.5, 57.0)">
    <path d="M-45.3 -0.7 Q-45.3 9.1 -37.95 16.05 -34.05 19.75 -29.35 21.5 -23.65 25.75 -16.35 26.4 L-13.7 26.5 -12.15 26.45 Q-5.3 26.1 0.2 22.7 L1.7 21.65 4.4 19.4 6.05 17.75 11.5 16.8 Q14.55 19.1 18.05 20.3 L19.75 20.8 25.9 21.5 Q35.55 21.5 42.35 15.0 44.75 12.75 46.3 10.25 L45.8 10.1 45.05 9.85 42.35 12.8 Q35.55 19.3 25.9 19.3 L21.65 19.0 20.15 18.7 Q15.4 17.55 11.5 14.6 L6.05 15.55 4.4 17.2 -0.15 20.75 -1.6 21.55 Q-4.9 23.25 -8.6 23.9 L-11.4 24.3 -13.7 24.35 Q-22.65 24.35 -29.35 19.3 -34.05 17.55 -37.95 13.85 -45.0 7.15 -45.3 -2.15 L-45.3 -1.65 -45.3 -1.15 -45.3 -0.7 M-83.35 8.55 L-83.5 6.05 Q-83.5 -5.15 -73.85 -13.05 -67.15 -18.5 -58.55 -20.2 L-54.85 -24.4 Q-48.45 -30.75 -40.75 -33.9 -38.95 -42.0 -32.75 -48.25 -23.95 -57.0 -11.5 -57.0 0.95 -57.0 9.7 -48.25 L12.55 -45.0 Q34.4 -44.45 50.1 -31.6 53.95 -28.45 56.9 -25.0 67.7 -24.7 75.45 -16.95 83.5 -8.9 83.5 2.5 L83.4 5.0 Q82.6 14.8 75.45 21.95 70.95 26.45 65.35 28.45 64.45 37.6 57.75 44.3 50.0 52.05 39.0 52.05 29.35 52.05 22.25 46.15 L10.5 47.05 Q2.1 47.05 -5.45 45.3 -14.0 49.45 -24.25 49.45 -42.15 49.45 -54.85 36.75 L-58.8 32.25 Q-67.25 30.5 -73.85 25.15 -82.4 18.15 -83.35 8.55 M24.8 14.25 L24.5 14.15 24.45 14.25 24.8 14.3 24.8 14.25" fill="#ffffff" fill-rule="evenodd" stroke="none"/>
    <path d="M-45.3 -0.7 L-45.3 -1.15 -45.3 -1.65 -45.3 -2.15 Q-45.0 7.15 -37.95 13.85 -34.05 17.55 -29.35 19.3 -22.65 24.35 -13.7 24.35 L-11.4 24.3 -8.6 23.9 Q-4.9 23.25 -1.6 21.55 L-0.15 20.75 4.4 17.2 6.05 15.55 11.5 14.6 Q15.4 17.55 20.15 18.7 L21.65 19.0 25.9 19.3 Q35.55 19.3 42.35 12.8 L45.05 9.85 45.8 10.1 46.3 10.25 Q44.75 12.75 42.35 15.0 35.55 21.5 25.9 21.5 L19.75 20.8 18.05 20.3 Q14.55 19.1 11.5 16.8 L6.05 17.75 4.4 19.4 1.7 21.65 0.2 22.7 Q-5.3 26.1 -12.15 26.45 L-13.7 26.5 -16.35 26.4 Q-23.65 25.75 -29.35 21.5 -34.05 19.75 -37.95 16.05 -45.3 9.1 -45.3 -0.7 M83.4 5.0 L83.5 7.5 Q83.5 18.9 75.45 26.95 70.95 31.45 65.35 33.45 64.45 42.6 57.75 49.3 50.0 57.05 39.0 57.05 29.35 57.05 22.25 51.15 L10.5 52.05 Q2.1 52.05 -5.45 50.3 -14.0 54.45 -24.25 54.45 -42.15 54.45 -54.85 41.75 L-58.8 37.25 Q-67.25 35.5 -73.85 30.15 -83.5 22.25 -83.5 11.05 L-83.35 8.55 Q-82.4 18.15 -73.85 25.15 -67.25 30.5 -58.8 32.25 L-54.85 36.75 Q-42.15 49.45 -24.25 49.45 -14.0 49.45 -5.45 45.3 2.1 47.05 10.5 47.05 L22.25 46.15 Q29.35 52.05 39.0 52.05 50.0 52.05 57.75 44.3 64.45 37.6 65.35 28.45 70.95 26.45 75.45 21.95 82.6 14.8 83.4 5.0" fill="#ccdde6" fill-rule="evenodd" stroke="none"/>
    <path d="M24.8 14.25 L24.8 14.3 24.45 14.25 24.5 14.15 24.8 14.25" fill="#c1d7e1" fill-rule="evenodd" stroke="none"/>
  </g>
</svg>
