<?xml version="1.0" encoding="UTF-8" standalone="no"?>
<svg xmlns:xlink="http://www.w3.org/1999/xlink" height="127.1px" width="204.55px" xmlns="http://www.w3.org/2000/svg">
  <g transform="matrix(1.0, 0.0, 0.0, 1.0, 102.25, 63.55)">
    <path d="M-101.65 12.0 Q-100.55 -2.9 -88.65 -13.65 L-85.55 -16.2 Q-86.25 -18.75 -86.25 -21.5 -86.25 -23.9 -85.75 -26.1 -85.45 -36.5 -75.5 -43.9 -65.25 -51.5 -50.75 -51.5 L-46.4 -51.3 Q-30.85 -63.55 -10.2 -63.55 14.45 -63.55 31.9 -46.1 L37.1 -40.25 Q42.4 -46.8 49.75 -46.8 57.45 -46.8 62.85 -39.6 68.3 -32.35 68.3 -22.15 L68.2 -19.35 Q81.45 -18.45 91.15 -11.3 102.3 -3.1 102.3 8.5 102.3 11.0 101.8 13.35 99.9 21.85 91.15 28.3 84.75 33.05 76.8 35.05 75.15 43.85 68.4 50.6 59.45 59.55 46.8 59.55 34.15 59.55 25.2 50.6 23.2 48.6 21.7 46.45 7.6 55.55 -10.2 55.55 -23.6 55.55 -34.85 50.4 -44.7 55.5 -56.9 55.5 -75.5 55.5 -88.65 43.65 -101.75 31.8 -101.75 15.0 L-101.65 12.0 M47.6 47.5 Q62.15 45.5 63.85 33.25 63.3 33.2 63.2 33.7 62.55 36.7 60.55 38.8 48.45 51.4 31.6 44.7 38.75 48.7 47.6 47.5 M-9.9 28.45 Q-18.8 28.45 -25.1 24.8 -28.5 22.85 -30.05 20.4 L-31.6 21.05 -33.0 22.3 Q-39.6 27.95 -48.9 27.95 -58.2 27.95 -64.8 22.3 -70.55 17.35 -71.3 10.7 L-71.4 12.7 Q-71.4 20.65 -64.8 26.3 -58.2 31.95 -48.9 31.95 -39.6 31.95 -33.0 26.3 L-31.6 25.05 -30.05 24.4 Q-28.5 26.85 -25.1 28.8 -18.8 32.45 -9.9 32.45 -1.0 32.45 5.3 28.8 11.6 25.15 11.6 19.95 L11.35 17.95 Q10.35 21.85 5.3 24.8 -1.0 28.45 -9.9 28.45" fill="#ffffff" fill-rule="evenodd" stroke="none"/>
    <path d="M-9.9 28.45 Q-1.0 28.45 5.3 24.8 10.35 21.85 11.35 17.95 L11.6 19.95 Q11.6 25.15 5.3 28.8 -1.0 32.45 -9.9 32.45 -18.8 32.45 -25.1 28.8 -28.5 26.85 -30.05 24.4 L-31.6 25.05 -33.0 26.3 Q-39.6 31.95 -48.9 31.95 -58.2 31.95 -64.8 26.3 -71.4 20.65 -71.4 12.7 L-71.3 10.7 Q-70.55 17.35 -64.8 22.3 -58.2 27.95 -48.9 27.95 -39.6 27.95 -33.0 22.3 L-31.6 21.05 -30.05 20.4 Q-28.5 22.85 -25.1 24.8 -18.8 28.45 -9.9 28.45 M47.6 47.5 Q38.75 48.7 31.6 44.7 48.45 51.4 60.55 38.8 62.55 36.7 63.2 33.7 63.3 33.2 63.85 33.25 62.15 45.5 47.6 47.5" fill="#c1d7e1" fill-rule="evenodd" stroke="none"/>
    <path d="M101.8 13.35 Q101.4 24.4 90.65 32.3 84.25 37.05 76.3 39.05 74.65 47.85 67.9 54.6 58.95 63.55 46.3 63.55 33.65 63.55 24.7 54.6 22.7 52.6 21.2 50.45 7.1 59.55 -10.7 59.55 -24.1 59.55 -35.35 54.4 -45.2 59.5 -57.4 59.5 -76.0 59.5 -89.15 47.65 -102.25 35.8 -102.25 19.0 -102.25 15.4 -101.65 12.0 L-101.75 15.0 Q-101.75 31.8 -88.65 43.65 -75.5 55.5 -56.9 55.5 -44.7 55.5 -34.85 50.4 -23.6 55.55 -10.2 55.55 7.6 55.55 21.7 46.45 23.2 48.6 25.2 50.6 34.15 59.55 46.8 59.55 59.45 59.55 68.4 50.6 75.15 43.85 76.8 35.05 84.75 33.05 91.15 28.3 99.9 21.85 101.8 13.35" fill="#ccdde6" fill-rule="evenodd" stroke="none"/>
  </g>
</svg>
