<?xml version="1.0" encoding="UTF-8" standalone="no"?>
<svg xmlns:xlink="http://www.w3.org/1999/xlink" height="130.0px" width="212.05px" xmlns="http://www.w3.org/2000/svg">
  <g transform="matrix(1.0, 0.0, 0.0, 1.0, 106.0, 65.0)">
    <path d="M-100.45 -13.75 Q-97.55 -16.75 -93.1 -19.4 -82.35 -25.7 -67.95 -26.75 -66.2 -29.8 -63.7 -32.5 -59.95 -43.1 -49.9 -51.55 -33.75 -65.0 -10.95 -65.0 11.85 -65.0 27.95 -51.55 38.2 -43.0 41.95 -32.2 L54.05 -33.0 Q75.6 -33.0 90.8 -23.65 101.7 -16.95 104.8 -8.25 105.15 10.6 91.5 16.9 95.8 25.6 94.4 31.8 91.15 46.4 75.0 49.75 55.45 53.75 39.35 44.3 19.0 60.5 4.15 61.45 -10.75 62.35 -20.3 57.55 -35.65 61.45 -45.9 57.7 -56.15 53.95 -61.0 51.4 -65.85 48.8 -75.25 40.35 -84.7 31.9 -84.55 17.7 -98.75 11.7 -102.1 3.1 -104.7 -7.0 -100.45 -13.75 M-9.3 23.15 Q-0.9 23.15 5.05 19.65 9.75 16.85 10.7 13.2 9.25 14.85 6.85 16.3 0.9 19.8 -7.5 19.8 -14.6 19.8 -19.85 17.3 L-21.25 18.35 Q-26.25 21.8 -33.35 21.8 -40.45 21.8 -45.45 18.35 -48.15 16.5 -49.4 14.2 -50.15 12.85 -50.35 11.3 L-51.15 11.0 -54.85 9.25 Q-59.65 6.55 -60.85 3.0 -61.3 1.8 -61.3 0.45 -61.3 -1.4 -60.45 -3.05 -63.45 -0.35 -63.45 3.05 -63.45 4.8 -62.65 6.35 -61.45 9.9 -56.65 12.6 L-52.95 14.35 Q-52.5 16.05 -51.2 17.55 -49.95 19.85 -47.25 21.7 -42.25 25.15 -35.15 25.15 -28.05 25.15 -23.05 21.7 L-21.65 20.65 Q-16.4 23.15 -9.3 23.15 M52.25 33.35 Q48.7 30.9 52.3 35.35 56.45 40.4 62.85 42.15 76.5 45.85 80.95 34.05 85.1 23.0 74.7 20.45 69.15 20.85 65.35 24.9 64.5 25.8 64.55 26.8 64.85 34.9 74.15 31.8 L74.55 31.55 Q69.85 30.9 66.2 28.15 68.25 23.9 73.25 23.9 82.2 23.85 79.25 33.5 78.65 35.5 76.95 36.45 65.75 43.0 54.35 34.8 L52.25 33.35" fill="#ffffff" fill-rule="evenodd" stroke="none"/>
    <path d="M104.8 -8.25 Q106.05 -4.8 106.05 -1.0 106.05 10.15 95.25 18.55 L96.65 21.4 Q98.05 25.0 98.05 29.0 98.05 39.75 87.8 47.35 77.55 55.0 63.05 55.0 49.65 55.0 39.9 48.5 L34.85 53.0 Q19.6 65.0 -1.95 65.0 -11.75 65.0 -20.2 62.55 L-28.95 63.0 Q-51.2 63.0 -67.55 51.35 L-70.7 48.95 Q-85.75 36.75 -87.7 20.15 -90.5 18.9 -93.1 17.35 -106.0 9.75 -106.0 -1.0 L-105.85 -3.2 Q-105.1 -8.95 -100.45 -13.75 -104.7 -7.0 -102.1 3.1 -98.75 11.7 -84.55 17.7 -84.7 31.9 -75.25 40.35 -65.85 48.8 -61.0 51.4 -56.15 53.95 -45.9 57.7 -35.65 61.45 -20.3 57.55 -10.75 62.35 4.15 61.45 19.0 60.5 39.35 44.3 55.45 53.75 75.0 49.75 91.15 46.4 94.4 31.8 95.8 25.6 91.5 16.9 105.15 10.6 104.8 -8.25 M52.25 33.35 L54.35 34.8 Q65.75 43.0 76.95 36.45 78.65 35.5 79.25 33.5 82.2 23.85 73.25 23.9 68.25 23.9 66.2 28.15 69.85 30.9 74.55 31.55 L74.15 31.8 Q64.85 34.9 64.55 26.8 64.5 25.8 65.35 24.9 69.15 20.85 74.7 20.45 85.1 23.0 80.95 34.05 76.5 45.85 62.85 42.15 56.45 40.4 52.3 35.35 48.7 30.9 52.25 33.35" fill="#ccdde6" fill-rule="evenodd" stroke="none"/>
    <path d="M-9.3 23.15 Q-16.4 23.15 -21.65 20.65 L-23.05 21.7 Q-28.05 25.15 -35.15 25.15 -42.25 25.15 -47.25 21.7 -49.95 19.85 -51.2 17.55 -52.5 16.05 -52.95 14.35 L-56.65 12.6 Q-61.45 9.9 -62.65 6.35 -63.45 4.8 -63.45 3.05 -63.45 -0.35 -60.45 -3.05 -61.3 -1.4 -61.3 0.45 -61.3 1.8 -60.85 3.0 -59.65 6.55 -54.85 9.25 L-51.15 11.0 -50.35 11.3 Q-50.15 12.85 -49.4 14.2 -48.15 16.5 -45.45 18.35 -40.45 21.8 -33.35 21.8 -26.25 21.8 -21.25 18.35 L-19.85 17.3 Q-14.6 19.8 -7.5 19.8 0.9 19.8 6.85 16.3 9.25 14.85 10.7 13.2 9.75 16.85 5.05 19.65 -0.9 23.15 -9.3 23.15" fill="#c1d7e1" fill-rule="evenodd" stroke="none"/>
  </g>
</svg>
