<?xml version="1.0" encoding="UTF-8" standalone="no"?>
<svg xmlns:xlink="http://www.w3.org/1999/xlink" height="98.0px" width="174.05px" xmlns="http://www.w3.org/2000/svg">
  <g transform="matrix(1.0, 0.0, 0.0, 1.0, 87.0, 49.0)">
    <path d="M-83.1 13.2 Q-87.0 8.15 -87.0 2.0 -87.0 -8.35 -75.85 -15.7 -65.85 -22.25 -52.15 -22.9 -50.1 -32.0 -43.05 -39.05 -33.1 -49.0 -19.0 -49.0 -8.8 -49.0 -0.75 -43.75 10.0 -48.7 23.5 -48.7 43.2 -48.7 57.15 -38.2 71.1 -27.7 71.1 -12.85 L70.8 -8.35 75.3 -6.0 Q80.65 -2.8 83.6 1.05 89.15 16.7 72.65 24.75 57.25 31.2 47.35 29.9 32.05 44.3 4.65 44.2 -22.75 44.1 -36.05 22.25 -56.2 27.7 -83.1 13.2 M20.15 27.0 Q19.6 25.5 17.85 25.95 -0.65 30.45 -12.35 20.0 -14.25 21.05 -12.0 22.75 2.65 33.6 20.15 27.0 M11.5 18.6 Q11.1 18.25 10.7 18.35 3.3 19.7 -2.85 16.45 -3.75 16.55 -3.3 16.95 4.1 23.8 11.5 18.6" fill="#ffffff" fill-rule="evenodd" stroke="none"/>
    <path d="M83.6 1.05 Q87.05 5.6 87.05 11.0 87.05 20.95 75.3 27.95 64.35 34.55 49.15 35.0 45.85 38.75 39.85 41.95 26.7 49.0 8.05 49.0 -10.6 49.0 -23.8 41.95 -36.4 35.25 -36.9 25.8 -42.55 27.0 -48.95 27.0 -64.7 27.0 -75.85 19.65 -80.4 16.65 -83.1 13.2 -56.2 27.7 -36.05 22.25 -22.75 44.1 4.65 44.2 32.05 44.3 47.35 29.9 57.25 31.2 72.65 24.75 89.15 16.7 83.6 1.05 M11.5 18.6 Q4.1 23.8 -3.3 16.95 -3.75 16.55 -2.85 16.45 3.3 19.7 10.7 18.35 11.1 18.25 11.5 18.6 M20.15 27.0 Q2.65 33.6 -12.0 22.75 -14.25 21.05 -12.35 20.0 -0.65 30.45 17.85 25.95 19.6 25.5 20.15 27.0" fill="#ccdde6" fill-rule="evenodd" stroke="none"/>
  </g>
</svg>
